<?xml version="1.0" encoding="UTF-8" standalone="no"?>
<!DOCTYPE svg PUBLIC "-//W3C//DTD SVG 1.1//EN"
 "http://www.w3.org/Graphics/SVG/1.1/DTD/svg11.dtd">
<!-- Generated by graphviz version 2.36.0 (20140111.2315)
 -->
<!-- Title: /home/travis/build/STORM&#45;IRIT/Radium&#45;Engine/src/Core/Utils/Graph/AdjacencyListOperation.cpp Pages: 1 -->
<svg width="1590pt" height="502pt"
 viewBox="0.00 0.00 1590.00 502.00" xmlns="http://www.w3.org/2000/svg" xmlns:xlink="http://www.w3.org/1999/xlink">
<g id="graph0" class="graph" transform="scale(1 1) rotate(0) translate(4 498)">
<title>/home/travis/build/STORM&#45;IRIT/Radium&#45;Engine/src/Core/Utils/Graph/AdjacencyListOperation.cpp</title>
<polygon fill="white" stroke="none" points="-4,4 -4,-498 1586,-498 1586,4 -4,4"/>
<!-- Node1 -->
<g id="node1" class="node"><title>Node1</title>
<polygon fill="#bfbfbf" stroke="black" points="1367,-441 1367,-493 1525,-493 1525,-441 1367,-441"/>
<text text-anchor="start" x="1375" y="-481" font-family="Helvetica,sans-Serif" font-size="10.00">/home/travis/build</text>
<text text-anchor="start" x="1375" y="-470" font-family="Helvetica,sans-Serif" font-size="10.00">/STORM&#45;IRIT/Radium&#45;Engine</text>
<text text-anchor="start" x="1375" y="-459" font-family="Helvetica,sans-Serif" font-size="10.00">/src/Core/Utils/Graph/Adjacency</text>
<text text-anchor="middle" x="1446" y="-448" font-family="Helvetica,sans-Serif" font-size="10.00">ListOperation.cpp</text>
</g>
<!-- Node2 -->
<g id="node2" class="node"><title>Node2</title>
<g id="a_node2"><a xlink:href="AdjacencyListOperation_8hpp.html" target="_top" xlink:title="Core/Utils/Graph/Adjacency\lListOperation.hpp">
<polygon fill="white" stroke="black" points="1117.5,-373 1117.5,-403 1256.5,-403 1256.5,-373 1117.5,-373"/>
<text text-anchor="start" x="1125.5" y="-391" font-family="Helvetica,sans-Serif" font-size="10.00">Core/Utils/Graph/Adjacency</text>
<text text-anchor="middle" x="1187" y="-380" font-family="Helvetica,sans-Serif" font-size="10.00">ListOperation.hpp</text>
</a>
</g>
</g>
<!-- Node1&#45;&gt;Node2 -->
<g id="edge1" class="edge"><title>Node1&#45;&gt;Node2</title>
<path fill="none" stroke="midnightblue" d="M1366.88,-442.479C1327.31,-430.715 1280.31,-416.74 1244.27,-406.027"/>
<polygon fill="midnightblue" stroke="midnightblue" points="1245,-402.591 1234.42,-403.096 1243,-409.301 1245,-402.591"/>
</g>
<!-- Node9 -->
<g id="node9" class="node"><title>Node9</title>
<polygon fill="white" stroke="#bfbfbf" points="1050,-0.5 1050,-19.5 1104,-19.5 1104,-0.5 1050,-0.5"/>
<text text-anchor="middle" x="1077" y="-7.5" font-family="Helvetica,sans-Serif" font-size="10.00">iostream</text>
</g>
<!-- Node1&#45;&gt;Node9 -->
<g id="edge42" class="edge"><title>Node1&#45;&gt;Node9</title>
<path fill="none" stroke="midnightblue" d="M1446,-440.853C1446,-411.936 1446,-363.04 1446,-321 1446,-321 1446,-321 1446,-121 1446,-52.2875 1208.04,-22.9969 1114.31,-14.1242"/>
<polygon fill="midnightblue" stroke="midnightblue" points="1114.41,-10.6192 1104.13,-13.1882 1113.77,-17.5897 1114.41,-10.6192"/>
</g>
<!-- Node29 -->
<g id="node29" class="node"><title>Node29</title>
<g id="a_node29"><a xlink:href="AdjacencyList_8hpp.html" target="_top" xlink:title="Core/Utils/Graph/Adjacency\lList.hpp">
<polygon fill="white" stroke="black" points="1278.5,-305 1278.5,-335 1417.5,-335 1417.5,-305 1278.5,-305"/>
<text text-anchor="start" x="1286.5" y="-323" font-family="Helvetica,sans-Serif" font-size="10.00">Core/Utils/Graph/Adjacency</text>
<text text-anchor="middle" x="1348" y="-312" font-family="Helvetica,sans-Serif" font-size="10.00">List.hpp</text>
</a>
</g>
</g>
<!-- Node1&#45;&gt;Node29 -->
<g id="edge40" class="edge"><title>Node1&#45;&gt;Node29</title>
<path fill="none" stroke="midnightblue" d="M1428.93,-440.743C1410.39,-413.307 1381.04,-369.884 1363.24,-343.556"/>
<polygon fill="midnightblue" stroke="midnightblue" points="1365.97,-341.336 1357.47,-335.01 1360.17,-345.255 1365.97,-341.336"/>
</g>
<!-- Node32 -->
<g id="node32" class="node"><title>Node32</title>
<polygon fill="white" stroke="#bfbfbf" points="1474,-378.5 1474,-397.5 1524,-397.5 1524,-378.5 1474,-378.5"/>
<text text-anchor="middle" x="1499" y="-385.5" font-family="Helvetica,sans-Serif" font-size="10.00">fstream</text>
</g>
<!-- Node1&#45;&gt;Node32 -->
<g id="edge41" class="edge"><title>Node1&#45;&gt;Node32</title>
<path fill="none" stroke="midnightblue" d="M1463.35,-440.787C1471.21,-429.37 1480.29,-416.176 1487.32,-405.962"/>
<polygon fill="midnightblue" stroke="midnightblue" points="1490.32,-407.779 1493.11,-397.558 1484.56,-403.811 1490.32,-407.779"/>
</g>
<!-- Node33 -->
<g id="node33" class="node"><title>Node33</title>
<polygon fill="white" stroke="#bfbfbf" points="1542,-378.5 1542,-397.5 1582,-397.5 1582,-378.5 1542,-378.5"/>
<text text-anchor="middle" x="1562" y="-385.5" font-family="Helvetica,sans-Serif" font-size="10.00">utility</text>
</g>
<!-- Node1&#45;&gt;Node33 -->
<g id="edge43" class="edge"><title>Node1&#45;&gt;Node33</title>
<path fill="none" stroke="midnightblue" d="M1483.98,-440.787C1502.76,-428.321 1524.73,-413.737 1540.57,-403.228"/>
<polygon fill="midnightblue" stroke="midnightblue" points="1542.71,-406.004 1549.11,-397.558 1538.84,-400.172 1542.71,-406.004"/>
</g>
<!-- Node3 -->
<g id="node3" class="node"><title>Node3</title>
<g id="a_node3"><a xlink:href="VectorArray_8hpp.html" target="_top" xlink:title="Core/Containers/VectorArray.hpp">
<polygon fill="white" stroke="black" points="1013.5,-310.5 1013.5,-329.5 1174.5,-329.5 1174.5,-310.5 1013.5,-310.5"/>
<text text-anchor="middle" x="1094" y="-317.5" font-family="Helvetica,sans-Serif" font-size="10.00">Core/Containers/VectorArray.hpp</text>
</a>
</g>
</g>
<!-- Node2&#45;&gt;Node3 -->
<g id="edge2" class="edge"><title>Node2&#45;&gt;Node3</title>
<path fill="none" stroke="midnightblue" d="M1166.82,-372.679C1151.37,-361.713 1130.14,-346.645 1114.58,-335.609"/>
<polygon fill="midnightblue" stroke="midnightblue" points="1116.35,-332.571 1106.17,-329.638 1112.3,-338.28 1116.35,-332.571"/>
</g>
<!-- Node25 -->
<g id="node25" class="node"><title>Node25</title>
<g id="a_node25"><a xlink:href="MeshTypes_8hpp.html" target="_top" xlink:title="Core/Mesh/MeshTypes.hpp">
<polygon fill="white" stroke="black" points="373.5,-310.5 373.5,-329.5 510.5,-329.5 510.5,-310.5 373.5,-310.5"/>
<text text-anchor="middle" x="442" y="-317.5" font-family="Helvetica,sans-Serif" font-size="10.00">Core/Mesh/MeshTypes.hpp</text>
</a>
</g>
</g>
<!-- Node2&#45;&gt;Node25 -->
<g id="edge29" class="edge"><title>Node2&#45;&gt;Node25</title>
<path fill="none" stroke="midnightblue" d="M1117.25,-380.821C978.157,-368.498 667.126,-340.944 520.867,-327.987"/>
<polygon fill="midnightblue" stroke="midnightblue" points="520.896,-324.476 510.626,-327.08 520.278,-331.449 520.896,-324.476"/>
</g>
<!-- Node2&#45;&gt;Node29 -->
<g id="edge35" class="edge"><title>Node2&#45;&gt;Node29</title>
<path fill="none" stroke="midnightblue" d="M1221.54,-372.841C1245.81,-362.89 1278.48,-349.5 1304.53,-338.822"/>
<polygon fill="midnightblue" stroke="midnightblue" points="1305.87,-342.053 1313.8,-335.022 1303.21,-335.576 1305.87,-342.053"/>
</g>
<!-- Node4 -->
<g id="node4" class="node"><title>Node4</title>
<g id="a_node4"><a xlink:href="AlignedStdVector_8hpp.html" target="_top" xlink:title="Core/Containers/AlignedStd\lVector.hpp">
<polygon fill="white" stroke="black" points="1122,-237 1122,-267 1260,-267 1260,-237 1122,-237"/>
<text text-anchor="start" x="1130" y="-255" font-family="Helvetica,sans-Serif" font-size="10.00">Core/Containers/AlignedStd</text>
<text text-anchor="middle" x="1191" y="-244" font-family="Helvetica,sans-Serif" font-size="10.00">Vector.hpp</text>
</a>
</g>
</g>
<!-- Node3&#45;&gt;Node4 -->
<g id="edge3" class="edge"><title>Node3&#45;&gt;Node4</title>
<path fill="none" stroke="midnightblue" d="M1106.68,-310.372C1120.54,-300.943 1143.21,-285.517 1161.56,-273.034"/>
<polygon fill="midnightblue" stroke="midnightblue" points="1163.86,-275.701 1170.16,-267.181 1159.92,-269.913 1163.86,-275.701"/>
</g>
<!-- Node5 -->
<g id="node5" class="node"><title>Node5</title>
<g id="a_node5"><a xlink:href="RaCore_8hpp.html" target="_top" xlink:title="Core/RaCore.hpp">
<polygon fill="white" stroke="black" points="570.5,-112.5 570.5,-131.5 663.5,-131.5 663.5,-112.5 570.5,-112.5"/>
<text text-anchor="middle" x="617" y="-119.5" font-family="Helvetica,sans-Serif" font-size="10.00">Core/RaCore.hpp</text>
</a>
</g>
</g>
<!-- Node3&#45;&gt;Node5 -->
<g id="edge27" class="edge"><title>Node3&#45;&gt;Node5</title>
<path fill="none" stroke="midnightblue" d="M1093.63,-310.368C1092,-284.03 1083.2,-204.291 1036,-168 1007.87,-146.371 781.77,-131.682 673.888,-125.835"/>
<polygon fill="midnightblue" stroke="midnightblue" points="674.001,-122.336 663.828,-125.296 673.627,-129.326 674.001,-122.336"/>
</g>
<!-- Node13 -->
<g id="node13" class="node"><title>Node13</title>
<polygon fill="white" stroke="#bfbfbf" points="1084,-174.5 1084,-193.5 1128,-193.5 1128,-174.5 1084,-174.5"/>
<text text-anchor="middle" x="1106" y="-181.5" font-family="Helvetica,sans-Serif" font-size="10.00">vector</text>
</g>
<!-- Node3&#45;&gt;Node13 -->
<g id="edge28" class="edge"><title>Node3&#45;&gt;Node13</title>
<path fill="none" stroke="midnightblue" d="M1094.79,-310.208C1096.71,-288.722 1101.69,-233.167 1104.32,-203.814"/>
<polygon fill="midnightblue" stroke="midnightblue" points="1107.82,-203.923 1105.23,-193.65 1100.85,-203.298 1107.82,-203.923"/>
</g>
<!-- Node14 -->
<g id="node14" class="node"><title>Node14</title>
<g id="a_node14"><a xlink:href="LinearAlgebra_8hpp.html" target="_top" xlink:title="Core/Math/LinearAlgebra.hpp">
<polygon fill="white" stroke="black" points="544.5,-242.5 544.5,-261.5 687.5,-261.5 687.5,-242.5 544.5,-242.5"/>
<text text-anchor="middle" x="616" y="-249.5" font-family="Helvetica,sans-Serif" font-size="10.00">Core/Math/LinearAlgebra.hpp</text>
</a>
</g>
</g>
<!-- Node3&#45;&gt;Node14 -->
<g id="edge13" class="edge"><title>Node3&#45;&gt;Node14</title>
<path fill="none" stroke="midnightblue" d="M1032,-310.439C943.527,-298.223 781.434,-275.842 687.841,-262.92"/>
<polygon fill="midnightblue" stroke="midnightblue" points="688.275,-259.446 677.89,-261.546 687.318,-266.38 688.275,-259.446"/>
</g>
<!-- Node4&#45;&gt;Node5 -->
<g id="edge4" class="edge"><title>Node4&#45;&gt;Node5</title>
<path fill="none" stroke="midnightblue" d="M1186.16,-236.956C1178.71,-217.703 1162.45,-183.715 1136,-168 1097,-144.834 800.416,-130.342 673.899,-125.155"/>
<polygon fill="midnightblue" stroke="midnightblue" points="673.775,-121.647 663.642,-124.739 673.492,-128.641 673.775,-121.647"/>
</g>
<!-- Node12 -->
<g id="node12" class="node"><title>Node12</title>
<polygon fill="white" stroke="#bfbfbf" points="1184,-174.5 1184,-193.5 1272,-193.5 1272,-174.5 1184,-174.5"/>
<text text-anchor="middle" x="1228" y="-181.5" font-family="Helvetica,sans-Serif" font-size="10.00">Eigen/StdVector</text>
</g>
<!-- Node4&#45;&gt;Node12 -->
<g id="edge11" class="edge"><title>Node4&#45;&gt;Node12</title>
<path fill="none" stroke="midnightblue" d="M1199.03,-236.679C1204.63,-226.694 1212.13,-213.307 1218.1,-202.66"/>
<polygon fill="midnightblue" stroke="midnightblue" points="1221.21,-204.263 1223.05,-193.828 1215.11,-200.84 1221.21,-204.263"/>
</g>
<!-- Node4&#45;&gt;Node13 -->
<g id="edge12" class="edge"><title>Node4&#45;&gt;Node13</title>
<path fill="none" stroke="midnightblue" d="M1172.56,-236.679C1158.65,-225.879 1139.61,-211.098 1125.46,-200.11"/>
<polygon fill="midnightblue" stroke="midnightblue" points="1127.41,-197.197 1117.37,-193.828 1123.12,-202.726 1127.41,-197.197"/>
</g>
<!-- Node6 -->
<g id="node6" class="node"><title>Node6</title>
<g id="a_node6"><a xlink:href="CoreMacros_8hpp.html" target="_top" xlink:title="Core/CoreMacros.hpp">
<polygon fill="white" stroke="black" points="669.5,-56.5 669.5,-75.5 782.5,-75.5 782.5,-56.5 669.5,-56.5"/>
<text text-anchor="middle" x="726" y="-63.5" font-family="Helvetica,sans-Serif" font-size="10.00">Core/CoreMacros.hpp</text>
</a>
</g>
</g>
<!-- Node5&#45;&gt;Node6 -->
<g id="edge5" class="edge"><title>Node5&#45;&gt;Node6</title>
<path fill="none" stroke="midnightblue" d="M634.513,-112.324C652.072,-103.625 679.331,-90.1202 699.531,-80.113"/>
<polygon fill="midnightblue" stroke="midnightblue" points="701.124,-83.23 708.531,-75.6545 698.016,-76.9575 701.124,-83.23"/>
</g>
<!-- Node7 -->
<g id="node7" class="node"><title>Node7</title>
<polygon fill="white" stroke="#bfbfbf" points="604.5,-0.5 604.5,-19.5 653.5,-19.5 653.5,-0.5 604.5,-0.5"/>
<text text-anchor="middle" x="629" y="-7.5" font-family="Helvetica,sans-Serif" font-size="10.00">cassert</text>
</g>
<!-- Node6&#45;&gt;Node7 -->
<g id="edge6" class="edge"><title>Node6&#45;&gt;Node7</title>
<path fill="none" stroke="midnightblue" d="M710.415,-56.324C695.001,-47.7428 671.188,-34.486 653.29,-24.5224"/>
<polygon fill="midnightblue" stroke="midnightblue" points="654.986,-21.4606 644.546,-19.6545 651.581,-27.5767 654.986,-21.4606"/>
</g>
<!-- Node8 -->
<g id="node8" class="node"><title>Node8</title>
<polygon fill="white" stroke="#bfbfbf" points="671.5,-0.5 671.5,-19.5 714.5,-19.5 714.5,-0.5 671.5,-0.5"/>
<text text-anchor="middle" x="693" y="-7.5" font-family="Helvetica,sans-Serif" font-size="10.00">cstdio</text>
</g>
<!-- Node6&#45;&gt;Node8 -->
<g id="edge7" class="edge"><title>Node6&#45;&gt;Node8</title>
<path fill="none" stroke="midnightblue" d="M720.551,-56.083C715.986,-48.6127 709.332,-37.7244 703.707,-28.5199"/>
<polygon fill="midnightblue" stroke="midnightblue" points="706.549,-26.4588 698.348,-19.7511 700.576,-30.109 706.549,-26.4588"/>
</g>
<!-- Node6&#45;&gt;Node9 -->
<g id="edge8" class="edge"><title>Node6&#45;&gt;Node9</title>
<path fill="none" stroke="midnightblue" d="M781.617,-56.4435C853.797,-45.3389 977.801,-26.2613 1039.65,-16.7463"/>
<polygon fill="midnightblue" stroke="midnightblue" points="1040.39,-20.1742 1049.74,-15.1943 1039.32,-13.2556 1040.39,-20.1742"/>
</g>
<!-- Node10 -->
<g id="node10" class="node"><title>Node10</title>
<polygon fill="white" stroke="#bfbfbf" points="733,-0.5 733,-19.5 785,-19.5 785,-0.5 733,-0.5"/>
<text text-anchor="middle" x="759" y="-7.5" font-family="Helvetica,sans-Serif" font-size="10.00">sstream</text>
</g>
<!-- Node6&#45;&gt;Node10 -->
<g id="edge9" class="edge"><title>Node6&#45;&gt;Node10</title>
<path fill="none" stroke="midnightblue" d="M731.449,-56.083C736.014,-48.6127 742.668,-37.7244 748.293,-28.5199"/>
<polygon fill="midnightblue" stroke="midnightblue" points="751.424,-30.109 753.652,-19.7511 745.451,-26.4588 751.424,-30.109"/>
</g>
<!-- Node11 -->
<g id="node11" class="node"><title>Node11</title>
<polygon fill="white" stroke="#bfbfbf" points="803,-0.5 803,-19.5 847,-19.5 847,-0.5 803,-0.5"/>
<text text-anchor="middle" x="825" y="-7.5" font-family="Helvetica,sans-Serif" font-size="10.00">thread</text>
</g>
<!-- Node6&#45;&gt;Node11 -->
<g id="edge10" class="edge"><title>Node6&#45;&gt;Node11</title>
<path fill="none" stroke="midnightblue" d="M741.906,-56.324C757.638,-47.7428 781.942,-34.486 800.209,-24.5224"/>
<polygon fill="midnightblue" stroke="midnightblue" points="802.03,-27.5157 809.133,-19.6545 798.678,-21.3704 802.03,-27.5157"/>
</g>
<!-- Node14&#45;&gt;Node5 -->
<g id="edge14" class="edge"><title>Node14&#45;&gt;Node5</title>
<path fill="none" stroke="midnightblue" d="M585.44,-242.363C564.946,-234.802 539.501,-221.571 527,-200 519.869,-187.695 519.523,-180.098 527,-168 536.673,-152.348 553.622,-141.958 570.222,-135.15"/>
<polygon fill="midnightblue" stroke="midnightblue" points="571.751,-138.315 579.898,-131.542 569.305,-131.756 571.751,-138.315"/>
</g>
<!-- Node15 -->
<g id="node15" class="node"><title>Node15</title>
<polygon fill="white" stroke="#bfbfbf" points="536.5,-174.5 536.5,-193.5 601.5,-193.5 601.5,-174.5 536.5,-174.5"/>
<text text-anchor="middle" x="569" y="-181.5" font-family="Helvetica,sans-Serif" font-size="10.00">Eigen/Core</text>
</g>
<!-- Node14&#45;&gt;Node15 -->
<g id="edge15" class="edge"><title>Node14&#45;&gt;Node15</title>
<path fill="none" stroke="midnightblue" d="M609.856,-242.372C602.647,-232.25 590.517,-215.215 581.342,-202.331"/>
<polygon fill="midnightblue" stroke="midnightblue" points="583.948,-199.957 575.296,-193.841 578.246,-204.017 583.948,-199.957"/>
</g>
<!-- Node16 -->
<g id="node16" class="node"><title>Node16</title>
<polygon fill="white" stroke="#bfbfbf" points="619.5,-174.5 619.5,-193.5 706.5,-193.5 706.5,-174.5 619.5,-174.5"/>
<text text-anchor="middle" x="663" y="-181.5" font-family="Helvetica,sans-Serif" font-size="10.00">Eigen/Geometry</text>
</g>
<!-- Node14&#45;&gt;Node16 -->
<g id="edge16" class="edge"><title>Node14&#45;&gt;Node16</title>
<path fill="none" stroke="midnightblue" d="M622.144,-242.372C629.353,-232.25 641.483,-215.215 650.658,-202.331"/>
<polygon fill="midnightblue" stroke="midnightblue" points="653.754,-204.017 656.704,-193.841 648.052,-199.957 653.754,-204.017"/>
</g>
<!-- Node17 -->
<g id="node17" class="node"><title>Node17</title>
<polygon fill="white" stroke="#bfbfbf" points="724.5,-174.5 724.5,-193.5 799.5,-193.5 799.5,-174.5 724.5,-174.5"/>
<text text-anchor="middle" x="762" y="-181.5" font-family="Helvetica,sans-Serif" font-size="10.00">Eigen/Sparse</text>
</g>
<!-- Node14&#45;&gt;Node17 -->
<g id="edge17" class="edge"><title>Node14&#45;&gt;Node17</title>
<path fill="none" stroke="midnightblue" d="M635.087,-242.372C660.226,-231.007 704.638,-210.931 733.693,-197.796"/>
<polygon fill="midnightblue" stroke="midnightblue" points="735.238,-200.939 742.908,-193.63 732.354,-194.56 735.238,-200.939"/>
</g>
<!-- Node18 -->
<g id="node18" class="node"><title>Node18</title>
<polygon fill="white" stroke="#bfbfbf" points="817.5,-174.5 817.5,-193.5 876.5,-193.5 876.5,-174.5 817.5,-174.5"/>
<text text-anchor="middle" x="847" y="-181.5" font-family="Helvetica,sans-Serif" font-size="10.00">functional</text>
</g>
<!-- Node14&#45;&gt;Node18 -->
<g id="edge18" class="edge"><title>Node14&#45;&gt;Node18</title>
<path fill="none" stroke="midnightblue" d="M652.791,-242.475C691.693,-233.171 754.685,-217.278 808,-200 810.782,-199.098 813.655,-198.109 816.521,-197.081"/>
<polygon fill="midnightblue" stroke="midnightblue" points="817.949,-200.285 826.098,-193.514 815.505,-193.725 817.949,-200.285"/>
</g>
<!-- Node19 -->
<g id="node19" class="node"><title>Node19</title>
<polygon fill="white" stroke="#bfbfbf" points="894.5,-169 894.5,-199 1027.5,-199 1027.5,-169 894.5,-169"/>
<text text-anchor="start" x="902.5" y="-187" font-family="Helvetica,sans-Serif" font-size="10.00">unsupported/Eigen/Aligned</text>
<text text-anchor="middle" x="961" y="-176" font-family="Helvetica,sans-Serif" font-size="10.00">Vector3</text>
</g>
<!-- Node14&#45;&gt;Node19 -->
<g id="edge19" class="edge"><title>Node14&#45;&gt;Node19</title>
<path fill="none" stroke="midnightblue" d="M661.713,-242.441C713.211,-232.775 799.695,-216.471 884.246,-200.138"/>
<polygon fill="midnightblue" stroke="midnightblue" points="885.124,-203.533 894.277,-198.198 883.795,-196.66 885.124,-203.533"/>
</g>
<!-- Node20 -->
<g id="node20" class="node"><title>Node20</title>
<g id="a_node20"><a xlink:href="Math_8hpp.html" target="_top" xlink:title="Core/Math/Math.hpp">
<polygon fill="white" stroke="black" points="180,-174.5 180,-193.5 286,-193.5 286,-174.5 180,-174.5"/>
<text text-anchor="middle" x="233" y="-181.5" font-family="Helvetica,sans-Serif" font-size="10.00">Core/Math/Math.hpp</text>
</a>
</g>
</g>
<!-- Node14&#45;&gt;Node20 -->
<g id="edge20" class="edge"><title>Node14&#45;&gt;Node20</title>
<path fill="none" stroke="midnightblue" d="M566.322,-242.439C496.15,-230.347 368.178,-208.294 292.857,-195.315"/>
<polygon fill="midnightblue" stroke="midnightblue" points="293.039,-191.795 282.59,-193.546 291.85,-198.693 293.039,-191.795"/>
</g>
<!-- Node24 -->
<g id="node24" class="node"><title>Node24</title>
<g id="a_node24"><a xlink:href="LinearAlgebra_8inl.html" target="_top" xlink:title="Core/Math/LinearAlgebra.inl">
<polygon fill="white" stroke="black" points="342.5,-174.5 342.5,-193.5 479.5,-193.5 479.5,-174.5 342.5,-174.5"/>
<text text-anchor="middle" x="411" y="-181.5" font-family="Helvetica,sans-Serif" font-size="10.00">Core/Math/LinearAlgebra.inl</text>
</a>
</g>
</g>
<!-- Node14&#45;&gt;Node24 -->
<g id="edge26" class="edge"><title>Node14&#45;&gt;Node24</title>
<path fill="none" stroke="midnightblue" d="M589.2,-242.372C552.804,-230.654 487.638,-209.674 447.003,-196.591"/>
<polygon fill="midnightblue" stroke="midnightblue" points="448.073,-193.259 437.482,-193.526 445.928,-199.922 448.073,-193.259"/>
</g>
<!-- Node20&#45;&gt;Node5 -->
<g id="edge21" class="edge"><title>Node20&#45;&gt;Node5</title>
<path fill="none" stroke="midnightblue" d="M268.707,-174.455C278.793,-172.192 289.798,-169.863 300,-168 390.518,-151.469 496.518,-137.502 560.13,-129.694"/>
<polygon fill="midnightblue" stroke="midnightblue" points="560.847,-133.133 570.35,-128.448 560,-126.184 560.847,-133.133"/>
</g>
<!-- Node21 -->
<g id="node21" class="node"><title>Node21</title>
<polygon fill="white" stroke="#bfbfbf" points="92,-112.5 92,-131.5 148,-131.5 148,-112.5 92,-112.5"/>
<text text-anchor="middle" x="120" y="-119.5" font-family="Helvetica,sans-Serif" font-size="10.00">algorithm</text>
</g>
<!-- Node20&#45;&gt;Node21 -->
<g id="edge22" class="edge"><title>Node20&#45;&gt;Node21</title>
<path fill="none" stroke="midnightblue" d="M216.81,-174.403C198.098,-164.468 167.077,-147.997 145.201,-136.381"/>
<polygon fill="midnightblue" stroke="midnightblue" points="146.634,-133.179 136.16,-131.581 143.351,-139.362 146.634,-133.179"/>
</g>
<!-- Node22 -->
<g id="node22" class="node"><title>Node22</title>
<polygon fill="white" stroke="#bfbfbf" points="166,-112.5 166,-131.5 210,-131.5 210,-112.5 166,-112.5"/>
<text text-anchor="middle" x="188" y="-119.5" font-family="Helvetica,sans-Serif" font-size="10.00">cmath</text>
</g>
<!-- Node20&#45;&gt;Node22 -->
<g id="edge23" class="edge"><title>Node20&#45;&gt;Node22</title>
<path fill="none" stroke="midnightblue" d="M226.553,-174.403C219.803,-165.403 209.031,-151.041 200.587,-139.782"/>
<polygon fill="midnightblue" stroke="midnightblue" points="203.235,-137.481 194.435,-131.581 197.635,-141.681 203.235,-137.481"/>
</g>
<!-- Node23 -->
<g id="node23" class="node"><title>Node23</title>
<g id="a_node23"><a xlink:href="Math_8inl.html" target="_top" xlink:title="Core/Math/Math.inl">
<polygon fill="white" stroke="black" points="228,-112.5 228,-131.5 328,-131.5 328,-112.5 228,-112.5"/>
<text text-anchor="middle" x="278" y="-119.5" font-family="Helvetica,sans-Serif" font-size="10.00">Core/Math/Math.inl</text>
</a>
</g>
</g>
<!-- Node20&#45;&gt;Node23 -->
<g id="edge24" class="edge"><title>Node20&#45;&gt;Node23</title>
<path fill="none" stroke="midnightblue" d="M234.547,-174.403C239.445,-165.225 250.125,-150.47 259.85,-139.117"/>
<polygon fill="midnightblue" stroke="midnightblue" points="262.555,-141.345 266.667,-131.581 257.364,-136.649 262.555,-141.345"/>
</g>
<!-- Node23&#45;&gt;Node20 -->
<g id="edge25" class="edge"><title>Node23&#45;&gt;Node20</title>
<path fill="none" stroke="midnightblue" d="M276.462,-131.581C271.57,-140.752 260.893,-155.506 251.166,-166.863"/>
<polygon fill="midnightblue" stroke="midnightblue" points="248.459,-164.639 244.348,-174.403 253.651,-169.334 248.459,-164.639"/>
</g>
<!-- Node25&#45;&gt;Node5 -->
<g id="edge34" class="edge"><title>Node25&#45;&gt;Node5</title>
<path fill="none" stroke="midnightblue" d="M427.335,-310.458C388.579,-286.861 289.326,-219.139 333,-168 361.602,-134.509 485.698,-125.807 560.06,-123.633"/>
<polygon fill="midnightblue" stroke="midnightblue" points="560.302,-127.128 570.207,-123.368 560.119,-120.131 560.302,-127.128"/>
</g>
<!-- Node25&#45;&gt;Node14 -->
<g id="edge33" class="edge"><title>Node25&#45;&gt;Node14</title>
<path fill="none" stroke="midnightblue" d="M464.747,-310.372C495.182,-298.827 549.319,-278.293 583.897,-265.177"/>
<polygon fill="midnightblue" stroke="midnightblue" points="585.414,-268.345 593.523,-261.526 582.931,-261.8 585.414,-268.345"/>
</g>
<!-- Node26 -->
<g id="node26" class="node"><title>Node26</title>
<g id="a_node26"><a xlink:href="Index_8hpp.html" target="_top" xlink:title="Core/Index/Index.hpp">
<polygon fill="white" stroke="black" points="55,-242.5 55,-261.5 165,-261.5 165,-242.5 55,-242.5"/>
<text text-anchor="middle" x="110" y="-249.5" font-family="Helvetica,sans-Serif" font-size="10.00">Core/Index/Index.hpp</text>
</a>
</g>
</g>
<!-- Node25&#45;&gt;Node26 -->
<g id="edge30" class="edge"><title>Node25&#45;&gt;Node26</title>
<path fill="none" stroke="midnightblue" d="M398.937,-310.439C338.483,-298.421 228.537,-276.565 163.093,-263.555"/>
<polygon fill="midnightblue" stroke="midnightblue" points="163.477,-260.063 152.987,-261.546 162.112,-266.928 163.477,-260.063"/>
</g>
<!-- Node27 -->
<g id="node27" class="node"><title>Node27</title>
<polygon fill="white" stroke="#bfbfbf" points="0,-174.5 0,-193.5 40,-193.5 40,-174.5 0,-174.5"/>
<text text-anchor="middle" x="20" y="-181.5" font-family="Helvetica,sans-Serif" font-size="10.00">limits</text>
</g>
<!-- Node26&#45;&gt;Node27 -->
<g id="edge31" class="edge"><title>Node26&#45;&gt;Node27</title>
<path fill="none" stroke="midnightblue" d="M98.2341,-242.372C83.4112,-231.502 57.7185,-212.66 39.8374,-199.547"/>
<polygon fill="midnightblue" stroke="midnightblue" points="41.9027,-196.722 31.7688,-193.63 37.7631,-202.367 41.9027,-196.722"/>
</g>
<!-- Node28 -->
<g id="node28" class="node"><title>Node28</title>
<g id="a_node28"><a xlink:href="Index_8inl.html" target="_top" xlink:title="Core/Index/Index.inl">
<polygon fill="white" stroke="black" points="58,-174.5 58,-193.5 162,-193.5 162,-174.5 58,-174.5"/>
<text text-anchor="middle" x="110" y="-181.5" font-family="Helvetica,sans-Serif" font-size="10.00">Core/Index/Index.inl</text>
</a>
</g>
</g>
<!-- Node26&#45;&gt;Node28 -->
<g id="edge32" class="edge"><title>Node26&#45;&gt;Node28</title>
<path fill="none" stroke="midnightblue" d="M110,-242.372C110,-232.643 110,-216.528 110,-203.85"/>
<polygon fill="midnightblue" stroke="midnightblue" points="113.5,-203.841 110,-193.841 106.5,-203.841 113.5,-203.841"/>
</g>
<!-- Node29&#45;&gt;Node4 -->
<g id="edge36" class="edge"><title>Node29&#45;&gt;Node4</title>
<path fill="none" stroke="midnightblue" d="M1314.32,-304.841C1290.75,-294.933 1259.08,-281.618 1233.73,-270.963"/>
<polygon fill="midnightblue" stroke="midnightblue" points="1234.93,-267.671 1224.35,-267.022 1232.22,-274.124 1234.93,-267.671"/>
</g>
<!-- Node30 -->
<g id="node30" class="node"><title>Node30</title>
<g id="a_node30"><a xlink:href="AdjacencyList_8inl.html" target="_top" xlink:title="Core/Utils/Graph/Adjacency\lList.inl">
<polygon fill="white" stroke="black" points="1278.5,-237 1278.5,-267 1417.5,-267 1417.5,-237 1278.5,-237"/>
<text text-anchor="start" x="1286.5" y="-255" font-family="Helvetica,sans-Serif" font-size="10.00">Core/Utils/Graph/Adjacency</text>
<text text-anchor="middle" x="1348" y="-244" font-family="Helvetica,sans-Serif" font-size="10.00">List.inl</text>
</a>
</g>
</g>
<!-- Node29&#45;&gt;Node30 -->
<g id="edge37" class="edge"><title>Node29&#45;&gt;Node30</title>
<path fill="none" stroke="midnightblue" d="M1342.32,-304.679C1341.29,-296.722 1341.01,-286.605 1341.46,-277.436"/>
<polygon fill="midnightblue" stroke="midnightblue" points="1344.96,-277.555 1342.33,-267.293 1337.98,-276.958 1344.96,-277.555"/>
</g>
<!-- Node30&#45;&gt;Node29 -->
<g id="edge38" class="edge"><title>Node30&#45;&gt;Node29</title>
<path fill="none" stroke="midnightblue" d="M1353.67,-267.293C1354.7,-275.245 1354.99,-285.361 1354.55,-294.532"/>
<polygon fill="midnightblue" stroke="midnightblue" points="1351.04,-294.417 1353.68,-304.679 1358.02,-295.013 1351.04,-294.417"/>
</g>
<!-- Node31 -->
<g id="node31" class="node"><title>Node31</title>
<polygon fill="white" stroke="#bfbfbf" points="1333,-174.5 1333,-193.5 1363,-193.5 1363,-174.5 1333,-174.5"/>
<text text-anchor="middle" x="1348" y="-181.5" font-family="Helvetica,sans-Serif" font-size="10.00">set</text>
</g>
<!-- Node30&#45;&gt;Node31 -->
<g id="edge39" class="edge"><title>Node30&#45;&gt;Node31</title>
<path fill="none" stroke="midnightblue" d="M1348,-236.679C1348,-227.101 1348,-214.394 1348,-203.977"/>
<polygon fill="midnightblue" stroke="midnightblue" points="1351.5,-203.828 1348,-193.828 1344.5,-203.828 1351.5,-203.828"/>
</g>
</g>
</svg>
