<?xml version="1.0" encoding="UTF-8" standalone="no"?>
<!DOCTYPE svg PUBLIC "-//W3C//DTD SVG 1.1//EN"
 "http://www.w3.org/Graphics/SVG/1.1/DTD/svg11.dtd">
<!-- Generated by graphviz version 2.36.0 (20140111.2315)
 -->
<!-- Title: /home/travis/build/STORM&#45;IRIT/Radium&#45;Engine/src/Core/Geometry/Adjacency/Adjacency.cpp Pages: 1 -->
<svg width="1327pt" height="502pt"
 viewBox="0.00 0.00 1327.00 502.00" xmlns="http://www.w3.org/2000/svg" xmlns:xlink="http://www.w3.org/1999/xlink">
<g id="graph0" class="graph" transform="scale(1 1) rotate(0) translate(4 498)">
<title>/home/travis/build/STORM&#45;IRIT/Radium&#45;Engine/src/Core/Geometry/Adjacency/Adjacency.cpp</title>
<polygon fill="white" stroke="none" points="-4,4 -4,-498 1323,-498 1323,4 -4,4"/>
<!-- Node1 -->
<g id="node1" class="node"><title>Node1</title>
<polygon fill="#bfbfbf" stroke="black" points="536,-441 536,-493 688,-493 688,-441 536,-441"/>
<text text-anchor="start" x="544" y="-481" font-family="Helvetica,sans-Serif" font-size="10.00">/home/travis/build</text>
<text text-anchor="start" x="544" y="-470" font-family="Helvetica,sans-Serif" font-size="10.00">/STORM&#45;IRIT/Radium&#45;Engine</text>
<text text-anchor="start" x="544" y="-459" font-family="Helvetica,sans-Serif" font-size="10.00">/src/Core/Geometry/Adjacency</text>
<text text-anchor="middle" x="612" y="-448" font-family="Helvetica,sans-Serif" font-size="10.00">/Adjacency.cpp</text>
</g>
<!-- Node2 -->
<g id="node2" class="node"><title>Node2</title>
<g id="a_node2"><a xlink:href="Adjacency_8hpp.html" target="_top" xlink:title="Core/Geometry/Adjacency\l/Adjacency.hpp">
<polygon fill="white" stroke="black" points="546,-373 546,-403 678,-403 678,-373 546,-373"/>
<text text-anchor="start" x="554" y="-391" font-family="Helvetica,sans-Serif" font-size="10.00">Core/Geometry/Adjacency</text>
<text text-anchor="middle" x="612" y="-380" font-family="Helvetica,sans-Serif" font-size="10.00">/Adjacency.hpp</text>
</a>
</g>
</g>
<!-- Node1&#45;&gt;Node2 -->
<g id="edge1" class="edge"><title>Node1&#45;&gt;Node2</title>
<path fill="none" stroke="midnightblue" d="M612,-440.787C612,-432.029 612,-422.225 612,-413.523"/>
<polygon fill="midnightblue" stroke="midnightblue" points="615.5,-413.252 612,-403.252 608.5,-413.252 615.5,-413.252"/>
</g>
<!-- Node3 -->
<g id="node3" class="node"><title>Node3</title>
<g id="a_node3"><a xlink:href="AlignedStdVector_8hpp.html" target="_top" xlink:title="Core/Containers/AlignedStd\lVector.hpp">
<polygon fill="white" stroke="black" points="50,-237 50,-267 188,-267 188,-237 50,-237"/>
<text text-anchor="start" x="58" y="-255" font-family="Helvetica,sans-Serif" font-size="10.00">Core/Containers/AlignedStd</text>
<text text-anchor="middle" x="119" y="-244" font-family="Helvetica,sans-Serif" font-size="10.00">Vector.hpp</text>
</a>
</g>
</g>
<!-- Node2&#45;&gt;Node3 -->
<g id="edge2" class="edge"><title>Node2&#45;&gt;Node3</title>
<path fill="none" stroke="midnightblue" d="M545.912,-384.097C422.762,-378.083 167.891,-362.561 138,-336 121.742,-321.554 117.896,-296.298 117.565,-277.429"/>
<polygon fill="midnightblue" stroke="midnightblue" points="121.068,-277.236 117.709,-267.188 114.069,-277.137 121.068,-277.236"/>
</g>
<!-- Node13 -->
<g id="node13" class="node"><title>Node13</title>
<g id="a_node13"><a xlink:href="VectorArray_8hpp.html" target="_top" xlink:title="Core/Containers/VectorArray.hpp">
<polygon fill="white" stroke="black" points="147.5,-310.5 147.5,-329.5 308.5,-329.5 308.5,-310.5 147.5,-310.5"/>
<text text-anchor="middle" x="228" y="-317.5" font-family="Helvetica,sans-Serif" font-size="10.00">Core/Containers/VectorArray.hpp</text>
</a>
</g>
</g>
<!-- Node2&#45;&gt;Node13 -->
<g id="edge12" class="edge"><title>Node2&#45;&gt;Node13</title>
<path fill="none" stroke="midnightblue" d="M545.988,-375.654C473.329,-363.166 357.573,-343.27 287.583,-331.241"/>
<polygon fill="midnightblue" stroke="midnightblue" points="288.048,-327.77 277.6,-329.525 286.862,-334.668 288.048,-327.77"/>
</g>
<!-- Node14 -->
<g id="node14" class="node"><title>Node14</title>
<g id="a_node14"><a xlink:href="LinearAlgebra_8hpp.html" target="_top" xlink:title="Core/Math/LinearAlgebra.hpp">
<polygon fill="white" stroke="black" points="540.5,-242.5 540.5,-261.5 683.5,-261.5 683.5,-242.5 540.5,-242.5"/>
<text text-anchor="middle" x="612" y="-249.5" font-family="Helvetica,sans-Serif" font-size="10.00">Core/Math/LinearAlgebra.hpp</text>
</a>
</g>
</g>
<!-- Node2&#45;&gt;Node14 -->
<g id="edge30" class="edge"><title>Node2&#45;&gt;Node14</title>
<path fill="none" stroke="midnightblue" d="M612,-372.66C612,-348.32 612,-298.933 612,-271.837"/>
<polygon fill="midnightblue" stroke="midnightblue" points="615.5,-271.727 612,-261.728 608.5,-271.728 615.5,-271.727"/>
</g>
<!-- Node25 -->
<g id="node25" class="node"><title>Node25</title>
<g id="a_node25"><a xlink:href="MeshTypes_8hpp.html" target="_top" xlink:title="Core/Mesh/MeshTypes.hpp">
<polygon fill="white" stroke="black" points="764.5,-310.5 764.5,-329.5 901.5,-329.5 901.5,-310.5 764.5,-310.5"/>
<text text-anchor="middle" x="833" y="-317.5" font-family="Helvetica,sans-Serif" font-size="10.00">Core/Mesh/MeshTypes.hpp</text>
</a>
</g>
</g>
<!-- Node2&#45;&gt;Node25 -->
<g id="edge31" class="edge"><title>Node2&#45;&gt;Node25</title>
<path fill="none" stroke="midnightblue" d="M659.139,-372.922C699.635,-360.828 757.28,-343.613 794.91,-332.375"/>
<polygon fill="midnightblue" stroke="midnightblue" points="795.912,-335.729 804.492,-329.514 793.908,-329.022 795.912,-335.729"/>
</g>
<!-- Node29 -->
<g id="node29" class="node"><title>Node29</title>
<g id="a_node29"><a xlink:href="AdjacencyList_8hpp.html" target="_top" xlink:title="Core/Utils/Graph/Adjacency\lList.hpp">
<polygon fill="white" stroke="black" points="984.5,-305 984.5,-335 1123.5,-335 1123.5,-305 984.5,-305"/>
<text text-anchor="start" x="992.5" y="-323" font-family="Helvetica,sans-Serif" font-size="10.00">Core/Utils/Graph/Adjacency</text>
<text text-anchor="middle" x="1054" y="-312" font-family="Helvetica,sans-Serif" font-size="10.00">List.hpp</text>
</a>
</g>
</g>
<!-- Node2&#45;&gt;Node29 -->
<g id="edge37" class="edge"><title>Node2&#45;&gt;Node29</title>
<path fill="none" stroke="midnightblue" d="M678.172,-377.119C757.317,-365.301 889.703,-345.533 974.373,-332.89"/>
<polygon fill="midnightblue" stroke="midnightblue" points="975.082,-336.323 984.455,-331.385 974.048,-329.4 975.082,-336.323"/>
</g>
<!-- Node4 -->
<g id="node4" class="node"><title>Node4</title>
<g id="a_node4"><a xlink:href="RaCore_8hpp.html" target="_top" xlink:title="Core/RaCore.hpp">
<polygon fill="white" stroke="black" points="815.5,-112.5 815.5,-131.5 908.5,-131.5 908.5,-112.5 815.5,-112.5"/>
<text text-anchor="middle" x="862" y="-119.5" font-family="Helvetica,sans-Serif" font-size="10.00">Core/RaCore.hpp</text>
</a>
</g>
</g>
<!-- Node3&#45;&gt;Node4 -->
<g id="edge3" class="edge"><title>Node3&#45;&gt;Node4</title>
<path fill="none" stroke="midnightblue" d="M128.224,-236.761C141.751,-217.276 168.979,-183.014 202,-168 256.113,-143.396 654.356,-129.156 804.731,-124.609"/>
<polygon fill="midnightblue" stroke="midnightblue" points="805.231,-128.096 815.122,-124.298 805.021,-121.099 805.231,-128.096"/>
</g>
<!-- Node11 -->
<g id="node11" class="node"><title>Node11</title>
<polygon fill="white" stroke="#bfbfbf" points="62,-174.5 62,-193.5 150,-193.5 150,-174.5 62,-174.5"/>
<text text-anchor="middle" x="106" y="-181.5" font-family="Helvetica,sans-Serif" font-size="10.00">Eigen/StdVector</text>
</g>
<!-- Node3&#45;&gt;Node11 -->
<g id="edge10" class="edge"><title>Node3&#45;&gt;Node11</title>
<path fill="none" stroke="midnightblue" d="M116.179,-236.679C114.273,-226.999 111.736,-214.123 109.672,-203.645"/>
<polygon fill="midnightblue" stroke="midnightblue" points="113.106,-202.963 107.739,-193.828 106.238,-204.316 113.106,-202.963"/>
</g>
<!-- Node12 -->
<g id="node12" class="node"><title>Node12</title>
<polygon fill="white" stroke="#bfbfbf" points="0,-174.5 0,-193.5 44,-193.5 44,-174.5 0,-174.5"/>
<text text-anchor="middle" x="22" y="-181.5" font-family="Helvetica,sans-Serif" font-size="10.00">vector</text>
</g>
<!-- Node3&#45;&gt;Node12 -->
<g id="edge11" class="edge"><title>Node3&#45;&gt;Node12</title>
<path fill="none" stroke="midnightblue" d="M97.9524,-236.679C81.6858,-225.611 59.2759,-210.363 43.0169,-199.3"/>
<polygon fill="midnightblue" stroke="midnightblue" points="44.9317,-196.37 34.6951,-193.638 40.9938,-202.157 44.9317,-196.37"/>
</g>
<!-- Node5 -->
<g id="node5" class="node"><title>Node5</title>
<g id="a_node5"><a xlink:href="CoreMacros_8hpp.html" target="_top" xlink:title="Core/CoreMacros.hpp">
<polygon fill="white" stroke="black" points="805.5,-56.5 805.5,-75.5 918.5,-75.5 918.5,-56.5 805.5,-56.5"/>
<text text-anchor="middle" x="862" y="-63.5" font-family="Helvetica,sans-Serif" font-size="10.00">Core/CoreMacros.hpp</text>
</a>
</g>
</g>
<!-- Node4&#45;&gt;Node5 -->
<g id="edge4" class="edge"><title>Node4&#45;&gt;Node5</title>
<path fill="none" stroke="midnightblue" d="M862,-112.083C862,-105.006 862,-94.8611 862,-85.9865"/>
<polygon fill="midnightblue" stroke="midnightblue" points="865.5,-85.751 862,-75.7511 858.5,-85.7511 865.5,-85.751"/>
</g>
<!-- Node6 -->
<g id="node6" class="node"><title>Node6</title>
<polygon fill="white" stroke="#bfbfbf" points="706.5,-0.5 706.5,-19.5 755.5,-19.5 755.5,-0.5 706.5,-0.5"/>
<text text-anchor="middle" x="731" y="-7.5" font-family="Helvetica,sans-Serif" font-size="10.00">cassert</text>
</g>
<!-- Node5&#45;&gt;Node6 -->
<g id="edge5" class="edge"><title>Node5&#45;&gt;Node6</title>
<path fill="none" stroke="midnightblue" d="M841.243,-56.4435C819.684,-47.5566 785.737,-33.5632 761.206,-23.4514"/>
<polygon fill="midnightblue" stroke="midnightblue" points="762.239,-20.0917 751.66,-19.5164 759.572,-26.5634 762.239,-20.0917"/>
</g>
<!-- Node7 -->
<g id="node7" class="node"><title>Node7</title>
<polygon fill="white" stroke="#bfbfbf" points="773.5,-0.5 773.5,-19.5 816.5,-19.5 816.5,-0.5 773.5,-0.5"/>
<text text-anchor="middle" x="795" y="-7.5" font-family="Helvetica,sans-Serif" font-size="10.00">cstdio</text>
</g>
<!-- Node5&#45;&gt;Node7 -->
<g id="edge6" class="edge"><title>Node5&#45;&gt;Node7</title>
<path fill="none" stroke="midnightblue" d="M851.235,-56.324C841.234,-48.2631 826.113,-36.0765 814.07,-26.3695"/>
<polygon fill="midnightblue" stroke="midnightblue" points="815.943,-23.3841 805.961,-19.8339 811.55,-28.8343 815.943,-23.3841"/>
</g>
<!-- Node8 -->
<g id="node8" class="node"><title>Node8</title>
<polygon fill="white" stroke="#bfbfbf" points="835,-0.5 835,-19.5 889,-19.5 889,-0.5 835,-0.5"/>
<text text-anchor="middle" x="862" y="-7.5" font-family="Helvetica,sans-Serif" font-size="10.00">iostream</text>
</g>
<!-- Node5&#45;&gt;Node8 -->
<g id="edge7" class="edge"><title>Node5&#45;&gt;Node8</title>
<path fill="none" stroke="midnightblue" d="M862,-56.083C862,-49.0059 862,-38.8611 862,-29.9865"/>
<polygon fill="midnightblue" stroke="midnightblue" points="865.5,-29.751 862,-19.7511 858.5,-29.7511 865.5,-29.751"/>
</g>
<!-- Node9 -->
<g id="node9" class="node"><title>Node9</title>
<polygon fill="white" stroke="#bfbfbf" points="907,-0.5 907,-19.5 959,-19.5 959,-0.5 907,-0.5"/>
<text text-anchor="middle" x="933" y="-7.5" font-family="Helvetica,sans-Serif" font-size="10.00">sstream</text>
</g>
<!-- Node5&#45;&gt;Node9 -->
<g id="edge8" class="edge"><title>Node5&#45;&gt;Node9</title>
<path fill="none" stroke="midnightblue" d="M873.407,-56.324C884.109,-48.1849 900.341,-35.8395 913.163,-26.0874"/>
<polygon fill="midnightblue" stroke="midnightblue" points="915.544,-28.6734 921.385,-19.8339 911.307,-23.1018 915.544,-28.6734"/>
</g>
<!-- Node10 -->
<g id="node10" class="node"><title>Node10</title>
<polygon fill="white" stroke="#bfbfbf" points="977,-0.5 977,-19.5 1021,-19.5 1021,-0.5 977,-0.5"/>
<text text-anchor="middle" x="999" y="-7.5" font-family="Helvetica,sans-Serif" font-size="10.00">thread</text>
</g>
<!-- Node5&#45;&gt;Node10 -->
<g id="edge9" class="edge"><title>Node5&#45;&gt;Node10</title>
<path fill="none" stroke="midnightblue" d="M883.708,-56.4435C906.355,-47.5171 942.072,-33.4387 967.752,-23.3168"/>
<polygon fill="midnightblue" stroke="midnightblue" points="969.374,-26.4397 977.394,-19.5164 966.807,-19.9273 969.374,-26.4397"/>
</g>
<!-- Node13&#45;&gt;Node3 -->
<g id="edge13" class="edge"><title>Node13&#45;&gt;Node3</title>
<path fill="none" stroke="midnightblue" d="M213.75,-310.372C197.966,-300.814 172.005,-285.095 151.245,-272.525"/>
<polygon fill="midnightblue" stroke="midnightblue" points="152.788,-269.367 142.421,-267.181 149.162,-275.355 152.788,-269.367"/>
</g>
<!-- Node13&#45;&gt;Node4 -->
<g id="edge28" class="edge"><title>Node13&#45;&gt;Node4</title>
<path fill="none" stroke="midnightblue" d="M224.99,-310.318C216.655,-284.518 196.344,-207.648 235,-168 274.339,-127.652 658.339,-123.118 805.242,-122.872"/>
<polygon fill="midnightblue" stroke="midnightblue" points="805.405,-126.372 815.401,-122.861 805.398,-119.372 805.405,-126.372"/>
</g>
<!-- Node13&#45;&gt;Node12 -->
<g id="edge29" class="edge"><title>Node13&#45;&gt;Node12</title>
<path fill="none" stroke="midnightblue" d="M147.06,-315.421C110.017,-309.613 68.3769,-296.529 41,-268 24.5566,-250.865 21.2688,-222.548 21.1008,-203.832"/>
<polygon fill="midnightblue" stroke="midnightblue" points="24.6046,-203.675 21.3095,-193.606 17.6061,-203.532 24.6046,-203.675"/>
</g>
<!-- Node13&#45;&gt;Node14 -->
<g id="edge14" class="edge"><title>Node13&#45;&gt;Node14</title>
<path fill="none" stroke="midnightblue" d="M277.808,-310.439C348.163,-298.347 476.469,-276.294 551.987,-263.315"/>
<polygon fill="midnightblue" stroke="midnightblue" points="553.018,-266.689 562.281,-261.546 551.832,-259.79 553.018,-266.689"/>
</g>
<!-- Node14&#45;&gt;Node4 -->
<g id="edge15" class="edge"><title>Node14&#45;&gt;Node4</title>
<path fill="none" stroke="midnightblue" d="M683.815,-248.439C759.695,-244.045 872.063,-232.146 899,-200 914.472,-181.536 895.417,-155.506 879.419,-138.943"/>
<polygon fill="midnightblue" stroke="midnightblue" points="881.568,-136.148 871.976,-131.647 876.668,-141.147 881.568,-136.148"/>
</g>
<!-- Node15 -->
<g id="node15" class="node"><title>Node15</title>
<polygon fill="white" stroke="#bfbfbf" points="244.5,-174.5 244.5,-193.5 309.5,-193.5 309.5,-174.5 244.5,-174.5"/>
<text text-anchor="middle" x="277" y="-181.5" font-family="Helvetica,sans-Serif" font-size="10.00">Eigen/Core</text>
</g>
<!-- Node14&#45;&gt;Node15 -->
<g id="edge16" class="edge"><title>Node14&#45;&gt;Node15</title>
<path fill="none" stroke="midnightblue" d="M542.334,-242.496C482.278,-234.317 393.57,-220.204 318,-200 314.602,-199.092 311.089,-198.02 307.613,-196.873"/>
<polygon fill="midnightblue" stroke="midnightblue" points="308.643,-193.525 298.048,-193.519 306.327,-200.131 308.643,-193.525"/>
</g>
<!-- Node16 -->
<g id="node16" class="node"><title>Node16</title>
<polygon fill="white" stroke="#bfbfbf" points="327.5,-174.5 327.5,-193.5 414.5,-193.5 414.5,-174.5 327.5,-174.5"/>
<text text-anchor="middle" x="371" y="-181.5" font-family="Helvetica,sans-Serif" font-size="10.00">Eigen/Geometry</text>
</g>
<!-- Node14&#45;&gt;Node16 -->
<g id="edge17" class="edge"><title>Node14&#45;&gt;Node16</title>
<path fill="none" stroke="midnightblue" d="M579.513,-242.416C541.822,-232.415 477.831,-215.305 423,-200 418.877,-198.849 414.574,-197.633 410.286,-196.411"/>
<polygon fill="midnightblue" stroke="midnightblue" points="410.977,-192.968 400.4,-193.577 409.049,-199.697 410.977,-192.968"/>
</g>
<!-- Node17 -->
<g id="node17" class="node"><title>Node17</title>
<polygon fill="white" stroke="#bfbfbf" points="432.5,-174.5 432.5,-193.5 507.5,-193.5 507.5,-174.5 432.5,-174.5"/>
<text text-anchor="middle" x="470" y="-181.5" font-family="Helvetica,sans-Serif" font-size="10.00">Eigen/Sparse</text>
</g>
<!-- Node14&#45;&gt;Node17 -->
<g id="edge18" class="edge"><title>Node14&#45;&gt;Node17</title>
<path fill="none" stroke="midnightblue" d="M593.436,-242.372C569.092,-231.057 526.166,-211.105 497.901,-197.968"/>
<polygon fill="midnightblue" stroke="midnightblue" points="499.112,-194.671 488.569,-193.63 496.162,-201.019 499.112,-194.671"/>
</g>
<!-- Node18 -->
<g id="node18" class="node"><title>Node18</title>
<polygon fill="white" stroke="#bfbfbf" points="525.5,-174.5 525.5,-193.5 584.5,-193.5 584.5,-174.5 525.5,-174.5"/>
<text text-anchor="middle" x="555" y="-181.5" font-family="Helvetica,sans-Serif" font-size="10.00">functional</text>
</g>
<!-- Node14&#45;&gt;Node18 -->
<g id="edge19" class="edge"><title>Node14&#45;&gt;Node18</title>
<path fill="none" stroke="midnightblue" d="M604.548,-242.372C595.637,-232.053 580.522,-214.551 569.324,-201.585"/>
<polygon fill="midnightblue" stroke="midnightblue" points="571.821,-199.122 562.636,-193.841 566.523,-203.697 571.821,-199.122"/>
</g>
<!-- Node19 -->
<g id="node19" class="node"><title>Node19</title>
<polygon fill="white" stroke="#bfbfbf" points="602.5,-169 602.5,-199 735.5,-199 735.5,-169 602.5,-169"/>
<text text-anchor="start" x="610.5" y="-187" font-family="Helvetica,sans-Serif" font-size="10.00">unsupported/Eigen/Aligned</text>
<text text-anchor="middle" x="669" y="-176" font-family="Helvetica,sans-Serif" font-size="10.00">Vector3</text>
</g>
<!-- Node14&#45;&gt;Node19 -->
<g id="edge20" class="edge"><title>Node14&#45;&gt;Node19</title>
<path fill="none" stroke="midnightblue" d="M619.452,-242.372C627.225,-233.371 639.717,-218.907 650.213,-206.753"/>
<polygon fill="midnightblue" stroke="midnightblue" points="652.865,-209.037 656.752,-199.181 647.567,-204.462 652.865,-209.037"/>
</g>
<!-- Node20 -->
<g id="node20" class="node"><title>Node20</title>
<g id="a_node20"><a xlink:href="Math_8hpp.html" target="_top" xlink:title="Core/Math/Math.hpp">
<polygon fill="white" stroke="black" points="985,-174.5 985,-193.5 1091,-193.5 1091,-174.5 985,-174.5"/>
<text text-anchor="middle" x="1038" y="-181.5" font-family="Helvetica,sans-Serif" font-size="10.00">Core/Math/Math.hpp</text>
</a>
</g>
</g>
<!-- Node14&#45;&gt;Node20 -->
<g id="edge21" class="edge"><title>Node14&#45;&gt;Node20</title>
<path fill="none" stroke="midnightblue" d="M667.255,-242.439C746.353,-230.185 891.477,-207.701 974.763,-194.797"/>
<polygon fill="midnightblue" stroke="midnightblue" points="975.507,-198.224 984.853,-193.234 974.435,-191.306 975.507,-198.224"/>
</g>
<!-- Node24 -->
<g id="node24" class="node"><title>Node24</title>
<g id="a_node24"><a xlink:href="LinearAlgebra_8inl.html" target="_top" xlink:title="Core/Math/LinearAlgebra.inl">
<polygon fill="white" stroke="black" points="753.5,-174.5 753.5,-193.5 890.5,-193.5 890.5,-174.5 753.5,-174.5"/>
<text text-anchor="middle" x="822" y="-181.5" font-family="Helvetica,sans-Serif" font-size="10.00">Core/Math/LinearAlgebra.inl</text>
</a>
</g>
</g>
<!-- Node14&#45;&gt;Node24 -->
<g id="edge27" class="edge"><title>Node14&#45;&gt;Node24</title>
<path fill="none" stroke="midnightblue" d="M639.454,-242.372C676.737,-230.654 743.493,-209.674 785.119,-196.591"/>
<polygon fill="midnightblue" stroke="midnightblue" points="786.382,-199.863 794.872,-193.526 784.283,-193.185 786.382,-199.863"/>
</g>
<!-- Node20&#45;&gt;Node4 -->
<g id="edge22" class="edge"><title>Node20&#45;&gt;Node4</title>
<path fill="none" stroke="midnightblue" d="M1012.78,-174.403C982.332,-164.022 930.951,-146.506 896.757,-134.849"/>
<polygon fill="midnightblue" stroke="midnightblue" points="897.764,-131.495 887.17,-131.581 895.505,-138.12 897.764,-131.495"/>
</g>
<!-- Node21 -->
<g id="node21" class="node"><title>Node21</title>
<polygon fill="white" stroke="#bfbfbf" points="1106,-112.5 1106,-131.5 1162,-131.5 1162,-112.5 1106,-112.5"/>
<text text-anchor="middle" x="1134" y="-119.5" font-family="Helvetica,sans-Serif" font-size="10.00">algorithm</text>
</g>
<!-- Node20&#45;&gt;Node21 -->
<g id="edge23" class="edge"><title>Node20&#45;&gt;Node21</title>
<path fill="none" stroke="midnightblue" d="M1051.75,-174.403C1067.37,-164.646 1093.06,-148.585 1111.58,-137.011"/>
<polygon fill="midnightblue" stroke="midnightblue" points="1113.65,-139.849 1120.27,-131.581 1109.94,-133.913 1113.65,-139.849"/>
</g>
<!-- Node22 -->
<g id="node22" class="node"><title>Node22</title>
<polygon fill="white" stroke="#bfbfbf" points="926,-112.5 926,-131.5 970,-131.5 970,-112.5 926,-112.5"/>
<text text-anchor="middle" x="948" y="-119.5" font-family="Helvetica,sans-Serif" font-size="10.00">cmath</text>
</g>
<!-- Node20&#45;&gt;Node22 -->
<g id="edge24" class="edge"><title>Node20&#45;&gt;Node22</title>
<path fill="none" stroke="midnightblue" d="M1025.11,-174.403C1010.54,-164.691 986.598,-148.732 969.255,-137.17"/>
<polygon fill="midnightblue" stroke="midnightblue" points="971.133,-134.215 960.871,-131.581 967.25,-140.04 971.133,-134.215"/>
</g>
<!-- Node23 -->
<g id="node23" class="node"><title>Node23</title>
<g id="a_node23"><a xlink:href="Math_8inl.html" target="_top" xlink:title="Core/Math/Math.inl">
<polygon fill="white" stroke="black" points="988,-112.5 988,-131.5 1088,-131.5 1088,-112.5 988,-112.5"/>
<text text-anchor="middle" x="1038" y="-119.5" font-family="Helvetica,sans-Serif" font-size="10.00">Core/Math/Math.inl</text>
</a>
</g>
</g>
<!-- Node20&#45;&gt;Node23 -->
<g id="edge25" class="edge"><title>Node20&#45;&gt;Node23</title>
<path fill="none" stroke="midnightblue" d="M1033.1,-174.403C1031.27,-165.938 1030.8,-152.728 1031.69,-141.82"/>
<polygon fill="midnightblue" stroke="midnightblue" points="1035.2,-141.966 1033.1,-131.581 1028.26,-141.006 1035.2,-141.966"/>
</g>
<!-- Node23&#45;&gt;Node20 -->
<g id="edge26" class="edge"><title>Node23&#45;&gt;Node20</title>
<path fill="none" stroke="midnightblue" d="M1042.9,-131.581C1044.73,-140.04 1045.2,-153.248 1044.32,-164.16"/>
<polygon fill="midnightblue" stroke="midnightblue" points="1040.8,-164.018 1042.9,-174.403 1047.74,-164.977 1040.8,-164.018"/>
</g>
<!-- Node25&#45;&gt;Node4 -->
<g id="edge36" class="edge"><title>Node25&#45;&gt;Node4</title>
<path fill="none" stroke="midnightblue" d="M841.823,-310.494C859.991,-292.289 901.122,-247.339 916,-200 920.264,-186.432 922.032,-180.879 916,-168 909.955,-155.094 898.188,-144.599 887.177,-137"/>
<polygon fill="midnightblue" stroke="midnightblue" points="888.943,-133.975 878.633,-131.536 885.172,-139.872 888.943,-133.975"/>
</g>
<!-- Node25&#45;&gt;Node14 -->
<g id="edge35" class="edge"><title>Node25&#45;&gt;Node14</title>
<path fill="none" stroke="midnightblue" d="M804.108,-310.372C764.706,-298.604 694.025,-277.496 650.259,-264.426"/>
<polygon fill="midnightblue" stroke="midnightblue" points="651.132,-261.034 640.549,-261.526 649.129,-267.741 651.132,-261.034"/>
</g>
<!-- Node26 -->
<g id="node26" class="node"><title>Node26</title>
<g id="a_node26"><a xlink:href="Index_8hpp.html" target="_top" xlink:title="Core/Index/Index.hpp">
<polygon fill="white" stroke="black" points="1045,-242.5 1045,-261.5 1155,-261.5 1155,-242.5 1045,-242.5"/>
<text text-anchor="middle" x="1100" y="-249.5" font-family="Helvetica,sans-Serif" font-size="10.00">Core/Index/Index.hpp</text>
</a>
</g>
</g>
<!-- Node25&#45;&gt;Node26 -->
<g id="edge32" class="edge"><title>Node25&#45;&gt;Node26</title>
<path fill="none" stroke="midnightblue" d="M867.632,-310.439C915.75,-298.545 1002.86,-277.013 1055.67,-263.959"/>
<polygon fill="midnightblue" stroke="midnightblue" points="1056.56,-267.343 1065.43,-261.546 1054.88,-260.548 1056.56,-267.343"/>
</g>
<!-- Node27 -->
<g id="node27" class="node"><title>Node27</title>
<polygon fill="white" stroke="#bfbfbf" points="1231,-174.5 1231,-193.5 1271,-193.5 1271,-174.5 1231,-174.5"/>
<text text-anchor="middle" x="1251" y="-181.5" font-family="Helvetica,sans-Serif" font-size="10.00">limits</text>
</g>
<!-- Node26&#45;&gt;Node27 -->
<g id="edge33" class="edge"><title>Node26&#45;&gt;Node27</title>
<path fill="none" stroke="midnightblue" d="M1121.83,-242.498C1146.42,-232.776 1187.47,-216.116 1222,-200 1223.18,-199.447 1224.39,-198.872 1225.61,-198.284"/>
<polygon fill="midnightblue" stroke="midnightblue" points="1227.49,-201.256 1234.86,-193.645 1224.35,-194.998 1227.49,-201.256"/>
</g>
<!-- Node28 -->
<g id="node28" class="node"><title>Node28</title>
<g id="a_node28"><a xlink:href="Index_8inl.html" target="_top" xlink:title="Core/Index/Index.inl">
<polygon fill="white" stroke="black" points="1109,-174.5 1109,-193.5 1213,-193.5 1213,-174.5 1109,-174.5"/>
<text text-anchor="middle" x="1161" y="-181.5" font-family="Helvetica,sans-Serif" font-size="10.00">Core/Index/Index.inl</text>
</a>
</g>
</g>
<!-- Node26&#45;&gt;Node28 -->
<g id="edge34" class="edge"><title>Node26&#45;&gt;Node28</title>
<path fill="none" stroke="midnightblue" d="M1107.97,-242.372C1117.6,-231.955 1134,-214.217 1146.01,-201.216"/>
<polygon fill="midnightblue" stroke="midnightblue" points="1148.61,-203.561 1152.83,-193.841 1143.47,-198.809 1148.61,-203.561"/>
</g>
<!-- Node29&#45;&gt;Node3 -->
<g id="edge38" class="edge"><title>Node29&#45;&gt;Node3</title>
<path fill="none" stroke="midnightblue" d="M984.471,-311.199C960.853,-308.697 934.295,-306.048 910,-304 649.97,-282.083 341.151,-264.652 198.5,-257.087"/>
<polygon fill="midnightblue" stroke="midnightblue" points="198.277,-253.57 188.106,-256.538 197.907,-260.561 198.277,-253.57"/>
</g>
<!-- Node30 -->
<g id="node30" class="node"><title>Node30</title>
<g id="a_node30"><a xlink:href="AdjacencyList_8inl.html" target="_top" xlink:title="Core/Utils/Graph/Adjacency\lList.inl">
<polygon fill="white" stroke="black" points="1173.5,-237 1173.5,-267 1312.5,-267 1312.5,-237 1173.5,-237"/>
<text text-anchor="start" x="1181.5" y="-255" font-family="Helvetica,sans-Serif" font-size="10.00">Core/Utils/Graph/Adjacency</text>
<text text-anchor="middle" x="1243" y="-244" font-family="Helvetica,sans-Serif" font-size="10.00">List.inl</text>
</a>
</g>
</g>
<!-- Node29&#45;&gt;Node30 -->
<g id="edge39" class="edge"><title>Node29&#45;&gt;Node30</title>
<path fill="none" stroke="midnightblue" d="M1088.89,-304.841C1116.56,-294.715 1155.63,-281.03 1187.55,-270.262"/>
<polygon fill="midnightblue" stroke="midnightblue" points="1188.84,-273.522 1197.21,-267.022 1186.61,-266.885 1188.84,-273.522"/>
</g>
<!-- Node30&#45;&gt;Node29 -->
<g id="edge40" class="edge"><title>Node30&#45;&gt;Node29</title>
<path fill="none" stroke="midnightblue" d="M1208.49,-267.022C1180.92,-277.116 1141.87,-290.798 1109.88,-301.592"/>
<polygon fill="midnightblue" stroke="midnightblue" points="1108.57,-298.34 1100.2,-304.841 1110.8,-304.976 1108.57,-298.34"/>
</g>
<!-- Node31 -->
<g id="node31" class="node"><title>Node31</title>
<polygon fill="white" stroke="#bfbfbf" points="1289,-174.5 1289,-193.5 1319,-193.5 1319,-174.5 1289,-174.5"/>
<text text-anchor="middle" x="1304" y="-181.5" font-family="Helvetica,sans-Serif" font-size="10.00">set</text>
</g>
<!-- Node30&#45;&gt;Node31 -->
<g id="edge41" class="edge"><title>Node30&#45;&gt;Node31</title>
<path fill="none" stroke="midnightblue" d="M1256.24,-236.679C1265.84,-226.286 1278.85,-212.208 1288.87,-201.37"/>
<polygon fill="midnightblue" stroke="midnightblue" points="1291.62,-203.548 1295.84,-193.828 1286.48,-198.796 1291.62,-203.548"/>
</g>
</g>
</svg>
