<?xml version="1.0" encoding="UTF-8" standalone="no"?>
<!DOCTYPE svg PUBLIC "-//W3C//DTD SVG 1.1//EN"
 "http://www.w3.org/Graphics/SVG/1.1/DTD/svg11.dtd">
<!-- Generated by graphviz version 2.36.0 (20140111.2315)
 -->
<!-- Title: /home/travis/build/STORM&#45;IRIT/Radium&#45;Engine/src/Core/Utils/Graph/AdjacencyList.inl Pages: 1 -->
<svg width="389pt" height="366pt"
 viewBox="0.00 0.00 389.00 366.00" xmlns="http://www.w3.org/2000/svg" xmlns:xlink="http://www.w3.org/1999/xlink">
<g id="graph0" class="graph" transform="scale(1 1) rotate(0) translate(4 362)">
<title>/home/travis/build/STORM&#45;IRIT/Radium&#45;Engine/src/Core/Utils/Graph/AdjacencyList.inl</title>
<polygon fill="white" stroke="none" points="-4,4 -4,-362 385,-362 385,4 -4,4"/>
<!-- Node1 -->
<g id="node1" class="node"><title>Node1</title>
<polygon fill="#bfbfbf" stroke="black" points="184,-305 184,-357 342,-357 342,-305 184,-305"/>
<text text-anchor="start" x="192" y="-345" font-family="Helvetica,sans-Serif" font-size="10.00">/home/travis/build</text>
<text text-anchor="start" x="192" y="-334" font-family="Helvetica,sans-Serif" font-size="10.00">/STORM&#45;IRIT/Radium&#45;Engine</text>
<text text-anchor="start" x="192" y="-323" font-family="Helvetica,sans-Serif" font-size="10.00">/src/Core/Utils/Graph/Adjacency</text>
<text text-anchor="middle" x="263" y="-312" font-family="Helvetica,sans-Serif" font-size="10.00">List.inl</text>
</g>
<!-- Node2 -->
<g id="node2" class="node"><title>Node2</title>
<g id="a_node2"><a xlink:href="AdjacencyList_8hpp.html" target="_top" xlink:title="Core/Utils/Graph/Adjacency\lList.hpp">
<polygon fill="white" stroke="black" points="193.5,-237 193.5,-267 332.5,-267 332.5,-237 193.5,-237"/>
<text text-anchor="start" x="201.5" y="-255" font-family="Helvetica,sans-Serif" font-size="10.00">Core/Utils/Graph/Adjacency</text>
<text text-anchor="middle" x="263" y="-244" font-family="Helvetica,sans-Serif" font-size="10.00">List.hpp</text>
</a>
</g>
</g>
<!-- Node1&#45;&gt;Node2 -->
<g id="edge1" class="edge"><title>Node1&#45;&gt;Node2</title>
<path fill="none" stroke="midnightblue" d="M256.621,-304.787C256.107,-295.932 256.127,-286.007 256.68,-277.234"/>
<polygon fill="midnightblue" stroke="midnightblue" points="260.167,-277.536 257.619,-267.252 253.198,-276.88 260.167,-277.536"/>
</g>
<!-- Node13 -->
<g id="node13" class="node"><title>Node13</title>
<polygon fill="white" stroke="#bfbfbf" points="351,-242.5 351,-261.5 381,-261.5 381,-242.5 351,-242.5"/>
<text text-anchor="middle" x="366" y="-249.5" font-family="Helvetica,sans-Serif" font-size="10.00">set</text>
</g>
<!-- Node1&#45;&gt;Node13 -->
<g id="edge13" class="edge"><title>Node1&#45;&gt;Node13</title>
<path fill="none" stroke="midnightblue" d="M296.726,-304.787C313.09,-292.554 332.182,-278.282 346.174,-267.821"/>
<polygon fill="midnightblue" stroke="midnightblue" points="348.639,-270.349 354.553,-261.558 344.448,-264.742 348.639,-270.349"/>
</g>
<!-- Node2&#45;&gt;Node1 -->
<g id="edge12" class="edge"><title>Node2&#45;&gt;Node1</title>
<path fill="none" stroke="midnightblue" d="M268.381,-267.252C269.4,-274.969 269.85,-284.877 269.731,-294.529"/>
<polygon fill="midnightblue" stroke="midnightblue" points="266.224,-294.673 269.379,-304.787 273.22,-294.913 266.224,-294.673"/>
</g>
<!-- Node3 -->
<g id="node3" class="node"><title>Node3</title>
<g id="a_node3"><a xlink:href="AlignedStdVector_8hpp.html" target="_top" xlink:title="Core/Containers/AlignedStd\lVector.hpp">
<polygon fill="white" stroke="black" points="194,-169 194,-199 332,-199 332,-169 194,-169"/>
<text text-anchor="start" x="202" y="-187" font-family="Helvetica,sans-Serif" font-size="10.00">Core/Containers/AlignedStd</text>
<text text-anchor="middle" x="263" y="-176" font-family="Helvetica,sans-Serif" font-size="10.00">Vector.hpp</text>
</a>
</g>
</g>
<!-- Node2&#45;&gt;Node3 -->
<g id="edge2" class="edge"><title>Node2&#45;&gt;Node3</title>
<path fill="none" stroke="midnightblue" d="M263,-236.679C263,-228.722 263,-218.605 263,-209.436"/>
<polygon fill="midnightblue" stroke="midnightblue" points="266.5,-209.293 263,-199.293 259.5,-209.293 266.5,-209.293"/>
</g>
<!-- Node4 -->
<g id="node4" class="node"><title>Node4</title>
<g id="a_node4"><a xlink:href="RaCore_8hpp.html" target="_top" xlink:title="Core/RaCore.hpp">
<polygon fill="white" stroke="black" points="108.5,-112.5 108.5,-131.5 201.5,-131.5 201.5,-112.5 108.5,-112.5"/>
<text text-anchor="middle" x="155" y="-119.5" font-family="Helvetica,sans-Serif" font-size="10.00">Core/RaCore.hpp</text>
</a>
</g>
</g>
<!-- Node3&#45;&gt;Node4 -->
<g id="edge3" class="edge"><title>Node3&#45;&gt;Node4</title>
<path fill="none" stroke="midnightblue" d="M237.679,-168.933C220.109,-159.171 196.832,-146.24 179.454,-136.586"/>
<polygon fill="midnightblue" stroke="midnightblue" points="180.921,-133.397 170.48,-131.6 177.522,-139.516 180.921,-133.397"/>
</g>
<!-- Node11 -->
<g id="node11" class="node"><title>Node11</title>
<polygon fill="white" stroke="#bfbfbf" points="219,-112.5 219,-131.5 307,-131.5 307,-112.5 219,-112.5"/>
<text text-anchor="middle" x="263" y="-119.5" font-family="Helvetica,sans-Serif" font-size="10.00">Eigen/StdVector</text>
</g>
<!-- Node3&#45;&gt;Node11 -->
<g id="edge10" class="edge"><title>Node3&#45;&gt;Node11</title>
<path fill="none" stroke="midnightblue" d="M263,-168.781C263,-160.781 263,-150.689 263,-142.017"/>
<polygon fill="midnightblue" stroke="midnightblue" points="266.5,-141.73 263,-131.731 259.5,-141.731 266.5,-141.73"/>
</g>
<!-- Node12 -->
<g id="node12" class="node"><title>Node12</title>
<polygon fill="white" stroke="#bfbfbf" points="325,-112.5 325,-131.5 369,-131.5 369,-112.5 325,-112.5"/>
<text text-anchor="middle" x="347" y="-119.5" font-family="Helvetica,sans-Serif" font-size="10.00">vector</text>
</g>
<!-- Node3&#45;&gt;Node12 -->
<g id="edge11" class="edge"><title>Node3&#45;&gt;Node12</title>
<path fill="none" stroke="midnightblue" d="M282.907,-168.781C295.994,-159.433 313.082,-147.227 326.322,-137.77"/>
<polygon fill="midnightblue" stroke="midnightblue" points="328.674,-140.391 334.777,-131.731 324.606,-134.695 328.674,-140.391"/>
</g>
<!-- Node5 -->
<g id="node5" class="node"><title>Node5</title>
<g id="a_node5"><a xlink:href="CoreMacros_8hpp.html" target="_top" xlink:title="Core/CoreMacros.hpp">
<polygon fill="white" stroke="black" points="98.5,-56.5 98.5,-75.5 211.5,-75.5 211.5,-56.5 98.5,-56.5"/>
<text text-anchor="middle" x="155" y="-63.5" font-family="Helvetica,sans-Serif" font-size="10.00">Core/CoreMacros.hpp</text>
</a>
</g>
</g>
<!-- Node4&#45;&gt;Node5 -->
<g id="edge4" class="edge"><title>Node4&#45;&gt;Node5</title>
<path fill="none" stroke="midnightblue" d="M155,-112.083C155,-105.006 155,-94.8611 155,-85.9865"/>
<polygon fill="midnightblue" stroke="midnightblue" points="158.5,-85.751 155,-75.7511 151.5,-85.7511 158.5,-85.751"/>
</g>
<!-- Node6 -->
<g id="node6" class="node"><title>Node6</title>
<polygon fill="white" stroke="#bfbfbf" points="-0.5,-0.5 -0.5,-19.5 48.5,-19.5 48.5,-0.5 -0.5,-0.5"/>
<text text-anchor="middle" x="24" y="-7.5" font-family="Helvetica,sans-Serif" font-size="10.00">cassert</text>
</g>
<!-- Node5&#45;&gt;Node6 -->
<g id="edge5" class="edge"><title>Node5&#45;&gt;Node6</title>
<path fill="none" stroke="midnightblue" d="M134.243,-56.4435C112.684,-47.5566 78.7367,-33.5632 54.2062,-23.4514"/>
<polygon fill="midnightblue" stroke="midnightblue" points="55.2394,-20.0917 44.6602,-19.5164 52.5717,-26.5634 55.2394,-20.0917"/>
</g>
<!-- Node7 -->
<g id="node7" class="node"><title>Node7</title>
<polygon fill="white" stroke="#bfbfbf" points="66.5,-0.5 66.5,-19.5 109.5,-19.5 109.5,-0.5 66.5,-0.5"/>
<text text-anchor="middle" x="88" y="-7.5" font-family="Helvetica,sans-Serif" font-size="10.00">cstdio</text>
</g>
<!-- Node5&#45;&gt;Node7 -->
<g id="edge6" class="edge"><title>Node5&#45;&gt;Node7</title>
<path fill="none" stroke="midnightblue" d="M144.235,-56.324C134.234,-48.2631 119.113,-36.0765 107.07,-26.3695"/>
<polygon fill="midnightblue" stroke="midnightblue" points="108.943,-23.3841 98.9606,-19.8339 104.55,-28.8343 108.943,-23.3841"/>
</g>
<!-- Node8 -->
<g id="node8" class="node"><title>Node8</title>
<polygon fill="white" stroke="#bfbfbf" points="128,-0.5 128,-19.5 182,-19.5 182,-0.5 128,-0.5"/>
<text text-anchor="middle" x="155" y="-7.5" font-family="Helvetica,sans-Serif" font-size="10.00">iostream</text>
</g>
<!-- Node5&#45;&gt;Node8 -->
<g id="edge7" class="edge"><title>Node5&#45;&gt;Node8</title>
<path fill="none" stroke="midnightblue" d="M155,-56.083C155,-49.0059 155,-38.8611 155,-29.9865"/>
<polygon fill="midnightblue" stroke="midnightblue" points="158.5,-29.751 155,-19.7511 151.5,-29.7511 158.5,-29.751"/>
</g>
<!-- Node9 -->
<g id="node9" class="node"><title>Node9</title>
<polygon fill="white" stroke="#bfbfbf" points="200,-0.5 200,-19.5 252,-19.5 252,-0.5 200,-0.5"/>
<text text-anchor="middle" x="226" y="-7.5" font-family="Helvetica,sans-Serif" font-size="10.00">sstream</text>
</g>
<!-- Node5&#45;&gt;Node9 -->
<g id="edge8" class="edge"><title>Node5&#45;&gt;Node9</title>
<path fill="none" stroke="midnightblue" d="M166.407,-56.324C177.109,-48.1849 193.341,-35.8395 206.163,-26.0874"/>
<polygon fill="midnightblue" stroke="midnightblue" points="208.544,-28.6734 214.385,-19.8339 204.307,-23.1018 208.544,-28.6734"/>
</g>
<!-- Node10 -->
<g id="node10" class="node"><title>Node10</title>
<polygon fill="white" stroke="#bfbfbf" points="270,-0.5 270,-19.5 314,-19.5 314,-0.5 270,-0.5"/>
<text text-anchor="middle" x="292" y="-7.5" font-family="Helvetica,sans-Serif" font-size="10.00">thread</text>
</g>
<!-- Node5&#45;&gt;Node10 -->
<g id="edge9" class="edge"><title>Node5&#45;&gt;Node10</title>
<path fill="none" stroke="midnightblue" d="M176.708,-56.4435C199.355,-47.5171 235.072,-33.4387 260.752,-23.3168"/>
<polygon fill="midnightblue" stroke="midnightblue" points="262.374,-26.4397 270.394,-19.5164 259.807,-19.9273 262.374,-26.4397"/>
</g>
</g>
</svg>
