<?xml version="1.0" encoding="UTF-8" standalone="no"?>
<!DOCTYPE svg PUBLIC "-//W3C//DTD SVG 1.1//EN"
 "http://www.w3.org/Graphics/SVG/1.1/DTD/svg11.dtd">
<!-- Generated by graphviz version 2.36.0 (20140111.2315)
 -->
<!-- Title: /home/travis/build/STORM&#45;IRIT/Radium&#45;Engine/Plugins/Animation/src/AnimationSystem.hpp Pages: 1 -->
<svg width="1117pt" height="522pt"
 viewBox="0.00 0.00 1116.96 522.00" xmlns="http://www.w3.org/2000/svg" xmlns:xlink="http://www.w3.org/1999/xlink">
<g id="graph0" class="graph" transform="scale(1 1) rotate(0) translate(4 518)">
<title>/home/travis/build/STORM&#45;IRIT/Radium&#45;Engine/Plugins/Animation/src/AnimationSystem.hpp</title>
<polygon fill="white" stroke="none" points="-4,4 -4,-518 1112.96,-518 1112.96,4 -4,4"/>
<!-- Node1 -->
<g id="node1" class="node"><title>Node1</title>
<polygon fill="#bfbfbf" stroke="black" points="376.46,-461 376.46,-513 537.46,-513 537.46,-461 376.46,-461"/>
<text text-anchor="start" x="384.46" y="-501" font-family="Helvetica,sans-Serif" font-size="10.00">/home/travis/build</text>
<text text-anchor="start" x="384.46" y="-490" font-family="Helvetica,sans-Serif" font-size="10.00">/STORM&#45;IRIT/Radium&#45;Engine</text>
<text text-anchor="start" x="384.46" y="-479" font-family="Helvetica,sans-Serif" font-size="10.00">/Plugins/Animation/src/Animation</text>
<text text-anchor="middle" x="456.96" y="-468" font-family="Helvetica,sans-Serif" font-size="10.00">System.hpp</text>
</g>
<!-- Node2 -->
<g id="node2" class="node"><title>Node2</title>
<g id="a_node2"><a xlink:href="TimedSystem_8hpp.html" target="_top" xlink:title="Engine/System/TimedSystem.hpp">
<polygon fill="white" stroke="black" points="59.9597,-404.5 59.9597,-423.5 225.96,-423.5 225.96,-404.5 59.9597,-404.5"/>
<text text-anchor="middle" x="142.96" y="-411.5" font-family="Helvetica,sans-Serif" font-size="10.00">Engine/System/TimedSystem.hpp</text>
</a>
</g>
</g>
<!-- Node1&#45;&gt;Node2 -->
<g id="edge1" class="edge"><title>Node1&#45;&gt;Node2</title>
<path fill="none" stroke="midnightblue" d="M376.097,-467.716C317.4,-454.444 239.969,-436.935 190.807,-425.819"/>
<polygon fill="midnightblue" stroke="midnightblue" points="191.288,-422.339 180.762,-423.548 189.744,-429.167 191.288,-422.339"/>
</g>
<!-- Node15 -->
<g id="node15" class="node"><title>Node15</title>
<g id="a_node15"><a xlink:href="AnimationPluginMacros_8hpp.html" target="_top" xlink:title="AnimationPluginMacros.hpp">
<polygon fill="white" stroke="black" points="825.96,-404.5 825.96,-423.5 963.96,-423.5 963.96,-404.5 825.96,-404.5"/>
<text text-anchor="middle" x="894.96" y="-411.5" font-family="Helvetica,sans-Serif" font-size="10.00">AnimationPluginMacros.hpp</text>
</a>
</g>
</g>
<!-- Node1&#45;&gt;Node15 -->
<g id="edge18" class="edge"><title>Node1&#45;&gt;Node15</title>
<path fill="none" stroke="midnightblue" d="M537.551,-472.936C622.558,-459.157 754.709,-437.735 832.259,-425.164"/>
<polygon fill="midnightblue" stroke="midnightblue" points="833.054,-428.581 842.365,-423.526 831.934,-421.671 833.054,-428.581"/>
</g>
<!-- Node16 -->
<g id="node16" class="node"><title>Node16</title>
<g id="a_node16"><a xlink:href="ItemEntry_8hpp.html" target="_top" xlink:title="Engine/ItemModel/ItemEntry.hpp">
<polygon fill="white" stroke="black" points="376.96,-404.5 376.96,-423.5 536.96,-423.5 536.96,-404.5 376.96,-404.5"/>
<text text-anchor="middle" x="456.96" y="-411.5" font-family="Helvetica,sans-Serif" font-size="10.00">Engine/ItemModel/ItemEntry.hpp</text>
</a>
</g>
</g>
<!-- Node1&#45;&gt;Node16 -->
<g id="edge20" class="edge"><title>Node1&#45;&gt;Node16</title>
<path fill="none" stroke="midnightblue" d="M456.96,-460.768C456.96,-451.89 456.96,-442.074 456.96,-433.816"/>
<polygon fill="midnightblue" stroke="midnightblue" points="460.46,-433.757 456.96,-423.757 453.46,-433.757 460.46,-433.757"/>
</g>
<!-- Node3 -->
<g id="node3" class="node"><title>Node3</title>
<g id="a_node3"><a xlink:href="RaEngine_8hpp.html" target="_top" xlink:title="Engine/RaEngine.hpp">
<polygon fill="white" stroke="black" points="9.45969,-236.5 9.45969,-255.5 120.46,-255.5 120.46,-236.5 9.45969,-236.5"/>
<text text-anchor="middle" x="64.9597" y="-243.5" font-family="Helvetica,sans-Serif" font-size="10.00">Engine/RaEngine.hpp</text>
</a>
</g>
</g>
<!-- Node2&#45;&gt;Node3 -->
<g id="edge2" class="edge"><title>Node2&#45;&gt;Node3</title>
<path fill="none" stroke="midnightblue" d="M70.7,-404.424C48.5421,-398.016 26.4666,-386.969 12.9597,-368 -6.63272,-340.485 -1.08194,-322.721 12.9597,-292 18.737,-279.36 30.0119,-268.911 40.5903,-261.274"/>
<polygon fill="midnightblue" stroke="midnightblue" points="42.8085,-264.001 49.1764,-255.533 38.9179,-258.182 42.8085,-264.001"/>
</g>
<!-- Node10 -->
<g id="node10" class="node"><title>Node10</title>
<g id="a_node10"><a xlink:href="CouplingSystem_8hpp.html" target="_top" xlink:title="Engine/System/CouplingSystem.hpp">
<polygon fill="white" stroke="black" points="54.4597,-348.5 54.4597,-367.5 231.46,-367.5 231.46,-348.5 54.4597,-348.5"/>
<text text-anchor="middle" x="142.96" y="-355.5" font-family="Helvetica,sans-Serif" font-size="10.00">Engine/System/CouplingSystem.hpp</text>
</a>
</g>
</g>
<!-- Node2&#45;&gt;Node10 -->
<g id="edge9" class="edge"><title>Node2&#45;&gt;Node10</title>
<path fill="none" stroke="midnightblue" d="M142.96,-404.083C142.96,-397.006 142.96,-386.861 142.96,-377.986"/>
<polygon fill="midnightblue" stroke="midnightblue" points="146.46,-377.751 142.96,-367.751 139.46,-377.751 146.46,-377.751"/>
</g>
<!-- Node4 -->
<g id="node4" class="node"><title>Node4</title>
<g id="a_node4"><a xlink:href="CoreMacros_8hpp.html" target="_top" xlink:title="Core/CoreMacros.hpp">
<polygon fill="white" stroke="black" points="644.46,-56.5 644.46,-75.5 757.46,-75.5 757.46,-56.5 644.46,-56.5"/>
<text text-anchor="middle" x="700.96" y="-63.5" font-family="Helvetica,sans-Serif" font-size="10.00">Core/CoreMacros.hpp</text>
</a>
</g>
</g>
<!-- Node3&#45;&gt;Node4 -->
<g id="edge3" class="edge"><title>Node3&#45;&gt;Node4</title>
<path fill="none" stroke="midnightblue" d="M68.1204,-236.163C74.4507,-219.83 90.3167,-185.036 115.96,-168 200.15,-112.069 498.739,-82.5545 633.772,-71.81"/>
<polygon fill="midnightblue" stroke="midnightblue" points="634.29,-75.2802 643.986,-71.0083 633.743,-68.3016 634.29,-75.2802"/>
</g>
<!-- Node5 -->
<g id="node5" class="node"><title>Node5</title>
<polygon fill="white" stroke="#bfbfbf" points="545.46,-0.5 545.46,-19.5 594.46,-19.5 594.46,-0.5 545.46,-0.5"/>
<text text-anchor="middle" x="569.96" y="-7.5" font-family="Helvetica,sans-Serif" font-size="10.00">cassert</text>
</g>
<!-- Node4&#45;&gt;Node5 -->
<g id="edge4" class="edge"><title>Node4&#45;&gt;Node5</title>
<path fill="none" stroke="midnightblue" d="M680.202,-56.4435C658.643,-47.5566 624.696,-33.5632 600.166,-23.4514"/>
<polygon fill="midnightblue" stroke="midnightblue" points="601.199,-20.0917 590.62,-19.5164 598.531,-26.5634 601.199,-20.0917"/>
</g>
<!-- Node6 -->
<g id="node6" class="node"><title>Node6</title>
<polygon fill="white" stroke="#bfbfbf" points="612.46,-0.5 612.46,-19.5 655.46,-19.5 655.46,-0.5 612.46,-0.5"/>
<text text-anchor="middle" x="633.96" y="-7.5" font-family="Helvetica,sans-Serif" font-size="10.00">cstdio</text>
</g>
<!-- Node4&#45;&gt;Node6 -->
<g id="edge5" class="edge"><title>Node4&#45;&gt;Node6</title>
<path fill="none" stroke="midnightblue" d="M690.195,-56.324C680.194,-48.2631 665.073,-36.0765 653.029,-26.3695"/>
<polygon fill="midnightblue" stroke="midnightblue" points="654.903,-23.3841 644.92,-19.8339 650.51,-28.8343 654.903,-23.3841"/>
</g>
<!-- Node7 -->
<g id="node7" class="node"><title>Node7</title>
<polygon fill="white" stroke="#bfbfbf" points="673.96,-0.5 673.96,-19.5 727.96,-19.5 727.96,-0.5 673.96,-0.5"/>
<text text-anchor="middle" x="700.96" y="-7.5" font-family="Helvetica,sans-Serif" font-size="10.00">iostream</text>
</g>
<!-- Node4&#45;&gt;Node7 -->
<g id="edge6" class="edge"><title>Node4&#45;&gt;Node7</title>
<path fill="none" stroke="midnightblue" d="M700.96,-56.083C700.96,-49.0059 700.96,-38.8611 700.96,-29.9865"/>
<polygon fill="midnightblue" stroke="midnightblue" points="704.46,-29.751 700.96,-19.7511 697.46,-29.7511 704.46,-29.751"/>
</g>
<!-- Node8 -->
<g id="node8" class="node"><title>Node8</title>
<polygon fill="white" stroke="#bfbfbf" points="745.96,-0.5 745.96,-19.5 797.96,-19.5 797.96,-0.5 745.96,-0.5"/>
<text text-anchor="middle" x="771.96" y="-7.5" font-family="Helvetica,sans-Serif" font-size="10.00">sstream</text>
</g>
<!-- Node4&#45;&gt;Node8 -->
<g id="edge7" class="edge"><title>Node4&#45;&gt;Node8</title>
<path fill="none" stroke="midnightblue" d="M712.367,-56.324C723.068,-48.1849 739.3,-35.8395 752.123,-26.0874"/>
<polygon fill="midnightblue" stroke="midnightblue" points="754.504,-28.6734 760.345,-19.8339 750.266,-23.1018 754.504,-28.6734"/>
</g>
<!-- Node9 -->
<g id="node9" class="node"><title>Node9</title>
<polygon fill="white" stroke="#bfbfbf" points="815.96,-0.5 815.96,-19.5 859.96,-19.5 859.96,-0.5 815.96,-0.5"/>
<text text-anchor="middle" x="837.96" y="-7.5" font-family="Helvetica,sans-Serif" font-size="10.00">thread</text>
</g>
<!-- Node4&#45;&gt;Node9 -->
<g id="edge8" class="edge"><title>Node4&#45;&gt;Node9</title>
<path fill="none" stroke="midnightblue" d="M722.668,-56.4435C745.314,-47.5171 781.032,-33.4387 806.711,-23.3168"/>
<polygon fill="midnightblue" stroke="midnightblue" points="808.333,-26.4397 816.353,-19.5164 805.766,-19.9273 808.333,-26.4397"/>
</g>
<!-- Node10&#45;&gt;Node3 -->
<g id="edge10" class="edge"><title>Node10&#45;&gt;Node3</title>
<path fill="none" stroke="midnightblue" d="M128.762,-348.256C116.691,-340.175 99.6601,-327.152 88.9597,-312 78.9942,-297.889 72.6569,-279.155 69.0132,-265.425"/>
<polygon fill="midnightblue" stroke="midnightblue" points="72.4064,-264.566 66.6506,-255.671 65.6031,-266.214 72.4064,-264.566"/>
</g>
<!-- Node11 -->
<g id="node11" class="node"><title>Node11</title>
<g id="a_node11"><a xlink:href="System_8hpp.html" target="_top" xlink:title="Engine/System/System.hpp">
<polygon fill="white" stroke="black" points="211.46,-292.5 211.46,-311.5 350.46,-311.5 350.46,-292.5 211.46,-292.5"/>
<text text-anchor="middle" x="280.96" y="-299.5" font-family="Helvetica,sans-Serif" font-size="10.00">Engine/System/System.hpp</text>
</a>
</g>
</g>
<!-- Node10&#45;&gt;Node11 -->
<g id="edge11" class="edge"><title>Node10&#45;&gt;Node11</title>
<path fill="none" stroke="midnightblue" d="M164.826,-348.444C187.739,-339.478 223.935,-325.314 249.826,-315.183"/>
<polygon fill="midnightblue" stroke="midnightblue" points="251.158,-318.42 259.195,-311.516 248.608,-311.901 251.158,-318.42"/>
</g>
<!-- Node12 -->
<g id="node12" class="node"><title>Node12</title>
<polygon fill="white" stroke="#bfbfbf" points="254.96,-236.5 254.96,-255.5 306.96,-255.5 306.96,-236.5 254.96,-236.5"/>
<text text-anchor="middle" x="280.96" y="-243.5" font-family="Helvetica,sans-Serif" font-size="10.00">memory</text>
</g>
<!-- Node10&#45;&gt;Node12 -->
<g id="edge15" class="edge"><title>Node10&#45;&gt;Node12</title>
<path fill="none" stroke="midnightblue" d="M135.447,-348.162C125.047,-334.805 108.941,-309.215 121.96,-292 136.747,-272.447 202.657,-258.945 244.839,-252.129"/>
<polygon fill="midnightblue" stroke="midnightblue" points="245.407,-255.583 254.747,-250.58 244.326,-248.667 245.407,-255.583"/>
</g>
<!-- Node13 -->
<g id="node13" class="node"><title>Node13</title>
<polygon fill="white" stroke="#bfbfbf" points="340.96,-236.5 340.96,-255.5 384.96,-255.5 384.96,-236.5 340.96,-236.5"/>
<text text-anchor="middle" x="362.96" y="-243.5" font-family="Helvetica,sans-Serif" font-size="10.00">vector</text>
</g>
<!-- Node10&#45;&gt;Node13 -->
<g id="edge17" class="edge"><title>Node10&#45;&gt;Node13</title>
<path fill="none" stroke="midnightblue" d="M201.791,-348.471C262.14,-339.142 348.635,-323.929 358.96,-312 369.702,-299.588 369.546,-280.348 367.399,-266.017"/>
<polygon fill="midnightblue" stroke="midnightblue" points="370.757,-264.952 365.419,-255.8 363.885,-266.283 370.757,-264.952"/>
</g>
<!-- Node14 -->
<g id="node14" class="node"><title>Node14</title>
<polygon fill="white" stroke="#bfbfbf" points="130.96,-292.5 130.96,-311.5 192.96,-311.5 192.96,-292.5 130.96,-292.5"/>
<text text-anchor="middle" x="161.96" y="-299.5" font-family="Helvetica,sans-Serif" font-size="10.00">type_traits</text>
</g>
<!-- Node10&#45;&gt;Node14 -->
<g id="edge16" class="edge"><title>Node10&#45;&gt;Node14</title>
<path fill="none" stroke="midnightblue" d="M146.097,-348.083C148.643,-340.849 152.316,-330.409 155.487,-321.397"/>
<polygon fill="midnightblue" stroke="midnightblue" points="158.863,-322.346 158.881,-311.751 152.26,-320.023 158.863,-322.346"/>
</g>
<!-- Node11&#45;&gt;Node3 -->
<g id="edge12" class="edge"><title>Node11&#45;&gt;Node3</title>
<path fill="none" stroke="midnightblue" d="M246.734,-292.444C209.448,-283.122 149.691,-268.183 108.949,-257.997"/>
<polygon fill="midnightblue" stroke="midnightblue" points="109.576,-254.546 99.0254,-255.516 107.878,-261.337 109.576,-254.546"/>
</g>
<!-- Node11&#45;&gt;Node12 -->
<g id="edge13" class="edge"><title>Node11&#45;&gt;Node12</title>
<path fill="none" stroke="midnightblue" d="M280.96,-292.083C280.96,-285.006 280.96,-274.861 280.96,-265.986"/>
<polygon fill="midnightblue" stroke="midnightblue" points="284.46,-265.751 280.96,-255.751 277.46,-265.751 284.46,-265.751"/>
</g>
<!-- Node11&#45;&gt;Node13 -->
<g id="edge14" class="edge"><title>Node11&#45;&gt;Node13</title>
<path fill="none" stroke="midnightblue" d="M294.134,-292.324C306.806,-283.979 326.193,-271.212 341.165,-261.352"/>
<polygon fill="midnightblue" stroke="midnightblue" points="343.391,-264.078 349.818,-255.655 339.541,-258.231 343.391,-264.078"/>
</g>
<!-- Node15&#45;&gt;Node4 -->
<g id="edge19" class="edge"><title>Node15&#45;&gt;Node4</title>
<path fill="none" stroke="midnightblue" d="M964.144,-406.148C1026.67,-395.684 1108.96,-369.316 1108.96,-303 1108.96,-303 1108.96,-303 1108.96,-183 1108.96,-112.947 883.606,-82.9485 767.861,-72.1612"/>
<polygon fill="midnightblue" stroke="midnightblue" points="767.966,-68.6564 757.69,-71.2364 767.332,-75.6276 767.966,-68.6564"/>
</g>
<!-- Node16&#45;&gt;Node3 -->
<g id="edge21" class="edge"><title>Node16&#45;&gt;Node3</title>
<path fill="none" stroke="midnightblue" d="M376.719,-409.896C263.108,-404.664 66.6665,-392.207 44.9597,-368 19.1203,-339.185 40.0603,-290.283 54.3747,-264.349"/>
<polygon fill="midnightblue" stroke="midnightblue" points="57.4446,-266.032 59.4251,-255.624 51.3863,-262.526 57.4446,-266.032"/>
</g>
<!-- Node16&#45;&gt;Node13 -->
<g id="edge26" class="edge"><title>Node16&#45;&gt;Node13</title>
<path fill="none" stroke="midnightblue" d="M537.189,-406.175C561.592,-399.888 585.91,-388.47 600.96,-368 606.225,-360.838 602.681,-356.721 600.96,-348 595.75,-321.603 598.76,-309.068 577.96,-292 515.933,-241.103 477.842,-273.05 395.025,-255.934"/>
<polygon fill="midnightblue" stroke="midnightblue" points="395.772,-252.514 385.247,-253.729 394.232,-259.343 395.772,-252.514"/>
</g>
<!-- Node17 -->
<g id="node17" class="node"><title>Node17</title>
<g id="a_node17"><a xlink:href="Index_8hpp.html" target="_top" xlink:title="Core/Index/Index.hpp">
<polygon fill="white" stroke="black" points="249.96,-348.5 249.96,-367.5 359.96,-367.5 359.96,-348.5 249.96,-348.5"/>
<text text-anchor="middle" x="304.96" y="-355.5" font-family="Helvetica,sans-Serif" font-size="10.00">Core/Index/Index.hpp</text>
</a>
</g>
</g>
<!-- Node16&#45;&gt;Node17 -->
<g id="edge22" class="edge"><title>Node16&#45;&gt;Node17</title>
<path fill="none" stroke="midnightblue" d="M432.875,-404.444C407.415,-395.399 367.066,-381.064 338.501,-370.916"/>
<polygon fill="midnightblue" stroke="midnightblue" points="339.527,-367.566 328.932,-367.516 337.183,-374.162 339.527,-367.566"/>
</g>
<!-- Node20 -->
<g id="node20" class="node"><title>Node20</title>
<polygon fill="white" stroke="#bfbfbf" points="378.46,-348.5 378.46,-367.5 419.46,-367.5 419.46,-348.5 378.46,-348.5"/>
<text text-anchor="middle" x="398.96" y="-355.5" font-family="Helvetica,sans-Serif" font-size="10.00">string</text>
</g>
<!-- Node16&#45;&gt;Node20 -->
<g id="edge25" class="edge"><title>Node16&#45;&gt;Node20</title>
<path fill="none" stroke="midnightblue" d="M447.641,-404.324C439.067,-396.341 426.147,-384.313 415.772,-374.653"/>
<polygon fill="midnightblue" stroke="midnightblue" points="418.152,-372.086 408.448,-367.834 413.382,-377.21 418.152,-372.086"/>
</g>
<!-- Node21 -->
<g id="node21" class="node"><title>Node21</title>
<g id="a_node21"><a xlink:href="PickingManager_8hpp.html" target="_top" xlink:title="GuiBase/Utils/PickingManager.hpp">
<polygon fill="white" stroke="black" points="673.46,-348.5 673.46,-367.5 842.46,-367.5 842.46,-348.5 673.46,-348.5"/>
<text text-anchor="middle" x="757.96" y="-355.5" font-family="Helvetica,sans-Serif" font-size="10.00">GuiBase/Utils/PickingManager.hpp</text>
</a>
</g>
</g>
<!-- Node16&#45;&gt;Node21 -->
<g id="edge27" class="edge"><title>Node16&#45;&gt;Node21</title>
<path fill="none" stroke="midnightblue" d="M504.654,-404.444C557.823,-394.905 643.784,-379.483 700.586,-369.293"/>
<polygon fill="midnightblue" stroke="midnightblue" points="701.264,-372.727 710.488,-367.516 700.028,-365.837 701.264,-372.727"/>
</g>
<!-- Node42 -->
<g id="node42" class="node"><title>Node42</title>
<g id="a_node42"><a xlink:href="ItemEntry_8inl.html" target="_top" xlink:title="Engine/ItemModel/ItemEntry.inl">
<polygon fill="white" stroke="black" points="437.96,-348.5 437.96,-367.5 591.96,-367.5 591.96,-348.5 437.96,-348.5"/>
<text text-anchor="middle" x="514.96" y="-355.5" font-family="Helvetica,sans-Serif" font-size="10.00">Engine/ItemModel/ItemEntry.inl</text>
</a>
</g>
</g>
<!-- Node16&#45;&gt;Node42 -->
<g id="edge58" class="edge"><title>Node16&#45;&gt;Node42</title>
<path fill="none" stroke="midnightblue" d="M466.278,-404.324C474.852,-396.341 487.772,-384.313 498.147,-374.653"/>
<polygon fill="midnightblue" stroke="midnightblue" points="500.537,-377.21 505.471,-367.834 495.767,-372.086 500.537,-377.21"/>
</g>
<!-- Node18 -->
<g id="node18" class="node"><title>Node18</title>
<polygon fill="white" stroke="#bfbfbf" points="528.96,-292.5 528.96,-311.5 568.96,-311.5 568.96,-292.5 528.96,-292.5"/>
<text text-anchor="middle" x="548.96" y="-299.5" font-family="Helvetica,sans-Serif" font-size="10.00">limits</text>
</g>
<!-- Node17&#45;&gt;Node18 -->
<g id="edge23" class="edge"><title>Node17&#45;&gt;Node18</title>
<path fill="none" stroke="midnightblue" d="M352.231,-348.439C393.771,-340.618 456.021,-328.176 518.69,-312.144"/>
<polygon fill="midnightblue" stroke="midnightblue" points="519.944,-315.435 528.748,-309.54 518.19,-308.658 519.944,-315.435"/>
</g>
<!-- Node19 -->
<g id="node19" class="node"><title>Node19</title>
<g id="a_node19"><a xlink:href="Index_8inl.html" target="_top" xlink:title="Core/Index/Index.inl">
<polygon fill="white" stroke="black" points="406.96,-292.5 406.96,-311.5 510.96,-311.5 510.96,-292.5 406.96,-292.5"/>
<text text-anchor="middle" x="458.96" y="-299.5" font-family="Helvetica,sans-Serif" font-size="10.00">Core/Index/Index.inl</text>
</a>
</g>
</g>
<!-- Node17&#45;&gt;Node19 -->
<g id="edge24" class="edge"><title>Node17&#45;&gt;Node19</title>
<path fill="none" stroke="midnightblue" d="M329.361,-348.444C355.156,-339.399 396.036,-325.064 424.977,-314.916"/>
<polygon fill="midnightblue" stroke="midnightblue" points="426.394,-318.128 434.672,-311.516 424.077,-311.523 426.394,-318.128"/>
</g>
<!-- Node22 -->
<g id="node22" class="node"><title>Node22</title>
<g id="a_node22"><a xlink:href="RaGuiBase_8hpp.html" target="_top" xlink:title="GuiBase/RaGuiBase.hpp">
<polygon fill="white" stroke="black" points="870.96,-112.5 870.96,-131.5 996.96,-131.5 996.96,-112.5 870.96,-112.5"/>
<text text-anchor="middle" x="933.96" y="-119.5" font-family="Helvetica,sans-Serif" font-size="10.00">GuiBase/RaGuiBase.hpp</text>
</a>
</g>
</g>
<!-- Node21&#45;&gt;Node22 -->
<g id="edge28" class="edge"><title>Node21&#45;&gt;Node22</title>
<path fill="none" stroke="midnightblue" d="M810.846,-348.452C883.404,-333.379 1009.65,-294.222 1051.96,-200 1057.79,-187.026 1060.03,-179.712 1051.96,-168 1040.73,-151.702 1022.75,-141.303 1004.18,-134.669"/>
<polygon fill="midnightblue" stroke="midnightblue" points="1005.03,-131.267 994.441,-131.531 1002.89,-137.93 1005.03,-131.267"/>
</g>
<!-- Node23 -->
<g id="node23" class="node"><title>Node23</title>
<g id="a_node23"><a xlink:href="Renderer_8hpp.html" target="_top" xlink:title="Engine/Renderer/Renderer.hpp">
<polygon fill="white" stroke="black" points="707.46,-292.5 707.46,-311.5 858.46,-311.5 858.46,-292.5 707.46,-292.5"/>
<text text-anchor="middle" x="782.96" y="-299.5" font-family="Helvetica,sans-Serif" font-size="10.00">Engine/Renderer/Renderer.hpp</text>
</a>
</g>
</g>
<!-- Node21&#45;&gt;Node23 -->
<g id="edge30" class="edge"><title>Node21&#45;&gt;Node23</title>
<path fill="none" stroke="midnightblue" d="M762.088,-348.083C765.474,-340.77 770.376,-330.181 774.578,-321.103"/>
<polygon fill="midnightblue" stroke="midnightblue" points="777.883,-322.296 778.908,-311.751 771.531,-319.355 777.883,-322.296"/>
</g>
<!-- Node41 -->
<g id="node41" class="node"><title>Node41</title>
<polygon fill="white" stroke="#bfbfbf" points="636.46,-292.5 636.46,-311.5 689.46,-311.5 689.46,-292.5 636.46,-292.5"/>
<text text-anchor="middle" x="662.96" y="-299.5" font-family="Helvetica,sans-Serif" font-size="10.00">QObject</text>
</g>
<!-- Node21&#45;&gt;Node41 -->
<g id="edge57" class="edge"><title>Node21&#45;&gt;Node41</title>
<path fill="none" stroke="midnightblue" d="M742.696,-348.324C727.738,-339.822 704.705,-326.729 687.233,-316.797"/>
<polygon fill="midnightblue" stroke="midnightblue" points="688.608,-313.553 678.185,-311.655 685.149,-319.639 688.608,-313.553"/>
</g>
<!-- Node22&#45;&gt;Node4 -->
<g id="edge29" class="edge"><title>Node22&#45;&gt;Node4</title>
<path fill="none" stroke="midnightblue" d="M897.04,-112.444C856.564,-103.063 791.539,-87.9926 747.575,-77.8036"/>
<polygon fill="midnightblue" stroke="midnightblue" points="748.239,-74.3646 737.707,-75.5164 746.658,-81.1839 748.239,-74.3646"/>
</g>
<!-- Node23&#45;&gt;Node3 -->
<g id="edge31" class="edge"><title>Node23&#45;&gt;Node3</title>
<path fill="none" stroke="midnightblue" d="M707.429,-292.866C704.231,-292.565 701.064,-292.275 697.96,-292 491.026,-273.695 245.516,-257.942 130.522,-250.912"/>
<polygon fill="midnightblue" stroke="midnightblue" points="130.666,-247.415 120.471,-250.3 130.24,-254.402 130.666,-247.415"/>
</g>
<!-- Node23&#45;&gt;Node12 -->
<g id="edge34" class="edge"><title>Node23&#45;&gt;Node12</title>
<path fill="none" stroke="midnightblue" d="M707.419,-292.972C704.223,-292.642 701.06,-292.317 697.96,-292 535.354,-275.395 493.894,-278.219 331.96,-256 327.147,-255.34 322.094,-254.557 317.116,-253.733"/>
<polygon fill="midnightblue" stroke="midnightblue" points="317.555,-250.258 307.106,-252.011 316.368,-257.156 317.555,-250.258"/>
</g>
<!-- Node23&#45;&gt;Node13 -->
<g id="edge36" class="edge"><title>Node23&#45;&gt;Node13</title>
<path fill="none" stroke="midnightblue" d="M707.085,-292.914C609.931,-282.462 448.596,-264.741 395.351,-255.809"/>
<polygon fill="midnightblue" stroke="midnightblue" points="395.668,-252.309 385.2,-253.94 394.401,-259.193 395.668,-252.309"/>
</g>
<!-- Node24 -->
<g id="node24" class="node"><title>Node24</title>
<polygon fill="white" stroke="#bfbfbf" points="915.96,-236.5 915.96,-255.5 953.96,-255.5 953.96,-236.5 915.96,-236.5"/>
<text text-anchor="middle" x="934.96" y="-243.5" font-family="Helvetica,sans-Serif" font-size="10.00">array</text>
</g>
<!-- Node23&#45;&gt;Node24 -->
<g id="edge32" class="edge"><title>Node23&#45;&gt;Node24</title>
<path fill="none" stroke="midnightblue" d="M807.045,-292.444C834.002,-282.867 877.652,-267.359 906.332,-257.17"/>
<polygon fill="midnightblue" stroke="midnightblue" points="907.549,-260.452 915.8,-253.807 905.206,-253.856 907.549,-260.452"/>
</g>
<!-- Node25 -->
<g id="node25" class="node"><title>Node25</title>
<polygon fill="white" stroke="#bfbfbf" points="996.96,-174.5 996.96,-193.5 1042.96,-193.5 1042.96,-174.5 996.96,-174.5"/>
<text text-anchor="middle" x="1019.96" y="-181.5" font-family="Helvetica,sans-Serif" font-size="10.00">chrono</text>
</g>
<!-- Node23&#45;&gt;Node25 -->
<g id="edge33" class="edge"><title>Node23&#45;&gt;Node25</title>
<path fill="none" stroke="midnightblue" d="M858.679,-293.186C892.617,-286.993 931.902,-275.892 962.96,-256 983.683,-242.727 1000.28,-219.338 1010.11,-203.047"/>
<polygon fill="midnightblue" stroke="midnightblue" points="1013.38,-204.388 1015.33,-193.975 1007.31,-200.897 1013.38,-204.388"/>
</g>
<!-- Node26 -->
<g id="node26" class="node"><title>Node26</title>
<polygon fill="white" stroke="#bfbfbf" points="564.96,-236.5 564.96,-255.5 608.96,-255.5 608.96,-236.5 564.96,-236.5"/>
<text text-anchor="middle" x="586.96" y="-243.5" font-family="Helvetica,sans-Serif" font-size="10.00">mutex</text>
</g>
<!-- Node23&#45;&gt;Node26 -->
<g id="edge35" class="edge"><title>Node23&#45;&gt;Node26</title>
<path fill="none" stroke="midnightblue" d="M750.977,-292.443C719.655,-284.026 670.328,-270.675 618.638,-256.159"/>
<polygon fill="midnightblue" stroke="midnightblue" points="619.537,-252.776 608.962,-253.436 617.64,-259.514 619.537,-252.776"/>
</g>
<!-- Node27 -->
<g id="node27" class="node"><title>Node27</title>
<g id="a_node27"><a xlink:href="EventEnums_8hpp.html" target="_top" xlink:title="Core/Event/EventEnums.hpp">
<polygon fill="white" stroke="black" points="402.96,-236.5 402.96,-255.5 546.96,-255.5 546.96,-236.5 402.96,-236.5"/>
<text text-anchor="middle" x="474.96" y="-243.5" font-family="Helvetica,sans-Serif" font-size="10.00">Core/Event/EventEnums.hpp</text>
</a>
</g>
</g>
<!-- Node23&#45;&gt;Node27 -->
<g id="edge37" class="edge"><title>Node23&#45;&gt;Node27</title>
<path fill="none" stroke="midnightblue" d="M734.156,-292.444C679.75,-282.905 591.791,-267.483 533.668,-257.293"/>
<polygon fill="midnightblue" stroke="midnightblue" points="533.989,-253.796 523.535,-255.516 532.78,-260.691 533.989,-253.796"/>
</g>
<!-- Node29 -->
<g id="node29" class="node"><title>Node29</title>
<g id="a_node29"><a xlink:href="LinearAlgebra_8hpp.html" target="_top" xlink:title="Core/Math/LinearAlgebra.hpp">
<polygon fill="white" stroke="black" points="627.46,-236.5 627.46,-255.5 770.46,-255.5 770.46,-236.5 627.46,-236.5"/>
<text text-anchor="middle" x="698.96" y="-243.5" font-family="Helvetica,sans-Serif" font-size="10.00">Core/Math/LinearAlgebra.hpp</text>
</a>
</g>
</g>
<!-- Node23&#45;&gt;Node29 -->
<g id="edge40" class="edge"><title>Node23&#45;&gt;Node29</title>
<path fill="none" stroke="midnightblue" d="M769.464,-292.324C756.36,-283.9 736.248,-270.971 720.853,-261.074"/>
<polygon fill="midnightblue" stroke="midnightblue" points="722.727,-258.118 712.422,-255.655 718.941,-264.006 722.727,-258.118"/>
</g>
<!-- Node40 -->
<g id="node40" class="node"><title>Node40</title>
<g id="a_node40"><a xlink:href="Timer_8hpp.html" target="_top" xlink:title="Core/Time/Timer.hpp">
<polygon fill="white" stroke="black" points="788.46,-236.5 788.46,-255.5 897.46,-255.5 897.46,-236.5 788.46,-236.5"/>
<text text-anchor="middle" x="842.96" y="-243.5" font-family="Helvetica,sans-Serif" font-size="10.00">Core/Time/Timer.hpp</text>
</a>
</g>
</g>
<!-- Node23&#45;&gt;Node40 -->
<g id="edge54" class="edge"><title>Node23&#45;&gt;Node40</title>
<path fill="none" stroke="midnightblue" d="M792.6,-292.324C801.469,-284.341 814.834,-272.313 825.568,-262.653"/>
<polygon fill="midnightblue" stroke="midnightblue" points="828.053,-265.125 833.144,-255.834 823.37,-259.922 828.053,-265.125"/>
</g>
<!-- Node28 -->
<g id="node28" class="node"><title>Node28</title>
<g id="a_node28"><a xlink:href="RaCore_8hpp.html" target="_top" xlink:title="Core/RaCore.hpp">
<polygon fill="white" stroke="black" points="421.46,-112.5 421.46,-131.5 514.46,-131.5 514.46,-112.5 421.46,-112.5"/>
<text text-anchor="middle" x="467.96" y="-119.5" font-family="Helvetica,sans-Serif" font-size="10.00">Core/RaCore.hpp</text>
</a>
</g>
</g>
<!-- Node27&#45;&gt;Node28 -->
<g id="edge38" class="edge"><title>Node27&#45;&gt;Node28</title>
<path fill="none" stroke="midnightblue" d="M402.773,-236.866C302.165,-225.36 131.491,-205.155 126.96,-200 117.57,-189.318 117.584,-178.694 126.96,-168 145.386,-146.982 319.262,-132.637 411.348,-126.447"/>
<polygon fill="midnightblue" stroke="midnightblue" points="411.6,-129.938 421.347,-125.785 411.138,-122.954 411.6,-129.938"/>
</g>
<!-- Node28&#45;&gt;Node4 -->
<g id="edge39" class="edge"><title>Node28&#45;&gt;Node4</title>
<path fill="none" stroke="midnightblue" d="M504.879,-112.444C545.355,-103.063 610.38,-87.9926 654.344,-77.8036"/>
<polygon fill="midnightblue" stroke="midnightblue" points="655.261,-81.1839 664.213,-75.5164 653.681,-74.3646 655.261,-81.1839"/>
</g>
<!-- Node29&#45;&gt;Node28 -->
<g id="edge41" class="edge"><title>Node29&#45;&gt;Node28</title>
<path fill="none" stroke="midnightblue" d="M627.418,-237.017C623.883,-236.664 620.382,-236.323 616.96,-236 566.249,-231.221 194.533,-237.404 159.96,-200 150.306,-189.556 150.658,-178.759 159.96,-168 191.754,-131.223 330.995,-123.913 410.947,-122.817"/>
<polygon fill="midnightblue" stroke="midnightblue" points="411.381,-126.312 421.342,-122.704 411.305,-119.313 411.381,-126.312"/>
</g>
<!-- Node30 -->
<g id="node30" class="node"><title>Node30</title>
<polygon fill="white" stroke="#bfbfbf" points="715.46,-174.5 715.46,-193.5 780.46,-193.5 780.46,-174.5 715.46,-174.5"/>
<text text-anchor="middle" x="747.96" y="-181.5" font-family="Helvetica,sans-Serif" font-size="10.00">Eigen/Core</text>
</g>
<!-- Node29&#45;&gt;Node30 -->
<g id="edge42" class="edge"><title>Node29&#45;&gt;Node30</title>
<path fill="none" stroke="midnightblue" d="M705.98,-236.403C713.403,-227.314 725.292,-212.756 734.526,-201.449"/>
<polygon fill="midnightblue" stroke="midnightblue" points="737.338,-203.54 740.952,-193.581 731.916,-199.112 737.338,-203.54"/>
</g>
<!-- Node31 -->
<g id="node31" class="node"><title>Node31</title>
<polygon fill="white" stroke="#bfbfbf" points="798.46,-174.5 798.46,-193.5 885.46,-193.5 885.46,-174.5 798.46,-174.5"/>
<text text-anchor="middle" x="841.96" y="-181.5" font-family="Helvetica,sans-Serif" font-size="10.00">Eigen/Geometry</text>
</g>
<!-- Node29&#45;&gt;Node31 -->
<g id="edge43" class="edge"><title>Node29&#45;&gt;Node31</title>
<path fill="none" stroke="midnightblue" d="M719.448,-236.403C743.765,-226.2 784.508,-209.105 812.277,-197.454"/>
<polygon fill="midnightblue" stroke="midnightblue" points="813.642,-200.677 821.509,-193.581 810.934,-194.222 813.642,-200.677"/>
</g>
<!-- Node32 -->
<g id="node32" class="node"><title>Node32</title>
<polygon fill="white" stroke="#bfbfbf" points="903.46,-174.5 903.46,-193.5 978.46,-193.5 978.46,-174.5 903.46,-174.5"/>
<text text-anchor="middle" x="940.96" y="-181.5" font-family="Helvetica,sans-Serif" font-size="10.00">Eigen/Sparse</text>
</g>
<!-- Node29&#45;&gt;Node32 -->
<g id="edge44" class="edge"><title>Node29&#45;&gt;Node32</title>
<path fill="none" stroke="midnightblue" d="M740.291,-236.493C779.933,-228.092 841.357,-214.437 893.96,-200 897.754,-198.959 901.7,-197.808 905.621,-196.621"/>
<polygon fill="midnightblue" stroke="midnightblue" points="906.707,-199.949 915.216,-193.636 904.627,-193.264 906.707,-199.949"/>
</g>
<!-- Node33 -->
<g id="node33" class="node"><title>Node33</title>
<polygon fill="white" stroke="#bfbfbf" points="169.46,-174.5 169.46,-193.5 228.46,-193.5 228.46,-174.5 169.46,-174.5"/>
<text text-anchor="middle" x="198.96" y="-181.5" font-family="Helvetica,sans-Serif" font-size="10.00">functional</text>
</g>
<!-- Node29&#45;&gt;Node33 -->
<g id="edge45" class="edge"><title>Node29&#45;&gt;Node33</title>
<path fill="none" stroke="midnightblue" d="M627.412,-237.084C623.878,-236.713 620.379,-236.35 616.96,-236 448.194,-218.745 401.934,-239.535 236.96,-200 233.718,-199.223 230.386,-198.226 227.105,-197.115"/>
<polygon fill="midnightblue" stroke="midnightblue" points="228.156,-193.772 217.563,-193.551 225.706,-200.329 228.156,-193.772"/>
</g>
<!-- Node34 -->
<g id="node34" class="node"><title>Node34</title>
<polygon fill="white" stroke="#bfbfbf" points="246.46,-169 246.46,-199 379.46,-199 379.46,-169 246.46,-169"/>
<text text-anchor="start" x="254.46" y="-187" font-family="Helvetica,sans-Serif" font-size="10.00">unsupported/Eigen/Aligned</text>
<text text-anchor="middle" x="312.96" y="-176" font-family="Helvetica,sans-Serif" font-size="10.00">Vector3</text>
</g>
<!-- Node29&#45;&gt;Node34 -->
<g id="edge46" class="edge"><title>Node29&#45;&gt;Node34</title>
<path fill="none" stroke="midnightblue" d="M632.97,-236.498C572.184,-228.428 479.248,-215.491 389.643,-200.242"/>
<polygon fill="midnightblue" stroke="midnightblue" points="390.029,-196.757 379.581,-198.517 388.846,-203.656 390.029,-196.757"/>
</g>
<!-- Node35 -->
<g id="node35" class="node"><title>Node35</title>
<g id="a_node35"><a xlink:href="Math_8hpp.html" target="_top" xlink:title="Core/Math/Math.hpp">
<polygon fill="white" stroke="black" points="590.96,-174.5 590.96,-193.5 696.96,-193.5 696.96,-174.5 590.96,-174.5"/>
<text text-anchor="middle" x="643.96" y="-181.5" font-family="Helvetica,sans-Serif" font-size="10.00">Core/Math/Math.hpp</text>
</a>
</g>
</g>
<!-- Node29&#45;&gt;Node35 -->
<g id="edge47" class="edge"><title>Node29&#45;&gt;Node35</title>
<path fill="none" stroke="midnightblue" d="M691.08,-236.403C682.666,-227.225 669.14,-212.47 658.734,-201.117"/>
<polygon fill="midnightblue" stroke="midnightblue" points="661.163,-198.587 651.825,-193.581 656.002,-203.317 661.163,-198.587"/>
</g>
<!-- Node39 -->
<g id="node39" class="node"><title>Node39</title>
<g id="a_node39"><a xlink:href="LinearAlgebra_8inl.html" target="_top" xlink:title="Core/Math/LinearAlgebra.inl">
<polygon fill="white" stroke="black" points="397.46,-174.5 397.46,-193.5 534.46,-193.5 534.46,-174.5 397.46,-174.5"/>
<text text-anchor="middle" x="465.96" y="-181.5" font-family="Helvetica,sans-Serif" font-size="10.00">Core/Math/LinearAlgebra.inl</text>
</a>
</g>
</g>
<!-- Node29&#45;&gt;Node39 -->
<g id="edge53" class="edge"><title>Node29&#45;&gt;Node39</title>
<path fill="none" stroke="midnightblue" d="M665.576,-236.403C624.398,-225.799 554.31,-207.751 509.091,-196.107"/>
<polygon fill="midnightblue" stroke="midnightblue" points="509.838,-192.685 499.281,-193.581 508.092,-199.464 509.838,-192.685"/>
</g>
<!-- Node35&#45;&gt;Node28 -->
<g id="edge48" class="edge"><title>Node35&#45;&gt;Node28</title>
<path fill="none" stroke="midnightblue" d="M618.743,-174.403C588.292,-164.022 536.911,-146.506 502.717,-134.849"/>
<polygon fill="midnightblue" stroke="midnightblue" points="503.724,-131.495 493.129,-131.581 501.465,-138.12 503.724,-131.495"/>
</g>
<!-- Node36 -->
<g id="node36" class="node"><title>Node36</title>
<polygon fill="white" stroke="#bfbfbf" points="711.96,-112.5 711.96,-131.5 767.96,-131.5 767.96,-112.5 711.96,-112.5"/>
<text text-anchor="middle" x="739.96" y="-119.5" font-family="Helvetica,sans-Serif" font-size="10.00">algorithm</text>
</g>
<!-- Node35&#45;&gt;Node36 -->
<g id="edge49" class="edge"><title>Node35&#45;&gt;Node36</title>
<path fill="none" stroke="midnightblue" d="M657.714,-174.403C673.326,-164.646 699.023,-148.585 717.542,-137.011"/>
<polygon fill="midnightblue" stroke="midnightblue" points="719.606,-139.849 726.231,-131.581 715.896,-133.913 719.606,-139.849"/>
</g>
<!-- Node37 -->
<g id="node37" class="node"><title>Node37</title>
<polygon fill="white" stroke="#bfbfbf" points="531.96,-112.5 531.96,-131.5 575.96,-131.5 575.96,-112.5 531.96,-112.5"/>
<text text-anchor="middle" x="553.96" y="-119.5" font-family="Helvetica,sans-Serif" font-size="10.00">cmath</text>
</g>
<!-- Node35&#45;&gt;Node37 -->
<g id="edge50" class="edge"><title>Node35&#45;&gt;Node37</title>
<path fill="none" stroke="midnightblue" d="M631.065,-174.403C616.496,-164.691 592.558,-148.732 575.214,-137.17"/>
<polygon fill="midnightblue" stroke="midnightblue" points="577.093,-134.215 566.831,-131.581 573.21,-140.04 577.093,-134.215"/>
</g>
<!-- Node38 -->
<g id="node38" class="node"><title>Node38</title>
<g id="a_node38"><a xlink:href="Math_8inl.html" target="_top" xlink:title="Core/Math/Math.inl">
<polygon fill="white" stroke="black" points="593.96,-112.5 593.96,-131.5 693.96,-131.5 693.96,-112.5 593.96,-112.5"/>
<text text-anchor="middle" x="643.96" y="-119.5" font-family="Helvetica,sans-Serif" font-size="10.00">Core/Math/Math.inl</text>
</a>
</g>
</g>
<!-- Node35&#45;&gt;Node38 -->
<g id="edge51" class="edge"><title>Node35&#45;&gt;Node38</title>
<path fill="none" stroke="midnightblue" d="M639.059,-174.403C637.228,-165.938 636.757,-152.728 637.645,-141.82"/>
<polygon fill="midnightblue" stroke="midnightblue" points="641.158,-141.966 639.063,-131.581 634.224,-141.006 641.158,-141.966"/>
</g>
<!-- Node38&#45;&gt;Node35 -->
<g id="edge52" class="edge"><title>Node38&#45;&gt;Node35</title>
<path fill="none" stroke="midnightblue" d="M648.857,-131.581C650.69,-140.04 651.163,-153.248 650.276,-164.16"/>
<polygon fill="midnightblue" stroke="midnightblue" points="646.763,-164.018 648.86,-174.403 653.697,-164.977 646.763,-164.018"/>
</g>
<!-- Node40&#45;&gt;Node25 -->
<g id="edge56" class="edge"><title>Node40&#45;&gt;Node25</title>
<path fill="none" stroke="midnightblue" d="M874.238,-236.437C903.665,-228.097 948.788,-214.576 986.96,-200 988.856,-199.276 990.798,-198.496 992.744,-197.687"/>
<polygon fill="midnightblue" stroke="midnightblue" points="994.556,-200.715 1002.32,-193.505 991.754,-194.3 994.556,-200.715"/>
</g>
<!-- Node40&#45;&gt;Node28 -->
<g id="edge55" class="edge"><title>Node40&#45;&gt;Node28</title>
<path fill="none" stroke="midnightblue" d="M788.419,-237.117C717.485,-226.631 600.411,-208.438 581.96,-200 561.569,-190.675 561.289,-180.914 542.96,-168 526.871,-156.665 507.849,-145.273 492.987,-136.787"/>
<polygon fill="midnightblue" stroke="midnightblue" points="494.325,-133.523 483.895,-131.66 490.887,-139.62 494.325,-133.523"/>
</g>
</g>
</svg>
