<?xml version="1.0" encoding="UTF-8" standalone="no"?>
<!DOCTYPE svg PUBLIC "-//W3C//DTD SVG 1.1//EN"
 "http://www.w3.org/Graphics/SVG/1.1/DTD/svg11.dtd">
<!-- Generated by graphviz version 2.36.0 (20140111.2315)
 -->
<!-- Title: /home/travis/build/STORM&#45;IRIT/Radium&#45;Engine/src/Core/Animation/Animation.hpp Pages: 1 -->
<svg width="1096pt" height="422pt"
 viewBox="0.00 0.00 1096.00 422.00" xmlns="http://www.w3.org/2000/svg" xmlns:xlink="http://www.w3.org/1999/xlink">
<g id="graph0" class="graph" transform="scale(1 1) rotate(0) translate(4 418)">
<title>/home/travis/build/STORM&#45;IRIT/Radium&#45;Engine/src/Core/Animation/Animation.hpp</title>
<polygon fill="white" stroke="none" points="-4,4 -4,-418 1092,-418 1092,4 -4,4"/>
<!-- Node1 -->
<g id="node1" class="node"><title>Node1</title>
<polygon fill="#bfbfbf" stroke="black" points="918.5,-372.5 918.5,-413.5 1087.5,-413.5 1087.5,-372.5 918.5,-372.5"/>
<text text-anchor="start" x="926.5" y="-401.5" font-family="Helvetica,sans-Serif" font-size="10.00">/home/travis/build</text>
<text text-anchor="start" x="926.5" y="-390.5" font-family="Helvetica,sans-Serif" font-size="10.00">/STORM&#45;IRIT/Radium&#45;Engine</text>
<text text-anchor="middle" x="1003" y="-379.5" font-family="Helvetica,sans-Serif" font-size="10.00">/src/Core/Animation/Animation.hpp</text>
</g>
<!-- Node2 -->
<g id="node2" class="node"><title>Node2</title>
<g id="a_node2"><a xlink:href="Pose_8hpp.html" target="_top" xlink:title="Core/Animation/Pose\l/Pose.hpp">
<polygon fill="white" stroke="black" points="900,-305 900,-335 1010,-335 1010,-305 900,-305"/>
<text text-anchor="start" x="908" y="-323" font-family="Helvetica,sans-Serif" font-size="10.00">Core/Animation/Pose</text>
<text text-anchor="middle" x="955" y="-312" font-family="Helvetica,sans-Serif" font-size="10.00">/Pose.hpp</text>
</a>
</g>
</g>
<!-- Node1&#45;&gt;Node2 -->
<g id="edge1" class="edge"><title>Node1&#45;&gt;Node2</title>
<path fill="none" stroke="midnightblue" d="M989.629,-372.223C983.575,-363.267 976.39,-352.639 970.138,-343.392"/>
<polygon fill="midnightblue" stroke="midnightblue" points="972.998,-341.373 964.498,-335.049 967.199,-345.293 972.998,-341.373"/>
</g>
<!-- Node12 -->
<g id="node12" class="node"><title>Node12</title>
<polygon fill="white" stroke="#bfbfbf" points="1030,-174.5 1030,-193.5 1074,-193.5 1074,-174.5 1030,-174.5"/>
<text text-anchor="middle" x="1052" y="-181.5" font-family="Helvetica,sans-Serif" font-size="10.00">vector</text>
</g>
<!-- Node1&#45;&gt;Node12 -->
<g id="edge26" class="edge"><title>Node1&#45;&gt;Node12</title>
<path fill="none" stroke="midnightblue" d="M1008.93,-372.385C1012.09,-361.677 1015.94,-348.158 1019,-336 1030.92,-288.658 1042.57,-232.341 1048.31,-203.717"/>
<polygon fill="midnightblue" stroke="midnightblue" points="1051.81,-204.049 1050.33,-193.558 1044.94,-202.683 1051.81,-204.049"/>
</g>
<!-- Node3 -->
<g id="node3" class="node"><title>Node3</title>
<g id="a_node3"><a xlink:href="AlignedStdVector_8hpp.html" target="_top" xlink:title="Core/Containers/AlignedStd\lVector.hpp">
<polygon fill="white" stroke="black" points="886,-237 886,-267 1024,-267 1024,-237 886,-237"/>
<text text-anchor="start" x="894" y="-255" font-family="Helvetica,sans-Serif" font-size="10.00">Core/Containers/AlignedStd</text>
<text text-anchor="middle" x="955" y="-244" font-family="Helvetica,sans-Serif" font-size="10.00">Vector.hpp</text>
</a>
</g>
</g>
<!-- Node2&#45;&gt;Node3 -->
<g id="edge2" class="edge"><title>Node2&#45;&gt;Node3</title>
<path fill="none" stroke="midnightblue" d="M955,-304.679C955,-296.722 955,-286.605 955,-277.436"/>
<polygon fill="midnightblue" stroke="midnightblue" points="958.5,-277.293 955,-267.293 951.5,-277.293 958.5,-277.293"/>
</g>
<!-- Node13 -->
<g id="node13" class="node"><title>Node13</title>
<g id="a_node13"><a xlink:href="LinearAlgebra_8hpp.html" target="_top" xlink:title="Core/Math/LinearAlgebra.hpp">
<polygon fill="white" stroke="black" points="422.5,-242.5 422.5,-261.5 565.5,-261.5 565.5,-242.5 422.5,-242.5"/>
<text text-anchor="middle" x="494" y="-249.5" font-family="Helvetica,sans-Serif" font-size="10.00">Core/Math/LinearAlgebra.hpp</text>
</a>
</g>
</g>
<!-- Node2&#45;&gt;Node13 -->
<g id="edge12" class="edge"><title>Node2&#45;&gt;Node13</title>
<path fill="none" stroke="midnightblue" d="M899.851,-311.104C815.77,-299.067 655.616,-276.138 563.632,-262.969"/>
<polygon fill="midnightblue" stroke="midnightblue" points="563.977,-259.483 553.582,-261.53 562.985,-266.412 563.977,-259.483"/>
</g>
<!-- Node4 -->
<g id="node4" class="node"><title>Node4</title>
<g id="a_node4"><a xlink:href="RaCore_8hpp.html" target="_top" xlink:title="Core/RaCore.hpp">
<polygon fill="white" stroke="black" points="811.5,-112.5 811.5,-131.5 904.5,-131.5 904.5,-112.5 811.5,-112.5"/>
<text text-anchor="middle" x="858" y="-119.5" font-family="Helvetica,sans-Serif" font-size="10.00">Core/RaCore.hpp</text>
</a>
</g>
</g>
<!-- Node3&#45;&gt;Node4 -->
<g id="edge3" class="edge"><title>Node3&#45;&gt;Node4</title>
<path fill="none" stroke="midnightblue" d="M966.645,-236.949C979.629,-219.474 996.959,-189.343 982,-168 966.624,-146.063 939.411,-134.778 914.388,-128.991"/>
<polygon fill="midnightblue" stroke="midnightblue" points="915.073,-125.559 904.572,-126.965 913.658,-132.414 915.073,-125.559"/>
</g>
<!-- Node11 -->
<g id="node11" class="node"><title>Node11</title>
<polygon fill="white" stroke="#bfbfbf" points="886,-174.5 886,-193.5 974,-193.5 974,-174.5 886,-174.5"/>
<text text-anchor="middle" x="930" y="-181.5" font-family="Helvetica,sans-Serif" font-size="10.00">Eigen/StdVector</text>
</g>
<!-- Node3&#45;&gt;Node11 -->
<g id="edge10" class="edge"><title>Node3&#45;&gt;Node11</title>
<path fill="none" stroke="midnightblue" d="M949.575,-236.679C945.87,-226.898 940.929,-213.852 936.937,-203.315"/>
<polygon fill="midnightblue" stroke="midnightblue" points="940.159,-201.94 933.344,-193.828 933.613,-204.42 940.159,-201.94"/>
</g>
<!-- Node3&#45;&gt;Node12 -->
<g id="edge11" class="edge"><title>Node3&#45;&gt;Node12</title>
<path fill="none" stroke="midnightblue" d="M976.048,-236.679C992.314,-225.611 1014.72,-210.363 1030.98,-199.3"/>
<polygon fill="midnightblue" stroke="midnightblue" points="1033.01,-202.157 1039.3,-193.638 1029.07,-196.37 1033.01,-202.157"/>
</g>
<!-- Node5 -->
<g id="node5" class="node"><title>Node5</title>
<g id="a_node5"><a xlink:href="CoreMacros_8hpp.html" target="_top" xlink:title="Core/CoreMacros.hpp">
<polygon fill="white" stroke="black" points="801.5,-56.5 801.5,-75.5 914.5,-75.5 914.5,-56.5 801.5,-56.5"/>
<text text-anchor="middle" x="858" y="-63.5" font-family="Helvetica,sans-Serif" font-size="10.00">Core/CoreMacros.hpp</text>
</a>
</g>
</g>
<!-- Node4&#45;&gt;Node5 -->
<g id="edge4" class="edge"><title>Node4&#45;&gt;Node5</title>
<path fill="none" stroke="midnightblue" d="M858,-112.083C858,-105.006 858,-94.8611 858,-85.9865"/>
<polygon fill="midnightblue" stroke="midnightblue" points="861.5,-85.751 858,-75.7511 854.5,-85.7511 861.5,-85.751"/>
</g>
<!-- Node6 -->
<g id="node6" class="node"><title>Node6</title>
<polygon fill="white" stroke="#bfbfbf" points="702.5,-0.5 702.5,-19.5 751.5,-19.5 751.5,-0.5 702.5,-0.5"/>
<text text-anchor="middle" x="727" y="-7.5" font-family="Helvetica,sans-Serif" font-size="10.00">cassert</text>
</g>
<!-- Node5&#45;&gt;Node6 -->
<g id="edge5" class="edge"><title>Node5&#45;&gt;Node6</title>
<path fill="none" stroke="midnightblue" d="M837.243,-56.4435C815.684,-47.5566 781.737,-33.5632 757.206,-23.4514"/>
<polygon fill="midnightblue" stroke="midnightblue" points="758.239,-20.0917 747.66,-19.5164 755.572,-26.5634 758.239,-20.0917"/>
</g>
<!-- Node7 -->
<g id="node7" class="node"><title>Node7</title>
<polygon fill="white" stroke="#bfbfbf" points="769.5,-0.5 769.5,-19.5 812.5,-19.5 812.5,-0.5 769.5,-0.5"/>
<text text-anchor="middle" x="791" y="-7.5" font-family="Helvetica,sans-Serif" font-size="10.00">cstdio</text>
</g>
<!-- Node5&#45;&gt;Node7 -->
<g id="edge6" class="edge"><title>Node5&#45;&gt;Node7</title>
<path fill="none" stroke="midnightblue" d="M847.235,-56.324C837.234,-48.2631 822.113,-36.0765 810.07,-26.3695"/>
<polygon fill="midnightblue" stroke="midnightblue" points="811.943,-23.3841 801.961,-19.8339 807.55,-28.8343 811.943,-23.3841"/>
</g>
<!-- Node8 -->
<g id="node8" class="node"><title>Node8</title>
<polygon fill="white" stroke="#bfbfbf" points="831,-0.5 831,-19.5 885,-19.5 885,-0.5 831,-0.5"/>
<text text-anchor="middle" x="858" y="-7.5" font-family="Helvetica,sans-Serif" font-size="10.00">iostream</text>
</g>
<!-- Node5&#45;&gt;Node8 -->
<g id="edge7" class="edge"><title>Node5&#45;&gt;Node8</title>
<path fill="none" stroke="midnightblue" d="M858,-56.083C858,-49.0059 858,-38.8611 858,-29.9865"/>
<polygon fill="midnightblue" stroke="midnightblue" points="861.5,-29.751 858,-19.7511 854.5,-29.7511 861.5,-29.751"/>
</g>
<!-- Node9 -->
<g id="node9" class="node"><title>Node9</title>
<polygon fill="white" stroke="#bfbfbf" points="903,-0.5 903,-19.5 955,-19.5 955,-0.5 903,-0.5"/>
<text text-anchor="middle" x="929" y="-7.5" font-family="Helvetica,sans-Serif" font-size="10.00">sstream</text>
</g>
<!-- Node5&#45;&gt;Node9 -->
<g id="edge8" class="edge"><title>Node5&#45;&gt;Node9</title>
<path fill="none" stroke="midnightblue" d="M869.407,-56.324C880.109,-48.1849 896.341,-35.8395 909.163,-26.0874"/>
<polygon fill="midnightblue" stroke="midnightblue" points="911.544,-28.6734 917.385,-19.8339 907.307,-23.1018 911.544,-28.6734"/>
</g>
<!-- Node10 -->
<g id="node10" class="node"><title>Node10</title>
<polygon fill="white" stroke="#bfbfbf" points="973,-0.5 973,-19.5 1017,-19.5 1017,-0.5 973,-0.5"/>
<text text-anchor="middle" x="995" y="-7.5" font-family="Helvetica,sans-Serif" font-size="10.00">thread</text>
</g>
<!-- Node5&#45;&gt;Node10 -->
<g id="edge9" class="edge"><title>Node5&#45;&gt;Node10</title>
<path fill="none" stroke="midnightblue" d="M879.708,-56.4435C902.355,-47.5171 938.072,-33.4387 963.752,-23.3168"/>
<polygon fill="midnightblue" stroke="midnightblue" points="965.374,-26.4397 973.394,-19.5164 962.807,-19.9273 965.374,-26.4397"/>
</g>
<!-- Node13&#45;&gt;Node4 -->
<g id="edge13" class="edge"><title>Node13&#45;&gt;Node4</title>
<path fill="none" stroke="midnightblue" d="M565.629,-249.444C654.465,-246.017 798.983,-235.053 838,-200 854.259,-185.393 858.059,-159.421 858.591,-141.717"/>
<polygon fill="midnightblue" stroke="midnightblue" points="862.091,-141.702 858.574,-131.708 855.091,-141.714 862.091,-141.702"/>
</g>
<!-- Node14 -->
<g id="node14" class="node"><title>Node14</title>
<polygon fill="white" stroke="#bfbfbf" points="183.5,-174.5 183.5,-193.5 248.5,-193.5 248.5,-174.5 183.5,-174.5"/>
<text text-anchor="middle" x="216" y="-181.5" font-family="Helvetica,sans-Serif" font-size="10.00">Eigen/Core</text>
</g>
<!-- Node13&#45;&gt;Node14 -->
<g id="edge14" class="edge"><title>Node13&#45;&gt;Node14</title>
<path fill="none" stroke="midnightblue" d="M444.483,-242.418C396.189,-233.563 320.884,-218.463 257,-200 253.796,-199.074 250.482,-198.023 247.191,-196.918"/>
<polygon fill="midnightblue" stroke="midnightblue" points="248.113,-193.532 237.518,-193.509 245.786,-200.134 248.113,-193.532"/>
</g>
<!-- Node15 -->
<g id="node15" class="node"><title>Node15</title>
<polygon fill="white" stroke="#bfbfbf" points="266.5,-174.5 266.5,-193.5 353.5,-193.5 353.5,-174.5 266.5,-174.5"/>
<text text-anchor="middle" x="310" y="-181.5" font-family="Helvetica,sans-Serif" font-size="10.00">Eigen/Geometry</text>
</g>
<!-- Node13&#45;&gt;Node15 -->
<g id="edge15" class="edge"><title>Node13&#45;&gt;Node15</title>
<path fill="none" stroke="midnightblue" d="M469.945,-242.372C437.623,-230.778 380.021,-210.116 343.479,-197.009"/>
<polygon fill="midnightblue" stroke="midnightblue" points="344.364,-193.608 333.769,-193.526 342,-200.197 344.364,-193.608"/>
</g>
<!-- Node16 -->
<g id="node16" class="node"><title>Node16</title>
<polygon fill="white" stroke="#bfbfbf" points="371.5,-174.5 371.5,-193.5 446.5,-193.5 446.5,-174.5 371.5,-174.5"/>
<text text-anchor="middle" x="409" y="-181.5" font-family="Helvetica,sans-Serif" font-size="10.00">Eigen/Sparse</text>
</g>
<!-- Node13&#45;&gt;Node16 -->
<g id="edge16" class="edge"><title>Node13&#45;&gt;Node16</title>
<path fill="none" stroke="midnightblue" d="M482.888,-242.372C469.016,-231.6 445.063,-213.002 428.198,-199.906"/>
<polygon fill="midnightblue" stroke="midnightblue" points="430.16,-196.999 420.115,-193.63 425.867,-202.528 430.16,-196.999"/>
</g>
<!-- Node17 -->
<g id="node17" class="node"><title>Node17</title>
<polygon fill="white" stroke="#bfbfbf" points="464.5,-174.5 464.5,-193.5 523.5,-193.5 523.5,-174.5 464.5,-174.5"/>
<text text-anchor="middle" x="494" y="-181.5" font-family="Helvetica,sans-Serif" font-size="10.00">functional</text>
</g>
<!-- Node13&#45;&gt;Node17 -->
<g id="edge17" class="edge"><title>Node13&#45;&gt;Node17</title>
<path fill="none" stroke="midnightblue" d="M494,-242.372C494,-232.643 494,-216.528 494,-203.85"/>
<polygon fill="midnightblue" stroke="midnightblue" points="497.5,-203.841 494,-193.841 490.5,-203.841 497.5,-203.841"/>
</g>
<!-- Node18 -->
<g id="node18" class="node"><title>Node18</title>
<polygon fill="white" stroke="#bfbfbf" points="541.5,-169 541.5,-199 674.5,-199 674.5,-169 541.5,-169"/>
<text text-anchor="start" x="549.5" y="-187" font-family="Helvetica,sans-Serif" font-size="10.00">unsupported/Eigen/Aligned</text>
<text text-anchor="middle" x="608" y="-176" font-family="Helvetica,sans-Serif" font-size="10.00">Vector3</text>
</g>
<!-- Node13&#45;&gt;Node18 -->
<g id="edge18" class="edge"><title>Node13&#45;&gt;Node18</title>
<path fill="none" stroke="midnightblue" d="M508.904,-242.372C525.486,-232.771 552.807,-216.954 574.567,-204.356"/>
<polygon fill="midnightblue" stroke="midnightblue" points="576.604,-207.221 583.505,-199.181 573.097,-201.163 576.604,-207.221"/>
</g>
<!-- Node19 -->
<g id="node19" class="node"><title>Node19</title>
<g id="a_node19"><a xlink:href="Math_8hpp.html" target="_top" xlink:title="Core/Math/Math.hpp">
<polygon fill="white" stroke="black" points="59,-174.5 59,-193.5 165,-193.5 165,-174.5 59,-174.5"/>
<text text-anchor="middle" x="112" y="-181.5" font-family="Helvetica,sans-Serif" font-size="10.00">Core/Math/Math.hpp</text>
</a>
</g>
</g>
<!-- Node13&#45;&gt;Node19 -->
<g id="edge19" class="edge"><title>Node13&#45;&gt;Node19</title>
<path fill="none" stroke="midnightblue" d="M431.194,-242.493C366.48,-233.376 262.809,-217.791 174,-200 167.8,-198.758 161.282,-197.324 154.896,-195.845"/>
<polygon fill="midnightblue" stroke="midnightblue" points="155.572,-192.408 145.034,-193.506 153.956,-199.22 155.572,-192.408"/>
</g>
<!-- Node23 -->
<g id="node23" class="node"><title>Node23</title>
<g id="a_node23"><a xlink:href="LinearAlgebra_8inl.html" target="_top" xlink:title="Core/Math/LinearAlgebra.inl">
<polygon fill="white" stroke="black" points="692.5,-174.5 692.5,-193.5 829.5,-193.5 829.5,-174.5 692.5,-174.5"/>
<text text-anchor="middle" x="761" y="-181.5" font-family="Helvetica,sans-Serif" font-size="10.00">Core/Math/LinearAlgebra.inl</text>
</a>
</g>
</g>
<!-- Node13&#45;&gt;Node23 -->
<g id="edge25" class="edge"><title>Node13&#45;&gt;Node23</title>
<path fill="none" stroke="midnightblue" d="M528.632,-242.439C576.75,-230.545 663.856,-209.013 716.666,-195.959"/>
<polygon fill="midnightblue" stroke="midnightblue" points="717.562,-199.343 726.43,-193.546 715.882,-192.548 717.562,-199.343"/>
</g>
<!-- Node19&#45;&gt;Node4 -->
<g id="edge20" class="edge"><title>Node19&#45;&gt;Node4</title>
<path fill="none" stroke="midnightblue" d="M142.698,-174.47C152.617,-172.011 163.709,-169.571 174,-168 404.677,-132.774 683.266,-125.11 801.039,-123.452"/>
<polygon fill="midnightblue" stroke="midnightblue" points="801.304,-126.949 811.257,-123.318 801.212,-119.95 801.304,-126.949"/>
</g>
<!-- Node20 -->
<g id="node20" class="node"><title>Node20</title>
<polygon fill="white" stroke="#bfbfbf" points="180,-112.5 180,-131.5 236,-131.5 236,-112.5 180,-112.5"/>
<text text-anchor="middle" x="208" y="-119.5" font-family="Helvetica,sans-Serif" font-size="10.00">algorithm</text>
</g>
<!-- Node19&#45;&gt;Node20 -->
<g id="edge21" class="edge"><title>Node19&#45;&gt;Node20</title>
<path fill="none" stroke="midnightblue" d="M125.754,-174.403C141.366,-164.646 167.063,-148.585 185.583,-137.011"/>
<polygon fill="midnightblue" stroke="midnightblue" points="187.646,-139.849 194.271,-131.581 183.936,-133.913 187.646,-139.849"/>
</g>
<!-- Node21 -->
<g id="node21" class="node"><title>Node21</title>
<polygon fill="white" stroke="#bfbfbf" points="0,-112.5 0,-131.5 44,-131.5 44,-112.5 0,-112.5"/>
<text text-anchor="middle" x="22" y="-119.5" font-family="Helvetica,sans-Serif" font-size="10.00">cmath</text>
</g>
<!-- Node19&#45;&gt;Node21 -->
<g id="edge22" class="edge"><title>Node19&#45;&gt;Node21</title>
<path fill="none" stroke="midnightblue" d="M99.1052,-174.403C84.5358,-164.691 60.5978,-148.732 43.2546,-137.17"/>
<polygon fill="midnightblue" stroke="midnightblue" points="45.1329,-134.215 34.8709,-131.581 41.2499,-140.04 45.1329,-134.215"/>
</g>
<!-- Node22 -->
<g id="node22" class="node"><title>Node22</title>
<g id="a_node22"><a xlink:href="Math_8inl.html" target="_top" xlink:title="Core/Math/Math.inl">
<polygon fill="white" stroke="black" points="62,-112.5 62,-131.5 162,-131.5 162,-112.5 62,-112.5"/>
<text text-anchor="middle" x="112" y="-119.5" font-family="Helvetica,sans-Serif" font-size="10.00">Core/Math/Math.inl</text>
</a>
</g>
</g>
<!-- Node19&#45;&gt;Node22 -->
<g id="edge23" class="edge"><title>Node19&#45;&gt;Node22</title>
<path fill="none" stroke="midnightblue" d="M107.099,-174.403C105.268,-165.938 104.797,-152.728 105.685,-141.82"/>
<polygon fill="midnightblue" stroke="midnightblue" points="109.198,-141.966 107.103,-131.581 102.264,-141.006 109.198,-141.966"/>
</g>
<!-- Node22&#45;&gt;Node19 -->
<g id="edge24" class="edge"><title>Node22&#45;&gt;Node19</title>
<path fill="none" stroke="midnightblue" d="M116.897,-131.581C118.73,-140.04 119.203,-153.248 118.317,-164.16"/>
<polygon fill="midnightblue" stroke="midnightblue" points="114.803,-164.018 116.901,-174.403 121.737,-164.977 114.803,-164.018"/>
</g>
</g>
</svg>
