<?xml version="1.0" encoding="UTF-8" standalone="no"?>
<!DOCTYPE svg PUBLIC "-//W3C//DTD SVG 1.1//EN"
 "http://www.w3.org/Graphics/SVG/1.1/DTD/svg11.dtd">
<!-- Generated by graphviz version 2.36.0 (20140111.2315)
 -->
<!-- Title: /home/travis/build/STORM&#45;IRIT/Radium&#45;Engine/src/Core/Geometry/Area/Area.hpp Pages: 1 -->
<svg width="1280pt" height="422pt"
 viewBox="0.00 0.00 1280.00 422.00" xmlns="http://www.w3.org/2000/svg" xmlns:xlink="http://www.w3.org/1999/xlink">
<g id="graph0" class="graph" transform="scale(1 1) rotate(0) translate(4 418)">
<title>/home/travis/build/STORM&#45;IRIT/Radium&#45;Engine/src/Core/Geometry/Area/Area.hpp</title>
<polygon fill="white" stroke="none" points="-4,4 -4,-418 1276,-418 1276,4 -4,4"/>
<!-- Node1 -->
<g id="node1" class="node"><title>Node1</title>
<polygon fill="#bfbfbf" stroke="black" points="540,-361 540,-413 688,-413 688,-361 540,-361"/>
<text text-anchor="start" x="548" y="-401" font-family="Helvetica,sans-Serif" font-size="10.00">/home/travis/build</text>
<text text-anchor="start" x="548" y="-390" font-family="Helvetica,sans-Serif" font-size="10.00">/STORM&#45;IRIT/Radium&#45;Engine</text>
<text text-anchor="start" x="548" y="-379" font-family="Helvetica,sans-Serif" font-size="10.00">/src/Core/Geometry/Area</text>
<text text-anchor="middle" x="614" y="-368" font-family="Helvetica,sans-Serif" font-size="10.00">/Area.hpp</text>
</g>
<!-- Node2 -->
<g id="node2" class="node"><title>Node2</title>
<g id="a_node2"><a xlink:href="VectorArray_8hpp.html" target="_top" xlink:title="Core/Containers/VectorArray.hpp">
<polygon fill="white" stroke="black" points="135.5,-304.5 135.5,-323.5 296.5,-323.5 296.5,-304.5 135.5,-304.5"/>
<text text-anchor="middle" x="216" y="-311.5" font-family="Helvetica,sans-Serif" font-size="10.00">Core/Containers/VectorArray.hpp</text>
</a>
</g>
</g>
<!-- Node1&#45;&gt;Node2 -->
<g id="edge1" class="edge"><title>Node1&#45;&gt;Node2</title>
<path fill="none" stroke="midnightblue" d="M539.606,-372.729C462.62,-358.995 344.002,-337.835 273.782,-325.308"/>
<polygon fill="midnightblue" stroke="midnightblue" points="274.243,-321.835 263.783,-323.524 273.013,-328.726 274.243,-321.835"/>
</g>
<!-- Node13 -->
<g id="node13" class="node"><title>Node13</title>
<g id="a_node13"><a xlink:href="LinearAlgebra_8hpp.html" target="_top" xlink:title="Core/Math/LinearAlgebra.hpp">
<polygon fill="white" stroke="black" points="542.5,-242.5 542.5,-261.5 685.5,-261.5 685.5,-242.5 542.5,-242.5"/>
<text text-anchor="middle" x="614" y="-249.5" font-family="Helvetica,sans-Serif" font-size="10.00">Core/Math/LinearAlgebra.hpp</text>
</a>
</g>
</g>
<!-- Node1&#45;&gt;Node13 -->
<g id="edge28" class="edge"><title>Node1&#45;&gt;Node13</title>
<path fill="none" stroke="midnightblue" d="M614,-360.984C614,-335.106 614,-295.274 614,-271.909"/>
<polygon fill="midnightblue" stroke="midnightblue" points="617.5,-271.622 614,-261.622 610.5,-271.622 617.5,-271.622"/>
</g>
<!-- Node24 -->
<g id="node24" class="node"><title>Node24</title>
<g id="a_node24"><a xlink:href="MeshTypes_8hpp.html" target="_top" xlink:title="Core/Mesh/MeshTypes.hpp">
<polygon fill="white" stroke="black" points="765.5,-304.5 765.5,-323.5 902.5,-323.5 902.5,-304.5 765.5,-304.5"/>
<text text-anchor="middle" x="834" y="-311.5" font-family="Helvetica,sans-Serif" font-size="10.00">Core/Mesh/MeshTypes.hpp</text>
</a>
</g>
</g>
<!-- Node1&#45;&gt;Node24 -->
<g id="edge29" class="edge"><title>Node1&#45;&gt;Node24</title>
<path fill="none" stroke="midnightblue" d="M688.175,-362.062C725.16,-350.126 768.209,-336.232 797.898,-326.651"/>
<polygon fill="midnightblue" stroke="midnightblue" points="798.984,-329.978 807.426,-323.576 796.834,-323.317 798.984,-329.978"/>
</g>
<!-- Node3 -->
<g id="node3" class="node"><title>Node3</title>
<g id="a_node3"><a xlink:href="AlignedStdVector_8hpp.html" target="_top" xlink:title="Core/Containers/AlignedStd\lVector.hpp">
<polygon fill="white" stroke="black" points="12,-237 12,-267 150,-267 150,-237 12,-237"/>
<text text-anchor="start" x="20" y="-255" font-family="Helvetica,sans-Serif" font-size="10.00">Core/Containers/AlignedStd</text>
<text text-anchor="middle" x="81" y="-244" font-family="Helvetica,sans-Serif" font-size="10.00">Vector.hpp</text>
</a>
</g>
</g>
<!-- Node2&#45;&gt;Node3 -->
<g id="edge2" class="edge"><title>Node2&#45;&gt;Node3</title>
<path fill="none" stroke="midnightblue" d="M196.658,-304.403C177.199,-295.755 146.598,-282.155 121.759,-271.115"/>
<polygon fill="midnightblue" stroke="midnightblue" points="123.117,-267.888 112.557,-267.025 120.274,-274.285 123.117,-267.888"/>
</g>
<!-- Node4 -->
<g id="node4" class="node"><title>Node4</title>
<g id="a_node4"><a xlink:href="RaCore_8hpp.html" target="_top" xlink:title="Core/RaCore.hpp">
<polygon fill="white" stroke="black" points="363.5,-112.5 363.5,-131.5 456.5,-131.5 456.5,-112.5 363.5,-112.5"/>
<text text-anchor="middle" x="410" y="-119.5" font-family="Helvetica,sans-Serif" font-size="10.00">Core/RaCore.hpp</text>
</a>
</g>
</g>
<!-- Node2&#45;&gt;Node4 -->
<g id="edge26" class="edge"><title>Node2&#45;&gt;Node4</title>
<path fill="none" stroke="midnightblue" d="M214.129,-304.15C209.42,-279.233 199.824,-207.728 235,-168 250.66,-150.313 308.465,-137.862 353.405,-130.608"/>
<polygon fill="midnightblue" stroke="midnightblue" points="354.018,-134.055 363.357,-129.051 352.936,-127.139 354.018,-134.055"/>
</g>
<!-- Node12 -->
<g id="node12" class="node"><title>Node12</title>
<polygon fill="white" stroke="#bfbfbf" points="144,-174.5 144,-193.5 188,-193.5 188,-174.5 144,-174.5"/>
<text text-anchor="middle" x="166" y="-181.5" font-family="Helvetica,sans-Serif" font-size="10.00">vector</text>
</g>
<!-- Node2&#45;&gt;Node12 -->
<g id="edge27" class="edge"><title>Node2&#45;&gt;Node12</title>
<path fill="none" stroke="midnightblue" d="M212.563,-304.202C204.425,-283.367 183.844,-230.681 172.974,-202.852"/>
<polygon fill="midnightblue" stroke="midnightblue" points="176.228,-201.564 169.329,-193.522 169.708,-204.111 176.228,-201.564"/>
</g>
<!-- Node2&#45;&gt;Node13 -->
<g id="edge12" class="edge"><title>Node2&#45;&gt;Node13</title>
<path fill="none" stroke="midnightblue" d="M272.601,-304.467C345.103,-293.537 470.564,-274.624 547.53,-263.021"/>
<polygon fill="midnightblue" stroke="midnightblue" points="548.228,-266.455 557.594,-261.503 547.184,-259.533 548.228,-266.455"/>
</g>
<!-- Node3&#45;&gt;Node4 -->
<g id="edge3" class="edge"><title>Node3&#45;&gt;Node4</title>
<path fill="none" stroke="midnightblue" d="M85.973,-236.916C93.4575,-217.939 109.516,-184.627 135,-168 170.022,-145.15 283.15,-132.64 352.924,-126.925"/>
<polygon fill="midnightblue" stroke="midnightblue" points="353.62,-130.381 363.31,-126.098 353.064,-123.403 353.62,-130.381"/>
</g>
<!-- Node11 -->
<g id="node11" class="node"><title>Node11</title>
<polygon fill="white" stroke="#bfbfbf" points="0,-174.5 0,-193.5 88,-193.5 88,-174.5 0,-174.5"/>
<text text-anchor="middle" x="44" y="-181.5" font-family="Helvetica,sans-Serif" font-size="10.00">Eigen/StdVector</text>
</g>
<!-- Node3&#45;&gt;Node11 -->
<g id="edge10" class="edge"><title>Node3&#45;&gt;Node11</title>
<path fill="none" stroke="midnightblue" d="M72.9716,-236.679C67.3738,-226.694 59.8689,-213.307 53.9001,-202.66"/>
<polygon fill="midnightblue" stroke="midnightblue" points="56.8923,-200.84 48.9492,-193.828 50.7863,-204.263 56.8923,-200.84"/>
</g>
<!-- Node3&#45;&gt;Node12 -->
<g id="edge11" class="edge"><title>Node3&#45;&gt;Node12</title>
<path fill="none" stroke="midnightblue" d="M99.4437,-236.679C113.353,-225.879 132.389,-211.098 146.54,-200.11"/>
<polygon fill="midnightblue" stroke="midnightblue" points="148.878,-202.726 154.63,-193.828 144.585,-197.197 148.878,-202.726"/>
</g>
<!-- Node5 -->
<g id="node5" class="node"><title>Node5</title>
<g id="a_node5"><a xlink:href="CoreMacros_8hpp.html" target="_top" xlink:title="Core/CoreMacros.hpp">
<polygon fill="white" stroke="black" points="353.5,-56.5 353.5,-75.5 466.5,-75.5 466.5,-56.5 353.5,-56.5"/>
<text text-anchor="middle" x="410" y="-63.5" font-family="Helvetica,sans-Serif" font-size="10.00">Core/CoreMacros.hpp</text>
</a>
</g>
</g>
<!-- Node4&#45;&gt;Node5 -->
<g id="edge4" class="edge"><title>Node4&#45;&gt;Node5</title>
<path fill="none" stroke="midnightblue" d="M410,-112.083C410,-105.006 410,-94.8611 410,-85.9865"/>
<polygon fill="midnightblue" stroke="midnightblue" points="413.5,-85.751 410,-75.7511 406.5,-85.7511 413.5,-85.751"/>
</g>
<!-- Node6 -->
<g id="node6" class="node"><title>Node6</title>
<polygon fill="white" stroke="#bfbfbf" points="254.5,-0.5 254.5,-19.5 303.5,-19.5 303.5,-0.5 254.5,-0.5"/>
<text text-anchor="middle" x="279" y="-7.5" font-family="Helvetica,sans-Serif" font-size="10.00">cassert</text>
</g>
<!-- Node5&#45;&gt;Node6 -->
<g id="edge5" class="edge"><title>Node5&#45;&gt;Node6</title>
<path fill="none" stroke="midnightblue" d="M389.243,-56.4435C367.684,-47.5566 333.737,-33.5632 309.206,-23.4514"/>
<polygon fill="midnightblue" stroke="midnightblue" points="310.239,-20.0917 299.66,-19.5164 307.572,-26.5634 310.239,-20.0917"/>
</g>
<!-- Node7 -->
<g id="node7" class="node"><title>Node7</title>
<polygon fill="white" stroke="#bfbfbf" points="321.5,-0.5 321.5,-19.5 364.5,-19.5 364.5,-0.5 321.5,-0.5"/>
<text text-anchor="middle" x="343" y="-7.5" font-family="Helvetica,sans-Serif" font-size="10.00">cstdio</text>
</g>
<!-- Node5&#45;&gt;Node7 -->
<g id="edge6" class="edge"><title>Node5&#45;&gt;Node7</title>
<path fill="none" stroke="midnightblue" d="M399.235,-56.324C389.234,-48.2631 374.113,-36.0765 362.07,-26.3695"/>
<polygon fill="midnightblue" stroke="midnightblue" points="363.943,-23.3841 353.961,-19.8339 359.55,-28.8343 363.943,-23.3841"/>
</g>
<!-- Node8 -->
<g id="node8" class="node"><title>Node8</title>
<polygon fill="white" stroke="#bfbfbf" points="383,-0.5 383,-19.5 437,-19.5 437,-0.5 383,-0.5"/>
<text text-anchor="middle" x="410" y="-7.5" font-family="Helvetica,sans-Serif" font-size="10.00">iostream</text>
</g>
<!-- Node5&#45;&gt;Node8 -->
<g id="edge7" class="edge"><title>Node5&#45;&gt;Node8</title>
<path fill="none" stroke="midnightblue" d="M410,-56.083C410,-49.0059 410,-38.8611 410,-29.9865"/>
<polygon fill="midnightblue" stroke="midnightblue" points="413.5,-29.751 410,-19.7511 406.5,-29.7511 413.5,-29.751"/>
</g>
<!-- Node9 -->
<g id="node9" class="node"><title>Node9</title>
<polygon fill="white" stroke="#bfbfbf" points="455,-0.5 455,-19.5 507,-19.5 507,-0.5 455,-0.5"/>
<text text-anchor="middle" x="481" y="-7.5" font-family="Helvetica,sans-Serif" font-size="10.00">sstream</text>
</g>
<!-- Node5&#45;&gt;Node9 -->
<g id="edge8" class="edge"><title>Node5&#45;&gt;Node9</title>
<path fill="none" stroke="midnightblue" d="M421.407,-56.324C432.109,-48.1849 448.341,-35.8395 461.163,-26.0874"/>
<polygon fill="midnightblue" stroke="midnightblue" points="463.544,-28.6734 469.385,-19.8339 459.307,-23.1018 463.544,-28.6734"/>
</g>
<!-- Node10 -->
<g id="node10" class="node"><title>Node10</title>
<polygon fill="white" stroke="#bfbfbf" points="525,-0.5 525,-19.5 569,-19.5 569,-0.5 525,-0.5"/>
<text text-anchor="middle" x="547" y="-7.5" font-family="Helvetica,sans-Serif" font-size="10.00">thread</text>
</g>
<!-- Node5&#45;&gt;Node10 -->
<g id="edge9" class="edge"><title>Node5&#45;&gt;Node10</title>
<path fill="none" stroke="midnightblue" d="M431.708,-56.4435C454.355,-47.5171 490.072,-33.4387 515.752,-23.3168"/>
<polygon fill="midnightblue" stroke="midnightblue" points="517.374,-26.4397 525.394,-19.5164 514.807,-19.9273 517.374,-26.4397"/>
</g>
<!-- Node13&#45;&gt;Node4 -->
<g id="edge13" class="edge"><title>Node13&#45;&gt;Node4</title>
<path fill="none" stroke="midnightblue" d="M542.44,-248.237C503.912,-243.008 458.395,-230.202 429,-200 413.953,-184.54 410.208,-159.161 409.566,-141.796"/>
<polygon fill="midnightblue" stroke="midnightblue" points="413.066,-141.705 409.505,-131.726 406.066,-141.747 413.066,-141.705"/>
</g>
<!-- Node14 -->
<g id="node14" class="node"><title>Node14</title>
<polygon fill="white" stroke="#bfbfbf" points="438.5,-174.5 438.5,-193.5 503.5,-193.5 503.5,-174.5 438.5,-174.5"/>
<text text-anchor="middle" x="471" y="-181.5" font-family="Helvetica,sans-Serif" font-size="10.00">Eigen/Core</text>
</g>
<!-- Node13&#45;&gt;Node14 -->
<g id="edge14" class="edge"><title>Node13&#45;&gt;Node14</title>
<path fill="none" stroke="midnightblue" d="M595.305,-242.372C570.79,-231.057 527.562,-211.105 499.097,-197.968"/>
<polygon fill="midnightblue" stroke="midnightblue" points="500.246,-194.643 489.699,-193.63 497.312,-200.999 500.246,-194.643"/>
</g>
<!-- Node15 -->
<g id="node15" class="node"><title>Node15</title>
<polygon fill="white" stroke="#bfbfbf" points="521.5,-174.5 521.5,-193.5 608.5,-193.5 608.5,-174.5 521.5,-174.5"/>
<text text-anchor="middle" x="565" y="-181.5" font-family="Helvetica,sans-Serif" font-size="10.00">Eigen/Geometry</text>
</g>
<!-- Node13&#45;&gt;Node15 -->
<g id="edge15" class="edge"><title>Node13&#45;&gt;Node15</title>
<path fill="none" stroke="midnightblue" d="M607.594,-242.372C600.006,-232.151 587.187,-214.884 577.589,-201.957"/>
<polygon fill="midnightblue" stroke="midnightblue" points="580.335,-199.784 571.564,-193.841 574.715,-203.957 580.335,-199.784"/>
</g>
<!-- Node16 -->
<g id="node16" class="node"><title>Node16</title>
<polygon fill="white" stroke="#bfbfbf" points="626.5,-174.5 626.5,-193.5 701.5,-193.5 701.5,-174.5 626.5,-174.5"/>
<text text-anchor="middle" x="664" y="-181.5" font-family="Helvetica,sans-Serif" font-size="10.00">Eigen/Sparse</text>
</g>
<!-- Node13&#45;&gt;Node16 -->
<g id="edge16" class="edge"><title>Node13&#45;&gt;Node16</title>
<path fill="none" stroke="midnightblue" d="M620.537,-242.372C628.279,-232.151 641.361,-214.884 651.154,-201.957"/>
<polygon fill="midnightblue" stroke="midnightblue" points="654.053,-203.926 657.302,-193.841 648.474,-199.699 654.053,-203.926"/>
</g>
<!-- Node17 -->
<g id="node17" class="node"><title>Node17</title>
<polygon fill="white" stroke="#bfbfbf" points="719.5,-174.5 719.5,-193.5 778.5,-193.5 778.5,-174.5 719.5,-174.5"/>
<text text-anchor="middle" x="749" y="-181.5" font-family="Helvetica,sans-Serif" font-size="10.00">functional</text>
</g>
<!-- Node13&#45;&gt;Node17 -->
<g id="edge17" class="edge"><title>Node13&#45;&gt;Node17</title>
<path fill="none" stroke="midnightblue" d="M631.649,-242.372C654.692,-231.106 695.247,-211.279 722.122,-198.14"/>
<polygon fill="midnightblue" stroke="midnightblue" points="723.9,-201.167 731.347,-193.63 720.826,-194.878 723.9,-201.167"/>
</g>
<!-- Node18 -->
<g id="node18" class="node"><title>Node18</title>
<polygon fill="white" stroke="#bfbfbf" points="796.5,-169 796.5,-199 929.5,-199 929.5,-169 796.5,-169"/>
<text text-anchor="start" x="804.5" y="-187" font-family="Helvetica,sans-Serif" font-size="10.00">unsupported/Eigen/Aligned</text>
<text text-anchor="middle" x="863" y="-176" font-family="Helvetica,sans-Serif" font-size="10.00">Vector3</text>
</g>
<!-- Node13&#45;&gt;Node18 -->
<g id="edge18" class="edge"><title>Node13&#45;&gt;Node18</title>
<path fill="none" stroke="midnightblue" d="M646.297,-242.439C685.076,-232.161 751.006,-214.685 799.985,-201.703"/>
<polygon fill="midnightblue" stroke="midnightblue" points="801.083,-205.033 809.852,-199.087 799.289,-198.266 801.083,-205.033"/>
</g>
<!-- Node19 -->
<g id="node19" class="node"><title>Node19</title>
<g id="a_node19"><a xlink:href="Math_8hpp.html" target="_top" xlink:title="Core/Math/Math.hpp">
<polygon fill="white" stroke="black" points="986,-174.5 986,-193.5 1092,-193.5 1092,-174.5 986,-174.5"/>
<text text-anchor="middle" x="1039" y="-181.5" font-family="Helvetica,sans-Serif" font-size="10.00">Core/Math/Math.hpp</text>
</a>
</g>
</g>
<!-- Node13&#45;&gt;Node19 -->
<g id="edge19" class="edge"><title>Node13&#45;&gt;Node19</title>
<path fill="none" stroke="midnightblue" d="M669.126,-242.439C748.037,-230.185 892.821,-207.701 975.912,-194.797"/>
<polygon fill="midnightblue" stroke="midnightblue" points="976.633,-198.227 985.978,-193.234 975.559,-191.31 976.633,-198.227"/>
</g>
<!-- Node23 -->
<g id="node23" class="node"><title>Node23</title>
<g id="a_node23"><a xlink:href="LinearAlgebra_8inl.html" target="_top" xlink:title="Core/Math/LinearAlgebra.inl">
<polygon fill="white" stroke="black" points="244.5,-174.5 244.5,-193.5 381.5,-193.5 381.5,-174.5 244.5,-174.5"/>
<text text-anchor="middle" x="313" y="-181.5" font-family="Helvetica,sans-Serif" font-size="10.00">Core/Math/LinearAlgebra.inl</text>
</a>
</g>
</g>
<!-- Node13&#45;&gt;Node23 -->
<g id="edge25" class="edge"><title>Node13&#45;&gt;Node23</title>
<path fill="none" stroke="midnightblue" d="M574.958,-242.439C520.374,-230.471 421.288,-208.744 361.87,-195.716"/>
<polygon fill="midnightblue" stroke="midnightblue" points="362.49,-192.269 351.973,-193.546 360.991,-199.106 362.49,-192.269"/>
</g>
<!-- Node19&#45;&gt;Node4 -->
<g id="edge20" class="edge"><title>Node19&#45;&gt;Node4</title>
<path fill="none" stroke="midnightblue" d="M1005.09,-174.438C994.546,-172.038 982.843,-169.64 972,-168 788.373,-140.233 568.229,-128.907 466.563,-124.903"/>
<polygon fill="midnightblue" stroke="midnightblue" points="466.641,-121.404 456.514,-124.516 466.372,-128.398 466.641,-121.404"/>
</g>
<!-- Node20 -->
<g id="node20" class="node"><title>Node20</title>
<polygon fill="white" stroke="#bfbfbf" points="1107,-112.5 1107,-131.5 1163,-131.5 1163,-112.5 1107,-112.5"/>
<text text-anchor="middle" x="1135" y="-119.5" font-family="Helvetica,sans-Serif" font-size="10.00">algorithm</text>
</g>
<!-- Node19&#45;&gt;Node20 -->
<g id="edge21" class="edge"><title>Node19&#45;&gt;Node20</title>
<path fill="none" stroke="midnightblue" d="M1052.75,-174.403C1068.37,-164.646 1094.06,-148.585 1112.58,-137.011"/>
<polygon fill="midnightblue" stroke="midnightblue" points="1114.65,-139.849 1121.27,-131.581 1110.94,-133.913 1114.65,-139.849"/>
</g>
<!-- Node21 -->
<g id="node21" class="node"><title>Node21</title>
<polygon fill="white" stroke="#bfbfbf" points="927,-112.5 927,-131.5 971,-131.5 971,-112.5 927,-112.5"/>
<text text-anchor="middle" x="949" y="-119.5" font-family="Helvetica,sans-Serif" font-size="10.00">cmath</text>
</g>
<!-- Node19&#45;&gt;Node21 -->
<g id="edge22" class="edge"><title>Node19&#45;&gt;Node21</title>
<path fill="none" stroke="midnightblue" d="M1026.11,-174.403C1011.54,-164.691 987.598,-148.732 970.255,-137.17"/>
<polygon fill="midnightblue" stroke="midnightblue" points="972.133,-134.215 961.871,-131.581 968.25,-140.04 972.133,-134.215"/>
</g>
<!-- Node22 -->
<g id="node22" class="node"><title>Node22</title>
<g id="a_node22"><a xlink:href="Math_8inl.html" target="_top" xlink:title="Core/Math/Math.inl">
<polygon fill="white" stroke="black" points="989,-112.5 989,-131.5 1089,-131.5 1089,-112.5 989,-112.5"/>
<text text-anchor="middle" x="1039" y="-119.5" font-family="Helvetica,sans-Serif" font-size="10.00">Core/Math/Math.inl</text>
</a>
</g>
</g>
<!-- Node19&#45;&gt;Node22 -->
<g id="edge23" class="edge"><title>Node19&#45;&gt;Node22</title>
<path fill="none" stroke="midnightblue" d="M1034.1,-174.403C1032.27,-165.938 1031.8,-152.728 1032.69,-141.82"/>
<polygon fill="midnightblue" stroke="midnightblue" points="1036.2,-141.966 1034.1,-131.581 1029.26,-141.006 1036.2,-141.966"/>
</g>
<!-- Node22&#45;&gt;Node19 -->
<g id="edge24" class="edge"><title>Node22&#45;&gt;Node19</title>
<path fill="none" stroke="midnightblue" d="M1043.9,-131.581C1045.73,-140.04 1046.2,-153.248 1045.32,-164.16"/>
<polygon fill="midnightblue" stroke="midnightblue" points="1041.8,-164.018 1043.9,-174.403 1048.74,-164.977 1041.8,-164.018"/>
</g>
<!-- Node24&#45;&gt;Node4 -->
<g id="edge34" class="edge"><title>Node24&#45;&gt;Node4</title>
<path fill="none" stroke="midnightblue" d="M848.466,-304.457C886.149,-281.202 981.481,-215.345 938,-168 906.607,-133.818 596.659,-125.564 466.787,-123.601"/>
<polygon fill="midnightblue" stroke="midnightblue" points="466.691,-120.099 456.641,-123.455 466.59,-127.098 466.691,-120.099"/>
</g>
<!-- Node24&#45;&gt;Node13 -->
<g id="edge33" class="edge"><title>Node24&#45;&gt;Node13</title>
<path fill="none" stroke="midnightblue" d="M802.479,-304.403C763.761,-293.844 697.976,-275.903 655.264,-264.254"/>
<polygon fill="midnightblue" stroke="midnightblue" points="656.031,-260.835 645.462,-261.581 654.189,-267.589 656.031,-260.835"/>
</g>
<!-- Node25 -->
<g id="node25" class="node"><title>Node25</title>
<g id="a_node25"><a xlink:href="Index_8hpp.html" target="_top" xlink:title="Core/Index/Index.hpp">
<polygon fill="white" stroke="black" points="1107,-242.5 1107,-261.5 1217,-261.5 1217,-242.5 1107,-242.5"/>
<text text-anchor="middle" x="1162" y="-249.5" font-family="Helvetica,sans-Serif" font-size="10.00">Core/Index/Index.hpp</text>
</a>
</g>
</g>
<!-- Node24&#45;&gt;Node25 -->
<g id="edge30" class="edge"><title>Node24&#45;&gt;Node25</title>
<path fill="none" stroke="midnightblue" d="M880.646,-304.467C939.909,-293.626 1042.11,-274.932 1105.66,-263.306"/>
<polygon fill="midnightblue" stroke="midnightblue" points="1106.31,-266.746 1115.51,-261.503 1105.05,-259.86 1106.31,-266.746"/>
</g>
<!-- Node26 -->
<g id="node26" class="node"><title>Node26</title>
<polygon fill="white" stroke="#bfbfbf" points="1232,-174.5 1232,-193.5 1272,-193.5 1272,-174.5 1232,-174.5"/>
<text text-anchor="middle" x="1252" y="-181.5" font-family="Helvetica,sans-Serif" font-size="10.00">limits</text>
</g>
<!-- Node25&#45;&gt;Node26 -->
<g id="edge31" class="edge"><title>Node25&#45;&gt;Node26</title>
<path fill="none" stroke="midnightblue" d="M1173.77,-242.372C1188.59,-231.502 1214.28,-212.66 1232.16,-199.547"/>
<polygon fill="midnightblue" stroke="midnightblue" points="1234.24,-202.367 1240.23,-193.63 1230.1,-196.722 1234.24,-202.367"/>
</g>
<!-- Node27 -->
<g id="node27" class="node"><title>Node27</title>
<g id="a_node27"><a xlink:href="Index_8inl.html" target="_top" xlink:title="Core/Index/Index.inl">
<polygon fill="white" stroke="black" points="1110,-174.5 1110,-193.5 1214,-193.5 1214,-174.5 1110,-174.5"/>
<text text-anchor="middle" x="1162" y="-181.5" font-family="Helvetica,sans-Serif" font-size="10.00">Core/Index/Index.inl</text>
</a>
</g>
</g>
<!-- Node25&#45;&gt;Node27 -->
<g id="edge32" class="edge"><title>Node25&#45;&gt;Node27</title>
<path fill="none" stroke="midnightblue" d="M1162,-242.372C1162,-232.643 1162,-216.528 1162,-203.85"/>
<polygon fill="midnightblue" stroke="midnightblue" points="1165.5,-203.841 1162,-193.841 1158.5,-203.841 1165.5,-203.841"/>
</g>
</g>
</svg>
