<?xml version="1.0" encoding="UTF-8" standalone="no"?>
<!DOCTYPE svg PUBLIC "-//W3C//DTD SVG 1.1//EN"
 "http://www.w3.org/Graphics/SVG/1.1/DTD/svg11.dtd">
<!-- Generated by graphviz version 2.36.0 (20140111.2315)
 -->
<!-- Title: /home/travis/build/STORM&#45;IRIT/Radium&#45;Engine/src/IO/AssimpLoader/AssimpGeometryDataLoader.hpp Pages: 1 -->
<svg width="970pt" height="354pt"
 viewBox="0.00 0.00 969.65 354.00" xmlns="http://www.w3.org/2000/svg" xmlns:xlink="http://www.w3.org/1999/xlink">
<g id="graph0" class="graph" transform="scale(1 1) rotate(0) translate(4 350)">
<title>/home/travis/build/STORM&#45;IRIT/Radium&#45;Engine/src/IO/AssimpLoader/AssimpGeometryDataLoader.hpp</title>
<polygon fill="white" stroke="none" points="-4,4 -4,-350 965.648,-350 965.648,4 -4,4"/>
<!-- Node1 -->
<g id="node1" class="node"><title>Node1</title>
<polygon fill="#bfbfbf" stroke="black" points="300.5,-293 300.5,-345 491.5,-345 491.5,-293 300.5,-293"/>
<text text-anchor="start" x="308.5" y="-333" font-family="Helvetica,sans-Serif" font-size="10.00">/home/travis/build</text>
<text text-anchor="start" x="308.5" y="-322" font-family="Helvetica,sans-Serif" font-size="10.00">/STORM&#45;IRIT/Radium&#45;Engine</text>
<text text-anchor="start" x="308.5" y="-311" font-family="Helvetica,sans-Serif" font-size="10.00">/src/IO/AssimpLoader/AssimpGeometry</text>
<text text-anchor="middle" x="396" y="-300" font-family="Helvetica,sans-Serif" font-size="10.00">DataLoader.hpp</text>
</g>
<!-- Node2 -->
<g id="node2" class="node"><title>Node2</title>
<g id="a_node2"><a xlink:href="DataLoader_8hpp.html" target="_top" xlink:title="Core/File/DataLoader.hpp">
<polygon fill="white" stroke="black" points="54,-236.5 54,-255.5 182,-255.5 182,-236.5 54,-236.5"/>
<text text-anchor="middle" x="118" y="-243.5" font-family="Helvetica,sans-Serif" font-size="10.00">Core/File/DataLoader.hpp</text>
</a>
</g>
</g>
<!-- Node1&#45;&gt;Node2 -->
<g id="edge1" class="edge"><title>Node1&#45;&gt;Node2</title>
<path fill="none" stroke="midnightblue" d="M300.328,-293.566C253.096,-281.503 198.447,-267.546 161.388,-258.081"/>
<polygon fill="midnightblue" stroke="midnightblue" points="161.978,-254.62 151.423,-255.536 160.246,-261.402 161.978,-254.62"/>
</g>
<!-- Node3 -->
<g id="node3" class="node"><title>Node3</title>
<polygon fill="white" stroke="#bfbfbf" points="0,-174.5 0,-193.5 52,-193.5 52,-174.5 0,-174.5"/>
<text text-anchor="middle" x="26" y="-181.5" font-family="Helvetica,sans-Serif" font-size="10.00">memory</text>
</g>
<!-- Node1&#45;&gt;Node3 -->
<g id="edge26" class="edge"><title>Node1&#45;&gt;Node3</title>
<path fill="none" stroke="midnightblue" d="M300.335,-312.497C209.476,-305.311 81.4883,-289.456 45,-256 30.7719,-242.954 26.7247,-220.533 25.7944,-204.373"/>
<polygon fill="midnightblue" stroke="midnightblue" points="29.2841,-203.857 25.5669,-193.936 22.2858,-204.01 29.2841,-203.857"/>
</g>
<!-- Node5 -->
<g id="node5" class="node"><title>Node5</title>
<g id="a_node5"><a xlink:href="LinearAlgebra_8hpp.html" target="_top" xlink:title="Core/Math/LinearAlgebra.hpp">
<polygon fill="white" stroke="black" points="324.5,-236.5 324.5,-255.5 467.5,-255.5 467.5,-236.5 324.5,-236.5"/>
<text text-anchor="middle" x="396" y="-243.5" font-family="Helvetica,sans-Serif" font-size="10.00">Core/Math/LinearAlgebra.hpp</text>
</a>
</g>
</g>
<!-- Node1&#45;&gt;Node5 -->
<g id="edge4" class="edge"><title>Node1&#45;&gt;Node5</title>
<path fill="none" stroke="midnightblue" d="M396,-292.768C396,-283.89 396,-274.074 396,-265.816"/>
<polygon fill="midnightblue" stroke="midnightblue" points="399.5,-265.757 396,-255.757 392.5,-265.757 399.5,-265.757"/>
</g>
<!-- Node23 -->
<g id="node23" class="node"><title>Node23</title>
<g id="a_node23"><a xlink:href="RaIO_8hpp.html" target="_top" xlink:title="IO/RaIO.hpp">
<polygon fill="white" stroke="black" points="486,-236.5 486,-255.5 558,-255.5 558,-236.5 486,-236.5"/>
<text text-anchor="middle" x="522" y="-243.5" font-family="Helvetica,sans-Serif" font-size="10.00">IO/RaIO.hpp</text>
</a>
</g>
</g>
<!-- Node1&#45;&gt;Node23 -->
<g id="edge24" class="edge"><title>Node1&#45;&gt;Node23</title>
<path fill="none" stroke="midnightblue" d="M440.423,-292.968C459.731,-282.088 481.596,-269.767 497.826,-260.622"/>
<polygon fill="midnightblue" stroke="midnightblue" points="499.675,-263.597 506.669,-255.639 496.239,-257.499 499.675,-263.597"/>
</g>
<!-- Node24 -->
<g id="node24" class="node"><title>Node24</title>
<polygon fill="white" stroke="#bfbfbf" points="576,-236.5 576,-255.5 606,-255.5 606,-236.5 576,-236.5"/>
<text text-anchor="middle" x="591" y="-243.5" font-family="Helvetica,sans-Serif" font-size="10.00">set</text>
</g>
<!-- Node1&#45;&gt;Node24 -->
<g id="edge27" class="edge"><title>Node1&#45;&gt;Node24</title>
<path fill="none" stroke="midnightblue" d="M465.535,-292.983C494.181,-282.631 527.914,-270.382 565.998,-256.345"/>
<polygon fill="midnightblue" stroke="midnightblue" points="567.604,-259.484 575.774,-252.738 565.181,-252.916 567.604,-259.484"/>
</g>
<!-- Node2&#45;&gt;Node3 -->
<g id="edge2" class="edge"><title>Node2&#45;&gt;Node3</title>
<path fill="none" stroke="midnightblue" d="M104.819,-236.403C89.9255,-226.691 65.4556,-210.732 47.7269,-199.17"/>
<polygon fill="midnightblue" stroke="midnightblue" points="49.445,-196.112 39.1569,-193.581 45.6211,-201.975 49.445,-196.112"/>
</g>
<!-- Node4 -->
<g id="node4" class="node"><title>Node4</title>
<polygon fill="white" stroke="#bfbfbf" points="70,-174.5 70,-193.5 114,-193.5 114,-174.5 70,-174.5"/>
<text text-anchor="middle" x="92" y="-181.5" font-family="Helvetica,sans-Serif" font-size="10.00">vector</text>
</g>
<!-- Node2&#45;&gt;Node4 -->
<g id="edge3" class="edge"><title>Node2&#45;&gt;Node4</title>
<path fill="none" stroke="midnightblue" d="M114.275,-236.403C110.491,-227.671 104.519,-213.889 99.7106,-202.794"/>
<polygon fill="midnightblue" stroke="midnightblue" points="102.906,-201.365 95.7183,-193.581 96.4829,-204.148 102.906,-201.365"/>
</g>
<!-- Node6 -->
<g id="node6" class="node"><title>Node6</title>
<g id="a_node6"><a xlink:href="RaCore_8hpp.html" target="_top" xlink:title="Core/RaCore.hpp">
<polygon fill="white" stroke="black" points="526.5,-112.5 526.5,-131.5 619.5,-131.5 619.5,-112.5 526.5,-112.5"/>
<text text-anchor="middle" x="573" y="-119.5" font-family="Helvetica,sans-Serif" font-size="10.00">Core/RaCore.hpp</text>
</a>
</g>
</g>
<!-- Node5&#45;&gt;Node6 -->
<g id="edge5" class="edge"><title>Node5&#45;&gt;Node6</title>
<path fill="none" stroke="midnightblue" d="M324.133,-243.498C237.978,-239.246 111.055,-223.697 161,-168 184.297,-142.02 408.87,-129.574 516.295,-125.069"/>
<polygon fill="midnightblue" stroke="midnightblue" points="516.466,-128.565 526.314,-124.657 516.179,-121.571 516.466,-128.565"/>
</g>
<!-- Node13 -->
<g id="node13" class="node"><title>Node13</title>
<polygon fill="white" stroke="#bfbfbf" points="170.5,-174.5 170.5,-193.5 235.5,-193.5 235.5,-174.5 170.5,-174.5"/>
<text text-anchor="middle" x="203" y="-181.5" font-family="Helvetica,sans-Serif" font-size="10.00">Eigen/Core</text>
</g>
<!-- Node5&#45;&gt;Node13 -->
<g id="edge12" class="edge"><title>Node5&#45;&gt;Node13</title>
<path fill="none" stroke="midnightblue" d="M364.964,-236.43C334.12,-227.768 285.547,-213.735 244,-200 241.072,-199.032 238.039,-197.993 235.008,-196.929"/>
<polygon fill="midnightblue" stroke="midnightblue" points="236.062,-193.589 225.468,-193.509 233.699,-200.178 236.062,-193.589"/>
</g>
<!-- Node14 -->
<g id="node14" class="node"><title>Node14</title>
<polygon fill="white" stroke="#bfbfbf" points="253.5,-174.5 253.5,-193.5 340.5,-193.5 340.5,-174.5 253.5,-174.5"/>
<text text-anchor="middle" x="297" y="-181.5" font-family="Helvetica,sans-Serif" font-size="10.00">Eigen/Geometry</text>
</g>
<!-- Node5&#45;&gt;Node14 -->
<g id="edge13" class="edge"><title>Node5&#45;&gt;Node14</title>
<path fill="none" stroke="midnightblue" d="M381.816,-236.403C365.642,-226.601 338.974,-210.439 319.857,-198.853"/>
<polygon fill="midnightblue" stroke="midnightblue" points="321.524,-195.77 311.158,-193.581 317.896,-201.757 321.524,-195.77"/>
</g>
<!-- Node15 -->
<g id="node15" class="node"><title>Node15</title>
<polygon fill="white" stroke="#bfbfbf" points="358.5,-174.5 358.5,-193.5 433.5,-193.5 433.5,-174.5 358.5,-174.5"/>
<text text-anchor="middle" x="396" y="-181.5" font-family="Helvetica,sans-Serif" font-size="10.00">Eigen/Sparse</text>
</g>
<!-- Node5&#45;&gt;Node15 -->
<g id="edge14" class="edge"><title>Node5&#45;&gt;Node15</title>
<path fill="none" stroke="midnightblue" d="M396,-236.403C396,-227.938 396,-214.728 396,-203.82"/>
<polygon fill="midnightblue" stroke="midnightblue" points="399.5,-203.581 396,-193.581 392.5,-203.581 399.5,-203.581"/>
</g>
<!-- Node16 -->
<g id="node16" class="node"><title>Node16</title>
<polygon fill="white" stroke="#bfbfbf" points="451.5,-174.5 451.5,-193.5 510.5,-193.5 510.5,-174.5 451.5,-174.5"/>
<text text-anchor="middle" x="481" y="-181.5" font-family="Helvetica,sans-Serif" font-size="10.00">functional</text>
</g>
<!-- Node5&#45;&gt;Node16 -->
<g id="edge15" class="edge"><title>Node5&#45;&gt;Node16</title>
<path fill="none" stroke="midnightblue" d="M408.178,-236.403C421.812,-226.78 444.132,-211.024 460.474,-199.489"/>
<polygon fill="midnightblue" stroke="midnightblue" points="462.693,-202.207 468.844,-193.581 458.656,-196.488 462.693,-202.207"/>
</g>
<!-- Node17 -->
<g id="node17" class="node"><title>Node17</title>
<polygon fill="white" stroke="#bfbfbf" points="528.5,-169 528.5,-199 661.5,-199 661.5,-169 528.5,-169"/>
<text text-anchor="start" x="536.5" y="-187" font-family="Helvetica,sans-Serif" font-size="10.00">unsupported/Eigen/Aligned</text>
<text text-anchor="middle" x="595" y="-176" font-family="Helvetica,sans-Serif" font-size="10.00">Vector3</text>
</g>
<!-- Node5&#45;&gt;Node17 -->
<g id="edge16" class="edge"><title>Node5&#45;&gt;Node17</title>
<path fill="none" stroke="midnightblue" d="M424.512,-236.403C454.207,-227.45 501.504,-213.19 538.756,-201.958"/>
<polygon fill="midnightblue" stroke="midnightblue" points="539.919,-205.263 548.483,-199.025 537.898,-198.561 539.919,-205.263"/>
</g>
<!-- Node18 -->
<g id="node18" class="node"><title>Node18</title>
<g id="a_node18"><a xlink:href="Math_8hpp.html" target="_top" xlink:title="Core/Math/Math.hpp">
<polygon fill="white" stroke="black" points="680,-174.5 680,-193.5 786,-193.5 786,-174.5 680,-174.5"/>
<text text-anchor="middle" x="733" y="-181.5" font-family="Helvetica,sans-Serif" font-size="10.00">Core/Math/Math.hpp</text>
</a>
</g>
</g>
<!-- Node5&#45;&gt;Node18 -->
<g id="edge17" class="edge"><title>Node5&#45;&gt;Node18</title>
<path fill="none" stroke="midnightblue" d="M455.549,-236.466C511.201,-228.196 596.507,-214.765 670,-200 676.221,-198.75 682.761,-197.322 689.177,-195.856"/>
<polygon fill="midnightblue" stroke="midnightblue" points="690.152,-199.222 699.094,-193.539 688.56,-192.406 690.152,-199.222"/>
</g>
<!-- Node22 -->
<g id="node22" class="node"><title>Node22</title>
<g id="a_node22"><a xlink:href="LinearAlgebra_8inl.html" target="_top" xlink:title="Core/Math/LinearAlgebra.inl">
<polygon fill="white" stroke="black" points="804.5,-174.5 804.5,-193.5 941.5,-193.5 941.5,-174.5 804.5,-174.5"/>
<text text-anchor="middle" x="873" y="-181.5" font-family="Helvetica,sans-Serif" font-size="10.00">Core/Math/LinearAlgebra.inl</text>
</a>
</g>
</g>
<!-- Node5&#45;&gt;Node22 -->
<g id="edge23" class="edge"><title>Node5&#45;&gt;Node22</title>
<path fill="none" stroke="midnightblue" d="M467.639,-237.041C577.875,-224.774 778.122,-202.402 794,-200 802.826,-198.665 812.17,-197.061 821.225,-195.406"/>
<polygon fill="midnightblue" stroke="midnightblue" points="822.094,-198.805 831.281,-193.527 820.808,-191.924 822.094,-198.805"/>
</g>
<!-- Node7 -->
<g id="node7" class="node"><title>Node7</title>
<g id="a_node7"><a xlink:href="CoreMacros_8hpp.html" target="_top" xlink:title="Core/CoreMacros.hpp">
<polygon fill="white" stroke="black" points="714.5,-56.5 714.5,-75.5 827.5,-75.5 827.5,-56.5 714.5,-56.5"/>
<text text-anchor="middle" x="771" y="-63.5" font-family="Helvetica,sans-Serif" font-size="10.00">Core/CoreMacros.hpp</text>
</a>
</g>
</g>
<!-- Node6&#45;&gt;Node7 -->
<g id="edge6" class="edge"><title>Node6&#45;&gt;Node7</title>
<path fill="none" stroke="midnightblue" d="M604.374,-112.444C638.263,-103.201 692.403,-88.4356 729.724,-78.2572"/>
<polygon fill="midnightblue" stroke="midnightblue" points="731.046,-81.5243 739.773,-75.5164 729.205,-74.771 731.046,-81.5243"/>
</g>
<!-- Node8 -->
<g id="node8" class="node"><title>Node8</title>
<polygon fill="white" stroke="#bfbfbf" points="615.5,-0.5 615.5,-19.5 664.5,-19.5 664.5,-0.5 615.5,-0.5"/>
<text text-anchor="middle" x="640" y="-7.5" font-family="Helvetica,sans-Serif" font-size="10.00">cassert</text>
</g>
<!-- Node7&#45;&gt;Node8 -->
<g id="edge7" class="edge"><title>Node7&#45;&gt;Node8</title>
<path fill="none" stroke="midnightblue" d="M750.243,-56.4435C728.684,-47.5566 694.737,-33.5632 670.206,-23.4514"/>
<polygon fill="midnightblue" stroke="midnightblue" points="671.239,-20.0917 660.66,-19.5164 668.572,-26.5634 671.239,-20.0917"/>
</g>
<!-- Node9 -->
<g id="node9" class="node"><title>Node9</title>
<polygon fill="white" stroke="#bfbfbf" points="682.5,-0.5 682.5,-19.5 725.5,-19.5 725.5,-0.5 682.5,-0.5"/>
<text text-anchor="middle" x="704" y="-7.5" font-family="Helvetica,sans-Serif" font-size="10.00">cstdio</text>
</g>
<!-- Node7&#45;&gt;Node9 -->
<g id="edge8" class="edge"><title>Node7&#45;&gt;Node9</title>
<path fill="none" stroke="midnightblue" d="M760.235,-56.324C750.234,-48.2631 735.113,-36.0765 723.07,-26.3695"/>
<polygon fill="midnightblue" stroke="midnightblue" points="724.943,-23.3841 714.961,-19.8339 720.55,-28.8343 724.943,-23.3841"/>
</g>
<!-- Node10 -->
<g id="node10" class="node"><title>Node10</title>
<polygon fill="white" stroke="#bfbfbf" points="744,-0.5 744,-19.5 798,-19.5 798,-0.5 744,-0.5"/>
<text text-anchor="middle" x="771" y="-7.5" font-family="Helvetica,sans-Serif" font-size="10.00">iostream</text>
</g>
<!-- Node7&#45;&gt;Node10 -->
<g id="edge9" class="edge"><title>Node7&#45;&gt;Node10</title>
<path fill="none" stroke="midnightblue" d="M771,-56.083C771,-49.0059 771,-38.8611 771,-29.9865"/>
<polygon fill="midnightblue" stroke="midnightblue" points="774.5,-29.751 771,-19.7511 767.5,-29.7511 774.5,-29.751"/>
</g>
<!-- Node11 -->
<g id="node11" class="node"><title>Node11</title>
<polygon fill="white" stroke="#bfbfbf" points="816,-0.5 816,-19.5 868,-19.5 868,-0.5 816,-0.5"/>
<text text-anchor="middle" x="842" y="-7.5" font-family="Helvetica,sans-Serif" font-size="10.00">sstream</text>
</g>
<!-- Node7&#45;&gt;Node11 -->
<g id="edge10" class="edge"><title>Node7&#45;&gt;Node11</title>
<path fill="none" stroke="midnightblue" d="M782.407,-56.324C793.109,-48.1849 809.341,-35.8395 822.163,-26.0874"/>
<polygon fill="midnightblue" stroke="midnightblue" points="824.544,-28.6734 830.385,-19.8339 820.307,-23.1018 824.544,-28.6734"/>
</g>
<!-- Node12 -->
<g id="node12" class="node"><title>Node12</title>
<polygon fill="white" stroke="#bfbfbf" points="886,-0.5 886,-19.5 930,-19.5 930,-0.5 886,-0.5"/>
<text text-anchor="middle" x="908" y="-7.5" font-family="Helvetica,sans-Serif" font-size="10.00">thread</text>
</g>
<!-- Node7&#45;&gt;Node12 -->
<g id="edge11" class="edge"><title>Node7&#45;&gt;Node12</title>
<path fill="none" stroke="midnightblue" d="M792.708,-56.4435C815.355,-47.5171 851.072,-33.4387 876.752,-23.3168"/>
<polygon fill="midnightblue" stroke="midnightblue" points="878.374,-26.4397 886.394,-19.5164 875.807,-19.9273 878.374,-26.4397"/>
</g>
<!-- Node18&#45;&gt;Node6 -->
<g id="edge18" class="edge"><title>Node18&#45;&gt;Node6</title>
<path fill="none" stroke="midnightblue" d="M710.076,-174.403C682.63,-164.111 636.484,-146.806 605.401,-135.15"/>
<polygon fill="midnightblue" stroke="midnightblue" points="606.474,-131.815 595.882,-131.581 604.016,-138.369 606.474,-131.815"/>
</g>
<!-- Node19 -->
<g id="node19" class="node"><title>Node19</title>
<polygon fill="white" stroke="#bfbfbf" points="637,-112.5 637,-131.5 693,-131.5 693,-112.5 637,-112.5"/>
<text text-anchor="middle" x="665" y="-119.5" font-family="Helvetica,sans-Serif" font-size="10.00">algorithm</text>
</g>
<!-- Node18&#45;&gt;Node19 -->
<g id="edge19" class="edge"><title>Node18&#45;&gt;Node19</title>
<path fill="none" stroke="midnightblue" d="M723.257,-174.403C712.653,-165.047 695.481,-149.895 682.521,-138.46"/>
<polygon fill="midnightblue" stroke="midnightblue" points="684.539,-135.572 674.725,-131.581 679.907,-140.821 684.539,-135.572"/>
</g>
<!-- Node20 -->
<g id="node20" class="node"><title>Node20</title>
<polygon fill="white" stroke="#bfbfbf" points="711,-112.5 711,-131.5 755,-131.5 755,-112.5 711,-112.5"/>
<text text-anchor="middle" x="733" y="-119.5" font-family="Helvetica,sans-Serif" font-size="10.00">cmath</text>
</g>
<!-- Node18&#45;&gt;Node20 -->
<g id="edge20" class="edge"><title>Node18&#45;&gt;Node20</title>
<path fill="none" stroke="midnightblue" d="M733,-174.403C733,-165.938 733,-152.728 733,-141.82"/>
<polygon fill="midnightblue" stroke="midnightblue" points="736.5,-141.581 733,-131.581 729.5,-141.581 736.5,-141.581"/>
</g>
<!-- Node21 -->
<g id="node21" class="node"><title>Node21</title>
<g id="a_node21"><a xlink:href="Math_8inl.html" target="_top" xlink:title="Core/Math/Math.inl">
<polygon fill="white" stroke="black" points="773,-112.5 773,-131.5 873,-131.5 873,-112.5 773,-112.5"/>
<text text-anchor="middle" x="823" y="-119.5" font-family="Helvetica,sans-Serif" font-size="10.00">Core/Math/Math.inl</text>
</a>
</g>
</g>
<!-- Node18&#45;&gt;Node21 -->
<g id="edge21" class="edge"><title>Node18&#45;&gt;Node21</title>
<path fill="none" stroke="midnightblue" d="M740.994,-174.403C753.577,-164.601 777.524,-148.439 796.429,-136.853"/>
<polygon fill="midnightblue" stroke="midnightblue" points="798.451,-139.721 805.232,-131.581 794.854,-133.716 798.451,-139.721"/>
</g>
<!-- Node21&#45;&gt;Node18 -->
<g id="edge22" class="edge"><title>Node21&#45;&gt;Node18</title>
<path fill="none" stroke="midnightblue" d="M815.026,-131.581C802.456,-141.376 778.512,-157.538 759.602,-169.129"/>
<polygon fill="midnightblue" stroke="midnightblue" points="757.576,-166.262 750.795,-174.403 761.173,-172.268 757.576,-166.262"/>
</g>
<!-- Node23&#45;&gt;Node7 -->
<g id="edge25" class="edge"><title>Node23&#45;&gt;Node7</title>
<path fill="none" stroke="midnightblue" d="M558.293,-237.406C561.233,-236.893 564.162,-236.416 567,-236 609.291,-229.8 921.225,-231.607 950,-200 999.21,-145.947 878.465,-99.2802 811.691,-78.5065"/>
<polygon fill="midnightblue" stroke="midnightblue" points="812.451,-75.0791 801.865,-75.5144 810.412,-81.7756 812.451,-75.0791"/>
</g>
</g>
</svg>
