<?xml version="1.0" encoding="UTF-8" standalone="no"?>
<!DOCTYPE svg PUBLIC "-//W3C//DTD SVG 1.1//EN"
 "http://www.w3.org/Graphics/SVG/1.1/DTD/svg11.dtd">
<!-- Generated by graphviz version 2.36.0 (20140111.2315)
 -->
<!-- Title: /home/travis/build/STORM&#45;IRIT/Radium&#45;Engine/src/IO/AssimpLoader/AssimpAnimationDataLoader.cpp Pages: 1 -->
<svg width="2050pt" height="558pt"
 viewBox="0.00 0.00 2050.00 558.00" xmlns="http://www.w3.org/2000/svg" xmlns:xlink="http://www.w3.org/1999/xlink">
<g id="graph0" class="graph" transform="scale(1 1) rotate(0) translate(4 554)">
<title>/home/travis/build/STORM&#45;IRIT/Radium&#45;Engine/src/IO/AssimpLoader/AssimpAnimationDataLoader.cpp</title>
<polygon fill="white" stroke="none" points="-4,4 -4,-554 2046,-554 2046,4 -4,4"/>
<!-- Node1 -->
<g id="node1" class="node"><title>Node1</title>
<polygon fill="#bfbfbf" stroke="black" points="982.5,-497 982.5,-549 1173.5,-549 1173.5,-497 982.5,-497"/>
<text text-anchor="start" x="990.5" y="-537" font-family="Helvetica,sans-Serif" font-size="10.00">/home/travis/build</text>
<text text-anchor="start" x="990.5" y="-526" font-family="Helvetica,sans-Serif" font-size="10.00">/STORM&#45;IRIT/Radium&#45;Engine</text>
<text text-anchor="start" x="990.5" y="-515" font-family="Helvetica,sans-Serif" font-size="10.00">/src/IO/AssimpLoader/AssimpAnimation</text>
<text text-anchor="middle" x="1078" y="-504" font-family="Helvetica,sans-Serif" font-size="10.00">DataLoader.cpp</text>
</g>
<!-- Node2 -->
<g id="node2" class="node"><title>Node2</title>
<g id="a_node2"><a xlink:href="AssimpAnimationDataLoader_8hpp.html" target="_top" xlink:title="IO/AssimpLoader/AssimpAnimation\lDataLoader.hpp">
<polygon fill="white" stroke="black" points="0,-305 0,-335 172,-335 172,-305 0,-305"/>
<text text-anchor="start" x="8" y="-323" font-family="Helvetica,sans-Serif" font-size="10.00">IO/AssimpLoader/AssimpAnimation</text>
<text text-anchor="middle" x="86" y="-312" font-family="Helvetica,sans-Serif" font-size="10.00">DataLoader.hpp</text>
</a>
</g>
</g>
<!-- Node1&#45;&gt;Node2 -->
<g id="edge1" class="edge"><title>Node1&#45;&gt;Node2</title>
<path fill="none" stroke="midnightblue" d="M982.461,-516.888C782.151,-504.963 325.231,-471.086 186,-404 154.559,-388.851 124.602,-361.705 105.816,-342.591"/>
<polygon fill="midnightblue" stroke="midnightblue" points="108.166,-339.985 98.7129,-335.201 103.119,-344.836 108.166,-339.985"/>
</g>
<!-- Node16 -->
<g id="node16" class="node"><title>Node16</title>
<polygon fill="white" stroke="#bfbfbf" points="1854.5,-440.5 1854.5,-459.5 1937.5,-459.5 1937.5,-440.5 1854.5,-440.5"/>
<text text-anchor="middle" x="1896" y="-447.5" font-family="Helvetica,sans-Serif" font-size="10.00">assimp/mesh.h</text>
</g>
<!-- Node1&#45;&gt;Node16 -->
<g id="edge16" class="edge"><title>Node1&#45;&gt;Node16</title>
<path fill="none" stroke="midnightblue" d="M1173.58,-516.629C1318.16,-507.961 1601,-488.883 1840,-460 1841.47,-459.823 1842.95,-459.635 1844.45,-459.44"/>
<polygon fill="midnightblue" stroke="midnightblue" points="1845.04,-462.892 1854.46,-458.046 1844.07,-455.959 1845.04,-462.892"/>
</g>
<!-- Node17 -->
<g id="node17" class="node"><title>Node17</title>
<polygon fill="white" stroke="#bfbfbf" points="1956,-440.5 1956,-459.5 2042,-459.5 2042,-440.5 1956,-440.5"/>
<text text-anchor="middle" x="1999" y="-447.5" font-family="Helvetica,sans-Serif" font-size="10.00">assimp/scene.h</text>
</g>
<!-- Node1&#45;&gt;Node17 -->
<g id="edge17" class="edge"><title>Node1&#45;&gt;Node17</title>
<path fill="none" stroke="midnightblue" d="M1173.66,-518.201C1333.88,-511.16 1666.44,-493.64 1946,-460 1946.1,-459.988 1946.2,-459.976 1946.3,-459.963"/>
<polygon fill="midnightblue" stroke="midnightblue" points="1946.51,-463.468 1955.95,-458.669 1945.58,-456.53 1946.51,-463.468"/>
</g>
<!-- Node18 -->
<g id="node18" class="node"><title>Node18</title>
<polygon fill="white" stroke="#bfbfbf" points="1573,-242.5 1573,-261.5 1603,-261.5 1603,-242.5 1573,-242.5"/>
<text text-anchor="middle" x="1588" y="-249.5" font-family="Helvetica,sans-Serif" font-size="10.00">set</text>
</g>
<!-- Node1&#45;&gt;Node18 -->
<g id="edge18" class="edge"><title>Node1&#45;&gt;Node18</title>
<path fill="none" stroke="midnightblue" d="M1173.7,-521.414C1352.88,-518.043 1728.05,-499.467 1807,-404 1868.6,-329.51 1683.08,-275.888 1613.35,-258.804"/>
<polygon fill="midnightblue" stroke="midnightblue" points="1613.75,-255.301 1603.21,-256.379 1612.12,-262.109 1613.75,-255.301"/>
</g>
<!-- Node19 -->
<g id="node19" class="node"><title>Node19</title>
<g id="a_node19"><a xlink:href="AnimationData_8hpp.html" target="_top" xlink:title="Core/File/AnimationData.hpp">
<polygon fill="white" stroke="black" points="556.5,-440.5 556.5,-459.5 699.5,-459.5 699.5,-440.5 556.5,-440.5"/>
<text text-anchor="middle" x="628" y="-447.5" font-family="Helvetica,sans-Serif" font-size="10.00">Core/File/AnimationData.hpp</text>
</a>
</g>
</g>
<!-- Node1&#45;&gt;Node19 -->
<g id="edge19" class="edge"><title>Node1&#45;&gt;Node19</title>
<path fill="none" stroke="midnightblue" d="M982.291,-506.899C894.74,-493.086 767.654,-473.034 691.87,-461.077"/>
<polygon fill="midnightblue" stroke="midnightblue" points="692.404,-457.618 681.981,-459.517 691.313,-464.533 692.404,-457.618"/>
</g>
<!-- Node38 -->
<g id="node38" class="node"><title>Node38</title>
<g id="a_node38"><a xlink:href="Log_8hpp.html" target="_top" xlink:title="Core/Log/Log.hpp">
<polygon fill="white" stroke="black" points="361,-310.5 361,-329.5 455,-329.5 455,-310.5 361,-310.5"/>
<text text-anchor="middle" x="408" y="-317.5" font-family="Helvetica,sans-Serif" font-size="10.00">Core/Log/Log.hpp</text>
</a>
</g>
</g>
<!-- Node1&#45;&gt;Node38 -->
<g id="edge70" class="edge"><title>Node1&#45;&gt;Node38</title>
<path fill="none" stroke="midnightblue" d="M982.483,-519.016C874.996,-513.786 695.943,-499.42 547,-460 485.393,-443.695 452.383,-455.612 415,-404 401.512,-385.379 402.079,-357.871 404.444,-339.698"/>
<polygon fill="midnightblue" stroke="midnightblue" points="407.911,-340.181 406.04,-329.753 401,-339.072 407.911,-340.181"/>
</g>
<!-- Node42 -->
<g id="node42" class="node"><title>Node42</title>
<g id="a_node42"><a xlink:href="KeyRotation_8hpp.html" target="_top" xlink:title="Core/File/KeyFrame\l/KeyRotation.hpp">
<polygon fill="white" stroke="black" points="854,-373 854,-403 958,-403 958,-373 854,-373"/>
<text text-anchor="start" x="862" y="-391" font-family="Helvetica,sans-Serif" font-size="10.00">Core/File/KeyFrame</text>
<text text-anchor="middle" x="906" y="-380" font-family="Helvetica,sans-Serif" font-size="10.00">/KeyRotation.hpp</text>
</a>
</g>
</g>
<!-- Node1&#45;&gt;Node42 -->
<g id="edge61" class="edge"><title>Node1&#45;&gt;Node42</title>
<path fill="none" stroke="midnightblue" d="M1045.65,-496.984C1012.91,-471.672 962.916,-433.011 932.467,-409.466"/>
<polygon fill="midnightblue" stroke="midnightblue" points="934.479,-406.597 924.427,-403.249 930.197,-412.135 934.479,-406.597"/>
</g>
<!-- Node43 -->
<g id="node43" class="node"><title>Node43</title>
<g id="a_node43"><a xlink:href="KeyScaling_8hpp.html" target="_top" xlink:title="Core/File/KeyFrame\l/KeyScaling.hpp">
<polygon fill="white" stroke="black" points="976,-373 976,-403 1080,-403 1080,-373 976,-373"/>
<text text-anchor="start" x="984" y="-391" font-family="Helvetica,sans-Serif" font-size="10.00">Core/File/KeyFrame</text>
<text text-anchor="middle" x="1028" y="-380" font-family="Helvetica,sans-Serif" font-size="10.00">/KeyScaling.hpp</text>
</a>
</g>
</g>
<!-- Node1&#45;&gt;Node43 -->
<g id="edge64" class="edge"><title>Node1&#45;&gt;Node43</title>
<path fill="none" stroke="midnightblue" d="M1068.6,-496.984C1059.53,-472.862 1045.9,-436.616 1036.98,-412.883"/>
<polygon fill="midnightblue" stroke="midnightblue" points="1040.15,-411.378 1033.36,-403.249 1033.6,-413.841 1040.15,-411.378"/>
</g>
<!-- Node44 -->
<g id="node44" class="node"><title>Node44</title>
<g id="a_node44"><a xlink:href="KeyTranslation_8hpp.html" target="_top" xlink:title="Core/File/KeyFrame\l/KeyTranslation.hpp">
<polygon fill="white" stroke="black" points="1098,-373 1098,-403 1202,-403 1202,-373 1098,-373"/>
<text text-anchor="start" x="1106" y="-391" font-family="Helvetica,sans-Serif" font-size="10.00">Core/File/KeyFrame</text>
<text text-anchor="middle" x="1150" y="-380" font-family="Helvetica,sans-Serif" font-size="10.00">/KeyTranslation.hpp</text>
</a>
</g>
</g>
<!-- Node1&#45;&gt;Node44 -->
<g id="edge67" class="edge"><title>Node1&#45;&gt;Node44</title>
<path fill="none" stroke="midnightblue" d="M1091.54,-496.984C1104.72,-472.646 1124.58,-435.965 1137.41,-412.248"/>
<polygon fill="midnightblue" stroke="midnightblue" points="1140.6,-413.709 1142.29,-403.249 1134.45,-410.377 1140.6,-413.709"/>
</g>
<!-- Node45 -->
<g id="node45" class="node"><title>Node45</title>
<g id="a_node45"><a xlink:href="AssimpWrapper_8hpp.html" target="_top" xlink:title="IO/AssimpLoader/AssimpWrapper.hpp">
<polygon fill="white" stroke="black" points="1321,-440.5 1321,-459.5 1505,-459.5 1505,-440.5 1321,-440.5"/>
<text text-anchor="middle" x="1413" y="-447.5" font-family="Helvetica,sans-Serif" font-size="10.00">IO/AssimpLoader/AssimpWrapper.hpp</text>
</a>
</g>
</g>
<!-- Node1&#45;&gt;Node45 -->
<g id="edge71" class="edge"><title>Node1&#45;&gt;Node45</title>
<path fill="none" stroke="midnightblue" d="M1173.55,-501.749C1235.25,-488.673 1313.02,-472.189 1362.89,-461.621"/>
<polygon fill="midnightblue" stroke="midnightblue" points="1363.72,-465.022 1372.78,-459.524 1362.27,-458.174 1363.72,-465.022"/>
</g>
<!-- Node3 -->
<g id="node3" class="node"><title>Node3</title>
<g id="a_node3"><a xlink:href="DataLoader_8hpp.html" target="_top" xlink:title="Core/File/DataLoader.hpp">
<polygon fill="white" stroke="black" points="44,-242.5 44,-261.5 172,-261.5 172,-242.5 44,-242.5"/>
<text text-anchor="middle" x="108" y="-249.5" font-family="Helvetica,sans-Serif" font-size="10.00">Core/File/DataLoader.hpp</text>
</a>
</g>
</g>
<!-- Node2&#45;&gt;Node3 -->
<g id="edge2" class="edge"><title>Node2&#45;&gt;Node3</title>
<path fill="none" stroke="midnightblue" d="M90.7737,-304.679C94.0002,-294.999 98.2923,-282.123 101.785,-271.645"/>
<polygon fill="midnightblue" stroke="midnightblue" points="105.215,-272.422 105.057,-261.828 98.5745,-270.208 105.215,-272.422"/>
</g>
<!-- Node6 -->
<g id="node6" class="node"><title>Node6</title>
<g id="a_node6"><a xlink:href="AnimationTime_8hpp.html" target="_top" xlink:title="Core/File/KeyFrame\l/AnimationTime.hpp">
<polygon fill="white" stroke="black" points="800,-237 800,-267 904,-267 904,-237 800,-237"/>
<text text-anchor="start" x="808" y="-255" font-family="Helvetica,sans-Serif" font-size="10.00">Core/File/KeyFrame</text>
<text text-anchor="middle" x="852" y="-244" font-family="Helvetica,sans-Serif" font-size="10.00">/AnimationTime.hpp</text>
</a>
</g>
</g>
<!-- Node2&#45;&gt;Node6 -->
<g id="edge5" class="edge"><title>Node2&#45;&gt;Node6</title>
<path fill="none" stroke="midnightblue" d="M172.107,-313.563C339.44,-302.884 699.31,-279.334 789.619,-267.72"/>
<polygon fill="midnightblue" stroke="midnightblue" points="790.279,-271.162 799.691,-266.298 789.3,-264.231 790.279,-271.162"/>
</g>
<!-- Node15 -->
<g id="node15" class="node"><title>Node15</title>
<g id="a_node15"><a xlink:href="RaIO_8hpp.html" target="_top" xlink:title="IO/RaIO.hpp">
<polygon fill="white" stroke="black" points="410,-112.5 410,-131.5 482,-131.5 482,-112.5 410,-112.5"/>
<text text-anchor="middle" x="446" y="-119.5" font-family="Helvetica,sans-Serif" font-size="10.00">IO/RaIO.hpp</text>
</a>
</g>
</g>
<!-- Node2&#45;&gt;Node15 -->
<g id="edge14" class="edge"><title>Node2&#45;&gt;Node15</title>
<path fill="none" stroke="midnightblue" d="M65.3628,-304.817C54.0832,-295.757 41.1815,-282.923 35,-268 16.8053,-224.074 33.5096,-194.477 73,-168 125.451,-132.833 311.945,-125.12 399.706,-123.449"/>
<polygon fill="midnightblue" stroke="midnightblue" points="399.965,-126.946 409.904,-123.274 399.845,-119.947 399.965,-126.946"/>
</g>
<!-- Node4 -->
<g id="node4" class="node"><title>Node4</title>
<polygon fill="white" stroke="#bfbfbf" points="82,-174.5 82,-193.5 134,-193.5 134,-174.5 82,-174.5"/>
<text text-anchor="middle" x="108" y="-181.5" font-family="Helvetica,sans-Serif" font-size="10.00">memory</text>
</g>
<!-- Node3&#45;&gt;Node4 -->
<g id="edge3" class="edge"><title>Node3&#45;&gt;Node4</title>
<path fill="none" stroke="midnightblue" d="M108,-242.372C108,-232.643 108,-216.528 108,-203.85"/>
<polygon fill="midnightblue" stroke="midnightblue" points="111.5,-203.841 108,-193.841 104.5,-203.841 111.5,-203.841"/>
</g>
<!-- Node5 -->
<g id="node5" class="node"><title>Node5</title>
<polygon fill="white" stroke="#bfbfbf" points="178,-174.5 178,-193.5 222,-193.5 222,-174.5 178,-174.5"/>
<text text-anchor="middle" x="200" y="-181.5" font-family="Helvetica,sans-Serif" font-size="10.00">vector</text>
</g>
<!-- Node3&#45;&gt;Node5 -->
<g id="edge4" class="edge"><title>Node3&#45;&gt;Node5</title>
<path fill="none" stroke="midnightblue" d="M120.027,-242.372C135.18,-231.502 161.443,-212.66 179.722,-199.547"/>
<polygon fill="midnightblue" stroke="midnightblue" points="181.884,-202.303 187.97,-193.63 177.804,-196.616 181.884,-202.303"/>
</g>
<!-- Node7 -->
<g id="node7" class="node"><title>Node7</title>
<g id="a_node7"><a xlink:href="CoreMacros_8hpp.html" target="_top" xlink:title="Core/CoreMacros.hpp">
<polygon fill="white" stroke="black" points="423.5,-56.5 423.5,-75.5 536.5,-75.5 536.5,-56.5 423.5,-56.5"/>
<text text-anchor="middle" x="480" y="-63.5" font-family="Helvetica,sans-Serif" font-size="10.00">Core/CoreMacros.hpp</text>
</a>
</g>
</g>
<!-- Node6&#45;&gt;Node7 -->
<g id="edge6" class="edge"><title>Node6&#45;&gt;Node7</title>
<path fill="none" stroke="midnightblue" d="M841.348,-236.904C818.955,-208.359 763.926,-143.743 702,-112 653.523,-87.1507 592.507,-76.0178 546.717,-71.0331"/>
<polygon fill="midnightblue" stroke="midnightblue" points="546.903,-67.5341 536.601,-70.0043 546.195,-74.4981 546.903,-67.5341"/>
</g>
<!-- Node13 -->
<g id="node13" class="node"><title>Node13</title>
<polygon fill="white" stroke="#bfbfbf" points="909,-112.5 909,-131.5 953,-131.5 953,-112.5 909,-112.5"/>
<text text-anchor="middle" x="931" y="-119.5" font-family="Helvetica,sans-Serif" font-size="10.00">cmath</text>
</g>
<!-- Node6&#45;&gt;Node13 -->
<g id="edge12" class="edge"><title>Node6&#45;&gt;Node13</title>
<path fill="none" stroke="midnightblue" d="M849.123,-236.925C846.333,-219.424 844.185,-189.267 857,-168 866.511,-152.215 883.877,-141.23 899.396,-134.067"/>
<polygon fill="midnightblue" stroke="midnightblue" points="900.904,-137.23 908.734,-130.092 898.162,-130.789 900.904,-137.23"/>
</g>
<!-- Node14 -->
<g id="node14" class="node"><title>Node14</title>
<polygon fill="white" stroke="#bfbfbf" points="694,-174.5 694,-193.5 734,-193.5 734,-174.5 694,-174.5"/>
<text text-anchor="middle" x="714" y="-181.5" font-family="Helvetica,sans-Serif" font-size="10.00">limits</text>
</g>
<!-- Node6&#45;&gt;Node14 -->
<g id="edge13" class="edge"><title>Node6&#45;&gt;Node14</title>
<path fill="none" stroke="midnightblue" d="M822.396,-236.841C798.312,-225.323 764.598,-209.199 741.189,-198.004"/>
<polygon fill="midnightblue" stroke="midnightblue" points="742.684,-194.839 732.153,-193.682 739.664,-201.154 742.684,-194.839"/>
</g>
<!-- Node8 -->
<g id="node8" class="node"><title>Node8</title>
<polygon fill="white" stroke="#bfbfbf" points="554.5,-0.5 554.5,-19.5 603.5,-19.5 603.5,-0.5 554.5,-0.5"/>
<text text-anchor="middle" x="579" y="-7.5" font-family="Helvetica,sans-Serif" font-size="10.00">cassert</text>
</g>
<!-- Node7&#45;&gt;Node8 -->
<g id="edge7" class="edge"><title>Node7&#45;&gt;Node8</title>
<path fill="none" stroke="midnightblue" d="M495.906,-56.324C511.638,-47.7428 535.942,-34.486 554.209,-24.5224"/>
<polygon fill="midnightblue" stroke="midnightblue" points="556.03,-27.5157 563.133,-19.6545 552.678,-21.3704 556.03,-27.5157"/>
</g>
<!-- Node9 -->
<g id="node9" class="node"><title>Node9</title>
<polygon fill="white" stroke="#bfbfbf" points="358.5,-0.5 358.5,-19.5 401.5,-19.5 401.5,-0.5 358.5,-0.5"/>
<text text-anchor="middle" x="380" y="-7.5" font-family="Helvetica,sans-Serif" font-size="10.00">cstdio</text>
</g>
<!-- Node7&#45;&gt;Node9 -->
<g id="edge8" class="edge"><title>Node7&#45;&gt;Node9</title>
<path fill="none" stroke="midnightblue" d="M463.933,-56.324C448.042,-47.7428 423.493,-34.486 405.042,-24.5224"/>
<polygon fill="midnightblue" stroke="midnightblue" points="406.489,-21.3264 396.027,-19.6545 403.163,-27.4857 406.489,-21.3264"/>
</g>
<!-- Node10 -->
<g id="node10" class="node"><title>Node10</title>
<polygon fill="white" stroke="#bfbfbf" points="420,-0.5 420,-19.5 474,-19.5 474,-0.5 420,-0.5"/>
<text text-anchor="middle" x="447" y="-7.5" font-family="Helvetica,sans-Serif" font-size="10.00">iostream</text>
</g>
<!-- Node7&#45;&gt;Node10 -->
<g id="edge9" class="edge"><title>Node7&#45;&gt;Node10</title>
<path fill="none" stroke="midnightblue" d="M474.551,-56.083C469.986,-48.6127 463.332,-37.7244 457.707,-28.5199"/>
<polygon fill="midnightblue" stroke="midnightblue" points="460.549,-26.4588 452.348,-19.7511 454.576,-30.109 460.549,-26.4588"/>
</g>
<!-- Node11 -->
<g id="node11" class="node"><title>Node11</title>
<polygon fill="white" stroke="#bfbfbf" points="189,-0.5 189,-19.5 241,-19.5 241,-0.5 189,-0.5"/>
<text text-anchor="middle" x="215" y="-7.5" font-family="Helvetica,sans-Serif" font-size="10.00">sstream</text>
</g>
<!-- Node7&#45;&gt;Node11 -->
<g id="edge10" class="edge"><title>Node7&#45;&gt;Node11</title>
<path fill="none" stroke="midnightblue" d="M438.01,-56.4435C386.479,-45.9428 299.961,-28.3128 251.22,-18.3807"/>
<polygon fill="midnightblue" stroke="midnightblue" points="251.627,-14.8918 241.13,-16.3245 250.229,-21.7508 251.627,-14.8918"/>
</g>
<!-- Node12 -->
<g id="node12" class="node"><title>Node12</title>
<polygon fill="white" stroke="#bfbfbf" points="492,-0.5 492,-19.5 536,-19.5 536,-0.5 492,-0.5"/>
<text text-anchor="middle" x="514" y="-7.5" font-family="Helvetica,sans-Serif" font-size="10.00">thread</text>
</g>
<!-- Node7&#45;&gt;Node12 -->
<g id="edge11" class="edge"><title>Node7&#45;&gt;Node12</title>
<path fill="none" stroke="midnightblue" d="M485.614,-56.083C490.367,-48.5341 497.318,-37.4948 503.152,-28.2298"/>
<polygon fill="midnightblue" stroke="midnightblue" points="506.124,-30.0783 508.49,-19.7511 500.2,-26.3486 506.124,-30.0783"/>
</g>
<!-- Node15&#45;&gt;Node7 -->
<g id="edge15" class="edge"><title>Node15&#45;&gt;Node7</title>
<path fill="none" stroke="midnightblue" d="M451.614,-112.083C456.367,-104.534 463.318,-93.4948 469.152,-84.2298"/>
<polygon fill="midnightblue" stroke="midnightblue" points="472.124,-86.0783 474.49,-75.7511 466.2,-82.3486 472.124,-86.0783"/>
</g>
<!-- Node19&#45;&gt;Node5 -->
<g id="edge21" class="edge"><title>Node19&#45;&gt;Node5</title>
<path fill="none" stroke="midnightblue" d="M556.291,-441.102C513.918,-434.681 459.939,-423.393 415,-404 317.65,-361.989 278.396,-355.83 219,-268 205.895,-248.622 201.732,-221.485 200.463,-203.587"/>
<polygon fill="midnightblue" stroke="midnightblue" points="203.957,-203.383 199.988,-193.56 196.965,-203.715 203.957,-203.383"/>
</g>
<!-- Node19&#45;&gt;Node6 -->
<g id="edge26" class="edge"><title>Node19&#45;&gt;Node6</title>
<path fill="none" stroke="midnightblue" d="M637.914,-440.325C671.21,-411.191 779.654,-316.303 828.166,-273.854"/>
<polygon fill="midnightblue" stroke="midnightblue" points="830.737,-276.256 835.958,-267.037 826.127,-270.988 830.737,-276.256"/>
</g>
<!-- Node20 -->
<g id="node20" class="node"><title>Node20</title>
<polygon fill="white" stroke="#bfbfbf" points="550.5,-174.5 550.5,-193.5 591.5,-193.5 591.5,-174.5 550.5,-174.5"/>
<text text-anchor="middle" x="571" y="-181.5" font-family="Helvetica,sans-Serif" font-size="10.00">string</text>
</g>
<!-- Node19&#45;&gt;Node20 -->
<g id="edge20" class="edge"><title>Node19&#45;&gt;Node20</title>
<path fill="none" stroke="midnightblue" d="M625.038,-440.452C621.993,-431.457 617.25,-416.85 614,-404 595.487,-330.809 580.245,-242.167 574.02,-203.992"/>
<polygon fill="midnightblue" stroke="midnightblue" points="577.43,-203.154 572.384,-193.838 570.519,-204.268 577.43,-203.154"/>
</g>
<!-- Node21 -->
<g id="node21" class="node"><title>Node21</title>
<g id="a_node21"><a xlink:href="AssetData_8hpp.html" target="_top" xlink:title="Core/File/AssetData.hpp">
<polygon fill="white" stroke="black" points="656.5,-242.5 656.5,-261.5 781.5,-261.5 781.5,-242.5 656.5,-242.5"/>
<text text-anchor="middle" x="719" y="-249.5" font-family="Helvetica,sans-Serif" font-size="10.00">Core/File/AssetData.hpp</text>
</a>
</g>
</g>
<!-- Node19&#45;&gt;Node21 -->
<g id="edge22" class="edge"><title>Node19&#45;&gt;Node21</title>
<path fill="none" stroke="midnightblue" d="M631.303,-440.349C640.062,-417.626 664.934,-354.523 690,-304 695.704,-292.503 702.818,-279.969 708.573,-270.204"/>
<polygon fill="midnightblue" stroke="midnightblue" points="711.647,-271.882 713.772,-261.502 705.638,-268.291 711.647,-271.882"/>
</g>
<!-- Node22 -->
<g id="node22" class="node"><title>Node22</title>
<g id="a_node22"><a xlink:href="RaCore_8hpp.html" target="_top" xlink:title="Core/RaCore.hpp">
<polygon fill="white" stroke="black" points="600.5,-112.5 600.5,-131.5 693.5,-131.5 693.5,-112.5 600.5,-112.5"/>
<text text-anchor="middle" x="647" y="-119.5" font-family="Helvetica,sans-Serif" font-size="10.00">Core/RaCore.hpp</text>
</a>
</g>
</g>
<!-- Node19&#45;&gt;Node22 -->
<g id="edge48" class="edge"><title>Node19&#45;&gt;Node22</title>
<path fill="none" stroke="midnightblue" d="M628,-440.309C628,-419.633 628,-365.889 628,-321 628,-321 628,-321 628,-251 628,-211.646 636.896,-166.217 642.514,-141.453"/>
<polygon fill="midnightblue" stroke="midnightblue" points="645.943,-142.161 644.82,-131.626 639.128,-140.561 645.943,-142.161"/>
</g>
<!-- Node23 -->
<g id="node23" class="node"><title>Node23</title>
<g id="a_node23"><a xlink:href="KeyTransform_8hpp.html" target="_top" xlink:title="Core/File/KeyFrame\l/KeyTransform.hpp">
<polygon fill="white" stroke="black" points="732,-373 732,-403 836,-403 836,-373 732,-373"/>
<text text-anchor="start" x="740" y="-391" font-family="Helvetica,sans-Serif" font-size="10.00">Core/File/KeyFrame</text>
<text text-anchor="middle" x="784" y="-380" font-family="Helvetica,sans-Serif" font-size="10.00">/KeyTransform.hpp</text>
</a>
</g>
</g>
<!-- Node19&#45;&gt;Node23 -->
<g id="edge27" class="edge"><title>Node19&#45;&gt;Node23</title>
<path fill="none" stroke="midnightblue" d="M650.351,-440.403C673.134,-431.641 709.135,-417.794 738.035,-406.679"/>
<polygon fill="midnightblue" stroke="midnightblue" points="739.457,-409.882 747.534,-403.025 736.944,-403.348 739.457,-409.882"/>
</g>
<!-- Node37 -->
<g id="node37" class="node"><title>Node37</title>
<g id="a_node37"><a xlink:href="AnimationData_8inl.html" target="_top" xlink:title="Core/File/AnimationData.inl">
<polygon fill="white" stroke="black" points="424.5,-378.5 424.5,-397.5 561.5,-397.5 561.5,-378.5 424.5,-378.5"/>
<text text-anchor="middle" x="493" y="-385.5" font-family="Helvetica,sans-Serif" font-size="10.00">Core/File/AnimationData.inl</text>
</a>
</g>
</g>
<!-- Node19&#45;&gt;Node37 -->
<g id="edge49" class="edge"><title>Node19&#45;&gt;Node37</title>
<path fill="none" stroke="midnightblue" d="M603.757,-440.403C579.033,-430.379 541.246,-413.701 516.722,-402.07"/>
<polygon fill="midnightblue" stroke="midnightblue" points="517.937,-398.77 507.409,-397.581 514.897,-405.076 517.937,-398.77"/>
</g>
<!-- Node21&#45;&gt;Node20 -->
<g id="edge25" class="edge"><title>Node21&#45;&gt;Node20</title>
<path fill="none" stroke="midnightblue" d="M699.652,-242.372C674.168,-231.007 629.148,-210.931 599.694,-197.796"/>
<polygon fill="midnightblue" stroke="midnightblue" points="600.912,-194.507 590.353,-193.63 598.061,-200.9 600.912,-194.507"/>
</g>
<!-- Node21&#45;&gt;Node22 -->
<g id="edge23" class="edge"><title>Node21&#45;&gt;Node22</title>
<path fill="none" stroke="midnightblue" d="M712.621,-242.195C705.502,-232.203 693.827,-215.301 685,-200 673.635,-180.298 662.319,-156.728 655.03,-140.901"/>
<polygon fill="midnightblue" stroke="midnightblue" points="658.188,-139.39 650.862,-131.736 651.816,-142.287 658.188,-139.39"/>
</g>
<!-- Node22&#45;&gt;Node7 -->
<g id="edge24" class="edge"><title>Node22&#45;&gt;Node7</title>
<path fill="none" stroke="midnightblue" d="M620.538,-112.444C592.322,-103.32 547.46,-88.8133 516.032,-78.6509"/>
<polygon fill="midnightblue" stroke="midnightblue" points="516.93,-75.263 506.338,-75.5164 514.776,-81.9234 516.93,-75.263"/>
</g>
<!-- Node24 -->
<g id="node24" class="node"><title>Node24</title>
<g id="a_node24"><a xlink:href="Interpolation_8hpp.html" target="_top" xlink:title="Core/File/KeyFrame\l/Interpolation.hpp">
<polygon fill="white" stroke="black" points="1090,-305 1090,-335 1194,-335 1194,-305 1090,-305"/>
<text text-anchor="start" x="1098" y="-323" font-family="Helvetica,sans-Serif" font-size="10.00">Core/File/KeyFrame</text>
<text text-anchor="middle" x="1142" y="-312" font-family="Helvetica,sans-Serif" font-size="10.00">/Interpolation.hpp</text>
</a>
</g>
</g>
<!-- Node23&#45;&gt;Node24 -->
<g id="edge28" class="edge"><title>Node23&#45;&gt;Node24</title>
<path fill="none" stroke="midnightblue" d="M836.175,-373.844C839.155,-373.194 842.112,-372.574 845,-372 945.915,-351.938 975.177,-356.387 1079.8,-336.127"/>
<polygon fill="midnightblue" stroke="midnightblue" points="1080.69,-339.52 1089.83,-334.156 1079.34,-332.652 1080.69,-339.52"/>
</g>
<!-- Node33 -->
<g id="node33" class="node"><title>Node33</title>
<g id="a_node33"><a xlink:href="KeyFrame_8hpp.html" target="_top" xlink:title="Core/File/KeyFrame\l/KeyFrame.hpp">
<polygon fill="white" stroke="black" points="968,-305 968,-335 1072,-335 1072,-305 968,-305"/>
<text text-anchor="start" x="976" y="-323" font-family="Helvetica,sans-Serif" font-size="10.00">Core/File/KeyFrame</text>
<text text-anchor="middle" x="1020" y="-312" font-family="Helvetica,sans-Serif" font-size="10.00">/KeyFrame.hpp</text>
</a>
</g>
</g>
<!-- Node23&#45;&gt;Node33 -->
<g id="edge40" class="edge"><title>Node23&#45;&gt;Node33</title>
<path fill="none" stroke="midnightblue" d="M834.338,-372.922C870.997,-362.67 920.816,-348.738 959.618,-337.887"/>
<polygon fill="midnightblue" stroke="midnightblue" points="961.051,-341.12 969.739,-335.056 959.166,-334.379 961.051,-341.12"/>
</g>
<!-- Node25 -->
<g id="node25" class="node"><title>Node25</title>
<g id="a_node25"><a xlink:href="LinearAlgebra_8hpp.html" target="_top" xlink:title="Core/Math/LinearAlgebra.hpp">
<polygon fill="white" stroke="black" points="1173.5,-242.5 1173.5,-261.5 1316.5,-261.5 1316.5,-242.5 1173.5,-242.5"/>
<text text-anchor="middle" x="1245" y="-249.5" font-family="Helvetica,sans-Serif" font-size="10.00">Core/Math/LinearAlgebra.hpp</text>
</a>
</g>
</g>
<!-- Node24&#45;&gt;Node25 -->
<g id="edge29" class="edge"><title>Node24&#45;&gt;Node25</title>
<path fill="none" stroke="midnightblue" d="M1164.1,-304.841C1181.35,-293.784 1205.23,-278.481 1222.57,-267.37"/>
<polygon fill="midnightblue" stroke="midnightblue" points="1224.92,-270.024 1231.45,-261.682 1221.14,-264.13 1224.92,-270.024"/>
</g>
<!-- Node25&#45;&gt;Node22 -->
<g id="edge30" class="edge"><title>Node25&#45;&gt;Node22</title>
<path fill="none" stroke="midnightblue" d="M1199.32,-242.495C1128.3,-229.186 998.486,-204.488 989,-200 968.732,-190.412 970.497,-177.087 950,-168 869.521,-132.322 766.431,-123.969 703.621,-122.521"/>
<polygon fill="midnightblue" stroke="midnightblue" points="703.578,-119.02 693.517,-122.34 703.452,-126.018 703.578,-119.02"/>
</g>
<!-- Node26 -->
<g id="node26" class="node"><title>Node26</title>
<polygon fill="white" stroke="#bfbfbf" points="1428.5,-174.5 1428.5,-193.5 1493.5,-193.5 1493.5,-174.5 1428.5,-174.5"/>
<text text-anchor="middle" x="1461" y="-181.5" font-family="Helvetica,sans-Serif" font-size="10.00">Eigen/Core</text>
</g>
<!-- Node25&#45;&gt;Node26 -->
<g id="edge31" class="edge"><title>Node25&#45;&gt;Node26</title>
<path fill="none" stroke="midnightblue" d="M1276.28,-242.42C1311.24,-232.695 1369.45,-216.095 1419,-200 1421.92,-199.05 1424.95,-198.034 1427.98,-196.994"/>
<polygon fill="midnightblue" stroke="midnightblue" points="1429.25,-200.258 1437.54,-193.651 1426.94,-193.651 1429.25,-200.258"/>
</g>
<!-- Node27 -->
<g id="node27" class="node"><title>Node27</title>
<polygon fill="white" stroke="#bfbfbf" points="1511.5,-174.5 1511.5,-193.5 1598.5,-193.5 1598.5,-174.5 1511.5,-174.5"/>
<text text-anchor="middle" x="1555" y="-181.5" font-family="Helvetica,sans-Serif" font-size="10.00">Eigen/Geometry</text>
</g>
<!-- Node25&#45;&gt;Node27 -->
<g id="edge32" class="edge"><title>Node25&#45;&gt;Node27</title>
<path fill="none" stroke="midnightblue" d="M1294.04,-242.472C1345.95,-233.166 1430.13,-217.273 1502,-200 1506.75,-198.859 1511.71,-197.576 1516.61,-196.254"/>
<polygon fill="midnightblue" stroke="midnightblue" points="1517.8,-199.557 1526.5,-193.517 1515.93,-192.811 1517.8,-199.557"/>
</g>
<!-- Node28 -->
<g id="node28" class="node"><title>Node28</title>
<polygon fill="white" stroke="#bfbfbf" points="1616.5,-174.5 1616.5,-193.5 1691.5,-193.5 1691.5,-174.5 1616.5,-174.5"/>
<text text-anchor="middle" x="1654" y="-181.5" font-family="Helvetica,sans-Serif" font-size="10.00">Eigen/Sparse</text>
</g>
<!-- Node25&#45;&gt;Node28 -->
<g id="edge33" class="edge"><title>Node25&#45;&gt;Node28</title>
<path fill="none" stroke="midnightblue" d="M1316.74,-244.504C1390.25,-237.007 1507.53,-222.707 1607,-200 1611.23,-199.035 1615.62,-197.865 1619.95,-196.609"/>
<polygon fill="midnightblue" stroke="midnightblue" points="1621.29,-199.858 1629.82,-193.578 1619.24,-193.167 1621.29,-199.858"/>
</g>
<!-- Node29 -->
<g id="node29" class="node"><title>Node29</title>
<polygon fill="white" stroke="#bfbfbf" points="1709.5,-174.5 1709.5,-193.5 1768.5,-193.5 1768.5,-174.5 1709.5,-174.5"/>
<text text-anchor="middle" x="1739" y="-181.5" font-family="Helvetica,sans-Serif" font-size="10.00">functional</text>
</g>
<!-- Node25&#45;&gt;Node29 -->
<g id="edge34" class="edge"><title>Node25&#45;&gt;Node29</title>
<path fill="none" stroke="midnightblue" d="M1316.52,-248.62C1406.98,-244.331 1566.99,-232.466 1700,-200 1703.24,-199.209 1706.58,-198.218 1709.87,-197.124"/>
<polygon fill="midnightblue" stroke="midnightblue" points="1711.27,-200.339 1719.47,-193.632 1708.88,-193.76 1711.27,-200.339"/>
</g>
<!-- Node30 -->
<g id="node30" class="node"><title>Node30</title>
<polygon fill="white" stroke="#bfbfbf" points="1122.5,-169 1122.5,-199 1255.5,-199 1255.5,-169 1122.5,-169"/>
<text text-anchor="start" x="1130.5" y="-187" font-family="Helvetica,sans-Serif" font-size="10.00">unsupported/Eigen/Aligned</text>
<text text-anchor="middle" x="1189" y="-176" font-family="Helvetica,sans-Serif" font-size="10.00">Vector3</text>
</g>
<!-- Node25&#45;&gt;Node30 -->
<g id="edge35" class="edge"><title>Node25&#45;&gt;Node30</title>
<path fill="none" stroke="midnightblue" d="M1237.68,-242.372C1230.12,-233.457 1218,-219.182 1207.75,-207.101"/>
<polygon fill="midnightblue" stroke="midnightblue" points="1210.17,-204.542 1201.03,-199.181 1204.83,-209.071 1210.17,-204.542"/>
</g>
<!-- Node31 -->
<g id="node31" class="node"><title>Node31</title>
<g id="a_node31"><a xlink:href="Math_8hpp.html" target="_top" xlink:title="Core/Math/Math.hpp">
<polygon fill="white" stroke="red" points="998,-174.5 998,-193.5 1104,-193.5 1104,-174.5 998,-174.5"/>
<text text-anchor="middle" x="1051" y="-181.5" font-family="Helvetica,sans-Serif" font-size="10.00">Core/Math/Math.hpp</text>
</a>
</g>
</g>
<!-- Node25&#45;&gt;Node31 -->
<g id="edge36" class="edge"><title>Node25&#45;&gt;Node31</title>
<path fill="none" stroke="midnightblue" d="M1219.64,-242.372C1185.41,-230.728 1124.31,-209.939 1085.81,-196.841"/>
<polygon fill="midnightblue" stroke="midnightblue" points="1086.66,-193.433 1076.06,-193.526 1084.4,-200.06 1086.66,-193.433"/>
</g>
<!-- Node32 -->
<g id="node32" class="node"><title>Node32</title>
<g id="a_node32"><a xlink:href="LinearAlgebra_8inl.html" target="_top" xlink:title="Core/Math/LinearAlgebra.inl">
<polygon fill="white" stroke="black" points="1273.5,-174.5 1273.5,-193.5 1410.5,-193.5 1410.5,-174.5 1273.5,-174.5"/>
<text text-anchor="middle" x="1342" y="-181.5" font-family="Helvetica,sans-Serif" font-size="10.00">Core/Math/LinearAlgebra.inl</text>
</a>
</g>
</g>
<!-- Node25&#45;&gt;Node32 -->
<g id="edge39" class="edge"><title>Node25&#45;&gt;Node32</title>
<path fill="none" stroke="midnightblue" d="M1257.68,-242.372C1273.73,-231.452 1301.6,-212.489 1320.88,-199.369"/>
<polygon fill="midnightblue" stroke="midnightblue" points="1323.02,-202.15 1329.32,-193.63 1319.08,-196.362 1323.02,-202.15"/>
</g>
<!-- Node31&#45;&gt;Node13 -->
<g id="edge38" class="edge"><title>Node31&#45;&gt;Node13</title>
<path fill="none" stroke="midnightblue" d="M1033.81,-174.403C1013.76,-164.379 980.401,-147.701 957.14,-136.07"/>
<polygon fill="midnightblue" stroke="midnightblue" points="958.671,-132.922 948.161,-131.581 955.54,-139.183 958.671,-132.922"/>
</g>
<!-- Node31&#45;&gt;Node22 -->
<g id="edge37" class="edge"><title>Node31&#45;&gt;Node22</title>
<path fill="none" stroke="midnightblue" d="M1015.65,-174.478C1005.47,-172.19 994.327,-169.842 984,-168 885.892,-150.502 770.613,-136.512 703.483,-129.013"/>
<polygon fill="midnightblue" stroke="midnightblue" points="703.859,-125.533 693.534,-127.91 703.087,-132.49 703.859,-125.533"/>
</g>
<!-- Node33&#45;&gt;Node6 -->
<g id="edge47" class="edge"><title>Node33&#45;&gt;Node6</title>
<path fill="none" stroke="midnightblue" d="M983.96,-304.841C958.517,-294.846 924.247,-281.383 897.008,-270.682"/>
<polygon fill="midnightblue" stroke="midnightblue" points="898.279,-267.421 887.692,-267.022 895.72,-273.936 898.279,-267.421"/>
</g>
<!-- Node33&#45;&gt;Node18 -->
<g id="edge42" class="edge"><title>Node33&#45;&gt;Node18</title>
<path fill="none" stroke="midnightblue" d="M1072.14,-305.666C1075.13,-305.062 1078.1,-304.5 1081,-304 1264.26,-272.413 1488.41,-258.313 1562.73,-254.28"/>
<polygon fill="midnightblue" stroke="midnightblue" points="1563.16,-257.762 1572.96,-253.737 1562.79,-250.771 1563.16,-257.762"/>
</g>
<!-- Node33&#45;&gt;Node25 -->
<g id="edge46" class="edge"><title>Node33&#45;&gt;Node25</title>
<path fill="none" stroke="midnightblue" d="M1067.99,-304.922C1109.22,-292.828 1167.91,-275.613 1206.22,-264.375"/>
<polygon fill="midnightblue" stroke="midnightblue" points="1207.37,-267.687 1215.98,-261.514 1205.39,-260.97 1207.37,-267.687"/>
</g>
<!-- Node34 -->
<g id="node34" class="node"><title>Node34</title>
<polygon fill="white" stroke="#bfbfbf" points="1120.5,-242.5 1120.5,-261.5 1155.5,-261.5 1155.5,-242.5 1120.5,-242.5"/>
<text text-anchor="middle" x="1138" y="-249.5" font-family="Helvetica,sans-Serif" font-size="10.00">map</text>
</g>
<!-- Node33&#45;&gt;Node34 -->
<g id="edge41" class="edge"><title>Node33&#45;&gt;Node34</title>
<path fill="none" stroke="midnightblue" d="M1045.31,-304.841C1065.54,-293.528 1093.71,-277.771 1113.68,-266.605"/>
<polygon fill="midnightblue" stroke="midnightblue" points="1115.46,-269.618 1122.48,-261.682 1112.04,-263.509 1115.46,-269.618"/>
</g>
<!-- Node35 -->
<g id="node35" class="node"><title>Node35</title>
<g id="a_node35"><a xlink:href="AlignedAllocator_8hpp.html" target="_top" xlink:title="Core/Containers/AlignedAllocator.hpp">
<polygon fill="white" stroke="red" points="922,-242.5 922,-261.5 1102,-261.5 1102,-242.5 922,-242.5"/>
<text text-anchor="middle" x="1012" y="-249.5" font-family="Helvetica,sans-Serif" font-size="10.00">Core/Containers/AlignedAllocator.hpp</text>
</a>
</g>
</g>
<!-- Node33&#45;&gt;Node35 -->
<g id="edge43" class="edge"><title>Node33&#45;&gt;Node35</title>
<path fill="none" stroke="midnightblue" d="M1018.26,-304.679C1017.1,-295.101 1015.56,-282.394 1014.3,-271.977"/>
<polygon fill="midnightblue" stroke="midnightblue" points="1017.75,-271.334 1013.07,-261.828 1010.8,-272.177 1017.75,-271.334"/>
</g>
<!-- Node35&#45;&gt;Node22 -->
<g id="edge44" class="edge"><title>Node35&#45;&gt;Node22</title>
<path fill="none" stroke="midnightblue" d="M985.026,-242.428C954.03,-232.507 901.685,-215.539 857,-200 793.637,-177.966 720.16,-150.605 679.074,-135.141"/>
<polygon fill="midnightblue" stroke="midnightblue" points="680.188,-131.82 669.596,-131.568 677.719,-138.37 680.188,-131.82"/>
</g>
<!-- Node36 -->
<g id="node36" class="node"><title>Node36</title>
<polygon fill="white" stroke="#bfbfbf" points="866.5,-174.5 866.5,-193.5 941.5,-193.5 941.5,-174.5 866.5,-174.5"/>
<text text-anchor="middle" x="904" y="-181.5" font-family="Helvetica,sans-Serif" font-size="10.00">mm_malloc.h</text>
</g>
<!-- Node35&#45;&gt;Node36 -->
<g id="edge45" class="edge"><title>Node35&#45;&gt;Node36</title>
<path fill="none" stroke="midnightblue" d="M997.881,-242.372C979.851,-231.353 948.419,-212.145 926.932,-199.014"/>
<polygon fill="midnightblue" stroke="midnightblue" points="928.481,-195.859 918.123,-193.63 924.83,-201.832 928.481,-195.859"/>
</g>
<!-- Node37&#45;&gt;Node19 -->
<g id="edge50" class="edge"><title>Node37&#45;&gt;Node19</title>
<path fill="none" stroke="midnightblue" d="M517.203,-397.581C541.914,-407.598 579.701,-424.276 604.239,-435.912"/>
<polygon fill="midnightblue" stroke="midnightblue" points="603.03,-439.214 613.558,-440.403 606.07,-432.909 603.03,-439.214"/>
</g>
<!-- Node37&#45;&gt;Node38 -->
<g id="edge51" class="edge"><title>Node37&#45;&gt;Node38</title>
<path fill="none" stroke="midnightblue" d="M481.888,-378.372C468.016,-367.6 444.063,-349.002 427.198,-335.906"/>
<polygon fill="midnightblue" stroke="midnightblue" points="429.16,-332.999 419.115,-329.63 424.867,-338.528 429.16,-332.999"/>
</g>
<!-- Node38&#45;&gt;Node11 -->
<g id="edge53" class="edge"><title>Node38&#45;&gt;Node11</title>
<path fill="none" stroke="midnightblue" d="M360.758,-315.527C265.776,-308.121 58.6928,-289.669 35,-268 7.07507,-242.46 16,-222.843 16,-185 16,-185 16,-185 16,-121 16,-47.4184 121.501,-22.6718 178.869,-14.6547"/>
<polygon fill="midnightblue" stroke="midnightblue" points="179.517,-18.1001 188.984,-13.3444 178.617,-11.1581 179.517,-18.1001"/>
</g>
<!-- Node38&#45;&gt;Node20 -->
<g id="edge55" class="edge"><title>Node38&#45;&gt;Node20</title>
<path fill="none" stroke="midnightblue" d="M444.993,-310.424C470.804,-302.868 504.671,-289.617 528,-268 547.205,-250.204 559.282,-221.873 565.587,-203.354"/>
<polygon fill="midnightblue" stroke="midnightblue" points="568.95,-204.328 568.643,-193.738 562.279,-202.208 568.95,-204.328"/>
</g>
<!-- Node38&#45;&gt;Node22 -->
<g id="edge52" class="edge"><title>Node38&#45;&gt;Node22</title>
<path fill="none" stroke="midnightblue" d="M430.565,-310.355C449.816,-302.007 477.137,-287.726 495,-268 527.837,-231.737 505.898,-202.076 541,-168 557.273,-152.203 579.937,-141.57 600.134,-134.626"/>
<polygon fill="midnightblue" stroke="midnightblue" points="601.367,-137.906 609.811,-131.508 599.22,-131.244 601.367,-137.906"/>
</g>
<!-- Node39 -->
<g id="node39" class="node"><title>Node39</title>
<polygon fill="white" stroke="#bfbfbf" points="228,-242.5 228,-261.5 274,-261.5 274,-242.5 228,-242.5"/>
<text text-anchor="middle" x="251" y="-249.5" font-family="Helvetica,sans-Serif" font-size="10.00">stdio.h</text>
</g>
<!-- Node38&#45;&gt;Node39 -->
<g id="edge54" class="edge"><title>Node38&#45;&gt;Node39</title>
<path fill="none" stroke="midnightblue" d="M386.181,-310.488C361.123,-300.623 318.853,-283.705 283,-268 281.416,-267.306 279.793,-266.583 278.158,-265.846"/>
<polygon fill="midnightblue" stroke="midnightblue" points="279.414,-262.571 268.867,-261.571 276.488,-268.931 279.414,-262.571"/>
</g>
<!-- Node40 -->
<g id="node40" class="node"><title>Node40</title>
<g id="a_node40"><a xlink:href="StringUtils_8hpp.html" target="_top" xlink:title="Core/String/StringUtils.hpp">
<polygon fill="white" stroke="black" points="352,-242.5 352,-261.5 486,-261.5 486,-242.5 352,-242.5"/>
<text text-anchor="middle" x="419" y="-249.5" font-family="Helvetica,sans-Serif" font-size="10.00">Core/String/StringUtils.hpp</text>
</a>
</g>
</g>
<!-- Node38&#45;&gt;Node40 -->
<g id="edge56" class="edge"><title>Node38&#45;&gt;Node40</title>
<path fill="none" stroke="midnightblue" d="M409.438,-310.372C411.06,-300.643 413.745,-284.528 415.858,-271.85"/>
<polygon fill="midnightblue" stroke="midnightblue" points="419.335,-272.28 417.526,-261.841 412.43,-271.13 419.335,-272.28"/>
</g>
<!-- Node41 -->
<g id="node41" class="node"><title>Node41</title>
<polygon fill="white" stroke="#bfbfbf" points="292.5,-242.5 292.5,-261.5 333.5,-261.5 333.5,-242.5 292.5,-242.5"/>
<text text-anchor="middle" x="313" y="-249.5" font-family="Helvetica,sans-Serif" font-size="10.00">ctime</text>
</g>
<!-- Node38&#45;&gt;Node41 -->
<g id="edge60" class="edge"><title>Node38&#45;&gt;Node41</title>
<path fill="none" stroke="midnightblue" d="M395.58,-310.372C379.863,-299.452 352.567,-280.489 333.683,-267.369"/>
<polygon fill="midnightblue" stroke="midnightblue" points="335.632,-264.462 325.423,-261.63 331.638,-270.21 335.632,-264.462"/>
</g>
<!-- Node40&#45;&gt;Node5 -->
<g id="edge59" class="edge"><title>Node40&#45;&gt;Node5</title>
<path fill="none" stroke="midnightblue" d="M390.37,-242.372C349.367,-230.015 274.183,-207.356 231.599,-194.523"/>
<polygon fill="midnightblue" stroke="midnightblue" points="232.605,-191.171 222.02,-191.636 230.585,-197.873 232.605,-191.171"/>
</g>
<!-- Node40&#45;&gt;Node20 -->
<g id="edge58" class="edge"><title>Node40&#45;&gt;Node20</title>
<path fill="none" stroke="midnightblue" d="M438.871,-242.372C465.157,-230.958 511.683,-210.756 541.924,-197.625"/>
<polygon fill="midnightblue" stroke="midnightblue" points="543.345,-200.824 551.124,-193.63 540.557,-194.403 543.345,-200.824"/>
</g>
<!-- Node40&#45;&gt;Node22 -->
<g id="edge57" class="edge"><title>Node40&#45;&gt;Node22</title>
<path fill="none" stroke="midnightblue" d="M425.083,-242.33C437.327,-225.511 466.645,-188.328 500,-168 527.625,-151.165 562.044,-140.183 590.631,-133.287"/>
<polygon fill="midnightblue" stroke="midnightblue" points="591.522,-136.674 600.479,-131.015 589.948,-129.853 591.522,-136.674"/>
</g>
<!-- Node42&#45;&gt;Node24 -->
<g id="edge62" class="edge"><title>Node42&#45;&gt;Node24</title>
<path fill="none" stroke="midnightblue" d="M956.338,-372.922C992.997,-362.67 1042.82,-348.738 1081.62,-337.887"/>
<polygon fill="midnightblue" stroke="midnightblue" points="1083.05,-341.12 1091.74,-335.056 1081.17,-334.379 1083.05,-341.12"/>
</g>
<!-- Node42&#45;&gt;Node33 -->
<g id="edge63" class="edge"><title>Node42&#45;&gt;Node33</title>
<path fill="none" stroke="midnightblue" d="M930.456,-372.841C946.835,-363.359 968.607,-350.754 986.58,-340.348"/>
<polygon fill="midnightblue" stroke="midnightblue" points="988.684,-343.175 995.585,-335.135 985.177,-337.117 988.684,-343.175"/>
</g>
<!-- Node43&#45;&gt;Node24 -->
<g id="edge65" class="edge"><title>Node43&#45;&gt;Node24</title>
<path fill="none" stroke="midnightblue" d="M1052.46,-372.841C1068.84,-363.359 1090.61,-350.754 1108.58,-340.348"/>
<polygon fill="midnightblue" stroke="midnightblue" points="1110.68,-343.175 1117.58,-335.135 1107.18,-337.117 1110.68,-343.175"/>
</g>
<!-- Node43&#45;&gt;Node33 -->
<g id="edge66" class="edge"><title>Node43&#45;&gt;Node33</title>
<path fill="none" stroke="midnightblue" d="M1026.26,-372.679C1025.3,-364.722 1024.07,-354.605 1022.96,-345.436"/>
<polygon fill="midnightblue" stroke="midnightblue" points="1026.41,-344.799 1021.73,-335.293 1019.46,-345.642 1026.41,-344.799"/>
</g>
<!-- Node44&#45;&gt;Node24 -->
<g id="edge68" class="edge"><title>Node44&#45;&gt;Node24</title>
<path fill="none" stroke="midnightblue" d="M1148.26,-372.679C1147.3,-364.722 1146.07,-354.605 1144.96,-345.436"/>
<polygon fill="midnightblue" stroke="midnightblue" points="1148.41,-344.799 1143.73,-335.293 1141.46,-345.642 1148.41,-344.799"/>
</g>
<!-- Node44&#45;&gt;Node33 -->
<g id="edge69" class="edge"><title>Node44&#45;&gt;Node33</title>
<path fill="none" stroke="midnightblue" d="M1122.11,-372.841C1103.09,-363.185 1077.69,-350.29 1056.99,-339.778"/>
<polygon fill="midnightblue" stroke="midnightblue" points="1058.34,-336.541 1047.84,-335.135 1055.17,-342.783 1058.34,-336.541"/>
</g>
<!-- Node45&#45;&gt;Node25 -->
<g id="edge77" class="edge"><title>Node45&#45;&gt;Node25</title>
<path fill="none" stroke="midnightblue" d="M1354.69,-440.458C1313.06,-433.047 1262.2,-420.848 1249,-404 1218.74,-365.395 1230.56,-302.601 1239.13,-271.568"/>
<polygon fill="midnightblue" stroke="midnightblue" points="1242.57,-272.258 1242.05,-261.676 1235.86,-270.273 1242.57,-272.258"/>
</g>
<!-- Node46 -->
<g id="node46" class="node"><title>Node46</title>
<polygon fill="white" stroke="#bfbfbf" points="1258,-378.5 1258,-397.5 1344,-397.5 1344,-378.5 1258,-378.5"/>
<text text-anchor="middle" x="1301" y="-385.5" font-family="Helvetica,sans-Serif" font-size="10.00">assimp/color4.h</text>
</g>
<!-- Node45&#45;&gt;Node46 -->
<g id="edge72" class="edge"><title>Node45&#45;&gt;Node46</title>
<path fill="none" stroke="midnightblue" d="M1396.95,-440.403C1378.41,-430.468 1347.66,-413.997 1325.98,-402.381"/>
<polygon fill="midnightblue" stroke="midnightblue" points="1327.48,-399.218 1317.02,-397.581 1324.18,-405.388 1327.48,-399.218"/>
</g>
<!-- Node47 -->
<g id="node47" class="node"><title>Node47</title>
<polygon fill="white" stroke="#bfbfbf" points="1362,-378.5 1362,-397.5 1464,-397.5 1464,-378.5 1362,-378.5"/>
<text text-anchor="middle" x="1413" y="-385.5" font-family="Helvetica,sans-Serif" font-size="10.00">assimp/matrix4x4.h</text>
</g>
<!-- Node45&#45;&gt;Node47 -->
<g id="edge73" class="edge"><title>Node45&#45;&gt;Node47</title>
<path fill="none" stroke="midnightblue" d="M1413,-440.403C1413,-431.938 1413,-418.728 1413,-407.82"/>
<polygon fill="midnightblue" stroke="midnightblue" points="1416.5,-407.581 1413,-397.581 1409.5,-407.581 1416.5,-407.581"/>
</g>
<!-- Node48 -->
<g id="node48" class="node"><title>Node48</title>
<polygon fill="white" stroke="#bfbfbf" points="1482,-378.5 1482,-397.5 1586,-397.5 1586,-378.5 1482,-378.5"/>
<text text-anchor="middle" x="1534" y="-385.5" font-family="Helvetica,sans-Serif" font-size="10.00">assimp/quaternion.h</text>
</g>
<!-- Node45&#45;&gt;Node48 -->
<g id="edge74" class="edge"><title>Node45&#45;&gt;Node48</title>
<path fill="none" stroke="midnightblue" d="M1430.34,-440.403C1450.55,-430.379 1484.19,-413.701 1507.64,-402.07"/>
<polygon fill="midnightblue" stroke="midnightblue" points="1509.29,-405.159 1516.7,-397.581 1506.18,-398.887 1509.29,-405.159"/>
</g>
<!-- Node49 -->
<g id="node49" class="node"><title>Node49</title>
<polygon fill="white" stroke="#bfbfbf" points="1604.5,-378.5 1604.5,-397.5 1687.5,-397.5 1687.5,-378.5 1604.5,-378.5"/>
<text text-anchor="middle" x="1646" y="-385.5" font-family="Helvetica,sans-Serif" font-size="10.00">assimp/types.h</text>
</g>
<!-- Node45&#45;&gt;Node49 -->
<g id="edge75" class="edge"><title>Node45&#45;&gt;Node49</title>
<path fill="none" stroke="midnightblue" d="M1449.38,-440.499C1486.2,-431.779 1544.73,-417.601 1595,-404 1599.16,-402.875 1603.5,-401.661 1607.81,-400.428"/>
<polygon fill="midnightblue" stroke="midnightblue" points="1609.11,-403.697 1617.74,-397.551 1607.16,-396.974 1609.11,-403.697"/>
</g>
<!-- Node50 -->
<g id="node50" class="node"><title>Node50</title>
<polygon fill="white" stroke="#bfbfbf" points="1706,-378.5 1706,-397.5 1798,-397.5 1798,-378.5 1706,-378.5"/>
<text text-anchor="middle" x="1752" y="-385.5" font-family="Helvetica,sans-Serif" font-size="10.00">assimp/vector3.h</text>
</g>
<!-- Node45&#45;&gt;Node50 -->
<g id="edge76" class="edge"><title>Node45&#45;&gt;Node50</title>
<path fill="none" stroke="midnightblue" d="M1479.12,-440.47C1536.7,-432.569 1622.28,-419.69 1696,-404 1701.41,-402.848 1707.09,-401.498 1712.66,-400.089"/>
<polygon fill="midnightblue" stroke="midnightblue" points="1713.7,-403.433 1722.49,-397.519 1711.93,-396.661 1713.7,-403.433"/>
</g>
</g>
</svg>
