<?xml version="1.0" encoding="UTF-8" standalone="no"?>
<!DOCTYPE svg PUBLIC "-//W3C//DTD SVG 1.1//EN"
 "http://www.w3.org/Graphics/SVG/1.1/DTD/svg11.dtd">
<!-- Generated by graphviz version 2.36.0 (20140111.2315)
 -->
<!-- Title: /home/travis/build/STORM&#45;IRIT/Radium&#45;Engine/src/IO/AssimpLoader/AssimpHandleDataLoader.hpp Pages: 1 -->
<svg width="992pt" height="354pt"
 viewBox="0.00 0.00 992.00 354.00" xmlns="http://www.w3.org/2000/svg" xmlns:xlink="http://www.w3.org/1999/xlink">
<g id="graph0" class="graph" transform="scale(1 1) rotate(0) translate(4 350)">
<title>/home/travis/build/STORM&#45;IRIT/Radium&#45;Engine/src/IO/AssimpLoader/AssimpHandleDataLoader.hpp</title>
<polygon fill="white" stroke="none" points="-4,4 -4,-350 988,-350 988,4 -4,4"/>
<!-- Node1 -->
<g id="node1" class="node"><title>Node1</title>
<polygon fill="#bfbfbf" stroke="black" points="77.5,-293 77.5,-345 256.5,-345 256.5,-293 77.5,-293"/>
<text text-anchor="start" x="85.5" y="-333" font-family="Helvetica,sans-Serif" font-size="10.00">/home/travis/build</text>
<text text-anchor="start" x="85.5" y="-322" font-family="Helvetica,sans-Serif" font-size="10.00">/STORM&#45;IRIT/Radium&#45;Engine</text>
<text text-anchor="start" x="85.5" y="-311" font-family="Helvetica,sans-Serif" font-size="10.00">/src/IO/AssimpLoader/AssimpHandle</text>
<text text-anchor="middle" x="167" y="-300" font-family="Helvetica,sans-Serif" font-size="10.00">DataLoader.hpp</text>
</g>
<!-- Node2 -->
<g id="node2" class="node"><title>Node2</title>
<polygon fill="white" stroke="#bfbfbf" points="1.5,-236.5 1.5,-255.5 36.5,-255.5 36.5,-236.5 1.5,-236.5"/>
<text text-anchor="middle" x="19" y="-243.5" font-family="Helvetica,sans-Serif" font-size="10.00">map</text>
</g>
<!-- Node1&#45;&gt;Node2 -->
<g id="edge1" class="edge"><title>Node1&#45;&gt;Node2</title>
<path fill="none" stroke="midnightblue" d="M114.821,-292.968C91.4689,-281.766 64.9333,-269.036 45.7171,-259.817"/>
<polygon fill="midnightblue" stroke="midnightblue" points="47.1849,-256.639 36.6548,-255.47 44.1571,-262.951 47.1849,-256.639"/>
</g>
<!-- Node3 -->
<g id="node3" class="node"><title>Node3</title>
<polygon fill="white" stroke="#bfbfbf" points="55,-236.5 55,-255.5 85,-255.5 85,-236.5 55,-236.5"/>
<text text-anchor="middle" x="70" y="-243.5" font-family="Helvetica,sans-Serif" font-size="10.00">set</text>
</g>
<!-- Node1&#45;&gt;Node3 -->
<g id="edge2" class="edge"><title>Node1&#45;&gt;Node3</title>
<path fill="none" stroke="midnightblue" d="M132.801,-292.968C118.581,-282.559 102.558,-270.831 90.2566,-261.827"/>
<polygon fill="midnightblue" stroke="midnightblue" points="92.1722,-258.892 82.0356,-255.81 88.0377,-264.54 92.1722,-258.892"/>
</g>
<!-- Node4 -->
<g id="node4" class="node"><title>Node4</title>
<g id="a_node4"><a xlink:href="DataLoader_8hpp.html" target="_top" xlink:title="Core/File/DataLoader.hpp">
<polygon fill="white" stroke="black" points="103,-236.5 103,-255.5 231,-255.5 231,-236.5 103,-236.5"/>
<text text-anchor="middle" x="167" y="-243.5" font-family="Helvetica,sans-Serif" font-size="10.00">Core/File/DataLoader.hpp</text>
</a>
</g>
</g>
<!-- Node1&#45;&gt;Node4 -->
<g id="edge3" class="edge"><title>Node1&#45;&gt;Node4</title>
<path fill="none" stroke="midnightblue" d="M167,-292.768C167,-283.89 167,-274.074 167,-265.816"/>
<polygon fill="midnightblue" stroke="midnightblue" points="170.5,-265.757 167,-255.757 163.5,-265.757 170.5,-265.757"/>
</g>
<!-- Node7 -->
<g id="node7" class="node"><title>Node7</title>
<g id="a_node7"><a xlink:href="LinearAlgebra_8hpp.html" target="_top" xlink:title="Core/Math/LinearAlgebra.hpp">
<polygon fill="white" stroke="black" points="324.5,-236.5 324.5,-255.5 467.5,-255.5 467.5,-236.5 324.5,-236.5"/>
<text text-anchor="middle" x="396" y="-243.5" font-family="Helvetica,sans-Serif" font-size="10.00">Core/Math/LinearAlgebra.hpp</text>
</a>
</g>
</g>
<!-- Node1&#45;&gt;Node7 -->
<g id="edge6" class="edge"><title>Node1&#45;&gt;Node7</title>
<path fill="none" stroke="midnightblue" d="M247.737,-292.968C285.568,-281.239 328.8,-267.835 358.779,-258.54"/>
<polygon fill="midnightblue" stroke="midnightblue" points="359.895,-261.859 368.41,-255.554 357.822,-255.172 359.895,-261.859"/>
</g>
<!-- Node25 -->
<g id="node25" class="node"><title>Node25</title>
<g id="a_node25"><a xlink:href="RaIO_8hpp.html" target="_top" xlink:title="IO/RaIO.hpp">
<polygon fill="white" stroke="black" points="912,-112.5 912,-131.5 984,-131.5 984,-112.5 912,-112.5"/>
<text text-anchor="middle" x="948" y="-119.5" font-family="Helvetica,sans-Serif" font-size="10.00">IO/RaIO.hpp</text>
</a>
</g>
</g>
<!-- Node1&#45;&gt;Node25 -->
<g id="edge26" class="edge"><title>Node1&#45;&gt;Node25</title>
<path fill="none" stroke="midnightblue" d="M256.75,-318.452C442.968,-317.277 861.392,-302.962 950,-200 963.667,-184.119 959.856,-158.835 954.841,-141.606"/>
<polygon fill="midnightblue" stroke="midnightblue" points="958.005,-140.024 951.544,-131.627 951.358,-142.22 958.005,-140.024"/>
</g>
<!-- Node5 -->
<g id="node5" class="node"><title>Node5</title>
<polygon fill="white" stroke="#bfbfbf" points="0,-174.5 0,-193.5 52,-193.5 52,-174.5 0,-174.5"/>
<text text-anchor="middle" x="26" y="-181.5" font-family="Helvetica,sans-Serif" font-size="10.00">memory</text>
</g>
<!-- Node4&#45;&gt;Node5 -->
<g id="edge4" class="edge"><title>Node4&#45;&gt;Node5</title>
<path fill="none" stroke="midnightblue" d="M146.67,-236.394C125.326,-227.352 90.7908,-212.707 61,-200 59.1757,-199.222 57.2984,-198.42 55.4055,-197.611"/>
<polygon fill="midnightblue" stroke="midnightblue" points="56.5549,-194.296 45.9844,-193.579 53.8005,-200.731 56.5549,-194.296"/>
</g>
<!-- Node6 -->
<g id="node6" class="node"><title>Node6</title>
<polygon fill="white" stroke="#bfbfbf" points="70,-174.5 70,-193.5 114,-193.5 114,-174.5 70,-174.5"/>
<text text-anchor="middle" x="92" y="-181.5" font-family="Helvetica,sans-Serif" font-size="10.00">vector</text>
</g>
<!-- Node4&#45;&gt;Node6 -->
<g id="edge5" class="edge"><title>Node4&#45;&gt;Node6</title>
<path fill="none" stroke="midnightblue" d="M156.254,-236.403C144.447,-226.958 125.257,-211.606 110.918,-200.134"/>
<polygon fill="midnightblue" stroke="midnightblue" points="112.721,-197.095 102.726,-193.581 108.348,-202.561 112.721,-197.095"/>
</g>
<!-- Node8 -->
<g id="node8" class="node"><title>Node8</title>
<g id="a_node8"><a xlink:href="RaCore_8hpp.html" target="_top" xlink:title="Core/RaCore.hpp">
<polygon fill="white" stroke="black" points="526.5,-112.5 526.5,-131.5 619.5,-131.5 619.5,-112.5 526.5,-112.5"/>
<text text-anchor="middle" x="573" y="-119.5" font-family="Helvetica,sans-Serif" font-size="10.00">Core/RaCore.hpp</text>
</a>
</g>
</g>
<!-- Node7&#45;&gt;Node8 -->
<g id="edge7" class="edge"><title>Node7&#45;&gt;Node8</title>
<path fill="none" stroke="midnightblue" d="M324.133,-243.498C237.978,-239.246 111.055,-223.697 161,-168 184.297,-142.02 408.87,-129.574 516.295,-125.069"/>
<polygon fill="midnightblue" stroke="midnightblue" points="516.466,-128.565 526.314,-124.657 516.179,-121.571 516.466,-128.565"/>
</g>
<!-- Node15 -->
<g id="node15" class="node"><title>Node15</title>
<polygon fill="white" stroke="#bfbfbf" points="170.5,-174.5 170.5,-193.5 235.5,-193.5 235.5,-174.5 170.5,-174.5"/>
<text text-anchor="middle" x="203" y="-181.5" font-family="Helvetica,sans-Serif" font-size="10.00">Eigen/Core</text>
</g>
<!-- Node7&#45;&gt;Node15 -->
<g id="edge14" class="edge"><title>Node7&#45;&gt;Node15</title>
<path fill="none" stroke="midnightblue" d="M364.964,-236.43C334.12,-227.768 285.547,-213.735 244,-200 241.072,-199.032 238.039,-197.993 235.008,-196.929"/>
<polygon fill="midnightblue" stroke="midnightblue" points="236.062,-193.589 225.468,-193.509 233.699,-200.178 236.062,-193.589"/>
</g>
<!-- Node16 -->
<g id="node16" class="node"><title>Node16</title>
<polygon fill="white" stroke="#bfbfbf" points="253.5,-174.5 253.5,-193.5 340.5,-193.5 340.5,-174.5 253.5,-174.5"/>
<text text-anchor="middle" x="297" y="-181.5" font-family="Helvetica,sans-Serif" font-size="10.00">Eigen/Geometry</text>
</g>
<!-- Node7&#45;&gt;Node16 -->
<g id="edge15" class="edge"><title>Node7&#45;&gt;Node16</title>
<path fill="none" stroke="midnightblue" d="M381.816,-236.403C365.642,-226.601 338.974,-210.439 319.857,-198.853"/>
<polygon fill="midnightblue" stroke="midnightblue" points="321.524,-195.77 311.158,-193.581 317.896,-201.757 321.524,-195.77"/>
</g>
<!-- Node17 -->
<g id="node17" class="node"><title>Node17</title>
<polygon fill="white" stroke="#bfbfbf" points="358.5,-174.5 358.5,-193.5 433.5,-193.5 433.5,-174.5 358.5,-174.5"/>
<text text-anchor="middle" x="396" y="-181.5" font-family="Helvetica,sans-Serif" font-size="10.00">Eigen/Sparse</text>
</g>
<!-- Node7&#45;&gt;Node17 -->
<g id="edge16" class="edge"><title>Node7&#45;&gt;Node17</title>
<path fill="none" stroke="midnightblue" d="M396,-236.403C396,-227.938 396,-214.728 396,-203.82"/>
<polygon fill="midnightblue" stroke="midnightblue" points="399.5,-203.581 396,-193.581 392.5,-203.581 399.5,-203.581"/>
</g>
<!-- Node18 -->
<g id="node18" class="node"><title>Node18</title>
<polygon fill="white" stroke="#bfbfbf" points="451.5,-174.5 451.5,-193.5 510.5,-193.5 510.5,-174.5 451.5,-174.5"/>
<text text-anchor="middle" x="481" y="-181.5" font-family="Helvetica,sans-Serif" font-size="10.00">functional</text>
</g>
<!-- Node7&#45;&gt;Node18 -->
<g id="edge17" class="edge"><title>Node7&#45;&gt;Node18</title>
<path fill="none" stroke="midnightblue" d="M408.178,-236.403C421.812,-226.78 444.132,-211.024 460.474,-199.489"/>
<polygon fill="midnightblue" stroke="midnightblue" points="462.693,-202.207 468.844,-193.581 458.656,-196.488 462.693,-202.207"/>
</g>
<!-- Node19 -->
<g id="node19" class="node"><title>Node19</title>
<polygon fill="white" stroke="#bfbfbf" points="528.5,-169 528.5,-199 661.5,-199 661.5,-169 528.5,-169"/>
<text text-anchor="start" x="536.5" y="-187" font-family="Helvetica,sans-Serif" font-size="10.00">unsupported/Eigen/Aligned</text>
<text text-anchor="middle" x="595" y="-176" font-family="Helvetica,sans-Serif" font-size="10.00">Vector3</text>
</g>
<!-- Node7&#45;&gt;Node19 -->
<g id="edge18" class="edge"><title>Node7&#45;&gt;Node19</title>
<path fill="none" stroke="midnightblue" d="M424.512,-236.403C454.207,-227.45 501.504,-213.19 538.756,-201.958"/>
<polygon fill="midnightblue" stroke="midnightblue" points="539.919,-205.263 548.483,-199.025 537.898,-198.561 539.919,-205.263"/>
</g>
<!-- Node20 -->
<g id="node20" class="node"><title>Node20</title>
<g id="a_node20"><a xlink:href="Math_8hpp.html" target="_top" xlink:title="Core/Math/Math.hpp">
<polygon fill="white" stroke="black" points="680,-174.5 680,-193.5 786,-193.5 786,-174.5 680,-174.5"/>
<text text-anchor="middle" x="733" y="-181.5" font-family="Helvetica,sans-Serif" font-size="10.00">Core/Math/Math.hpp</text>
</a>
</g>
</g>
<!-- Node7&#45;&gt;Node20 -->
<g id="edge19" class="edge"><title>Node7&#45;&gt;Node20</title>
<path fill="none" stroke="midnightblue" d="M455.549,-236.466C511.201,-228.196 596.507,-214.765 670,-200 676.221,-198.75 682.761,-197.322 689.177,-195.856"/>
<polygon fill="midnightblue" stroke="midnightblue" points="690.152,-199.222 699.094,-193.539 688.56,-192.406 690.152,-199.222"/>
</g>
<!-- Node24 -->
<g id="node24" class="node"><title>Node24</title>
<g id="a_node24"><a xlink:href="LinearAlgebra_8inl.html" target="_top" xlink:title="Core/Math/LinearAlgebra.inl">
<polygon fill="white" stroke="black" points="804.5,-174.5 804.5,-193.5 941.5,-193.5 941.5,-174.5 804.5,-174.5"/>
<text text-anchor="middle" x="873" y="-181.5" font-family="Helvetica,sans-Serif" font-size="10.00">Core/Math/LinearAlgebra.inl</text>
</a>
</g>
</g>
<!-- Node7&#45;&gt;Node24 -->
<g id="edge25" class="edge"><title>Node7&#45;&gt;Node24</title>
<path fill="none" stroke="midnightblue" d="M467.751,-238.523C547.608,-230.934 680.382,-217.185 794,-200 802.826,-198.665 812.17,-197.061 821.225,-195.406"/>
<polygon fill="midnightblue" stroke="midnightblue" points="822.094,-198.805 831.281,-193.527 820.808,-191.924 822.094,-198.805"/>
</g>
<!-- Node9 -->
<g id="node9" class="node"><title>Node9</title>
<g id="a_node9"><a xlink:href="CoreMacros_8hpp.html" target="_top" xlink:title="Core/CoreMacros.hpp">
<polygon fill="white" stroke="black" points="703.5,-56.5 703.5,-75.5 816.5,-75.5 816.5,-56.5 703.5,-56.5"/>
<text text-anchor="middle" x="760" y="-63.5" font-family="Helvetica,sans-Serif" font-size="10.00">Core/CoreMacros.hpp</text>
</a>
</g>
</g>
<!-- Node8&#45;&gt;Node9 -->
<g id="edge8" class="edge"><title>Node8&#45;&gt;Node9</title>
<path fill="none" stroke="midnightblue" d="M602.631,-112.444C634.5,-103.241 685.333,-88.5617 720.564,-78.3879"/>
<polygon fill="midnightblue" stroke="midnightblue" points="721.872,-81.6534 730.508,-75.5164 719.929,-74.9282 721.872,-81.6534"/>
</g>
<!-- Node10 -->
<g id="node10" class="node"><title>Node10</title>
<polygon fill="white" stroke="#bfbfbf" points="604.5,-0.5 604.5,-19.5 653.5,-19.5 653.5,-0.5 604.5,-0.5"/>
<text text-anchor="middle" x="629" y="-7.5" font-family="Helvetica,sans-Serif" font-size="10.00">cassert</text>
</g>
<!-- Node9&#45;&gt;Node10 -->
<g id="edge9" class="edge"><title>Node9&#45;&gt;Node10</title>
<path fill="none" stroke="midnightblue" d="M739.243,-56.4435C717.684,-47.5566 683.737,-33.5632 659.206,-23.4514"/>
<polygon fill="midnightblue" stroke="midnightblue" points="660.239,-20.0917 649.66,-19.5164 657.572,-26.5634 660.239,-20.0917"/>
</g>
<!-- Node11 -->
<g id="node11" class="node"><title>Node11</title>
<polygon fill="white" stroke="#bfbfbf" points="671.5,-0.5 671.5,-19.5 714.5,-19.5 714.5,-0.5 671.5,-0.5"/>
<text text-anchor="middle" x="693" y="-7.5" font-family="Helvetica,sans-Serif" font-size="10.00">cstdio</text>
</g>
<!-- Node9&#45;&gt;Node11 -->
<g id="edge10" class="edge"><title>Node9&#45;&gt;Node11</title>
<path fill="none" stroke="midnightblue" d="M749.235,-56.324C739.234,-48.2631 724.113,-36.0765 712.07,-26.3695"/>
<polygon fill="midnightblue" stroke="midnightblue" points="713.943,-23.3841 703.961,-19.8339 709.55,-28.8343 713.943,-23.3841"/>
</g>
<!-- Node12 -->
<g id="node12" class="node"><title>Node12</title>
<polygon fill="white" stroke="#bfbfbf" points="733,-0.5 733,-19.5 787,-19.5 787,-0.5 733,-0.5"/>
<text text-anchor="middle" x="760" y="-7.5" font-family="Helvetica,sans-Serif" font-size="10.00">iostream</text>
</g>
<!-- Node9&#45;&gt;Node12 -->
<g id="edge11" class="edge"><title>Node9&#45;&gt;Node12</title>
<path fill="none" stroke="midnightblue" d="M760,-56.083C760,-49.0059 760,-38.8611 760,-29.9865"/>
<polygon fill="midnightblue" stroke="midnightblue" points="763.5,-29.751 760,-19.7511 756.5,-29.7511 763.5,-29.751"/>
</g>
<!-- Node13 -->
<g id="node13" class="node"><title>Node13</title>
<polygon fill="white" stroke="#bfbfbf" points="805,-0.5 805,-19.5 857,-19.5 857,-0.5 805,-0.5"/>
<text text-anchor="middle" x="831" y="-7.5" font-family="Helvetica,sans-Serif" font-size="10.00">sstream</text>
</g>
<!-- Node9&#45;&gt;Node13 -->
<g id="edge12" class="edge"><title>Node9&#45;&gt;Node13</title>
<path fill="none" stroke="midnightblue" d="M771.407,-56.324C782.109,-48.1849 798.341,-35.8395 811.163,-26.0874"/>
<polygon fill="midnightblue" stroke="midnightblue" points="813.544,-28.6734 819.385,-19.8339 809.307,-23.1018 813.544,-28.6734"/>
</g>
<!-- Node14 -->
<g id="node14" class="node"><title>Node14</title>
<polygon fill="white" stroke="#bfbfbf" points="875,-0.5 875,-19.5 919,-19.5 919,-0.5 875,-0.5"/>
<text text-anchor="middle" x="897" y="-7.5" font-family="Helvetica,sans-Serif" font-size="10.00">thread</text>
</g>
<!-- Node9&#45;&gt;Node14 -->
<g id="edge13" class="edge"><title>Node9&#45;&gt;Node14</title>
<path fill="none" stroke="midnightblue" d="M781.708,-56.4435C804.355,-47.5171 840.072,-33.4387 865.752,-23.3168"/>
<polygon fill="midnightblue" stroke="midnightblue" points="867.374,-26.4397 875.394,-19.5164 864.807,-19.9273 867.374,-26.4397"/>
</g>
<!-- Node20&#45;&gt;Node8 -->
<g id="edge20" class="edge"><title>Node20&#45;&gt;Node8</title>
<path fill="none" stroke="midnightblue" d="M710.076,-174.403C682.63,-164.111 636.484,-146.806 605.401,-135.15"/>
<polygon fill="midnightblue" stroke="midnightblue" points="606.474,-131.815 595.882,-131.581 604.016,-138.369 606.474,-131.815"/>
</g>
<!-- Node21 -->
<g id="node21" class="node"><title>Node21</title>
<polygon fill="white" stroke="#bfbfbf" points="637,-112.5 637,-131.5 693,-131.5 693,-112.5 637,-112.5"/>
<text text-anchor="middle" x="665" y="-119.5" font-family="Helvetica,sans-Serif" font-size="10.00">algorithm</text>
</g>
<!-- Node20&#45;&gt;Node21 -->
<g id="edge21" class="edge"><title>Node20&#45;&gt;Node21</title>
<path fill="none" stroke="midnightblue" d="M723.257,-174.403C712.653,-165.047 695.481,-149.895 682.521,-138.46"/>
<polygon fill="midnightblue" stroke="midnightblue" points="684.539,-135.572 674.725,-131.581 679.907,-140.821 684.539,-135.572"/>
</g>
<!-- Node22 -->
<g id="node22" class="node"><title>Node22</title>
<polygon fill="white" stroke="#bfbfbf" points="711,-112.5 711,-131.5 755,-131.5 755,-112.5 711,-112.5"/>
<text text-anchor="middle" x="733" y="-119.5" font-family="Helvetica,sans-Serif" font-size="10.00">cmath</text>
</g>
<!-- Node20&#45;&gt;Node22 -->
<g id="edge22" class="edge"><title>Node20&#45;&gt;Node22</title>
<path fill="none" stroke="midnightblue" d="M733,-174.403C733,-165.938 733,-152.728 733,-141.82"/>
<polygon fill="midnightblue" stroke="midnightblue" points="736.5,-141.581 733,-131.581 729.5,-141.581 736.5,-141.581"/>
</g>
<!-- Node23 -->
<g id="node23" class="node"><title>Node23</title>
<g id="a_node23"><a xlink:href="Math_8inl.html" target="_top" xlink:title="Core/Math/Math.inl">
<polygon fill="white" stroke="black" points="773,-112.5 773,-131.5 873,-131.5 873,-112.5 773,-112.5"/>
<text text-anchor="middle" x="823" y="-119.5" font-family="Helvetica,sans-Serif" font-size="10.00">Core/Math/Math.inl</text>
</a>
</g>
</g>
<!-- Node20&#45;&gt;Node23 -->
<g id="edge23" class="edge"><title>Node20&#45;&gt;Node23</title>
<path fill="none" stroke="midnightblue" d="M740.994,-174.403C753.577,-164.601 777.524,-148.439 796.429,-136.853"/>
<polygon fill="midnightblue" stroke="midnightblue" points="798.451,-139.721 805.232,-131.581 794.854,-133.716 798.451,-139.721"/>
</g>
<!-- Node23&#45;&gt;Node20 -->
<g id="edge24" class="edge"><title>Node23&#45;&gt;Node20</title>
<path fill="none" stroke="midnightblue" d="M815.026,-131.581C802.456,-141.376 778.512,-157.538 759.602,-169.129"/>
<polygon fill="midnightblue" stroke="midnightblue" points="757.576,-166.262 750.795,-174.403 761.173,-172.268 757.576,-166.262"/>
</g>
<!-- Node25&#45;&gt;Node9 -->
<g id="edge27" class="edge"><title>Node25&#45;&gt;Node9</title>
<path fill="none" stroke="midnightblue" d="M918.211,-112.444C886.171,-103.241 835.067,-88.5617 799.647,-78.3879"/>
<polygon fill="midnightblue" stroke="midnightblue" points="800.227,-74.9132 789.65,-75.5164 798.295,-81.6412 800.227,-74.9132"/>
</g>
</g>
</svg>
