<?xml version="1.0" encoding="UTF-8" standalone="no"?>
<!DOCTYPE svg PUBLIC "-//W3C//DTD SVG 1.1//EN"
 "http://www.w3.org/Graphics/SVG/1.1/DTD/svg11.dtd">
<!-- Generated by graphviz version 2.36.0 (20140111.2315)
 -->
<!-- Title: /home/travis/build/STORM&#45;IRIT/Radium&#45;Engine/src/IO/AssimpLoader/AssimpWrapper.hpp Pages: 1 -->
<svg width="1140pt" height="342pt"
 viewBox="0.00 0.00 1140.00 342.00" xmlns="http://www.w3.org/2000/svg" xmlns:xlink="http://www.w3.org/1999/xlink">
<g id="graph0" class="graph" transform="scale(1 1) rotate(0) translate(4 338)">
<title>/home/travis/build/STORM&#45;IRIT/Radium&#45;Engine/src/IO/AssimpLoader/AssimpWrapper.hpp</title>
<polygon fill="white" stroke="none" points="-4,4 -4,-338 1136,-338 1136,4 -4,4"/>
<!-- Node1 -->
<g id="node1" class="node"><title>Node1</title>
<polygon fill="#bfbfbf" stroke="black" points="230.5,-292.5 230.5,-333.5 433.5,-333.5 433.5,-292.5 230.5,-292.5"/>
<text text-anchor="start" x="238.5" y="-321.5" font-family="Helvetica,sans-Serif" font-size="10.00">/home/travis/build</text>
<text text-anchor="start" x="238.5" y="-310.5" font-family="Helvetica,sans-Serif" font-size="10.00">/STORM&#45;IRIT/Radium&#45;Engine</text>
<text text-anchor="middle" x="332" y="-299.5" font-family="Helvetica,sans-Serif" font-size="10.00">/src/IO/AssimpLoader/AssimpWrapper.hpp</text>
</g>
<!-- Node2 -->
<g id="node2" class="node"><title>Node2</title>
<polygon fill="white" stroke="#bfbfbf" points="0,-236.5 0,-255.5 86,-255.5 86,-236.5 0,-236.5"/>
<text text-anchor="middle" x="43" y="-243.5" font-family="Helvetica,sans-Serif" font-size="10.00">assimp/color4.h</text>
</g>
<!-- Node1&#45;&gt;Node2 -->
<g id="edge1" class="edge"><title>Node1&#45;&gt;Node2</title>
<path fill="none" stroke="midnightblue" d="M245.29,-292.498C194.757,-281.132 132.933,-267.227 91.0313,-257.803"/>
<polygon fill="midnightblue" stroke="midnightblue" points="91.6148,-254.347 81.0905,-255.567 90.0788,-261.176 91.6148,-254.347"/>
</g>
<!-- Node3 -->
<g id="node3" class="node"><title>Node3</title>
<polygon fill="white" stroke="#bfbfbf" points="104,-236.5 104,-255.5 206,-255.5 206,-236.5 104,-236.5"/>
<text text-anchor="middle" x="155" y="-243.5" font-family="Helvetica,sans-Serif" font-size="10.00">assimp/matrix4x4.h</text>
</g>
<!-- Node1&#45;&gt;Node3 -->
<g id="edge2" class="edge"><title>Node1&#45;&gt;Node3</title>
<path fill="none" stroke="midnightblue" d="M278.894,-292.498C249.408,-281.67 213.647,-268.537 188.139,-259.17"/>
<polygon fill="midnightblue" stroke="midnightblue" points="189.155,-255.814 178.561,-255.652 186.742,-262.385 189.155,-255.814"/>
</g>
<!-- Node4 -->
<g id="node4" class="node"><title>Node4</title>
<polygon fill="white" stroke="#bfbfbf" points="224,-236.5 224,-255.5 328,-255.5 328,-236.5 224,-236.5"/>
<text text-anchor="middle" x="276" y="-243.5" font-family="Helvetica,sans-Serif" font-size="10.00">assimp/quaternion.h</text>
</g>
<!-- Node1&#45;&gt;Node4 -->
<g id="edge3" class="edge"><title>Node1&#45;&gt;Node4</title>
<path fill="none" stroke="midnightblue" d="M315.198,-292.498C307.19,-283.203 297.719,-272.21 290.093,-263.358"/>
<polygon fill="midnightblue" stroke="midnightblue" points="292.633,-260.944 283.454,-255.652 287.33,-265.513 292.633,-260.944"/>
</g>
<!-- Node5 -->
<g id="node5" class="node"><title>Node5</title>
<polygon fill="white" stroke="#bfbfbf" points="346.5,-236.5 346.5,-255.5 429.5,-255.5 429.5,-236.5 346.5,-236.5"/>
<text text-anchor="middle" x="388" y="-243.5" font-family="Helvetica,sans-Serif" font-size="10.00">assimp/types.h</text>
</g>
<!-- Node1&#45;&gt;Node5 -->
<g id="edge4" class="edge"><title>Node1&#45;&gt;Node5</title>
<path fill="none" stroke="midnightblue" d="M348.802,-292.498C356.81,-283.203 366.281,-272.21 373.907,-263.358"/>
<polygon fill="midnightblue" stroke="midnightblue" points="376.67,-265.513 380.546,-255.652 371.367,-260.944 376.67,-265.513"/>
</g>
<!-- Node6 -->
<g id="node6" class="node"><title>Node6</title>
<polygon fill="white" stroke="#bfbfbf" points="448,-236.5 448,-255.5 540,-255.5 540,-236.5 448,-236.5"/>
<text text-anchor="middle" x="494" y="-243.5" font-family="Helvetica,sans-Serif" font-size="10.00">assimp/vector3.h</text>
</g>
<!-- Node1&#45;&gt;Node6 -->
<g id="edge5" class="edge"><title>Node1&#45;&gt;Node6</title>
<path fill="none" stroke="midnightblue" d="M380.605,-292.498C407.354,-281.766 439.745,-268.769 463.048,-259.419"/>
<polygon fill="midnightblue" stroke="midnightblue" points="464.458,-262.625 472.435,-255.652 461.851,-256.128 464.458,-262.625"/>
</g>
<!-- Node7 -->
<g id="node7" class="node"><title>Node7</title>
<g id="a_node7"><a xlink:href="LinearAlgebra_8hpp.html" target="_top" xlink:title="Core/Math/LinearAlgebra.hpp">
<polygon fill="white" stroke="black" points="558.5,-236.5 558.5,-255.5 701.5,-255.5 701.5,-236.5 558.5,-236.5"/>
<text text-anchor="middle" x="630" y="-243.5" font-family="Helvetica,sans-Serif" font-size="10.00">Core/Math/LinearAlgebra.hpp</text>
</a>
</g>
</g>
<!-- Node1&#45;&gt;Node7 -->
<g id="edge6" class="edge"><title>Node1&#45;&gt;Node7</title>
<path fill="none" stroke="midnightblue" d="M421.41,-292.498C473.628,-281.108 537.536,-267.168 580.747,-257.743"/>
<polygon fill="midnightblue" stroke="midnightblue" points="581.699,-261.118 590.723,-255.567 580.207,-254.279 581.699,-261.118"/>
</g>
<!-- Node8 -->
<g id="node8" class="node"><title>Node8</title>
<g id="a_node8"><a xlink:href="RaCore_8hpp.html" target="_top" xlink:title="Core/RaCore.hpp">
<polygon fill="white" stroke="black" points="479.5,-112.5 479.5,-131.5 572.5,-131.5 572.5,-112.5 479.5,-112.5"/>
<text text-anchor="middle" x="526" y="-119.5" font-family="Helvetica,sans-Serif" font-size="10.00">Core/RaCore.hpp</text>
</a>
</g>
</g>
<!-- Node7&#45;&gt;Node8 -->
<g id="edge7" class="edge"><title>Node7&#45;&gt;Node8</title>
<path fill="none" stroke="midnightblue" d="M563.789,-236.462C483.761,-225.823 358.863,-208.063 352,-200 315.315,-156.9 405.674,-137.001 469.455,-128.553"/>
<polygon fill="midnightblue" stroke="midnightblue" points="469.956,-132.018 479.439,-127.294 469.08,-125.073 469.956,-132.018"/>
</g>
<!-- Node15 -->
<g id="node15" class="node"><title>Node15</title>
<polygon fill="white" stroke="#bfbfbf" points="361.5,-174.5 361.5,-193.5 426.5,-193.5 426.5,-174.5 361.5,-174.5"/>
<text text-anchor="middle" x="394" y="-181.5" font-family="Helvetica,sans-Serif" font-size="10.00">Eigen/Core</text>
</g>
<!-- Node7&#45;&gt;Node15 -->
<g id="edge14" class="edge"><title>Node7&#45;&gt;Node15</title>
<path fill="none" stroke="midnightblue" d="M585.838,-236.439C546.048,-228.341 486.124,-215.187 435,-200 431.876,-199.072 428.644,-198.032 425.43,-196.945"/>
<polygon fill="midnightblue" stroke="midnightblue" points="426.556,-193.631 415.961,-193.603 424.226,-200.232 426.556,-193.631"/>
</g>
<!-- Node16 -->
<g id="node16" class="node"><title>Node16</title>
<polygon fill="white" stroke="#bfbfbf" points="444.5,-174.5 444.5,-193.5 531.5,-193.5 531.5,-174.5 444.5,-174.5"/>
<text text-anchor="middle" x="488" y="-181.5" font-family="Helvetica,sans-Serif" font-size="10.00">Eigen/Geometry</text>
</g>
<!-- Node7&#45;&gt;Node16 -->
<g id="edge15" class="edge"><title>Node7&#45;&gt;Node16</title>
<path fill="none" stroke="midnightblue" d="M609.655,-236.403C585.613,-226.245 545.403,-209.255 517.837,-197.607"/>
<polygon fill="midnightblue" stroke="midnightblue" points="518.881,-194.249 508.307,-193.581 516.157,-200.697 518.881,-194.249"/>
</g>
<!-- Node17 -->
<g id="node17" class="node"><title>Node17</title>
<polygon fill="white" stroke="#bfbfbf" points="549.5,-174.5 549.5,-193.5 624.5,-193.5 624.5,-174.5 549.5,-174.5"/>
<text text-anchor="middle" x="587" y="-181.5" font-family="Helvetica,sans-Serif" font-size="10.00">Eigen/Sparse</text>
</g>
<!-- Node7&#45;&gt;Node17 -->
<g id="edge16" class="edge"><title>Node7&#45;&gt;Node17</title>
<path fill="none" stroke="midnightblue" d="M623.839,-236.403C617.389,-227.403 607.096,-213.041 599.027,-201.782"/>
<polygon fill="midnightblue" stroke="midnightblue" points="601.82,-199.67 593.149,-193.581 596.13,-203.748 601.82,-199.67"/>
</g>
<!-- Node18 -->
<g id="node18" class="node"><title>Node18</title>
<polygon fill="white" stroke="#bfbfbf" points="642.5,-174.5 642.5,-193.5 701.5,-193.5 701.5,-174.5 642.5,-174.5"/>
<text text-anchor="middle" x="672" y="-181.5" font-family="Helvetica,sans-Serif" font-size="10.00">functional</text>
</g>
<!-- Node7&#45;&gt;Node18 -->
<g id="edge17" class="edge"><title>Node7&#45;&gt;Node18</title>
<path fill="none" stroke="midnightblue" d="M636.018,-236.403C642.318,-227.403 652.371,-213.041 660.252,-201.782"/>
<polygon fill="midnightblue" stroke="midnightblue" points="663.126,-203.78 665.994,-193.581 657.392,-199.766 663.126,-203.78"/>
</g>
<!-- Node19 -->
<g id="node19" class="node"><title>Node19</title>
<polygon fill="white" stroke="#bfbfbf" points="719.5,-169 719.5,-199 852.5,-199 852.5,-169 719.5,-169"/>
<text text-anchor="start" x="727.5" y="-187" font-family="Helvetica,sans-Serif" font-size="10.00">unsupported/Eigen/Aligned</text>
<text text-anchor="middle" x="786" y="-176" font-family="Helvetica,sans-Serif" font-size="10.00">Vector3</text>
</g>
<!-- Node7&#45;&gt;Node19 -->
<g id="edge18" class="edge"><title>Node7&#45;&gt;Node19</title>
<path fill="none" stroke="midnightblue" d="M652.351,-236.403C675.134,-227.641 711.135,-213.794 740.035,-202.679"/>
<polygon fill="midnightblue" stroke="midnightblue" points="741.457,-205.882 749.534,-199.025 738.944,-199.348 741.457,-205.882"/>
</g>
<!-- Node20 -->
<g id="node20" class="node"><title>Node20</title>
<g id="a_node20"><a xlink:href="Math_8hpp.html" target="_top" xlink:title="Core/Math/Math.hpp">
<polygon fill="white" stroke="black" points="871,-174.5 871,-193.5 977,-193.5 977,-174.5 871,-174.5"/>
<text text-anchor="middle" x="924" y="-181.5" font-family="Helvetica,sans-Serif" font-size="10.00">Core/Math/Math.hpp</text>
</a>
</g>
</g>
<!-- Node7&#45;&gt;Node20 -->
<g id="edge19" class="edge"><title>Node7&#45;&gt;Node20</title>
<path fill="none" stroke="midnightblue" d="M677.013,-236.431C723.773,-227.769 797.505,-213.737 861,-200 866.913,-198.721 873.125,-197.316 879.247,-195.896"/>
<polygon fill="midnightblue" stroke="midnightblue" points="880.464,-199.205 889.398,-193.51 878.863,-192.391 880.464,-199.205"/>
</g>
<!-- Node24 -->
<g id="node24" class="node"><title>Node24</title>
<g id="a_node24"><a xlink:href="LinearAlgebra_8inl.html" target="_top" xlink:title="Core/Math/LinearAlgebra.inl">
<polygon fill="white" stroke="black" points="995.5,-174.5 995.5,-193.5 1132.5,-193.5 1132.5,-174.5 995.5,-174.5"/>
<text text-anchor="middle" x="1064" y="-181.5" font-family="Helvetica,sans-Serif" font-size="10.00">Core/Math/LinearAlgebra.inl</text>
</a>
</g>
</g>
<!-- Node7&#45;&gt;Node24 -->
<g id="edge25" class="edge"><title>Node7&#45;&gt;Node24</title>
<path fill="none" stroke="midnightblue" d="M701.579,-237.237C773.406,-229.139 887.127,-215.48 985,-200 993.616,-198.637 1002.73,-197.046 1011.59,-195.419"/>
<polygon fill="midnightblue" stroke="midnightblue" points="1012.26,-198.856 1021.44,-193.578 1010.97,-191.975 1012.26,-198.856"/>
</g>
<!-- Node9 -->
<g id="node9" class="node"><title>Node9</title>
<g id="a_node9"><a xlink:href="CoreMacros_8hpp.html" target="_top" xlink:title="Core/CoreMacros.hpp">
<polygon fill="white" stroke="black" points="469.5,-56.5 469.5,-75.5 582.5,-75.5 582.5,-56.5 469.5,-56.5"/>
<text text-anchor="middle" x="526" y="-63.5" font-family="Helvetica,sans-Serif" font-size="10.00">Core/CoreMacros.hpp</text>
</a>
</g>
</g>
<!-- Node8&#45;&gt;Node9 -->
<g id="edge8" class="edge"><title>Node8&#45;&gt;Node9</title>
<path fill="none" stroke="midnightblue" d="M526,-112.083C526,-105.006 526,-94.8611 526,-85.9865"/>
<polygon fill="midnightblue" stroke="midnightblue" points="529.5,-85.751 526,-75.7511 522.5,-85.7511 529.5,-85.751"/>
</g>
<!-- Node10 -->
<g id="node10" class="node"><title>Node10</title>
<polygon fill="white" stroke="#bfbfbf" points="370.5,-0.5 370.5,-19.5 419.5,-19.5 419.5,-0.5 370.5,-0.5"/>
<text text-anchor="middle" x="395" y="-7.5" font-family="Helvetica,sans-Serif" font-size="10.00">cassert</text>
</g>
<!-- Node9&#45;&gt;Node10 -->
<g id="edge9" class="edge"><title>Node9&#45;&gt;Node10</title>
<path fill="none" stroke="midnightblue" d="M505.243,-56.4435C483.684,-47.5566 449.737,-33.5632 425.206,-23.4514"/>
<polygon fill="midnightblue" stroke="midnightblue" points="426.239,-20.0917 415.66,-19.5164 423.572,-26.5634 426.239,-20.0917"/>
</g>
<!-- Node11 -->
<g id="node11" class="node"><title>Node11</title>
<polygon fill="white" stroke="#bfbfbf" points="437.5,-0.5 437.5,-19.5 480.5,-19.5 480.5,-0.5 437.5,-0.5"/>
<text text-anchor="middle" x="459" y="-7.5" font-family="Helvetica,sans-Serif" font-size="10.00">cstdio</text>
</g>
<!-- Node9&#45;&gt;Node11 -->
<g id="edge10" class="edge"><title>Node9&#45;&gt;Node11</title>
<path fill="none" stroke="midnightblue" d="M515.235,-56.324C505.234,-48.2631 490.113,-36.0765 478.07,-26.3695"/>
<polygon fill="midnightblue" stroke="midnightblue" points="479.943,-23.3841 469.961,-19.8339 475.55,-28.8343 479.943,-23.3841"/>
</g>
<!-- Node12 -->
<g id="node12" class="node"><title>Node12</title>
<polygon fill="white" stroke="#bfbfbf" points="499,-0.5 499,-19.5 553,-19.5 553,-0.5 499,-0.5"/>
<text text-anchor="middle" x="526" y="-7.5" font-family="Helvetica,sans-Serif" font-size="10.00">iostream</text>
</g>
<!-- Node9&#45;&gt;Node12 -->
<g id="edge11" class="edge"><title>Node9&#45;&gt;Node12</title>
<path fill="none" stroke="midnightblue" d="M526,-56.083C526,-49.0059 526,-38.8611 526,-29.9865"/>
<polygon fill="midnightblue" stroke="midnightblue" points="529.5,-29.751 526,-19.7511 522.5,-29.7511 529.5,-29.751"/>
</g>
<!-- Node13 -->
<g id="node13" class="node"><title>Node13</title>
<polygon fill="white" stroke="#bfbfbf" points="571,-0.5 571,-19.5 623,-19.5 623,-0.5 571,-0.5"/>
<text text-anchor="middle" x="597" y="-7.5" font-family="Helvetica,sans-Serif" font-size="10.00">sstream</text>
</g>
<!-- Node9&#45;&gt;Node13 -->
<g id="edge12" class="edge"><title>Node9&#45;&gt;Node13</title>
<path fill="none" stroke="midnightblue" d="M537.407,-56.324C548.109,-48.1849 564.341,-35.8395 577.163,-26.0874"/>
<polygon fill="midnightblue" stroke="midnightblue" points="579.544,-28.6734 585.385,-19.8339 575.307,-23.1018 579.544,-28.6734"/>
</g>
<!-- Node14 -->
<g id="node14" class="node"><title>Node14</title>
<polygon fill="white" stroke="#bfbfbf" points="641,-0.5 641,-19.5 685,-19.5 685,-0.5 641,-0.5"/>
<text text-anchor="middle" x="663" y="-7.5" font-family="Helvetica,sans-Serif" font-size="10.00">thread</text>
</g>
<!-- Node9&#45;&gt;Node14 -->
<g id="edge13" class="edge"><title>Node9&#45;&gt;Node14</title>
<path fill="none" stroke="midnightblue" d="M547.708,-56.4435C570.355,-47.5171 606.072,-33.4387 631.752,-23.3168"/>
<polygon fill="midnightblue" stroke="midnightblue" points="633.374,-26.4397 641.394,-19.5164 630.807,-19.9273 633.374,-26.4397"/>
</g>
<!-- Node20&#45;&gt;Node8 -->
<g id="edge20" class="edge"><title>Node20&#45;&gt;Node8</title>
<path fill="none" stroke="midnightblue" d="M890.783,-174.433C881.212,-172.144 870.728,-169.807 861,-168 763.928,-149.971 649.751,-136.203 582.883,-128.882"/>
<polygon fill="midnightblue" stroke="midnightblue" points="582.886,-125.362 572.567,-127.763 582.131,-132.321 582.886,-125.362"/>
</g>
<!-- Node21 -->
<g id="node21" class="node"><title>Node21</title>
<polygon fill="white" stroke="#bfbfbf" points="783,-112.5 783,-131.5 839,-131.5 839,-112.5 783,-112.5"/>
<text text-anchor="middle" x="811" y="-119.5" font-family="Helvetica,sans-Serif" font-size="10.00">algorithm</text>
</g>
<!-- Node20&#45;&gt;Node21 -->
<g id="edge21" class="edge"><title>Node20&#45;&gt;Node21</title>
<path fill="none" stroke="midnightblue" d="M907.81,-174.403C889.098,-164.468 858.077,-147.997 836.201,-136.381"/>
<polygon fill="midnightblue" stroke="midnightblue" points="837.634,-133.179 827.16,-131.581 834.351,-139.362 837.634,-133.179"/>
</g>
<!-- Node22 -->
<g id="node22" class="node"><title>Node22</title>
<polygon fill="white" stroke="#bfbfbf" points="857,-112.5 857,-131.5 901,-131.5 901,-112.5 857,-112.5"/>
<text text-anchor="middle" x="879" y="-119.5" font-family="Helvetica,sans-Serif" font-size="10.00">cmath</text>
</g>
<!-- Node20&#45;&gt;Node22 -->
<g id="edge22" class="edge"><title>Node20&#45;&gt;Node22</title>
<path fill="none" stroke="midnightblue" d="M917.553,-174.403C910.803,-165.403 900.031,-151.041 891.587,-139.782"/>
<polygon fill="midnightblue" stroke="midnightblue" points="894.235,-137.481 885.435,-131.581 888.635,-141.681 894.235,-137.481"/>
</g>
<!-- Node23 -->
<g id="node23" class="node"><title>Node23</title>
<g id="a_node23"><a xlink:href="Math_8inl.html" target="_top" xlink:title="Core/Math/Math.inl">
<polygon fill="white" stroke="black" points="919,-112.5 919,-131.5 1019,-131.5 1019,-112.5 919,-112.5"/>
<text text-anchor="middle" x="969" y="-119.5" font-family="Helvetica,sans-Serif" font-size="10.00">Core/Math/Math.inl</text>
</a>
</g>
</g>
<!-- Node20&#45;&gt;Node23 -->
<g id="edge23" class="edge"><title>Node20&#45;&gt;Node23</title>
<path fill="none" stroke="midnightblue" d="M925.547,-174.403C930.445,-165.225 941.125,-150.47 950.85,-139.117"/>
<polygon fill="midnightblue" stroke="midnightblue" points="953.555,-141.345 957.667,-131.581 948.364,-136.649 953.555,-141.345"/>
</g>
<!-- Node23&#45;&gt;Node20 -->
<g id="edge24" class="edge"><title>Node23&#45;&gt;Node20</title>
<path fill="none" stroke="midnightblue" d="M967.462,-131.581C962.57,-140.752 951.893,-155.506 942.166,-166.863"/>
<polygon fill="midnightblue" stroke="midnightblue" points="939.459,-164.639 935.348,-174.403 944.651,-169.334 939.459,-164.639"/>
</g>
</g>
</svg>
