<?xml version="1.0" encoding="UTF-8" standalone="no"?>
<!DOCTYPE svg PUBLIC "-//W3C//DTD SVG 1.1//EN"
 "http://www.w3.org/Graphics/SVG/1.1/DTD/svg11.dtd">
<!-- Generated by graphviz version 2.36.0 (20140111.2315)
 -->
<!-- Title: /home/travis/build/STORM&#45;IRIT/Radium&#45;Engine/src/GuiBase/BaseApplication.hpp Pages: 1 -->
<svg width="2475pt" height="466pt"
 viewBox="0.00 0.00 2475.00 466.00" xmlns="http://www.w3.org/2000/svg" xmlns:xlink="http://www.w3.org/1999/xlink">
<g id="graph0" class="graph" transform="scale(1 1) rotate(0) translate(4 462)">
<title>/home/travis/build/STORM&#45;IRIT/Radium&#45;Engine/src/GuiBase/BaseApplication.hpp</title>
<polygon fill="white" stroke="none" points="-4,4 -4,-462 2471,-462 2471,4 -4,4"/>
<!-- Node1 -->
<g id="node1" class="node"><title>Node1</title>
<polygon fill="#bfbfbf" stroke="black" points="824,-416.5 824,-457.5 990,-457.5 990,-416.5 824,-416.5"/>
<text text-anchor="start" x="832" y="-445.5" font-family="Helvetica,sans-Serif" font-size="10.00">/home/travis/build</text>
<text text-anchor="start" x="832" y="-434.5" font-family="Helvetica,sans-Serif" font-size="10.00">/STORM&#45;IRIT/Radium&#45;Engine</text>
<text text-anchor="middle" x="907" y="-423.5" font-family="Helvetica,sans-Serif" font-size="10.00">/src/GuiBase/BaseApplication.hpp</text>
</g>
<!-- Node2 -->
<g id="node2" class="node"><title>Node2</title>
<polygon fill="white" stroke="#bfbfbf" points="936,-174.5 936,-193.5 982,-193.5 982,-174.5 936,-174.5"/>
<text text-anchor="middle" x="959" y="-181.5" font-family="Helvetica,sans-Serif" font-size="10.00">chrono</text>
</g>
<!-- Node1&#45;&gt;Node2 -->
<g id="edge1" class="edge"><title>Node1&#45;&gt;Node2</title>
<path fill="none" stroke="midnightblue" d="M927.89,-416.495C937.072,-406.548 946.909,-393.676 952,-380 974.823,-318.696 967.198,-238.926 962.073,-203.428"/>
<polygon fill="midnightblue" stroke="midnightblue" points="965.531,-202.883 960.539,-193.538 958.613,-203.956 965.531,-202.883"/>
</g>
<!-- Node3 -->
<g id="node3" class="node"><title>Node3</title>
<polygon fill="white" stroke="#bfbfbf" points="1219,-236.5 1219,-255.5 1271,-255.5 1271,-236.5 1219,-236.5"/>
<text text-anchor="middle" x="1245" y="-243.5" font-family="Helvetica,sans-Serif" font-size="10.00">memory</text>
</g>
<!-- Node1&#45;&gt;Node3 -->
<g id="edge2" class="edge"><title>Node1&#45;&gt;Node3</title>
<path fill="none" stroke="midnightblue" d="M990.212,-417.214C1055.2,-399.126 1144.65,-366.338 1207,-312 1221.59,-299.284 1232.02,-279.534 1238.21,-265.14"/>
<polygon fill="midnightblue" stroke="midnightblue" points="1241.49,-266.366 1241.98,-255.783 1235,-263.754 1241.49,-266.366"/>
</g>
<!-- Node4 -->
<g id="node4" class="node"><title>Node4</title>
<polygon fill="white" stroke="#bfbfbf" points="721,-174.5 721,-193.5 765,-193.5 765,-174.5 721,-174.5"/>
<text text-anchor="middle" x="743" y="-181.5" font-family="Helvetica,sans-Serif" font-size="10.00">vector</text>
</g>
<!-- Node1&#45;&gt;Node4 -->
<g id="edge3" class="edge"><title>Node1&#45;&gt;Node4</title>
<path fill="none" stroke="midnightblue" d="M823.843,-430.738C768.292,-424.419 695.047,-410.528 637,-380 598.328,-359.662 584.927,-351.382 566,-312 551.337,-281.49 540.547,-262.973 561,-236 570.163,-223.917 660.987,-202.692 710.763,-191.828"/>
<polygon fill="midnightblue" stroke="midnightblue" points="711.684,-195.21 720.718,-189.674 710.204,-188.368 711.684,-195.21"/>
</g>
<!-- Node5 -->
<g id="node5" class="node"><title>Node5</title>
<polygon fill="white" stroke="#bfbfbf" points="871,-354.5 871,-373.5 943,-373.5 943,-354.5 871,-354.5"/>
<text text-anchor="middle" x="907" y="-361.5" font-family="Helvetica,sans-Serif" font-size="10.00">QApplication</text>
</g>
<!-- Node1&#45;&gt;Node5 -->
<g id="edge4" class="edge"><title>Node1&#45;&gt;Node5</title>
<path fill="none" stroke="midnightblue" d="M907,-416.223C907,-406.086 907,-393.807 907,-383.813"/>
<polygon fill="midnightblue" stroke="midnightblue" points="910.5,-383.735 907,-373.735 903.5,-383.735 910.5,-383.735"/>
</g>
<!-- Node6 -->
<g id="node6" class="node"><title>Node6</title>
<g id="a_node6"><a xlink:href="Timer_8hpp.html" target="_top" xlink:title="Core/Time/Timer.hpp">
<polygon fill="white" stroke="black" points="821.5,-236.5 821.5,-255.5 930.5,-255.5 930.5,-236.5 821.5,-236.5"/>
<text text-anchor="middle" x="876" y="-243.5" font-family="Helvetica,sans-Serif" font-size="10.00">Core/Time/Timer.hpp</text>
</a>
</g>
</g>
<!-- Node1&#45;&gt;Node6 -->
<g id="edge5" class="edge"><title>Node1&#45;&gt;Node6</title>
<path fill="none" stroke="midnightblue" d="M885.655,-416.318C876.494,-406.424 866.804,-393.647 862,-380 848.239,-340.907 860.475,-291.669 869.144,-265.439"/>
<polygon fill="midnightblue" stroke="midnightblue" points="872.552,-266.298 872.555,-255.703 865.946,-263.984 872.552,-266.298"/>
</g>
<!-- Node14 -->
<g id="node14" class="node"><title>Node14</title>
<g id="a_node14"><a xlink:href="FrameTimerData_8hpp.html" target="_top" xlink:title="GuiBase/TimerData/FrameTimer\lData.hpp">
<polygon fill="white" stroke="black" points="646,-349 646,-379 804,-379 804,-349 646,-349"/>
<text text-anchor="start" x="654" y="-367" font-family="Helvetica,sans-Serif" font-size="10.00">GuiBase/TimerData/FrameTimer</text>
<text text-anchor="middle" x="725" y="-356" font-family="Helvetica,sans-Serif" font-size="10.00">Data.hpp</text>
</a>
</g>
</g>
<!-- Node1&#45;&gt;Node14 -->
<g id="edge14" class="edge"><title>Node1&#45;&gt;Node14</title>
<path fill="none" stroke="midnightblue" d="M856.786,-416.411C829.704,-405.846 796.546,-392.911 770.265,-382.658"/>
<polygon fill="midnightblue" stroke="midnightblue" points="771.506,-379.385 760.917,-379.012 768.962,-385.907 771.506,-379.385"/>
</g>
<!-- Node41 -->
<g id="node41" class="node"><title>Node41</title>
<g id="a_node41"><a xlink:href="Viewer_8hpp.html" target="_top" xlink:title="GuiBase/Viewer/Viewer.hpp">
<polygon fill="white" stroke="black" points="1481.5,-354.5 1481.5,-373.5 1620.5,-373.5 1620.5,-354.5 1481.5,-354.5"/>
<text text-anchor="middle" x="1551" y="-361.5" font-family="Helvetica,sans-Serif" font-size="10.00">GuiBase/Viewer/Viewer.hpp</text>
</a>
</g>
</g>
<!-- Node1&#45;&gt;Node41 -->
<g id="edge65" class="edge"><title>Node1&#45;&gt;Node41</title>
<path fill="none" stroke="midnightblue" d="M990.202,-426.827C1114.89,-413.081 1348.63,-387.311 1471.26,-373.791"/>
<polygon fill="midnightblue" stroke="midnightblue" points="1471.78,-377.256 1481.33,-372.681 1471.01,-370.298 1471.78,-377.256"/>
</g>
<!-- Node6&#45;&gt;Node2 -->
<g id="edge13" class="edge"><title>Node6&#45;&gt;Node2</title>
<path fill="none" stroke="midnightblue" d="M887.892,-236.403C901.205,-226.78 923,-211.024 938.957,-199.489"/>
<polygon fill="midnightblue" stroke="midnightblue" points="941.076,-202.276 947.13,-193.581 936.975,-196.603 941.076,-202.276"/>
</g>
<!-- Node7 -->
<g id="node7" class="node"><title>Node7</title>
<g id="a_node7"><a xlink:href="RaCore_8hpp.html" target="_top" xlink:title="Core/RaCore.hpp">
<polygon fill="white" stroke="black" points="937.5,-112.5 937.5,-131.5 1030.5,-131.5 1030.5,-112.5 937.5,-112.5"/>
<text text-anchor="middle" x="984" y="-119.5" font-family="Helvetica,sans-Serif" font-size="10.00">Core/RaCore.hpp</text>
</a>
</g>
</g>
<!-- Node6&#45;&gt;Node7 -->
<g id="edge6" class="edge"><title>Node6&#45;&gt;Node7</title>
<path fill="none" stroke="midnightblue" d="M880.563,-236.283C888.653,-221.312 906.59,-190.184 927,-168 937.508,-156.579 951.089,-145.737 962.359,-137.558"/>
<polygon fill="midnightblue" stroke="midnightblue" points="964.641,-140.231 970.798,-131.609 960.608,-134.509 964.641,-140.231"/>
</g>
<!-- Node8 -->
<g id="node8" class="node"><title>Node8</title>
<g id="a_node8"><a xlink:href="CoreMacros_8hpp.html" target="_top" xlink:title="Core/CoreMacros.hpp">
<polygon fill="white" stroke="black" points="927.5,-56.5 927.5,-75.5 1040.5,-75.5 1040.5,-56.5 927.5,-56.5"/>
<text text-anchor="middle" x="984" y="-63.5" font-family="Helvetica,sans-Serif" font-size="10.00">Core/CoreMacros.hpp</text>
</a>
</g>
</g>
<!-- Node7&#45;&gt;Node8 -->
<g id="edge7" class="edge"><title>Node7&#45;&gt;Node8</title>
<path fill="none" stroke="midnightblue" d="M984,-112.083C984,-105.006 984,-94.8611 984,-85.9865"/>
<polygon fill="midnightblue" stroke="midnightblue" points="987.5,-85.751 984,-75.7511 980.5,-85.7511 987.5,-85.751"/>
</g>
<!-- Node9 -->
<g id="node9" class="node"><title>Node9</title>
<polygon fill="white" stroke="#bfbfbf" points="927.5,-0.5 927.5,-19.5 976.5,-19.5 976.5,-0.5 927.5,-0.5"/>
<text text-anchor="middle" x="952" y="-7.5" font-family="Helvetica,sans-Serif" font-size="10.00">cassert</text>
</g>
<!-- Node8&#45;&gt;Node9 -->
<g id="edge8" class="edge"><title>Node8&#45;&gt;Node9</title>
<path fill="none" stroke="midnightblue" d="M978.716,-56.083C974.289,-48.6127 967.837,-37.7244 962.382,-28.5199"/>
<polygon fill="midnightblue" stroke="midnightblue" points="965.295,-26.5697 957.186,-19.7511 959.273,-30.1383 965.295,-26.5697"/>
</g>
<!-- Node10 -->
<g id="node10" class="node"><title>Node10</title>
<polygon fill="white" stroke="#bfbfbf" points="994.5,-0.5 994.5,-19.5 1037.5,-19.5 1037.5,-0.5 994.5,-0.5"/>
<text text-anchor="middle" x="1016" y="-7.5" font-family="Helvetica,sans-Serif" font-size="10.00">cstdio</text>
</g>
<!-- Node8&#45;&gt;Node10 -->
<g id="edge9" class="edge"><title>Node8&#45;&gt;Node10</title>
<path fill="none" stroke="midnightblue" d="M989.284,-56.083C993.711,-48.6127 1000.16,-37.7244 1005.62,-28.5199"/>
<polygon fill="midnightblue" stroke="midnightblue" points="1008.73,-30.1383 1010.81,-19.7511 1002.71,-26.5697 1008.73,-30.1383"/>
</g>
<!-- Node11 -->
<g id="node11" class="node"><title>Node11</title>
<polygon fill="white" stroke="#bfbfbf" points="67,-0.5 67,-19.5 121,-19.5 121,-0.5 67,-0.5"/>
<text text-anchor="middle" x="94" y="-7.5" font-family="Helvetica,sans-Serif" font-size="10.00">iostream</text>
</g>
<!-- Node8&#45;&gt;Node11 -->
<g id="edge10" class="edge"><title>Node8&#45;&gt;Node11</title>
<path fill="none" stroke="midnightblue" d="M927.312,-61.5605C759.949,-51.4059 270.983,-21.7383 131.526,-13.2768"/>
<polygon fill="midnightblue" stroke="midnightblue" points="131.544,-9.77157 121.35,-12.6594 131.12,-16.7587 131.544,-9.77157"/>
</g>
<!-- Node12 -->
<g id="node12" class="node"><title>Node12</title>
<polygon fill="white" stroke="#bfbfbf" points="514,-0.5 514,-19.5 566,-19.5 566,-0.5 514,-0.5"/>
<text text-anchor="middle" x="540" y="-7.5" font-family="Helvetica,sans-Serif" font-size="10.00">sstream</text>
</g>
<!-- Node8&#45;&gt;Node12 -->
<g id="edge11" class="edge"><title>Node8&#45;&gt;Node12</title>
<path fill="none" stroke="midnightblue" d="M927.316,-58.106C834.766,-46.8499 653.782,-24.8383 576.449,-15.433"/>
<polygon fill="midnightblue" stroke="midnightblue" points="576.594,-11.9249 566.245,-14.1919 575.749,-18.8737 576.594,-11.9249"/>
</g>
<!-- Node13 -->
<g id="node13" class="node"><title>Node13</title>
<polygon fill="white" stroke="#bfbfbf" points="771,-0.5 771,-19.5 815,-19.5 815,-0.5 771,-0.5"/>
<text text-anchor="middle" x="793" y="-7.5" font-family="Helvetica,sans-Serif" font-size="10.00">thread</text>
</g>
<!-- Node8&#45;&gt;Node13 -->
<g id="edge12" class="edge"><title>Node8&#45;&gt;Node13</title>
<path fill="none" stroke="midnightblue" d="M953.735,-56.4435C918.599,-46.5098 860.896,-30.1958 825.026,-20.0544"/>
<polygon fill="midnightblue" stroke="midnightblue" points="825.659,-16.5964 815.084,-17.2437 823.755,-23.3324 825.659,-16.5964"/>
</g>
<!-- Node14&#45;&gt;Node6 -->
<g id="edge39" class="edge"><title>Node14&#45;&gt;Node6</title>
<path fill="none" stroke="midnightblue" d="M743.515,-348.969C756.984,-338.746 775.649,-324.549 792,-312 814.297,-294.887 839.823,-275.108 856.827,-261.906"/>
<polygon fill="midnightblue" stroke="midnightblue" points="859.13,-264.549 864.88,-255.65 854.835,-259.021 859.13,-264.549"/>
</g>
<!-- Node14&#45;&gt;Node11 -->
<g id="edge18" class="edge"><title>Node14&#45;&gt;Node11</title>
<path fill="none" stroke="midnightblue" d="M645.735,-359.337C509.497,-352.491 236.635,-336.225 144,-312 76.0665,-294.235 0,-317.218 0,-247 0,-247 0,-247 0,-121 0,-77.9325 42.1599,-43.2143 70.01,-24.9784"/>
<polygon fill="midnightblue" stroke="midnightblue" points="71.8801,-27.9369 78.4778,-19.6471 68.1505,-22.0132 71.8801,-27.9369"/>
</g>
<!-- Node15 -->
<g id="node15" class="node"><title>Node15</title>
<g id="a_node15"><a xlink:href="RaGuiBase_8hpp.html" target="_top" xlink:title="GuiBase/RaGuiBase.hpp">
<polygon fill="white" stroke="black" points="1443,-292.5 1443,-311.5 1569,-311.5 1569,-292.5 1443,-292.5"/>
<text text-anchor="middle" x="1506" y="-299.5" font-family="Helvetica,sans-Serif" font-size="10.00">GuiBase/RaGuiBase.hpp</text>
</a>
</g>
</g>
<!-- Node14&#45;&gt;Node15 -->
<g id="edge15" class="edge"><title>Node14&#45;&gt;Node15</title>
<path fill="none" stroke="midnightblue" d="M804.266,-353.692C823.168,-351.646 843.287,-349.612 862,-348 1112.44,-326.42 1178.65,-335.559 1432.53,-312.081"/>
<polygon fill="midnightblue" stroke="midnightblue" points="1433.18,-315.536 1442.81,-311.122 1432.53,-308.566 1433.18,-315.536"/>
</g>
<!-- Node16 -->
<g id="node16" class="node"><title>Node16</title>
<polygon fill="white" stroke="#bfbfbf" points="575,-292.5 575,-311.5 625,-311.5 625,-292.5 575,-292.5"/>
<text text-anchor="middle" x="600" y="-299.5" font-family="Helvetica,sans-Serif" font-size="10.00">iomanip</text>
</g>
<!-- Node14&#45;&gt;Node16 -->
<g id="edge17" class="edge"><title>Node14&#45;&gt;Node16</title>
<path fill="none" stroke="midnightblue" d="M695.693,-348.933C674.981,-338.991 647.417,-325.76 627.193,-316.053"/>
<polygon fill="midnightblue" stroke="midnightblue" points="628.447,-312.772 617.917,-311.6 625.417,-319.083 628.447,-312.772"/>
</g>
<!-- Node17 -->
<g id="node17" class="node"><title>Node17</title>
<g id="a_node17"><a xlink:href="Log_8hpp.html" target="_top" xlink:title="Core/Log/Log.hpp">
<polygon fill="white" stroke="black" points="153,-292.5 153,-311.5 247,-311.5 247,-292.5 153,-292.5"/>
<text text-anchor="middle" x="200" y="-299.5" font-family="Helvetica,sans-Serif" font-size="10.00">Core/Log/Log.hpp</text>
</a>
</g>
</g>
<!-- Node14&#45;&gt;Node17 -->
<g id="edge19" class="edge"><title>Node14&#45;&gt;Node17</title>
<path fill="none" stroke="midnightblue" d="M645.834,-353.952C539.12,-341.757 351.668,-320.334 257.465,-309.567"/>
<polygon fill="midnightblue" stroke="midnightblue" points="257.605,-306.061 247.273,-308.403 256.811,-313.016 257.605,-306.061"/>
</g>
<!-- Node22 -->
<g id="node22" class="node"><title>Node22</title>
<g id="a_node22"><a xlink:href="TaskQueue_8hpp.html" target="_top" xlink:title="Core/Tasks/TaskQueue.hpp">
<polygon fill="white" stroke="black" points="643,-292.5 643,-311.5 783,-311.5 783,-292.5 643,-292.5"/>
<text text-anchor="middle" x="713" y="-299.5" font-family="Helvetica,sans-Serif" font-size="10.00">Core/Tasks/TaskQueue.hpp</text>
</a>
</g>
</g>
<!-- Node14&#45;&gt;Node22 -->
<g id="edge29" class="edge"><title>Node14&#45;&gt;Node22</title>
<path fill="none" stroke="midnightblue" d="M722.156,-348.781C720.538,-340.691 718.492,-330.462 716.745,-321.725"/>
<polygon fill="midnightblue" stroke="midnightblue" points="720.139,-320.85 714.746,-311.731 713.275,-322.223 720.139,-320.85"/>
</g>
<!-- Node26 -->
<g id="node26" class="node"><title>Node26</title>
<g id="a_node26"><a xlink:href="Renderer_8hpp.html" target="_top" xlink:title="Engine/Renderer/Renderer.hpp">
<polygon fill="white" stroke="black" points="1047.5,-292.5 1047.5,-311.5 1198.5,-311.5 1198.5,-292.5 1047.5,-292.5"/>
<text text-anchor="middle" x="1123" y="-299.5" font-family="Helvetica,sans-Serif" font-size="10.00">Engine/Renderer/Renderer.hpp</text>
</a>
</g>
</g>
<!-- Node14&#45;&gt;Node26 -->
<g id="edge40" class="edge"><title>Node14&#45;&gt;Node26</title>
<path fill="none" stroke="midnightblue" d="M804.108,-351.074C878.004,-339.934 987.065,-323.493 1056.56,-313.016"/>
<polygon fill="midnightblue" stroke="midnightblue" points="1057.15,-316.466 1066.52,-311.515 1056.11,-309.545 1057.15,-316.466"/>
</g>
<!-- Node15&#45;&gt;Node8 -->
<g id="edge16" class="edge"><title>Node15&#45;&gt;Node8</title>
<path fill="none" stroke="midnightblue" d="M1516.33,-292.236C1530.16,-279.41 1551.58,-254.989 1539,-236 1460.89,-118.127 1381.69,-151.787 1246,-112 1180.89,-92.9075 1104.15,-80.9025 1050.61,-74.1416"/>
<polygon fill="midnightblue" stroke="midnightblue" points="1050.91,-70.6523 1040.56,-72.8992 1050.06,-77.5994 1050.91,-70.6523"/>
</g>
<!-- Node17&#45;&gt;Node7 -->
<g id="edge20" class="edge"><title>Node17&#45;&gt;Node7</title>
<path fill="none" stroke="midnightblue" d="M203.894,-292.44C215.621,-267.81 253.259,-196.695 309,-168 363.293,-140.051 774.855,-127.814 927.372,-124.206"/>
<polygon fill="midnightblue" stroke="midnightblue" points="927.551,-127.703 937.467,-123.971 927.388,-120.705 927.551,-127.703"/>
</g>
<!-- Node17&#45;&gt;Node12 -->
<g id="edge21" class="edge"><title>Node17&#45;&gt;Node12</title>
<path fill="none" stroke="midnightblue" d="M152.695,-297.667C121.453,-292.992 81.84,-281.942 57,-256 34.4083,-232.406 38,-217.666 38,-185 38,-185 38,-185 38,-121 38,-25.6122 388.219,-12.8291 503.614,-11.2061"/>
<polygon fill="midnightblue" stroke="midnightblue" points="503.76,-14.7047 513.717,-11.0845 503.676,-7.70517 503.76,-14.7047"/>
</g>
<!-- Node18 -->
<g id="node18" class="node"><title>Node18</title>
<polygon fill="white" stroke="#bfbfbf" points="126,-236.5 126,-255.5 172,-255.5 172,-236.5 126,-236.5"/>
<text text-anchor="middle" x="149" y="-243.5" font-family="Helvetica,sans-Serif" font-size="10.00">stdio.h</text>
</g>
<!-- Node17&#45;&gt;Node18 -->
<g id="edge22" class="edge"><title>Node17&#45;&gt;Node18</title>
<path fill="none" stroke="midnightblue" d="M191.578,-292.083C184.152,-284.22 173.148,-272.569 164.188,-263.081"/>
<polygon fill="midnightblue" stroke="midnightblue" points="166.676,-260.618 157.265,-255.751 161.587,-265.424 166.676,-260.618"/>
</g>
<!-- Node19 -->
<g id="node19" class="node"><title>Node19</title>
<polygon fill="white" stroke="#bfbfbf" points="318.5,-174.5 318.5,-193.5 359.5,-193.5 359.5,-174.5 318.5,-174.5"/>
<text text-anchor="middle" x="339" y="-181.5" font-family="Helvetica,sans-Serif" font-size="10.00">string</text>
</g>
<!-- Node17&#45;&gt;Node19 -->
<g id="edge23" class="edge"><title>Node17&#45;&gt;Node19</title>
<path fill="none" stroke="midnightblue" d="M210.448,-292.281C234.008,-272.619 291.512,-224.63 320.966,-200.05"/>
<polygon fill="midnightblue" stroke="midnightblue" points="323.374,-202.599 328.809,-193.505 318.889,-197.225 323.374,-202.599"/>
</g>
<!-- Node20 -->
<g id="node20" class="node"><title>Node20</title>
<g id="a_node20"><a xlink:href="StringUtils_8hpp.html" target="_top" xlink:title="Core/String/StringUtils.hpp">
<polygon fill="white" stroke="black" points="380,-236.5 380,-255.5 514,-255.5 514,-236.5 380,-236.5"/>
<text text-anchor="middle" x="447" y="-243.5" font-family="Helvetica,sans-Serif" font-size="10.00">Core/String/StringUtils.hpp</text>
</a>
</g>
</g>
<!-- Node17&#45;&gt;Node20 -->
<g id="edge24" class="edge"><title>Node17&#45;&gt;Node20</title>
<path fill="none" stroke="midnightblue" d="M239.138,-292.444C282.226,-283.023 351.559,-267.866 398.171,-257.675"/>
<polygon fill="midnightblue" stroke="midnightblue" points="399.024,-261.072 408.045,-255.516 397.528,-254.233 399.024,-261.072"/>
</g>
<!-- Node21 -->
<g id="node21" class="node"><title>Node21</title>
<polygon fill="white" stroke="#bfbfbf" points="66.5,-236.5 66.5,-255.5 107.5,-255.5 107.5,-236.5 66.5,-236.5"/>
<text text-anchor="middle" x="87" y="-243.5" font-family="Helvetica,sans-Serif" font-size="10.00">ctime</text>
</g>
<!-- Node17&#45;&gt;Node21 -->
<g id="edge28" class="edge"><title>Node17&#45;&gt;Node21</title>
<path fill="none" stroke="midnightblue" d="M182.095,-292.444C163.746,-283.675 134.995,-269.935 113.906,-259.858"/>
<polygon fill="midnightblue" stroke="midnightblue" points="115.353,-256.67 104.821,-255.516 112.335,-262.986 115.353,-256.67"/>
</g>
<!-- Node20&#45;&gt;Node4 -->
<g id="edge27" class="edge"><title>Node20&#45;&gt;Node4</title>
<path fill="none" stroke="midnightblue" d="M489.095,-236.467C548.799,-224.365 656.79,-202.475 710.644,-191.559"/>
<polygon fill="midnightblue" stroke="midnightblue" points="711.557,-194.945 720.662,-189.528 710.166,-188.084 711.557,-194.945"/>
</g>
<!-- Node20&#45;&gt;Node7 -->
<g id="edge25" class="edge"><title>Node20&#45;&gt;Node7</title>
<path fill="none" stroke="midnightblue" d="M472.688,-236.428C519.714,-220.984 622.999,-188.217 712,-168 785.819,-151.231 872.243,-138.007 927.523,-130.347"/>
<polygon fill="midnightblue" stroke="midnightblue" points="928.041,-133.809 937.472,-128.982 927.089,-126.874 928.041,-133.809"/>
</g>
<!-- Node20&#45;&gt;Node19 -->
<g id="edge26" class="edge"><title>Node20&#45;&gt;Node19</title>
<path fill="none" stroke="midnightblue" d="M431.526,-236.403C413.722,-226.512 384.259,-210.144 363.368,-198.538"/>
<polygon fill="midnightblue" stroke="midnightblue" points="364.886,-195.378 354.445,-193.581 361.487,-201.497 364.886,-195.378"/>
</g>
<!-- Node22&#45;&gt;Node3 -->
<g id="edge33" class="edge"><title>Node22&#45;&gt;Node3</title>
<path fill="none" stroke="midnightblue" d="M783.097,-293.885C897.784,-282.244 1121.5,-259.536 1208.84,-250.67"/>
<polygon fill="midnightblue" stroke="midnightblue" points="1209.2,-254.151 1218.8,-249.659 1208.5,-247.187 1209.2,-254.151"/>
</g>
<!-- Node22&#45;&gt;Node4 -->
<g id="edge37" class="edge"><title>Node22&#45;&gt;Node4</title>
<path fill="none" stroke="midnightblue" d="M718.319,-292.397C723.488,-283.597 731.109,-269.359 735,-256 739.982,-238.897 741.892,-218.64 742.609,-204.149"/>
<polygon fill="midnightblue" stroke="midnightblue" points="746.114,-204.05 742.964,-193.935 739.119,-203.807 746.114,-204.05"/>
</g>
<!-- Node22&#45;&gt;Node6 -->
<g id="edge38" class="edge"><title>Node22&#45;&gt;Node6</title>
<path fill="none" stroke="midnightblue" d="M738.828,-292.444C766.249,-283.359 809.777,-268.939 840.432,-258.783"/>
<polygon fill="midnightblue" stroke="midnightblue" points="841.901,-261.984 850.293,-255.516 839.7,-255.339 841.901,-261.984"/>
</g>
<!-- Node22&#45;&gt;Node7 -->
<g id="edge30" class="edge"><title>Node22&#45;&gt;Node7</title>
<path fill="none" stroke="midnightblue" d="M724.044,-292.392C752.43,-270.434 830.589,-211.037 900,-168 918.689,-156.412 940.615,-144.727 957.378,-136.169"/>
<polygon fill="midnightblue" stroke="midnightblue" points="959.241,-139.149 966.589,-131.516 956.085,-132.901 959.241,-139.149"/>
</g>
<!-- Node22&#45;&gt;Node13 -->
<g id="edge36" class="edge"><title>Node22&#45;&gt;Node13</title>
<path fill="none" stroke="midnightblue" d="M642.657,-292.911C531.305,-280.093 326.846,-256.503 326,-256 292.827,-236.273 276,-223.595 276,-185 276,-185 276,-185 276,-121 276,-71.2169 647.475,-26.7944 760.659,-14.4148"/>
<polygon fill="midnightblue" stroke="midnightblue" points="761.22,-17.8746 770.785,-13.3177 760.466,-10.9153 761.22,-17.8746"/>
</g>
<!-- Node22&#45;&gt;Node19 -->
<g id="edge35" class="edge"><title>Node22&#45;&gt;Node19</title>
<path fill="none" stroke="midnightblue" d="M642.756,-292.863C534.535,-280.287 339.258,-257.418 338,-256 325.503,-241.914 328.276,-219.36 332.545,-203.458"/>
<polygon fill="midnightblue" stroke="midnightblue" points="335.952,-204.286 335.57,-193.698 329.266,-202.213 335.952,-204.286"/>
</g>
<!-- Node23 -->
<g id="node23" class="node"><title>Node23</title>
<polygon fill="white" stroke="#bfbfbf" points="570.5,-236.5 570.5,-255.5 665.5,-255.5 665.5,-236.5 570.5,-236.5"/>
<text text-anchor="middle" x="618" y="-243.5" font-family="Helvetica,sans-Serif" font-size="10.00">condition_variable</text>
</g>
<!-- Node22&#45;&gt;Node23 -->
<g id="edge31" class="edge"><title>Node22&#45;&gt;Node23</title>
<path fill="none" stroke="midnightblue" d="M697.737,-292.324C682.779,-283.822 659.745,-270.729 642.273,-260.797"/>
<polygon fill="midnightblue" stroke="midnightblue" points="643.649,-257.553 633.226,-255.655 640.19,-263.639 643.649,-257.553"/>
</g>
<!-- Node24 -->
<g id="node24" class="node"><title>Node24</title>
<polygon fill="white" stroke="#bfbfbf" points="683.5,-236.5 683.5,-255.5 726.5,-255.5 726.5,-236.5 683.5,-236.5"/>
<text text-anchor="middle" x="705" y="-243.5" font-family="Helvetica,sans-Serif" font-size="10.00">deque</text>
</g>
<!-- Node22&#45;&gt;Node24 -->
<g id="edge32" class="edge"><title>Node22&#45;&gt;Node24</title>
<path fill="none" stroke="midnightblue" d="M711.679,-292.083C710.619,-284.927 709.094,-274.635 707.769,-265.691"/>
<polygon fill="midnightblue" stroke="midnightblue" points="711.224,-265.13 706.296,-255.751 704.3,-266.156 711.224,-265.13"/>
</g>
<!-- Node25 -->
<g id="node25" class="node"><title>Node25</title>
<polygon fill="white" stroke="#bfbfbf" points="987,-236.5 987,-255.5 1031,-255.5 1031,-236.5 987,-236.5"/>
<text text-anchor="middle" x="1009" y="-243.5" font-family="Helvetica,sans-Serif" font-size="10.00">mutex</text>
</g>
<!-- Node22&#45;&gt;Node25 -->
<g id="edge34" class="edge"><title>Node22&#45;&gt;Node25</title>
<path fill="none" stroke="midnightblue" d="M759.902,-292.444C820.448,-281.398 924.234,-262.464 976.665,-252.899"/>
<polygon fill="midnightblue" stroke="midnightblue" points="977.53,-256.299 986.74,-251.061 976.274,-249.413 977.53,-256.299"/>
</g>
<!-- Node26&#45;&gt;Node2 -->
<g id="edge44" class="edge"><title>Node26&#45;&gt;Node2</title>
<path fill="none" stroke="midnightblue" d="M1128.18,-292.419C1135.57,-278.947 1146.89,-252.653 1134,-236 1094.94,-185.534 1055.49,-220.323 995,-200 992.585,-199.189 990.102,-198.292 987.624,-197.352"/>
<polygon fill="midnightblue" stroke="midnightblue" points="988.824,-194.063 978.239,-193.606 986.229,-200.564 988.824,-194.063"/>
</g>
<!-- Node26&#45;&gt;Node3 -->
<g id="edge45" class="edge"><title>Node26&#45;&gt;Node3</title>
<path fill="none" stroke="midnightblue" d="M1142.33,-292.444C1162.32,-283.596 1193.74,-269.687 1216.56,-259.586"/>
<polygon fill="midnightblue" stroke="midnightblue" points="1218.03,-262.764 1225.76,-255.516 1215.2,-256.363 1218.03,-262.764"/>
</g>
<!-- Node26&#45;&gt;Node4 -->
<g id="edge47" class="edge"><title>Node26&#45;&gt;Node4</title>
<path fill="none" stroke="midnightblue" d="M1114.63,-292.177C1100.51,-277.869 1070.39,-249.816 1039,-236 949.099,-196.434 831.246,-187.482 775.244,-185.513"/>
<polygon fill="midnightblue" stroke="midnightblue" points="775.311,-182.014 765.211,-185.213 775.102,-189.011 775.311,-182.014"/>
</g>
<!-- Node26&#45;&gt;Node6 -->
<g id="edge64" class="edge"><title>Node26&#45;&gt;Node6</title>
<path fill="none" stroke="midnightblue" d="M1083.86,-292.444C1040.77,-283.023 971.441,-267.866 924.829,-257.675"/>
<polygon fill="midnightblue" stroke="midnightblue" points="925.472,-254.233 914.955,-255.516 923.976,-261.072 925.472,-254.233"/>
</g>
<!-- Node26&#45;&gt;Node25 -->
<g id="edge46" class="edge"><title>Node26&#45;&gt;Node25</title>
<path fill="none" stroke="midnightblue" d="M1104.94,-292.444C1086.43,-283.675 1057.42,-269.935 1036.14,-259.858"/>
<polygon fill="midnightblue" stroke="midnightblue" points="1037.51,-256.634 1026.98,-255.516 1034.52,-262.96 1037.51,-256.634"/>
</g>
<!-- Node27 -->
<g id="node27" class="node"><title>Node27</title>
<g id="a_node27"><a xlink:href="RaEngine_8hpp.html" target="_top" xlink:title="Engine/RaEngine.hpp">
<polygon fill="white" stroke="black" points="1289.5,-236.5 1289.5,-255.5 1400.5,-255.5 1400.5,-236.5 1289.5,-236.5"/>
<text text-anchor="middle" x="1345" y="-243.5" font-family="Helvetica,sans-Serif" font-size="10.00">Engine/RaEngine.hpp</text>
</a>
</g>
</g>
<!-- Node26&#45;&gt;Node27 -->
<g id="edge41" class="edge"><title>Node26&#45;&gt;Node27</title>
<path fill="none" stroke="midnightblue" d="M1158.18,-292.444C1196.58,-283.102 1258.18,-268.119 1300.06,-257.933"/>
<polygon fill="midnightblue" stroke="midnightblue" points="1301.1,-261.281 1309.99,-255.516 1299.44,-254.479 1301.1,-261.281"/>
</g>
<!-- Node28 -->
<g id="node28" class="node"><title>Node28</title>
<polygon fill="white" stroke="#bfbfbf" points="1087,-236.5 1087,-255.5 1125,-255.5 1125,-236.5 1087,-236.5"/>
<text text-anchor="middle" x="1106" y="-243.5" font-family="Helvetica,sans-Serif" font-size="10.00">array</text>
</g>
<!-- Node26&#45;&gt;Node28 -->
<g id="edge43" class="edge"><title>Node26&#45;&gt;Node28</title>
<path fill="none" stroke="midnightblue" d="M1120.19,-292.083C1117.92,-284.849 1114.63,-274.409 1111.79,-265.397"/>
<polygon fill="midnightblue" stroke="midnightblue" points="1115.1,-264.239 1108.75,-255.751 1108.42,-266.341 1115.1,-264.239"/>
</g>
<!-- Node29 -->
<g id="node29" class="node"><title>Node29</title>
<g id="a_node29"><a xlink:href="EventEnums_8hpp.html" target="_top" xlink:title="Core/Event/EventEnums.hpp">
<polygon fill="white" stroke="black" points="1004,-174.5 1004,-193.5 1148,-193.5 1148,-174.5 1004,-174.5"/>
<text text-anchor="middle" x="1076" y="-181.5" font-family="Helvetica,sans-Serif" font-size="10.00">Core/Event/EventEnums.hpp</text>
</a>
</g>
</g>
<!-- Node26&#45;&gt;Node29 -->
<g id="edge48" class="edge"><title>Node26&#45;&gt;Node29</title>
<path fill="none" stroke="midnightblue" d="M1136.18,-292.403C1153.2,-280.178 1179.26,-256.929 1167,-236 1156.16,-217.504 1135.89,-205.209 1117.23,-197.335"/>
<polygon fill="midnightblue" stroke="midnightblue" points="1118.26,-193.981 1107.67,-193.61 1115.72,-200.503 1118.26,-193.981"/>
</g>
<!-- Node30 -->
<g id="node30" class="node"><title>Node30</title>
<g id="a_node30"><a xlink:href="LinearAlgebra_8hpp.html" target="_top" xlink:title="Core/Math/LinearAlgebra.hpp">
<polygon fill="white" stroke="black" points="1833.5,-236.5 1833.5,-255.5 1976.5,-255.5 1976.5,-236.5 1833.5,-236.5"/>
<text text-anchor="middle" x="1905" y="-243.5" font-family="Helvetica,sans-Serif" font-size="10.00">Core/Math/LinearAlgebra.hpp</text>
</a>
</g>
</g>
<!-- Node26&#45;&gt;Node30 -->
<g id="edge50" class="edge"><title>Node26&#45;&gt;Node30</title>
<path fill="none" stroke="midnightblue" d="M1198.69,-295.773C1346.13,-285.592 1670.7,-263.179 1823.02,-252.661"/>
<polygon fill="midnightblue" stroke="midnightblue" points="1823.51,-256.135 1833.25,-251.955 1823.03,-249.152 1823.51,-256.135"/>
</g>
<!-- Node27&#45;&gt;Node8 -->
<g id="edge42" class="edge"><title>Node27&#45;&gt;Node8</title>
<path fill="none" stroke="midnightblue" d="M1343.02,-236.456C1338.91,-220.612 1327.95,-186.6 1306,-168 1232.83,-105.997 1121.57,-81.9914 1050.86,-72.7408"/>
<polygon fill="midnightblue" stroke="midnightblue" points="1051.08,-69.242 1040.73,-71.4802 1050.22,-76.1884 1051.08,-69.242"/>
</g>
<!-- Node29&#45;&gt;Node7 -->
<g id="edge49" class="edge"><title>Node29&#45;&gt;Node7</title>
<path fill="none" stroke="midnightblue" d="M1062.82,-174.403C1047.93,-164.691 1023.46,-148.732 1005.73,-137.17"/>
<polygon fill="midnightblue" stroke="midnightblue" points="1007.44,-134.112 997.157,-131.581 1003.62,-139.975 1007.44,-134.112"/>
</g>
<!-- Node30&#45;&gt;Node7 -->
<g id="edge51" class="edge"><title>Node30&#45;&gt;Node7</title>
<path fill="none" stroke="midnightblue" d="M1840.6,-236.47C1669.14,-213.757 1203.52,-152.079 1040.94,-130.543"/>
<polygon fill="midnightblue" stroke="midnightblue" points="1041.05,-127.027 1030.68,-129.183 1040.13,-133.966 1041.05,-127.027"/>
</g>
<!-- Node31 -->
<g id="node31" class="node"><title>Node31</title>
<polygon fill="white" stroke="#bfbfbf" points="1931.5,-174.5 1931.5,-193.5 1996.5,-193.5 1996.5,-174.5 1931.5,-174.5"/>
<text text-anchor="middle" x="1964" y="-181.5" font-family="Helvetica,sans-Serif" font-size="10.00">Eigen/Core</text>
</g>
<!-- Node30&#45;&gt;Node31 -->
<g id="edge52" class="edge"><title>Node30&#45;&gt;Node31</title>
<path fill="none" stroke="midnightblue" d="M1913.45,-236.403C1922.57,-227.136 1937.27,-212.183 1948.48,-200.788"/>
<polygon fill="midnightblue" stroke="midnightblue" points="1951.05,-203.165 1955.56,-193.581 1946.06,-198.257 1951.05,-203.165"/>
</g>
<!-- Node32 -->
<g id="node32" class="node"><title>Node32</title>
<polygon fill="white" stroke="#bfbfbf" points="2014.5,-174.5 2014.5,-193.5 2101.5,-193.5 2101.5,-174.5 2014.5,-174.5"/>
<text text-anchor="middle" x="2058" y="-181.5" font-family="Helvetica,sans-Serif" font-size="10.00">Eigen/Geometry</text>
</g>
<!-- Node30&#45;&gt;Node32 -->
<g id="edge53" class="edge"><title>Node30&#45;&gt;Node32</title>
<path fill="none" stroke="midnightblue" d="M1926.92,-236.403C1953.05,-226.156 1996.91,-208.956 2026.63,-197.302"/>
<polygon fill="midnightblue" stroke="midnightblue" points="2028.09,-200.49 2036.12,-193.581 2025.53,-193.973 2028.09,-200.49"/>
</g>
<!-- Node33 -->
<g id="node33" class="node"><title>Node33</title>
<polygon fill="white" stroke="#bfbfbf" points="2119.5,-174.5 2119.5,-193.5 2194.5,-193.5 2194.5,-174.5 2119.5,-174.5"/>
<text text-anchor="middle" x="2157" y="-181.5" font-family="Helvetica,sans-Serif" font-size="10.00">Eigen/Sparse</text>
</g>
<!-- Node30&#45;&gt;Node33 -->
<g id="edge54" class="edge"><title>Node30&#45;&gt;Node33</title>
<path fill="none" stroke="midnightblue" d="M1949.68,-236.438C1991.4,-228.148 2055.28,-214.704 2110,-200 2113.89,-198.955 2117.94,-197.787 2121.95,-196.578"/>
<polygon fill="midnightblue" stroke="midnightblue" points="2123.25,-199.84 2131.76,-193.53 2121.17,-193.155 2123.25,-199.84"/>
</g>
<!-- Node34 -->
<g id="node34" class="node"><title>Node34</title>
<polygon fill="white" stroke="#bfbfbf" points="2212.5,-174.5 2212.5,-193.5 2271.5,-193.5 2271.5,-174.5 2212.5,-174.5"/>
<text text-anchor="middle" x="2242" y="-181.5" font-family="Helvetica,sans-Serif" font-size="10.00">functional</text>
</g>
<!-- Node30&#45;&gt;Node34 -->
<g id="edge55" class="edge"><title>Node30&#45;&gt;Node34</title>
<path fill="none" stroke="midnightblue" d="M1976.63,-238.596C2037.56,-232.106 2127,-220.098 2203,-200 2206.16,-199.165 2209.41,-198.161 2212.62,-197.072"/>
<polygon fill="midnightblue" stroke="midnightblue" points="2213.84,-200.353 2222.03,-193.636 2211.44,-193.778 2213.84,-200.353"/>
</g>
<!-- Node35 -->
<g id="node35" class="node"><title>Node35</title>
<polygon fill="white" stroke="#bfbfbf" points="1625.5,-169 1625.5,-199 1758.5,-199 1758.5,-169 1625.5,-169"/>
<text text-anchor="start" x="1633.5" y="-187" font-family="Helvetica,sans-Serif" font-size="10.00">unsupported/Eigen/Aligned</text>
<text text-anchor="middle" x="1692" y="-176" font-family="Helvetica,sans-Serif" font-size="10.00">Vector3</text>
</g>
<!-- Node30&#45;&gt;Node35 -->
<g id="edge56" class="edge"><title>Node30&#45;&gt;Node35</title>
<path fill="none" stroke="midnightblue" d="M1874.48,-236.403C1842.5,-227.393 1791.43,-213.007 1751.44,-201.743"/>
<polygon fill="midnightblue" stroke="midnightblue" points="1752.36,-198.368 1741.79,-199.025 1750.47,-205.106 1752.36,-198.368"/>
</g>
<!-- Node36 -->
<g id="node36" class="node"><title>Node36</title>
<g id="a_node36"><a xlink:href="Math_8hpp.html" target="_top" xlink:title="Core/Math/Math.hpp">
<polygon fill="white" stroke="black" points="2290,-174.5 2290,-193.5 2396,-193.5 2396,-174.5 2290,-174.5"/>
<text text-anchor="middle" x="2343" y="-181.5" font-family="Helvetica,sans-Serif" font-size="10.00">Core/Math/Math.hpp</text>
</a>
</g>
</g>
<!-- Node30&#45;&gt;Node36 -->
<g id="edge57" class="edge"><title>Node30&#45;&gt;Node36</title>
<path fill="none" stroke="midnightblue" d="M1976.55,-238.867C2052.28,-231.805 2175.1,-218.718 2280,-200 2286.62,-198.819 2293.58,-197.371 2300.37,-195.846"/>
<polygon fill="midnightblue" stroke="midnightblue" points="2301.18,-199.251 2310.13,-193.578 2299.59,-192.433 2301.18,-199.251"/>
</g>
<!-- Node40 -->
<g id="node40" class="node"><title>Node40</title>
<g id="a_node40"><a xlink:href="LinearAlgebra_8inl.html" target="_top" xlink:title="Core/Math/LinearAlgebra.inl">
<polygon fill="white" stroke="black" points="1776.5,-174.5 1776.5,-193.5 1913.5,-193.5 1913.5,-174.5 1776.5,-174.5"/>
<text text-anchor="middle" x="1845" y="-181.5" font-family="Helvetica,sans-Serif" font-size="10.00">Core/Math/LinearAlgebra.inl</text>
</a>
</g>
</g>
<!-- Node30&#45;&gt;Node40 -->
<g id="edge63" class="edge"><title>Node30&#45;&gt;Node40</title>
<path fill="none" stroke="midnightblue" d="M1896.4,-236.403C1887.14,-227.136 1872.18,-212.183 1860.79,-200.788"/>
<polygon fill="midnightblue" stroke="midnightblue" points="1863.13,-198.177 1853.58,-193.581 1858.18,-203.127 1863.13,-198.177"/>
</g>
<!-- Node36&#45;&gt;Node7 -->
<g id="edge58" class="edge"><title>Node36&#45;&gt;Node7</title>
<path fill="none" stroke="midnightblue" d="M2312.47,-174.439C2302.23,-171.915 2290.7,-169.444 2280,-168 2035.24,-134.948 1258.05,-125.496 1040.87,-123.47"/>
<polygon fill="midnightblue" stroke="midnightblue" points="1040.68,-119.968 1030.65,-123.376 1040.62,-126.968 1040.68,-119.968"/>
</g>
<!-- Node37 -->
<g id="node37" class="node"><title>Node37</title>
<polygon fill="white" stroke="#bfbfbf" points="2411,-112.5 2411,-131.5 2467,-131.5 2467,-112.5 2411,-112.5"/>
<text text-anchor="middle" x="2439" y="-119.5" font-family="Helvetica,sans-Serif" font-size="10.00">algorithm</text>
</g>
<!-- Node36&#45;&gt;Node37 -->
<g id="edge59" class="edge"><title>Node36&#45;&gt;Node37</title>
<path fill="none" stroke="midnightblue" d="M2356.75,-174.403C2372.37,-164.646 2398.06,-148.585 2416.58,-137.011"/>
<polygon fill="midnightblue" stroke="midnightblue" points="2418.65,-139.849 2425.27,-131.581 2414.94,-133.913 2418.65,-139.849"/>
</g>
<!-- Node38 -->
<g id="node38" class="node"><title>Node38</title>
<polygon fill="white" stroke="#bfbfbf" points="2231,-112.5 2231,-131.5 2275,-131.5 2275,-112.5 2231,-112.5"/>
<text text-anchor="middle" x="2253" y="-119.5" font-family="Helvetica,sans-Serif" font-size="10.00">cmath</text>
</g>
<!-- Node36&#45;&gt;Node38 -->
<g id="edge60" class="edge"><title>Node36&#45;&gt;Node38</title>
<path fill="none" stroke="midnightblue" d="M2330.11,-174.403C2315.54,-164.691 2291.6,-148.732 2274.25,-137.17"/>
<polygon fill="midnightblue" stroke="midnightblue" points="2276.13,-134.215 2265.87,-131.581 2272.25,-140.04 2276.13,-134.215"/>
</g>
<!-- Node39 -->
<g id="node39" class="node"><title>Node39</title>
<g id="a_node39"><a xlink:href="Math_8inl.html" target="_top" xlink:title="Core/Math/Math.inl">
<polygon fill="white" stroke="black" points="2293,-112.5 2293,-131.5 2393,-131.5 2393,-112.5 2293,-112.5"/>
<text text-anchor="middle" x="2343" y="-119.5" font-family="Helvetica,sans-Serif" font-size="10.00">Core/Math/Math.inl</text>
</a>
</g>
</g>
<!-- Node36&#45;&gt;Node39 -->
<g id="edge61" class="edge"><title>Node36&#45;&gt;Node39</title>
<path fill="none" stroke="midnightblue" d="M2338.1,-174.403C2336.27,-165.938 2335.8,-152.728 2336.69,-141.82"/>
<polygon fill="midnightblue" stroke="midnightblue" points="2340.2,-141.966 2338.1,-131.581 2333.26,-141.006 2340.2,-141.966"/>
</g>
<!-- Node39&#45;&gt;Node36 -->
<g id="edge62" class="edge"><title>Node39&#45;&gt;Node36</title>
<path fill="none" stroke="midnightblue" d="M2347.9,-131.581C2349.73,-140.04 2350.2,-153.248 2349.32,-164.16"/>
<polygon fill="midnightblue" stroke="midnightblue" points="2345.8,-164.018 2347.9,-174.403 2352.74,-164.977 2345.8,-164.018"/>
</g>
<!-- Node41&#45;&gt;Node3 -->
<g id="edge68" class="edge"><title>Node41&#45;&gt;Node3</title>
<path fill="none" stroke="midnightblue" d="M1481.49,-356.201C1413.33,-348.404 1315.24,-333.817 1284,-312 1267.85,-300.723 1257.25,-280.414 1251.24,-265.489"/>
<polygon fill="midnightblue" stroke="midnightblue" points="1254.4,-263.947 1247.65,-255.779 1247.83,-266.372 1254.4,-263.947"/>
</g>
<!-- Node41&#45;&gt;Node8 -->
<g id="edge71" class="edge"><title>Node41&#45;&gt;Node8</title>
<path fill="none" stroke="midnightblue" d="M1557.01,-354.441C1569.48,-335.829 1597,-289.896 1597,-247 1597,-247 1597,-247 1597,-183 1597,-127.888 1209.53,-87.0858 1050.7,-72.6757"/>
<polygon fill="midnightblue" stroke="midnightblue" points="1050.84,-69.175 1040.57,-71.7648 1050.22,-76.1469 1050.84,-69.175"/>
</g>
<!-- Node41&#45;&gt;Node15 -->
<g id="edge66" class="edge"><title>Node41&#45;&gt;Node15</title>
<path fill="none" stroke="midnightblue" d="M1544.55,-354.403C1537.8,-345.403 1527.03,-331.041 1518.59,-319.782"/>
<polygon fill="midnightblue" stroke="midnightblue" points="1521.24,-317.481 1512.44,-311.581 1515.64,-321.681 1521.24,-317.481"/>
</g>
<!-- Node41&#45;&gt;Node26 -->
<g id="edge81" class="edge"><title>Node41&#45;&gt;Node26</title>
<path fill="none" stroke="midnightblue" d="M1490.13,-354.467C1411.93,-343.504 1276.42,-324.508 1193.72,-312.914"/>
<polygon fill="midnightblue" stroke="midnightblue" points="1194.05,-309.426 1183.66,-311.503 1193.07,-316.358 1194.05,-309.426"/>
</g>
<!-- Node41&#45;&gt;Node30 -->
<g id="edge72" class="edge"><title>Node41&#45;&gt;Node30</title>
<path fill="none" stroke="midnightblue" d="M1575.1,-354.36C1601.26,-344.777 1644.11,-328.482 1680,-312 1697.34,-304.036 1700.14,-298.729 1718,-292 1759.13,-276.504 1807.4,-265.046 1844.6,-257.571"/>
<polygon fill="midnightblue" stroke="midnightblue" points="1845.64,-260.933 1854.78,-255.568 1844.29,-254.064 1845.64,-260.933"/>
</g>
<!-- Node42 -->
<g id="node42" class="node"><title>Node42</title>
<polygon fill="white" stroke="#bfbfbf" points="1625,-292.5 1625,-311.5 1671,-311.5 1671,-292.5 1625,-292.5"/>
<text text-anchor="middle" x="1648" y="-299.5" font-family="Helvetica,sans-Serif" font-size="10.00">atomic</text>
</g>
<!-- Node41&#45;&gt;Node42 -->
<g id="edge67" class="edge"><title>Node41&#45;&gt;Node42</title>
<path fill="none" stroke="midnightblue" d="M1564.9,-354.403C1580.74,-344.601 1606.87,-328.439 1625.6,-316.853"/>
<polygon fill="midnightblue" stroke="midnightblue" points="1627.46,-319.818 1634.13,-311.581 1623.78,-313.865 1627.46,-319.818"/>
</g>
<!-- Node43 -->
<g id="node43" class="node"><title>Node43</title>
<polygon fill="white" stroke="#bfbfbf" points="1727.5,-292.5 1727.5,-311.5 1786.5,-311.5 1786.5,-292.5 1727.5,-292.5"/>
<text text-anchor="middle" x="1757" y="-299.5" font-family="Helvetica,sans-Serif" font-size="10.00">QWindow</text>
</g>
<!-- Node41&#45;&gt;Node43 -->
<g id="edge69" class="edge"><title>Node41&#45;&gt;Node43</title>
<path fill="none" stroke="midnightblue" d="M1580.51,-354.403C1616.62,-343.889 1677.85,-326.054 1717.85,-314.402"/>
<polygon fill="midnightblue" stroke="midnightblue" points="1718.92,-317.737 1727.54,-311.581 1716.96,-311.017 1718.92,-317.737"/>
</g>
<!-- Node44 -->
<g id="node44" class="node"><title>Node44</title>
<polygon fill="white" stroke="#bfbfbf" points="1805,-292.5 1805,-311.5 1859,-311.5 1859,-292.5 1805,-292.5"/>
<text text-anchor="middle" x="1832" y="-299.5" font-family="Helvetica,sans-Serif" font-size="10.00">QThread</text>
</g>
<!-- Node41&#45;&gt;Node44 -->
<g id="edge70" class="edge"><title>Node41&#45;&gt;Node44</title>
<path fill="none" stroke="midnightblue" d="M1593.85,-354.484C1642.64,-344.683 1724.72,-327.888 1795,-312 1795.1,-311.977 1795.2,-311.954 1795.3,-311.931"/>
<polygon fill="midnightblue" stroke="midnightblue" points="1796,-315.363 1804.95,-309.688 1794.41,-308.545 1796,-315.363"/>
</g>
<!-- Node45 -->
<g id="node45" class="node"><title>Node45</title>
<g id="a_node45"><a xlink:href="RadiumEngine_8hpp.html" target="_top" xlink:title="Engine/RadiumEngine.hpp">
<polygon fill="white" stroke="black" points="1293,-292.5 1293,-311.5 1425,-311.5 1425,-292.5 1293,-292.5"/>
<text text-anchor="middle" x="1359" y="-299.5" font-family="Helvetica,sans-Serif" font-size="10.00">Engine/RadiumEngine.hpp</text>
</a>
</g>
</g>
<!-- Node41&#45;&gt;Node45 -->
<g id="edge73" class="edge"><title>Node41&#45;&gt;Node45</title>
<path fill="none" stroke="midnightblue" d="M1523.49,-354.403C1490.13,-343.978 1433.74,-326.356 1396.44,-314.699"/>
<polygon fill="midnightblue" stroke="midnightblue" points="1397.05,-311.223 1386.46,-311.581 1394.96,-317.904 1397.05,-311.223"/>
</g>
<!-- Node45&#45;&gt;Node3 -->
<g id="edge78" class="edge"><title>Node45&#45;&gt;Node3</title>
<path fill="none" stroke="midnightblue" d="M1340.94,-292.444C1322.43,-283.675 1293.42,-269.935 1272.14,-259.858"/>
<polygon fill="midnightblue" stroke="midnightblue" points="1273.51,-256.634 1262.98,-255.516 1270.52,-262.96 1273.51,-256.634"/>
</g>
<!-- Node45&#45;&gt;Node4 -->
<g id="edge80" class="edge"><title>Node45&#45;&gt;Node4</title>
<path fill="none" stroke="midnightblue" d="M1373.87,-292.395C1394.28,-279.56 1426.53,-254.888 1409,-236 1372.47,-196.636 980.542,-204.182 927,-200 873.779,-195.843 811.923,-190.746 775.197,-187.691"/>
<polygon fill="midnightblue" stroke="midnightblue" points="775.344,-184.192 765.088,-186.849 774.763,-191.167 775.344,-184.192"/>
</g>
<!-- Node45&#45;&gt;Node19 -->
<g id="edge79" class="edge"><title>Node45&#45;&gt;Node19</title>
<path fill="none" stroke="midnightblue" d="M1292.8,-296.848C1266.15,-295.237 1235.12,-293.438 1207,-292 1160.57,-289.626 409.493,-282.064 371,-256 353.717,-244.298 345.642,-220.89 341.954,-204.15"/>
<polygon fill="midnightblue" stroke="midnightblue" points="345.309,-203.046 340.043,-193.852 338.426,-204.323 345.309,-203.046"/>
</g>
<!-- Node45&#45;&gt;Node27 -->
<g id="edge74" class="edge"><title>Node45&#45;&gt;Node27</title>
<path fill="none" stroke="midnightblue" d="M1356.69,-292.083C1354.83,-284.927 1352.16,-274.635 1349.85,-265.691"/>
<polygon fill="midnightblue" stroke="midnightblue" points="1353.17,-264.553 1347.27,-255.751 1346.39,-266.309 1353.17,-264.553"/>
</g>
<!-- Node46 -->
<g id="node46" class="node"><title>Node46</title>
<g id="a_node46"><a xlink:href="Singleton_8hpp.html" target="_top" xlink:title="Core/Utils/Singleton.hpp">
<polygon fill="white" stroke="black" points="1174.5,-174.5 1174.5,-193.5 1297.5,-193.5 1297.5,-174.5 1174.5,-174.5"/>
<text text-anchor="middle" x="1236" y="-181.5" font-family="Helvetica,sans-Serif" font-size="10.00">Core/Utils/Singleton.hpp</text>
</a>
</g>
</g>
<!-- Node45&#45;&gt;Node46 -->
<g id="edge75" class="edge"><title>Node45&#45;&gt;Node46</title>
<path fill="none" stroke="midnightblue" d="M1387.06,-292.47C1418.43,-281.484 1462.45,-260.82 1443,-236 1426.25,-214.617 1360.65,-200.988 1307.73,-193.251"/>
<polygon fill="midnightblue" stroke="midnightblue" points="1308.06,-189.763 1297.67,-191.828 1307.08,-196.694 1308.06,-189.763"/>
</g>
<!-- Node47 -->
<g id="node47" class="node"><title>Node47</title>
<polygon fill="white" stroke="#bfbfbf" points="1495.5,-236.5 1495.5,-255.5 1530.5,-255.5 1530.5,-236.5 1495.5,-236.5"/>
<text text-anchor="middle" x="1513" y="-243.5" font-family="Helvetica,sans-Serif" font-size="10.00">map</text>
</g>
<!-- Node45&#45;&gt;Node47 -->
<g id="edge77" class="edge"><title>Node45&#45;&gt;Node47</title>
<path fill="none" stroke="midnightblue" d="M1383.4,-292.444C1411.32,-282.654 1456.91,-266.667 1485.91,-256.499"/>
<polygon fill="midnightblue" stroke="midnightblue" points="1487.14,-259.777 1495.42,-253.165 1484.82,-253.171 1487.14,-259.777"/>
</g>
<!-- Node46&#45;&gt;Node7 -->
<g id="edge76" class="edge"><title>Node46&#45;&gt;Node7</title>
<path fill="none" stroke="midnightblue" d="M1200.16,-174.467C1155.38,-163.805 1078.69,-145.545 1029.72,-133.886"/>
<polygon fill="midnightblue" stroke="midnightblue" points="1030.25,-130.415 1019.71,-131.503 1028.63,-137.224 1030.25,-130.415"/>
</g>
</g>
</svg>
