<?xml version="1.0" encoding="UTF-8" standalone="no"?>
<!DOCTYPE svg PUBLIC "-//W3C//DTD SVG 1.1//EN"
 "http://www.w3.org/Graphics/SVG/1.1/DTD/svg11.dtd">
<!-- Generated by graphviz version 2.36.0 (20140111.2315)
 -->
<!-- Title: /home/travis/build/STORM&#45;IRIT/Radium&#45;Engine/src/Core/File/BlinnPhongMaterialData.inl Pages: 1 -->
<svg width="1730pt" height="534pt"
 viewBox="0.00 0.00 1729.57 534.00" xmlns="http://www.w3.org/2000/svg" xmlns:xlink="http://www.w3.org/1999/xlink">
<g id="graph0" class="graph" transform="scale(1 1) rotate(0) translate(4 530)">
<title>/home/travis/build/STORM&#45;IRIT/Radium&#45;Engine/src/Core/File/BlinnPhongMaterialData.inl</title>
<polygon fill="white" stroke="none" points="-4,4 -4,-530 1725.57,-530 1725.57,4 -4,4"/>
<!-- Node1 -->
<g id="node1" class="node"><title>Node1</title>
<polygon fill="#bfbfbf" stroke="black" points="595.069,-473 595.069,-525 758.069,-525 758.069,-473 595.069,-473"/>
<text text-anchor="start" x="603.069" y="-513" font-family="Helvetica,sans-Serif" font-size="10.00">/home/travis/build</text>
<text text-anchor="start" x="603.069" y="-502" font-family="Helvetica,sans-Serif" font-size="10.00">/STORM&#45;IRIT/Radium&#45;Engine</text>
<text text-anchor="start" x="603.069" y="-491" font-family="Helvetica,sans-Serif" font-size="10.00">/src/Core/File/BlinnPhongMaterial</text>
<text text-anchor="middle" x="676.569" y="-480" font-family="Helvetica,sans-Serif" font-size="10.00">Data.inl</text>
</g>
<!-- Node2 -->
<g id="node2" class="node"><title>Node2</title>
<g id="a_node2"><a xlink:href="BlinnPhongMaterialData_8hpp.html" target="_top" xlink:title="Core/File/BlinnPhongMaterial\lData.hpp">
<polygon fill="white" stroke="black" points="605.069,-405 605.069,-435 748.069,-435 748.069,-405 605.069,-405"/>
<text text-anchor="start" x="613.069" y="-423" font-family="Helvetica,sans-Serif" font-size="10.00">Core/File/BlinnPhongMaterial</text>
<text text-anchor="middle" x="676.569" y="-412" font-family="Helvetica,sans-Serif" font-size="10.00">Data.hpp</text>
</a>
</g>
</g>
<!-- Node1&#45;&gt;Node2 -->
<g id="edge1" class="edge"><title>Node1&#45;&gt;Node2</title>
<path fill="none" stroke="midnightblue" d="M670.19,-472.787C669.677,-463.932 669.696,-454.007 670.249,-445.234"/>
<polygon fill="midnightblue" stroke="midnightblue" points="673.736,-445.536 671.188,-435.252 666.767,-444.88 673.736,-445.536"/>
</g>
<!-- Node2&#45;&gt;Node1 -->
<g id="edge51" class="edge"><title>Node2&#45;&gt;Node1</title>
<path fill="none" stroke="midnightblue" d="M681.95,-435.252C682.969,-442.969 683.419,-452.877 683.301,-462.529"/>
<polygon fill="midnightblue" stroke="midnightblue" points="679.794,-462.673 682.948,-472.787 686.79,-462.913 679.794,-462.673"/>
</g>
<!-- Node3 -->
<g id="node3" class="node"><title>Node3</title>
<g id="a_node3"><a xlink:href="MaterialData_8hpp.html" target="_top" xlink:title="Core/File/MaterialData.hpp">
<polygon fill="white" stroke="black" points="609.569,-348.5 609.569,-367.5 743.569,-367.5 743.569,-348.5 609.569,-348.5"/>
<text text-anchor="middle" x="676.569" y="-355.5" font-family="Helvetica,sans-Serif" font-size="10.00">Core/File/MaterialData.hpp</text>
</a>
</g>
</g>
<!-- Node2&#45;&gt;Node3 -->
<g id="edge2" class="edge"><title>Node2&#45;&gt;Node3</title>
<path fill="none" stroke="midnightblue" d="M676.569,-404.781C676.569,-396.781 676.569,-386.689 676.569,-378.017"/>
<polygon fill="midnightblue" stroke="midnightblue" points="680.069,-377.73 676.569,-367.731 673.069,-377.731 680.069,-377.73"/>
</g>
<!-- Node4 -->
<g id="node4" class="node"><title>Node4</title>
<polygon fill="white" stroke="#bfbfbf" points="1506.07,-112.5 1506.07,-131.5 1547.07,-131.5 1547.07,-112.5 1506.07,-112.5"/>
<text text-anchor="middle" x="1526.57" y="-119.5" font-family="Helvetica,sans-Serif" font-size="10.00">string</text>
</g>
<!-- Node3&#45;&gt;Node4 -->
<g id="edge3" class="edge"><title>Node3&#45;&gt;Node4</title>
<path fill="none" stroke="midnightblue" d="M743.885,-356.578C936.367,-354.948 1479.86,-347.243 1551.57,-312 1610.59,-282.996 1620.56,-223.676 1585.57,-168 1577.48,-155.137 1564.33,-144.575 1552.49,-136.924"/>
<polygon fill="midnightblue" stroke="midnightblue" points="1554.16,-133.845 1543.79,-131.651 1550.53,-139.83 1554.16,-133.845"/>
</g>
<!-- Node5 -->
<g id="node5" class="node"><title>Node5</title>
<polygon fill="white" stroke="#bfbfbf" points="161.569,-112.5 161.569,-131.5 205.569,-131.5 205.569,-112.5 161.569,-112.5"/>
<text text-anchor="middle" x="183.569" y="-119.5" font-family="Helvetica,sans-Serif" font-size="10.00">vector</text>
</g>
<!-- Node3&#45;&gt;Node5 -->
<g id="edge4" class="edge"><title>Node3&#45;&gt;Node5</title>
<path fill="none" stroke="midnightblue" d="M609.396,-355.066C465.392,-350.455 136.432,-337.272 92.5692,-312 29.6848,-275.769 -28.6143,-225.576 15.5692,-168 17.6778,-165.252 103.112,-143.315 151.312,-131.116"/>
<polygon fill="midnightblue" stroke="midnightblue" points="152.435,-134.442 161.273,-128.599 150.72,-127.655 152.435,-134.442"/>
</g>
<!-- Node6 -->
<g id="node6" class="node"><title>Node6</title>
<g id="a_node6"><a xlink:href="VectorArray_8hpp.html" target="_top" xlink:title="Core/Containers/VectorArray.hpp">
<polygon fill="white" stroke="black" points="102.069,-292.5 102.069,-311.5 263.069,-311.5 263.069,-292.5 102.069,-292.5"/>
<text text-anchor="middle" x="182.569" y="-299.5" font-family="Helvetica,sans-Serif" font-size="10.00">Core/Containers/VectorArray.hpp</text>
</a>
</g>
</g>
<!-- Node3&#45;&gt;Node6 -->
<g id="edge5" class="edge"><title>Node3&#45;&gt;Node6</title>
<path fill="none" stroke="midnightblue" d="M609.432,-349.661C521.657,-340.066 367.695,-323.236 270.639,-312.627"/>
<polygon fill="midnightblue" stroke="midnightblue" points="270.875,-309.132 260.554,-311.525 270.114,-316.091 270.875,-309.132"/>
</g>
<!-- Node8 -->
<g id="node8" class="node"><title>Node8</title>
<g id="a_node8"><a xlink:href="RaCore_8hpp.html" target="_top" xlink:title="Core/RaCore.hpp">
<polygon fill="white" stroke="black" points="1018.07,-112.5 1018.07,-131.5 1111.07,-131.5 1111.07,-112.5 1018.07,-112.5"/>
<text text-anchor="middle" x="1064.57" y="-119.5" font-family="Helvetica,sans-Serif" font-size="10.00">Core/RaCore.hpp</text>
</a>
</g>
</g>
<!-- Node3&#45;&gt;Node8 -->
<g id="edge33" class="edge"><title>Node3&#45;&gt;Node8</title>
<path fill="none" stroke="midnightblue" d="M616.495,-348.48C489.944,-328.281 215.29,-271.275 312.569,-168 336.338,-142.766 836.657,-128.461 1007.77,-124.293"/>
<polygon fill="midnightblue" stroke="midnightblue" points="1007.93,-127.79 1017.84,-124.05 1007.76,-120.792 1007.93,-127.79"/>
</g>
<!-- Node16 -->
<g id="node16" class="node"><title>Node16</title>
<g id="a_node16"><a xlink:href="LinearAlgebra_8hpp.html" target="_top" xlink:title="Core/Math/LinearAlgebra.hpp">
<polygon fill="white" stroke="black" points="530.069,-236.5 530.069,-255.5 673.069,-255.5 673.069,-236.5 530.069,-236.5"/>
<text text-anchor="middle" x="601.569" y="-243.5" font-family="Helvetica,sans-Serif" font-size="10.00">Core/Math/LinearAlgebra.hpp</text>
</a>
</g>
</g>
<!-- Node3&#45;&gt;Node16 -->
<g id="edge32" class="edge"><title>Node3&#45;&gt;Node16</title>
<path fill="none" stroke="midnightblue" d="M670.684,-348.368C658.307,-330.215 629.388,-287.802 613.153,-263.99"/>
<polygon fill="midnightblue" stroke="midnightblue" points="615.952,-261.882 607.427,-255.591 610.169,-265.825 615.952,-261.882"/>
</g>
<!-- Node27 -->
<g id="node27" class="node"><title>Node27</title>
<g id="a_node27"><a xlink:href="AssetData_8hpp.html" target="_top" xlink:title="Core/File/AssetData.hpp">
<polygon fill="white" stroke="black" points="1188.07,-174.5 1188.07,-193.5 1313.07,-193.5 1313.07,-174.5 1188.07,-174.5"/>
<text text-anchor="middle" x="1250.57" y="-181.5" font-family="Helvetica,sans-Serif" font-size="10.00">Core/File/AssetData.hpp</text>
</a>
</g>
</g>
<!-- Node3&#45;&gt;Node27 -->
<g id="edge34" class="edge"><title>Node3&#45;&gt;Node27</title>
<path fill="none" stroke="midnightblue" d="M705.034,-348.47C799.704,-320.102 1104.09,-228.892 1212.11,-196.525"/>
<polygon fill="midnightblue" stroke="midnightblue" points="1213.36,-199.804 1221.93,-193.581 1211.35,-193.099 1213.36,-199.804"/>
</g>
<!-- Node28 -->
<g id="node28" class="node"><title>Node28</title>
<g id="a_node28"><a xlink:href="MaterialData_8inl.html" target="_top" xlink:title="Core/File/MaterialData.inl">
<polygon fill="white" stroke="black" points="1414.57,-292.5 1414.57,-311.5 1542.57,-311.5 1542.57,-292.5 1414.57,-292.5"/>
<text text-anchor="middle" x="1478.57" y="-299.5" font-family="Helvetica,sans-Serif" font-size="10.00">Core/File/MaterialData.inl</text>
</a>
</g>
</g>
<!-- Node3&#45;&gt;Node28 -->
<g id="edge37" class="edge"><title>Node3&#45;&gt;Node28</title>
<path fill="none" stroke="midnightblue" d="M743.694,-352.208C892.421,-341.951 1248.52,-317.975 1403.95,-307.753"/>
<polygon fill="midnightblue" stroke="midnightblue" points="1404.59,-311.218 1414.34,-307.07 1404.13,-304.233 1404.59,-311.218"/>
</g>
<!-- Node6&#45;&gt;Node5 -->
<g id="edge31" class="edge"><title>Node6&#45;&gt;Node5</title>
<path fill="none" stroke="midnightblue" d="M182.617,-292.415C182.77,-265.227 183.246,-180.563 183.461,-142.217"/>
<polygon fill="midnightblue" stroke="midnightblue" points="186.963,-141.938 183.519,-131.918 179.963,-141.899 186.963,-141.938"/>
</g>
<!-- Node7 -->
<g id="node7" class="node"><title>Node7</title>
<g id="a_node7"><a xlink:href="AlignedStdVector_8hpp.html" target="_top" xlink:title="Core/Containers/AlignedStd\lVector.hpp">
<polygon fill="white" stroke="black" points="24.5692,-169 24.5692,-199 162.569,-199 162.569,-169 24.5692,-169"/>
<text text-anchor="start" x="32.5692" y="-187" font-family="Helvetica,sans-Serif" font-size="10.00">Core/Containers/AlignedStd</text>
<text text-anchor="middle" x="93.5692" y="-176" font-family="Helvetica,sans-Serif" font-size="10.00">Vector.hpp</text>
</a>
</g>
</g>
<!-- Node6&#45;&gt;Node7 -->
<g id="edge6" class="edge"><title>Node6&#45;&gt;Node7</title>
<path fill="none" stroke="midnightblue" d="M175.88,-292.281C162.151,-274.387 130.421,-233.031 110.61,-207.211"/>
<polygon fill="midnightblue" stroke="midnightblue" points="113.256,-204.909 104.392,-199.106 107.702,-209.171 113.256,-204.909"/>
</g>
<!-- Node6&#45;&gt;Node8 -->
<g id="edge30" class="edge"><title>Node6&#45;&gt;Node8</title>
<path fill="none" stroke="midnightblue" d="M185.851,-292.274C196.255,-265.117 229.186,-183.016 252.569,-168 315.693,-127.465 833.672,-123.219 1007.75,-122.946"/>
<polygon fill="midnightblue" stroke="midnightblue" points="1007.99,-126.445 1017.98,-122.934 1007.98,-119.445 1007.99,-126.445"/>
</g>
<!-- Node6&#45;&gt;Node16 -->
<g id="edge16" class="edge"><title>Node6&#45;&gt;Node16</title>
<path fill="none" stroke="midnightblue" d="M248.961,-292.444C324.047,-282.767 446.111,-267.035 525.115,-256.853"/>
<polygon fill="midnightblue" stroke="midnightblue" points="526.017,-260.266 535.488,-255.516 525.123,-253.323 526.017,-260.266"/>
</g>
<!-- Node7&#45;&gt;Node5 -->
<g id="edge15" class="edge"><title>Node7&#45;&gt;Node5</title>
<path fill="none" stroke="midnightblue" d="M114.898,-168.781C129.14,-159.286 147.804,-146.843 162.079,-137.327"/>
<polygon fill="midnightblue" stroke="midnightblue" points="164.357,-140.015 170.736,-131.556 160.474,-134.191 164.357,-140.015"/>
</g>
<!-- Node7&#45;&gt;Node8 -->
<g id="edge7" class="edge"><title>Node7&#45;&gt;Node8</title>
<path fill="none" stroke="midnightblue" d="M162.586,-173.592C179.559,-171.514 197.701,-169.49 214.569,-168 512.618,-141.669 870.921,-128.84 1007.72,-124.626"/>
<polygon fill="midnightblue" stroke="midnightblue" points="1008.07,-128.117 1017.96,-124.314 1007.86,-121.12 1008.07,-128.117"/>
</g>
<!-- Node15 -->
<g id="node15" class="node"><title>Node15</title>
<polygon fill="white" stroke="#bfbfbf" points="49.5692,-112.5 49.5692,-131.5 137.569,-131.5 137.569,-112.5 49.5692,-112.5"/>
<text text-anchor="middle" x="93.5692" y="-119.5" font-family="Helvetica,sans-Serif" font-size="10.00">Eigen/StdVector</text>
</g>
<!-- Node7&#45;&gt;Node15 -->
<g id="edge14" class="edge"><title>Node7&#45;&gt;Node15</title>
<path fill="none" stroke="midnightblue" d="M93.5692,-168.781C93.5692,-160.781 93.5692,-150.689 93.5692,-142.017"/>
<polygon fill="midnightblue" stroke="midnightblue" points="97.0693,-141.73 93.5692,-131.731 90.0693,-141.731 97.0693,-141.73"/>
</g>
<!-- Node9 -->
<g id="node9" class="node"><title>Node9</title>
<g id="a_node9"><a xlink:href="CoreMacros_8hpp.html" target="_top" xlink:title="Core/CoreMacros.hpp">
<polygon fill="white" stroke="black" points="1132.07,-56.5 1132.07,-75.5 1245.07,-75.5 1245.07,-56.5 1132.07,-56.5"/>
<text text-anchor="middle" x="1188.57" y="-63.5" font-family="Helvetica,sans-Serif" font-size="10.00">Core/CoreMacros.hpp</text>
</a>
</g>
</g>
<!-- Node8&#45;&gt;Node9 -->
<g id="edge8" class="edge"><title>Node8&#45;&gt;Node9</title>
<path fill="none" stroke="midnightblue" d="M1084.22,-112.444C1104.53,-103.596 1136.47,-89.6875 1159.67,-79.5865"/>
<polygon fill="midnightblue" stroke="midnightblue" points="1161.24,-82.7181 1169.01,-75.5164 1158.45,-76.3002 1161.24,-82.7181"/>
</g>
<!-- Node10 -->
<g id="node10" class="node"><title>Node10</title>
<polygon fill="white" stroke="#bfbfbf" points="1263.07,-0.5 1263.07,-19.5 1312.07,-19.5 1312.07,-0.5 1263.07,-0.5"/>
<text text-anchor="middle" x="1287.57" y="-7.5" font-family="Helvetica,sans-Serif" font-size="10.00">cassert</text>
</g>
<!-- Node9&#45;&gt;Node10 -->
<g id="edge9" class="edge"><title>Node9&#45;&gt;Node10</title>
<path fill="none" stroke="midnightblue" d="M1204.48,-56.324C1220.21,-47.7428 1244.51,-34.486 1262.78,-24.5224"/>
<polygon fill="midnightblue" stroke="midnightblue" points="1264.6,-27.5157 1271.7,-19.6545 1261.25,-21.3704 1264.6,-27.5157"/>
</g>
<!-- Node11 -->
<g id="node11" class="node"><title>Node11</title>
<polygon fill="white" stroke="#bfbfbf" points="1067.07,-0.5 1067.07,-19.5 1110.07,-19.5 1110.07,-0.5 1067.07,-0.5"/>
<text text-anchor="middle" x="1088.57" y="-7.5" font-family="Helvetica,sans-Serif" font-size="10.00">cstdio</text>
</g>
<!-- Node9&#45;&gt;Node11 -->
<g id="edge10" class="edge"><title>Node9&#45;&gt;Node11</title>
<path fill="none" stroke="midnightblue" d="M1172.5,-56.324C1156.61,-47.7428 1132.06,-34.486 1113.61,-24.5224"/>
<polygon fill="midnightblue" stroke="midnightblue" points="1115.06,-21.3264 1104.6,-19.6545 1111.73,-27.4857 1115.06,-21.3264"/>
</g>
<!-- Node12 -->
<g id="node12" class="node"><title>Node12</title>
<polygon fill="white" stroke="#bfbfbf" points="1128.57,-0.5 1128.57,-19.5 1182.57,-19.5 1182.57,-0.5 1128.57,-0.5"/>
<text text-anchor="middle" x="1155.57" y="-7.5" font-family="Helvetica,sans-Serif" font-size="10.00">iostream</text>
</g>
<!-- Node9&#45;&gt;Node12 -->
<g id="edge11" class="edge"><title>Node9&#45;&gt;Node12</title>
<path fill="none" stroke="midnightblue" d="M1183.12,-56.083C1178.55,-48.6127 1171.9,-37.7244 1166.28,-28.5199"/>
<polygon fill="midnightblue" stroke="midnightblue" points="1169.12,-26.4588 1160.92,-19.7511 1163.15,-30.109 1169.12,-26.4588"/>
</g>
<!-- Node13 -->
<g id="node13" class="node"><title>Node13</title>
<polygon fill="white" stroke="#bfbfbf" points="1420.57,-0.5 1420.57,-19.5 1472.57,-19.5 1472.57,-0.5 1420.57,-0.5"/>
<text text-anchor="middle" x="1446.57" y="-7.5" font-family="Helvetica,sans-Serif" font-size="10.00">sstream</text>
</g>
<!-- Node9&#45;&gt;Node13 -->
<g id="edge12" class="edge"><title>Node9&#45;&gt;Node13</title>
<path fill="none" stroke="midnightblue" d="M1229.45,-56.4435C1279.36,-45.9982 1362.96,-28.4986 1410.55,-18.5385"/>
<polygon fill="midnightblue" stroke="midnightblue" points="1411.35,-21.9481 1420.42,-16.4736 1409.91,-15.0966 1411.35,-21.9481"/>
</g>
<!-- Node14 -->
<g id="node14" class="node"><title>Node14</title>
<polygon fill="white" stroke="#bfbfbf" points="1200.57,-0.5 1200.57,-19.5 1244.57,-19.5 1244.57,-0.5 1200.57,-0.5"/>
<text text-anchor="middle" x="1222.57" y="-7.5" font-family="Helvetica,sans-Serif" font-size="10.00">thread</text>
</g>
<!-- Node9&#45;&gt;Node14 -->
<g id="edge13" class="edge"><title>Node9&#45;&gt;Node14</title>
<path fill="none" stroke="midnightblue" d="M1194.18,-56.083C1198.94,-48.5341 1205.89,-37.4948 1211.72,-28.2298"/>
<polygon fill="midnightblue" stroke="midnightblue" points="1214.69,-30.0783 1217.06,-19.7511 1208.77,-26.3486 1214.69,-30.0783"/>
</g>
<!-- Node16&#45;&gt;Node8 -->
<g id="edge17" class="edge"><title>Node16&#45;&gt;Node8</title>
<path fill="none" stroke="midnightblue" d="M530.067,-243.585C456.663,-240.442 349.594,-230.577 323.569,-200 314.351,-189.17 313.822,-178.357 323.569,-168 346.942,-143.164 838.359,-128.632 1007.76,-124.345"/>
<polygon fill="midnightblue" stroke="midnightblue" points="1008.06,-127.839 1017.97,-124.09 1007.89,-120.841 1008.06,-127.839"/>
</g>
<!-- Node17 -->
<g id="node17" class="node"><title>Node17</title>
<polygon fill="white" stroke="#bfbfbf" points="333.069,-174.5 333.069,-193.5 398.069,-193.5 398.069,-174.5 333.069,-174.5"/>
<text text-anchor="middle" x="365.569" y="-181.5" font-family="Helvetica,sans-Serif" font-size="10.00">Eigen/Core</text>
</g>
<!-- Node16&#45;&gt;Node17 -->
<g id="edge18" class="edge"><title>Node16&#45;&gt;Node17</title>
<path fill="none" stroke="midnightblue" d="M557.407,-236.439C517.617,-228.341 457.693,-215.187 406.569,-200 403.445,-199.072 400.213,-198.032 396.999,-196.945"/>
<polygon fill="midnightblue" stroke="midnightblue" points="398.125,-193.631 387.531,-193.603 395.796,-200.232 398.125,-193.631"/>
</g>
<!-- Node18 -->
<g id="node18" class="node"><title>Node18</title>
<polygon fill="white" stroke="#bfbfbf" points="416.069,-174.5 416.069,-193.5 503.069,-193.5 503.069,-174.5 416.069,-174.5"/>
<text text-anchor="middle" x="459.569" y="-181.5" font-family="Helvetica,sans-Serif" font-size="10.00">Eigen/Geometry</text>
</g>
<!-- Node16&#45;&gt;Node18 -->
<g id="edge19" class="edge"><title>Node16&#45;&gt;Node18</title>
<path fill="none" stroke="midnightblue" d="M581.224,-236.403C557.182,-226.245 516.972,-209.255 489.407,-197.607"/>
<polygon fill="midnightblue" stroke="midnightblue" points="490.45,-194.249 479.877,-193.581 487.726,-200.697 490.45,-194.249"/>
</g>
<!-- Node19 -->
<g id="node19" class="node"><title>Node19</title>
<polygon fill="white" stroke="#bfbfbf" points="521.069,-174.5 521.069,-193.5 596.069,-193.5 596.069,-174.5 521.069,-174.5"/>
<text text-anchor="middle" x="558.569" y="-181.5" font-family="Helvetica,sans-Serif" font-size="10.00">Eigen/Sparse</text>
</g>
<!-- Node16&#45;&gt;Node19 -->
<g id="edge20" class="edge"><title>Node16&#45;&gt;Node19</title>
<path fill="none" stroke="midnightblue" d="M595.408,-236.403C588.958,-227.403 578.665,-213.041 570.597,-201.782"/>
<polygon fill="midnightblue" stroke="midnightblue" points="573.389,-199.67 564.719,-193.581 567.699,-203.748 573.389,-199.67"/>
</g>
<!-- Node20 -->
<g id="node20" class="node"><title>Node20</title>
<polygon fill="white" stroke="#bfbfbf" points="614.069,-174.5 614.069,-193.5 673.069,-193.5 673.069,-174.5 614.069,-174.5"/>
<text text-anchor="middle" x="643.569" y="-181.5" font-family="Helvetica,sans-Serif" font-size="10.00">functional</text>
</g>
<!-- Node16&#45;&gt;Node20 -->
<g id="edge21" class="edge"><title>Node16&#45;&gt;Node20</title>
<path fill="none" stroke="midnightblue" d="M607.587,-236.403C613.887,-227.403 623.941,-213.041 631.822,-201.782"/>
<polygon fill="midnightblue" stroke="midnightblue" points="634.695,-203.78 637.563,-193.581 628.961,-199.766 634.695,-203.78"/>
</g>
<!-- Node21 -->
<g id="node21" class="node"><title>Node21</title>
<polygon fill="white" stroke="#bfbfbf" points="691.069,-169 691.069,-199 824.069,-199 824.069,-169 691.069,-169"/>
<text text-anchor="start" x="699.069" y="-187" font-family="Helvetica,sans-Serif" font-size="10.00">unsupported/Eigen/Aligned</text>
<text text-anchor="middle" x="757.569" y="-176" font-family="Helvetica,sans-Serif" font-size="10.00">Vector3</text>
</g>
<!-- Node16&#45;&gt;Node21 -->
<g id="edge22" class="edge"><title>Node16&#45;&gt;Node21</title>
<path fill="none" stroke="midnightblue" d="M623.92,-236.403C646.704,-227.641 682.704,-213.794 711.604,-202.679"/>
<polygon fill="midnightblue" stroke="midnightblue" points="713.026,-205.882 721.103,-199.025 710.513,-199.348 713.026,-205.882"/>
</g>
<!-- Node22 -->
<g id="node22" class="node"><title>Node22</title>
<g id="a_node22"><a xlink:href="Math_8hpp.html" target="_top" xlink:title="Core/Math/Math.hpp">
<polygon fill="white" stroke="black" points="1331.57,-174.5 1331.57,-193.5 1437.57,-193.5 1437.57,-174.5 1331.57,-174.5"/>
<text text-anchor="middle" x="1384.57" y="-181.5" font-family="Helvetica,sans-Serif" font-size="10.00">Core/Math/Math.hpp</text>
</a>
</g>
</g>
<!-- Node16&#45;&gt;Node22 -->
<g id="edge23" class="edge"><title>Node16&#45;&gt;Node22</title>
<path fill="none" stroke="midnightblue" d="M673.275,-244.573C803.234,-242.901 1086.06,-235.132 1321.57,-200 1328.59,-198.952 1335.98,-197.509 1343.14,-195.928"/>
<polygon fill="midnightblue" stroke="midnightblue" points="1344.43,-199.222 1353.37,-193.545 1342.84,-192.404 1344.43,-199.222"/>
</g>
<!-- Node26 -->
<g id="node26" class="node"><title>Node26</title>
<g id="a_node26"><a xlink:href="LinearAlgebra_8inl.html" target="_top" xlink:title="Core/Math/LinearAlgebra.inl">
<polygon fill="white" stroke="black" points="842.069,-174.5 842.069,-193.5 979.069,-193.5 979.069,-174.5 842.069,-174.5"/>
<text text-anchor="middle" x="910.569" y="-181.5" font-family="Helvetica,sans-Serif" font-size="10.00">Core/Math/LinearAlgebra.inl</text>
</a>
</g>
</g>
<!-- Node16&#45;&gt;Node26 -->
<g id="edge29" class="edge"><title>Node16&#45;&gt;Node26</title>
<path fill="none" stroke="midnightblue" d="M645.513,-236.467C701.113,-225.671 796.828,-207.086 856.751,-195.45"/>
<polygon fill="midnightblue" stroke="midnightblue" points="857.627,-198.845 866.777,-193.503 856.293,-191.974 857.627,-198.845"/>
</g>
<!-- Node22&#45;&gt;Node8 -->
<g id="edge24" class="edge"><title>Node22&#45;&gt;Node8</title>
<path fill="none" stroke="midnightblue" d="M1350.32,-174.449C1341.02,-172.234 1330.93,-169.932 1321.57,-168 1252.95,-153.836 1173.42,-140.359 1121.22,-131.91"/>
<polygon fill="midnightblue" stroke="midnightblue" points="1121.59,-128.424 1111.16,-130.289 1120.47,-135.335 1121.59,-128.424"/>
</g>
<!-- Node23 -->
<g id="node23" class="node"><title>Node23</title>
<polygon fill="white" stroke="#bfbfbf" points="1665.57,-112.5 1665.57,-131.5 1721.57,-131.5 1721.57,-112.5 1665.57,-112.5"/>
<text text-anchor="middle" x="1693.57" y="-119.5" font-family="Helvetica,sans-Serif" font-size="10.00">algorithm</text>
</g>
<!-- Node22&#45;&gt;Node23 -->
<g id="edge25" class="edge"><title>Node22&#45;&gt;Node23</title>
<path fill="none" stroke="midnightblue" d="M1418.28,-174.475C1427.43,-172.26 1437.36,-169.951 1446.57,-168 1520.06,-152.428 1606.55,-137.427 1655.23,-129.286"/>
<polygon fill="midnightblue" stroke="midnightblue" points="1656.02,-132.702 1665.31,-127.607 1654.87,-125.797 1656.02,-132.702"/>
</g>
<!-- Node24 -->
<g id="node24" class="node"><title>Node24</title>
<polygon fill="white" stroke="#bfbfbf" points="1272.57,-112.5 1272.57,-131.5 1316.57,-131.5 1316.57,-112.5 1272.57,-112.5"/>
<text text-anchor="middle" x="1294.57" y="-119.5" font-family="Helvetica,sans-Serif" font-size="10.00">cmath</text>
</g>
<!-- Node22&#45;&gt;Node24 -->
<g id="edge26" class="edge"><title>Node22&#45;&gt;Node24</title>
<path fill="none" stroke="midnightblue" d="M1371.67,-174.403C1357.1,-164.691 1333.17,-148.732 1315.82,-137.17"/>
<polygon fill="midnightblue" stroke="midnightblue" points="1317.7,-134.215 1307.44,-131.581 1313.82,-140.04 1317.7,-134.215"/>
</g>
<!-- Node25 -->
<g id="node25" class="node"><title>Node25</title>
<g id="a_node25"><a xlink:href="Math_8inl.html" target="_top" xlink:title="Core/Math/Math.inl">
<polygon fill="white" stroke="black" points="1334.57,-112.5 1334.57,-131.5 1434.57,-131.5 1434.57,-112.5 1334.57,-112.5"/>
<text text-anchor="middle" x="1384.57" y="-119.5" font-family="Helvetica,sans-Serif" font-size="10.00">Core/Math/Math.inl</text>
</a>
</g>
</g>
<!-- Node22&#45;&gt;Node25 -->
<g id="edge27" class="edge"><title>Node22&#45;&gt;Node25</title>
<path fill="none" stroke="midnightblue" d="M1379.67,-174.403C1377.84,-165.938 1377.37,-152.728 1378.25,-141.82"/>
<polygon fill="midnightblue" stroke="midnightblue" points="1381.77,-141.966 1379.67,-131.581 1374.83,-141.006 1381.77,-141.966"/>
</g>
<!-- Node25&#45;&gt;Node22 -->
<g id="edge28" class="edge"><title>Node25&#45;&gt;Node22</title>
<path fill="none" stroke="midnightblue" d="M1389.47,-131.581C1391.3,-140.04 1391.77,-153.248 1390.89,-164.16"/>
<polygon fill="midnightblue" stroke="midnightblue" points="1387.37,-164.018 1389.47,-174.403 1394.31,-164.977 1387.37,-164.018"/>
</g>
<!-- Node27&#45;&gt;Node4 -->
<g id="edge36" class="edge"><title>Node27&#45;&gt;Node4</title>
<path fill="none" stroke="midnightblue" d="M1289.82,-174.467C1345.26,-162.415 1445.35,-140.657 1495.77,-129.696"/>
<polygon fill="midnightblue" stroke="midnightblue" points="1496.71,-133.072 1505.74,-127.528 1495.23,-126.232 1496.71,-133.072"/>
</g>
<!-- Node27&#45;&gt;Node8 -->
<g id="edge35" class="edge"><title>Node27&#45;&gt;Node8</title>
<path fill="none" stroke="midnightblue" d="M1223.92,-174.403C1191.6,-163.978 1136.97,-146.356 1100.84,-134.699"/>
<polygon fill="midnightblue" stroke="midnightblue" points="1101.76,-131.32 1091.17,-131.581 1099.61,-137.982 1101.76,-131.32"/>
</g>
<!-- Node28&#45;&gt;Node3 -->
<g id="edge38" class="edge"><title>Node28&#45;&gt;Node3</title>
<path fill="none" stroke="midnightblue" d="M1414.35,-307.592C1268.22,-317.678 911.593,-341.692 753.79,-352.076"/>
<polygon fill="midnightblue" stroke="midnightblue" points="753.436,-348.592 743.687,-352.74 753.895,-355.577 753.436,-348.592"/>
</g>
<!-- Node28&#45;&gt;Node23 -->
<g id="edge49" class="edge"><title>Node28&#45;&gt;Node23</title>
<path fill="none" stroke="midnightblue" d="M1517.87,-292.481C1543.01,-285.634 1575.33,-274.11 1599.57,-256 1641.53,-224.649 1671.99,-169.026 1685.61,-140.677"/>
<polygon fill="midnightblue" stroke="midnightblue" points="1688.81,-142.104 1689.86,-131.561 1682.47,-139.146 1688.81,-142.104"/>
</g>
<!-- Node29 -->
<g id="node29" class="node"><title>Node29</title>
<g id="a_node29"><a xlink:href="Log_8hpp.html" target="_top" xlink:title="Core/Log/Log.hpp">
<polygon fill="white" stroke="black" points="1431.57,-236.5 1431.57,-255.5 1525.57,-255.5 1525.57,-236.5 1431.57,-236.5"/>
<text text-anchor="middle" x="1478.57" y="-243.5" font-family="Helvetica,sans-Serif" font-size="10.00">Core/Log/Log.hpp</text>
</a>
</g>
</g>
<!-- Node28&#45;&gt;Node29 -->
<g id="edge39" class="edge"><title>Node28&#45;&gt;Node29</title>
<path fill="none" stroke="midnightblue" d="M1478.57,-292.083C1478.57,-285.006 1478.57,-274.861 1478.57,-265.986"/>
<polygon fill="midnightblue" stroke="midnightblue" points="1482.07,-265.751 1478.57,-255.751 1475.07,-265.751 1482.07,-265.751"/>
</g>
<!-- Node33 -->
<g id="node33" class="node"><title>Node33</title>
<polygon fill="white" stroke="#bfbfbf" points="1544.07,-236.5 1544.07,-255.5 1591.07,-255.5 1591.07,-236.5 1544.07,-236.5"/>
<text text-anchor="middle" x="1567.57" y="-243.5" font-family="Helvetica,sans-Serif" font-size="10.00">iterator</text>
</g>
<!-- Node28&#45;&gt;Node33 -->
<g id="edge50" class="edge"><title>Node28&#45;&gt;Node33</title>
<path fill="none" stroke="midnightblue" d="M1492.87,-292.324C1506.75,-283.9 1528.06,-270.971 1544.37,-261.074"/>
<polygon fill="midnightblue" stroke="midnightblue" points="1546.57,-263.834 1553.31,-255.655 1542.94,-257.85 1546.57,-263.834"/>
</g>
<!-- Node29&#45;&gt;Node4 -->
<g id="edge43" class="edge"><title>Node29&#45;&gt;Node4</title>
<path fill="none" stroke="midnightblue" d="M1516.54,-236.411C1535.98,-229.883 1557.95,-218.715 1569.57,-200 1577.07,-187.918 1574.86,-181.201 1569.57,-168 1564.89,-156.328 1555.58,-145.969 1546.81,-138.141"/>
<polygon fill="midnightblue" stroke="midnightblue" points="1548.99,-135.401 1539.07,-131.698 1544.52,-140.783 1548.99,-135.401"/>
</g>
<!-- Node29&#45;&gt;Node8 -->
<g id="edge40" class="edge"><title>Node29&#45;&gt;Node8</title>
<path fill="none" stroke="midnightblue" d="M1431.39,-245.718C1370.35,-244.941 1261.96,-237.68 1178.57,-200 1158.45,-190.908 1158.57,-180.779 1140.57,-168 1124.21,-156.387 1104.72,-144.89 1089.57,-136.424"/>
<polygon fill="midnightblue" stroke="midnightblue" points="1091.22,-133.333 1080.77,-131.57 1087.84,-139.463 1091.22,-133.333"/>
</g>
<!-- Node29&#45;&gt;Node13 -->
<g id="edge41" class="edge"><title>Node29&#45;&gt;Node13</title>
<path fill="none" stroke="midnightblue" d="M1525.75,-237.448C1547.84,-231.29 1572.19,-220.144 1585.57,-200 1593.44,-188.153 1589.03,-181.794 1585.57,-168 1569.22,-102.85 1504.23,-50.0554 1469.21,-25.6499"/>
<polygon fill="midnightblue" stroke="midnightblue" points="1470.83,-22.5222 1460.59,-19.7988 1466.9,-28.3128 1470.83,-22.5222"/>
</g>
<!-- Node30 -->
<g id="node30" class="node"><title>Node30</title>
<polygon fill="white" stroke="#bfbfbf" points="1455.57,-174.5 1455.57,-193.5 1501.57,-193.5 1501.57,-174.5 1455.57,-174.5"/>
<text text-anchor="middle" x="1478.57" y="-181.5" font-family="Helvetica,sans-Serif" font-size="10.00">stdio.h</text>
</g>
<!-- Node29&#45;&gt;Node30 -->
<g id="edge42" class="edge"><title>Node29&#45;&gt;Node30</title>
<path fill="none" stroke="midnightblue" d="M1478.57,-236.403C1478.57,-227.938 1478.57,-214.728 1478.57,-203.82"/>
<polygon fill="midnightblue" stroke="midnightblue" points="1482.07,-203.581 1478.57,-193.581 1475.07,-203.581 1482.07,-203.581"/>
</g>
<!-- Node31 -->
<g id="node31" class="node"><title>Node31</title>
<g id="a_node31"><a xlink:href="StringUtils_8hpp.html" target="_top" xlink:title="Core/String/StringUtils.hpp">
<polygon fill="white" stroke="black" points="997.569,-174.5 997.569,-193.5 1131.57,-193.5 1131.57,-174.5 997.569,-174.5"/>
<text text-anchor="middle" x="1064.57" y="-181.5" font-family="Helvetica,sans-Serif" font-size="10.00">Core/String/StringUtils.hpp</text>
</a>
</g>
</g>
<!-- Node29&#45;&gt;Node31 -->
<g id="edge44" class="edge"><title>Node29&#45;&gt;Node31</title>
<path fill="none" stroke="midnightblue" d="M1431.31,-239.351C1366.67,-231.455 1247.1,-216.251 1145.57,-200 1136.85,-198.604 1127.62,-197.009 1118.64,-195.391"/>
<polygon fill="midnightblue" stroke="midnightblue" points="1119.11,-191.919 1108.64,-193.565 1117.85,-198.805 1119.11,-191.919"/>
</g>
<!-- Node32 -->
<g id="node32" class="node"><title>Node32</title>
<polygon fill="white" stroke="#bfbfbf" points="1520.07,-174.5 1520.07,-193.5 1561.07,-193.5 1561.07,-174.5 1520.07,-174.5"/>
<text text-anchor="middle" x="1540.57" y="-181.5" font-family="Helvetica,sans-Serif" font-size="10.00">ctime</text>
</g>
<!-- Node29&#45;&gt;Node32 -->
<g id="edge48" class="edge"><title>Node29&#45;&gt;Node32</title>
<path fill="none" stroke="midnightblue" d="M1487.45,-236.403C1497.03,-227.136 1512.48,-212.183 1524.26,-200.788"/>
<polygon fill="midnightblue" stroke="midnightblue" points="1526.95,-203.05 1531.7,-193.581 1522.08,-198.02 1526.95,-203.05"/>
</g>
<!-- Node31&#45;&gt;Node4 -->
<g id="edge46" class="edge"><title>Node31&#45;&gt;Node4</title>
<path fill="none" stroke="midnightblue" d="M1129.08,-174.487C1145.24,-172.361 1162.54,-170.091 1178.57,-168 1295.68,-152.724 1434.98,-134.779 1495.71,-126.967"/>
<polygon fill="midnightblue" stroke="midnightblue" points="1496.31,-130.419 1505.78,-125.672 1495.41,-123.476 1496.31,-130.419"/>
</g>
<!-- Node31&#45;&gt;Node5 -->
<g id="edge47" class="edge"><title>Node31&#45;&gt;Node5</title>
<path fill="none" stroke="midnightblue" d="M1026.35,-174.487C1014.03,-172.029 1000.27,-169.585 987.569,-168 689.187,-130.763 324.644,-124.332 215.747,-123.227"/>
<polygon fill="midnightblue" stroke="midnightblue" points="215.763,-119.728 205.731,-123.134 215.697,-126.727 215.763,-119.728"/>
</g>
<!-- Node31&#45;&gt;Node8 -->
<g id="edge45" class="edge"><title>Node31&#45;&gt;Node8</title>
<path fill="none" stroke="midnightblue" d="M1064.57,-174.403C1064.57,-165.938 1064.57,-152.728 1064.57,-141.82"/>
<polygon fill="midnightblue" stroke="midnightblue" points="1068.07,-141.581 1064.57,-131.581 1061.07,-141.581 1068.07,-141.581"/>
</g>
</g>
</svg>
