<?xml version="1.0" encoding="UTF-8" standalone="no"?>
<!DOCTYPE svg PUBLIC "-//W3C//DTD SVG 1.1//EN"
 "http://www.w3.org/Graphics/SVG/1.1/DTD/svg11.dtd">
<!-- Generated by graphviz version 2.36.0 (20140111.2315)
 -->
<!-- Title: /home/travis/build/STORM&#45;IRIT/Radium&#45;Engine/src/Core/File/BlinnPhongMaterialData.inl Pages: 1 -->
<svg width="546pt" height="242pt"
 viewBox="0.00 0.00 546.00 242.00" xmlns="http://www.w3.org/2000/svg" xmlns:xlink="http://www.w3.org/1999/xlink">
<g id="graph0" class="graph" transform="scale(1 1) rotate(0) translate(4 238)">
<title>/home/travis/build/STORM&#45;IRIT/Radium&#45;Engine/src/Core/File/BlinnPhongMaterialData.inl</title>
<polygon fill="white" stroke="none" points="-4,4 -4,-238 542,-238 542,4 -4,4"/>
<!-- Node1 -->
<g id="node1" class="node"><title>Node1</title>
<polygon fill="#bfbfbf" stroke="black" points="173.5,-181 173.5,-233 336.5,-233 336.5,-181 173.5,-181"/>
<text text-anchor="start" x="181.5" y="-221" font-family="Helvetica,sans-Serif" font-size="10.00">/home/travis/build</text>
<text text-anchor="start" x="181.5" y="-210" font-family="Helvetica,sans-Serif" font-size="10.00">/STORM&#45;IRIT/Radium&#45;Engine</text>
<text text-anchor="start" x="181.5" y="-199" font-family="Helvetica,sans-Serif" font-size="10.00">/src/Core/File/BlinnPhongMaterial</text>
<text text-anchor="middle" x="255" y="-188" font-family="Helvetica,sans-Serif" font-size="10.00">Data.inl</text>
</g>
<!-- Node2 -->
<g id="node2" class="node"><title>Node2</title>
<g id="a_node2"><a xlink:href="BlinnPhongMaterialData_8hpp.html" target="_top" xlink:title="/home/travis/build\l/STORM&#45;IRIT/Radium&#45;Engine\l/src/Core/File/BlinnPhongMaterial\lData.hpp">
<polygon fill="white" stroke="black" points="173.5,-91 173.5,-143 336.5,-143 336.5,-91 173.5,-91"/>
<text text-anchor="start" x="181.5" y="-131" font-family="Helvetica,sans-Serif" font-size="10.00">/home/travis/build</text>
<text text-anchor="start" x="181.5" y="-120" font-family="Helvetica,sans-Serif" font-size="10.00">/STORM&#45;IRIT/Radium&#45;Engine</text>
<text text-anchor="start" x="181.5" y="-109" font-family="Helvetica,sans-Serif" font-size="10.00">/src/Core/File/BlinnPhongMaterial</text>
<text text-anchor="middle" x="255" y="-98" font-family="Helvetica,sans-Serif" font-size="10.00">Data.hpp</text>
</a>
</g>
</g>
<!-- Node1&#45;&gt;Node2 -->
<g id="edge1" class="edge"><title>Node1&#45;&gt;Node2</title>
<path fill="none" stroke="midnightblue" d="M248.363,-170.489C248.116,-161.309 248.274,-151.616 248.838,-143.092"/>
<polygon fill="midnightblue" stroke="midnightblue" points="244.869,-170.714 248.814,-180.547 251.862,-170.4 244.869,-170.714"/>
</g>
<!-- Node2&#45;&gt;Node1 -->
<g id="edge3" class="edge"><title>Node2&#45;&gt;Node1</title>
<path fill="none" stroke="midnightblue" d="M261.626,-153.123C261.885,-162.289 261.738,-171.99 261.186,-180.547"/>
<polygon fill="midnightblue" stroke="midnightblue" points="265.121,-152.92 261.162,-143.092 258.128,-153.243 265.121,-152.92"/>
</g>
<!-- Node3 -->
<g id="node3" class="node"><title>Node3</title>
<g id="a_node3"><a xlink:href="BlinnPhongMaterialData_8cpp.html" target="_top" xlink:title="/home/travis/build\l/STORM&#45;IRIT/Radium&#45;Engine\l/src/Core/File/BlinnPhongMaterial\lData.cpp">
<polygon fill="white" stroke="black" points="-0.5,-1 -0.5,-53 162.5,-53 162.5,-1 -0.5,-1"/>
<text text-anchor="start" x="7.5" y="-41" font-family="Helvetica,sans-Serif" font-size="10.00">/home/travis/build</text>
<text text-anchor="start" x="7.5" y="-30" font-family="Helvetica,sans-Serif" font-size="10.00">/STORM&#45;IRIT/Radium&#45;Engine</text>
<text text-anchor="start" x="7.5" y="-19" font-family="Helvetica,sans-Serif" font-size="10.00">/src/Core/File/BlinnPhongMaterial</text>
<text text-anchor="middle" x="81" y="-8" font-family="Helvetica,sans-Serif" font-size="10.00">Data.cpp</text>
</a>
</g>
</g>
<!-- Node2&#45;&gt;Node3 -->
<g id="edge2" class="edge"><title>Node2&#45;&gt;Node3</title>
<path fill="none" stroke="midnightblue" d="M196.175,-86.2492C174.857,-75.4678 151.009,-63.4068 130.568,-53.0687"/>
<polygon fill="midnightblue" stroke="midnightblue" points="194.635,-89.3928 205.139,-90.7827 197.795,-83.1463 194.635,-89.3928"/>
</g>
<!-- Node4 -->
<g id="node4" class="node"><title>Node4</title>
<g id="a_node4"><a xlink:href="BlinnPhongMaterial_8cpp.html" target="_top" xlink:title="/home/travis/build\l/STORM&#45;IRIT/Radium&#45;Engine\l/src/Engine/Renderer/Material\l/BlinnPhongMaterial.cpp">
<polygon fill="white" stroke="black" points="181,-1 181,-53 329,-53 329,-1 181,-1"/>
<text text-anchor="start" x="189" y="-41" font-family="Helvetica,sans-Serif" font-size="10.00">/home/travis/build</text>
<text text-anchor="start" x="189" y="-30" font-family="Helvetica,sans-Serif" font-size="10.00">/STORM&#45;IRIT/Radium&#45;Engine</text>
<text text-anchor="start" x="189" y="-19" font-family="Helvetica,sans-Serif" font-size="10.00">/src/Engine/Renderer/Material</text>
<text text-anchor="middle" x="255" y="-8" font-family="Helvetica,sans-Serif" font-size="10.00">/BlinnPhongMaterial.cpp</text>
</a>
</g>
</g>
<!-- Node2&#45;&gt;Node4 -->
<g id="edge4" class="edge"><title>Node2&#45;&gt;Node4</title>
<path fill="none" stroke="midnightblue" d="M255,-80.4892C255,-71.3088 255,-61.616 255,-53.0921"/>
<polygon fill="midnightblue" stroke="midnightblue" points="251.5,-80.5467 255,-90.5468 258.5,-80.5468 251.5,-80.5467"/>
</g>
<!-- Node5 -->
<g id="node5" class="node"><title>Node5</title>
<g id="a_node5"><a xlink:href="AssimpGeometryDataLoader_8cpp.html" target="_top" xlink:title="/home/travis/build\l/STORM&#45;IRIT/Radium&#45;Engine\l/src/IO/AssimpLoader/AssimpGeometry\lDataLoader.cpp">
<polygon fill="white" stroke="black" points="347.5,-1 347.5,-53 538.5,-53 538.5,-1 347.5,-1"/>
<text text-anchor="start" x="355.5" y="-41" font-family="Helvetica,sans-Serif" font-size="10.00">/home/travis/build</text>
<text text-anchor="start" x="355.5" y="-30" font-family="Helvetica,sans-Serif" font-size="10.00">/STORM&#45;IRIT/Radium&#45;Engine</text>
<text text-anchor="start" x="355.5" y="-19" font-family="Helvetica,sans-Serif" font-size="10.00">/src/IO/AssimpLoader/AssimpGeometry</text>
<text text-anchor="middle" x="443" y="-8" font-family="Helvetica,sans-Serif" font-size="10.00">DataLoader.cpp</text>
</a>
</g>
</g>
<!-- Node2&#45;&gt;Node5 -->
<g id="edge5" class="edge"><title>Node2&#45;&gt;Node5</title>
<path fill="none" stroke="midnightblue" d="M317.695,-86.6536C340.898,-75.7923 366.975,-63.5862 389.307,-53.1328"/>
<polygon fill="midnightblue" stroke="midnightblue" points="316.195,-83.4911 308.622,-90.9005 319.162,-89.831 316.195,-83.4911"/>
</g>
</g>
</svg>
