<?xml version="1.0" encoding="UTF-8" standalone="no"?>
<!DOCTYPE svg PUBLIC "-//W3C//DTD SVG 1.1//EN"
 "http://www.w3.org/Graphics/SVG/1.1/DTD/svg11.dtd">
<!-- Generated by graphviz version 2.36.0 (20140111.2315)
 -->
<!-- Title: /home/travis/build/STORM&#45;IRIT/Radium&#45;Engine/src/IO/CameraLoader/CameraLoader.hpp Pages: 1 -->
<svg width="371pt" height="274pt"
 viewBox="0.00 0.00 371.00 274.00" xmlns="http://www.w3.org/2000/svg" xmlns:xlink="http://www.w3.org/1999/xlink">
<g id="graph0" class="graph" transform="scale(1 1) rotate(0) translate(4 270)">
<title>/home/travis/build/STORM&#45;IRIT/Radium&#45;Engine/src/IO/CameraLoader/CameraLoader.hpp</title>
<polygon fill="white" stroke="none" points="-4,4 -4,-270 367,-270 367,4 -4,4"/>
<!-- Node1 -->
<g id="node1" class="node"><title>Node1</title>
<polygon fill="#bfbfbf" stroke="black" points="61.5,-224.5 61.5,-265.5 260.5,-265.5 260.5,-224.5 61.5,-224.5"/>
<text text-anchor="start" x="69.5" y="-253.5" font-family="Helvetica,sans-Serif" font-size="10.00">/home/travis/build</text>
<text text-anchor="start" x="69.5" y="-242.5" font-family="Helvetica,sans-Serif" font-size="10.00">/STORM&#45;IRIT/Radium&#45;Engine</text>
<text text-anchor="middle" x="161" y="-231.5" font-family="Helvetica,sans-Serif" font-size="10.00">/src/IO/CameraLoader/CameraLoader.hpp</text>
</g>
<!-- Node2 -->
<g id="node2" class="node"><title>Node2</title>
<g id="a_node2"><a xlink:href="FileLoaderInterface_8hpp.html" target="_top" xlink:title="Core/File/FileLoaderInterface.hpp">
<polygon fill="white" stroke="black" points="6.5,-168.5 6.5,-187.5 167.5,-187.5 167.5,-168.5 6.5,-168.5"/>
<text text-anchor="middle" x="87" y="-175.5" font-family="Helvetica,sans-Serif" font-size="10.00">Core/File/FileLoaderInterface.hpp</text>
</a>
</g>
</g>
<!-- Node1&#45;&gt;Node2 -->
<g id="edge1" class="edge"><title>Node1&#45;&gt;Node2</title>
<path fill="none" stroke="midnightblue" d="M138.798,-224.498C127.779,-214.82 114.665,-203.3 104.389,-194.274"/>
<polygon fill="midnightblue" stroke="midnightblue" points="106.674,-191.622 96.8505,-187.652 102.054,-196.882 106.674,-191.622"/>
</g>
<!-- Node12 -->
<g id="node12" class="node"><title>Node12</title>
<g id="a_node12"><a xlink:href="RaIO_8hpp.html" target="_top" xlink:title="IO/RaIO.hpp">
<polygon fill="white" stroke="black" points="199,-168.5 199,-187.5 271,-187.5 271,-168.5 199,-168.5"/>
<text text-anchor="middle" x="235" y="-175.5" font-family="Helvetica,sans-Serif" font-size="10.00">IO/RaIO.hpp</text>
</a>
</g>
</g>
<!-- Node1&#45;&gt;Node12 -->
<g id="edge11" class="edge"><title>Node1&#45;&gt;Node12</title>
<path fill="none" stroke="midnightblue" d="M183.202,-224.498C194.221,-214.82 207.335,-203.3 217.611,-194.274"/>
<polygon fill="midnightblue" stroke="midnightblue" points="219.946,-196.882 225.149,-187.652 215.326,-191.622 219.946,-196.882"/>
</g>
<!-- Node3 -->
<g id="node3" class="node"><title>Node3</title>
<polygon fill="white" stroke="#bfbfbf" points="-0.5,-112.5 -0.5,-131.5 40.5,-131.5 40.5,-112.5 -0.5,-112.5"/>
<text text-anchor="middle" x="20" y="-119.5" font-family="Helvetica,sans-Serif" font-size="10.00">string</text>
</g>
<!-- Node2&#45;&gt;Node3 -->
<g id="edge2" class="edge"><title>Node2&#45;&gt;Node3</title>
<path fill="none" stroke="midnightblue" d="M76.2353,-168.324C66.2339,-160.263 51.1135,-148.077 39.0695,-138.369"/>
<polygon fill="midnightblue" stroke="midnightblue" points="40.9429,-135.384 30.9606,-131.834 36.5502,-140.834 40.9429,-135.384"/>
</g>
<!-- Node4 -->
<g id="node4" class="node"><title>Node4</title>
<polygon fill="white" stroke="#bfbfbf" points="59,-112.5 59,-131.5 103,-131.5 103,-112.5 59,-112.5"/>
<text text-anchor="middle" x="81" y="-119.5" font-family="Helvetica,sans-Serif" font-size="10.00">vector</text>
</g>
<!-- Node2&#45;&gt;Node4 -->
<g id="edge3" class="edge"><title>Node2&#45;&gt;Node4</title>
<path fill="none" stroke="midnightblue" d="M86.0092,-168.083C85.2141,-160.927 84.0706,-150.635 83.0768,-141.691"/>
<polygon fill="midnightblue" stroke="midnightblue" points="86.5553,-141.303 81.9723,-131.751 79.5982,-142.076 86.5553,-141.303"/>
</g>
<!-- Node5 -->
<g id="node5" class="node"><title>Node5</title>
<g id="a_node5"><a xlink:href="RaCore_8hpp.html" target="_top" xlink:title="Core/RaCore.hpp">
<polygon fill="white" stroke="black" points="120.5,-112.5 120.5,-131.5 213.5,-131.5 213.5,-112.5 120.5,-112.5"/>
<text text-anchor="middle" x="167" y="-119.5" font-family="Helvetica,sans-Serif" font-size="10.00">Core/RaCore.hpp</text>
</a>
</g>
</g>
<!-- Node2&#45;&gt;Node5 -->
<g id="edge4" class="edge"><title>Node2&#45;&gt;Node5</title>
<path fill="none" stroke="midnightblue" d="M99.8534,-168.324C112.216,-159.979 131.13,-147.212 145.737,-137.352"/>
<polygon fill="midnightblue" stroke="midnightblue" points="147.848,-140.15 154.179,-131.655 143.932,-134.348 147.848,-140.15"/>
</g>
<!-- Node6 -->
<g id="node6" class="node"><title>Node6</title>
<g id="a_node6"><a xlink:href="CoreMacros_8hpp.html" target="_top" xlink:title="Core/CoreMacros.hpp">
<polygon fill="white" stroke="black" points="147.5,-56.5 147.5,-75.5 260.5,-75.5 260.5,-56.5 147.5,-56.5"/>
<text text-anchor="middle" x="204" y="-63.5" font-family="Helvetica,sans-Serif" font-size="10.00">Core/CoreMacros.hpp</text>
</a>
</g>
</g>
<!-- Node5&#45;&gt;Node6 -->
<g id="edge5" class="edge"><title>Node5&#45;&gt;Node6</title>
<path fill="none" stroke="midnightblue" d="M173.11,-112.083C178.282,-104.534 185.846,-93.4948 192.194,-84.2298"/>
<polygon fill="midnightblue" stroke="midnightblue" points="195.239,-85.9787 198.004,-75.7511 189.464,-82.0221 195.239,-85.9787"/>
</g>
<!-- Node7 -->
<g id="node7" class="node"><title>Node7</title>
<polygon fill="white" stroke="#bfbfbf" points="48.5,-0.5 48.5,-19.5 97.5,-19.5 97.5,-0.5 48.5,-0.5"/>
<text text-anchor="middle" x="73" y="-7.5" font-family="Helvetica,sans-Serif" font-size="10.00">cassert</text>
</g>
<!-- Node6&#45;&gt;Node7 -->
<g id="edge6" class="edge"><title>Node6&#45;&gt;Node7</title>
<path fill="none" stroke="midnightblue" d="M183.243,-56.4435C161.684,-47.5566 127.737,-33.5632 103.206,-23.4514"/>
<polygon fill="midnightblue" stroke="midnightblue" points="104.239,-20.0917 93.6602,-19.5164 101.572,-26.5634 104.239,-20.0917"/>
</g>
<!-- Node8 -->
<g id="node8" class="node"><title>Node8</title>
<polygon fill="white" stroke="#bfbfbf" points="115.5,-0.5 115.5,-19.5 158.5,-19.5 158.5,-0.5 115.5,-0.5"/>
<text text-anchor="middle" x="137" y="-7.5" font-family="Helvetica,sans-Serif" font-size="10.00">cstdio</text>
</g>
<!-- Node6&#45;&gt;Node8 -->
<g id="edge7" class="edge"><title>Node6&#45;&gt;Node8</title>
<path fill="none" stroke="midnightblue" d="M193.235,-56.324C183.234,-48.2631 168.113,-36.0765 156.07,-26.3695"/>
<polygon fill="midnightblue" stroke="midnightblue" points="157.943,-23.3841 147.961,-19.8339 153.55,-28.8343 157.943,-23.3841"/>
</g>
<!-- Node9 -->
<g id="node9" class="node"><title>Node9</title>
<polygon fill="white" stroke="#bfbfbf" points="177,-0.5 177,-19.5 231,-19.5 231,-0.5 177,-0.5"/>
<text text-anchor="middle" x="204" y="-7.5" font-family="Helvetica,sans-Serif" font-size="10.00">iostream</text>
</g>
<!-- Node6&#45;&gt;Node9 -->
<g id="edge8" class="edge"><title>Node6&#45;&gt;Node9</title>
<path fill="none" stroke="midnightblue" d="M204,-56.083C204,-49.0059 204,-38.8611 204,-29.9865"/>
<polygon fill="midnightblue" stroke="midnightblue" points="207.5,-29.751 204,-19.7511 200.5,-29.7511 207.5,-29.751"/>
</g>
<!-- Node10 -->
<g id="node10" class="node"><title>Node10</title>
<polygon fill="white" stroke="#bfbfbf" points="249,-0.5 249,-19.5 301,-19.5 301,-0.5 249,-0.5"/>
<text text-anchor="middle" x="275" y="-7.5" font-family="Helvetica,sans-Serif" font-size="10.00">sstream</text>
</g>
<!-- Node6&#45;&gt;Node10 -->
<g id="edge9" class="edge"><title>Node6&#45;&gt;Node10</title>
<path fill="none" stroke="midnightblue" d="M215.407,-56.324C226.109,-48.1849 242.341,-35.8395 255.163,-26.0874"/>
<polygon fill="midnightblue" stroke="midnightblue" points="257.544,-28.6734 263.385,-19.8339 253.307,-23.1018 257.544,-28.6734"/>
</g>
<!-- Node11 -->
<g id="node11" class="node"><title>Node11</title>
<polygon fill="white" stroke="#bfbfbf" points="319,-0.5 319,-19.5 363,-19.5 363,-0.5 319,-0.5"/>
<text text-anchor="middle" x="341" y="-7.5" font-family="Helvetica,sans-Serif" font-size="10.00">thread</text>
</g>
<!-- Node6&#45;&gt;Node11 -->
<g id="edge10" class="edge"><title>Node6&#45;&gt;Node11</title>
<path fill="none" stroke="midnightblue" d="M225.708,-56.4435C248.355,-47.5171 284.072,-33.4387 309.752,-23.3168"/>
<polygon fill="midnightblue" stroke="midnightblue" points="311.374,-26.4397 319.394,-19.5164 308.807,-19.9273 311.374,-26.4397"/>
</g>
<!-- Node12&#45;&gt;Node6 -->
<g id="edge12" class="edge"><title>Node12&#45;&gt;Node6</title>
<path fill="none" stroke="midnightblue" d="M233.804,-168.465C231.932,-155.925 227.903,-131.856 222,-112 219.303,-102.926 215.5,-93.1372 212.084,-85.0137"/>
<polygon fill="midnightblue" stroke="midnightblue" points="215.273,-83.5701 208.077,-75.7941 208.853,-86.3604 215.273,-83.5701"/>
</g>
</g>
</svg>
