<?xml version="1.0" encoding="UTF-8" standalone="no"?>
<!DOCTYPE svg PUBLIC "-//W3C//DTD SVG 1.1//EN"
 "http://www.w3.org/Graphics/SVG/1.1/DTD/svg11.dtd">
<!-- Generated by graphviz version 2.36.0 (20140111.2315)
 -->
<!-- Title: /home/travis/build/STORM&#45;IRIT/Radium&#45;Engine/src/Core/File/CameraData.cpp Pages: 1 -->
<svg width="1677pt" height="454pt"
 viewBox="0.00 0.00 1677.35 454.00" xmlns="http://www.w3.org/2000/svg" xmlns:xlink="http://www.w3.org/1999/xlink">
<g id="graph0" class="graph" transform="scale(1 1) rotate(0) translate(4 450)">
<title>/home/travis/build/STORM&#45;IRIT/Radium&#45;Engine/src/Core/File/CameraData.cpp</title>
<polygon fill="white" stroke="none" points="-4,4 -4,-450 1673.35,-450 1673.35,4 -4,4"/>
<!-- Node1 -->
<g id="node1" class="node"><title>Node1</title>
<polygon fill="#bfbfbf" stroke="black" points="986.848,-404.5 986.848,-445.5 1139.85,-445.5 1139.85,-404.5 986.848,-404.5"/>
<text text-anchor="start" x="994.848" y="-433.5" font-family="Helvetica,sans-Serif" font-size="10.00">/home/travis/build</text>
<text text-anchor="start" x="994.848" y="-422.5" font-family="Helvetica,sans-Serif" font-size="10.00">/STORM&#45;IRIT/Radium&#45;Engine</text>
<text text-anchor="middle" x="1063.35" y="-411.5" font-family="Helvetica,sans-Serif" font-size="10.00">/src/Core/File/CameraData.cpp</text>
</g>
<!-- Node2 -->
<g id="node2" class="node"><title>Node2</title>
<g id="a_node2"><a xlink:href="CameraData_8hpp.html" target="_top" xlink:title="Core/File/CameraData.hpp">
<polygon fill="white" stroke="black" points="480.348,-348.5 480.348,-367.5 614.348,-367.5 614.348,-348.5 480.348,-348.5"/>
<text text-anchor="middle" x="547.348" y="-355.5" font-family="Helvetica,sans-Serif" font-size="10.00">Core/File/CameraData.hpp</text>
</a>
</g>
</g>
<!-- Node1&#45;&gt;Node2 -->
<g id="edge1" class="edge"><title>Node1&#45;&gt;Node2</title>
<path fill="none" stroke="midnightblue" d="M986.655,-414.339C889.312,-402.077 722.342,-381.044 624.691,-368.743"/>
<polygon fill="midnightblue" stroke="midnightblue" points="624.949,-365.248 614.59,-367.47 624.074,-372.193 624.949,-365.248"/>
</g>
<!-- Node22 -->
<g id="node22" class="node"><title>Node22</title>
<g id="a_node22"><a xlink:href="Math_8hpp.html" target="_top" xlink:title="Core/Math/Math.hpp">
<polygon fill="white" stroke="black" points="1521.35,-174.5 1521.35,-193.5 1627.35,-193.5 1627.35,-174.5 1521.35,-174.5"/>
<text text-anchor="middle" x="1574.35" y="-181.5" font-family="Helvetica,sans-Serif" font-size="10.00">Core/Math/Math.hpp</text>
</a>
</g>
</g>
<!-- Node1&#45;&gt;Node22 -->
<g id="edge49" class="edge"><title>Node1&#45;&gt;Node22</title>
<path fill="none" stroke="midnightblue" d="M1105.17,-404.442C1206.28,-357.149 1461.91,-237.587 1546.61,-197.973"/>
<polygon fill="midnightblue" stroke="midnightblue" points="1548.27,-201.06 1555.85,-193.653 1545.31,-194.719 1548.27,-201.06"/>
</g>
<!-- Node3 -->
<g id="node3" class="node"><title>Node3</title>
<polygon fill="white" stroke="#bfbfbf" points="548.348,-292.5 548.348,-311.5 600.348,-311.5 600.348,-292.5 548.348,-292.5"/>
<text text-anchor="middle" x="574.348" y="-299.5" font-family="Helvetica,sans-Serif" font-size="10.00">memory</text>
</g>
<!-- Node2&#45;&gt;Node3 -->
<g id="edge2" class="edge"><title>Node2&#45;&gt;Node3</title>
<path fill="none" stroke="midnightblue" d="M551.807,-348.083C555.503,-340.691 560.872,-329.953 565.443,-320.811"/>
<polygon fill="midnightblue" stroke="midnightblue" points="568.631,-322.261 569.973,-311.751 562.37,-319.13 568.631,-322.261"/>
</g>
<!-- Node4 -->
<g id="node4" class="node"><title>Node4</title>
<polygon fill="white" stroke="#bfbfbf" points="159.848,-112.5 159.848,-131.5 200.848,-131.5 200.848,-112.5 159.848,-112.5"/>
<text text-anchor="middle" x="180.348" y="-119.5" font-family="Helvetica,sans-Serif" font-size="10.00">string</text>
</g>
<!-- Node2&#45;&gt;Node4 -->
<g id="edge3" class="edge"><title>Node2&#45;&gt;Node4</title>
<path fill="none" stroke="midnightblue" d="M480.326,-349.498C344.982,-332.621 48.2348,-286.237 5.34836,-200 -23.3846,-142.223 92.4349,-127.793 149.836,-124.194"/>
<polygon fill="midnightblue" stroke="midnightblue" points="150.036,-127.688 159.827,-123.639 149.648,-120.699 150.036,-127.688"/>
</g>
<!-- Node5 -->
<g id="node5" class="node"><title>Node5</title>
<polygon fill="white" stroke="#bfbfbf" points="605.348,-112.5 605.348,-131.5 649.348,-131.5 649.348,-112.5 605.348,-112.5"/>
<text text-anchor="middle" x="627.348" y="-119.5" font-family="Helvetica,sans-Serif" font-size="10.00">vector</text>
</g>
<!-- Node2&#45;&gt;Node5 -->
<g id="edge4" class="edge"><title>Node2&#45;&gt;Node5</title>
<path fill="none" stroke="midnightblue" d="M614.596,-356.336C808.701,-352.854 1363.09,-331.377 1473.35,-200 1482.49,-189.106 1483.17,-178.282 1473.35,-168 1442.8,-136.038 722.293,-136.852 678.348,-132 672.223,-131.324 665.721,-130.364 659.484,-129.322"/>
<polygon fill="midnightblue" stroke="midnightblue" points="659.807,-125.825 649.35,-127.525 658.585,-132.717 659.807,-125.825"/>
</g>
<!-- Node6 -->
<g id="node6" class="node"><title>Node6</title>
<g id="a_node6"><a xlink:href="VectorArray_8hpp.html" target="_top" xlink:title="Core/Containers/VectorArray.hpp">
<polygon fill="white" stroke="black" points="618.848,-292.5 618.848,-311.5 779.848,-311.5 779.848,-292.5 618.848,-292.5"/>
<text text-anchor="middle" x="699.348" y="-299.5" font-family="Helvetica,sans-Serif" font-size="10.00">Core/Containers/VectorArray.hpp</text>
</a>
</g>
</g>
<!-- Node2&#45;&gt;Node6 -->
<g id="edge5" class="edge"><title>Node2&#45;&gt;Node6</title>
<path fill="none" stroke="midnightblue" d="M571.433,-348.444C596.893,-339.399 637.242,-325.064 665.807,-314.916"/>
<polygon fill="midnightblue" stroke="midnightblue" points="667.125,-318.162 675.376,-311.516 664.781,-311.566 667.125,-318.162"/>
</g>
<!-- Node8 -->
<g id="node8" class="node"><title>Node8</title>
<g id="a_node8"><a xlink:href="RaCore_8hpp.html" target="_top" xlink:title="Core/RaCore.hpp">
<polygon fill="white" stroke="black" points="473.848,-112.5 473.848,-131.5 566.848,-131.5 566.848,-112.5 473.848,-112.5"/>
<text text-anchor="middle" x="520.348" y="-119.5" font-family="Helvetica,sans-Serif" font-size="10.00">Core/RaCore.hpp</text>
</a>
</g>
</g>
<!-- Node2&#45;&gt;Node8 -->
<g id="edge36" class="edge"><title>Node2&#45;&gt;Node8</title>
<path fill="none" stroke="midnightblue" d="M545.62,-348.404C543.851,-339.371 541.118,-324.732 539.348,-312 530.741,-250.056 524.46,-176.17 521.781,-142.028"/>
<polygon fill="midnightblue" stroke="midnightblue" points="525.243,-141.396 520.987,-131.694 518.264,-141.933 525.243,-141.396"/>
</g>
<!-- Node16 -->
<g id="node16" class="node"><title>Node16</title>
<g id="a_node16"><a xlink:href="LinearAlgebra_8hpp.html" target="_top" xlink:title="Core/Math/LinearAlgebra.hpp">
<polygon fill="white" stroke="black" points="926.848,-236.5 926.848,-255.5 1069.85,-255.5 1069.85,-236.5 926.848,-236.5"/>
<text text-anchor="middle" x="998.348" y="-243.5" font-family="Helvetica,sans-Serif" font-size="10.00">Core/Math/LinearAlgebra.hpp</text>
</a>
</g>
</g>
<!-- Node2&#45;&gt;Node16 -->
<g id="edge35" class="edge"><title>Node2&#45;&gt;Node16</title>
<path fill="none" stroke="midnightblue" d="M603.259,-348.442C652.357,-340.481 725.543,-327.528 788.348,-312 851.326,-296.429 923.258,-272.878 964.486,-258.81"/>
<polygon fill="midnightblue" stroke="midnightblue" points="965.713,-262.089 974.035,-255.533 963.441,-255.468 965.713,-262.089"/>
</g>
<!-- Node27 -->
<g id="node27" class="node"><title>Node27</title>
<g id="a_node27"><a xlink:href="AssetData_8hpp.html" target="_top" xlink:title="Core/File/AssetData.hpp">
<polygon fill="white" stroke="black" points="214.848,-174.5 214.848,-193.5 339.848,-193.5 339.848,-174.5 214.848,-174.5"/>
<text text-anchor="middle" x="277.348" y="-181.5" font-family="Helvetica,sans-Serif" font-size="10.00">Core/File/AssetData.hpp</text>
</a>
</g>
</g>
<!-- Node2&#45;&gt;Node27 -->
<g id="edge32" class="edge"><title>Node2&#45;&gt;Node27</title>
<path fill="none" stroke="midnightblue" d="M537.083,-348.315C521.586,-335.378 491.076,-310.577 463.348,-292 408.09,-254.977 339.436,-217.55 302.95,-198.29"/>
<polygon fill="midnightblue" stroke="midnightblue" points="304.453,-195.126 293.972,-193.576 301.198,-201.324 304.453,-195.126"/>
</g>
<!-- Node28 -->
<g id="node28" class="node"><title>Node28</title>
<g id="a_node28"><a xlink:href="CameraData_8inl.html" target="_top" xlink:title="Core/File/CameraData.inl">
<polygon fill="white" stroke="black" points="326.348,-292.5 326.348,-311.5 454.348,-311.5 454.348,-292.5 326.348,-292.5"/>
<text text-anchor="middle" x="390.348" y="-299.5" font-family="Helvetica,sans-Serif" font-size="10.00">Core/File/CameraData.inl</text>
</a>
</g>
</g>
<!-- Node2&#45;&gt;Node28 -->
<g id="edge37" class="edge"><title>Node2&#45;&gt;Node28</title>
<path fill="none" stroke="midnightblue" d="M517.382,-348.444C489.225,-339.438 447.583,-325.189 419.65,-315.049"/>
<polygon fill="midnightblue" stroke="midnightblue" points="420.623,-311.678 410.029,-311.516 418.21,-318.249 420.623,-311.678"/>
</g>
<!-- Node6&#45;&gt;Node5 -->
<g id="edge31" class="edge"><title>Node6&#45;&gt;Node5</title>
<path fill="none" stroke="midnightblue" d="M695.111,-292.481C686.622,-275.253 667.163,-234.94 653.348,-200 645.584,-180.361 638.011,-157.366 633.06,-141.652"/>
<polygon fill="midnightblue" stroke="midnightblue" points="636.262,-140.16 629.953,-131.649 629.577,-142.237 636.262,-140.16"/>
</g>
<!-- Node7 -->
<g id="node7" class="node"><title>Node7</title>
<g id="a_node7"><a xlink:href="AlignedStdVector_8hpp.html" target="_top" xlink:title="Core/Containers/AlignedStd\lVector.hpp">
<polygon fill="white" stroke="black" points="662.348,-169 662.348,-199 800.348,-199 800.348,-169 662.348,-169"/>
<text text-anchor="start" x="670.348" y="-187" font-family="Helvetica,sans-Serif" font-size="10.00">Core/Containers/AlignedStd</text>
<text text-anchor="middle" x="731.348" y="-176" font-family="Helvetica,sans-Serif" font-size="10.00">Vector.hpp</text>
</a>
</g>
</g>
<!-- Node6&#45;&gt;Node7 -->
<g id="edge6" class="edge"><title>Node6&#45;&gt;Node7</title>
<path fill="none" stroke="midnightblue" d="M701.754,-292.281C706.583,-274.776 717.605,-234.818 724.751,-208.916"/>
<polygon fill="midnightblue" stroke="midnightblue" points="728.172,-209.677 727.457,-199.106 721.424,-207.815 728.172,-209.677"/>
</g>
<!-- Node6&#45;&gt;Node8 -->
<g id="edge30" class="edge"><title>Node6&#45;&gt;Node8</title>
<path fill="none" stroke="midnightblue" d="M690.715,-292.415C662.667,-264.524 573.792,-176.145 536.777,-139.337"/>
<polygon fill="midnightblue" stroke="midnightblue" points="538.876,-136.488 529.317,-131.918 533.94,-141.452 538.876,-136.488"/>
</g>
<!-- Node6&#45;&gt;Node16 -->
<g id="edge16" class="edge"><title>Node6&#45;&gt;Node16</title>
<path fill="none" stroke="midnightblue" d="M746.726,-292.444C799.432,-282.925 884.578,-267.547 941.005,-257.356"/>
<polygon fill="midnightblue" stroke="midnightblue" points="941.974,-260.738 951.193,-255.516 940.73,-253.849 941.974,-260.738"/>
</g>
<!-- Node7&#45;&gt;Node5 -->
<g id="edge15" class="edge"><title>Node7&#45;&gt;Node5</title>
<path fill="none" stroke="midnightblue" d="M706.965,-168.933C690.202,-159.262 668.046,-146.479 651.363,-136.855"/>
<polygon fill="midnightblue" stroke="midnightblue" points="652.666,-133.566 642.255,-131.6 649.168,-139.629 652.666,-133.566"/>
</g>
<!-- Node7&#45;&gt;Node8 -->
<g id="edge7" class="edge"><title>Node7&#45;&gt;Node8</title>
<path fill="none" stroke="midnightblue" d="M681.878,-168.933C644.739,-158.372 594.549,-144.1 560.024,-134.282"/>
<polygon fill="midnightblue" stroke="midnightblue" points="560.861,-130.881 550.285,-131.513 558.946,-137.614 560.861,-130.881"/>
</g>
<!-- Node15 -->
<g id="node15" class="node"><title>Node15</title>
<polygon fill="white" stroke="#bfbfbf" points="687.348,-112.5 687.348,-131.5 775.348,-131.5 775.348,-112.5 687.348,-112.5"/>
<text text-anchor="middle" x="731.348" y="-119.5" font-family="Helvetica,sans-Serif" font-size="10.00">Eigen/StdVector</text>
</g>
<!-- Node7&#45;&gt;Node15 -->
<g id="edge14" class="edge"><title>Node7&#45;&gt;Node15</title>
<path fill="none" stroke="midnightblue" d="M731.348,-168.781C731.348,-160.781 731.348,-150.689 731.348,-142.017"/>
<polygon fill="midnightblue" stroke="midnightblue" points="734.848,-141.73 731.348,-131.731 727.848,-141.731 734.848,-141.73"/>
</g>
<!-- Node9 -->
<g id="node9" class="node"><title>Node9</title>
<g id="a_node9"><a xlink:href="CoreMacros_8hpp.html" target="_top" xlink:title="Core/CoreMacros.hpp">
<polygon fill="white" stroke="black" points="372.848,-56.5 372.848,-75.5 485.848,-75.5 485.848,-56.5 372.848,-56.5"/>
<text text-anchor="middle" x="429.348" y="-63.5" font-family="Helvetica,sans-Serif" font-size="10.00">Core/CoreMacros.hpp</text>
</a>
</g>
</g>
<!-- Node8&#45;&gt;Node9 -->
<g id="edge8" class="edge"><title>Node8&#45;&gt;Node9</title>
<path fill="none" stroke="midnightblue" d="M505.728,-112.324C491.399,-103.822 469.336,-90.7288 452.6,-80.7975"/>
<polygon fill="midnightblue" stroke="midnightblue" points="454.319,-77.7478 443.933,-75.6545 450.747,-83.7677 454.319,-77.7478"/>
</g>
<!-- Node10 -->
<g id="node10" class="node"><title>Node10</title>
<polygon fill="white" stroke="#bfbfbf" points="437.848,-0.5 437.848,-19.5 486.848,-19.5 486.848,-0.5 437.848,-0.5"/>
<text text-anchor="middle" x="462.348" y="-7.5" font-family="Helvetica,sans-Serif" font-size="10.00">cassert</text>
</g>
<!-- Node9&#45;&gt;Node10 -->
<g id="edge9" class="edge"><title>Node9&#45;&gt;Node10</title>
<path fill="none" stroke="midnightblue" d="M434.798,-56.083C439.363,-48.6127 446.017,-37.7244 451.642,-28.5199"/>
<polygon fill="midnightblue" stroke="midnightblue" points="454.772,-30.109 457,-19.7511 448.799,-26.4588 454.772,-30.109"/>
</g>
<!-- Node11 -->
<g id="node11" class="node"><title>Node11</title>
<polygon fill="white" stroke="#bfbfbf" points="504.848,-0.5 504.848,-19.5 547.848,-19.5 547.848,-0.5 504.848,-0.5"/>
<text text-anchor="middle" x="526.348" y="-7.5" font-family="Helvetica,sans-Serif" font-size="10.00">cstdio</text>
</g>
<!-- Node9&#45;&gt;Node11 -->
<g id="edge10" class="edge"><title>Node9&#45;&gt;Node11</title>
<path fill="none" stroke="midnightblue" d="M444.933,-56.324C460.347,-47.7428 484.161,-34.486 502.058,-24.5224"/>
<polygon fill="midnightblue" stroke="midnightblue" points="503.767,-27.5767 510.802,-19.6545 500.363,-21.4606 503.767,-27.5767"/>
</g>
<!-- Node12 -->
<g id="node12" class="node"><title>Node12</title>
<polygon fill="white" stroke="#bfbfbf" points="303.348,-0.5 303.348,-19.5 357.348,-19.5 357.348,-0.5 303.348,-0.5"/>
<text text-anchor="middle" x="330.348" y="-7.5" font-family="Helvetica,sans-Serif" font-size="10.00">iostream</text>
</g>
<!-- Node9&#45;&gt;Node12 -->
<g id="edge11" class="edge"><title>Node9&#45;&gt;Node12</title>
<path fill="none" stroke="midnightblue" d="M413.442,-56.324C397.71,-47.7428 373.406,-34.486 355.139,-24.5224"/>
<polygon fill="midnightblue" stroke="midnightblue" points="356.67,-21.3704 346.215,-19.6545 353.318,-27.5157 356.67,-21.3704"/>
</g>
<!-- Node13 -->
<g id="node13" class="node"><title>Node13</title>
<polygon fill="white" stroke="#bfbfbf" points="142.348,-0.5 142.348,-19.5 194.348,-19.5 194.348,-0.5 142.348,-0.5"/>
<text text-anchor="middle" x="168.348" y="-7.5" font-family="Helvetica,sans-Serif" font-size="10.00">sstream</text>
</g>
<!-- Node9&#45;&gt;Node13 -->
<g id="edge12" class="edge"><title>Node9&#45;&gt;Node13</title>
<path fill="none" stroke="midnightblue" d="M387.992,-56.4435C337.373,-45.9705 252.476,-28.4057 204.402,-18.4594"/>
<polygon fill="midnightblue" stroke="midnightblue" points="204.945,-14.9976 194.443,-16.3989 203.526,-21.8524 204.945,-14.9976"/>
</g>
<!-- Node14 -->
<g id="node14" class="node"><title>Node14</title>
<polygon fill="white" stroke="#bfbfbf" points="375.348,-0.5 375.348,-19.5 419.348,-19.5 419.348,-0.5 375.348,-0.5"/>
<text text-anchor="middle" x="397.348" y="-7.5" font-family="Helvetica,sans-Serif" font-size="10.00">thread</text>
</g>
<!-- Node9&#45;&gt;Node14 -->
<g id="edge13" class="edge"><title>Node9&#45;&gt;Node14</title>
<path fill="none" stroke="midnightblue" d="M424.064,-56.083C419.637,-48.6127 413.185,-37.7244 407.731,-28.5199"/>
<polygon fill="midnightblue" stroke="midnightblue" points="410.643,-26.5697 402.534,-19.7511 404.621,-30.1383 410.643,-26.5697"/>
</g>
<!-- Node16&#45;&gt;Node8 -->
<g id="edge17" class="edge"><title>Node16&#45;&gt;Node8</title>
<path fill="none" stroke="midnightblue" d="M926.795,-243.825C855.703,-240.785 744.436,-230.92 653.348,-200 609.92,-185.258 564.85,-155.598 539.921,-137.7"/>
<polygon fill="midnightblue" stroke="midnightblue" points="541.829,-134.759 531.689,-131.687 537.7,-140.412 541.829,-134.759"/>
</g>
<!-- Node17 -->
<g id="node17" class="node"><title>Node17</title>
<polygon fill="white" stroke="#bfbfbf" points="1294.85,-174.5 1294.85,-193.5 1359.85,-193.5 1359.85,-174.5 1294.85,-174.5"/>
<text text-anchor="middle" x="1327.35" y="-181.5" font-family="Helvetica,sans-Serif" font-size="10.00">Eigen/Core</text>
</g>
<!-- Node16&#45;&gt;Node17 -->
<g id="edge18" class="edge"><title>Node16&#45;&gt;Node17</title>
<path fill="none" stroke="midnightblue" d="M1069.87,-237.563C1128.39,-230.578 1213.01,-218.415 1285.35,-200 1288.94,-199.087 1292.65,-197.991 1296.31,-196.814"/>
<polygon fill="midnightblue" stroke="midnightblue" points="1297.46,-200.121 1305.79,-193.573 1295.2,-193.497 1297.46,-200.121"/>
</g>
<!-- Node18 -->
<g id="node18" class="node"><title>Node18</title>
<polygon fill="white" stroke="#bfbfbf" points="1377.85,-174.5 1377.85,-193.5 1464.85,-193.5 1464.85,-174.5 1377.85,-174.5"/>
<text text-anchor="middle" x="1421.35" y="-181.5" font-family="Helvetica,sans-Serif" font-size="10.00">Eigen/Geometry</text>
</g>
<!-- Node16&#45;&gt;Node18 -->
<g id="edge19" class="edge"><title>Node16&#45;&gt;Node18</title>
<path fill="none" stroke="midnightblue" d="M1070.15,-239.582C1145.08,-233.157 1265.73,-220.632 1368.35,-200 1373.55,-198.955 1378.98,-197.658 1384.3,-196.269"/>
<polygon fill="midnightblue" stroke="midnightblue" points="1385.59,-199.545 1394.31,-193.524 1383.74,-192.794 1385.59,-199.545"/>
</g>
<!-- Node19 -->
<g id="node19" class="node"><title>Node19</title>
<polygon fill="white" stroke="#bfbfbf" points="818.848,-174.5 818.848,-193.5 893.848,-193.5 893.848,-174.5 818.848,-174.5"/>
<text text-anchor="middle" x="856.348" y="-181.5" font-family="Helvetica,sans-Serif" font-size="10.00">Eigen/Sparse</text>
</g>
<!-- Node16&#45;&gt;Node19 -->
<g id="edge20" class="edge"><title>Node16&#45;&gt;Node19</title>
<path fill="none" stroke="midnightblue" d="M978.003,-236.403C953.962,-226.245 913.751,-209.255 886.186,-197.607"/>
<polygon fill="midnightblue" stroke="midnightblue" points="887.23,-194.249 876.656,-193.581 884.505,-200.697 887.23,-194.249"/>
</g>
<!-- Node20 -->
<g id="node20" class="node"><title>Node20</title>
<polygon fill="white" stroke="#bfbfbf" points="911.848,-174.5 911.848,-193.5 970.848,-193.5 970.848,-174.5 911.848,-174.5"/>
<text text-anchor="middle" x="941.348" y="-181.5" font-family="Helvetica,sans-Serif" font-size="10.00">functional</text>
</g>
<!-- Node16&#45;&gt;Node20 -->
<g id="edge21" class="edge"><title>Node16&#45;&gt;Node20</title>
<path fill="none" stroke="midnightblue" d="M990.182,-236.403C981.462,-227.225 967.445,-212.47 956.66,-201.117"/>
<polygon fill="midnightblue" stroke="midnightblue" points="958.925,-198.42 949.5,-193.581 953.85,-203.241 958.925,-198.42"/>
</g>
<!-- Node21 -->
<g id="node21" class="node"><title>Node21</title>
<polygon fill="white" stroke="#bfbfbf" points="988.848,-169 988.848,-199 1121.85,-199 1121.85,-169 988.848,-169"/>
<text text-anchor="start" x="996.848" y="-187" font-family="Helvetica,sans-Serif" font-size="10.00">unsupported/Eigen/Aligned</text>
<text text-anchor="middle" x="1055.35" y="-176" font-family="Helvetica,sans-Serif" font-size="10.00">Vector3</text>
</g>
<!-- Node16&#45;&gt;Node21 -->
<g id="edge22" class="edge"><title>Node16&#45;&gt;Node21</title>
<path fill="none" stroke="midnightblue" d="M1006.52,-236.403C1013.87,-228.657 1025.01,-216.938 1034.79,-206.645"/>
<polygon fill="midnightblue" stroke="midnightblue" points="1037.56,-208.801 1041.91,-199.141 1032.49,-203.98 1037.56,-208.801"/>
</g>
<!-- Node16&#45;&gt;Node22 -->
<g id="edge23" class="edge"><title>Node16&#45;&gt;Node22</title>
<path fill="none" stroke="midnightblue" d="M1070.1,-239.394C1163.22,-231.846 1330.68,-217.34 1473.35,-200 1485.64,-198.506 1498.74,-196.712 1511.29,-194.891"/>
<polygon fill="midnightblue" stroke="midnightblue" points="1511.83,-198.349 1521.22,-193.43 1510.81,-191.424 1511.83,-198.349"/>
</g>
<!-- Node26 -->
<g id="node26" class="node"><title>Node26</title>
<g id="a_node26"><a xlink:href="LinearAlgebra_8inl.html" target="_top" xlink:title="Core/Math/LinearAlgebra.inl">
<polygon fill="white" stroke="black" points="1139.85,-174.5 1139.85,-193.5 1276.85,-193.5 1276.85,-174.5 1139.85,-174.5"/>
<text text-anchor="middle" x="1208.35" y="-181.5" font-family="Helvetica,sans-Serif" font-size="10.00">Core/Math/LinearAlgebra.inl</text>
</a>
</g>
</g>
<!-- Node16&#45;&gt;Node26 -->
<g id="edge29" class="edge"><title>Node16&#45;&gt;Node26</title>
<path fill="none" stroke="midnightblue" d="M1028.44,-236.403C1065.24,-225.889 1127.66,-208.054 1168.44,-196.402"/>
<polygon fill="midnightblue" stroke="midnightblue" points="1169.66,-199.693 1178.32,-193.581 1167.74,-192.963 1169.66,-199.693"/>
</g>
<!-- Node22&#45;&gt;Node8 -->
<g id="edge24" class="edge"><title>Node22&#45;&gt;Node8</title>
<path fill="none" stroke="midnightblue" d="M1524.13,-174.466C1507.96,-172.007 1489.94,-169.568 1473.35,-168 1084.97,-131.294 985.224,-162.961 596.348,-132 590.09,-131.502 583.553,-130.881 577.053,-130.199"/>
<polygon fill="midnightblue" stroke="midnightblue" points="577.237,-126.699 566.916,-129.088 576.475,-133.657 577.237,-126.699"/>
</g>
<!-- Node23 -->
<g id="node23" class="node"><title>Node23</title>
<polygon fill="white" stroke="#bfbfbf" points="1433.35,-112.5 1433.35,-131.5 1489.35,-131.5 1489.35,-112.5 1433.35,-112.5"/>
<text text-anchor="middle" x="1461.35" y="-119.5" font-family="Helvetica,sans-Serif" font-size="10.00">algorithm</text>
</g>
<!-- Node22&#45;&gt;Node23 -->
<g id="edge25" class="edge"><title>Node22&#45;&gt;Node23</title>
<path fill="none" stroke="midnightblue" d="M1558.16,-174.403C1539.45,-164.468 1508.43,-147.997 1486.55,-136.381"/>
<polygon fill="midnightblue" stroke="midnightblue" points="1487.98,-133.179 1477.51,-131.581 1484.7,-139.362 1487.98,-133.179"/>
</g>
<!-- Node24 -->
<g id="node24" class="node"><title>Node24</title>
<polygon fill="white" stroke="#bfbfbf" points="1507.35,-112.5 1507.35,-131.5 1551.35,-131.5 1551.35,-112.5 1507.35,-112.5"/>
<text text-anchor="middle" x="1529.35" y="-119.5" font-family="Helvetica,sans-Serif" font-size="10.00">cmath</text>
</g>
<!-- Node22&#45;&gt;Node24 -->
<g id="edge26" class="edge"><title>Node22&#45;&gt;Node24</title>
<path fill="none" stroke="midnightblue" d="M1567.9,-174.403C1561.15,-165.403 1550.38,-151.041 1541.94,-139.782"/>
<polygon fill="midnightblue" stroke="midnightblue" points="1544.58,-137.481 1535.78,-131.581 1538.98,-141.681 1544.58,-137.481"/>
</g>
<!-- Node25 -->
<g id="node25" class="node"><title>Node25</title>
<g id="a_node25"><a xlink:href="Math_8inl.html" target="_top" xlink:title="Core/Math/Math.inl">
<polygon fill="white" stroke="black" points="1569.35,-112.5 1569.35,-131.5 1669.35,-131.5 1669.35,-112.5 1569.35,-112.5"/>
<text text-anchor="middle" x="1619.35" y="-119.5" font-family="Helvetica,sans-Serif" font-size="10.00">Core/Math/Math.inl</text>
</a>
</g>
</g>
<!-- Node22&#45;&gt;Node25 -->
<g id="edge27" class="edge"><title>Node22&#45;&gt;Node25</title>
<path fill="none" stroke="midnightblue" d="M1575.9,-174.403C1580.79,-165.225 1591.47,-150.47 1601.2,-139.117"/>
<polygon fill="midnightblue" stroke="midnightblue" points="1603.9,-141.345 1608.02,-131.581 1598.71,-136.649 1603.9,-141.345"/>
</g>
<!-- Node25&#45;&gt;Node22 -->
<g id="edge28" class="edge"><title>Node25&#45;&gt;Node22</title>
<path fill="none" stroke="midnightblue" d="M1617.81,-131.581C1612.92,-140.752 1602.24,-155.506 1592.51,-166.863"/>
<polygon fill="midnightblue" stroke="midnightblue" points="1589.81,-164.639 1585.7,-174.403 1595,-169.334 1589.81,-164.639"/>
</g>
<!-- Node27&#45;&gt;Node4 -->
<g id="edge34" class="edge"><title>Node27&#45;&gt;Node4</title>
<path fill="none" stroke="midnightblue" d="M263.451,-174.403C247.604,-164.601 221.474,-148.439 202.743,-136.853"/>
<polygon fill="midnightblue" stroke="midnightblue" points="204.566,-133.865 194.22,-131.581 200.884,-139.818 204.566,-133.865"/>
</g>
<!-- Node27&#45;&gt;Node8 -->
<g id="edge33" class="edge"><title>Node27&#45;&gt;Node8</title>
<path fill="none" stroke="midnightblue" d="M311.906,-174.467C354.998,-163.827 428.731,-145.622 475.963,-133.959"/>
<polygon fill="midnightblue" stroke="midnightblue" points="477.04,-137.299 485.91,-131.503 475.362,-130.503 477.04,-137.299"/>
</g>
<!-- Node28&#45;&gt;Node2 -->
<g id="edge38" class="edge"><title>Node28&#45;&gt;Node2</title>
<path fill="none" stroke="midnightblue" d="M420.189,-311.516C448.307,-320.506 489.948,-334.754 517.922,-344.906"/>
<polygon fill="midnightblue" stroke="midnightblue" points="516.966,-348.283 527.56,-348.444 519.379,-341.712 516.966,-348.283"/>
</g>
<!-- Node29 -->
<g id="node29" class="node"><title>Node29</title>
<g id="a_node29"><a xlink:href="Log_8hpp.html" target="_top" xlink:title="Core/Log/Log.hpp">
<polygon fill="white" stroke="black" points="88.3484,-236.5 88.3484,-255.5 182.348,-255.5 182.348,-236.5 88.3484,-236.5"/>
<text text-anchor="middle" x="135.348" y="-243.5" font-family="Helvetica,sans-Serif" font-size="10.00">Core/Log/Log.hpp</text>
</a>
</g>
</g>
<!-- Node28&#45;&gt;Node29 -->
<g id="edge39" class="edge"><title>Node28&#45;&gt;Node29</title>
<path fill="none" stroke="midnightblue" d="M349.943,-292.444C305.365,-283.004 233.58,-267.802 185.456,-257.611"/>
<polygon fill="midnightblue" stroke="midnightblue" points="186.073,-254.164 175.565,-255.516 184.623,-261.012 186.073,-254.164"/>
</g>
<!-- Node29&#45;&gt;Node4 -->
<g id="edge43" class="edge"><title>Node29&#45;&gt;Node4</title>
<path fill="none" stroke="midnightblue" d="M126.473,-236.115C112.912,-221.42 89.9469,-191.354 103.348,-168 113.398,-150.487 133.19,-139.139 150.19,-132.22"/>
<polygon fill="midnightblue" stroke="midnightblue" points="151.635,-135.417 159.783,-128.645 149.19,-128.858 151.635,-135.417"/>
</g>
<!-- Node29&#45;&gt;Node8 -->
<g id="edge40" class="edge"><title>Node29&#45;&gt;Node8</title>
<path fill="none" stroke="midnightblue" d="M142.066,-236.224C156.313,-217.858 189.546,-176.377 205.348,-168 248.965,-144.878 385.214,-132.108 463.494,-126.505"/>
<polygon fill="midnightblue" stroke="midnightblue" points="463.942,-129.982 473.674,-125.793 463.454,-122.999 463.942,-129.982"/>
</g>
<!-- Node29&#45;&gt;Node13 -->
<g id="edge41" class="edge"><title>Node29&#45;&gt;Node13</title>
<path fill="none" stroke="midnightblue" d="M88.2093,-241.947C59.1794,-237.342 24.0503,-226.264 5.34836,-200 -2.90108,-188.415 -0.217178,-181.088 5.34836,-168 33.8386,-101.002 106.483,-48.7385 144.436,-24.9804"/>
<polygon fill="midnightblue" stroke="midnightblue" points="146.587,-27.7677 153.29,-19.5628 142.933,-21.7969 146.587,-27.7677"/>
</g>
<!-- Node30 -->
<g id="node30" class="node"><title>Node30</title>
<polygon fill="white" stroke="#bfbfbf" points="112.348,-174.5 112.348,-193.5 158.348,-193.5 158.348,-174.5 112.348,-174.5"/>
<text text-anchor="middle" x="135.348" y="-181.5" font-family="Helvetica,sans-Serif" font-size="10.00">stdio.h</text>
</g>
<!-- Node29&#45;&gt;Node30 -->
<g id="edge42" class="edge"><title>Node29&#45;&gt;Node30</title>
<path fill="none" stroke="midnightblue" d="M135.348,-236.403C135.348,-227.938 135.348,-214.728 135.348,-203.82"/>
<polygon fill="midnightblue" stroke="midnightblue" points="138.848,-203.581 135.348,-193.581 131.848,-203.581 138.848,-203.581"/>
</g>
<!-- Node31 -->
<g id="node31" class="node"><title>Node31</title>
<g id="a_node31"><a xlink:href="StringUtils_8hpp.html" target="_top" xlink:title="Core/String/StringUtils.hpp">
<polygon fill="white" stroke="black" points="358.348,-174.5 358.348,-193.5 492.348,-193.5 492.348,-174.5 358.348,-174.5"/>
<text text-anchor="middle" x="425.348" y="-181.5" font-family="Helvetica,sans-Serif" font-size="10.00">Core/String/StringUtils.hpp</text>
</a>
</g>
</g>
<!-- Node29&#45;&gt;Node31 -->
<g id="edge44" class="edge"><title>Node29&#45;&gt;Node31</title>
<path fill="none" stroke="midnightblue" d="M176.59,-236.467C228.556,-225.716 317.86,-207.239 374.141,-195.595"/>
<polygon fill="midnightblue" stroke="midnightblue" points="375.165,-198.957 384.249,-193.503 373.747,-192.102 375.165,-198.957"/>
</g>
<!-- Node32 -->
<g id="node32" class="node"><title>Node32</title>
<polygon fill="white" stroke="#bfbfbf" points="14.8484,-174.5 14.8484,-193.5 55.8484,-193.5 55.8484,-174.5 14.8484,-174.5"/>
<text text-anchor="middle" x="35.3484" y="-181.5" font-family="Helvetica,sans-Serif" font-size="10.00">ctime</text>
</g>
<!-- Node29&#45;&gt;Node32 -->
<g id="edge48" class="edge"><title>Node29&#45;&gt;Node32</title>
<path fill="none" stroke="midnightblue" d="M121.021,-236.403C104.684,-226.601 77.7459,-210.439 58.4361,-198.853"/>
<polygon fill="midnightblue" stroke="midnightblue" points="60.025,-195.724 49.6493,-193.581 56.4235,-201.727 60.025,-195.724"/>
</g>
<!-- Node31&#45;&gt;Node4 -->
<g id="edge46" class="edge"><title>Node31&#45;&gt;Node4</title>
<path fill="none" stroke="midnightblue" d="M390.506,-174.467C342.461,-162.701 256.64,-141.684 210.946,-130.493"/>
<polygon fill="midnightblue" stroke="midnightblue" points="211.581,-127.045 201.036,-128.066 209.916,-133.845 211.581,-127.045"/>
</g>
<!-- Node31&#45;&gt;Node5 -->
<g id="edge47" class="edge"><title>Node31&#45;&gt;Node5</title>
<path fill="none" stroke="midnightblue" d="M454.29,-174.403C491.743,-163.279 556.781,-143.961 595.57,-132.439"/>
<polygon fill="midnightblue" stroke="midnightblue" points="596.712,-135.751 605.301,-129.549 594.718,-129.041 596.712,-135.751"/>
</g>
<!-- Node31&#45;&gt;Node8 -->
<g id="edge45" class="edge"><title>Node31&#45;&gt;Node8</title>
<path fill="none" stroke="midnightblue" d="M438.96,-174.403C454.409,-164.646 479.838,-148.585 498.164,-137.011"/>
<polygon fill="midnightblue" stroke="midnightblue" points="500.177,-139.88 506.762,-131.581 496.439,-133.961 500.177,-139.88"/>
</g>
</g>
</svg>
