<?xml version="1.0" encoding="UTF-8" standalone="no"?>
<!DOCTYPE svg PUBLIC "-//W3C//DTD SVG 1.1//EN"
 "http://www.w3.org/Graphics/SVG/1.1/DTD/svg11.dtd">
<!-- Generated by graphviz version 2.36.0 (20140111.2315)
 -->
<!-- Title: /home/travis/build/STORM&#45;IRIT/Radium&#45;Engine/src/GuiBase/Viewer/CameraInterface.hpp Pages: 1 -->
<svg width="1411pt" height="342pt"
 viewBox="0.00 0.00 1411.00 342.00" xmlns="http://www.w3.org/2000/svg" xmlns:xlink="http://www.w3.org/1999/xlink">
<g id="graph0" class="graph" transform="scale(1 1) rotate(0) translate(4 338)">
<title>/home/travis/build/STORM&#45;IRIT/Radium&#45;Engine/src/GuiBase/Viewer/CameraInterface.hpp</title>
<polygon fill="white" stroke="none" points="-4,4 -4,-338 1407,-338 1407,4 -4,4"/>
<!-- Node1 -->
<g id="node1" class="node"><title>Node1</title>
<polygon fill="#bfbfbf" stroke="black" points="747.5,-292.5 747.5,-333.5 948.5,-333.5 948.5,-292.5 747.5,-292.5"/>
<text text-anchor="start" x="755.5" y="-321.5" font-family="Helvetica,sans-Serif" font-size="10.00">/home/travis/build</text>
<text text-anchor="start" x="755.5" y="-310.5" font-family="Helvetica,sans-Serif" font-size="10.00">/STORM&#45;IRIT/Radium&#45;Engine</text>
<text text-anchor="middle" x="848" y="-299.5" font-family="Helvetica,sans-Serif" font-size="10.00">/src/GuiBase/Viewer/CameraInterface.hpp</text>
</g>
<!-- Node2 -->
<g id="node2" class="node"><title>Node2</title>
<g id="a_node2"><a xlink:href="RaGuiBase_8hpp.html" target="_top" xlink:title="GuiBase/RaGuiBase.hpp">
<polygon fill="white" stroke="black" points="120,-112.5 120,-131.5 246,-131.5 246,-112.5 120,-112.5"/>
<text text-anchor="middle" x="183" y="-119.5" font-family="Helvetica,sans-Serif" font-size="10.00">GuiBase/RaGuiBase.hpp</text>
</a>
</g>
</g>
<!-- Node1&#45;&gt;Node2 -->
<g id="edge1" class="edge"><title>Node1&#45;&gt;Node2</title>
<path fill="none" stroke="midnightblue" d="M747.337,-312.012C637.719,-309.624 458.229,-298.65 310,-256 255.751,-240.391 229.744,-245.254 196,-200 183.489,-183.222 181.34,-158.679 181.605,-141.837"/>
<polygon fill="midnightblue" stroke="midnightblue" points="185.112,-141.748 182.076,-131.597 178.12,-141.426 185.112,-141.748"/>
</g>
<!-- Node3 -->
<g id="node3" class="node"><title>Node3</title>
<g id="a_node3"><a xlink:href="CoreMacros_8hpp.html" target="_top" xlink:title="Core/CoreMacros.hpp">
<polygon fill="white" stroke="black" points="107.5,-56.5 107.5,-75.5 220.5,-75.5 220.5,-56.5 107.5,-56.5"/>
<text text-anchor="middle" x="164" y="-63.5" font-family="Helvetica,sans-Serif" font-size="10.00">Core/CoreMacros.hpp</text>
</a>
</g>
</g>
<!-- Node1&#45;&gt;Node3 -->
<g id="edge12" class="edge"><title>Node1&#45;&gt;Node3</title>
<path fill="none" stroke="midnightblue" d="M747.384,-311.1C597.158,-308.374 322.423,-297.649 234,-256 163.775,-222.922 140.561,-203.776 111,-132 107.615,-123.781 107.267,-120.067 111,-112 116.92,-99.2072 128.468,-88.7216 139.278,-81.1003"/>
<polygon fill="midnightblue" stroke="midnightblue" points="141.214,-84.0161 147.666,-75.613 137.382,-78.1581 141.214,-84.0161"/>
</g>
<!-- Node9 -->
<g id="node9" class="node"><title>Node9</title>
<polygon fill="white" stroke="#bfbfbf" points="880,-236.5 880,-255.5 932,-255.5 932,-236.5 880,-236.5"/>
<text text-anchor="middle" x="906" y="-243.5" font-family="Helvetica,sans-Serif" font-size="10.00">memory</text>
</g>
<!-- Node1&#45;&gt;Node9 -->
<g id="edge8" class="edge"><title>Node1&#45;&gt;Node9</title>
<path fill="none" stroke="midnightblue" d="M865.402,-292.498C873.696,-283.203 883.505,-272.21 891.404,-263.358"/>
<polygon fill="midnightblue" stroke="midnightblue" points="894.233,-265.444 898.279,-255.652 889.01,-260.784 894.233,-265.444"/>
</g>
<!-- Node10 -->
<g id="node10" class="node"><title>Node10</title>
<polygon fill="white" stroke="#bfbfbf" points="950.5,-236.5 950.5,-255.5 1017.5,-255.5 1017.5,-236.5 950.5,-236.5"/>
<text text-anchor="middle" x="984" y="-243.5" font-family="Helvetica,sans-Serif" font-size="10.00">QKeyEvent</text>
</g>
<!-- Node1&#45;&gt;Node10 -->
<g id="edge9" class="edge"><title>Node1&#45;&gt;Node10</title>
<path fill="none" stroke="midnightblue" d="M888.804,-292.498C910.759,-282.005 937.241,-269.348 956.694,-260.051"/>
<polygon fill="midnightblue" stroke="midnightblue" points="958.383,-263.123 965.896,-255.652 955.365,-256.807 958.383,-263.123"/>
</g>
<!-- Node11 -->
<g id="node11" class="node"><title>Node11</title>
<polygon fill="white" stroke="#bfbfbf" points="1035.5,-236.5 1035.5,-255.5 1114.5,-255.5 1114.5,-236.5 1035.5,-236.5"/>
<text text-anchor="middle" x="1075" y="-243.5" font-family="Helvetica,sans-Serif" font-size="10.00">QMouseEvent</text>
</g>
<!-- Node1&#45;&gt;Node11 -->
<g id="edge10" class="edge"><title>Node1&#45;&gt;Node11</title>
<path fill="none" stroke="midnightblue" d="M916.107,-292.498C955.045,-281.348 1002.52,-267.755 1035.38,-258.346"/>
<polygon fill="midnightblue" stroke="midnightblue" points="1036.43,-261.685 1045.08,-255.567 1034.5,-254.955 1036.43,-261.685"/>
</g>
<!-- Node12 -->
<g id="node12" class="node"><title>Node12</title>
<polygon fill="white" stroke="#bfbfbf" points="1132.5,-236.5 1132.5,-255.5 1185.5,-255.5 1185.5,-236.5 1132.5,-236.5"/>
<text text-anchor="middle" x="1159" y="-243.5" font-family="Helvetica,sans-Serif" font-size="10.00">QObject</text>
</g>
<!-- Node1&#45;&gt;Node12 -->
<g id="edge11" class="edge"><title>Node1&#45;&gt;Node12</title>
<path fill="none" stroke="midnightblue" d="M948.801,-292.58C998.379,-282.762 1059.23,-270.319 1122.53,-256.03"/>
<polygon fill="midnightblue" stroke="midnightblue" points="1123.32,-259.441 1132.29,-253.815 1121.77,-252.614 1123.32,-259.441"/>
</g>
<!-- Node13 -->
<g id="node13" class="node"><title>Node13</title>
<g id="a_node13"><a xlink:href="Log_8hpp.html" target="_top" xlink:title="Core/Log/Log.hpp">
<polygon fill="white" stroke="black" points="319,-236.5 319,-255.5 413,-255.5 413,-236.5 319,-236.5"/>
<text text-anchor="middle" x="366" y="-243.5" font-family="Helvetica,sans-Serif" font-size="10.00">Core/Log/Log.hpp</text>
</a>
</g>
</g>
<!-- Node1&#45;&gt;Node13 -->
<g id="edge13" class="edge"><title>Node1&#45;&gt;Node13</title>
<path fill="none" stroke="midnightblue" d="M747.251,-298.413C649.131,-285.182 503.441,-265.535 423.561,-254.762"/>
<polygon fill="midnightblue" stroke="midnightblue" points="423.588,-251.234 413.21,-253.367 422.653,-258.172 423.588,-251.234"/>
</g>
<!-- Node20 -->
<g id="node20" class="node"><title>Node20</title>
<g id="a_node20"><a xlink:href="LinearAlgebra_8hpp.html" target="_top" xlink:title="Core/Math/LinearAlgebra.hpp">
<polygon fill="white" stroke="black" points="718.5,-236.5 718.5,-255.5 861.5,-255.5 861.5,-236.5 718.5,-236.5"/>
<text text-anchor="middle" x="790" y="-243.5" font-family="Helvetica,sans-Serif" font-size="10.00">Core/Math/LinearAlgebra.hpp</text>
</a>
</g>
</g>
<!-- Node1&#45;&gt;Node20 -->
<g id="edge24" class="edge"><title>Node1&#45;&gt;Node20</title>
<path fill="none" stroke="midnightblue" d="M830.598,-292.498C822.304,-283.203 812.495,-272.21 804.596,-263.358"/>
<polygon fill="midnightblue" stroke="midnightblue" points="806.99,-260.784 797.721,-255.652 801.767,-265.444 806.99,-260.784"/>
</g>
<!-- Node2&#45;&gt;Node3 -->
<g id="edge2" class="edge"><title>Node2&#45;&gt;Node3</title>
<path fill="none" stroke="midnightblue" d="M179.863,-112.083C177.317,-104.849 173.644,-94.4087 170.473,-85.3968"/>
<polygon fill="midnightblue" stroke="midnightblue" points="173.7,-84.0225 167.079,-75.7511 167.097,-86.3459 173.7,-84.0225"/>
</g>
<!-- Node4 -->
<g id="node4" class="node"><title>Node4</title>
<polygon fill="white" stroke="#bfbfbf" points="195.5,-0.5 195.5,-19.5 244.5,-19.5 244.5,-0.5 195.5,-0.5"/>
<text text-anchor="middle" x="220" y="-7.5" font-family="Helvetica,sans-Serif" font-size="10.00">cassert</text>
</g>
<!-- Node3&#45;&gt;Node4 -->
<g id="edge3" class="edge"><title>Node3&#45;&gt;Node4</title>
<path fill="none" stroke="midnightblue" d="M172.997,-56.324C181.194,-48.4196 193.506,-36.5482 203.472,-26.9377"/>
<polygon fill="midnightblue" stroke="midnightblue" points="206.07,-29.2947 210.839,-19.8339 201.211,-24.2558 206.07,-29.2947"/>
</g>
<!-- Node5 -->
<g id="node5" class="node"><title>Node5</title>
<polygon fill="white" stroke="#bfbfbf" points="-0.5,-0.5 -0.5,-19.5 42.5,-19.5 42.5,-0.5 -0.5,-0.5"/>
<text text-anchor="middle" x="21" y="-7.5" font-family="Helvetica,sans-Serif" font-size="10.00">cstdio</text>
</g>
<!-- Node3&#45;&gt;Node5 -->
<g id="edge4" class="edge"><title>Node3&#45;&gt;Node5</title>
<path fill="none" stroke="midnightblue" d="M141.341,-56.4435C117.319,-47.3721 79.2064,-32.98 52.3191,-22.8268"/>
<polygon fill="midnightblue" stroke="midnightblue" points="53.2084,-19.4214 42.6167,-19.1629 50.7354,-25.9701 53.2084,-19.4214"/>
</g>
<!-- Node6 -->
<g id="node6" class="node"><title>Node6</title>
<polygon fill="white" stroke="#bfbfbf" points="61,-0.5 61,-19.5 115,-19.5 115,-0.5 61,-0.5"/>
<text text-anchor="middle" x="88" y="-7.5" font-family="Helvetica,sans-Serif" font-size="10.00">iostream</text>
</g>
<!-- Node3&#45;&gt;Node6 -->
<g id="edge5" class="edge"><title>Node3&#45;&gt;Node6</title>
<path fill="none" stroke="midnightblue" d="M151.789,-56.324C140.224,-48.1066 122.625,-35.6017 108.839,-25.8069"/>
<polygon fill="midnightblue" stroke="midnightblue" points="110.612,-22.7729 100.433,-19.8339 106.557,-28.4791 110.612,-22.7729"/>
</g>
<!-- Node7 -->
<g id="node7" class="node"><title>Node7</title>
<polygon fill="white" stroke="#bfbfbf" points="263,-0.5 263,-19.5 315,-19.5 315,-0.5 263,-0.5"/>
<text text-anchor="middle" x="289" y="-7.5" font-family="Helvetica,sans-Serif" font-size="10.00">sstream</text>
</g>
<!-- Node3&#45;&gt;Node7 -->
<g id="edge6" class="edge"><title>Node3&#45;&gt;Node7</title>
<path fill="none" stroke="midnightblue" d="M183.807,-56.4435C204.287,-47.5961 236.483,-33.6875 259.865,-23.5865"/>
<polygon fill="midnightblue" stroke="midnightblue" points="261.494,-26.6953 269.286,-19.5164 258.718,-20.2692 261.494,-26.6953"/>
</g>
<!-- Node8 -->
<g id="node8" class="node"><title>Node8</title>
<polygon fill="white" stroke="#bfbfbf" points="133,-0.5 133,-19.5 177,-19.5 177,-0.5 133,-0.5"/>
<text text-anchor="middle" x="155" y="-7.5" font-family="Helvetica,sans-Serif" font-size="10.00">thread</text>
</g>
<!-- Node3&#45;&gt;Node8 -->
<g id="edge7" class="edge"><title>Node3&#45;&gt;Node8</title>
<path fill="none" stroke="midnightblue" d="M162.514,-56.083C161.321,-48.9272 159.606,-38.6353 158.115,-29.6911"/>
<polygon fill="midnightblue" stroke="midnightblue" points="161.555,-29.0396 156.459,-19.7511 154.65,-30.1904 161.555,-29.0396"/>
</g>
<!-- Node13&#45;&gt;Node7 -->
<g id="edge16" class="edge"><title>Node13&#45;&gt;Node7</title>
<path fill="none" stroke="midnightblue" d="M356.604,-236.274C348.083,-227.819 335.84,-214.219 329,-200 301.178,-142.161 292.599,-65.1814 290.041,-29.9981"/>
<polygon fill="midnightblue" stroke="midnightblue" points="293.517,-29.5126 289.385,-19.7567 286.532,-29.96 293.517,-29.5126"/>
</g>
<!-- Node14 -->
<g id="node14" class="node"><title>Node14</title>
<g id="a_node14"><a xlink:href="RaCore_8hpp.html" target="_top" xlink:title="Core/RaCore.hpp">
<polygon fill="white" stroke="black" points="495.5,-112.5 495.5,-131.5 588.5,-131.5 588.5,-112.5 495.5,-112.5"/>
<text text-anchor="middle" x="542" y="-119.5" font-family="Helvetica,sans-Serif" font-size="10.00">Core/RaCore.hpp</text>
</a>
</g>
</g>
<!-- Node13&#45;&gt;Node14 -->
<g id="edge14" class="edge"><title>Node13&#45;&gt;Node14</title>
<path fill="none" stroke="midnightblue" d="M413.247,-239.885C461.482,-233.573 531.547,-221.016 548,-200 561.005,-183.388 555.757,-158.108 549.781,-141.091"/>
<polygon fill="midnightblue" stroke="midnightblue" points="553.018,-139.759 546.122,-131.715 546.497,-142.303 553.018,-139.759"/>
</g>
<!-- Node15 -->
<g id="node15" class="node"><title>Node15</title>
<polygon fill="white" stroke="#bfbfbf" points="205,-174.5 205,-193.5 251,-193.5 251,-174.5 205,-174.5"/>
<text text-anchor="middle" x="228" y="-181.5" font-family="Helvetica,sans-Serif" font-size="10.00">stdio.h</text>
</g>
<!-- Node13&#45;&gt;Node15 -->
<g id="edge17" class="edge"><title>Node13&#45;&gt;Node15</title>
<path fill="none" stroke="midnightblue" d="M346.228,-236.403C322.864,-226.245 283.786,-209.255 256.997,-197.607"/>
<polygon fill="midnightblue" stroke="midnightblue" points="258.302,-194.358 247.735,-193.581 255.511,-200.778 258.302,-194.358"/>
</g>
<!-- Node16 -->
<g id="node16" class="node"><title>Node16</title>
<polygon fill="white" stroke="#bfbfbf" points="349.5,-112.5 349.5,-131.5 390.5,-131.5 390.5,-112.5 349.5,-112.5"/>
<text text-anchor="middle" x="370" y="-119.5" font-family="Helvetica,sans-Serif" font-size="10.00">string</text>
</g>
<!-- Node13&#45;&gt;Node16 -->
<g id="edge18" class="edge"><title>Node13&#45;&gt;Node16</title>
<path fill="none" stroke="midnightblue" d="M357.786,-236.182C350.456,-227.663 340.245,-214.019 336,-200 331.879,-186.388 331.479,-181.484 336,-168 339.604,-157.251 346.903,-147.02 353.817,-139.038"/>
<polygon fill="midnightblue" stroke="midnightblue" points="356.477,-141.317 360.712,-131.605 351.345,-136.556 356.477,-141.317"/>
</g>
<!-- Node17 -->
<g id="node17" class="node"><title>Node17</title>
<g id="a_node17"><a xlink:href="StringUtils_8hpp.html" target="_top" xlink:title="Core/String/StringUtils.hpp">
<polygon fill="white" stroke="black" points="405,-174.5 405,-193.5 539,-193.5 539,-174.5 405,-174.5"/>
<text text-anchor="middle" x="472" y="-181.5" font-family="Helvetica,sans-Serif" font-size="10.00">Core/String/StringUtils.hpp</text>
</a>
</g>
</g>
<!-- Node13&#45;&gt;Node17 -->
<g id="edge19" class="edge"><title>Node13&#45;&gt;Node17</title>
<path fill="none" stroke="midnightblue" d="M381.187,-236.403C398.662,-226.512 427.579,-210.144 448.083,-198.538"/>
<polygon fill="midnightblue" stroke="midnightblue" points="449.862,-201.553 456.841,-193.581 446.414,-195.461 449.862,-201.553"/>
</g>
<!-- Node19 -->
<g id="node19" class="node"><title>Node19</title>
<polygon fill="white" stroke="#bfbfbf" points="345.5,-174.5 345.5,-193.5 386.5,-193.5 386.5,-174.5 345.5,-174.5"/>
<text text-anchor="middle" x="366" y="-181.5" font-family="Helvetica,sans-Serif" font-size="10.00">ctime</text>
</g>
<!-- Node13&#45;&gt;Node19 -->
<g id="edge23" class="edge"><title>Node13&#45;&gt;Node19</title>
<path fill="none" stroke="midnightblue" d="M366,-236.403C366,-227.938 366,-214.728 366,-203.82"/>
<polygon fill="midnightblue" stroke="midnightblue" points="369.5,-203.581 366,-193.581 362.5,-203.581 369.5,-203.581"/>
</g>
<!-- Node14&#45;&gt;Node3 -->
<g id="edge15" class="edge"><title>Node14&#45;&gt;Node3</title>
<path fill="none" stroke="midnightblue" d="M495.26,-113.415C492.127,-112.929 489.019,-112.453 486,-112 397.912,-98.7677 296.067,-84.7495 230.899,-75.9424"/>
<polygon fill="midnightblue" stroke="midnightblue" points="231.141,-72.4434 220.763,-74.5746 230.205,-79.3805 231.141,-72.4434"/>
</g>
<!-- Node17&#45;&gt;Node14 -->
<g id="edge20" class="edge"><title>Node17&#45;&gt;Node14</title>
<path fill="none" stroke="midnightblue" d="M482.029,-174.403C493.049,-164.958 510.96,-149.606 524.343,-138.134"/>
<polygon fill="midnightblue" stroke="midnightblue" points="526.675,-140.746 531.989,-131.581 522.119,-135.431 526.675,-140.746"/>
</g>
<!-- Node17&#45;&gt;Node16 -->
<g id="edge21" class="edge"><title>Node17&#45;&gt;Node16</title>
<path fill="none" stroke="midnightblue" d="M457.386,-174.403C440.647,-164.557 412.996,-148.291 393.281,-136.695"/>
<polygon fill="midnightblue" stroke="midnightblue" points="394.981,-133.634 384.587,-131.581 391.432,-139.668 394.981,-133.634"/>
</g>
<!-- Node18 -->
<g id="node18" class="node"><title>Node18</title>
<polygon fill="white" stroke="#bfbfbf" points="434,-112.5 434,-131.5 478,-131.5 478,-112.5 434,-112.5"/>
<text text-anchor="middle" x="456" y="-119.5" font-family="Helvetica,sans-Serif" font-size="10.00">vector</text>
</g>
<!-- Node17&#45;&gt;Node18 -->
<g id="edge22" class="edge"><title>Node17&#45;&gt;Node18</title>
<path fill="none" stroke="midnightblue" d="M469.708,-174.403C467.426,-165.849 463.853,-152.45 460.927,-141.476"/>
<polygon fill="midnightblue" stroke="midnightblue" points="464.247,-140.341 458.288,-131.581 457.483,-142.145 464.247,-140.341"/>
</g>
<!-- Node20&#45;&gt;Node14 -->
<g id="edge25" class="edge"><title>Node20&#45;&gt;Node14</title>
<path fill="none" stroke="midnightblue" d="M732.027,-236.477C698.869,-229.886 657.369,-218.636 624,-200 595.868,-184.288 569.935,-156.843 555.054,-139.316"/>
<polygon fill="midnightblue" stroke="midnightblue" points="557.745,-137.078 548.675,-131.603 552.351,-141.54 557.745,-137.078"/>
</g>
<!-- Node21 -->
<g id="node21" class="node"><title>Node21</title>
<polygon fill="white" stroke="#bfbfbf" points="757.5,-174.5 757.5,-193.5 822.5,-193.5 822.5,-174.5 757.5,-174.5"/>
<text text-anchor="middle" x="790" y="-181.5" font-family="Helvetica,sans-Serif" font-size="10.00">Eigen/Core</text>
</g>
<!-- Node20&#45;&gt;Node21 -->
<g id="edge26" class="edge"><title>Node20&#45;&gt;Node21</title>
<path fill="none" stroke="midnightblue" d="M790,-236.403C790,-227.938 790,-214.728 790,-203.82"/>
<polygon fill="midnightblue" stroke="midnightblue" points="793.5,-203.581 790,-193.581 786.5,-203.581 793.5,-203.581"/>
</g>
<!-- Node22 -->
<g id="node22" class="node"><title>Node22</title>
<polygon fill="white" stroke="#bfbfbf" points="840.5,-174.5 840.5,-193.5 927.5,-193.5 927.5,-174.5 840.5,-174.5"/>
<text text-anchor="middle" x="884" y="-181.5" font-family="Helvetica,sans-Serif" font-size="10.00">Eigen/Geometry</text>
</g>
<!-- Node20&#45;&gt;Node22 -->
<g id="edge27" class="edge"><title>Node20&#45;&gt;Node22</title>
<path fill="none" stroke="midnightblue" d="M803.468,-236.403C818.685,-226.691 843.687,-210.732 861.801,-199.17"/>
<polygon fill="midnightblue" stroke="midnightblue" points="864.011,-201.911 870.557,-193.581 860.245,-196.011 864.011,-201.911"/>
</g>
<!-- Node23 -->
<g id="node23" class="node"><title>Node23</title>
<polygon fill="white" stroke="#bfbfbf" points="945.5,-174.5 945.5,-193.5 1020.5,-193.5 1020.5,-174.5 945.5,-174.5"/>
<text text-anchor="middle" x="983" y="-181.5" font-family="Helvetica,sans-Serif" font-size="10.00">Eigen/Sparse</text>
</g>
<!-- Node20&#45;&gt;Node23 -->
<g id="edge28" class="edge"><title>Node20&#45;&gt;Node23</title>
<path fill="none" stroke="midnightblue" d="M818.015,-236.456C847.425,-227.465 895.001,-212.86 936,-200 939.371,-198.943 942.876,-197.836 946.385,-196.725"/>
<polygon fill="midnightblue" stroke="midnightblue" points="947.702,-199.979 956.172,-193.613 945.581,-193.308 947.702,-199.979"/>
</g>
<!-- Node24 -->
<g id="node24" class="node"><title>Node24</title>
<polygon fill="white" stroke="#bfbfbf" points="1038.5,-174.5 1038.5,-193.5 1097.5,-193.5 1097.5,-174.5 1038.5,-174.5"/>
<text text-anchor="middle" x="1068" y="-181.5" font-family="Helvetica,sans-Serif" font-size="10.00">functional</text>
</g>
<!-- Node20&#45;&gt;Node24 -->
<g id="edge29" class="edge"><title>Node20&#45;&gt;Node24</title>
<path fill="none" stroke="midnightblue" d="M852.114,-236.464C900.778,-229.021 969.903,-216.779 1029,-200 1031.97,-199.155 1035.04,-198.176 1038.08,-197.131"/>
<polygon fill="midnightblue" stroke="midnightblue" points="1039.4,-200.374 1047.59,-193.648 1037,-193.801 1039.4,-200.374"/>
</g>
<!-- Node25 -->
<g id="node25" class="node"><title>Node25</title>
<polygon fill="white" stroke="#bfbfbf" points="1115.5,-169 1115.5,-199 1248.5,-199 1248.5,-169 1115.5,-169"/>
<text text-anchor="start" x="1123.5" y="-187" font-family="Helvetica,sans-Serif" font-size="10.00">unsupported/Eigen/Aligned</text>
<text text-anchor="middle" x="1182" y="-176" font-family="Helvetica,sans-Serif" font-size="10.00">Vector3</text>
</g>
<!-- Node20&#45;&gt;Node25 -->
<g id="edge30" class="edge"><title>Node20&#45;&gt;Node25</title>
<path fill="none" stroke="midnightblue" d="M857.354,-236.469C919.187,-228.395 1013.58,-215.464 1105.3,-200.065"/>
<polygon fill="midnightblue" stroke="midnightblue" points="1106.03,-203.49 1115.31,-198.372 1104.87,-196.588 1106.03,-203.49"/>
</g>
<!-- Node26 -->
<g id="node26" class="node"><title>Node26</title>
<g id="a_node26"><a xlink:href="Math_8hpp.html" target="_top" xlink:title="Core/Math/Math.hpp">
<polygon fill="white" stroke="black" points="633,-174.5 633,-193.5 739,-193.5 739,-174.5 633,-174.5"/>
<text text-anchor="middle" x="686" y="-181.5" font-family="Helvetica,sans-Serif" font-size="10.00">Core/Math/Math.hpp</text>
</a>
</g>
</g>
<!-- Node20&#45;&gt;Node26 -->
<g id="edge31" class="edge"><title>Node20&#45;&gt;Node26</title>
<path fill="none" stroke="midnightblue" d="M775.099,-236.403C758.032,-226.557 729.839,-210.291 709.738,-198.695"/>
<polygon fill="midnightblue" stroke="midnightblue" points="711.284,-195.546 700.873,-193.581 707.786,-201.61 711.284,-195.546"/>
</g>
<!-- Node30 -->
<g id="node30" class="node"><title>Node30</title>
<g id="a_node30"><a xlink:href="LinearAlgebra_8inl.html" target="_top" xlink:title="Core/Math/LinearAlgebra.inl">
<polygon fill="white" stroke="black" points="1266.5,-174.5 1266.5,-193.5 1403.5,-193.5 1403.5,-174.5 1266.5,-174.5"/>
<text text-anchor="middle" x="1335" y="-181.5" font-family="Helvetica,sans-Serif" font-size="10.00">Core/Math/LinearAlgebra.inl</text>
</a>
</g>
</g>
<!-- Node20&#45;&gt;Node30 -->
<g id="edge37" class="edge"><title>Node20&#45;&gt;Node30</title>
<path fill="none" stroke="midnightblue" d="M861.546,-236.981C864.741,-236.645 867.903,-236.316 871,-236 1042.41,-218.486 1086.42,-224.298 1257,-200 1266.02,-198.715 1275.59,-197.093 1284.81,-195.395"/>
<polygon fill="midnightblue" stroke="midnightblue" points="1285.47,-198.833 1294.64,-193.534 1284.17,-191.955 1285.47,-198.833"/>
</g>
<!-- Node26&#45;&gt;Node14 -->
<g id="edge32" class="edge"><title>Node26&#45;&gt;Node14</title>
<path fill="none" stroke="midnightblue" d="M665.368,-174.403C640.881,-164.2 599.853,-147.105 571.891,-135.454"/>
<polygon fill="midnightblue" stroke="midnightblue" points="573.17,-132.196 562.593,-131.581 570.478,-138.658 573.17,-132.196"/>
</g>
<!-- Node27 -->
<g id="node27" class="node"><title>Node27</title>
<polygon fill="white" stroke="#bfbfbf" points="606,-112.5 606,-131.5 662,-131.5 662,-112.5 606,-112.5"/>
<text text-anchor="middle" x="634" y="-119.5" font-family="Helvetica,sans-Serif" font-size="10.00">algorithm</text>
</g>
<!-- Node26&#45;&gt;Node27 -->
<g id="edge33" class="edge"><title>Node26&#45;&gt;Node27</title>
<path fill="none" stroke="midnightblue" d="M678.55,-174.403C670.672,-165.314 658.055,-150.756 648.256,-139.449"/>
<polygon fill="midnightblue" stroke="midnightblue" points="650.631,-136.845 641.437,-131.581 645.341,-141.43 650.631,-136.845"/>
</g>
<!-- Node28 -->
<g id="node28" class="node"><title>Node28</title>
<polygon fill="white" stroke="#bfbfbf" points="680,-112.5 680,-131.5 724,-131.5 724,-112.5 680,-112.5"/>
<text text-anchor="middle" x="702" y="-119.5" font-family="Helvetica,sans-Serif" font-size="10.00">cmath</text>
</g>
<!-- Node26&#45;&gt;Node28 -->
<g id="edge34" class="edge"><title>Node26&#45;&gt;Node28</title>
<path fill="none" stroke="midnightblue" d="M688.292,-174.403C690.574,-165.849 694.147,-152.45 697.073,-141.476"/>
<polygon fill="midnightblue" stroke="midnightblue" points="700.517,-142.145 699.712,-131.581 693.753,-140.341 700.517,-142.145"/>
</g>
<!-- Node29 -->
<g id="node29" class="node"><title>Node29</title>
<g id="a_node29"><a xlink:href="Math_8inl.html" target="_top" xlink:title="Core/Math/Math.inl">
<polygon fill="white" stroke="black" points="742,-112.5 742,-131.5 842,-131.5 842,-112.5 742,-112.5"/>
<text text-anchor="middle" x="792" y="-119.5" font-family="Helvetica,sans-Serif" font-size="10.00">Core/Math/Math.inl</text>
</a>
</g>
</g>
<!-- Node26&#45;&gt;Node29 -->
<g id="edge35" class="edge"><title>Node26&#45;&gt;Node29</title>
<path fill="none" stroke="midnightblue" d="M696.287,-174.403C711.76,-164.423 740.772,-147.849 762.928,-136.225"/>
<polygon fill="midnightblue" stroke="midnightblue" points="764.657,-139.272 771.944,-131.581 761.451,-133.049 764.657,-139.272"/>
</g>
<!-- Node29&#45;&gt;Node26 -->
<g id="edge36" class="edge"><title>Node29&#45;&gt;Node26</title>
<path fill="none" stroke="midnightblue" d="M781.738,-131.581C766.279,-141.554 737.27,-158.127 715.108,-169.756"/>
<polygon fill="midnightblue" stroke="midnightblue" points="713.374,-166.712 706.088,-174.403 716.58,-172.935 713.374,-166.712"/>
</g>
</g>
</svg>
