<?xml version="1.0" encoding="UTF-8" standalone="no"?>
<!DOCTYPE svg PUBLIC "-//W3C//DTD SVG 1.1//EN"
 "http://www.w3.org/Graphics/SVG/1.1/DTD/svg11.dtd">
<!-- Generated by graphviz version 2.36.0 (20140111.2315)
 -->
<!-- Title: /home/travis/build/STORM&#45;IRIT/Radium&#45;Engine/src/Core/Index/CircularIndex.hpp Pages: 1 -->
<svg width="389pt" height="162pt"
 viewBox="0.00 0.00 389.00 162.00" xmlns="http://www.w3.org/2000/svg" xmlns:xlink="http://www.w3.org/1999/xlink">
<g id="graph0" class="graph" transform="scale(1 1) rotate(0) translate(4 158)">
<title>/home/travis/build/STORM&#45;IRIT/Radium&#45;Engine/src/Core/Index/CircularIndex.hpp</title>
<polygon fill="white" stroke="none" points="-4,4 -4,-158 385,-158 385,4 -4,4"/>
<!-- Node1 -->
<g id="node1" class="node"><title>Node1</title>
<polygon fill="#bfbfbf" stroke="black" points="217,-112.5 217,-153.5 381,-153.5 381,-112.5 217,-112.5"/>
<text text-anchor="start" x="225" y="-141.5" font-family="Helvetica,sans-Serif" font-size="10.00">/home/travis/build</text>
<text text-anchor="start" x="225" y="-130.5" font-family="Helvetica,sans-Serif" font-size="10.00">/STORM&#45;IRIT/Radium&#45;Engine</text>
<text text-anchor="middle" x="299" y="-119.5" font-family="Helvetica,sans-Serif" font-size="10.00">/src/Core/Index/CircularIndex.hpp</text>
</g>
<!-- Node2 -->
<g id="node2" class="node"><title>Node2</title>
<g id="a_node2"><a xlink:href="CoreMacros_8hpp.html" target="_top" xlink:title="Core/CoreMacros.hpp">
<polygon fill="white" stroke="black" points="98.5,-56.5 98.5,-75.5 211.5,-75.5 211.5,-56.5 98.5,-56.5"/>
<text text-anchor="middle" x="155" y="-63.5" font-family="Helvetica,sans-Serif" font-size="10.00">Core/CoreMacros.hpp</text>
</a>
</g>
</g>
<!-- Node1&#45;&gt;Node2 -->
<g id="edge1" class="edge"><title>Node1&#45;&gt;Node2</title>
<path fill="none" stroke="midnightblue" d="M255.795,-112.498C232.337,-101.909 203.997,-89.1169 183.35,-79.7968"/>
<polygon fill="midnightblue" stroke="midnightblue" points="184.723,-76.5767 174.169,-75.6525 181.843,-82.9568 184.723,-76.5767"/>
</g>
<!-- Node8 -->
<g id="node8" class="node"><title>Node8</title>
<g id="a_node8"><a xlink:href="CircularIndex_8inl.html" target="_top" xlink:title="Core/Index/CircularIndex.inl">
<polygon fill="white" stroke="black" points="230,-56.5 230,-75.5 368,-75.5 368,-56.5 230,-56.5"/>
<text text-anchor="middle" x="299" y="-63.5" font-family="Helvetica,sans-Serif" font-size="10.00">Core/Index/CircularIndex.inl</text>
</a>
</g>
</g>
<!-- Node1&#45;&gt;Node8 -->
<g id="edge7" class="edge"><title>Node1&#45;&gt;Node8</title>
<path fill="none" stroke="midnightblue" d="M292.755,-112.498C292.057,-103.969 292.083,-94.0115 292.833,-85.5896"/>
<polygon fill="midnightblue" stroke="midnightblue" points="296.303,-86.0436 294.236,-75.6525 289.372,-85.065 296.303,-86.0436"/>
</g>
<!-- Node3 -->
<g id="node3" class="node"><title>Node3</title>
<polygon fill="white" stroke="#bfbfbf" points="-0.5,-0.5 -0.5,-19.5 48.5,-19.5 48.5,-0.5 -0.5,-0.5"/>
<text text-anchor="middle" x="24" y="-7.5" font-family="Helvetica,sans-Serif" font-size="10.00">cassert</text>
</g>
<!-- Node2&#45;&gt;Node3 -->
<g id="edge2" class="edge"><title>Node2&#45;&gt;Node3</title>
<path fill="none" stroke="midnightblue" d="M134.243,-56.4435C112.684,-47.5566 78.7367,-33.5632 54.2062,-23.4514"/>
<polygon fill="midnightblue" stroke="midnightblue" points="55.2394,-20.0917 44.6602,-19.5164 52.5717,-26.5634 55.2394,-20.0917"/>
</g>
<!-- Node4 -->
<g id="node4" class="node"><title>Node4</title>
<polygon fill="white" stroke="#bfbfbf" points="66.5,-0.5 66.5,-19.5 109.5,-19.5 109.5,-0.5 66.5,-0.5"/>
<text text-anchor="middle" x="88" y="-7.5" font-family="Helvetica,sans-Serif" font-size="10.00">cstdio</text>
</g>
<!-- Node2&#45;&gt;Node4 -->
<g id="edge3" class="edge"><title>Node2&#45;&gt;Node4</title>
<path fill="none" stroke="midnightblue" d="M144.235,-56.324C134.234,-48.2631 119.113,-36.0765 107.07,-26.3695"/>
<polygon fill="midnightblue" stroke="midnightblue" points="108.943,-23.3841 98.9606,-19.8339 104.55,-28.8343 108.943,-23.3841"/>
</g>
<!-- Node5 -->
<g id="node5" class="node"><title>Node5</title>
<polygon fill="white" stroke="#bfbfbf" points="128,-0.5 128,-19.5 182,-19.5 182,-0.5 128,-0.5"/>
<text text-anchor="middle" x="155" y="-7.5" font-family="Helvetica,sans-Serif" font-size="10.00">iostream</text>
</g>
<!-- Node2&#45;&gt;Node5 -->
<g id="edge4" class="edge"><title>Node2&#45;&gt;Node5</title>
<path fill="none" stroke="midnightblue" d="M155,-56.083C155,-49.0059 155,-38.8611 155,-29.9865"/>
<polygon fill="midnightblue" stroke="midnightblue" points="158.5,-29.751 155,-19.7511 151.5,-29.7511 158.5,-29.751"/>
</g>
<!-- Node6 -->
<g id="node6" class="node"><title>Node6</title>
<polygon fill="white" stroke="#bfbfbf" points="200,-0.5 200,-19.5 252,-19.5 252,-0.5 200,-0.5"/>
<text text-anchor="middle" x="226" y="-7.5" font-family="Helvetica,sans-Serif" font-size="10.00">sstream</text>
</g>
<!-- Node2&#45;&gt;Node6 -->
<g id="edge5" class="edge"><title>Node2&#45;&gt;Node6</title>
<path fill="none" stroke="midnightblue" d="M166.407,-56.324C177.109,-48.1849 193.341,-35.8395 206.163,-26.0874"/>
<polygon fill="midnightblue" stroke="midnightblue" points="208.544,-28.6734 214.385,-19.8339 204.307,-23.1018 208.544,-28.6734"/>
</g>
<!-- Node7 -->
<g id="node7" class="node"><title>Node7</title>
<polygon fill="white" stroke="#bfbfbf" points="270,-0.5 270,-19.5 314,-19.5 314,-0.5 270,-0.5"/>
<text text-anchor="middle" x="292" y="-7.5" font-family="Helvetica,sans-Serif" font-size="10.00">thread</text>
</g>
<!-- Node2&#45;&gt;Node7 -->
<g id="edge6" class="edge"><title>Node2&#45;&gt;Node7</title>
<path fill="none" stroke="midnightblue" d="M176.708,-56.4435C199.355,-47.5171 235.072,-33.4387 260.752,-23.3168"/>
<polygon fill="midnightblue" stroke="midnightblue" points="262.374,-26.4397 270.394,-19.5164 259.807,-19.9273 262.374,-26.4397"/>
</g>
<!-- Node8&#45;&gt;Node1 -->
<g id="edge8" class="edge"><title>Node8&#45;&gt;Node1</title>
<path fill="none" stroke="midnightblue" d="M303.764,-75.6525C305.227,-82.5242 305.881,-92.5592 305.728,-102.263"/>
<polygon fill="midnightblue" stroke="midnightblue" points="302.221,-102.344 305.245,-112.498 309.213,-102.674 302.221,-102.344"/>
</g>
</g>
</svg>
