<?xml version="1.0" encoding="UTF-8" standalone="no"?>
<!DOCTYPE svg PUBLIC "-//W3C//DTD SVG 1.1//EN"
 "http://www.w3.org/Graphics/SVG/1.1/DTD/svg11.dtd">
<!-- Generated by graphviz version 2.36.0 (20140111.2315)
 -->
<!-- Title: Ra::IO::AssimpGeometryDataLoader::fetchFaces Pages: 1 -->
<svg width="326pt" height="77pt"
 viewBox="0.00 0.00 326.00 77.00" xmlns="http://www.w3.org/2000/svg" xmlns:xlink="http://www.w3.org/1999/xlink">
<g id="graph0" class="graph" transform="scale(1 1) rotate(0) translate(4 73)">
<title>Ra::IO::AssimpGeometryDataLoader::fetchFaces</title>
<polygon fill="white" stroke="none" points="-4,4 -4,-73 322,-73 322,4 -4,4"/>
<!-- Node1 -->
<g id="node1" class="node"><title>Node1</title>
<polygon fill="#bfbfbf" stroke="black" points="0.5,-17 0.5,-47 149.5,-47 149.5,-17 0.5,-17"/>
<text text-anchor="start" x="8.5" y="-35" font-family="Helvetica,sans-Serif" font-size="10.00">Ra::IO::AssimpGeometryData</text>
<text text-anchor="middle" x="75" y="-24" font-family="Helvetica,sans-Serif" font-size="10.00">Loader::fetchFaces</text>
</g>
<!-- Node2 -->
<g id="node2" class="node"><title>Node2</title>
<g id="a_node2"><a xlink:href="classRa_1_1Asset_1_1GeometryData.html#acdad9f2b09a7d942db229ace49a4fea0" target="_top" xlink:title="Return the list of faces. ">
<polygon fill="white" stroke="black" points="186.5,-39 186.5,-69 317.5,-69 317.5,-39 186.5,-39"/>
<text text-anchor="start" x="194.5" y="-57" font-family="Helvetica,sans-Serif" font-size="10.00">Ra::Asset::GeometryData</text>
<text text-anchor="middle" x="252" y="-46" font-family="Helvetica,sans-Serif" font-size="10.00">::getFaces</text>
</a>
</g>
</g>
<!-- Node1&#45;&gt;Node2 -->
<g id="edge1" class="edge"><title>Node1&#45;&gt;Node2</title>
<path fill="none" stroke="midnightblue" d="M149.709,-41.2662C158.437,-42.3635 167.352,-43.4843 176.097,-44.5836"/>
<polygon fill="midnightblue" stroke="midnightblue" points="175.903,-48.0867 186.262,-45.8615 176.777,-41.1414 175.903,-48.0867"/>
</g>
<!-- Node3 -->
<g id="node3" class="node"><title>Node3</title>
<g id="a_node3"><a xlink:href="namespaceRa_1_1IO.html#aef6c50424873964fcea0008be55d4a34" target="_top" xlink:title="Ra::IO::assimpToCore">
<polygon fill="white" stroke="black" points="194,-0.5 194,-19.5 310,-19.5 310,-0.5 194,-0.5"/>
<text text-anchor="middle" x="252" y="-7.5" font-family="Helvetica,sans-Serif" font-size="10.00">Ra::IO::assimpToCore</text>
</a>
</g>
</g>
<!-- Node1&#45;&gt;Node3 -->
<g id="edge2" class="edge"><title>Node1&#45;&gt;Node3</title>
<path fill="none" stroke="midnightblue" d="M149.709,-22.7338C161.008,-21.3132 172.623,-19.8531 183.773,-18.4514"/>
<polygon fill="midnightblue" stroke="midnightblue" points="184.374,-21.9035 193.859,-17.1834 183.501,-14.9581 184.374,-21.9035"/>
</g>
</g>
</svg>
