<?xml version="1.0" encoding="UTF-8" standalone="no"?>
<!DOCTYPE svg PUBLIC "-//W3C//DTD SVG 1.1//EN"
 "http://www.w3.org/Graphics/SVG/1.1/DTD/svg11.dtd">
<!-- Generated by graphviz version 2.36.0 (20140111.2315)
 -->
<!-- Title: Ra::Core::CircularIndex::operator== Pages: 1 -->
<svg width="440pt" height="38pt"
 viewBox="0.00 0.00 440.00 38.00" xmlns="http://www.w3.org/2000/svg" xmlns:xlink="http://www.w3.org/1999/xlink">
<g id="graph0" class="graph" transform="scale(1 1) rotate(0) translate(4 34)">
<title>Ra::Core::CircularIndex::operator==</title>
<polygon fill="white" stroke="none" points="-4,4 -4,-34 436,-34 436,4 -4,4"/>
<!-- Node1 -->
<g id="node1" class="node"><title>Node1</title>
<polygon fill="#bfbfbf" stroke="black" points="0,-0 0,-30 120,-30 120,-0 0,-0"/>
<text text-anchor="start" x="8" y="-18" font-family="Helvetica,sans-Serif" font-size="10.00">Ra::Core::CircularIndex</text>
<text text-anchor="middle" x="60" y="-7" font-family="Helvetica,sans-Serif" font-size="10.00">::operator==</text>
</g>
<!-- Node2 -->
<g id="node2" class="node"><title>Node2</title>
<g id="a_node2"><a xlink:href="classRa_1_1Core_1_1CircularIndex.html#a77585f6b942d128c557b1a87cbfd3575" target="_top" xlink:title="CONSTRUCTOR. ">
<polygon fill="white" stroke="black" points="156,-0 156,-30 276,-30 276,-0 156,-0"/>
<text text-anchor="start" x="164" y="-18" font-family="Helvetica,sans-Serif" font-size="10.00">Ra::Core::CircularIndex</text>
<text text-anchor="middle" x="216" y="-7" font-family="Helvetica,sans-Serif" font-size="10.00">::CircularIndex</text>
</a>
</g>
</g>
<!-- Node1&#45;&gt;Node2 -->
<g id="edge1" class="edge"><title>Node1&#45;&gt;Node2</title>
<path fill="none" stroke="midnightblue" d="M120.1,-15C128.422,-15 137.039,-15 145.533,-15"/>
<polygon fill="midnightblue" stroke="midnightblue" points="145.804,-18.5001 155.804,-15 145.804,-11.5001 145.804,-18.5001"/>
</g>
<!-- Node3 -->
<g id="node3" class="node"><title>Node3</title>
<g id="a_node3"><a xlink:href="classRa_1_1Core_1_1CircularIndex.html#a748a857d5d9affc123a4ecc9c5ffc344" target="_top" xlink:title="Ra::Core::CircularIndex\l::setValue">
<polygon fill="white" stroke="black" points="312,-0 312,-30 432,-30 432,-0 312,-0"/>
<text text-anchor="start" x="320" y="-18" font-family="Helvetica,sans-Serif" font-size="10.00">Ra::Core::CircularIndex</text>
<text text-anchor="middle" x="372" y="-7" font-family="Helvetica,sans-Serif" font-size="10.00">::setValue</text>
</a>
</g>
</g>
<!-- Node2&#45;&gt;Node3 -->
<g id="edge2" class="edge"><title>Node2&#45;&gt;Node3</title>
<path fill="none" stroke="midnightblue" d="M276.1,-15C284.422,-15 293.039,-15 301.533,-15"/>
<polygon fill="midnightblue" stroke="midnightblue" points="301.804,-18.5001 311.804,-15 301.804,-11.5001 301.804,-18.5001"/>
</g>
</g>
</svg>
