<?xml version="1.0" encoding="UTF-8" standalone="no"?>
<!DOCTYPE svg PUBLIC "-//W3C//DTD SVG 1.1//EN"
 "http://www.w3.org/Graphics/SVG/1.1/DTD/svg11.dtd">
<!-- Generated by graphviz version 2.36.0 (20140111.2315)
 -->
<!-- Title: Ra::GuiBase::EngineTreeItem::getName Pages: 1 -->
<svg width="990pt" height="410pt"
 viewBox="0.00 0.00 990.00 410.00" xmlns="http://www.w3.org/2000/svg" xmlns:xlink="http://www.w3.org/1999/xlink">
<g id="graph0" class="graph" transform="scale(1 1) rotate(0) translate(4 406)">
<title>Ra::GuiBase::EngineTreeItem::getName</title>
<polygon fill="white" stroke="none" points="-4,4 -4,-406 986,-406 986,4 -4,4"/>
<!-- Node1 -->
<g id="node1" class="node"><title>Node1</title>
<polygon fill="#bfbfbf" stroke="black" points="0,-156 0,-186 148,-186 148,-156 0,-156"/>
<text text-anchor="start" x="8" y="-174" font-family="Helvetica,sans-Serif" font-size="10.00">Ra::GuiBase::EngineTreeItem</text>
<text text-anchor="middle" x="74" y="-163" font-family="Helvetica,sans-Serif" font-size="10.00">::getName</text>
</g>
<!-- Node2 -->
<g id="node2" class="node"><title>Node2</title>
<g id="a_node2"><a xlink:href="namespaceRa_1_1Engine.html#a318db0d77f9e9b965c12bd100fb8de50" target="_top" xlink:title="Returns the name associated to the given item. ">
<polygon fill="white" stroke="black" points="184,-161.5 184,-180.5 318,-180.5 318,-161.5 184,-161.5"/>
<text text-anchor="middle" x="251" y="-168.5" font-family="Helvetica,sans-Serif" font-size="10.00">Ra::Engine::getEntryName</text>
</a>
</g>
</g>
<!-- Node1&#45;&gt;Node2 -->
<g id="edge1" class="edge"><title>Node1&#45;&gt;Node2</title>
<path fill="none" stroke="midnightblue" d="M148.202,-171C156.592,-171 165.162,-171 173.593,-171"/>
<polygon fill="midnightblue" stroke="midnightblue" points="173.785,-174.5 183.785,-171 173.785,-167.5 173.785,-174.5"/>
</g>
<!-- Node3 -->
<g id="node3" class="node"><title>Node3</title>
<g id="a_node3"><a xlink:href="structRa_1_1Engine_1_1ItemEntry.html#aceafc81a73631955b64999dd39a639da" target="_top" xlink:title="Returns true if the item represents any valid object. ">
<polygon fill="white" stroke="black" points="364,-222 364,-252 478,-252 478,-222 364,-222"/>
<text text-anchor="start" x="372" y="-240" font-family="Helvetica,sans-Serif" font-size="10.00">Ra::Engine::ItemEntry</text>
<text text-anchor="middle" x="421" y="-229" font-family="Helvetica,sans-Serif" font-size="10.00">::isValid</text>
</a>
</g>
</g>
<!-- Node2&#45;&gt;Node3 -->
<g id="edge2" class="edge"><title>Node2&#45;&gt;Node3</title>
<path fill="none" stroke="midnightblue" d="M276.429,-180.597C301.418,-190.414 340.899,-205.925 372.14,-218.198"/>
<polygon fill="midnightblue" stroke="midnightblue" points="370.958,-221.494 381.545,-221.893 373.518,-214.979 370.958,-221.494"/>
</g>
<!-- Node8 -->
<g id="node8" class="node"><title>Node8</title>
<g id="a_node8"><a xlink:href="classRa_1_1Engine_1_1Entity.html#aaf256bea44bbc5bff6aa504aca05ca35" target="_top" xlink:title="Ra::Engine::Entity\l::getName">
<polygon fill="white" stroke="black" points="543.5,-323 543.5,-353 640.5,-353 640.5,-323 543.5,-323"/>
<text text-anchor="start" x="551.5" y="-341" font-family="Helvetica,sans-Serif" font-size="10.00">Ra::Engine::Entity</text>
<text text-anchor="middle" x="592" y="-330" font-family="Helvetica,sans-Serif" font-size="10.00">::getName</text>
</a>
</g>
</g>
<!-- Node2&#45;&gt;Node8 -->
<g id="edge24" class="edge"><title>Node2&#45;&gt;Node8</title>
<path fill="none" stroke="midnightblue" d="M260.299,-180.565C276.541,-198.728 314.413,-238.41 354,-261 410.949,-293.498 483.534,-314.505 533.282,-326.236"/>
<polygon fill="midnightblue" stroke="midnightblue" points="532.695,-329.692 543.226,-328.529 534.268,-322.872 532.695,-329.692"/>
</g>
<!-- Node9 -->
<g id="node9" class="node"><title>Node9</title>
<g id="a_node9"><a xlink:href="structRa_1_1Engine_1_1ItemEntry.html#a898047549069e5b64d3a9a65c058af56" target="_top" xlink:title="Returns true if the item represents a render object. ">
<polygon fill="white" stroke="black" points="535,-137 535,-167 649,-167 649,-137 535,-137"/>
<text text-anchor="start" x="543" y="-155" font-family="Helvetica,sans-Serif" font-size="10.00">Ra::Engine::ItemEntry</text>
<text text-anchor="middle" x="592" y="-144" font-family="Helvetica,sans-Serif" font-size="10.00">::isRoNode</text>
</a>
</g>
</g>
<!-- Node2&#45;&gt;Node9 -->
<g id="edge14" class="edge"><title>Node2&#45;&gt;Node9</title>
<path fill="none" stroke="midnightblue" d="M318.222,-171.609C365.582,-171.554 430.801,-170.479 488,-166 499.947,-165.065 512.627,-163.672 524.855,-162.123"/>
<polygon fill="midnightblue" stroke="midnightblue" points="525.536,-165.564 534.995,-160.792 524.624,-158.624 525.536,-165.564"/>
</g>
<!-- Node11 -->
<g id="node11" class="node"><title>Node11</title>
<g id="a_node11"><a xlink:href="classRa_1_1Engine_1_1RadiumEngine.html#a58b27bc600ea769f68b0e2938abc7862" target="_top" xlink:title="Manager getters. ">
<polygon fill="white" stroke="black" points="524.5,-88 524.5,-118 659.5,-118 659.5,-88 524.5,-88"/>
<text text-anchor="start" x="532.5" y="-106" font-family="Helvetica,sans-Serif" font-size="10.00">Ra::Engine::RadiumEngine</text>
<text text-anchor="middle" x="592" y="-95" font-family="Helvetica,sans-Serif" font-size="10.00">::getRenderObjectManager</text>
</a>
</g>
</g>
<!-- Node2&#45;&gt;Node11 -->
<g id="edge15" class="edge"><title>Node2&#45;&gt;Node11</title>
<path fill="none" stroke="midnightblue" d="M318.245,-162.055C365.757,-155.154 431.15,-144.66 488,-132 502.365,-128.801 517.702,-124.805 532.035,-120.811"/>
<polygon fill="midnightblue" stroke="midnightblue" points="533.103,-124.147 541.773,-118.057 531.198,-117.411 533.103,-124.147"/>
</g>
<!-- Node13 -->
<g id="node13" class="node"><title>Node13</title>
<g id="a_node13"><a xlink:href="classRa_1_1Engine_1_1RenderObjectManager.html#a32bd0db0d9620bb7e3f0fe50b541dae3" target="_top" xlink:title="Returns the render object corresponding to the given index. ">
<polygon fill="white" stroke="black" points="354,-355 354,-385 488,-385 488,-355 354,-355"/>
<text text-anchor="start" x="362" y="-373" font-family="Helvetica,sans-Serif" font-size="10.00">Ra::Engine::RenderObject</text>
<text text-anchor="middle" x="421" y="-362" font-family="Helvetica,sans-Serif" font-size="10.00">Manager::getRenderObject</text>
</a>
</g>
</g>
<!-- Node2&#45;&gt;Node13 -->
<g id="edge16" class="edge"><title>Node2&#45;&gt;Node13</title>
<path fill="none" stroke="midnightblue" d="M256.929,-180.759C270.123,-206.244 308.356,-276.07 354,-323 363.441,-332.707 375.115,-341.76 386.007,-349.278"/>
<polygon fill="midnightblue" stroke="midnightblue" points="384.257,-352.318 394.516,-354.961 388.144,-346.497 384.257,-352.318"/>
</g>
<!-- Node14 -->
<g id="node14" class="node"><title>Node14</title>
<g id="a_node14"><a xlink:href="structRa_1_1Engine_1_1ItemEntry.html#ac78e7430338c62ed664a16da7e3ea206" target="_top" xlink:title="Returns true if the item represents a component. ">
<polygon fill="white" stroke="black" points="535,-0 535,-30 649,-30 649,-0 535,-0"/>
<text text-anchor="start" x="543" y="-18" font-family="Helvetica,sans-Serif" font-size="10.00">Ra::Engine::ItemEntry</text>
<text text-anchor="middle" x="592" y="-7" font-family="Helvetica,sans-Serif" font-size="10.00">::isComponentNode</text>
</a>
</g>
</g>
<!-- Node2&#45;&gt;Node14 -->
<g id="edge18" class="edge"><title>Node2&#45;&gt;Node14</title>
<path fill="none" stroke="midnightblue" d="M255.877,-161.13C266.75,-134.95 300.292,-63.7185 354,-34 406.036,-5.20665 474.567,-2.8046 524.545,-6.20812"/>
<polygon fill="midnightblue" stroke="midnightblue" points="524.358,-9.70405 534.599,-6.98749 524.899,-2.72499 524.358,-9.70405"/>
</g>
<!-- Node15 -->
<g id="node15" class="node"><title>Node15</title>
<g id="a_node15"><a xlink:href="classRa_1_1Engine_1_1Component.html#aa3e5cb90432a9a49e4362b673652ff76" target="_top" xlink:title="Return the component&#39;s name. ">
<polygon fill="white" stroke="black" points="360,-44 360,-74 482,-74 482,-44 360,-44"/>
<text text-anchor="start" x="368" y="-62" font-family="Helvetica,sans-Serif" font-size="10.00">Ra::Engine::Component</text>
<text text-anchor="middle" x="421" y="-51" font-family="Helvetica,sans-Serif" font-size="10.00">::getName</text>
</a>
</g>
</g>
<!-- Node2&#45;&gt;Node15 -->
<g id="edge21" class="edge"><title>Node2&#45;&gt;Node15</title>
<path fill="none" stroke="midnightblue" d="M260.935,-161.231C277.652,-143.46 315.465,-105.595 354,-83 356.84,-81.3349 359.815,-79.7541 362.865,-78.2583"/>
<polygon fill="midnightblue" stroke="midnightblue" points="364.523,-81.3494 372.18,-74.0267 361.628,-74.9762 364.523,-81.3494"/>
</g>
<!-- Node16 -->
<g id="node16" class="node"><title>Node16</title>
<g id="a_node16"><a xlink:href="structRa_1_1Engine_1_1ItemEntry.html#a4823dfa3c113db71733979f1719f3b28" target="_top" xlink:title="Returns true if the item represents an entity. ">
<polygon fill="white" stroke="black" points="364,-93 364,-123 478,-123 478,-93 364,-93"/>
<text text-anchor="start" x="372" y="-111" font-family="Helvetica,sans-Serif" font-size="10.00">Ra::Engine::ItemEntry</text>
<text text-anchor="middle" x="421" y="-100" font-family="Helvetica,sans-Serif" font-size="10.00">::isEntityNode</text>
</a>
</g>
</g>
<!-- Node2&#45;&gt;Node16 -->
<g id="edge22" class="edge"><title>Node2&#45;&gt;Node16</title>
<path fill="none" stroke="midnightblue" d="M277.516,-161.432C302.033,-152.238 339.745,-138.095 370.214,-126.67"/>
<polygon fill="midnightblue" stroke="midnightblue" points="371.692,-129.853 379.827,-123.065 369.234,-123.299 371.692,-129.853"/>
</g>
<!-- Node4 -->
<g id="node4" class="node"><title>Node4</title>
<g id="a_node4"><a xlink:href="structRa_1_1Engine_1_1ItemEntry.html#a1fb9fdd74413a1fa5878f53c1cfcf8fd" target="_top" xlink:title="Debug checks. ">
<polygon fill="white" stroke="black" points="700,-44 700,-74 814,-74 814,-44 700,-44"/>
<text text-anchor="start" x="708" y="-62" font-family="Helvetica,sans-Serif" font-size="10.00">Ra::Engine::ItemEntry</text>
<text text-anchor="middle" x="757" y="-51" font-family="Helvetica,sans-Serif" font-size="10.00">::checkConsistency</text>
</a>
</g>
</g>
<!-- Node3&#45;&gt;Node4 -->
<g id="edge3" class="edge"><title>Node3&#45;&gt;Node4</title>
<path fill="none" stroke="midnightblue" d="M478.205,-224.532C543.596,-209.724 644.621,-185.799 660,-176 697.068,-152.383 726.682,-109.674 742.757,-82.9084"/>
<polygon fill="midnightblue" stroke="midnightblue" points="745.844,-84.5628 747.868,-74.1632 739.8,-81.0306 745.844,-84.5628"/>
</g>
<!-- Node6 -->
<g id="node6" class="node"><title>Node6</title>
<g id="a_node6"><a xlink:href="classRa_1_1Engine_1_1RadiumEngine.html#a79f6626ce468268791bc5bdfe17b5586" target="_top" xlink:title="Ra::Engine::RadiumEngine\l::getEntityManager">
<polygon fill="white" stroke="black" points="524.5,-274 524.5,-304 659.5,-304 659.5,-274 524.5,-274"/>
<text text-anchor="start" x="532.5" y="-292" font-family="Helvetica,sans-Serif" font-size="10.00">Ra::Engine::RadiumEngine</text>
<text text-anchor="middle" x="592" y="-281" font-family="Helvetica,sans-Serif" font-size="10.00">::getEntityManager</text>
</a>
</g>
</g>
<!-- Node3&#45;&gt;Node6 -->
<g id="edge5" class="edge"><title>Node3&#45;&gt;Node6</title>
<path fill="none" stroke="midnightblue" d="M470.882,-252.041C490.15,-257.969 512.443,-264.829 532.554,-271.017"/>
<polygon fill="midnightblue" stroke="midnightblue" points="531.641,-274.398 542.228,-273.993 533.7,-267.707 531.641,-274.398"/>
</g>
<!-- Node7 -->
<g id="node7" class="node"><title>Node7</title>
<g id="a_node7"><a xlink:href="classRa_1_1Engine_1_1EntityManager.html#a5115cccae6aaef614ad4bd08e64d8185" target="_top" xlink:title="Check wether an entity with a given name exists or not. ">
<polygon fill="white" stroke="black" points="525,-225 525,-255 659,-255 659,-225 525,-225"/>
<text text-anchor="start" x="533" y="-243" font-family="Helvetica,sans-Serif" font-size="10.00">Ra::Engine::EntityManager</text>
<text text-anchor="middle" x="592" y="-232" font-family="Helvetica,sans-Serif" font-size="10.00">::entityExists</text>
</a>
</g>
</g>
<!-- Node3&#45;&gt;Node7 -->
<g id="edge6" class="edge"><title>Node3&#45;&gt;Node7</title>
<path fill="none" stroke="midnightblue" d="M478.275,-237.999C489.902,-238.205 502.335,-238.426 514.542,-238.643"/>
<polygon fill="midnightblue" stroke="midnightblue" points="514.66,-242.145 524.72,-238.823 514.784,-235.146 514.66,-242.145"/>
</g>
<!-- Node3&#45;&gt;Node8 -->
<g id="edge7" class="edge"><title>Node3&#45;&gt;Node8</title>
<path fill="none" stroke="midnightblue" d="M439.02,-252.074C458.476,-268.715 491.807,-295.465 524,-313 527.741,-315.038 531.683,-316.978 535.705,-318.811"/>
<polygon fill="midnightblue" stroke="midnightblue" points="534.607,-322.149 545.176,-322.887 537.374,-315.719 534.607,-322.149"/>
</g>
<!-- Node3&#45;&gt;Node9 -->
<g id="edge8" class="edge"><title>Node3&#45;&gt;Node9</title>
<path fill="none" stroke="midnightblue" d="M453.506,-221.926C464.524,-216.476 476.907,-210.148 488,-204 504.401,-194.91 507.409,-190.738 524,-182 530.977,-178.325 538.496,-174.674 545.886,-171.25"/>
<polygon fill="midnightblue" stroke="midnightblue" points="547.473,-174.374 555.129,-167.05 544.577,-168.001 547.473,-174.374"/>
</g>
<!-- Node3&#45;&gt;Node11 -->
<g id="edge11" class="edge"><title>Node3&#45;&gt;Node11</title>
<path fill="none" stroke="midnightblue" d="M436.177,-221.779C449.553,-207.412 470.159,-185.26 488,-166 504.03,-148.695 504.329,-140.019 524,-127 526.288,-125.486 528.682,-124.054 531.149,-122.701"/>
<polygon fill="midnightblue" stroke="midnightblue" points="532.926,-125.726 540.327,-118.144 529.814,-119.456 532.926,-125.726"/>
</g>
<!-- Node12 -->
<g id="node12" class="node"><title>Node12</title>
<g id="a_node12"><a xlink:href="classRa_1_1Engine_1_1RenderObjectManager.html#a4077b9cf9e1e4d62fd5456386f2d72c8" target="_top" xlink:title="Returns true if the index points to a valid render object. ">
<polygon fill="white" stroke="black" points="526.5,-372 526.5,-402 657.5,-402 657.5,-372 526.5,-372"/>
<text text-anchor="start" x="534.5" y="-390" font-family="Helvetica,sans-Serif" font-size="10.00">Ra::Engine::RenderObject</text>
<text text-anchor="middle" x="592" y="-379" font-family="Helvetica,sans-Serif" font-size="10.00">Manager::exists</text>
</a>
</g>
</g>
<!-- Node3&#45;&gt;Node12 -->
<g id="edge12" class="edge"><title>Node3&#45;&gt;Node12</title>
<path fill="none" stroke="midnightblue" d="M430.707,-252.281C446.251,-278.293 481.197,-331.329 524,-362 526.542,-363.821 529.232,-365.526 532.017,-367.12"/>
<polygon fill="midnightblue" stroke="midnightblue" points="530.675,-370.366 541.167,-371.839 533.884,-364.145 530.675,-370.366"/>
</g>
<!-- Node5 -->
<g id="node5" class="node"><title>Node5</title>
<g id="a_node5"><a xlink:href="classRa_1_1Core_1_1Index.html#a7283e7fb9cc134e04ef3cde8877f8fe2" target="_top" xlink:title="INVALID. ">
<polygon fill="white" stroke="black" points="854,-27.5 854,-46.5 982,-46.5 982,-27.5 854,-27.5"/>
<text text-anchor="middle" x="918" y="-34.5" font-family="Helvetica,sans-Serif" font-size="10.00">Ra::Core::Index::isInvalid</text>
</a>
</g>
</g>
<!-- Node4&#45;&gt;Node5 -->
<g id="edge4" class="edge"><title>Node4&#45;&gt;Node5</title>
<path fill="none" stroke="midnightblue" d="M814.057,-51.2436C823.714,-49.9076 833.876,-48.5014 843.902,-47.1141"/>
<polygon fill="midnightblue" stroke="midnightblue" points="844.433,-50.5741 853.859,-45.7365 843.474,-43.6402 844.433,-50.5741"/>
</g>
<!-- Node9&#45;&gt;Node4 -->
<g id="edge9" class="edge"><title>Node9&#45;&gt;Node4</title>
<path fill="none" stroke="midnightblue" d="M638.392,-136.892C645.758,-133.923 653.196,-130.6 660,-127 685.048,-113.745 711.145,-94.8831 729.796,-80.3855"/>
<polygon fill="midnightblue" stroke="midnightblue" points="732.124,-83.0069 737.81,-74.0674 727.79,-77.5095 732.124,-83.0069"/>
</g>
<!-- Node10 -->
<g id="node10" class="node"><title>Node10</title>
<g id="a_node10"><a xlink:href="classRa_1_1Core_1_1Index.html#a87c70243f30c65c1a24834d1829bda01" target="_top" xlink:title="DESTRUCTOR: Must not be defined, we need it trivial to be constexpr. ">
<polygon fill="white" stroke="black" points="696,-259.5 696,-278.5 818,-278.5 818,-259.5 696,-259.5"/>
<text text-anchor="middle" x="757" y="-266.5" font-family="Helvetica,sans-Serif" font-size="10.00">Ra::Core::Index::isValid</text>
</a>
</g>
</g>
<!-- Node9&#45;&gt;Node10 -->
<g id="edge10" class="edge"><title>Node9&#45;&gt;Node10</title>
<path fill="none" stroke="midnightblue" d="M613.976,-167.056C644.966,-189.301 702.705,-230.745 734.175,-253.334"/>
<polygon fill="midnightblue" stroke="midnightblue" points="732.511,-256.448 742.676,-259.436 736.593,-250.762 732.511,-256.448"/>
</g>
<!-- Node12&#45;&gt;Node10 -->
<g id="edge13" class="edge"><title>Node12&#45;&gt;Node10</title>
<path fill="none" stroke="midnightblue" d="M641.021,-371.864C647.609,-368.997 654.122,-365.713 660,-362 693.132,-341.074 724.327,-307.286 741.723,-286.712"/>
<polygon fill="midnightblue" stroke="midnightblue" points="744.612,-288.712 748.299,-278.78 739.223,-284.244 744.612,-288.712"/>
</g>
<!-- Node13&#45;&gt;Node12 -->
<g id="edge17" class="edge"><title>Node13&#45;&gt;Node12</title>
<path fill="none" stroke="midnightblue" d="M488.308,-376.67C497.476,-377.592 506.944,-378.545 516.252,-379.481"/>
<polygon fill="midnightblue" stroke="midnightblue" points="515.967,-382.97 526.267,-380.488 516.668,-376.005 515.967,-382.97"/>
</g>
<!-- Node14&#45;&gt;Node4 -->
<g id="edge19" class="edge"><title>Node14&#45;&gt;Node4</title>
<path fill="none" stroke="midnightblue" d="M648.639,-30.0192C662.072,-33.6452 676.55,-37.5534 690.392,-41.2899"/>
<polygon fill="midnightblue" stroke="midnightblue" points="689.768,-44.7467 700.335,-43.9738 691.592,-37.9886 689.768,-44.7467"/>
</g>
<!-- Node14&#45;&gt;Node5 -->
<g id="edge20" class="edge"><title>Node14&#45;&gt;Node5</title>
<path fill="none" stroke="midnightblue" d="M649.067,-18.807C702.999,-22.4691 784.826,-28.0252 843.858,-32.0336"/>
<polygon fill="midnightblue" stroke="midnightblue" points="843.651,-35.5275 853.865,-32.7131 844.125,-28.5435 843.651,-35.5275"/>
</g>
<!-- Node16&#45;&gt;Node4 -->
<g id="edge23" class="edge"><title>Node16&#45;&gt;Node4</title>
<path fill="none" stroke="midnightblue" d="M465.955,-92.9338C483.774,-87.3903 504.673,-81.5945 524,-78 579.222,-67.7296 642.867,-63.0108 689.511,-60.8427"/>
<polygon fill="midnightblue" stroke="midnightblue" points="689.954,-64.3267 699.792,-60.3932 689.648,-57.3334 689.954,-64.3267"/>
</g>
</g>
</svg>
