<?xml version="1.0" encoding="UTF-8" standalone="no"?>
<!DOCTYPE svg PUBLIC "-//W3C//DTD SVG 1.1//EN"
 "http://www.w3.org/Graphics/SVG/1.1/DTD/svg11.dtd">
<!-- Generated by graphviz version 2.36.0 (20140111.2315)
 -->
<!-- Title: Ra::Core::Animation::Skeleton::clear Pages: 1 -->
<svg width="290pt" height="38pt"
 viewBox="0.00 0.00 290.00 38.00" xmlns="http://www.w3.org/2000/svg" xmlns:xlink="http://www.w3.org/1999/xlink">
<g id="graph0" class="graph" transform="scale(1 1) rotate(0) translate(4 34)">
<title>Ra::Core::Animation::Skeleton::clear</title>
<polygon fill="white" stroke="none" points="-4,4 -4,-34 286,-34 286,4 -4,4"/>
<!-- Node1 -->
<g id="node1" class="node"><title>Node1</title>
<polygon fill="#bfbfbf" stroke="black" points="0,-0 0,-30 106,-30 106,-0 0,-0"/>
<text text-anchor="start" x="8" y="-18" font-family="Helvetica,sans-Serif" font-size="10.00">Ra::Core::Animation</text>
<text text-anchor="middle" x="53" y="-7" font-family="Helvetica,sans-Serif" font-size="10.00">::Skeleton::clear</text>
</g>
<!-- Node2 -->
<g id="node2" class="node"><title>Node2</title>
<g id="a_node2"><a xlink:href="classRa_1_1Core_1_1Graph_1_1AdjacencyList.html#a556a13c37db4b4f96af314883b161cc4" target="_top" xlink:title="Ra::Core::Graph::Adjacency\lList::clear">
<polygon fill="white" stroke="black" points="142,-0 142,-30 282,-30 282,-0 142,-0"/>
<text text-anchor="start" x="150" y="-18" font-family="Helvetica,sans-Serif" font-size="10.00">Ra::Core::Graph::Adjacency</text>
<text text-anchor="middle" x="212" y="-7" font-family="Helvetica,sans-Serif" font-size="10.00">List::clear</text>
</a>
</g>
</g>
<!-- Node1&#45;&gt;Node2 -->
<g id="edge1" class="edge"><title>Node1&#45;&gt;Node2</title>
<path fill="none" stroke="midnightblue" d="M106.279,-15C114.485,-15 123.124,-15 131.774,-15"/>
<polygon fill="midnightblue" stroke="midnightblue" points="131.909,-18.5001 141.909,-15 131.909,-11.5001 131.909,-18.5001"/>
</g>
</g>
</svg>
