<?xml version="1.0" encoding="UTF-8" standalone="no"?>
<!DOCTYPE svg PUBLIC "-//W3C//DTD SVG 1.1//EN"
 "http://www.w3.org/Graphics/SVG/1.1/DTD/svg11.dtd">
<!-- Generated by graphviz version 2.36.0 (20140111.2315)
 -->
<!-- Title: SkinningPlugin::SkinningWidget Pages: 1 -->
<svg width="132pt" height="182pt"
 viewBox="0.00 0.00 132.00 182.00" xmlns="http://www.w3.org/2000/svg" xmlns:xlink="http://www.w3.org/1999/xlink">
<g id="graph0" class="graph" transform="scale(1 1) rotate(0) translate(4 178)">
<title>SkinningPlugin::SkinningWidget</title>
<polygon fill="white" stroke="none" points="-4,4 -4,-178 128,-178 128,4 -4,4"/>
<!-- Node1 -->
<g id="node1" class="node"><title>Node1</title>
<polygon fill="#bfbfbf" stroke="black" points="-0.5,-0.5 -0.5,-79.5 124.5,-79.5 124.5,-0.5 -0.5,-0.5"/>
<text text-anchor="start" x="7.5" y="-67.5" font-family="Helvetica,sans-Serif" font-size="10.00">SkinningPlugin::Skinning</text>
<text text-anchor="middle" x="62" y="-56.5" font-family="Helvetica,sans-Serif" font-size="10.00">Widget</text>
<polyline fill="none" stroke="black" points="-0.5,-49.5 124.5,-49.5 "/>
<text text-anchor="middle" x="62" y="-37.5" font-family="Helvetica,sans-Serif" font-size="10.00"> </text>
<polyline fill="none" stroke="black" points="-0.5,-30.5 124.5,-30.5 "/>
<text text-anchor="start" x="7.5" y="-18.5" font-family="Helvetica,sans-Serif" font-size="10.00">+ SkinningWidget()</text>
<text text-anchor="start" x="7.5" y="-7.5" font-family="Helvetica,sans-Serif" font-size="10.00">+ setCurrent()</text>
</g>
<!-- Node2 -->
<g id="node2" class="node"><title>Node2</title>
<g id="a_node2"><a xlink:href="classQFrame.html" target="_top" xlink:title="{QFrame\n||}">
<polygon fill="white" stroke="black" points="36,-116.5 36,-173.5 88,-173.5 88,-116.5 36,-116.5"/>
<text text-anchor="middle" x="62" y="-161.5" font-family="Helvetica,sans-Serif" font-size="10.00">QFrame</text>
<polyline fill="none" stroke="black" points="36,-154.5 88,-154.5 "/>
<text text-anchor="middle" x="62" y="-142.5" font-family="Helvetica,sans-Serif" font-size="10.00"> </text>
<polyline fill="none" stroke="black" points="36,-135.5 88,-135.5 "/>
<text text-anchor="middle" x="62" y="-123.5" font-family="Helvetica,sans-Serif" font-size="10.00"> </text>
</a>
</g>
</g>
<!-- Node2&#45;&gt;Node1 -->
<g id="edge1" class="edge"><title>Node2&#45;&gt;Node1</title>
<path fill="none" stroke="midnightblue" d="M62,-106.156C62,-97.4733 62,-88.2318 62,-79.5205"/>
<polygon fill="none" stroke="midnightblue" points="58.5001,-106.398 62,-116.398 65.5001,-106.398 58.5001,-106.398"/>
</g>
</g>
</svg>
