<?xml version="1.0" encoding="UTF-8" standalone="no"?>
<!DOCTYPE svg PUBLIC "-//W3C//DTD SVG 1.1//EN"
 "http://www.w3.org/Graphics/SVG/1.1/DTD/svg11.dtd">
<!-- Generated by graphviz version 2.36.0 (20140111.2315)
 -->
<!-- Title: Ra::GuiBase::SelectionManager::select Pages: 1 -->
<svg width="1024pt" height="322pt"
 viewBox="0.00 0.00 1024.00 322.00" xmlns="http://www.w3.org/2000/svg" xmlns:xlink="http://www.w3.org/1999/xlink">
<g id="graph0" class="graph" transform="scale(1 1) rotate(0) translate(4 318)">
<title>Ra::GuiBase::SelectionManager::select</title>
<polygon fill="white" stroke="none" points="-4,4 -4,-318 1020,-318 1020,4 -4,4"/>
<!-- Node1 -->
<g id="node1" class="node"><title>Node1</title>
<polygon fill="#bfbfbf" stroke="black" points="0.5,-144 0.5,-174 157.5,-174 157.5,-144 0.5,-144"/>
<text text-anchor="start" x="8.5" y="-162" font-family="Helvetica,sans-Serif" font-size="10.00">Ra::GuiBase::SelectionManager</text>
<text text-anchor="middle" x="79" y="-151" font-family="Helvetica,sans-Serif" font-size="10.00">::select</text>
</g>
<!-- Node2 -->
<g id="node2" class="node"><title>Node2</title>
<g id="a_node2"><a xlink:href="classRa_1_1GuiBase_1_1SelectionManager.html#aec178a6b3de1c04e5e1d16ff72c6e966" target="_top" xlink:title="Ra::GuiBase::SelectionManager\l::itemModel">
<polygon fill="white" stroke="black" points="194.5,-193 194.5,-223 351.5,-223 351.5,-193 194.5,-193"/>
<text text-anchor="start" x="202.5" y="-211" font-family="Helvetica,sans-Serif" font-size="10.00">Ra::GuiBase::SelectionManager</text>
<text text-anchor="middle" x="273" y="-200" font-family="Helvetica,sans-Serif" font-size="10.00">::itemModel</text>
</a>
</g>
</g>
<!-- Node1&#45;&gt;Node2 -->
<g id="edge1" class="edge"><title>Node1&#45;&gt;Node2</title>
<path fill="none" stroke="midnightblue" d="M138.911,-174.035C159.276,-179.232 182.272,-185.101 203.349,-190.48"/>
<polygon fill="midnightblue" stroke="midnightblue" points="202.645,-193.912 213.2,-192.994 204.376,-187.13 202.645,-193.912"/>
</g>
<!-- Node3 -->
<g id="node3" class="node"><title>Node3</title>
<g id="a_node3"><a xlink:href="classRa_1_1GuiBase_1_1ItemModel.html#a2b2715ecaecaadeb1e9a110b8d5f05b3" target="_top" xlink:title="Returns the index corresponding to the given entry if it exists in the model, or an invalid index if ...">
<polygon fill="white" stroke="black" points="210.5,-144 210.5,-174 335.5,-174 335.5,-144 210.5,-144"/>
<text text-anchor="start" x="218.5" y="-162" font-family="Helvetica,sans-Serif" font-size="10.00">Ra::GuiBase::ItemModel</text>
<text text-anchor="middle" x="273" y="-151" font-family="Helvetica,sans-Serif" font-size="10.00">::findEntryIndex</text>
</a>
</g>
</g>
<!-- Node1&#45;&gt;Node3 -->
<g id="edge2" class="edge"><title>Node1&#45;&gt;Node3</title>
<path fill="none" stroke="midnightblue" d="M157.54,-159C171.694,-159 186.404,-159 200.376,-159"/>
<polygon fill="midnightblue" stroke="midnightblue" points="200.401,-162.5 210.401,-159 200.401,-155.5 200.401,-162.5"/>
</g>
<!-- Node15 -->
<g id="node15" class="node"><title>Node15</title>
<g id="a_node15"><a xlink:href="structRa_1_1Engine_1_1ItemEntry.html#a09e294208d0896596a42a7a6c7e78f75" target="_top" xlink:title="Returns true if the item can be selected. ">
<polygon fill="white" stroke="black" points="216,-72 216,-102 330,-102 330,-72 216,-72"/>
<text text-anchor="start" x="224" y="-90" font-family="Helvetica,sans-Serif" font-size="10.00">Ra::Engine::ItemEntry</text>
<text text-anchor="middle" x="273" y="-79" font-family="Helvetica,sans-Serif" font-size="10.00">::isSelectable</text>
</a>
</g>
</g>
<!-- Node1&#45;&gt;Node15 -->
<g id="edge16" class="edge"><title>Node1&#45;&gt;Node15</title>
<path fill="none" stroke="midnightblue" d="M120.249,-143.906C149.946,-132.77 190.535,-117.549 222.263,-105.651"/>
<polygon fill="midnightblue" stroke="midnightblue" points="223.669,-108.862 231.803,-102.074 221.211,-102.308 223.669,-108.862"/>
</g>
<!-- Node4 -->
<g id="node4" class="node"><title>Node4</title>
<g id="a_node4"><a xlink:href="structRa_1_1Engine_1_1ItemEntry.html#aceafc81a73631955b64999dd39a639da" target="_top" xlink:title="Returns true if the item represents any valid object. ">
<polygon fill="white" stroke="black" points="398,-144 398,-174 512,-174 512,-144 398,-144"/>
<text text-anchor="start" x="406" y="-162" font-family="Helvetica,sans-Serif" font-size="10.00">Ra::Engine::ItemEntry</text>
<text text-anchor="middle" x="455" y="-151" font-family="Helvetica,sans-Serif" font-size="10.00">::isValid</text>
</a>
</g>
</g>
<!-- Node3&#45;&gt;Node4 -->
<g id="edge3" class="edge"><title>Node3&#45;&gt;Node4</title>
<path fill="none" stroke="midnightblue" d="M335.694,-159C352.381,-159 370.514,-159 387.454,-159"/>
<polygon fill="midnightblue" stroke="midnightblue" points="387.825,-162.5 397.825,-159 387.825,-155.5 387.825,-162.5"/>
</g>
<!-- Node14 -->
<g id="node14" class="node"><title>Node14</title>
<g id="a_node14"><a xlink:href="classRa_1_1GuiBase_1_1TreeItem.html#ac9e22ded576062a19560fe7bf5318d55" target="_top" xlink:title="Ra::GuiBase::TreeItem\l::getIndexInParent">
<polygon fill="white" stroke="black" points="396,-193 396,-223 514,-223 514,-193 396,-193"/>
<text text-anchor="start" x="404" y="-211" font-family="Helvetica,sans-Serif" font-size="10.00">Ra::GuiBase::TreeItem</text>
<text text-anchor="middle" x="455" y="-200" font-family="Helvetica,sans-Serif" font-size="10.00">::getIndexInParent</text>
</a>
</g>
</g>
<!-- Node3&#45;&gt;Node14 -->
<g id="edge15" class="edge"><title>Node3&#45;&gt;Node14</title>
<path fill="none" stroke="midnightblue" d="M329.475,-174.101C348.297,-179.225 369.494,-184.996 388.991,-190.303"/>
<polygon fill="midnightblue" stroke="midnightblue" points="388.14,-193.699 398.708,-192.948 389.979,-186.945 388.14,-193.699"/>
</g>
<!-- Node5 -->
<g id="node5" class="node"><title>Node5</title>
<g id="a_node5"><a xlink:href="structRa_1_1Engine_1_1ItemEntry.html#a1fb9fdd74413a1fa5878f53c1cfcf8fd" target="_top" xlink:title="Debug checks. ">
<polygon fill="white" stroke="black" points="734,-121 734,-151 848,-151 848,-121 734,-121"/>
<text text-anchor="start" x="742" y="-139" font-family="Helvetica,sans-Serif" font-size="10.00">Ra::Engine::ItemEntry</text>
<text text-anchor="middle" x="791" y="-128" font-family="Helvetica,sans-Serif" font-size="10.00">::checkConsistency</text>
</a>
</g>
</g>
<!-- Node4&#45;&gt;Node5 -->
<g id="edge4" class="edge"><title>Node4&#45;&gt;Node5</title>
<path fill="none" stroke="midnightblue" d="M505.682,-174.057C511.469,-176.879 517.06,-180.173 522,-184 543.933,-200.991 533.366,-222.236 558,-235 611.668,-262.808 638.336,-258.56 694,-235 729.972,-219.775 759.086,-183.744 775.472,-159.612"/>
<polygon fill="midnightblue" stroke="midnightblue" points="778.555,-161.294 781.117,-151.014 772.703,-157.452 778.555,-161.294"/>
</g>
<!-- Node7 -->
<g id="node7" class="node"><title>Node7</title>
<g id="a_node7"><a xlink:href="classRa_1_1Engine_1_1RadiumEngine.html#a79f6626ce468268791bc5bdfe17b5586" target="_top" xlink:title="Ra::Engine::RadiumEngine\l::getEntityManager">
<polygon fill="white" stroke="black" points="558.5,-196 558.5,-226 693.5,-226 693.5,-196 558.5,-196"/>
<text text-anchor="start" x="566.5" y="-214" font-family="Helvetica,sans-Serif" font-size="10.00">Ra::Engine::RadiumEngine</text>
<text text-anchor="middle" x="626" y="-203" font-family="Helvetica,sans-Serif" font-size="10.00">::getEntityManager</text>
</a>
</g>
</g>
<!-- Node4&#45;&gt;Node7 -->
<g id="edge6" class="edge"><title>Node4&#45;&gt;Node7</title>
<path fill="none" stroke="midnightblue" d="M504.882,-174.041C524.15,-179.969 546.443,-186.829 566.554,-193.017"/>
<polygon fill="midnightblue" stroke="midnightblue" points="565.641,-196.398 576.228,-195.993 567.7,-189.707 565.641,-196.398"/>
</g>
<!-- Node8 -->
<g id="node8" class="node"><title>Node8</title>
<g id="a_node8"><a xlink:href="classRa_1_1Engine_1_1EntityManager.html#a5115cccae6aaef614ad4bd08e64d8185" target="_top" xlink:title="Check wether an entity with a given name exists or not. ">
<polygon fill="white" stroke="black" points="559,-147 559,-177 693,-177 693,-147 559,-147"/>
<text text-anchor="start" x="567" y="-165" font-family="Helvetica,sans-Serif" font-size="10.00">Ra::Engine::EntityManager</text>
<text text-anchor="middle" x="626" y="-154" font-family="Helvetica,sans-Serif" font-size="10.00">::entityExists</text>
</a>
</g>
</g>
<!-- Node4&#45;&gt;Node8 -->
<g id="edge7" class="edge"><title>Node4&#45;&gt;Node8</title>
<path fill="none" stroke="midnightblue" d="M512.275,-159.999C523.902,-160.205 536.335,-160.426 548.542,-160.643"/>
<polygon fill="midnightblue" stroke="midnightblue" points="548.66,-164.145 558.72,-160.823 548.784,-157.146 548.66,-164.145"/>
</g>
<!-- Node9 -->
<g id="node9" class="node"><title>Node9</title>
<g id="a_node9"><a xlink:href="classRa_1_1Engine_1_1Entity.html#aaf256bea44bbc5bff6aa504aca05ca35" target="_top" xlink:title="Ra::Engine::Entity\l::getName">
<polygon fill="white" stroke="black" points="577.5,-284 577.5,-314 674.5,-314 674.5,-284 577.5,-284"/>
<text text-anchor="start" x="585.5" y="-302" font-family="Helvetica,sans-Serif" font-size="10.00">Ra::Engine::Entity</text>
<text text-anchor="middle" x="626" y="-291" font-family="Helvetica,sans-Serif" font-size="10.00">::getName</text>
</a>
</g>
</g>
<!-- Node4&#45;&gt;Node9 -->
<g id="edge8" class="edge"><title>Node4&#45;&gt;Node9</title>
<path fill="none" stroke="midnightblue" d="M508.501,-174.163C513.411,-176.926 518.027,-180.177 522,-184 551.564,-212.446 529.287,-239.696 558,-269 561.587,-272.661 565.701,-275.912 570.088,-278.792"/>
<polygon fill="midnightblue" stroke="midnightblue" points="568.393,-281.856 578.792,-283.882 571.927,-275.813 568.393,-281.856"/>
</g>
<!-- Node10 -->
<g id="node10" class="node"><title>Node10</title>
<g id="a_node10"><a xlink:href="structRa_1_1Engine_1_1ItemEntry.html#a898047549069e5b64d3a9a65c058af56" target="_top" xlink:title="Returns true if the item represents a render object. ">
<polygon fill="white" stroke="black" points="569,-98 569,-128 683,-128 683,-98 569,-98"/>
<text text-anchor="start" x="577" y="-116" font-family="Helvetica,sans-Serif" font-size="10.00">Ra::Engine::ItemEntry</text>
<text text-anchor="middle" x="626" y="-105" font-family="Helvetica,sans-Serif" font-size="10.00">::isRoNode</text>
</a>
</g>
</g>
<!-- Node4&#45;&gt;Node10 -->
<g id="edge9" class="edge"><title>Node4&#45;&gt;Node10</title>
<path fill="none" stroke="midnightblue" d="M511.337,-143.938C526.882,-139.707 543.928,-135.067 559.982,-130.697"/>
<polygon fill="midnightblue" stroke="midnightblue" points="561.098,-134.021 569.828,-128.017 559.259,-127.267 561.098,-134.021"/>
</g>
<!-- Node12 -->
<g id="node12" class="node"><title>Node12</title>
<g id="a_node12"><a xlink:href="classRa_1_1Engine_1_1RadiumEngine.html#a58b27bc600ea769f68b0e2938abc7862" target="_top" xlink:title="Manager getters. ">
<polygon fill="white" stroke="black" points="558.5,-0 558.5,-30 693.5,-30 693.5,-0 558.5,-0"/>
<text text-anchor="start" x="566.5" y="-18" font-family="Helvetica,sans-Serif" font-size="10.00">Ra::Engine::RadiumEngine</text>
<text text-anchor="middle" x="626" y="-7" font-family="Helvetica,sans-Serif" font-size="10.00">::getRenderObjectManager</text>
</a>
</g>
</g>
<!-- Node4&#45;&gt;Node12 -->
<g id="edge12" class="edge"><title>Node4&#45;&gt;Node12</title>
<path fill="none" stroke="midnightblue" d="M471.286,-143.965C485.069,-130.14 505.627,-108.838 522,-89 539.43,-67.8811 536.124,-55.4707 558,-39 559.845,-37.6112 561.777,-36.2972 563.774,-35.0546"/>
<polygon fill="midnightblue" stroke="midnightblue" points="565.8,-37.9353 572.878,-30.0524 562.429,-31.8004 565.8,-37.9353"/>
</g>
<!-- Node13 -->
<g id="node13" class="node"><title>Node13</title>
<g id="a_node13"><a xlink:href="classRa_1_1Engine_1_1RenderObjectManager.html#a4077b9cf9e1e4d62fd5456386f2d72c8" target="_top" xlink:title="Returns true if the index points to a valid render object. ">
<polygon fill="white" stroke="black" points="560.5,-49 560.5,-79 691.5,-79 691.5,-49 560.5,-49"/>
<text text-anchor="start" x="568.5" y="-67" font-family="Helvetica,sans-Serif" font-size="10.00">Ra::Engine::RenderObject</text>
<text text-anchor="middle" x="626" y="-56" font-family="Helvetica,sans-Serif" font-size="10.00">Manager::exists</text>
</a>
</g>
</g>
<!-- Node4&#45;&gt;Node13 -->
<g id="edge13" class="edge"><title>Node4&#45;&gt;Node13</title>
<path fill="none" stroke="midnightblue" d="M474.592,-143.791C494.339,-128.195 526.933,-104.017 558,-88 561.325,-86.2855 564.802,-84.6407 568.346,-83.0733"/>
<polygon fill="midnightblue" stroke="midnightblue" points="569.955,-86.1944 577.833,-79.1099 567.257,-79.7354 569.955,-86.1944"/>
</g>
<!-- Node6 -->
<g id="node6" class="node"><title>Node6</title>
<g id="a_node6"><a xlink:href="classRa_1_1Core_1_1Index.html#a7283e7fb9cc134e04ef3cde8877f8fe2" target="_top" xlink:title="INVALID. ">
<polygon fill="white" stroke="black" points="888,-126.5 888,-145.5 1016,-145.5 1016,-126.5 888,-126.5"/>
<text text-anchor="middle" x="952" y="-133.5" font-family="Helvetica,sans-Serif" font-size="10.00">Ra::Core::Index::isInvalid</text>
</a>
</g>
</g>
<!-- Node5&#45;&gt;Node6 -->
<g id="edge5" class="edge"><title>Node5&#45;&gt;Node6</title>
<path fill="none" stroke="midnightblue" d="M848.057,-136C857.613,-136 867.665,-136 877.589,-136"/>
<polygon fill="midnightblue" stroke="midnightblue" points="877.859,-139.5 887.859,-136 877.859,-132.5 877.859,-139.5"/>
</g>
<!-- Node10&#45;&gt;Node5 -->
<g id="edge10" class="edge"><title>Node10&#45;&gt;Node5</title>
<path fill="none" stroke="midnightblue" d="M683.095,-120.915C696.158,-122.758 710.188,-124.738 723.646,-126.637"/>
<polygon fill="midnightblue" stroke="midnightblue" points="723.41,-130.138 733.801,-128.07 724.388,-123.207 723.41,-130.138"/>
</g>
<!-- Node11 -->
<g id="node11" class="node"><title>Node11</title>
<g id="a_node11"><a xlink:href="classRa_1_1Core_1_1Index.html#a87c70243f30c65c1a24834d1829bda01" target="_top" xlink:title="DESTRUCTOR: Must not be defined, we need it trivial to be constexpr. ">
<polygon fill="white" stroke="black" points="730,-80.5 730,-99.5 852,-99.5 852,-80.5 730,-80.5"/>
<text text-anchor="middle" x="791" y="-87.5" font-family="Helvetica,sans-Serif" font-size="10.00">Ra::Core::Index::isValid</text>
</a>
</g>
</g>
<!-- Node10&#45;&gt;Node11 -->
<g id="edge11" class="edge"><title>Node10&#45;&gt;Node11</title>
<path fill="none" stroke="midnightblue" d="M683.095,-105.085C694.894,-103.42 707.483,-101.644 719.726,-99.9159"/>
<polygon fill="midnightblue" stroke="midnightblue" points="720.492,-103.343 729.905,-98.4796 719.514,-96.4112 720.492,-103.343"/>
</g>
<!-- Node13&#45;&gt;Node11 -->
<g id="edge14" class="edge"><title>Node13&#45;&gt;Node11</title>
<path fill="none" stroke="midnightblue" d="M691.89,-74.3506C701.214,-75.8377 710.84,-77.3732 720.252,-78.8746"/>
<polygon fill="midnightblue" stroke="midnightblue" points="719.931,-82.3675 730.358,-80.4865 721.034,-75.4549 719.931,-82.3675"/>
</g>
<!-- Node15&#45;&gt;Node10 -->
<g id="edge17" class="edge"><title>Node15&#45;&gt;Node10</title>
<path fill="none" stroke="midnightblue" d="M330.005,-91.1485C392.194,-95.7551 492.507,-103.186 558.601,-108.082"/>
<polygon fill="midnightblue" stroke="midnightblue" points="558.673,-111.596 568.904,-108.845 559.19,-104.616 558.673,-111.596"/>
</g>
<!-- Node15&#45;&gt;Node12 -->
<g id="edge18" class="edge"><title>Node15&#45;&gt;Node12</title>
<path fill="none" stroke="midnightblue" d="M304.155,-71.7805C326.679,-61.1085 358.532,-47.464 388,-40 440.592,-26.6789 501.489,-20.4452 548.383,-17.5334"/>
<polygon fill="midnightblue" stroke="midnightblue" points="548.692,-21.0214 558.471,-16.9446 548.284,-14.0333 548.692,-21.0214"/>
</g>
<!-- Node16 -->
<g id="node16" class="node"><title>Node16</title>
<g id="a_node16"><a xlink:href="classRa_1_1Engine_1_1RenderObjectManager.html#a32bd0db0d9620bb7e3f0fe50b541dae3" target="_top" xlink:title="Returns the render object corresponding to the given index. ">
<polygon fill="white" stroke="black" points="388,-50 388,-80 522,-80 522,-50 388,-50"/>
<text text-anchor="start" x="396" y="-68" font-family="Helvetica,sans-Serif" font-size="10.00">Ra::Engine::RenderObject</text>
<text text-anchor="middle" x="455" y="-57" font-family="Helvetica,sans-Serif" font-size="10.00">Manager::getRenderObject</text>
</a>
</g>
</g>
<!-- Node15&#45;&gt;Node16 -->
<g id="edge19" class="edge"><title>Node15&#45;&gt;Node16</title>
<path fill="none" stroke="midnightblue" d="M330.459,-80.0994C345.429,-78.2698 361.844,-76.2635 377.68,-74.328"/>
<polygon fill="midnightblue" stroke="midnightblue" points="378.48,-77.7563 387.982,-73.0689 377.631,-70.808 378.48,-77.7563"/>
</g>
<!-- Node16&#45;&gt;Node13 -->
<g id="edge20" class="edge"><title>Node16&#45;&gt;Node13</title>
<path fill="none" stroke="midnightblue" d="M522.308,-64.6076C531.476,-64.5534 540.944,-64.4974 550.252,-64.4423"/>
<polygon fill="midnightblue" stroke="midnightblue" points="550.288,-67.9422 560.267,-64.383 550.247,-60.9424 550.288,-67.9422"/>
</g>
</g>
</svg>
