<?xml version="1.0" encoding="UTF-8" standalone="no"?>
<!DOCTYPE svg PUBLIC "-//W3C//DTD SVG 1.1//EN"
 "http://www.w3.org/Graphics/SVG/1.1/DTD/svg11.dtd">
<!-- Generated by graphviz version 2.36.0 (20140111.2315)
 -->
<!-- Title: Ra::IO::AssimpHandleDataLoader::loadData Pages: 1 -->
<svg width="692pt" height="616pt"
 viewBox="0.00 0.00 692.00 616.00" xmlns="http://www.w3.org/2000/svg" xmlns:xlink="http://www.w3.org/1999/xlink">
<g id="graph0" class="graph" transform="scale(1 1) rotate(0) translate(4 612)">
<title>Ra::IO::AssimpHandleDataLoader::loadData</title>
<polygon fill="white" stroke="none" points="-4,4 -4,-612 688,-612 688,4 -4,4"/>
<!-- Node1 -->
<g id="node1" class="node"><title>Node1</title>
<polygon fill="#bfbfbf" stroke="black" points="0.5,-438 0.5,-468 137.5,-468 137.5,-438 0.5,-438"/>
<text text-anchor="start" x="8.5" y="-456" font-family="Helvetica,sans-Serif" font-size="10.00">Ra::IO::AssimpHandleData</text>
<text text-anchor="middle" x="69" y="-445" font-family="Helvetica,sans-Serif" font-size="10.00">Loader::loadData</text>
</g>
<!-- Node2 -->
<g id="node2" class="node"><title>Node2</title>
<g id="a_node2"><a xlink:href="classRa_1_1IO_1_1AssimpHandleDataLoader.html#adb8537824f65bbf5681e3c412865aafa" target="_top" xlink:title="QUERY. ">
<polygon fill="white" stroke="black" points="174.5,-509 174.5,-539 311.5,-539 311.5,-509 174.5,-509"/>
<text text-anchor="start" x="182.5" y="-527" font-family="Helvetica,sans-Serif" font-size="10.00">Ra::IO::AssimpHandleData</text>
<text text-anchor="middle" x="243" y="-516" font-family="Helvetica,sans-Serif" font-size="10.00">Loader::sceneHasHandle</text>
</a>
</g>
</g>
<!-- Node1&#45;&gt;Node2 -->
<g id="edge1" class="edge"><title>Node1&#45;&gt;Node2</title>
<path fill="none" stroke="midnightblue" d="M106.477,-468.057C132.587,-478.835 167.937,-493.427 195.986,-505.006"/>
<polygon fill="midnightblue" stroke="midnightblue" points="194.997,-508.384 205.576,-508.964 197.668,-501.914 194.997,-508.384"/>
</g>
<!-- Node4 -->
<g id="node4" class="node"><title>Node4</title>
<g id="a_node4"><a xlink:href="classRa_1_1IO_1_1AssimpHandleDataLoader.html#a5658fd82502d36f0d8e9e935a2cb7ae6" target="_top" xlink:title="LOAD. ">
<polygon fill="white" stroke="black" points="174.5,-367 174.5,-397 311.5,-397 311.5,-367 174.5,-367"/>
<text text-anchor="start" x="182.5" y="-385" font-family="Helvetica,sans-Serif" font-size="10.00">Ra::IO::AssimpHandleData</text>
<text text-anchor="middle" x="243" y="-374" font-family="Helvetica,sans-Serif" font-size="10.00">Loader::loadHandleData</text>
</a>
</g>
</g>
<!-- Node1&#45;&gt;Node4 -->
<g id="edge3" class="edge"><title>Node1&#45;&gt;Node4</title>
<path fill="none" stroke="midnightblue" d="M106.477,-437.943C132.587,-427.165 167.937,-412.573 195.986,-400.994"/>
<polygon fill="midnightblue" stroke="midnightblue" points="197.668,-404.086 205.576,-397.036 194.997,-397.616 197.668,-404.086"/>
</g>
<!-- Node3 -->
<g id="node3" class="node"><title>Node3</title>
<g id="a_node3"><a xlink:href="classRa_1_1IO_1_1AssimpHandleDataLoader.html#a490e0e5bd008f42af1cf31af678bec27" target="_top" xlink:title="Ra::IO::AssimpHandleData\lLoader::sceneHandleSize">
<polygon fill="white" stroke="black" points="365.5,-578 365.5,-608 502.5,-608 502.5,-578 365.5,-578"/>
<text text-anchor="start" x="373.5" y="-596" font-family="Helvetica,sans-Serif" font-size="10.00">Ra::IO::AssimpHandleData</text>
<text text-anchor="middle" x="434" y="-585" font-family="Helvetica,sans-Serif" font-size="10.00">Loader::sceneHandleSize</text>
</a>
</g>
</g>
<!-- Node2&#45;&gt;Node3 -->
<g id="edge2" class="edge"><title>Node2&#45;&gt;Node3</title>
<path fill="none" stroke="midnightblue" d="M276.874,-539.046C297.149,-548.04 323.815,-559.359 348,-568 354.672,-570.384 361.695,-572.719 368.727,-574.946"/>
<polygon fill="midnightblue" stroke="midnightblue" points="367.701,-578.293 378.289,-577.911 369.774,-571.606 367.701,-578.293"/>
</g>
<!-- Node5 -->
<g id="node5" class="node"><title>Node5</title>
<g id="a_node5"><a xlink:href="classRa_1_1IO_1_1AssimpHandleDataLoader.html#a19b7ea207946b06952e15bff627d4887" target="_top" xlink:title="NAME. ">
<polygon fill="white" stroke="black" points="365.5,-392 365.5,-422 502.5,-422 502.5,-392 365.5,-392"/>
<text text-anchor="start" x="373.5" y="-410" font-family="Helvetica,sans-Serif" font-size="10.00">Ra::IO::AssimpHandleData</text>
<text text-anchor="middle" x="434" y="-399" font-family="Helvetica,sans-Serif" font-size="10.00">Loader::fetchName</text>
</a>
</g>
</g>
<!-- Node4&#45;&gt;Node5 -->
<g id="edge4" class="edge"><title>Node4&#45;&gt;Node5</title>
<path fill="none" stroke="midnightblue" d="M311.7,-390.955C325.9,-392.833 340.98,-394.828 355.506,-396.749"/>
<polygon fill="midnightblue" stroke="midnightblue" points="355.083,-400.224 365.456,-398.066 356.001,-393.284 355.083,-400.224"/>
</g>
<!-- Node8 -->
<g id="node8" class="node"><title>Node8</title>
<g id="a_node8"><a xlink:href="classRa_1_1IO_1_1AssimpHandleDataLoader.html#aba6ae2e060a45d0f6883cdbfa22cbee6" target="_top" xlink:title="TYPE. ">
<polygon fill="white" stroke="black" points="365.5,-441 365.5,-471 502.5,-471 502.5,-441 365.5,-441"/>
<text text-anchor="start" x="373.5" y="-459" font-family="Helvetica,sans-Serif" font-size="10.00">Ra::IO::AssimpHandleData</text>
<text text-anchor="middle" x="434" y="-448" font-family="Helvetica,sans-Serif" font-size="10.00">Loader::fetchType</text>
</a>
</g>
</g>
<!-- Node4&#45;&gt;Node8 -->
<g id="edge7" class="edge"><title>Node4&#45;&gt;Node8</title>
<path fill="none" stroke="midnightblue" d="M273.062,-397.174C293.634,-407.545 322.066,-421.144 348,-431 354.279,-433.386 360.89,-435.686 367.536,-437.859"/>
<polygon fill="midnightblue" stroke="midnightblue" points="366.674,-441.258 377.264,-440.948 368.793,-434.586 366.674,-441.258"/>
</g>
<!-- Node10 -->
<g id="node10" class="node"><title>Node10</title>
<g id="a_node10"><a xlink:href="classRa_1_1IO_1_1AssimpHandleDataLoader.html#a46e6b0b9e109dd74e6bd619592678545" target="_top" xlink:title="Ra::IO::AssimpHandleData\lLoader::loadHandleComponentData">
<polygon fill="white" stroke="black" points="348,-294 348,-324 520,-324 520,-294 348,-294"/>
<text text-anchor="start" x="356" y="-312" font-family="Helvetica,sans-Serif" font-size="10.00">Ra::IO::AssimpHandleData</text>
<text text-anchor="middle" x="434" y="-301" font-family="Helvetica,sans-Serif" font-size="10.00">Loader::loadHandleComponentData</text>
</a>
</g>
</g>
<!-- Node4&#45;&gt;Node10 -->
<g id="edge9" class="edge"><title>Node4&#45;&gt;Node10</title>
<path fill="none" stroke="midnightblue" d="M272.587,-366.962C293.176,-356.522 321.826,-342.785 348,-333 353.429,-330.971 359.107,-329.017 364.844,-327.162"/>
<polygon fill="midnightblue" stroke="midnightblue" points="366.019,-330.461 374.518,-324.135 363.929,-323.781 366.019,-330.461"/>
</g>
<!-- Node14 -->
<g id="node14" class="node"><title>Node14</title>
<g id="a_node14"><a xlink:href="classRa_1_1IO_1_1AssimpHandleDataLoader.html#af3185635871638d8bc19e85d0c978f80" target="_top" xlink:title="Ra::IO::AssimpHandleData\lLoader::loadHandleTopologyData">
<polygon fill="white" stroke="black" points="353.5,-172 353.5,-202 514.5,-202 514.5,-172 353.5,-172"/>
<text text-anchor="start" x="361.5" y="-190" font-family="Helvetica,sans-Serif" font-size="10.00">Ra::IO::AssimpHandleData</text>
<text text-anchor="middle" x="434" y="-179" font-family="Helvetica,sans-Serif" font-size="10.00">Loader::loadHandleTopologyData</text>
</a>
</g>
</g>
<!-- Node4&#45;&gt;Node14 -->
<g id="edge14" class="edge"><title>Node4&#45;&gt;Node14</title>
<path fill="none" stroke="midnightblue" d="M258.831,-366.699C291.953,-332.525 372.084,-249.85 411.025,-209.672"/>
<polygon fill="midnightblue" stroke="midnightblue" points="413.792,-211.847 418.238,-202.23 408.765,-206.975 413.792,-211.847"/>
</g>
<!-- Node19 -->
<g id="node19" class="node"><title>Node19</title>
<g id="a_node19"><a xlink:href="classRa_1_1IO_1_1AssimpHandleDataLoader.html#a6deb78de76d1650cbb521a7c9c85a86e" target="_top" xlink:title="VERTEX SIZE. ">
<polygon fill="white" stroke="black" points="365.5,-98 365.5,-128 502.5,-128 502.5,-98 365.5,-98"/>
<text text-anchor="start" x="373.5" y="-116" font-family="Helvetica,sans-Serif" font-size="10.00">Ra::IO::AssimpHandleData</text>
<text text-anchor="middle" x="434" y="-105" font-family="Helvetica,sans-Serif" font-size="10.00">Loader::fetchVertexSize</text>
</a>
</g>
</g>
<!-- Node4&#45;&gt;Node19 -->
<g id="edge20" class="edge"><title>Node4&#45;&gt;Node19</title>
<path fill="none" stroke="midnightblue" d="M247.749,-366.867C257.922,-328.447 289.301,-225.68 348,-162 358.891,-150.185 373.297,-140.424 387.15,-132.807"/>
<polygon fill="midnightblue" stroke="midnightblue" points="388.89,-135.847 396.13,-128.112 385.647,-129.644 388.89,-135.847"/>
</g>
<!-- Node21 -->
<g id="node21" class="node"><title>Node21</title>
<g id="a_node21"><a xlink:href="classRa_1_1Asset_1_1HandleData.html#adeb89ae26f34f0878a089ed7ecd64e24" target="_top" xlink:title="Ra::Asset::HandleData\l::getComponentData">
<polygon fill="white" stroke="black" points="374.5,-49 374.5,-79 493.5,-79 493.5,-49 374.5,-49"/>
<text text-anchor="start" x="382.5" y="-67" font-family="Helvetica,sans-Serif" font-size="10.00">Ra::Asset::HandleData</text>
<text text-anchor="middle" x="434" y="-56" font-family="Helvetica,sans-Serif" font-size="10.00">::getComponentData</text>
</a>
</g>
</g>
<!-- Node4&#45;&gt;Node21 -->
<g id="edge24" class="edge"><title>Node4&#45;&gt;Node21</title>
<path fill="none" stroke="midnightblue" d="M244.674,-366.917C247.661,-318.731 263.659,-167.044 348,-88 352.961,-83.3503 358.754,-79.5912 364.942,-76.5539"/>
<polygon fill="midnightblue" stroke="midnightblue" points="366.406,-79.7347 374.239,-72.6005 363.667,-73.2929 366.406,-79.7347"/>
</g>
<!-- Node22 -->
<g id="node22" class="node"><title>Node22</title>
<g id="a_node22"><a xlink:href="namespaceRa_1_1Core_1_1Algorithm.html#aea294cdb6f4f0d85955bdcccb22886ec" target="_top" xlink:title="Ra::Core::Algorithm::t">
<polygon fill="white" stroke="black" points="377.5,-539.5 377.5,-558.5 490.5,-558.5 490.5,-539.5 377.5,-539.5"/>
<text text-anchor="middle" x="434" y="-546.5" font-family="Helvetica,sans-Serif" font-size="10.00">Ra::Core::Algorithm::t</text>
</a>
</g>
</g>
<!-- Node4&#45;&gt;Node22 -->
<g id="edge25" class="edge"><title>Node4&#45;&gt;Node22</title>
<path fill="none" stroke="midnightblue" d="M250.29,-397.258C263.567,-427.471 297.45,-494.928 348,-529 353.963,-533.019 360.635,-536.236 367.549,-538.809"/>
<polygon fill="midnightblue" stroke="midnightblue" points="366.488,-542.145 377.081,-541.934 368.669,-535.493 366.488,-542.145"/>
</g>
<!-- Node23 -->
<g id="node23" class="node"><title>Node23</title>
<g id="a_node23"><a xlink:href="classRa_1_1Asset_1_1HandleData.html#a8d76fcc29440acb7fe3489f4c0fd9914" target="_top" xlink:title="DEBUG. ">
<polygon fill="white" stroke="black" points="374.5,-490 374.5,-520 493.5,-520 493.5,-490 374.5,-490"/>
<text text-anchor="start" x="382.5" y="-508" font-family="Helvetica,sans-Serif" font-size="10.00">Ra::Asset::HandleData</text>
<text text-anchor="middle" x="434" y="-497" font-family="Helvetica,sans-Serif" font-size="10.00">::displayInfo</text>
</a>
</g>
</g>
<!-- Node4&#45;&gt;Node23 -->
<g id="edge26" class="edge"><title>Node4&#45;&gt;Node23</title>
<path fill="none" stroke="midnightblue" d="M256.112,-397.267C273.982,-418.793 309.482,-457.901 348,-480 353.214,-482.991 358.817,-485.652 364.568,-488.013"/>
<polygon fill="midnightblue" stroke="midnightblue" points="363.753,-491.447 374.345,-491.71 366.229,-484.899 363.753,-491.447"/>
</g>
<!-- Node24 -->
<g id="node24" class="node"><title>Node24</title>
<g id="a_node24"><a xlink:href="classRa_1_1IO_1_1AssimpHandleDataLoader.html#acc34e56d68b6b1094a993eaa8730cdb2" target="_top" xlink:title="Ra::IO::AssimpHandleData\lLoader::loadHandleFrame">
<polygon fill="white" stroke="black" points="365.5,-343 365.5,-373 502.5,-373 502.5,-343 365.5,-343"/>
<text text-anchor="start" x="373.5" y="-361" font-family="Helvetica,sans-Serif" font-size="10.00">Ra::IO::AssimpHandleData</text>
<text text-anchor="middle" x="434" y="-350" font-family="Helvetica,sans-Serif" font-size="10.00">Loader::loadHandleFrame</text>
</a>
</g>
</g>
<!-- Node4&#45;&gt;Node24 -->
<g id="edge27" class="edge"><title>Node4&#45;&gt;Node24</title>
<path fill="none" stroke="midnightblue" d="M311.7,-373.403C325.9,-371.6 340.98,-369.685 355.506,-367.841"/>
<polygon fill="midnightblue" stroke="midnightblue" points="355.976,-371.309 365.456,-366.577 355.094,-364.365 355.976,-371.309"/>
</g>
<!-- Node6 -->
<g id="node6" class="node"><title>Node6</title>
<g id="a_node6"><a xlink:href="namespaceRa_1_1IO.html#aef6c50424873964fcea0008be55d4a34" target="_top" xlink:title="Ra::IO::assimpToCore">
<polygon fill="white" stroke="black" points="562,-392.5 562,-411.5 678,-411.5 678,-392.5 562,-392.5"/>
<text text-anchor="middle" x="620" y="-399.5" font-family="Helvetica,sans-Serif" font-size="10.00">Ra::IO::assimpToCore</text>
</a>
</g>
</g>
<!-- Node5&#45;&gt;Node6 -->
<g id="edge5" class="edge"><title>Node5&#45;&gt;Node6</title>
<path fill="none" stroke="midnightblue" d="M502.731,-405.159C518.702,-404.725 535.723,-404.263 551.676,-403.829"/>
<polygon fill="midnightblue" stroke="midnightblue" points="552.082,-407.32 561.983,-403.549 551.892,-400.322 552.082,-407.32"/>
</g>
<!-- Node7 -->
<g id="node7" class="node"><title>Node7</title>
<g id="a_node7"><a xlink:href="classRa_1_1Asset_1_1HandleData.html#a3bfb8067f397b53e3d45d490e8ebfc20" target="_top" xlink:title="NAME. ">
<polygon fill="white" stroke="black" points="560.5,-431 560.5,-461 679.5,-461 679.5,-431 560.5,-431"/>
<text text-anchor="start" x="568.5" y="-449" font-family="Helvetica,sans-Serif" font-size="10.00">Ra::Asset::HandleData</text>
<text text-anchor="middle" x="620" y="-438" font-family="Helvetica,sans-Serif" font-size="10.00">::setName</text>
</a>
</g>
</g>
<!-- Node5&#45;&gt;Node7 -->
<g id="edge6" class="edge"><title>Node5&#45;&gt;Node7</title>
<path fill="none" stroke="midnightblue" d="M502.731,-421.356C518.281,-424.652 534.828,-428.159 550.415,-431.463"/>
<polygon fill="midnightblue" stroke="midnightblue" points="549.99,-434.951 560.498,-433.6 551.441,-428.103 549.99,-434.951"/>
</g>
<!-- Node9 -->
<g id="node9" class="node"><title>Node9</title>
<g id="a_node9"><a xlink:href="classRa_1_1Asset_1_1HandleData.html#a41fe733034adf1db3901419f859bbffd" target="_top" xlink:title="Ra::Asset::HandleData\l::setType">
<polygon fill="white" stroke="black" points="560.5,-480 560.5,-510 679.5,-510 679.5,-480 560.5,-480"/>
<text text-anchor="start" x="568.5" y="-498" font-family="Helvetica,sans-Serif" font-size="10.00">Ra::Asset::HandleData</text>
<text text-anchor="middle" x="620" y="-487" font-family="Helvetica,sans-Serif" font-size="10.00">::setType</text>
</a>
</g>
</g>
<!-- Node8&#45;&gt;Node9 -->
<g id="edge8" class="edge"><title>Node8&#45;&gt;Node9</title>
<path fill="none" stroke="midnightblue" d="M502.731,-470.356C518.281,-473.652 534.828,-477.159 550.415,-480.463"/>
<polygon fill="midnightblue" stroke="midnightblue" points="549.99,-483.951 560.498,-482.6 551.441,-477.103 549.99,-483.951"/>
</g>
<!-- Node10&#45;&gt;Node6 -->
<g id="edge11" class="edge"><title>Node10&#45;&gt;Node6</title>
<path fill="none" stroke="midnightblue" d="M504.089,-324.154C509.695,-326.667 515.085,-329.593 520,-333 542.209,-348.396 534.042,-366.248 556,-382 559.409,-384.446 563.13,-386.601 567.003,-388.498"/>
<polygon fill="midnightblue" stroke="midnightblue" points="565.674,-391.737 576.243,-392.474 568.441,-385.307 565.674,-391.737"/>
</g>
<!-- Node11 -->
<g id="node11" class="node"><title>Node11</title>
<g id="a_node11"><a xlink:href="classRa_1_1Asset_1_1HandleData.html#ace178af654bd9751e7cc0122cf7e7a34" target="_top" xlink:title="Ra::Asset::HandleData\l::needEndNodes">
<polygon fill="white" stroke="black" points="560.5,-245 560.5,-275 679.5,-275 679.5,-245 560.5,-245"/>
<text text-anchor="start" x="568.5" y="-263" font-family="Helvetica,sans-Serif" font-size="10.00">Ra::Asset::HandleData</text>
<text text-anchor="middle" x="620" y="-252" font-family="Helvetica,sans-Serif" font-size="10.00">::needEndNodes</text>
</a>
</g>
</g>
<!-- Node10&#45;&gt;Node11 -->
<g id="edge10" class="edge"><title>Node10&#45;&gt;Node11</title>
<path fill="none" stroke="midnightblue" d="M491.457,-293.965C510.884,-288.792 532.811,-282.952 552.935,-277.593"/>
<polygon fill="midnightblue" stroke="midnightblue" points="553.888,-280.962 562.65,-275.006 552.086,-274.197 553.888,-280.962"/>
</g>
<!-- Node12 -->
<g id="node12" class="node"><title>Node12</title>
<g id="a_node12"><a xlink:href="classRa_1_1Asset_1_1HandleData.html#a5ba6a5c751773be688faae15b092359d" target="_top" xlink:title="Ra::Asset::HandleData\l::setComponents">
<polygon fill="white" stroke="black" points="560.5,-343 560.5,-373 679.5,-373 679.5,-343 560.5,-343"/>
<text text-anchor="start" x="568.5" y="-361" font-family="Helvetica,sans-Serif" font-size="10.00">Ra::Asset::HandleData</text>
<text text-anchor="middle" x="620" y="-350" font-family="Helvetica,sans-Serif" font-size="10.00">::setComponents</text>
</a>
</g>
</g>
<!-- Node10&#45;&gt;Node12 -->
<g id="edge12" class="edge"><title>Node10&#45;&gt;Node12</title>
<path fill="none" stroke="midnightblue" d="M491.457,-324.035C510.884,-329.208 532.811,-335.048 552.935,-340.407"/>
<polygon fill="midnightblue" stroke="midnightblue" points="552.086,-343.803 562.65,-342.994 553.888,-337.038 552.086,-343.803"/>
</g>
<!-- Node13 -->
<g id="node13" class="node"><title>Node13</title>
<g id="a_node13"><a xlink:href="classRa_1_1Asset_1_1HandleData.html#a713b25fdea78737ec5e664a6aabc9549" target="_top" xlink:title="NAME TABLE. ">
<polygon fill="white" stroke="black" points="560.5,-294 560.5,-324 679.5,-324 679.5,-294 560.5,-294"/>
<text text-anchor="start" x="568.5" y="-312" font-family="Helvetica,sans-Serif" font-size="10.00">Ra::Asset::HandleData</text>
<text text-anchor="middle" x="620" y="-301" font-family="Helvetica,sans-Serif" font-size="10.00">::setNameTable</text>
</a>
</g>
</g>
<!-- Node10&#45;&gt;Node13 -->
<g id="edge13" class="edge"><title>Node10&#45;&gt;Node13</title>
<path fill="none" stroke="midnightblue" d="M520.267,-309C530.314,-309 540.469,-309 550.248,-309"/>
<polygon fill="midnightblue" stroke="midnightblue" points="550.283,-312.5 560.283,-309 550.283,-305.5 550.283,-312.5"/>
</g>
<!-- Node14&#45;&gt;Node6 -->
<g id="edge17" class="edge"><title>Node14&#45;&gt;Node6</title>
<path fill="none" stroke="midnightblue" d="M451.419,-202.039C470.19,-219.988 500.795,-251.655 520,-284 543.689,-323.899 522.465,-349.93 556,-382 558.138,-384.045 560.485,-385.881 562.976,-387.529"/>
<polygon fill="midnightblue" stroke="midnightblue" points="561.461,-390.69 571.91,-392.44 564.833,-384.556 561.461,-390.69"/>
</g>
<!-- Node15 -->
<g id="node15" class="node"><title>Node15</title>
<g id="a_node15"><a xlink:href="classRa_1_1Asset_1_1HandleData.html#aac2741c32466647b58b76e8310d90ecb" target="_top" xlink:title="DATA. ">
<polygon fill="white" stroke="black" points="556.5,-98 556.5,-128 683.5,-128 683.5,-98 556.5,-98"/>
<text text-anchor="start" x="564.5" y="-116" font-family="Helvetica,sans-Serif" font-size="10.00">Ra::Asset::HandleData</text>
<text text-anchor="middle" x="620" y="-105" font-family="Helvetica,sans-Serif" font-size="10.00">::getComponentDataSize</text>
</a>
</g>
</g>
<!-- Node14&#45;&gt;Node15 -->
<g id="edge15" class="edge"><title>Node14&#45;&gt;Node15</title>
<path fill="none" stroke="midnightblue" d="M470.632,-171.97C494.677,-161.903 527.163,-148.448 556,-137 560.392,-135.256 564.966,-133.466 569.555,-131.686"/>
<polygon fill="midnightblue" stroke="midnightblue" points="570.87,-134.93 578.942,-128.068 568.352,-128.399 570.87,-134.93"/>
</g>
<!-- Node16 -->
<g id="node16" class="node"><title>Node16</title>
<g id="a_node16"><a xlink:href="classRa_1_1Asset_1_1HandleData.html#af6b0000a98985534b50a9817de5bfd58" target="_top" xlink:title="Ra::Asset::HandleData\l::getComponent">
<polygon fill="white" stroke="black" points="560.5,-49 560.5,-79 679.5,-79 679.5,-49 560.5,-49"/>
<text text-anchor="start" x="568.5" y="-67" font-family="Helvetica,sans-Serif" font-size="10.00">Ra::Asset::HandleData</text>
<text text-anchor="middle" x="620" y="-56" font-family="Helvetica,sans-Serif" font-size="10.00">::getComponent</text>
</a>
</g>
</g>
<!-- Node14&#45;&gt;Node16 -->
<g id="edge16" class="edge"><title>Node14&#45;&gt;Node16</title>
<path fill="none" stroke="midnightblue" d="M467.333,-171.964C484.137,-163.207 504.37,-151.113 520,-137 540.057,-118.89 534.496,-104.367 556,-88 557.816,-86.6177 559.721,-85.3068 561.691,-84.0643"/>
<polygon fill="midnightblue" stroke="midnightblue" points="563.646,-86.9809 570.668,-79.0466 560.231,-80.8707 563.646,-86.9809"/>
</g>
<!-- Node17 -->
<g id="node17" class="node"><title>Node17</title>
<g id="a_node17"><a xlink:href="classRa_1_1Asset_1_1HandleData.html#aaee6cb0cd26f0745e444ac7bd0412454" target="_top" xlink:title="Ra::Asset::HandleData\l::getIndexOf">
<polygon fill="white" stroke="black" points="560.5,-147 560.5,-177 679.5,-177 679.5,-147 560.5,-147"/>
<text text-anchor="start" x="568.5" y="-165" font-family="Helvetica,sans-Serif" font-size="10.00">Ra::Asset::HandleData</text>
<text text-anchor="middle" x="620" y="-154" font-family="Helvetica,sans-Serif" font-size="10.00">::getIndexOf</text>
</a>
</g>
</g>
<!-- Node14&#45;&gt;Node17 -->
<g id="edge18" class="edge"><title>Node14&#45;&gt;Node17</title>
<path fill="none" stroke="midnightblue" d="M514.635,-176.18C526.504,-174.567 538.653,-172.917 550.271,-171.338"/>
<polygon fill="midnightblue" stroke="midnightblue" points="550.887,-174.787 560.325,-169.972 549.945,-167.85 550.887,-174.787"/>
</g>
<!-- Node18 -->
<g id="node18" class="node"><title>Node18</title>
<g id="a_node18"><a xlink:href="classRa_1_1Asset_1_1HandleData.html#ad54e901fb20565f1006b721ad17c375a" target="_top" xlink:title="Ra::Asset::HandleData\l::setEdges">
<polygon fill="white" stroke="black" points="560.5,-196 560.5,-226 679.5,-226 679.5,-196 560.5,-196"/>
<text text-anchor="start" x="568.5" y="-214" font-family="Helvetica,sans-Serif" font-size="10.00">Ra::Asset::HandleData</text>
<text text-anchor="middle" x="620" y="-203" font-family="Helvetica,sans-Serif" font-size="10.00">::setEdges</text>
</a>
</g>
</g>
<!-- Node14&#45;&gt;Node18 -->
<g id="edge19" class="edge"><title>Node14&#45;&gt;Node18</title>
<path fill="none" stroke="midnightblue" d="M514.635,-197.387C526.504,-198.935 538.653,-200.52 550.271,-202.035"/>
<polygon fill="midnightblue" stroke="midnightblue" points="549.956,-205.524 560.325,-203.347 550.862,-198.583 549.956,-205.524"/>
</g>
<!-- Node19&#45;&gt;Node15 -->
<g id="edge21" class="edge"><title>Node19&#45;&gt;Node15</title>
<path fill="none" stroke="midnightblue" d="M502.731,-113C516.831,-113 531.75,-113 546.029,-113"/>
<polygon fill="midnightblue" stroke="midnightblue" points="546.293,-116.5 556.293,-113 546.293,-109.5 546.293,-116.5"/>
</g>
<!-- Node19&#45;&gt;Node16 -->
<g id="edge22" class="edge"><title>Node19&#45;&gt;Node16</title>
<path fill="none" stroke="midnightblue" d="M491.457,-97.9654C510.884,-92.7917 532.811,-86.9525 552.935,-81.5934"/>
<polygon fill="midnightblue" stroke="midnightblue" points="553.888,-84.9617 562.65,-79.0062 552.086,-78.1975 553.888,-84.9617"/>
</g>
<!-- Node20 -->
<g id="node20" class="node"><title>Node20</title>
<g id="a_node20"><a xlink:href="classRa_1_1Asset_1_1HandleData.html#ade0d6afbabf40955b6d6b5c5214336e9" target="_top" xlink:title="Ra::Asset::HandleData\l::setVertexSize">
<polygon fill="white" stroke="black" points="560.5,-0 560.5,-30 679.5,-30 679.5,-0 560.5,-0"/>
<text text-anchor="start" x="568.5" y="-18" font-family="Helvetica,sans-Serif" font-size="10.00">Ra::Asset::HandleData</text>
<text text-anchor="middle" x="620" y="-7" font-family="Helvetica,sans-Serif" font-size="10.00">::setVertexSize</text>
</a>
</g>
</g>
<!-- Node19&#45;&gt;Node20 -->
<g id="edge23" class="edge"><title>Node19&#45;&gt;Node20</title>
<path fill="none" stroke="midnightblue" d="M501.93,-97.9569C508.311,-95.1749 514.459,-91.8861 520,-88 542.125,-72.4835 534.496,-55.3666 556,-39 557.816,-37.6177 559.721,-36.3068 561.691,-35.0643"/>
<polygon fill="midnightblue" stroke="midnightblue" points="563.646,-37.9809 570.668,-30.0466 560.231,-31.8707 563.646,-37.9809"/>
</g>
<!-- Node24&#45;&gt;Node6 -->
<g id="edge28" class="edge"><title>Node24&#45;&gt;Node6</title>
<path fill="none" stroke="midnightblue" d="M497.808,-373.019C521.191,-378.611 547.38,-384.874 569.414,-390.143"/>
<polygon fill="midnightblue" stroke="midnightblue" points="568.681,-393.566 579.221,-392.488 570.309,-386.758 568.681,-393.566"/>
</g>
</g>
</svg>
