<?xml version="1.0" encoding="UTF-8" standalone="no"?>
<!DOCTYPE svg PUBLIC "-//W3C//DTD SVG 1.1//EN"
 "http://www.w3.org/Graphics/SVG/1.1/DTD/svg11.dtd">
<!-- Generated by graphviz version 2.36.0 (20140111.2315)
 -->
<!-- Title: Ra::IO::AssimpLightDataLoader::fetchName Pages: 1 -->
<svg width="316pt" height="77pt"
 viewBox="0.00 0.00 316.00 77.00" xmlns="http://www.w3.org/2000/svg" xmlns:xlink="http://www.w3.org/1999/xlink">
<g id="graph0" class="graph" transform="scale(1 1) rotate(0) translate(4 73)">
<title>Ra::IO::AssimpLightDataLoader::fetchName</title>
<polygon fill="white" stroke="none" points="-4,4 -4,-73 312,-73 312,4 -4,4"/>
<!-- Node1 -->
<g id="node1" class="node"><title>Node1</title>
<polygon fill="#bfbfbf" stroke="black" points="0,-22 0,-52 156,-52 156,-22 0,-22"/>
<text text-anchor="start" x="8" y="-40" font-family="Helvetica,sans-Serif" font-size="10.00">Ra::IO::AssimpLightDataLoader</text>
<text text-anchor="middle" x="78" y="-29" font-family="Helvetica,sans-Serif" font-size="10.00">::fetchName</text>
</g>
<!-- Node2 -->
<g id="node2" class="node"><title>Node2</title>
<g id="a_node2"><a xlink:href="namespaceRa_1_1IO.html#aef6c50424873964fcea0008be55d4a34" target="_top" xlink:title="Ra::IO::assimpToCore">
<polygon fill="white" stroke="black" points="192,-49.5 192,-68.5 308,-68.5 308,-49.5 192,-49.5"/>
<text text-anchor="middle" x="250" y="-56.5" font-family="Helvetica,sans-Serif" font-size="10.00">Ra::IO::assimpToCore</text>
</a>
</g>
</g>
<!-- Node1&#45;&gt;Node2 -->
<g id="edge1" class="edge"><title>Node1&#45;&gt;Node2</title>
<path fill="none" stroke="midnightblue" d="M156.042,-46.9701C164.598,-48.0774 173.263,-49.1988 181.686,-50.2888"/>
<polygon fill="midnightblue" stroke="midnightblue" points="181.449,-53.7873 191.816,-51.5997 182.348,-46.8452 181.449,-53.7873"/>
</g>
<!-- Node3 -->
<g id="node3" class="node"><title>Node3</title>
<g id="a_node3"><a xlink:href="classRa_1_1Asset_1_1LightData.html#aa5b89669eba1ec7d862e234a3fef8e0c" target="_top" xlink:title="Extension of of the AssetData interface so that we can modify an abcet afeter ts creation. ">
<polygon fill="white" stroke="black" points="195.5,-0 195.5,-30 304.5,-30 304.5,-0 195.5,-0"/>
<text text-anchor="start" x="203.5" y="-18" font-family="Helvetica,sans-Serif" font-size="10.00">Ra::Asset::LightData</text>
<text text-anchor="middle" x="250" y="-7" font-family="Helvetica,sans-Serif" font-size="10.00">::setName</text>
</a>
</g>
</g>
<!-- Node1&#45;&gt;Node3 -->
<g id="edge2" class="edge"><title>Node1&#45;&gt;Node3</title>
<path fill="none" stroke="midnightblue" d="M156.042,-27.0299C165.719,-25.7775 175.535,-24.5072 184.982,-23.2846"/>
<polygon fill="midnightblue" stroke="midnightblue" points="185.597,-26.7344 195.065,-21.9798 184.698,-19.7923 185.597,-26.7344"/>
</g>
</g>
</svg>
