<?xml version="1.0" encoding="UTF-8" standalone="no"?>
<!DOCTYPE svg PUBLIC "-//W3C//DTD SVG 1.1//EN"
 "http://www.w3.org/Graphics/SVG/1.1/DTD/svg11.dtd">
<!-- Generated by graphviz version 2.36.0 (20140111.2315)
 -->
<!-- Title: Ra::Gui::GizmoManager::handleMouseMoveEvent Pages: 1 -->
<svg width="1172pt" height="412pt"
 viewBox="0.00 0.00 1172.00 412.00" xmlns="http://www.w3.org/2000/svg" xmlns:xlink="http://www.w3.org/1999/xlink">
<g id="graph0" class="graph" transform="scale(1 1) rotate(0) translate(4 408)">
<title>Ra::Gui::GizmoManager::handleMouseMoveEvent</title>
<polygon fill="white" stroke="none" points="-4,4 -4,-408 1168,-408 1168,4 -4,4"/>
<!-- Node1 -->
<g id="node1" class="node"><title>Node1</title>
<polygon fill="#bfbfbf" stroke="black" points="0,-115 0,-145 130,-145 130,-115 0,-115"/>
<text text-anchor="start" x="8" y="-133" font-family="Helvetica,sans-Serif" font-size="10.00">Ra::Gui::GizmoManager</text>
<text text-anchor="middle" x="65" y="-122" font-family="Helvetica,sans-Serif" font-size="10.00">::handleMouseMoveEvent</text>
</g>
<!-- Node2 -->
<g id="node2" class="node"><title>Node2</title>
<g id="a_node2"><a xlink:href="classRa_1_1Gui_1_1CameraInterface.html#ab0c85694c64d45f72de41ac62e1f4152" target="_top" xlink:title="Static method to get the Camera from the given viewer. ">
<polygon fill="white" stroke="black" points="176.5,-159 176.5,-189 305.5,-189 305.5,-159 176.5,-159"/>
<text text-anchor="start" x="184.5" y="-177" font-family="Helvetica,sans-Serif" font-size="10.00">Ra::Gui::CameraInterface</text>
<text text-anchor="middle" x="241" y="-166" font-family="Helvetica,sans-Serif" font-size="10.00">::getCameraFromViewer</text>
</a>
</g>
</g>
<!-- Node1&#45;&gt;Node2 -->
<g id="edge1" class="edge"><title>Node1&#45;&gt;Node2</title>
<path fill="none" stroke="midnightblue" d="M125.394,-145.019C140.012,-148.716 155.789,-152.705 170.825,-156.507"/>
<polygon fill="midnightblue" stroke="midnightblue" points="170.025,-159.915 180.578,-158.974 171.741,-153.129 170.025,-159.915"/>
</g>
<!-- Node3 -->
<g id="node3" class="node"><title>Node3</title>
<g id="a_node3"><a xlink:href="classRa_1_1Gui_1_1Gizmo.html#a3a32d16a592e31ca37149aeee2f1322d" target="_top" xlink:title="Called when the mose movement is recorder with the camera parameters and the current pixel coordinate...">
<polygon fill="white" stroke="black" points="169,-120.5 169,-139.5 313,-139.5 313,-120.5 169,-120.5"/>
<text text-anchor="middle" x="241" y="-127.5" font-family="Helvetica,sans-Serif" font-size="10.00">Ra::Gui::Gizmo::mouseMove</text>
</a>
</g>
</g>
<!-- Node1&#45;&gt;Node3 -->
<g id="edge2" class="edge"><title>Node1&#45;&gt;Node3</title>
<path fill="none" stroke="midnightblue" d="M130.297,-130C139.539,-130 149.149,-130 158.668,-130"/>
<polygon fill="midnightblue" stroke="midnightblue" points="158.939,-133.5 168.939,-130 158.939,-126.5 158.939,-133.5"/>
</g>
<!-- Node4 -->
<g id="node4" class="node"><title>Node4</title>
<g id="a_node4"><a xlink:href="classRa_1_1GuiBase_1_1TransformEditor.html#a28fe7af7f62396a35765ce909f76485b" target="_top" xlink:title="Helper to set the transform to the editable. ">
<polygon fill="white" stroke="black" points="166.5,-71 166.5,-101 315.5,-101 315.5,-71 166.5,-71"/>
<text text-anchor="start" x="174.5" y="-89" font-family="Helvetica,sans-Serif" font-size="10.00">Ra::GuiBase::TransformEditor</text>
<text text-anchor="middle" x="241" y="-78" font-family="Helvetica,sans-Serif" font-size="10.00">::setTransform</text>
</a>
</g>
</g>
<!-- Node1&#45;&gt;Node4 -->
<g id="edge3" class="edge"><title>Node1&#45;&gt;Node4</title>
<path fill="none" stroke="midnightblue" d="M125.394,-114.981C140.012,-111.284 155.789,-107.295 170.825,-103.493"/>
<polygon fill="midnightblue" stroke="midnightblue" points="171.741,-106.871 180.578,-101.026 170.025,-100.085 171.741,-106.871"/>
</g>
<!-- Node5 -->
<g id="node5" class="node"><title>Node5</title>
<g id="a_node5"><a xlink:href="classRa_1_1GuiBase_1_1TransformEditor.html#ad21b8c46ad2d5c62e309eb16b104ee2f" target="_top" xlink:title="Ra::GuiBase::TransformEditor\l::canEdit">
<polygon fill="white" stroke="black" points="352.5,-139 352.5,-169 501.5,-169 501.5,-139 352.5,-139"/>
<text text-anchor="start" x="360.5" y="-157" font-family="Helvetica,sans-Serif" font-size="10.00">Ra::GuiBase::TransformEditor</text>
<text text-anchor="middle" x="427" y="-146" font-family="Helvetica,sans-Serif" font-size="10.00">::canEdit</text>
</a>
</g>
</g>
<!-- Node4&#45;&gt;Node5 -->
<g id="edge4" class="edge"><title>Node4&#45;&gt;Node5</title>
<path fill="none" stroke="midnightblue" d="M287.514,-101.002C296.958,-104.22 306.826,-107.659 316,-111 336.85,-118.592 359.729,-127.45 379.195,-135.146"/>
<polygon fill="midnightblue" stroke="midnightblue" points="378.158,-138.5 388.744,-138.935 380.74,-131.993 378.158,-138.5"/>
</g>
<!-- Node18 -->
<g id="node18" class="node"><title>Node18</title>
<g id="a_node18"><a xlink:href="structRa_1_1Engine_1_1ItemEntry.html#a4823dfa3c113db71733979f1719f3b28" target="_top" xlink:title="Returns true if the item represents an entity. ">
<polygon fill="white" stroke="black" points="542,-90 542,-120 656,-120 656,-90 542,-90"/>
<text text-anchor="start" x="550" y="-108" font-family="Helvetica,sans-Serif" font-size="10.00">Ra::Engine::ItemEntry</text>
<text text-anchor="middle" x="599" y="-97" font-family="Helvetica,sans-Serif" font-size="10.00">::isEntityNode</text>
</a>
</g>
</g>
<!-- Node4&#45;&gt;Node18 -->
<g id="edge25" class="edge"><title>Node4&#45;&gt;Node18</title>
<path fill="none" stroke="midnightblue" d="M315.763,-89.9368C379.296,-93.3276 470.184,-98.1783 531.507,-101.451"/>
<polygon fill="midnightblue" stroke="midnightblue" points="531.67,-104.965 541.842,-102.003 532.043,-97.9748 531.67,-104.965"/>
</g>
<!-- Node20 -->
<g id="node20" class="node"><title>Node20</title>
<g id="a_node20"><a xlink:href="classRa_1_1Engine_1_1Entity.html#a0555082e814666f1ec051e65b727930d" target="_top" xlink:title="Ra::Engine::Entity\l::setTransform">
<polygon fill="white" stroke="black" points="378.5,-49 378.5,-79 475.5,-79 475.5,-49 378.5,-49"/>
<text text-anchor="start" x="386.5" y="-67" font-family="Helvetica,sans-Serif" font-size="10.00">Ra::Engine::Entity</text>
<text text-anchor="middle" x="427" y="-56" font-family="Helvetica,sans-Serif" font-size="10.00">::setTransform</text>
</a>
</g>
</g>
<!-- Node4&#45;&gt;Node20 -->
<g id="edge26" class="edge"><title>Node4&#45;&gt;Node20</title>
<path fill="none" stroke="midnightblue" d="M315.515,-77.2102C333.006,-75.1189 351.426,-72.9164 368.105,-70.9222"/>
<polygon fill="midnightblue" stroke="midnightblue" points="368.727,-74.3729 378.241,-69.7103 367.896,-67.4224 368.727,-74.3729"/>
</g>
<!-- Node21 -->
<g id="node21" class="node"><title>Node21</title>
<g id="a_node21"><a xlink:href="classRa_1_1Engine_1_1Component.html#a85e1c20b3251bf9e38c5cd9b122a377f" target="_top" xlink:title="Set the new transform associated with the RO index key. ">
<polygon fill="white" stroke="black" points="366,-0 366,-30 488,-30 488,-0 366,-0"/>
<text text-anchor="start" x="374" y="-18" font-family="Helvetica,sans-Serif" font-size="10.00">Ra::Engine::Component</text>
<text text-anchor="middle" x="427" y="-7" font-family="Helvetica,sans-Serif" font-size="10.00">::setTransform</text>
</a>
</g>
</g>
<!-- Node4&#45;&gt;Node21 -->
<g id="edge27" class="edge"><title>Node4&#45;&gt;Node21</title>
<path fill="none" stroke="midnightblue" d="M275.382,-70.8075C297.026,-61.189 325.943,-48.7695 352,-39 357.059,-37.1034 362.343,-35.2136 367.659,-33.3747"/>
<polygon fill="midnightblue" stroke="midnightblue" points="368.876,-36.6577 377.221,-30.1292 366.626,-30.0292 368.876,-36.6577"/>
</g>
<!-- Node6 -->
<g id="node6" class="node"><title>Node6</title>
<g id="a_node6"><a xlink:href="structRa_1_1Engine_1_1ItemEntry.html#aceafc81a73631955b64999dd39a639da" target="_top" xlink:title="Returns true if the item represents any valid object. ">
<polygon fill="white" stroke="black" points="542,-188 542,-218 656,-218 656,-188 542,-188"/>
<text text-anchor="start" x="550" y="-206" font-family="Helvetica,sans-Serif" font-size="10.00">Ra::Engine::ItemEntry</text>
<text text-anchor="middle" x="599" y="-195" font-family="Helvetica,sans-Serif" font-size="10.00">::isValid</text>
</a>
</g>
</g>
<!-- Node5&#45;&gt;Node6 -->
<g id="edge5" class="edge"><title>Node5&#45;&gt;Node6</title>
<path fill="none" stroke="midnightblue" d="M480.393,-169.101C498.007,-174.179 517.823,-179.89 536.098,-185.158"/>
<polygon fill="midnightblue" stroke="midnightblue" points="535.202,-188.542 545.78,-187.948 537.141,-181.816 535.202,-188.542"/>
</g>
<!-- Node16 -->
<g id="node16" class="node"><title>Node16</title>
<g id="a_node16"><a xlink:href="structRa_1_1Engine_1_1ItemEntry.html#a09e294208d0896596a42a7a6c7e78f75" target="_top" xlink:title="Returns true if the item can be selected. ">
<polygon fill="white" stroke="black" points="542,-281 542,-311 656,-311 656,-281 542,-281"/>
<text text-anchor="start" x="550" y="-299" font-family="Helvetica,sans-Serif" font-size="10.00">Ra::Engine::ItemEntry</text>
<text text-anchor="middle" x="599" y="-288" font-family="Helvetica,sans-Serif" font-size="10.00">::isSelectable</text>
</a>
</g>
</g>
<!-- Node5&#45;&gt;Node16 -->
<g id="edge17" class="edge"><title>Node5&#45;&gt;Node16</title>
<path fill="none" stroke="midnightblue" d="M446.193,-169.196C476.485,-194.499 537.356,-245.345 572.112,-274.376"/>
<polygon fill="midnightblue" stroke="midnightblue" points="570.019,-277.188 579.938,-280.913 574.507,-271.816 570.019,-277.188"/>
</g>
<!-- Node5&#45;&gt;Node18 -->
<g id="edge22" class="edge"><title>Node5&#45;&gt;Node18</title>
<path fill="none" stroke="midnightblue" d="M480.393,-138.899C498.007,-133.821 517.823,-128.11 536.098,-122.842"/>
<polygon fill="midnightblue" stroke="midnightblue" points="537.141,-126.184 545.78,-120.052 535.202,-119.458 537.141,-126.184"/>
</g>
<!-- Node19 -->
<g id="node19" class="node"><title>Node19</title>
<g id="a_node19"><a xlink:href="classRa_1_1Engine_1_1Component.html#a0a96ad5cbd7987270bbcf321d6a2e258" target="_top" xlink:title="Returns true if a transform can be edited with the render object index given as a key...">
<polygon fill="white" stroke="black" points="538,-139 538,-169 660,-169 660,-139 538,-139"/>
<text text-anchor="start" x="546" y="-157" font-family="Helvetica,sans-Serif" font-size="10.00">Ra::Engine::Component</text>
<text text-anchor="middle" x="599" y="-146" font-family="Helvetica,sans-Serif" font-size="10.00">::canEdit</text>
</a>
</g>
</g>
<!-- Node5&#45;&gt;Node19 -->
<g id="edge24" class="edge"><title>Node5&#45;&gt;Node19</title>
<path fill="none" stroke="midnightblue" d="M501.576,-154C510.283,-154 519.153,-154 527.811,-154"/>
<polygon fill="midnightblue" stroke="midnightblue" points="527.856,-157.5 537.856,-154 527.856,-150.5 527.856,-157.5"/>
</g>
<!-- Node7 -->
<g id="node7" class="node"><title>Node7</title>
<g id="a_node7"><a xlink:href="structRa_1_1Engine_1_1ItemEntry.html#a1fb9fdd74413a1fa5878f53c1cfcf8fd" target="_top" xlink:title="Debug checks. ">
<polygon fill="white" stroke="black" points="877,-46 877,-76 991,-76 991,-46 877,-46"/>
<text text-anchor="start" x="885" y="-64" font-family="Helvetica,sans-Serif" font-size="10.00">Ra::Engine::ItemEntry</text>
<text text-anchor="middle" x="934" y="-53" font-family="Helvetica,sans-Serif" font-size="10.00">::checkConsistency</text>
</a>
</g>
</g>
<!-- Node6&#45;&gt;Node7 -->
<g id="edge6" class="edge"><title>Node6&#45;&gt;Node7</title>
<path fill="none" stroke="midnightblue" d="M647.338,-187.876C651.986,-185.096 656.331,-181.83 660,-178 692.102,-144.496 659.043,-108.058 696,-80 721.95,-60.298 806.022,-57.6699 866.663,-58.5501"/>
<polygon fill="midnightblue" stroke="midnightblue" points="866.875,-62.0544 876.936,-58.7354 867.001,-55.0555 866.875,-62.0544"/>
</g>
<!-- Node9 -->
<g id="node9" class="node"><title>Node9</title>
<g id="a_node9"><a xlink:href="classRa_1_1Engine_1_1RadiumEngine.html#a79f6626ce468268791bc5bdfe17b5586" target="_top" xlink:title="Ra::Engine::RadiumEngine\l::getEntityManager">
<polygon fill="white" stroke="black" points="696.5,-188 696.5,-218 831.5,-218 831.5,-188 696.5,-188"/>
<text text-anchor="start" x="704.5" y="-206" font-family="Helvetica,sans-Serif" font-size="10.00">Ra::Engine::RadiumEngine</text>
<text text-anchor="middle" x="764" y="-195" font-family="Helvetica,sans-Serif" font-size="10.00">::getEntityManager</text>
</a>
</g>
</g>
<!-- Node6&#45;&gt;Node9 -->
<g id="edge8" class="edge"><title>Node6&#45;&gt;Node9</title>
<path fill="none" stroke="midnightblue" d="M656.095,-203C665.834,-203 676.11,-203 686.286,-203"/>
<polygon fill="midnightblue" stroke="midnightblue" points="686.406,-206.5 696.406,-203 686.406,-199.5 686.406,-206.5"/>
</g>
<!-- Node10 -->
<g id="node10" class="node"><title>Node10</title>
<g id="a_node10"><a xlink:href="classRa_1_1Engine_1_1EntityManager.html#a5115cccae6aaef614ad4bd08e64d8185" target="_top" xlink:title="Check wether an entity with a given name exists or not. ">
<polygon fill="white" stroke="black" points="697,-139 697,-169 831,-169 831,-139 697,-139"/>
<text text-anchor="start" x="705" y="-157" font-family="Helvetica,sans-Serif" font-size="10.00">Ra::Engine::EntityManager</text>
<text text-anchor="middle" x="764" y="-146" font-family="Helvetica,sans-Serif" font-size="10.00">::entityExists</text>
</a>
</g>
</g>
<!-- Node6&#45;&gt;Node10 -->
<g id="edge9" class="edge"><title>Node6&#45;&gt;Node10</title>
<path fill="none" stroke="midnightblue" d="M650.235,-187.899C666.891,-182.892 685.6,-177.268 702.919,-172.061"/>
<polygon fill="midnightblue" stroke="midnightblue" points="704.361,-175.282 712.93,-169.052 702.346,-168.579 704.361,-175.282"/>
</g>
<!-- Node11 -->
<g id="node11" class="node"><title>Node11</title>
<g id="a_node11"><a xlink:href="classRa_1_1Engine_1_1Entity.html#aaf256bea44bbc5bff6aa504aca05ca35" target="_top" xlink:title="Ra::Engine::Entity\l::getName">
<polygon fill="white" stroke="black" points="715.5,-90 715.5,-120 812.5,-120 812.5,-90 715.5,-90"/>
<text text-anchor="start" x="723.5" y="-108" font-family="Helvetica,sans-Serif" font-size="10.00">Ra::Engine::Entity</text>
<text text-anchor="middle" x="764" y="-97" font-family="Helvetica,sans-Serif" font-size="10.00">::getName</text>
</a>
</g>
</g>
<!-- Node6&#45;&gt;Node11 -->
<g id="edge10" class="edge"><title>Node6&#45;&gt;Node11</title>
<path fill="none" stroke="midnightblue" d="M644.133,-187.856C649.739,-185.016 655.19,-181.741 660,-178 681.049,-161.628 674.646,-145.973 696,-130 699.208,-127.601 702.671,-125.409 706.275,-123.411"/>
<polygon fill="midnightblue" stroke="midnightblue" points="708.068,-126.428 715.457,-118.834 704.945,-120.163 708.068,-126.428"/>
</g>
<!-- Node12 -->
<g id="node12" class="node"><title>Node12</title>
<g id="a_node12"><a xlink:href="structRa_1_1Engine_1_1ItemEntry.html#a898047549069e5b64d3a9a65c058af56" target="_top" xlink:title="Returns true if the item represents a render object. ">
<polygon fill="white" stroke="black" points="707,-237 707,-267 821,-267 821,-237 707,-237"/>
<text text-anchor="start" x="715" y="-255" font-family="Helvetica,sans-Serif" font-size="10.00">Ra::Engine::ItemEntry</text>
<text text-anchor="middle" x="764" y="-244" font-family="Helvetica,sans-Serif" font-size="10.00">::isRoNode</text>
</a>
</g>
</g>
<!-- Node6&#45;&gt;Node12 -->
<g id="edge11" class="edge"><title>Node6&#45;&gt;Node12</title>
<path fill="none" stroke="midnightblue" d="M650.235,-218.101C666.891,-223.108 685.6,-228.732 702.919,-233.939"/>
<polygon fill="midnightblue" stroke="midnightblue" points="702.346,-237.421 712.93,-236.948 704.361,-230.718 702.346,-237.421"/>
</g>
<!-- Node14 -->
<g id="node14" class="node"><title>Node14</title>
<g id="a_node14"><a xlink:href="classRa_1_1Engine_1_1RadiumEngine.html#a58b27bc600ea769f68b0e2938abc7862" target="_top" xlink:title="Manager getters. ">
<polygon fill="white" stroke="black" points="696.5,-325 696.5,-355 831.5,-355 831.5,-325 696.5,-325"/>
<text text-anchor="start" x="704.5" y="-343" font-family="Helvetica,sans-Serif" font-size="10.00">Ra::Engine::RadiumEngine</text>
<text text-anchor="middle" x="764" y="-332" font-family="Helvetica,sans-Serif" font-size="10.00">::getRenderObjectManager</text>
</a>
</g>
</g>
<!-- Node6&#45;&gt;Node14 -->
<g id="edge14" class="edge"><title>Node6&#45;&gt;Node14</title>
<path fill="none" stroke="midnightblue" d="M613.305,-218.161C638.501,-246.824 691.111,-306.433 696,-310 701.203,-313.796 706.962,-317.261 712.855,-320.38"/>
<polygon fill="midnightblue" stroke="midnightblue" points="711.652,-323.69 722.166,-324.993 714.759,-317.417 711.652,-323.69"/>
</g>
<!-- Node15 -->
<g id="node15" class="node"><title>Node15</title>
<g id="a_node15"><a xlink:href="classRa_1_1Engine_1_1RenderObjectManager.html#a4077b9cf9e1e4d62fd5456386f2d72c8" target="_top" xlink:title="Returns true if the index points to a valid render object. ">
<polygon fill="white" stroke="black" points="868.5,-281 868.5,-311 999.5,-311 999.5,-281 868.5,-281"/>
<text text-anchor="start" x="876.5" y="-299" font-family="Helvetica,sans-Serif" font-size="10.00">Ra::Engine::RenderObject</text>
<text text-anchor="middle" x="934" y="-288" font-family="Helvetica,sans-Serif" font-size="10.00">Manager::exists</text>
</a>
</g>
</g>
<!-- Node6&#45;&gt;Node15 -->
<g id="edge15" class="edge"><title>Node6&#45;&gt;Node15</title>
<path fill="none" stroke="midnightblue" d="M614.283,-218.162C631.715,-235.553 662.973,-263.298 696,-276 747.704,-295.885 810.303,-300.421 858.18,-300.235"/>
<polygon fill="midnightblue" stroke="midnightblue" points="858.51,-303.731 868.471,-300.122 858.433,-296.732 858.51,-303.731"/>
</g>
<!-- Node8 -->
<g id="node8" class="node"><title>Node8</title>
<g id="a_node8"><a xlink:href="classRa_1_1Core_1_1Index.html#a7283e7fb9cc134e04ef3cde8877f8fe2" target="_top" xlink:title="INVALID. ">
<polygon fill="white" stroke="black" points="1036,-51.5 1036,-70.5 1164,-70.5 1164,-51.5 1036,-51.5"/>
<text text-anchor="middle" x="1100" y="-58.5" font-family="Helvetica,sans-Serif" font-size="10.00">Ra::Core::Index::isInvalid</text>
</a>
</g>
</g>
<!-- Node7&#45;&gt;Node8 -->
<g id="edge7" class="edge"><title>Node7&#45;&gt;Node8</title>
<path fill="none" stroke="midnightblue" d="M991.439,-61C1002.55,-61 1014.35,-61 1025.91,-61"/>
<polygon fill="midnightblue" stroke="midnightblue" points="1025.99,-64.5001 1035.99,-61 1025.99,-57.5001 1025.99,-64.5001"/>
</g>
<!-- Node12&#45;&gt;Node7 -->
<g id="edge12" class="edge"><title>Node12&#45;&gt;Node7</title>
<path fill="none" stroke="midnightblue" d="M816.378,-236.999C821.962,-234.183 827.311,-230.876 832,-227 878.861,-188.271 909.796,-121.808 924.006,-85.8499"/>
<polygon fill="midnightblue" stroke="midnightblue" points="927.414,-86.7393 927.725,-76.149 920.877,-84.2339 927.414,-86.7393"/>
</g>
<!-- Node13 -->
<g id="node13" class="node"><title>Node13</title>
<g id="a_node13"><a xlink:href="classRa_1_1Core_1_1Index.html#a87c70243f30c65c1a24834d1829bda01" target="_top" xlink:title="DESTRUCTOR: Must not be defined, we need it trivial to be constexpr. ">
<polygon fill="white" stroke="black" points="1039,-264.5 1039,-283.5 1161,-283.5 1161,-264.5 1039,-264.5"/>
<text text-anchor="middle" x="1100" y="-271.5" font-family="Helvetica,sans-Serif" font-size="10.00">Ra::Core::Index::isValid</text>
</a>
</g>
</g>
<!-- Node12&#45;&gt;Node13 -->
<g id="edge13" class="edge"><title>Node12&#45;&gt;Node13</title>
<path fill="none" stroke="midnightblue" d="M821.281,-255.707C878.428,-259.471 967.058,-265.309 1028.77,-269.374"/>
<polygon fill="midnightblue" stroke="midnightblue" points="1028.61,-272.871 1038.82,-270.036 1029.07,-265.886 1028.61,-272.871"/>
</g>
<!-- Node15&#45;&gt;Node13 -->
<g id="edge16" class="edge"><title>Node15&#45;&gt;Node13</title>
<path fill="none" stroke="midnightblue" d="M999.817,-287.305C1009.39,-286.021 1019.28,-284.694 1028.95,-283.397"/>
<polygon fill="midnightblue" stroke="midnightblue" points="1029.48,-286.858 1038.92,-282.059 1028.55,-279.92 1029.48,-286.858"/>
</g>
<!-- Node16&#45;&gt;Node12 -->
<g id="edge18" class="edge"><title>Node16&#45;&gt;Node12</title>
<path fill="none" stroke="midnightblue" d="M655.639,-280.981C669.072,-277.355 683.55,-273.447 697.392,-269.71"/>
<polygon fill="midnightblue" stroke="midnightblue" points="698.592,-273.011 707.335,-267.026 696.768,-266.253 698.592,-273.011"/>
</g>
<!-- Node16&#45;&gt;Node14 -->
<g id="edge19" class="edge"><title>Node16&#45;&gt;Node14</title>
<path fill="none" stroke="midnightblue" d="M655.639,-311.019C669.072,-314.645 683.55,-318.553 697.392,-322.29"/>
<polygon fill="midnightblue" stroke="midnightblue" points="696.768,-325.747 707.335,-324.974 698.592,-318.989 696.768,-325.747"/>
</g>
<!-- Node17 -->
<g id="node17" class="node"><title>Node17</title>
<g id="a_node17"><a xlink:href="classRa_1_1Engine_1_1RenderObjectManager.html#a32bd0db0d9620bb7e3f0fe50b541dae3" target="_top" xlink:title="Returns the render object corresponding to the given index. ">
<polygon fill="white" stroke="black" points="697,-374 697,-404 831,-404 831,-374 697,-374"/>
<text text-anchor="start" x="705" y="-392" font-family="Helvetica,sans-Serif" font-size="10.00">Ra::Engine::RenderObject</text>
<text text-anchor="middle" x="764" y="-381" font-family="Helvetica,sans-Serif" font-size="10.00">Manager::getRenderObject</text>
</a>
</g>
</g>
<!-- Node16&#45;&gt;Node17 -->
<g id="edge20" class="edge"><title>Node16&#45;&gt;Node17</title>
<path fill="none" stroke="midnightblue" d="M618.19,-311.067C636.837,-325.974 667.116,-348.715 696,-364 699.933,-366.081 704.079,-368.07 708.3,-369.951"/>
<polygon fill="midnightblue" stroke="midnightblue" points="707.034,-373.216 717.608,-373.892 709.763,-366.77 707.034,-373.216"/>
</g>
<!-- Node17&#45;&gt;Node15 -->
<g id="edge21" class="edge"><title>Node17&#45;&gt;Node15</title>
<path fill="none" stroke="midnightblue" d="M809.963,-373.895C817.454,-370.906 825.044,-367.576 832,-364 858.039,-350.614 885.466,-331.808 905.157,-317.365"/>
<polygon fill="midnightblue" stroke="midnightblue" points="907.421,-320.044 913.362,-311.271 903.247,-314.424 907.421,-320.044"/>
</g>
<!-- Node18&#45;&gt;Node7 -->
<g id="edge23" class="edge"><title>Node18&#45;&gt;Node7</title>
<path fill="none" stroke="midnightblue" d="M618.058,-89.9084C636.366,-75.6715 666.175,-55.3101 696,-47 752.159,-31.3524 818.607,-37.2689 866.833,-45.6978"/>
<polygon fill="midnightblue" stroke="midnightblue" points="866.371,-49.1711 876.837,-47.5277 867.63,-42.2854 866.371,-49.1711"/>
</g>
</g>
</svg>
