<?xml version="1.0" encoding="UTF-8" standalone="no"?>
<!DOCTYPE svg PUBLIC "-//W3C//DTD SVG 1.1//EN"
 "http://www.w3.org/Graphics/SVG/1.1/DTD/svg11.dtd">
<!-- Generated by graphviz version 2.36.0 (20140111.2315)
 -->
<!-- Title: Ra::Engine::Entity::addComponent Pages: 1 -->
<svg width="264pt" height="136pt"
 viewBox="0.00 0.00 264.00 136.00" xmlns="http://www.w3.org/2000/svg" xmlns:xlink="http://www.w3.org/1999/xlink">
<g id="graph0" class="graph" transform="scale(1 1) rotate(0) translate(4 132)">
<title>Ra::Engine::Entity::addComponent</title>
<polygon fill="white" stroke="none" points="-4,4 -4,-132 260,-132 260,4 -4,4"/>
<!-- Node1 -->
<g id="node1" class="node"><title>Node1</title>
<polygon fill="#bfbfbf" stroke="black" points="0.5,-49 0.5,-79 97.5,-79 97.5,-49 0.5,-49"/>
<text text-anchor="start" x="8.5" y="-67" font-family="Helvetica,sans-Serif" font-size="10.00">Ra::Engine::Entity</text>
<text text-anchor="middle" x="49" y="-56" font-family="Helvetica,sans-Serif" font-size="10.00">::addComponent</text>
</g>
<!-- Node2 -->
<g id="node2" class="node"><title>Node2</title>
<g id="a_node2"><a xlink:href="classRa_1_1Engine_1_1Entity.html#a524712805170bfce52ed0a98f7eee436" target="_top" xlink:title="Get component with a given name. ">
<polygon fill="white" stroke="black" points="146.5,-98 146.5,-128 243.5,-128 243.5,-98 146.5,-98"/>
<text text-anchor="start" x="154.5" y="-116" font-family="Helvetica,sans-Serif" font-size="10.00">Ra::Engine::Entity</text>
<text text-anchor="middle" x="195" y="-105" font-family="Helvetica,sans-Serif" font-size="10.00">::getComponent</text>
</a>
</g>
</g>
<!-- Node1&#45;&gt;Node2 -->
<g id="edge1" class="edge"><title>Node1&#45;&gt;Node2</title>
<path fill="none" stroke="midnightblue" d="M94.3797,-79.1014C108.751,-83.9917 124.853,-89.4707 139.851,-94.5744"/>
<polygon fill="midnightblue" stroke="midnightblue" points="138.924,-97.9561 149.519,-97.8641 141.179,-91.3292 138.924,-97.9561"/>
</g>
<!-- Node3 -->
<g id="node3" class="node"><title>Node3</title>
<g id="a_node3"><a xlink:href="classRa_1_1Engine_1_1Component.html#aa3e5cb90432a9a49e4362b673652ff76" target="_top" xlink:title="Return the component&#39;s name. ">
<polygon fill="white" stroke="black" points="134,-49 134,-79 256,-79 256,-49 134,-49"/>
<text text-anchor="start" x="142" y="-67" font-family="Helvetica,sans-Serif" font-size="10.00">Ra::Engine::Component</text>
<text text-anchor="middle" x="195" y="-56" font-family="Helvetica,sans-Serif" font-size="10.00">::getName</text>
</a>
</g>
</g>
<!-- Node1&#45;&gt;Node3 -->
<g id="edge2" class="edge"><title>Node1&#45;&gt;Node3</title>
<path fill="none" stroke="midnightblue" d="M97.5501,-64C106.002,-64 114.964,-64 123.888,-64"/>
<polygon fill="midnightblue" stroke="midnightblue" points="123.917,-67.5001 133.917,-64 123.917,-60.5001 123.917,-67.5001"/>
</g>
<!-- Node4 -->
<g id="node4" class="node"><title>Node4</title>
<g id="a_node4"><a xlink:href="classRa_1_1Engine_1_1Component.html#a63b26ba33a78358bfa5747f85015c932" target="_top" xlink:title="Set entity the component is part of. ">
<polygon fill="white" stroke="black" points="134,-0 134,-30 256,-30 256,-0 134,-0"/>
<text text-anchor="start" x="142" y="-18" font-family="Helvetica,sans-Serif" font-size="10.00">Ra::Engine::Component</text>
<text text-anchor="middle" x="195" y="-7" font-family="Helvetica,sans-Serif" font-size="10.00">::setEntity</text>
</a>
</g>
</g>
<!-- Node1&#45;&gt;Node4 -->
<g id="edge3" class="edge"><title>Node1&#45;&gt;Node4</title>
<path fill="none" stroke="midnightblue" d="M94.3797,-48.8986C108.751,-44.0083 124.853,-38.5293 139.851,-33.4256"/>
<polygon fill="midnightblue" stroke="midnightblue" points="141.179,-36.6708 149.519,-30.1359 138.924,-30.0439 141.179,-36.6708"/>
</g>
</g>
</svg>
