<?xml version="1.0" encoding="UTF-8" standalone="no"?>
<!DOCTYPE svg PUBLIC "-//W3C//DTD SVG 1.1//EN"
 "http://www.w3.org/Graphics/SVG/1.1/DTD/svg11.dtd">
<!-- Generated by graphviz version 2.36.0 (20140111.2315)
 -->
<!-- Title: Ra::IO::AssimpHandleDataLoader::fetchVertexSize Pages: 1 -->
<svg width="310pt" height="136pt"
 viewBox="0.00 0.00 310.00 136.00" xmlns="http://www.w3.org/2000/svg" xmlns:xlink="http://www.w3.org/1999/xlink">
<g id="graph0" class="graph" transform="scale(1 1) rotate(0) translate(4 132)">
<title>Ra::IO::AssimpHandleDataLoader::fetchVertexSize</title>
<polygon fill="white" stroke="none" points="-4,4 -4,-132 306,-132 306,4 -4,4"/>
<!-- Node1 -->
<g id="node1" class="node"><title>Node1</title>
<polygon fill="#bfbfbf" stroke="black" points="0.5,-49 0.5,-79 137.5,-79 137.5,-49 0.5,-49"/>
<text text-anchor="start" x="8.5" y="-67" font-family="Helvetica,sans-Serif" font-size="10.00">Ra::IO::AssimpHandleData</text>
<text text-anchor="middle" x="69" y="-56" font-family="Helvetica,sans-Serif" font-size="10.00">Loader::fetchVertexSize</text>
</g>
<!-- Node2 -->
<g id="node2" class="node"><title>Node2</title>
<g id="a_node2"><a xlink:href="classRa_1_1Asset_1_1HandleData.html#aac2741c32466647b58b76e8310d90ecb" target="_top" xlink:title="DATA. ">
<polygon fill="white" stroke="black" points="174.5,-98 174.5,-128 301.5,-128 301.5,-98 174.5,-98"/>
<text text-anchor="start" x="182.5" y="-116" font-family="Helvetica,sans-Serif" font-size="10.00">Ra::Asset::HandleData</text>
<text text-anchor="middle" x="238" y="-105" font-family="Helvetica,sans-Serif" font-size="10.00">::getComponentDataSize</text>
</a>
</g>
</g>
<!-- Node1&#45;&gt;Node2 -->
<g id="edge1" class="edge"><title>Node1&#45;&gt;Node2</title>
<path fill="none" stroke="midnightblue" d="M121.468,-79.1014C138.692,-84.1551 158.059,-89.8376 175.942,-95.0848"/>
<polygon fill="midnightblue" stroke="midnightblue" points="175.121,-98.4913 185.702,-97.9484 177.092,-91.7745 175.121,-98.4913"/>
</g>
<!-- Node3 -->
<g id="node3" class="node"><title>Node3</title>
<g id="a_node3"><a xlink:href="classRa_1_1Asset_1_1HandleData.html#af6b0000a98985534b50a9817de5bfd58" target="_top" xlink:title="Ra::Asset::HandleData\l::getComponent">
<polygon fill="white" stroke="black" points="178.5,-49 178.5,-79 297.5,-79 297.5,-49 178.5,-49"/>
<text text-anchor="start" x="186.5" y="-67" font-family="Helvetica,sans-Serif" font-size="10.00">Ra::Asset::HandleData</text>
<text text-anchor="middle" x="238" y="-56" font-family="Helvetica,sans-Serif" font-size="10.00">::getComponent</text>
</a>
</g>
</g>
<!-- Node1&#45;&gt;Node3 -->
<g id="edge2" class="edge"><title>Node1&#45;&gt;Node3</title>
<path fill="none" stroke="midnightblue" d="M137.925,-64C147.844,-64 158.068,-64 168.008,-64"/>
<polygon fill="midnightblue" stroke="midnightblue" points="168.24,-67.5001 178.239,-64 168.239,-60.5001 168.24,-67.5001"/>
</g>
<!-- Node4 -->
<g id="node4" class="node"><title>Node4</title>
<g id="a_node4"><a xlink:href="classRa_1_1Asset_1_1HandleData.html#ade0d6afbabf40955b6d6b5c5214336e9" target="_top" xlink:title="Ra::Asset::HandleData\l::setVertexSize">
<polygon fill="white" stroke="black" points="178.5,-0 178.5,-30 297.5,-30 297.5,-0 178.5,-0"/>
<text text-anchor="start" x="186.5" y="-18" font-family="Helvetica,sans-Serif" font-size="10.00">Ra::Asset::HandleData</text>
<text text-anchor="middle" x="238" y="-7" font-family="Helvetica,sans-Serif" font-size="10.00">::setVertexSize</text>
</a>
</g>
</g>
<!-- Node1&#45;&gt;Node4 -->
<g id="edge3" class="edge"><title>Node1&#45;&gt;Node4</title>
<path fill="none" stroke="midnightblue" d="M121.468,-48.8986C138.692,-43.8449 158.059,-38.1624 175.942,-32.9152"/>
<polygon fill="midnightblue" stroke="midnightblue" points="177.092,-36.2255 185.702,-30.0516 175.121,-29.5087 177.092,-36.2255"/>
</g>
</g>
</svg>
