<?xml version="1.0" encoding="UTF-8" standalone="no"?>
<!DOCTYPE svg PUBLIC "-//W3C//DTD SVG 1.1//EN"
 "http://www.w3.org/Graphics/SVG/1.1/DTD/svg11.dtd">
<!-- Generated by graphviz version 2.36.0 (20140111.2315)
 -->
<!-- Title: Ra::GuiBase::BaseApplication::createConnections Pages: 1 -->
<svg width="530pt" height="120pt"
 viewBox="0.00 0.00 530.00 120.00" xmlns="http://www.w3.org/2000/svg" xmlns:xlink="http://www.w3.org/1999/xlink">
<g id="graph0" class="graph" transform="scale(1 1) rotate(0) translate(4 116)">
<title>Ra::GuiBase::BaseApplication::createConnections</title>
<polygon fill="white" stroke="none" points="-4,4 -4,-116 526,-116 526,4 -4,4"/>
<!-- Node1 -->
<g id="node1" class="node"><title>Node1</title>
<polygon fill="#bfbfbf" stroke="black" points="0.5,-57 0.5,-87 149.5,-87 149.5,-57 0.5,-57"/>
<text text-anchor="start" x="8.5" y="-75" font-family="Helvetica,sans-Serif" font-size="10.00">Ra::GuiBase::BaseApplication</text>
<text text-anchor="middle" x="75" y="-64" font-family="Helvetica,sans-Serif" font-size="10.00">::createConnections</text>
</g>
<!-- Node2 -->
<g id="node2" class="node"><title>Node2</title>
<g id="a_node2"><a xlink:href="classRa_1_1GuiBase_1_1BaseApplication.html#aa19a984e0783e70237b8050feb1a3d2a" target="_top" xlink:title="Ra::GuiBase::BaseApplication\l::appNeedsToQuit">
<polygon fill="white" stroke="black" points="186.5,-82 186.5,-112 335.5,-112 335.5,-82 186.5,-82"/>
<text text-anchor="start" x="194.5" y="-100" font-family="Helvetica,sans-Serif" font-size="10.00">Ra::GuiBase::BaseApplication</text>
<text text-anchor="middle" x="261" y="-89" font-family="Helvetica,sans-Serif" font-size="10.00">::appNeedsToQuit</text>
</a>
</g>
</g>
<!-- Node1&#45;&gt;Node2 -->
<g id="edge1" class="edge"><title>Node1&#45;&gt;Node2</title>
<path fill="none" stroke="midnightblue" d="M149.515,-81.9884C158.315,-83.1841 167.351,-84.4118 176.281,-85.6252"/>
<polygon fill="midnightblue" stroke="midnightblue" points="175.921,-89.1083 186.302,-86.9866 176.864,-82.1721 175.921,-89.1083"/>
</g>
<!-- Node3 -->
<g id="node3" class="node"><title>Node3</title>
<g id="a_node3"><a xlink:href="classRa_1_1GuiBase_1_1BaseApplication.html#a525be12318745eae6c4730dd7570c7bf" target="_top" xlink:title="Ra::GuiBase::BaseApplication\l::initializeOpenGlPlugins">
<polygon fill="white" stroke="black" points="186.5,-33 186.5,-63 335.5,-63 335.5,-33 186.5,-33"/>
<text text-anchor="start" x="194.5" y="-51" font-family="Helvetica,sans-Serif" font-size="10.00">Ra::GuiBase::BaseApplication</text>
<text text-anchor="middle" x="261" y="-40" font-family="Helvetica,sans-Serif" font-size="10.00">::initializeOpenGlPlugins</text>
</a>
</g>
</g>
<!-- Node1&#45;&gt;Node3 -->
<g id="edge2" class="edge"><title>Node1&#45;&gt;Node3</title>
<path fill="none" stroke="midnightblue" d="M149.515,-62.4111C158.315,-61.2632 167.351,-60.0847 176.281,-58.9198"/>
<polygon fill="midnightblue" stroke="midnightblue" points="176.838,-62.3769 186.302,-57.6128 175.933,-55.4357 176.838,-62.3769"/>
</g>
<!-- Node4 -->
<g id="node4" class="node"><title>Node4</title>
<g id="a_node4"><a xlink:href="classRa_1_1Gui_1_1Viewer.html#a17094c0201376a4beedb86fa39cf3fa2" target="_top" xlink:title="Access to the feature picking manager. ">
<polygon fill="white" stroke="black" points="378,-77 378,-107 516,-107 516,-77 378,-77"/>
<text text-anchor="start" x="386" y="-95" font-family="Helvetica,sans-Serif" font-size="10.00">Ra::Gui::Viewer::getPicking</text>
<text text-anchor="middle" x="447" y="-84" font-family="Helvetica,sans-Serif" font-size="10.00">Manager</text>
</a>
</g>
</g>
<!-- Node3&#45;&gt;Node4 -->
<g id="edge3" class="edge"><title>Node3&#45;&gt;Node4</title>
<path fill="none" stroke="midnightblue" d="M324.808,-63.0192C340.413,-66.7508 357.267,-70.7814 373.303,-74.616"/>
<polygon fill="midnightblue" stroke="midnightblue" points="372.623,-78.052 383.163,-76.9738 374.251,-71.244 372.623,-78.052"/>
</g>
<!-- Node5 -->
<g id="node5" class="node"><title>Node5</title>
<g id="a_node5"><a xlink:href="classRa_1_1Gui_1_1Viewer.html#a19d9e6da9d196e77f7d4bf8fee5ad227" target="_top" xlink:title="Make the OpenGL context associated with the viewer the current context. ">
<polygon fill="white" stroke="black" points="372.5,-38.5 372.5,-57.5 521.5,-57.5 521.5,-38.5 372.5,-38.5"/>
<text text-anchor="middle" x="447" y="-45.5" font-family="Helvetica,sans-Serif" font-size="10.00">Ra::Gui::Viewer::makeCurrent</text>
</a>
</g>
</g>
<!-- Node3&#45;&gt;Node5 -->
<g id="edge4" class="edge"><title>Node3&#45;&gt;Node5</title>
<path fill="none" stroke="midnightblue" d="M335.515,-48C344.315,-48 353.351,-48 362.281,-48"/>
<polygon fill="midnightblue" stroke="midnightblue" points="362.302,-51.5001 372.302,-48 362.302,-44.5001 362.302,-51.5001"/>
</g>
<!-- Node6 -->
<g id="node6" class="node"><title>Node6</title>
<g id="a_node6"><a xlink:href="classRa_1_1Gui_1_1Viewer.html#aaf6cf957403cdcbfa8f4dfd0c25c8e74" target="_top" xlink:title="Reset the current OpenGL context that is no more the one associated with the viewer. ">
<polygon fill="white" stroke="black" points="374,-0.5 374,-19.5 520,-19.5 520,-0.5 374,-0.5"/>
<text text-anchor="middle" x="447" y="-7.5" font-family="Helvetica,sans-Serif" font-size="10.00">Ra::Gui::Viewer::doneCurrent</text>
</a>
</g>
</g>
<!-- Node3&#45;&gt;Node6 -->
<g id="edge5" class="edge"><title>Node3&#45;&gt;Node6</title>
<path fill="none" stroke="midnightblue" d="M334.722,-32.9814C353.111,-29.1835 372.577,-25.1634 389.998,-21.5656"/>
<polygon fill="midnightblue" stroke="midnightblue" points="390.91,-24.9512 399.996,-19.5009 389.494,-18.0959 390.91,-24.9512"/>
</g>
</g>
</svg>
