<?xml version="1.0" encoding="UTF-8" standalone="no"?>
<!DOCTYPE svg PUBLIC "-//W3C//DTD SVG 1.1//EN"
 "http://www.w3.org/Graphics/SVG/1.1/DTD/svg11.dtd">
<!-- Generated by graphviz version 2.36.0 (20140111.2315)
 -->
<!-- Title: Ra::IO::AssimpLightDataLoader::loadLightData Pages: 1 -->
<svg width="508pt" height="361pt"
 viewBox="0.00 0.00 508.00 361.00" xmlns="http://www.w3.org/2000/svg" xmlns:xlink="http://www.w3.org/1999/xlink">
<g id="graph0" class="graph" transform="scale(1 1) rotate(0) translate(4 357)">
<title>Ra::IO::AssimpLightDataLoader::loadLightData</title>
<polygon fill="white" stroke="none" points="-4,4 -4,-357 504,-357 504,4 -4,4"/>
<!-- Node1 -->
<g id="node1" class="node"><title>Node1</title>
<polygon fill="#bfbfbf" stroke="black" points="0,-142 0,-172 156,-172 156,-142 0,-142"/>
<text text-anchor="start" x="8" y="-160" font-family="Helvetica,sans-Serif" font-size="10.00">Ra::IO::AssimpLightDataLoader</text>
<text text-anchor="middle" x="78" y="-149" font-family="Helvetica,sans-Serif" font-size="10.00">::loadLightData</text>
</g>
<!-- Node2 -->
<g id="node2" class="node"><title>Node2</title>
<g id="a_node2"><a xlink:href="classRa_1_1IO_1_1AssimpLightDataLoader.html#ab0f34b3dd64a21b095cefa5ed7c67cc0" target="_top" xlink:title="NAME. ">
<polygon fill="white" stroke="black" points="192,-284 192,-314 348,-314 348,-284 192,-284"/>
<text text-anchor="start" x="200" y="-302" font-family="Helvetica,sans-Serif" font-size="10.00">Ra::IO::AssimpLightDataLoader</text>
<text text-anchor="middle" x="270" y="-291" font-family="Helvetica,sans-Serif" font-size="10.00">::fetchName</text>
</a>
</g>
</g>
<!-- Node1&#45;&gt;Node2 -->
<g id="edge1" class="edge"><title>Node1&#45;&gt;Node2</title>
<path fill="none" stroke="midnightblue" d="M89.7336,-172.218C107.986,-197.018 147.452,-246.172 192,-274 195.325,-276.077 198.839,-277.998 202.462,-279.772"/>
<polygon fill="midnightblue" stroke="midnightblue" points="201.089,-282.992 211.646,-283.887 203.951,-276.604 201.089,-282.992"/>
</g>
<!-- Node5 -->
<g id="node5" class="node"><title>Node5</title>
<g id="a_node5"><a xlink:href="classRa_1_1IO_1_1AssimpLightDataLoader.html#a2ff03465fa3aa3c0f8045007f3951a4f" target="_top" xlink:title="TYPE. ">
<polygon fill="white" stroke="black" points="192,-235 192,-265 348,-265 348,-235 192,-235"/>
<text text-anchor="start" x="200" y="-253" font-family="Helvetica,sans-Serif" font-size="10.00">Ra::IO::AssimpLightDataLoader</text>
<text text-anchor="middle" x="270" y="-242" font-family="Helvetica,sans-Serif" font-size="10.00">::fetchType</text>
</a>
</g>
</g>
<!-- Node1&#45;&gt;Node5 -->
<g id="edge4" class="edge"><title>Node1&#45;&gt;Node5</title>
<path fill="none" stroke="midnightblue" d="M100.692,-172.103C122.86,-187.038 158.668,-209.801 192,-225 196.955,-227.26 202.175,-229.408 207.465,-231.427"/>
<polygon fill="midnightblue" stroke="midnightblue" points="206.428,-234.774 217.021,-234.918 208.829,-228.199 206.428,-234.774"/>
</g>
<!-- Node7 -->
<g id="node7" class="node"><title>Node7</title>
<g id="a_node7"><a xlink:href="classRa_1_1IO_1_1AssimpLightDataLoader.html#aa43eb33e9f3c7ff480285dc0256bd943" target="_top" xlink:title="Ra::IO::AssimpLightDataLoader\l::loadLightFrame">
<polygon fill="white" stroke="black" points="192,-186 192,-216 348,-216 348,-186 192,-186"/>
<text text-anchor="start" x="200" y="-204" font-family="Helvetica,sans-Serif" font-size="10.00">Ra::IO::AssimpLightDataLoader</text>
<text text-anchor="middle" x="270" y="-193" font-family="Helvetica,sans-Serif" font-size="10.00">::loadLightFrame</text>
</a>
</g>
</g>
<!-- Node1&#45;&gt;Node7 -->
<g id="edge6" class="edge"><title>Node1&#45;&gt;Node7</title>
<path fill="none" stroke="midnightblue" d="M143.856,-172.019C159.97,-175.751 177.374,-179.781 193.933,-183.616"/>
<polygon fill="midnightblue" stroke="midnightblue" points="193.582,-187.127 204.114,-185.974 195.162,-180.308 193.582,-187.127"/>
</g>
<!-- Node8 -->
<g id="node8" class="node"><title>Node8</title>
<g id="a_node8"><a xlink:href="classRa_1_1Asset_1_1AssetData.html#a8b107d2673623febe173f37f14ff777d" target="_top" xlink:title="Acces to the name of the asset. ">
<polygon fill="white" stroke="black" points="385.5,-164 385.5,-194 498.5,-194 498.5,-164 385.5,-164"/>
<text text-anchor="start" x="393.5" y="-182" font-family="Helvetica,sans-Serif" font-size="10.00">Ra::Asset::AssetData</text>
<text text-anchor="middle" x="442" y="-171" font-family="Helvetica,sans-Serif" font-size="10.00">::getName</text>
</a>
</g>
</g>
<!-- Node1&#45;&gt;Node8 -->
<g id="edge11" class="edge"><title>Node1&#45;&gt;Node8</title>
<path fill="none" stroke="midnightblue" d="M156.214,-161.693C221.419,-165.655 313.766,-171.268 375.434,-175.015"/>
<polygon fill="midnightblue" stroke="midnightblue" points="375.244,-178.51 385.438,-175.623 375.669,-171.523 375.244,-178.51"/>
</g>
<!-- Node9 -->
<g id="node9" class="node"><title>Node9</title>
<g id="a_node9"><a xlink:href="classRa_1_1IO_1_1AssimpLightDataLoader.html#ad1b8ceeba5c2acfe436f48549e75bac6" target="_top" xlink:title="FRAME. ">
<polygon fill="white" stroke="black" points="192,-98 192,-128 348,-128 348,-98 192,-98"/>
<text text-anchor="start" x="200" y="-116" font-family="Helvetica,sans-Serif" font-size="10.00">Ra::IO::AssimpLightDataLoader</text>
<text text-anchor="middle" x="270" y="-105" font-family="Helvetica,sans-Serif" font-size="10.00">::setFrame</text>
</a>
</g>
</g>
<!-- Node1&#45;&gt;Node9 -->
<g id="edge8" class="edge"><title>Node1&#45;&gt;Node9</title>
<path fill="none" stroke="midnightblue" d="M143.856,-141.981C159.97,-138.249 177.374,-134.219 193.933,-130.384"/>
<polygon fill="midnightblue" stroke="midnightblue" points="195.162,-133.692 204.114,-128.026 193.582,-126.873 195.162,-133.692"/>
</g>
<!-- Node10 -->
<g id="node10" class="node"><title>Node10</title>
<g id="a_node10"><a xlink:href="group__TypeOperators.html#ga710ebcd57dabe8c947a2757d41e7ef0a" target="_top" xlink:title="Access to the type of the object. ">
<polygon fill="white" stroke="black" points="215.5,-49 215.5,-79 324.5,-79 324.5,-49 215.5,-49"/>
<text text-anchor="start" x="223.5" y="-67" font-family="Helvetica,sans-Serif" font-size="10.00">Ra::Asset::LightData</text>
<text text-anchor="middle" x="270" y="-56" font-family="Helvetica,sans-Serif" font-size="10.00">::getType</text>
</a>
</g>
</g>
<!-- Node1&#45;&gt;Node10 -->
<g id="edge9" class="edge"><title>Node1&#45;&gt;Node10</title>
<path fill="none" stroke="midnightblue" d="M100.692,-141.897C122.86,-126.962 158.668,-104.199 192,-89 196.955,-86.7403 202.175,-84.592 207.465,-82.5729"/>
<polygon fill="midnightblue" stroke="midnightblue" points="208.829,-85.8009 217.021,-79.0823 206.428,-79.2257 208.829,-85.8009"/>
</g>
<!-- Node11 -->
<g id="node11" class="node"><title>Node11</title>
<g id="a_node11"><a xlink:href="group__HelperSetters.html#gaae3d85565ca6325abcbb7c94f002908c" target="_top" xlink:title="Construct a directional light. ">
<polygon fill="white" stroke="black" points="215.5,-0 215.5,-30 324.5,-30 324.5,-0 215.5,-0"/>
<text text-anchor="start" x="223.5" y="-18" font-family="Helvetica,sans-Serif" font-size="10.00">Ra::Asset::LightData</text>
<text text-anchor="middle" x="270" y="-7" font-family="Helvetica,sans-Serif" font-size="10.00">::setLight</text>
</a>
</g>
</g>
<!-- Node1&#45;&gt;Node11 -->
<g id="edge10" class="edge"><title>Node1&#45;&gt;Node11</title>
<path fill="none" stroke="midnightblue" d="M89.7336,-141.782C107.986,-116.982 147.452,-67.8279 192,-40 196.358,-37.2774 201.042,-34.8226 205.87,-32.6146"/>
<polygon fill="midnightblue" stroke="midnightblue" points="207.416,-35.762 215.284,-28.667 204.709,-29.3066 207.416,-35.762"/>
</g>
<!-- Node3 -->
<g id="node3" class="node"><title>Node3</title>
<g id="a_node3"><a xlink:href="namespaceRa_1_1IO.html#aef6c50424873964fcea0008be55d4a34" target="_top" xlink:title="Ra::IO::assimpToCore">
<polygon fill="white" stroke="black" points="384,-333.5 384,-352.5 500,-352.5 500,-333.5 384,-333.5"/>
<text text-anchor="middle" x="442" y="-340.5" font-family="Helvetica,sans-Serif" font-size="10.00">Ra::IO::assimpToCore</text>
</a>
</g>
</g>
<!-- Node2&#45;&gt;Node3 -->
<g id="edge2" class="edge"><title>Node2&#45;&gt;Node3</title>
<path fill="none" stroke="midnightblue" d="M329.029,-314.019C350.341,-319.535 374.176,-325.704 394.36,-330.928"/>
<polygon fill="midnightblue" stroke="midnightblue" points="393.689,-334.37 404.247,-333.488 395.443,-327.593 393.689,-334.37"/>
</g>
<!-- Node4 -->
<g id="node4" class="node"><title>Node4</title>
<g id="a_node4"><a xlink:href="classRa_1_1Asset_1_1LightData.html#aa5b89669eba1ec7d862e234a3fef8e0c" target="_top" xlink:title="Extension of of the AssetData interface so that we can modify an abcet afeter ts creation. ">
<polygon fill="white" stroke="black" points="387.5,-284 387.5,-314 496.5,-314 496.5,-284 387.5,-284"/>
<text text-anchor="start" x="395.5" y="-302" font-family="Helvetica,sans-Serif" font-size="10.00">Ra::Asset::LightData</text>
<text text-anchor="middle" x="442" y="-291" font-family="Helvetica,sans-Serif" font-size="10.00">::setName</text>
</a>
</g>
</g>
<!-- Node2&#45;&gt;Node4 -->
<g id="edge3" class="edge"><title>Node2&#45;&gt;Node4</title>
<path fill="none" stroke="midnightblue" d="M348.042,-299C357.719,-299 367.535,-299 376.982,-299"/>
<polygon fill="midnightblue" stroke="midnightblue" points="377.065,-302.5 387.065,-299 377.065,-295.5 377.065,-302.5"/>
</g>
<!-- Node6 -->
<g id="node6" class="node"><title>Node6</title>
<g id="a_node6"><a xlink:href="group__TypeOperators.html#ga5a8cb6c5ced2c9359564b8b27348727c" target="_top" xlink:title="Modify the type of a light asset after its creation. ">
<polygon fill="white" stroke="black" points="387.5,-235 387.5,-265 496.5,-265 496.5,-235 387.5,-235"/>
<text text-anchor="start" x="395.5" y="-253" font-family="Helvetica,sans-Serif" font-size="10.00">Ra::Asset::LightData</text>
<text text-anchor="middle" x="442" y="-242" font-family="Helvetica,sans-Serif" font-size="10.00">::setType</text>
</a>
</g>
</g>
<!-- Node5&#45;&gt;Node6 -->
<g id="edge5" class="edge"><title>Node5&#45;&gt;Node6</title>
<path fill="none" stroke="midnightblue" d="M348.042,-250C357.719,-250 367.535,-250 376.982,-250"/>
<polygon fill="midnightblue" stroke="midnightblue" points="377.065,-253.5 387.065,-250 377.065,-246.5 377.065,-253.5"/>
</g>
<!-- Node7&#45;&gt;Node8 -->
<g id="edge7" class="edge"><title>Node7&#45;&gt;Node8</title>
<path fill="none" stroke="midnightblue" d="M348.042,-191.03C357.169,-189.849 366.42,-188.651 375.369,-187.493"/>
<polygon fill="midnightblue" stroke="midnightblue" points="375.853,-190.96 385.321,-186.206 374.954,-184.018 375.853,-190.96"/>
</g>
</g>
</svg>
