<?xml version="1.0" encoding="UTF-8" standalone="no"?>
<!DOCTYPE svg PUBLIC "-//W3C//DTD SVG 1.1//EN"
 "http://www.w3.org/Graphics/SVG/1.1/DTD/svg11.dtd">
<!-- Generated by graphviz version 2.36.0 (20140111.2315)
 -->
<!-- Title: Ra::Engine::DirectionalLight::getRenderParameters Pages: 1 -->
<svg width="486pt" height="61pt"
 viewBox="0.00 0.00 486.00 61.00" xmlns="http://www.w3.org/2000/svg" xmlns:xlink="http://www.w3.org/1999/xlink">
<g id="graph0" class="graph" transform="scale(1 1) rotate(0) translate(4 57)">
<title>Ra::Engine::DirectionalLight::getRenderParameters</title>
<polygon fill="white" stroke="none" points="-4,4 -4,-57 482,-57 482,4 -4,4"/>
<!-- Node1 -->
<g id="node1" class="node"><title>Node1</title>
<polygon fill="#bfbfbf" stroke="black" points="0.5,-1 0.5,-31 139.5,-31 139.5,-1 0.5,-1"/>
<text text-anchor="start" x="8.5" y="-19" font-family="Helvetica,sans-Serif" font-size="10.00">Ra::Engine::DirectionalLight</text>
<text text-anchor="middle" x="70" y="-8" font-family="Helvetica,sans-Serif" font-size="10.00">::getRenderParameters</text>
</g>
<!-- Node2 -->
<g id="node2" class="node"><title>Node2</title>
<g id="a_node2"><a xlink:href="classRa_1_1Engine_1_1Light.html#a9615ae533394f6672f395b83619e5a75" target="_top" xlink:title="Ra::Engine::Light::\lgetRenderParameters">
<polygon fill="white" stroke="black" points="176,-23 176,-53 288,-53 288,-23 176,-23"/>
<text text-anchor="start" x="184" y="-41" font-family="Helvetica,sans-Serif" font-size="10.00">Ra::Engine::Light::</text>
<text text-anchor="middle" x="232" y="-30" font-family="Helvetica,sans-Serif" font-size="10.00">getRenderParameters</text>
</a>
</g>
</g>
<!-- Node1&#45;&gt;Node2 -->
<g id="edge1" class="edge"><title>Node1&#45;&gt;Node2</title>
<path fill="none" stroke="midnightblue" d="M139.783,-25.4577C148.427,-26.6463 157.25,-27.8594 165.837,-29.04"/>
<polygon fill="midnightblue" stroke="midnightblue" points="165.399,-32.5128 175.783,-30.4077 166.353,-25.578 165.399,-32.5128"/>
</g>
<!-- Node3 -->
<g id="node3" class="node"><title>Node3</title>
<g id="a_node3"><a xlink:href="classRa_1_1Engine_1_1RenderParameters.html#a2f0d6512a9889fb3a9cb2173c5ce12ed" target="_top" xlink:title="Ra::Engine::RenderParameters\l::addParameter">
<polygon fill="white" stroke="black" points="324.5,-1 324.5,-31 477.5,-31 477.5,-1 324.5,-1"/>
<text text-anchor="start" x="332.5" y="-19" font-family="Helvetica,sans-Serif" font-size="10.00">Ra::Engine::RenderParameters</text>
<text text-anchor="middle" x="401" y="-8" font-family="Helvetica,sans-Serif" font-size="10.00">::addParameter</text>
</a>
</g>
</g>
<!-- Node1&#45;&gt;Node3 -->
<g id="edge3" class="edge"><title>Node1&#45;&gt;Node3</title>
<path fill="none" stroke="midnightblue" d="M139.622,-14.5049C151.741,-14.2945 164.241,-14.112 176,-14 225.776,-13.526 238.224,-13.5556 288,-14 296.548,-14.0763 305.463,-14.1854 314.366,-14.3137"/>
<polygon fill="midnightblue" stroke="midnightblue" points="314.342,-17.8137 324.394,-14.4661 314.448,-10.8145 314.342,-17.8137"/>
</g>
<!-- Node2&#45;&gt;Node3 -->
<g id="edge2" class="edge"><title>Node2&#45;&gt;Node3</title>
<path fill="none" stroke="midnightblue" d="M288.145,-30.7354C296.566,-29.626 305.424,-28.4591 314.316,-27.2878"/>
<polygon fill="midnightblue" stroke="midnightblue" points="314.889,-30.7425 324.346,-25.9663 313.975,-23.8025 314.889,-30.7425"/>
</g>
</g>
</svg>
