<?xml version="1.0" encoding="UTF-8" standalone="no"?>
<!DOCTYPE svg PUBLIC "-//W3C//DTD SVG 1.1//EN"
 "http://www.w3.org/Graphics/SVG/1.1/DTD/svg11.dtd">
<!-- Generated by graphviz version 2.36.0 (20140111.2315)
 -->
<!-- Title: Ra::Core::TopologicalMesh::interpolateAllPropsOnFaces Pages: 1 -->
<svg width="500pt" height="283pt"
 viewBox="0.00 0.00 500.00 283.00" xmlns="http://www.w3.org/2000/svg" xmlns:xlink="http://www.w3.org/1999/xlink">
<g id="graph0" class="graph" transform="scale(1 1) rotate(0) translate(4 279)">
<title>Ra::Core::TopologicalMesh::interpolateAllPropsOnFaces</title>
<polygon fill="white" stroke="none" points="-4,4 -4,-279 496,-279 496,4 -4,4"/>
<!-- Node1 -->
<g id="node1" class="node"><title>Node1</title>
<polygon fill="#bfbfbf" stroke="black" points="0,-122 0,-152 144,-152 144,-122 0,-122"/>
<text text-anchor="start" x="8" y="-140" font-family="Helvetica,sans-Serif" font-size="10.00">Ra::Core::TopologicalMesh</text>
<text text-anchor="middle" x="72" y="-129" font-family="Helvetica,sans-Serif" font-size="10.00">::interpolateAllPropsOnFaces</text>
</g>
<!-- Node2 -->
<g id="node2" class="node"><title>Node2</title>
<g id="a_node2"><a xlink:href="classRa_1_1Core_1_1TopologicalMesh.html#a0294459ae0b252566b228c8caa6f9d8b" target="_top" xlink:title="Interpolate normal property on face center. ">
<polygon fill="white" stroke="black" points="180.5,-245 180.5,-275 319.5,-275 319.5,-245 180.5,-245"/>
<text text-anchor="start" x="188.5" y="-263" font-family="Helvetica,sans-Serif" font-size="10.00">Ra::Core::TopologicalMesh</text>
<text text-anchor="middle" x="250" y="-252" font-family="Helvetica,sans-Serif" font-size="10.00">::interpolateNormalOnFaces</text>
</a>
</g>
</g>
<!-- Node1&#45;&gt;Node2 -->
<g id="edge1" class="edge"><title>Node1&#45;&gt;Node2</title>
<path fill="none" stroke="midnightblue" d="M86.0653,-152.28C104.898,-173.466 141.647,-211.771 180,-235 183.397,-237.058 186.99,-238.985 190.681,-240.783"/>
<polygon fill="midnightblue" stroke="midnightblue" points="189.445,-244.065 200,-244.987 192.324,-237.684 189.445,-244.065"/>
</g>
<!-- Node4 -->
<g id="node4" class="node"><title>Node4</title>
<g id="a_node4"><a xlink:href="classRa_1_1Core_1_1TopologicalMesh.html#aea2f723e3af4a564d62715713f416d08" target="_top" xlink:title="Interpolate hprops on face center. ">
<polygon fill="white" stroke="black" points="182,-196 182,-226 318,-226 318,-196 182,-196"/>
<text text-anchor="start" x="190" y="-214" font-family="Helvetica,sans-Serif" font-size="10.00">Ra::Core::TopologicalMesh</text>
<text text-anchor="middle" x="250" y="-203" font-family="Helvetica,sans-Serif" font-size="10.00">::interpolatePropsOnFaces</text>
</a>
</g>
</g>
<!-- Node1&#45;&gt;Node4 -->
<g id="edge3" class="edge"><title>Node1&#45;&gt;Node4</title>
<path fill="none" stroke="midnightblue" d="M104.074,-152.047C125.272,-162.109 154.095,-175.396 180,-186 185.159,-188.112 190.57,-190.232 195.996,-192.296"/>
<polygon fill="midnightblue" stroke="midnightblue" points="195.135,-195.711 205.728,-195.936 197.588,-189.154 195.135,-195.711"/>
</g>
<!-- Node5 -->
<g id="node5" class="node"><title>Node5</title>
<g id="a_node5"><a xlink:href="classRa_1_1Core_1_1TopologicalMesh.html#aa1016df75edb65e69fcdec5465e49245" target="_top" xlink:title="Ra::Core::TopologicalMesh\l::getFloatPropsHandles">
<polygon fill="white" stroke="black" points="182,-147 182,-177 318,-177 318,-147 182,-147"/>
<text text-anchor="start" x="190" y="-165" font-family="Helvetica,sans-Serif" font-size="10.00">Ra::Core::TopologicalMesh</text>
<text text-anchor="middle" x="250" y="-154" font-family="Helvetica,sans-Serif" font-size="10.00">::getFloatPropsHandles</text>
</a>
</g>
</g>
<!-- Node1&#45;&gt;Node5 -->
<g id="edge5" class="edge"><title>Node1&#45;&gt;Node5</title>
<path fill="none" stroke="midnightblue" d="M144.079,-147.096C153.257,-148.4 162.69,-149.74 171.959,-151.057"/>
<polygon fill="midnightblue" stroke="midnightblue" points="171.539,-154.532 181.931,-152.473 172.523,-147.602 171.539,-154.532"/>
</g>
<!-- Node6 -->
<g id="node6" class="node"><title>Node6</title>
<g id="a_node6"><a xlink:href="classRa_1_1Core_1_1TopologicalMesh.html#acf1e58078add6e5cc9ce13b30fb3baf3" target="_top" xlink:title="Ra::Core::TopologicalMesh\l::getVector2PropsHandles">
<polygon fill="white" stroke="black" points="182,-98 182,-128 318,-128 318,-98 182,-98"/>
<text text-anchor="start" x="190" y="-116" font-family="Helvetica,sans-Serif" font-size="10.00">Ra::Core::TopologicalMesh</text>
<text text-anchor="middle" x="250" y="-105" font-family="Helvetica,sans-Serif" font-size="10.00">::getVector2PropsHandles</text>
</a>
</g>
</g>
<!-- Node1&#45;&gt;Node6 -->
<g id="edge6" class="edge"><title>Node1&#45;&gt;Node6</title>
<path fill="none" stroke="midnightblue" d="M144.079,-127.307C153.257,-126.056 162.69,-124.77 171.959,-123.506"/>
<polygon fill="midnightblue" stroke="midnightblue" points="172.496,-126.965 181.931,-122.146 171.55,-120.029 172.496,-126.965"/>
</g>
<!-- Node7 -->
<g id="node7" class="node"><title>Node7</title>
<g id="a_node7"><a xlink:href="classRa_1_1Core_1_1TopologicalMesh.html#a6865aee84eb0d92f6acc12081bf8a6f8" target="_top" xlink:title="Ra::Core::TopologicalMesh\l::getVector3PropsHandles">
<polygon fill="white" stroke="black" points="182,-49 182,-79 318,-79 318,-49 182,-49"/>
<text text-anchor="start" x="190" y="-67" font-family="Helvetica,sans-Serif" font-size="10.00">Ra::Core::TopologicalMesh</text>
<text text-anchor="middle" x="250" y="-56" font-family="Helvetica,sans-Serif" font-size="10.00">::getVector3PropsHandles</text>
</a>
</g>
</g>
<!-- Node1&#45;&gt;Node7 -->
<g id="edge7" class="edge"><title>Node1&#45;&gt;Node7</title>
<path fill="none" stroke="midnightblue" d="M105.04,-121.879C126.16,-112.098 154.522,-99.3136 180,-89 185.167,-86.9084 190.583,-84.8015 196.012,-82.7456"/>
<polygon fill="midnightblue" stroke="midnightblue" points="197.602,-85.8885 205.748,-79.1146 195.156,-79.3298 197.602,-85.8885"/>
</g>
<!-- Node8 -->
<g id="node8" class="node"><title>Node8</title>
<g id="a_node8"><a xlink:href="classRa_1_1Core_1_1TopologicalMesh.html#a938483e7f6900eeb3914d662b9aac21c" target="_top" xlink:title="Ra::Core::TopologicalMesh\l::getVector4PropsHandles">
<polygon fill="white" stroke="black" points="182,-0 182,-30 318,-30 318,-0 182,-0"/>
<text text-anchor="start" x="190" y="-18" font-family="Helvetica,sans-Serif" font-size="10.00">Ra::Core::TopologicalMesh</text>
<text text-anchor="middle" x="250" y="-7" font-family="Helvetica,sans-Serif" font-size="10.00">::getVector4PropsHandles</text>
</a>
</g>
</g>
<!-- Node1&#45;&gt;Node8 -->
<g id="edge8" class="edge"><title>Node1&#45;&gt;Node8</title>
<path fill="none" stroke="midnightblue" d="M86.0985,-121.885C104.971,-100.925 141.766,-63.0232 180,-40 183.402,-37.9512 186.999,-36.0306 190.693,-34.2375"/>
<polygon fill="midnightblue" stroke="midnightblue" points="192.334,-37.3371 200.017,-30.0422 189.462,-30.9535 192.334,-37.3371"/>
</g>
<!-- Node3 -->
<g id="node3" class="node"><title>Node3</title>
<g id="a_node3"><a xlink:href="classRa_1_1Core_1_1TopologicalMesh.html#a94c32854d7aa51edc42d5d1dd70856f3" target="_top" xlink:title="Return the half&#45;edge associated with a given vertex and face. ">
<polygon fill="white" stroke="black" points="356,-220 356,-250 492,-250 492,-220 356,-220"/>
<text text-anchor="start" x="364" y="-238" font-family="Helvetica,sans-Serif" font-size="10.00">Ra::Core::TopologicalMesh</text>
<text text-anchor="middle" x="424" y="-227" font-family="Helvetica,sans-Serif" font-size="10.00">::halfedge_handle</text>
</a>
</g>
</g>
<!-- Node2&#45;&gt;Node3 -->
<g id="edge2" class="edge"><title>Node2&#45;&gt;Node3</title>
<path fill="none" stroke="midnightblue" d="M319.968,-249.976C328.499,-248.736 337.263,-247.462 345.906,-246.206"/>
<polygon fill="midnightblue" stroke="midnightblue" points="346.583,-249.644 355.975,-244.742 345.576,-242.717 346.583,-249.644"/>
</g>
<!-- Node4&#45;&gt;Node3 -->
<g id="edge4" class="edge"><title>Node4&#45;&gt;Node3</title>
<path fill="none" stroke="midnightblue" d="M318.485,-220.417C327.539,-221.68 336.881,-222.983 346.082,-224.267"/>
<polygon fill="midnightblue" stroke="midnightblue" points="345.604,-227.734 355.991,-225.65 346.571,-220.802 345.604,-227.734"/>
</g>
</g>
</svg>
