<?xml version="1.0" encoding="UTF-8" standalone="no"?>
<!DOCTYPE svg PUBLIC "-//W3C//DTD SVG 1.1//EN"
 "http://www.w3.org/Graphics/SVG/1.1/DTD/svg11.dtd">
<!-- Generated by graphviz version 2.36.0 (20140111.2315)
 -->
<!-- Title: Ra::Core::TriangleMesh Pages: 1 -->
<svg width="485pt" height="1050pt"
 viewBox="0.00 0.00 485.00 1050.00" xmlns="http://www.w3.org/2000/svg" xmlns:xlink="http://www.w3.org/1999/xlink">
<g id="graph0" class="graph" transform="scale(1 1) rotate(0) translate(4 1046)">
<title>Ra::Core::TriangleMesh</title>
<polygon fill="white" stroke="none" points="-4,4 -4,-1046 481,-1046 481,4 -4,4"/>
<!-- Node1 -->
<g id="node1" class="node"><title>Node1</title>
<polygon fill="#bfbfbf" stroke="black" points="166.5,-0.5 166.5,-277.5 287.5,-277.5 287.5,-0.5 166.5,-0.5"/>
<text text-anchor="middle" x="227" y="-265.5" font-family="Helvetica,sans-Serif" font-size="10.00">Ra::Core::TriangleMesh</text>
<polyline fill="none" stroke="black" points="166.5,-258.5 287.5,-258.5 "/>
<text text-anchor="middle" x="227" y="-246.5" font-family="Helvetica,sans-Serif" font-size="10.00"> </text>
<polyline fill="none" stroke="black" points="166.5,-239.5 287.5,-239.5 "/>
<text text-anchor="start" x="174.5" y="-227.5" font-family="Helvetica,sans-Serif" font-size="10.00">+ TriangleMesh()</text>
<text text-anchor="start" x="174.5" y="-216.5" font-family="Helvetica,sans-Serif" font-size="10.00">+ TriangleMesh()</text>
<text text-anchor="start" x="174.5" y="-205.5" font-family="Helvetica,sans-Serif" font-size="10.00">+ TriangleMesh()</text>
<text text-anchor="start" x="174.5" y="-194.5" font-family="Helvetica,sans-Serif" font-size="10.00">+ operator=()</text>
<text text-anchor="start" x="174.5" y="-183.5" font-family="Helvetica,sans-Serif" font-size="10.00">+ operator=()</text>
<text text-anchor="start" x="174.5" y="-172.5" font-family="Helvetica,sans-Serif" font-size="10.00">+ append()</text>
<text text-anchor="start" x="174.5" y="-161.5" font-family="Helvetica,sans-Serif" font-size="10.00">+ clear()</text>
<text text-anchor="start" x="174.5" y="-150.5" font-family="Helvetica,sans-Serif" font-size="10.00">+ vertices()</text>
<text text-anchor="start" x="174.5" y="-139.5" font-family="Helvetica,sans-Serif" font-size="10.00">+ vertices()</text>
<text text-anchor="start" x="174.5" y="-128.5" font-family="Helvetica,sans-Serif" font-size="10.00">+ normals()</text>
<text text-anchor="start" x="174.5" y="-117.5" font-family="Helvetica,sans-Serif" font-size="10.00">+ normals()</text>
<text text-anchor="start" x="174.5" y="-106.5" font-family="Helvetica,sans-Serif" font-size="10.00">+ getAttribHandle()</text>
<text text-anchor="start" x="174.5" y="-95.5" font-family="Helvetica,sans-Serif" font-size="10.00">+ isValid()</text>
<text text-anchor="start" x="174.5" y="-84.5" font-family="Helvetica,sans-Serif" font-size="10.00">+ getAttrib()</text>
<text text-anchor="start" x="174.5" y="-73.5" font-family="Helvetica,sans-Serif" font-size="10.00">+ getAttrib()</text>
<text text-anchor="start" x="174.5" y="-62.5" font-family="Helvetica,sans-Serif" font-size="10.00">+ addAttrib()</text>
<text text-anchor="start" x="174.5" y="-51.5" font-family="Helvetica,sans-Serif" font-size="10.00">+ removeAttrib()</text>
<text text-anchor="start" x="174.5" y="-40.5" font-family="Helvetica,sans-Serif" font-size="10.00">+ clearAttributes()</text>
<text text-anchor="start" x="174.5" y="-29.5" font-family="Helvetica,sans-Serif" font-size="10.00">+ copyBaseGeometry()</text>
<text text-anchor="start" x="174.5" y="-18.5" font-family="Helvetica,sans-Serif" font-size="10.00">+ copyAttributes()</text>
<text text-anchor="start" x="174.5" y="-7.5" font-family="Helvetica,sans-Serif" font-size="10.00">+ copyAllAttributes()</text>
</g>
<!-- Node2 -->
<g id="node2" class="node"><title>Node2</title>
<g id="a_node2"><a xlink:href="classRa_1_1Core_1_1VectorArray.html" target="_top" xlink:title="{Ra::Core::VectorArray\l\&lt; Triangle \&gt;\n||+ getMap()\l+ getMap()\l}">
<polygon fill="white" stroke="black" points="99,-326.5 99,-405.5 213,-405.5 213,-326.5 99,-326.5"/>
<text text-anchor="start" x="107" y="-393.5" font-family="Helvetica,sans-Serif" font-size="10.00">Ra::Core::VectorArray</text>
<text text-anchor="middle" x="156" y="-382.5" font-family="Helvetica,sans-Serif" font-size="10.00">&lt; Triangle &gt;</text>
<polyline fill="none" stroke="black" points="99,-375.5 213,-375.5 "/>
<text text-anchor="middle" x="156" y="-363.5" font-family="Helvetica,sans-Serif" font-size="10.00"> </text>
<polyline fill="none" stroke="black" points="99,-356.5 213,-356.5 "/>
<text text-anchor="start" x="107" y="-344.5" font-family="Helvetica,sans-Serif" font-size="10.00">+ getMap()</text>
<text text-anchor="start" x="107" y="-333.5" font-family="Helvetica,sans-Serif" font-size="10.00">+ getMap()</text>
</a>
</g>
</g>
<!-- Node2&#45;&gt;Node1 -->
<g id="edge1" class="edge"><title>Node2&#45;&gt;Node1</title>
<path fill="none" stroke="#404040" d="M168.205,-326.321C171.675,-315.327 175.675,-302.649 179.924,-289.184"/>
<polygon fill="none" stroke="#404040" points="179.935,-289.151 177.926,-282.225 183.546,-277.707 185.555,-284.633 179.935,-289.151"/>
<text text-anchor="middle" x="207" y="-299.5" font-family="Helvetica,sans-Serif" font-size="10.00"> +m_triangles</text>
</g>
<!-- Node3 -->
<g id="node3" class="node"><title>Node3</title>
<g id="a_node3"><a xlink:href="structRa_1_1Core_1_1AlignedStdVector.html" target="_top" xlink:title="{Ra::Core::AlignedStdVector\l\&lt; Triangle \&gt;\n||}">
<polygon fill="white" stroke="black" points="0,-563 0,-631 138,-631 138,-563 0,-563"/>
<text text-anchor="start" x="8" y="-619" font-family="Helvetica,sans-Serif" font-size="10.00">Ra::Core::AlignedStdVector</text>
<text text-anchor="middle" x="69" y="-608" font-family="Helvetica,sans-Serif" font-size="10.00">&lt; Triangle &gt;</text>
<polyline fill="none" stroke="black" points="0,-601 138,-601 "/>
<text text-anchor="middle" x="69" y="-589" font-family="Helvetica,sans-Serif" font-size="10.00"> </text>
<polyline fill="none" stroke="black" points="0,-582 138,-582 "/>
<text text-anchor="middle" x="69" y="-570" font-family="Helvetica,sans-Serif" font-size="10.00"> </text>
</a>
</g>
</g>
<!-- Node3&#45;&gt;Node2 -->
<g id="edge2" class="edge"><title>Node3&#45;&gt;Node2</title>
<path fill="none" stroke="midnightblue" d="M85.2514,-553.223C101.344,-510.865 125.766,-446.58 141.297,-405.701"/>
<polygon fill="none" stroke="midnightblue" points="81.9302,-552.11 81.6505,-562.701 88.4739,-554.596 81.9302,-552.11"/>
</g>
<!-- Node4 -->
<g id="node4" class="node"><title>Node4</title>
<g id="a_node4"><a xlink:title="STL class. ">
<polygon fill="white" stroke="#bfbfbf" points="3.5,-768.5 3.5,-847.5 126.5,-847.5 126.5,-768.5 3.5,-768.5"/>
<text text-anchor="start" x="11.5" y="-835.5" font-family="Helvetica,sans-Serif" font-size="10.00">std::vector&lt; Triangle,</text>
<text text-anchor="start" x="11.5" y="-824.5" font-family="Helvetica,sans-Serif" font-size="10.00"> Eigen::aligned_allocator</text>
<text text-anchor="middle" x="65" y="-813.5" font-family="Helvetica,sans-Serif" font-size="10.00">&lt; Triangle &gt; &gt;</text>
<polyline fill="none" stroke="#bfbfbf" points="3.5,-806.5 126.5,-806.5 "/>
<text text-anchor="middle" x="65" y="-794.5" font-family="Helvetica,sans-Serif" font-size="10.00"> </text>
<polyline fill="none" stroke="#bfbfbf" points="3.5,-787.5 126.5,-787.5 "/>
<text text-anchor="middle" x="65" y="-775.5" font-family="Helvetica,sans-Serif" font-size="10.00"> </text>
</a>
</g>
</g>
<!-- Node4&#45;&gt;Node3 -->
<g id="edge3" class="edge"><title>Node4&#45;&gt;Node3</title>
<path fill="none" stroke="midnightblue" d="M65.9363,-758.076C66.6843,-718.996 67.7122,-665.289 68.3664,-631.108"/>
<polygon fill="none" stroke="midnightblue" points="62.4351,-758.113 65.743,-768.179 69.4338,-758.247 62.4351,-758.113"/>
</g>
<!-- Node5 -->
<g id="node5" class="node"><title>Node5</title>
<polygon fill="white" stroke="#bfbfbf" points="182.5,-984.5 182.5,-1041.5 211.5,-1041.5 211.5,-984.5 182.5,-984.5"/>
<text text-anchor="middle" x="197" y="-1029.5" font-family="Helvetica,sans-Serif" font-size="10.00">T</text>
<polyline fill="none" stroke="#bfbfbf" points="182.5,-1022.5 211.5,-1022.5 "/>
<text text-anchor="middle" x="197" y="-1010.5" font-family="Helvetica,sans-Serif" font-size="10.00"> </text>
<polyline fill="none" stroke="#bfbfbf" points="182.5,-1003.5 211.5,-1003.5 "/>
<text text-anchor="middle" x="197" y="-991.5" font-family="Helvetica,sans-Serif" font-size="10.00"> </text>
</g>
<!-- Node5&#45;&gt;Node4 -->
<g id="edge4" class="edge"><title>Node5&#45;&gt;Node4</title>
<path fill="none" stroke="#404040" d="M182.404,-1010.28C158.721,-1006.66 112.239,-995.948 89,-966 65.8418,-936.156 60.5966,-893.292 60.7242,-859.889"/>
<polygon fill="none" stroke="#404040" points="60.731,-859.595 56.8716,-853.503 61.0101,-847.598 64.8694,-853.689 60.731,-859.595"/>
<text text-anchor="middle" x="113.5" y="-957.5" font-family="Helvetica,sans-Serif" font-size="10.00"> +elements</text>
</g>
<!-- Node7 -->
<g id="node7" class="node"><title>Node7</title>
<g id="a_node7"><a xlink:title="STL class. ">
<polygon fill="white" stroke="#bfbfbf" points="235,-867 235,-935 363,-935 363,-867 235,-867"/>
<text text-anchor="start" x="243" y="-923" font-family="Helvetica,sans-Serif" font-size="10.00">std::vector&lt; T, Eigen</text>
<text text-anchor="middle" x="299" y="-912" font-family="Helvetica,sans-Serif" font-size="10.00">::aligned_allocator&lt; T &gt; &gt;</text>
<polyline fill="none" stroke="#bfbfbf" points="235,-905 363,-905 "/>
<text text-anchor="middle" x="299" y="-893" font-family="Helvetica,sans-Serif" font-size="10.00"> </text>
<polyline fill="none" stroke="#bfbfbf" points="235,-886 363,-886 "/>
<text text-anchor="middle" x="299" y="-874" font-family="Helvetica,sans-Serif" font-size="10.00"> </text>
</a>
</g>
</g>
<!-- Node5&#45;&gt;Node7 -->
<g id="edge7" class="edge"><title>Node5&#45;&gt;Node7</title>
<path fill="none" stroke="#404040" d="M211.614,-996.24C224.092,-982.783 242.633,-962.788 259.43,-944.673"/>
<polygon fill="none" stroke="#404040" points="259.854,-944.216 261.001,-937.096 268.014,-935.417 266.867,-942.536 259.854,-944.216"/>
<text text-anchor="middle" x="272.5" y="-957.5" font-family="Helvetica,sans-Serif" font-size="10.00"> +elements</text>
</g>
<!-- Node10 -->
<g id="node10" class="node"><title>Node10</title>
<g id="a_node10"><a xlink:title="STL class. ">
<polygon fill="white" stroke="#bfbfbf" points="83.5,-681 83.5,-749 212.5,-749 212.5,-681 83.5,-681"/>
<text text-anchor="start" x="91.5" y="-737" font-family="Helvetica,sans-Serif" font-size="10.00">std::vector&lt; V, Eigen</text>
<text text-anchor="middle" x="148" y="-726" font-family="Helvetica,sans-Serif" font-size="10.00">::aligned_allocator&lt; V &gt; &gt;</text>
<polyline fill="none" stroke="#bfbfbf" points="83.5,-719 212.5,-719 "/>
<text text-anchor="middle" x="148" y="-707" font-family="Helvetica,sans-Serif" font-size="10.00"> </text>
<polyline fill="none" stroke="#bfbfbf" points="83.5,-700 212.5,-700 "/>
<text text-anchor="middle" x="148" y="-688" font-family="Helvetica,sans-Serif" font-size="10.00"> </text>
</a>
</g>
</g>
<!-- Node5&#45;&gt;Node10 -->
<g id="edge11" class="edge"><title>Node5&#45;&gt;Node10</title>
<path fill="none" stroke="#404040" d="M188.838,-984.4C184.828,-970.063 180.186,-952.199 177,-936 165.201,-876.008 156.886,-805.846 152.27,-761.18"/>
<polygon fill="none" stroke="#404040" points="152.246,-760.95 147.663,-755.383 151.038,-749.011 155.622,-754.578 152.246,-760.95"/>
<text text-anchor="middle" x="201.5" y="-898.5" font-family="Helvetica,sans-Serif" font-size="10.00"> +elements</text>
</g>
<!-- Node13 -->
<g id="node13" class="node"><title>Node13</title>
<g id="a_node13"><a xlink:title="STL class. ">
<polygon fill="white" stroke="#bfbfbf" points="354.5,-768.5 354.5,-847.5 477.5,-847.5 477.5,-768.5 354.5,-768.5"/>
<text text-anchor="start" x="362.5" y="-835.5" font-family="Helvetica,sans-Serif" font-size="10.00">std::vector&lt; Face,</text>
<text text-anchor="start" x="362.5" y="-824.5" font-family="Helvetica,sans-Serif" font-size="10.00"> Eigen::aligned_allocator</text>
<text text-anchor="middle" x="416" y="-813.5" font-family="Helvetica,sans-Serif" font-size="10.00">&lt; Face &gt; &gt;</text>
<polyline fill="none" stroke="#bfbfbf" points="354.5,-806.5 477.5,-806.5 "/>
<text text-anchor="middle" x="416" y="-794.5" font-family="Helvetica,sans-Serif" font-size="10.00"> </text>
<polyline fill="none" stroke="#bfbfbf" points="354.5,-787.5 477.5,-787.5 "/>
<text text-anchor="middle" x="416" y="-775.5" font-family="Helvetica,sans-Serif" font-size="10.00"> </text>
</a>
</g>
</g>
<!-- Node5&#45;&gt;Node13 -->
<g id="edge16" class="edge"><title>Node5&#45;&gt;Node13</title>
<path fill="none" stroke="#404040" d="M211.995,-1009.66C245.49,-1003.65 326.975,-984.594 372,-936 391.441,-915.018 402.353,-885.009 408.446,-859.43"/>
<polygon fill="none" stroke="#404040" points="408.454,-859.393 405.814,-852.682 410.993,-847.664 413.633,-854.375 408.454,-859.393"/>
<text text-anchor="middle" x="375.5" y="-957.5" font-family="Helvetica,sans-Serif" font-size="10.00"> +elements</text>
</g>
<!-- Node6 -->
<g id="node6" class="node"><title>Node6</title>
<g id="a_node6"><a xlink:href="structRa_1_1Core_1_1AlignedStdVector.html" target="_top" xlink:title="Shortcut for the ubiquitous aligned std::vector Uses Eigen&#39;s aligned allocator, as stated in http://e...">
<polygon fill="white" stroke="black" points="231,-686.5 231,-743.5 393,-743.5 393,-686.5 231,-686.5"/>
<text text-anchor="middle" x="312" y="-731.5" font-family="Helvetica,sans-Serif" font-size="10.00">Ra::Core::AlignedStdVector&lt; T &gt;</text>
<polyline fill="none" stroke="black" points="231,-724.5 393,-724.5 "/>
<text text-anchor="middle" x="312" y="-712.5" font-family="Helvetica,sans-Serif" font-size="10.00"> </text>
<polyline fill="none" stroke="black" points="231,-705.5 393,-705.5 "/>
<text text-anchor="middle" x="312" y="-693.5" font-family="Helvetica,sans-Serif" font-size="10.00"> </text>
</a>
</g>
</g>
<!-- Node6&#45;&gt;Node3 -->
<g id="edge5" class="edge"><title>Node6&#45;&gt;Node3</title>
<path fill="none" stroke="orange" d="M244.925,-681.981C211.697,-666.119 171.623,-646.989 138.121,-630.996"/>
<polygon fill="orange" stroke="orange" points="243.572,-685.213 254.104,-686.362 246.587,-678.896 243.572,-685.213"/>
<text text-anchor="middle" x="226" y="-653.5" font-family="Helvetica,sans-Serif" font-size="10.00"> &lt; Triangle &gt;</text>
</g>
<!-- Node9 -->
<g id="node9" class="node"><title>Node9</title>
<g id="a_node9"><a xlink:href="structRa_1_1Core_1_1AlignedStdVector.html" target="_top" xlink:title="{Ra::Core::AlignedStdVector\&lt; V \&gt;\n||}">
<polygon fill="white" stroke="black" points="156.5,-568.5 156.5,-625.5 319.5,-625.5 319.5,-568.5 156.5,-568.5"/>
<text text-anchor="middle" x="238" y="-613.5" font-family="Helvetica,sans-Serif" font-size="10.00">Ra::Core::AlignedStdVector&lt; V &gt;</text>
<polyline fill="none" stroke="black" points="156.5,-606.5 319.5,-606.5 "/>
<text text-anchor="middle" x="238" y="-594.5" font-family="Helvetica,sans-Serif" font-size="10.00"> </text>
<polyline fill="none" stroke="black" points="156.5,-587.5 319.5,-587.5 "/>
<text text-anchor="middle" x="238" y="-575.5" font-family="Helvetica,sans-Serif" font-size="10.00"> </text>
</a>
</g>
</g>
<!-- Node6&#45;&gt;Node9 -->
<g id="edge12" class="edge"><title>Node6&#45;&gt;Node9</title>
<path fill="none" stroke="orange" d="M288.845,-677.703C278.099,-660.857 265.532,-641.158 255.58,-625.558"/>
<polygon fill="orange" stroke="orange" points="285.946,-679.667 294.275,-686.215 291.848,-675.902 285.946,-679.667"/>
<text text-anchor="middle" x="292" y="-653.5" font-family="Helvetica,sans-Serif" font-size="10.00"> &lt; V &gt;</text>
</g>
<!-- Node12 -->
<g id="node12" class="node"><title>Node12</title>
<g id="a_node12"><a xlink:href="structRa_1_1Core_1_1AlignedStdVector.html" target="_top" xlink:title="{Ra::Core::AlignedStdVector\l\&lt; Face \&gt;\n||}">
<polygon fill="white" stroke="black" points="338,-563 338,-631 476,-631 476,-563 338,-563"/>
<text text-anchor="start" x="346" y="-619" font-family="Helvetica,sans-Serif" font-size="10.00">Ra::Core::AlignedStdVector</text>
<text text-anchor="middle" x="407" y="-608" font-family="Helvetica,sans-Serif" font-size="10.00">&lt; Face &gt;</text>
<polyline fill="none" stroke="black" points="338,-601 476,-601 "/>
<text text-anchor="middle" x="407" y="-589" font-family="Helvetica,sans-Serif" font-size="10.00"> </text>
<polyline fill="none" stroke="black" points="338,-582 476,-582 "/>
<text text-anchor="middle" x="407" y="-570" font-family="Helvetica,sans-Serif" font-size="10.00"> </text>
</a>
</g>
</g>
<!-- Node6&#45;&gt;Node12 -->
<g id="edge17" class="edge"><title>Node6&#45;&gt;Node12</title>
<path fill="none" stroke="orange" d="M340.892,-678.33C348.4,-669.09 356.489,-659.163 364,-650 368.976,-643.93 374.292,-637.475 379.43,-631.253"/>
<polygon fill="orange" stroke="orange" points="338.059,-676.266 334.472,-686.236 343.493,-680.679 338.059,-676.266"/>
<text text-anchor="middle" x="385.5" y="-653.5" font-family="Helvetica,sans-Serif" font-size="10.00"> &lt; Face &gt;</text>
</g>
<!-- Node7&#45;&gt;Node6 -->
<g id="edge6" class="edge"><title>Node7&#45;&gt;Node6</title>
<path fill="none" stroke="midnightblue" d="M302.088,-856.291C304.555,-821.369 307.938,-773.49 310.045,-743.668"/>
<polygon fill="none" stroke="midnightblue" points="298.568,-856.457 301.354,-866.679 305.55,-856.951 298.568,-856.457"/>
</g>
<!-- Node8 -->
<g id="node8" class="node"><title>Node8</title>
<g id="a_node8"><a xlink:href="classRa_1_1Core_1_1VectorArray.html" target="_top" xlink:title="This class is a wrapper around a std::vector of Core::Vectors. ">
<polygon fill="white" stroke="black" points="168.5,-455 168.5,-523 307.5,-523 307.5,-455 168.5,-455"/>
<text text-anchor="middle" x="238" y="-511" font-family="Helvetica,sans-Serif" font-size="10.00">Ra::Core::VectorArray&lt; V &gt;</text>
<polyline fill="none" stroke="black" points="168.5,-504 307.5,-504 "/>
<text text-anchor="middle" x="238" y="-492" font-family="Helvetica,sans-Serif" font-size="10.00"> </text>
<polyline fill="none" stroke="black" points="168.5,-485 307.5,-485 "/>
<text text-anchor="start" x="176.5" y="-473" font-family="Helvetica,sans-Serif" font-size="10.00">+ getMap()</text>
<text text-anchor="start" x="176.5" y="-462" font-family="Helvetica,sans-Serif" font-size="10.00">+ getMap()</text>
</a>
</g>
</g>
<!-- Node8&#45;&gt;Node2 -->
<g id="edge8" class="edge"><title>Node8&#45;&gt;Node2</title>
<path fill="none" stroke="orange" d="M208.3,-446.578C205.812,-443.012 203.351,-439.451 201,-436 194.316,-426.191 187.235,-415.489 180.718,-405.505"/>
<polygon fill="orange" stroke="orange" points="205.5,-448.681 214.112,-454.852 211.228,-444.657 205.5,-448.681"/>
<text text-anchor="middle" x="229" y="-427.5" font-family="Helvetica,sans-Serif" font-size="10.00"> &lt; Triangle &gt;</text>
</g>
<!-- Node11 -->
<g id="node11" class="node"><title>Node11</title>
<g id="a_node11"><a xlink:href="classRa_1_1Core_1_1VectorArray.html" target="_top" xlink:title="{Ra::Core::VectorArray\l\&lt; Face \&gt;\n||+ getMap()\l+ getMap()\l}">
<polygon fill="white" stroke="black" points="231,-326.5 231,-405.5 345,-405.5 345,-326.5 231,-326.5"/>
<text text-anchor="start" x="239" y="-393.5" font-family="Helvetica,sans-Serif" font-size="10.00">Ra::Core::VectorArray</text>
<text text-anchor="middle" x="288" y="-382.5" font-family="Helvetica,sans-Serif" font-size="10.00">&lt; Face &gt;</text>
<polyline fill="none" stroke="black" points="231,-375.5 345,-375.5 "/>
<text text-anchor="middle" x="288" y="-363.5" font-family="Helvetica,sans-Serif" font-size="10.00"> </text>
<polyline fill="none" stroke="black" points="231,-356.5 345,-356.5 "/>
<text text-anchor="start" x="239" y="-344.5" font-family="Helvetica,sans-Serif" font-size="10.00">+ getMap()</text>
<text text-anchor="start" x="239" y="-333.5" font-family="Helvetica,sans-Serif" font-size="10.00">+ getMap()</text>
</a>
</g>
</g>
<!-- Node8&#45;&gt;Node11 -->
<g id="edge18" class="edge"><title>Node8&#45;&gt;Node11</title>
<path fill="none" stroke="orange" d="M255.637,-445.32C260.983,-432.382 266.822,-418.251 272.051,-405.597"/>
<polygon fill="orange" stroke="orange" points="252.247,-444.358 251.663,-454.936 258.717,-447.031 252.247,-444.358"/>
<text text-anchor="middle" x="284.5" y="-427.5" font-family="Helvetica,sans-Serif" font-size="10.00"> &lt; Face &gt;</text>
</g>
<!-- Node9&#45;&gt;Node8 -->
<g id="edge9" class="edge"><title>Node9&#45;&gt;Node8</title>
<path fill="none" stroke="midnightblue" d="M238,-558.247C238,-546.768 238,-534.245 238,-523.097"/>
<polygon fill="none" stroke="midnightblue" points="234.5,-558.426 238,-568.426 241.5,-558.426 234.5,-558.426"/>
</g>
<!-- Node10&#45;&gt;Node9 -->
<g id="edge10" class="edge"><title>Node10&#45;&gt;Node9</title>
<path fill="none" stroke="midnightblue" d="M170.14,-671.916C174.709,-664.382 179.743,-656.78 185,-650 191.556,-641.545 199.432,-633.106 207.083,-625.562"/>
<polygon fill="none" stroke="midnightblue" points="167.043,-670.278 165.003,-680.674 173.081,-673.819 167.043,-670.278"/>
</g>
<!-- Node11&#45;&gt;Node1 -->
<g id="edge13" class="edge"><title>Node11&#45;&gt;Node1</title>
<path fill="none" stroke="#404040" d="M277.514,-326.321C274.563,-315.437 271.165,-302.902 267.555,-289.587"/>
<polygon fill="none" stroke="#404040" points="267.474,-289.289 262.043,-284.545 264.334,-277.707 269.765,-282.451 267.474,-289.289"/>
<text text-anchor="middle" x="295.5" y="-299.5" font-family="Helvetica,sans-Serif" font-size="10.00"> +m_faces</text>
</g>
<!-- Node12&#45;&gt;Node11 -->
<g id="edge14" class="edge"><title>Node12&#45;&gt;Node11</title>
<path fill="none" stroke="midnightblue" d="M385.049,-553.757C363.041,-511.406 329.443,-446.753 308.111,-405.701"/>
<polygon fill="none" stroke="midnightblue" points="381.98,-555.442 389.696,-562.701 388.191,-552.214 381.98,-555.442"/>
</g>
<!-- Node13&#45;&gt;Node12 -->
<g id="edge15" class="edge"><title>Node13&#45;&gt;Node12</title>
<path fill="none" stroke="midnightblue" d="M413.893,-758.076C412.21,-718.996 409.898,-665.289 408.426,-631.108"/>
<polygon fill="none" stroke="midnightblue" points="410.401,-758.338 414.328,-768.179 417.395,-758.037 410.401,-758.338"/>
</g>
</g>
</svg>
