<?xml version="1.0" encoding="UTF-8" standalone="no"?>
<!DOCTYPE svg PUBLIC "-//W3C//DTD SVG 1.1//EN"
 "http://www.w3.org/Graphics/SVG/1.1/DTD/svg11.dtd">
<!-- Generated by graphviz version 2.36.0 (20140111.2315)
 -->
<!-- Title: CameraManipPlugin::CameraManipPluginC::onCurrentChanged Pages: 1 -->
<svg width="838pt" height="111pt"
 viewBox="0.00 0.00 838.00 111.00" xmlns="http://www.w3.org/2000/svg" xmlns:xlink="http://www.w3.org/1999/xlink">
<g id="graph0" class="graph" transform="scale(1 1) rotate(0) translate(4 107)">
<title>CameraManipPlugin::CameraManipPluginC::onCurrentChanged</title>
<polygon fill="white" stroke="none" points="-4,4 -4,-107 834,-107 834,4 -4,4"/>
<!-- Node1 -->
<g id="node1" class="node"><title>Node1</title>
<polygon fill="#bfbfbf" stroke="black" points="0,-18.5 0,-59.5 118,-59.5 118,-18.5 0,-18.5"/>
<text text-anchor="start" x="8" y="-47.5" font-family="Helvetica,sans-Serif" font-size="10.00">CameraManipPlugin::</text>
<text text-anchor="start" x="8" y="-36.5" font-family="Helvetica,sans-Serif" font-size="10.00">CameraManipPluginC::</text>
<text text-anchor="middle" x="59" y="-25.5" font-family="Helvetica,sans-Serif" font-size="10.00">onCurrentChanged</text>
</g>
<!-- Node2 -->
<g id="node2" class="node"><title>Node2</title>
<g id="a_node2"><a xlink:href="classRa_1_1GuiBase_1_1SelectionManager.html#a29cbd250208f1e18d2ab1e0f4d91105d" target="_top" xlink:title="Return the current selected item, or an invalid entry if there is no current item. ">
<polygon fill="white" stroke="black" points="154.5,-49 154.5,-79 311.5,-79 311.5,-49 154.5,-49"/>
<text text-anchor="start" x="162.5" y="-67" font-family="Helvetica,sans-Serif" font-size="10.00">Ra::GuiBase::SelectionManager</text>
<text text-anchor="middle" x="233" y="-56" font-family="Helvetica,sans-Serif" font-size="10.00">::currentItem</text>
</a>
</g>
</g>
<!-- Node1&#45;&gt;Node2 -->
<g id="edge1" class="edge"><title>Node1&#45;&gt;Node2</title>
<path fill="none" stroke="midnightblue" d="M118.231,-47.4639C126.658,-48.6886 135.482,-49.9713 144.331,-51.2574"/>
<polygon fill="midnightblue" stroke="midnightblue" points="143.911,-54.7331 154.311,-52.708 144.918,-47.8059 143.911,-54.7331"/>
</g>
<!-- Node7 -->
<g id="node7" class="node"><title>Node7</title>
<g id="a_node7"><a xlink:href="classRa_1_1Engine_1_1Component.html#aa3e5cb90432a9a49e4362b673652ff76" target="_top" xlink:title="Return the component&#39;s name. ">
<polygon fill="white" stroke="black" points="172,-0 172,-30 294,-30 294,-0 172,-0"/>
<text text-anchor="start" x="180" y="-18" font-family="Helvetica,sans-Serif" font-size="10.00">Ra::Engine::Component</text>
<text text-anchor="middle" x="233" y="-7" font-family="Helvetica,sans-Serif" font-size="10.00">::getName</text>
</a>
</g>
</g>
<!-- Node1&#45;&gt;Node7 -->
<g id="edge6" class="edge"><title>Node1&#45;&gt;Node7</title>
<path fill="none" stroke="midnightblue" d="M118.231,-30.8747C132.247,-28.919 147.365,-26.8095 161.86,-24.7869"/>
<polygon fill="midnightblue" stroke="midnightblue" points="162.354,-28.252 171.775,-23.4035 161.387,-21.3191 162.354,-28.252"/>
</g>
<!-- Node3 -->
<g id="node3" class="node"><title>Node3</title>
<g id="a_node3"><a xlink:href="classRa_1_1GuiBase_1_1SelectionManager.html#aec178a6b3de1c04e5e1d16ff72c6e966" target="_top" xlink:title="Ra::GuiBase::SelectionManager\l::itemModel">
<polygon fill="white" stroke="black" points="348.5,-73 348.5,-103 505.5,-103 505.5,-73 348.5,-73"/>
<text text-anchor="start" x="356.5" y="-91" font-family="Helvetica,sans-Serif" font-size="10.00">Ra::GuiBase::SelectionManager</text>
<text text-anchor="middle" x="427" y="-80" font-family="Helvetica,sans-Serif" font-size="10.00">::itemModel</text>
</a>
</g>
</g>
<!-- Node2&#45;&gt;Node3 -->
<g id="edge2" class="edge"><title>Node2&#45;&gt;Node3</title>
<path fill="none" stroke="midnightblue" d="M311.54,-73.6925C320.388,-74.7985 329.452,-75.9315 338.418,-77.0523"/>
<polygon fill="midnightblue" stroke="midnightblue" points="338.125,-80.5428 348.482,-78.3103 338.994,-73.5969 338.125,-80.5428"/>
</g>
<!-- Node4 -->
<g id="node4" class="node"><title>Node4</title>
<g id="a_node4"><a xlink:href="classRa_1_1GuiBase_1_1ItemModel.html#a3236433d461ad6cac5e9390b2685fa3f" target="_top" xlink:title="Returns the entry corresponding to a given index or an invalid entry if the index doesn&#39;t match any e...">
<polygon fill="white" stroke="black" points="364.5,-24 364.5,-54 489.5,-54 489.5,-24 364.5,-24"/>
<text text-anchor="start" x="372.5" y="-42" font-family="Helvetica,sans-Serif" font-size="10.00">Ra::GuiBase::ItemModel</text>
<text text-anchor="middle" x="427" y="-31" font-family="Helvetica,sans-Serif" font-size="10.00">::getEntry</text>
</a>
</g>
</g>
<!-- Node2&#45;&gt;Node4 -->
<g id="edge3" class="edge"><title>Node2&#45;&gt;Node4</title>
<path fill="none" stroke="midnightblue" d="M311.54,-53.9036C325.694,-52.0607 340.404,-50.1453 354.376,-48.3261"/>
<polygon fill="midnightblue" stroke="midnightblue" points="354.937,-51.7827 364.401,-47.0207 354.033,-44.8413 354.937,-51.7827"/>
</g>
<!-- Node5 -->
<g id="node5" class="node"><title>Node5</title>
<g id="a_node5"><a xlink:href="classRa_1_1GuiBase_1_1TreeModel.html#a5aa24ace72c1c3d29e268cb34dc576f2" target="_top" xlink:title="Get the tree item corresponding to the given index. ">
<polygon fill="white" stroke="black" points="542.5,-24 542.5,-54 667.5,-54 667.5,-24 542.5,-24"/>
<text text-anchor="start" x="550.5" y="-42" font-family="Helvetica,sans-Serif" font-size="10.00">Ra::GuiBase::TreeModel</text>
<text text-anchor="middle" x="605" y="-31" font-family="Helvetica,sans-Serif" font-size="10.00">::getItem</text>
</a>
</g>
</g>
<!-- Node4&#45;&gt;Node5 -->
<g id="edge4" class="edge"><title>Node4&#45;&gt;Node5</title>
<path fill="none" stroke="midnightblue" d="M489.556,-39C503.356,-39 518.112,-39 532.284,-39"/>
<polygon fill="midnightblue" stroke="midnightblue" points="532.479,-42.5001 542.478,-39 532.478,-35.5001 532.479,-42.5001"/>
</g>
<!-- Node6 -->
<g id="node6" class="node"><title>Node6</title>
<g id="a_node6"><a xlink:href="classRa_1_1GuiBase_1_1TreeModel.html#a972106921da4c960f23f81722d3b4cf5" target="_top" xlink:title="Internal functions to check if an item is in the tree. ">
<polygon fill="white" stroke="black" points="704.5,-24 704.5,-54 829.5,-54 829.5,-24 704.5,-24"/>
<text text-anchor="start" x="712.5" y="-42" font-family="Helvetica,sans-Serif" font-size="10.00">Ra::GuiBase::TreeModel</text>
<text text-anchor="middle" x="767" y="-31" font-family="Helvetica,sans-Serif" font-size="10.00">::findInTree</text>
</a>
</g>
</g>
<!-- Node5&#45;&gt;Node6 -->
<g id="edge5" class="edge"><title>Node5&#45;&gt;Node6</title>
<path fill="none" stroke="midnightblue" d="M667.86,-39C676.456,-39 685.347,-39 694.107,-39"/>
<polygon fill="midnightblue" stroke="midnightblue" points="694.304,-42.5001 704.304,-39 694.304,-35.5001 694.304,-42.5001"/>
</g>
</g>
</svg>
