<?xml version="1.0" encoding="UTF-8" standalone="no"?>
<!DOCTYPE svg PUBLIC "-//W3C//DTD SVG 1.1//EN"
 "http://www.w3.org/Graphics/SVG/1.1/DTD/svg11.dtd">
<!-- Generated by graphviz version 2.36.0 (20140111.2315)
 -->
<!-- Title: Ra::IO::AssimpCameraDataLoader Pages: 1 -->
<svg width="261pt" height="574pt"
 viewBox="0.00 0.00 261.00 574.00" xmlns="http://www.w3.org/2000/svg" xmlns:xlink="http://www.w3.org/1999/xlink">
<g id="graph0" class="graph" transform="scale(1 1) rotate(0) translate(4 570)">
<title>Ra::IO::AssimpCameraDataLoader</title>
<polygon fill="white" stroke="none" points="-4,4 -4,-570 257,-570 257,4 -4,4"/>
<!-- Node1 -->
<g id="node1" class="node"><title>Node1</title>
<polygon fill="#bfbfbf" stroke="black" points="-0.5,-0.5 -0.5,-145.5 154.5,-145.5 154.5,-0.5 -0.5,-0.5"/>
<text text-anchor="start" x="7.5" y="-133.5" font-family="Helvetica,sans-Serif" font-size="10.00">Ra::IO::AssimpCameraData</text>
<text text-anchor="middle" x="77" y="-122.5" font-family="Helvetica,sans-Serif" font-size="10.00">Loader</text>
<polyline fill="none" stroke="black" points="-0.5,-115.5 154.5,-115.5 "/>
<text text-anchor="middle" x="77" y="-103.5" font-family="Helvetica,sans-Serif" font-size="10.00"> </text>
<polyline fill="none" stroke="black" points="-0.5,-96.5 154.5,-96.5 "/>
<text text-anchor="start" x="7.5" y="-84.5" font-family="Helvetica,sans-Serif" font-size="10.00">+ AssimpCameraDataLoader()</text>
<text text-anchor="start" x="7.5" y="-73.5" font-family="Helvetica,sans-Serif" font-size="10.00">+ ~AssimpCameraDataLoader()</text>
<text text-anchor="start" x="7.5" y="-62.5" font-family="Helvetica,sans-Serif" font-size="10.00">+ loadData()</text>
<text text-anchor="start" x="7.5" y="-51.5" font-family="Helvetica,sans-Serif" font-size="10.00"># sceneHasCamera()</text>
<text text-anchor="start" x="7.5" y="-40.5" font-family="Helvetica,sans-Serif" font-size="10.00"># sceneCameraSize()</text>
<text text-anchor="start" x="7.5" y="-29.5" font-family="Helvetica,sans-Serif" font-size="10.00"># loadCameraData()</text>
<text text-anchor="start" x="7.5" y="-18.5" font-family="Helvetica,sans-Serif" font-size="10.00"># fetchName()</text>
<text text-anchor="start" x="7.5" y="-7.5" font-family="Helvetica,sans-Serif" font-size="10.00"># loadCameraFrame()</text>
</g>
<!-- Node2 -->
<g id="node2" class="node"><title>Node2</title>
<g id="a_node2"><a xlink:href="classRa_1_1Asset_1_1DataLoader.html" target="_top" xlink:title="{Ra::Asset::DataLoader\l\&lt; Asset::CameraData \&gt;\n||+ DataLoader()\l+ ~DataLoader()\l+ loadData()\l+ isVerbose()\l+ setVerbose()\l}">
<polygon fill="white" stroke="black" points="16,-185 16,-297 138,-297 138,-185 16,-185"/>
<text text-anchor="start" x="24" y="-285" font-family="Helvetica,sans-Serif" font-size="10.00">Ra::Asset::DataLoader</text>
<text text-anchor="middle" x="77" y="-274" font-family="Helvetica,sans-Serif" font-size="10.00">&lt; Asset::CameraData &gt;</text>
<polyline fill="none" stroke="black" points="16,-267 138,-267 "/>
<text text-anchor="middle" x="77" y="-255" font-family="Helvetica,sans-Serif" font-size="10.00"> </text>
<polyline fill="none" stroke="black" points="16,-248 138,-248 "/>
<text text-anchor="start" x="24" y="-236" font-family="Helvetica,sans-Serif" font-size="10.00">+ DataLoader()</text>
<text text-anchor="start" x="24" y="-225" font-family="Helvetica,sans-Serif" font-size="10.00">+ ~DataLoader()</text>
<text text-anchor="start" x="24" y="-214" font-family="Helvetica,sans-Serif" font-size="10.00">+ loadData()</text>
<text text-anchor="start" x="24" y="-203" font-family="Helvetica,sans-Serif" font-size="10.00">+ isVerbose()</text>
<text text-anchor="start" x="24" y="-192" font-family="Helvetica,sans-Serif" font-size="10.00">+ setVerbose()</text>
</a>
</g>
</g>
<!-- Node2&#45;&gt;Node1 -->
<g id="edge1" class="edge"><title>Node2&#45;&gt;Node1</title>
<path fill="none" stroke="midnightblue" d="M77,-174.552C77,-165.037 77,-155.199 77,-145.571"/>
<polygon fill="none" stroke="midnightblue" points="73.5001,-174.724 77,-184.724 80.5001,-174.724 73.5001,-174.724"/>
</g>
<!-- Node3 -->
<g id="node3" class="node"><title>Node3</title>
<g id="a_node3"><a xlink:href="classbool.html" target="_top" xlink:title="{bool\n||}">
<polygon fill="white" stroke="black" points="84.5,-508.5 84.5,-565.5 119.5,-565.5 119.5,-508.5 84.5,-508.5"/>
<text text-anchor="middle" x="102" y="-553.5" font-family="Helvetica,sans-Serif" font-size="10.00">bool</text>
<polyline fill="none" stroke="black" points="84.5,-546.5 119.5,-546.5 "/>
<text text-anchor="middle" x="102" y="-534.5" font-family="Helvetica,sans-Serif" font-size="10.00"> </text>
<polyline fill="none" stroke="black" points="84.5,-527.5 119.5,-527.5 "/>
<text text-anchor="middle" x="102" y="-515.5" font-family="Helvetica,sans-Serif" font-size="10.00"> </text>
</a>
</g>
</g>
<!-- Node3&#45;&gt;Node2 -->
<g id="edge2" class="edge"><title>Node3&#45;&gt;Node2</title>
<path fill="none" stroke="#404040" d="M87.6716,-508.296C81.1912,-494.232 74.2633,-476.64 71,-460 61.2309,-410.184 63.3408,-352.75 67.5663,-309.343"/>
<polygon fill="none" stroke="#404040" points="67.5875,-309.139 64.2345,-302.755 68.838,-297.205 72.191,-303.589 67.5875,-309.139"/>
<text text-anchor="middle" x="99.5" y="-400.5" font-family="Helvetica,sans-Serif" font-size="10.00"> #m_verbose</text>
</g>
<!-- Node4 -->
<g id="node4" class="node"><title>Node4</title>
<g id="a_node4"><a xlink:href="classRa_1_1Asset_1_1DataLoader.html" target="_top" xlink:title="{Ra::Asset::DataLoader\l\&lt; DATA \&gt;\n||+ DataLoader()\l+ ~DataLoader()\l+ loadData()\l+ isVerbose()\l+ setVerbose()\l}">
<polygon fill="white" stroke="black" points="136.5,-347 136.5,-459 253.5,-459 253.5,-347 136.5,-347"/>
<text text-anchor="start" x="144.5" y="-447" font-family="Helvetica,sans-Serif" font-size="10.00">Ra::Asset::DataLoader</text>
<text text-anchor="middle" x="195" y="-436" font-family="Helvetica,sans-Serif" font-size="10.00">&lt; DATA &gt;</text>
<polyline fill="none" stroke="black" points="136.5,-429 253.5,-429 "/>
<text text-anchor="middle" x="195" y="-417" font-family="Helvetica,sans-Serif" font-size="10.00"> </text>
<polyline fill="none" stroke="black" points="136.5,-410 253.5,-410 "/>
<text text-anchor="start" x="144.5" y="-398" font-family="Helvetica,sans-Serif" font-size="10.00">+ DataLoader()</text>
<text text-anchor="start" x="144.5" y="-387" font-family="Helvetica,sans-Serif" font-size="10.00">+ ~DataLoader()</text>
<text text-anchor="start" x="144.5" y="-376" font-family="Helvetica,sans-Serif" font-size="10.00">+ loadData()</text>
<text text-anchor="start" x="144.5" y="-365" font-family="Helvetica,sans-Serif" font-size="10.00">+ isVerbose()</text>
<text text-anchor="start" x="144.5" y="-354" font-family="Helvetica,sans-Serif" font-size="10.00">+ setVerbose()</text>
</a>
</g>
</g>
<!-- Node3&#45;&gt;Node4 -->
<g id="edge4" class="edge"><title>Node3&#45;&gt;Node4</title>
<path fill="none" stroke="#404040" d="M119.711,-510.861C128.104,-498.949 138.56,-484.109 148.983,-469.315"/>
<polygon fill="none" stroke="#404040" points="149.256,-468.926 149.442,-461.718 156.168,-459.117 155.982,-466.325 149.256,-468.926"/>
<text text-anchor="middle" x="168.5" y="-481.5" font-family="Helvetica,sans-Serif" font-size="10.00"> #m_verbose</text>
</g>
<!-- Node4&#45;&gt;Node2 -->
<g id="edge3" class="edge"><title>Node4&#45;&gt;Node2</title>
<path fill="none" stroke="orange" d="M148.186,-338.523C138.099,-324.846 127.515,-310.494 117.684,-297.164"/>
<polygon fill="orange" stroke="orange" points="145.639,-340.966 154.391,-346.937 151.272,-336.812 145.639,-340.966"/>
<text text-anchor="middle" x="193.5" y="-319.5" font-family="Helvetica,sans-Serif" font-size="10.00"> &lt; Asset::CameraData &gt;</text>
</g>
</g>
</svg>
