<?xml version="1.0" encoding="UTF-8" standalone="no"?>
<!DOCTYPE svg PUBLIC "-//W3C//DTD SVG 1.1//EN"
 "http://www.w3.org/Graphics/SVG/1.1/DTD/svg11.dtd">
<!-- Generated by graphviz version 2.36.0 (20140111.2315)
 -->
<!-- Title: MeshPaintUI Pages: 1 -->
<svg width="102pt" height="172pt"
 viewBox="0.00 0.00 102.00 172.00" xmlns="http://www.w3.org/2000/svg" xmlns:xlink="http://www.w3.org/1999/xlink">
<g id="graph0" class="graph" transform="scale(1 1) rotate(0) translate(4 168)">
<title>MeshPaintUI</title>
<polygon fill="white" stroke="none" points="-4,4 -4,-168 98,-168 98,4 -4,4"/>
<!-- Node1 -->
<g id="node1" class="node"><title>Node1</title>
<polygon fill="#bfbfbf" stroke="black" points="-0.5,-1 -0.5,-69 94.5,-69 94.5,-1 -0.5,-1"/>
<text text-anchor="middle" x="47" y="-57" font-family="Helvetica,sans-Serif" font-size="10.00">MeshPaintUI</text>
<polyline fill="none" stroke="black" points="-0.5,-50 94.5,-50 "/>
<text text-anchor="middle" x="47" y="-38" font-family="Helvetica,sans-Serif" font-size="10.00"> </text>
<polyline fill="none" stroke="black" points="-0.5,-31 94.5,-31 "/>
<text text-anchor="start" x="7.5" y="-19" font-family="Helvetica,sans-Serif" font-size="10.00">+ MeshPaintUI()</text>
<text text-anchor="start" x="7.5" y="-8" font-family="Helvetica,sans-Serif" font-size="10.00">+ ~MeshPaintUI()</text>
</g>
<!-- Node2 -->
<g id="node2" class="node"><title>Node2</title>
<g id="a_node2"><a xlink:href="classQFrame.html" target="_top" xlink:title="{QFrame\n||}">
<polygon fill="white" stroke="black" points="21,-106.5 21,-163.5 73,-163.5 73,-106.5 21,-106.5"/>
<text text-anchor="middle" x="47" y="-151.5" font-family="Helvetica,sans-Serif" font-size="10.00">QFrame</text>
<polyline fill="none" stroke="black" points="21,-144.5 73,-144.5 "/>
<text text-anchor="middle" x="47" y="-132.5" font-family="Helvetica,sans-Serif" font-size="10.00"> </text>
<polyline fill="none" stroke="black" points="21,-125.5 73,-125.5 "/>
<text text-anchor="middle" x="47" y="-113.5" font-family="Helvetica,sans-Serif" font-size="10.00"> </text>
</a>
</g>
</g>
<!-- Node2&#45;&gt;Node1 -->
<g id="edge1" class="edge"><title>Node2&#45;&gt;Node1</title>
<path fill="none" stroke="midnightblue" d="M47,-96.3023C47,-87.3951 47,-77.9608 47,-69.2659"/>
<polygon fill="none" stroke="midnightblue" points="43.5001,-96.4407 47,-106.441 50.5001,-96.4408 43.5001,-96.4407"/>
</g>
</g>
</svg>
