<?xml version="1.0" encoding="UTF-8" standalone="no"?>
<!DOCTYPE svg PUBLIC "-//W3C//DTD SVG 1.1//EN"
 "http://www.w3.org/Graphics/SVG/1.1/DTD/svg11.dtd">
<!-- Generated by graphviz version 2.36.0 (20140111.2315)
 -->
<!-- Title: Ra::Core::DualQuaternion::transform Pages: 1 -->
<svg width="474pt" height="101pt"
 viewBox="0.00 0.00 474.00 101.42" xmlns="http://www.w3.org/2000/svg" xmlns:xlink="http://www.w3.org/1999/xlink">
<g id="graph0" class="graph" transform="scale(1 1) rotate(0) translate(4 97.4246)">
<title>Ra::Core::DualQuaternion::transform</title>
<polygon fill="white" stroke="none" points="-4,4 -4,-97.4246 470,-97.4246 470,4 -4,4"/>
<!-- Node1 -->
<g id="node1" class="node"><title>Node1</title>
<polygon fill="#bfbfbf" stroke="black" points="0,-49 0,-79 130,-79 130,-49 0,-49"/>
<text text-anchor="start" x="8" y="-67" font-family="Helvetica,sans-Serif" font-size="10.00">Ra::Core::DualQuaternion</text>
<text text-anchor="middle" x="65" y="-56" font-family="Helvetica,sans-Serif" font-size="10.00">::transform</text>
</g>
<!-- Node2 -->
<g id="node2" class="node"><title>Node2</title>
<g id="a_node2"><a xlink:href="namespaceRa_1_1Core_1_1Math.html#af36b0dc40414af4cc329f037d428dada" target="_top" xlink:title="Returns true if |a &#45;b| &lt; eps. ">
<polygon fill="white" stroke="black" points="332,-46 332,-76 466,-76 466,-46 332,-46"/>
<text text-anchor="start" x="340" y="-64" font-family="Helvetica,sans-Serif" font-size="10.00">Ra::Core::Math::areApprox</text>
<text text-anchor="middle" x="399" y="-53" font-family="Helvetica,sans-Serif" font-size="10.00">Equal</text>
</a>
</g>
</g>
<!-- Node1&#45;&gt;Node2 -->
<g id="edge1" class="edge"><title>Node1&#45;&gt;Node2</title>
<path fill="none" stroke="midnightblue" d="M118.516,-79.0567C133.705,-82.741 150.397,-86.1539 166,-88 223.378,-94.7889 238.705,-95.4548 296,-88 310.981,-86.0508 326.895,-82.5555 341.586,-78.7125"/>
<polygon fill="midnightblue" stroke="midnightblue" points="342.802,-82.0093 351.535,-76.0112 340.967,-75.2538 342.802,-82.0093"/>
</g>
<!-- Node3 -->
<g id="node3" class="node"><title>Node3</title>
<g id="a_node3"><a xlink:href="classRa_1_1Core_1_1DualQuaternion.html#ac7b44ebcec6435ede7183b59585e61bf" target="_top" xlink:title="Apply only the translational part of the dual quaternion to the given vector. ">
<polygon fill="white" stroke="black" points="166,-49 166,-79 296,-79 296,-49 166,-49"/>
<text text-anchor="start" x="174" y="-67" font-family="Helvetica,sans-Serif" font-size="10.00">Ra::Core::DualQuaternion</text>
<text text-anchor="middle" x="231" y="-56" font-family="Helvetica,sans-Serif" font-size="10.00">::translate</text>
</a>
</g>
</g>
<!-- Node1&#45;&gt;Node3 -->
<g id="edge2" class="edge"><title>Node1&#45;&gt;Node3</title>
<path fill="none" stroke="midnightblue" d="M130.346,-64C138.64,-64 147.187,-64 155.625,-64"/>
<polygon fill="midnightblue" stroke="midnightblue" points="155.839,-67.5001 165.839,-64 155.839,-60.5001 155.839,-67.5001"/>
</g>
<!-- Node4 -->
<g id="node4" class="node"><title>Node4</title>
<g id="a_node4"><a xlink:href="classRa_1_1Core_1_1DualQuaternion.html#adeb06a28fea639484f58da9a8a9ef217" target="_top" xlink:title="Apply only the rotational part of the dual quaternion to the given vector. ">
<polygon fill="white" stroke="black" points="166,-0 166,-30 296,-30 296,-0 166,-0"/>
<text text-anchor="start" x="174" y="-18" font-family="Helvetica,sans-Serif" font-size="10.00">Ra::Core::DualQuaternion</text>
<text text-anchor="middle" x="231" y="-7" font-family="Helvetica,sans-Serif" font-size="10.00">::rotate</text>
</a>
</g>
</g>
<!-- Node1&#45;&gt;Node4 -->
<g id="edge3" class="edge"><title>Node1&#45;&gt;Node4</title>
<path fill="none" stroke="midnightblue" d="M116.544,-48.8986C133.458,-43.8449 152.477,-38.1624 170.039,-32.9152"/>
<polygon fill="midnightblue" stroke="midnightblue" points="171.044,-36.2679 179.623,-30.0516 169.04,-29.5609 171.044,-36.2679"/>
</g>
<!-- Node4&#45;&gt;Node2 -->
<g id="edge4" class="edge"><title>Node4&#45;&gt;Node2</title>
<path fill="none" stroke="midnightblue" d="M286.355,-30.0621C301.624,-34.2934 318.367,-38.9332 334.136,-43.3029"/>
<polygon fill="midnightblue" stroke="midnightblue" points="333.235,-46.685 343.807,-45.9826 335.105,-39.9392 333.235,-46.685"/>
</g>
</g>
</svg>
