<?xml version="1.0" encoding="UTF-8" standalone="no"?>
<!DOCTYPE svg PUBLIC "-//W3C//DTD SVG 1.1//EN"
 "http://www.w3.org/Graphics/SVG/1.1/DTD/svg11.dtd">
<!-- Generated by graphviz version 2.36.0 (20140111.2315)
 -->
<!-- Title: Ra::Core::Geometry::Mapping Pages: 1 -->
<svg width="236pt" height="348pt"
 viewBox="0.00 0.00 236.00 348.00" xmlns="http://www.w3.org/2000/svg" xmlns:xlink="http://www.w3.org/1999/xlink">
<g id="graph0" class="graph" transform="scale(1 1) rotate(0) translate(4 344)">
<title>Ra::Core::Geometry::Mapping</title>
<polygon fill="white" stroke="none" points="-4,4 -4,-344 232,-344 232,4 -4,4"/>
<!-- Node1 -->
<g id="node1" class="node"><title>Node1</title>
<polygon fill="#bfbfbf" stroke="black" points="26,-0.5 26,-233.5 140,-233.5 140,-0.5 26,-0.5"/>
<text text-anchor="start" x="34" y="-221.5" font-family="Helvetica,sans-Serif" font-size="10.00">Ra::Core::Geometry</text>
<text text-anchor="middle" x="83" y="-210.5" font-family="Helvetica,sans-Serif" font-size="10.00">::Mapping</text>
<polyline fill="none" stroke="black" points="26,-203.5 140,-203.5 "/>
<text text-anchor="middle" x="83" y="-191.5" font-family="Helvetica,sans-Serif" font-size="10.00"> </text>
<polyline fill="none" stroke="black" points="26,-184.5 140,-184.5 "/>
<text text-anchor="start" x="34" y="-172.5" font-family="Helvetica,sans-Serif" font-size="10.00">+ Mapping()</text>
<text text-anchor="start" x="34" y="-161.5" font-family="Helvetica,sans-Serif" font-size="10.00">+ ~Mapping()</text>
<text text-anchor="start" x="34" y="-150.5" font-family="Helvetica,sans-Serif" font-size="10.00">+ getAlpha()</text>
<text text-anchor="start" x="34" y="-139.5" font-family="Helvetica,sans-Serif" font-size="10.00">+ setAlpha()</text>
<text text-anchor="start" x="34" y="-128.5" font-family="Helvetica,sans-Serif" font-size="10.00">+ getBeta()</text>
<text text-anchor="start" x="34" y="-117.5" font-family="Helvetica,sans-Serif" font-size="10.00">+ setBeta()</text>
<text text-anchor="start" x="34" y="-106.5" font-family="Helvetica,sans-Serif" font-size="10.00">+ getGamma()</text>
<text text-anchor="start" x="34" y="-95.5" font-family="Helvetica,sans-Serif" font-size="10.00">+ getCoord()</text>
<text text-anchor="start" x="34" y="-84.5" font-family="Helvetica,sans-Serif" font-size="10.00">+ getDelta()</text>
<text text-anchor="start" x="34" y="-73.5" font-family="Helvetica,sans-Serif" font-size="10.00">+ setDelta()</text>
<text text-anchor="start" x="34" y="-62.5" font-family="Helvetica,sans-Serif" font-size="10.00">+ getID()</text>
<text text-anchor="start" x="34" y="-51.5" font-family="Helvetica,sans-Serif" font-size="10.00">+ setID()</text>
<text text-anchor="start" x="34" y="-40.5" font-family="Helvetica,sans-Serif" font-size="10.00">+ getPoint()</text>
<text text-anchor="start" x="34" y="-29.5" font-family="Helvetica,sans-Serif" font-size="10.00">+ isFinite()</text>
<text text-anchor="start" x="34" y="-18.5" font-family="Helvetica,sans-Serif" font-size="10.00">+ isInside()</text>
<text text-anchor="start" x="34" y="-7.5" font-family="Helvetica,sans-Serif" font-size="10.00">+ isBoundToElement()</text>
</g>
<!-- Node2 -->
<g id="node2" class="node"><title>Node2</title>
<polygon fill="white" stroke="#bfbfbf" points="-0.5,-282.5 -0.5,-339.5 34.5,-339.5 34.5,-282.5 -0.5,-282.5"/>
<text text-anchor="middle" x="17" y="-327.5" font-family="Helvetica,sans-Serif" font-size="10.00">float</text>
<polyline fill="none" stroke="#bfbfbf" points="-0.5,-320.5 34.5,-320.5 "/>
<text text-anchor="middle" x="17" y="-308.5" font-family="Helvetica,sans-Serif" font-size="10.00"> </text>
<polyline fill="none" stroke="#bfbfbf" points="-0.5,-301.5 34.5,-301.5 "/>
<text text-anchor="middle" x="17" y="-289.5" font-family="Helvetica,sans-Serif" font-size="10.00"> </text>
</g>
<!-- Node2&#45;&gt;Node1 -->
<g id="edge1" class="edge"><title>Node2&#45;&gt;Node1</title>
<path fill="none" stroke="#404040" d="M25.9676,-282.229C29.0991,-272.638 32.6651,-261.834 36,-252 36.7571,-249.767 37.5233,-247.515 38.2967,-245.246"/>
<polygon fill="none" stroke="#404040" points="38.3298,-245.15 36.4888,-238.177 42.2166,-233.796 44.0575,-240.769 38.3298,-245.15"/>
<text text-anchor="middle" x="57.5" y="-255.5" font-family="Helvetica,sans-Serif" font-size="10.00"> #m_delta</text>
</g>
<!-- Node3 -->
<g id="node3" class="node"><title>Node3</title>
<polygon fill="white" stroke="#bfbfbf" points="67,-282.5 67,-339.5 99,-339.5 99,-282.5 67,-282.5"/>
<text text-anchor="middle" x="83" y="-327.5" font-family="Helvetica,sans-Serif" font-size="10.00">uint</text>
<polyline fill="none" stroke="#bfbfbf" points="67,-320.5 99,-320.5 "/>
<text text-anchor="middle" x="83" y="-308.5" font-family="Helvetica,sans-Serif" font-size="10.00"> </text>
<polyline fill="none" stroke="#bfbfbf" points="67,-301.5 99,-301.5 "/>
<text text-anchor="middle" x="83" y="-289.5" font-family="Helvetica,sans-Serif" font-size="10.00"> </text>
</g>
<!-- Node3&#45;&gt;Node1 -->
<g id="edge2" class="edge"><title>Node3&#45;&gt;Node1</title>
<path fill="none" stroke="#404040" d="M83,-282.491C83,-272.065 83,-259.391 83,-245.753"/>
<polygon fill="none" stroke="#404040" points="83.0001,-245.552 79,-239.552 83,-233.552 87,-239.552 83.0001,-245.552"/>
<text text-anchor="middle" x="98" y="-255.5" font-family="Helvetica,sans-Serif" font-size="10.00"> #m_id</text>
</g>
<!-- Node4 -->
<g id="node4" class="node"><title>Node4</title>
<polygon fill="white" stroke="#bfbfbf" points="117,-282.5 117,-339.5 229,-339.5 229,-282.5 117,-282.5"/>
<text text-anchor="middle" x="173" y="-327.5" font-family="Helvetica,sans-Serif" font-size="10.00">Matrix&lt; Scalar, 2, 1 &gt;</text>
<polyline fill="none" stroke="#bfbfbf" points="117,-320.5 229,-320.5 "/>
<text text-anchor="middle" x="173" y="-308.5" font-family="Helvetica,sans-Serif" font-size="10.00"> </text>
<polyline fill="none" stroke="#bfbfbf" points="117,-301.5 229,-301.5 "/>
<text text-anchor="middle" x="173" y="-289.5" font-family="Helvetica,sans-Serif" font-size="10.00"> </text>
</g>
<!-- Node4&#45;&gt;Node1 -->
<g id="edge3" class="edge"><title>Node4&#45;&gt;Node1</title>
<path fill="none" stroke="#404040" d="M160.105,-282.491C155.07,-271.749 148.916,-258.62 142.302,-244.51"/>
<polygon fill="none" stroke="#404040" points="142.258,-244.417 136.09,-240.682 137.165,-233.552 143.333,-237.287 142.258,-244.417"/>
<text text-anchor="middle" x="175" y="-255.5" font-family="Helvetica,sans-Serif" font-size="10.00"> #m_coord</text>
</g>
</g>
</svg>
