<?xml version="1.0" encoding="UTF-8" standalone="no"?>
<!DOCTYPE svg PUBLIC "-//W3C//DTD SVG 1.1//EN"
 "http://www.w3.org/Graphics/SVG/1.1/DTD/svg11.dtd">
<!-- Generated by graphviz version 2.36.0 (20140111.2315)
 -->
<!-- Title: Ra::Engine::Mesh::loadGeometry Pages: 1 -->
<svg width="488pt" height="87pt"
 viewBox="0.00 0.00 488.00 87.00" xmlns="http://www.w3.org/2000/svg" xmlns:xlink="http://www.w3.org/1999/xlink">
<g id="graph0" class="graph" transform="scale(1 1) rotate(0) translate(4 83)">
<title>Ra::Engine::Mesh::loadGeometry</title>
<polygon fill="white" stroke="none" points="-4,4 -4,-83 484,-83 484,4 -4,4"/>
<!-- Node1 -->
<g id="node1" class="node"><title>Node1</title>
<polygon fill="#bfbfbf" stroke="black" points="0,-29.5 0,-48.5 162,-48.5 162,-29.5 0,-29.5"/>
<text text-anchor="middle" x="81" y="-36.5" font-family="Helvetica,sans-Serif" font-size="10.00">Ra::Engine::Mesh::loadGeometry</text>
</g>
<!-- Node2 -->
<g id="node2" class="node"><title>Node2</title>
<g id="a_node2"><a xlink:href="classRa_1_1Core_1_1TriangleMesh.html#a495116f40cfec8bb6504698d786d4b8c" target="_top" xlink:title="Access the vertices positions. ">
<polygon fill="white" stroke="black" points="198.5,-49 198.5,-79 319.5,-79 319.5,-49 198.5,-49"/>
<text text-anchor="start" x="206.5" y="-67" font-family="Helvetica,sans-Serif" font-size="10.00">Ra::Core::TriangleMesh</text>
<text text-anchor="middle" x="259" y="-56" font-family="Helvetica,sans-Serif" font-size="10.00">::vertices</text>
</a>
</g>
</g>
<!-- Node1&#45;&gt;Node2 -->
<g id="edge1" class="edge"><title>Node1&#45;&gt;Node2</title>
<path fill="none" stroke="midnightblue" d="M149.04,-48.5227C161.841,-50.3411 175.27,-52.2486 188.156,-54.079"/>
<polygon fill="midnightblue" stroke="midnightblue" points="187.959,-57.5861 198.352,-55.5273 188.944,-50.6556 187.959,-57.5861"/>
</g>
<!-- Node4 -->
<g id="node4" class="node"><title>Node4</title>
<g id="a_node4"><a xlink:href="classRa_1_1Core_1_1TriangleMesh.html#a2050187a77536bb43bfa2e25c25389c6" target="_top" xlink:title="Return the Handle to the attribute with the given name if it exists, an invalid handle otherwise...">
<polygon fill="white" stroke="black" points="198.5,-0 198.5,-30 319.5,-30 319.5,-0 198.5,-0"/>
<text text-anchor="start" x="206.5" y="-18" font-family="Helvetica,sans-Serif" font-size="10.00">Ra::Core::TriangleMesh</text>
<text text-anchor="middle" x="259" y="-7" font-family="Helvetica,sans-Serif" font-size="10.00">::getAttribHandle</text>
</a>
</g>
</g>
<!-- Node1&#45;&gt;Node4 -->
<g id="edge3" class="edge"><title>Node1&#45;&gt;Node4</title>
<path fill="none" stroke="midnightblue" d="M151.813,-29.4801C163.884,-27.834 176.433,-26.1227 188.497,-24.4777"/>
<polygon fill="midnightblue" stroke="midnightblue" points="189.059,-27.9335 198.494,-23.1144 188.113,-20.9977 189.059,-27.9335"/>
</g>
<!-- Node3 -->
<g id="node3" class="node"><title>Node3</title>
<g id="a_node3"><a xlink:href="classRa_1_1Core_1_1AttribManager.html#aaa6088620425c1e1d74b50f1b50eb596" target="_top" xlink:title="Get attribute by handle. ">
<polygon fill="white" stroke="black" points="356.5,-49 356.5,-79 479.5,-79 479.5,-49 356.5,-49"/>
<text text-anchor="start" x="364.5" y="-67" font-family="Helvetica,sans-Serif" font-size="10.00">Ra::Core::AttribManager</text>
<text text-anchor="middle" x="418" y="-56" font-family="Helvetica,sans-Serif" font-size="10.00">::getAttrib</text>
</a>
</g>
</g>
<!-- Node2&#45;&gt;Node3 -->
<g id="edge2" class="edge"><title>Node2&#45;&gt;Node3</title>
<path fill="none" stroke="midnightblue" d="M319.803,-64C328.398,-64 337.311,-64 346.096,-64"/>
<polygon fill="midnightblue" stroke="midnightblue" points="346.323,-67.5001 356.323,-64 346.322,-60.5001 346.323,-67.5001"/>
</g>
<!-- Node5 -->
<g id="node5" class="node"><title>Node5</title>
<g id="a_node5"><a xlink:href="classRa_1_1Core_1_1AttribManager.html#a83cb9e1c9e687d161a3070ffbdf07b22" target="_top" xlink:title="findAttrib Grab an attribute handler by name. ">
<polygon fill="white" stroke="black" points="356.5,-0 356.5,-30 479.5,-30 479.5,-0 356.5,-0"/>
<text text-anchor="start" x="364.5" y="-18" font-family="Helvetica,sans-Serif" font-size="10.00">Ra::Core::AttribManager</text>
<text text-anchor="middle" x="418" y="-7" font-family="Helvetica,sans-Serif" font-size="10.00">::findAttrib</text>
</a>
</g>
</g>
<!-- Node4&#45;&gt;Node5 -->
<g id="edge4" class="edge"><title>Node4&#45;&gt;Node5</title>
<path fill="none" stroke="midnightblue" d="M319.803,-15C328.398,-15 337.311,-15 346.096,-15"/>
<polygon fill="midnightblue" stroke="midnightblue" points="346.323,-18.5001 356.323,-15 346.322,-11.5001 346.323,-18.5001"/>
</g>
</g>
</svg>
