<?xml version="1.0" encoding="UTF-8" standalone="no"?>
<!DOCTYPE svg PUBLIC "-//W3C//DTD SVG 1.1//EN"
 "http://www.w3.org/Graphics/SVG/1.1/DTD/svg11.dtd">
<!-- Generated by graphviz version 2.36.0 (20140111.2315)
 -->
<!-- Title: Ra::Engine::LightManager::handleAssetLoading Pages: 1 -->
<svg width="604pt" height="235pt"
 viewBox="0.00 0.00 604.00 235.00" xmlns="http://www.w3.org/2000/svg" xmlns:xlink="http://www.w3.org/1999/xlink">
<g id="graph0" class="graph" transform="scale(1 1) rotate(0) translate(4 231)">
<title>Ra::Engine::LightManager::handleAssetLoading</title>
<polygon fill="white" stroke="none" points="-4,4 -4,-231 600,-231 600,4 -4,4"/>
<!-- Node1 -->
<g id="node1" class="node"><title>Node1</title>
<polygon fill="#bfbfbf" stroke="black" points="0,-99 0,-129 130,-129 130,-99 0,-99"/>
<text text-anchor="start" x="8" y="-117" font-family="Helvetica,sans-Serif" font-size="10.00">Ra::Engine::LightManager</text>
<text text-anchor="middle" x="65" y="-106" font-family="Helvetica,sans-Serif" font-size="10.00">::handleAssetLoading</text>
</g>
<!-- Node2 -->
<g id="node2" class="node"><title>Node2</title>
<g id="a_node2"><a xlink:href="classRa_1_1Asset_1_1FileData.html#a9b6da82f58991c291b3c094a00a1d6f5" target="_top" xlink:title="Ra::Asset::FileData\l::getLightData">
<polygon fill="white" stroke="black" points="179,-197 179,-227 283,-227 283,-197 179,-197"/>
<text text-anchor="start" x="187" y="-215" font-family="Helvetica,sans-Serif" font-size="10.00">Ra::Asset::FileData</text>
<text text-anchor="middle" x="231" y="-204" font-family="Helvetica,sans-Serif" font-size="10.00">::getLightData</text>
</a>
</g>
</g>
<!-- Node1&#45;&gt;Node2 -->
<g id="edge1" class="edge"><title>Node1&#45;&gt;Node2</title>
<path fill="none" stroke="midnightblue" d="M83.8397,-129.234C103.137,-145.167 135.278,-170.157 166,-187 169.707,-189.032 173.614,-190.981 177.594,-192.83"/>
<polygon fill="midnightblue" stroke="midnightblue" points="176.394,-196.126 186.957,-196.957 179.218,-189.721 176.394,-196.126"/>
</g>
<!-- Node3 -->
<g id="node3" class="node"><title>Node3</title>
<g id="a_node3"><a xlink:href="classRa_1_1Engine_1_1Entity.html#aaf256bea44bbc5bff6aa504aca05ca35" target="_top" xlink:title="Ra::Engine::Entity\l::getName">
<polygon fill="white" stroke="black" points="182.5,-148 182.5,-178 279.5,-178 279.5,-148 182.5,-148"/>
<text text-anchor="start" x="190.5" y="-166" font-family="Helvetica,sans-Serif" font-size="10.00">Ra::Engine::Entity</text>
<text text-anchor="middle" x="231" y="-155" font-family="Helvetica,sans-Serif" font-size="10.00">::getName</text>
</a>
</g>
</g>
<!-- Node1&#45;&gt;Node3 -->
<g id="edge2" class="edge"><title>Node1&#45;&gt;Node3</title>
<path fill="none" stroke="midnightblue" d="M116.544,-129.101C134.334,-134.417 154.453,-140.428 172.756,-145.897"/>
<polygon fill="midnightblue" stroke="midnightblue" points="171.841,-149.276 182.424,-148.785 173.845,-142.569 171.841,-149.276"/>
</g>
<!-- Node4 -->
<g id="node4" class="node"><title>Node4</title>
<g id="a_node4"><a xlink:href="classRa_1_1Engine_1_1Light.html#a9185f016de816aeba6e7a34026cbf684" target="_top" xlink:title="Ra::Engine::Light::\lsetColor">
<polygon fill="white" stroke="black" points="182,-99 182,-129 280,-129 280,-99 182,-99"/>
<text text-anchor="start" x="190" y="-117" font-family="Helvetica,sans-Serif" font-size="10.00">Ra::Engine::Light::</text>
<text text-anchor="middle" x="231" y="-106" font-family="Helvetica,sans-Serif" font-size="10.00">setColor</text>
</a>
</g>
</g>
<!-- Node1&#45;&gt;Node4 -->
<g id="edge3" class="edge"><title>Node1&#45;&gt;Node4</title>
<path fill="none" stroke="midnightblue" d="M130.346,-114C144.005,-114 158.349,-114 171.764,-114"/>
<polygon fill="midnightblue" stroke="midnightblue" points="171.816,-117.5 181.816,-114 171.815,-110.5 171.816,-117.5"/>
</g>
<!-- Node5 -->
<g id="node5" class="node"><title>Node5</title>
<g id="a_node5"><a xlink:href="classRa_1_1Engine_1_1LightManager.html#ad9995122ec9b0b8a9af86b8fbaf572b0" target="_top" xlink:title="Inherited method marked as final to ensure correct memory management even in child classes (e...">
<polygon fill="white" stroke="black" points="166,-50 166,-80 296,-80 296,-50 166,-50"/>
<text text-anchor="start" x="174" y="-68" font-family="Helvetica,sans-Serif" font-size="10.00">Ra::Engine::LightManager</text>
<text text-anchor="middle" x="231" y="-57" font-family="Helvetica,sans-Serif" font-size="10.00">::registerComponent</text>
</a>
</g>
</g>
<!-- Node1&#45;&gt;Node5 -->
<g id="edge4" class="edge"><title>Node1&#45;&gt;Node5</title>
<path fill="none" stroke="midnightblue" d="M116.544,-98.8986C133.458,-93.8449 152.477,-88.1624 170.039,-82.9152"/>
<polygon fill="midnightblue" stroke="midnightblue" points="171.044,-86.2679 179.623,-80.0516 169.04,-79.5609 171.044,-86.2679"/>
</g>
<!-- Node10 -->
<g id="node10" class="node"><title>Node10</title>
<g id="a_node10"><a xlink:href="classRa_1_1Engine_1_1LightManager.html#ace71f23a756bd3f0f4e7c3e5ef55a848" target="_top" xlink:title="Number of lights. ">
<polygon fill="white" stroke="black" points="166,-1 166,-31 296,-31 296,-1 166,-1"/>
<text text-anchor="start" x="174" y="-19" font-family="Helvetica,sans-Serif" font-size="10.00">Ra::Engine::LightManager</text>
<text text-anchor="middle" x="231" y="-8" font-family="Helvetica,sans-Serif" font-size="10.00">::count</text>
</a>
</g>
</g>
<!-- Node1&#45;&gt;Node10 -->
<g id="edge9" class="edge"><title>Node1&#45;&gt;Node10</title>
<path fill="none" stroke="midnightblue" d="M83.8397,-98.7661C103.137,-82.8326 135.278,-57.8432 166,-41 169.707,-38.9678 173.614,-37.0192 177.594,-35.17"/>
<polygon fill="midnightblue" stroke="midnightblue" points="179.218,-38.2792 186.957,-31.0429 176.394,-31.874 179.218,-38.2792"/>
</g>
<!-- Node6 -->
<g id="node6" class="node"><title>Node6</title>
<g id="a_node6"><a xlink:href="classRa_1_1Engine_1_1System.html#ad7b2a746c42f08a729b4df9b991293a8" target="_top" xlink:title="Registers a component belonging to an entity, making it active within the system. ...">
<polygon fill="white" stroke="black" points="332.5,-50 332.5,-80 437.5,-80 437.5,-50 332.5,-50"/>
<text text-anchor="start" x="340.5" y="-68" font-family="Helvetica,sans-Serif" font-size="10.00">Ra::Engine::System</text>
<text text-anchor="middle" x="385" y="-57" font-family="Helvetica,sans-Serif" font-size="10.00">::registerComponent</text>
</a>
</g>
</g>
<!-- Node5&#45;&gt;Node6 -->
<g id="edge5" class="edge"><title>Node5&#45;&gt;Node6</title>
<path fill="none" stroke="midnightblue" d="M296.021,-65C304.558,-65 313.302,-65 321.807,-65"/>
<polygon fill="midnightblue" stroke="midnightblue" points="322.032,-68.5001 332.032,-65 322.032,-61.5001 322.032,-68.5001"/>
</g>
<!-- Node7 -->
<g id="node7" class="node"><title>Node7</title>
<g id="a_node7"><a xlink:href="classRa_1_1Engine_1_1Component.html#a207c1dc2e97856c22e0767fb77162933" target="_top" xlink:title="Return the entity the component belongs to. ">
<polygon fill="white" stroke="black" points="474,-99 474,-129 596,-129 596,-99 474,-99"/>
<text text-anchor="start" x="482" y="-117" font-family="Helvetica,sans-Serif" font-size="10.00">Ra::Engine::Component</text>
<text text-anchor="middle" x="535" y="-106" font-family="Helvetica,sans-Serif" font-size="10.00">::getEntity</text>
</a>
</g>
</g>
<!-- Node6&#45;&gt;Node7 -->
<g id="edge6" class="edge"><title>Node6&#45;&gt;Node7</title>
<path fill="none" stroke="midnightblue" d="M431.613,-80.1014C446.594,-85.0615 463.405,-90.6274 479.007,-95.7929"/>
<polygon fill="midnightblue" stroke="midnightblue" points="477.945,-99.128 488.538,-98.9484 480.145,-92.4827 477.945,-99.128"/>
</g>
<!-- Node8 -->
<g id="node8" class="node"><title>Node8</title>
<g id="a_node8"><a xlink:href="classRa_1_1Engine_1_1Component.html#aa3e5cb90432a9a49e4362b673652ff76" target="_top" xlink:title="Return the component&#39;s name. ">
<polygon fill="white" stroke="black" points="474,-50 474,-80 596,-80 596,-50 474,-50"/>
<text text-anchor="start" x="482" y="-68" font-family="Helvetica,sans-Serif" font-size="10.00">Ra::Engine::Component</text>
<text text-anchor="middle" x="535" y="-57" font-family="Helvetica,sans-Serif" font-size="10.00">::getName</text>
</a>
</g>
</g>
<!-- Node6&#45;&gt;Node8 -->
<g id="edge7" class="edge"><title>Node6&#45;&gt;Node8</title>
<path fill="none" stroke="midnightblue" d="M437.763,-65C446.151,-65 454.959,-65 463.698,-65"/>
<polygon fill="midnightblue" stroke="midnightblue" points="463.896,-68.5001 473.896,-65 463.896,-61.5001 463.896,-68.5001"/>
</g>
<!-- Node9 -->
<g id="node9" class="node"><title>Node9</title>
<g id="a_node9"><a xlink:href="classRa_1_1Engine_1_1Component.html#aa9416af3319ba92aa7b532952c75e477" target="_top" xlink:title="Set the system to which the component belongs. ">
<polygon fill="white" stroke="black" points="474,-1 474,-31 596,-31 596,-1 474,-1"/>
<text text-anchor="start" x="482" y="-19" font-family="Helvetica,sans-Serif" font-size="10.00">Ra::Engine::Component</text>
<text text-anchor="middle" x="535" y="-8" font-family="Helvetica,sans-Serif" font-size="10.00">::setSystem</text>
</a>
</g>
</g>
<!-- Node6&#45;&gt;Node9 -->
<g id="edge8" class="edge"><title>Node6&#45;&gt;Node9</title>
<path fill="none" stroke="midnightblue" d="M431.613,-49.8986C446.594,-44.9385 463.405,-39.3726 479.007,-34.2071"/>
<polygon fill="midnightblue" stroke="midnightblue" points="480.145,-37.5173 488.538,-31.0516 477.945,-30.872 480.145,-37.5173"/>
</g>
</g>
</svg>
