<?xml version="1.0" encoding="UTF-8" standalone="no"?>
<!DOCTYPE svg PUBLIC "-//W3C//DTD SVG 1.1//EN"
 "http://www.w3.org/Graphics/SVG/1.1/DTD/svg11.dtd">
<!-- Generated by graphviz version 2.36.0 (20140111.2315)
 -->
<!-- Title: Ra::Core::TopologicalMesh::clearAllProps Pages: 1 -->
<svg width="316pt" height="87pt"
 viewBox="0.00 0.00 316.00 87.00" xmlns="http://www.w3.org/2000/svg" xmlns:xlink="http://www.w3.org/1999/xlink">
<g id="graph0" class="graph" transform="scale(1 1) rotate(0) translate(4 83)">
<title>Ra::Core::TopologicalMesh::clearAllProps</title>
<polygon fill="white" stroke="none" points="-4,4 -4,-83 312,-83 312,4 -4,4"/>
<!-- Node1 -->
<g id="node1" class="node"><title>Node1</title>
<polygon fill="#bfbfbf" stroke="black" points="0,-24 0,-54 136,-54 136,-24 0,-24"/>
<text text-anchor="start" x="8" y="-42" font-family="Helvetica,sans-Serif" font-size="10.00">Ra::Core::TopologicalMesh</text>
<text text-anchor="middle" x="68" y="-31" font-family="Helvetica,sans-Serif" font-size="10.00">::clearAllProps</text>
</g>
<!-- Node2 -->
<g id="node2" class="node"><title>Node2</title>
<g id="a_node2"><a xlink:href="classRa_1_1Core_1_1TopologicalMesh.html#a2b062412ffa1f71fb76a6451b566354c" target="_top" xlink:title="Remove face property prop from mesh. ">
<polygon fill="white" stroke="black" points="172,-49 172,-79 308,-79 308,-49 172,-49"/>
<text text-anchor="start" x="180" y="-67" font-family="Helvetica,sans-Serif" font-size="10.00">Ra::Core::TopologicalMesh</text>
<text text-anchor="middle" x="240" y="-56" font-family="Helvetica,sans-Serif" font-size="10.00">::clearProp</text>
</a>
</g>
</g>
<!-- Node1&#45;&gt;Node2 -->
<g id="edge1" class="edge"><title>Node1&#45;&gt;Node2</title>
<path fill="none" stroke="midnightblue" d="M136.189,-48.8807C144.593,-50.1167 153.242,-51.3885 161.784,-52.6447"/>
<polygon fill="midnightblue" stroke="midnightblue" points="161.34,-56.117 171.743,-54.1092 162.359,-49.1915 161.34,-56.117"/>
</g>
<!-- Node3 -->
<g id="node3" class="node"><title>Node3</title>
<g id="a_node3"><a xlink:href="classRa_1_1Core_1_1TopologicalMesh.html#a99a412013599ec675d875b1968c00629" target="_top" xlink:title="Remove props from mesh. ">
<polygon fill="white" stroke="black" points="172,-0 172,-30 308,-30 308,-0 172,-0"/>
<text text-anchor="start" x="180" y="-18" font-family="Helvetica,sans-Serif" font-size="10.00">Ra::Core::TopologicalMesh</text>
<text text-anchor="middle" x="240" y="-7" font-family="Helvetica,sans-Serif" font-size="10.00">::clearProps</text>
</a>
</g>
</g>
<!-- Node1&#45;&gt;Node3 -->
<g id="edge2" class="edge"><title>Node1&#45;&gt;Node3</title>
<path fill="none" stroke="midnightblue" d="M136.189,-29.5146C144.593,-28.328 153.242,-27.1071 161.784,-25.9011"/>
<polygon fill="midnightblue" stroke="midnightblue" points="162.33,-29.3588 171.743,-24.4951 161.352,-22.4275 162.33,-29.3588"/>
</g>
</g>
</svg>
