<?xml version="1.0" encoding="UTF-8" standalone="no"?>
<!DOCTYPE svg PUBLIC "-//W3C//DTD SVG 1.1//EN"
 "http://www.w3.org/Graphics/SVG/1.1/DTD/svg11.dtd">
<!-- Generated by graphviz version 2.36.0 (20140111.2315)
 -->
<!-- Title: Ra::Engine::GeometryComponent Pages: 1 -->
<svg width="649pt" height="1392pt"
 viewBox="0.00 0.00 649.00 1392.00" xmlns="http://www.w3.org/2000/svg" xmlns:xlink="http://www.w3.org/1999/xlink">
<g id="graph0" class="graph" transform="scale(1 1) rotate(0) translate(4 1388)">
<title>Ra::Engine::GeometryComponent</title>
<polygon fill="white" stroke="none" points="-4,4 -4,-1388 645,-1388 645,4 -4,4"/>
<!-- Node1 -->
<g id="node1" class="node"><title>Node1</title>
<polygon fill="#bfbfbf" stroke="black" points="303,-1 303,-157 467,-157 467,-1 303,-1"/>
<text text-anchor="middle" x="385" y="-145" font-family="Helvetica,sans-Serif" font-size="10.00">Ra::Engine::GeometryComponent</text>
<polyline fill="none" stroke="black" points="303,-138 467,-138 "/>
<text text-anchor="middle" x="385" y="-126" font-family="Helvetica,sans-Serif" font-size="10.00"> </text>
<polyline fill="none" stroke="black" points="303,-119 467,-119 "/>
<text text-anchor="start" x="311" y="-107" font-family="Helvetica,sans-Serif" font-size="10.00">+ GeometryComponent()</text>
<text text-anchor="start" x="311" y="-96" font-family="Helvetica,sans-Serif" font-size="10.00">+ ~GeometryComponent()</text>
<text text-anchor="start" x="311" y="-85" font-family="Helvetica,sans-Serif" font-size="10.00">+ initialize()</text>
<text text-anchor="start" x="311" y="-74" font-family="Helvetica,sans-Serif" font-size="10.00">+ addMeshRenderObject()</text>
<text text-anchor="start" x="311" y="-63" font-family="Helvetica,sans-Serif" font-size="10.00">+ handleMeshLoading()</text>
<text text-anchor="start" x="311" y="-52" font-family="Helvetica,sans-Serif" font-size="10.00">+ getRenderObjectIndex()</text>
<text text-anchor="start" x="311" y="-41" font-family="Helvetica,sans-Serif" font-size="10.00">+ getMesh()</text>
<text text-anchor="start" x="311" y="-30" font-family="Helvetica,sans-Serif" font-size="10.00">+ setupIO()</text>
<text text-anchor="start" x="311" y="-19" font-family="Helvetica,sans-Serif" font-size="10.00">+ setContentName()</text>
<text text-anchor="start" x="311" y="-8" font-family="Helvetica,sans-Serif" font-size="10.00">+ setDeformable()</text>
</g>
<!-- Node2 -->
<g id="node2" class="node"><title>Node2</title>
<g id="a_node2"><a xlink:href="classRa_1_1Engine_1_1Component.html" target="_top" xlink:title="A component is an element that can be updated by a system. ">
<polygon fill="white" stroke="black" points="310.5,-197 310.5,-419 459.5,-419 459.5,-197 310.5,-197"/>
<text text-anchor="middle" x="385" y="-407" font-family="Helvetica,sans-Serif" font-size="10.00">Ra::Engine::Component</text>
<polyline fill="none" stroke="black" points="310.5,-400 459.5,-400 "/>
<text text-anchor="middle" x="385" y="-388" font-family="Helvetica,sans-Serif" font-size="10.00"> </text>
<polyline fill="none" stroke="black" points="310.5,-381 459.5,-381 "/>
<text text-anchor="start" x="318.5" y="-369" font-family="Helvetica,sans-Serif" font-size="10.00">+ Component()</text>
<text text-anchor="start" x="318.5" y="-358" font-family="Helvetica,sans-Serif" font-size="10.00">+ ~Component()</text>
<text text-anchor="start" x="318.5" y="-347" font-family="Helvetica,sans-Serif" font-size="10.00">+ initialize()</text>
<text text-anchor="start" x="318.5" y="-336" font-family="Helvetica,sans-Serif" font-size="10.00">+ setEntity()</text>
<text text-anchor="start" x="318.5" y="-325" font-family="Helvetica,sans-Serif" font-size="10.00">+ getEntity()</text>
<text text-anchor="start" x="318.5" y="-314" font-family="Helvetica,sans-Serif" font-size="10.00">+ getName()</text>
<text text-anchor="start" x="318.5" y="-303" font-family="Helvetica,sans-Serif" font-size="10.00">+ setSystem()</text>
<text text-anchor="start" x="318.5" y="-292" font-family="Helvetica,sans-Serif" font-size="10.00">+ getSystem()</text>
<text text-anchor="start" x="318.5" y="-281" font-family="Helvetica,sans-Serif" font-size="10.00">+ addRenderObject()</text>
<text text-anchor="start" x="318.5" y="-270" font-family="Helvetica,sans-Serif" font-size="10.00">+ removeRenderObject()</text>
<text text-anchor="start" x="318.5" y="-259" font-family="Helvetica,sans-Serif" font-size="10.00">+ rayCastQuery()</text>
<text text-anchor="start" x="318.5" y="-248" font-family="Helvetica,sans-Serif" font-size="10.00">+ canEdit()</text>
<text text-anchor="start" x="318.5" y="-237" font-family="Helvetica,sans-Serif" font-size="10.00">+ getTransform()</text>
<text text-anchor="start" x="318.5" y="-226" font-family="Helvetica,sans-Serif" font-size="10.00">+ setTransform()</text>
<text text-anchor="start" x="318.5" y="-215" font-family="Helvetica,sans-Serif" font-size="10.00">+ notifyRenderObjectExpired()</text>
<text text-anchor="start" x="318.5" y="-204" font-family="Helvetica,sans-Serif" font-size="10.00"># getRoMgr()</text>
</a>
</g>
</g>
<!-- Node2&#45;&gt;Node1 -->
<g id="edge1" class="edge"><title>Node2&#45;&gt;Node1</title>
<path fill="none" stroke="midnightblue" d="M385,-186.743C385,-176.673 385,-166.675 385,-157.066"/>
<polygon fill="none" stroke="midnightblue" points="381.5,-186.825 385,-196.825 388.5,-186.825 381.5,-186.825"/>
</g>
<!-- Node3 -->
<g id="node3" class="node"><title>Node3</title>
<polygon fill="white" stroke="#bfbfbf" points="65.5,-768 65.5,-836 164.5,-836 164.5,-768 65.5,-768"/>
<text text-anchor="start" x="73.5" y="-824" font-family="Helvetica,sans-Serif" font-size="10.00">std::vector&lt; Core::</text>
<text text-anchor="middle" x="115" y="-813" font-family="Helvetica,sans-Serif" font-size="10.00">Index &gt;</text>
<polyline fill="none" stroke="#bfbfbf" points="65.5,-806 164.5,-806 "/>
<text text-anchor="middle" x="115" y="-794" font-family="Helvetica,sans-Serif" font-size="10.00"> </text>
<polyline fill="none" stroke="#bfbfbf" points="65.5,-787 164.5,-787 "/>
<text text-anchor="middle" x="115" y="-775" font-family="Helvetica,sans-Serif" font-size="10.00"> </text>
</g>
<!-- Node3&#45;&gt;Node2 -->
<g id="edge2" class="edge"><title>Node3&#45;&gt;Node2</title>
<path fill="none" stroke="#404040" d="M108.991,-767.907C99.3062,-704.628 86.6826,-564.223 144,-468 179.039,-409.178 245.295,-367.862 299.482,-342.115"/>
<polygon fill="none" stroke="#404040" points="299.606,-342.058 303.37,-335.907 310.495,-337.015 306.731,-343.166 299.606,-342.058"/>
<text text-anchor="middle" x="186" y="-588.5" font-family="Helvetica,sans-Serif" font-size="10.00"> +m_renderObjects</text>
</g>
<!-- Node4 -->
<g id="node4" class="node"><title>Node4</title>
<g id="a_node4"><a xlink:href="classRa_1_1Core_1_1Index.html" target="_top" xlink:title="{Ra::Core::Index\n||+ Index()\l+ Index()\l+ isValid()\l+ isInvalid()\l+ setInvalid()\l+ getValue()\l+ setValue()\l+ operator int()\l+ operator=()\l+ operator++()\l+ operator&#45;&#45;()\l+ operator+()\l+ operator+()\l+ operator&#45;()\l+ operator&#45;()\l+ operator==()\l+ operator==()\l+ operator!=()\l+ operator!=()\l+ operator\&lt;()\l+ operator\&lt;()\l+ operator\&lt;=()\l+ operator\&lt;=()\l+ operator\&gt;()\l+ operator\&gt;()\l+ operator\&gt;=()\l+ operator\&gt;=()\l+ Invalid()\l+ Max()\l}">
<polygon fill="white" stroke="black" points="0,-912.5 0,-1277.5 86,-1277.5 86,-912.5 0,-912.5"/>
<text text-anchor="middle" x="43" y="-1265.5" font-family="Helvetica,sans-Serif" font-size="10.00">Ra::Core::Index</text>
<polyline fill="none" stroke="black" points="0,-1258.5 86,-1258.5 "/>
<text text-anchor="middle" x="43" y="-1246.5" font-family="Helvetica,sans-Serif" font-size="10.00"> </text>
<polyline fill="none" stroke="black" points="0,-1239.5 86,-1239.5 "/>
<text text-anchor="start" x="8" y="-1227.5" font-family="Helvetica,sans-Serif" font-size="10.00">+ Index()</text>
<text text-anchor="start" x="8" y="-1216.5" font-family="Helvetica,sans-Serif" font-size="10.00">+ Index()</text>
<text text-anchor="start" x="8" y="-1205.5" font-family="Helvetica,sans-Serif" font-size="10.00">+ isValid()</text>
<text text-anchor="start" x="8" y="-1194.5" font-family="Helvetica,sans-Serif" font-size="10.00">+ isInvalid()</text>
<text text-anchor="start" x="8" y="-1183.5" font-family="Helvetica,sans-Serif" font-size="10.00">+ setInvalid()</text>
<text text-anchor="start" x="8" y="-1172.5" font-family="Helvetica,sans-Serif" font-size="10.00">+ getValue()</text>
<text text-anchor="start" x="8" y="-1161.5" font-family="Helvetica,sans-Serif" font-size="10.00">+ setValue()</text>
<text text-anchor="start" x="8" y="-1150.5" font-family="Helvetica,sans-Serif" font-size="10.00">+ operator int()</text>
<text text-anchor="start" x="8" y="-1139.5" font-family="Helvetica,sans-Serif" font-size="10.00">+ operator=()</text>
<text text-anchor="start" x="8" y="-1128.5" font-family="Helvetica,sans-Serif" font-size="10.00">+ operator++()</text>
<text text-anchor="start" x="8" y="-1117.5" font-family="Helvetica,sans-Serif" font-size="10.00">+ operator&#45;&#45;()</text>
<text text-anchor="start" x="8" y="-1106.5" font-family="Helvetica,sans-Serif" font-size="10.00">+ operator+()</text>
<text text-anchor="start" x="8" y="-1095.5" font-family="Helvetica,sans-Serif" font-size="10.00">+ operator+()</text>
<text text-anchor="start" x="8" y="-1084.5" font-family="Helvetica,sans-Serif" font-size="10.00">+ operator&#45;()</text>
<text text-anchor="start" x="8" y="-1073.5" font-family="Helvetica,sans-Serif" font-size="10.00">+ operator&#45;()</text>
<text text-anchor="start" x="8" y="-1062.5" font-family="Helvetica,sans-Serif" font-size="10.00">+ operator==()</text>
<text text-anchor="start" x="8" y="-1051.5" font-family="Helvetica,sans-Serif" font-size="10.00">+ operator==()</text>
<text text-anchor="start" x="8" y="-1040.5" font-family="Helvetica,sans-Serif" font-size="10.00">+ operator!=()</text>
<text text-anchor="start" x="8" y="-1029.5" font-family="Helvetica,sans-Serif" font-size="10.00">+ operator!=()</text>
<text text-anchor="start" x="8" y="-1018.5" font-family="Helvetica,sans-Serif" font-size="10.00">+ operator&lt;()</text>
<text text-anchor="start" x="8" y="-1007.5" font-family="Helvetica,sans-Serif" font-size="10.00">+ operator&lt;()</text>
<text text-anchor="start" x="8" y="-996.5" font-family="Helvetica,sans-Serif" font-size="10.00">+ operator&lt;=()</text>
<text text-anchor="start" x="8" y="-985.5" font-family="Helvetica,sans-Serif" font-size="10.00">+ operator&lt;=()</text>
<text text-anchor="start" x="8" y="-974.5" font-family="Helvetica,sans-Serif" font-size="10.00">+ operator&gt;()</text>
<text text-anchor="start" x="8" y="-963.5" font-family="Helvetica,sans-Serif" font-size="10.00">+ operator&gt;()</text>
<text text-anchor="start" x="8" y="-952.5" font-family="Helvetica,sans-Serif" font-size="10.00">+ operator&gt;=()</text>
<text text-anchor="start" x="8" y="-941.5" font-family="Helvetica,sans-Serif" font-size="10.00">+ operator&gt;=()</text>
<text text-anchor="start" x="8" y="-930.5" font-family="Helvetica,sans-Serif" font-size="10.00">+ Invalid()</text>
<text text-anchor="start" x="8" y="-919.5" font-family="Helvetica,sans-Serif" font-size="10.00">+ Max()</text>
</a>
</g>
</g>
<!-- Node4&#45;&gt;Node3 -->
<g id="edge3" class="edge"><title>Node4&#45;&gt;Node3</title>
<path fill="none" stroke="#404040" d="M44.5648,-912.384C48.3662,-894.255 53.6882,-876.48 61,-860 63.2052,-855.03 66.0344,-850.224 69.2394,-845.653"/>
<polygon fill="none" stroke="#404040" points="69.3626,-845.496 69.9118,-838.305 76.7601,-836.047 76.2109,-843.237 69.3626,-845.496"/>
<text text-anchor="middle" x="85.5" y="-874.5" font-family="Helvetica,sans-Serif" font-size="10.00"> +elements</text>
</g>
<!-- Node5 -->
<g id="node5" class="node"><title>Node5</title>
<polygon fill="white" stroke="#bfbfbf" points="28.5,-1326.5 28.5,-1383.5 57.5,-1383.5 57.5,-1326.5 28.5,-1326.5"/>
<text text-anchor="middle" x="43" y="-1371.5" font-family="Helvetica,sans-Serif" font-size="10.00">int</text>
<polyline fill="none" stroke="#bfbfbf" points="28.5,-1364.5 57.5,-1364.5 "/>
<text text-anchor="middle" x="43" y="-1352.5" font-family="Helvetica,sans-Serif" font-size="10.00"> </text>
<polyline fill="none" stroke="#bfbfbf" points="28.5,-1345.5 57.5,-1345.5 "/>
<text text-anchor="middle" x="43" y="-1333.5" font-family="Helvetica,sans-Serif" font-size="10.00"> </text>
</g>
<!-- Node5&#45;&gt;Node4 -->
<g id="edge4" class="edge"><title>Node5&#45;&gt;Node4</title>
<path fill="none" stroke="#404040" d="M43,-1326.39C43,-1316.23 43,-1303.82 43,-1290.06"/>
<polygon fill="none" stroke="#404040" points="43.0001,-1289.65 39,-1283.65 43,-1277.65 47,-1283.65 43.0001,-1289.65"/>
<text text-anchor="middle" x="60.5" y="-1299.5" font-family="Helvetica,sans-Serif" font-size="10.00"> #m_idx</text>
</g>
<!-- Node6 -->
<g id="node6" class="node"><title>Node6</title>
<g id="a_node6"><a xlink:title="STL class. ">
<polygon fill="white" stroke="#bfbfbf" points="135.5,-1066.5 135.5,-1123.5 222.5,-1123.5 222.5,-1066.5 135.5,-1066.5"/>
<text text-anchor="middle" x="179" y="-1111.5" font-family="Helvetica,sans-Serif" font-size="10.00">std::vector&lt; T &gt;</text>
<polyline fill="none" stroke="#bfbfbf" points="135.5,-1104.5 222.5,-1104.5 "/>
<text text-anchor="middle" x="179" y="-1092.5" font-family="Helvetica,sans-Serif" font-size="10.00"> </text>
<polyline fill="none" stroke="#bfbfbf" points="135.5,-1085.5 222.5,-1085.5 "/>
<text text-anchor="middle" x="179" y="-1073.5" font-family="Helvetica,sans-Serif" font-size="10.00"> </text>
</a>
</g>
</g>
<!-- Node6&#45;&gt;Node3 -->
<g id="edge5" class="edge"><title>Node6&#45;&gt;Node3</title>
<path fill="none" stroke="orange" d="M163.714,-1056.98C148.246,-1017.43 125.324,-952.495 116,-894 112.966,-874.965 112.596,-853.405 113.041,-836.051"/>
<polygon fill="orange" stroke="orange" points="160.536,-1058.47 167.473,-1066.47 167.044,-1055.89 160.536,-1058.47"/>
<text text-anchor="middle" x="152.5" y="-874.5" font-family="Helvetica,sans-Serif" font-size="10.00"> &lt; Core::Index &gt;</text>
</g>
<!-- Node9 -->
<g id="node9" class="node"><title>Node9</title>
<polygon fill="white" stroke="#bfbfbf" points="225.5,-762.5 225.5,-841.5 384.5,-841.5 384.5,-762.5 225.5,-762.5"/>
<text text-anchor="start" x="233.5" y="-829.5" font-family="Helvetica,sans-Serif" font-size="10.00">std::vector&lt; std::pair</text>
<text text-anchor="start" x="233.5" y="-818.5" font-family="Helvetica,sans-Serif" font-size="10.00">&lt; const Ra::Engine::Entity</text>
<text text-anchor="middle" x="305" y="-807.5" font-family="Helvetica,sans-Serif" font-size="10.00"> *, Ra::Engine::Component * &gt; &gt;</text>
<polyline fill="none" stroke="#bfbfbf" points="225.5,-800.5 384.5,-800.5 "/>
<text text-anchor="middle" x="305" y="-788.5" font-family="Helvetica,sans-Serif" font-size="10.00"> </text>
<polyline fill="none" stroke="#bfbfbf" points="225.5,-781.5 384.5,-781.5 "/>
<text text-anchor="middle" x="305" y="-769.5" font-family="Helvetica,sans-Serif" font-size="10.00"> </text>
</g>
<!-- Node6&#45;&gt;Node9 -->
<g id="edge10" class="edge"><title>Node6&#45;&gt;Node9</title>
<path fill="none" stroke="orange" d="M174.032,-1056.26C169.548,-1006.92 168.728,-919.758 208,-860 212.72,-852.818 218.683,-846.421 225.322,-840.751"/>
<polygon fill="orange" stroke="orange" points="170.577,-1056.88 175.063,-1066.48 177.542,-1056.18 170.577,-1056.88"/>
<text text-anchor="start" x="208" y="-885.5" font-family="Helvetica,sans-Serif" font-size="10.00"> &lt; std::pair&lt; const</text>
<text text-anchor="start" x="208" y="-874.5" font-family="Helvetica,sans-Serif" font-size="10.00"> Ra::Engine::Entity</text>
<text text-anchor="middle" x="279.5" y="-863.5" font-family="Helvetica,sans-Serif" font-size="10.00"> *, Ra::Engine::Component * &gt; &gt;</text>
</g>
<!-- Node7 -->
<g id="node7" class="node"><title>Node7</title>
<polygon fill="white" stroke="#bfbfbf" points="164.5,-1326.5 164.5,-1383.5 193.5,-1383.5 193.5,-1326.5 164.5,-1326.5"/>
<text text-anchor="middle" x="179" y="-1371.5" font-family="Helvetica,sans-Serif" font-size="10.00">T</text>
<polyline fill="none" stroke="#bfbfbf" points="164.5,-1364.5 193.5,-1364.5 "/>
<text text-anchor="middle" x="179" y="-1352.5" font-family="Helvetica,sans-Serif" font-size="10.00"> </text>
<polyline fill="none" stroke="#bfbfbf" points="164.5,-1345.5 193.5,-1345.5 "/>
<text text-anchor="middle" x="179" y="-1333.5" font-family="Helvetica,sans-Serif" font-size="10.00"> </text>
</g>
<!-- Node7&#45;&gt;Node6 -->
<g id="edge6" class="edge"><title>Node7&#45;&gt;Node6</title>
<path fill="none" stroke="#404040" d="M179,-1326.39C179,-1280.63 179,-1188.91 179,-1136.04"/>
<polygon fill="none" stroke="#404040" points="179,-1135.8 175,-1129.8 179,-1123.8 183,-1129.8 179,-1135.8"/>
<text text-anchor="middle" x="203.5" y="-1299.5" font-family="Helvetica,sans-Serif" font-size="10.00"> +elements</text>
</g>
<!-- Node8 -->
<g id="node8" class="node"><title>Node8</title>
<g id="a_node8"><a xlink:href="classRa_1_1Engine_1_1System.html" target="_top" xlink:title="Systems are responsible of updating a specific subset of the components of each entity. ">
<polygon fill="white" stroke="black" points="237,-524 237,-658 377,-658 377,-524 237,-524"/>
<text text-anchor="middle" x="307" y="-646" font-family="Helvetica,sans-Serif" font-size="10.00">Ra::Engine::System</text>
<polyline fill="none" stroke="black" points="237,-639 377,-639 "/>
<text text-anchor="middle" x="307" y="-627" font-family="Helvetica,sans-Serif" font-size="10.00"> </text>
<polyline fill="none" stroke="black" points="237,-620 377,-620 "/>
<text text-anchor="start" x="245" y="-608" font-family="Helvetica,sans-Serif" font-size="10.00">+ System()</text>
<text text-anchor="start" x="245" y="-597" font-family="Helvetica,sans-Serif" font-size="10.00">+ ~System()</text>
<text text-anchor="start" x="245" y="-586" font-family="Helvetica,sans-Serif" font-size="10.00">+ handleAssetLoading()</text>
<text text-anchor="start" x="245" y="-575" font-family="Helvetica,sans-Serif" font-size="10.00">+ generateTasks()</text>
<text text-anchor="start" x="245" y="-564" font-family="Helvetica,sans-Serif" font-size="10.00">+ getEntityComponents()</text>
<text text-anchor="start" x="245" y="-553" font-family="Helvetica,sans-Serif" font-size="10.00"># registerComponent()</text>
<text text-anchor="start" x="245" y="-542" font-family="Helvetica,sans-Serif" font-size="10.00"># unregisterComponent()</text>
<text text-anchor="start" x="245" y="-531" font-family="Helvetica,sans-Serif" font-size="10.00"># unregisterAllComponents()</text>
</a>
</g>
</g>
<!-- Node8&#45;&gt;Node2 -->
<g id="edge7" class="edge"><title>Node8&#45;&gt;Node2</title>
<path fill="none" stroke="#404040" d="M325.386,-523.763C333.108,-495.944 342.343,-462.676 351.211,-430.726"/>
<polygon fill="none" stroke="#404040" points="351.249,-430.589 349,-423.738 354.459,-419.027 356.708,-425.878 351.249,-430.589"/>
<text text-anchor="middle" x="376.5" y="-441.5" font-family="Helvetica,sans-Serif" font-size="10.00"> #m_system</text>
</g>
<!-- Node9&#45;&gt;Node8 -->
<g id="edge8" class="edge"><title>Node9&#45;&gt;Node8</title>
<path fill="none" stroke="#404040" d="M305.371,-762.179C305.618,-736.437 305.95,-701.755 306.25,-670.416"/>
<polygon fill="none" stroke="#404040" points="306.252,-670.141 302.31,-664.103 306.367,-658.141 310.309,-664.179 306.252,-670.141"/>
<text text-anchor="middle" x="344" y="-735.5" font-family="Helvetica,sans-Serif" font-size="10.00"> #m_components</text>
</g>
<!-- Node10 -->
<g id="node10" class="node"><title>Node10</title>
<polygon fill="white" stroke="#bfbfbf" points="318.5,-1055.5 318.5,-1134.5 435.5,-1134.5 435.5,-1055.5 318.5,-1055.5"/>
<text text-anchor="start" x="326.5" y="-1122.5" font-family="Helvetica,sans-Serif" font-size="10.00">pair&lt; const Ra::Engine</text>
<text text-anchor="start" x="326.5" y="-1111.5" font-family="Helvetica,sans-Serif" font-size="10.00">::Entity *, Ra::Engine</text>
<text text-anchor="middle" x="377" y="-1100.5" font-family="Helvetica,sans-Serif" font-size="10.00">::Component * &gt;</text>
<polyline fill="none" stroke="#bfbfbf" points="318.5,-1093.5 435.5,-1093.5 "/>
<text text-anchor="middle" x="377" y="-1081.5" font-family="Helvetica,sans-Serif" font-size="10.00"> </text>
<polyline fill="none" stroke="#bfbfbf" points="318.5,-1074.5 435.5,-1074.5 "/>
<text text-anchor="middle" x="377" y="-1062.5" font-family="Helvetica,sans-Serif" font-size="10.00"> </text>
</g>
<!-- Node10&#45;&gt;Node9 -->
<g id="edge9" class="edge"><title>Node10&#45;&gt;Node9</title>
<path fill="none" stroke="#404040" d="M380.444,-1055.35C383.157,-1007.44 382.696,-924.265 355,-860 353.792,-857.197 352.393,-854.434 350.846,-851.727"/>
<polygon fill="none" stroke="#404040" points="350.798,-851.652 344.172,-848.807 344.249,-841.596 350.876,-844.441 350.798,-851.652"/>
<text text-anchor="middle" x="390.5" y="-874.5" font-family="Helvetica,sans-Serif" font-size="10.00"> +elements</text>
</g>
<!-- Node11 -->
<g id="node11" class="node"><title>Node11</title>
<g id="a_node11"><a xlink:href="classRa_1_1Engine_1_1Entity.html" target="_top" xlink:title="An entity is an scene element. It ties together components with a transform. ">
<polygon fill="white" stroke="black" points="398.5,-469 398.5,-713 529.5,-713 529.5,-469 398.5,-469"/>
<text text-anchor="middle" x="464" y="-701" font-family="Helvetica,sans-Serif" font-size="10.00">Ra::Engine::Entity</text>
<polyline fill="none" stroke="black" points="398.5,-694 529.5,-694 "/>
<text text-anchor="middle" x="464" y="-682" font-family="Helvetica,sans-Serif" font-size="10.00"> </text>
<polyline fill="none" stroke="black" points="398.5,-675 529.5,-675 "/>
<text text-anchor="start" x="406.5" y="-663" font-family="Helvetica,sans-Serif" font-size="10.00">+ Entity()</text>
<text text-anchor="start" x="406.5" y="-652" font-family="Helvetica,sans-Serif" font-size="10.00">+ Entity()</text>
<text text-anchor="start" x="406.5" y="-641" font-family="Helvetica,sans-Serif" font-size="10.00">+ operator=()</text>
<text text-anchor="start" x="406.5" y="-630" font-family="Helvetica,sans-Serif" font-size="10.00">+ ~Entity()</text>
<text text-anchor="start" x="406.5" y="-619" font-family="Helvetica,sans-Serif" font-size="10.00">+ getName()</text>
<text text-anchor="start" x="406.5" y="-608" font-family="Helvetica,sans-Serif" font-size="10.00">+ rename()</text>
<text text-anchor="start" x="406.5" y="-597" font-family="Helvetica,sans-Serif" font-size="10.00">+ setTransform()</text>
<text text-anchor="start" x="406.5" y="-586" font-family="Helvetica,sans-Serif" font-size="10.00">+ setTransform()</text>
<text text-anchor="start" x="406.5" y="-575" font-family="Helvetica,sans-Serif" font-size="10.00">+ getTransform()</text>
<text text-anchor="start" x="406.5" y="-564" font-family="Helvetica,sans-Serif" font-size="10.00">+ getTransformAsMatrix()</text>
<text text-anchor="start" x="406.5" y="-553" font-family="Helvetica,sans-Serif" font-size="10.00">+ swapTransformBuffers()</text>
<text text-anchor="start" x="406.5" y="-542" font-family="Helvetica,sans-Serif" font-size="10.00">+ addComponent()</text>
<text text-anchor="start" x="406.5" y="-531" font-family="Helvetica,sans-Serif" font-size="10.00">+ removeComponent()</text>
<text text-anchor="start" x="406.5" y="-520" font-family="Helvetica,sans-Serif" font-size="10.00">+ getComponent()</text>
<text text-anchor="start" x="406.5" y="-509" font-family="Helvetica,sans-Serif" font-size="10.00">+ getComponent()</text>
<text text-anchor="start" x="406.5" y="-498" font-family="Helvetica,sans-Serif" font-size="10.00">+ getComponents()</text>
<text text-anchor="start" x="406.5" y="-487" font-family="Helvetica,sans-Serif" font-size="10.00">+ getNumComponents()</text>
<text text-anchor="start" x="406.5" y="-476" font-family="Helvetica,sans-Serif" font-size="10.00">+ rayCastQuery()</text>
</a>
</g>
</g>
<!-- Node11&#45;&gt;Node2 -->
<g id="edge11" class="edge"><title>Node11&#45;&gt;Node2</title>
<path fill="none" stroke="#404040" d="M429.924,-468.792C426.411,-456.297 422.84,-443.595 419.324,-431.091"/>
<polygon fill="none" stroke="#404040" points="419.223,-430.728 413.748,-426.034 415.975,-419.176 421.449,-423.869 419.223,-430.728"/>
<text text-anchor="middle" x="448" y="-441.5" font-family="Helvetica,sans-Serif" font-size="10.00"> #m_entity</text>
</g>
<!-- Node12 -->
<g id="node12" class="node"><title>Node12</title>
<g id="a_node12"><a xlink:href="classRa_1_1Core_1_1IndexedObject.html" target="_top" xlink:title="{Ra::Core::IndexedObject\n||+ IndexedObject()\l+ IndexedObject()\l+ ~IndexedObject()\l}">
<polygon fill="white" stroke="black" points="402.5,-762.5 402.5,-841.5 527.5,-841.5 527.5,-762.5 402.5,-762.5"/>
<text text-anchor="middle" x="465" y="-829.5" font-family="Helvetica,sans-Serif" font-size="10.00">Ra::Core::IndexedObject</text>
<polyline fill="none" stroke="black" points="402.5,-822.5 527.5,-822.5 "/>
<text text-anchor="middle" x="465" y="-810.5" font-family="Helvetica,sans-Serif" font-size="10.00"> </text>
<polyline fill="none" stroke="black" points="402.5,-803.5 527.5,-803.5 "/>
<text text-anchor="start" x="410.5" y="-791.5" font-family="Helvetica,sans-Serif" font-size="10.00">+ IndexedObject()</text>
<text text-anchor="start" x="410.5" y="-780.5" font-family="Helvetica,sans-Serif" font-size="10.00">+ IndexedObject()</text>
<text text-anchor="start" x="410.5" y="-769.5" font-family="Helvetica,sans-Serif" font-size="10.00">+ ~IndexedObject()</text>
</a>
</g>
</g>
<!-- Node12&#45;&gt;Node11 -->
<g id="edge12" class="edge"><title>Node12&#45;&gt;Node11</title>
<path fill="none" stroke="midnightblue" d="M464.766,-752.07C464.709,-740.141 464.645,-726.849 464.58,-713.166"/>
<polygon fill="none" stroke="midnightblue" points="461.266,-752.195 464.814,-762.179 468.266,-752.162 461.266,-752.195"/>
</g>
<!-- Node13 -->
<g id="node13" class="node"><title>Node13</title>
<polygon fill="white" stroke="#bfbfbf" points="454,-1066.5 454,-1123.5 486,-1123.5 486,-1066.5 454,-1066.5"/>
<text text-anchor="middle" x="470" y="-1111.5" font-family="Helvetica,sans-Serif" font-size="10.00">uint</text>
<polyline fill="none" stroke="#bfbfbf" points="454,-1104.5 486,-1104.5 "/>
<text text-anchor="middle" x="470" y="-1092.5" font-family="Helvetica,sans-Serif" font-size="10.00"> </text>
<polyline fill="none" stroke="#bfbfbf" points="454,-1085.5 486,-1085.5 "/>
<text text-anchor="middle" x="470" y="-1073.5" font-family="Helvetica,sans-Serif" font-size="10.00"> </text>
</g>
<!-- Node13&#45;&gt;Node12 -->
<g id="edge13" class="edge"><title>Node13&#45;&gt;Node12</title>
<path fill="none" stroke="#404040" d="M469.525,-1066.36C468.688,-1017.65 466.939,-915.836 465.877,-854.046"/>
<polygon fill="none" stroke="#404040" points="465.874,-853.874 461.772,-847.944 465.668,-841.876 469.771,-847.806 465.874,-853.874"/>
<text text-anchor="middle" x="478" y="-874.5" font-family="Helvetica,sans-Serif" font-size="10.00"> +idx</text>
</g>
<!-- Node14 -->
<g id="node14" class="node"><title>Node14</title>
<g id="a_node14"><a xlink:title="STL class. ">
<polygon fill="white" stroke="#bfbfbf" points="556,-562.5 556,-619.5 616,-619.5 616,-562.5 556,-562.5"/>
<text text-anchor="middle" x="586" y="-607.5" font-family="Helvetica,sans-Serif" font-size="10.00">std::string</text>
<polyline fill="none" stroke="#bfbfbf" points="556,-600.5 616,-600.5 "/>
<text text-anchor="middle" x="586" y="-588.5" font-family="Helvetica,sans-Serif" font-size="10.00"> </text>
<polyline fill="none" stroke="#bfbfbf" points="556,-581.5 616,-581.5 "/>
<text text-anchor="middle" x="586" y="-569.5" font-family="Helvetica,sans-Serif" font-size="10.00"> </text>
</a>
</g>
</g>
<!-- Node14&#45;&gt;Node2 -->
<g id="edge14" class="edge"><title>Node14&#45;&gt;Node2</title>
<path fill="none" stroke="#404040" d="M578.527,-562.376C570.805,-536.65 557.176,-497.884 538,-468 518.66,-437.861 493.044,-408.532 468.314,-383.441"/>
<polygon fill="none" stroke="#404040" points="468.103,-383.23 461.032,-381.818 459.615,-374.748 466.687,-376.16 468.103,-383.23"/>
<text text-anchor="middle" x="548" y="-441.5" font-family="Helvetica,sans-Serif" font-size="10.00"> #m_name</text>
</g>
<!-- Node15 -->
<g id="node15" class="node"><title>Node15</title>
<g id="a_node15"><a xlink:title="STL class. ">
<polygon fill="white" stroke="#bfbfbf" points="545.5,-768 545.5,-836 640.5,-836 640.5,-768 545.5,-768"/>
<text text-anchor="start" x="553.5" y="-824" font-family="Helvetica,sans-Serif" font-size="10.00">std::basic_string&lt;</text>
<text text-anchor="middle" x="593" y="-813" font-family="Helvetica,sans-Serif" font-size="10.00"> char &gt;</text>
<polyline fill="none" stroke="#bfbfbf" points="545.5,-806 640.5,-806 "/>
<text text-anchor="middle" x="593" y="-794" font-family="Helvetica,sans-Serif" font-size="10.00"> </text>
<polyline fill="none" stroke="#bfbfbf" points="545.5,-787 640.5,-787 "/>
<text text-anchor="middle" x="593" y="-775" font-family="Helvetica,sans-Serif" font-size="10.00"> </text>
</a>
</g>
</g>
<!-- Node15&#45;&gt;Node14 -->
<g id="edge15" class="edge"><title>Node15&#45;&gt;Node14</title>
<path fill="none" stroke="midnightblue" d="M591.553,-757.794C590.163,-716.309 588.106,-654.892 586.925,-619.622"/>
<polygon fill="none" stroke="midnightblue" points="588.058,-758.006 591.891,-767.883 595.054,-757.772 588.058,-758.006"/>
</g>
</g>
</svg>
