<?xml version="1.0" encoding="UTF-8" standalone="no"?>
<!DOCTYPE svg PUBLIC "-//W3C//DTD SVG 1.1//EN"
 "http://www.w3.org/Graphics/SVG/1.1/DTD/svg11.dtd">
<!-- Generated by graphviz version 2.36.0 (20140111.2315)
 -->
<!-- Title: Ra::Engine::Renderer Pages: 1 -->
<svg width="1422pt" height="1232pt"
 viewBox="0.00 0.00 1422.00 1232.00" xmlns="http://www.w3.org/2000/svg" xmlns:xlink="http://www.w3.org/1999/xlink">
<g id="graph0" class="graph" transform="scale(1 1) rotate(0) translate(4 1228)">
<title>Ra::Engine::Renderer</title>
<polygon fill="white" stroke="none" points="-4,4 -4,-1228 1418,-1228 1418,4 -4,4"/>
<!-- Node1 -->
<g id="node1" class="node"><title>Node1</title>
<polygon fill="#bfbfbf" stroke="black" points="646.5,-0.5 646.5,-409.5 769.5,-409.5 769.5,-0.5 646.5,-0.5"/>
<text text-anchor="middle" x="708" y="-397.5" font-family="Helvetica,sans-Serif" font-size="10.00">Ra::Engine::Renderer</text>
<polyline fill="none" stroke="black" points="646.5,-390.5 769.5,-390.5 "/>
<text text-anchor="middle" x="708" y="-378.5" font-family="Helvetica,sans-Serif" font-size="10.00"> </text>
<polyline fill="none" stroke="black" points="646.5,-371.5 769.5,-371.5 "/>
<text text-anchor="start" x="654.5" y="-359.5" font-family="Helvetica,sans-Serif" font-size="10.00">+ Renderer()</text>
<text text-anchor="start" x="654.5" y="-348.5" font-family="Helvetica,sans-Serif" font-size="10.00">+ ~Renderer()</text>
<text text-anchor="start" x="654.5" y="-337.5" font-family="Helvetica,sans-Serif" font-size="10.00">+ getTimerData()</text>
<text text-anchor="start" x="654.5" y="-326.5" font-family="Helvetica,sans-Serif" font-size="10.00">+ getDisplayTexture()</text>
<text text-anchor="start" x="654.5" y="-315.5" font-family="Helvetica,sans-Serif" font-size="10.00">+ lockRendering()</text>
<text text-anchor="start" x="654.5" y="-304.5" font-family="Helvetica,sans-Serif" font-size="10.00">+ unlockRendering()</text>
<text text-anchor="start" x="654.5" y="-293.5" font-family="Helvetica,sans-Serif" font-size="10.00">+ toggleWireframe()</text>
<text text-anchor="start" x="654.5" y="-282.5" font-family="Helvetica,sans-Serif" font-size="10.00">+ setWireframe()</text>
<text text-anchor="start" x="654.5" y="-271.5" font-family="Helvetica,sans-Serif" font-size="10.00">+ enablePostProcess()</text>
<text text-anchor="start" x="654.5" y="-260.5" font-family="Helvetica,sans-Serif" font-size="10.00">+ render()</text>
<text text-anchor="start" x="654.5" y="-249.5" font-family="Helvetica,sans-Serif" font-size="10.00">+ initialize()</text>
<text text-anchor="start" x="654.5" y="-238.5" font-family="Helvetica,sans-Serif" font-size="10.00">+ resize()</text>
<text text-anchor="start" x="654.5" y="-227.5" font-family="Helvetica,sans-Serif" font-size="10.00">+ addPickingRequest()</text>
<text text-anchor="start" x="654.5" y="-216.5" font-family="Helvetica,sans-Serif" font-size="10.00">+ getPickingResults()</text>
<text text-anchor="start" x="654.5" y="-205.5" font-family="Helvetica,sans-Serif" font-size="10.00">+ getPickingQueries()</text>
<text text-anchor="start" x="654.5" y="-194.5" font-family="Helvetica,sans-Serif" font-size="10.00">+ setMousePosition()</text>
<text text-anchor="start" x="654.5" y="-183.5" font-family="Helvetica,sans-Serif" font-size="10.00">+ setBrushRadius()</text>
<text text-anchor="start" x="654.5" y="-172.5" font-family="Helvetica,sans-Serif" font-size="10.00">+ toggleDrawDebug()</text>
<text text-anchor="start" x="654.5" y="-161.5" font-family="Helvetica,sans-Serif" font-size="10.00">+ enableDebugDraw()</text>
<text text-anchor="start" x="654.5" y="-150.5" font-family="Helvetica,sans-Serif" font-size="10.00">+ addLight()</text>
<text text-anchor="start" x="654.5" y="-139.5" font-family="Helvetica,sans-Serif" font-size="10.00">+ hasLight()</text>
<text text-anchor="start" x="654.5" y="-128.5" font-family="Helvetica,sans-Serif" font-size="10.00">+ reloadShaders()</text>
<text text-anchor="start" x="654.5" y="-117.5" font-family="Helvetica,sans-Serif" font-size="10.00">+ displayTexture()</text>
<text text-anchor="start" x="654.5" y="-106.5" font-family="Helvetica,sans-Serif" font-size="10.00">+ getAvailableTextures()</text>
<text text-anchor="start" x="654.5" y="-95.5" font-family="Helvetica,sans-Serif" font-size="10.00">+ getRendererName()</text>
<text text-anchor="start" x="654.5" y="-84.5" font-family="Helvetica,sans-Serif" font-size="10.00">+ grabFrame()</text>
<text text-anchor="start" x="654.5" y="-73.5" font-family="Helvetica,sans-Serif" font-size="10.00"># initializeInternal()</text>
<text text-anchor="start" x="654.5" y="-62.5" font-family="Helvetica,sans-Serif" font-size="10.00"># resizeInternal()</text>
<text text-anchor="start" x="654.5" y="-51.5" font-family="Helvetica,sans-Serif" font-size="10.00"># updateStepInternal()</text>
<text text-anchor="start" x="654.5" y="-40.5" font-family="Helvetica,sans-Serif" font-size="10.00"># renderInternal()</text>
<text text-anchor="start" x="654.5" y="-29.5" font-family="Helvetica,sans-Serif" font-size="10.00"># postProcessInternal()</text>
<text text-anchor="start" x="654.5" y="-18.5" font-family="Helvetica,sans-Serif" font-size="10.00"># debugInternal()</text>
<text text-anchor="start" x="654.5" y="-7.5" font-family="Helvetica,sans-Serif" font-size="10.00"># uiInternal()</text>
</g>
<!-- Node2 -->
<g id="node2" class="node"><title>Node2</title>
<polygon fill="white" stroke="#bfbfbf" points="52.5,-557 52.5,-625 175.5,-625 175.5,-557 52.5,-557"/>
<text text-anchor="start" x="60.5" y="-613" font-family="Helvetica,sans-Serif" font-size="10.00">std::map&lt; std::string,</text>
<text text-anchor="middle" x="114" y="-602" font-family="Helvetica,sans-Serif" font-size="10.00"> Ra::Engine::Texture * &gt;</text>
<polyline fill="none" stroke="#bfbfbf" points="52.5,-595 175.5,-595 "/>
<text text-anchor="middle" x="114" y="-583" font-family="Helvetica,sans-Serif" font-size="10.00"> </text>
<polyline fill="none" stroke="#bfbfbf" points="52.5,-576 175.5,-576 "/>
<text text-anchor="middle" x="114" y="-564" font-family="Helvetica,sans-Serif" font-size="10.00"> </text>
</g>
<!-- Node2&#45;&gt;Node1 -->
<g id="edge1" class="edge"><title>Node2&#45;&gt;Node1</title>
<path fill="none" stroke="#404040" d="M113.441,-556.826C114.595,-520.96 121.769,-464.096 153,-428 279.207,-282.134 514.712,-231.053 634.276,-214.013"/>
<polygon fill="none" stroke="#404040" points="634.288,-214.012 639.686,-209.231 646.176,-212.375 640.777,-217.156 634.288,-214.012"/>
<text text-anchor="middle" x="206" y="-447.5" font-family="Helvetica,sans-Serif" font-size="10.00"> #m_secondaryTextures</text>
</g>
<!-- Node3 -->
<g id="node3" class="node"><title>Node3</title>
<g id="a_node3"><a xlink:href="classRa_1_1Engine_1_1Texture.html" target="_top" xlink:title="{Ra::Engine::Texture\n||+ Texture()\l+ ~Texture()\l+ Generate()\l+ Generate()\l+ Generate()\l+ GenerateCube()\l+ bind()\l+ getName()\l+ updateData()\l+ updateParameters()\l+ format()\l+ width()\l+ height()\l+ texture()\l}">
<polygon fill="white" stroke="black" points="217.5,-795 217.5,-995 328.5,-995 328.5,-795 217.5,-795"/>
<text text-anchor="middle" x="273" y="-983" font-family="Helvetica,sans-Serif" font-size="10.00">Ra::Engine::Texture</text>
<polyline fill="none" stroke="black" points="217.5,-976 328.5,-976 "/>
<text text-anchor="middle" x="273" y="-964" font-family="Helvetica,sans-Serif" font-size="10.00"> </text>
<polyline fill="none" stroke="black" points="217.5,-957 328.5,-957 "/>
<text text-anchor="start" x="225.5" y="-945" font-family="Helvetica,sans-Serif" font-size="10.00">+ Texture()</text>
<text text-anchor="start" x="225.5" y="-934" font-family="Helvetica,sans-Serif" font-size="10.00">+ ~Texture()</text>
<text text-anchor="start" x="225.5" y="-923" font-family="Helvetica,sans-Serif" font-size="10.00">+ Generate()</text>
<text text-anchor="start" x="225.5" y="-912" font-family="Helvetica,sans-Serif" font-size="10.00">+ Generate()</text>
<text text-anchor="start" x="225.5" y="-901" font-family="Helvetica,sans-Serif" font-size="10.00">+ Generate()</text>
<text text-anchor="start" x="225.5" y="-890" font-family="Helvetica,sans-Serif" font-size="10.00">+ GenerateCube()</text>
<text text-anchor="start" x="225.5" y="-879" font-family="Helvetica,sans-Serif" font-size="10.00">+ bind()</text>
<text text-anchor="start" x="225.5" y="-868" font-family="Helvetica,sans-Serif" font-size="10.00">+ getName()</text>
<text text-anchor="start" x="225.5" y="-857" font-family="Helvetica,sans-Serif" font-size="10.00">+ updateData()</text>
<text text-anchor="start" x="225.5" y="-846" font-family="Helvetica,sans-Serif" font-size="10.00">+ updateParameters()</text>
<text text-anchor="start" x="225.5" y="-835" font-family="Helvetica,sans-Serif" font-size="10.00">+ format()</text>
<text text-anchor="start" x="225.5" y="-824" font-family="Helvetica,sans-Serif" font-size="10.00">+ width()</text>
<text text-anchor="start" x="225.5" y="-813" font-family="Helvetica,sans-Serif" font-size="10.00">+ height()</text>
<text text-anchor="start" x="225.5" y="-802" font-family="Helvetica,sans-Serif" font-size="10.00">+ texture()</text>
</a>
</g>
</g>
<!-- Node3&#45;&gt;Node1 -->
<g id="edge13" class="edge"><title>Node3&#45;&gt;Node1</title>
<path fill="none" stroke="#404040" d="M264.946,-794.974C258.404,-692.501 254.249,-540.493 282,-490 358.186,-351.379 534.301,-268.246 634.603,-230.442"/>
<polygon fill="none" stroke="#404040" points="634.897,-230.333 639.133,-224.497 646.149,-226.164 641.913,-231.999 634.897,-230.333"/>
<text text-anchor="middle" x="330.5" y="-588.5" font-family="Helvetica,sans-Serif" font-size="10.00"> #m_displayedTexture</text>
</g>
<!-- Node3&#45;&gt;Node2 -->
<g id="edge2" class="edge"><title>Node3&#45;&gt;Node2</title>
<path fill="none" stroke="#404040" d="M229.121,-794.591C216.195,-766.881 201.589,-736.986 187,-710 173.364,-684.778 156.628,-657.502 142.622,-635.533"/>
<polygon fill="none" stroke="#404040" points="142.475,-635.305 135.867,-632.418 135.991,-625.208 142.599,-628.095 142.475,-635.305"/>
<text text-anchor="middle" x="222.5" y="-718.5" font-family="Helvetica,sans-Serif" font-size="10.00"> +elements</text>
</g>
<!-- Node18 -->
<g id="node18" class="node"><title>Node18</title>
<polygon fill="white" stroke="#bfbfbf" points="558.5,-557 558.5,-625 661.5,-625 661.5,-557 558.5,-557"/>
<text text-anchor="start" x="566.5" y="-613" font-family="Helvetica,sans-Serif" font-size="10.00">std::unique_ptr&lt; Ra</text>
<text text-anchor="middle" x="610" y="-602" font-family="Helvetica,sans-Serif" font-size="10.00">::Engine::Texture &gt;</text>
<polyline fill="none" stroke="#bfbfbf" points="558.5,-595 661.5,-595 "/>
<text text-anchor="middle" x="610" y="-583" font-family="Helvetica,sans-Serif" font-size="10.00"> </text>
<polyline fill="none" stroke="#bfbfbf" points="558.5,-576 661.5,-576 "/>
<text text-anchor="start" x="566.5" y="-564" font-family="Helvetica,sans-Serif" font-size="10.00">+ operator&#45;&gt;()</text>
</g>
<!-- Node3&#45;&gt;Node18 -->
<g id="edge21" class="edge"><title>Node3&#45;&gt;Node18</title>
<path fill="none" stroke="#404040" d="M328.702,-820.286C352.209,-794.15 381.644,-767.029 414,-750 455.124,-728.356 477.011,-755.674 517,-732 536.591,-720.402 535.935,-710.644 549,-692 561.623,-673.986 574.469,-653.343 585.096,-635.507"/>
<polygon fill="none" stroke="#404040" points="585.143,-635.429 584.747,-628.229 591.241,-625.094 591.637,-632.294 585.143,-635.429"/>
<text text-anchor="middle" x="548.5" y="-718.5" font-family="Helvetica,sans-Serif" font-size="10.00"> +ptr</text>
</g>
<!-- Node4 -->
<g id="node4" class="node"><title>Node4</title>
<polygon fill="white" stroke="#bfbfbf" points="246.5,-1160.5 246.5,-1217.5 299.5,-1217.5 299.5,-1160.5 246.5,-1160.5"/>
<text text-anchor="middle" x="273" y="-1205.5" font-family="Helvetica,sans-Serif" font-size="10.00">GLenum</text>
<polyline fill="none" stroke="#bfbfbf" points="246.5,-1198.5 299.5,-1198.5 "/>
<text text-anchor="middle" x="273" y="-1186.5" font-family="Helvetica,sans-Serif" font-size="10.00"> </text>
<polyline fill="none" stroke="#bfbfbf" points="246.5,-1179.5 299.5,-1179.5 "/>
<text text-anchor="middle" x="273" y="-1167.5" font-family="Helvetica,sans-Serif" font-size="10.00"> </text>
</g>
<!-- Node4&#45;&gt;Node3 -->
<g id="edge3" class="edge"><title>Node4&#45;&gt;Node3</title>
<path fill="none" stroke="#404040" d="M273,-1160.27C273,-1125.19 273,-1062.66 273,-1007.23"/>
<polygon fill="none" stroke="#404040" points="273,-1007.16 269,-1001.16 273,-995.158 277,-1001.16 273,-1007.16"/>
<text text-anchor="middle" x="307.5" y="-1127.5" font-family="Helvetica,sans-Serif" font-size="10.00"> +minFilter</text>
<text text-anchor="middle" x="307.5" y="-1116.5" font-family="Helvetica,sans-Serif" font-size="10.00">+dataType</text>
<text text-anchor="middle" x="307.5" y="-1105.5" font-family="Helvetica,sans-Serif" font-size="10.00">+magFilter</text>
<text text-anchor="middle" x="307.5" y="-1094.5" font-family="Helvetica,sans-Serif" font-size="10.00">+wrapR</text>
<text text-anchor="middle" x="307.5" y="-1083.5" font-family="Helvetica,sans-Serif" font-size="10.00">+internalFormat</text>
<text text-anchor="middle" x="307.5" y="-1072.5" font-family="Helvetica,sans-Serif" font-size="10.00">+wrapS</text>
<text text-anchor="middle" x="307.5" y="-1061.5" font-family="Helvetica,sans-Serif" font-size="10.00">+wrapT</text>
</g>
<!-- Node5 -->
<g id="node5" class="node"><title>Node5</title>
<g id="a_node5"><a xlink:title="STL class. ">
<polygon fill="white" stroke="#bfbfbf" points="17,-866.5 17,-923.5 77,-923.5 77,-866.5 17,-866.5"/>
<text text-anchor="middle" x="47" y="-911.5" font-family="Helvetica,sans-Serif" font-size="10.00">std::string</text>
<polyline fill="none" stroke="#bfbfbf" points="17,-904.5 77,-904.5 "/>
<text text-anchor="middle" x="47" y="-892.5" font-family="Helvetica,sans-Serif" font-size="10.00"> </text>
<polyline fill="none" stroke="#bfbfbf" points="17,-885.5 77,-885.5 "/>
<text text-anchor="middle" x="47" y="-873.5" font-family="Helvetica,sans-Serif" font-size="10.00"> </text>
</a>
</g>
</g>
<!-- Node5&#45;&gt;Node2 -->
<g id="edge4" class="edge"><title>Node5&#45;&gt;Node2</title>
<path fill="none" stroke="#404040" d="M47.6774,-866.473C49.0942,-830.14 53.4726,-764.415 67,-710 73.2457,-684.876 83.6474,-657.979 93.0798,-636.219"/>
<polygon fill="none" stroke="#404040" points="93.179,-635.995 91.9535,-628.889 98.0418,-625.025 99.2673,-632.131 93.179,-635.995"/>
<text text-anchor="middle" x="82.5" y="-718.5" font-family="Helvetica,sans-Serif" font-size="10.00"> +keys</text>
</g>
<!-- Node6 -->
<g id="node6" class="node"><title>Node6</title>
<g id="a_node6"><a xlink:title="STL class. ">
<polygon fill="white" stroke="#bfbfbf" points="-0.5,-1155 -0.5,-1223 94.5,-1223 94.5,-1155 -0.5,-1155"/>
<text text-anchor="start" x="7.5" y="-1211" font-family="Helvetica,sans-Serif" font-size="10.00">std::basic_string&lt;</text>
<text text-anchor="middle" x="47" y="-1200" font-family="Helvetica,sans-Serif" font-size="10.00"> char &gt;</text>
<polyline fill="none" stroke="#bfbfbf" points="-0.5,-1193 94.5,-1193 "/>
<text text-anchor="middle" x="47" y="-1181" font-family="Helvetica,sans-Serif" font-size="10.00"> </text>
<polyline fill="none" stroke="#bfbfbf" points="-0.5,-1174 94.5,-1174 "/>
<text text-anchor="middle" x="47" y="-1162" font-family="Helvetica,sans-Serif" font-size="10.00"> </text>
</a>
</g>
</g>
<!-- Node6&#45;&gt;Node5 -->
<g id="edge5" class="edge"><title>Node6&#45;&gt;Node5</title>
<path fill="none" stroke="midnightblue" d="M47,-1144.72C47,-1083.8 47,-974.519 47,-923.563"/>
<polygon fill="none" stroke="midnightblue" points="43.5001,-1144.79 47,-1154.79 50.5001,-1144.79 43.5001,-1144.79"/>
</g>
<!-- Node7 -->
<g id="node7" class="node"><title>Node7</title>
<g id="a_node7"><a xlink:title="STL class. ">
<polygon fill="white" stroke="#bfbfbf" points="101,-866.5 101,-923.5 193,-923.5 193,-866.5 101,-866.5"/>
<text text-anchor="middle" x="147" y="-911.5" font-family="Helvetica,sans-Serif" font-size="10.00">std::map&lt; K, T &gt;</text>
<polyline fill="none" stroke="#bfbfbf" points="101,-904.5 193,-904.5 "/>
<text text-anchor="middle" x="147" y="-892.5" font-family="Helvetica,sans-Serif" font-size="10.00"> </text>
<polyline fill="none" stroke="#bfbfbf" points="101,-885.5 193,-885.5 "/>
<text text-anchor="middle" x="147" y="-873.5" font-family="Helvetica,sans-Serif" font-size="10.00"> </text>
</a>
</g>
</g>
<!-- Node7&#45;&gt;Node2 -->
<g id="edge6" class="edge"><title>Node7&#45;&gt;Node2</title>
<path fill="none" stroke="orange" d="M133.578,-856.859C122.606,-824.409 107.967,-775.772 102,-732 100.679,-722.312 101.505,-719.765 102,-710 103.455,-681.311 106.888,-648.85 109.71,-625.246"/>
<polygon fill="orange" stroke="orange" points="130.293,-858.068 136.852,-866.387 136.913,-855.793 130.293,-858.068"/>
<text text-anchor="start" x="102" y="-724" font-family="Helvetica,sans-Serif" font-size="10.00"> &lt; std::string, Ra::</text>
<text text-anchor="middle" x="144.5" y="-713" font-family="Helvetica,sans-Serif" font-size="10.00">Engine::Texture * &gt;</text>
</g>
<!-- Node8 -->
<g id="node8" class="node"><title>Node8</title>
<polygon fill="white" stroke="#bfbfbf" points="132.5,-1160.5 132.5,-1217.5 161.5,-1217.5 161.5,-1160.5 132.5,-1160.5"/>
<text text-anchor="middle" x="147" y="-1205.5" font-family="Helvetica,sans-Serif" font-size="10.00">K</text>
<polyline fill="none" stroke="#bfbfbf" points="132.5,-1198.5 161.5,-1198.5 "/>
<text text-anchor="middle" x="147" y="-1186.5" font-family="Helvetica,sans-Serif" font-size="10.00"> </text>
<polyline fill="none" stroke="#bfbfbf" points="132.5,-1179.5 161.5,-1179.5 "/>
<text text-anchor="middle" x="147" y="-1167.5" font-family="Helvetica,sans-Serif" font-size="10.00"> </text>
</g>
<!-- Node8&#45;&gt;Node7 -->
<g id="edge7" class="edge"><title>Node8&#45;&gt;Node7</title>
<path fill="none" stroke="#404040" d="M147,-1160.27C147,-1108.28 147,-996.001 147,-935.893"/>
<polygon fill="none" stroke="#404040" points="147,-935.549 143,-929.549 147,-923.549 151,-929.549 147,-935.549"/>
<text text-anchor="middle" x="162.5" y="-1094.5" font-family="Helvetica,sans-Serif" font-size="10.00"> +keys</text>
</g>
<!-- Node9 -->
<g id="node9" class="node"><title>Node9</title>
<polygon fill="white" stroke="#bfbfbf" points="722.5,-1160.5 722.5,-1217.5 751.5,-1217.5 751.5,-1160.5 722.5,-1160.5"/>
<text text-anchor="middle" x="737" y="-1205.5" font-family="Helvetica,sans-Serif" font-size="10.00">T</text>
<polyline fill="none" stroke="#bfbfbf" points="722.5,-1198.5 751.5,-1198.5 "/>
<text text-anchor="middle" x="737" y="-1186.5" font-family="Helvetica,sans-Serif" font-size="10.00"> </text>
<polyline fill="none" stroke="#bfbfbf" points="722.5,-1179.5 751.5,-1179.5 "/>
<text text-anchor="middle" x="737" y="-1167.5" font-family="Helvetica,sans-Serif" font-size="10.00"> </text>
</g>
<!-- Node9&#45;&gt;Node7 -->
<g id="edge8" class="edge"><title>Node9&#45;&gt;Node7</title>
<path fill="none" stroke="#404040" d="M722.376,-1182C671.424,-1161.34 496.61,-1092.53 346,-1058 315.855,-1051.09 232.622,-1058.71 208,-1040 175.128,-1015.02 159.785,-968.901 152.745,-935.576"/>
<polygon fill="none" stroke="#404040" points="152.69,-935.287 147.633,-930.145 150.434,-923.5 155.49,-928.642 152.69,-935.287"/>
<text text-anchor="middle" x="624.5" y="-1094.5" font-family="Helvetica,sans-Serif" font-size="10.00"> +elements</text>
</g>
<!-- Node12 -->
<g id="node12" class="node"><title>Node12</title>
<g id="a_node12"><a xlink:title="STL class. ">
<polygon fill="white" stroke="#bfbfbf" points="693.5,-866.5 693.5,-923.5 780.5,-923.5 780.5,-866.5 693.5,-866.5"/>
<text text-anchor="middle" x="737" y="-911.5" font-family="Helvetica,sans-Serif" font-size="10.00">std::vector&lt; T &gt;</text>
<polyline fill="none" stroke="#bfbfbf" points="693.5,-904.5 780.5,-904.5 "/>
<text text-anchor="middle" x="737" y="-892.5" font-family="Helvetica,sans-Serif" font-size="10.00"> </text>
<polyline fill="none" stroke="#bfbfbf" points="693.5,-885.5 780.5,-885.5 "/>
<text text-anchor="middle" x="737" y="-873.5" font-family="Helvetica,sans-Serif" font-size="10.00"> </text>
</a>
</g>
</g>
<!-- Node9&#45;&gt;Node12 -->
<g id="edge12" class="edge"><title>Node9&#45;&gt;Node12</title>
<path fill="none" stroke="#404040" d="M737,-1160.27C737,-1108.28 737,-996.001 737,-935.893"/>
<polygon fill="none" stroke="#404040" points="737,-935.549 733,-929.549 737,-923.549 741,-929.549 737,-935.549"/>
<text text-anchor="middle" x="761.5" y="-1094.5" font-family="Helvetica,sans-Serif" font-size="10.00"> +elements</text>
</g>
<!-- Node19 -->
<g id="node19" class="node"><title>Node19</title>
<g id="a_node19"><a xlink:title="STL class. ">
<polygon fill="white" stroke="#bfbfbf" points="1053.5,-866.5 1053.5,-923.5 1158.5,-923.5 1158.5,-866.5 1053.5,-866.5"/>
<text text-anchor="middle" x="1106" y="-911.5" font-family="Helvetica,sans-Serif" font-size="10.00">std::unique_ptr&lt; T &gt;</text>
<polyline fill="none" stroke="#bfbfbf" points="1053.5,-904.5 1158.5,-904.5 "/>
<text text-anchor="middle" x="1106" y="-892.5" font-family="Helvetica,sans-Serif" font-size="10.00"> </text>
<polyline fill="none" stroke="#bfbfbf" points="1053.5,-885.5 1158.5,-885.5 "/>
<text text-anchor="start" x="1061.5" y="-873.5" font-family="Helvetica,sans-Serif" font-size="10.00">+ operator&#45;&gt;()</text>
</a>
</g>
</g>
<!-- Node9&#45;&gt;Node19 -->
<g id="edge23" class="edge"><title>Node9&#45;&gt;Node19</title>
<path fill="none" stroke="#404040" d="M751.665,-1184.82C799.998,-1173.62 956.19,-1131.64 1044,-1040 1071.93,-1010.85 1088.31,-967.146 1097.14,-935.532"/>
<polygon fill="none" stroke="#404040" points="1097.22,-935.249 1094.88,-928.429 1100.27,-923.645 1102.61,-930.465 1097.22,-935.249"/>
<text text-anchor="middle" x="1035.5" y="-1094.5" font-family="Helvetica,sans-Serif" font-size="10.00"> +ptr</text>
</g>
<!-- Node10 -->
<g id="node10" class="node"><title>Node10</title>
<polygon fill="white" stroke="#bfbfbf" points="388,-557 388,-625 540,-625 540,-557 388,-557"/>
<text text-anchor="start" x="396" y="-613" font-family="Helvetica,sans-Serif" font-size="10.00">std::vector&lt; Ra::Engine</text>
<text text-anchor="middle" x="464" y="-602" font-family="Helvetica,sans-Serif" font-size="10.00">::Ra::Engine::LightManager * &gt;</text>
<polyline fill="none" stroke="#bfbfbf" points="388,-595 540,-595 "/>
<text text-anchor="middle" x="464" y="-583" font-family="Helvetica,sans-Serif" font-size="10.00"> </text>
<polyline fill="none" stroke="#bfbfbf" points="388,-576 540,-576 "/>
<text text-anchor="middle" x="464" y="-564" font-family="Helvetica,sans-Serif" font-size="10.00"> </text>
</g>
<!-- Node10&#45;&gt;Node1 -->
<g id="edge9" class="edge"><title>Node10&#45;&gt;Node1</title>
<path fill="none" stroke="#404040" d="M465.679,-556.882C468.577,-522.83 476.476,-469.118 498,-428 532.024,-363.004 590.564,-303.451 637.207,-262.424"/>
<polygon fill="none" stroke="#404040" points="637.306,-262.339 639.213,-255.384 646.366,-254.47 644.459,-261.424 637.306,-262.339"/>
<text text-anchor="middle" x="539.5" y="-447.5" font-family="Helvetica,sans-Serif" font-size="10.00"> #m_lightmanagers</text>
</g>
<!-- Node11 -->
<g id="node11" class="node"><title>Node11</title>
<polygon fill="white" stroke="#bfbfbf" points="423,-866.5 423,-923.5 505,-923.5 505,-866.5 423,-866.5"/>
<text text-anchor="middle" x="464" y="-911.5" font-family="Helvetica,sans-Serif" font-size="10.00">LightManager *</text>
<polyline fill="none" stroke="#bfbfbf" points="423,-904.5 505,-904.5 "/>
<text text-anchor="middle" x="464" y="-892.5" font-family="Helvetica,sans-Serif" font-size="10.00"> </text>
<polyline fill="none" stroke="#bfbfbf" points="423,-885.5 505,-885.5 "/>
<text text-anchor="middle" x="464" y="-873.5" font-family="Helvetica,sans-Serif" font-size="10.00"> </text>
</g>
<!-- Node11&#45;&gt;Node10 -->
<g id="edge10" class="edge"><title>Node11&#45;&gt;Node10</title>
<path fill="none" stroke="#404040" d="M464,-866.399C464,-814.361 464,-701.278 464,-637.723"/>
<polygon fill="none" stroke="#404040" points="464,-637.329 460,-631.329 464,-625.329 468,-631.329 464,-637.329"/>
<text text-anchor="middle" x="488.5" y="-718.5" font-family="Helvetica,sans-Serif" font-size="10.00"> +elements</text>
</g>
<!-- Node12&#45;&gt;Node10 -->
<g id="edge11" class="edge"><title>Node12&#45;&gt;Node10</title>
<path fill="none" stroke="orange" d="M717.899,-857.437C694.673,-816.259 651.82,-749.899 598,-710 579.362,-696.183 568.027,-705.275 549,-692 523.399,-674.139 500.856,-646.755 485.429,-625.157"/>
<polygon fill="orange" stroke="orange" points="714.917,-859.278 722.828,-866.326 721.039,-855.883 714.917,-859.278"/>
<text text-anchor="start" x="622" y="-724" font-family="Helvetica,sans-Serif" font-size="10.00"> &lt; Ra::Engine::Ra::Engine</text>
<text text-anchor="middle" x="680" y="-713" font-family="Helvetica,sans-Serif" font-size="10.00">::LightManager * &gt;</text>
</g>
<!-- Node13 -->
<g id="node13" class="node"><title>Node13</title>
<polygon fill="white" stroke="#bfbfbf" points="942,-557 942,-625 1074,-625 1074,-557 942,-557"/>
<text text-anchor="start" x="950" y="-613" font-family="Helvetica,sans-Serif" font-size="10.00">std::vector&lt; RenderObject</text>
<text text-anchor="middle" x="1008" y="-602" font-family="Helvetica,sans-Serif" font-size="10.00">Ptr &gt;</text>
<polyline fill="none" stroke="#bfbfbf" points="942,-595 1074,-595 "/>
<text text-anchor="middle" x="1008" y="-583" font-family="Helvetica,sans-Serif" font-size="10.00"> </text>
<polyline fill="none" stroke="#bfbfbf" points="942,-576 1074,-576 "/>
<text text-anchor="middle" x="1008" y="-564" font-family="Helvetica,sans-Serif" font-size="10.00"> </text>
</g>
<!-- Node12&#45;&gt;Node13 -->
<g id="edge16" class="edge"><title>Node12&#45;&gt;Node13</title>
<path fill="none" stroke="orange" d="M763.838,-858.389C794.613,-819.056 847.95,-755.305 903,-710 915.006,-700.119 921.453,-702.414 933,-692 954.595,-672.524 974.131,-646.038 987.848,-625.217"/>
<polygon fill="orange" stroke="orange" points="760.989,-856.351 757.62,-866.396 766.518,-860.644 760.989,-856.351"/>
<text text-anchor="middle" x="950" y="-718.5" font-family="Helvetica,sans-Serif" font-size="10.00"> &lt; RenderObjectPtr &gt;</text>
</g>
<!-- Node13&#45;&gt;Node1 -->
<g id="edge14" class="edge"><title>Node13&#45;&gt;Node1</title>
<path fill="none" stroke="#404040" d="M994.212,-556.719C979.374,-522.774 953.845,-469.364 924,-428 881.523,-369.129 823.778,-310.612 778.681,-268.447"/>
<polygon fill="none" stroke="#404040" points="778.632,-268.402 771.514,-267.251 769.838,-260.237 776.957,-261.388 778.632,-268.402"/>
<text text-anchor="middle" x="1006.5" y="-464" font-family="Helvetica,sans-Serif" font-size="10.00"> #m_uiRenderObjects</text>
<text text-anchor="middle" x="1006.5" y="-453" font-family="Helvetica,sans-Serif" font-size="10.00">#m_debugRenderObjects</text>
<text text-anchor="middle" x="1006.5" y="-442" font-family="Helvetica,sans-Serif" font-size="10.00">#m_fancyRenderObjects</text>
<text text-anchor="middle" x="1006.5" y="-431" font-family="Helvetica,sans-Serif" font-size="10.00">#m_xrayRenderObjects</text>
</g>
<!-- Node14 -->
<g id="node14" class="node"><title>Node14</title>
<polygon fill="white" stroke="#bfbfbf" points="946.5,-866.5 946.5,-923.5 1035.5,-923.5 1035.5,-866.5 946.5,-866.5"/>
<text text-anchor="middle" x="991" y="-911.5" font-family="Helvetica,sans-Serif" font-size="10.00">RenderObjectPtr</text>
<polyline fill="none" stroke="#bfbfbf" points="946.5,-904.5 1035.5,-904.5 "/>
<text text-anchor="middle" x="991" y="-892.5" font-family="Helvetica,sans-Serif" font-size="10.00"> </text>
<polyline fill="none" stroke="#bfbfbf" points="946.5,-885.5 1035.5,-885.5 "/>
<text text-anchor="middle" x="991" y="-873.5" font-family="Helvetica,sans-Serif" font-size="10.00"> </text>
</g>
<!-- Node14&#45;&gt;Node13 -->
<g id="edge15" class="edge"><title>Node14&#45;&gt;Node13</title>
<path fill="none" stroke="#404040" d="M992.554,-866.399C995.489,-814.252 1001.88,-700.806 1005.45,-637.326"/>
<polygon fill="none" stroke="#404040" points="1005.45,-637.31 1001.79,-631.095 1006.12,-625.329 1009.78,-631.545 1005.45,-637.31"/>
<text text-anchor="middle" x="1026.5" y="-718.5" font-family="Helvetica,sans-Serif" font-size="10.00"> +elements</text>
</g>
<!-- Node15 -->
<g id="node15" class="node"><title>Node15</title>
<polygon fill="white" stroke="#bfbfbf" points="679.5,-562.5 679.5,-619.5 708.5,-619.5 708.5,-562.5 679.5,-562.5"/>
<text text-anchor="middle" x="694" y="-607.5" font-family="Helvetica,sans-Serif" font-size="10.00">int</text>
<polyline fill="none" stroke="#bfbfbf" points="679.5,-600.5 708.5,-600.5 "/>
<text text-anchor="middle" x="694" y="-588.5" font-family="Helvetica,sans-Serif" font-size="10.00"> </text>
<polyline fill="none" stroke="#bfbfbf" points="679.5,-581.5 708.5,-581.5 "/>
<text text-anchor="middle" x="694" y="-569.5" font-family="Helvetica,sans-Serif" font-size="10.00"> </text>
</g>
<!-- Node15&#45;&gt;Node1 -->
<g id="edge17" class="edge"><title>Node15&#45;&gt;Node1</title>
<path fill="none" stroke="#404040" d="M687.592,-562.053C682.483,-538.259 675.745,-503.091 673,-472 671.566,-455.759 671.179,-438.986 671.578,-422.13"/>
<polygon fill="none" stroke="#404040" points="671.588,-421.841 667.799,-415.706 672.005,-409.849 675.794,-415.984 671.588,-421.841"/>
<text text-anchor="middle" x="697.5" y="-453" font-family="Helvetica,sans-Serif" font-size="10.00"> #m_height</text>
<text text-anchor="middle" x="697.5" y="-442" font-family="Helvetica,sans-Serif" font-size="10.00">#m_width</text>
</g>
<!-- Node16 -->
<g id="node16" class="node"><title>Node16</title>
<g id="a_node16"><a xlink:href="classbool.html" target="_top" xlink:title="{bool\n||}">
<polygon fill="white" stroke="black" points="726.5,-562.5 726.5,-619.5 761.5,-619.5 761.5,-562.5 726.5,-562.5"/>
<text text-anchor="middle" x="744" y="-607.5" font-family="Helvetica,sans-Serif" font-size="10.00">bool</text>
<polyline fill="none" stroke="black" points="726.5,-600.5 761.5,-600.5 "/>
<text text-anchor="middle" x="744" y="-588.5" font-family="Helvetica,sans-Serif" font-size="10.00"> </text>
<polyline fill="none" stroke="black" points="726.5,-581.5 761.5,-581.5 "/>
<text text-anchor="middle" x="744" y="-569.5" font-family="Helvetica,sans-Serif" font-size="10.00"> </text>
</a>
</g>
</g>
<!-- Node16&#45;&gt;Node1 -->
<g id="edge18" class="edge"><title>Node16&#45;&gt;Node1</title>
<path fill="none" stroke="#404040" d="M741.411,-562.384C738.499,-531.318 733.482,-477.807 728.209,-421.558"/>
<polygon fill="none" stroke="#404040" points="728.2,-421.468 723.658,-415.868 727.08,-409.521 731.623,-415.121 728.2,-421.468"/>
<text text-anchor="middle" x="797" y="-464" font-family="Helvetica,sans-Serif" font-size="10.00"> #m_renderQueuesUpToDate</text>
<text text-anchor="middle" x="797" y="-453" font-family="Helvetica,sans-Serif" font-size="10.00">#m_postProcessEnabled</text>
<text text-anchor="middle" x="797" y="-442" font-family="Helvetica,sans-Serif" font-size="10.00">#m_wireframe</text>
<text text-anchor="middle" x="797" y="-431" font-family="Helvetica,sans-Serif" font-size="10.00">#m_drawDebug</text>
</g>
<!-- Node17 -->
<g id="node17" class="node"><title>Node17</title>
<g id="a_node17"><a xlink:href="classRa_1_1Engine_1_1RenderObjectManager.html" target="_top" xlink:title="{Ra::Engine::RenderObject\lManager\n||+ RenderObjectManager()\l+ ~RenderObjectManager()\l+ addRenderObject()\l+ removeRenderObject()\l+ getRenderObjectsCount()\l+ getRenderObject()\l+ getRenderObjects()\l+ getRenderObjectsByType()\l+ exists()\l+ renderObjectExpired()\l+ getNumFaces()\l+ getNumVertices()\l+ getSceneAabb()\l}">
<polygon fill="white" stroke="black" points="780,-491 780,-691 924,-691 924,-491 780,-491"/>
<text text-anchor="start" x="788" y="-679" font-family="Helvetica,sans-Serif" font-size="10.00">Ra::Engine::RenderObject</text>
<text text-anchor="middle" x="852" y="-668" font-family="Helvetica,sans-Serif" font-size="10.00">Manager</text>
<polyline fill="none" stroke="black" points="780,-661 924,-661 "/>
<text text-anchor="middle" x="852" y="-649" font-family="Helvetica,sans-Serif" font-size="10.00"> </text>
<polyline fill="none" stroke="black" points="780,-642 924,-642 "/>
<text text-anchor="start" x="788" y="-630" font-family="Helvetica,sans-Serif" font-size="10.00">+ RenderObjectManager()</text>
<text text-anchor="start" x="788" y="-619" font-family="Helvetica,sans-Serif" font-size="10.00">+ ~RenderObjectManager()</text>
<text text-anchor="start" x="788" y="-608" font-family="Helvetica,sans-Serif" font-size="10.00">+ addRenderObject()</text>
<text text-anchor="start" x="788" y="-597" font-family="Helvetica,sans-Serif" font-size="10.00">+ removeRenderObject()</text>
<text text-anchor="start" x="788" y="-586" font-family="Helvetica,sans-Serif" font-size="10.00">+ getRenderObjectsCount()</text>
<text text-anchor="start" x="788" y="-575" font-family="Helvetica,sans-Serif" font-size="10.00">+ getRenderObject()</text>
<text text-anchor="start" x="788" y="-564" font-family="Helvetica,sans-Serif" font-size="10.00">+ getRenderObjects()</text>
<text text-anchor="start" x="788" y="-553" font-family="Helvetica,sans-Serif" font-size="10.00">+ getRenderObjectsByType()</text>
<text text-anchor="start" x="788" y="-542" font-family="Helvetica,sans-Serif" font-size="10.00">+ exists()</text>
<text text-anchor="start" x="788" y="-531" font-family="Helvetica,sans-Serif" font-size="10.00">+ renderObjectExpired()</text>
<text text-anchor="start" x="788" y="-520" font-family="Helvetica,sans-Serif" font-size="10.00">+ getNumFaces()</text>
<text text-anchor="start" x="788" y="-509" font-family="Helvetica,sans-Serif" font-size="10.00">+ getNumVertices()</text>
<text text-anchor="start" x="788" y="-498" font-family="Helvetica,sans-Serif" font-size="10.00">+ getSceneAabb()</text>
</a>
</g>
</g>
<!-- Node17&#45;&gt;Node1 -->
<g id="edge19" class="edge"><title>Node17&#45;&gt;Node1</title>
<path fill="none" stroke="#404040" d="M871.96,-490.955C872.907,-469.829 871.325,-447.898 865,-428 847.488,-372.908 810.803,-319.723 777.297,-279.228"/>
<polygon fill="none" stroke="#404040" points="777.26,-279.184 770.336,-277.167 769.535,-270.001 776.458,-272.017 777.26,-279.184"/>
<text text-anchor="middle" x="896.5" y="-447.5" font-family="Helvetica,sans-Serif" font-size="10.00"> #m_roMgr</text>
</g>
<!-- Node18&#45;&gt;Node1 -->
<g id="edge20" class="edge"><title>Node18&#45;&gt;Node1</title>
<path fill="none" stroke="#404040" d="M598.601,-556.999C588.846,-523.962 577.983,-471.873 589,-428 599.493,-386.213 619.536,-343.708 640.223,-307.227"/>
<polygon fill="none" stroke="#404040" points="640.356,-306.997 639.894,-299.801 646.359,-296.607 646.821,-303.803 640.356,-306.997"/>
<text text-anchor="middle" x="628.5" y="-447.5" font-family="Helvetica,sans-Serif" font-size="10.00"> #m_fancyTexture</text>
</g>
<!-- Node19&#45;&gt;Node18 -->
<g id="edge22" class="edge"><title>Node19&#45;&gt;Node18</title>
<path fill="none" stroke="orange" d="M1107.5,-856.14C1106.9,-813.236 1098.56,-744.766 1055,-710 1021.53,-683.287 706.763,-713.964 670,-692 645.32,-677.254 629.558,-648.099 620.415,-625.057"/>
<polygon fill="orange" stroke="orange" points="1104,-856.2 1107.5,-866.198 1111,-856.197 1104,-856.2"/>
<text text-anchor="middle" x="1127.5" y="-718.5" font-family="Helvetica,sans-Serif" font-size="10.00"> &lt; Ra::Engine::Texture &gt;</text>
</g>
<!-- Node21 -->
<g id="node21" class="node"><title>Node21</title>
<polygon fill="white" stroke="#bfbfbf" points="1298.5,-557 1298.5,-625 1401.5,-625 1401.5,-557 1298.5,-557"/>
<text text-anchor="start" x="1306.5" y="-613" font-family="Helvetica,sans-Serif" font-size="10.00">std::unique_ptr&lt; Ra</text>
<text text-anchor="middle" x="1350" y="-602" font-family="Helvetica,sans-Serif" font-size="10.00">::Engine::Mesh &gt;</text>
<polyline fill="none" stroke="#bfbfbf" points="1298.5,-595 1401.5,-595 "/>
<text text-anchor="middle" x="1350" y="-583" font-family="Helvetica,sans-Serif" font-size="10.00"> </text>
<polyline fill="none" stroke="#bfbfbf" points="1298.5,-576 1401.5,-576 "/>
<text text-anchor="start" x="1306.5" y="-564" font-family="Helvetica,sans-Serif" font-size="10.00">+ operator&#45;&gt;()</text>
</g>
<!-- Node19&#45;&gt;Node21 -->
<g id="edge28" class="edge"><title>Node19&#45;&gt;Node21</title>
<path fill="none" stroke="orange" d="M1125.82,-857.529C1149.62,-816.724 1193.02,-750.985 1246,-710 1262.39,-697.324 1273.28,-705.501 1289,-692 1309.98,-673.977 1325.88,-646.881 1336.18,-625.438"/>
<polygon fill="orange" stroke="orange" points="1122.71,-855.923 1120.77,-866.338 1128.78,-859.408 1122.71,-855.923"/>
<text text-anchor="middle" x="1296" y="-718.5" font-family="Helvetica,sans-Serif" font-size="10.00"> &lt; Ra::Engine::Mesh &gt;</text>
</g>
<!-- Node20 -->
<g id="node20" class="node"><title>Node20</title>
<g id="a_node20"><a xlink:href="classRa_1_1Engine_1_1ShaderProgramManager.html" target="_top" xlink:title="{Ra::Engine::ShaderProgram\lManager\n||+ addShaderProgram()\l+ addShaderProgram()\l+ getShaderProgram()\l+ getShaderProgram()\l+ getDefaultShaderProgram()\l+ reloadAllShaderPrograms()\l+ reloadNotCompiledShaderPrograms()\l+ addNamedString()\l+ updateNamedString()\l}">
<polygon fill="white" stroke="black" points="1092,-513 1092,-669 1280,-669 1280,-513 1092,-513"/>
<text text-anchor="start" x="1100" y="-657" font-family="Helvetica,sans-Serif" font-size="10.00">Ra::Engine::ShaderProgram</text>
<text text-anchor="middle" x="1186" y="-646" font-family="Helvetica,sans-Serif" font-size="10.00">Manager</text>
<polyline fill="none" stroke="black" points="1092,-639 1280,-639 "/>
<text text-anchor="middle" x="1186" y="-627" font-family="Helvetica,sans-Serif" font-size="10.00"> </text>
<polyline fill="none" stroke="black" points="1092,-620 1280,-620 "/>
<text text-anchor="start" x="1100" y="-608" font-family="Helvetica,sans-Serif" font-size="10.00">+ addShaderProgram()</text>
<text text-anchor="start" x="1100" y="-597" font-family="Helvetica,sans-Serif" font-size="10.00">+ addShaderProgram()</text>
<text text-anchor="start" x="1100" y="-586" font-family="Helvetica,sans-Serif" font-size="10.00">+ getShaderProgram()</text>
<text text-anchor="start" x="1100" y="-575" font-family="Helvetica,sans-Serif" font-size="10.00">+ getShaderProgram()</text>
<text text-anchor="start" x="1100" y="-564" font-family="Helvetica,sans-Serif" font-size="10.00">+ getDefaultShaderProgram()</text>
<text text-anchor="start" x="1100" y="-553" font-family="Helvetica,sans-Serif" font-size="10.00">+ reloadAllShaderPrograms()</text>
<text text-anchor="start" x="1100" y="-542" font-family="Helvetica,sans-Serif" font-size="10.00">+ reloadNotCompiledShaderPrograms()</text>
<text text-anchor="start" x="1100" y="-531" font-family="Helvetica,sans-Serif" font-size="10.00">+ addNamedString()</text>
<text text-anchor="start" x="1100" y="-520" font-family="Helvetica,sans-Serif" font-size="10.00">+ updateNamedString()</text>
</a>
</g>
</g>
<!-- Node20&#45;&gt;Node1 -->
<g id="edge24" class="edge"><title>Node20&#45;&gt;Node1</title>
<path fill="none" stroke="#404040" d="M1137.93,-512.974C1117.84,-484.317 1092.91,-452.775 1066,-428 978.313,-347.262 857.17,-279.345 780.714,-240.65"/>
<polygon fill="none" stroke="#404040" points="780.491,-240.538 773.334,-241.421 769.767,-235.155 776.923,-234.272 780.491,-240.538"/>
<text text-anchor="middle" x="1138" y="-447.5" font-family="Helvetica,sans-Serif" font-size="10.00"> #m_shaderMgr</text>
</g>
<!-- Node21&#45;&gt;Node1 -->
<g id="edge25" class="edge"><title>Node21&#45;&gt;Node1</title>
<path fill="none" stroke="#404040" d="M1335.31,-556.806C1324.73,-535.734 1308.85,-508.962 1289,-490 1138.29,-346.055 900.668,-261.541 781.412,-225.952"/>
<polygon fill="none" stroke="#404040" points="781.063,-225.85 774.177,-227.991 769.552,-222.458 776.438,-220.317 781.063,-225.85"/>
<text text-anchor="middle" x="1297.5" y="-447.5" font-family="Helvetica,sans-Serif" font-size="10.00"> #m_quadMesh</text>
</g>
<!-- Node22 -->
<g id="node22" class="node"><title>Node22</title>
<g id="a_node22"><a xlink:href="classRa_1_1Engine_1_1Mesh.html" target="_top" xlink:title="A class representing an openGL general mesh to be displayed. ">
<polygon fill="white" stroke="black" points="1299.5,-751 1299.5,-1039 1400.5,-1039 1400.5,-751 1299.5,-751"/>
<text text-anchor="middle" x="1350" y="-1027" font-family="Helvetica,sans-Serif" font-size="10.00">Ra::Engine::Mesh</text>
<polyline fill="none" stroke="black" points="1299.5,-1020 1400.5,-1020 "/>
<text text-anchor="middle" x="1350" y="-1008" font-family="Helvetica,sans-Serif" font-size="10.00"> </text>
<polyline fill="none" stroke="black" points="1299.5,-1001 1400.5,-1001 "/>
<text text-anchor="start" x="1307.5" y="-989" font-family="Helvetica,sans-Serif" font-size="10.00">+ Mesh()</text>
<text text-anchor="start" x="1307.5" y="-978" font-family="Helvetica,sans-Serif" font-size="10.00">+ ~Mesh()</text>
<text text-anchor="start" x="1307.5" y="-967" font-family="Helvetica,sans-Serif" font-size="10.00">+ getName()</text>
<text text-anchor="start" x="1307.5" y="-956" font-family="Helvetica,sans-Serif" font-size="10.00">+ setRenderMode()</text>
<text text-anchor="start" x="1307.5" y="-945" font-family="Helvetica,sans-Serif" font-size="10.00">+ getRenderMode()</text>
<text text-anchor="start" x="1307.5" y="-934" font-family="Helvetica,sans-Serif" font-size="10.00">+ getGeometry()</text>
<text text-anchor="start" x="1307.5" y="-923" font-family="Helvetica,sans-Serif" font-size="10.00">+ getGeometry()</text>
<text text-anchor="start" x="1307.5" y="-912" font-family="Helvetica,sans-Serif" font-size="10.00">+ loadGeometry()</text>
<text text-anchor="start" x="1307.5" y="-901" font-family="Helvetica,sans-Serif" font-size="10.00">+ loadGeometry()</text>
<text text-anchor="start" x="1307.5" y="-890" font-family="Helvetica,sans-Serif" font-size="10.00">+ addData()</text>
<text text-anchor="start" x="1307.5" y="-879" font-family="Helvetica,sans-Serif" font-size="10.00">+ addData()</text>
<text text-anchor="start" x="1307.5" y="-868" font-family="Helvetica,sans-Serif" font-size="10.00">+ getData()</text>
<text text-anchor="start" x="1307.5" y="-857" font-family="Helvetica,sans-Serif" font-size="10.00">+ getData()</text>
<text text-anchor="start" x="1307.5" y="-846" font-family="Helvetica,sans-Serif" font-size="10.00">+ setDirty()</text>
<text text-anchor="start" x="1307.5" y="-835" font-family="Helvetica,sans-Serif" font-size="10.00">+ setDirty()</text>
<text text-anchor="start" x="1307.5" y="-824" font-family="Helvetica,sans-Serif" font-size="10.00">+ setDirty()</text>
<text text-anchor="start" x="1307.5" y="-813" font-family="Helvetica,sans-Serif" font-size="10.00">+ updateGL()</text>
<text text-anchor="start" x="1307.5" y="-802" font-family="Helvetica,sans-Serif" font-size="10.00">+ render()</text>
<text text-anchor="start" x="1307.5" y="-791" font-family="Helvetica,sans-Serif" font-size="10.00">+ colorize()</text>
<text text-anchor="start" x="1307.5" y="-780" font-family="Helvetica,sans-Serif" font-size="10.00">* MeshData</text>
<text text-anchor="start" x="1307.5" y="-769" font-family="Helvetica,sans-Serif" font-size="10.00">* Vec3Data</text>
<text text-anchor="start" x="1307.5" y="-758" font-family="Helvetica,sans-Serif" font-size="10.00">* Vec4Data</text>
</a>
</g>
</g>
<!-- Node22&#45;&gt;Node21 -->
<g id="edge26" class="edge"><title>Node22&#45;&gt;Node21</title>
<path fill="none" stroke="#404040" d="M1350,-750.96C1350,-709.873 1350,-667.998 1350,-637.548"/>
<polygon fill="none" stroke="#404040" points="1350,-637.233 1346,-631.233 1350,-625.233 1354,-631.233 1350,-637.233"/>
<text text-anchor="middle" x="1360.5" y="-718.5" font-family="Helvetica,sans-Serif" font-size="10.00"> +ptr</text>
</g>
<!-- Node23 -->
<g id="node23" class="node"><title>Node23</title>
<polygon fill="white" stroke="#bfbfbf" points="1297.5,-1160.5 1297.5,-1217.5 1402.5,-1217.5 1402.5,-1160.5 1297.5,-1160.5"/>
<text text-anchor="middle" x="1350" y="-1205.5" font-family="Helvetica,sans-Serif" font-size="10.00">static constexpr uint</text>
<polyline fill="none" stroke="#bfbfbf" points="1297.5,-1198.5 1402.5,-1198.5 "/>
<text text-anchor="middle" x="1350" y="-1186.5" font-family="Helvetica,sans-Serif" font-size="10.00"> </text>
<polyline fill="none" stroke="#bfbfbf" points="1297.5,-1179.5 1402.5,-1179.5 "/>
<text text-anchor="middle" x="1350" y="-1167.5" font-family="Helvetica,sans-Serif" font-size="10.00"> </text>
</g>
<!-- Node23&#45;&gt;Node22 -->
<g id="edge27" class="edge"><title>Node23&#45;&gt;Node22</title>
<path fill="none" stroke="#404040" d="M1350,-1160.27C1350,-1134.3 1350,-1093.29 1350,-1051.25"/>
<polygon fill="none" stroke="#404040" points="1350,-1051.08 1346,-1045.08 1350,-1039.08 1354,-1045.08 1350,-1051.08"/>
<text text-anchor="middle" x="1382" y="-1094.5" font-family="Helvetica,sans-Serif" font-size="10.00"> +MAX_DATA</text>
</g>
</g>
</svg>
