<?xml version="1.0" encoding="UTF-8" standalone="no"?>
<!DOCTYPE svg PUBLIC "-//W3C//DTD SVG 1.1//EN"
 "http://www.w3.org/Graphics/SVG/1.1/DTD/svg11.dtd">
<!-- Generated by graphviz version 2.36.0 (20140111.2315)
 -->
<!-- Title: Ra::Gui::GizmoManager::updateValues Pages: 1 -->
<svg width="1178pt" height="449pt"
 viewBox="0.00 0.00 1178.00 449.00" xmlns="http://www.w3.org/2000/svg" xmlns:xlink="http://www.w3.org/1999/xlink">
<g id="graph0" class="graph" transform="scale(1 1) rotate(0) translate(4 445)">
<title>Ra::Gui::GizmoManager::updateValues</title>
<polygon fill="white" stroke="none" points="-4,4 -4,-445 1174,-445 1174,4 -4,4"/>
<!-- Node1 -->
<g id="node1" class="node"><title>Node1</title>
<polygon fill="#bfbfbf" stroke="black" points="0,-117 0,-147 122,-147 122,-117 0,-117"/>
<text text-anchor="start" x="8" y="-135" font-family="Helvetica,sans-Serif" font-size="10.00">Ra::Gui::GizmoManager</text>
<text text-anchor="middle" x="61" y="-124" font-family="Helvetica,sans-Serif" font-size="10.00">::updateValues</text>
</g>
<!-- Node2 -->
<g id="node2" class="node"><title>Node2</title>
<g id="a_node2"><a xlink:href="classRa_1_1GuiBase_1_1TransformEditor.html#ad21b8c46ad2d5c62e309eb16b104ee2f" target="_top" xlink:title="Ra::GuiBase::TransformEditor\l::canEdit">
<polygon fill="white" stroke="black" points="358.5,-239 358.5,-269 507.5,-269 507.5,-239 358.5,-239"/>
<text text-anchor="start" x="366.5" y="-257" font-family="Helvetica,sans-Serif" font-size="10.00">Ra::GuiBase::TransformEditor</text>
<text text-anchor="middle" x="433" y="-246" font-family="Helvetica,sans-Serif" font-size="10.00">::canEdit</text>
</a>
</g>
</g>
<!-- Node1&#45;&gt;Node2 -->
<g id="edge1" class="edge"><title>Node1&#45;&gt;Node2</title>
<path fill="none" stroke="midnightblue" d="M82.7149,-147.158C101.504,-160.247 130.405,-178.771 158,-190 219.444,-215.004 292.802,-231.489 348.143,-241.458"/>
<polygon fill="midnightblue" stroke="midnightblue" points="347.804,-244.952 358.26,-243.244 349.021,-238.059 347.804,-244.952"/>
</g>
<!-- Node17 -->
<g id="node17" class="node"><title>Node17</title>
<g id="a_node17"><a xlink:href="classRa_1_1GuiBase_1_1TransformEditor.html#aecdcc853ebf6b4ae1dab2c9ee56c96ef" target="_top" xlink:title="Ra::GuiBase::TransformEditor\l::getTransform">
<polygon fill="white" stroke="black" points="165.5,-151 165.5,-181 314.5,-181 314.5,-151 165.5,-151"/>
<text text-anchor="start" x="173.5" y="-169" font-family="Helvetica,sans-Serif" font-size="10.00">Ra::GuiBase::TransformEditor</text>
<text text-anchor="middle" x="240" y="-158" font-family="Helvetica,sans-Serif" font-size="10.00">::getTransform</text>
</a>
</g>
</g>
<!-- Node1&#45;&gt;Node17 -->
<g id="edge22" class="edge"><title>Node1&#45;&gt;Node17</title>
<path fill="none" stroke="midnightblue" d="M122.418,-143.606C133,-145.638 144.178,-147.786 155.257,-149.914"/>
<polygon fill="midnightblue" stroke="midnightblue" points="154.903,-153.41 165.384,-151.859 156.224,-146.535 154.903,-153.41"/>
</g>
<!-- Node21 -->
<g id="node21" class="node"><title>Node21</title>
<g id="a_node21"><a xlink:href="classRa_1_1Gui_1_1Gizmo.html#a2fc380738268508ca2d46ac856c2f98a" target="_top" xlink:title="Called every time the underlying transform may have changed. ">
<polygon fill="white" stroke="black" points="158,-44.5 158,-63.5 322,-63.5 322,-44.5 158,-44.5"/>
<text text-anchor="middle" x="240" y="-51.5" font-family="Helvetica,sans-Serif" font-size="10.00">Ra::Gui::Gizmo::updateTransform</text>
</a>
</g>
</g>
<!-- Node1&#45;&gt;Node21 -->
<g id="edge31" class="edge"><title>Node1&#45;&gt;Node21</title>
<path fill="none" stroke="midnightblue" d="M82.3096,-116.829C101.062,-103.494 130.144,-84.4743 158,-73 164.192,-70.4496 170.797,-68.1998 177.463,-66.2254"/>
<polygon fill="midnightblue" stroke="midnightblue" points="178.526,-69.5631 187.233,-63.5268 176.662,-62.8158 178.526,-69.5631"/>
</g>
<!-- Node22 -->
<g id="node22" class="node"><title>Node22</title>
<g id="a_node22"><a xlink:href="classRa_1_1GuiBase_1_1TransformEditor.html#a6c8c6e18c8b92a92a53f6c035aa6c241" target="_top" xlink:title="Ra::GuiBase::TransformEditor\l::getWorldTransform">
<polygon fill="white" stroke="black" points="165.5,-83 165.5,-113 314.5,-113 314.5,-83 165.5,-83"/>
<text text-anchor="start" x="173.5" y="-101" font-family="Helvetica,sans-Serif" font-size="10.00">Ra::GuiBase::TransformEditor</text>
<text text-anchor="middle" x="240" y="-90" font-family="Helvetica,sans-Serif" font-size="10.00">::getWorldTransform</text>
</a>
</g>
</g>
<!-- Node1&#45;&gt;Node22 -->
<g id="edge32" class="edge"><title>Node1&#45;&gt;Node22</title>
<path fill="none" stroke="midnightblue" d="M122.418,-120.394C133,-118.362 144.178,-116.214 155.257,-114.086"/>
<polygon fill="midnightblue" stroke="midnightblue" points="156.224,-117.465 165.384,-112.141 154.903,-110.59 156.224,-117.465"/>
</g>
<!-- Node3 -->
<g id="node3" class="node"><title>Node3</title>
<g id="a_node3"><a xlink:href="structRa_1_1Engine_1_1ItemEntry.html#aceafc81a73631955b64999dd39a639da" target="_top" xlink:title="Returns true if the item represents any valid object. ">
<polygon fill="white" stroke="black" points="548,-220 548,-250 662,-250 662,-220 548,-220"/>
<text text-anchor="start" x="556" y="-238" font-family="Helvetica,sans-Serif" font-size="10.00">Ra::Engine::ItemEntry</text>
<text text-anchor="middle" x="605" y="-227" font-family="Helvetica,sans-Serif" font-size="10.00">::isValid</text>
</a>
</g>
</g>
<!-- Node2&#45;&gt;Node3 -->
<g id="edge2" class="edge"><title>Node2&#45;&gt;Node3</title>
<path fill="none" stroke="midnightblue" d="M507.576,-245.777C517.632,-244.653 527.906,-243.505 537.821,-242.397"/>
<polygon fill="midnightblue" stroke="midnightblue" points="538.449,-245.848 547.998,-241.259 537.671,-238.892 538.449,-245.848"/>
</g>
<!-- Node13 -->
<g id="node13" class="node"><title>Node13</title>
<g id="a_node13"><a xlink:href="structRa_1_1Engine_1_1ItemEntry.html#a09e294208d0896596a42a7a6c7e78f75" target="_top" xlink:title="Returns true if the item can be selected. ">
<polygon fill="white" stroke="black" points="548,-318 548,-348 662,-348 662,-318 548,-318"/>
<text text-anchor="start" x="556" y="-336" font-family="Helvetica,sans-Serif" font-size="10.00">Ra::Engine::ItemEntry</text>
<text text-anchor="middle" x="605" y="-325" font-family="Helvetica,sans-Serif" font-size="10.00">::isSelectable</text>
</a>
</g>
</g>
<!-- Node2&#45;&gt;Node13 -->
<g id="edge14" class="edge"><title>Node2&#45;&gt;Node13</title>
<path fill="none" stroke="midnightblue" d="M463.644,-269.168C485.65,-280.278 516.485,-295.528 544,-308 548.333,-309.964 552.866,-311.959 557.415,-313.922"/>
<polygon fill="midnightblue" stroke="midnightblue" points="556.147,-317.186 566.719,-317.885 558.89,-310.746 556.147,-317.186"/>
</g>
<!-- Node15 -->
<g id="node15" class="node"><title>Node15</title>
<g id="a_node15"><a xlink:href="structRa_1_1Engine_1_1ItemEntry.html#a4823dfa3c113db71733979f1719f3b28" target="_top" xlink:title="Returns true if the item represents an entity. ">
<polygon fill="white" stroke="black" points="548,-161 548,-191 662,-191 662,-161 548,-161"/>
<text text-anchor="start" x="556" y="-179" font-family="Helvetica,sans-Serif" font-size="10.00">Ra::Engine::ItemEntry</text>
<text text-anchor="middle" x="605" y="-168" font-family="Helvetica,sans-Serif" font-size="10.00">::isEntityNode</text>
</a>
</g>
</g>
<!-- Node2&#45;&gt;Node15 -->
<g id="edge19" class="edge"><title>Node2&#45;&gt;Node15</title>
<path fill="none" stroke="midnightblue" d="M472.651,-238.997C484.109,-234.371 496.63,-229.138 508,-224 527.342,-215.26 548.478,-204.795 565.981,-195.87"/>
<polygon fill="midnightblue" stroke="midnightblue" points="567.997,-198.769 575.298,-191.091 564.802,-192.541 567.997,-198.769"/>
</g>
<!-- Node16 -->
<g id="node16" class="node"><title>Node16</title>
<g id="a_node16"><a xlink:href="classRa_1_1Engine_1_1Component.html#a0a96ad5cbd7987270bbcf321d6a2e258" target="_top" xlink:title="Returns true if a transform can be edited with the render object index given as a key...">
<polygon fill="white" stroke="black" points="544,-269 544,-299 666,-299 666,-269 544,-269"/>
<text text-anchor="start" x="552" y="-287" font-family="Helvetica,sans-Serif" font-size="10.00">Ra::Engine::Component</text>
<text text-anchor="middle" x="605" y="-276" font-family="Helvetica,sans-Serif" font-size="10.00">::canEdit</text>
</a>
</g>
</g>
<!-- Node2&#45;&gt;Node16 -->
<g id="edge21" class="edge"><title>Node2&#45;&gt;Node16</title>
<path fill="none" stroke="midnightblue" d="M507.576,-266.984C516.283,-268.521 525.153,-270.086 533.811,-271.614"/>
<polygon fill="midnightblue" stroke="midnightblue" points="533.4,-275.095 543.856,-273.386 534.616,-268.202 533.4,-275.095"/>
</g>
<!-- Node4 -->
<g id="node4" class="node"><title>Node4</title>
<g id="a_node4"><a xlink:href="structRa_1_1Engine_1_1ItemEntry.html#a1fb9fdd74413a1fa5878f53c1cfcf8fd" target="_top" xlink:title="Debug checks. ">
<polygon fill="white" stroke="black" points="883,-44 883,-74 997,-74 997,-44 883,-44"/>
<text text-anchor="start" x="891" y="-62" font-family="Helvetica,sans-Serif" font-size="10.00">Ra::Engine::ItemEntry</text>
<text text-anchor="middle" x="940" y="-51" font-family="Helvetica,sans-Serif" font-size="10.00">::checkConsistency</text>
</a>
</g>
</g>
<!-- Node3&#45;&gt;Node4 -->
<g id="edge3" class="edge"><title>Node3&#45;&gt;Node4</title>
<path fill="none" stroke="midnightblue" d="M662.151,-222.58C725.886,-208.192 823,-185.276 838,-176 876.177,-152.391 907.586,-109.68 924.771,-82.9114"/>
<polygon fill="midnightblue" stroke="midnightblue" points="927.907,-84.4989 930.245,-74.1652 921.973,-80.7855 927.907,-84.4989"/>
</g>
<!-- Node6 -->
<g id="node6" class="node"><title>Node6</title>
<g id="a_node6"><a xlink:href="classRa_1_1Engine_1_1RadiumEngine.html#a79f6626ce468268791bc5bdfe17b5586" target="_top" xlink:title="Ra::Engine::RadiumEngine\l::getEntityManager">
<polygon fill="white" stroke="black" points="702.5,-225 702.5,-255 837.5,-255 837.5,-225 702.5,-225"/>
<text text-anchor="start" x="710.5" y="-243" font-family="Helvetica,sans-Serif" font-size="10.00">Ra::Engine::RadiumEngine</text>
<text text-anchor="middle" x="770" y="-232" font-family="Helvetica,sans-Serif" font-size="10.00">::getEntityManager</text>
</a>
</g>
</g>
<!-- Node3&#45;&gt;Node6 -->
<g id="edge5" class="edge"><title>Node3&#45;&gt;Node6</title>
<path fill="none" stroke="midnightblue" d="M662.095,-236.721C671.834,-237.019 682.11,-237.335 692.286,-237.647"/>
<polygon fill="midnightblue" stroke="midnightblue" points="692.303,-241.149 702.406,-237.957 692.518,-234.152 692.303,-241.149"/>
</g>
<!-- Node7 -->
<g id="node7" class="node"><title>Node7</title>
<g id="a_node7"><a xlink:href="classRa_1_1Engine_1_1EntityManager.html#a5115cccae6aaef614ad4bd08e64d8185" target="_top" xlink:title="Check wether an entity with a given name exists or not. ">
<polygon fill="white" stroke="black" points="703,-137 703,-167 837,-167 837,-137 703,-137"/>
<text text-anchor="start" x="711" y="-155" font-family="Helvetica,sans-Serif" font-size="10.00">Ra::Engine::EntityManager</text>
<text text-anchor="middle" x="770" y="-144" font-family="Helvetica,sans-Serif" font-size="10.00">::entityExists</text>
</a>
</g>
</g>
<!-- Node3&#45;&gt;Node7 -->
<g id="edge6" class="edge"><title>Node3&#45;&gt;Node7</title>
<path fill="none" stroke="midnightblue" d="M632.171,-219.777C651.296,-208.844 677.979,-193.982 702,-182 709.297,-178.36 717.132,-174.665 724.78,-171.171"/>
<polygon fill="midnightblue" stroke="midnightblue" points="726.292,-174.328 733.968,-167.025 723.413,-167.948 726.292,-174.328"/>
</g>
<!-- Node8 -->
<g id="node8" class="node"><title>Node8</title>
<g id="a_node8"><a xlink:href="classRa_1_1Engine_1_1Entity.html#aaf256bea44bbc5bff6aa504aca05ca35" target="_top" xlink:title="Ra::Engine::Entity\l::getName">
<polygon fill="white" stroke="black" points="721.5,-88 721.5,-118 818.5,-118 818.5,-88 721.5,-88"/>
<text text-anchor="start" x="729.5" y="-106" font-family="Helvetica,sans-Serif" font-size="10.00">Ra::Engine::Entity</text>
<text text-anchor="middle" x="770" y="-95" font-family="Helvetica,sans-Serif" font-size="10.00">::getName</text>
</a>
</g>
</g>
<!-- Node3&#45;&gt;Node8 -->
<g id="edge7" class="edge"><title>Node3&#45;&gt;Node8</title>
<path fill="none" stroke="midnightblue" d="M639.63,-219.949C648.985,-214.621 658.598,-207.938 666,-200 690.67,-173.542 675.002,-151.078 702,-127 705.164,-124.178 708.683,-121.682 712.406,-119.474"/>
<polygon fill="midnightblue" stroke="midnightblue" points="714.115,-122.531 721.39,-114.829 710.9,-116.313 714.115,-122.531"/>
</g>
<!-- Node9 -->
<g id="node9" class="node"><title>Node9</title>
<g id="a_node9"><a xlink:href="structRa_1_1Engine_1_1ItemEntry.html#a898047549069e5b64d3a9a65c058af56" target="_top" xlink:title="Returns true if the item represents a render object. ">
<polygon fill="white" stroke="black" points="713,-362 713,-392 827,-392 827,-362 713,-362"/>
<text text-anchor="start" x="721" y="-380" font-family="Helvetica,sans-Serif" font-size="10.00">Ra::Engine::ItemEntry</text>
<text text-anchor="middle" x="770" y="-369" font-family="Helvetica,sans-Serif" font-size="10.00">::isRoNode</text>
</a>
</g>
</g>
<!-- Node3&#45;&gt;Node9 -->
<g id="edge8" class="edge"><title>Node3&#45;&gt;Node9</title>
<path fill="none" stroke="midnightblue" d="M652.961,-250.025C657.735,-252.83 662.212,-256.128 666,-260 696.707,-291.384 670.707,-321.2 702,-352 703.46,-353.437 705.01,-354.793 706.633,-356.071"/>
<polygon fill="midnightblue" stroke="midnightblue" points="705.009,-359.196 715.267,-361.846 708.9,-353.377 705.009,-359.196"/>
</g>
<!-- Node11 -->
<g id="node11" class="node"><title>Node11</title>
<g id="a_node11"><a xlink:href="classRa_1_1Engine_1_1RadiumEngine.html#a58b27bc600ea769f68b0e2938abc7862" target="_top" xlink:title="Manager getters. ">
<polygon fill="white" stroke="black" points="702.5,-313 702.5,-343 837.5,-343 837.5,-313 702.5,-313"/>
<text text-anchor="start" x="710.5" y="-331" font-family="Helvetica,sans-Serif" font-size="10.00">Ra::Engine::RadiumEngine</text>
<text text-anchor="middle" x="770" y="-320" font-family="Helvetica,sans-Serif" font-size="10.00">::getRenderObjectManager</text>
</a>
</g>
</g>
<!-- Node3&#45;&gt;Node11 -->
<g id="edge11" class="edge"><title>Node3&#45;&gt;Node11</title>
<path fill="none" stroke="midnightblue" d="M648.486,-250.064C654.585,-252.97 660.611,-256.285 666,-260 685.153,-273.205 683.021,-284.545 702,-298 707.449,-301.863 713.474,-305.401 719.612,-308.586"/>
<polygon fill="midnightblue" stroke="midnightblue" points="718.111,-311.748 728.632,-312.997 721.186,-305.46 718.111,-311.748"/>
</g>
<!-- Node12 -->
<g id="node12" class="node"><title>Node12</title>
<g id="a_node12"><a xlink:href="classRa_1_1Engine_1_1RenderObjectManager.html#a4077b9cf9e1e4d62fd5456386f2d72c8" target="_top" xlink:title="Returns true if the index points to a valid render object. ">
<polygon fill="white" stroke="black" points="874.5,-406 874.5,-436 1005.5,-436 1005.5,-406 874.5,-406"/>
<text text-anchor="start" x="882.5" y="-424" font-family="Helvetica,sans-Serif" font-size="10.00">Ra::Engine::RenderObject</text>
<text text-anchor="middle" x="940" y="-413" font-family="Helvetica,sans-Serif" font-size="10.00">Manager::exists</text>
</a>
</g>
</g>
<!-- Node3&#45;&gt;Node12 -->
<g id="edge12" class="edge"><title>Node3&#45;&gt;Node12</title>
<path fill="none" stroke="midnightblue" d="M655.805,-250.121C670.66,-254.61 686.984,-259.524 702,-264 762.379,-281.999 785.037,-269.876 838,-304 875.532,-328.182 906.941,-370.353 924.332,-396.915"/>
<polygon fill="midnightblue" stroke="midnightblue" points="921.551,-399.063 929.886,-405.604 927.45,-395.293 921.551,-399.063"/>
</g>
<!-- Node5 -->
<g id="node5" class="node"><title>Node5</title>
<g id="a_node5"><a xlink:href="classRa_1_1Core_1_1Index.html#a7283e7fb9cc134e04ef3cde8877f8fe2" target="_top" xlink:title="INVALID. ">
<polygon fill="white" stroke="black" points="1042,-27.5 1042,-46.5 1170,-46.5 1170,-27.5 1042,-27.5"/>
<text text-anchor="middle" x="1106" y="-34.5" font-family="Helvetica,sans-Serif" font-size="10.00">Ra::Core::Index::isInvalid</text>
</a>
</g>
</g>
<!-- Node4&#45;&gt;Node5 -->
<g id="edge4" class="edge"><title>Node4&#45;&gt;Node5</title>
<path fill="none" stroke="midnightblue" d="M997.439,-51.4288C1008.55,-49.9388 1020.35,-48.3555 1031.91,-46.8042"/>
<polygon fill="midnightblue" stroke="midnightblue" points="1032.55,-50.251 1041.99,-45.4524 1031.61,-43.3131 1032.55,-50.251"/>
</g>
<!-- Node9&#45;&gt;Node4 -->
<g id="edge9" class="edge"><title>Node9&#45;&gt;Node4</title>
<path fill="none" stroke="midnightblue" d="M825.224,-361.817C829.908,-359.066 834.273,-355.822 838,-352 913.011,-275.076 932.453,-139.883 937.377,-84.1287"/>
<polygon fill="midnightblue" stroke="midnightblue" points="940.873,-84.3248 938.181,-74.0777 933.895,-83.767 940.873,-84.3248"/>
</g>
<!-- Node10 -->
<g id="node10" class="node"><title>Node10</title>
<g id="a_node10"><a xlink:href="classRa_1_1Core_1_1Index.html#a87c70243f30c65c1a24834d1829bda01" target="_top" xlink:title="DESTRUCTOR: Must not be defined, we need it trivial to be constexpr. ">
<polygon fill="white" stroke="black" points="1045,-389.5 1045,-408.5 1167,-408.5 1167,-389.5 1045,-389.5"/>
<text text-anchor="middle" x="1106" y="-396.5" font-family="Helvetica,sans-Serif" font-size="10.00">Ra::Core::Index::isValid</text>
</a>
</g>
</g>
<!-- Node9&#45;&gt;Node10 -->
<g id="edge10" class="edge"><title>Node9&#45;&gt;Node10</title>
<path fill="none" stroke="midnightblue" d="M827.281,-380.707C884.428,-384.471 973.058,-390.309 1034.77,-394.374"/>
<polygon fill="midnightblue" stroke="midnightblue" points="1034.61,-397.871 1044.82,-395.036 1035.07,-390.886 1034.61,-397.871"/>
</g>
<!-- Node12&#45;&gt;Node10 -->
<g id="edge13" class="edge"><title>Node12&#45;&gt;Node10</title>
<path fill="none" stroke="midnightblue" d="M1005.82,-412.305C1015.39,-411.021 1025.28,-409.694 1034.95,-408.397"/>
<polygon fill="midnightblue" stroke="midnightblue" points="1035.48,-411.858 1044.92,-407.059 1034.55,-404.92 1035.48,-411.858"/>
</g>
<!-- Node13&#45;&gt;Node9 -->
<g id="edge15" class="edge"><title>Node13&#45;&gt;Node9</title>
<path fill="none" stroke="midnightblue" d="M661.639,-348.019C675.072,-351.645 689.55,-355.553 703.392,-359.29"/>
<polygon fill="midnightblue" stroke="midnightblue" points="702.768,-362.747 713.335,-361.974 704.592,-355.989 702.768,-362.747"/>
</g>
<!-- Node13&#45;&gt;Node11 -->
<g id="edge16" class="edge"><title>Node13&#45;&gt;Node11</title>
<path fill="none" stroke="midnightblue" d="M662.095,-331.279C671.834,-330.981 682.11,-330.665 692.286,-330.353"/>
<polygon fill="midnightblue" stroke="midnightblue" points="692.518,-333.848 702.406,-330.043 692.303,-326.851 692.518,-333.848"/>
</g>
<!-- Node14 -->
<g id="node14" class="node"><title>Node14</title>
<g id="a_node14"><a xlink:href="classRa_1_1Engine_1_1RenderObjectManager.html#a32bd0db0d9620bb7e3f0fe50b541dae3" target="_top" xlink:title="Returns the render object corresponding to the given index. ">
<polygon fill="white" stroke="black" points="703,-411 703,-441 837,-441 837,-411 703,-411"/>
<text text-anchor="start" x="711" y="-429" font-family="Helvetica,sans-Serif" font-size="10.00">Ra::Engine::RenderObject</text>
<text text-anchor="middle" x="770" y="-418" font-family="Helvetica,sans-Serif" font-size="10.00">Manager::getRenderObject</text>
</a>
</g>
</g>
<!-- Node13&#45;&gt;Node14 -->
<g id="edge17" class="edge"><title>Node13&#45;&gt;Node14</title>
<path fill="none" stroke="midnightblue" d="M624.19,-348.067C642.837,-362.974 673.116,-385.715 702,-401 705.933,-403.081 710.079,-405.07 714.3,-406.951"/>
<polygon fill="midnightblue" stroke="midnightblue" points="713.034,-410.216 723.608,-410.892 715.763,-403.77 713.034,-410.216"/>
</g>
<!-- Node14&#45;&gt;Node12 -->
<g id="edge18" class="edge"><title>Node14&#45;&gt;Node12</title>
<path fill="none" stroke="midnightblue" d="M837.398,-424.024C846.261,-423.76 855.397,-423.488 864.389,-423.221"/>
<polygon fill="midnightblue" stroke="midnightblue" points="864.565,-426.717 874.456,-422.921 864.356,-419.72 864.565,-426.717"/>
</g>
<!-- Node15&#45;&gt;Node4 -->
<g id="edge20" class="edge"><title>Node15&#45;&gt;Node4</title>
<path fill="none" stroke="midnightblue" d="M633.848,-160.904C644.673,-154.192 656.683,-145.625 666,-136 687.102,-114.201 676.098,-93.7973 702,-78 753.103,-46.8336 822.356,-44.8789 872.799,-49.0424"/>
<polygon fill="midnightblue" stroke="midnightblue" points="872.665,-52.5448 882.945,-49.9824 873.311,-45.5747 872.665,-52.5448"/>
</g>
<!-- Node17&#45;&gt;Node2 -->
<g id="edge23" class="edge"><title>Node17&#45;&gt;Node2</title>
<path fill="none" stroke="midnightblue" d="M270.04,-181.155C293.54,-193.234 327.606,-210.329 358,-224 366.356,-227.759 375.33,-231.576 384.046,-235.172"/>
<polygon fill="midnightblue" stroke="midnightblue" points="382.779,-238.435 393.36,-238.973 385.424,-231.954 382.779,-238.435"/>
</g>
<!-- Node17&#45;&gt;Node9 -->
<g id="edge29" class="edge"><title>Node17&#45;&gt;Node9</title>
<path fill="none" stroke="midnightblue" d="M253.633,-181.221C273.707,-204.621 315.031,-249.688 358,-278 432.998,-327.416 456.871,-335.202 544,-357 596.346,-370.096 657.421,-374.892 702.719,-376.527"/>
<polygon fill="midnightblue" stroke="midnightblue" points="702.609,-380.025 712.716,-376.846 702.833,-373.029 702.609,-380.025"/>
</g>
<!-- Node17&#45;&gt;Node15 -->
<g id="edge24" class="edge"><title>Node17&#45;&gt;Node15</title>
<path fill="none" stroke="midnightblue" d="M302.575,-181.061C320.348,-184.745 339.846,-188.157 358,-190 424.326,-196.733 441.508,-194.823 508,-190 517.6,-189.304 527.698,-188.221 537.594,-186.958"/>
<polygon fill="midnightblue" stroke="midnightblue" points="538.358,-190.387 547.803,-185.586 537.426,-183.449 538.358,-190.387"/>
</g>
<!-- Node18 -->
<g id="node18" class="node"><title>Node18</title>
<g id="a_node18"><a xlink:href="classRa_1_1Engine_1_1Entity.html#adf0ef19e4b56e1d213b9898b60fe0e74" target="_top" xlink:title="Ra::Engine::Entity\l::getTransform">
<polygon fill="white" stroke="black" points="384.5,-63 384.5,-93 481.5,-93 481.5,-63 384.5,-63"/>
<text text-anchor="start" x="392.5" y="-81" font-family="Helvetica,sans-Serif" font-size="10.00">Ra::Engine::Entity</text>
<text text-anchor="middle" x="433" y="-70" font-family="Helvetica,sans-Serif" font-size="10.00">::getTransform</text>
</a>
</g>
</g>
<!-- Node17&#45;&gt;Node18 -->
<g id="edge25" class="edge"><title>Node17&#45;&gt;Node18</title>
<path fill="none" stroke="midnightblue" d="M270.04,-150.845C293.54,-138.766 327.606,-121.671 358,-108 366.356,-104.241 375.33,-100.424 384.046,-96.8285"/>
<polygon fill="midnightblue" stroke="midnightblue" points="385.424,-100.046 393.36,-93.0274 382.779,-93.5651 385.424,-100.046"/>
</g>
<!-- Node19 -->
<g id="node19" class="node"><title>Node19</title>
<g id="a_node19"><a xlink:href="structRa_1_1Engine_1_1ItemEntry.html#ac78e7430338c62ed664a16da7e3ea206" target="_top" xlink:title="Returns true if the item represents a component. ">
<polygon fill="white" stroke="black" points="713,-0 713,-30 827,-30 827,-0 713,-0"/>
<text text-anchor="start" x="721" y="-18" font-family="Helvetica,sans-Serif" font-size="10.00">Ra::Engine::ItemEntry</text>
<text text-anchor="middle" x="770" y="-7" font-family="Helvetica,sans-Serif" font-size="10.00">::isComponentNode</text>
</a>
</g>
</g>
<!-- Node17&#45;&gt;Node19 -->
<g id="edge26" class="edge"><title>Node17&#45;&gt;Node19</title>
<path fill="none" stroke="midnightblue" d="M310.86,-150.992C364.979,-138.948 441.66,-120.969 508,-102 581.558,-80.967 665.246,-52.1948 717.589,-33.6022"/>
<polygon fill="midnightblue" stroke="midnightblue" points="719.063,-36.7927 727.308,-30.1391 716.714,-30.1988 719.063,-36.7927"/>
</g>
<!-- Node20 -->
<g id="node20" class="node"><title>Node20</title>
<g id="a_node20"><a xlink:href="classRa_1_1Engine_1_1Component.html#a3f4195b2f8e93ca2a89b31ab51a44a13" target="_top" xlink:title="Get the transform associated with the given RO index key. ">
<polygon fill="white" stroke="black" points="372,-151 372,-181 494,-181 494,-151 372,-151"/>
<text text-anchor="start" x="380" y="-169" font-family="Helvetica,sans-Serif" font-size="10.00">Ra::Engine::Component</text>
<text text-anchor="middle" x="433" y="-158" font-family="Helvetica,sans-Serif" font-size="10.00">::getTransform</text>
</a>
</g>
</g>
<!-- Node17&#45;&gt;Node20 -->
<g id="edge30" class="edge"><title>Node17&#45;&gt;Node20</title>
<path fill="none" stroke="midnightblue" d="M314.572,-166C329.942,-166 346.112,-166 361.371,-166"/>
<polygon fill="midnightblue" stroke="midnightblue" points="361.769,-169.5 371.769,-166 361.769,-162.5 361.769,-169.5"/>
</g>
<!-- Node19&#45;&gt;Node4 -->
<g id="edge27" class="edge"><title>Node19&#45;&gt;Node4</title>
<path fill="none" stroke="midnightblue" d="M827.409,-29.7738C842.031,-33.6035 857.909,-37.7618 872.977,-41.7081"/>
<polygon fill="midnightblue" stroke="midnightblue" points="872.179,-45.1174 882.74,-44.2652 873.953,-38.3458 872.179,-45.1174"/>
</g>
<!-- Node19&#45;&gt;Node5 -->
<g id="edge28" class="edge"><title>Node19&#45;&gt;Node5</title>
<path fill="none" stroke="midnightblue" d="M827.281,-18.7071C883.548,-22.4133 970.334,-28.1298 1031.9,-32.1849"/>
<polygon fill="midnightblue" stroke="midnightblue" points="1031.73,-35.6812 1041.94,-32.8461 1032.19,-28.6963 1031.73,-35.6812"/>
</g>
<!-- Node22&#45;&gt;Node15 -->
<g id="edge33" class="edge"><title>Node22&#45;&gt;Node15</title>
<path fill="none" stroke="midnightblue" d="M295.589,-82.8573C304.529,-79.893 313.607,-76.5804 322,-73 338.835,-65.8179 340.282,-57.5912 358,-53 422.535,-36.2772 448.088,-23.7604 508,-53 549.775,-73.3876 578.68,-121.71 593.199,-151.356"/>
<polygon fill="midnightblue" stroke="midnightblue" points="590.139,-153.074 597.569,-160.627 596.471,-150.089 590.139,-153.074"/>
</g>
<!-- Node22&#45;&gt;Node18 -->
<g id="edge34" class="edge"><title>Node22&#45;&gt;Node18</title>
<path fill="none" stroke="midnightblue" d="M314.572,-90.2961C334.345,-88.2256 355.444,-86.0163 374.224,-84.0498"/>
<polygon fill="midnightblue" stroke="midnightblue" points="374.815,-87.5072 384.396,-82.9847 374.086,-80.5453 374.815,-87.5072"/>
</g>
</g>
</svg>
