<?xml version="1.0" encoding="UTF-8" standalone="no"?>
<!DOCTYPE svg PUBLIC "-//W3C//DTD SVG 1.1//EN"
 "http://www.w3.org/Graphics/SVG/1.1/DTD/svg11.dtd">
<!-- Generated by graphviz version 2.36.0 (20140111.2315)
 -->
<!-- Title: SkinningPlugin::SkinningDisplayComponent::display Pages: 1 -->
<svg width="698pt" height="444pt"
 viewBox="0.00 0.00 698.00 444.00" xmlns="http://www.w3.org/2000/svg" xmlns:xlink="http://www.w3.org/1999/xlink">
<g id="graph0" class="graph" transform="scale(1 1) rotate(0) translate(4 440)">
<title>SkinningPlugin::SkinningDisplayComponent::display</title>
<polygon fill="white" stroke="none" points="-4,4 -4,-440 694,-440 694,4 -4,4"/>
<!-- Node1 -->
<g id="node1" class="node"><title>Node1</title>
<polygon fill="#bfbfbf" stroke="black" points="0.5,-171 0.5,-201 137.5,-201 137.5,-171 0.5,-171"/>
<text text-anchor="start" x="8.5" y="-189" font-family="Helvetica,sans-Serif" font-size="10.00">SkinningPlugin::Skinning</text>
<text text-anchor="middle" x="69" y="-178" font-family="Helvetica,sans-Serif" font-size="10.00">DisplayComponent::display</text>
</g>
<!-- Node2 -->
<g id="node2" class="node"><title>Node2</title>
<g id="a_node2"><a xlink:href="classRa_1_1Core_1_1TriangleMesh.html#a495116f40cfec8bb6504698d786d4b8c" target="_top" xlink:title="Access the vertices positions. ">
<polygon fill="white" stroke="black" points="389.5,-367 389.5,-397 510.5,-397 510.5,-367 389.5,-367"/>
<text text-anchor="start" x="397.5" y="-385" font-family="Helvetica,sans-Serif" font-size="10.00">Ra::Core::TriangleMesh</text>
<text text-anchor="middle" x="450" y="-374" font-family="Helvetica,sans-Serif" font-size="10.00">::vertices</text>
</a>
</g>
</g>
<!-- Node1&#45;&gt;Node2 -->
<g id="edge1" class="edge"><title>Node1&#45;&gt;Node2</title>
<path fill="none" stroke="midnightblue" d="M82.6356,-201.257C100.865,-222.415 136.495,-260.688 174,-284 238.497,-324.089 321.699,-350.821 379.616,-366.1"/>
<polygon fill="midnightblue" stroke="midnightblue" points="378.848,-369.516 389.406,-368.636 380.604,-362.74 378.848,-369.516"/>
</g>
<!-- Node4 -->
<g id="node4" class="node"><title>Node4</title>
<g id="a_node4"><a xlink:href="namespaceRa_1_1Core_1_1Colors.html#a7b99d6d60a6fe356e854cc7253ec8bb7" target="_top" xlink:title="Ra::Core::Colors::fromHSV">
<polygon fill="white" stroke="black" points="185.5,-375.5 185.5,-394.5 322.5,-394.5 322.5,-375.5 185.5,-375.5"/>
<text text-anchor="middle" x="254" y="-382.5" font-family="Helvetica,sans-Serif" font-size="10.00">Ra::Core::Colors::fromHSV</text>
</a>
</g>
</g>
<!-- Node1&#45;&gt;Node4 -->
<g id="edge3" class="edge"><title>Node1&#45;&gt;Node4</title>
<path fill="none" stroke="midnightblue" d="M76.5226,-201.002C90.4573,-231.585 125.83,-301.881 174,-345 186.285,-355.997 202.142,-364.8 216.422,-371.318"/>
<polygon fill="midnightblue" stroke="midnightblue" points="215.426,-374.7 225.993,-375.463 218.208,-368.277 215.426,-374.7"/>
</g>
<!-- Node6 -->
<g id="node6" class="node"><title>Node6</title>
<g id="a_node6"><a xlink:href="namespaceRa_1_1Core_1_1Geometry.html#ad9078d959578384d153104cd11c9a02c" target="_top" xlink:title="Ra::Core::Geometry\l::partition">
<polygon fill="white" stroke="black" points="201.5,-245 201.5,-275 306.5,-275 306.5,-245 201.5,-245"/>
<text text-anchor="start" x="209.5" y="-263" font-family="Helvetica,sans-Serif" font-size="10.00">Ra::Core::Geometry</text>
<text text-anchor="middle" x="254" y="-252" font-family="Helvetica,sans-Serif" font-size="10.00">::partition</text>
</a>
</g>
</g>
<!-- Node1&#45;&gt;Node6 -->
<g id="edge5" class="edge"><title>Node1&#45;&gt;Node6</title>
<path fill="none" stroke="midnightblue" d="M99.1264,-201.008C119.727,-211.304 148.168,-224.88 174,-235 179.889,-237.307 186.086,-239.559 192.311,-241.707"/>
<polygon fill="midnightblue" stroke="midnightblue" points="191.482,-245.121 202.076,-244.99 193.712,-238.486 191.482,-245.121"/>
</g>
<!-- Node12 -->
<g id="node12" class="node"><title>Node12</title>
<g id="a_node12"><a xlink:href="namespaceRa_1_1Core_1_1Geometry.html#a37e391d761a6361d940c03b5213f16ea" target="_top" xlink:title="GLOBAL MATRIX ///. ">
<polygon fill="white" stroke="black" points="201.5,-196 201.5,-226 306.5,-226 306.5,-196 201.5,-196"/>
<text text-anchor="start" x="209.5" y="-214" font-family="Helvetica,sans-Serif" font-size="10.00">Ra::Core::Geometry</text>
<text text-anchor="middle" x="254" y="-203" font-family="Helvetica,sans-Serif" font-size="10.00">::uniformAdjacency</text>
</a>
</g>
</g>
<!-- Node1&#45;&gt;Node12 -->
<g id="edge13" class="edge"><title>Node1&#45;&gt;Node12</title>
<path fill="none" stroke="midnightblue" d="M137.623,-195.238C155.241,-197.645 174.129,-200.225 191.416,-202.587"/>
<polygon fill="midnightblue" stroke="midnightblue" points="191.006,-206.063 201.388,-203.949 191.954,-199.128 191.006,-206.063"/>
</g>
<!-- Node13 -->
<g id="node13" class="node"><title>Node13</title>
<g id="a_node13"><a xlink:href="namespaceRa_1_1Engine_1_1ShaderConfigurationFactory.html#a0bc60f21dbabd745961037f3d2f019c8" target="_top" xlink:title="Ra::Engine::ShaderConfiguration\lFactory::getConfiguration">
<polygon fill="white" stroke="black" points="174,-147 174,-177 334,-177 334,-147 174,-147"/>
<text text-anchor="start" x="182" y="-165" font-family="Helvetica,sans-Serif" font-size="10.00">Ra::Engine::ShaderConfiguration</text>
<text text-anchor="middle" x="254" y="-154" font-family="Helvetica,sans-Serif" font-size="10.00">Factory::getConfiguration</text>
</a>
</g>
</g>
<!-- Node1&#45;&gt;Node13 -->
<g id="edge15" class="edge"><title>Node1&#45;&gt;Node13</title>
<path fill="none" stroke="midnightblue" d="M137.623,-177.131C146.204,-176.006 155.086,-174.841 163.938,-173.68"/>
<polygon fill="midnightblue" stroke="midnightblue" points="164.442,-177.144 173.902,-172.374 163.531,-170.204 164.442,-177.144"/>
</g>
<!-- Node15 -->
<g id="node15" class="node"><title>Node15</title>
<g id="a_node15"><a xlink:href="classRa_1_1Engine_1_1RenderObject.html#a62e0eb3a7de5a7d352b565a28260cc06" target="_top" xlink:title="Ra::Engine::RenderObject\l::setVisible">
<polygon fill="white" stroke="black" points="188.5,-98 188.5,-128 319.5,-128 319.5,-98 188.5,-98"/>
<text text-anchor="start" x="196.5" y="-116" font-family="Helvetica,sans-Serif" font-size="10.00">Ra::Engine::RenderObject</text>
<text text-anchor="middle" x="254" y="-105" font-family="Helvetica,sans-Serif" font-size="10.00">::setVisible</text>
</a>
</g>
</g>
<!-- Node1&#45;&gt;Node15 -->
<g id="edge17" class="edge"><title>Node1&#45;&gt;Node15</title>
<path fill="none" stroke="midnightblue" d="M100.056,-170.904C120.596,-160.893 148.595,-147.838 174,-138 179.898,-135.716 186.101,-133.479 192.33,-131.34"/>
<polygon fill="midnightblue" stroke="midnightblue" points="193.728,-134.563 202.098,-128.068 191.504,-127.926 193.728,-134.563"/>
</g>
<!-- Node16 -->
<g id="node16" class="node"><title>Node16</title>
<g id="a_node16"><a xlink:href="classRa_1_1Engine_1_1RenderObject.html#ae1ea453e2b698cda9956586d11b9cfbd" target="_top" xlink:title="Ra::Engine::RenderObject\l::setRenderTechnique">
<polygon fill="white" stroke="black" points="188.5,-49 188.5,-79 319.5,-79 319.5,-49 188.5,-49"/>
<text text-anchor="start" x="196.5" y="-67" font-family="Helvetica,sans-Serif" font-size="10.00">Ra::Engine::RenderObject</text>
<text text-anchor="middle" x="254" y="-56" font-family="Helvetica,sans-Serif" font-size="10.00">::setRenderTechnique</text>
</a>
</g>
</g>
<!-- Node1&#45;&gt;Node16 -->
<g id="edge18" class="edge"><title>Node1&#45;&gt;Node16</title>
<path fill="none" stroke="midnightblue" d="M82.139,-170.78C100.042,-149.31 135.58,-110.27 174,-88 177.005,-86.2579 180.15,-84.6306 183.38,-83.1119"/>
<polygon fill="midnightblue" stroke="midnightblue" points="184.864,-86.2834 192.666,-79.1145 182.096,-79.8539 184.864,-86.2834"/>
</g>
<!-- Node17 -->
<g id="node17" class="node"><title>Node17</title>
<g id="a_node17"><a xlink:href="classRa_1_1Engine_1_1RenderObject.html#ae8e94954e783a2012fd774598af1eb52" target="_top" xlink:title="Ra::Engine::RenderObject\l::setMesh">
<polygon fill="white" stroke="black" points="188.5,-0 188.5,-30 319.5,-30 319.5,-0 188.5,-0"/>
<text text-anchor="start" x="196.5" y="-18" font-family="Helvetica,sans-Serif" font-size="10.00">Ra::Engine::RenderObject</text>
<text text-anchor="middle" x="254" y="-7" font-family="Helvetica,sans-Serif" font-size="10.00">::setMesh</text>
</a>
</g>
</g>
<!-- Node1&#45;&gt;Node17 -->
<g id="edge19" class="edge"><title>Node1&#45;&gt;Node17</title>
<path fill="none" stroke="midnightblue" d="M76.691,-170.554C90.4516,-140.607 124.816,-74.4853 174,-39 176.085,-37.4956 178.266,-36.0842 180.519,-34.7601"/>
<polygon fill="midnightblue" stroke="midnightblue" points="182.263,-37.798 189.515,-30.0742 179.029,-31.5897 182.263,-37.798"/>
</g>
<!-- Node3 -->
<g id="node3" class="node"><title>Node3</title>
<g id="a_node3"><a xlink:href="classRa_1_1Core_1_1AttribManager.html#aaa6088620425c1e1d74b50f1b50eb596" target="_top" xlink:title="Get attribute by handle. ">
<polygon fill="white" stroke="black" points="566.5,-269 566.5,-299 689.5,-299 689.5,-269 566.5,-269"/>
<text text-anchor="start" x="574.5" y="-287" font-family="Helvetica,sans-Serif" font-size="10.00">Ra::Core::AttribManager</text>
<text text-anchor="middle" x="628" y="-276" font-family="Helvetica,sans-Serif" font-size="10.00">::getAttrib</text>
</a>
</g>
</g>
<!-- Node2&#45;&gt;Node3 -->
<g id="edge2" class="edge"><title>Node2&#45;&gt;Node3</title>
<path fill="none" stroke="midnightblue" d="M506.781,-366.975C514.751,-364.079 522.711,-360.756 530,-357 556.928,-343.124 584.196,-321.818 602.933,-305.799"/>
<polygon fill="midnightblue" stroke="midnightblue" points="605.414,-308.28 610.662,-299.076 600.82,-302.998 605.414,-308.28"/>
</g>
<!-- Node5 -->
<g id="node5" class="node"><title>Node5</title>
<g id="a_node5"><a xlink:href="namespaceRa_1_1Core_1_1Vector.html#af564521564244ea832d4b66d9cff6fcc" target="_top" xlink:title="Component&#45;wise floor() function on a floating&#45;point vector. ">
<polygon fill="white" stroke="black" points="392,-416.5 392,-435.5 508,-435.5 508,-416.5 392,-416.5"/>
<text text-anchor="middle" x="450" y="-423.5" font-family="Helvetica,sans-Serif" font-size="10.00">Ra::Core::Vector::floor</text>
</a>
</g>
</g>
<!-- Node4&#45;&gt;Node5 -->
<g id="edge4" class="edge"><title>Node4&#45;&gt;Node5</title>
<path fill="none" stroke="midnightblue" d="M299.995,-394.509C328.053,-400.439 364.352,-408.11 394.098,-414.397"/>
<polygon fill="midnightblue" stroke="midnightblue" points="393.406,-417.828 403.913,-416.471 394.853,-410.979 393.406,-417.828"/>
</g>
<!-- Node6&#45;&gt;Node2 -->
<g id="edge6" class="edge"><title>Node6&#45;&gt;Node2</title>
<path fill="none" stroke="midnightblue" d="M278.81,-275.23C295.032,-286.064 316.631,-301.41 334,-317 351.799,-332.977 349.893,-344.048 370,-357 373.148,-359.028 376.473,-360.902 379.906,-362.632"/>
<polygon fill="midnightblue" stroke="midnightblue" points="378.649,-365.906 389.199,-366.884 381.562,-359.541 378.649,-365.906"/>
</g>
<!-- Node7 -->
<g id="node7" class="node"><title>Node7</title>
<g id="a_node7"><a xlink:href="namespaceRa_1_1Core_1_1Geometry.html#a559688ce2ea83e95725208d799d07a80" target="_top" xlink:title="Ra::Core::Geometry\l::extractVertexSegment">
<polygon fill="white" stroke="black" points="390,-318 390,-348 510,-348 510,-318 390,-318"/>
<text text-anchor="start" x="398" y="-336" font-family="Helvetica,sans-Serif" font-size="10.00">Ra::Core::Geometry</text>
<text text-anchor="middle" x="450" y="-325" font-family="Helvetica,sans-Serif" font-size="10.00">::extractVertexSegment</text>
</a>
</g>
</g>
<!-- Node6&#45;&gt;Node7 -->
<g id="edge7" class="edge"><title>Node6&#45;&gt;Node7</title>
<path fill="none" stroke="midnightblue" d="M288.903,-275.085C311.641,-284.97 342.37,-297.885 370,-308 376.263,-310.293 382.848,-312.575 389.433,-314.775"/>
<polygon fill="midnightblue" stroke="midnightblue" points="388.452,-318.137 399.044,-317.932 390.636,-311.486 388.452,-318.137"/>
</g>
<!-- Node8 -->
<g id="node8" class="node"><title>Node8</title>
<g id="a_node8"><a xlink:href="namespaceRa_1_1Core_1_1Geometry.html#ac9ed208c21d64b54f845c6ef259e7fa5" target="_top" xlink:title="Ra::Core::Geometry\l::extractBitSet">
<polygon fill="white" stroke="black" points="397.5,-269 397.5,-299 502.5,-299 502.5,-269 397.5,-269"/>
<text text-anchor="start" x="405.5" y="-287" font-family="Helvetica,sans-Serif" font-size="10.00">Ra::Core::Geometry</text>
<text text-anchor="middle" x="450" y="-276" font-family="Helvetica,sans-Serif" font-size="10.00">::extractBitSet</text>
</a>
</g>
</g>
<!-- Node6&#45;&gt;Node8 -->
<g id="edge8" class="edge"><title>Node6&#45;&gt;Node8</title>
<path fill="none" stroke="midnightblue" d="M306.734,-266.4C331.507,-269.465 361.357,-273.158 387.305,-276.368"/>
<polygon fill="midnightblue" stroke="midnightblue" points="387.057,-279.863 397.411,-277.618 387.916,-272.916 387.057,-279.863"/>
</g>
<!-- Node9 -->
<g id="node9" class="node"><title>Node9</title>
<g id="a_node9"><a xlink:href="namespaceRa_1_1Core_1_1Algorithm.html#aea294cdb6f4f0d85955bdcccb22886ec" target="_top" xlink:title="Ra::Core::Algorithm::t">
<polygon fill="white" stroke="black" points="393.5,-132.5 393.5,-151.5 506.5,-151.5 506.5,-132.5 393.5,-132.5"/>
<text text-anchor="middle" x="450" y="-139.5" font-family="Helvetica,sans-Serif" font-size="10.00">Ra::Core::Algorithm::t</text>
</a>
</g>
</g>
<!-- Node6&#45;&gt;Node9 -->
<g id="edge9" class="edge"><title>Node6&#45;&gt;Node9</title>
<path fill="none" stroke="midnightblue" d="M306.59,-250.278C316.455,-246.678 326.142,-241.748 334,-235 361.444,-211.432 341.878,-184.755 370,-162 374.262,-158.551 379.044,-155.689 384.09,-153.313"/>
<polygon fill="midnightblue" stroke="midnightblue" points="385.449,-156.539 393.405,-149.543 382.822,-150.051 385.449,-156.539"/>
</g>
<!-- Node10 -->
<g id="node10" class="node"><title>Node10</title>
<g id="a_node10"><a xlink:href="namespaceRa_1_1Core_1_1Geometry.html#a410504fc421a43d2f5b139211db1a67e" target="_top" xlink:title="Ra::Core::Geometry\l::extractTriangleSegment">
<polygon fill="white" stroke="black" points="387,-220 387,-250 513,-250 513,-220 387,-220"/>
<text text-anchor="start" x="395" y="-238" font-family="Helvetica,sans-Serif" font-size="10.00">Ra::Core::Geometry</text>
<text text-anchor="middle" x="450" y="-227" font-family="Helvetica,sans-Serif" font-size="10.00">::extractTriangleSegment</text>
</a>
</g>
</g>
<!-- Node6&#45;&gt;Node10 -->
<g id="edge10" class="edge"><title>Node6&#45;&gt;Node10</title>
<path fill="none" stroke="midnightblue" d="M306.734,-253.333C328.147,-250.574 353.353,-247.326 376.554,-244.336"/>
<polygon fill="midnightblue" stroke="midnightblue" points="377.233,-247.777 386.703,-243.028 376.338,-240.835 377.233,-247.777"/>
</g>
<!-- Node11 -->
<g id="node11" class="node"><title>Node11</title>
<g id="a_node11"><a xlink:href="classRa_1_1Core_1_1TriangleMesh.html#a40d31b7b2943947d6eac5d906f0182fd" target="_top" xlink:title="Access the vertices normals. ">
<polygon fill="white" stroke="black" points="389.5,-171 389.5,-201 510.5,-201 510.5,-171 389.5,-171"/>
<text text-anchor="start" x="397.5" y="-189" font-family="Helvetica,sans-Serif" font-size="10.00">Ra::Core::TriangleMesh</text>
<text text-anchor="middle" x="450" y="-178" font-family="Helvetica,sans-Serif" font-size="10.00">::normals</text>
</a>
</g>
</g>
<!-- Node6&#45;&gt;Node11 -->
<g id="edge11" class="edge"><title>Node6&#45;&gt;Node11</title>
<path fill="none" stroke="midnightblue" d="M306.808,-245.914C316.042,-242.757 325.439,-239.106 334,-235 351.338,-226.684 352.662,-219.316 370,-211 374.663,-208.763 379.575,-206.662 384.573,-204.701"/>
<polygon fill="midnightblue" stroke="midnightblue" points="386.094,-207.87 394.25,-201.107 383.657,-201.308 386.094,-207.87"/>
</g>
<!-- Node11&#45;&gt;Node3 -->
<g id="edge12" class="edge"><title>Node11&#45;&gt;Node3</title>
<path fill="none" stroke="midnightblue" d="M506.781,-201.025C514.751,-203.921 522.711,-207.244 530,-211 556.928,-224.876 584.196,-246.182 602.933,-262.201"/>
<polygon fill="midnightblue" stroke="midnightblue" points="600.82,-265.002 610.662,-268.924 605.414,-259.72 600.82,-265.002"/>
</g>
<!-- Node12&#45;&gt;Node9 -->
<g id="edge14" class="edge"><title>Node12&#45;&gt;Node9</title>
<path fill="none" stroke="midnightblue" d="M306.808,-196.914C316.042,-193.757 325.439,-190.106 334,-186 351.338,-177.684 352.426,-169.806 370,-162 376.578,-159.078 383.662,-156.528 390.79,-154.317"/>
<polygon fill="midnightblue" stroke="midnightblue" points="391.862,-157.65 400.495,-151.509 389.916,-150.926 391.862,-157.65"/>
</g>
<!-- Node14 -->
<g id="node14" class="node"><title>Node14</title>
<g id="a_node14"><a xlink:href="classRa_1_1Engine_1_1ShaderConfiguration.html#a7e20a600c78e8627f0238b342f4b42f2" target="_top" xlink:title="Ra::Engine::ShaderConfiguration\l::getDefaultShaderConfig">
<polygon fill="white" stroke="black" points="370,-83 370,-113 530,-113 530,-83 370,-83"/>
<text text-anchor="start" x="378" y="-101" font-family="Helvetica,sans-Serif" font-size="10.00">Ra::Engine::ShaderConfiguration</text>
<text text-anchor="middle" x="450" y="-90" font-family="Helvetica,sans-Serif" font-size="10.00">::getDefaultShaderConfig</text>
</a>
</g>
</g>
<!-- Node13&#45;&gt;Node14 -->
<g id="edge16" class="edge"><title>Node13&#45;&gt;Node14</title>
<path fill="none" stroke="midnightblue" d="M304.469,-146.884C314.292,-143.731 324.502,-140.346 334,-137 350.192,-131.296 353.808,-128.704 370,-123 376.381,-120.752 383.084,-118.486 389.776,-116.285"/>
<polygon fill="midnightblue" stroke="midnightblue" points="391.102,-119.534 399.531,-113.116 388.939,-112.877 391.102,-119.534"/>
</g>
</g>
</svg>
