<?xml version="1.0" encoding="UTF-8" standalone="no"?>
<!DOCTYPE svg PUBLIC "-//W3C//DTD SVG 1.1//EN"
 "http://www.w3.org/Graphics/SVG/1.1/DTD/svg11.dtd">
<!-- Generated by graphviz version 2.36.0 (20140111.2315)
 -->
<!-- Title: Ra::Core::LoopSubdivider::recompute Pages: 1 -->
<svg width="342pt" height="157pt"
 viewBox="0.00 0.00 342.00 157.00" xmlns="http://www.w3.org/2000/svg" xmlns:xlink="http://www.w3.org/1999/xlink">
<g id="graph0" class="graph" transform="scale(1 1) rotate(0) translate(4 153)">
<title>Ra::Core::LoopSubdivider::recompute</title>
<polygon fill="white" stroke="none" points="-4,4 -4,-153 338,-153 338,4 -4,4"/>
<!-- Node1 -->
<g id="node1" class="node"><title>Node1</title>
<polygon fill="#bfbfbf" stroke="black" points="0.5,-59 0.5,-89 129.5,-89 129.5,-59 0.5,-59"/>
<text text-anchor="start" x="8.5" y="-77" font-family="Helvetica,sans-Serif" font-size="10.00">Ra::Core::LoopSubdivider</text>
<text text-anchor="middle" x="65" y="-66" font-family="Helvetica,sans-Serif" font-size="10.00">::recompute</text>
</g>
<!-- Node2 -->
<g id="node2" class="node"><title>Node2</title>
<g id="a_node2"><a xlink:href="classRa_1_1Core_1_1TopologicalMesh.html#a32cb3d4c54ee7ebfacbcfb6307e36d1e" target="_top" xlink:title="Return a handle to the halfedge property storing vertices indices within the TriangleMesh *this has b...">
<polygon fill="white" stroke="black" points="169.5,-107.5 169.5,-148.5 330.5,-148.5 330.5,-107.5 169.5,-107.5"/>
<text text-anchor="start" x="177.5" y="-136.5" font-family="Helvetica,sans-Serif" font-size="10.00">Ra::Core::TopologicalMesh</text>
<text text-anchor="start" x="177.5" y="-125.5" font-family="Helvetica,sans-Serif" font-size="10.00">::getInputTriangleMeshIndexProp</text>
<text text-anchor="middle" x="250" y="-114.5" font-family="Helvetica,sans-Serif" font-size="10.00">Handle</text>
</a>
</g>
</g>
<!-- Node1&#45;&gt;Node2 -->
<g id="edge1" class="edge"><title>Node1&#45;&gt;Node2</title>
<path fill="none" stroke="midnightblue" d="M116.976,-89.042C133.305,-93.8606 151.793,-99.316 169.652,-104.586"/>
<polygon fill="midnightblue" stroke="midnightblue" points="168.91,-108.016 179.491,-107.489 170.891,-101.302 168.91,-108.016"/>
</g>
<!-- Node3 -->
<g id="node3" class="node"><title>Node3</title>
<g id="a_node3"><a xlink:href="classRa_1_1Core_1_1TopologicalMesh.html#a94c32854d7aa51edc42d5d1dd70856f3" target="_top" xlink:title="Return the half&#45;edge associated with a given vertex and face. ">
<polygon fill="white" stroke="black" points="182,-59 182,-89 318,-89 318,-59 182,-59"/>
<text text-anchor="start" x="190" y="-77" font-family="Helvetica,sans-Serif" font-size="10.00">Ra::Core::TopologicalMesh</text>
<text text-anchor="middle" x="250" y="-66" font-family="Helvetica,sans-Serif" font-size="10.00">::halfedge_handle</text>
</a>
</g>
</g>
<!-- Node1&#45;&gt;Node3 -->
<g id="edge2" class="edge"><title>Node1&#45;&gt;Node3</title>
<path fill="none" stroke="midnightblue" d="M129.748,-74C143.277,-74 157.701,-74 171.673,-74"/>
<polygon fill="midnightblue" stroke="midnightblue" points="171.748,-77.5001 181.748,-74 171.748,-70.5001 171.748,-77.5001"/>
</g>
<!-- Node4 -->
<g id="node4" class="node"><title>Node4</title>
<g id="a_node4"><a xlink:href="classRa_1_1Core_1_1TopologicalMesh.html#a1720e39b86ff8ebf92276e41c744cccd" target="_top" xlink:title="Return a handle to the halfedge property storing vertices indices within the TriangleMesh returned by...">
<polygon fill="white" stroke="black" points="166,0.5 166,-40.5 334,-40.5 334,0.5 166,0.5"/>
<text text-anchor="start" x="174" y="-28.5" font-family="Helvetica,sans-Serif" font-size="10.00">Ra::Core::TopologicalMesh</text>
<text text-anchor="start" x="174" y="-17.5" font-family="Helvetica,sans-Serif" font-size="10.00">::getOutputTriangleMeshIndexProp</text>
<text text-anchor="middle" x="250" y="-6.5" font-family="Helvetica,sans-Serif" font-size="10.00">Handle</text>
</a>
</g>
</g>
<!-- Node1&#45;&gt;Node4 -->
<g id="edge3" class="edge"><title>Node1&#45;&gt;Node4</title>
<path fill="none" stroke="midnightblue" d="M116.976,-58.958C133.305,-54.1394 151.793,-48.684 169.652,-43.4141"/>
<polygon fill="midnightblue" stroke="midnightblue" points="170.891,-46.6979 179.491,-40.5107 168.91,-39.9841 170.891,-46.6979"/>
</g>
</g>
</svg>
