<?xml version="1.0" encoding="UTF-8" standalone="no"?>
<!DOCTYPE svg PUBLIC "-//W3C//DTD SVG 1.1//EN"
 "http://www.w3.org/Graphics/SVG/1.1/DTD/svg11.dtd">
<!-- Generated by graphviz version 2.36.0 (20140111.2315)
 -->
<!-- Title: AnimationUI Pages: 1 -->
<svg width="100pt" height="172pt"
 viewBox="0.00 0.00 100.00 172.00" xmlns="http://www.w3.org/2000/svg" xmlns:xlink="http://www.w3.org/1999/xlink">
<g id="graph0" class="graph" transform="scale(1 1) rotate(0) translate(4 168)">
<title>AnimationUI</title>
<polygon fill="white" stroke="none" points="-4,4 -4,-168 96,-168 96,4 -4,4"/>
<!-- Node1 -->
<g id="node1" class="node"><title>Node1</title>
<polygon fill="#bfbfbf" stroke="black" points="0,-1 0,-69 92,-69 92,-1 0,-1"/>
<text text-anchor="middle" x="46" y="-57" font-family="Helvetica,sans-Serif" font-size="10.00">AnimationUI</text>
<polyline fill="none" stroke="black" points="0,-50 92,-50 "/>
<text text-anchor="middle" x="46" y="-38" font-family="Helvetica,sans-Serif" font-size="10.00"> </text>
<polyline fill="none" stroke="black" points="0,-31 92,-31 "/>
<text text-anchor="start" x="8" y="-19" font-family="Helvetica,sans-Serif" font-size="10.00">+ AnimationUI()</text>
<text text-anchor="start" x="8" y="-8" font-family="Helvetica,sans-Serif" font-size="10.00">+ ~AnimationUI()</text>
</g>
<!-- Node2 -->
<g id="node2" class="node"><title>Node2</title>
<g id="a_node2"><a xlink:href="classQFrame.html" target="_top" xlink:title="{QFrame\n||}">
<polygon fill="white" stroke="black" points="20,-106.5 20,-163.5 72,-163.5 72,-106.5 20,-106.5"/>
<text text-anchor="middle" x="46" y="-151.5" font-family="Helvetica,sans-Serif" font-size="10.00">QFrame</text>
<polyline fill="none" stroke="black" points="20,-144.5 72,-144.5 "/>
<text text-anchor="middle" x="46" y="-132.5" font-family="Helvetica,sans-Serif" font-size="10.00"> </text>
<polyline fill="none" stroke="black" points="20,-125.5 72,-125.5 "/>
<text text-anchor="middle" x="46" y="-113.5" font-family="Helvetica,sans-Serif" font-size="10.00"> </text>
</a>
</g>
</g>
<!-- Node2&#45;&gt;Node1 -->
<g id="edge1" class="edge"><title>Node2&#45;&gt;Node1</title>
<path fill="none" stroke="midnightblue" d="M46,-96.3023C46,-87.3951 46,-77.9608 46,-69.2659"/>
<polygon fill="none" stroke="midnightblue" points="42.5001,-96.4407 46,-106.441 49.5001,-96.4408 42.5001,-96.4407"/>
</g>
</g>
</svg>
