<?xml version="1.0" encoding="UTF-8" standalone="no"?>
<!DOCTYPE svg PUBLIC "-//W3C//DTD SVG 1.1//EN"
 "http://www.w3.org/Graphics/SVG/1.1/DTD/svg11.dtd">
<!-- Generated by graphviz version 2.36.0 (20140111.2315)
 -->
<!-- Title: Ra::Core::Animation::Animation::getPose Pages: 1 -->
<svg width="410pt" height="126pt"
 viewBox="0.00 0.00 410.00 126.00" xmlns="http://www.w3.org/2000/svg" xmlns:xlink="http://www.w3.org/1999/xlink">
<g id="graph0" class="graph" transform="scale(1 1) rotate(0) translate(4 122)">
<title>Ra::Core::Animation::Animation::getPose</title>
<polygon fill="white" stroke="none" points="-4,4 -4,-122 406,-122 406,4 -4,4"/>
<!-- Node1 -->
<g id="node1" class="node"><title>Node1</title>
<polygon fill="#bfbfbf" stroke="black" points="0,-44 0,-74 108,-74 108,-44 0,-44"/>
<text text-anchor="start" x="8" y="-62" font-family="Helvetica,sans-Serif" font-size="10.00">Ra::Core::Animation</text>
<text text-anchor="middle" x="54" y="-51" font-family="Helvetica,sans-Serif" font-size="10.00">::Animation::getPose</text>
</g>
<!-- Node2 -->
<g id="node2" class="node"><title>Node2</title>
<g id="a_node2"><a xlink:href="classRa_1_1Core_1_1Animation_1_1Animation.html#a4000e7828ab5ea88342bec8ff42248c4" target="_top" xlink:title="Ra::Core::Animation\l::Animation::getTime">
<polygon fill="white" stroke="black" points="144.5,-88 144.5,-118 251.5,-118 251.5,-88 144.5,-88"/>
<text text-anchor="start" x="152.5" y="-106" font-family="Helvetica,sans-Serif" font-size="10.00">Ra::Core::Animation</text>
<text text-anchor="middle" x="198" y="-95" font-family="Helvetica,sans-Serif" font-size="10.00">::Animation::getTime</text>
</a>
</g>
</g>
<!-- Node1&#45;&gt;Node2 -->
<g id="edge1" class="edge"><title>Node1&#45;&gt;Node2</title>
<path fill="none" stroke="midnightblue" d="M103.471,-74.0192C114.77,-77.5202 126.917,-81.2842 138.595,-84.9027"/>
<polygon fill="midnightblue" stroke="midnightblue" points="137.677,-88.2824 148.265,-87.8991 139.749,-81.596 137.677,-88.2824"/>
</g>
<!-- Node3 -->
<g id="node3" class="node"><title>Node3</title>
<g id="a_node3"><a xlink:href="namespaceRa_1_1Core_1_1Algorithm.html#aea294cdb6f4f0d85955bdcccb22886ec" target="_top" xlink:title="Ra::Core::Algorithm::t">
<polygon fill="white" stroke="black" points="288.5,-27.5 288.5,-46.5 401.5,-46.5 401.5,-27.5 288.5,-27.5"/>
<text text-anchor="middle" x="345" y="-34.5" font-family="Helvetica,sans-Serif" font-size="10.00">Ra::Core::Algorithm::t</text>
</a>
</g>
</g>
<!-- Node1&#45;&gt;Node3 -->
<g id="edge2" class="edge"><title>Node1&#45;&gt;Node3</title>
<path fill="none" stroke="midnightblue" d="M108.007,-54.9649C155.976,-51.3132 226.798,-45.922 278.336,-41.9986"/>
<polygon fill="midnightblue" stroke="midnightblue" points="278.669,-45.4835 288.374,-41.2345 278.137,-38.5037 278.669,-45.4835"/>
</g>
<!-- Node4 -->
<g id="node4" class="node"><title>Node4</title>
<g id="a_node4"><a xlink:href="namespaceRa_1_1Core_1_1Animation.html#aa5e2e11d79318fd2777aaa259f8210db" target="_top" xlink:title="Ra::Core::Animation\l::interpolatePoses">
<polygon fill="white" stroke="black" points="145,-0 145,-30 251,-30 251,-0 145,-0"/>
<text text-anchor="start" x="153" y="-18" font-family="Helvetica,sans-Serif" font-size="10.00">Ra::Core::Animation</text>
<text text-anchor="middle" x="198" y="-7" font-family="Helvetica,sans-Serif" font-size="10.00">::interpolatePoses</text>
</a>
</g>
</g>
<!-- Node1&#45;&gt;Node4 -->
<g id="edge3" class="edge"><title>Node1&#45;&gt;Node4</title>
<path fill="none" stroke="midnightblue" d="M103.471,-43.9808C114.77,-40.4798 126.917,-36.7158 138.595,-33.0973"/>
<polygon fill="midnightblue" stroke="midnightblue" points="139.749,-36.404 148.265,-30.1009 137.677,-29.7176 139.749,-36.404"/>
</g>
<!-- Node4&#45;&gt;Node3 -->
<g id="edge4" class="edge"><title>Node4&#45;&gt;Node3</title>
<path fill="none" stroke="midnightblue" d="M251.348,-22.9425C260.071,-24.266 269.217,-25.6536 278.223,-27.0201"/>
<polygon fill="midnightblue" stroke="midnightblue" points="277.89,-30.5095 288.302,-28.5493 278.94,-23.5887 277.89,-30.5095"/>
</g>
</g>
</svg>
