<?xml version="1.0" encoding="UTF-8" standalone="no"?>
<!DOCTYPE svg PUBLIC "-//W3C//DTD SVG 1.1//EN"
 "http://www.w3.org/Graphics/SVG/1.1/DTD/svg11.dtd">
<!-- Generated by graphviz version 2.36.0 (20140111.2315)
 -->
<!-- Title: AnimationPlugin::AnimationComponent Pages: 1 -->
<svg width="649pt" height="1578pt"
 viewBox="0.00 0.00 649.00 1578.00" xmlns="http://www.w3.org/2000/svg" xmlns:xlink="http://www.w3.org/1999/xlink">
<g id="graph0" class="graph" transform="scale(1 1) rotate(0) translate(4 1574)">
<title>AnimationPlugin::AnimationComponent</title>
<polygon fill="white" stroke="none" points="-4,4 -4,-1574 645,-1574 645,4 -4,4"/>
<!-- Node1 -->
<g id="node1" class="node"><title>Node1</title>
<polygon fill="#bfbfbf" stroke="black" points="313.5,-0.5 313.5,-343.5 456.5,-343.5 456.5,-0.5 313.5,-0.5"/>
<text text-anchor="start" x="321.5" y="-331.5" font-family="Helvetica,sans-Serif" font-size="10.00">AnimationPlugin::Animation</text>
<text text-anchor="middle" x="385" y="-320.5" font-family="Helvetica,sans-Serif" font-size="10.00">Component</text>
<polyline fill="none" stroke="black" points="313.5,-313.5 456.5,-313.5 "/>
<text text-anchor="middle" x="385" y="-301.5" font-family="Helvetica,sans-Serif" font-size="10.00"> </text>
<polyline fill="none" stroke="black" points="313.5,-294.5 456.5,-294.5 "/>
<text text-anchor="start" x="321.5" y="-282.5" font-family="Helvetica,sans-Serif" font-size="10.00">+ AnimationComponent()</text>
<text text-anchor="start" x="321.5" y="-271.5" font-family="Helvetica,sans-Serif" font-size="10.00">+ ~AnimationComponent()</text>
<text text-anchor="start" x="321.5" y="-260.5" font-family="Helvetica,sans-Serif" font-size="10.00">+ AnimationComponent()</text>
<text text-anchor="start" x="321.5" y="-249.5" font-family="Helvetica,sans-Serif" font-size="10.00">+ operator=()</text>
<text text-anchor="start" x="321.5" y="-238.5" font-family="Helvetica,sans-Serif" font-size="10.00">+ initialize()</text>
<text text-anchor="start" x="321.5" y="-227.5" font-family="Helvetica,sans-Serif" font-size="10.00">+ handleSkeletonLoading()</text>
<text text-anchor="start" x="321.5" y="-216.5" font-family="Helvetica,sans-Serif" font-size="10.00">+ handleAnimationLoading()</text>
<text text-anchor="start" x="321.5" y="-205.5" font-family="Helvetica,sans-Serif" font-size="10.00">+ setSkeleton()</text>
<text text-anchor="start" x="321.5" y="-194.5" font-family="Helvetica,sans-Serif" font-size="10.00">+ getSkeleton()</text>
<text text-anchor="start" x="321.5" y="-183.5" font-family="Helvetica,sans-Serif" font-size="10.00">+ update()</text>
<text text-anchor="start" x="321.5" y="-172.5" font-family="Helvetica,sans-Serif" font-size="10.00">+ reset()</text>
<text text-anchor="start" x="321.5" y="-161.5" font-family="Helvetica,sans-Serif" font-size="10.00">+ cacheFrame()</text>
<text text-anchor="start" x="321.5" y="-150.5" font-family="Helvetica,sans-Serif" font-size="10.00">+ restoreFrame()</text>
<text text-anchor="start" x="321.5" y="-139.5" font-family="Helvetica,sans-Serif" font-size="10.00">+ toggleAnimationTimeStep()</text>
<text text-anchor="start" x="321.5" y="-128.5" font-family="Helvetica,sans-Serif" font-size="10.00">+ setSpeed()</text>
<text text-anchor="start" x="321.5" y="-117.5" font-family="Helvetica,sans-Serif" font-size="10.00">+ toggleSlowMotion()</text>
<text text-anchor="start" x="321.5" y="-106.5" font-family="Helvetica,sans-Serif" font-size="10.00">+ setAnimation()</text>
<text text-anchor="start" x="321.5" y="-95.5" font-family="Helvetica,sans-Serif" font-size="10.00">+ getTime()</text>
<text text-anchor="start" x="321.5" y="-84.5" font-family="Helvetica,sans-Serif" font-size="10.00">+ getDuration()</text>
<text text-anchor="start" x="321.5" y="-73.5" font-family="Helvetica,sans-Serif" font-size="10.00">+ getMaxFrame()</text>
<text text-anchor="start" x="321.5" y="-62.5" font-family="Helvetica,sans-Serif" font-size="10.00">+ setXray()</text>
<text text-anchor="start" x="321.5" y="-51.5" font-family="Helvetica,sans-Serif" font-size="10.00">+ toggleSkeleton()</text>
<text text-anchor="start" x="321.5" y="-40.5" font-family="Helvetica,sans-Serif" font-size="10.00">+ getBoneIdx()</text>
<text text-anchor="start" x="321.5" y="-29.5" font-family="Helvetica,sans-Serif" font-size="10.00">+ canEdit()</text>
<text text-anchor="start" x="321.5" y="-18.5" font-family="Helvetica,sans-Serif" font-size="10.00">+ getTransform()</text>
<text text-anchor="start" x="321.5" y="-7.5" font-family="Helvetica,sans-Serif" font-size="10.00">+ setTransform()</text>
</g>
<!-- Node2 -->
<g id="node2" class="node"><title>Node2</title>
<g id="a_node2"><a xlink:href="classRa_1_1Engine_1_1Component.html" target="_top" xlink:title="A component is an element that can be updated by a system. ">
<polygon fill="white" stroke="black" points="310.5,-383 310.5,-605 459.5,-605 459.5,-383 310.5,-383"/>
<text text-anchor="middle" x="385" y="-593" font-family="Helvetica,sans-Serif" font-size="10.00">Ra::Engine::Component</text>
<polyline fill="none" stroke="black" points="310.5,-586 459.5,-586 "/>
<text text-anchor="middle" x="385" y="-574" font-family="Helvetica,sans-Serif" font-size="10.00"> </text>
<polyline fill="none" stroke="black" points="310.5,-567 459.5,-567 "/>
<text text-anchor="start" x="318.5" y="-555" font-family="Helvetica,sans-Serif" font-size="10.00">+ Component()</text>
<text text-anchor="start" x="318.5" y="-544" font-family="Helvetica,sans-Serif" font-size="10.00">+ ~Component()</text>
<text text-anchor="start" x="318.5" y="-533" font-family="Helvetica,sans-Serif" font-size="10.00">+ initialize()</text>
<text text-anchor="start" x="318.5" y="-522" font-family="Helvetica,sans-Serif" font-size="10.00">+ setEntity()</text>
<text text-anchor="start" x="318.5" y="-511" font-family="Helvetica,sans-Serif" font-size="10.00">+ getEntity()</text>
<text text-anchor="start" x="318.5" y="-500" font-family="Helvetica,sans-Serif" font-size="10.00">+ getName()</text>
<text text-anchor="start" x="318.5" y="-489" font-family="Helvetica,sans-Serif" font-size="10.00">+ setSystem()</text>
<text text-anchor="start" x="318.5" y="-478" font-family="Helvetica,sans-Serif" font-size="10.00">+ getSystem()</text>
<text text-anchor="start" x="318.5" y="-467" font-family="Helvetica,sans-Serif" font-size="10.00">+ addRenderObject()</text>
<text text-anchor="start" x="318.5" y="-456" font-family="Helvetica,sans-Serif" font-size="10.00">+ removeRenderObject()</text>
<text text-anchor="start" x="318.5" y="-445" font-family="Helvetica,sans-Serif" font-size="10.00">+ rayCastQuery()</text>
<text text-anchor="start" x="318.5" y="-434" font-family="Helvetica,sans-Serif" font-size="10.00">+ canEdit()</text>
<text text-anchor="start" x="318.5" y="-423" font-family="Helvetica,sans-Serif" font-size="10.00">+ getTransform()</text>
<text text-anchor="start" x="318.5" y="-412" font-family="Helvetica,sans-Serif" font-size="10.00">+ setTransform()</text>
<text text-anchor="start" x="318.5" y="-401" font-family="Helvetica,sans-Serif" font-size="10.00">+ notifyRenderObjectExpired()</text>
<text text-anchor="start" x="318.5" y="-390" font-family="Helvetica,sans-Serif" font-size="10.00"># getRoMgr()</text>
</a>
</g>
</g>
<!-- Node2&#45;&gt;Node1 -->
<g id="edge1" class="edge"><title>Node2&#45;&gt;Node1</title>
<path fill="none" stroke="midnightblue" d="M385,-372.625C385,-363.101 385,-353.377 385,-343.6"/>
<polygon fill="none" stroke="midnightblue" points="381.5,-372.874 385,-382.874 388.5,-372.874 381.5,-372.874"/>
</g>
<!-- Node3 -->
<g id="node3" class="node"><title>Node3</title>
<polygon fill="white" stroke="#bfbfbf" points="65.5,-954 65.5,-1022 164.5,-1022 164.5,-954 65.5,-954"/>
<text text-anchor="start" x="73.5" y="-1010" font-family="Helvetica,sans-Serif" font-size="10.00">std::vector&lt; Core::</text>
<text text-anchor="middle" x="115" y="-999" font-family="Helvetica,sans-Serif" font-size="10.00">Index &gt;</text>
<polyline fill="none" stroke="#bfbfbf" points="65.5,-992 164.5,-992 "/>
<text text-anchor="middle" x="115" y="-980" font-family="Helvetica,sans-Serif" font-size="10.00"> </text>
<polyline fill="none" stroke="#bfbfbf" points="65.5,-973 164.5,-973 "/>
<text text-anchor="middle" x="115" y="-961" font-family="Helvetica,sans-Serif" font-size="10.00"> </text>
</g>
<!-- Node3&#45;&gt;Node2 -->
<g id="edge2" class="edge"><title>Node3&#45;&gt;Node2</title>
<path fill="none" stroke="#404040" d="M108.991,-953.907C99.3062,-890.628 86.6826,-750.223 144,-654 179.039,-595.178 245.295,-553.862 299.482,-528.115"/>
<polygon fill="none" stroke="#404040" points="299.606,-528.058 303.37,-521.907 310.495,-523.015 306.731,-529.166 299.606,-528.058"/>
<text text-anchor="middle" x="186" y="-774.5" font-family="Helvetica,sans-Serif" font-size="10.00"> +m_renderObjects</text>
</g>
<!-- Node4 -->
<g id="node4" class="node"><title>Node4</title>
<g id="a_node4"><a xlink:href="classRa_1_1Core_1_1Index.html" target="_top" xlink:title="{Ra::Core::Index\n||+ Index()\l+ Index()\l+ isValid()\l+ isInvalid()\l+ setInvalid()\l+ getValue()\l+ setValue()\l+ operator int()\l+ operator=()\l+ operator++()\l+ operator&#45;&#45;()\l+ operator+()\l+ operator+()\l+ operator&#45;()\l+ operator&#45;()\l+ operator==()\l+ operator==()\l+ operator!=()\l+ operator!=()\l+ operator\&lt;()\l+ operator\&lt;()\l+ operator\&lt;=()\l+ operator\&lt;=()\l+ operator\&gt;()\l+ operator\&gt;()\l+ operator\&gt;=()\l+ operator\&gt;=()\l+ Invalid()\l+ Max()\l}">
<polygon fill="white" stroke="black" points="0,-1098.5 0,-1463.5 86,-1463.5 86,-1098.5 0,-1098.5"/>
<text text-anchor="middle" x="43" y="-1451.5" font-family="Helvetica,sans-Serif" font-size="10.00">Ra::Core::Index</text>
<polyline fill="none" stroke="black" points="0,-1444.5 86,-1444.5 "/>
<text text-anchor="middle" x="43" y="-1432.5" font-family="Helvetica,sans-Serif" font-size="10.00"> </text>
<polyline fill="none" stroke="black" points="0,-1425.5 86,-1425.5 "/>
<text text-anchor="start" x="8" y="-1413.5" font-family="Helvetica,sans-Serif" font-size="10.00">+ Index()</text>
<text text-anchor="start" x="8" y="-1402.5" font-family="Helvetica,sans-Serif" font-size="10.00">+ Index()</text>
<text text-anchor="start" x="8" y="-1391.5" font-family="Helvetica,sans-Serif" font-size="10.00">+ isValid()</text>
<text text-anchor="start" x="8" y="-1380.5" font-family="Helvetica,sans-Serif" font-size="10.00">+ isInvalid()</text>
<text text-anchor="start" x="8" y="-1369.5" font-family="Helvetica,sans-Serif" font-size="10.00">+ setInvalid()</text>
<text text-anchor="start" x="8" y="-1358.5" font-family="Helvetica,sans-Serif" font-size="10.00">+ getValue()</text>
<text text-anchor="start" x="8" y="-1347.5" font-family="Helvetica,sans-Serif" font-size="10.00">+ setValue()</text>
<text text-anchor="start" x="8" y="-1336.5" font-family="Helvetica,sans-Serif" font-size="10.00">+ operator int()</text>
<text text-anchor="start" x="8" y="-1325.5" font-family="Helvetica,sans-Serif" font-size="10.00">+ operator=()</text>
<text text-anchor="start" x="8" y="-1314.5" font-family="Helvetica,sans-Serif" font-size="10.00">+ operator++()</text>
<text text-anchor="start" x="8" y="-1303.5" font-family="Helvetica,sans-Serif" font-size="10.00">+ operator&#45;&#45;()</text>
<text text-anchor="start" x="8" y="-1292.5" font-family="Helvetica,sans-Serif" font-size="10.00">+ operator+()</text>
<text text-anchor="start" x="8" y="-1281.5" font-family="Helvetica,sans-Serif" font-size="10.00">+ operator+()</text>
<text text-anchor="start" x="8" y="-1270.5" font-family="Helvetica,sans-Serif" font-size="10.00">+ operator&#45;()</text>
<text text-anchor="start" x="8" y="-1259.5" font-family="Helvetica,sans-Serif" font-size="10.00">+ operator&#45;()</text>
<text text-anchor="start" x="8" y="-1248.5" font-family="Helvetica,sans-Serif" font-size="10.00">+ operator==()</text>
<text text-anchor="start" x="8" y="-1237.5" font-family="Helvetica,sans-Serif" font-size="10.00">+ operator==()</text>
<text text-anchor="start" x="8" y="-1226.5" font-family="Helvetica,sans-Serif" font-size="10.00">+ operator!=()</text>
<text text-anchor="start" x="8" y="-1215.5" font-family="Helvetica,sans-Serif" font-size="10.00">+ operator!=()</text>
<text text-anchor="start" x="8" y="-1204.5" font-family="Helvetica,sans-Serif" font-size="10.00">+ operator&lt;()</text>
<text text-anchor="start" x="8" y="-1193.5" font-family="Helvetica,sans-Serif" font-size="10.00">+ operator&lt;()</text>
<text text-anchor="start" x="8" y="-1182.5" font-family="Helvetica,sans-Serif" font-size="10.00">+ operator&lt;=()</text>
<text text-anchor="start" x="8" y="-1171.5" font-family="Helvetica,sans-Serif" font-size="10.00">+ operator&lt;=()</text>
<text text-anchor="start" x="8" y="-1160.5" font-family="Helvetica,sans-Serif" font-size="10.00">+ operator&gt;()</text>
<text text-anchor="start" x="8" y="-1149.5" font-family="Helvetica,sans-Serif" font-size="10.00">+ operator&gt;()</text>
<text text-anchor="start" x="8" y="-1138.5" font-family="Helvetica,sans-Serif" font-size="10.00">+ operator&gt;=()</text>
<text text-anchor="start" x="8" y="-1127.5" font-family="Helvetica,sans-Serif" font-size="10.00">+ operator&gt;=()</text>
<text text-anchor="start" x="8" y="-1116.5" font-family="Helvetica,sans-Serif" font-size="10.00">+ Invalid()</text>
<text text-anchor="start" x="8" y="-1105.5" font-family="Helvetica,sans-Serif" font-size="10.00">+ Max()</text>
</a>
</g>
</g>
<!-- Node4&#45;&gt;Node3 -->
<g id="edge3" class="edge"><title>Node4&#45;&gt;Node3</title>
<path fill="none" stroke="#404040" d="M44.5648,-1098.38C48.3662,-1080.25 53.6882,-1062.48 61,-1046 63.2052,-1041.03 66.0344,-1036.22 69.2394,-1031.65"/>
<polygon fill="none" stroke="#404040" points="69.3626,-1031.5 69.9118,-1024.31 76.7601,-1022.05 76.2109,-1029.24 69.3626,-1031.5"/>
<text text-anchor="middle" x="85.5" y="-1060.5" font-family="Helvetica,sans-Serif" font-size="10.00"> +elements</text>
</g>
<!-- Node5 -->
<g id="node5" class="node"><title>Node5</title>
<polygon fill="white" stroke="#bfbfbf" points="28.5,-1512.5 28.5,-1569.5 57.5,-1569.5 57.5,-1512.5 28.5,-1512.5"/>
<text text-anchor="middle" x="43" y="-1557.5" font-family="Helvetica,sans-Serif" font-size="10.00">int</text>
<polyline fill="none" stroke="#bfbfbf" points="28.5,-1550.5 57.5,-1550.5 "/>
<text text-anchor="middle" x="43" y="-1538.5" font-family="Helvetica,sans-Serif" font-size="10.00"> </text>
<polyline fill="none" stroke="#bfbfbf" points="28.5,-1531.5 57.5,-1531.5 "/>
<text text-anchor="middle" x="43" y="-1519.5" font-family="Helvetica,sans-Serif" font-size="10.00"> </text>
</g>
<!-- Node5&#45;&gt;Node4 -->
<g id="edge4" class="edge"><title>Node5&#45;&gt;Node4</title>
<path fill="none" stroke="#404040" d="M43,-1512.39C43,-1502.23 43,-1489.82 43,-1476.06"/>
<polygon fill="none" stroke="#404040" points="43.0001,-1475.65 39,-1469.65 43,-1463.65 47,-1469.65 43.0001,-1475.65"/>
<text text-anchor="middle" x="60.5" y="-1485.5" font-family="Helvetica,sans-Serif" font-size="10.00"> #m_idx</text>
</g>
<!-- Node6 -->
<g id="node6" class="node"><title>Node6</title>
<g id="a_node6"><a xlink:title="STL class. ">
<polygon fill="white" stroke="#bfbfbf" points="135.5,-1252.5 135.5,-1309.5 222.5,-1309.5 222.5,-1252.5 135.5,-1252.5"/>
<text text-anchor="middle" x="179" y="-1297.5" font-family="Helvetica,sans-Serif" font-size="10.00">std::vector&lt; T &gt;</text>
<polyline fill="none" stroke="#bfbfbf" points="135.5,-1290.5 222.5,-1290.5 "/>
<text text-anchor="middle" x="179" y="-1278.5" font-family="Helvetica,sans-Serif" font-size="10.00"> </text>
<polyline fill="none" stroke="#bfbfbf" points="135.5,-1271.5 222.5,-1271.5 "/>
<text text-anchor="middle" x="179" y="-1259.5" font-family="Helvetica,sans-Serif" font-size="10.00"> </text>
</a>
</g>
</g>
<!-- Node6&#45;&gt;Node3 -->
<g id="edge5" class="edge"><title>Node6&#45;&gt;Node3</title>
<path fill="none" stroke="orange" d="M163.714,-1242.98C148.246,-1203.43 125.324,-1138.5 116,-1080 112.966,-1060.96 112.596,-1039.41 113.041,-1022.05"/>
<polygon fill="orange" stroke="orange" points="160.536,-1244.47 167.473,-1252.47 167.044,-1241.89 160.536,-1244.47"/>
<text text-anchor="middle" x="152.5" y="-1060.5" font-family="Helvetica,sans-Serif" font-size="10.00"> &lt; Core::Index &gt;</text>
</g>
<!-- Node9 -->
<g id="node9" class="node"><title>Node9</title>
<polygon fill="white" stroke="#bfbfbf" points="225.5,-948.5 225.5,-1027.5 384.5,-1027.5 384.5,-948.5 225.5,-948.5"/>
<text text-anchor="start" x="233.5" y="-1015.5" font-family="Helvetica,sans-Serif" font-size="10.00">std::vector&lt; std::pair</text>
<text text-anchor="start" x="233.5" y="-1004.5" font-family="Helvetica,sans-Serif" font-size="10.00">&lt; const Ra::Engine::Entity</text>
<text text-anchor="middle" x="305" y="-993.5" font-family="Helvetica,sans-Serif" font-size="10.00"> *, Ra::Engine::Component * &gt; &gt;</text>
<polyline fill="none" stroke="#bfbfbf" points="225.5,-986.5 384.5,-986.5 "/>
<text text-anchor="middle" x="305" y="-974.5" font-family="Helvetica,sans-Serif" font-size="10.00"> </text>
<polyline fill="none" stroke="#bfbfbf" points="225.5,-967.5 384.5,-967.5 "/>
<text text-anchor="middle" x="305" y="-955.5" font-family="Helvetica,sans-Serif" font-size="10.00"> </text>
</g>
<!-- Node6&#45;&gt;Node9 -->
<g id="edge10" class="edge"><title>Node6&#45;&gt;Node9</title>
<path fill="none" stroke="orange" d="M174.032,-1242.26C169.548,-1192.92 168.728,-1105.76 208,-1046 212.72,-1038.82 218.683,-1032.42 225.322,-1026.75"/>
<polygon fill="orange" stroke="orange" points="170.577,-1242.88 175.063,-1252.48 177.542,-1242.18 170.577,-1242.88"/>
<text text-anchor="start" x="208" y="-1071.5" font-family="Helvetica,sans-Serif" font-size="10.00"> &lt; std::pair&lt; const</text>
<text text-anchor="start" x="208" y="-1060.5" font-family="Helvetica,sans-Serif" font-size="10.00"> Ra::Engine::Entity</text>
<text text-anchor="middle" x="279.5" y="-1049.5" font-family="Helvetica,sans-Serif" font-size="10.00"> *, Ra::Engine::Component * &gt; &gt;</text>
</g>
<!-- Node7 -->
<g id="node7" class="node"><title>Node7</title>
<polygon fill="white" stroke="#bfbfbf" points="164.5,-1512.5 164.5,-1569.5 193.5,-1569.5 193.5,-1512.5 164.5,-1512.5"/>
<text text-anchor="middle" x="179" y="-1557.5" font-family="Helvetica,sans-Serif" font-size="10.00">T</text>
<polyline fill="none" stroke="#bfbfbf" points="164.5,-1550.5 193.5,-1550.5 "/>
<text text-anchor="middle" x="179" y="-1538.5" font-family="Helvetica,sans-Serif" font-size="10.00"> </text>
<polyline fill="none" stroke="#bfbfbf" points="164.5,-1531.5 193.5,-1531.5 "/>
<text text-anchor="middle" x="179" y="-1519.5" font-family="Helvetica,sans-Serif" font-size="10.00"> </text>
</g>
<!-- Node7&#45;&gt;Node6 -->
<g id="edge6" class="edge"><title>Node7&#45;&gt;Node6</title>
<path fill="none" stroke="#404040" d="M179,-1512.39C179,-1466.63 179,-1374.91 179,-1322.04"/>
<polygon fill="none" stroke="#404040" points="179,-1321.8 175,-1315.8 179,-1309.8 183,-1315.8 179,-1321.8"/>
<text text-anchor="middle" x="203.5" y="-1485.5" font-family="Helvetica,sans-Serif" font-size="10.00"> +elements</text>
</g>
<!-- Node8 -->
<g id="node8" class="node"><title>Node8</title>
<g id="a_node8"><a xlink:href="classRa_1_1Engine_1_1System.html" target="_top" xlink:title="Systems are responsible of updating a specific subset of the components of each entity. ">
<polygon fill="white" stroke="black" points="237,-710 237,-844 377,-844 377,-710 237,-710"/>
<text text-anchor="middle" x="307" y="-832" font-family="Helvetica,sans-Serif" font-size="10.00">Ra::Engine::System</text>
<polyline fill="none" stroke="black" points="237,-825 377,-825 "/>
<text text-anchor="middle" x="307" y="-813" font-family="Helvetica,sans-Serif" font-size="10.00"> </text>
<polyline fill="none" stroke="black" points="237,-806 377,-806 "/>
<text text-anchor="start" x="245" y="-794" font-family="Helvetica,sans-Serif" font-size="10.00">+ System()</text>
<text text-anchor="start" x="245" y="-783" font-family="Helvetica,sans-Serif" font-size="10.00">+ ~System()</text>
<text text-anchor="start" x="245" y="-772" font-family="Helvetica,sans-Serif" font-size="10.00">+ handleAssetLoading()</text>
<text text-anchor="start" x="245" y="-761" font-family="Helvetica,sans-Serif" font-size="10.00">+ generateTasks()</text>
<text text-anchor="start" x="245" y="-750" font-family="Helvetica,sans-Serif" font-size="10.00">+ getEntityComponents()</text>
<text text-anchor="start" x="245" y="-739" font-family="Helvetica,sans-Serif" font-size="10.00"># registerComponent()</text>
<text text-anchor="start" x="245" y="-728" font-family="Helvetica,sans-Serif" font-size="10.00"># unregisterComponent()</text>
<text text-anchor="start" x="245" y="-717" font-family="Helvetica,sans-Serif" font-size="10.00"># unregisterAllComponents()</text>
</a>
</g>
</g>
<!-- Node8&#45;&gt;Node2 -->
<g id="edge7" class="edge"><title>Node8&#45;&gt;Node2</title>
<path fill="none" stroke="#404040" d="M325.386,-709.763C333.108,-681.944 342.343,-648.676 351.211,-616.726"/>
<polygon fill="none" stroke="#404040" points="351.249,-616.589 349,-609.738 354.459,-605.027 356.708,-611.878 351.249,-616.589"/>
<text text-anchor="middle" x="376.5" y="-627.5" font-family="Helvetica,sans-Serif" font-size="10.00"> #m_system</text>
</g>
<!-- Node9&#45;&gt;Node8 -->
<g id="edge8" class="edge"><title>Node9&#45;&gt;Node8</title>
<path fill="none" stroke="#404040" d="M305.371,-948.179C305.618,-922.437 305.95,-887.755 306.25,-856.416"/>
<polygon fill="none" stroke="#404040" points="306.252,-856.141 302.31,-850.103 306.367,-844.141 310.309,-850.179 306.252,-856.141"/>
<text text-anchor="middle" x="344" y="-921.5" font-family="Helvetica,sans-Serif" font-size="10.00"> #m_components</text>
</g>
<!-- Node10 -->
<g id="node10" class="node"><title>Node10</title>
<polygon fill="white" stroke="#bfbfbf" points="318.5,-1241.5 318.5,-1320.5 435.5,-1320.5 435.5,-1241.5 318.5,-1241.5"/>
<text text-anchor="start" x="326.5" y="-1308.5" font-family="Helvetica,sans-Serif" font-size="10.00">pair&lt; const Ra::Engine</text>
<text text-anchor="start" x="326.5" y="-1297.5" font-family="Helvetica,sans-Serif" font-size="10.00">::Entity *, Ra::Engine</text>
<text text-anchor="middle" x="377" y="-1286.5" font-family="Helvetica,sans-Serif" font-size="10.00">::Component * &gt;</text>
<polyline fill="none" stroke="#bfbfbf" points="318.5,-1279.5 435.5,-1279.5 "/>
<text text-anchor="middle" x="377" y="-1267.5" font-family="Helvetica,sans-Serif" font-size="10.00"> </text>
<polyline fill="none" stroke="#bfbfbf" points="318.5,-1260.5 435.5,-1260.5 "/>
<text text-anchor="middle" x="377" y="-1248.5" font-family="Helvetica,sans-Serif" font-size="10.00"> </text>
</g>
<!-- Node10&#45;&gt;Node9 -->
<g id="edge9" class="edge"><title>Node10&#45;&gt;Node9</title>
<path fill="none" stroke="#404040" d="M380.444,-1241.35C383.157,-1193.44 382.696,-1110.27 355,-1046 353.792,-1043.2 352.393,-1040.43 350.846,-1037.73"/>
<polygon fill="none" stroke="#404040" points="350.798,-1037.65 344.172,-1034.81 344.249,-1027.6 350.876,-1030.44 350.798,-1037.65"/>
<text text-anchor="middle" x="390.5" y="-1060.5" font-family="Helvetica,sans-Serif" font-size="10.00"> +elements</text>
</g>
<!-- Node11 -->
<g id="node11" class="node"><title>Node11</title>
<g id="a_node11"><a xlink:href="classRa_1_1Engine_1_1Entity.html" target="_top" xlink:title="An entity is an scene element. It ties together components with a transform. ">
<polygon fill="white" stroke="black" points="398.5,-655 398.5,-899 529.5,-899 529.5,-655 398.5,-655"/>
<text text-anchor="middle" x="464" y="-887" font-family="Helvetica,sans-Serif" font-size="10.00">Ra::Engine::Entity</text>
<polyline fill="none" stroke="black" points="398.5,-880 529.5,-880 "/>
<text text-anchor="middle" x="464" y="-868" font-family="Helvetica,sans-Serif" font-size="10.00"> </text>
<polyline fill="none" stroke="black" points="398.5,-861 529.5,-861 "/>
<text text-anchor="start" x="406.5" y="-849" font-family="Helvetica,sans-Serif" font-size="10.00">+ Entity()</text>
<text text-anchor="start" x="406.5" y="-838" font-family="Helvetica,sans-Serif" font-size="10.00">+ Entity()</text>
<text text-anchor="start" x="406.5" y="-827" font-family="Helvetica,sans-Serif" font-size="10.00">+ operator=()</text>
<text text-anchor="start" x="406.5" y="-816" font-family="Helvetica,sans-Serif" font-size="10.00">+ ~Entity()</text>
<text text-anchor="start" x="406.5" y="-805" font-family="Helvetica,sans-Serif" font-size="10.00">+ getName()</text>
<text text-anchor="start" x="406.5" y="-794" font-family="Helvetica,sans-Serif" font-size="10.00">+ rename()</text>
<text text-anchor="start" x="406.5" y="-783" font-family="Helvetica,sans-Serif" font-size="10.00">+ setTransform()</text>
<text text-anchor="start" x="406.5" y="-772" font-family="Helvetica,sans-Serif" font-size="10.00">+ setTransform()</text>
<text text-anchor="start" x="406.5" y="-761" font-family="Helvetica,sans-Serif" font-size="10.00">+ getTransform()</text>
<text text-anchor="start" x="406.5" y="-750" font-family="Helvetica,sans-Serif" font-size="10.00">+ getTransformAsMatrix()</text>
<text text-anchor="start" x="406.5" y="-739" font-family="Helvetica,sans-Serif" font-size="10.00">+ swapTransformBuffers()</text>
<text text-anchor="start" x="406.5" y="-728" font-family="Helvetica,sans-Serif" font-size="10.00">+ addComponent()</text>
<text text-anchor="start" x="406.5" y="-717" font-family="Helvetica,sans-Serif" font-size="10.00">+ removeComponent()</text>
<text text-anchor="start" x="406.5" y="-706" font-family="Helvetica,sans-Serif" font-size="10.00">+ getComponent()</text>
<text text-anchor="start" x="406.5" y="-695" font-family="Helvetica,sans-Serif" font-size="10.00">+ getComponent()</text>
<text text-anchor="start" x="406.5" y="-684" font-family="Helvetica,sans-Serif" font-size="10.00">+ getComponents()</text>
<text text-anchor="start" x="406.5" y="-673" font-family="Helvetica,sans-Serif" font-size="10.00">+ getNumComponents()</text>
<text text-anchor="start" x="406.5" y="-662" font-family="Helvetica,sans-Serif" font-size="10.00">+ rayCastQuery()</text>
</a>
</g>
</g>
<!-- Node11&#45;&gt;Node2 -->
<g id="edge11" class="edge"><title>Node11&#45;&gt;Node2</title>
<path fill="none" stroke="#404040" d="M429.924,-654.792C426.411,-642.297 422.84,-629.595 419.324,-617.091"/>
<polygon fill="none" stroke="#404040" points="419.223,-616.728 413.748,-612.034 415.975,-605.176 421.449,-609.869 419.223,-616.728"/>
<text text-anchor="middle" x="448" y="-627.5" font-family="Helvetica,sans-Serif" font-size="10.00"> #m_entity</text>
</g>
<!-- Node12 -->
<g id="node12" class="node"><title>Node12</title>
<g id="a_node12"><a xlink:href="classRa_1_1Core_1_1IndexedObject.html" target="_top" xlink:title="{Ra::Core::IndexedObject\n||+ IndexedObject()\l+ IndexedObject()\l+ ~IndexedObject()\l}">
<polygon fill="white" stroke="black" points="402.5,-948.5 402.5,-1027.5 527.5,-1027.5 527.5,-948.5 402.5,-948.5"/>
<text text-anchor="middle" x="465" y="-1015.5" font-family="Helvetica,sans-Serif" font-size="10.00">Ra::Core::IndexedObject</text>
<polyline fill="none" stroke="black" points="402.5,-1008.5 527.5,-1008.5 "/>
<text text-anchor="middle" x="465" y="-996.5" font-family="Helvetica,sans-Serif" font-size="10.00"> </text>
<polyline fill="none" stroke="black" points="402.5,-989.5 527.5,-989.5 "/>
<text text-anchor="start" x="410.5" y="-977.5" font-family="Helvetica,sans-Serif" font-size="10.00">+ IndexedObject()</text>
<text text-anchor="start" x="410.5" y="-966.5" font-family="Helvetica,sans-Serif" font-size="10.00">+ IndexedObject()</text>
<text text-anchor="start" x="410.5" y="-955.5" font-family="Helvetica,sans-Serif" font-size="10.00">+ ~IndexedObject()</text>
</a>
</g>
</g>
<!-- Node12&#45;&gt;Node11 -->
<g id="edge12" class="edge"><title>Node12&#45;&gt;Node11</title>
<path fill="none" stroke="midnightblue" d="M464.766,-938.07C464.709,-926.141 464.645,-912.849 464.58,-899.166"/>
<polygon fill="none" stroke="midnightblue" points="461.266,-938.195 464.814,-948.179 468.266,-938.162 461.266,-938.195"/>
</g>
<!-- Node13 -->
<g id="node13" class="node"><title>Node13</title>
<polygon fill="white" stroke="#bfbfbf" points="454,-1252.5 454,-1309.5 486,-1309.5 486,-1252.5 454,-1252.5"/>
<text text-anchor="middle" x="470" y="-1297.5" font-family="Helvetica,sans-Serif" font-size="10.00">uint</text>
<polyline fill="none" stroke="#bfbfbf" points="454,-1290.5 486,-1290.5 "/>
<text text-anchor="middle" x="470" y="-1278.5" font-family="Helvetica,sans-Serif" font-size="10.00"> </text>
<polyline fill="none" stroke="#bfbfbf" points="454,-1271.5 486,-1271.5 "/>
<text text-anchor="middle" x="470" y="-1259.5" font-family="Helvetica,sans-Serif" font-size="10.00"> </text>
</g>
<!-- Node13&#45;&gt;Node12 -->
<g id="edge13" class="edge"><title>Node13&#45;&gt;Node12</title>
<path fill="none" stroke="#404040" d="M469.525,-1252.36C468.688,-1203.65 466.939,-1101.84 465.877,-1040.05"/>
<polygon fill="none" stroke="#404040" points="465.874,-1039.87 461.772,-1033.94 465.668,-1027.88 469.771,-1033.81 465.874,-1039.87"/>
<text text-anchor="middle" x="478" y="-1060.5" font-family="Helvetica,sans-Serif" font-size="10.00"> +idx</text>
</g>
<!-- Node14 -->
<g id="node14" class="node"><title>Node14</title>
<g id="a_node14"><a xlink:title="STL class. ">
<polygon fill="white" stroke="#bfbfbf" points="556,-748.5 556,-805.5 616,-805.5 616,-748.5 556,-748.5"/>
<text text-anchor="middle" x="586" y="-793.5" font-family="Helvetica,sans-Serif" font-size="10.00">std::string</text>
<polyline fill="none" stroke="#bfbfbf" points="556,-786.5 616,-786.5 "/>
<text text-anchor="middle" x="586" y="-774.5" font-family="Helvetica,sans-Serif" font-size="10.00"> </text>
<polyline fill="none" stroke="#bfbfbf" points="556,-767.5 616,-767.5 "/>
<text text-anchor="middle" x="586" y="-755.5" font-family="Helvetica,sans-Serif" font-size="10.00"> </text>
</a>
</g>
</g>
<!-- Node14&#45;&gt;Node2 -->
<g id="edge14" class="edge"><title>Node14&#45;&gt;Node2</title>
<path fill="none" stroke="#404040" d="M578.527,-748.376C570.805,-722.65 557.176,-683.884 538,-654 518.66,-623.861 493.044,-594.532 468.314,-569.441"/>
<polygon fill="none" stroke="#404040" points="468.103,-569.23 461.032,-567.818 459.615,-560.748 466.687,-562.16 468.103,-569.23"/>
<text text-anchor="middle" x="548" y="-627.5" font-family="Helvetica,sans-Serif" font-size="10.00"> #m_name</text>
</g>
<!-- Node15 -->
<g id="node15" class="node"><title>Node15</title>
<g id="a_node15"><a xlink:title="STL class. ">
<polygon fill="white" stroke="#bfbfbf" points="545.5,-954 545.5,-1022 640.5,-1022 640.5,-954 545.5,-954"/>
<text text-anchor="start" x="553.5" y="-1010" font-family="Helvetica,sans-Serif" font-size="10.00">std::basic_string&lt;</text>
<text text-anchor="middle" x="593" y="-999" font-family="Helvetica,sans-Serif" font-size="10.00"> char &gt;</text>
<polyline fill="none" stroke="#bfbfbf" points="545.5,-992 640.5,-992 "/>
<text text-anchor="middle" x="593" y="-980" font-family="Helvetica,sans-Serif" font-size="10.00"> </text>
<polyline fill="none" stroke="#bfbfbf" points="545.5,-973 640.5,-973 "/>
<text text-anchor="middle" x="593" y="-961" font-family="Helvetica,sans-Serif" font-size="10.00"> </text>
</a>
</g>
</g>
<!-- Node15&#45;&gt;Node14 -->
<g id="edge15" class="edge"><title>Node15&#45;&gt;Node14</title>
<path fill="none" stroke="midnightblue" d="M591.553,-943.794C590.163,-902.309 588.106,-840.892 586.925,-805.622"/>
<polygon fill="none" stroke="midnightblue" points="588.058,-944.006 591.891,-953.883 595.054,-943.772 588.058,-944.006"/>
</g>
</g>
</svg>
