<?xml version="1.0" encoding="UTF-8" standalone="no"?>
<!DOCTYPE svg PUBLIC "-//W3C//DTD SVG 1.1//EN"
 "http://www.w3.org/Graphics/SVG/1.1/DTD/svg11.dtd">
<!-- Generated by graphviz version 2.36.0 (20140111.2315)
 -->
<!-- Title: Ra::Engine::RenderParameters::TParameter&lt; T &gt; Pages: 1 -->
<svg width="160pt" height="248pt"
 viewBox="0.00 0.00 160.00 248.00" xmlns="http://www.w3.org/2000/svg" xmlns:xlink="http://www.w3.org/1999/xlink">
<g id="graph0" class="graph" transform="scale(1 1) rotate(0) translate(4 244)">
<title>Ra::Engine::RenderParameters::TParameter&lt; T &gt;</title>
<polygon fill="white" stroke="none" points="-4,4 -4,-244 156,-244 156,4 -4,4"/>
<!-- Node1 -->
<g id="node1" class="node"><title>Node1</title>
<polygon fill="#bfbfbf" stroke="black" points="-0.5,-0.5 -0.5,-101.5 152.5,-101.5 152.5,-0.5 -0.5,-0.5"/>
<text text-anchor="start" x="7.5" y="-89.5" font-family="Helvetica,sans-Serif" font-size="10.00">Ra::Engine::RenderParameters</text>
<text text-anchor="middle" x="76" y="-78.5" font-family="Helvetica,sans-Serif" font-size="10.00">::TParameter&lt; T &gt;</text>
<polyline fill="none" stroke="black" points="-0.5,-71.5 152.5,-71.5 "/>
<text text-anchor="start" x="7.5" y="-59.5" font-family="Helvetica,sans-Serif" font-size="10.00">+ m_value</text>
<polyline fill="none" stroke="black" points="-0.5,-52.5 152.5,-52.5 "/>
<text text-anchor="start" x="7.5" y="-40.5" font-family="Helvetica,sans-Serif" font-size="10.00">+ TParameter()</text>
<text text-anchor="start" x="7.5" y="-29.5" font-family="Helvetica,sans-Serif" font-size="10.00">+ TParameter()</text>
<text text-anchor="start" x="7.5" y="-18.5" font-family="Helvetica,sans-Serif" font-size="10.00">+ ~TParameter()</text>
<text text-anchor="start" x="7.5" y="-7.5" font-family="Helvetica,sans-Serif" font-size="10.00">+ bind()</text>
</g>
<!-- Node2 -->
<g id="node2" class="node"><title>Node2</title>
<g id="a_node2"><a xlink:href="classRa_1_1Engine_1_1RenderParameters_1_1Parameter.html" target="_top" xlink:title="{Ra::Engine::RenderParameters\l::Parameter\n|+ m_name\l|+ Parameter()\l+ Parameter()\l+ ~Parameter()\l+ bind()\l}">
<polygon fill="white" stroke="black" points="-0.5,-138.5 -0.5,-239.5 152.5,-239.5 152.5,-138.5 -0.5,-138.5"/>
<text text-anchor="start" x="7.5" y="-227.5" font-family="Helvetica,sans-Serif" font-size="10.00">Ra::Engine::RenderParameters</text>
<text text-anchor="middle" x="76" y="-216.5" font-family="Helvetica,sans-Serif" font-size="10.00">::Parameter</text>
<polyline fill="none" stroke="black" points="-0.5,-209.5 152.5,-209.5 "/>
<text text-anchor="start" x="7.5" y="-197.5" font-family="Helvetica,sans-Serif" font-size="10.00">+ m_name</text>
<polyline fill="none" stroke="black" points="-0.5,-190.5 152.5,-190.5 "/>
<text text-anchor="start" x="7.5" y="-178.5" font-family="Helvetica,sans-Serif" font-size="10.00">+ Parameter()</text>
<text text-anchor="start" x="7.5" y="-167.5" font-family="Helvetica,sans-Serif" font-size="10.00">+ Parameter()</text>
<text text-anchor="start" x="7.5" y="-156.5" font-family="Helvetica,sans-Serif" font-size="10.00">+ ~Parameter()</text>
<text text-anchor="start" x="7.5" y="-145.5" font-family="Helvetica,sans-Serif" font-size="10.00">+ bind()</text>
</a>
</g>
</g>
<!-- Node2&#45;&gt;Node1 -->
<g id="edge1" class="edge"><title>Node2&#45;&gt;Node1</title>
<path fill="none" stroke="midnightblue" d="M76,-128C76,-119.271 76,-110.363 76,-101.863"/>
<polygon fill="none" stroke="midnightblue" points="72.5001,-128.131 76,-138.131 79.5001,-128.131 72.5001,-128.131"/>
</g>
</g>
</svg>
