<?xml version="1.0" encoding="UTF-8" standalone="no"?>
<!DOCTYPE svg PUBLIC "-//W3C//DTD SVG 1.1//EN"
 "http://www.w3.org/Graphics/SVG/1.1/DTD/svg11.dtd">
<!-- Generated by graphviz version 2.36.0 (20140111.2315)
 -->
<!-- Title: Ra::Engine::RenderObject::render Pages: 1 -->
<svg width="824pt" height="260pt"
 viewBox="0.00 0.00 824.00 260.00" xmlns="http://www.w3.org/2000/svg" xmlns:xlink="http://www.w3.org/1999/xlink">
<g id="graph0" class="graph" transform="scale(1 1) rotate(0) translate(4 256)">
<title>Ra::Engine::RenderObject::render</title>
<polygon fill="white" stroke="none" points="-4,4 -4,-256 820,-256 820,4 -4,4"/>
<!-- Node1 -->
<g id="node1" class="node"><title>Node1</title>
<polygon fill="#bfbfbf" stroke="black" points="0.5,-74 0.5,-104 131.5,-104 131.5,-74 0.5,-74"/>
<text text-anchor="start" x="8.5" y="-92" font-family="Helvetica,sans-Serif" font-size="10.00">Ra::Engine::RenderObject</text>
<text text-anchor="middle" x="66" y="-81" font-family="Helvetica,sans-Serif" font-size="10.00">::render</text>
</g>
<!-- Node2 -->
<g id="node2" class="node"><title>Node2</title>
<g id="a_node2"><a xlink:href="classRa_1_1Engine_1_1RenderObject.html#aea46f9cc24f70cbfaa270a8edbcbbe25" target="_top" xlink:title="Ra::Engine::RenderObject\l::render">
<polygon fill="white" stroke="black" points="168.5,-99 168.5,-129 299.5,-129 299.5,-99 168.5,-99"/>
<text text-anchor="start" x="176.5" y="-117" font-family="Helvetica,sans-Serif" font-size="10.00">Ra::Engine::RenderObject</text>
<text text-anchor="middle" x="234" y="-106" font-family="Helvetica,sans-Serif" font-size="10.00">::render</text>
</a>
</g>
</g>
<!-- Node1&#45;&gt;Node2 -->
<g id="edge1" class="edge"><title>Node1&#45;&gt;Node2</title>
<path fill="none" stroke="midnightblue" d="M131.655,-98.7372C140.386,-100.052 149.402,-101.41 158.29,-102.748"/>
<polygon fill="midnightblue" stroke="midnightblue" points="157.838,-106.22 168.248,-104.248 158.881,-99.2979 157.838,-106.22"/>
</g>
<!-- Node11 -->
<g id="node11" class="node"><title>Node11</title>
<g id="a_node11"><a xlink:href="classRa_1_1Engine_1_1RenderObject.html#acc91aff99b91e06143b28940ec49d0e0" target="_top" xlink:title="Ra::Engine::RenderObject\l::getRenderTechnique">
<polygon fill="white" stroke="black" points="168.5,-50 168.5,-80 299.5,-80 299.5,-50 168.5,-50"/>
<text text-anchor="start" x="176.5" y="-68" font-family="Helvetica,sans-Serif" font-size="10.00">Ra::Engine::RenderObject</text>
<text text-anchor="middle" x="234" y="-57" font-family="Helvetica,sans-Serif" font-size="10.00">::getRenderTechnique</text>
</a>
</g>
</g>
<!-- Node1&#45;&gt;Node11 -->
<g id="edge10" class="edge"><title>Node1&#45;&gt;Node11</title>
<path fill="none" stroke="midnightblue" d="M131.655,-79.6523C140.386,-78.39 149.402,-77.0865 158.29,-75.8015"/>
<polygon fill="midnightblue" stroke="midnightblue" points="158.852,-79.2567 168.248,-74.3617 157.85,-72.3287 158.852,-79.2567"/>
</g>
<!-- Node3 -->
<g id="node3" class="node"><title>Node3</title>
<g id="a_node3"><a xlink:href="classRa_1_1Engine_1_1RenderObject.html#a0c9fad6464792d18ca873404fd657567" target="_top" xlink:title="Ra::Engine::RenderObject\l::getTransformAsMatrix">
<polygon fill="white" stroke="black" points="347.5,-197 347.5,-227 478.5,-227 478.5,-197 347.5,-197"/>
<text text-anchor="start" x="355.5" y="-215" font-family="Helvetica,sans-Serif" font-size="10.00">Ra::Engine::RenderObject</text>
<text text-anchor="middle" x="413" y="-204" font-family="Helvetica,sans-Serif" font-size="10.00">::getTransformAsMatrix</text>
</a>
</g>
</g>
<!-- Node2&#45;&gt;Node3 -->
<g id="edge2" class="edge"><title>Node2&#45;&gt;Node3</title>
<path fill="none" stroke="midnightblue" d="M252.512,-129.259C271.833,-145.45 304.395,-170.873 336,-187 340.334,-189.212 344.905,-191.286 349.567,-193.219"/>
<polygon fill="midnightblue" stroke="midnightblue" points="348.63,-196.611 359.218,-196.989 351.177,-190.09 348.63,-196.611"/>
</g>
<!-- Node7 -->
<g id="node7" class="node"><title>Node7</title>
<g id="a_node7"><a xlink:href="classRa_1_1Engine_1_1ShaderProgram.html#a63faeab38c95dbcb4514a94c1e785890" target="_top" xlink:title="Ra::Engine::ShaderProgram\l::bind">
<polygon fill="white" stroke="black" points="343.5,-148 343.5,-178 482.5,-178 482.5,-148 343.5,-148"/>
<text text-anchor="start" x="351.5" y="-166" font-family="Helvetica,sans-Serif" font-size="10.00">Ra::Engine::ShaderProgram</text>
<text text-anchor="middle" x="413" y="-155" font-family="Helvetica,sans-Serif" font-size="10.00">::bind</text>
</a>
</g>
</g>
<!-- Node2&#45;&gt;Node7 -->
<g id="edge6" class="edge"><title>Node2&#45;&gt;Node7</title>
<path fill="none" stroke="midnightblue" d="M289.55,-129.101C307.974,-134.202 328.712,-139.943 347.812,-145.23"/>
<polygon fill="midnightblue" stroke="midnightblue" points="347.059,-148.653 357.63,-147.948 348.926,-141.907 347.059,-148.653"/>
</g>
<!-- Node8 -->
<g id="node8" class="node"><title>Node8</title>
<g id="a_node8"><a xlink:href="classRa_1_1Engine_1_1ShaderProgram.html#a5f7ae2880276f421c378810e3da65c4c" target="_top" xlink:title="Ra::Engine::ShaderProgram\l::setUniform">
<polygon fill="white" stroke="black" points="343.5,-99 343.5,-129 482.5,-129 482.5,-99 343.5,-99"/>
<text text-anchor="start" x="351.5" y="-117" font-family="Helvetica,sans-Serif" font-size="10.00">Ra::Engine::ShaderProgram</text>
<text text-anchor="middle" x="413" y="-106" font-family="Helvetica,sans-Serif" font-size="10.00">::setUniform</text>
</a>
</g>
</g>
<!-- Node2&#45;&gt;Node8 -->
<g id="edge7" class="edge"><title>Node2&#45;&gt;Node8</title>
<path fill="none" stroke="midnightblue" d="M299.652,-114C310.54,-114 321.948,-114 333.148,-114"/>
<polygon fill="midnightblue" stroke="midnightblue" points="333.353,-117.5 343.353,-114 333.353,-110.5 333.353,-117.5"/>
</g>
<!-- Node9 -->
<g id="node9" class="node"><title>Node9</title>
<g id="a_node9"><a xlink:href="classRa_1_1Engine_1_1RenderParameters.html#a0e08655c1c564da49146bcf7b382a1e4" target="_top" xlink:title="Ra::Engine::RenderParameters\l::bind">
<polygon fill="white" stroke="black" points="336.5,-50 336.5,-80 489.5,-80 489.5,-50 336.5,-50"/>
<text text-anchor="start" x="344.5" y="-68" font-family="Helvetica,sans-Serif" font-size="10.00">Ra::Engine::RenderParameters</text>
<text text-anchor="middle" x="413" y="-57" font-family="Helvetica,sans-Serif" font-size="10.00">::bind</text>
</a>
</g>
</g>
<!-- Node2&#45;&gt;Node9 -->
<g id="edge8" class="edge"><title>Node2&#45;&gt;Node9</title>
<path fill="none" stroke="midnightblue" d="M289.55,-98.8986C307.974,-93.7981 328.712,-88.0571 347.812,-82.7695"/>
<polygon fill="midnightblue" stroke="midnightblue" points="348.926,-86.0928 357.63,-80.0516 347.059,-79.3465 348.926,-86.0928"/>
</g>
<!-- Node10 -->
<g id="node10" class="node"><title>Node10</title>
<g id="a_node10"><a xlink:href="classRa_1_1Engine_1_1RenderObject.html#a2d4f1d69544319def1b53ae6a66def9f" target="_top" xlink:title="Ra::Engine::RenderObject\l::getMesh">
<polygon fill="white" stroke="black" points="347.5,-1 347.5,-31 478.5,-31 478.5,-1 347.5,-1"/>
<text text-anchor="start" x="355.5" y="-19" font-family="Helvetica,sans-Serif" font-size="10.00">Ra::Engine::RenderObject</text>
<text text-anchor="middle" x="413" y="-8" font-family="Helvetica,sans-Serif" font-size="10.00">::getMesh</text>
</a>
</g>
</g>
<!-- Node2&#45;&gt;Node10 -->
<g id="edge9" class="edge"><title>Node2&#45;&gt;Node10</title>
<path fill="none" stroke="midnightblue" d="M283.489,-98.8974C289.325,-96.0734 294.984,-92.791 300,-89 321.273,-72.9205 314.336,-56.5495 336,-41 338.652,-39.0967 341.457,-37.3321 344.366,-35.6969"/>
<polygon fill="midnightblue" stroke="midnightblue" points="345.994,-38.7955 353.349,-31.1697 342.844,-32.5444 345.994,-38.7955"/>
</g>
<!-- Node4 -->
<g id="node4" class="node"><title>Node4</title>
<g id="a_node4"><a xlink:href="classRa_1_1Engine_1_1RenderObject.html#a46deaf8ca7b8eed5f2cbfaca72354d1a" target="_top" xlink:title="Ra::Engine::RenderObject\l::getTransform">
<polygon fill="white" stroke="black" points="526.5,-197 526.5,-227 657.5,-227 657.5,-197 526.5,-197"/>
<text text-anchor="start" x="534.5" y="-215" font-family="Helvetica,sans-Serif" font-size="10.00">Ra::Engine::RenderObject</text>
<text text-anchor="middle" x="592" y="-204" font-family="Helvetica,sans-Serif" font-size="10.00">::getTransform</text>
</a>
</g>
</g>
<!-- Node3&#45;&gt;Node4 -->
<g id="edge3" class="edge"><title>Node3&#45;&gt;Node4</title>
<path fill="none" stroke="midnightblue" d="M478.652,-212C490.765,-212 503.522,-212 515.92,-212"/>
<polygon fill="midnightblue" stroke="midnightblue" points="516.227,-215.5 526.227,-212 516.227,-208.5 516.227,-215.5"/>
</g>
<!-- Node5 -->
<g id="node5" class="node"><title>Node5</title>
<g id="a_node5"><a xlink:href="classRa_1_1Engine_1_1Component.html#a207c1dc2e97856c22e0767fb77162933" target="_top" xlink:title="Return the entity the component belongs to. ">
<polygon fill="white" stroke="black" points="694,-222 694,-252 816,-252 816,-222 694,-222"/>
<text text-anchor="start" x="702" y="-240" font-family="Helvetica,sans-Serif" font-size="10.00">Ra::Engine::Component</text>
<text text-anchor="middle" x="755" y="-229" font-family="Helvetica,sans-Serif" font-size="10.00">::getEntity</text>
</a>
</g>
</g>
<!-- Node4&#45;&gt;Node5 -->
<g id="edge4" class="edge"><title>Node4&#45;&gt;Node5</title>
<path fill="none" stroke="midnightblue" d="M657.557,-222.024C666.172,-223.362 675.04,-224.739 683.745,-226.091"/>
<polygon fill="midnightblue" stroke="midnightblue" points="683.447,-229.586 693.865,-227.662 684.521,-222.669 683.447,-229.586"/>
</g>
<!-- Node6 -->
<g id="node6" class="node"><title>Node6</title>
<g id="a_node6"><a xlink:href="classRa_1_1Engine_1_1Entity.html#adf0ef19e4b56e1d213b9898b60fe0e74" target="_top" xlink:title="Ra::Engine::Entity\l::getTransform">
<polygon fill="white" stroke="black" points="706.5,-173 706.5,-203 803.5,-203 803.5,-173 706.5,-173"/>
<text text-anchor="start" x="714.5" y="-191" font-family="Helvetica,sans-Serif" font-size="10.00">Ra::Engine::Entity</text>
<text text-anchor="middle" x="755" y="-180" font-family="Helvetica,sans-Serif" font-size="10.00">::getTransform</text>
</a>
</g>
</g>
<!-- Node4&#45;&gt;Node6 -->
<g id="edge5" class="edge"><title>Node4&#45;&gt;Node6</title>
<path fill="none" stroke="midnightblue" d="M657.557,-202.377C670.397,-200.463 683.8,-198.465 696.389,-196.588"/>
<polygon fill="midnightblue" stroke="midnightblue" points="696.909,-200.049 706.284,-195.113 695.877,-193.126 696.909,-200.049"/>
</g>
</g>
</svg>
