<?xml version="1.0" encoding="UTF-8" standalone="no"?>
<!DOCTYPE svg PUBLIC "-//W3C//DTD SVG 1.1//EN"
 "http://www.w3.org/Graphics/SVG/1.1/DTD/svg11.dtd">
<!-- Generated by graphviz version 2.36.0 (20140111.2315)
 -->
<!-- Title: SkinningPlugin::SkinningComponent Pages: 1 -->
<svg width="649pt" height="1446pt"
 viewBox="0.00 0.00 649.00 1446.00" xmlns="http://www.w3.org/2000/svg" xmlns:xlink="http://www.w3.org/1999/xlink">
<g id="graph0" class="graph" transform="scale(1 1) rotate(0) translate(4 1442)">
<title>SkinningPlugin::SkinningComponent</title>
<polygon fill="white" stroke="none" points="-4,4 -4,-1442 645,-1442 645,4 -4,4"/>
<!-- Node1 -->
<g id="node1" class="node"><title>Node1</title>
<polygon fill="#bfbfbf" stroke="black" points="320,-0.5 320,-211.5 450,-211.5 450,-0.5 320,-0.5"/>
<text text-anchor="start" x="328" y="-199.5" font-family="Helvetica,sans-Serif" font-size="10.00">SkinningPlugin::Skinning</text>
<text text-anchor="middle" x="385" y="-188.5" font-family="Helvetica,sans-Serif" font-size="10.00">Component</text>
<polyline fill="none" stroke="black" points="320,-181.5 450,-181.5 "/>
<text text-anchor="middle" x="385" y="-169.5" font-family="Helvetica,sans-Serif" font-size="10.00"> </text>
<polyline fill="none" stroke="black" points="320,-162.5 450,-162.5 "/>
<text text-anchor="start" x="328" y="-150.5" font-family="Helvetica,sans-Serif" font-size="10.00">+ SkinningComponent()</text>
<text text-anchor="start" x="328" y="-139.5" font-family="Helvetica,sans-Serif" font-size="10.00">+ ~SkinningComponent()</text>
<text text-anchor="start" x="328" y="-128.5" font-family="Helvetica,sans-Serif" font-size="10.00">+ initialize()</text>
<text text-anchor="start" x="328" y="-117.5" font-family="Helvetica,sans-Serif" font-size="10.00">+ skin()</text>
<text text-anchor="start" x="328" y="-106.5" font-family="Helvetica,sans-Serif" font-size="10.00">+ endSkinning()</text>
<text text-anchor="start" x="328" y="-95.5" font-family="Helvetica,sans-Serif" font-size="10.00">+ setSkinningType()</text>
<text text-anchor="start" x="328" y="-84.5" font-family="Helvetica,sans-Serif" font-size="10.00">+ getSkinningType()</text>
<text text-anchor="start" x="328" y="-73.5" font-family="Helvetica,sans-Serif" font-size="10.00">+ handleWeightsLoading()</text>
<text text-anchor="start" x="328" y="-62.5" font-family="Helvetica,sans-Serif" font-size="10.00">+ getRefData()</text>
<text text-anchor="start" x="328" y="-51.5" font-family="Helvetica,sans-Serif" font-size="10.00">+ getFrameData()</text>
<text text-anchor="start" x="328" y="-40.5" font-family="Helvetica,sans-Serif" font-size="10.00">+ getDQ()</text>
<text text-anchor="start" x="328" y="-29.5" font-family="Helvetica,sans-Serif" font-size="10.00">+ setupIO()</text>
<text text-anchor="start" x="328" y="-18.5" font-family="Helvetica,sans-Serif" font-size="10.00">+ setupSkinningType()</text>
<text text-anchor="start" x="328" y="-7.5" font-family="Helvetica,sans-Serif" font-size="10.00">+ setContentsName()</text>
</g>
<!-- Node2 -->
<g id="node2" class="node"><title>Node2</title>
<g id="a_node2"><a xlink:href="classRa_1_1Engine_1_1Component.html" target="_top" xlink:title="A component is an element that can be updated by a system. ">
<polygon fill="white" stroke="black" points="310.5,-251 310.5,-473 459.5,-473 459.5,-251 310.5,-251"/>
<text text-anchor="middle" x="385" y="-461" font-family="Helvetica,sans-Serif" font-size="10.00">Ra::Engine::Component</text>
<polyline fill="none" stroke="black" points="310.5,-454 459.5,-454 "/>
<text text-anchor="middle" x="385" y="-442" font-family="Helvetica,sans-Serif" font-size="10.00"> </text>
<polyline fill="none" stroke="black" points="310.5,-435 459.5,-435 "/>
<text text-anchor="start" x="318.5" y="-423" font-family="Helvetica,sans-Serif" font-size="10.00">+ Component()</text>
<text text-anchor="start" x="318.5" y="-412" font-family="Helvetica,sans-Serif" font-size="10.00">+ ~Component()</text>
<text text-anchor="start" x="318.5" y="-401" font-family="Helvetica,sans-Serif" font-size="10.00">+ initialize()</text>
<text text-anchor="start" x="318.5" y="-390" font-family="Helvetica,sans-Serif" font-size="10.00">+ setEntity()</text>
<text text-anchor="start" x="318.5" y="-379" font-family="Helvetica,sans-Serif" font-size="10.00">+ getEntity()</text>
<text text-anchor="start" x="318.5" y="-368" font-family="Helvetica,sans-Serif" font-size="10.00">+ getName()</text>
<text text-anchor="start" x="318.5" y="-357" font-family="Helvetica,sans-Serif" font-size="10.00">+ setSystem()</text>
<text text-anchor="start" x="318.5" y="-346" font-family="Helvetica,sans-Serif" font-size="10.00">+ getSystem()</text>
<text text-anchor="start" x="318.5" y="-335" font-family="Helvetica,sans-Serif" font-size="10.00">+ addRenderObject()</text>
<text text-anchor="start" x="318.5" y="-324" font-family="Helvetica,sans-Serif" font-size="10.00">+ removeRenderObject()</text>
<text text-anchor="start" x="318.5" y="-313" font-family="Helvetica,sans-Serif" font-size="10.00">+ rayCastQuery()</text>
<text text-anchor="start" x="318.5" y="-302" font-family="Helvetica,sans-Serif" font-size="10.00">+ canEdit()</text>
<text text-anchor="start" x="318.5" y="-291" font-family="Helvetica,sans-Serif" font-size="10.00">+ getTransform()</text>
<text text-anchor="start" x="318.5" y="-280" font-family="Helvetica,sans-Serif" font-size="10.00">+ setTransform()</text>
<text text-anchor="start" x="318.5" y="-269" font-family="Helvetica,sans-Serif" font-size="10.00">+ notifyRenderObjectExpired()</text>
<text text-anchor="start" x="318.5" y="-258" font-family="Helvetica,sans-Serif" font-size="10.00"># getRoMgr()</text>
</a>
</g>
</g>
<!-- Node2&#45;&gt;Node1 -->
<g id="edge1" class="edge"><title>Node2&#45;&gt;Node1</title>
<path fill="none" stroke="midnightblue" d="M385,-240.618C385,-230.916 385,-221.163 385,-211.585"/>
<polygon fill="none" stroke="midnightblue" points="381.5,-240.7 385,-250.7 388.5,-240.7 381.5,-240.7"/>
</g>
<!-- Node3 -->
<g id="node3" class="node"><title>Node3</title>
<polygon fill="white" stroke="#bfbfbf" points="65.5,-822 65.5,-890 164.5,-890 164.5,-822 65.5,-822"/>
<text text-anchor="start" x="73.5" y="-878" font-family="Helvetica,sans-Serif" font-size="10.00">std::vector&lt; Core::</text>
<text text-anchor="middle" x="115" y="-867" font-family="Helvetica,sans-Serif" font-size="10.00">Index &gt;</text>
<polyline fill="none" stroke="#bfbfbf" points="65.5,-860 164.5,-860 "/>
<text text-anchor="middle" x="115" y="-848" font-family="Helvetica,sans-Serif" font-size="10.00"> </text>
<polyline fill="none" stroke="#bfbfbf" points="65.5,-841 164.5,-841 "/>
<text text-anchor="middle" x="115" y="-829" font-family="Helvetica,sans-Serif" font-size="10.00"> </text>
</g>
<!-- Node3&#45;&gt;Node2 -->
<g id="edge2" class="edge"><title>Node3&#45;&gt;Node2</title>
<path fill="none" stroke="#404040" d="M108.991,-821.907C99.3062,-758.628 86.6826,-618.223 144,-522 179.039,-463.178 245.295,-421.862 299.482,-396.115"/>
<polygon fill="none" stroke="#404040" points="299.606,-396.058 303.37,-389.907 310.495,-391.015 306.731,-397.166 299.606,-396.058"/>
<text text-anchor="middle" x="186" y="-642.5" font-family="Helvetica,sans-Serif" font-size="10.00"> +m_renderObjects</text>
</g>
<!-- Node4 -->
<g id="node4" class="node"><title>Node4</title>
<g id="a_node4"><a xlink:href="classRa_1_1Core_1_1Index.html" target="_top" xlink:title="{Ra::Core::Index\n||+ Index()\l+ Index()\l+ isValid()\l+ isInvalid()\l+ setInvalid()\l+ getValue()\l+ setValue()\l+ operator int()\l+ operator=()\l+ operator++()\l+ operator&#45;&#45;()\l+ operator+()\l+ operator+()\l+ operator&#45;()\l+ operator&#45;()\l+ operator==()\l+ operator==()\l+ operator!=()\l+ operator!=()\l+ operator\&lt;()\l+ operator\&lt;()\l+ operator\&lt;=()\l+ operator\&lt;=()\l+ operator\&gt;()\l+ operator\&gt;()\l+ operator\&gt;=()\l+ operator\&gt;=()\l+ Invalid()\l+ Max()\l}">
<polygon fill="white" stroke="black" points="0,-966.5 0,-1331.5 86,-1331.5 86,-966.5 0,-966.5"/>
<text text-anchor="middle" x="43" y="-1319.5" font-family="Helvetica,sans-Serif" font-size="10.00">Ra::Core::Index</text>
<polyline fill="none" stroke="black" points="0,-1312.5 86,-1312.5 "/>
<text text-anchor="middle" x="43" y="-1300.5" font-family="Helvetica,sans-Serif" font-size="10.00"> </text>
<polyline fill="none" stroke="black" points="0,-1293.5 86,-1293.5 "/>
<text text-anchor="start" x="8" y="-1281.5" font-family="Helvetica,sans-Serif" font-size="10.00">+ Index()</text>
<text text-anchor="start" x="8" y="-1270.5" font-family="Helvetica,sans-Serif" font-size="10.00">+ Index()</text>
<text text-anchor="start" x="8" y="-1259.5" font-family="Helvetica,sans-Serif" font-size="10.00">+ isValid()</text>
<text text-anchor="start" x="8" y="-1248.5" font-family="Helvetica,sans-Serif" font-size="10.00">+ isInvalid()</text>
<text text-anchor="start" x="8" y="-1237.5" font-family="Helvetica,sans-Serif" font-size="10.00">+ setInvalid()</text>
<text text-anchor="start" x="8" y="-1226.5" font-family="Helvetica,sans-Serif" font-size="10.00">+ getValue()</text>
<text text-anchor="start" x="8" y="-1215.5" font-family="Helvetica,sans-Serif" font-size="10.00">+ setValue()</text>
<text text-anchor="start" x="8" y="-1204.5" font-family="Helvetica,sans-Serif" font-size="10.00">+ operator int()</text>
<text text-anchor="start" x="8" y="-1193.5" font-family="Helvetica,sans-Serif" font-size="10.00">+ operator=()</text>
<text text-anchor="start" x="8" y="-1182.5" font-family="Helvetica,sans-Serif" font-size="10.00">+ operator++()</text>
<text text-anchor="start" x="8" y="-1171.5" font-family="Helvetica,sans-Serif" font-size="10.00">+ operator&#45;&#45;()</text>
<text text-anchor="start" x="8" y="-1160.5" font-family="Helvetica,sans-Serif" font-size="10.00">+ operator+()</text>
<text text-anchor="start" x="8" y="-1149.5" font-family="Helvetica,sans-Serif" font-size="10.00">+ operator+()</text>
<text text-anchor="start" x="8" y="-1138.5" font-family="Helvetica,sans-Serif" font-size="10.00">+ operator&#45;()</text>
<text text-anchor="start" x="8" y="-1127.5" font-family="Helvetica,sans-Serif" font-size="10.00">+ operator&#45;()</text>
<text text-anchor="start" x="8" y="-1116.5" font-family="Helvetica,sans-Serif" font-size="10.00">+ operator==()</text>
<text text-anchor="start" x="8" y="-1105.5" font-family="Helvetica,sans-Serif" font-size="10.00">+ operator==()</text>
<text text-anchor="start" x="8" y="-1094.5" font-family="Helvetica,sans-Serif" font-size="10.00">+ operator!=()</text>
<text text-anchor="start" x="8" y="-1083.5" font-family="Helvetica,sans-Serif" font-size="10.00">+ operator!=()</text>
<text text-anchor="start" x="8" y="-1072.5" font-family="Helvetica,sans-Serif" font-size="10.00">+ operator&lt;()</text>
<text text-anchor="start" x="8" y="-1061.5" font-family="Helvetica,sans-Serif" font-size="10.00">+ operator&lt;()</text>
<text text-anchor="start" x="8" y="-1050.5" font-family="Helvetica,sans-Serif" font-size="10.00">+ operator&lt;=()</text>
<text text-anchor="start" x="8" y="-1039.5" font-family="Helvetica,sans-Serif" font-size="10.00">+ operator&lt;=()</text>
<text text-anchor="start" x="8" y="-1028.5" font-family="Helvetica,sans-Serif" font-size="10.00">+ operator&gt;()</text>
<text text-anchor="start" x="8" y="-1017.5" font-family="Helvetica,sans-Serif" font-size="10.00">+ operator&gt;()</text>
<text text-anchor="start" x="8" y="-1006.5" font-family="Helvetica,sans-Serif" font-size="10.00">+ operator&gt;=()</text>
<text text-anchor="start" x="8" y="-995.5" font-family="Helvetica,sans-Serif" font-size="10.00">+ operator&gt;=()</text>
<text text-anchor="start" x="8" y="-984.5" font-family="Helvetica,sans-Serif" font-size="10.00">+ Invalid()</text>
<text text-anchor="start" x="8" y="-973.5" font-family="Helvetica,sans-Serif" font-size="10.00">+ Max()</text>
</a>
</g>
</g>
<!-- Node4&#45;&gt;Node3 -->
<g id="edge3" class="edge"><title>Node4&#45;&gt;Node3</title>
<path fill="none" stroke="#404040" d="M44.5648,-966.384C48.3662,-948.255 53.6882,-930.48 61,-914 63.2052,-909.03 66.0344,-904.224 69.2394,-899.653"/>
<polygon fill="none" stroke="#404040" points="69.3626,-899.496 69.9118,-892.305 76.7601,-890.047 76.2109,-897.237 69.3626,-899.496"/>
<text text-anchor="middle" x="85.5" y="-928.5" font-family="Helvetica,sans-Serif" font-size="10.00"> +elements</text>
</g>
<!-- Node5 -->
<g id="node5" class="node"><title>Node5</title>
<polygon fill="white" stroke="#bfbfbf" points="28.5,-1380.5 28.5,-1437.5 57.5,-1437.5 57.5,-1380.5 28.5,-1380.5"/>
<text text-anchor="middle" x="43" y="-1425.5" font-family="Helvetica,sans-Serif" font-size="10.00">int</text>
<polyline fill="none" stroke="#bfbfbf" points="28.5,-1418.5 57.5,-1418.5 "/>
<text text-anchor="middle" x="43" y="-1406.5" font-family="Helvetica,sans-Serif" font-size="10.00"> </text>
<polyline fill="none" stroke="#bfbfbf" points="28.5,-1399.5 57.5,-1399.5 "/>
<text text-anchor="middle" x="43" y="-1387.5" font-family="Helvetica,sans-Serif" font-size="10.00"> </text>
</g>
<!-- Node5&#45;&gt;Node4 -->
<g id="edge4" class="edge"><title>Node5&#45;&gt;Node4</title>
<path fill="none" stroke="#404040" d="M43,-1380.39C43,-1370.23 43,-1357.82 43,-1344.06"/>
<polygon fill="none" stroke="#404040" points="43.0001,-1343.65 39,-1337.65 43,-1331.65 47,-1337.65 43.0001,-1343.65"/>
<text text-anchor="middle" x="60.5" y="-1353.5" font-family="Helvetica,sans-Serif" font-size="10.00"> #m_idx</text>
</g>
<!-- Node6 -->
<g id="node6" class="node"><title>Node6</title>
<g id="a_node6"><a xlink:title="STL class. ">
<polygon fill="white" stroke="#bfbfbf" points="135.5,-1120.5 135.5,-1177.5 222.5,-1177.5 222.5,-1120.5 135.5,-1120.5"/>
<text text-anchor="middle" x="179" y="-1165.5" font-family="Helvetica,sans-Serif" font-size="10.00">std::vector&lt; T &gt;</text>
<polyline fill="none" stroke="#bfbfbf" points="135.5,-1158.5 222.5,-1158.5 "/>
<text text-anchor="middle" x="179" y="-1146.5" font-family="Helvetica,sans-Serif" font-size="10.00"> </text>
<polyline fill="none" stroke="#bfbfbf" points="135.5,-1139.5 222.5,-1139.5 "/>
<text text-anchor="middle" x="179" y="-1127.5" font-family="Helvetica,sans-Serif" font-size="10.00"> </text>
</a>
</g>
</g>
<!-- Node6&#45;&gt;Node3 -->
<g id="edge5" class="edge"><title>Node6&#45;&gt;Node3</title>
<path fill="none" stroke="orange" d="M163.714,-1110.98C148.246,-1071.43 125.324,-1006.5 116,-948 112.966,-928.965 112.596,-907.405 113.041,-890.051"/>
<polygon fill="orange" stroke="orange" points="160.536,-1112.47 167.473,-1120.47 167.044,-1109.89 160.536,-1112.47"/>
<text text-anchor="middle" x="152.5" y="-928.5" font-family="Helvetica,sans-Serif" font-size="10.00"> &lt; Core::Index &gt;</text>
</g>
<!-- Node9 -->
<g id="node9" class="node"><title>Node9</title>
<polygon fill="white" stroke="#bfbfbf" points="225.5,-816.5 225.5,-895.5 384.5,-895.5 384.5,-816.5 225.5,-816.5"/>
<text text-anchor="start" x="233.5" y="-883.5" font-family="Helvetica,sans-Serif" font-size="10.00">std::vector&lt; std::pair</text>
<text text-anchor="start" x="233.5" y="-872.5" font-family="Helvetica,sans-Serif" font-size="10.00">&lt; const Ra::Engine::Entity</text>
<text text-anchor="middle" x="305" y="-861.5" font-family="Helvetica,sans-Serif" font-size="10.00"> *, Ra::Engine::Component * &gt; &gt;</text>
<polyline fill="none" stroke="#bfbfbf" points="225.5,-854.5 384.5,-854.5 "/>
<text text-anchor="middle" x="305" y="-842.5" font-family="Helvetica,sans-Serif" font-size="10.00"> </text>
<polyline fill="none" stroke="#bfbfbf" points="225.5,-835.5 384.5,-835.5 "/>
<text text-anchor="middle" x="305" y="-823.5" font-family="Helvetica,sans-Serif" font-size="10.00"> </text>
</g>
<!-- Node6&#45;&gt;Node9 -->
<g id="edge10" class="edge"><title>Node6&#45;&gt;Node9</title>
<path fill="none" stroke="orange" d="M174.032,-1110.26C169.548,-1060.92 168.728,-973.758 208,-914 212.72,-906.818 218.683,-900.421 225.322,-894.751"/>
<polygon fill="orange" stroke="orange" points="170.577,-1110.88 175.063,-1120.48 177.542,-1110.18 170.577,-1110.88"/>
<text text-anchor="start" x="208" y="-939.5" font-family="Helvetica,sans-Serif" font-size="10.00"> &lt; std::pair&lt; const</text>
<text text-anchor="start" x="208" y="-928.5" font-family="Helvetica,sans-Serif" font-size="10.00"> Ra::Engine::Entity</text>
<text text-anchor="middle" x="279.5" y="-917.5" font-family="Helvetica,sans-Serif" font-size="10.00"> *, Ra::Engine::Component * &gt; &gt;</text>
</g>
<!-- Node7 -->
<g id="node7" class="node"><title>Node7</title>
<polygon fill="white" stroke="#bfbfbf" points="164.5,-1380.5 164.5,-1437.5 193.5,-1437.5 193.5,-1380.5 164.5,-1380.5"/>
<text text-anchor="middle" x="179" y="-1425.5" font-family="Helvetica,sans-Serif" font-size="10.00">T</text>
<polyline fill="none" stroke="#bfbfbf" points="164.5,-1418.5 193.5,-1418.5 "/>
<text text-anchor="middle" x="179" y="-1406.5" font-family="Helvetica,sans-Serif" font-size="10.00"> </text>
<polyline fill="none" stroke="#bfbfbf" points="164.5,-1399.5 193.5,-1399.5 "/>
<text text-anchor="middle" x="179" y="-1387.5" font-family="Helvetica,sans-Serif" font-size="10.00"> </text>
</g>
<!-- Node7&#45;&gt;Node6 -->
<g id="edge6" class="edge"><title>Node7&#45;&gt;Node6</title>
<path fill="none" stroke="#404040" d="M179,-1380.39C179,-1334.63 179,-1242.91 179,-1190.04"/>
<polygon fill="none" stroke="#404040" points="179,-1189.8 175,-1183.8 179,-1177.8 183,-1183.8 179,-1189.8"/>
<text text-anchor="middle" x="203.5" y="-1353.5" font-family="Helvetica,sans-Serif" font-size="10.00"> +elements</text>
</g>
<!-- Node8 -->
<g id="node8" class="node"><title>Node8</title>
<g id="a_node8"><a xlink:href="classRa_1_1Engine_1_1System.html" target="_top" xlink:title="Systems are responsible of updating a specific subset of the components of each entity. ">
<polygon fill="white" stroke="black" points="237,-578 237,-712 377,-712 377,-578 237,-578"/>
<text text-anchor="middle" x="307" y="-700" font-family="Helvetica,sans-Serif" font-size="10.00">Ra::Engine::System</text>
<polyline fill="none" stroke="black" points="237,-693 377,-693 "/>
<text text-anchor="middle" x="307" y="-681" font-family="Helvetica,sans-Serif" font-size="10.00"> </text>
<polyline fill="none" stroke="black" points="237,-674 377,-674 "/>
<text text-anchor="start" x="245" y="-662" font-family="Helvetica,sans-Serif" font-size="10.00">+ System()</text>
<text text-anchor="start" x="245" y="-651" font-family="Helvetica,sans-Serif" font-size="10.00">+ ~System()</text>
<text text-anchor="start" x="245" y="-640" font-family="Helvetica,sans-Serif" font-size="10.00">+ handleAssetLoading()</text>
<text text-anchor="start" x="245" y="-629" font-family="Helvetica,sans-Serif" font-size="10.00">+ generateTasks()</text>
<text text-anchor="start" x="245" y="-618" font-family="Helvetica,sans-Serif" font-size="10.00">+ getEntityComponents()</text>
<text text-anchor="start" x="245" y="-607" font-family="Helvetica,sans-Serif" font-size="10.00"># registerComponent()</text>
<text text-anchor="start" x="245" y="-596" font-family="Helvetica,sans-Serif" font-size="10.00"># unregisterComponent()</text>
<text text-anchor="start" x="245" y="-585" font-family="Helvetica,sans-Serif" font-size="10.00"># unregisterAllComponents()</text>
</a>
</g>
</g>
<!-- Node8&#45;&gt;Node2 -->
<g id="edge7" class="edge"><title>Node8&#45;&gt;Node2</title>
<path fill="none" stroke="#404040" d="M325.386,-577.763C333.108,-549.944 342.343,-516.676 351.211,-484.726"/>
<polygon fill="none" stroke="#404040" points="351.249,-484.589 349,-477.738 354.459,-473.027 356.708,-479.878 351.249,-484.589"/>
<text text-anchor="middle" x="376.5" y="-495.5" font-family="Helvetica,sans-Serif" font-size="10.00"> #m_system</text>
</g>
<!-- Node9&#45;&gt;Node8 -->
<g id="edge8" class="edge"><title>Node9&#45;&gt;Node8</title>
<path fill="none" stroke="#404040" d="M305.371,-816.179C305.618,-790.437 305.95,-755.755 306.25,-724.416"/>
<polygon fill="none" stroke="#404040" points="306.252,-724.141 302.31,-718.103 306.367,-712.141 310.309,-718.179 306.252,-724.141"/>
<text text-anchor="middle" x="344" y="-789.5" font-family="Helvetica,sans-Serif" font-size="10.00"> #m_components</text>
</g>
<!-- Node10 -->
<g id="node10" class="node"><title>Node10</title>
<polygon fill="white" stroke="#bfbfbf" points="318.5,-1109.5 318.5,-1188.5 435.5,-1188.5 435.5,-1109.5 318.5,-1109.5"/>
<text text-anchor="start" x="326.5" y="-1176.5" font-family="Helvetica,sans-Serif" font-size="10.00">pair&lt; const Ra::Engine</text>
<text text-anchor="start" x="326.5" y="-1165.5" font-family="Helvetica,sans-Serif" font-size="10.00">::Entity *, Ra::Engine</text>
<text text-anchor="middle" x="377" y="-1154.5" font-family="Helvetica,sans-Serif" font-size="10.00">::Component * &gt;</text>
<polyline fill="none" stroke="#bfbfbf" points="318.5,-1147.5 435.5,-1147.5 "/>
<text text-anchor="middle" x="377" y="-1135.5" font-family="Helvetica,sans-Serif" font-size="10.00"> </text>
<polyline fill="none" stroke="#bfbfbf" points="318.5,-1128.5 435.5,-1128.5 "/>
<text text-anchor="middle" x="377" y="-1116.5" font-family="Helvetica,sans-Serif" font-size="10.00"> </text>
</g>
<!-- Node10&#45;&gt;Node9 -->
<g id="edge9" class="edge"><title>Node10&#45;&gt;Node9</title>
<path fill="none" stroke="#404040" d="M380.444,-1109.35C383.157,-1061.44 382.696,-978.265 355,-914 353.792,-911.197 352.393,-908.434 350.846,-905.727"/>
<polygon fill="none" stroke="#404040" points="350.798,-905.652 344.172,-902.807 344.249,-895.596 350.876,-898.441 350.798,-905.652"/>
<text text-anchor="middle" x="390.5" y="-928.5" font-family="Helvetica,sans-Serif" font-size="10.00"> +elements</text>
</g>
<!-- Node11 -->
<g id="node11" class="node"><title>Node11</title>
<g id="a_node11"><a xlink:href="classRa_1_1Engine_1_1Entity.html" target="_top" xlink:title="An entity is an scene element. It ties together components with a transform. ">
<polygon fill="white" stroke="black" points="398.5,-523 398.5,-767 529.5,-767 529.5,-523 398.5,-523"/>
<text text-anchor="middle" x="464" y="-755" font-family="Helvetica,sans-Serif" font-size="10.00">Ra::Engine::Entity</text>
<polyline fill="none" stroke="black" points="398.5,-748 529.5,-748 "/>
<text text-anchor="middle" x="464" y="-736" font-family="Helvetica,sans-Serif" font-size="10.00"> </text>
<polyline fill="none" stroke="black" points="398.5,-729 529.5,-729 "/>
<text text-anchor="start" x="406.5" y="-717" font-family="Helvetica,sans-Serif" font-size="10.00">+ Entity()</text>
<text text-anchor="start" x="406.5" y="-706" font-family="Helvetica,sans-Serif" font-size="10.00">+ Entity()</text>
<text text-anchor="start" x="406.5" y="-695" font-family="Helvetica,sans-Serif" font-size="10.00">+ operator=()</text>
<text text-anchor="start" x="406.5" y="-684" font-family="Helvetica,sans-Serif" font-size="10.00">+ ~Entity()</text>
<text text-anchor="start" x="406.5" y="-673" font-family="Helvetica,sans-Serif" font-size="10.00">+ getName()</text>
<text text-anchor="start" x="406.5" y="-662" font-family="Helvetica,sans-Serif" font-size="10.00">+ rename()</text>
<text text-anchor="start" x="406.5" y="-651" font-family="Helvetica,sans-Serif" font-size="10.00">+ setTransform()</text>
<text text-anchor="start" x="406.5" y="-640" font-family="Helvetica,sans-Serif" font-size="10.00">+ setTransform()</text>
<text text-anchor="start" x="406.5" y="-629" font-family="Helvetica,sans-Serif" font-size="10.00">+ getTransform()</text>
<text text-anchor="start" x="406.5" y="-618" font-family="Helvetica,sans-Serif" font-size="10.00">+ getTransformAsMatrix()</text>
<text text-anchor="start" x="406.5" y="-607" font-family="Helvetica,sans-Serif" font-size="10.00">+ swapTransformBuffers()</text>
<text text-anchor="start" x="406.5" y="-596" font-family="Helvetica,sans-Serif" font-size="10.00">+ addComponent()</text>
<text text-anchor="start" x="406.5" y="-585" font-family="Helvetica,sans-Serif" font-size="10.00">+ removeComponent()</text>
<text text-anchor="start" x="406.5" y="-574" font-family="Helvetica,sans-Serif" font-size="10.00">+ getComponent()</text>
<text text-anchor="start" x="406.5" y="-563" font-family="Helvetica,sans-Serif" font-size="10.00">+ getComponent()</text>
<text text-anchor="start" x="406.5" y="-552" font-family="Helvetica,sans-Serif" font-size="10.00">+ getComponents()</text>
<text text-anchor="start" x="406.5" y="-541" font-family="Helvetica,sans-Serif" font-size="10.00">+ getNumComponents()</text>
<text text-anchor="start" x="406.5" y="-530" font-family="Helvetica,sans-Serif" font-size="10.00">+ rayCastQuery()</text>
</a>
</g>
</g>
<!-- Node11&#45;&gt;Node2 -->
<g id="edge11" class="edge"><title>Node11&#45;&gt;Node2</title>
<path fill="none" stroke="#404040" d="M429.924,-522.792C426.411,-510.297 422.84,-497.595 419.324,-485.091"/>
<polygon fill="none" stroke="#404040" points="419.223,-484.728 413.748,-480.034 415.975,-473.176 421.449,-477.869 419.223,-484.728"/>
<text text-anchor="middle" x="448" y="-495.5" font-family="Helvetica,sans-Serif" font-size="10.00"> #m_entity</text>
</g>
<!-- Node12 -->
<g id="node12" class="node"><title>Node12</title>
<g id="a_node12"><a xlink:href="classRa_1_1Core_1_1IndexedObject.html" target="_top" xlink:title="{Ra::Core::IndexedObject\n||+ IndexedObject()\l+ IndexedObject()\l+ ~IndexedObject()\l}">
<polygon fill="white" stroke="black" points="402.5,-816.5 402.5,-895.5 527.5,-895.5 527.5,-816.5 402.5,-816.5"/>
<text text-anchor="middle" x="465" y="-883.5" font-family="Helvetica,sans-Serif" font-size="10.00">Ra::Core::IndexedObject</text>
<polyline fill="none" stroke="black" points="402.5,-876.5 527.5,-876.5 "/>
<text text-anchor="middle" x="465" y="-864.5" font-family="Helvetica,sans-Serif" font-size="10.00"> </text>
<polyline fill="none" stroke="black" points="402.5,-857.5 527.5,-857.5 "/>
<text text-anchor="start" x="410.5" y="-845.5" font-family="Helvetica,sans-Serif" font-size="10.00">+ IndexedObject()</text>
<text text-anchor="start" x="410.5" y="-834.5" font-family="Helvetica,sans-Serif" font-size="10.00">+ IndexedObject()</text>
<text text-anchor="start" x="410.5" y="-823.5" font-family="Helvetica,sans-Serif" font-size="10.00">+ ~IndexedObject()</text>
</a>
</g>
</g>
<!-- Node12&#45;&gt;Node11 -->
<g id="edge12" class="edge"><title>Node12&#45;&gt;Node11</title>
<path fill="none" stroke="midnightblue" d="M464.766,-806.07C464.709,-794.141 464.645,-780.849 464.58,-767.166"/>
<polygon fill="none" stroke="midnightblue" points="461.266,-806.195 464.814,-816.179 468.266,-806.162 461.266,-806.195"/>
</g>
<!-- Node13 -->
<g id="node13" class="node"><title>Node13</title>
<polygon fill="white" stroke="#bfbfbf" points="454,-1120.5 454,-1177.5 486,-1177.5 486,-1120.5 454,-1120.5"/>
<text text-anchor="middle" x="470" y="-1165.5" font-family="Helvetica,sans-Serif" font-size="10.00">uint</text>
<polyline fill="none" stroke="#bfbfbf" points="454,-1158.5 486,-1158.5 "/>
<text text-anchor="middle" x="470" y="-1146.5" font-family="Helvetica,sans-Serif" font-size="10.00"> </text>
<polyline fill="none" stroke="#bfbfbf" points="454,-1139.5 486,-1139.5 "/>
<text text-anchor="middle" x="470" y="-1127.5" font-family="Helvetica,sans-Serif" font-size="10.00"> </text>
</g>
<!-- Node13&#45;&gt;Node12 -->
<g id="edge13" class="edge"><title>Node13&#45;&gt;Node12</title>
<path fill="none" stroke="#404040" d="M469.525,-1120.36C468.688,-1071.65 466.939,-969.836 465.877,-908.046"/>
<polygon fill="none" stroke="#404040" points="465.874,-907.874 461.772,-901.944 465.668,-895.876 469.771,-901.806 465.874,-907.874"/>
<text text-anchor="middle" x="478" y="-928.5" font-family="Helvetica,sans-Serif" font-size="10.00"> +idx</text>
</g>
<!-- Node14 -->
<g id="node14" class="node"><title>Node14</title>
<g id="a_node14"><a xlink:title="STL class. ">
<polygon fill="white" stroke="#bfbfbf" points="556,-616.5 556,-673.5 616,-673.5 616,-616.5 556,-616.5"/>
<text text-anchor="middle" x="586" y="-661.5" font-family="Helvetica,sans-Serif" font-size="10.00">std::string</text>
<polyline fill="none" stroke="#bfbfbf" points="556,-654.5 616,-654.5 "/>
<text text-anchor="middle" x="586" y="-642.5" font-family="Helvetica,sans-Serif" font-size="10.00"> </text>
<polyline fill="none" stroke="#bfbfbf" points="556,-635.5 616,-635.5 "/>
<text text-anchor="middle" x="586" y="-623.5" font-family="Helvetica,sans-Serif" font-size="10.00"> </text>
</a>
</g>
</g>
<!-- Node14&#45;&gt;Node2 -->
<g id="edge14" class="edge"><title>Node14&#45;&gt;Node2</title>
<path fill="none" stroke="#404040" d="M578.527,-616.376C570.805,-590.65 557.176,-551.884 538,-522 518.66,-491.861 493.044,-462.532 468.314,-437.441"/>
<polygon fill="none" stroke="#404040" points="468.103,-437.23 461.032,-435.818 459.615,-428.748 466.687,-430.16 468.103,-437.23"/>
<text text-anchor="middle" x="548" y="-495.5" font-family="Helvetica,sans-Serif" font-size="10.00"> #m_name</text>
</g>
<!-- Node15 -->
<g id="node15" class="node"><title>Node15</title>
<g id="a_node15"><a xlink:title="STL class. ">
<polygon fill="white" stroke="#bfbfbf" points="545.5,-822 545.5,-890 640.5,-890 640.5,-822 545.5,-822"/>
<text text-anchor="start" x="553.5" y="-878" font-family="Helvetica,sans-Serif" font-size="10.00">std::basic_string&lt;</text>
<text text-anchor="middle" x="593" y="-867" font-family="Helvetica,sans-Serif" font-size="10.00"> char &gt;</text>
<polyline fill="none" stroke="#bfbfbf" points="545.5,-860 640.5,-860 "/>
<text text-anchor="middle" x="593" y="-848" font-family="Helvetica,sans-Serif" font-size="10.00"> </text>
<polyline fill="none" stroke="#bfbfbf" points="545.5,-841 640.5,-841 "/>
<text text-anchor="middle" x="593" y="-829" font-family="Helvetica,sans-Serif" font-size="10.00"> </text>
</a>
</g>
</g>
<!-- Node15&#45;&gt;Node14 -->
<g id="edge15" class="edge"><title>Node15&#45;&gt;Node14</title>
<path fill="none" stroke="midnightblue" d="M591.553,-811.794C590.163,-770.309 588.106,-708.892 586.925,-673.622"/>
<polygon fill="none" stroke="midnightblue" points="588.058,-812.006 591.891,-821.883 595.054,-811.772 588.058,-812.006"/>
</g>
</g>
</svg>
