<?xml version="1.0" encoding="UTF-8" standalone="no"?>
<!DOCTYPE svg PUBLIC "-//W3C//DTD SVG 1.1//EN"
 "http://www.w3.org/Graphics/SVG/1.1/DTD/svg11.dtd">
<!-- Generated by graphviz version 2.36.0 (20140111.2315)
 -->
<!-- Title: Ra::Core::OBJFileManager::exportData Pages: 1 -->
<svg width="492pt" height="146pt"
 viewBox="0.00 0.00 492.00 146.00" xmlns="http://www.w3.org/2000/svg" xmlns:xlink="http://www.w3.org/1999/xlink">
<g id="graph0" class="graph" transform="scale(1 1) rotate(0) translate(4 142)">
<title>Ra::Core::OBJFileManager::exportData</title>
<polygon fill="white" stroke="none" points="-4,4 -4,-142 488,-142 488,4 -4,4"/>
<!-- Node1 -->
<g id="node1" class="node"><title>Node1</title>
<polygon fill="#bfbfbf" stroke="black" points="0.5,-54 0.5,-84 135.5,-84 135.5,-54 0.5,-54"/>
<text text-anchor="start" x="8.5" y="-72" font-family="Helvetica,sans-Serif" font-size="10.00">Ra::Core::OBJFileManager</text>
<text text-anchor="middle" x="68" y="-61" font-family="Helvetica,sans-Serif" font-size="10.00">::exportData</text>
</g>
<!-- Node2 -->
<g id="node2" class="node"><title>Node2</title>
<g id="a_node2"><a xlink:href="classRa_1_1Core_1_1TriangleMesh.html#a495116f40cfec8bb6504698d786d4b8c" target="_top" xlink:title="Access the vertices positions. ">
<polygon fill="white" stroke="black" points="187.5,-108 187.5,-138 308.5,-138 308.5,-108 187.5,-108"/>
<text text-anchor="start" x="195.5" y="-126" font-family="Helvetica,sans-Serif" font-size="10.00">Ra::Core::TriangleMesh</text>
<text text-anchor="middle" x="248" y="-115" font-family="Helvetica,sans-Serif" font-size="10.00">::vertices</text>
</a>
</g>
</g>
<!-- Node1&#45;&gt;Node2 -->
<g id="edge1" class="edge"><title>Node1&#45;&gt;Node2</title>
<path fill="none" stroke="midnightblue" d="M118.583,-84.042C139.999,-90.5391 165.232,-98.1939 187.636,-104.991"/>
<polygon fill="midnightblue" stroke="midnightblue" points="186.789,-108.391 197.375,-107.945 188.821,-101.693 186.789,-108.391"/>
</g>
<!-- Node4 -->
<g id="node4" class="node"><title>Node4</title>
<g id="a_node4"><a xlink:href="classRa_1_1Core_1_1FileManager.html#a32776fbf23e35ba0354e941b95194e73" target="_top" xlink:title="Ra::Core::FileManager\l\&lt; TriangleMesh \&gt;::addLogError\lEntry">
<polygon fill="white" stroke="black" points="172,-48.5 172,-89.5 324,-89.5 324,-48.5 172,-48.5"/>
<text text-anchor="start" x="180" y="-77.5" font-family="Helvetica,sans-Serif" font-size="10.00">Ra::Core::FileManager</text>
<text text-anchor="start" x="180" y="-66.5" font-family="Helvetica,sans-Serif" font-size="10.00">&lt; TriangleMesh &gt;::addLogError</text>
<text text-anchor="middle" x="248" y="-55.5" font-family="Helvetica,sans-Serif" font-size="10.00">Entry</text>
</a>
</g>
</g>
<!-- Node1&#45;&gt;Node4 -->
<g id="edge3" class="edge"><title>Node1&#45;&gt;Node4</title>
<path fill="none" stroke="midnightblue" d="M135.534,-69C144.051,-69 152.861,-69 161.625,-69"/>
<polygon fill="midnightblue" stroke="midnightblue" points="161.871,-72.5001 171.871,-69 161.871,-65.5001 161.871,-72.5001"/>
</g>
<!-- Node5 -->
<g id="node5" class="node"><title>Node5</title>
<g id="a_node5"><a xlink:href="classRa_1_1Core_1_1TriangleMesh.html#a40d31b7b2943947d6eac5d906f0182fd" target="_top" xlink:title="Access the vertices normals. ">
<polygon fill="white" stroke="black" points="187.5,-0 187.5,-30 308.5,-30 308.5,-0 187.5,-0"/>
<text text-anchor="start" x="195.5" y="-18" font-family="Helvetica,sans-Serif" font-size="10.00">Ra::Core::TriangleMesh</text>
<text text-anchor="middle" x="248" y="-7" font-family="Helvetica,sans-Serif" font-size="10.00">::normals</text>
</a>
</g>
</g>
<!-- Node1&#45;&gt;Node5 -->
<g id="edge4" class="edge"><title>Node1&#45;&gt;Node5</title>
<path fill="none" stroke="midnightblue" d="M118.583,-53.958C139.999,-47.4609 165.232,-39.8061 187.636,-33.0094"/>
<polygon fill="midnightblue" stroke="midnightblue" points="188.821,-36.3073 197.375,-30.0549 186.789,-29.6088 188.821,-36.3073"/>
</g>
<!-- Node3 -->
<g id="node3" class="node"><title>Node3</title>
<g id="a_node3"><a xlink:href="classRa_1_1Core_1_1AttribManager.html#aaa6088620425c1e1d74b50f1b50eb596" target="_top" xlink:title="Get attribute by handle. ">
<polygon fill="white" stroke="black" points="360.5,-54 360.5,-84 483.5,-84 483.5,-54 360.5,-54"/>
<text text-anchor="start" x="368.5" y="-72" font-family="Helvetica,sans-Serif" font-size="10.00">Ra::Core::AttribManager</text>
<text text-anchor="middle" x="422" y="-61" font-family="Helvetica,sans-Serif" font-size="10.00">::getAttrib</text>
</a>
</g>
</g>
<!-- Node2&#45;&gt;Node3 -->
<g id="edge2" class="edge"><title>Node2&#45;&gt;Node3</title>
<path fill="none" stroke="midnightblue" d="M296.912,-107.958C317.513,-101.49 341.769,-93.8747 363.345,-87.1009"/>
<polygon fill="midnightblue" stroke="midnightblue" points="364.555,-90.3897 373.047,-84.0549 362.458,-83.7111 364.555,-90.3897"/>
</g>
<!-- Node5&#45;&gt;Node3 -->
<g id="edge5" class="edge"><title>Node5&#45;&gt;Node3</title>
<path fill="none" stroke="midnightblue" d="M296.912,-30.042C317.513,-36.51 341.769,-44.1253 363.345,-50.8991"/>
<polygon fill="midnightblue" stroke="midnightblue" points="362.458,-54.2889 373.047,-53.9451 364.555,-47.6103 362.458,-54.2889"/>
</g>
</g>
</svg>
