<?xml version="1.0" encoding="UTF-8" standalone="no"?>
<!DOCTYPE svg PUBLIC "-//W3C//DTD SVG 1.1//EN"
 "http://www.w3.org/Graphics/SVG/1.1/DTD/svg11.dtd">
<!-- Generated by graphviz version 2.36.0 (20140111.2315)
 -->
<!-- Title: Ra::Engine::LightManager Pages: 1 -->
<svg width="691pt" height="1062pt"
 viewBox="0.00 0.00 691.00 1062.00" xmlns="http://www.w3.org/2000/svg" xmlns:xlink="http://www.w3.org/1999/xlink">
<g id="graph0" class="graph" transform="scale(1 1) rotate(0) translate(4 1058)">
<title>Ra::Engine::LightManager</title>
<polygon fill="white" stroke="none" points="-4,4 -4,-1058 687,-1058 687,4 -4,4"/>
<!-- Node1 -->
<g id="node1" class="node"><title>Node1</title>
<polygon fill="#bfbfbf" stroke="black" points="286,-0.5 286,-233.5 426,-233.5 426,-0.5 286,-0.5"/>
<text text-anchor="middle" x="356" y="-221.5" font-family="Helvetica,sans-Serif" font-size="10.00">Ra::Engine::LightManager</text>
<polyline fill="none" stroke="black" points="286,-214.5 426,-214.5 "/>
<text text-anchor="middle" x="356" y="-202.5" font-family="Helvetica,sans-Serif" font-size="10.00"> </text>
<polyline fill="none" stroke="black" points="286,-195.5 426,-195.5 "/>
<text text-anchor="start" x="294" y="-183.5" font-family="Helvetica,sans-Serif" font-size="10.00">+ LightManager()</text>
<text text-anchor="start" x="294" y="-172.5" font-family="Helvetica,sans-Serif" font-size="10.00">+ LightManager()</text>
<text text-anchor="start" x="294" y="-161.5" font-family="Helvetica,sans-Serif" font-size="10.00">+ operator=()</text>
<text text-anchor="start" x="294" y="-150.5" font-family="Helvetica,sans-Serif" font-size="10.00">+ ~LightManager()</text>
<text text-anchor="start" x="294" y="-139.5" font-family="Helvetica,sans-Serif" font-size="10.00">+ getLight()</text>
<text text-anchor="start" x="294" y="-128.5" font-family="Helvetica,sans-Serif" font-size="10.00">+ addLight()</text>
<text text-anchor="start" x="294" y="-117.5" font-family="Helvetica,sans-Serif" font-size="10.00">+ count()</text>
<text text-anchor="start" x="294" y="-106.5" font-family="Helvetica,sans-Serif" font-size="10.00">+ preprocess()</text>
<text text-anchor="start" x="294" y="-95.5" font-family="Helvetica,sans-Serif" font-size="10.00">+ prerender()</text>
<text text-anchor="start" x="294" y="-84.5" font-family="Helvetica,sans-Serif" font-size="10.00">+ render()</text>
<text text-anchor="start" x="294" y="-73.5" font-family="Helvetica,sans-Serif" font-size="10.00">+ postrender()</text>
<text text-anchor="start" x="294" y="-62.5" font-family="Helvetica,sans-Serif" font-size="10.00">+ postprocess()</text>
<text text-anchor="start" x="294" y="-51.5" font-family="Helvetica,sans-Serif" font-size="10.00">+ generateTasks()</text>
<text text-anchor="start" x="294" y="-40.5" font-family="Helvetica,sans-Serif" font-size="10.00">+ handleAssetLoading()</text>
<text text-anchor="start" x="294" y="-29.5" font-family="Helvetica,sans-Serif" font-size="10.00"># registerComponent()</text>
<text text-anchor="start" x="294" y="-18.5" font-family="Helvetica,sans-Serif" font-size="10.00"># unregisterComponent()</text>
<text text-anchor="start" x="294" y="-7.5" font-family="Helvetica,sans-Serif" font-size="10.00"># unregisterAllComponents()</text>
</g>
<!-- Node2 -->
<g id="node2" class="node"><title>Node2</title>
<g id="a_node2"><a xlink:href="classRa_1_1Engine_1_1System.html" target="_top" xlink:title="Systems are responsible of updating a specific subset of the components of each entity. ">
<polygon fill="white" stroke="black" points="97,-376 97,-510 237,-510 237,-376 97,-376"/>
<text text-anchor="middle" x="167" y="-498" font-family="Helvetica,sans-Serif" font-size="10.00">Ra::Engine::System</text>
<polyline fill="none" stroke="black" points="97,-491 237,-491 "/>
<text text-anchor="middle" x="167" y="-479" font-family="Helvetica,sans-Serif" font-size="10.00"> </text>
<polyline fill="none" stroke="black" points="97,-472 237,-472 "/>
<text text-anchor="start" x="105" y="-460" font-family="Helvetica,sans-Serif" font-size="10.00">+ System()</text>
<text text-anchor="start" x="105" y="-449" font-family="Helvetica,sans-Serif" font-size="10.00">+ ~System()</text>
<text text-anchor="start" x="105" y="-438" font-family="Helvetica,sans-Serif" font-size="10.00">+ handleAssetLoading()</text>
<text text-anchor="start" x="105" y="-427" font-family="Helvetica,sans-Serif" font-size="10.00">+ generateTasks()</text>
<text text-anchor="start" x="105" y="-416" font-family="Helvetica,sans-Serif" font-size="10.00">+ getEntityComponents()</text>
<text text-anchor="start" x="105" y="-405" font-family="Helvetica,sans-Serif" font-size="10.00"># registerComponent()</text>
<text text-anchor="start" x="105" y="-394" font-family="Helvetica,sans-Serif" font-size="10.00"># unregisterComponent()</text>
<text text-anchor="start" x="105" y="-383" font-family="Helvetica,sans-Serif" font-size="10.00"># unregisterAllComponents()</text>
</a>
</g>
</g>
<!-- Node2&#45;&gt;Node1 -->
<g id="edge1" class="edge"><title>Node2&#45;&gt;Node1</title>
<path fill="none" stroke="midnightblue" d="M208.438,-366.956C228.024,-331.867 251.908,-289.617 274,-252 277.867,-245.415 281.87,-238.667 285.931,-231.871"/>
<polygon fill="none" stroke="midnightblue" points="205.367,-365.277 203.555,-375.716 211.481,-368.686 205.367,-365.277"/>
</g>
<!-- Node3 -->
<g id="node3" class="node"><title>Node3</title>
<polygon fill="white" stroke="#bfbfbf" points="50.5,-662.5 50.5,-741.5 209.5,-741.5 209.5,-662.5 50.5,-662.5"/>
<text text-anchor="start" x="58.5" y="-729.5" font-family="Helvetica,sans-Serif" font-size="10.00">std::vector&lt; std::pair</text>
<text text-anchor="start" x="58.5" y="-718.5" font-family="Helvetica,sans-Serif" font-size="10.00">&lt; const Ra::Engine::Entity</text>
<text text-anchor="middle" x="130" y="-707.5" font-family="Helvetica,sans-Serif" font-size="10.00"> *, Ra::Engine::Component * &gt; &gt;</text>
<polyline fill="none" stroke="#bfbfbf" points="50.5,-700.5 209.5,-700.5 "/>
<text text-anchor="middle" x="130" y="-688.5" font-family="Helvetica,sans-Serif" font-size="10.00"> </text>
<polyline fill="none" stroke="#bfbfbf" points="50.5,-681.5 209.5,-681.5 "/>
<text text-anchor="middle" x="130" y="-669.5" font-family="Helvetica,sans-Serif" font-size="10.00"> </text>
</g>
<!-- Node3&#45;&gt;Node2 -->
<g id="edge2" class="edge"><title>Node3&#45;&gt;Node2</title>
<path fill="none" stroke="#404040" d="M135.579,-662.246C140.898,-625.303 149.063,-568.593 155.736,-522.24"/>
<polygon fill="none" stroke="#404040" points="155.776,-521.96 152.672,-515.452 157.486,-510.083 160.59,-516.592 155.776,-521.96"/>
<text text-anchor="middle" x="179" y="-630.5" font-family="Helvetica,sans-Serif" font-size="10.00"> #m_components</text>
</g>
<!-- Node4 -->
<g id="node4" class="node"><title>Node4</title>
<polygon fill="white" stroke="#bfbfbf" points="-0.5,-840.5 -0.5,-919.5 116.5,-919.5 116.5,-840.5 -0.5,-840.5"/>
<text text-anchor="start" x="7.5" y="-907.5" font-family="Helvetica,sans-Serif" font-size="10.00">pair&lt; const Ra::Engine</text>
<text text-anchor="start" x="7.5" y="-896.5" font-family="Helvetica,sans-Serif" font-size="10.00">::Entity *, Ra::Engine</text>
<text text-anchor="middle" x="58" y="-885.5" font-family="Helvetica,sans-Serif" font-size="10.00">::Component * &gt;</text>
<polyline fill="none" stroke="#bfbfbf" points="-0.5,-878.5 116.5,-878.5 "/>
<text text-anchor="middle" x="58" y="-866.5" font-family="Helvetica,sans-Serif" font-size="10.00"> </text>
<polyline fill="none" stroke="#bfbfbf" points="-0.5,-859.5 116.5,-859.5 "/>
<text text-anchor="middle" x="58" y="-847.5" font-family="Helvetica,sans-Serif" font-size="10.00"> </text>
</g>
<!-- Node4&#45;&gt;Node3 -->
<g id="edge3" class="edge"><title>Node4&#45;&gt;Node3</title>
<path fill="none" stroke="#404040" d="M63.7962,-840.461C68.3372,-816.511 75.9502,-785.53 88,-760 89.2854,-757.277 90.7095,-754.552 92.2339,-751.852"/>
<polygon fill="none" stroke="#404040" points="92.2448,-751.835 91.9799,-744.628 98.53,-741.612 98.7948,-748.819 92.2448,-751.835"/>
<text text-anchor="middle" x="112.5" y="-774.5" font-family="Helvetica,sans-Serif" font-size="10.00"> +elements</text>
</g>
<!-- Node5 -->
<g id="node5" class="node"><title>Node5</title>
<g id="a_node5"><a xlink:title="STL class. ">
<polygon fill="white" stroke="#bfbfbf" points="135.5,-851.5 135.5,-908.5 222.5,-908.5 222.5,-851.5 135.5,-851.5"/>
<text text-anchor="middle" x="179" y="-896.5" font-family="Helvetica,sans-Serif" font-size="10.00">std::vector&lt; T &gt;</text>
<polyline fill="none" stroke="#bfbfbf" points="135.5,-889.5 222.5,-889.5 "/>
<text text-anchor="middle" x="179" y="-877.5" font-family="Helvetica,sans-Serif" font-size="10.00"> </text>
<polyline fill="none" stroke="#bfbfbf" points="135.5,-870.5 222.5,-870.5 "/>
<text text-anchor="middle" x="179" y="-858.5" font-family="Helvetica,sans-Serif" font-size="10.00"> </text>
</a>
</g>
</g>
<!-- Node5&#45;&gt;Node3 -->
<g id="edge4" class="edge"><title>Node5&#45;&gt;Node3</title>
<path fill="none" stroke="orange" d="M163.971,-841.669C158.43,-826.977 152.431,-809.856 148,-794 143.276,-777.094 139.311,-758.087 136.316,-741.833"/>
<polygon fill="orange" stroke="orange" points="160.857,-843.325 167.708,-851.407 167.392,-840.817 160.857,-843.325"/>
<text text-anchor="start" x="148" y="-785.5" font-family="Helvetica,sans-Serif" font-size="10.00"> &lt; std::pair&lt; const</text>
<text text-anchor="start" x="148" y="-774.5" font-family="Helvetica,sans-Serif" font-size="10.00"> Ra::Engine::Entity</text>
<text text-anchor="middle" x="219.5" y="-763.5" font-family="Helvetica,sans-Serif" font-size="10.00"> *, Ra::Engine::Component * &gt; &gt;</text>
</g>
<!-- Node6 -->
<g id="node6" class="node"><title>Node6</title>
<polygon fill="white" stroke="#bfbfbf" points="226.5,-996.5 226.5,-1053.5 255.5,-1053.5 255.5,-996.5 226.5,-996.5"/>
<text text-anchor="middle" x="241" y="-1041.5" font-family="Helvetica,sans-Serif" font-size="10.00">T</text>
<polyline fill="none" stroke="#bfbfbf" points="226.5,-1034.5 255.5,-1034.5 "/>
<text text-anchor="middle" x="241" y="-1022.5" font-family="Helvetica,sans-Serif" font-size="10.00"> </text>
<polyline fill="none" stroke="#bfbfbf" points="226.5,-1015.5 255.5,-1015.5 "/>
<text text-anchor="middle" x="241" y="-1003.5" font-family="Helvetica,sans-Serif" font-size="10.00"> </text>
</g>
<!-- Node6&#45;&gt;Node5 -->
<g id="edge5" class="edge"><title>Node6&#45;&gt;Node5</title>
<path fill="none" stroke="#404040" d="M226.397,-1007.98C219.381,-999.567 211.356,-988.785 206,-978 197.092,-960.064 190.75,-938.755 186.461,-920.685"/>
<polygon fill="none" stroke="#404040" points="186.417,-920.487 181.211,-915.498 183.813,-908.773 189.02,-913.762 186.417,-920.487"/>
<text text-anchor="middle" x="230.5" y="-969.5" font-family="Helvetica,sans-Serif" font-size="10.00"> +elements</text>
</g>
<!-- Node10 -->
<g id="node10" class="node"><title>Node10</title>
<g id="a_node10"><a xlink:title="STL class. ">
<polygon fill="white" stroke="#bfbfbf" points="241.5,-851.5 241.5,-908.5 346.5,-908.5 346.5,-851.5 241.5,-851.5"/>
<text text-anchor="middle" x="294" y="-896.5" font-family="Helvetica,sans-Serif" font-size="10.00">std::unique_ptr&lt; T &gt;</text>
<polyline fill="none" stroke="#bfbfbf" points="241.5,-889.5 346.5,-889.5 "/>
<text text-anchor="middle" x="294" y="-877.5" font-family="Helvetica,sans-Serif" font-size="10.00"> </text>
<polyline fill="none" stroke="#bfbfbf" points="241.5,-870.5 346.5,-870.5 "/>
<text text-anchor="start" x="249.5" y="-858.5" font-family="Helvetica,sans-Serif" font-size="10.00">+ operator&#45;&gt;()</text>
</a>
</g>
</g>
<!-- Node6&#45;&gt;Node10 -->
<g id="edge10" class="edge"><title>Node6&#45;&gt;Node10</title>
<path fill="none" stroke="#404040" d="M251.219,-996.428C259.233,-974.807 270.489,-944.435 279.445,-920.272"/>
<polygon fill="none" stroke="#404040" points="279.461,-920.227 277.796,-913.211 283.632,-908.975 285.297,-915.991 279.461,-920.227"/>
<text text-anchor="middle" x="272.5" y="-969.5" font-family="Helvetica,sans-Serif" font-size="10.00"> +ptr</text>
</g>
<!-- Node7 -->
<g id="node7" class="node"><title>Node7</title>
<g id="a_node7"><a xlink:href="classRa_1_1Engine_1_1RenderParameters.html" target="_top" xlink:title="{Ra::Engine::RenderParameters\n||+ addParameter()\l+ addParameter()\l+ addParameter()\l+ addParameter()\l+ addParameter()\l+ addParameter()\l+ addParameter()\l+ addParameter()\l+ addParameter()\l+ addParameter()\l+ addParameter()\l+ addParameter()\l+ addParameter()\l+ updateParameter()\l+ updateParameter()\l+ updateParameter()\l+ updateParameter()\l+ updateParameter()\l+ updateParameter()\l+ updateParameter()\l+ updateParameter()\l+ updateParameter()\l+ concatParameters()\l+ bind()\l+ print()\l}">
<polygon fill="white" stroke="black" points="347.5,-282.5 347.5,-603.5 500.5,-603.5 500.5,-282.5 347.5,-282.5"/>
<text text-anchor="middle" x="424" y="-591.5" font-family="Helvetica,sans-Serif" font-size="10.00">Ra::Engine::RenderParameters</text>
<polyline fill="none" stroke="black" points="347.5,-584.5 500.5,-584.5 "/>
<text text-anchor="middle" x="424" y="-572.5" font-family="Helvetica,sans-Serif" font-size="10.00"> </text>
<polyline fill="none" stroke="black" points="347.5,-565.5 500.5,-565.5 "/>
<text text-anchor="start" x="355.5" y="-553.5" font-family="Helvetica,sans-Serif" font-size="10.00">+ addParameter()</text>
<text text-anchor="start" x="355.5" y="-542.5" font-family="Helvetica,sans-Serif" font-size="10.00">+ addParameter()</text>
<text text-anchor="start" x="355.5" y="-531.5" font-family="Helvetica,sans-Serif" font-size="10.00">+ addParameter()</text>
<text text-anchor="start" x="355.5" y="-520.5" font-family="Helvetica,sans-Serif" font-size="10.00">+ addParameter()</text>
<text text-anchor="start" x="355.5" y="-509.5" font-family="Helvetica,sans-Serif" font-size="10.00">+ addParameter()</text>
<text text-anchor="start" x="355.5" y="-498.5" font-family="Helvetica,sans-Serif" font-size="10.00">+ addParameter()</text>
<text text-anchor="start" x="355.5" y="-487.5" font-family="Helvetica,sans-Serif" font-size="10.00">+ addParameter()</text>
<text text-anchor="start" x="355.5" y="-476.5" font-family="Helvetica,sans-Serif" font-size="10.00">+ addParameter()</text>
<text text-anchor="start" x="355.5" y="-465.5" font-family="Helvetica,sans-Serif" font-size="10.00">+ addParameter()</text>
<text text-anchor="start" x="355.5" y="-454.5" font-family="Helvetica,sans-Serif" font-size="10.00">+ addParameter()</text>
<text text-anchor="start" x="355.5" y="-443.5" font-family="Helvetica,sans-Serif" font-size="10.00">+ addParameter()</text>
<text text-anchor="start" x="355.5" y="-432.5" font-family="Helvetica,sans-Serif" font-size="10.00">+ addParameter()</text>
<text text-anchor="start" x="355.5" y="-421.5" font-family="Helvetica,sans-Serif" font-size="10.00">+ addParameter()</text>
<text text-anchor="start" x="355.5" y="-410.5" font-family="Helvetica,sans-Serif" font-size="10.00">+ updateParameter()</text>
<text text-anchor="start" x="355.5" y="-399.5" font-family="Helvetica,sans-Serif" font-size="10.00">+ updateParameter()</text>
<text text-anchor="start" x="355.5" y="-388.5" font-family="Helvetica,sans-Serif" font-size="10.00">+ updateParameter()</text>
<text text-anchor="start" x="355.5" y="-377.5" font-family="Helvetica,sans-Serif" font-size="10.00">+ updateParameter()</text>
<text text-anchor="start" x="355.5" y="-366.5" font-family="Helvetica,sans-Serif" font-size="10.00">+ updateParameter()</text>
<text text-anchor="start" x="355.5" y="-355.5" font-family="Helvetica,sans-Serif" font-size="10.00">+ updateParameter()</text>
<text text-anchor="start" x="355.5" y="-344.5" font-family="Helvetica,sans-Serif" font-size="10.00">+ updateParameter()</text>
<text text-anchor="start" x="355.5" y="-333.5" font-family="Helvetica,sans-Serif" font-size="10.00">+ updateParameter()</text>
<text text-anchor="start" x="355.5" y="-322.5" font-family="Helvetica,sans-Serif" font-size="10.00">+ updateParameter()</text>
<text text-anchor="start" x="355.5" y="-311.5" font-family="Helvetica,sans-Serif" font-size="10.00">+ concatParameters()</text>
<text text-anchor="start" x="355.5" y="-300.5" font-family="Helvetica,sans-Serif" font-size="10.00">+ bind()</text>
<text text-anchor="start" x="355.5" y="-289.5" font-family="Helvetica,sans-Serif" font-size="10.00">+ print()</text>
</a>
</g>
</g>
<!-- Node7&#45;&gt;Node1 -->
<g id="edge6" class="edge"><title>Node7&#45;&gt;Node1</title>
<path fill="none" stroke="#404040" d="M390.498,-282.373C387.908,-270.034 385.315,-257.676 382.777,-245.586"/>
<polygon fill="none" stroke="#404040" points="382.726,-245.341 377.579,-240.29 380.261,-233.597 385.408,-238.647 382.726,-245.341"/>
<text text-anchor="middle" x="406.5" y="-255.5" font-family="Helvetica,sans-Serif" font-size="10.00"> #params</text>
</g>
<!-- Node8 -->
<g id="node8" class="node"><title>Node8</title>
<polygon fill="white" stroke="#bfbfbf" points="235,-668 235,-736 357,-736 357,-668 235,-668"/>
<text text-anchor="start" x="243" y="-724" font-family="Helvetica,sans-Serif" font-size="10.00">std::unique_ptr&lt; Ra</text>
<text text-anchor="middle" x="296" y="-713" font-family="Helvetica,sans-Serif" font-size="10.00">::Engine::LightStorage &gt;</text>
<polyline fill="none" stroke="#bfbfbf" points="235,-706 357,-706 "/>
<text text-anchor="middle" x="296" y="-694" font-family="Helvetica,sans-Serif" font-size="10.00"> </text>
<polyline fill="none" stroke="#bfbfbf" points="235,-687 357,-687 "/>
<text text-anchor="start" x="243" y="-675" font-family="Helvetica,sans-Serif" font-size="10.00">+ operator&#45;&gt;()</text>
</g>
<!-- Node8&#45;&gt;Node1 -->
<g id="edge7" class="edge"><title>Node8&#45;&gt;Node1</title>
<path fill="none" stroke="#404040" d="M292.267,-667.798C285.079,-596.492 272.116,-423.681 297,-282 299.122,-269.917 302.052,-257.548 305.48,-245.287"/>
<polygon fill="none" stroke="#404040" points="305.537,-245.093 303.385,-238.21 308.91,-233.577 311.062,-240.459 305.537,-245.093"/>
<text text-anchor="middle" x="317.5" y="-440.5" font-family="Helvetica,sans-Serif" font-size="10.00"> #m_data</text>
</g>
<!-- Node9 -->
<g id="node9" class="node"><title>Node9</title>
<g id="a_node9"><a xlink:href="classRa_1_1Engine_1_1LightStorage.html" target="_top" xlink:title="Interface providing functions to access and store lights in an implementation&#45;defined way...">
<polygon fill="white" stroke="black" points="387,-813 387,-947 513,-947 513,-813 387,-813"/>
<text text-anchor="middle" x="450" y="-935" font-family="Helvetica,sans-Serif" font-size="10.00">Ra::Engine::LightStorage</text>
<polyline fill="none" stroke="black" points="387,-928 513,-928 "/>
<text text-anchor="middle" x="450" y="-916" font-family="Helvetica,sans-Serif" font-size="10.00"> </text>
<polyline fill="none" stroke="black" points="387,-909 513,-909 "/>
<text text-anchor="start" x="395" y="-897" font-family="Helvetica,sans-Serif" font-size="10.00">+ LightStorage()</text>
<text text-anchor="start" x="395" y="-886" font-family="Helvetica,sans-Serif" font-size="10.00">+ ~LightStorage()</text>
<text text-anchor="start" x="395" y="-875" font-family="Helvetica,sans-Serif" font-size="10.00">+ upload()</text>
<text text-anchor="start" x="395" y="-864" font-family="Helvetica,sans-Serif" font-size="10.00">+ size()</text>
<text text-anchor="start" x="395" y="-853" font-family="Helvetica,sans-Serif" font-size="10.00">+ add()</text>
<text text-anchor="start" x="395" y="-842" font-family="Helvetica,sans-Serif" font-size="10.00">+ remove()</text>
<text text-anchor="start" x="395" y="-831" font-family="Helvetica,sans-Serif" font-size="10.00">+ clear()</text>
<text text-anchor="start" x="395" y="-820" font-family="Helvetica,sans-Serif" font-size="10.00">+ operator[]()</text>
</a>
</g>
</g>
<!-- Node9&#45;&gt;Node8 -->
<g id="edge8" class="edge"><title>Node9&#45;&gt;Node8</title>
<path fill="none" stroke="#404040" d="M449.164,-812.743C446.073,-794.096 439.852,-774.868 428,-760 413.028,-741.217 390.661,-728.501 368.574,-719.945"/>
<polygon fill="none" stroke="#404040" points="368.39,-719.879 361.393,-721.626 357.09,-715.84 364.086,-714.093 368.39,-719.879"/>
<text text-anchor="middle" x="455.5" y="-774.5" font-family="Helvetica,sans-Serif" font-size="10.00"> +ptr</text>
</g>
<!-- Node10&#45;&gt;Node8 -->
<g id="edge9" class="edge"><title>Node10&#45;&gt;Node8</title>
<path fill="none" stroke="orange" d="M294.431,-841.043C294.786,-809.815 295.284,-765.993 295.623,-736.158"/>
<polygon fill="orange" stroke="orange" points="290.931,-841.073 294.317,-851.112 297.93,-841.153 290.931,-841.073"/>
<text text-anchor="middle" x="361.5" y="-774.5" font-family="Helvetica,sans-Serif" font-size="10.00"> &lt; Ra::Engine::LightStorage &gt;</text>
</g>
<!-- Node11 -->
<g id="node11" class="node"><title>Node11</title>
<g id="a_node11"><a xlink:href="structRa_1_1Engine_1_1RenderData.html" target="_top" xlink:title="{Ra::Engine::RenderData\n||}">
<polygon fill="white" stroke="black" points="519,-414.5 519,-471.5 643,-471.5 643,-414.5 519,-414.5"/>
<text text-anchor="middle" x="581" y="-459.5" font-family="Helvetica,sans-Serif" font-size="10.00">Ra::Engine::RenderData</text>
<polyline fill="none" stroke="black" points="519,-452.5 643,-452.5 "/>
<text text-anchor="middle" x="581" y="-440.5" font-family="Helvetica,sans-Serif" font-size="10.00"> </text>
<polyline fill="none" stroke="black" points="519,-433.5 643,-433.5 "/>
<text text-anchor="middle" x="581" y="-421.5" font-family="Helvetica,sans-Serif" font-size="10.00"> </text>
</a>
</g>
</g>
<!-- Node11&#45;&gt;Node1 -->
<g id="edge11" class="edge"><title>Node11&#45;&gt;Node1</title>
<path fill="none" stroke="#404040" d="M571.686,-414.269C559.883,-381.197 537.587,-324.994 509,-282 487.887,-250.246 460.537,-218.787 434.812,-192.044"/>
<polygon fill="none" stroke="#404040" points="434.535,-191.759 427.483,-190.252 426.162,-183.162 433.214,-184.67 434.535,-191.759"/>
<text text-anchor="middle" x="524.5" y="-255.5" font-family="Helvetica,sans-Serif" font-size="10.00"> #renderData</text>
</g>
<!-- Node12 -->
<g id="node12" class="node"><title>Node12</title>
<polygon fill="white" stroke="#bfbfbf" points="517.5,-673.5 517.5,-730.5 552.5,-730.5 552.5,-673.5 517.5,-673.5"/>
<text text-anchor="middle" x="535" y="-718.5" font-family="Helvetica,sans-Serif" font-size="10.00">float</text>
<polyline fill="none" stroke="#bfbfbf" points="517.5,-711.5 552.5,-711.5 "/>
<text text-anchor="middle" x="535" y="-699.5" font-family="Helvetica,sans-Serif" font-size="10.00"> </text>
<polyline fill="none" stroke="#bfbfbf" points="517.5,-692.5 552.5,-692.5 "/>
<text text-anchor="middle" x="535" y="-680.5" font-family="Helvetica,sans-Serif" font-size="10.00"> </text>
</g>
<!-- Node12&#45;&gt;Node11 -->
<g id="edge12" class="edge"><title>Node12&#45;&gt;Node11</title>
<path fill="none" stroke="#404040" d="M539.923,-673.496C548.098,-627.822 564.504,-536.16 573.921,-483.55"/>
<polygon fill="none" stroke="#404040" points="573.929,-483.506 571.048,-476.896 576.043,-471.694 578.923,-478.305 573.929,-483.506"/>
<text text-anchor="middle" x="558" y="-630.5" font-family="Helvetica,sans-Serif" font-size="10.00"> +dt</text>
</g>
<!-- Node13 -->
<g id="node13" class="node"><title>Node13</title>
<polygon fill="white" stroke="#bfbfbf" points="571,-673.5 571,-730.5 683,-730.5 683,-673.5 571,-673.5"/>
<text text-anchor="middle" x="627" y="-718.5" font-family="Helvetica,sans-Serif" font-size="10.00">Matrix&lt; Scalar, 4, 4 &gt;</text>
<polyline fill="none" stroke="#bfbfbf" points="571,-711.5 683,-711.5 "/>
<text text-anchor="middle" x="627" y="-699.5" font-family="Helvetica,sans-Serif" font-size="10.00"> </text>
<polyline fill="none" stroke="#bfbfbf" points="571,-692.5 683,-692.5 "/>
<text text-anchor="middle" x="627" y="-680.5" font-family="Helvetica,sans-Serif" font-size="10.00"> </text>
</g>
<!-- Node13&#45;&gt;Node11 -->
<g id="edge13" class="edge"><title>Node13&#45;&gt;Node11</title>
<path fill="none" stroke="#404040" d="M622.077,-673.496C613.902,-627.822 597.496,-536.16 588.079,-483.55"/>
<polygon fill="none" stroke="#404040" points="588.071,-483.506 583.077,-478.305 585.957,-471.694 590.952,-476.896 588.071,-483.506"/>
<text text-anchor="middle" x="643" y="-636" font-family="Helvetica,sans-Serif" font-size="10.00"> +projMatrix</text>
<text text-anchor="middle" x="643" y="-625" font-family="Helvetica,sans-Serif" font-size="10.00">+viewMatrix</text>
</g>
</g>
</svg>
