<?xml version="1.0" encoding="UTF-8" standalone="no"?>
<!DOCTYPE svg PUBLIC "-//W3C//DTD SVG 1.1//EN"
 "http://www.w3.org/Graphics/SVG/1.1/DTD/svg11.dtd">
<!-- Generated by graphviz version 2.36.0 (20140111.2315)
 -->
<!-- Title: Ra::Engine::Entity Pages: 1 -->
<svg width="138pt" height="508pt"
 viewBox="0.00 0.00 138.00 508.00" xmlns="http://www.w3.org/2000/svg" xmlns:xlink="http://www.w3.org/1999/xlink">
<g id="graph0" class="graph" transform="scale(1 1) rotate(0) translate(4 504)">
<title>Ra::Engine::Entity</title>
<polygon fill="white" stroke="none" points="-4,4 -4,-504 134,-504 134,4 -4,4"/>
<!-- Node1 -->
<g id="node1" class="node"><title>Node1</title>
<polygon fill="#bfbfbf" stroke="black" points="-0.5,-139 -0.5,-383 130.5,-383 130.5,-139 -0.5,-139"/>
<text text-anchor="middle" x="65" y="-371" font-family="Helvetica,sans-Serif" font-size="10.00">Ra::Engine::Entity</text>
<polyline fill="none" stroke="black" points="-0.5,-364 130.5,-364 "/>
<text text-anchor="middle" x="65" y="-352" font-family="Helvetica,sans-Serif" font-size="10.00"> </text>
<polyline fill="none" stroke="black" points="-0.5,-345 130.5,-345 "/>
<text text-anchor="start" x="7.5" y="-333" font-family="Helvetica,sans-Serif" font-size="10.00">+ Entity()</text>
<text text-anchor="start" x="7.5" y="-322" font-family="Helvetica,sans-Serif" font-size="10.00">+ Entity()</text>
<text text-anchor="start" x="7.5" y="-311" font-family="Helvetica,sans-Serif" font-size="10.00">+ operator=()</text>
<text text-anchor="start" x="7.5" y="-300" font-family="Helvetica,sans-Serif" font-size="10.00">+ ~Entity()</text>
<text text-anchor="start" x="7.5" y="-289" font-family="Helvetica,sans-Serif" font-size="10.00">+ getName()</text>
<text text-anchor="start" x="7.5" y="-278" font-family="Helvetica,sans-Serif" font-size="10.00">+ rename()</text>
<text text-anchor="start" x="7.5" y="-267" font-family="Helvetica,sans-Serif" font-size="10.00">+ setTransform()</text>
<text text-anchor="start" x="7.5" y="-256" font-family="Helvetica,sans-Serif" font-size="10.00">+ setTransform()</text>
<text text-anchor="start" x="7.5" y="-245" font-family="Helvetica,sans-Serif" font-size="10.00">+ getTransform()</text>
<text text-anchor="start" x="7.5" y="-234" font-family="Helvetica,sans-Serif" font-size="10.00">+ getTransformAsMatrix()</text>
<text text-anchor="start" x="7.5" y="-223" font-family="Helvetica,sans-Serif" font-size="10.00">+ swapTransformBuffers()</text>
<text text-anchor="start" x="7.5" y="-212" font-family="Helvetica,sans-Serif" font-size="10.00">+ addComponent()</text>
<text text-anchor="start" x="7.5" y="-201" font-family="Helvetica,sans-Serif" font-size="10.00">+ removeComponent()</text>
<text text-anchor="start" x="7.5" y="-190" font-family="Helvetica,sans-Serif" font-size="10.00">+ getComponent()</text>
<text text-anchor="start" x="7.5" y="-179" font-family="Helvetica,sans-Serif" font-size="10.00">+ getComponent()</text>
<text text-anchor="start" x="7.5" y="-168" font-family="Helvetica,sans-Serif" font-size="10.00">+ getComponents()</text>
<text text-anchor="start" x="7.5" y="-157" font-family="Helvetica,sans-Serif" font-size="10.00">+ getNumComponents()</text>
<text text-anchor="start" x="7.5" y="-146" font-family="Helvetica,sans-Serif" font-size="10.00">+ rayCastQuery()</text>
</g>
<!-- Node3 -->
<g id="node3" class="node"><title>Node3</title>
<g id="a_node3"><a xlink:href="classRa_1_1Engine_1_1SystemEntity.html" target="_top" xlink:title="This entity allows to add UI and debug drawables from everywhere in the code. ">
<polygon fill="white" stroke="black" points="-0.5,-0.5 -0.5,-101.5 130.5,-101.5 130.5,-0.5 -0.5,-0.5"/>
<text text-anchor="middle" x="65" y="-89.5" font-family="Helvetica,sans-Serif" font-size="10.00">Ra::Engine::SystemEntity</text>
<polyline fill="none" stroke="black" points="-0.5,-82.5 130.5,-82.5 "/>
<text text-anchor="middle" x="65" y="-70.5" font-family="Helvetica,sans-Serif" font-size="10.00"> </text>
<polyline fill="none" stroke="black" points="-0.5,-63.5 130.5,-63.5 "/>
<text text-anchor="start" x="7.5" y="-51.5" font-family="Helvetica,sans-Serif" font-size="10.00">+ SystemEntity()</text>
<text text-anchor="start" x="7.5" y="-40.5" font-family="Helvetica,sans-Serif" font-size="10.00">+ ~SystemEntity()</text>
<text text-anchor="start" x="7.5" y="-29.5" font-family="Helvetica,sans-Serif" font-size="10.00">+ rayCastQuery()</text>
<text text-anchor="start" x="7.5" y="-18.5" font-family="Helvetica,sans-Serif" font-size="10.00">+ dbgCmp()</text>
<text text-anchor="start" x="7.5" y="-7.5" font-family="Helvetica,sans-Serif" font-size="10.00">+ uiCmp()</text>
</a>
</g>
</g>
<!-- Node1&#45;&gt;Node3 -->
<g id="edge2" class="edge"><title>Node1&#45;&gt;Node3</title>
<path fill="none" stroke="midnightblue" d="M65,-128.429C65,-119.06 65,-110.014 65,-101.624"/>
<polygon fill="none" stroke="midnightblue" points="61.5001,-128.705 65,-138.705 68.5001,-128.705 61.5001,-128.705"/>
</g>
<!-- Node2 -->
<g id="node2" class="node"><title>Node2</title>
<g id="a_node2"><a xlink:href="classRa_1_1Core_1_1IndexedObject.html" target="_top" xlink:title="{Ra::Core::IndexedObject\n|+ idx\l|+ IndexedObject()\l+ IndexedObject()\l+ ~IndexedObject()\l}">
<polygon fill="white" stroke="black" points="2.5,-420.5 2.5,-499.5 127.5,-499.5 127.5,-420.5 2.5,-420.5"/>
<text text-anchor="middle" x="65" y="-487.5" font-family="Helvetica,sans-Serif" font-size="10.00">Ra::Core::IndexedObject</text>
<polyline fill="none" stroke="black" points="2.5,-480.5 127.5,-480.5 "/>
<text text-anchor="start" x="10.5" y="-468.5" font-family="Helvetica,sans-Serif" font-size="10.00">+ idx</text>
<polyline fill="none" stroke="black" points="2.5,-461.5 127.5,-461.5 "/>
<text text-anchor="start" x="10.5" y="-449.5" font-family="Helvetica,sans-Serif" font-size="10.00">+ IndexedObject()</text>
<text text-anchor="start" x="10.5" y="-438.5" font-family="Helvetica,sans-Serif" font-size="10.00">+ IndexedObject()</text>
<text text-anchor="start" x="10.5" y="-427.5" font-family="Helvetica,sans-Serif" font-size="10.00">+ ~IndexedObject()</text>
</a>
</g>
</g>
<!-- Node2&#45;&gt;Node1 -->
<g id="edge1" class="edge"><title>Node2&#45;&gt;Node1</title>
<path fill="none" stroke="midnightblue" d="M65,-409.899C65,-401.574 65,-392.613 65,-383.367"/>
<polygon fill="none" stroke="midnightblue" points="61.5001,-410.079 65,-420.079 68.5001,-410.079 61.5001,-410.079"/>
</g>
</g>
</svg>
