<?xml version="1.0" encoding="UTF-8" standalone="no"?>
<!DOCTYPE svg PUBLIC "-//W3C//DTD SVG 1.1//EN"
 "http://www.w3.org/Graphics/SVG/1.1/DTD/svg11.dtd">
<!-- Generated by graphviz version 2.36.0 (20140111.2315)
 -->
<!-- Title: Ra::Core::CubicBezier::df Pages: 1 -->
<svg width="458pt" height="28pt"
 viewBox="0.00 0.00 458.00 28.00" xmlns="http://www.w3.org/2000/svg" xmlns:xlink="http://www.w3.org/1999/xlink">
<g id="graph0" class="graph" transform="scale(1 1) rotate(0) translate(4 24)">
<title>Ra::Core::CubicBezier::df</title>
<polygon fill="white" stroke="none" points="-4,4 -4,-24 454,-24 454,4 -4,4"/>
<!-- Node1 -->
<g id="node1" class="node"><title>Node1</title>
<polygon fill="#bfbfbf" stroke="black" points="0,-0.5 0,-19.5 130,-19.5 130,-0.5 0,-0.5"/>
<text text-anchor="middle" x="65" y="-7.5" font-family="Helvetica,sans-Serif" font-size="10.00">Ra::Core::CubicBezier::df</text>
</g>
<!-- Node2 -->
<g id="node2" class="node"><title>Node2</title>
<g id="a_node2"><a xlink:href="classRa_1_1Core_1_1CubicBezier.html#aeb118f91de8aa69ff729b9ffd781d332" target="_top" xlink:title="Ra::Core::CubicBezier::fdf">
<polygon fill="white" stroke="black" points="166.5,-0.5 166.5,-19.5 299.5,-19.5 299.5,-0.5 166.5,-0.5"/>
<text text-anchor="middle" x="233" y="-7.5" font-family="Helvetica,sans-Serif" font-size="10.00">Ra::Core::CubicBezier::fdf</text>
</a>
</g>
</g>
<!-- Node1&#45;&gt;Node2 -->
<g id="edge1" class="edge"><title>Node1&#45;&gt;Node2</title>
<path fill="none" stroke="midnightblue" d="M130.18,-10C138.705,-10 147.509,-10 156.207,-10"/>
<polygon fill="midnightblue" stroke="midnightblue" points="156.346,-13.5001 166.346,-10 156.346,-6.5001 156.346,-13.5001"/>
</g>
<!-- Node3 -->
<g id="node3" class="node"><title>Node3</title>
<g id="a_node3"><a xlink:href="namespaceRa_1_1Core_1_1Algorithm.html#aea294cdb6f4f0d85955bdcccb22886ec" target="_top" xlink:title="Ra::Core::Algorithm::t">
<polygon fill="white" stroke="black" points="336.5,-0.5 336.5,-19.5 449.5,-19.5 449.5,-0.5 336.5,-0.5"/>
<text text-anchor="middle" x="393" y="-7.5" font-family="Helvetica,sans-Serif" font-size="10.00">Ra::Core::Algorithm::t</text>
</a>
</g>
</g>
<!-- Node2&#45;&gt;Node3 -->
<g id="edge2" class="edge"><title>Node2&#45;&gt;Node3</title>
<path fill="none" stroke="midnightblue" d="M299.634,-10C308.409,-10 317.411,-10 326.189,-10"/>
<polygon fill="midnightblue" stroke="midnightblue" points="326.365,-13.5001 336.365,-10 326.365,-6.5001 326.365,-13.5001"/>
</g>
</g>
</svg>
