<?xml version="1.0" encoding="UTF-8" standalone="no"?>
<!DOCTYPE svg PUBLIC "-//W3C//DTD SVG 1.1//EN"
 "http://www.w3.org/Graphics/SVG/1.1/DTD/svg11.dtd">
<!-- Generated by graphviz version 2.36.0 (20140111.2315)
 -->
<!-- Title: Ra::Gui::Gizmo::~Gizmo Pages: 1 -->
<svg width="806pt" height="87pt"
 viewBox="0.00 0.00 806.00 87.00" xmlns="http://www.w3.org/2000/svg" xmlns:xlink="http://www.w3.org/1999/xlink">
<g id="graph0" class="graph" transform="scale(1 1) rotate(0) translate(4 83)">
<title>Ra::Gui::Gizmo::~Gizmo</title>
<polygon fill="white" stroke="none" points="-4,4 -4,-83 802,-83 802,4 -4,4"/>
<!-- Node1 -->
<g id="node1" class="node"><title>Node1</title>
<polygon fill="#bfbfbf" stroke="black" points="0.5,-29.5 0.5,-48.5 125.5,-48.5 125.5,-29.5 0.5,-29.5"/>
<text text-anchor="middle" x="63" y="-36.5" font-family="Helvetica,sans-Serif" font-size="10.00">Ra::Gui::Gizmo::~Gizmo</text>
</g>
<!-- Node2 -->
<g id="node2" class="node"><title>Node2</title>
<g id="a_node2"><a xlink:href="classRa_1_1Engine_1_1Component.html#ac3656c36e62317a256de34f0df2cbdbb" target="_top" xlink:title="Remove the render object from the component. ">
<polygon fill="white" stroke="black" points="162,-24 162,-54 284,-54 284,-24 162,-24"/>
<text text-anchor="start" x="170" y="-42" font-family="Helvetica,sans-Serif" font-size="10.00">Ra::Engine::Component</text>
<text text-anchor="middle" x="223" y="-31" font-family="Helvetica,sans-Serif" font-size="10.00">::removeRenderObject</text>
</a>
</g>
</g>
<!-- Node1&#45;&gt;Node2 -->
<g id="edge1" class="edge"><title>Node1&#45;&gt;Node2</title>
<path fill="none" stroke="midnightblue" d="M125.539,-39C134.134,-39 143.018,-39 151.758,-39"/>
<polygon fill="midnightblue" stroke="midnightblue" points="151.925,-42.5001 161.925,-39 151.925,-35.5001 151.925,-42.5001"/>
</g>
<!-- Node3 -->
<g id="node3" class="node"><title>Node3</title>
<g id="a_node3"><a xlink:href="classRa_1_1Engine_1_1Component.html#a10b0bc182b76165744ebea603ae32dfe" target="_top" xlink:title="Shortcut to access the render object manager. ">
<polygon fill="white" stroke="black" points="335,-49 335,-79 457,-79 457,-49 335,-49"/>
<text text-anchor="start" x="343" y="-67" font-family="Helvetica,sans-Serif" font-size="10.00">Ra::Engine::Component</text>
<text text-anchor="middle" x="396" y="-56" font-family="Helvetica,sans-Serif" font-size="10.00">::getRoMgr</text>
</a>
</g>
</g>
<!-- Node2&#45;&gt;Node3 -->
<g id="edge2" class="edge"><title>Node2&#45;&gt;Node3</title>
<path fill="none" stroke="midnightblue" d="M284.288,-47.8141C297.391,-49.7297 311.361,-51.7721 324.809,-53.7382"/>
<polygon fill="midnightblue" stroke="midnightblue" points="324.567,-57.2399 334.968,-55.2234 325.58,-50.3135 324.567,-57.2399"/>
</g>
<!-- Node4 -->
<g id="node4" class="node"><title>Node4</title>
<g id="a_node4"><a xlink:href="classRa_1_1Engine_1_1RenderObjectManager.html#a95309666be383bc25eed4dad71d06310" target="_top" xlink:title="Ra::Engine::RenderObject\lManager::removeRenderObject">
<polygon fill="white" stroke="black" points="320,-0 320,-30 472,-30 472,-0 320,-0"/>
<text text-anchor="start" x="328" y="-18" font-family="Helvetica,sans-Serif" font-size="10.00">Ra::Engine::RenderObject</text>
<text text-anchor="middle" x="396" y="-7" font-family="Helvetica,sans-Serif" font-size="10.00">Manager::removeRenderObject</text>
</a>
</g>
</g>
<!-- Node2&#45;&gt;Node4 -->
<g id="edge3" class="edge"><title>Node2&#45;&gt;Node4</title>
<path fill="none" stroke="midnightblue" d="M284.288,-30.5385C292.582,-29.3745 301.223,-28.1617 309.859,-26.9496"/>
<polygon fill="midnightblue" stroke="midnightblue" points="310.557,-30.386 319.974,-25.53 309.584,-23.454 310.557,-30.386"/>
</g>
<!-- Node5 -->
<g id="node5" class="node"><title>Node5</title>
<g id="a_node5"><a xlink:href="classRa_1_1Engine_1_1RenderObjectManager.html#a4077b9cf9e1e4d62fd5456386f2d72c8" target="_top" xlink:title="Returns true if the index points to a valid render object. ">
<polygon fill="white" stroke="black" points="508.5,-0 508.5,-30 639.5,-30 639.5,-0 508.5,-0"/>
<text text-anchor="start" x="516.5" y="-18" font-family="Helvetica,sans-Serif" font-size="10.00">Ra::Engine::RenderObject</text>
<text text-anchor="middle" x="574" y="-7" font-family="Helvetica,sans-Serif" font-size="10.00">Manager::exists</text>
</a>
</g>
</g>
<!-- Node4&#45;&gt;Node5 -->
<g id="edge4" class="edge"><title>Node4&#45;&gt;Node5</title>
<path fill="none" stroke="midnightblue" d="M472.15,-15C480.813,-15 489.646,-15 498.302,-15"/>
<polygon fill="midnightblue" stroke="midnightblue" points="498.363,-18.5001 508.363,-15 498.363,-11.5001 498.363,-18.5001"/>
</g>
<!-- Node6 -->
<g id="node6" class="node"><title>Node6</title>
<g id="a_node6"><a xlink:href="classRa_1_1Core_1_1Index.html#a87c70243f30c65c1a24834d1829bda01" target="_top" xlink:title="DESTRUCTOR: Must not be defined, we need it trivial to be constexpr. ">
<polygon fill="white" stroke="black" points="676,-5.5 676,-24.5 798,-24.5 798,-5.5 676,-5.5"/>
<text text-anchor="middle" x="737" y="-12.5" font-family="Helvetica,sans-Serif" font-size="10.00">Ra::Core::Index::isValid</text>
</a>
</g>
</g>
<!-- Node5&#45;&gt;Node6 -->
<g id="edge5" class="edge"><title>Node5&#45;&gt;Node6</title>
<path fill="none" stroke="midnightblue" d="M639.557,-15C648.172,-15 657.04,-15 665.745,-15"/>
<polygon fill="midnightblue" stroke="midnightblue" points="665.865,-18.5001 675.865,-15 665.865,-11.5001 665.865,-18.5001"/>
</g>
</g>
</svg>
