<?xml version="1.0" encoding="UTF-8" standalone="no"?>
<!DOCTYPE svg PUBLIC "-//W3C//DTD SVG 1.1//EN"
 "http://www.w3.org/Graphics/SVG/1.1/DTD/svg11.dtd">
<!-- Generated by graphviz version 2.36.0 (20140111.2315)
 -->
<!-- Title: Ra::Engine::RenderParameters::Parameter Pages: 1 -->
<svg width="160pt" height="216pt"
 viewBox="0.00 0.00 160.00 216.00" xmlns="http://www.w3.org/2000/svg" xmlns:xlink="http://www.w3.org/1999/xlink">
<g id="graph0" class="graph" transform="scale(1 1) rotate(0) translate(4 212)">
<title>Ra::Engine::RenderParameters::Parameter</title>
<polygon fill="white" stroke="none" points="-4,4 -4,-212 156,-212 156,4 -4,4"/>
<!-- Node1 -->
<g id="node1" class="node"><title>Node1</title>
<polygon fill="#bfbfbf" stroke="black" points="-0.5,-0.5 -0.5,-101.5 152.5,-101.5 152.5,-0.5 -0.5,-0.5"/>
<text text-anchor="start" x="7.5" y="-89.5" font-family="Helvetica,sans-Serif" font-size="10.00">Ra::Engine::RenderParameters</text>
<text text-anchor="middle" x="76" y="-78.5" font-family="Helvetica,sans-Serif" font-size="10.00">::Parameter</text>
<polyline fill="none" stroke="black" points="-0.5,-71.5 152.5,-71.5 "/>
<text text-anchor="middle" x="76" y="-59.5" font-family="Helvetica,sans-Serif" font-size="10.00"> </text>
<polyline fill="none" stroke="black" points="-0.5,-52.5 152.5,-52.5 "/>
<text text-anchor="start" x="7.5" y="-40.5" font-family="Helvetica,sans-Serif" font-size="10.00">+ Parameter()</text>
<text text-anchor="start" x="7.5" y="-29.5" font-family="Helvetica,sans-Serif" font-size="10.00">+ Parameter()</text>
<text text-anchor="start" x="7.5" y="-18.5" font-family="Helvetica,sans-Serif" font-size="10.00">+ ~Parameter()</text>
<text text-anchor="start" x="7.5" y="-7.5" font-family="Helvetica,sans-Serif" font-size="10.00">+ bind()</text>
</g>
<!-- Node2 -->
<g id="node2" class="node"><title>Node2</title>
<polygon fill="white" stroke="#bfbfbf" points="41.5,-150.5 41.5,-207.5 110.5,-207.5 110.5,-150.5 41.5,-150.5"/>
<text text-anchor="middle" x="76" y="-195.5" font-family="Helvetica,sans-Serif" font-size="10.00">const char *</text>
<polyline fill="none" stroke="#bfbfbf" points="41.5,-188.5 110.5,-188.5 "/>
<text text-anchor="middle" x="76" y="-176.5" font-family="Helvetica,sans-Serif" font-size="10.00"> </text>
<polyline fill="none" stroke="#bfbfbf" points="41.5,-169.5 110.5,-169.5 "/>
<text text-anchor="middle" x="76" y="-157.5" font-family="Helvetica,sans-Serif" font-size="10.00"> </text>
</g>
<!-- Node2&#45;&gt;Node1 -->
<g id="edge1" class="edge"><title>Node2&#45;&gt;Node1</title>
<path fill="none" stroke="#404040" d="M76,-150.349C76,-139.534 76,-126.664 76,-113.858"/>
<polygon fill="none" stroke="#404040" points="76.0001,-113.668 72,-107.668 76,-101.668 80,-107.668 76.0001,-113.668"/>
<text text-anchor="middle" x="99.5" y="-123.5" font-family="Helvetica,sans-Serif" font-size="10.00"> +m_name</text>
</g>
</g>
</svg>
