<?xml version="1.0" encoding="UTF-8" standalone="no"?>
<!DOCTYPE svg PUBLIC "-//W3C//DTD SVG 1.1//EN"
 "http://www.w3.org/Graphics/SVG/1.1/DTD/svg11.dtd">
<!-- Generated by graphviz version 2.36.0 (20140111.2315)
 -->
<!-- Title: Ra::Core::PolyLine::getSegmentIndex Pages: 1 -->
<svg width="422pt" height="77pt"
 viewBox="0.00 0.00 422.00 77.00" xmlns="http://www.w3.org/2000/svg" xmlns:xlink="http://www.w3.org/1999/xlink">
<g id="graph0" class="graph" transform="scale(1 1) rotate(0) translate(4 73)">
<title>Ra::Core::PolyLine::getSegmentIndex</title>
<polygon fill="white" stroke="none" points="-4,4 -4,-73 418,-73 418,4 -4,4"/>
<!-- Node1 -->
<g id="node1" class="node"><title>Node1</title>
<polygon fill="#bfbfbf" stroke="black" points="0,-17 0,-47 100,-47 100,-17 0,-17"/>
<text text-anchor="start" x="8" y="-35" font-family="Helvetica,sans-Serif" font-size="10.00">Ra::Core::PolyLine</text>
<text text-anchor="middle" x="50" y="-24" font-family="Helvetica,sans-Serif" font-size="10.00">::getSegmentIndex</text>
</g>
<!-- Node2 -->
<g id="node2" class="node"><title>Node2</title>
<g id="a_node2"><a xlink:href="classRa_1_1Core_1_1PolyLine.html#a46ebdffebb144909dfe7e11f4aa41774" target="_top" xlink:title="Get the total length of the line . ">
<polygon fill="white" stroke="black" points="149,-39 149,-69 249,-69 249,-39 149,-39"/>
<text text-anchor="start" x="157" y="-57" font-family="Helvetica,sans-Serif" font-size="10.00">Ra::Core::PolyLine</text>
<text text-anchor="middle" x="199" y="-46" font-family="Helvetica,sans-Serif" font-size="10.00">::length</text>
</a>
</g>
</g>
<!-- Node1&#45;&gt;Node2 -->
<g id="edge1" class="edge"><title>Node1&#45;&gt;Node2</title>
<path fill="none" stroke="midnightblue" d="M100.358,-39.3869C112.665,-41.2288 125.988,-43.2227 138.72,-45.1281"/>
<polygon fill="midnightblue" stroke="midnightblue" points="138.365,-48.6139 148.772,-46.6326 139.401,-41.691 138.365,-48.6139"/>
</g>
<!-- Node3 -->
<g id="node3" class="node"><title>Node3</title>
<g id="a_node3"><a xlink:href="namespaceRa_1_1Core_1_1Math.html#ac59d3507a0a632719542d21a16a11bba" target="_top" xlink:title="Clamps the value between 0 and 1. ">
<polygon fill="white" stroke="black" points="136.5,-0.5 136.5,-19.5 261.5,-19.5 261.5,-0.5 136.5,-0.5"/>
<text text-anchor="middle" x="199" y="-7.5" font-family="Helvetica,sans-Serif" font-size="10.00">Ra::Core::Math::saturate</text>
</a>
</g>
</g>
<!-- Node1&#45;&gt;Node3 -->
<g id="edge2" class="edge"><title>Node1&#45;&gt;Node3</title>
<path fill="none" stroke="midnightblue" d="M100.358,-24.6131C108.781,-23.3524 117.681,-22.0205 126.541,-20.6946"/>
<polygon fill="midnightblue" stroke="midnightblue" points="127.128,-24.1458 136.5,-19.2041 126.092,-17.2229 127.128,-24.1458"/>
</g>
<!-- Node4 -->
<g id="node4" class="node"><title>Node4</title>
<g id="a_node4"><a xlink:href="namespaceRa_1_1Core_1_1Math.html#a43a856c00d750c5f5c28f362b5df8664" target="_top" xlink:title="Returns value v clamped between bounds min and max. ">
<polygon fill="white" stroke="black" points="298,-0.5 298,-19.5 414,-19.5 414,-0.5 298,-0.5"/>
<text text-anchor="middle" x="356" y="-7.5" font-family="Helvetica,sans-Serif" font-size="10.00">Ra::Core::Math::clamp</text>
</a>
</g>
</g>
<!-- Node3&#45;&gt;Node4 -->
<g id="edge3" class="edge"><title>Node3&#45;&gt;Node4</title>
<path fill="none" stroke="midnightblue" d="M261.705,-10C270.261,-10 279.085,-10 287.736,-10"/>
<polygon fill="midnightblue" stroke="midnightblue" points="287.785,-13.5001 297.785,-10 287.785,-6.5001 287.785,-13.5001"/>
</g>
</g>
</svg>
