<?xml version="1.0" encoding="UTF-8" standalone="no"?>
<!DOCTYPE svg PUBLIC "-//W3C//DTD SVG 1.1//EN"
 "http://www.w3.org/Graphics/SVG/1.1/DTD/svg11.dtd">
<!-- Generated by graphviz version 2.36.0 (20140111.2315)
 -->
<!-- Title: Ra::Engine::RenderObject::render Pages: 1 -->
<svg width="656pt" height="260pt"
 viewBox="0.00 0.00 656.00 260.00" xmlns="http://www.w3.org/2000/svg" xmlns:xlink="http://www.w3.org/1999/xlink">
<g id="graph0" class="graph" transform="scale(1 1) rotate(0) translate(4 256)">
<title>Ra::Engine::RenderObject::render</title>
<polygon fill="white" stroke="none" points="-4,4 -4,-256 652,-256 652,4 -4,4"/>
<!-- Node1 -->
<g id="node1" class="node"><title>Node1</title>
<polygon fill="#bfbfbf" stroke="black" points="0.5,-99 0.5,-129 131.5,-129 131.5,-99 0.5,-99"/>
<text text-anchor="start" x="8.5" y="-117" font-family="Helvetica,sans-Serif" font-size="10.00">Ra::Engine::RenderObject</text>
<text text-anchor="middle" x="66" y="-106" font-family="Helvetica,sans-Serif" font-size="10.00">::render</text>
</g>
<!-- Node2 -->
<g id="node2" class="node"><title>Node2</title>
<g id="a_node2"><a xlink:href="classRa_1_1Engine_1_1RenderObject.html#a0c9fad6464792d18ca873404fd657567" target="_top" xlink:title="Ra::Engine::RenderObject\l::getTransformAsMatrix">
<polygon fill="white" stroke="black" points="179.5,-197 179.5,-227 310.5,-227 310.5,-197 179.5,-197"/>
<text text-anchor="start" x="187.5" y="-215" font-family="Helvetica,sans-Serif" font-size="10.00">Ra::Engine::RenderObject</text>
<text text-anchor="middle" x="245" y="-204" font-family="Helvetica,sans-Serif" font-size="10.00">::getTransformAsMatrix</text>
</a>
</g>
</g>
<!-- Node1&#45;&gt;Node2 -->
<g id="edge1" class="edge"><title>Node1&#45;&gt;Node2</title>
<path fill="none" stroke="midnightblue" d="M84.5116,-129.259C103.833,-145.45 136.395,-170.873 168,-187 172.334,-189.212 176.905,-191.286 181.567,-193.219"/>
<polygon fill="midnightblue" stroke="midnightblue" points="180.63,-196.611 191.218,-196.989 183.177,-190.09 180.63,-196.611"/>
</g>
<!-- Node6 -->
<g id="node6" class="node"><title>Node6</title>
<g id="a_node6"><a xlink:href="classRa_1_1Engine_1_1ShaderProgram.html#a63faeab38c95dbcb4514a94c1e785890" target="_top" xlink:title="Ra::Engine::ShaderProgram\l::bind">
<polygon fill="white" stroke="black" points="175.5,-148 175.5,-178 314.5,-178 314.5,-148 175.5,-148"/>
<text text-anchor="start" x="183.5" y="-166" font-family="Helvetica,sans-Serif" font-size="10.00">Ra::Engine::ShaderProgram</text>
<text text-anchor="middle" x="245" y="-155" font-family="Helvetica,sans-Serif" font-size="10.00">::bind</text>
</a>
</g>
</g>
<!-- Node1&#45;&gt;Node6 -->
<g id="edge5" class="edge"><title>Node1&#45;&gt;Node6</title>
<path fill="none" stroke="midnightblue" d="M121.55,-129.101C139.974,-134.202 160.712,-139.943 179.812,-145.23"/>
<polygon fill="midnightblue" stroke="midnightblue" points="179.059,-148.653 189.63,-147.948 180.926,-141.907 179.059,-148.653"/>
</g>
<!-- Node7 -->
<g id="node7" class="node"><title>Node7</title>
<g id="a_node7"><a xlink:href="classRa_1_1Engine_1_1ShaderProgram.html#a5f7ae2880276f421c378810e3da65c4c" target="_top" xlink:title="Ra::Engine::ShaderProgram\l::setUniform">
<polygon fill="white" stroke="black" points="175.5,-99 175.5,-129 314.5,-129 314.5,-99 175.5,-99"/>
<text text-anchor="start" x="183.5" y="-117" font-family="Helvetica,sans-Serif" font-size="10.00">Ra::Engine::ShaderProgram</text>
<text text-anchor="middle" x="245" y="-106" font-family="Helvetica,sans-Serif" font-size="10.00">::setUniform</text>
</a>
</g>
</g>
<!-- Node1&#45;&gt;Node7 -->
<g id="edge6" class="edge"><title>Node1&#45;&gt;Node7</title>
<path fill="none" stroke="midnightblue" d="M131.652,-114C142.54,-114 153.948,-114 165.148,-114"/>
<polygon fill="midnightblue" stroke="midnightblue" points="165.353,-117.5 175.353,-114 165.353,-110.5 165.353,-117.5"/>
</g>
<!-- Node8 -->
<g id="node8" class="node"><title>Node8</title>
<g id="a_node8"><a xlink:href="classRa_1_1Engine_1_1RenderParameters.html#a0e08655c1c564da49146bcf7b382a1e4" target="_top" xlink:title="Ra::Engine::RenderParameters\l::bind">
<polygon fill="white" stroke="black" points="168.5,-50 168.5,-80 321.5,-80 321.5,-50 168.5,-50"/>
<text text-anchor="start" x="176.5" y="-68" font-family="Helvetica,sans-Serif" font-size="10.00">Ra::Engine::RenderParameters</text>
<text text-anchor="middle" x="245" y="-57" font-family="Helvetica,sans-Serif" font-size="10.00">::bind</text>
</a>
</g>
</g>
<!-- Node1&#45;&gt;Node8 -->
<g id="edge7" class="edge"><title>Node1&#45;&gt;Node8</title>
<path fill="none" stroke="midnightblue" d="M121.55,-98.8986C139.974,-93.7981 160.712,-88.0571 179.812,-82.7695"/>
<polygon fill="midnightblue" stroke="midnightblue" points="180.926,-86.0928 189.63,-80.0516 179.059,-79.3465 180.926,-86.0928"/>
</g>
<!-- Node9 -->
<g id="node9" class="node"><title>Node9</title>
<g id="a_node9"><a xlink:href="classRa_1_1Engine_1_1RenderObject.html#a2d4f1d69544319def1b53ae6a66def9f" target="_top" xlink:title="Ra::Engine::RenderObject\l::getMesh">
<polygon fill="white" stroke="black" points="179.5,-1 179.5,-31 310.5,-31 310.5,-1 179.5,-1"/>
<text text-anchor="start" x="187.5" y="-19" font-family="Helvetica,sans-Serif" font-size="10.00">Ra::Engine::RenderObject</text>
<text text-anchor="middle" x="245" y="-8" font-family="Helvetica,sans-Serif" font-size="10.00">::getMesh</text>
</a>
</g>
</g>
<!-- Node1&#45;&gt;Node9 -->
<g id="edge8" class="edge"><title>Node1&#45;&gt;Node9</title>
<path fill="none" stroke="midnightblue" d="M84.5116,-98.7408C103.833,-82.5504 136.395,-57.1269 168,-41 172.334,-38.7884 176.905,-36.714 181.567,-34.7806"/>
<polygon fill="midnightblue" stroke="midnightblue" points="183.177,-37.9096 191.218,-31.0112 180.63,-31.3893 183.177,-37.9096"/>
</g>
<!-- Node3 -->
<g id="node3" class="node"><title>Node3</title>
<g id="a_node3"><a xlink:href="classRa_1_1Engine_1_1RenderObject.html#a46deaf8ca7b8eed5f2cbfaca72354d1a" target="_top" xlink:title="Ra::Engine::RenderObject\l::getTransform">
<polygon fill="white" stroke="black" points="358.5,-197 358.5,-227 489.5,-227 489.5,-197 358.5,-197"/>
<text text-anchor="start" x="366.5" y="-215" font-family="Helvetica,sans-Serif" font-size="10.00">Ra::Engine::RenderObject</text>
<text text-anchor="middle" x="424" y="-204" font-family="Helvetica,sans-Serif" font-size="10.00">::getTransform</text>
</a>
</g>
</g>
<!-- Node2&#45;&gt;Node3 -->
<g id="edge2" class="edge"><title>Node2&#45;&gt;Node3</title>
<path fill="none" stroke="midnightblue" d="M310.652,-212C322.765,-212 335.522,-212 347.92,-212"/>
<polygon fill="midnightblue" stroke="midnightblue" points="348.227,-215.5 358.227,-212 348.227,-208.5 348.227,-215.5"/>
</g>
<!-- Node4 -->
<g id="node4" class="node"><title>Node4</title>
<g id="a_node4"><a xlink:href="classRa_1_1Engine_1_1Component.html#a207c1dc2e97856c22e0767fb77162933" target="_top" xlink:title="Return the entity the component belongs to. ">
<polygon fill="white" stroke="black" points="526,-222 526,-252 648,-252 648,-222 526,-222"/>
<text text-anchor="start" x="534" y="-240" font-family="Helvetica,sans-Serif" font-size="10.00">Ra::Engine::Component</text>
<text text-anchor="middle" x="587" y="-229" font-family="Helvetica,sans-Serif" font-size="10.00">::getEntity</text>
</a>
</g>
</g>
<!-- Node3&#45;&gt;Node4 -->
<g id="edge3" class="edge"><title>Node3&#45;&gt;Node4</title>
<path fill="none" stroke="midnightblue" d="M489.557,-222.024C498.172,-223.362 507.04,-224.739 515.745,-226.091"/>
<polygon fill="midnightblue" stroke="midnightblue" points="515.447,-229.586 525.865,-227.662 516.521,-222.669 515.447,-229.586"/>
</g>
<!-- Node5 -->
<g id="node5" class="node"><title>Node5</title>
<g id="a_node5"><a xlink:href="classRa_1_1Engine_1_1Entity.html#adf0ef19e4b56e1d213b9898b60fe0e74" target="_top" xlink:title="Ra::Engine::Entity\l::getTransform">
<polygon fill="white" stroke="black" points="538.5,-173 538.5,-203 635.5,-203 635.5,-173 538.5,-173"/>
<text text-anchor="start" x="546.5" y="-191" font-family="Helvetica,sans-Serif" font-size="10.00">Ra::Engine::Entity</text>
<text text-anchor="middle" x="587" y="-180" font-family="Helvetica,sans-Serif" font-size="10.00">::getTransform</text>
</a>
</g>
</g>
<!-- Node3&#45;&gt;Node5 -->
<g id="edge4" class="edge"><title>Node3&#45;&gt;Node5</title>
<path fill="none" stroke="midnightblue" d="M489.557,-202.377C502.397,-200.463 515.8,-198.465 528.389,-196.588"/>
<polygon fill="midnightblue" stroke="midnightblue" points="528.909,-200.049 538.284,-195.113 527.877,-193.126 528.909,-200.049"/>
</g>
</g>
</svg>
