<?xml version="1.0" encoding="UTF-8" standalone="no"?>
<!DOCTYPE svg PUBLIC "-//W3C//DTD SVG 1.1//EN"
 "http://www.w3.org/Graphics/SVG/1.1/DTD/svg11.dtd">
<!-- Generated by graphviz version 2.36.0 (20140111.2315)
 -->
<!-- Title: Ra::Asset::KeyScaling Pages: 1 -->
<svg width="681pt" height="1356pt"
 viewBox="0.00 0.00 681.00 1356.00" xmlns="http://www.w3.org/2000/svg" xmlns:xlink="http://www.w3.org/1999/xlink">
<g id="graph0" class="graph" transform="scale(1 1) rotate(0) translate(4 1352)">
<title>Ra::Asset::KeyScaling</title>
<polygon fill="white" stroke="none" points="-4,4 -4,-1352 677,-1352 677,4 -4,4"/>
<!-- Node1 -->
<g id="node1" class="node"><title>Node1</title>
<polygon fill="#bfbfbf" stroke="black" points="355,-0.5 355,-101.5 471,-101.5 471,-0.5 355,-0.5"/>
<text text-anchor="middle" x="413" y="-89.5" font-family="Helvetica,sans-Serif" font-size="10.00">Ra::Asset::KeyScaling</text>
<polyline fill="none" stroke="black" points="355,-82.5 471,-82.5 "/>
<text text-anchor="middle" x="413" y="-70.5" font-family="Helvetica,sans-Serif" font-size="10.00"> </text>
<polyline fill="none" stroke="black" points="355,-63.5 471,-63.5 "/>
<text text-anchor="start" x="363" y="-51.5" font-family="Helvetica,sans-Serif" font-size="10.00">+ KeyScaling()</text>
<text text-anchor="start" x="363" y="-40.5" font-family="Helvetica,sans-Serif" font-size="10.00">+ KeyScaling()</text>
<text text-anchor="start" x="363" y="-29.5" font-family="Helvetica,sans-Serif" font-size="10.00">+ ~KeyScaling()</text>
<text text-anchor="start" x="363" y="-18.5" font-family="Helvetica,sans-Serif" font-size="10.00"># defaultFrame()</text>
<text text-anchor="start" x="363" y="-7.5" font-family="Helvetica,sans-Serif" font-size="10.00"># interpolate()</text>
</g>
<!-- Node2 -->
<g id="node2" class="node"><title>Node2</title>
<g id="a_node2"><a xlink:href="classRa_1_1Asset_1_1KeyFrame.html" target="_top" xlink:title="{Ra::Asset::KeyFrame\l\&lt; Core::Vector3 \&gt;\n||+ KeyFrame()\l+ KeyFrame()\l+ ~KeyFrame()\l+ getAnimationTime()\l+ setAnimationTime()\l+ getKeyFrame()\l+ getKeyFrame()\l+ at()\l+ setKeyFrame()\l+ setKeyFrame()\l+ insertKeyFrame()\l+ size()\l+ clear()\l+ empty()\l+ timeSchedule()\l+ reset()\l+ operator=()\l+ operator==()\l+ operator!=()\l# defaultFrame()\l# findRange()\l# interpolate()\l}">
<polygon fill="white" stroke="black" points="357,-140.5 357,-439.5 469,-439.5 469,-140.5 357,-140.5"/>
<text text-anchor="start" x="365" y="-427.5" font-family="Helvetica,sans-Serif" font-size="10.00">Ra::Asset::KeyFrame</text>
<text text-anchor="middle" x="413" y="-416.5" font-family="Helvetica,sans-Serif" font-size="10.00">&lt; Core::Vector3 &gt;</text>
<polyline fill="none" stroke="black" points="357,-409.5 469,-409.5 "/>
<text text-anchor="middle" x="413" y="-397.5" font-family="Helvetica,sans-Serif" font-size="10.00"> </text>
<polyline fill="none" stroke="black" points="357,-390.5 469,-390.5 "/>
<text text-anchor="start" x="365" y="-378.5" font-family="Helvetica,sans-Serif" font-size="10.00">+ KeyFrame()</text>
<text text-anchor="start" x="365" y="-367.5" font-family="Helvetica,sans-Serif" font-size="10.00">+ KeyFrame()</text>
<text text-anchor="start" x="365" y="-356.5" font-family="Helvetica,sans-Serif" font-size="10.00">+ ~KeyFrame()</text>
<text text-anchor="start" x="365" y="-345.5" font-family="Helvetica,sans-Serif" font-size="10.00">+ getAnimationTime()</text>
<text text-anchor="start" x="365" y="-334.5" font-family="Helvetica,sans-Serif" font-size="10.00">+ setAnimationTime()</text>
<text text-anchor="start" x="365" y="-323.5" font-family="Helvetica,sans-Serif" font-size="10.00">+ getKeyFrame()</text>
<text text-anchor="start" x="365" y="-312.5" font-family="Helvetica,sans-Serif" font-size="10.00">+ getKeyFrame()</text>
<text text-anchor="start" x="365" y="-301.5" font-family="Helvetica,sans-Serif" font-size="10.00">+ at()</text>
<text text-anchor="start" x="365" y="-290.5" font-family="Helvetica,sans-Serif" font-size="10.00">+ setKeyFrame()</text>
<text text-anchor="start" x="365" y="-279.5" font-family="Helvetica,sans-Serif" font-size="10.00">+ setKeyFrame()</text>
<text text-anchor="start" x="365" y="-268.5" font-family="Helvetica,sans-Serif" font-size="10.00">+ insertKeyFrame()</text>
<text text-anchor="start" x="365" y="-257.5" font-family="Helvetica,sans-Serif" font-size="10.00">+ size()</text>
<text text-anchor="start" x="365" y="-246.5" font-family="Helvetica,sans-Serif" font-size="10.00">+ clear()</text>
<text text-anchor="start" x="365" y="-235.5" font-family="Helvetica,sans-Serif" font-size="10.00">+ empty()</text>
<text text-anchor="start" x="365" y="-224.5" font-family="Helvetica,sans-Serif" font-size="10.00">+ timeSchedule()</text>
<text text-anchor="start" x="365" y="-213.5" font-family="Helvetica,sans-Serif" font-size="10.00">+ reset()</text>
<text text-anchor="start" x="365" y="-202.5" font-family="Helvetica,sans-Serif" font-size="10.00">+ operator=()</text>
<text text-anchor="start" x="365" y="-191.5" font-family="Helvetica,sans-Serif" font-size="10.00">+ operator==()</text>
<text text-anchor="start" x="365" y="-180.5" font-family="Helvetica,sans-Serif" font-size="10.00">+ operator!=()</text>
<text text-anchor="start" x="365" y="-169.5" font-family="Helvetica,sans-Serif" font-size="10.00"># defaultFrame()</text>
<text text-anchor="start" x="365" y="-158.5" font-family="Helvetica,sans-Serif" font-size="10.00"># findRange()</text>
<text text-anchor="start" x="365" y="-147.5" font-family="Helvetica,sans-Serif" font-size="10.00"># interpolate()</text>
</a>
</g>
</g>
<!-- Node2&#45;&gt;Node1 -->
<g id="edge1" class="edge"><title>Node2&#45;&gt;Node1</title>
<path fill="none" stroke="midnightblue" d="M413,-130.049C413,-119.983 413,-110.359 413,-101.521"/>
<polygon fill="none" stroke="midnightblue" points="409.5,-130.25 413,-140.25 416.5,-130.25 409.5,-130.25"/>
</g>
<!-- Node3 -->
<g id="node3" class="node"><title>Node3</title>
<polygon fill="white" stroke="#bfbfbf" points="36,-908.5 36,-1009.5 226,-1009.5 226,-908.5 36,-908.5"/>
<text text-anchor="start" x="44" y="-997.5" font-family="Helvetica,sans-Serif" font-size="10.00">std::map&lt; Time, Core</text>
<text text-anchor="start" x="44" y="-986.5" font-family="Helvetica,sans-Serif" font-size="10.00">::Vector3, std::less</text>
<text text-anchor="start" x="44" y="-975.5" font-family="Helvetica,sans-Serif" font-size="10.00">&lt; Time &gt;, Ra::Core::AlignedAllocator</text>
<text text-anchor="start" x="44" y="-964.5" font-family="Helvetica,sans-Serif" font-size="10.00">&lt; std::pair&lt; const Time, Core</text>
<text text-anchor="middle" x="131" y="-953.5" font-family="Helvetica,sans-Serif" font-size="10.00">::Vector3 &gt;, RA_DEFAULT_ALIGN &gt; &gt;</text>
<polyline fill="none" stroke="#bfbfbf" points="36,-946.5 226,-946.5 "/>
<text text-anchor="middle" x="131" y="-934.5" font-family="Helvetica,sans-Serif" font-size="10.00"> </text>
<polyline fill="none" stroke="#bfbfbf" points="36,-927.5 226,-927.5 "/>
<text text-anchor="middle" x="131" y="-915.5" font-family="Helvetica,sans-Serif" font-size="10.00"> </text>
</g>
<!-- Node3&#45;&gt;Node2 -->
<g id="edge2" class="edge"><title>Node3&#45;&gt;Node2</title>
<path fill="none" stroke="#404040" d="M142.726,-908.351C164.386,-820.8 214.935,-634.382 285,-488 303.113,-450.158 327.334,-410.922 349.832,-377.522"/>
<polygon fill="none" stroke="#404040" points="350.001,-377.273 350.068,-370.063 356.75,-367.351 356.683,-374.562 350.001,-377.273"/>
<text text-anchor="middle" x="316.5" y="-635.5" font-family="Helvetica,sans-Serif" font-size="10.00"> #m_keyframe</text>
</g>
<!-- Node4 -->
<g id="node4" class="node"><title>Node4</title>
<polygon fill="white" stroke="#bfbfbf" points="0,-1184.5 0,-1241.5 50,-1241.5 50,-1184.5 0,-1184.5"/>
<text text-anchor="middle" x="25" y="-1229.5" font-family="Helvetica,sans-Serif" font-size="10.00">Vector3</text>
<polyline fill="none" stroke="#bfbfbf" points="0,-1222.5 50,-1222.5 "/>
<text text-anchor="middle" x="25" y="-1210.5" font-family="Helvetica,sans-Serif" font-size="10.00"> </text>
<polyline fill="none" stroke="#bfbfbf" points="0,-1203.5 50,-1203.5 "/>
<text text-anchor="middle" x="25" y="-1191.5" font-family="Helvetica,sans-Serif" font-size="10.00"> </text>
</g>
<!-- Node4&#45;&gt;Node3 -->
<g id="edge3" class="edge"><title>Node4&#45;&gt;Node3</title>
<path fill="none" stroke="#404040" d="M26.3837,-1184.05C28.2552,-1160.9 32.6558,-1127.46 43,-1100 53.5819,-1071.91 70.2004,-1043.41 86.159,-1019.52"/>
<polygon fill="none" stroke="#404040" points="86.1772,-1019.49 86.2532,-1012.28 92.9384,-1009.58 92.8625,-1016.79 86.1772,-1019.49"/>
<text text-anchor="middle" x="67.5" y="-1130.5" font-family="Helvetica,sans-Serif" font-size="10.00"> +elements</text>
</g>
<!-- Node5 -->
<g id="node5" class="node"><title>Node5</title>
<polygon fill="white" stroke="#bfbfbf" points="90,-1184.5 90,-1241.5 128,-1241.5 128,-1184.5 90,-1184.5"/>
<text text-anchor="middle" x="109" y="-1229.5" font-family="Helvetica,sans-Serif" font-size="10.00">Time</text>
<polyline fill="none" stroke="#bfbfbf" points="90,-1222.5 128,-1222.5 "/>
<text text-anchor="middle" x="109" y="-1210.5" font-family="Helvetica,sans-Serif" font-size="10.00"> </text>
<polyline fill="none" stroke="#bfbfbf" points="90,-1203.5 128,-1203.5 "/>
<text text-anchor="middle" x="109" y="-1191.5" font-family="Helvetica,sans-Serif" font-size="10.00"> </text>
</g>
<!-- Node5&#45;&gt;Node3 -->
<g id="edge4" class="edge"><title>Node5&#45;&gt;Node3</title>
<path fill="none" stroke="#404040" d="M101.305,-1184.46C99.9308,-1178.42 98.7115,-1172.03 98,-1166 94.5653,-1136.87 94.6124,-1129.14 98,-1100 101.022,-1074.01 107.1,-1045.83 113.225,-1021.62"/>
<polygon fill="none" stroke="#404040" points="113.3,-1021.33 110.938,-1014.52 116.319,-1009.72 118.681,-1016.53 113.3,-1021.33"/>
<text text-anchor="middle" x="113.5" y="-1130.5" font-family="Helvetica,sans-Serif" font-size="10.00"> +keys</text>
</g>
<!-- Node12 -->
<g id="node12" class="node"><title>Node12</title>
<polygon fill="white" stroke="#bfbfbf" points="279,-908.5 279,-1009.5 467,-1009.5 467,-908.5 279,-908.5"/>
<text text-anchor="start" x="287" y="-997.5" font-family="Helvetica,sans-Serif" font-size="10.00">std::map&lt; Time, FRAME,</text>
<text text-anchor="start" x="287" y="-986.5" font-family="Helvetica,sans-Serif" font-size="10.00"> std::less&lt; Time &gt;, Ra</text>
<text text-anchor="start" x="287" y="-975.5" font-family="Helvetica,sans-Serif" font-size="10.00">::Core::AlignedAllocator</text>
<text text-anchor="start" x="287" y="-964.5" font-family="Helvetica,sans-Serif" font-size="10.00">&lt; std::pair&lt; const Time,</text>
<text text-anchor="middle" x="373" y="-953.5" font-family="Helvetica,sans-Serif" font-size="10.00"> FRAME &gt;, RA_DEFAULT_ALIGN &gt; &gt;</text>
<polyline fill="none" stroke="#bfbfbf" points="279,-946.5 467,-946.5 "/>
<text text-anchor="middle" x="373" y="-934.5" font-family="Helvetica,sans-Serif" font-size="10.00"> </text>
<polyline fill="none" stroke="#bfbfbf" points="279,-927.5 467,-927.5 "/>
<text text-anchor="middle" x="373" y="-915.5" font-family="Helvetica,sans-Serif" font-size="10.00"> </text>
</g>
<!-- Node5&#45;&gt;Node12 -->
<g id="edge14" class="edge"><title>Node5&#45;&gt;Node12</title>
<path fill="none" stroke="#404040" d="M121.856,-1184.01C124.368,-1178.12 126.878,-1171.9 129,-1166 139.329,-1137.28 125.608,-1120.75 148,-1100 176.965,-1073.16 199.689,-1099.67 235,-1082 266.583,-1066.2 296.598,-1041.32 320.521,-1018.15"/>
<polygon fill="none" stroke="#404040" points="320.522,-1018.15 321.972,-1011.08 329.051,-1009.7 327.6,-1016.77 320.522,-1018.15"/>
<text text-anchor="middle" x="163.5" y="-1130.5" font-family="Helvetica,sans-Serif" font-size="10.00"> +keys</text>
</g>
<!-- Node6 -->
<g id="node6" class="node"><title>Node6</title>
<g id="a_node6"><a xlink:title="STL class. ">
<polygon fill="white" stroke="#bfbfbf" points="243,-1184.5 243,-1241.5 335,-1241.5 335,-1184.5 243,-1184.5"/>
<text text-anchor="middle" x="289" y="-1229.5" font-family="Helvetica,sans-Serif" font-size="10.00">std::map&lt; K, T &gt;</text>
<polyline fill="none" stroke="#bfbfbf" points="243,-1222.5 335,-1222.5 "/>
<text text-anchor="middle" x="289" y="-1210.5" font-family="Helvetica,sans-Serif" font-size="10.00"> </text>
<polyline fill="none" stroke="#bfbfbf" points="243,-1203.5 335,-1203.5 "/>
<text text-anchor="middle" x="289" y="-1191.5" font-family="Helvetica,sans-Serif" font-size="10.00"> </text>
</a>
</g>
</g>
<!-- Node6&#45;&gt;Node3 -->
<g id="edge5" class="edge"><title>Node6&#45;&gt;Node3</title>
<path fill="none" stroke="orange" d="M233.54,-1191.23C221.791,-1184.67 210.414,-1176.36 202,-1166 182.75,-1142.31 192.543,-1128.99 183,-1100 173.03,-1069.71 160.636,-1036.2 150.449,-1009.57"/>
<polygon fill="orange" stroke="orange" points="232.066,-1194.41 242.554,-1195.91 235.29,-1188.2 232.066,-1194.41"/>
<text text-anchor="start" x="202" y="-1158" font-family="Helvetica,sans-Serif" font-size="10.00"> &lt; Time, Core::Vector3,</text>
<text text-anchor="start" x="202" y="-1147" font-family="Helvetica,sans-Serif" font-size="10.00"> std::less&lt; Time &gt;, Ra</text>
<text text-anchor="start" x="202" y="-1136" font-family="Helvetica,sans-Serif" font-size="10.00">::Core::AlignedAllocator</text>
<text text-anchor="start" x="202" y="-1125" font-family="Helvetica,sans-Serif" font-size="10.00">&lt; std::pair&lt; const Time,</text>
<text text-anchor="start" x="202" y="-1114" font-family="Helvetica,sans-Serif" font-size="10.00"> Core::Vector3 &gt;, RA_DEFAULT</text>
<text text-anchor="middle" x="274.5" y="-1103" font-family="Helvetica,sans-Serif" font-size="10.00">_ALIGN &gt; &gt;</text>
</g>
<!-- Node6&#45;&gt;Node12 -->
<g id="edge15" class="edge"><title>Node6&#45;&gt;Node12</title>
<path fill="none" stroke="orange" d="M342.3,-1177.82C345.621,-1174.16 348.59,-1170.21 351,-1166 378.406,-1118.07 380.856,-1053.56 378.424,-1009.58"/>
<polygon fill="orange" stroke="orange" points="339.73,-1175.44 335.053,-1184.94 344.637,-1180.43 339.73,-1175.44"/>
<text text-anchor="start" x="374" y="-1152.5" font-family="Helvetica,sans-Serif" font-size="10.00"> &lt; Time, FRAME, std</text>
<text text-anchor="start" x="374" y="-1141.5" font-family="Helvetica,sans-Serif" font-size="10.00">::less&lt; Time &gt;, Ra::</text>
<text text-anchor="start" x="374" y="-1130.5" font-family="Helvetica,sans-Serif" font-size="10.00">Core::AlignedAllocator</text>
<text text-anchor="start" x="374" y="-1119.5" font-family="Helvetica,sans-Serif" font-size="10.00">&lt; std::pair&lt; const Time,</text>
<text text-anchor="middle" x="460" y="-1108.5" font-family="Helvetica,sans-Serif" font-size="10.00"> FRAME &gt;, RA_DEFAULT_ALIGN &gt; &gt;</text>
</g>
<!-- Node7 -->
<g id="node7" class="node"><title>Node7</title>
<polygon fill="white" stroke="#bfbfbf" points="247.5,-1290.5 247.5,-1347.5 276.5,-1347.5 276.5,-1290.5 247.5,-1290.5"/>
<text text-anchor="middle" x="262" y="-1335.5" font-family="Helvetica,sans-Serif" font-size="10.00">K</text>
<polyline fill="none" stroke="#bfbfbf" points="247.5,-1328.5 276.5,-1328.5 "/>
<text text-anchor="middle" x="262" y="-1316.5" font-family="Helvetica,sans-Serif" font-size="10.00"> </text>
<polyline fill="none" stroke="#bfbfbf" points="247.5,-1309.5 276.5,-1309.5 "/>
<text text-anchor="middle" x="262" y="-1297.5" font-family="Helvetica,sans-Serif" font-size="10.00"> </text>
</g>
<!-- Node7&#45;&gt;Node6 -->
<g id="edge6" class="edge"><title>Node7&#45;&gt;Node6</title>
<path fill="none" stroke="#404040" d="M259.714,-1290.46C259.623,-1280.69 260.354,-1269.72 263,-1260 263.659,-1257.58 264.474,-1255.15 265.404,-1252.75"/>
<polygon fill="none" stroke="#404040" points="265.443,-1252.66 264.305,-1245.54 270.441,-1241.75 271.578,-1248.87 265.443,-1252.66"/>
<text text-anchor="middle" x="278.5" y="-1263.5" font-family="Helvetica,sans-Serif" font-size="10.00"> +keys</text>
</g>
<!-- Node8 -->
<g id="node8" class="node"><title>Node8</title>
<polygon fill="white" stroke="#bfbfbf" points="301.5,-1290.5 301.5,-1347.5 330.5,-1347.5 330.5,-1290.5 301.5,-1290.5"/>
<text text-anchor="middle" x="316" y="-1335.5" font-family="Helvetica,sans-Serif" font-size="10.00">T</text>
<polyline fill="none" stroke="#bfbfbf" points="301.5,-1328.5 330.5,-1328.5 "/>
<text text-anchor="middle" x="316" y="-1316.5" font-family="Helvetica,sans-Serif" font-size="10.00"> </text>
<polyline fill="none" stroke="#bfbfbf" points="301.5,-1309.5 330.5,-1309.5 "/>
<text text-anchor="middle" x="316" y="-1297.5" font-family="Helvetica,sans-Serif" font-size="10.00"> </text>
</g>
<!-- Node8&#45;&gt;Node6 -->
<g id="edge7" class="edge"><title>Node8&#45;&gt;Node6</title>
<path fill="none" stroke="#404040" d="M308.835,-1290.4C305.906,-1279.12 302.462,-1265.85 299.273,-1253.57"/>
<polygon fill="none" stroke="#404040" points="299.214,-1253.34 293.834,-1248.54 296.198,-1241.73 301.577,-1246.53 299.214,-1253.34"/>
<text text-anchor="middle" x="328.5" y="-1263.5" font-family="Helvetica,sans-Serif" font-size="10.00"> +elements</text>
</g>
<!-- Node9 -->
<g id="node9" class="node"><title>Node9</title>
<g id="a_node9"><a xlink:href="classRa_1_1Asset_1_1AnimationTime.html" target="_top" xlink:title="{Ra::Asset::AnimationTime\n||+ AnimationTime()\l+ AnimationTime()\l+ ~AnimationTime()\l+ getStart()\l+ setStart()\l+ getEnd()\l+ setEnd()\l+ duration()\l+ merge()\l+ contain()\l+ intersect()\l+ isValid()\l+ operator==()\l+ operator!=()\l+ operator\&lt;()\l+ operator==()\l+ operator\&lt;()\l+ operator\&gt;()\l}">
<polygon fill="white" stroke="black" points="485,-837 485,-1081 617,-1081 617,-837 485,-837"/>
<text text-anchor="middle" x="551" y="-1069" font-family="Helvetica,sans-Serif" font-size="10.00">Ra::Asset::AnimationTime</text>
<polyline fill="none" stroke="black" points="485,-1062 617,-1062 "/>
<text text-anchor="middle" x="551" y="-1050" font-family="Helvetica,sans-Serif" font-size="10.00"> </text>
<polyline fill="none" stroke="black" points="485,-1043 617,-1043 "/>
<text text-anchor="start" x="493" y="-1031" font-family="Helvetica,sans-Serif" font-size="10.00">+ AnimationTime()</text>
<text text-anchor="start" x="493" y="-1020" font-family="Helvetica,sans-Serif" font-size="10.00">+ AnimationTime()</text>
<text text-anchor="start" x="493" y="-1009" font-family="Helvetica,sans-Serif" font-size="10.00">+ ~AnimationTime()</text>
<text text-anchor="start" x="493" y="-998" font-family="Helvetica,sans-Serif" font-size="10.00">+ getStart()</text>
<text text-anchor="start" x="493" y="-987" font-family="Helvetica,sans-Serif" font-size="10.00">+ setStart()</text>
<text text-anchor="start" x="493" y="-976" font-family="Helvetica,sans-Serif" font-size="10.00">+ getEnd()</text>
<text text-anchor="start" x="493" y="-965" font-family="Helvetica,sans-Serif" font-size="10.00">+ setEnd()</text>
<text text-anchor="start" x="493" y="-954" font-family="Helvetica,sans-Serif" font-size="10.00">+ duration()</text>
<text text-anchor="start" x="493" y="-943" font-family="Helvetica,sans-Serif" font-size="10.00">+ merge()</text>
<text text-anchor="start" x="493" y="-932" font-family="Helvetica,sans-Serif" font-size="10.00">+ contain()</text>
<text text-anchor="start" x="493" y="-921" font-family="Helvetica,sans-Serif" font-size="10.00">+ intersect()</text>
<text text-anchor="start" x="493" y="-910" font-family="Helvetica,sans-Serif" font-size="10.00">+ isValid()</text>
<text text-anchor="start" x="493" y="-899" font-family="Helvetica,sans-Serif" font-size="10.00">+ operator==()</text>
<text text-anchor="start" x="493" y="-888" font-family="Helvetica,sans-Serif" font-size="10.00">+ operator!=()</text>
<text text-anchor="start" x="493" y="-877" font-family="Helvetica,sans-Serif" font-size="10.00">+ operator&lt;()</text>
<text text-anchor="start" x="493" y="-866" font-family="Helvetica,sans-Serif" font-size="10.00">+ operator==()</text>
<text text-anchor="start" x="493" y="-855" font-family="Helvetica,sans-Serif" font-size="10.00">+ operator&lt;()</text>
<text text-anchor="start" x="493" y="-844" font-family="Helvetica,sans-Serif" font-size="10.00">+ operator&gt;()</text>
</a>
</g>
</g>
<!-- Node9&#45;&gt;Node2 -->
<g id="edge8" class="edge"><title>Node9&#45;&gt;Node2</title>
<path fill="none" stroke="#404040" d="M550.88,-836.861C547.848,-734.058 536.445,-583.669 499,-458 492.832,-437.299 484.099,-416.131 474.541,-396.123"/>
<polygon fill="none" stroke="#404040" points="474.438,-395.913 468.205,-392.286 469.157,-385.138 475.389,-388.765 474.438,-395.913"/>
<text text-anchor="middle" x="569.5" y="-635.5" font-family="Helvetica,sans-Serif" font-size="10.00"> #m_time</text>
</g>
<!-- Node11 -->
<g id="node11" class="node"><title>Node11</title>
<g id="a_node11"><a xlink:href="classRa_1_1Asset_1_1KeyFrame.html" target="_top" xlink:title="{Ra::Asset::KeyFrame\l\&lt; FRAME \&gt;\n||+ KeyFrame()\l+ KeyFrame()\l+ ~KeyFrame()\l+ getAnimationTime()\l+ setAnimationTime()\l+ getKeyFrame()\l+ getKeyFrame()\l+ at()\l+ setKeyFrame()\l+ setKeyFrame()\l+ insertKeyFrame()\l+ size()\l+ clear()\l+ empty()\l+ timeSchedule()\l+ reset()\l+ operator=()\l+ operator==()\l+ operator!=()\l# defaultFrame()\l# findRange()\l# interpolate()\l}">
<polygon fill="white" stroke="black" points="357,-488.5 357,-787.5 469,-787.5 469,-488.5 357,-488.5"/>
<text text-anchor="start" x="365" y="-775.5" font-family="Helvetica,sans-Serif" font-size="10.00">Ra::Asset::KeyFrame</text>
<text text-anchor="middle" x="413" y="-764.5" font-family="Helvetica,sans-Serif" font-size="10.00">&lt; FRAME &gt;</text>
<polyline fill="none" stroke="black" points="357,-757.5 469,-757.5 "/>
<text text-anchor="middle" x="413" y="-745.5" font-family="Helvetica,sans-Serif" font-size="10.00"> </text>
<polyline fill="none" stroke="black" points="357,-738.5 469,-738.5 "/>
<text text-anchor="start" x="365" y="-726.5" font-family="Helvetica,sans-Serif" font-size="10.00">+ KeyFrame()</text>
<text text-anchor="start" x="365" y="-715.5" font-family="Helvetica,sans-Serif" font-size="10.00">+ KeyFrame()</text>
<text text-anchor="start" x="365" y="-704.5" font-family="Helvetica,sans-Serif" font-size="10.00">+ ~KeyFrame()</text>
<text text-anchor="start" x="365" y="-693.5" font-family="Helvetica,sans-Serif" font-size="10.00">+ getAnimationTime()</text>
<text text-anchor="start" x="365" y="-682.5" font-family="Helvetica,sans-Serif" font-size="10.00">+ setAnimationTime()</text>
<text text-anchor="start" x="365" y="-671.5" font-family="Helvetica,sans-Serif" font-size="10.00">+ getKeyFrame()</text>
<text text-anchor="start" x="365" y="-660.5" font-family="Helvetica,sans-Serif" font-size="10.00">+ getKeyFrame()</text>
<text text-anchor="start" x="365" y="-649.5" font-family="Helvetica,sans-Serif" font-size="10.00">+ at()</text>
<text text-anchor="start" x="365" y="-638.5" font-family="Helvetica,sans-Serif" font-size="10.00">+ setKeyFrame()</text>
<text text-anchor="start" x="365" y="-627.5" font-family="Helvetica,sans-Serif" font-size="10.00">+ setKeyFrame()</text>
<text text-anchor="start" x="365" y="-616.5" font-family="Helvetica,sans-Serif" font-size="10.00">+ insertKeyFrame()</text>
<text text-anchor="start" x="365" y="-605.5" font-family="Helvetica,sans-Serif" font-size="10.00">+ size()</text>
<text text-anchor="start" x="365" y="-594.5" font-family="Helvetica,sans-Serif" font-size="10.00">+ clear()</text>
<text text-anchor="start" x="365" y="-583.5" font-family="Helvetica,sans-Serif" font-size="10.00">+ empty()</text>
<text text-anchor="start" x="365" y="-572.5" font-family="Helvetica,sans-Serif" font-size="10.00">+ timeSchedule()</text>
<text text-anchor="start" x="365" y="-561.5" font-family="Helvetica,sans-Serif" font-size="10.00">+ reset()</text>
<text text-anchor="start" x="365" y="-550.5" font-family="Helvetica,sans-Serif" font-size="10.00">+ operator=()</text>
<text text-anchor="start" x="365" y="-539.5" font-family="Helvetica,sans-Serif" font-size="10.00">+ operator==()</text>
<text text-anchor="start" x="365" y="-528.5" font-family="Helvetica,sans-Serif" font-size="10.00">+ operator!=()</text>
<text text-anchor="start" x="365" y="-517.5" font-family="Helvetica,sans-Serif" font-size="10.00"># defaultFrame()</text>
<text text-anchor="start" x="365" y="-506.5" font-family="Helvetica,sans-Serif" font-size="10.00"># findRange()</text>
<text text-anchor="start" x="365" y="-495.5" font-family="Helvetica,sans-Serif" font-size="10.00"># interpolate()</text>
</a>
</g>
</g>
<!-- Node9&#45;&gt;Node11 -->
<g id="edge11" class="edge"><title>Node9&#45;&gt;Node11</title>
<path fill="none" stroke="#404040" d="M498.631,-836.945C490.537,-818.233 482.117,-798.77 473.855,-779.673"/>
<polygon fill="none" stroke="#404040" points="473.777,-779.493 467.724,-775.574 469.013,-768.479 475.066,-772.398 473.777,-779.493"/>
<text text-anchor="middle" x="511.5" y="-809.5" font-family="Helvetica,sans-Serif" font-size="10.00"> #m_time</text>
</g>
<!-- Node10 -->
<g id="node10" class="node"><title>Node10</title>
<polygon fill="white" stroke="#bfbfbf" points="622.5,-1184.5 622.5,-1241.5 657.5,-1241.5 657.5,-1184.5 622.5,-1184.5"/>
<text text-anchor="middle" x="640" y="-1229.5" font-family="Helvetica,sans-Serif" font-size="10.00">float</text>
<polyline fill="none" stroke="#bfbfbf" points="622.5,-1222.5 657.5,-1222.5 "/>
<text text-anchor="middle" x="640" y="-1210.5" font-family="Helvetica,sans-Serif" font-size="10.00"> </text>
<polyline fill="none" stroke="#bfbfbf" points="622.5,-1203.5 657.5,-1203.5 "/>
<text text-anchor="middle" x="640" y="-1191.5" font-family="Helvetica,sans-Serif" font-size="10.00"> </text>
</g>
<!-- Node10&#45;&gt;Node9 -->
<g id="edge9" class="edge"><title>Node10&#45;&gt;Node9</title>
<path fill="none" stroke="#404040" d="M636.553,-1184.35C633.221,-1161.37 627.292,-1128.03 618,-1100 617.156,-1097.45 616.276,-1094.9 615.365,-1092.33"/>
<polygon fill="none" stroke="#404040" points="615.347,-1092.28 609.512,-1088.04 611.179,-1081.03 617.014,-1085.26 615.347,-1092.28"/>
<text text-anchor="middle" x="653.5" y="-1136" font-family="Helvetica,sans-Serif" font-size="10.00"> #m_end</text>
<text text-anchor="middle" x="653.5" y="-1125" font-family="Helvetica,sans-Serif" font-size="10.00">#m_start</text>
</g>
<!-- Node11&#45;&gt;Node2 -->
<g id="edge10" class="edge"><title>Node11&#45;&gt;Node2</title>
<path fill="none" stroke="orange" d="M413,-478.024C413,-465.231 413,-452.335 413,-439.618"/>
<polygon fill="orange" stroke="orange" points="409.5,-478.257 413,-488.257 416.5,-478.257 409.5,-478.257"/>
<text text-anchor="middle" x="454" y="-461.5" font-family="Helvetica,sans-Serif" font-size="10.00"> &lt; Core::Vector3 &gt;</text>
</g>
<!-- Node12&#45;&gt;Node11 -->
<g id="edge12" class="edge"><title>Node12&#45;&gt;Node11</title>
<path fill="none" stroke="#404040" d="M379.25,-908.156C382.962,-878.555 387.898,-839.187 392.847,-799.72"/>
<polygon fill="none" stroke="#404040" points="392.854,-799.666 389.631,-793.215 394.347,-787.76 397.569,-794.211 392.854,-799.666"/>
<text text-anchor="middle" x="423.5" y="-809.5" font-family="Helvetica,sans-Serif" font-size="10.00"> #m_keyframe</text>
</g>
<!-- Node13 -->
<g id="node13" class="node"><title>Node13</title>
<polygon fill="white" stroke="#bfbfbf" points="542,-1184.5 542,-1241.5 594,-1241.5 594,-1184.5 542,-1184.5"/>
<text text-anchor="middle" x="568" y="-1229.5" font-family="Helvetica,sans-Serif" font-size="10.00">FRAME</text>
<polyline fill="none" stroke="#bfbfbf" points="542,-1222.5 594,-1222.5 "/>
<text text-anchor="middle" x="568" y="-1210.5" font-family="Helvetica,sans-Serif" font-size="10.00"> </text>
<polyline fill="none" stroke="#bfbfbf" points="542,-1203.5 594,-1203.5 "/>
<text text-anchor="middle" x="568" y="-1191.5" font-family="Helvetica,sans-Serif" font-size="10.00"> </text>
</g>
<!-- Node13&#45;&gt;Node12 -->
<g id="edge13" class="edge"><title>Node13&#45;&gt;Node12</title>
<path fill="none" stroke="#404040" d="M565.916,-1184.38C563.153,-1155.24 557.255,-1111.92 546,-1100 523.95,-1076.64 503.205,-1099.08 476,-1082 450.745,-1066.14 428.526,-1042.07 411.252,-1019.48"/>
<polygon fill="none" stroke="#404040" points="411.061,-1019.23 404.275,-1016.79 403.914,-1009.59 410.701,-1012.02 411.061,-1019.23"/>
<text text-anchor="middle" x="588.5" y="-1130.5" font-family="Helvetica,sans-Serif" font-size="10.00"> +elements</text>
</g>
</g>
</svg>
