<?xml version="1.0" encoding="UTF-8" standalone="no"?>
<!DOCTYPE svg PUBLIC "-//W3C//DTD SVG 1.1//EN"
 "http://www.w3.org/Graphics/SVG/1.1/DTD/svg11.dtd">
<!-- Generated by graphviz version 2.36.0 (20140111.2315)
 -->
<!-- Title: Ra::Core::TriangleMesh::copyAllAttributes Pages: 1 -->
<svg width="450pt" height="87pt"
 viewBox="0.00 0.00 450.00 87.00" xmlns="http://www.w3.org/2000/svg" xmlns:xlink="http://www.w3.org/1999/xlink">
<g id="graph0" class="graph" transform="scale(1 1) rotate(0) translate(4 83)">
<title>Ra::Core::TriangleMesh::copyAllAttributes</title>
<polygon fill="white" stroke="none" points="-4,4 -4,-83 446,-83 446,4 -4,4"/>
<!-- Node1 -->
<g id="node1" class="node"><title>Node1</title>
<polygon fill="#bfbfbf" stroke="black" points="0.5,-24 0.5,-54 121.5,-54 121.5,-24 0.5,-24"/>
<text text-anchor="start" x="8.5" y="-42" font-family="Helvetica,sans-Serif" font-size="10.00">Ra::Core::TriangleMesh</text>
<text text-anchor="middle" x="61" y="-31" font-family="Helvetica,sans-Serif" font-size="10.00">::copyAllAttributes</text>
</g>
<!-- Node2 -->
<g id="node2" class="node"><title>Node2</title>
<g id="a_node2"><a xlink:href="classRa_1_1Core_1_1TriangleMesh.html#a495116f40cfec8bb6504698d786d4b8c" target="_top" xlink:title="Access the vertices positions. ">
<polygon fill="white" stroke="black" points="159.5,-49 159.5,-79 280.5,-79 280.5,-49 159.5,-49"/>
<text text-anchor="start" x="167.5" y="-67" font-family="Helvetica,sans-Serif" font-size="10.00">Ra::Core::TriangleMesh</text>
<text text-anchor="middle" x="220" y="-56" font-family="Helvetica,sans-Serif" font-size="10.00">::vertices</text>
</a>
</g>
</g>
<!-- Node1&#45;&gt;Node2 -->
<g id="edge1" class="edge"><title>Node1&#45;&gt;Node2</title>
<path fill="none" stroke="midnightblue" d="M121.803,-48.5227C130.839,-49.9617 140.227,-51.4565 149.448,-52.9248"/>
<polygon fill="midnightblue" stroke="midnightblue" points="148.937,-56.3876 159.363,-54.5037 150.038,-49.4746 148.937,-56.3876"/>
</g>
<!-- Node4 -->
<g id="node4" class="node"><title>Node4</title>
<g id="a_node4"><a xlink:href="classRa_1_1Core_1_1AttribManager.html#a19855e5d5abcc6bd9201064e3502f9fa" target="_top" xlink:title="Copy all attributes from . ">
<polygon fill="white" stroke="black" points="158.5,-0 158.5,-30 281.5,-30 281.5,-0 158.5,-0"/>
<text text-anchor="start" x="166.5" y="-18" font-family="Helvetica,sans-Serif" font-size="10.00">Ra::Core::AttribManager</text>
<text text-anchor="middle" x="220" y="-7" font-family="Helvetica,sans-Serif" font-size="10.00">::copyAllAttributes</text>
</a>
</g>
</g>
<!-- Node1&#45;&gt;Node4 -->
<g id="edge3" class="edge"><title>Node1&#45;&gt;Node4</title>
<path fill="none" stroke="midnightblue" d="M121.803,-29.8582C130.492,-28.53 139.505,-27.1522 148.382,-25.7951"/>
<polygon fill="midnightblue" stroke="midnightblue" points="148.966,-29.2465 158.323,-24.2755 147.908,-22.3269 148.966,-29.2465"/>
</g>
<!-- Node3 -->
<g id="node3" class="node"><title>Node3</title>
<g id="a_node3"><a xlink:href="classRa_1_1Core_1_1AttribManager.html#aaa6088620425c1e1d74b50f1b50eb596" target="_top" xlink:title="Get attribute by handle. ">
<polygon fill="white" stroke="black" points="318.5,-24 318.5,-54 441.5,-54 441.5,-24 318.5,-24"/>
<text text-anchor="start" x="326.5" y="-42" font-family="Helvetica,sans-Serif" font-size="10.00">Ra::Core::AttribManager</text>
<text text-anchor="middle" x="380" y="-31" font-family="Helvetica,sans-Serif" font-size="10.00">::getAttrib</text>
</a>
</g>
</g>
<!-- Node2&#45;&gt;Node3 -->
<g id="edge2" class="edge"><title>Node2&#45;&gt;Node3</title>
<path fill="none" stroke="midnightblue" d="M280.733,-54.5486C289.782,-53.1168 299.19,-51.6282 308.442,-50.1643"/>
<polygon fill="midnightblue" stroke="midnightblue" points="309.065,-53.6093 318.395,-48.5894 307.971,-46.6953 309.065,-53.6093"/>
</g>
<!-- Node4&#45;&gt;Node3 -->
<g id="edge4" class="edge"><title>Node4&#45;&gt;Node3</title>
<path fill="none" stroke="midnightblue" d="M281.635,-24.2104C290.361,-25.5358 299.403,-26.9093 308.303,-28.2612"/>
<polygon fill="midnightblue" stroke="midnightblue" points="307.854,-31.7331 318.266,-29.7746 308.905,-24.8125 307.854,-31.7331"/>
</g>
</g>
</svg>
