<?xml version="1.0" encoding="UTF-8" standalone="no"?>
<!DOCTYPE svg PUBLIC "-//W3C//DTD SVG 1.1//EN"
 "http://www.w3.org/Graphics/SVG/1.1/DTD/svg11.dtd">
<!-- Generated by graphviz version 2.36.0 (20140111.2315)
 -->
<!-- Title: Ra::Core::VectorArray&lt; Scalar &gt; Pages: 1 -->
<svg width="311pt" height="432pt"
 viewBox="0.00 0.00 311.00 432.00" xmlns="http://www.w3.org/2000/svg" xmlns:xlink="http://www.w3.org/1999/xlink">
<g id="graph0" class="graph" transform="scale(1 1) rotate(0) translate(4 428)">
<title>Ra::Core::VectorArray&lt; Scalar &gt;</title>
<polygon fill="white" stroke="none" points="-4,4 -4,-428 307,-428 307,4 -4,4"/>
<!-- Node1 -->
<g id="node1" class="node"><title>Node1</title>
<polygon fill="#bfbfbf" stroke="black" points="52,-0.5 52,-79.5 166,-79.5 166,-0.5 52,-0.5"/>
<text text-anchor="start" x="60" y="-67.5" font-family="Helvetica,sans-Serif" font-size="10.00">Ra::Core::VectorArray</text>
<text text-anchor="middle" x="109" y="-56.5" font-family="Helvetica,sans-Serif" font-size="10.00">&lt; Scalar &gt;</text>
<polyline fill="none" stroke="black" points="52,-49.5 166,-49.5 "/>
<text text-anchor="middle" x="109" y="-37.5" font-family="Helvetica,sans-Serif" font-size="10.00"> </text>
<polyline fill="none" stroke="black" points="52,-30.5 166,-30.5 "/>
<text text-anchor="start" x="60" y="-18.5" font-family="Helvetica,sans-Serif" font-size="10.00">+ getMap()</text>
<text text-anchor="start" x="60" y="-7.5" font-family="Helvetica,sans-Serif" font-size="10.00">+ getMap()</text>
</g>
<!-- Node2 -->
<g id="node2" class="node"><title>Node2</title>
<g id="a_node2"><a xlink:href="structRa_1_1Core_1_1AlignedStdVector.html" target="_top" xlink:title="{Ra::Core::AlignedStdVector\l\&lt; Scalar \&gt;\n||}">
<polygon fill="white" stroke="black" points="40,-119 40,-187 178,-187 178,-119 40,-119"/>
<text text-anchor="start" x="48" y="-175" font-family="Helvetica,sans-Serif" font-size="10.00">Ra::Core::AlignedStdVector</text>
<text text-anchor="middle" x="109" y="-164" font-family="Helvetica,sans-Serif" font-size="10.00">&lt; Scalar &gt;</text>
<polyline fill="none" stroke="black" points="40,-157 178,-157 "/>
<text text-anchor="middle" x="109" y="-145" font-family="Helvetica,sans-Serif" font-size="10.00"> </text>
<polyline fill="none" stroke="black" points="40,-138 178,-138 "/>
<text text-anchor="middle" x="109" y="-126" font-family="Helvetica,sans-Serif" font-size="10.00"> </text>
</a>
</g>
</g>
<!-- Node2&#45;&gt;Node1 -->
<g id="edge1" class="edge"><title>Node2&#45;&gt;Node1</title>
<path fill="none" stroke="midnightblue" d="M109,-108.795C109,-99.1499 109,-88.9834 109,-79.5413"/>
<polygon fill="none" stroke="midnightblue" points="105.5,-108.997 109,-118.997 112.5,-108.997 105.5,-108.997"/>
</g>
<!-- Node3 -->
<g id="node3" class="node"><title>Node3</title>
<g id="a_node3"><a xlink:title="STL class. ">
<polygon fill="white" stroke="#bfbfbf" points="-0.5,-236.5 -0.5,-315.5 122.5,-315.5 122.5,-236.5 -0.5,-236.5"/>
<text text-anchor="start" x="7.5" y="-303.5" font-family="Helvetica,sans-Serif" font-size="10.00">std::vector&lt; Scalar,</text>
<text text-anchor="start" x="7.5" y="-292.5" font-family="Helvetica,sans-Serif" font-size="10.00"> Eigen::aligned_allocator</text>
<text text-anchor="middle" x="61" y="-281.5" font-family="Helvetica,sans-Serif" font-size="10.00">&lt; Scalar &gt; &gt;</text>
<polyline fill="none" stroke="#bfbfbf" points="-0.5,-274.5 122.5,-274.5 "/>
<text text-anchor="start" x="7.5" y="-262.5" font-family="Helvetica,sans-Serif" font-size="10.00">+ elements</text>
<polyline fill="none" stroke="#bfbfbf" points="-0.5,-255.5 122.5,-255.5 "/>
<text text-anchor="middle" x="61" y="-243.5" font-family="Helvetica,sans-Serif" font-size="10.00"> </text>
</a>
</g>
</g>
<!-- Node3&#45;&gt;Node2 -->
<g id="edge2" class="edge"><title>Node3&#45;&gt;Node2</title>
<path fill="none" stroke="midnightblue" d="M80.0736,-226.919C85.3303,-213.667 90.9164,-199.586 95.7637,-187.367"/>
<polygon fill="none" stroke="midnightblue" points="76.7536,-225.796 76.3195,-236.382 83.2603,-228.377 76.7536,-225.796"/>
</g>
<!-- Node4 -->
<g id="node4" class="node"><title>Node4</title>
<g id="a_node4"><a xlink:href="structRa_1_1Core_1_1AlignedStdVector.html" target="_top" xlink:title="Shortcut for the ubiquitous aligned std::vector Uses Eigen&#39;s aligned allocator, as stated in http://e...">
<polygon fill="white" stroke="black" points="141,-247.5 141,-304.5 303,-304.5 303,-247.5 141,-247.5"/>
<text text-anchor="middle" x="222" y="-292.5" font-family="Helvetica,sans-Serif" font-size="10.00">Ra::Core::AlignedStdVector&lt; T &gt;</text>
<polyline fill="none" stroke="black" points="141,-285.5 303,-285.5 "/>
<text text-anchor="middle" x="222" y="-273.5" font-family="Helvetica,sans-Serif" font-size="10.00"> </text>
<polyline fill="none" stroke="black" points="141,-266.5 303,-266.5 "/>
<text text-anchor="middle" x="222" y="-254.5" font-family="Helvetica,sans-Serif" font-size="10.00"> </text>
</a>
</g>
</g>
<!-- Node4&#45;&gt;Node2 -->
<g id="edge3" class="edge"><title>Node4&#45;&gt;Node2</title>
<path fill="none" stroke="orange" d="M189.182,-239.858C173.686,-223.266 155.289,-203.566 140.027,-187.224"/>
<polygon fill="orange" stroke="orange" points="186.692,-242.32 196.076,-247.24 191.808,-237.543 186.692,-242.32"/>
<text text-anchor="middle" x="189.5" y="-209.5" font-family="Helvetica,sans-Serif" font-size="10.00"> &lt; Scalar &gt;</text>
</g>
<!-- Node5 -->
<g id="node5" class="node"><title>Node5</title>
<g id="a_node5"><a xlink:title="STL class. ">
<polygon fill="white" stroke="#bfbfbf" points="158,-355 158,-423 286,-423 286,-355 158,-355"/>
<text text-anchor="start" x="166" y="-411" font-family="Helvetica,sans-Serif" font-size="10.00">std::vector&lt; T, Eigen</text>
<text text-anchor="middle" x="222" y="-400" font-family="Helvetica,sans-Serif" font-size="10.00">::aligned_allocator&lt; T &gt; &gt;</text>
<polyline fill="none" stroke="#bfbfbf" points="158,-393 286,-393 "/>
<text text-anchor="start" x="166" y="-381" font-family="Helvetica,sans-Serif" font-size="10.00">+ elements</text>
<polyline fill="none" stroke="#bfbfbf" points="158,-374 286,-374 "/>
<text text-anchor="middle" x="222" y="-362" font-family="Helvetica,sans-Serif" font-size="10.00"> </text>
</a>
</g>
</g>
<!-- Node5&#45;&gt;Node4 -->
<g id="edge4" class="edge"><title>Node5&#45;&gt;Node4</title>
<path fill="none" stroke="midnightblue" d="M222,-344.947C222,-331.468 222,-316.956 222,-304.819"/>
<polygon fill="none" stroke="midnightblue" points="218.5,-344.997 222,-354.997 225.5,-344.997 218.5,-344.997"/>
</g>
</g>
</svg>
