<?xml version="1.0" encoding="UTF-8" standalone="no"?>
<!DOCTYPE svg PUBLIC "-//W3C//DTD SVG 1.1//EN"
 "http://www.w3.org/Graphics/SVG/1.1/DTD/svg11.dtd">
<!-- Generated by graphviz version 2.36.0 (20140111.2315)
 -->
<!-- Title: Ra::Engine::Texture Pages: 1 -->
<svg width="132pt" height="382pt"
 viewBox="0.00 0.00 132.00 382.00" xmlns="http://www.w3.org/2000/svg" xmlns:xlink="http://www.w3.org/1999/xlink">
<g id="graph0" class="graph" transform="scale(1 1) rotate(0) translate(4 378)">
<title>Ra::Engine::Texture</title>
<polygon fill="white" stroke="none" points="-4,4 -4,-378 128,-378 128,4 -4,4"/>
<!-- Node1 -->
<g id="node1" class="node"><title>Node1</title>
<polygon fill="#bfbfbf" stroke="black" points="-0.5,-1 -0.5,-201 110.5,-201 110.5,-1 -0.5,-1"/>
<text text-anchor="middle" x="55" y="-189" font-family="Helvetica,sans-Serif" font-size="10.00">Ra::Engine::Texture</text>
<polyline fill="none" stroke="black" points="-0.5,-182 110.5,-182 "/>
<text text-anchor="middle" x="55" y="-170" font-family="Helvetica,sans-Serif" font-size="10.00"> </text>
<polyline fill="none" stroke="black" points="-0.5,-163 110.5,-163 "/>
<text text-anchor="start" x="7.5" y="-151" font-family="Helvetica,sans-Serif" font-size="10.00">+ Texture()</text>
<text text-anchor="start" x="7.5" y="-140" font-family="Helvetica,sans-Serif" font-size="10.00">+ ~Texture()</text>
<text text-anchor="start" x="7.5" y="-129" font-family="Helvetica,sans-Serif" font-size="10.00">+ Generate()</text>
<text text-anchor="start" x="7.5" y="-118" font-family="Helvetica,sans-Serif" font-size="10.00">+ Generate()</text>
<text text-anchor="start" x="7.5" y="-107" font-family="Helvetica,sans-Serif" font-size="10.00">+ Generate()</text>
<text text-anchor="start" x="7.5" y="-96" font-family="Helvetica,sans-Serif" font-size="10.00">+ GenerateCube()</text>
<text text-anchor="start" x="7.5" y="-85" font-family="Helvetica,sans-Serif" font-size="10.00">+ bind()</text>
<text text-anchor="start" x="7.5" y="-74" font-family="Helvetica,sans-Serif" font-size="10.00">+ getName()</text>
<text text-anchor="start" x="7.5" y="-63" font-family="Helvetica,sans-Serif" font-size="10.00">+ updateData()</text>
<text text-anchor="start" x="7.5" y="-52" font-family="Helvetica,sans-Serif" font-size="10.00">+ updateParameters()</text>
<text text-anchor="start" x="7.5" y="-41" font-family="Helvetica,sans-Serif" font-size="10.00">+ format()</text>
<text text-anchor="start" x="7.5" y="-30" font-family="Helvetica,sans-Serif" font-size="10.00">+ width()</text>
<text text-anchor="start" x="7.5" y="-19" font-family="Helvetica,sans-Serif" font-size="10.00">+ height()</text>
<text text-anchor="start" x="7.5" y="-8" font-family="Helvetica,sans-Serif" font-size="10.00">+ texture()</text>
</g>
<!-- Node2 -->
<g id="node2" class="node"><title>Node2</title>
<polygon fill="white" stroke="#bfbfbf" points="28.5,-316.5 28.5,-373.5 81.5,-373.5 81.5,-316.5 28.5,-316.5"/>
<text text-anchor="middle" x="55" y="-361.5" font-family="Helvetica,sans-Serif" font-size="10.00">GLenum</text>
<polyline fill="none" stroke="#bfbfbf" points="28.5,-354.5 81.5,-354.5 "/>
<text text-anchor="middle" x="55" y="-342.5" font-family="Helvetica,sans-Serif" font-size="10.00"> </text>
<polyline fill="none" stroke="#bfbfbf" points="28.5,-335.5 81.5,-335.5 "/>
<text text-anchor="middle" x="55" y="-323.5" font-family="Helvetica,sans-Serif" font-size="10.00"> </text>
</g>
<!-- Node2&#45;&gt;Node1 -->
<g id="edge1" class="edge"><title>Node2&#45;&gt;Node1</title>
<path fill="none" stroke="#404040" d="M55,-316.24C55,-290.809 55,-251.437 55,-213.349"/>
<polygon fill="none" stroke="#404040" points="55.0001,-213.047 51,-207.047 55,-201.047 59,-207.047 55.0001,-213.047"/>
<text text-anchor="middle" x="89.5" y="-289.5" font-family="Helvetica,sans-Serif" font-size="10.00"> +minFilter</text>
<text text-anchor="middle" x="89.5" y="-278.5" font-family="Helvetica,sans-Serif" font-size="10.00">+dataType</text>
<text text-anchor="middle" x="89.5" y="-267.5" font-family="Helvetica,sans-Serif" font-size="10.00">+magFilter</text>
<text text-anchor="middle" x="89.5" y="-256.5" font-family="Helvetica,sans-Serif" font-size="10.00">+wrapR</text>
<text text-anchor="middle" x="89.5" y="-245.5" font-family="Helvetica,sans-Serif" font-size="10.00">+internalFormat</text>
<text text-anchor="middle" x="89.5" y="-234.5" font-family="Helvetica,sans-Serif" font-size="10.00">+wrapS</text>
<text text-anchor="middle" x="89.5" y="-223.5" font-family="Helvetica,sans-Serif" font-size="10.00">+wrapT</text>
</g>
</g>
</svg>
