<?xml version="1.0" encoding="UTF-8" standalone="no"?>
<!DOCTYPE svg PUBLIC "-//W3C//DTD SVG 1.1//EN"
 "http://www.w3.org/Graphics/SVG/1.1/DTD/svg11.dtd">
<!-- Generated by graphviz version 2.36.0 (20140111.2315)
 -->
<!-- Title: Ra::Engine::RenderParameters::TParameter&lt; T &gt; Pages: 1 -->
<svg width="241pt" height="366pt"
 viewBox="0.00 0.00 241.00 366.00" xmlns="http://www.w3.org/2000/svg" xmlns:xlink="http://www.w3.org/1999/xlink">
<g id="graph0" class="graph" transform="scale(1 1) rotate(0) translate(4 362)">
<title>Ra::Engine::RenderParameters::TParameter&lt; T &gt;</title>
<polygon fill="white" stroke="none" points="-4,4 -4,-362 237,-362 237,4 -4,4"/>
<!-- Node1 -->
<g id="node1" class="node"><title>Node1</title>
<polygon fill="#bfbfbf" stroke="black" points="80.5,-0.5 80.5,-101.5 233.5,-101.5 233.5,-0.5 80.5,-0.5"/>
<text text-anchor="start" x="88.5" y="-89.5" font-family="Helvetica,sans-Serif" font-size="10.00">Ra::Engine::RenderParameters</text>
<text text-anchor="middle" x="157" y="-78.5" font-family="Helvetica,sans-Serif" font-size="10.00">::TParameter&lt; T &gt;</text>
<polyline fill="none" stroke="black" points="80.5,-71.5 233.5,-71.5 "/>
<text text-anchor="middle" x="157" y="-59.5" font-family="Helvetica,sans-Serif" font-size="10.00"> </text>
<polyline fill="none" stroke="black" points="80.5,-52.5 233.5,-52.5 "/>
<text text-anchor="start" x="88.5" y="-40.5" font-family="Helvetica,sans-Serif" font-size="10.00">+ TParameter()</text>
<text text-anchor="start" x="88.5" y="-29.5" font-family="Helvetica,sans-Serif" font-size="10.00">+ TParameter()</text>
<text text-anchor="start" x="88.5" y="-18.5" font-family="Helvetica,sans-Serif" font-size="10.00">+ ~TParameter()</text>
<text text-anchor="start" x="88.5" y="-7.5" font-family="Helvetica,sans-Serif" font-size="10.00">+ bind()</text>
</g>
<!-- Node2 -->
<g id="node2" class="node"><title>Node2</title>
<g id="a_node2"><a xlink:href="classRa_1_1Engine_1_1RenderParameters_1_1Parameter.html" target="_top" xlink:title="{Ra::Engine::RenderParameters\l::Parameter\n||+ Parameter()\l+ Parameter()\l+ ~Parameter()\l+ bind()\l}">
<polygon fill="white" stroke="black" points="-0.5,-150.5 -0.5,-251.5 152.5,-251.5 152.5,-150.5 -0.5,-150.5"/>
<text text-anchor="start" x="7.5" y="-239.5" font-family="Helvetica,sans-Serif" font-size="10.00">Ra::Engine::RenderParameters</text>
<text text-anchor="middle" x="76" y="-228.5" font-family="Helvetica,sans-Serif" font-size="10.00">::Parameter</text>
<polyline fill="none" stroke="black" points="-0.5,-221.5 152.5,-221.5 "/>
<text text-anchor="middle" x="76" y="-209.5" font-family="Helvetica,sans-Serif" font-size="10.00"> </text>
<polyline fill="none" stroke="black" points="-0.5,-202.5 152.5,-202.5 "/>
<text text-anchor="start" x="7.5" y="-190.5" font-family="Helvetica,sans-Serif" font-size="10.00">+ Parameter()</text>
<text text-anchor="start" x="7.5" y="-179.5" font-family="Helvetica,sans-Serif" font-size="10.00">+ Parameter()</text>
<text text-anchor="start" x="7.5" y="-168.5" font-family="Helvetica,sans-Serif" font-size="10.00">+ ~Parameter()</text>
<text text-anchor="start" x="7.5" y="-157.5" font-family="Helvetica,sans-Serif" font-size="10.00">+ bind()</text>
</a>
</g>
</g>
<!-- Node2&#45;&gt;Node1 -->
<g id="edge1" class="edge"><title>Node2&#45;&gt;Node1</title>
<path fill="none" stroke="midnightblue" d="M108.114,-141.322C115.32,-128.156 122.896,-114.314 129.875,-101.562"/>
<polygon fill="none" stroke="midnightblue" points="104.928,-139.854 103.197,-150.306 111.068,-143.215 104.928,-139.854"/>
</g>
<!-- Node3 -->
<g id="node3" class="node"><title>Node3</title>
<polygon fill="white" stroke="#bfbfbf" points="41.5,-300.5 41.5,-357.5 110.5,-357.5 110.5,-300.5 41.5,-300.5"/>
<text text-anchor="middle" x="76" y="-345.5" font-family="Helvetica,sans-Serif" font-size="10.00">const char *</text>
<polyline fill="none" stroke="#bfbfbf" points="41.5,-338.5 110.5,-338.5 "/>
<text text-anchor="middle" x="76" y="-326.5" font-family="Helvetica,sans-Serif" font-size="10.00"> </text>
<polyline fill="none" stroke="#bfbfbf" points="41.5,-319.5 110.5,-319.5 "/>
<text text-anchor="middle" x="76" y="-307.5" font-family="Helvetica,sans-Serif" font-size="10.00"> </text>
</g>
<!-- Node3&#45;&gt;Node2 -->
<g id="edge2" class="edge"><title>Node3&#45;&gt;Node2</title>
<path fill="none" stroke="#404040" d="M76,-300.349C76,-289.534 76,-276.664 76,-263.858"/>
<polygon fill="none" stroke="#404040" points="76.0001,-263.668 72,-257.668 76,-251.668 80,-257.668 76.0001,-263.668"/>
<text text-anchor="middle" x="99.5" y="-273.5" font-family="Helvetica,sans-Serif" font-size="10.00"> +m_name</text>
</g>
<!-- Node4 -->
<g id="node4" class="node"><title>Node4</title>
<polygon fill="white" stroke="#bfbfbf" points="170.5,-172.5 170.5,-229.5 199.5,-229.5 199.5,-172.5 170.5,-172.5"/>
<text text-anchor="middle" x="185" y="-217.5" font-family="Helvetica,sans-Serif" font-size="10.00">T</text>
<polyline fill="none" stroke="#bfbfbf" points="170.5,-210.5 199.5,-210.5 "/>
<text text-anchor="middle" x="185" y="-198.5" font-family="Helvetica,sans-Serif" font-size="10.00"> </text>
<polyline fill="none" stroke="#bfbfbf" points="170.5,-191.5 199.5,-191.5 "/>
<text text-anchor="middle" x="185" y="-179.5" font-family="Helvetica,sans-Serif" font-size="10.00"> </text>
</g>
<!-- Node4&#45;&gt;Node1 -->
<g id="edge3" class="edge"><title>Node4&#45;&gt;Node1</title>
<path fill="none" stroke="#404040" d="M179.733,-172.162C176.595,-155.573 172.481,-133.83 168.617,-113.407"/>
<polygon fill="none" stroke="#404040" points="168.611,-113.373 163.566,-108.222 166.38,-101.583 171.426,-106.734 168.611,-113.373"/>
<text text-anchor="middle" x="194" y="-123.5" font-family="Helvetica,sans-Serif" font-size="10.00"> +m_value</text>
</g>
</g>
</svg>
