<?xml version="1.0" encoding="UTF-8" standalone="no"?>
<!DOCTYPE svg PUBLIC "-//W3C//DTD SVG 1.1//EN"
 "http://www.w3.org/Graphics/SVG/1.1/DTD/svg11.dtd">
<!-- Generated by graphviz version 2.36.0 (20140111.2315)
 -->
<!-- Title: Ra::Core::AttribHandle&lt; T &gt; Pages: 1 -->
<svg width="148pt" height="228pt"
 viewBox="0.00 0.00 148.00 228.00" xmlns="http://www.w3.org/2000/svg" xmlns:xlink="http://www.w3.org/1999/xlink">
<g id="graph0" class="graph" transform="scale(1 1) rotate(0) translate(4 224)">
<title>Ra::Core::AttribHandle&lt; T &gt;</title>
<polygon fill="white" stroke="none" points="-4,4 -4,-224 144,-224 144,4 -4,4"/>
<!-- Node1 -->
<g id="node1" class="node"><title>Node1</title>
<polygon fill="#bfbfbf" stroke="black" points="0,-140.5 0,-219.5 140,-219.5 140,-140.5 0,-140.5"/>
<text text-anchor="middle" x="70" y="-207.5" font-family="Helvetica,sans-Serif" font-size="10.00">Ra::Core::AttribHandle&lt; T &gt;</text>
<polyline fill="none" stroke="black" points="0,-200.5 140,-200.5 "/>
<text text-anchor="middle" x="70" y="-188.5" font-family="Helvetica,sans-Serif" font-size="10.00"> </text>
<polyline fill="none" stroke="black" points="0,-181.5 140,-181.5 "/>
<text text-anchor="start" x="8" y="-169.5" font-family="Helvetica,sans-Serif" font-size="10.00">+ operator==()</text>
<text text-anchor="start" x="8" y="-158.5" font-family="Helvetica,sans-Serif" font-size="10.00">+ idx()</text>
<text text-anchor="start" x="8" y="-147.5" font-family="Helvetica,sans-Serif" font-size="10.00">+ attribName()</text>
</g>
<!-- Node2 -->
<g id="node2" class="node"><title>Node2</title>
<g id="a_node2"><a xlink:href="classRa_1_1Core_1_1AttribHandle.html" target="_top" xlink:title="{Ra::Core::AttribHandle\l\&lt; Vector3 \&gt;\n||+ operator==()\l+ idx()\l+ attribName()\l}">
<polygon fill="white" stroke="black" points="12,-1 12,-91 128,-91 128,-1 12,-1"/>
<text text-anchor="start" x="20" y="-79" font-family="Helvetica,sans-Serif" font-size="10.00">Ra::Core::AttribHandle</text>
<text text-anchor="middle" x="70" y="-68" font-family="Helvetica,sans-Serif" font-size="10.00">&lt; Vector3 &gt;</text>
<polyline fill="none" stroke="black" points="12,-61 128,-61 "/>
<text text-anchor="middle" x="70" y="-49" font-family="Helvetica,sans-Serif" font-size="10.00"> </text>
<polyline fill="none" stroke="black" points="12,-42 128,-42 "/>
<text text-anchor="start" x="20" y="-30" font-family="Helvetica,sans-Serif" font-size="10.00">+ operator==()</text>
<text text-anchor="start" x="20" y="-19" font-family="Helvetica,sans-Serif" font-size="10.00">+ idx()</text>
<text text-anchor="start" x="20" y="-8" font-family="Helvetica,sans-Serif" font-size="10.00">+ attribName()</text>
</a>
</g>
</g>
<!-- Node1&#45;&gt;Node2 -->
<g id="edge1" class="edge"><title>Node1&#45;&gt;Node2</title>
<path fill="none" stroke="orange" d="M70,-130.455C70,-117.672 70,-103.947 70,-91.3945"/>
<polygon fill="orange" stroke="orange" points="66.5001,-130.465 70,-140.465 73.5001,-130.465 66.5001,-130.465"/>
<text text-anchor="middle" x="97.5" y="-113.5" font-family="Helvetica,sans-Serif" font-size="10.00"> &lt; Vector3 &gt;</text>
</g>
</g>
</svg>
