<?xml version="1.0" encoding="UTF-8" standalone="no"?>
<!DOCTYPE svg PUBLIC "-//W3C//DTD SVG 1.1//EN"
 "http://www.w3.org/Graphics/SVG/1.1/DTD/svg11.dtd">
<!-- Generated by graphviz version 2.36.0 (20140111.2315)
 -->
<!-- Title: Ra::Core::MAPFileManager::exportData Pages: 1 -->
<svg width="320pt" height="98pt"
 viewBox="0.00 0.00 320.00 98.00" xmlns="http://www.w3.org/2000/svg" xmlns:xlink="http://www.w3.org/1999/xlink">
<g id="graph0" class="graph" transform="scale(1 1) rotate(0) translate(4 94)">
<title>Ra::Core::MAPFileManager::exportData</title>
<polygon fill="white" stroke="none" points="-4,4 -4,-94 316,-94 316,4 -4,4"/>
<!-- Node1 -->
<g id="node1" class="node"><title>Node1</title>
<polygon fill="#bfbfbf" stroke="black" points="0.5,-27 0.5,-57 137.5,-57 137.5,-27 0.5,-27"/>
<text text-anchor="start" x="8.5" y="-45" font-family="Helvetica,sans-Serif" font-size="10.00">Ra::Core::MAPFileManager</text>
<text text-anchor="middle" x="69" y="-34" font-family="Helvetica,sans-Serif" font-size="10.00">::exportData</text>
</g>
<!-- Node2 -->
<g id="node2" class="node"><title>Node2</title>
<g id="a_node2"><a xlink:href="classRa_1_1Core_1_1FileManager.html#a32776fbf23e35ba0354e941b95194e73" target="_top" xlink:title="Ra::Core::FileManager\l\&lt; Parametrization \&gt;::\laddLogErrorEntry">
<polygon fill="white" stroke="black" points="185,-48.5 185,-89.5 301,-89.5 301,-48.5 185,-48.5"/>
<text text-anchor="start" x="193" y="-77.5" font-family="Helvetica,sans-Serif" font-size="10.00">Ra::Core::FileManager</text>
<text text-anchor="start" x="193" y="-66.5" font-family="Helvetica,sans-Serif" font-size="10.00">&lt; Parametrization &gt;::</text>
<text text-anchor="middle" x="243" y="-55.5" font-family="Helvetica,sans-Serif" font-size="10.00">addLogErrorEntry</text>
</a>
</g>
</g>
<!-- Node1&#45;&gt;Node2 -->
<g id="edge1" class="edge"><title>Node1&#45;&gt;Node2</title>
<path fill="none" stroke="midnightblue" d="M137.979,-52.6711C150.083,-54.5712 162.686,-56.5496 174.77,-58.4464"/>
<polygon fill="midnightblue" stroke="midnightblue" points="174.353,-61.9238 184.775,-60.017 175.439,-55.0085 174.353,-61.9238"/>
</g>
<!-- Node3 -->
<g id="node3" class="node"><title>Node3</title>
<g id="a_node3"><a xlink:href="classRa_1_1Core_1_1MAPFileManager.html#a5bf2e850b204bb574a4fcf27c6f78995" target="_top" xlink:title="HEADER. ">
<polygon fill="white" stroke="black" points="174.5,-0 174.5,-30 311.5,-30 311.5,-0 174.5,-0"/>
<text text-anchor="start" x="182.5" y="-18" font-family="Helvetica,sans-Serif" font-size="10.00">Ra::Core::MAPFileManager</text>
<text text-anchor="middle" x="243" y="-7" font-family="Helvetica,sans-Serif" font-size="10.00">::header</text>
</a>
</g>
</g>
<!-- Node1&#45;&gt;Node3 -->
<g id="edge2" class="edge"><title>Node1&#45;&gt;Node3</title>
<path fill="none" stroke="midnightblue" d="M137.979,-31.3289C146.55,-29.9834 155.372,-28.5986 164.082,-27.2314"/>
<polygon fill="midnightblue" stroke="midnightblue" points="164.897,-30.6463 174.233,-25.6378 163.811,-23.731 164.897,-30.6463"/>
</g>
</g>
</svg>
