<?xml version="1.0" encoding="UTF-8" standalone="no"?>
<!DOCTYPE svg PUBLIC "-//W3C//DTD SVG 1.1//EN"
 "http://www.w3.org/Graphics/SVG/1.1/DTD/svg11.dtd">
<!-- Generated by graphviz version 2.36.0 (20140111.2315)
 -->
<!-- Title: Ra::IO::AssimpGeometryDataLoader::loadMeshData Pages: 1 -->
<svg width="522pt" height="675pt"
 viewBox="0.00 0.00 522.00 675.00" xmlns="http://www.w3.org/2000/svg" xmlns:xlink="http://www.w3.org/1999/xlink">
<g id="graph0" class="graph" transform="scale(1 1) rotate(0) translate(4 671)">
<title>Ra::IO::AssimpGeometryDataLoader::loadMeshData</title>
<polygon fill="white" stroke="none" points="-4,4 -4,-671 518,-671 518,4 -4,4"/>
<!-- Node1 -->
<g id="node1" class="node"><title>Node1</title>
<polygon fill="#bfbfbf" stroke="black" points="0.5,-343 0.5,-373 149.5,-373 149.5,-343 0.5,-343"/>
<text text-anchor="start" x="8.5" y="-361" font-family="Helvetica,sans-Serif" font-size="10.00">Ra::IO::AssimpGeometryData</text>
<text text-anchor="middle" x="75" y="-350" font-family="Helvetica,sans-Serif" font-size="10.00">Loader::loadMeshData</text>
</g>
<!-- Node2 -->
<g id="node2" class="node"><title>Node2</title>
<g id="a_node2"><a xlink:href="classRa_1_1IO_1_1AssimpGeometryDataLoader.html#a52df2ebcfac6c77d72d725f6833bccc8" target="_top" xlink:title="Fill data with the name from mesh. ">
<polygon fill="white" stroke="black" points="191.5,-588 191.5,-618 340.5,-618 340.5,-588 191.5,-588"/>
<text text-anchor="start" x="199.5" y="-606" font-family="Helvetica,sans-Serif" font-size="10.00">Ra::IO::AssimpGeometryData</text>
<text text-anchor="middle" x="266" y="-595" font-family="Helvetica,sans-Serif" font-size="10.00">Loader::fetchName</text>
</a>
</g>
</g>
<!-- Node1&#45;&gt;Node2 -->
<g id="edge1" class="edge"><title>Node1&#45;&gt;Node2</title>
<path fill="none" stroke="midnightblue" d="M79.2263,-373.072C88.4947,-412.707 118.944,-520.734 186,-578 187.962,-579.676 190.037,-581.239 192.2,-582.699"/>
<polygon fill="midnightblue" stroke="midnightblue" points="190.526,-585.774 200.921,-587.823 194.072,-579.739 190.526,-585.774"/>
</g>
<!-- Node5 -->
<g id="node5" class="node"><title>Node5</title>
<g id="a_node5"><a xlink:href="classRa_1_1IO_1_1AssimpGeometryDataLoader.html#a0da619e2173b7a422405fd1d2767af42" target="_top" xlink:title="Fill data with the GeometryType from mesh. ">
<polygon fill="white" stroke="black" points="191.5,-637 191.5,-667 340.5,-667 340.5,-637 191.5,-637"/>
<text text-anchor="start" x="199.5" y="-655" font-family="Helvetica,sans-Serif" font-size="10.00">Ra::IO::AssimpGeometryData</text>
<text text-anchor="middle" x="266" y="-644" font-family="Helvetica,sans-Serif" font-size="10.00">Loader::fetchType</text>
</a>
</g>
</g>
<!-- Node1&#45;&gt;Node5 -->
<g id="edge4" class="edge"><title>Node1&#45;&gt;Node5</title>
<path fill="none" stroke="midnightblue" d="M77.7021,-373.004C83.6359,-418.251 107.525,-554.687 186,-627 187.719,-628.584 189.538,-630.068 191.438,-631.458"/>
<polygon fill="midnightblue" stroke="midnightblue" points="189.89,-634.618 200.221,-636.968 193.61,-628.689 189.89,-634.618"/>
</g>
<!-- Node7 -->
<g id="node7" class="node"><title>Node7</title>
<g id="a_node7"><a xlink:href="classRa_1_1IO_1_1AssimpGeometryDataLoader.html#ad369689491711d63ac789df228f4db94" target="_top" xlink:title="Fill data with the vertices from mesh. ">
<polygon fill="white" stroke="black" points="191.5,-539 191.5,-569 340.5,-569 340.5,-539 191.5,-539"/>
<text text-anchor="start" x="199.5" y="-557" font-family="Helvetica,sans-Serif" font-size="10.00">Ra::IO::AssimpGeometryData</text>
<text text-anchor="middle" x="266" y="-546" font-family="Helvetica,sans-Serif" font-size="10.00">Loader::fetchVertices</text>
</a>
</g>
</g>
<!-- Node1&#45;&gt;Node7 -->
<g id="edge6" class="edge"><title>Node1&#45;&gt;Node7</title>
<path fill="none" stroke="midnightblue" d="M81.5344,-373.061C94.5036,-406.269 130.058,-486.223 186,-529 188.435,-530.862 191.013,-532.588 193.692,-534.186"/>
<polygon fill="midnightblue" stroke="midnightblue" points="192.068,-537.287 202.544,-538.872 195.343,-531.1 192.068,-537.287"/>
</g>
<!-- Node9 -->
<g id="node9" class="node"><title>Node9</title>
<g id="a_node9"><a xlink:href="classRa_1_1Asset_1_1GeometryData.html#aedb628595b4768888ea0c02c37242ef7" target="_top" xlink:title="Return true if the object is a Line Mesh. ">
<polygon fill="white" stroke="black" points="200.5,-490 200.5,-520 331.5,-520 331.5,-490 200.5,-490"/>
<text text-anchor="start" x="208.5" y="-508" font-family="Helvetica,sans-Serif" font-size="10.00">Ra::Asset::GeometryData</text>
<text text-anchor="middle" x="266" y="-497" font-family="Helvetica,sans-Serif" font-size="10.00">::isLineMesh</text>
</a>
</g>
</g>
<!-- Node1&#45;&gt;Node9 -->
<g id="edge9" class="edge"><title>Node1&#45;&gt;Node9</title>
<path fill="none" stroke="midnightblue" d="M85.6169,-373.11C102.724,-398.792 140.913,-450.987 186,-480 189.149,-482.026 192.475,-483.899 195.908,-485.629"/>
<polygon fill="midnightblue" stroke="midnightblue" points="194.652,-488.903 205.202,-489.879 197.563,-482.537 194.652,-488.903"/>
</g>
<!-- Node10 -->
<g id="node10" class="node"><title>Node10</title>
<g id="a_node10"><a xlink:href="classRa_1_1IO_1_1AssimpGeometryDataLoader.html#ae1a8d24d2eff35f746cfdb4c5dbb740f" target="_top" xlink:title="Fill data with the lines from mesh. ">
<polygon fill="white" stroke="black" points="191.5,-441 191.5,-471 340.5,-471 340.5,-441 191.5,-441"/>
<text text-anchor="start" x="199.5" y="-459" font-family="Helvetica,sans-Serif" font-size="10.00">Ra::IO::AssimpGeometryData</text>
<text text-anchor="middle" x="266" y="-448" font-family="Helvetica,sans-Serif" font-size="10.00">Loader::fetchEdges</text>
</a>
</g>
</g>
<!-- Node1&#45;&gt;Node10 -->
<g id="edge10" class="edge"><title>Node1&#45;&gt;Node10</title>
<path fill="none" stroke="midnightblue" d="M95.2707,-373.223C116.484,-389.382 152.091,-414.779 186,-431 190.666,-433.232 195.579,-435.33 200.579,-437.288"/>
<polygon fill="midnightblue" stroke="midnightblue" points="199.663,-440.681 210.256,-440.878 202.098,-434.119 199.663,-440.681"/>
</g>
<!-- Node12 -->
<g id="node12" class="node"><title>Node12</title>
<g id="a_node12"><a xlink:href="classRa_1_1IO_1_1AssimpGeometryDataLoader.html#a7f554a1a591245ed063fdb5539e4669e" target="_top" xlink:title="Fill data with the faces from mesh. ">
<polygon fill="white" stroke="black" points="191.5,-392 191.5,-422 340.5,-422 340.5,-392 191.5,-392"/>
<text text-anchor="start" x="199.5" y="-410" font-family="Helvetica,sans-Serif" font-size="10.00">Ra::IO::AssimpGeometryData</text>
<text text-anchor="middle" x="266" y="-399" font-family="Helvetica,sans-Serif" font-size="10.00">Loader::fetchFaces</text>
</a>
</g>
</g>
<!-- Node1&#45;&gt;Node12 -->
<g id="edge13" class="edge"><title>Node1&#45;&gt;Node12</title>
<path fill="none" stroke="midnightblue" d="M133.991,-373.035C154.037,-378.232 176.674,-384.101 197.421,-389.48"/>
<polygon fill="midnightblue" stroke="midnightblue" points="196.561,-392.872 207.119,-391.994 198.317,-386.096 196.561,-392.872"/>
</g>
<!-- Node14 -->
<g id="node14" class="node"><title>Node14</title>
<g id="a_node14"><a xlink:href="classRa_1_1Asset_1_1GeometryData.html#a2f6d8fbb107960e57e1986447cdff885" target="_top" xlink:title="Return true if the object is a Tetrahedron Mesh. ">
<polygon fill="white" stroke="black" points="200.5,-343 200.5,-373 331.5,-373 331.5,-343 200.5,-343"/>
<text text-anchor="start" x="208.5" y="-361" font-family="Helvetica,sans-Serif" font-size="10.00">Ra::Asset::GeometryData</text>
<text text-anchor="middle" x="266" y="-350" font-family="Helvetica,sans-Serif" font-size="10.00">::isTetraMesh</text>
</a>
</g>
</g>
<!-- Node1&#45;&gt;Node14 -->
<g id="edge16" class="edge"><title>Node1&#45;&gt;Node14</title>
<path fill="none" stroke="midnightblue" d="M149.614,-358C162.994,-358 176.962,-358 190.372,-358"/>
<polygon fill="midnightblue" stroke="midnightblue" points="190.498,-361.5 200.498,-358 190.498,-354.5 190.498,-361.5"/>
</g>
<!-- Node15 -->
<g id="node15" class="node"><title>Node15</title>
<g id="a_node15"><a xlink:href="classRa_1_1Asset_1_1GeometryData.html#acd7a4eb5fa51846e16a49d08a704a92d" target="_top" xlink:title="Return true if the object is a Hexahedron Mesh. ">
<polygon fill="white" stroke="black" points="200.5,-294 200.5,-324 331.5,-324 331.5,-294 200.5,-294"/>
<text text-anchor="start" x="208.5" y="-312" font-family="Helvetica,sans-Serif" font-size="10.00">Ra::Asset::GeometryData</text>
<text text-anchor="middle" x="266" y="-301" font-family="Helvetica,sans-Serif" font-size="10.00">::isHexMesh</text>
</a>
</g>
</g>
<!-- Node1&#45;&gt;Node15 -->
<g id="edge17" class="edge"><title>Node1&#45;&gt;Node15</title>
<path fill="none" stroke="midnightblue" d="M133.991,-342.965C154.037,-337.768 176.674,-331.899 197.421,-326.52"/>
<polygon fill="midnightblue" stroke="midnightblue" points="198.317,-329.904 207.119,-324.006 196.561,-323.128 198.317,-329.904"/>
</g>
<!-- Node16 -->
<g id="node16" class="node"><title>Node16</title>
<g id="a_node16"><a xlink:href="classRa_1_1IO_1_1AssimpGeometryDataLoader.html#a93585196c7817640e31447e229d83c6c" target="_top" xlink:title="Fill data with the polyhedra from mesh. ">
<polygon fill="white" stroke="black" points="191.5,-245 191.5,-275 340.5,-275 340.5,-245 191.5,-245"/>
<text text-anchor="start" x="199.5" y="-263" font-family="Helvetica,sans-Serif" font-size="10.00">Ra::IO::AssimpGeometryData</text>
<text text-anchor="middle" x="266" y="-252" font-family="Helvetica,sans-Serif" font-size="10.00">Loader::fetchPolyhedron</text>
</a>
</g>
</g>
<!-- Node1&#45;&gt;Node16 -->
<g id="edge18" class="edge"><title>Node1&#45;&gt;Node16</title>
<path fill="none" stroke="midnightblue" d="M94.8136,-342.774C115.917,-326.328 151.698,-300.298 186,-284 190.042,-282.08 194.273,-280.271 198.587,-278.574"/>
<polygon fill="midnightblue" stroke="midnightblue" points="199.96,-281.798 208.121,-275.042 197.528,-275.234 199.96,-281.798"/>
</g>
<!-- Node17 -->
<g id="node17" class="node"><title>Node17</title>
<g id="a_node17"><a xlink:href="classRa_1_1IO_1_1AssimpGeometryDataLoader.html#a104cc1f1ccf9e9ba3c11f506e8b4947e" target="_top" xlink:title="Fill data with the vertex normals from mesh. ">
<polygon fill="white" stroke="black" points="191.5,-98 191.5,-128 340.5,-128 340.5,-98 191.5,-98"/>
<text text-anchor="start" x="199.5" y="-116" font-family="Helvetica,sans-Serif" font-size="10.00">Ra::IO::AssimpGeometryData</text>
<text text-anchor="middle" x="266" y="-105" font-family="Helvetica,sans-Serif" font-size="10.00">Loader::fetchNormals</text>
</a>
</g>
</g>
<!-- Node1&#45;&gt;Node17 -->
<g id="edge19" class="edge"><title>Node1&#45;&gt;Node17</title>
<path fill="none" stroke="midnightblue" d="M79.1677,-342.817C88.2924,-302.897 118.421,-194.146 186,-137 187.519,-135.716 189.105,-134.5 190.747,-133.35"/>
<polygon fill="midnightblue" stroke="midnightblue" points="192.63,-136.301 199.365,-128.122 189,-130.316 192.63,-136.301"/>
</g>
<!-- Node20 -->
<g id="node20" class="node"><title>Node20</title>
<g id="a_node20"><a xlink:href="classRa_1_1IO_1_1AssimpGeometryDataLoader.html#a394b1ea37658c2e6c0150c987c6e4b9f" target="_top" xlink:title="Fill data with the vertex tangent vectors from mesh. ">
<polygon fill="white" stroke="black" points="191.5,-196 191.5,-226 340.5,-226 340.5,-196 191.5,-196"/>
<text text-anchor="start" x="199.5" y="-214" font-family="Helvetica,sans-Serif" font-size="10.00">Ra::IO::AssimpGeometryData</text>
<text text-anchor="middle" x="266" y="-203" font-family="Helvetica,sans-Serif" font-size="10.00">Loader::fetchTangents</text>
</a>
</g>
</g>
<!-- Node1&#45;&gt;Node20 -->
<g id="edge23" class="edge"><title>Node1&#45;&gt;Node20</title>
<path fill="none" stroke="midnightblue" d="M85.5507,-342.708C102.557,-316.727 140.6,-263.974 186,-235 188.575,-233.356 191.269,-231.82 194.044,-230.385"/>
<polygon fill="midnightblue" stroke="midnightblue" points="195.559,-233.54 203.137,-226.136 192.596,-227.199 195.559,-233.54"/>
</g>
<!-- Node22 -->
<g id="node22" class="node"><title>Node22</title>
<g id="a_node22"><a xlink:href="classRa_1_1IO_1_1AssimpGeometryDataLoader.html#a438274cd5cf254ab710431b59ddd3396" target="_top" xlink:title="Fill data with the vertex bitangent vectors from mesh. ">
<polygon fill="white" stroke="black" points="191.5,-147 191.5,-177 340.5,-177 340.5,-147 191.5,-147"/>
<text text-anchor="start" x="199.5" y="-165" font-family="Helvetica,sans-Serif" font-size="10.00">Ra::IO::AssimpGeometryData</text>
<text text-anchor="middle" x="266" y="-154" font-family="Helvetica,sans-Serif" font-size="10.00">Loader::fetchBitangents</text>
</a>
</g>
</g>
<!-- Node1&#45;&gt;Node22 -->
<g id="edge26" class="edge"><title>Node1&#45;&gt;Node22</title>
<path fill="none" stroke="midnightblue" d="M81.4728,-342.804C94.3173,-309.306 129.636,-228.704 186,-186 187.857,-184.593 189.796,-183.269 191.8,-182.021"/>
<polygon fill="midnightblue" stroke="midnightblue" points="193.843,-184.893 200.944,-177.03 190.489,-178.749 193.843,-184.893"/>
</g>
<!-- Node24 -->
<g id="node24" class="node"><title>Node24</title>
<g id="a_node24"><a xlink:href="classRa_1_1IO_1_1AssimpGeometryDataLoader.html#afaae07a29263cd344435571cc964dac2" target="_top" xlink:title="Fill data with the vertex texture coordinates from mesh. ">
<polygon fill="white" stroke="black" points="186.5,-49 186.5,-79 345.5,-79 345.5,-49 186.5,-49"/>
<text text-anchor="start" x="194.5" y="-67" font-family="Helvetica,sans-Serif" font-size="10.00">Ra::IO::AssimpGeometryData</text>
<text text-anchor="middle" x="266" y="-56" font-family="Helvetica,sans-Serif" font-size="10.00">Loader::fetchTextureCoordinates</text>
</a>
</g>
</g>
<!-- Node1&#45;&gt;Node24 -->
<g id="edge29" class="edge"><title>Node1&#45;&gt;Node24</title>
<path fill="none" stroke="midnightblue" d="M77.6459,-342.9C83.4201,-297.371 106.904,-160.139 186,-88 187.311,-86.8047 188.679,-85.6688 190.097,-84.5895"/>
<polygon fill="midnightblue" stroke="midnightblue" points="192.215,-87.3874 198.695,-79.0053 188.402,-81.5169 192.215,-87.3874"/>
</g>
<!-- Node3 -->
<g id="node3" class="node"><title>Node3</title>
<g id="a_node3"><a xlink:href="namespaceRa_1_1IO.html#aef6c50424873964fcea0008be55d4a34" target="_top" xlink:title="Ra::IO::assimpToCore">
<polygon fill="white" stroke="black" points="390,-299.5 390,-318.5 506,-318.5 506,-299.5 390,-299.5"/>
<text text-anchor="middle" x="448" y="-306.5" font-family="Helvetica,sans-Serif" font-size="10.00">Ra::IO::assimpToCore</text>
</a>
</g>
</g>
<!-- Node2&#45;&gt;Node3 -->
<g id="edge2" class="edge"><title>Node2&#45;&gt;Node3</title>
<path fill="none" stroke="midnightblue" d="M334.161,-587.948C338.549,-585.169 342.574,-581.883 346,-578 404.599,-511.588 343.112,-461.574 382,-382 392.939,-359.617 412.709,-338.898 427.583,-325.296"/>
<polygon fill="midnightblue" stroke="midnightblue" points="430.087,-327.754 435.256,-318.506 425.448,-322.512 430.087,-327.754"/>
</g>
<!-- Node4 -->
<g id="node4" class="node"><title>Node4</title>
<g id="a_node4"><a xlink:href="classRa_1_1Asset_1_1GeometryData.html#a243148184c6a5c3aeba47951f75fc73c" target="_top" xlink:title="Ra::Asset::GeometryData\l::setName">
<polygon fill="white" stroke="black" points="382.5,-588 382.5,-618 513.5,-618 513.5,-588 382.5,-588"/>
<text text-anchor="start" x="390.5" y="-606" font-family="Helvetica,sans-Serif" font-size="10.00">Ra::Asset::GeometryData</text>
<text text-anchor="middle" x="448" y="-595" font-family="Helvetica,sans-Serif" font-size="10.00">::setName</text>
</a>
</g>
</g>
<!-- Node2&#45;&gt;Node4 -->
<g id="edge3" class="edge"><title>Node2&#45;&gt;Node4</title>
<path fill="none" stroke="midnightblue" d="M340.732,-603C351.072,-603 361.708,-603 372.07,-603"/>
<polygon fill="midnightblue" stroke="midnightblue" points="372.32,-606.5 382.32,-603 372.32,-599.5 372.32,-606.5"/>
</g>
<!-- Node6 -->
<g id="node6" class="node"><title>Node6</title>
<g id="a_node6"><a xlink:href="classRa_1_1Asset_1_1GeometryData.html#a23f044c78e92cc740444a06ab9690e3b" target="_top" xlink:title="Set the type of geometry. ">
<polygon fill="white" stroke="black" points="382.5,-637 382.5,-667 513.5,-667 513.5,-637 382.5,-637"/>
<text text-anchor="start" x="390.5" y="-655" font-family="Helvetica,sans-Serif" font-size="10.00">Ra::Asset::GeometryData</text>
<text text-anchor="middle" x="448" y="-644" font-family="Helvetica,sans-Serif" font-size="10.00">::setType</text>
</a>
</g>
</g>
<!-- Node5&#45;&gt;Node6 -->
<g id="edge5" class="edge"><title>Node5&#45;&gt;Node6</title>
<path fill="none" stroke="midnightblue" d="M340.732,-652C351.072,-652 361.708,-652 372.07,-652"/>
<polygon fill="midnightblue" stroke="midnightblue" points="372.32,-655.5 382.32,-652 372.32,-648.5 372.32,-655.5"/>
</g>
<!-- Node7&#45;&gt;Node3 -->
<g id="edge8" class="edge"><title>Node7&#45;&gt;Node3</title>
<path fill="none" stroke="midnightblue" d="M333.542,-538.948C338.127,-536.172 342.363,-532.886 346,-529 391.96,-479.887 350.711,-441.543 382,-382 393.589,-359.946 413.263,-339.179 427.938,-325.475"/>
<polygon fill="midnightblue" stroke="midnightblue" points="430.435,-327.936 435.493,-318.626 425.734,-322.75 430.435,-327.936"/>
</g>
<!-- Node8 -->
<g id="node8" class="node"><title>Node8</title>
<g id="a_node8"><a xlink:href="classRa_1_1Asset_1_1GeometryData.html#a20394106458e5e8deade13af0bec3ebb" target="_top" xlink:title="Return the list of vertices. ">
<polygon fill="white" stroke="black" points="382.5,-539 382.5,-569 513.5,-569 513.5,-539 382.5,-539"/>
<text text-anchor="start" x="390.5" y="-557" font-family="Helvetica,sans-Serif" font-size="10.00">Ra::Asset::GeometryData</text>
<text text-anchor="middle" x="448" y="-546" font-family="Helvetica,sans-Serif" font-size="10.00">::getVertices</text>
</a>
</g>
</g>
<!-- Node7&#45;&gt;Node8 -->
<g id="edge7" class="edge"><title>Node7&#45;&gt;Node8</title>
<path fill="none" stroke="midnightblue" d="M340.732,-554C351.072,-554 361.708,-554 372.07,-554"/>
<polygon fill="midnightblue" stroke="midnightblue" points="372.32,-557.5 382.32,-554 372.32,-550.5 372.32,-557.5"/>
</g>
<!-- Node10&#45;&gt;Node3 -->
<g id="edge12" class="edge"><title>Node10&#45;&gt;Node3</title>
<path fill="none" stroke="midnightblue" d="M328.406,-440.913C334.625,-438.131 340.621,-434.855 346,-431 367.965,-415.258 364.996,-403.003 382,-382 397.888,-362.375 417.266,-340.902 430.71,-326.358"/>
<polygon fill="midnightblue" stroke="midnightblue" points="433.62,-328.369 437.868,-318.663 428.494,-323.601 433.62,-328.369"/>
</g>
<!-- Node11 -->
<g id="node11" class="node"><title>Node11</title>
<g id="a_node11"><a xlink:href="classRa_1_1Asset_1_1GeometryData.html#abe4083fd2256390f3d90734cc9003599" target="_top" xlink:title="Return the list of lines. ">
<polygon fill="white" stroke="black" points="382.5,-441 382.5,-471 513.5,-471 513.5,-441 382.5,-441"/>
<text text-anchor="start" x="390.5" y="-459" font-family="Helvetica,sans-Serif" font-size="10.00">Ra::Asset::GeometryData</text>
<text text-anchor="middle" x="448" y="-448" font-family="Helvetica,sans-Serif" font-size="10.00">::getEdges</text>
</a>
</g>
</g>
<!-- Node10&#45;&gt;Node11 -->
<g id="edge11" class="edge"><title>Node10&#45;&gt;Node11</title>
<path fill="none" stroke="midnightblue" d="M340.732,-456C351.072,-456 361.708,-456 372.07,-456"/>
<polygon fill="midnightblue" stroke="midnightblue" points="372.32,-459.5 382.32,-456 372.32,-452.5 372.32,-459.5"/>
</g>
<!-- Node12&#45;&gt;Node3 -->
<g id="edge15" class="edge"><title>Node12&#45;&gt;Node3</title>
<path fill="none" stroke="midnightblue" d="M322.296,-391.998C330.415,-389.084 338.547,-385.75 346,-382 377.146,-366.329 409.102,-341.46 428.507,-325.183"/>
<polygon fill="midnightblue" stroke="midnightblue" points="430.914,-327.73 436.253,-318.579 426.373,-322.403 430.914,-327.73"/>
</g>
<!-- Node13 -->
<g id="node13" class="node"><title>Node13</title>
<g id="a_node13"><a xlink:href="classRa_1_1Asset_1_1GeometryData.html#acdad9f2b09a7d942db229ace49a4fea0" target="_top" xlink:title="Return the list of faces. ">
<polygon fill="white" stroke="black" points="382.5,-392 382.5,-422 513.5,-422 513.5,-392 382.5,-392"/>
<text text-anchor="start" x="390.5" y="-410" font-family="Helvetica,sans-Serif" font-size="10.00">Ra::Asset::GeometryData</text>
<text text-anchor="middle" x="448" y="-399" font-family="Helvetica,sans-Serif" font-size="10.00">::getFaces</text>
</a>
</g>
</g>
<!-- Node12&#45;&gt;Node13 -->
<g id="edge14" class="edge"><title>Node12&#45;&gt;Node13</title>
<path fill="none" stroke="midnightblue" d="M340.732,-407C351.072,-407 361.708,-407 372.07,-407"/>
<polygon fill="midnightblue" stroke="midnightblue" points="372.32,-410.5 382.32,-407 372.32,-403.5 372.32,-410.5"/>
</g>
<!-- Node17&#45;&gt;Node3 -->
<g id="edge22" class="edge"><title>Node17&#45;&gt;Node3</title>
<path fill="none" stroke="midnightblue" d="M333.819,-128.075C338.226,-130.604 342.353,-133.555 346,-137 379.734,-168.861 358.287,-195.115 382,-235 394.977,-256.827 414.77,-278.231 429.106,-292.359"/>
<polygon fill="midnightblue" stroke="midnightblue" points="426.8,-294.998 436.43,-299.416 431.657,-289.957 426.8,-294.998"/>
</g>
<!-- Node18 -->
<g id="node18" class="node"><title>Node18</title>
<g id="a_node18"><a xlink:href="classRa_1_1Asset_1_1GeometryData.html#a3b706a2f7490107865f20c4cb71c5777" target="_top" xlink:title="Return the list of vertex normals. ">
<polygon fill="white" stroke="black" points="382.5,-98 382.5,-128 513.5,-128 513.5,-98 382.5,-98"/>
<text text-anchor="start" x="390.5" y="-116" font-family="Helvetica,sans-Serif" font-size="10.00">Ra::Asset::GeometryData</text>
<text text-anchor="middle" x="448" y="-105" font-family="Helvetica,sans-Serif" font-size="10.00">::getNormals</text>
</a>
</g>
</g>
<!-- Node17&#45;&gt;Node18 -->
<g id="edge20" class="edge"><title>Node17&#45;&gt;Node18</title>
<path fill="none" stroke="midnightblue" d="M340.732,-113C351.072,-113 361.708,-113 372.07,-113"/>
<polygon fill="midnightblue" stroke="midnightblue" points="372.32,-116.5 382.32,-113 372.32,-109.5 372.32,-116.5"/>
</g>
<!-- Node19 -->
<g id="node19" class="node"><title>Node19</title>
<g id="a_node19"><a xlink:href="classRa_1_1Asset_1_1GeometryData.html#ad31c0f120d5e88c40afefa79c29ae28a" target="_top" xlink:title="Return the number of vertices. ">
<polygon fill="white" stroke="black" points="382.5,-49 382.5,-79 513.5,-79 513.5,-49 382.5,-49"/>
<text text-anchor="start" x="390.5" y="-67" font-family="Helvetica,sans-Serif" font-size="10.00">Ra::Asset::GeometryData</text>
<text text-anchor="middle" x="448" y="-56" font-family="Helvetica,sans-Serif" font-size="10.00">::getVerticesSize</text>
</a>
</g>
</g>
<!-- Node17&#45;&gt;Node19 -->
<g id="edge21" class="edge"><title>Node17&#45;&gt;Node19</title>
<path fill="none" stroke="midnightblue" d="M322.475,-97.8986C341.297,-92.7747 362.494,-87.0044 381.991,-81.6968"/>
<polygon fill="midnightblue" stroke="midnightblue" points="382.979,-85.0554 391.708,-79.0516 381.14,-78.3012 382.979,-85.0554"/>
</g>
<!-- Node20&#45;&gt;Node3 -->
<g id="edge25" class="edge"><title>Node20&#45;&gt;Node3</title>
<path fill="none" stroke="midnightblue" d="M324.845,-226.082C332.115,-228.697 339.333,-231.667 346,-235 377.502,-250.75 409.586,-276.206 428.896,-292.772"/>
<polygon fill="midnightblue" stroke="midnightblue" points="426.751,-295.545 436.587,-299.483 431.353,-290.271 426.751,-295.545"/>
</g>
<!-- Node21 -->
<g id="node21" class="node"><title>Node21</title>
<g id="a_node21"><a xlink:href="classRa_1_1Asset_1_1GeometryData.html#a5090ec004b5ff8a9c0de0da4c049a5bc" target="_top" xlink:title="Return the list of vertex tangent vectors. ">
<polygon fill="white" stroke="black" points="382.5,-196 382.5,-226 513.5,-226 513.5,-196 382.5,-196"/>
<text text-anchor="start" x="390.5" y="-214" font-family="Helvetica,sans-Serif" font-size="10.00">Ra::Asset::GeometryData</text>
<text text-anchor="middle" x="448" y="-203" font-family="Helvetica,sans-Serif" font-size="10.00">::getTangents</text>
</a>
</g>
</g>
<!-- Node20&#45;&gt;Node21 -->
<g id="edge24" class="edge"><title>Node20&#45;&gt;Node21</title>
<path fill="none" stroke="midnightblue" d="M340.732,-211C351.072,-211 361.708,-211 372.07,-211"/>
<polygon fill="midnightblue" stroke="midnightblue" points="372.32,-214.5 382.32,-211 372.32,-207.5 372.32,-214.5"/>
</g>
<!-- Node22&#45;&gt;Node3 -->
<g id="edge28" class="edge"><title>Node22&#45;&gt;Node3</title>
<path fill="none" stroke="midnightblue" d="M330.42,-177.165C335.917,-179.68 341.203,-182.604 346,-186 368.056,-201.615 365.067,-213.94 382,-235 398.092,-255.015 417.674,-277.015 431.113,-291.782"/>
<polygon fill="midnightblue" stroke="midnightblue" points="428.553,-294.169 437.886,-299.183 433.717,-289.443 428.553,-294.169"/>
</g>
<!-- Node23 -->
<g id="node23" class="node"><title>Node23</title>
<g id="a_node23"><a xlink:href="classRa_1_1Asset_1_1GeometryData.html#a863b5b343ec5ea7af019eebbf859b7eb" target="_top" xlink:title="Return the list of vertex bitangent vectors. ">
<polygon fill="white" stroke="black" points="382.5,-147 382.5,-177 513.5,-177 513.5,-147 382.5,-147"/>
<text text-anchor="start" x="390.5" y="-165" font-family="Helvetica,sans-Serif" font-size="10.00">Ra::Asset::GeometryData</text>
<text text-anchor="middle" x="448" y="-154" font-family="Helvetica,sans-Serif" font-size="10.00">::getBiTangents</text>
</a>
</g>
</g>
<!-- Node22&#45;&gt;Node23 -->
<g id="edge27" class="edge"><title>Node22&#45;&gt;Node23</title>
<path fill="none" stroke="midnightblue" d="M340.732,-162C351.072,-162 361.708,-162 372.07,-162"/>
<polygon fill="midnightblue" stroke="midnightblue" points="372.32,-165.5 382.32,-162 372.32,-158.5 372.32,-165.5"/>
</g>
<!-- Node24&#45;&gt;Node3 -->
<g id="edge32" class="edge"><title>Node24&#45;&gt;Node3</title>
<path fill="none" stroke="midnightblue" d="M334.997,-79.0866C339.022,-81.6165 342.748,-84.5649 346,-88 392.243,-136.847 350.912,-175.351 382,-235 393.669,-257.39 413.502,-278.57 428.198,-292.487"/>
<polygon fill="midnightblue" stroke="midnightblue" points="426.02,-295.239 435.75,-299.433 430.759,-290.087 426.02,-295.239"/>
</g>
<!-- Node24&#45;&gt;Node19 -->
<g id="edge31" class="edge"><title>Node24&#45;&gt;Node19</title>
<path fill="none" stroke="midnightblue" d="M345.689,-64C354.46,-64 363.377,-64 372.099,-64"/>
<polygon fill="midnightblue" stroke="midnightblue" points="372.228,-67.5001 382.228,-64 372.228,-60.5001 372.228,-67.5001"/>
</g>
<!-- Node25 -->
<g id="node25" class="node"><title>Node25</title>
<g id="a_node25"><a xlink:href="classRa_1_1Asset_1_1GeometryData.html#a55dc4072ed4026280b5e124f35d5b550" target="_top" xlink:title="Return the list of vertex texture coordinates. ">
<polygon fill="white" stroke="black" points="382.5,-0 382.5,-30 513.5,-30 513.5,-0 382.5,-0"/>
<text text-anchor="start" x="390.5" y="-18" font-family="Helvetica,sans-Serif" font-size="10.00">Ra::Asset::GeometryData</text>
<text text-anchor="middle" x="448" y="-7" font-family="Helvetica,sans-Serif" font-size="10.00">::getTexCoords</text>
</a>
</g>
</g>
<!-- Node24&#45;&gt;Node25 -->
<g id="edge30" class="edge"><title>Node24&#45;&gt;Node25</title>
<path fill="none" stroke="midnightblue" d="M322.475,-48.8986C341.297,-43.7747 362.494,-38.0044 381.991,-32.6968"/>
<polygon fill="midnightblue" stroke="midnightblue" points="382.979,-36.0554 391.708,-30.0516 381.14,-29.3012 382.979,-36.0554"/>
</g>
</g>
</svg>
