<?xml version="1.0" encoding="UTF-8" standalone="no"?>
<!DOCTYPE svg PUBLIC "-//W3C//DTD SVG 1.1//EN"
 "http://www.w3.org/Graphics/SVG/1.1/DTD/svg11.dtd">
<!-- Generated by graphviz version 2.36.0 (20140111.2315)
 -->
<!-- Title: Ra::GuiBase::BaseApplication::setupScene Pages: 1 -->
<svg width="724pt" height="322pt"
 viewBox="0.00 0.00 724.00 322.00" xmlns="http://www.w3.org/2000/svg" xmlns:xlink="http://www.w3.org/1999/xlink">
<g id="graph0" class="graph" transform="scale(1 1) rotate(0) translate(4 318)">
<title>Ra::GuiBase::BaseApplication::setupScene</title>
<polygon fill="white" stroke="none" points="-4,4 -4,-318 720,-318 720,4 -4,4"/>
<!-- Node1 -->
<g id="node1" class="node"><title>Node1</title>
<polygon fill="#bfbfbf" stroke="black" points="0.5,-88 0.5,-118 149.5,-118 149.5,-88 0.5,-88"/>
<text text-anchor="start" x="8.5" y="-106" font-family="Helvetica,sans-Serif" font-size="10.00">Ra::GuiBase::BaseApplication</text>
<text text-anchor="middle" x="75" y="-95" font-family="Helvetica,sans-Serif" font-size="10.00">::setupScene</text>
</g>
<!-- Node2 -->
<g id="node2" class="node"><title>Node2</title>
<g id="a_node2"><a xlink:href="namespaceRa_1_1Engine_1_1DrawPrimitives.html#a70881604443264a7fceb751567eaa5b4" target="_top" xlink:title="Ra::Engine::DrawPrimitives\l::Primitive">
<polygon fill="white" stroke="black" points="186,-210 186,-240 324,-240 324,-210 186,-210"/>
<text text-anchor="start" x="194" y="-228" font-family="Helvetica,sans-Serif" font-size="10.00">Ra::Engine::DrawPrimitives</text>
<text text-anchor="middle" x="255" y="-217" font-family="Helvetica,sans-Serif" font-size="10.00">::Primitive</text>
</a>
</g>
</g>
<!-- Node1&#45;&gt;Node2 -->
<g id="edge1" class="edge"><title>Node1&#45;&gt;Node2</title>
<path fill="none" stroke="midnightblue" d="M98.1839,-118.205C129.8,-139.874 187.928,-179.715 223.553,-204.132"/>
<polygon fill="midnightblue" stroke="midnightblue" points="221.868,-207.22 232.096,-209.987 225.826,-201.446 221.868,-207.22"/>
</g>
<!-- Node7 -->
<g id="node7" class="node"><title>Node7</title>
<g id="a_node7"><a xlink:href="classRa_1_1Engine_1_1SystemEntity.html#a2b341d35802bc8d3e1b7a49833db9730" target="_top" xlink:title="Access the UI Component. ">
<polygon fill="white" stroke="black" points="189.5,-137 189.5,-167 320.5,-167 320.5,-137 189.5,-137"/>
<text text-anchor="start" x="197.5" y="-155" font-family="Helvetica,sans-Serif" font-size="10.00">Ra::Engine::SystemEntity</text>
<text text-anchor="middle" x="255" y="-144" font-family="Helvetica,sans-Serif" font-size="10.00">::uiCmp</text>
</a>
</g>
</g>
<!-- Node1&#45;&gt;Node7 -->
<g id="edge6" class="edge"><title>Node1&#45;&gt;Node7</title>
<path fill="none" stroke="midnightblue" d="M130.858,-118.101C149.386,-123.202 170.242,-128.943 189.45,-134.23"/>
<polygon fill="midnightblue" stroke="midnightblue" points="188.753,-137.669 199.323,-136.948 190.61,-130.92 188.753,-137.669"/>
</g>
<!-- Node10 -->
<g id="node10" class="node"><title>Node10</title>
<g id="a_node10"><a xlink:href="namespaceRa_1_1Engine_1_1DrawPrimitives.html#a64724cb608007bd81387f307ea47d0e3" target="_top" xlink:title="Create a res*res square grid centered on center, in plane normal to normal. ">
<polygon fill="white" stroke="black" points="186,-88 186,-118 324,-118 324,-88 186,-88"/>
<text text-anchor="start" x="194" y="-106" font-family="Helvetica,sans-Serif" font-size="10.00">Ra::Engine::DrawPrimitives</text>
<text text-anchor="middle" x="255" y="-95" font-family="Helvetica,sans-Serif" font-size="10.00">::Grid</text>
</a>
</g>
</g>
<!-- Node1&#45;&gt;Node10 -->
<g id="edge9" class="edge"><title>Node1&#45;&gt;Node10</title>
<path fill="none" stroke="midnightblue" d="M149.684,-103C158.277,-103 167.066,-103 175.719,-103"/>
<polygon fill="midnightblue" stroke="midnightblue" points="175.792,-106.5 185.792,-103 175.792,-99.5001 175.792,-106.5"/>
</g>
<!-- Node11 -->
<g id="node11" class="node"><title>Node11</title>
<g id="a_node11"><a xlink:href="namespaceRa_1_1Core_1_1Colors.html#a9b6b3be86ee487b0a0e387566756b60d" target="_top" xlink:title="Ra::Core::Colors::Grey">
<polygon fill="white" stroke="black" points="196,-49.5 196,-68.5 314,-68.5 314,-49.5 196,-49.5"/>
<text text-anchor="middle" x="255" y="-56.5" font-family="Helvetica,sans-Serif" font-size="10.00">Ra::Core::Colors::Grey</text>
</a>
</g>
</g>
<!-- Node1&#45;&gt;Node11 -->
<g id="edge10" class="edge"><title>Node1&#45;&gt;Node11</title>
<path fill="none" stroke="midnightblue" d="M136.76,-87.9808C159.278,-82.4144 184.487,-76.1829 205.743,-70.9287"/>
<polygon fill="midnightblue" stroke="midnightblue" points="206.65,-74.3099 215.518,-68.5124 204.97,-67.5144 206.65,-74.3099"/>
</g>
<!-- Node12 -->
<g id="node12" class="node"><title>Node12</title>
<g id="a_node12"><a xlink:href="classRa_1_1Engine_1_1Component.html#a8faa6f03b4a5a8bc30bb8ff402e6b61f" target="_top" xlink:title="Add a new render object to the component. This adds the RO to the manager for drawing. ">
<polygon fill="white" stroke="black" points="194,-0 194,-30 316,-30 316,-0 194,-0"/>
<text text-anchor="start" x="202" y="-18" font-family="Helvetica,sans-Serif" font-size="10.00">Ra::Engine::Component</text>
<text text-anchor="middle" x="255" y="-7" font-family="Helvetica,sans-Serif" font-size="10.00">::addRenderObject</text>
</a>
</g>
</g>
<!-- Node1&#45;&gt;Node12 -->
<g id="edge11" class="edge"><title>Node1&#45;&gt;Node12</title>
<path fill="none" stroke="midnightblue" d="M99.843,-87.7855C121.715,-74.2093 155.282,-54.3197 186,-40 190.585,-37.8626 195.408,-35.7798 200.28,-33.7871"/>
<polygon fill="midnightblue" stroke="midnightblue" points="201.651,-37.0087 209.663,-30.0755 199.076,-30.4995 201.651,-37.0087"/>
</g>
<!-- Node3 -->
<g id="node3" class="node"><title>Node3</title>
<g id="a_node3"><a xlink:href="namespaceRa_1_1Engine_1_1ShaderConfigurationFactory.html#a0bc60f21dbabd745961037f3d2f019c8" target="_top" xlink:title="Ra::Engine::ShaderConfiguration\lFactory::getConfiguration">
<polygon fill="white" stroke="black" points="360,-284 360,-314 520,-314 520,-284 360,-284"/>
<text text-anchor="start" x="368" y="-302" font-family="Helvetica,sans-Serif" font-size="10.00">Ra::Engine::ShaderConfiguration</text>
<text text-anchor="middle" x="440" y="-291" font-family="Helvetica,sans-Serif" font-size="10.00">Factory::getConfiguration</text>
</a>
</g>
</g>
<!-- Node2&#45;&gt;Node3 -->
<g id="edge2" class="edge"><title>Node2&#45;&gt;Node3</title>
<path fill="none" stroke="midnightblue" d="M285.126,-240.008C305.727,-250.304 334.168,-263.88 360,-274 365.889,-276.307 372.086,-278.559 378.311,-280.707"/>
<polygon fill="midnightblue" stroke="midnightblue" points="377.482,-284.121 388.076,-283.99 379.712,-277.486 377.482,-284.121"/>
</g>
<!-- Node5 -->
<g id="node5" class="node"><title>Node5</title>
<g id="a_node5"><a xlink:href="classRa_1_1Engine_1_1RenderObject.html#ae1ea453e2b698cda9956586d11b9cfbd" target="_top" xlink:title="Ra::Engine::RenderObject\l::setRenderTechnique">
<polygon fill="white" stroke="black" points="374.5,-235 374.5,-265 505.5,-265 505.5,-235 374.5,-235"/>
<text text-anchor="start" x="382.5" y="-253" font-family="Helvetica,sans-Serif" font-size="10.00">Ra::Engine::RenderObject</text>
<text text-anchor="middle" x="440" y="-242" font-family="Helvetica,sans-Serif" font-size="10.00">::setRenderTechnique</text>
</a>
</g>
</g>
<!-- Node2&#45;&gt;Node5 -->
<g id="edge4" class="edge"><title>Node2&#45;&gt;Node5</title>
<path fill="none" stroke="midnightblue" d="M324.142,-234.309C337.261,-236.101 351.066,-237.987 364.377,-239.806"/>
<polygon fill="midnightblue" stroke="midnightblue" points="364.059,-243.295 374.441,-241.18 365.007,-236.359 364.059,-243.295"/>
</g>
<!-- Node6 -->
<g id="node6" class="node"><title>Node6</title>
<g id="a_node6"><a xlink:href="classRa_1_1Engine_1_1RenderObject.html#ae8e94954e783a2012fd774598af1eb52" target="_top" xlink:title="Ra::Engine::RenderObject\l::setMesh">
<polygon fill="white" stroke="black" points="374.5,-186 374.5,-216 505.5,-216 505.5,-186 374.5,-186"/>
<text text-anchor="start" x="382.5" y="-204" font-family="Helvetica,sans-Serif" font-size="10.00">Ra::Engine::RenderObject</text>
<text text-anchor="middle" x="440" y="-193" font-family="Helvetica,sans-Serif" font-size="10.00">::setMesh</text>
</a>
</g>
</g>
<!-- Node2&#45;&gt;Node6 -->
<g id="edge5" class="edge"><title>Node2&#45;&gt;Node6</title>
<path fill="none" stroke="midnightblue" d="M324.142,-216.063C337.261,-214.343 351.066,-212.532 364.377,-210.787"/>
<polygon fill="midnightblue" stroke="midnightblue" points="364.981,-214.237 374.441,-209.467 364.071,-207.297 364.981,-214.237"/>
</g>
<!-- Node4 -->
<g id="node4" class="node"><title>Node4</title>
<g id="a_node4"><a xlink:href="classRa_1_1Engine_1_1ShaderConfiguration.html#a7e20a600c78e8627f0238b342f4b42f2" target="_top" xlink:title="Ra::Engine::ShaderConfiguration\l::getDefaultShaderConfig">
<polygon fill="white" stroke="black" points="556,-284 556,-314 716,-314 716,-284 556,-284"/>
<text text-anchor="start" x="564" y="-302" font-family="Helvetica,sans-Serif" font-size="10.00">Ra::Engine::ShaderConfiguration</text>
<text text-anchor="middle" x="636" y="-291" font-family="Helvetica,sans-Serif" font-size="10.00">::getDefaultShaderConfig</text>
</a>
</g>
</g>
<!-- Node3&#45;&gt;Node4 -->
<g id="edge3" class="edge"><title>Node3&#45;&gt;Node4</title>
<path fill="none" stroke="midnightblue" d="M520.187,-299C528.529,-299 537.054,-299 545.502,-299"/>
<polygon fill="midnightblue" stroke="midnightblue" points="545.752,-302.5 555.752,-299 545.752,-295.5 545.752,-302.5"/>
</g>
<!-- Node8 -->
<g id="node8" class="node"><title>Node8</title>
<g id="a_node8"><a xlink:href="classRa_1_1Engine_1_1Entity.html#a2dbff361ff815b56c3b911fdcbb57da9" target="_top" xlink:title="Ra::Engine::Entity\l::getTransformAsMatrix">
<polygon fill="white" stroke="black" points="380.5,-137 380.5,-167 499.5,-167 499.5,-137 380.5,-137"/>
<text text-anchor="start" x="388.5" y="-155" font-family="Helvetica,sans-Serif" font-size="10.00">Ra::Engine::Entity</text>
<text text-anchor="middle" x="440" y="-144" font-family="Helvetica,sans-Serif" font-size="10.00">::getTransformAsMatrix</text>
</a>
</g>
</g>
<!-- Node7&#45;&gt;Node8 -->
<g id="edge7" class="edge"><title>Node7&#45;&gt;Node8</title>
<path fill="none" stroke="midnightblue" d="M320.519,-152C336.473,-152 353.629,-152 369.796,-152"/>
<polygon fill="midnightblue" stroke="midnightblue" points="370.255,-155.5 380.255,-152 370.255,-148.5 370.255,-155.5"/>
</g>
<!-- Node9 -->
<g id="node9" class="node"><title>Node9</title>
<g id="a_node9"><a xlink:href="classRa_1_1Engine_1_1Entity.html#a524712805170bfce52ed0a98f7eee436" target="_top" xlink:title="Get component with a given name. ">
<polygon fill="white" stroke="black" points="391.5,-88 391.5,-118 488.5,-118 488.5,-88 391.5,-88"/>
<text text-anchor="start" x="399.5" y="-106" font-family="Helvetica,sans-Serif" font-size="10.00">Ra::Engine::Entity</text>
<text text-anchor="middle" x="440" y="-95" font-family="Helvetica,sans-Serif" font-size="10.00">::getComponent</text>
</a>
</g>
</g>
<!-- Node7&#45;&gt;Node9 -->
<g id="edge8" class="edge"><title>Node7&#45;&gt;Node9</title>
<path fill="none" stroke="midnightblue" d="M312.399,-136.899C334.347,-131.022 359.472,-124.295 381.522,-118.39"/>
<polygon fill="midnightblue" stroke="midnightblue" points="382.66,-121.709 391.414,-115.742 380.849,-114.947 382.66,-121.709"/>
</g>
<!-- Node13 -->
<g id="node13" class="node"><title>Node13</title>
<g id="a_node13"><a xlink:href="classRa_1_1Engine_1_1Component.html#a10b0bc182b76165744ebea603ae32dfe" target="_top" xlink:title="Shortcut to access the render object manager. ">
<polygon fill="white" stroke="black" points="379,-0 379,-30 501,-30 501,-0 379,-0"/>
<text text-anchor="start" x="387" y="-18" font-family="Helvetica,sans-Serif" font-size="10.00">Ra::Engine::Component</text>
<text text-anchor="middle" x="440" y="-7" font-family="Helvetica,sans-Serif" font-size="10.00">::getRoMgr</text>
</a>
</g>
</g>
<!-- Node12&#45;&gt;Node13 -->
<g id="edge12" class="edge"><title>Node12&#45;&gt;Node13</title>
<path fill="none" stroke="midnightblue" d="M316.175,-15C332.982,-15 351.392,-15 368.727,-15"/>
<polygon fill="midnightblue" stroke="midnightblue" points="368.789,-18.5001 378.789,-15 368.789,-11.5001 368.789,-18.5001"/>
</g>
</g>
</svg>
