<?xml version="1.0" encoding="UTF-8" standalone="no"?>
<!DOCTYPE svg PUBLIC "-//W3C//DTD SVG 1.1//EN"
 "http://www.w3.org/Graphics/SVG/1.1/DTD/svg11.dtd">
<!-- Generated by graphviz version 2.36.0 (20140111.2315)
 -->
<!-- Title: Ra::Engine::CameraManager::registerComponent Pages: 1 -->
<svg width="452pt" height="136pt"
 viewBox="0.00 0.00 452.00 136.00" xmlns="http://www.w3.org/2000/svg" xmlns:xlink="http://www.w3.org/1999/xlink">
<g id="graph0" class="graph" transform="scale(1 1) rotate(0) translate(4 132)">
<title>Ra::Engine::CameraManager::registerComponent</title>
<polygon fill="white" stroke="none" points="-4,4 -4,-132 448,-132 448,4 -4,4"/>
<!-- Node1 -->
<g id="node1" class="node"><title>Node1</title>
<polygon fill="#bfbfbf" stroke="black" points="0.5,-49 0.5,-79 143.5,-79 143.5,-49 0.5,-49"/>
<text text-anchor="start" x="8.5" y="-67" font-family="Helvetica,sans-Serif" font-size="10.00">Ra::Engine::CameraManager</text>
<text text-anchor="middle" x="72" y="-56" font-family="Helvetica,sans-Serif" font-size="10.00">::registerComponent</text>
</g>
<!-- Node2 -->
<g id="node2" class="node"><title>Node2</title>
<g id="a_node2"><a xlink:href="classRa_1_1Engine_1_1System.html#ad7b2a746c42f08a729b4df9b991293a8" target="_top" xlink:title="Registers a component belonging to an entity, making it active within the system. ...">
<polygon fill="white" stroke="black" points="180.5,-49 180.5,-79 285.5,-79 285.5,-49 180.5,-49"/>
<text text-anchor="start" x="188.5" y="-67" font-family="Helvetica,sans-Serif" font-size="10.00">Ra::Engine::System</text>
<text text-anchor="middle" x="233" y="-56" font-family="Helvetica,sans-Serif" font-size="10.00">::registerComponent</text>
</a>
</g>
</g>
<!-- Node1&#45;&gt;Node2 -->
<g id="edge1" class="edge"><title>Node1&#45;&gt;Node2</title>
<path fill="none" stroke="midnightblue" d="M143.666,-64C152.488,-64 161.458,-64 170.133,-64"/>
<polygon fill="midnightblue" stroke="midnightblue" points="170.154,-67.5001 180.154,-64 170.154,-60.5001 170.154,-67.5001"/>
</g>
<!-- Node3 -->
<g id="node3" class="node"><title>Node3</title>
<g id="a_node3"><a xlink:href="classRa_1_1Engine_1_1Component.html#a207c1dc2e97856c22e0767fb77162933" target="_top" xlink:title="Return the entity the component belongs to. ">
<polygon fill="white" stroke="black" points="322,-98 322,-128 444,-128 444,-98 322,-98"/>
<text text-anchor="start" x="330" y="-116" font-family="Helvetica,sans-Serif" font-size="10.00">Ra::Engine::Component</text>
<text text-anchor="middle" x="383" y="-105" font-family="Helvetica,sans-Serif" font-size="10.00">::getEntity</text>
</a>
</g>
</g>
<!-- Node2&#45;&gt;Node3 -->
<g id="edge2" class="edge"><title>Node2&#45;&gt;Node3</title>
<path fill="none" stroke="midnightblue" d="M279.613,-79.1014C294.594,-84.0615 311.405,-89.6274 327.007,-94.7929"/>
<polygon fill="midnightblue" stroke="midnightblue" points="325.945,-98.128 336.538,-97.9484 328.145,-91.4827 325.945,-98.128"/>
</g>
<!-- Node4 -->
<g id="node4" class="node"><title>Node4</title>
<g id="a_node4"><a xlink:href="classRa_1_1Engine_1_1Component.html#aa3e5cb90432a9a49e4362b673652ff76" target="_top" xlink:title="Return the component&#39;s name. ">
<polygon fill="white" stroke="black" points="322,-49 322,-79 444,-79 444,-49 322,-49"/>
<text text-anchor="start" x="330" y="-67" font-family="Helvetica,sans-Serif" font-size="10.00">Ra::Engine::Component</text>
<text text-anchor="middle" x="383" y="-56" font-family="Helvetica,sans-Serif" font-size="10.00">::getName</text>
</a>
</g>
</g>
<!-- Node2&#45;&gt;Node4 -->
<g id="edge3" class="edge"><title>Node2&#45;&gt;Node4</title>
<path fill="none" stroke="midnightblue" d="M285.763,-64C294.151,-64 302.959,-64 311.698,-64"/>
<polygon fill="midnightblue" stroke="midnightblue" points="311.896,-67.5001 321.896,-64 311.896,-60.5001 311.896,-67.5001"/>
</g>
<!-- Node5 -->
<g id="node5" class="node"><title>Node5</title>
<g id="a_node5"><a xlink:href="classRa_1_1Engine_1_1Component.html#aa9416af3319ba92aa7b532952c75e477" target="_top" xlink:title="Set the system to which the component belongs. ">
<polygon fill="white" stroke="black" points="322,-0 322,-30 444,-30 444,-0 322,-0"/>
<text text-anchor="start" x="330" y="-18" font-family="Helvetica,sans-Serif" font-size="10.00">Ra::Engine::Component</text>
<text text-anchor="middle" x="383" y="-7" font-family="Helvetica,sans-Serif" font-size="10.00">::setSystem</text>
</a>
</g>
</g>
<!-- Node2&#45;&gt;Node5 -->
<g id="edge4" class="edge"><title>Node2&#45;&gt;Node5</title>
<path fill="none" stroke="midnightblue" d="M279.613,-48.8986C294.594,-43.9385 311.405,-38.3726 327.007,-33.2071"/>
<polygon fill="midnightblue" stroke="midnightblue" points="328.145,-36.5173 336.538,-30.0516 325.945,-29.872 328.145,-36.5173"/>
</g>
</g>
</svg>
