<?xml version="1.0" encoding="UTF-8" standalone="no"?>
<!DOCTYPE svg PUBLIC "-//W3C//DTD SVG 1.1//EN"
 "http://www.w3.org/Graphics/SVG/1.1/DTD/svg11.dtd">
<!-- Generated by graphviz version 2.36.0 (20140111.2315)
 -->
<!-- Title: Ra::Core::TaskQueue::~TaskQueue Pages: 1 -->
<svg width="272pt" height="77pt"
 viewBox="0.00 0.00 272.00 77.00" xmlns="http://www.w3.org/2000/svg" xmlns:xlink="http://www.w3.org/1999/xlink">
<g id="graph0" class="graph" transform="scale(1 1) rotate(0) translate(4 73)">
<title>Ra::Core::TaskQueue::~TaskQueue</title>
<polygon fill="white" stroke="none" points="-4,4 -4,-73 268,-73 268,4 -4,4"/>
<!-- Node1 -->
<g id="node1" class="node"><title>Node1</title>
<polygon fill="#bfbfbf" stroke="black" points="0.5,-17 0.5,-47 113.5,-47 113.5,-17 0.5,-17"/>
<text text-anchor="start" x="8.5" y="-35" font-family="Helvetica,sans-Serif" font-size="10.00">Ra::Core::TaskQueue</text>
<text text-anchor="middle" x="57" y="-24" font-family="Helvetica,sans-Serif" font-size="10.00">::~TaskQueue</text>
</g>
<!-- Node2 -->
<g id="node2" class="node"><title>Node2</title>
<g id="a_node2"><a xlink:href="classRa_1_1Core_1_1TaskQueue.html#a133a9b42dbb00afd3873b83a044c447f" target="_top" xlink:title="Erases all tasks. Will assert if tasks are unprocessed. ">
<polygon fill="white" stroke="black" points="150.5,-39 150.5,-69 263.5,-69 263.5,-39 150.5,-39"/>
<text text-anchor="start" x="158.5" y="-57" font-family="Helvetica,sans-Serif" font-size="10.00">Ra::Core::TaskQueue</text>
<text text-anchor="middle" x="207" y="-46" font-family="Helvetica,sans-Serif" font-size="10.00">::flushTaskQueue</text>
</a>
</g>
</g>
<!-- Node1&#45;&gt;Node2 -->
<g id="edge1" class="edge"><title>Node1&#45;&gt;Node2</title>
<path fill="none" stroke="midnightblue" d="M113.531,-40.2546C122.232,-41.5479 131.296,-42.8954 140.201,-44.219"/>
<polygon fill="midnightblue" stroke="midnightblue" points="139.752,-47.6907 150.158,-45.6992 140.781,-40.7668 139.752,-47.6907"/>
</g>
<!-- Node3 -->
<g id="node3" class="node"><title>Node3</title>
<g id="a_node3"><a xlink:href="namespaceRa_1_1Core_1_1Algorithm.html#aea294cdb6f4f0d85955bdcccb22886ec" target="_top" xlink:title="Ra::Core::Algorithm::t">
<polygon fill="white" stroke="black" points="150.5,-0.5 150.5,-19.5 263.5,-19.5 263.5,-0.5 150.5,-0.5"/>
<text text-anchor="middle" x="207" y="-7.5" font-family="Helvetica,sans-Serif" font-size="10.00">Ra::Core::Algorithm::t</text>
</a>
</g>
</g>
<!-- Node1&#45;&gt;Node3 -->
<g id="edge2" class="edge"><title>Node1&#45;&gt;Node3</title>
<path fill="none" stroke="midnightblue" d="M113.531,-23.7454C122.232,-22.4521 131.296,-21.1046 140.201,-19.781"/>
<polygon fill="midnightblue" stroke="midnightblue" points="140.781,-23.2332 150.158,-18.3008 139.752,-16.3093 140.781,-23.2332"/>
</g>
</g>
</svg>
