<?xml version="1.0" encoding="UTF-8" standalone="no"?>
<!DOCTYPE svg PUBLIC "-//W3C//DTD SVG 1.1//EN"
 "http://www.w3.org/Graphics/SVG/1.1/DTD/svg11.dtd">
<!-- Generated by graphviz version 2.36.0 (20140111.2315)
 -->
<!-- Title: Ra::Core::VectorArray&lt; V &gt; Pages: 1 -->
<svg width="263pt" height="562pt"
 viewBox="0.00 0.00 263.00 562.00" xmlns="http://www.w3.org/2000/svg" xmlns:xlink="http://www.w3.org/1999/xlink">
<g id="graph0" class="graph" transform="scale(1 1) rotate(0) translate(4 558)">
<title>Ra::Core::VectorArray&lt; V &gt;</title>
<polygon fill="white" stroke="none" points="-4,4 -4,-558 259,-558 259,4 -4,4"/>
<!-- Node1 -->
<g id="node1" class="node"><title>Node1</title>
<polygon fill="#bfbfbf" stroke="black" points="11.5,-1 11.5,-69 150.5,-69 150.5,-1 11.5,-1"/>
<text text-anchor="middle" x="81" y="-57" font-family="Helvetica,sans-Serif" font-size="10.00">Ra::Core::VectorArray&lt; V &gt;</text>
<polyline fill="none" stroke="black" points="11.5,-50 150.5,-50 "/>
<text text-anchor="middle" x="81" y="-38" font-family="Helvetica,sans-Serif" font-size="10.00"> </text>
<polyline fill="none" stroke="black" points="11.5,-31 150.5,-31 "/>
<text text-anchor="start" x="19.5" y="-19" font-family="Helvetica,sans-Serif" font-size="10.00">+ getMap()</text>
<text text-anchor="start" x="19.5" y="-8" font-family="Helvetica,sans-Serif" font-size="10.00">+ getMap()</text>
</g>
<!-- Node2 -->
<g id="node2" class="node"><title>Node2</title>
<g id="a_node2"><a xlink:href="structRa_1_1Core_1_1AlignedStdVector.html" target="_top" xlink:title="{Ra::Core::AlignedStdVector\&lt; V \&gt;\n||}">
<polygon fill="white" stroke="black" points="-0.5,-108.5 -0.5,-165.5 162.5,-165.5 162.5,-108.5 -0.5,-108.5"/>
<text text-anchor="middle" x="81" y="-153.5" font-family="Helvetica,sans-Serif" font-size="10.00">Ra::Core::AlignedStdVector&lt; V &gt;</text>
<polyline fill="none" stroke="black" points="-0.5,-146.5 162.5,-146.5 "/>
<text text-anchor="middle" x="81" y="-134.5" font-family="Helvetica,sans-Serif" font-size="10.00"> </text>
<polyline fill="none" stroke="black" points="-0.5,-127.5 162.5,-127.5 "/>
<text text-anchor="middle" x="81" y="-115.5" font-family="Helvetica,sans-Serif" font-size="10.00"> </text>
</a>
</g>
</g>
<!-- Node2&#45;&gt;Node1 -->
<g id="edge1" class="edge"><title>Node2&#45;&gt;Node1</title>
<path fill="none" stroke="midnightblue" d="M81,-98.3375C81,-88.7551 81,-78.5279 81,-69.1868"/>
<polygon fill="none" stroke="midnightblue" points="77.5001,-98.4098 81,-108.41 84.5001,-98.4099 77.5001,-98.4098"/>
</g>
<!-- Node3 -->
<g id="node3" class="node"><title>Node3</title>
<g id="a_node3"><a xlink:title="STL class. ">
<polygon fill="white" stroke="#bfbfbf" points="8.5,-291 8.5,-359 137.5,-359 137.5,-291 8.5,-291"/>
<text text-anchor="start" x="16.5" y="-347" font-family="Helvetica,sans-Serif" font-size="10.00">std::vector&lt; V, Eigen</text>
<text text-anchor="middle" x="73" y="-336" font-family="Helvetica,sans-Serif" font-size="10.00">::aligned_allocator&lt; V &gt; &gt;</text>
<polyline fill="none" stroke="#bfbfbf" points="8.5,-329 137.5,-329 "/>
<text text-anchor="middle" x="73" y="-317" font-family="Helvetica,sans-Serif" font-size="10.00"> </text>
<polyline fill="none" stroke="#bfbfbf" points="8.5,-310 137.5,-310 "/>
<text text-anchor="middle" x="73" y="-298" font-family="Helvetica,sans-Serif" font-size="10.00"> </text>
</a>
</g>
</g>
<!-- Node3&#45;&gt;Node2 -->
<g id="edge2" class="edge"><title>Node3&#45;&gt;Node2</title>
<path fill="none" stroke="midnightblue" d="M74.8644,-280.652C76.3933,-245.105 78.5111,-195.867 79.8165,-165.517"/>
<polygon fill="none" stroke="midnightblue" points="71.3633,-280.606 74.4302,-290.747 78.3568,-280.907 71.3633,-280.606"/>
</g>
<!-- Node4 -->
<g id="node4" class="node"><title>Node4</title>
<polygon fill="white" stroke="#bfbfbf" points="101.5,-496.5 101.5,-553.5 130.5,-553.5 130.5,-496.5 101.5,-496.5"/>
<text text-anchor="middle" x="116" y="-541.5" font-family="Helvetica,sans-Serif" font-size="10.00">T</text>
<polyline fill="none" stroke="#bfbfbf" points="101.5,-534.5 130.5,-534.5 "/>
<text text-anchor="middle" x="116" y="-522.5" font-family="Helvetica,sans-Serif" font-size="10.00"> </text>
<polyline fill="none" stroke="#bfbfbf" points="101.5,-515.5 130.5,-515.5 "/>
<text text-anchor="middle" x="116" y="-503.5" font-family="Helvetica,sans-Serif" font-size="10.00"> </text>
</g>
<!-- Node4&#45;&gt;Node3 -->
<g id="edge3" class="edge"><title>Node4&#45;&gt;Node3</title>
<path fill="none" stroke="#404040" d="M101.189,-505.857C95.4336,-497.804 89.4145,-487.916 86,-478 74.1396,-443.555 71.2714,-402.243 71.1564,-371.388"/>
<polygon fill="none" stroke="#404040" points="71.1571,-371.275 67.2033,-365.244 71.2493,-359.275 75.2031,-365.306 71.1571,-371.275"/>
<text text-anchor="middle" x="110.5" y="-469.5" font-family="Helvetica,sans-Serif" font-size="10.00"> +elements</text>
</g>
<!-- Node6 -->
<g id="node6" class="node"><title>Node6</title>
<g id="a_node6"><a xlink:title="STL class. ">
<polygon fill="white" stroke="#bfbfbf" points="104,-379 104,-447 232,-447 232,-379 104,-379"/>
<text text-anchor="start" x="112" y="-435" font-family="Helvetica,sans-Serif" font-size="10.00">std::vector&lt; T, Eigen</text>
<text text-anchor="middle" x="168" y="-424" font-family="Helvetica,sans-Serif" font-size="10.00">::aligned_allocator&lt; T &gt; &gt;</text>
<polyline fill="none" stroke="#bfbfbf" points="104,-417 232,-417 "/>
<text text-anchor="middle" x="168" y="-405" font-family="Helvetica,sans-Serif" font-size="10.00"> </text>
<polyline fill="none" stroke="#bfbfbf" points="104,-398 232,-398 "/>
<text text-anchor="middle" x="168" y="-386" font-family="Helvetica,sans-Serif" font-size="10.00"> </text>
</a>
</g>
</g>
<!-- Node4&#45;&gt;Node6 -->
<g id="edge6" class="edge"><title>Node4&#45;&gt;Node6</title>
<path fill="none" stroke="#404040" d="M129.122,-496.242C134.567,-484.723 141.021,-471.072 147.089,-458.234"/>
<polygon fill="none" stroke="#404040" points="147.159,-458.086 146.107,-450.952 152.288,-447.237 153.34,-454.371 147.159,-458.086"/>
<text text-anchor="middle" x="166.5" y="-469.5" font-family="Helvetica,sans-Serif" font-size="10.00"> +elements</text>
</g>
<!-- Node5 -->
<g id="node5" class="node"><title>Node5</title>
<g id="a_node5"><a xlink:href="structRa_1_1Core_1_1AlignedStdVector.html" target="_top" xlink:title="Shortcut for the ubiquitous aligned std::vector Uses Eigen&#39;s aligned allocator, as stated in http://e...">
<polygon fill="white" stroke="black" points="93,-214.5 93,-271.5 255,-271.5 255,-214.5 93,-214.5"/>
<text text-anchor="middle" x="174" y="-259.5" font-family="Helvetica,sans-Serif" font-size="10.00">Ra::Core::AlignedStdVector&lt; T &gt;</text>
<polyline fill="none" stroke="black" points="93,-252.5 255,-252.5 "/>
<text text-anchor="middle" x="174" y="-240.5" font-family="Helvetica,sans-Serif" font-size="10.00"> </text>
<polyline fill="none" stroke="black" points="93,-233.5 255,-233.5 "/>
<text text-anchor="middle" x="174" y="-221.5" font-family="Helvetica,sans-Serif" font-size="10.00"> </text>
</a>
</g>
</g>
<!-- Node5&#45;&gt;Node2 -->
<g id="edge4" class="edge"><title>Node5&#45;&gt;Node2</title>
<path fill="none" stroke="orange" d="M142.474,-206.745C130.505,-193.36 117.054,-178.319 105.793,-165.726"/>
<polygon fill="orange" stroke="orange" points="140.047,-209.282 149.322,-214.403 145.265,-204.616 140.047,-209.282"/>
<text text-anchor="middle" x="145" y="-187.5" font-family="Helvetica,sans-Serif" font-size="10.00"> &lt; V &gt;</text>
</g>
<!-- Node6&#45;&gt;Node5 -->
<g id="edge5" class="edge"><title>Node6&#45;&gt;Node5</title>
<path fill="none" stroke="midnightblue" d="M169.557,-368.417C170.649,-337.824 172.077,-297.841 173.016,-271.565"/>
<polygon fill="none" stroke="midnightblue" points="166.045,-368.69 169.185,-378.809 173.04,-368.94 166.045,-368.69"/>
</g>
</g>
</svg>
