<?xml version="1.0" encoding="UTF-8" standalone="no"?>
<!DOCTYPE svg PUBLIC "-//W3C//DTD SVG 1.1//EN"
 "http://www.w3.org/Graphics/SVG/1.1/DTD/svg11.dtd">
<!-- Generated by graphviz version 2.36.0 (20140111.2315)
 -->
<!-- Title: Ra::Core::AttribManager::isValid Pages: 1 -->
<svg width="442pt" height="77pt"
 viewBox="0.00 0.00 442.00 77.00" xmlns="http://www.w3.org/2000/svg" xmlns:xlink="http://www.w3.org/1999/xlink">
<g id="graph0" class="graph" transform="scale(1 1) rotate(0) translate(4 73)">
<title>Ra::Core::AttribManager::isValid</title>
<polygon fill="white" stroke="none" points="-4,4 -4,-73 438,-73 438,4 -4,4"/>
<!-- Node1 -->
<g id="node1" class="node"><title>Node1</title>
<polygon fill="#bfbfbf" stroke="black" points="0.5,-22 0.5,-52 123.5,-52 123.5,-22 0.5,-22"/>
<text text-anchor="start" x="8.5" y="-40" font-family="Helvetica,sans-Serif" font-size="10.00">Ra::Core::AttribManager</text>
<text text-anchor="middle" x="62" y="-29" font-family="Helvetica,sans-Serif" font-size="10.00">::isValid</text>
</g>
<!-- Node2 -->
<g id="node2" class="node"><title>Node2</title>
<g id="a_node2"><a xlink:href="classRa_1_1Core_1_1Index.html#a16f988512f9ef442cc97b6bc4809ba45" target="_top" xlink:title="Ra::Core::Index::Invalid">
<polygon fill="white" stroke="black" points="160.5,-49.5 160.5,-68.5 281.5,-68.5 281.5,-49.5 160.5,-49.5"/>
<text text-anchor="middle" x="221" y="-56.5" font-family="Helvetica,sans-Serif" font-size="10.00">Ra::Core::Index::Invalid</text>
</a>
</g>
</g>
<!-- Node1&#45;&gt;Node2 -->
<g id="edge1" class="edge"><title>Node1&#45;&gt;Node2</title>
<path fill="none" stroke="midnightblue" d="M123.7,-45.5058C132.477,-46.7357 141.568,-48.0095 150.501,-49.2613"/>
<polygon fill="midnightblue" stroke="midnightblue" points="150.106,-52.74 160.495,-50.6617 151.077,-45.8077 150.106,-52.74"/>
</g>
<!-- Node4 -->
<g id="node4" class="node"><title>Node4</title>
<g id="a_node4"><a xlink:href="classRa_1_1Core_1_1AttribHandle.html#a7e994151627b8847e1f6f03fd88ff093" target="_top" xlink:title="Ra::Core::AttribHandle\l::attribName">
<polygon fill="white" stroke="black" points="163,-0 163,-30 279,-30 279,-0 163,-0"/>
<text text-anchor="start" x="171" y="-18" font-family="Helvetica,sans-Serif" font-size="10.00">Ra::Core::AttribHandle</text>
<text text-anchor="middle" x="221" y="-7" font-family="Helvetica,sans-Serif" font-size="10.00">::attribName</text>
</a>
</g>
</g>
<!-- Node1&#45;&gt;Node4 -->
<g id="edge3" class="edge"><title>Node1&#45;&gt;Node4</title>
<path fill="none" stroke="midnightblue" d="M123.7,-28.4942C133.243,-27.1571 143.155,-25.768 152.833,-24.4119"/>
<polygon fill="midnightblue" stroke="midnightblue" points="153.391,-27.868 162.808,-23.0141 152.419,-20.9358 153.391,-27.868"/>
</g>
<!-- Node3 -->
<g id="node3" class="node"><title>Node3</title>
<g id="a_node3"><a xlink:href="classRa_1_1Core_1_1Index.html#af6afe563ad57a4ab82f3706987e684ef" target="_top" xlink:title="CONSTRUCTOR. ">
<polygon fill="white" stroke="black" points="318,-49.5 318,-68.5 434,-68.5 434,-49.5 318,-49.5"/>
<text text-anchor="middle" x="376" y="-56.5" font-family="Helvetica,sans-Serif" font-size="10.00">Ra::Core::Index::Index</text>
</a>
</g>
</g>
<!-- Node2&#45;&gt;Node3 -->
<g id="edge2" class="edge"><title>Node2&#45;&gt;Node3</title>
<path fill="none" stroke="midnightblue" d="M281.592,-59C290.156,-59 299.017,-59 307.717,-59"/>
<polygon fill="midnightblue" stroke="midnightblue" points="307.828,-62.5001 317.828,-59 307.828,-55.5001 307.828,-62.5001"/>
</g>
</g>
</svg>
