<?xml version="1.0" encoding="UTF-8" standalone="no"?>
<!DOCTYPE svg PUBLIC "-//W3C//DTD SVG 1.1//EN"
 "http://www.w3.org/Graphics/SVG/1.1/DTD/svg11.dtd">
<!-- Generated by graphviz version 2.36.0 (20140111.2315)
 -->
<!-- Title: Ra::Asset::MaterialData Pages: 1 -->
<svg width="130pt" height="466pt"
 viewBox="0.00 0.00 130.00 466.00" xmlns="http://www.w3.org/2000/svg" xmlns:xlink="http://www.w3.org/1999/xlink">
<g id="graph0" class="graph" transform="scale(1 1) rotate(0) translate(4 462)">
<title>Ra::Asset::MaterialData</title>
<polygon fill="white" stroke="none" points="-4,4 -4,-462 126,-462 126,4 -4,4"/>
<!-- Node1 -->
<g id="node1" class="node"><title>Node1</title>
<polygon fill="#bfbfbf" stroke="black" points="0,-1 0,-113 122,-113 122,-1 0,-1"/>
<text text-anchor="middle" x="61" y="-101" font-family="Helvetica,sans-Serif" font-size="10.00">Ra::Asset::MaterialData</text>
<polyline fill="none" stroke="black" points="0,-94 122,-94 "/>
<text text-anchor="middle" x="61" y="-82" font-family="Helvetica,sans-Serif" font-size="10.00"> </text>
<polyline fill="none" stroke="black" points="0,-75 122,-75 "/>
<text text-anchor="start" x="8" y="-63" font-family="Helvetica,sans-Serif" font-size="10.00">+ MaterialData()</text>
<text text-anchor="start" x="8" y="-52" font-family="Helvetica,sans-Serif" font-size="10.00">+ ~MaterialData()</text>
<text text-anchor="start" x="8" y="-41" font-family="Helvetica,sans-Serif" font-size="10.00">+ setName()</text>
<text text-anchor="start" x="8" y="-30" font-family="Helvetica,sans-Serif" font-size="10.00">+ getType()</text>
<text text-anchor="start" x="8" y="-19" font-family="Helvetica,sans-Serif" font-size="10.00">+ setType()</text>
<text text-anchor="start" x="8" y="-8" font-family="Helvetica,sans-Serif" font-size="10.00">+ displayInfo()</text>
</g>
<!-- Node2 -->
<g id="node2" class="node"><title>Node2</title>
<g id="a_node2"><a xlink:href="classRa_1_1Asset_1_1AssetData.html" target="_top" xlink:title="General interface of an asset data. ">
<polygon fill="white" stroke="black" points="4.5,-153 4.5,-243 117.5,-243 117.5,-153 4.5,-153"/>
<text text-anchor="middle" x="61" y="-231" font-family="Helvetica,sans-Serif" font-size="10.00">Ra::Asset::AssetData</text>
<polyline fill="none" stroke="black" points="4.5,-224 117.5,-224 "/>
<text text-anchor="middle" x="61" y="-212" font-family="Helvetica,sans-Serif" font-size="10.00"> </text>
<polyline fill="none" stroke="black" points="4.5,-205 117.5,-205 "/>
<text text-anchor="start" x="12.5" y="-193" font-family="Helvetica,sans-Serif" font-size="10.00">+ AssetData()</text>
<text text-anchor="start" x="12.5" y="-182" font-family="Helvetica,sans-Serif" font-size="10.00">+ AssetData()</text>
<text text-anchor="start" x="12.5" y="-171" font-family="Helvetica,sans-Serif" font-size="10.00">+ ~AssetData()</text>
<text text-anchor="start" x="12.5" y="-160" font-family="Helvetica,sans-Serif" font-size="10.00">+ getName()</text>
</a>
</g>
</g>
<!-- Node2&#45;&gt;Node1 -->
<g id="edge1" class="edge"><title>Node2&#45;&gt;Node1</title>
<path fill="none" stroke="midnightblue" d="M61,-142.403C61,-132.793 61,-122.785 61,-113.16"/>
<polygon fill="none" stroke="midnightblue" points="57.5001,-142.637 61,-152.637 64.5001,-142.637 57.5001,-142.637"/>
</g>
<!-- Node3 -->
<g id="node3" class="node"><title>Node3</title>
<g id="a_node3"><a xlink:title="STL class. ">
<polygon fill="white" stroke="#bfbfbf" points="31,-292.5 31,-349.5 91,-349.5 91,-292.5 31,-292.5"/>
<text text-anchor="middle" x="61" y="-337.5" font-family="Helvetica,sans-Serif" font-size="10.00">std::string</text>
<polyline fill="none" stroke="#bfbfbf" points="31,-330.5 91,-330.5 "/>
<text text-anchor="middle" x="61" y="-318.5" font-family="Helvetica,sans-Serif" font-size="10.00"> </text>
<polyline fill="none" stroke="#bfbfbf" points="31,-311.5 91,-311.5 "/>
<text text-anchor="middle" x="61" y="-299.5" font-family="Helvetica,sans-Serif" font-size="10.00"> </text>
</a>
</g>
</g>
<!-- Node3&#45;&gt;Node2 -->
<g id="edge2" class="edge"><title>Node3&#45;&gt;Node2</title>
<path fill="none" stroke="#404040" d="M61,-292.24C61,-281.242 61,-268.179 61,-255.364"/>
<polygon fill="none" stroke="#404040" points="61.0001,-255.23 57,-249.23 61,-243.23 65,-249.23 61.0001,-255.23"/>
<text text-anchor="middle" x="84" y="-265.5" font-family="Helvetica,sans-Serif" font-size="10.00"> #m_name</text>
</g>
<!-- Node4 -->
<g id="node4" class="node"><title>Node4</title>
<g id="a_node4"><a xlink:title="STL class. ">
<polygon fill="white" stroke="#bfbfbf" points="13.5,-389 13.5,-457 108.5,-457 108.5,-389 13.5,-389"/>
<text text-anchor="start" x="21.5" y="-445" font-family="Helvetica,sans-Serif" font-size="10.00">std::basic_string&lt;</text>
<text text-anchor="middle" x="61" y="-434" font-family="Helvetica,sans-Serif" font-size="10.00"> char &gt;</text>
<polyline fill="none" stroke="#bfbfbf" points="13.5,-427 108.5,-427 "/>
<text text-anchor="middle" x="61" y="-415" font-family="Helvetica,sans-Serif" font-size="10.00"> </text>
<polyline fill="none" stroke="#bfbfbf" points="13.5,-408 108.5,-408 "/>
<text text-anchor="middle" x="61" y="-396" font-family="Helvetica,sans-Serif" font-size="10.00"> </text>
</a>
</g>
</g>
<!-- Node4&#45;&gt;Node3 -->
<g id="edge3" class="edge"><title>Node4&#45;&gt;Node3</title>
<path fill="none" stroke="midnightblue" d="M61,-378.857C61,-368.952 61,-358.682 61,-349.64"/>
<polygon fill="none" stroke="midnightblue" points="57.5001,-378.979 61,-388.979 64.5001,-378.979 57.5001,-378.979"/>
</g>
</g>
</svg>
