<?xml version="1.0" encoding="UTF-8" standalone="no"?>
<!DOCTYPE svg PUBLIC "-//W3C//DTD SVG 1.1//EN"
 "http://www.w3.org/Graphics/SVG/1.1/DTD/svg11.dtd">
<!-- Generated by graphviz version 2.36.0 (20140111.2315)
 -->
<!-- Title: Ra::IO::AssimpAnimationDataLoader::fetchHandleAnimation Pages: 1 -->
<svg width="320pt" height="214pt"
 viewBox="0.00 0.00 320.00 214.00" xmlns="http://www.w3.org/2000/svg" xmlns:xlink="http://www.w3.org/1999/xlink">
<g id="graph0" class="graph" transform="scale(1 1) rotate(0) translate(4 210)">
<title>Ra::IO::AssimpAnimationDataLoader::fetchHandleAnimation</title>
<polygon fill="white" stroke="none" points="-4,4 -4,-210 316,-210 316,4 -4,4"/>
<!-- Node1 -->
<g id="node1" class="node"><title>Node1</title>
<polygon fill="#bfbfbf" stroke="black" points="0.5,-83 0.5,-113 149.5,-113 149.5,-83 0.5,-83"/>
<text text-anchor="start" x="8.5" y="-101" font-family="Helvetica,sans-Serif" font-size="10.00">Ra::IO::AssimpAnimationData</text>
<text text-anchor="middle" x="75" y="-90" font-family="Helvetica,sans-Serif" font-size="10.00">Loader::fetchHandleAnimation</text>
</g>
<!-- Node2 -->
<g id="node2" class="node"><title>Node2</title>
<g id="a_node2"><a xlink:href="classRa_1_1Asset_1_1KeyFrame.html#a42442ed8c9ee7f7c24ef52ff62ee30ae" target="_top" xlink:title="RESET. ">
<polygon fill="white" stroke="black" points="193,-176 193,-206 305,-206 305,-176 193,-176"/>
<text text-anchor="start" x="201" y="-194" font-family="Helvetica,sans-Serif" font-size="10.00">Ra::Asset::KeyFrame</text>
<text text-anchor="middle" x="249" y="-183" font-family="Helvetica,sans-Serif" font-size="10.00">::reset</text>
</a>
</g>
</g>
<!-- Node1&#45;&gt;Node2 -->
<g id="edge1" class="edge"><title>Node1&#45;&gt;Node2</title>
<path fill="none" stroke="midnightblue" d="M98.103,-113.224C119.866,-127.834 154.349,-149.983 186,-166 190.011,-168.03 194.228,-170.018 198.496,-171.93"/>
<polygon fill="midnightblue" stroke="midnightblue" points="197.295,-175.224 207.863,-175.982 200.074,-168.799 197.295,-175.224"/>
</g>
<!-- Node3 -->
<g id="node3" class="node"><title>Node3</title>
<g id="a_node3"><a xlink:href="classRa_1_1Asset_1_1KeyFrame.html#aea56e20481b32c5a81ff6d9eb34f9e97" target="_top" xlink:title="Ra::Asset::KeyFrame\l::insertKeyFrame">
<polygon fill="white" stroke="black" points="193,-127 193,-157 305,-157 305,-127 193,-127"/>
<text text-anchor="start" x="201" y="-145" font-family="Helvetica,sans-Serif" font-size="10.00">Ra::Asset::KeyFrame</text>
<text text-anchor="middle" x="249" y="-134" font-family="Helvetica,sans-Serif" font-size="10.00">::insertKeyFrame</text>
</a>
</g>
</g>
<!-- Node1&#45;&gt;Node3 -->
<g id="edge2" class="edge"><title>Node1&#45;&gt;Node3</title>
<path fill="none" stroke="midnightblue" d="M134.712,-113.019C150.266,-116.998 167.149,-121.317 183.015,-125.376"/>
<polygon fill="midnightblue" stroke="midnightblue" points="182.186,-128.777 192.742,-127.864 183.921,-121.995 182.186,-128.777"/>
</g>
<!-- Node4 -->
<g id="node4" class="node"><title>Node4</title>
<g id="a_node4"><a xlink:href="namespaceRa_1_1IO.html#aef6c50424873964fcea0008be55d4a34" target="_top" xlink:title="Ra::IO::assimpToCore">
<polygon fill="white" stroke="black" points="191,-88.5 191,-107.5 307,-107.5 307,-88.5 191,-88.5"/>
<text text-anchor="middle" x="249" y="-95.5" font-family="Helvetica,sans-Serif" font-size="10.00">Ra::IO::assimpToCore</text>
</a>
</g>
</g>
<!-- Node1&#45;&gt;Node4 -->
<g id="edge3" class="edge"><title>Node1&#45;&gt;Node4</title>
<path fill="none" stroke="midnightblue" d="M149.942,-98C160.078,-98 170.443,-98 180.457,-98"/>
<polygon fill="midnightblue" stroke="midnightblue" points="180.741,-101.5 190.741,-98 180.741,-94.5001 180.741,-101.5"/>
</g>
<!-- Node5 -->
<g id="node5" class="node"><title>Node5</title>
<g id="a_node5"><a xlink:href="classRa_1_1Asset_1_1KeyFrame.html#a11502b1be2a8476d891058748a4158be" target="_top" xlink:title="Ra::Asset::KeyFrame\l::setAnimationTime">
<polygon fill="white" stroke="black" points="193,-39 193,-69 305,-69 305,-39 193,-39"/>
<text text-anchor="start" x="201" y="-57" font-family="Helvetica,sans-Serif" font-size="10.00">Ra::Asset::KeyFrame</text>
<text text-anchor="middle" x="249" y="-46" font-family="Helvetica,sans-Serif" font-size="10.00">::setAnimationTime</text>
</a>
</g>
</g>
<!-- Node1&#45;&gt;Node5 -->
<g id="edge4" class="edge"><title>Node1&#45;&gt;Node5</title>
<path fill="none" stroke="midnightblue" d="M134.712,-82.9808C150.266,-79.0018 167.149,-74.6829 183.015,-70.6241"/>
<polygon fill="midnightblue" stroke="midnightblue" points="183.921,-74.0051 192.742,-68.1359 182.186,-67.2235 183.921,-74.0051"/>
</g>
<!-- Node6 -->
<g id="node6" class="node"><title>Node6</title>
<g id="a_node6"><a xlink:href="classRa_1_1Asset_1_1KeyFrame.html#a061bfb7750328282a1965eb2fee01915" target="_top" xlink:title="Ra::Asset::KeyFrame::at">
<polygon fill="white" stroke="black" points="186,-0.5 186,-19.5 312,-19.5 312,-0.5 186,-0.5"/>
<text text-anchor="middle" x="249" y="-7.5" font-family="Helvetica,sans-Serif" font-size="10.00">Ra::Asset::KeyFrame::at</text>
</a>
</g>
</g>
<!-- Node1&#45;&gt;Node6 -->
<g id="edge5" class="edge"><title>Node1&#45;&gt;Node6</title>
<path fill="none" stroke="midnightblue" d="M97.0476,-82.8414C118.574,-67.8638 153.391,-45.0685 186,-30 191.66,-27.3847 197.757,-24.9684 203.84,-22.7866"/>
<polygon fill="midnightblue" stroke="midnightblue" points="204.987,-26.0936 213.325,-19.5563 202.73,-19.4674 204.987,-26.0936"/>
</g>
</g>
</svg>
