<?xml version="1.0" encoding="UTF-8" standalone="no"?>
<!DOCTYPE svg PUBLIC "-//W3C//DTD SVG 1.1//EN"
 "http://www.w3.org/Graphics/SVG/1.1/DTD/svg11.dtd">
<!-- Generated by graphviz version 2.36.0 (20140111.2315)
 -->
<!-- Title: Ra::Core::PolyLine::projectOnSegment Pages: 1 -->
<svg width="420pt" height="87pt"
 viewBox="0.00 0.00 420.00 87.00" xmlns="http://www.w3.org/2000/svg" xmlns:xlink="http://www.w3.org/1999/xlink">
<g id="graph0" class="graph" transform="scale(1 1) rotate(0) translate(4 83)">
<title>Ra::Core::PolyLine::projectOnSegment</title>
<polygon fill="white" stroke="none" points="-4,4 -4,-83 416,-83 416,4 -4,4"/>
<!-- Node1 -->
<g id="node1" class="node"><title>Node1</title>
<polygon fill="#bfbfbf" stroke="black" points="0,-24 0,-54 104,-54 104,-24 0,-24"/>
<text text-anchor="start" x="8" y="-42" font-family="Helvetica,sans-Serif" font-size="10.00">Ra::Core::PolyLine</text>
<text text-anchor="middle" x="52" y="-31" font-family="Helvetica,sans-Serif" font-size="10.00">::projectOnSegment</text>
</g>
<!-- Node2 -->
<g id="node2" class="node"><title>Node2</title>
<g id="a_node2"><a xlink:href="namespaceRa_1_1Core_1_1DistanceQueries.html#a9408fd6528bc7e150bbffbd4a0eda7fd" target="_top" xlink:title="Project point Q on segment AB defined by point A and vector AB = (B &#45;A). ">
<polygon fill="white" stroke="black" points="140.5,-49 140.5,-79 275.5,-79 275.5,-49 140.5,-49"/>
<text text-anchor="start" x="148.5" y="-67" font-family="Helvetica,sans-Serif" font-size="10.00">Ra::Core::DistanceQueries</text>
<text text-anchor="middle" x="208" y="-56" font-family="Helvetica,sans-Serif" font-size="10.00">::projectOnSegment</text>
</a>
</g>
</g>
<!-- Node1&#45;&gt;Node2 -->
<g id="edge1" class="edge"><title>Node1&#45;&gt;Node2</title>
<path fill="none" stroke="midnightblue" d="M104.28,-47.3246C112.671,-48.6869 121.523,-50.1239 130.369,-51.5599"/>
<polygon fill="midnightblue" stroke="midnightblue" points="129.896,-55.0289 140.328,-53.1766 131.018,-48.1194 129.896,-55.0289"/>
</g>
<!-- Node4 -->
<g id="node4" class="node"><title>Node4</title>
<g id="a_node4"><a xlink:href="classRa_1_1Core_1_1PolyLine.html#a3366d5247c685f4e6d4aa4c93ecad4c3" target="_top" xlink:title="Given a point on one of the segments identified by parameter tSegment in [0,1] and segment number...">
<polygon fill="white" stroke="black" points="158,-0 158,-30 258,-30 258,-0 158,-0"/>
<text text-anchor="start" x="166" y="-18" font-family="Helvetica,sans-Serif" font-size="10.00">Ra::Core::PolyLine</text>
<text text-anchor="middle" x="208" y="-7" font-family="Helvetica,sans-Serif" font-size="10.00">::getLineParameter</text>
</a>
</g>
</g>
<!-- Node1&#45;&gt;Node4 -->
<g id="edge3" class="edge"><title>Node1&#45;&gt;Node4</title>
<path fill="none" stroke="midnightblue" d="M104.28,-31.0083C118.15,-28.8467 133.279,-26.4891 147.556,-24.264"/>
<polygon fill="midnightblue" stroke="midnightblue" points="148.43,-27.6701 157.772,-22.6719 147.352,-20.7535 148.43,-27.6701"/>
</g>
<!-- Node3 -->
<g id="node3" class="node"><title>Node3</title>
<g id="a_node3"><a xlink:href="namespaceOpenMesh.html#a575b338f0fc9ecb5393d23e977e6ac38" target="_top" xlink:title="OpenMesh::dot">
<polygon fill="white" stroke="black" points="320.5,-54.5 320.5,-73.5 403.5,-73.5 403.5,-54.5 320.5,-54.5"/>
<text text-anchor="middle" x="362" y="-61.5" font-family="Helvetica,sans-Serif" font-size="10.00">OpenMesh::dot</text>
</a>
</g>
</g>
<!-- Node2&#45;&gt;Node3 -->
<g id="edge2" class="edge"><title>Node2&#45;&gt;Node3</title>
<path fill="none" stroke="midnightblue" d="M275.669,-64C287.155,-64 298.928,-64 309.92,-64"/>
<polygon fill="midnightblue" stroke="midnightblue" points="310.184,-67.5001 320.184,-64 310.184,-60.5001 310.184,-67.5001"/>
</g>
<!-- Node5 -->
<g id="node5" class="node"><title>Node5</title>
<g id="a_node5"><a xlink:href="classRa_1_1Core_1_1PolyLine.html#a46ebdffebb144909dfe7e11f4aa41774" target="_top" xlink:title="Get the total length of the line . ">
<polygon fill="white" stroke="black" points="312,-0 312,-30 412,-30 412,-0 312,-0"/>
<text text-anchor="start" x="320" y="-18" font-family="Helvetica,sans-Serif" font-size="10.00">Ra::Core::PolyLine</text>
<text text-anchor="middle" x="362" y="-7" font-family="Helvetica,sans-Serif" font-size="10.00">::length</text>
</a>
</g>
</g>
<!-- Node4&#45;&gt;Node5 -->
<g id="edge4" class="edge"><title>Node4&#45;&gt;Node5</title>
<path fill="none" stroke="midnightblue" d="M258.35,-15C272.161,-15 287.317,-15 301.644,-15"/>
<polygon fill="midnightblue" stroke="midnightblue" points="301.898,-18.5001 311.898,-15 301.898,-11.5001 301.898,-18.5001"/>
</g>
</g>
</svg>
