<?xml version="1.0" encoding="UTF-8" standalone="no"?>
<!DOCTYPE svg PUBLIC "-//W3C//DTD SVG 1.1//EN"
 "http://www.w3.org/Graphics/SVG/1.1/DTD/svg11.dtd">
<!-- Generated by graphviz version 2.36.0 (20140111.2315)
 -->
<!-- Title: Ra::Core::OBJFileManager::importData Pages: 1 -->
<svg width="492pt" height="195pt"
 viewBox="0.00 0.00 492.00 195.00" xmlns="http://www.w3.org/2000/svg" xmlns:xlink="http://www.w3.org/1999/xlink">
<g id="graph0" class="graph" transform="scale(1 1) rotate(0) translate(4 191)">
<title>Ra::Core::OBJFileManager::importData</title>
<polygon fill="white" stroke="none" points="-4,4 -4,-191 488,-191 488,4 -4,4"/>
<!-- Node1 -->
<g id="node1" class="node"><title>Node1</title>
<polygon fill="#bfbfbf" stroke="black" points="0.5,-83 0.5,-113 135.5,-113 135.5,-83 0.5,-83"/>
<text text-anchor="start" x="8.5" y="-101" font-family="Helvetica,sans-Serif" font-size="10.00">Ra::Core::OBJFileManager</text>
<text text-anchor="middle" x="68" y="-90" font-family="Helvetica,sans-Serif" font-size="10.00">::importData</text>
</g>
<!-- Node2 -->
<g id="node2" class="node"><title>Node2</title>
<g id="a_node2"><a xlink:href="classRa_1_1Core_1_1TriangleMesh.html#aa838b995226a922fc10f2f8f4c6dec31" target="_top" xlink:title="Erases all data, making the mesh empty. ">
<polygon fill="white" stroke="black" points="187.5,-157 187.5,-187 308.5,-187 308.5,-157 187.5,-157"/>
<text text-anchor="start" x="195.5" y="-175" font-family="Helvetica,sans-Serif" font-size="10.00">Ra::Core::TriangleMesh</text>
<text text-anchor="middle" x="248" y="-164" font-family="Helvetica,sans-Serif" font-size="10.00">::clear</text>
</a>
</g>
</g>
<!-- Node1&#45;&gt;Node2 -->
<g id="edge1" class="edge"><title>Node1&#45;&gt;Node2</title>
<path fill="none" stroke="midnightblue" d="M98.3203,-113.127C118.701,-123.349 146.652,-136.79 172,-147 177.546,-149.234 183.376,-151.431 189.234,-153.54"/>
<polygon fill="midnightblue" stroke="midnightblue" points="188.476,-156.984 199.071,-156.996 190.796,-150.379 188.476,-156.984"/>
</g>
<!-- Node4 -->
<g id="node4" class="node"><title>Node4</title>
<g id="a_node4"><a xlink:href="classRa_1_1Core_1_1TriangleMesh.html#a495116f40cfec8bb6504698d786d4b8c" target="_top" xlink:title="Access the vertices positions. ">
<polygon fill="white" stroke="black" points="187.5,-108 187.5,-138 308.5,-138 308.5,-108 187.5,-108"/>
<text text-anchor="start" x="195.5" y="-126" font-family="Helvetica,sans-Serif" font-size="10.00">Ra::Core::TriangleMesh</text>
<text text-anchor="middle" x="248" y="-115" font-family="Helvetica,sans-Serif" font-size="10.00">::vertices</text>
</a>
</g>
</g>
<!-- Node1&#45;&gt;Node4 -->
<g id="edge3" class="edge"><title>Node1&#45;&gt;Node4</title>
<path fill="none" stroke="midnightblue" d="M135.534,-107.345C149.068,-109.246 163.344,-111.251 176.995,-113.168"/>
<polygon fill="midnightblue" stroke="midnightblue" points="176.9,-116.689 187.29,-114.614 177.874,-109.757 176.9,-116.689"/>
</g>
<!-- Node6 -->
<g id="node6" class="node"><title>Node6</title>
<g id="a_node6"><a xlink:href="classRa_1_1Core_1_1TriangleMesh.html#a40d31b7b2943947d6eac5d906f0182fd" target="_top" xlink:title="Access the vertices normals. ">
<polygon fill="white" stroke="black" points="187.5,-59 187.5,-89 308.5,-89 308.5,-59 187.5,-59"/>
<text text-anchor="start" x="195.5" y="-77" font-family="Helvetica,sans-Serif" font-size="10.00">Ra::Core::TriangleMesh</text>
<text text-anchor="middle" x="248" y="-66" font-family="Helvetica,sans-Serif" font-size="10.00">::normals</text>
</a>
</g>
</g>
<!-- Node1&#45;&gt;Node6 -->
<g id="edge5" class="edge"><title>Node1&#45;&gt;Node6</title>
<path fill="none" stroke="midnightblue" d="M135.534,-89.0292C149.068,-87.2043 163.344,-85.2794 176.995,-83.4388"/>
<polygon fill="midnightblue" stroke="midnightblue" points="177.847,-86.8558 187.29,-82.0508 176.912,-79.9185 177.847,-86.8558"/>
</g>
<!-- Node7 -->
<g id="node7" class="node"><title>Node7</title>
<g id="a_node7"><a xlink:href="classRa_1_1Core_1_1FileManager.html#a32776fbf23e35ba0354e941b95194e73" target="_top" xlink:title="Ra::Core::FileManager\l\&lt; TriangleMesh \&gt;::addLogError\lEntry">
<polygon fill="white" stroke="black" points="172,0.5 172,-40.5 324,-40.5 324,0.5 172,0.5"/>
<text text-anchor="start" x="180" y="-28.5" font-family="Helvetica,sans-Serif" font-size="10.00">Ra::Core::FileManager</text>
<text text-anchor="start" x="180" y="-17.5" font-family="Helvetica,sans-Serif" font-size="10.00">&lt; TriangleMesh &gt;::addLogError</text>
<text text-anchor="middle" x="248" y="-6.5" font-family="Helvetica,sans-Serif" font-size="10.00">Entry</text>
</a>
</g>
</g>
<!-- Node1&#45;&gt;Node7 -->
<g id="edge7" class="edge"><title>Node1&#45;&gt;Node7</title>
<path fill="none" stroke="midnightblue" d="M100.35,-82.8379C120.654,-73.1558 147.737,-60.4964 172,-50 176.167,-48.1973 180.48,-46.3708 184.834,-44.5552"/>
<polygon fill="midnightblue" stroke="midnightblue" points="186.485,-47.6606 194.394,-40.6118 183.815,-41.1895 186.485,-47.6606"/>
</g>
<!-- Node3 -->
<g id="node3" class="node"><title>Node3</title>
<g id="a_node3"><a xlink:href="classRa_1_1Core_1_1AttribManager.html#ae53b7e22a2098c6151c6b2702569a3be" target="_top" xlink:title="clear all attribs, invalidate handles. ">
<polygon fill="white" stroke="black" points="360.5,-157 360.5,-187 483.5,-187 483.5,-157 360.5,-157"/>
<text text-anchor="start" x="368.5" y="-175" font-family="Helvetica,sans-Serif" font-size="10.00">Ra::Core::AttribManager</text>
<text text-anchor="middle" x="422" y="-164" font-family="Helvetica,sans-Serif" font-size="10.00">::clear</text>
</a>
</g>
</g>
<!-- Node2&#45;&gt;Node3 -->
<g id="edge2" class="edge"><title>Node2&#45;&gt;Node3</title>
<path fill="none" stroke="midnightblue" d="M308.675,-172C321.973,-172 336.201,-172 349.908,-172"/>
<polygon fill="midnightblue" stroke="midnightblue" points="350.265,-175.5 360.265,-172 350.265,-168.5 350.265,-175.5"/>
</g>
<!-- Node5 -->
<g id="node5" class="node"><title>Node5</title>
<g id="a_node5"><a xlink:href="classRa_1_1Core_1_1AttribManager.html#aaa6088620425c1e1d74b50f1b50eb596" target="_top" xlink:title="Get attribute by handle. ">
<polygon fill="white" stroke="black" points="360.5,-84 360.5,-114 483.5,-114 483.5,-84 360.5,-84"/>
<text text-anchor="start" x="368.5" y="-102" font-family="Helvetica,sans-Serif" font-size="10.00">Ra::Core::AttribManager</text>
<text text-anchor="middle" x="422" y="-91" font-family="Helvetica,sans-Serif" font-size="10.00">::getAttrib</text>
</a>
</g>
</g>
<!-- Node4&#45;&gt;Node5 -->
<g id="edge4" class="edge"><title>Node4&#45;&gt;Node5</title>
<path fill="none" stroke="midnightblue" d="M308.675,-114.673C322.104,-112.799 336.481,-110.793 350.311,-108.864"/>
<polygon fill="midnightblue" stroke="midnightblue" points="350.844,-112.323 360.265,-107.475 349.877,-105.39 350.844,-112.323"/>
</g>
<!-- Node6&#45;&gt;Node5 -->
<g id="edge6" class="edge"><title>Node6&#45;&gt;Node5</title>
<path fill="none" stroke="midnightblue" d="M308.675,-82.6736C322.104,-84.6255 336.481,-86.7152 350.311,-88.7255"/>
<polygon fill="midnightblue" stroke="midnightblue" points="349.865,-92.1973 360.265,-90.1722 350.872,-85.2701 349.865,-92.1973"/>
</g>
</g>
</svg>
