<?xml version="1.0" encoding="UTF-8" standalone="no"?>
<!DOCTYPE svg PUBLIC "-//W3C//DTD SVG 1.1//EN"
 "http://www.w3.org/Graphics/SVG/1.1/DTD/svg11.dtd">
<!-- Generated by graphviz version 2.36.0 (20140111.2315)
 -->
<!-- Title: Ra::Asset::BlinnPhongMaterialData::displayInfo Pages: 1 -->
<svg width="492pt" height="479pt"
 viewBox="0.00 0.00 492.00 479.00" xmlns="http://www.w3.org/2000/svg" xmlns:xlink="http://www.w3.org/1999/xlink">
<g id="graph0" class="graph" transform="scale(1 1) rotate(0) translate(4 475)">
<title>Ra::Asset::BlinnPhongMaterialData::displayInfo</title>
<polygon fill="white" stroke="none" points="-4,4 -4,-475 488,-475 488,4 -4,4"/>
<!-- Node1 -->
<g id="node1" class="node"><title>Node1</title>
<polygon fill="#bfbfbf" stroke="black" points="0.5,-220 0.5,-250 151.5,-250 151.5,-220 0.5,-220"/>
<text text-anchor="start" x="8.5" y="-238" font-family="Helvetica,sans-Serif" font-size="10.00">Ra::Asset::BlinnPhongMaterial</text>
<text text-anchor="middle" x="76" y="-227" font-family="Helvetica,sans-Serif" font-size="10.00">Data::displayInfo</text>
</g>
<!-- Node2 -->
<g id="node2" class="node"><title>Node2</title>
<g id="a_node2"><a xlink:href="classRa_1_1Asset_1_1BlinnPhongMaterialData.html#ad0f00f8f0140cd74c9bff3a351251e48" target="_top" xlink:title="QUERY. ">
<polygon fill="white" stroke="black" points="188.5,-441 188.5,-471 339.5,-471 339.5,-441 188.5,-441"/>
<text text-anchor="start" x="196.5" y="-459" font-family="Helvetica,sans-Serif" font-size="10.00">Ra::Asset::BlinnPhongMaterial</text>
<text text-anchor="middle" x="264" y="-448" font-family="Helvetica,sans-Serif" font-size="10.00">Data::hasDiffuse</text>
</a>
</g>
</g>
<!-- Node1&#45;&gt;Node2 -->
<g id="edge1" class="edge"><title>Node1&#45;&gt;Node2</title>
<path fill="none" stroke="midnightblue" d="M81.4215,-250.238C92.8236,-286.867 126.706,-380.553 188,-431 190.04,-432.679 192.197,-434.247 194.443,-435.711"/>
<polygon fill="midnightblue" stroke="midnightblue" points="193.057,-438.949 203.478,-440.857 196.521,-432.867 193.057,-438.949"/>
</g>
<!-- Node3 -->
<g id="node3" class="node"><title>Node3</title>
<g id="a_node3"><a xlink:href="namespaceRa_1_1Core_1_1StringUtils.html#a63b10a7c14473b4aa762cf00e0432690" target="_top" xlink:title="Writes a formatted print into the given string, similarly to sprintf. ">
<polygon fill="white" stroke="black" points="210,-392 210,-422 318,-422 318,-392 210,-392"/>
<text text-anchor="start" x="218" y="-410" font-family="Helvetica,sans-Serif" font-size="10.00">Ra::Core::StringUtils</text>
<text text-anchor="middle" x="264" y="-399" font-family="Helvetica,sans-Serif" font-size="10.00">::stringPrintf</text>
</a>
</g>
</g>
<!-- Node1&#45;&gt;Node3 -->
<g id="edge2" class="edge"><title>Node1&#45;&gt;Node3</title>
<path fill="none" stroke="midnightblue" d="M84.5119,-250.322C99.8481,-280.05 137.612,-345.807 188,-382 191.905,-384.805 196.146,-387.31 200.557,-389.546"/>
<polygon fill="midnightblue" stroke="midnightblue" points="199.249,-392.796 209.799,-393.764 202.155,-386.428 199.249,-392.796"/>
</g>
<!-- Node5 -->
<g id="node5" class="node"><title>Node5</title>
<g id="a_node5"><a xlink:href="classRa_1_1Asset_1_1BlinnPhongMaterialData.html#a149a6c5c3e6a3e882578fe9e19502916" target="_top" xlink:title="Ra::Asset::BlinnPhongMaterial\lData::hasSpecular">
<polygon fill="white" stroke="black" points="188.5,-343 188.5,-373 339.5,-373 339.5,-343 188.5,-343"/>
<text text-anchor="start" x="196.5" y="-361" font-family="Helvetica,sans-Serif" font-size="10.00">Ra::Asset::BlinnPhongMaterial</text>
<text text-anchor="middle" x="264" y="-350" font-family="Helvetica,sans-Serif" font-size="10.00">Data::hasSpecular</text>
</a>
</g>
</g>
<!-- Node1&#45;&gt;Node5 -->
<g id="edge4" class="edge"><title>Node1&#45;&gt;Node5</title>
<path fill="none" stroke="midnightblue" d="M90.2629,-250.032C109.744,-271.273 148.125,-310.036 188,-333 191.68,-335.119 195.565,-337.091 199.553,-338.921"/>
<polygon fill="midnightblue" stroke="midnightblue" points="198.424,-342.244 208.996,-342.933 201.161,-335.801 198.424,-342.244"/>
</g>
<!-- Node6 -->
<g id="node6" class="node"><title>Node6</title>
<g id="a_node6"><a xlink:href="classRa_1_1Asset_1_1BlinnPhongMaterialData.html#ac1519e7a85031f5bdaa000c4590438dd" target="_top" xlink:title="Ra::Asset::BlinnPhongMaterial\lData::hasShininess">
<polygon fill="white" stroke="black" points="188.5,-294 188.5,-324 339.5,-324 339.5,-294 188.5,-294"/>
<text text-anchor="start" x="196.5" y="-312" font-family="Helvetica,sans-Serif" font-size="10.00">Ra::Asset::BlinnPhongMaterial</text>
<text text-anchor="middle" x="264" y="-301" font-family="Helvetica,sans-Serif" font-size="10.00">Data::hasShininess</text>
</a>
</g>
</g>
<!-- Node1&#45;&gt;Node6 -->
<g id="edge5" class="edge"><title>Node1&#45;&gt;Node6</title>
<path fill="none" stroke="midnightblue" d="M109.206,-250.177C131.184,-260.296 161.081,-273.598 188,-284 193.797,-286.24 199.89,-288.47 205.993,-290.623"/>
<polygon fill="midnightblue" stroke="midnightblue" points="204.954,-293.967 215.549,-293.934 207.246,-287.353 204.954,-293.967"/>
</g>
<!-- Node7 -->
<g id="node7" class="node"><title>Node7</title>
<g id="a_node7"><a xlink:href="classRa_1_1Asset_1_1BlinnPhongMaterialData.html#ad5e87048d7f273f4a4787c6a68148d4b" target="_top" xlink:title="Ra::Asset::BlinnPhongMaterial\lData::hasOpacity">
<polygon fill="white" stroke="black" points="188.5,-245 188.5,-275 339.5,-275 339.5,-245 188.5,-245"/>
<text text-anchor="start" x="196.5" y="-263" font-family="Helvetica,sans-Serif" font-size="10.00">Ra::Asset::BlinnPhongMaterial</text>
<text text-anchor="middle" x="264" y="-252" font-family="Helvetica,sans-Serif" font-size="10.00">Data::hasOpacity</text>
</a>
</g>
</g>
<!-- Node1&#45;&gt;Node7 -->
<g id="edge6" class="edge"><title>Node1&#45;&gt;Node7</title>
<path fill="none" stroke="midnightblue" d="M151.582,-245.024C160.393,-246.209 169.435,-247.424 178.373,-248.625"/>
<polygon fill="midnightblue" stroke="midnightblue" points="178.025,-252.11 188.402,-249.973 178.957,-245.172 178.025,-252.11"/>
</g>
<!-- Node8 -->
<g id="node8" class="node"><title>Node8</title>
<g id="a_node8"><a xlink:href="classRa_1_1Asset_1_1BlinnPhongMaterialData.html#acd117b192c20dd9304036dfce9c40a1f" target="_top" xlink:title="Ra::Asset::BlinnPhongMaterial\lData::hasDiffuseTexture">
<polygon fill="white" stroke="black" points="188.5,-196 188.5,-226 339.5,-226 339.5,-196 188.5,-196"/>
<text text-anchor="start" x="196.5" y="-214" font-family="Helvetica,sans-Serif" font-size="10.00">Ra::Asset::BlinnPhongMaterial</text>
<text text-anchor="middle" x="264" y="-203" font-family="Helvetica,sans-Serif" font-size="10.00">Data::hasDiffuseTexture</text>
</a>
</g>
</g>
<!-- Node1&#45;&gt;Node8 -->
<g id="edge7" class="edge"><title>Node1&#45;&gt;Node8</title>
<path fill="none" stroke="midnightblue" d="M151.582,-225.377C160.393,-224.24 169.435,-223.073 178.373,-221.92"/>
<polygon fill="midnightblue" stroke="midnightblue" points="178.932,-225.377 188.402,-220.626 178.036,-218.434 178.932,-225.377"/>
</g>
<!-- Node9 -->
<g id="node9" class="node"><title>Node9</title>
<g id="a_node9"><a xlink:href="classRa_1_1Asset_1_1BlinnPhongMaterialData.html#a9dfc802d41b5e5805a7a1539651f6a9a" target="_top" xlink:title="Ra::Asset::BlinnPhongMaterial\lData::hasSpecularTexture">
<polygon fill="white" stroke="black" points="188.5,-147 188.5,-177 339.5,-177 339.5,-147 188.5,-147"/>
<text text-anchor="start" x="196.5" y="-165" font-family="Helvetica,sans-Serif" font-size="10.00">Ra::Asset::BlinnPhongMaterial</text>
<text text-anchor="middle" x="264" y="-154" font-family="Helvetica,sans-Serif" font-size="10.00">Data::hasSpecularTexture</text>
</a>
</g>
</g>
<!-- Node1&#45;&gt;Node9 -->
<g id="edge8" class="edge"><title>Node1&#45;&gt;Node9</title>
<path fill="none" stroke="midnightblue" d="M109.721,-219.965C131.667,-210.101 161.327,-197.191 188,-187 193.806,-184.782 199.904,-182.566 206.01,-180.422"/>
<polygon fill="midnightblue" stroke="midnightblue" points="207.26,-183.693 215.57,-177.12 204.975,-177.076 207.26,-183.693"/>
</g>
<!-- Node10 -->
<g id="node10" class="node"><title>Node10</title>
<g id="a_node10"><a xlink:href="classRa_1_1Asset_1_1BlinnPhongMaterialData.html#acb144be0b05c4cd8d9db7c9f012631fc" target="_top" xlink:title="Ra::Asset::BlinnPhongMaterial\lData::hasShininessTexture">
<polygon fill="white" stroke="black" points="188.5,-98 188.5,-128 339.5,-128 339.5,-98 188.5,-98"/>
<text text-anchor="start" x="196.5" y="-116" font-family="Helvetica,sans-Serif" font-size="10.00">Ra::Asset::BlinnPhongMaterial</text>
<text text-anchor="middle" x="264" y="-105" font-family="Helvetica,sans-Serif" font-size="10.00">Data::hasShininessTexture</text>
</a>
</g>
</g>
<!-- Node1&#45;&gt;Node10 -->
<g id="edge9" class="edge"><title>Node1&#45;&gt;Node10</title>
<path fill="none" stroke="midnightblue" d="M90.6243,-219.776C110.245,-198.688 148.467,-160.634 188,-138 191.685,-135.89 195.575,-133.925 199.566,-132.101"/>
<polygon fill="midnightblue" stroke="midnightblue" points="201.172,-135.222 209.014,-128.097 198.441,-128.777 201.172,-135.222"/>
</g>
<!-- Node11 -->
<g id="node11" class="node"><title>Node11</title>
<g id="a_node11"><a xlink:href="classRa_1_1Asset_1_1BlinnPhongMaterialData.html#ae7daf3cfe7f608edfcefbd731061c8ae" target="_top" xlink:title="Ra::Asset::BlinnPhongMaterial\lData::hasNormalTexture">
<polygon fill="white" stroke="black" points="188.5,-49 188.5,-79 339.5,-79 339.5,-49 188.5,-49"/>
<text text-anchor="start" x="196.5" y="-67" font-family="Helvetica,sans-Serif" font-size="10.00">Ra::Asset::BlinnPhongMaterial</text>
<text text-anchor="middle" x="264" y="-56" font-family="Helvetica,sans-Serif" font-size="10.00">Data::hasNormalTexture</text>
</a>
</g>
</g>
<!-- Node1&#45;&gt;Node11 -->
<g id="edge10" class="edge"><title>Node1&#45;&gt;Node11</title>
<path fill="none" stroke="midnightblue" d="M84.5398,-219.784C99.925,-190.26 137.77,-124.954 188,-89 190.679,-87.0827 193.514,-85.3052 196.454,-83.658"/>
<polygon fill="midnightblue" stroke="midnightblue" points="198.166,-86.7147 205.531,-79.0985 195.024,-80.4595 198.166,-86.7147"/>
</g>
<!-- Node12 -->
<g id="node12" class="node"><title>Node12</title>
<g id="a_node12"><a xlink:href="classRa_1_1Asset_1_1BlinnPhongMaterialData.html#aa34ef7e2afba283ccca4e1b28c0a2f85" target="_top" xlink:title="Ra::Asset::BlinnPhongMaterial\lData::hasOpacityTexture">
<polygon fill="white" stroke="black" points="188.5,-0 188.5,-30 339.5,-30 339.5,-0 188.5,-0"/>
<text text-anchor="start" x="196.5" y="-18" font-family="Helvetica,sans-Serif" font-size="10.00">Ra::Asset::BlinnPhongMaterial</text>
<text text-anchor="middle" x="264" y="-7" font-family="Helvetica,sans-Serif" font-size="10.00">Data::hasOpacityTexture</text>
</a>
</g>
</g>
<!-- Node1&#45;&gt;Node12 -->
<g id="edge11" class="edge"><title>Node1&#45;&gt;Node12</title>
<path fill="none" stroke="midnightblue" d="M81.4448,-219.84C92.8987,-183.396 126.887,-90.1853 188,-40 190.042,-38.3232 192.201,-36.7573 194.447,-35.295"/>
<polygon fill="midnightblue" stroke="midnightblue" points="196.525,-38.1397 203.487,-30.1533 193.064,-32.0551 196.525,-38.1397"/>
</g>
<!-- Node4 -->
<g id="node4" class="node"><title>Node4</title>
<g id="a_node4"><a xlink:href="namespaceRa_1_1Core_1_1StringUtils.html#ac348328b878bb8f1b1c1a3335ea20c4b" target="_top" xlink:title="Ra::Core::StringUtils\l::stringvPrintf">
<polygon fill="white" stroke="black" points="376,-392 376,-422 484,-422 484,-392 376,-392"/>
<text text-anchor="start" x="384" y="-410" font-family="Helvetica,sans-Serif" font-size="10.00">Ra::Core::StringUtils</text>
<text text-anchor="middle" x="430" y="-399" font-family="Helvetica,sans-Serif" font-size="10.00">::stringvPrintf</text>
</a>
</g>
</g>
<!-- Node3&#45;&gt;Node4 -->
<g id="edge3" class="edge"><title>Node3&#45;&gt;Node4</title>
<path fill="none" stroke="midnightblue" d="M318.246,-407C333.361,-407 349.967,-407 365.619,-407"/>
<polygon fill="midnightblue" stroke="midnightblue" points="365.741,-410.5 375.741,-407 365.741,-403.5 365.741,-410.5"/>
</g>
</g>
</svg>
