<?xml version="1.0" encoding="UTF-8" standalone="no"?>
<!DOCTYPE svg PUBLIC "-//W3C//DTD SVG 1.1//EN"
 "http://www.w3.org/Graphics/SVG/1.1/DTD/svg11.dtd">
<!-- Generated by graphviz version 2.36.0 (20140111.2315)
 -->
<!-- Title: Ra::Engine::Mesh Pages: 1 -->
<svg width="124pt" height="404pt"
 viewBox="0.00 0.00 124.00 404.00" xmlns="http://www.w3.org/2000/svg" xmlns:xlink="http://www.w3.org/1999/xlink">
<g id="graph0" class="graph" transform="scale(1 1) rotate(0) translate(4 400)">
<title>Ra::Engine::Mesh</title>
<polygon fill="white" stroke="none" points="-4,4 -4,-400 120,-400 120,4 -4,4"/>
<!-- Node1 -->
<g id="node1" class="node"><title>Node1</title>
<polygon fill="#bfbfbf" stroke="black" points="1.5,-1 1.5,-289 102.5,-289 102.5,-1 1.5,-1"/>
<text text-anchor="middle" x="52" y="-277" font-family="Helvetica,sans-Serif" font-size="10.00">Ra::Engine::Mesh</text>
<polyline fill="none" stroke="black" points="1.5,-270 102.5,-270 "/>
<text text-anchor="middle" x="52" y="-258" font-family="Helvetica,sans-Serif" font-size="10.00"> </text>
<polyline fill="none" stroke="black" points="1.5,-251 102.5,-251 "/>
<text text-anchor="start" x="9.5" y="-239" font-family="Helvetica,sans-Serif" font-size="10.00">+ Mesh()</text>
<text text-anchor="start" x="9.5" y="-228" font-family="Helvetica,sans-Serif" font-size="10.00">+ ~Mesh()</text>
<text text-anchor="start" x="9.5" y="-217" font-family="Helvetica,sans-Serif" font-size="10.00">+ getName()</text>
<text text-anchor="start" x="9.5" y="-206" font-family="Helvetica,sans-Serif" font-size="10.00">+ setRenderMode()</text>
<text text-anchor="start" x="9.5" y="-195" font-family="Helvetica,sans-Serif" font-size="10.00">+ getRenderMode()</text>
<text text-anchor="start" x="9.5" y="-184" font-family="Helvetica,sans-Serif" font-size="10.00">+ getGeometry()</text>
<text text-anchor="start" x="9.5" y="-173" font-family="Helvetica,sans-Serif" font-size="10.00">+ getGeometry()</text>
<text text-anchor="start" x="9.5" y="-162" font-family="Helvetica,sans-Serif" font-size="10.00">+ loadGeometry()</text>
<text text-anchor="start" x="9.5" y="-151" font-family="Helvetica,sans-Serif" font-size="10.00">+ loadGeometry()</text>
<text text-anchor="start" x="9.5" y="-140" font-family="Helvetica,sans-Serif" font-size="10.00">+ addData()</text>
<text text-anchor="start" x="9.5" y="-129" font-family="Helvetica,sans-Serif" font-size="10.00">+ addData()</text>
<text text-anchor="start" x="9.5" y="-118" font-family="Helvetica,sans-Serif" font-size="10.00">+ getData()</text>
<text text-anchor="start" x="9.5" y="-107" font-family="Helvetica,sans-Serif" font-size="10.00">+ getData()</text>
<text text-anchor="start" x="9.5" y="-96" font-family="Helvetica,sans-Serif" font-size="10.00">+ setDirty()</text>
<text text-anchor="start" x="9.5" y="-85" font-family="Helvetica,sans-Serif" font-size="10.00">+ setDirty()</text>
<text text-anchor="start" x="9.5" y="-74" font-family="Helvetica,sans-Serif" font-size="10.00">+ setDirty()</text>
<text text-anchor="start" x="9.5" y="-63" font-family="Helvetica,sans-Serif" font-size="10.00">+ updateGL()</text>
<text text-anchor="start" x="9.5" y="-52" font-family="Helvetica,sans-Serif" font-size="10.00">+ render()</text>
<text text-anchor="start" x="9.5" y="-41" font-family="Helvetica,sans-Serif" font-size="10.00">+ colorize()</text>
<text text-anchor="start" x="9.5" y="-30" font-family="Helvetica,sans-Serif" font-size="10.00">* MeshData</text>
<text text-anchor="start" x="9.5" y="-19" font-family="Helvetica,sans-Serif" font-size="10.00">* Vec3Data</text>
<text text-anchor="start" x="9.5" y="-8" font-family="Helvetica,sans-Serif" font-size="10.00">* Vec4Data</text>
</g>
<!-- Node2 -->
<g id="node2" class="node"><title>Node2</title>
<polygon fill="white" stroke="#bfbfbf" points="-0.5,-338.5 -0.5,-395.5 104.5,-395.5 104.5,-338.5 -0.5,-338.5"/>
<text text-anchor="middle" x="52" y="-383.5" font-family="Helvetica,sans-Serif" font-size="10.00">static constexpr uint</text>
<polyline fill="none" stroke="#bfbfbf" points="-0.5,-376.5 104.5,-376.5 "/>
<text text-anchor="middle" x="52" y="-364.5" font-family="Helvetica,sans-Serif" font-size="10.00"> </text>
<polyline fill="none" stroke="#bfbfbf" points="-0.5,-357.5 104.5,-357.5 "/>
<text text-anchor="middle" x="52" y="-345.5" font-family="Helvetica,sans-Serif" font-size="10.00"> </text>
</g>
<!-- Node2&#45;&gt;Node1 -->
<g id="edge1" class="edge"><title>Node2&#45;&gt;Node1</title>
<path fill="none" stroke="#404040" d="M52,-338.137C52,-327.853 52,-315.343 52,-301.692"/>
<polygon fill="none" stroke="#404040" points="52.0001,-301.429 48,-295.429 52,-289.429 56,-295.429 52.0001,-301.429"/>
<text text-anchor="middle" x="84" y="-311.5" font-family="Helvetica,sans-Serif" font-size="10.00"> +MAX_DATA</text>
</g>
</g>
</svg>
