<?xml version="1.0" encoding="UTF-8" standalone="no"?>
<!DOCTYPE svg PUBLIC "-//W3C//DTD SVG 1.1//EN"
 "http://www.w3.org/Graphics/SVG/1.1/DTD/svg11.dtd">
<!-- Generated by graphviz version 2.36.0 (20140111.2315)
 -->
<!-- Title: Ra::GuiBase::BaseApplication::loadPlugins Pages: 1 -->
<svg width="366pt" height="606pt"
 viewBox="0.00 0.00 366.00 606.00" xmlns="http://www.w3.org/2000/svg" xmlns:xlink="http://www.w3.org/1999/xlink">
<g id="graph0" class="graph" transform="scale(1 1) rotate(0) translate(4 602)">
<title>Ra::GuiBase::BaseApplication::loadPlugins</title>
<polygon fill="white" stroke="none" points="-4,4 -4,-602 362,-602 362,4 -4,4"/>
<!-- Node1 -->
<g id="node1" class="node"><title>Node1</title>
<polygon fill="#bfbfbf" stroke="black" points="0.5,-274 0.5,-304 149.5,-304 149.5,-274 0.5,-274"/>
<text text-anchor="start" x="8.5" y="-292" font-family="Helvetica,sans-Serif" font-size="10.00">Ra::GuiBase::BaseApplication</text>
<text text-anchor="middle" x="75" y="-281" font-family="Helvetica,sans-Serif" font-size="10.00">::loadPlugins</text>
</g>
<!-- Node2 -->
<g id="node2" class="node"><title>Node2</title>
<g id="a_node2"><a xlink:href="classRa_1_1Gui_1_1Viewer.html#a17094c0201376a4beedb86fa39cf3fa2" target="_top" xlink:title="Access to the feature picking manager. ">
<polygon fill="white" stroke="black" points="203,-568 203,-598 341,-598 341,-568 203,-568"/>
<text text-anchor="start" x="211" y="-586" font-family="Helvetica,sans-Serif" font-size="10.00">Ra::Gui::Viewer::getPicking</text>
<text text-anchor="middle" x="272" y="-575" font-family="Helvetica,sans-Serif" font-size="10.00">Manager</text>
</a>
</g>
</g>
<!-- Node1&#45;&gt;Node2 -->
<g id="edge1" class="edge"><title>Node1&#45;&gt;Node2</title>
<path fill="none" stroke="midnightblue" d="M77.6355,-304.077C83.3805,-349.531 106.79,-486.492 186,-558 188.455,-560.216 191.097,-562.236 193.877,-564.078"/>
<polygon fill="midnightblue" stroke="midnightblue" points="192.171,-567.134 202.585,-569.084 195.66,-561.066 192.171,-567.134"/>
</g>
<!-- Node3 -->
<g id="node3" class="node"><title>Node3</title>
<g id="a_node3"><a xlink:href="namespaceRa_1_1Core_1_1StringUtils.html#a30480ab8fa5ba3ac2824bf91bcddf7bf" target="_top" xlink:title="Ra::Core::StringUtils\l::getFileExt">
<polygon fill="white" stroke="black" points="218,-519 218,-549 326,-549 326,-519 218,-519"/>
<text text-anchor="start" x="226" y="-537" font-family="Helvetica,sans-Serif" font-size="10.00">Ra::Core::StringUtils</text>
<text text-anchor="middle" x="272" y="-526" font-family="Helvetica,sans-Serif" font-size="10.00">::getFileExt</text>
</a>
</g>
</g>
<!-- Node1&#45;&gt;Node3 -->
<g id="edge2" class="edge"><title>Node1&#45;&gt;Node3</title>
<path fill="none" stroke="midnightblue" d="M79.1611,-304.149C88.2698,-343.973 118.363,-452.422 186,-509 192.53,-514.462 200.209,-518.731 208.235,-522.067"/>
<polygon fill="midnightblue" stroke="midnightblue" points="207.175,-525.406 217.769,-525.571 209.59,-518.836 207.175,-525.406"/>
</g>
<!-- Node4 -->
<g id="node4" class="node"><title>Node4</title>
<g id="a_node4"><a xlink:href="namespaceRa_1_1Core_1_1StringUtils.html#a385372757aef49b430a523e860df4def" target="_top" xlink:title="Ra::Core::StringUtils\l::getBaseName">
<polygon fill="white" stroke="black" points="218,-470 218,-500 326,-500 326,-470 218,-470"/>
<text text-anchor="start" x="226" y="-488" font-family="Helvetica,sans-Serif" font-size="10.00">Ra::Core::StringUtils</text>
<text text-anchor="middle" x="272" y="-477" font-family="Helvetica,sans-Serif" font-size="10.00">::getBaseName</text>
</a>
</g>
</g>
<!-- Node1&#45;&gt;Node4 -->
<g id="edge3" class="edge"><title>Node1&#45;&gt;Node4</title>
<path fill="none" stroke="midnightblue" d="M81.471,-304.144C94.312,-337.522 129.624,-417.797 186,-460 192.726,-465.035 200.452,-469.06 208.445,-472.276"/>
<polygon fill="midnightblue" stroke="midnightblue" points="207.312,-475.588 217.906,-475.693 209.689,-469.004 207.312,-475.588"/>
</g>
<!-- Node5 -->
<g id="node5" class="node"><title>Node5</title>
<g id="a_node5"><a xlink:href="classRa_1_1Plugins_1_1RadiumPluginInterface.html#a89c442801ecfa6197ebf76b8b99d4249" target="_top" xlink:title="Pass arguments for plugin initialization. ">
<polygon fill="white" stroke="black" points="205,-421 205,-451 339,-451 339,-421 205,-421"/>
<text text-anchor="start" x="213" y="-439" font-family="Helvetica,sans-Serif" font-size="10.00">Ra::Plugins::RadiumPlugin</text>
<text text-anchor="middle" x="272" y="-428" font-family="Helvetica,sans-Serif" font-size="10.00">Interface::registerPlugin</text>
</a>
</g>
</g>
<!-- Node1&#45;&gt;Node5 -->
<g id="edge4" class="edge"><title>Node1&#45;&gt;Node5</title>
<path fill="none" stroke="midnightblue" d="M85.5547,-304.207C102.567,-330.037 140.619,-382.449 186,-411 189.346,-413.105 192.878,-415.04 196.523,-416.817"/>
<polygon fill="midnightblue" stroke="midnightblue" points="195.218,-420.067 205.779,-420.916 198.053,-413.667 195.218,-420.067"/>
</g>
<!-- Node6 -->
<g id="node6" class="node"><title>Node6</title>
<g id="a_node6"><a xlink:href="classRa_1_1Plugins_1_1RadiumPluginInterface.html#ad6ba57281f8237263a2c5e1b718a4689" target="_top" xlink:title="Ra::Plugins::RadiumPlugin\lInterface::doAddRenderer">
<polygon fill="white" stroke="black" points="205,-372 205,-402 339,-402 339,-372 205,-372"/>
<text text-anchor="start" x="213" y="-390" font-family="Helvetica,sans-Serif" font-size="10.00">Ra::Plugins::RadiumPlugin</text>
<text text-anchor="middle" x="272" y="-379" font-family="Helvetica,sans-Serif" font-size="10.00">Interface::doAddRenderer</text>
</a>
</g>
</g>
<!-- Node1&#45;&gt;Node6 -->
<g id="edge5" class="edge"><title>Node1&#45;&gt;Node6</title>
<path fill="none" stroke="midnightblue" d="M94.8218,-304.061C115.933,-320.32 151.72,-346.03 186,-362 190.967,-364.314 196.198,-366.468 201.523,-368.462"/>
<polygon fill="midnightblue" stroke="midnightblue" points="200.578,-371.84 211.173,-371.878 202.914,-365.242 200.578,-371.84"/>
</g>
<!-- Node7 -->
<g id="node7" class="node"><title>Node7</title>
<g id="a_node7"><a xlink:href="classRa_1_1Plugins_1_1RadiumPluginInterface.html#a0abb07f37722a64372c5dce4b411cd7a" target="_top" xlink:title="addRenderers ">
<polygon fill="white" stroke="black" points="205,-323 205,-353 339,-353 339,-323 205,-323"/>
<text text-anchor="start" x="213" y="-341" font-family="Helvetica,sans-Serif" font-size="10.00">Ra::Plugins::RadiumPlugin</text>
<text text-anchor="middle" x="272" y="-330" font-family="Helvetica,sans-Serif" font-size="10.00">Interface::addRenderers</text>
</a>
</g>
</g>
<!-- Node1&#45;&gt;Node7 -->
<g id="edge6" class="edge"><title>Node1&#45;&gt;Node7</title>
<path fill="none" stroke="midnightblue" d="M135.832,-304.035C156.608,-309.255 180.081,-315.154 201.567,-320.553"/>
<polygon fill="midnightblue" stroke="midnightblue" points="200.73,-323.951 211.282,-322.994 202.436,-317.162 200.73,-323.951"/>
</g>
<!-- Node8 -->
<g id="node8" class="node"><title>Node8</title>
<g id="a_node8"><a xlink:href="classRa_1_1Plugins_1_1RadiumPluginInterface.html#acc10a0721a8fe34cc7e7735250b495c1" target="_top" xlink:title="Ra::Plugins::RadiumPlugin\lInterface::doAddFileLoader">
<polygon fill="white" stroke="black" points="205,-274 205,-304 339,-304 339,-274 205,-274"/>
<text text-anchor="start" x="213" y="-292" font-family="Helvetica,sans-Serif" font-size="10.00">Ra::Plugins::RadiumPlugin</text>
<text text-anchor="middle" x="272" y="-281" font-family="Helvetica,sans-Serif" font-size="10.00">Interface::doAddFileLoader</text>
</a>
</g>
</g>
<!-- Node1&#45;&gt;Node8 -->
<g id="edge7" class="edge"><title>Node1&#45;&gt;Node8</title>
<path fill="none" stroke="midnightblue" d="M149.721,-289C164.443,-289 179.935,-289 194.741,-289"/>
<polygon fill="midnightblue" stroke="midnightblue" points="194.863,-292.5 204.863,-289 194.863,-285.5 194.863,-292.5"/>
</g>
<!-- Node9 -->
<g id="node9" class="node"><title>Node9</title>
<g id="a_node9"><a xlink:href="classRa_1_1Plugins_1_1RadiumPluginInterface.html#afa17f1d9b08c2303fc36f9b51d5bb6a1" target="_top" xlink:title="Ra::Plugins::RadiumPlugin\lInterface::addFileLoaders">
<polygon fill="white" stroke="black" points="205,-225 205,-255 339,-255 339,-225 205,-225"/>
<text text-anchor="start" x="213" y="-243" font-family="Helvetica,sans-Serif" font-size="10.00">Ra::Plugins::RadiumPlugin</text>
<text text-anchor="middle" x="272" y="-232" font-family="Helvetica,sans-Serif" font-size="10.00">Interface::addFileLoaders</text>
</a>
</g>
</g>
<!-- Node1&#45;&gt;Node9 -->
<g id="edge8" class="edge"><title>Node1&#45;&gt;Node9</title>
<path fill="none" stroke="midnightblue" d="M135.832,-273.965C156.608,-268.745 180.081,-262.846 201.567,-257.447"/>
<polygon fill="midnightblue" stroke="midnightblue" points="202.436,-260.838 211.282,-255.006 200.73,-254.049 202.436,-260.838"/>
</g>
<!-- Node10 -->
<g id="node10" class="node"><title>Node10</title>
<g id="a_node10"><a xlink:href="classRa_1_1Plugins_1_1RadiumPluginInterface.html#a6feecf052a9c12e6f85b07e3eaaf0a9a" target="_top" xlink:title="Ra::Plugins::RadiumPlugin\lInterface::doAddROpenGLInitializer">
<polygon fill="white" stroke="black" points="186.5,-176 186.5,-206 357.5,-206 357.5,-176 186.5,-176"/>
<text text-anchor="start" x="194.5" y="-194" font-family="Helvetica,sans-Serif" font-size="10.00">Ra::Plugins::RadiumPlugin</text>
<text text-anchor="middle" x="272" y="-183" font-family="Helvetica,sans-Serif" font-size="10.00">Interface::doAddROpenGLInitializer</text>
</a>
</g>
</g>
<!-- Node1&#45;&gt;Node10 -->
<g id="edge9" class="edge"><title>Node1&#45;&gt;Node10</title>
<path fill="none" stroke="midnightblue" d="M94.8218,-273.939C115.933,-257.68 151.72,-231.97 186,-216 190.967,-213.686 196.198,-211.532 201.523,-209.538"/>
<polygon fill="midnightblue" stroke="midnightblue" points="202.914,-212.758 211.173,-206.122 200.578,-206.16 202.914,-212.758"/>
</g>
<!-- Node11 -->
<g id="node11" class="node"><title>Node11</title>
<g id="a_node11"><a xlink:href="classRa_1_1Gui_1_1Viewer.html#a74b52eef775a13bed0ada0c261dcc397" target="_top" xlink:title="Ra::Gui::Viewer::isOpenGl\lInitialized">
<polygon fill="white" stroke="black" points="205.5,-127 205.5,-157 338.5,-157 338.5,-127 205.5,-127"/>
<text text-anchor="start" x="213.5" y="-145" font-family="Helvetica,sans-Serif" font-size="10.00">Ra::Gui::Viewer::isOpenGl</text>
<text text-anchor="middle" x="272" y="-134" font-family="Helvetica,sans-Serif" font-size="10.00">Initialized</text>
</a>
</g>
</g>
<!-- Node1&#45;&gt;Node11 -->
<g id="edge10" class="edge"><title>Node1&#45;&gt;Node11</title>
<path fill="none" stroke="midnightblue" d="M85.5547,-273.793C102.567,-247.963 140.619,-195.551 186,-167 189.346,-164.895 192.878,-162.96 196.523,-161.183"/>
<polygon fill="midnightblue" stroke="midnightblue" points="198.053,-164.333 205.779,-157.084 195.218,-157.933 198.053,-164.333"/>
</g>
<!-- Node12 -->
<g id="node12" class="node"><title>Node12</title>
<g id="a_node12"><a xlink:href="classRa_1_1Gui_1_1Viewer.html#a19d9e6da9d196e77f7d4bf8fee5ad227" target="_top" xlink:title="Make the OpenGL context associated with the viewer the current context. ">
<polygon fill="white" stroke="black" points="197.5,-88.5 197.5,-107.5 346.5,-107.5 346.5,-88.5 197.5,-88.5"/>
<text text-anchor="middle" x="272" y="-95.5" font-family="Helvetica,sans-Serif" font-size="10.00">Ra::Gui::Viewer::makeCurrent</text>
</a>
</g>
</g>
<!-- Node1&#45;&gt;Node12 -->
<g id="edge11" class="edge"><title>Node1&#45;&gt;Node12</title>
<path fill="none" stroke="midnightblue" d="M81.2111,-273.88C93.6359,-240.194 128.342,-158.74 186,-118 189.482,-115.54 193.225,-113.378 197.13,-111.48"/>
<polygon fill="midnightblue" stroke="midnightblue" points="198.647,-114.639 206.486,-107.512 195.914,-108.194 198.647,-114.639"/>
</g>
<!-- Node13 -->
<g id="node13" class="node"><title>Node13</title>
<g id="a_node13"><a xlink:href="classRa_1_1Plugins_1_1RadiumPluginInterface.html#a2519ee59a10501de906398a08a57b6e2" target="_top" xlink:title="openGlInitialize ">
<polygon fill="white" stroke="black" points="205,-39 205,-69 339,-69 339,-39 205,-39"/>
<text text-anchor="start" x="213" y="-57" font-family="Helvetica,sans-Serif" font-size="10.00">Ra::Plugins::RadiumPlugin</text>
<text text-anchor="middle" x="272" y="-46" font-family="Helvetica,sans-Serif" font-size="10.00">Interface::openGlInitialize</text>
</a>
</g>
</g>
<!-- Node1&#45;&gt;Node13 -->
<g id="edge12" class="edge"><title>Node1&#45;&gt;Node13</title>
<path fill="none" stroke="midnightblue" d="M79.5199,-273.972C89.3224,-235.488 120.617,-132.652 186,-79 189.056,-76.492 192.356,-74.2356 195.819,-72.2056"/>
<polygon fill="midnightblue" stroke="midnightblue" points="197.438,-75.3086 204.718,-67.6113 194.227,-69.0886 197.438,-75.3086"/>
</g>
<!-- Node14 -->
<g id="node14" class="node"><title>Node14</title>
<g id="a_node14"><a xlink:href="classRa_1_1Gui_1_1Viewer.html#aaf6cf957403cdcbfa8f4dfd0c25c8e74" target="_top" xlink:title="Reset the current OpenGL context that is no more the one associated with the viewer. ">
<polygon fill="white" stroke="black" points="199,-0.5 199,-19.5 345,-19.5 345,-0.5 199,-0.5"/>
<text text-anchor="middle" x="272" y="-7.5" font-family="Helvetica,sans-Serif" font-size="10.00">Ra::Gui::Viewer::doneCurrent</text>
</a>
</g>
</g>
<!-- Node1&#45;&gt;Node14 -->
<g id="edge13" class="edge"><title>Node1&#45;&gt;Node14</title>
<path fill="none" stroke="midnightblue" d="M77.6944,-273.961C83.5591,-229.297 107.169,-96.4157 186,-30 188.551,-27.8511 191.291,-25.9238 194.169,-24.1959"/>
<polygon fill="midnightblue" stroke="midnightblue" points="195.86,-27.2621 203.165,-19.5884 192.669,-21.0317 195.86,-27.2621"/>
</g>
</g>
</svg>
