<?xml version="1.0" encoding="UTF-8" standalone="no"?>
<!DOCTYPE svg PUBLIC "-//W3C//DTD SVG 1.1//EN"
 "http://www.w3.org/Graphics/SVG/1.1/DTD/svg11.dtd">
<!-- Generated by graphviz version 2.36.0 (20140111.2315)
 -->
<!-- Title: Ra::GuiBase::BaseApplication::BaseApplication Pages: 1 -->
<svg width="974pt" height="934pt"
 viewBox="0.00 0.00 974.00 934.00" xmlns="http://www.w3.org/2000/svg" xmlns:xlink="http://www.w3.org/1999/xlink">
<g id="graph0" class="graph" transform="scale(1 1) rotate(0) translate(4 930)">
<title>Ra::GuiBase::BaseApplication::BaseApplication</title>
<polygon fill="white" stroke="none" points="-4,4 -4,-930 970,-930 970,4 -4,4"/>
<!-- Node1 -->
<g id="node1" class="node"><title>Node1</title>
<polygon fill="#bfbfbf" stroke="black" points="0.5,-610 0.5,-640 149.5,-640 149.5,-610 0.5,-610"/>
<text text-anchor="start" x="8.5" y="-628" font-family="Helvetica,sans-Serif" font-size="10.00">Ra::GuiBase::BaseApplication</text>
<text text-anchor="middle" x="75" y="-617" font-family="Helvetica,sans-Serif" font-size="10.00">::BaseApplication</text>
</g>
<!-- Node2 -->
<g id="node2" class="node"><title>Node2</title>
<g id="a_node2"><a xlink:href="namespaceRa_1_1Core_1_1StringUtils.html#a63b10a7c14473b4aa762cf00e0432690" target="_top" xlink:title="Writes a formatted print into the given string, similarly to sprintf. ">
<polygon fill="white" stroke="black" points="222,-871 222,-901 330,-901 330,-871 222,-871"/>
<text text-anchor="start" x="230" y="-889" font-family="Helvetica,sans-Serif" font-size="10.00">Ra::Core::StringUtils</text>
<text text-anchor="middle" x="276" y="-878" font-family="Helvetica,sans-Serif" font-size="10.00">::stringPrintf</text>
</a>
</g>
</g>
<!-- Node1&#45;&gt;Node2 -->
<g id="edge1" class="edge"><title>Node1&#45;&gt;Node2</title>
<path fill="none" stroke="midnightblue" d="M80.4601,-640.193C92.1511,-677.781 126.928,-776.454 186,-837 197.731,-849.023 213.05,-858.882 227.665,-866.523"/>
<polygon fill="midnightblue" stroke="midnightblue" points="226.124,-869.666 236.636,-870.994 229.246,-863.401 226.124,-869.666"/>
</g>
<!-- Node4 -->
<g id="node4" class="node"><title>Node4</title>
<g id="a_node4"><a xlink:href="classRa_1_1GuiBase_1_1BaseApplication.html#a2578ea774df33aa24f0bf0ce684be0ed" target="_top" xlink:title="Ra::GuiBase::BaseApplication\l::addBasicShaders">
<polygon fill="white" stroke="black" points="201.5,-798 201.5,-828 350.5,-828 350.5,-798 201.5,-798"/>
<text text-anchor="start" x="209.5" y="-816" font-family="Helvetica,sans-Serif" font-size="10.00">Ra::GuiBase::BaseApplication</text>
<text text-anchor="middle" x="276" y="-805" font-family="Helvetica,sans-Serif" font-size="10.00">::addBasicShaders</text>
</a>
</g>
</g>
<!-- Node1&#45;&gt;Node4 -->
<g id="edge3" class="edge"><title>Node1&#45;&gt;Node4</title>
<path fill="none" stroke="midnightblue" d="M85.8288,-640.073C103.548,-666.454 143.024,-721.73 186,-759 200.977,-771.988 219.458,-783.76 235.692,-792.973"/>
<polygon fill="midnightblue" stroke="midnightblue" points="233.999,-796.036 244.443,-797.82 237.391,-789.913 233.999,-796.036"/>
</g>
<!-- Node7 -->
<g id="node7" class="node"><title>Node7</title>
<g id="a_node7"><a xlink:href="classRa_1_1GuiBase_1_1BaseApplication_1_1WindowFactory.html#a696337774144e7c72871cda5f297eed3" target="_top" xlink:title="Ra::GuiBase::BaseApplication\l::WindowFactory::createMainWindow">
<polygon fill="white" stroke="black" points="186,-720 186,-750 366,-750 366,-720 186,-720"/>
<text text-anchor="start" x="194" y="-738" font-family="Helvetica,sans-Serif" font-size="10.00">Ra::GuiBase::BaseApplication</text>
<text text-anchor="middle" x="276" y="-727" font-family="Helvetica,sans-Serif" font-size="10.00">::WindowFactory::createMainWindow</text>
</a>
</g>
</g>
<!-- Node1&#45;&gt;Node7 -->
<g id="edge6" class="edge"><title>Node1&#45;&gt;Node7</title>
<path fill="none" stroke="midnightblue" d="M91.4273,-640.097C111.576,-659.021 148.697,-691.245 186,-710 190.631,-712.328 195.51,-714.467 200.501,-716.427"/>
<polygon fill="midnightblue" stroke="midnightblue" points="199.607,-719.827 210.201,-719.979 202.014,-713.254 199.607,-719.827"/>
</g>
<!-- Node8 -->
<g id="node8" class="node"><title>Node8</title>
<g id="a_node8"><a xlink:href="classRa_1_1Gui_1_1Viewer.html#a6a060005e30fb85c91a93f25528e19eb" target="_top" xlink:title="Ra::Gui::Viewer::getContext">
<polygon fill="white" stroke="black" points="206,-681.5 206,-700.5 346,-700.5 346,-681.5 206,-681.5"/>
<text text-anchor="middle" x="276" y="-688.5" font-family="Helvetica,sans-Serif" font-size="10.00">Ra::Gui::Viewer::getContext</text>
</a>
</g>
</g>
<!-- Node1&#45;&gt;Node8 -->
<g id="edge7" class="edge"><title>Node1&#45;&gt;Node8</title>
<path fill="none" stroke="midnightblue" d="M108.17,-640.211C129.809,-650.002 159.178,-662.451 186,-671 195.393,-673.994 205.48,-676.714 215.369,-679.117"/>
<polygon fill="midnightblue" stroke="midnightblue" points="214.623,-682.537 225.158,-681.413 216.221,-675.722 214.623,-682.537"/>
</g>
<!-- Node9 -->
<g id="node9" class="node"><title>Node9</title>
<g id="a_node9"><a xlink:href="classRa_1_1GuiBase_1_1BaseApplication.html#a0a57ff7454c9c6b5a116844438f6d55e" target="_top" xlink:title="Create signal / slots connections. ">
<polygon fill="white" stroke="black" points="201.5,-632 201.5,-662 350.5,-662 350.5,-632 201.5,-632"/>
<text text-anchor="start" x="209.5" y="-650" font-family="Helvetica,sans-Serif" font-size="10.00">Ra::GuiBase::BaseApplication</text>
<text text-anchor="middle" x="276" y="-639" font-family="Helvetica,sans-Serif" font-size="10.00">::createConnections</text>
</a>
</g>
</g>
<!-- Node1&#45;&gt;Node9 -->
<g id="edge8" class="edge"><title>Node1&#45;&gt;Node9</title>
<path fill="none" stroke="midnightblue" d="M149.535,-633.129C163.166,-634.636 177.497,-636.221 191.402,-637.758"/>
<polygon fill="midnightblue" stroke="midnightblue" points="191.111,-641.247 201.435,-638.867 191.881,-634.289 191.111,-641.247"/>
</g>
<!-- Node15 -->
<g id="node15" class="node"><title>Node15</title>
<g id="a_node15"><a xlink:href="classRa_1_1GuiBase_1_1BaseApplication.html#a6e2e0e0982bf3edeee66fd79ce5a76ae" target="_top" xlink:title="Load plugins from the specified folder. ">
<polygon fill="white" stroke="black" points="407.5,-588 407.5,-618 556.5,-618 556.5,-588 407.5,-588"/>
<text text-anchor="start" x="415.5" y="-606" font-family="Helvetica,sans-Serif" font-size="10.00">Ra::GuiBase::BaseApplication</text>
<text text-anchor="middle" x="482" y="-595" font-family="Helvetica,sans-Serif" font-size="10.00">::loadPlugins</text>
</a>
</g>
</g>
<!-- Node1&#45;&gt;Node15 -->
<g id="edge14" class="edge"><title>Node1&#45;&gt;Node15</title>
<path fill="none" stroke="midnightblue" d="M149.812,-620.99C219.651,-617.197 324.36,-611.509 397.282,-607.548"/>
<polygon fill="midnightblue" stroke="midnightblue" points="397.558,-611.038 407.353,-607.001 397.178,-604.048 397.558,-611.038"/>
</g>
<!-- Node26 -->
<g id="node26" class="node"><title>Node26</title>
<g id="a_node26"><a xlink:href="classRa_1_1GuiBase_1_1BaseApplication.html#a2910421794de7e097bb41b17643e1d34" target="_top" xlink:title="Ra::GuiBase::BaseApplication\l::setupScene">
<polygon fill="white" stroke="black" points="201.5,-539 201.5,-569 350.5,-569 350.5,-539 201.5,-539"/>
<text text-anchor="start" x="209.5" y="-557" font-family="Helvetica,sans-Serif" font-size="10.00">Ra::GuiBase::BaseApplication</text>
<text text-anchor="middle" x="276" y="-546" font-family="Helvetica,sans-Serif" font-size="10.00">::setupScene</text>
</a>
</g>
</g>
<!-- Node1&#45;&gt;Node26 -->
<g id="edge28" class="edge"><title>Node1&#45;&gt;Node26</title>
<path fill="none" stroke="midnightblue" d="M118.203,-609.943C148.808,-599.023 190.384,-584.19 223.034,-572.541"/>
<polygon fill="midnightblue" stroke="midnightblue" points="224.616,-575.692 232.858,-569.036 222.263,-569.1 224.616,-575.692"/>
</g>
<!-- Node39 -->
<g id="node39" class="node"><title>Node39</title>
<g id="a_node39"><a xlink:href="classRa_1_1GuiBase_1_1BaseApplication.html#a3c772ae61fd47517427897752ef2c544" target="_top" xlink:title="Ra::GuiBase::BaseApplication\l::loadFile">
<polygon fill="white" stroke="black" points="201.5,-490 201.5,-520 350.5,-520 350.5,-490 201.5,-490"/>
<text text-anchor="start" x="209.5" y="-508" font-family="Helvetica,sans-Serif" font-size="10.00">Ra::GuiBase::BaseApplication</text>
<text text-anchor="middle" x="276" y="-497" font-family="Helvetica,sans-Serif" font-size="10.00">::loadFile</text>
</a>
</g>
</g>
<!-- Node1&#45;&gt;Node39 -->
<g id="edge41" class="edge"><title>Node1&#45;&gt;Node39</title>
<path fill="none" stroke="midnightblue" d="M89.3937,-609.838C108.71,-588.885 146.435,-551.261 186,-530 190.197,-527.745 194.618,-525.676 199.153,-523.781"/>
<polygon fill="midnightblue" stroke="midnightblue" points="200.526,-527.003 208.59,-520.133 198.001,-520.474 200.526,-527.003"/>
</g>
<!-- Node40 -->
<g id="node40" class="node"><title>Node40</title>
<g id="a_node40"><a xlink:href="classRa_1_1Gui_1_1Viewer.html#a4c52ddd225ed6e8fe630a7b1ac4c138f" target="_top" xlink:title="Access to camera interface. ">
<polygon fill="white" stroke="black" points="206,-441 206,-471 346,-471 346,-441 206,-441"/>
<text text-anchor="start" x="214" y="-459" font-family="Helvetica,sans-Serif" font-size="10.00">Ra::Gui::Viewer::getCamera</text>
<text text-anchor="middle" x="276" y="-448" font-family="Helvetica,sans-Serif" font-size="10.00">Interface</text>
</a>
</g>
</g>
<!-- Node1&#45;&gt;Node40 -->
<g id="edge42" class="edge"><title>Node1&#45;&gt;Node40</title>
<path fill="none" stroke="midnightblue" d="M83.344,-609.782C98.3665,-580.294 135.496,-515.267 186,-481 189.341,-478.733 192.885,-476.67 196.559,-474.793"/>
<polygon fill="midnightblue" stroke="midnightblue" points="198.29,-477.85 205.921,-470.501 195.372,-471.487 198.29,-477.85"/>
</g>
<!-- Node41 -->
<g id="node41" class="node"><title>Node41</title>
<g id="a_node41"><a xlink:href="classRa_1_1Gui_1_1CameraInterface.html#aa2ae818a4c8089c0aad905e3cad5441f" target="_top" xlink:title="Set the Camera used to render the scene. ">
<polygon fill="white" stroke="black" points="211.5,-392 211.5,-422 340.5,-422 340.5,-392 211.5,-392"/>
<text text-anchor="start" x="219.5" y="-410" font-family="Helvetica,sans-Serif" font-size="10.00">Ra::Gui::CameraInterface</text>
<text text-anchor="middle" x="276" y="-399" font-family="Helvetica,sans-Serif" font-size="10.00">::setCamera</text>
</a>
</g>
</g>
<!-- Node1&#45;&gt;Node41 -->
<g id="edge43" class="edge"><title>Node1&#45;&gt;Node41</title>
<path fill="none" stroke="midnightblue" d="M80.2597,-609.807C91.2884,-573.318 124.31,-480.206 186,-432 190.78,-428.265 196.088,-425.088 201.665,-422.385"/>
<polygon fill="midnightblue" stroke="midnightblue" points="203.448,-425.429 211.258,-418.271 200.688,-418.996 203.448,-425.429"/>
</g>
<!-- Node3 -->
<g id="node3" class="node"><title>Node3</title>
<g id="a_node3"><a xlink:href="namespaceRa_1_1Core_1_1StringUtils.html#ac348328b878bb8f1b1c1a3335ea20c4b" target="_top" xlink:title="Ra::Core::StringUtils\l::stringvPrintf">
<polygon fill="white" stroke="black" points="428,-896 428,-926 536,-926 536,-896 428,-896"/>
<text text-anchor="start" x="436" y="-914" font-family="Helvetica,sans-Serif" font-size="10.00">Ra::Core::StringUtils</text>
<text text-anchor="middle" x="482" y="-903" font-family="Helvetica,sans-Serif" font-size="10.00">::stringvPrintf</text>
</a>
</g>
</g>
<!-- Node2&#45;&gt;Node3 -->
<g id="edge2" class="edge"><title>Node2&#45;&gt;Node3</title>
<path fill="none" stroke="midnightblue" d="M330.066,-892.503C356.878,-895.789 389.601,-899.799 417.715,-903.245"/>
<polygon fill="midnightblue" stroke="midnightblue" points="417.494,-906.744 427.846,-904.486 418.346,-899.795 417.494,-906.744"/>
</g>
<!-- Node5 -->
<g id="node5" class="node"><title>Node5</title>
<g id="a_node5"><a xlink:href="classRa_1_1Engine_1_1ShaderConfiguration.html#a8ffa1714a9e63a320acaa7873fb99797" target="_top" xlink:title="Ra::Engine::ShaderConfiguration\l::addShader">
<polygon fill="white" stroke="black" points="402,-798 402,-828 562,-828 562,-798 402,-798"/>
<text text-anchor="start" x="410" y="-816" font-family="Helvetica,sans-Serif" font-size="10.00">Ra::Engine::ShaderConfiguration</text>
<text text-anchor="middle" x="482" y="-805" font-family="Helvetica,sans-Serif" font-size="10.00">::addShader</text>
</a>
</g>
</g>
<!-- Node4&#45;&gt;Node5 -->
<g id="edge4" class="edge"><title>Node4&#45;&gt;Node5</title>
<path fill="none" stroke="midnightblue" d="M350.649,-813C363.927,-813 377.901,-813 391.57,-813"/>
<polygon fill="midnightblue" stroke="midnightblue" points="391.946,-816.5 401.946,-813 391.946,-809.5 391.946,-816.5"/>
</g>
<!-- Node6 -->
<g id="node6" class="node"><title>Node6</title>
<g id="a_node6"><a xlink:href="namespaceRa_1_1Engine_1_1ShaderConfigurationFactory.html#a36842535508a390108fb1205210a5c49" target="_top" xlink:title="Ra::Engine::ShaderConfiguration\lFactory::addConfiguration">
<polygon fill="white" stroke="black" points="402,-847 402,-877 562,-877 562,-847 402,-847"/>
<text text-anchor="start" x="410" y="-865" font-family="Helvetica,sans-Serif" font-size="10.00">Ra::Engine::ShaderConfiguration</text>
<text text-anchor="middle" x="482" y="-854" font-family="Helvetica,sans-Serif" font-size="10.00">Factory::addConfiguration</text>
</a>
</g>
</g>
<!-- Node4&#45;&gt;Node6 -->
<g id="edge5" class="edge"><title>Node4&#45;&gt;Node6</title>
<path fill="none" stroke="midnightblue" d="M339.593,-828.035C361.426,-833.279 386.106,-839.207 408.666,-844.626"/>
<polygon fill="midnightblue" stroke="midnightblue" points="407.984,-848.061 418.525,-846.994 409.619,-841.255 407.984,-848.061"/>
</g>
<!-- Node10 -->
<g id="node10" class="node"><title>Node10</title>
<g id="a_node10"><a xlink:href="classRa_1_1GuiBase_1_1BaseApplication.html#aa19a984e0783e70237b8050feb1a3d2a" target="_top" xlink:title="Ra::GuiBase::BaseApplication\l::appNeedsToQuit">
<polygon fill="white" stroke="black" points="407.5,-637 407.5,-667 556.5,-667 556.5,-637 407.5,-637"/>
<text text-anchor="start" x="415.5" y="-655" font-family="Helvetica,sans-Serif" font-size="10.00">Ra::GuiBase::BaseApplication</text>
<text text-anchor="middle" x="482" y="-644" font-family="Helvetica,sans-Serif" font-size="10.00">::appNeedsToQuit</text>
</a>
</g>
</g>
<!-- Node9&#45;&gt;Node10 -->
<g id="edge9" class="edge"><title>Node9&#45;&gt;Node10</title>
<path fill="none" stroke="midnightblue" d="M350.649,-648.805C365.815,-649.177 381.89,-649.571 397.38,-649.95"/>
<polygon fill="midnightblue" stroke="midnightblue" points="397.377,-653.451 407.459,-650.198 397.548,-646.453 397.377,-653.451"/>
</g>
<!-- Node11 -->
<g id="node11" class="node"><title>Node11</title>
<g id="a_node11"><a xlink:href="classRa_1_1GuiBase_1_1BaseApplication.html#a525be12318745eae6c4730dd7570c7bf" target="_top" xlink:title="Ra::GuiBase::BaseApplication\l::initializeOpenGlPlugins">
<polygon fill="white" stroke="black" points="407.5,-749 407.5,-779 556.5,-779 556.5,-749 407.5,-749"/>
<text text-anchor="start" x="415.5" y="-767" font-family="Helvetica,sans-Serif" font-size="10.00">Ra::GuiBase::BaseApplication</text>
<text text-anchor="middle" x="482" y="-756" font-family="Helvetica,sans-Serif" font-size="10.00">::initializeOpenGlPlugins</text>
</a>
</g>
</g>
<!-- Node9&#45;&gt;Node11 -->
<g id="edge10" class="edge"><title>Node9&#45;&gt;Node11</title>
<path fill="none" stroke="midnightblue" d="M342.332,-662.063C350.495,-664.894 358.576,-668.188 366,-672 401.654,-690.304 436.761,-720.685 458.624,-741.491"/>
<polygon fill="midnightblue" stroke="midnightblue" points="456.436,-744.244 466.056,-748.683 461.304,-739.214 456.436,-744.244"/>
</g>
<!-- Node12 -->
<g id="node12" class="node"><title>Node12</title>
<g id="a_node12"><a xlink:href="classRa_1_1Gui_1_1Viewer.html#a17094c0201376a4beedb86fa39cf3fa2" target="_top" xlink:title="Access to the feature picking manager. ">
<polygon fill="white" stroke="black" points="615,-861 615,-891 753,-891 753,-861 615,-861"/>
<text text-anchor="start" x="623" y="-879" font-family="Helvetica,sans-Serif" font-size="10.00">Ra::Gui::Viewer::getPicking</text>
<text text-anchor="middle" x="684" y="-868" font-family="Helvetica,sans-Serif" font-size="10.00">Manager</text>
</a>
</g>
</g>
<!-- Node11&#45;&gt;Node12 -->
<g id="edge11" class="edge"><title>Node11&#45;&gt;Node12</title>
<path fill="none" stroke="midnightblue" d="M546.037,-779.087C551.739,-781.857 557.173,-785.132 562,-789 586.864,-808.927 572.933,-831.328 598,-851 600.462,-852.932 603.069,-854.715 605.783,-856.36"/>
<polygon fill="midnightblue" stroke="midnightblue" points="604.298,-859.534 614.767,-861.159 607.596,-853.36 604.298,-859.534"/>
</g>
<!-- Node13 -->
<g id="node13" class="node"><title>Node13</title>
<g id="a_node13"><a xlink:href="classRa_1_1Gui_1_1Viewer.html#a19d9e6da9d196e77f7d4bf8fee5ad227" target="_top" xlink:title="Make the OpenGL context associated with the viewer the current context. ">
<polygon fill="white" stroke="black" points="609.5,-822.5 609.5,-841.5 758.5,-841.5 758.5,-822.5 609.5,-822.5"/>
<text text-anchor="middle" x="684" y="-829.5" font-family="Helvetica,sans-Serif" font-size="10.00">Ra::Gui::Viewer::makeCurrent</text>
</a>
</g>
</g>
<!-- Node11&#45;&gt;Node13 -->
<g id="edge12" class="edge"><title>Node11&#45;&gt;Node13</title>
<path fill="none" stroke="midnightblue" d="M537.75,-779.107C546.026,-782.023 554.347,-785.329 562,-789 579.338,-797.316 580.318,-805.442 598,-813 603.84,-815.496 610.051,-817.685 616.355,-819.6"/>
<polygon fill="midnightblue" stroke="midnightblue" points="615.724,-823.058 626.298,-822.388 617.614,-816.318 615.724,-823.058"/>
</g>
<!-- Node14 -->
<g id="node14" class="node"><title>Node14</title>
<g id="a_node14"><a xlink:href="classRa_1_1Gui_1_1Viewer.html#aaf6cf957403cdcbfa8f4dfd0c25c8e74" target="_top" xlink:title="Reset the current OpenGL context that is no more the one associated with the viewer. ">
<polygon fill="white" stroke="black" points="611,-784.5 611,-803.5 757,-803.5 757,-784.5 611,-784.5"/>
<text text-anchor="middle" x="684" y="-791.5" font-family="Helvetica,sans-Serif" font-size="10.00">Ra::Gui::Viewer::doneCurrent</text>
</a>
</g>
</g>
<!-- Node11&#45;&gt;Node14 -->
<g id="edge13" class="edge"><title>Node11&#45;&gt;Node14</title>
<path fill="none" stroke="midnightblue" d="M556.621,-775.043C573.845,-777.627 592.195,-780.379 609.418,-782.963"/>
<polygon fill="midnightblue" stroke="midnightblue" points="609.003,-786.439 619.411,-784.462 610.041,-779.517 609.003,-786.439"/>
</g>
<!-- Node15&#45;&gt;Node12 -->
<g id="edge15" class="edge"><title>Node15&#45;&gt;Node12</title>
<path fill="none" stroke="midnightblue" d="M550.617,-618.205C554.842,-620.952 558.71,-624.189 562,-628 627.606,-703.992 531.621,-775.682 598,-851 600.412,-853.737 603.107,-856.182 606.012,-858.364"/>
<polygon fill="midnightblue" stroke="midnightblue" points="604.368,-861.466 614.691,-863.848 608.107,-855.548 604.368,-861.466"/>
</g>
<!-- Node15&#45;&gt;Node13 -->
<g id="edge25" class="edge"><title>Node15&#45;&gt;Node13</title>
<path fill="none" stroke="midnightblue" d="M550.116,-618.092C554.513,-620.862 558.553,-624.135 562,-628 617.751,-690.517 539.596,-752.954 598,-813 599.268,-814.304 600.605,-815.528 602.002,-816.675"/>
<polygon fill="midnightblue" stroke="midnightblue" points="600.332,-819.77 610.582,-822.45 604.24,-813.963 600.332,-819.77"/>
</g>
<!-- Node15&#45;&gt;Node14 -->
<g id="edge27" class="edge"><title>Node15&#45;&gt;Node14</title>
<path fill="none" stroke="midnightblue" d="M549.535,-618.058C554.122,-620.833 558.36,-624.116 562,-628 607.704,-676.762 550.491,-726.995 598,-774 599.886,-775.866 601.911,-777.57 604.048,-779.126"/>
<polygon fill="midnightblue" stroke="midnightblue" points="602.418,-782.231 612.784,-784.421 606.046,-776.245 602.418,-782.231"/>
</g>
<!-- Node16 -->
<g id="node16" class="node"><title>Node16</title>
<g id="a_node16"><a xlink:href="namespaceRa_1_1Core_1_1StringUtils.html#a30480ab8fa5ba3ac2824bf91bcddf7bf" target="_top" xlink:title="Ra::Core::StringUtils\l::getFileExt">
<polygon fill="white" stroke="black" points="630,-392 630,-422 738,-422 738,-392 630,-392"/>
<text text-anchor="start" x="638" y="-410" font-family="Helvetica,sans-Serif" font-size="10.00">Ra::Core::StringUtils</text>
<text text-anchor="middle" x="684" y="-399" font-family="Helvetica,sans-Serif" font-size="10.00">::getFileExt</text>
</a>
</g>
</g>
<!-- Node15&#45;&gt;Node16 -->
<g id="edge16" class="edge"><title>Node15&#45;&gt;Node16</title>
<path fill="none" stroke="midnightblue" d="M549.535,-587.942C554.122,-585.167 558.36,-581.884 562,-578 607.704,-529.238 551.801,-480.293 598,-432 604.181,-425.539 611.936,-420.724 620.234,-417.139"/>
<polygon fill="midnightblue" stroke="midnightblue" points="621.622,-420.357 629.776,-413.593 619.183,-413.796 621.622,-420.357"/>
</g>
<!-- Node17 -->
<g id="node17" class="node"><title>Node17</title>
<g id="a_node17"><a xlink:href="namespaceRa_1_1Core_1_1StringUtils.html#a385372757aef49b430a523e860df4def" target="_top" xlink:title="Ra::Core::StringUtils\l::getBaseName">
<polygon fill="white" stroke="black" points="630,-343 630,-373 738,-373 738,-343 630,-343"/>
<text text-anchor="start" x="638" y="-361" font-family="Helvetica,sans-Serif" font-size="10.00">Ra::Core::StringUtils</text>
<text text-anchor="middle" x="684" y="-350" font-family="Helvetica,sans-Serif" font-size="10.00">::getBaseName</text>
</a>
</g>
</g>
<!-- Node15&#45;&gt;Node17 -->
<g id="edge17" class="edge"><title>Node15&#45;&gt;Node17</title>
<path fill="none" stroke="midnightblue" d="M550.157,-587.944C554.546,-585.166 558.572,-581.882 562,-578 620.34,-511.943 538.988,-448.458 598,-383 604.061,-376.276 611.828,-371.323 620.196,-367.681"/>
<polygon fill="midnightblue" stroke="midnightblue" points="621.682,-370.863 629.839,-364.102 619.246,-364.3 621.682,-370.863"/>
</g>
<!-- Node18 -->
<g id="node18" class="node"><title>Node18</title>
<g id="a_node18"><a xlink:href="classRa_1_1Plugins_1_1RadiumPluginInterface.html#a89c442801ecfa6197ebf76b8b99d4249" target="_top" xlink:title="Pass arguments for plugin initialization. ">
<polygon fill="white" stroke="black" points="617,-294 617,-324 751,-324 751,-294 617,-294"/>
<text text-anchor="start" x="625" y="-312" font-family="Helvetica,sans-Serif" font-size="10.00">Ra::Plugins::RadiumPlugin</text>
<text text-anchor="middle" x="684" y="-301" font-family="Helvetica,sans-Serif" font-size="10.00">Interface::registerPlugin</text>
</a>
</g>
</g>
<!-- Node15&#45;&gt;Node18 -->
<g id="edge18" class="edge"><title>Node15&#45;&gt;Node18</title>
<path fill="none" stroke="midnightblue" d="M550.675,-587.845C554.887,-585.086 558.736,-581.833 562,-578 633.07,-494.542 526.081,-416.728 598,-334 600.895,-330.67 604.209,-327.772 607.811,-325.252"/>
<polygon fill="midnightblue" stroke="midnightblue" points="609.837,-328.12 616.678,-320.029 606.285,-322.088 609.837,-328.12"/>
</g>
<!-- Node19 -->
<g id="node19" class="node"><title>Node19</title>
<g id="a_node19"><a xlink:href="classRa_1_1Plugins_1_1RadiumPluginInterface.html#ad6ba57281f8237263a2c5e1b718a4689" target="_top" xlink:title="Ra::Plugins::RadiumPlugin\lInterface::doAddRenderer">
<polygon fill="white" stroke="black" points="617,-735 617,-765 751,-765 751,-735 617,-735"/>
<text text-anchor="start" x="625" y="-753" font-family="Helvetica,sans-Serif" font-size="10.00">Ra::Plugins::RadiumPlugin</text>
<text text-anchor="middle" x="684" y="-742" font-family="Helvetica,sans-Serif" font-size="10.00">Interface::doAddRenderer</text>
</a>
</g>
</g>
<!-- Node15&#45;&gt;Node19 -->
<g id="edge19" class="edge"><title>Node15&#45;&gt;Node19</title>
<path fill="none" stroke="midnightblue" d="M548.3,-618.096C553.279,-620.861 557.937,-624.131 562,-628 595.301,-659.711 564.377,-693.63 598,-725 601.1,-727.892 604.518,-730.451 608.149,-732.716"/>
<polygon fill="midnightblue" stroke="midnightblue" points="606.499,-735.803 616.96,-737.482 609.83,-729.646 606.499,-735.803"/>
</g>
<!-- Node20 -->
<g id="node20" class="node"><title>Node20</title>
<g id="a_node20"><a xlink:href="classRa_1_1Plugins_1_1RadiumPluginInterface.html#a0abb07f37722a64372c5dce4b411cd7a" target="_top" xlink:title="addRenderers ">
<polygon fill="white" stroke="black" points="617,-686 617,-716 751,-716 751,-686 617,-686"/>
<text text-anchor="start" x="625" y="-704" font-family="Helvetica,sans-Serif" font-size="10.00">Ra::Plugins::RadiumPlugin</text>
<text text-anchor="middle" x="684" y="-693" font-family="Helvetica,sans-Serif" font-size="10.00">Interface::addRenderers</text>
</a>
</g>
</g>
<!-- Node15&#45;&gt;Node20 -->
<g id="edge20" class="edge"><title>Node15&#45;&gt;Node20</title>
<path fill="none" stroke="midnightblue" d="M544.368,-618.14C550.594,-620.912 556.602,-624.172 562,-628 583.752,-643.427 576.092,-660.796 598,-676 601.088,-678.143 604.361,-680.105 607.756,-681.9"/>
<polygon fill="midnightblue" stroke="midnightblue" points="606.447,-685.153 616.982,-686.275 609.446,-678.828 606.447,-685.153"/>
</g>
<!-- Node21 -->
<g id="node21" class="node"><title>Node21</title>
<g id="a_node21"><a xlink:href="classRa_1_1Plugins_1_1RadiumPluginInterface.html#acc10a0721a8fe34cc7e7735250b495c1" target="_top" xlink:title="Ra::Plugins::RadiumPlugin\lInterface::doAddFileLoader">
<polygon fill="white" stroke="black" points="617,-637 617,-667 751,-667 751,-637 617,-637"/>
<text text-anchor="start" x="625" y="-655" font-family="Helvetica,sans-Serif" font-size="10.00">Ra::Plugins::RadiumPlugin</text>
<text text-anchor="middle" x="684" y="-644" font-family="Helvetica,sans-Serif" font-size="10.00">Interface::doAddFileLoader</text>
</a>
</g>
</g>
<!-- Node15&#45;&gt;Node21 -->
<g id="edge21" class="edge"><title>Node15&#45;&gt;Node21</title>
<path fill="none" stroke="midnightblue" d="M544.366,-618.035C565.675,-623.255 589.75,-629.154 611.786,-634.553"/>
<polygon fill="midnightblue" stroke="midnightblue" points="611.205,-638.014 621.75,-636.994 612.87,-631.215 611.205,-638.014"/>
</g>
<!-- Node22 -->
<g id="node22" class="node"><title>Node22</title>
<g id="a_node22"><a xlink:href="classRa_1_1Plugins_1_1RadiumPluginInterface.html#afa17f1d9b08c2303fc36f9b51d5bb6a1" target="_top" xlink:title="Ra::Plugins::RadiumPlugin\lInterface::addFileLoaders">
<polygon fill="white" stroke="black" points="617,-588 617,-618 751,-618 751,-588 617,-588"/>
<text text-anchor="start" x="625" y="-606" font-family="Helvetica,sans-Serif" font-size="10.00">Ra::Plugins::RadiumPlugin</text>
<text text-anchor="middle" x="684" y="-595" font-family="Helvetica,sans-Serif" font-size="10.00">Interface::addFileLoaders</text>
</a>
</g>
</g>
<!-- Node15&#45;&gt;Node22 -->
<g id="edge22" class="edge"><title>Node15&#45;&gt;Node22</title>
<path fill="none" stroke="midnightblue" d="M556.621,-603C572.946,-603 590.283,-603 606.712,-603"/>
<polygon fill="midnightblue" stroke="midnightblue" points="606.808,-606.5 616.808,-603 606.808,-599.5 606.808,-606.5"/>
</g>
<!-- Node23 -->
<g id="node23" class="node"><title>Node23</title>
<g id="a_node23"><a xlink:href="classRa_1_1Plugins_1_1RadiumPluginInterface.html#a6feecf052a9c12e6f85b07e3eaaf0a9a" target="_top" xlink:title="Ra::Plugins::RadiumPlugin\lInterface::doAddROpenGLInitializer">
<polygon fill="white" stroke="black" points="598.5,-539 598.5,-569 769.5,-569 769.5,-539 598.5,-539"/>
<text text-anchor="start" x="606.5" y="-557" font-family="Helvetica,sans-Serif" font-size="10.00">Ra::Plugins::RadiumPlugin</text>
<text text-anchor="middle" x="684" y="-546" font-family="Helvetica,sans-Serif" font-size="10.00">Interface::doAddROpenGLInitializer</text>
</a>
</g>
</g>
<!-- Node15&#45;&gt;Node23 -->
<g id="edge23" class="edge"><title>Node15&#45;&gt;Node23</title>
<path fill="none" stroke="midnightblue" d="M544.366,-587.965C565.675,-582.745 589.75,-576.846 611.786,-571.447"/>
<polygon fill="midnightblue" stroke="midnightblue" points="612.87,-574.785 621.75,-569.006 611.205,-567.986 612.87,-574.785"/>
</g>
<!-- Node24 -->
<g id="node24" class="node"><title>Node24</title>
<g id="a_node24"><a xlink:href="classRa_1_1Gui_1_1Viewer.html#a74b52eef775a13bed0ada0c261dcc397" target="_top" xlink:title="Ra::Gui::Viewer::isOpenGl\lInitialized">
<polygon fill="white" stroke="black" points="617.5,-490 617.5,-520 750.5,-520 750.5,-490 617.5,-490"/>
<text text-anchor="start" x="625.5" y="-508" font-family="Helvetica,sans-Serif" font-size="10.00">Ra::Gui::Viewer::isOpenGl</text>
<text text-anchor="middle" x="684" y="-497" font-family="Helvetica,sans-Serif" font-size="10.00">Initialized</text>
</a>
</g>
</g>
<!-- Node15&#45;&gt;Node24 -->
<g id="edge24" class="edge"><title>Node15&#45;&gt;Node24</title>
<path fill="none" stroke="midnightblue" d="M544.368,-587.86C550.594,-585.088 556.602,-581.828 562,-578 583.752,-562.573 576.092,-545.204 598,-530 601.248,-527.746 604.701,-525.692 608.284,-523.822"/>
<polygon fill="midnightblue" stroke="midnightblue" points="609.851,-526.953 617.419,-519.54 606.879,-520.615 609.851,-526.953"/>
</g>
<!-- Node25 -->
<g id="node25" class="node"><title>Node25</title>
<g id="a_node25"><a xlink:href="classRa_1_1Plugins_1_1RadiumPluginInterface.html#a2519ee59a10501de906398a08a57b6e2" target="_top" xlink:title="openGlInitialize ">
<polygon fill="white" stroke="black" points="617,-441 617,-471 751,-471 751,-441 617,-441"/>
<text text-anchor="start" x="625" y="-459" font-family="Helvetica,sans-Serif" font-size="10.00">Ra::Plugins::RadiumPlugin</text>
<text text-anchor="middle" x="684" y="-448" font-family="Helvetica,sans-Serif" font-size="10.00">Interface::openGlInitialize</text>
</a>
</g>
</g>
<!-- Node15&#45;&gt;Node25 -->
<g id="edge26" class="edge"><title>Node15&#45;&gt;Node25</title>
<path fill="none" stroke="midnightblue" d="M548.3,-587.904C553.279,-585.139 557.937,-581.869 562,-578 595.301,-546.289 564.377,-512.37 598,-481 601.1,-478.108 604.518,-475.549 608.149,-473.284"/>
<polygon fill="midnightblue" stroke="midnightblue" points="609.83,-476.354 616.96,-468.518 606.499,-470.197 609.83,-476.354"/>
</g>
<!-- Node27 -->
<g id="node27" class="node"><title>Node27</title>
<g id="a_node27"><a xlink:href="namespaceRa_1_1Engine_1_1DrawPrimitives.html#a70881604443264a7fceb751567eaa5b4" target="_top" xlink:title="Ra::Engine::DrawPrimitives\l::Primitive">
<polygon fill="white" stroke="black" points="413,-171 413,-201 551,-201 551,-171 413,-171"/>
<text text-anchor="start" x="421" y="-189" font-family="Helvetica,sans-Serif" font-size="10.00">Ra::Engine::DrawPrimitives</text>
<text text-anchor="middle" x="482" y="-178" font-family="Helvetica,sans-Serif" font-size="10.00">::Primitive</text>
</a>
</g>
</g>
<!-- Node26&#45;&gt;Node27 -->
<g id="edge29" class="edge"><title>Node26&#45;&gt;Node27</title>
<path fill="none" stroke="midnightblue" d="M350.894,-540.746C356.506,-537.595 361.661,-533.732 366,-529 424.086,-465.653 373.992,-420.255 402,-339 418.526,-291.055 447.84,-239.468 465.737,-210.119"/>
<polygon fill="midnightblue" stroke="midnightblue" points="468.842,-211.752 471.116,-201.404 462.885,-208.075 468.842,-211.752"/>
</g>
<!-- Node32 -->
<g id="node32" class="node"><title>Node32</title>
<g id="a_node32"><a xlink:href="classRa_1_1Engine_1_1SystemEntity.html#a2b341d35802bc8d3e1b7a49833db9730" target="_top" xlink:title="Access the UI Component. ">
<polygon fill="white" stroke="black" points="416.5,-49 416.5,-79 547.5,-79 547.5,-49 416.5,-49"/>
<text text-anchor="start" x="424.5" y="-67" font-family="Helvetica,sans-Serif" font-size="10.00">Ra::Engine::SystemEntity</text>
<text text-anchor="middle" x="482" y="-56" font-family="Helvetica,sans-Serif" font-size="10.00">::uiCmp</text>
</a>
</g>
</g>
<!-- Node26&#45;&gt;Node32 -->
<g id="edge34" class="edge"><title>Node26&#45;&gt;Node32</title>
<path fill="none" stroke="midnightblue" d="M350.526,-541.631C356.368,-538.312 361.672,-534.168 366,-529 418.76,-466.008 370.723,-236.983 402,-161 414.008,-131.828 437.822,-104.533 456.179,-86.3761"/>
<polygon fill="midnightblue" stroke="midnightblue" points="458.883,-88.6311 463.662,-79.1751 454.029,-83.5872 458.883,-88.6311"/>
</g>
<!-- Node35 -->
<g id="node35" class="node"><title>Node35</title>
<g id="a_node35"><a xlink:href="namespaceRa_1_1Engine_1_1DrawPrimitives.html#a64724cb608007bd81387f307ea47d0e3" target="_top" xlink:title="Create a res*res square grid centered on center, in plane normal to normal. ">
<polygon fill="white" stroke="black" points="413,-539 413,-569 551,-569 551,-539 413,-539"/>
<text text-anchor="start" x="421" y="-557" font-family="Helvetica,sans-Serif" font-size="10.00">Ra::Engine::DrawPrimitives</text>
<text text-anchor="middle" x="482" y="-546" font-family="Helvetica,sans-Serif" font-size="10.00">::Grid</text>
</a>
</g>
</g>
<!-- Node26&#45;&gt;Node35 -->
<g id="edge37" class="edge"><title>Node26&#45;&gt;Node35</title>
<path fill="none" stroke="midnightblue" d="M350.649,-554C367.472,-554 385.413,-554 402.433,-554"/>
<polygon fill="midnightblue" stroke="midnightblue" points="402.894,-557.5 412.894,-554 402.894,-550.5 402.894,-557.5"/>
</g>
<!-- Node36 -->
<g id="node36" class="node"><title>Node36</title>
<g id="a_node36"><a xlink:href="namespaceRa_1_1Core_1_1Colors.html#a9b6b3be86ee487b0a0e387566756b60d" target="_top" xlink:title="Ra::Core::Colors::Grey">
<polygon fill="white" stroke="black" points="423,-500.5 423,-519.5 541,-519.5 541,-500.5 423,-500.5"/>
<text text-anchor="middle" x="482" y="-507.5" font-family="Helvetica,sans-Serif" font-size="10.00">Ra::Core::Colors::Grey</text>
</a>
</g>
</g>
<!-- Node26&#45;&gt;Node36 -->
<g id="edge38" class="edge"><title>Node26&#45;&gt;Node36</title>
<path fill="none" stroke="midnightblue" d="M346.635,-538.981C372.909,-533.314 402.381,-526.957 427.012,-521.644"/>
<polygon fill="midnightblue" stroke="midnightblue" points="427.86,-525.042 436.897,-519.512 426.384,-518.2 427.86,-525.042"/>
</g>
<!-- Node37 -->
<g id="node37" class="node"><title>Node37</title>
<g id="a_node37"><a xlink:href="classRa_1_1Engine_1_1Component.html#a8faa6f03b4a5a8bc30bb8ff402e6b61f" target="_top" xlink:title="Add a new render object to the component. This adds the RO to the manager for drawing. ">
<polygon fill="white" stroke="black" points="421,-348 421,-378 543,-378 543,-348 421,-348"/>
<text text-anchor="start" x="429" y="-366" font-family="Helvetica,sans-Serif" font-size="10.00">Ra::Engine::Component</text>
<text text-anchor="middle" x="482" y="-355" font-family="Helvetica,sans-Serif" font-size="10.00">::addRenderObject</text>
</a>
</g>
</g>
<!-- Node26&#45;&gt;Node37 -->
<g id="edge39" class="edge"><title>Node26&#45;&gt;Node37</title>
<path fill="none" stroke="midnightblue" d="M348.545,-538.802C354.718,-536.058 360.642,-532.82 366,-529 393.013,-509.74 442.938,-428.23 467.134,-387.039"/>
<polygon fill="midnightblue" stroke="midnightblue" points="470.278,-388.596 472.297,-378.195 464.233,-385.067 470.278,-388.596"/>
</g>
<!-- Node28 -->
<g id="node28" class="node"><title>Node28</title>
<g id="a_node28"><a xlink:href="namespaceRa_1_1Engine_1_1ShaderConfigurationFactory.html#a0bc60f21dbabd745961037f3d2f019c8" target="_top" xlink:title="Ra::Engine::ShaderConfiguration\lFactory::getConfiguration">
<polygon fill="white" stroke="black" points="604,-98 604,-128 764,-128 764,-98 604,-98"/>
<text text-anchor="start" x="612" y="-116" font-family="Helvetica,sans-Serif" font-size="10.00">Ra::Engine::ShaderConfiguration</text>
<text text-anchor="middle" x="684" y="-105" font-family="Helvetica,sans-Serif" font-size="10.00">Factory::getConfiguration</text>
</a>
</g>
</g>
<!-- Node27&#45;&gt;Node28 -->
<g id="edge30" class="edge"><title>Node27&#45;&gt;Node28</title>
<path fill="none" stroke="midnightblue" d="M515.279,-170.936C538.092,-160.615 569.551,-147.031 598,-137 603.884,-134.925 610.045,-132.904 616.246,-130.971"/>
<polygon fill="midnightblue" stroke="midnightblue" points="617.438,-134.267 625.989,-128.012 615.403,-127.569 617.438,-134.267"/>
</g>
<!-- Node30 -->
<g id="node30" class="node"><title>Node30</title>
<g id="a_node30"><a xlink:href="classRa_1_1Engine_1_1RenderObject.html#ae1ea453e2b698cda9956586d11b9cfbd" target="_top" xlink:title="Ra::Engine::RenderObject\l::setRenderTechnique">
<polygon fill="white" stroke="black" points="618.5,-196 618.5,-226 749.5,-226 749.5,-196 618.5,-196"/>
<text text-anchor="start" x="626.5" y="-214" font-family="Helvetica,sans-Serif" font-size="10.00">Ra::Engine::RenderObject</text>
<text text-anchor="middle" x="684" y="-203" font-family="Helvetica,sans-Serif" font-size="10.00">::setRenderTechnique</text>
</a>
</g>
</g>
<!-- Node27&#45;&gt;Node30 -->
<g id="edge32" class="edge"><title>Node27&#45;&gt;Node30</title>
<path fill="none" stroke="midnightblue" d="M551.269,-194.534C569.686,-196.836 589.705,-199.338 608.447,-201.681"/>
<polygon fill="midnightblue" stroke="midnightblue" points="608.054,-205.159 618.411,-202.926 608.922,-198.213 608.054,-205.159"/>
</g>
<!-- Node31 -->
<g id="node31" class="node"><title>Node31</title>
<g id="a_node31"><a xlink:href="classRa_1_1Engine_1_1RenderObject.html#ae8e94954e783a2012fd774598af1eb52" target="_top" xlink:title="Ra::Engine::RenderObject\l::setMesh">
<polygon fill="white" stroke="black" points="618.5,-147 618.5,-177 749.5,-177 749.5,-147 618.5,-147"/>
<text text-anchor="start" x="626.5" y="-165" font-family="Helvetica,sans-Serif" font-size="10.00">Ra::Engine::RenderObject</text>
<text text-anchor="middle" x="684" y="-154" font-family="Helvetica,sans-Serif" font-size="10.00">::setMesh</text>
</a>
</g>
</g>
<!-- Node27&#45;&gt;Node31 -->
<g id="edge33" class="edge"><title>Node27&#45;&gt;Node31</title>
<path fill="none" stroke="midnightblue" d="M551.269,-177.808C569.686,-175.598 589.705,-173.195 608.447,-170.946"/>
<polygon fill="midnightblue" stroke="midnightblue" points="608.899,-174.417 618.411,-169.751 608.065,-167.467 608.899,-174.417"/>
</g>
<!-- Node29 -->
<g id="node29" class="node"><title>Node29</title>
<g id="a_node29"><a xlink:href="classRa_1_1Engine_1_1ShaderConfiguration.html#a7e20a600c78e8627f0238b342f4b42f2" target="_top" xlink:title="Ra::Engine::ShaderConfiguration\l::getDefaultShaderConfig">
<polygon fill="white" stroke="black" points="806,-98 806,-128 966,-128 966,-98 806,-98"/>
<text text-anchor="start" x="814" y="-116" font-family="Helvetica,sans-Serif" font-size="10.00">Ra::Engine::ShaderConfiguration</text>
<text text-anchor="middle" x="886" y="-105" font-family="Helvetica,sans-Serif" font-size="10.00">::getDefaultShaderConfig</text>
</a>
</g>
</g>
<!-- Node28&#45;&gt;Node29 -->
<g id="edge31" class="edge"><title>Node28&#45;&gt;Node29</title>
<path fill="none" stroke="midnightblue" d="M764.045,-113C774.471,-113 785.215,-113 795.795,-113"/>
<polygon fill="midnightblue" stroke="midnightblue" points="795.874,-116.5 805.874,-113 795.874,-109.5 795.874,-116.5"/>
</g>
<!-- Node33 -->
<g id="node33" class="node"><title>Node33</title>
<g id="a_node33"><a xlink:href="classRa_1_1Engine_1_1Entity.html#a2dbff361ff815b56c3b911fdcbb57da9" target="_top" xlink:title="Ra::Engine::Entity\l::getTransformAsMatrix">
<polygon fill="white" stroke="black" points="624.5,-49 624.5,-79 743.5,-79 743.5,-49 624.5,-49"/>
<text text-anchor="start" x="632.5" y="-67" font-family="Helvetica,sans-Serif" font-size="10.00">Ra::Engine::Entity</text>
<text text-anchor="middle" x="684" y="-56" font-family="Helvetica,sans-Serif" font-size="10.00">::getTransformAsMatrix</text>
</a>
</g>
</g>
<!-- Node32&#45;&gt;Node33 -->
<g id="edge35" class="edge"><title>Node32&#45;&gt;Node33</title>
<path fill="none" stroke="midnightblue" d="M547.658,-64C568.939,-64 592.671,-64 614.246,-64"/>
<polygon fill="midnightblue" stroke="midnightblue" points="614.315,-67.5001 624.315,-64 614.315,-60.5001 614.315,-67.5001"/>
</g>
<!-- Node34 -->
<g id="node34" class="node"><title>Node34</title>
<g id="a_node34"><a xlink:href="classRa_1_1Engine_1_1Entity.html#a524712805170bfce52ed0a98f7eee436" target="_top" xlink:title="Get component with a given name. ">
<polygon fill="white" stroke="black" points="635.5,-0 635.5,-30 732.5,-30 732.5,-0 635.5,-0"/>
<text text-anchor="start" x="643.5" y="-18" font-family="Helvetica,sans-Serif" font-size="10.00">Ra::Engine::Entity</text>
<text text-anchor="middle" x="684" y="-7" font-family="Helvetica,sans-Serif" font-size="10.00">::getComponent</text>
</a>
</g>
</g>
<!-- Node32&#45;&gt;Node34 -->
<g id="edge36" class="edge"><title>Node32&#45;&gt;Node34</title>
<path fill="none" stroke="midnightblue" d="M544.366,-48.9654C570.215,-42.6323 600.134,-35.3021 625.547,-29.0759"/>
<polygon fill="midnightblue" stroke="midnightblue" points="626.529,-32.4389 635.409,-26.6598 624.863,-25.64 626.529,-32.4389"/>
</g>
<!-- Node38 -->
<g id="node38" class="node"><title>Node38</title>
<g id="a_node38"><a xlink:href="classRa_1_1Engine_1_1Component.html#a10b0bc182b76165744ebea603ae32dfe" target="_top" xlink:title="Shortcut to access the render object manager. ">
<polygon fill="white" stroke="black" points="623,-245 623,-275 745,-275 745,-245 623,-245"/>
<text text-anchor="start" x="631" y="-263" font-family="Helvetica,sans-Serif" font-size="10.00">Ra::Engine::Component</text>
<text text-anchor="middle" x="684" y="-252" font-family="Helvetica,sans-Serif" font-size="10.00">::getRoMgr</text>
</a>
</g>
</g>
<!-- Node37&#45;&gt;Node38 -->
<g id="edge40" class="edge"><title>Node37&#45;&gt;Node38</title>
<path fill="none" stroke="midnightblue" d="M501.432,-347.819C523.276,-330.486 561.349,-302.3 598,-285 602.956,-282.661 608.178,-280.489 613.497,-278.482"/>
<polygon fill="midnightblue" stroke="midnightblue" points="614.892,-281.701 623.139,-275.049 612.544,-275.106 614.892,-281.701"/>
</g>
</g>
</svg>
