<?xml version="1.0" encoding="UTF-8" standalone="no"?>
<!DOCTYPE svg PUBLIC "-//W3C//DTD SVG 1.1//EN"
 "http://www.w3.org/Graphics/SVG/1.1/DTD/svg11.dtd">
<!-- Generated by graphviz version 2.36.0 (20140111.2315)
 -->
<!-- Title: Ra::Core::AttribManager::removeAttrib Pages: 1 -->
<svg width="444pt" height="77pt"
 viewBox="0.00 0.00 444.00 77.00" xmlns="http://www.w3.org/2000/svg" xmlns:xlink="http://www.w3.org/1999/xlink">
<g id="graph0" class="graph" transform="scale(1 1) rotate(0) translate(4 73)">
<title>Ra::Core::AttribManager::removeAttrib</title>
<polygon fill="white" stroke="none" points="-4,4 -4,-73 440,-73 440,4 -4,4"/>
<!-- Node1 -->
<g id="node1" class="node"><title>Node1</title>
<polygon fill="#bfbfbf" stroke="black" points="0.5,-17 0.5,-47 123.5,-47 123.5,-17 0.5,-17"/>
<text text-anchor="start" x="8.5" y="-35" font-family="Helvetica,sans-Serif" font-size="10.00">Ra::Core::AttribManager</text>
<text text-anchor="middle" x="62" y="-24" font-family="Helvetica,sans-Serif" font-size="10.00">::removeAttrib</text>
</g>
<!-- Node2 -->
<g id="node2" class="node"><title>Node2</title>
<g id="a_node2"><a xlink:href="classRa_1_1Core_1_1AttribManager.html#aaa6088620425c1e1d74b50f1b50eb596" target="_top" xlink:title="Get attribute by handle. ">
<polygon fill="white" stroke="black" points="160.5,-39 160.5,-69 283.5,-69 283.5,-39 160.5,-39"/>
<text text-anchor="start" x="168.5" y="-57" font-family="Helvetica,sans-Serif" font-size="10.00">Ra::Core::AttribManager</text>
<text text-anchor="middle" x="222" y="-46" font-family="Helvetica,sans-Serif" font-size="10.00">::getAttrib</text>
</a>
</g>
</g>
<!-- Node1&#45;&gt;Node2 -->
<g id="edge1" class="edge"><title>Node1&#45;&gt;Node2</title>
<path fill="none" stroke="midnightblue" d="M123.635,-40.4429C132.361,-41.6578 141.403,-42.9168 150.303,-44.1561"/>
<polygon fill="midnightblue" stroke="midnightblue" points="149.879,-47.6308 160.266,-45.5434 150.844,-40.6976 149.879,-47.6308"/>
</g>
<!-- Node3 -->
<g id="node3" class="node"><title>Node3</title>
<g id="a_node3"><a xlink:href="classRa_1_1Core_1_1Index.html#a16f988512f9ef442cc97b6bc4809ba45" target="_top" xlink:title="Ra::Core::Index::Invalid">
<polygon fill="white" stroke="black" points="161.5,-0.5 161.5,-19.5 282.5,-19.5 282.5,-0.5 161.5,-0.5"/>
<text text-anchor="middle" x="222" y="-7.5" font-family="Helvetica,sans-Serif" font-size="10.00">Ra::Core::Index::Invalid</text>
</a>
</g>
</g>
<!-- Node1&#45;&gt;Node3 -->
<g id="edge2" class="edge"><title>Node1&#45;&gt;Node3</title>
<path fill="none" stroke="midnightblue" d="M123.635,-23.5571C132.71,-22.2935 142.128,-20.9822 151.371,-19.6951"/>
<polygon fill="midnightblue" stroke="midnightblue" points="151.887,-23.1571 161.309,-18.3114 150.922,-16.224 151.887,-23.1571"/>
</g>
<!-- Node4 -->
<g id="node4" class="node"><title>Node4</title>
<g id="a_node4"><a xlink:href="classRa_1_1Core_1_1Index.html#af6afe563ad57a4ab82f3706987e684ef" target="_top" xlink:title="CONSTRUCTOR. ">
<polygon fill="white" stroke="black" points="320,-0.5 320,-19.5 436,-19.5 436,-0.5 320,-0.5"/>
<text text-anchor="middle" x="378" y="-7.5" font-family="Helvetica,sans-Serif" font-size="10.00">Ra::Core::Index::Index</text>
</a>
</g>
</g>
<!-- Node3&#45;&gt;Node4 -->
<g id="edge3" class="edge"><title>Node3&#45;&gt;Node4</title>
<path fill="none" stroke="midnightblue" d="M282.54,-10C291.457,-10 300.704,-10 309.767,-10"/>
<polygon fill="midnightblue" stroke="midnightblue" points="309.895,-13.5001 319.895,-10 309.895,-6.5001 309.895,-13.5001"/>
</g>
</g>
</svg>
