<?xml version="1.0" encoding="UTF-8" standalone="no"?>
<!DOCTYPE svg PUBLIC "-//W3C//DTD SVG 1.1//EN"
 "http://www.w3.org/Graphics/SVG/1.1/DTD/svg11.dtd">
<!-- Generated by graphviz version 2.36.0 (20140111.2315)
 -->
<!-- Title: Ra::Core::BVH::getInFrustumSlow Pages: 1 -->
<svg width="474pt" height="126pt"
 viewBox="0.00 0.00 474.00 126.00" xmlns="http://www.w3.org/2000/svg" xmlns:xlink="http://www.w3.org/1999/xlink">
<g id="graph0" class="graph" transform="scale(1 1) rotate(0) translate(4 122)">
<title>Ra::Core::BVH::getInFrustumSlow</title>
<polygon fill="white" stroke="none" points="-4,4 -4,-122 470,-122 470,4 -4,4"/>
<!-- Node1 -->
<g id="node1" class="node"><title>Node1</title>
<polygon fill="#bfbfbf" stroke="black" points="0.5,-44.5 0.5,-63.5 169.5,-63.5 169.5,-44.5 0.5,-44.5"/>
<text text-anchor="middle" x="85" y="-51.5" font-family="Helvetica,sans-Serif" font-size="10.00">Ra::Core::BVH::getInFrustumSlow</text>
</g>
<!-- Node2 -->
<g id="node2" class="node"><title>Node2</title>
<g id="a_node2"><a xlink:href="structRa_1_1Core_1_1Frustum.html#a18c7230bb1ba6968840ed419e5f6b89d" target="_top" xlink:title="Ra::Core::Frustum::\lgetPlane">
<polygon fill="white" stroke="black" points="209,-88 209,-118 313,-118 313,-88 209,-88"/>
<text text-anchor="start" x="217" y="-106" font-family="Helvetica,sans-Serif" font-size="10.00">Ra::Core::Frustum::</text>
<text text-anchor="middle" x="261" y="-95" font-family="Helvetica,sans-Serif" font-size="10.00">getPlane</text>
</a>
</g>
</g>
<!-- Node1&#45;&gt;Node2 -->
<g id="edge1" class="edge"><title>Node1&#45;&gt;Node2</title>
<path fill="none" stroke="midnightblue" d="M119.962,-63.564C142.412,-69.8863 172.483,-78.3543 199.003,-85.8227"/>
<polygon fill="midnightblue" stroke="midnightblue" points="198.396,-89.2877 208.97,-88.6295 200.293,-82.5498 198.396,-89.2877"/>
</g>
<!-- Node3 -->
<g id="node3" class="node"><title>Node3</title>
<g id="a_node3"><a xlink:href="namespaceRa_1_1Core_1_1PointCloud.html#a28a01328c4602562cb1901d6cc618635" target="_top" xlink:title="Returns the axis&#45;aligned bounding box of a set of points. ">
<polygon fill="white" stroke="black" points="206,-39 206,-69 316,-69 316,-39 206,-39"/>
<text text-anchor="start" x="214" y="-57" font-family="Helvetica,sans-Serif" font-size="10.00">Ra::Core::PointCloud</text>
<text text-anchor="middle" x="261" y="-46" font-family="Helvetica,sans-Serif" font-size="10.00">::aabb</text>
</a>
</g>
</g>
<!-- Node1&#45;&gt;Node3 -->
<g id="edge2" class="edge"><title>Node1&#45;&gt;Node3</title>
<path fill="none" stroke="midnightblue" d="M169.687,-54C178.353,-54 187.062,-54 195.471,-54"/>
<polygon fill="midnightblue" stroke="midnightblue" points="195.555,-57.5001 205.555,-54 195.555,-50.5001 195.555,-57.5001"/>
</g>
<!-- Node5 -->
<g id="node5" class="node"><title>Node5</title>
<g id="a_node5"><a xlink:href="namespaceRa_1_1Core.html#af9c95ef912df10ab515a6aa1e1d596e6" target="_top" xlink:title="Ra::Core::fromV3">
<polygon fill="white" stroke="black" points="214,-0.5 214,-19.5 308,-19.5 308,-0.5 214,-0.5"/>
<text text-anchor="middle" x="261" y="-7.5" font-family="Helvetica,sans-Serif" font-size="10.00">Ra::Core::fromV3</text>
</a>
</g>
</g>
<!-- Node1&#45;&gt;Node5 -->
<g id="edge4" class="edge"><title>Node1&#45;&gt;Node5</title>
<path fill="none" stroke="midnightblue" d="M123.755,-44.4527C149.749,-37.8796 184.487,-29.0952 212.38,-22.0417"/>
<polygon fill="midnightblue" stroke="midnightblue" points="213.482,-25.3735 222.318,-19.5287 211.765,-18.5872 213.482,-25.3735"/>
</g>
<!-- Node4 -->
<g id="node4" class="node"><title>Node4</title>
<g id="a_node4"><a xlink:href="classRa_1_1Core_1_1VectorArray.html#a33438b558d38baf22e7975d26b5c61ca" target="_top" xlink:title="Returns the array as an Eigen Matrix Map. ">
<polygon fill="white" stroke="black" points="352,-39 352,-69 466,-69 466,-39 352,-39"/>
<text text-anchor="start" x="360" y="-57" font-family="Helvetica,sans-Serif" font-size="10.00">Ra::Core::VectorArray</text>
<text text-anchor="middle" x="409" y="-46" font-family="Helvetica,sans-Serif" font-size="10.00">::getMap</text>
</a>
</g>
</g>
<!-- Node3&#45;&gt;Node4 -->
<g id="edge3" class="edge"><title>Node3&#45;&gt;Node4</title>
<path fill="none" stroke="midnightblue" d="M316.365,-54C324.55,-54 333.069,-54 341.474,-54"/>
<polygon fill="midnightblue" stroke="midnightblue" points="341.637,-57.5001 351.637,-54 341.637,-50.5001 341.637,-57.5001"/>
</g>
</g>
</svg>
