<?xml version="1.0" encoding="UTF-8" standalone="no"?>
<!DOCTYPE svg PUBLIC "-//W3C//DTD SVG 1.1//EN"
 "http://www.w3.org/Graphics/SVG/1.1/DTD/svg11.dtd">
<!-- Generated by graphviz version 2.36.0 (20140111.2315)
 -->
<!-- Title: CameraManipPlugin::CameraManipPluginC::saveCamera Pages: 1 -->
<svg width="302pt" height="136pt"
 viewBox="0.00 0.00 302.00 136.00" xmlns="http://www.w3.org/2000/svg" xmlns:xlink="http://www.w3.org/1999/xlink">
<g id="graph0" class="graph" transform="scale(1 1) rotate(0) translate(4 132)">
<title>CameraManipPlugin::CameraManipPluginC::saveCamera</title>
<polygon fill="white" stroke="none" points="-4,4 -4,-132 298,-132 298,4 -4,4"/>
<!-- Node1 -->
<g id="node1" class="node"><title>Node1</title>
<polygon fill="#bfbfbf" stroke="black" points="0,-43.5 0,-84.5 118,-84.5 118,-43.5 0,-43.5"/>
<text text-anchor="start" x="8" y="-72.5" font-family="Helvetica,sans-Serif" font-size="10.00">CameraManipPlugin::</text>
<text text-anchor="start" x="8" y="-61.5" font-family="Helvetica,sans-Serif" font-size="10.00">CameraManipPluginC::</text>
<text text-anchor="middle" x="59" y="-50.5" font-family="Helvetica,sans-Serif" font-size="10.00">saveCamera</text>
</g>
<!-- Node2 -->
<g id="node2" class="node"><title>Node2</title>
<g id="a_node2"><a xlink:href="classRa_1_1Gui_1_1Viewer.html#a4c52ddd225ed6e8fe630a7b1ac4c138f" target="_top" xlink:title="Access to camera interface. ">
<polygon fill="white" stroke="black" points="154,-98 154,-128 294,-128 294,-98 154,-98"/>
<text text-anchor="start" x="162" y="-116" font-family="Helvetica,sans-Serif" font-size="10.00">Ra::Gui::Viewer::getCamera</text>
<text text-anchor="middle" x="224" y="-105" font-family="Helvetica,sans-Serif" font-size="10.00">Interface</text>
</a>
</g>
</g>
<!-- Node1&#45;&gt;Node2 -->
<g id="edge1" class="edge"><title>Node1&#45;&gt;Node2</title>
<path fill="none" stroke="midnightblue" d="M118.386,-81.5517C132.934,-85.9249 148.552,-90.62 163.168,-95.0138"/>
<polygon fill="midnightblue" stroke="midnightblue" points="162.517,-98.4727 173.101,-97.9998 164.532,-91.769 162.517,-98.4727"/>
</g>
<!-- Node3 -->
<g id="node3" class="node"><title>Node3</title>
<g id="a_node3"><a xlink:href="classRa_1_1Gui_1_1CameraInterface.html#a2ea6e39df7373ffead7afa626c8ac6d6" target="_top" xlink:title="Pointer access to the camera. ">
<polygon fill="white" stroke="black" points="159.5,-49 159.5,-79 288.5,-79 288.5,-49 159.5,-49"/>
<text text-anchor="start" x="167.5" y="-67" font-family="Helvetica,sans-Serif" font-size="10.00">Ra::Gui::CameraInterface</text>
<text text-anchor="middle" x="224" y="-56" font-family="Helvetica,sans-Serif" font-size="10.00">::getCamera</text>
</a>
</g>
</g>
<!-- Node1&#45;&gt;Node3 -->
<g id="edge2" class="edge"><title>Node1&#45;&gt;Node3</title>
<path fill="none" stroke="midnightblue" d="M118.386,-64C128.321,-64 138.754,-64 149.027,-64"/>
<polygon fill="midnightblue" stroke="midnightblue" points="149.222,-67.5001 159.222,-64 149.222,-60.5001 149.222,-67.5001"/>
</g>
<!-- Node4 -->
<g id="node4" class="node"><title>Node4</title>
<g id="a_node4"><a xlink:href="classRa_1_1Engine_1_1Camera.html#ab7995c83701d0186160eb02b176ecbac" target="_top" xlink:title="Return the projection type. ">
<polygon fill="white" stroke="black" points="171,-0 171,-30 277,-30 277,-0 171,-0"/>
<text text-anchor="start" x="179" y="-18" font-family="Helvetica,sans-Serif" font-size="10.00">Ra::Engine::Camera</text>
<text text-anchor="middle" x="224" y="-7" font-family="Helvetica,sans-Serif" font-size="10.00">::getType</text>
</a>
</g>
</g>
<!-- Node1&#45;&gt;Node4 -->
<g id="edge3" class="edge"><title>Node1&#45;&gt;Node4</title>
<path fill="none" stroke="midnightblue" d="M118.386,-46.4483C132.934,-42.0751 148.552,-37.38 163.168,-32.9862"/>
<polygon fill="midnightblue" stroke="midnightblue" points="164.532,-36.231 173.101,-30.0002 162.517,-29.5273 164.532,-36.231"/>
</g>
</g>
</svg>
