<?xml version="1.0" encoding="UTF-8" standalone="no"?>
<!DOCTYPE svg PUBLIC "-//W3C//DTD SVG 1.1//EN"
 "http://www.w3.org/Graphics/SVG/1.1/DTD/svg11.dtd">
<!-- Generated by graphviz version 2.36.0 (20140111.2315)
 -->
<!-- Title: Ra::Gui::ScaleGizmo::mouseMove Pages: 1 -->
<svg width="712pt" height="351pt"
 viewBox="0.00 0.00 712.00 351.00" xmlns="http://www.w3.org/2000/svg" xmlns:xlink="http://www.w3.org/1999/xlink">
<g id="graph0" class="graph" transform="scale(1 1) rotate(0) translate(4 347)">
<title>Ra::Gui::ScaleGizmo::mouseMove</title>
<polygon fill="white" stroke="none" points="-4,4 -4,-347 708,-347 708,4 -4,4"/>
<!-- Node1 -->
<g id="node1" class="node"><title>Node1</title>
<polygon fill="#bfbfbf" stroke="black" points="0,-185 0,-215 110,-215 110,-185 0,-185"/>
<text text-anchor="start" x="8" y="-203" font-family="Helvetica,sans-Serif" font-size="10.00">Ra::Gui::ScaleGizmo</text>
<text text-anchor="middle" x="55" y="-192" font-family="Helvetica,sans-Serif" font-size="10.00">::mouseMove</text>
</g>
<!-- Node2 -->
<g id="node2" class="node"><title>Node2</title>
<g id="a_node2"><a xlink:href="namespaceRa_1_1Gui.html#afe2329e48512356b2cce3d8add41c665" target="_top" xlink:title="Ra::Gui::isKeyPressed">
<polygon fill="white" stroke="black" points="152.5,-323.5 152.5,-342.5 269.5,-342.5 269.5,-323.5 152.5,-323.5"/>
<text text-anchor="middle" x="211" y="-330.5" font-family="Helvetica,sans-Serif" font-size="10.00">Ra::Gui::isKeyPressed</text>
</a>
</g>
</g>
<!-- Node1&#45;&gt;Node2 -->
<g id="edge1" class="edge"><title>Node1&#45;&gt;Node2</title>
<path fill="none" stroke="midnightblue" d="M63.7982,-215.008C77.2559,-239.432 107.173,-287.69 146,-314 148.919,-315.978 152.048,-317.754 155.296,-319.349"/>
<polygon fill="midnightblue" stroke="midnightblue" points="154.118,-322.652 164.688,-323.377 156.878,-316.219 154.118,-322.652"/>
</g>
<!-- Node3 -->
<g id="node3" class="node"><title>Node3</title>
<g id="a_node3"><a xlink:href="namespaceRa_1_1Core_1_1Colors.html#a975b73de86593a6e603f16f819b5acd1" target="_top" xlink:title="Ra::Core::Colors::Yellow">
<polygon fill="white" stroke="black" points="148,-285.5 148,-304.5 274,-304.5 274,-285.5 148,-285.5"/>
<text text-anchor="middle" x="211" y="-292.5" font-family="Helvetica,sans-Serif" font-size="10.00">Ra::Core::Colors::Yellow</text>
</a>
</g>
</g>
<!-- Node1&#45;&gt;Node3 -->
<g id="edge2" class="edge"><title>Node1&#45;&gt;Node3</title>
<path fill="none" stroke="midnightblue" d="M70.1724,-215.288C86.8029,-232.379 115.945,-259.779 146,-276 150.179,-278.255 154.659,-280.275 159.237,-282.078"/>
<polygon fill="midnightblue" stroke="midnightblue" points="158.113,-285.393 168.708,-285.477 160.478,-278.804 158.113,-285.393"/>
</g>
<!-- Node4 -->
<g id="node4" class="node"><title>Node4</title>
<g id="a_node4"><a xlink:href="namespaceRa_1_1Core_1_1Colors.html#a5106b4a3ae9cf36ed9f57b733062346c" target="_top" xlink:title="Ra::Core::Colors::Red">
<polygon fill="white" stroke="black" points="153.5,-247.5 153.5,-266.5 268.5,-266.5 268.5,-247.5 153.5,-247.5"/>
<text text-anchor="middle" x="211" y="-254.5" font-family="Helvetica,sans-Serif" font-size="10.00">Ra::Core::Colors::Red</text>
</a>
</g>
</g>
<!-- Node1&#45;&gt;Node4 -->
<g id="edge3" class="edge"><title>Node1&#45;&gt;Node4</title>
<path fill="none" stroke="midnightblue" d="M89.4136,-215.151C106.216,-222.502 127,-231.192 146,-238 152.305,-240.259 159.024,-242.466 165.649,-244.53"/>
<polygon fill="midnightblue" stroke="midnightblue" points="164.644,-247.882 175.229,-247.44 166.678,-241.184 164.644,-247.882"/>
</g>
<!-- Node5 -->
<g id="node5" class="node"><title>Node5</title>
<g id="a_node5"><a xlink:href="namespaceRa_1_1Core_1_1Colors.html#ac6dad1afb4fbb6af3fb605e380dfe34b" target="_top" xlink:title="Ra::Core::Colors::Green">
<polygon fill="white" stroke="black" points="149.5,-209.5 149.5,-228.5 272.5,-228.5 272.5,-209.5 149.5,-209.5"/>
<text text-anchor="middle" x="211" y="-216.5" font-family="Helvetica,sans-Serif" font-size="10.00">Ra::Core::Colors::Green</text>
</a>
</g>
</g>
<!-- Node1&#45;&gt;Node5 -->
<g id="edge4" class="edge"><title>Node1&#45;&gt;Node5</title>
<path fill="none" stroke="midnightblue" d="M110.295,-206.699C119.678,-207.856 129.556,-209.075 139.298,-210.277"/>
<polygon fill="midnightblue" stroke="midnightblue" points="139.022,-213.769 149.375,-211.52 139.879,-206.822 139.022,-213.769"/>
</g>
<!-- Node6 -->
<g id="node6" class="node"><title>Node6</title>
<g id="a_node6"><a xlink:href="namespaceRa_1_1Core_1_1Colors.html#a749b34eb900efbaade04345f6eea99db" target="_top" xlink:title="Ra::Core::Colors::Blue">
<polygon fill="white" stroke="black" points="153,-171.5 153,-190.5 269,-190.5 269,-171.5 153,-171.5"/>
<text text-anchor="middle" x="211" y="-178.5" font-family="Helvetica,sans-Serif" font-size="10.00">Ra::Core::Colors::Blue</text>
</a>
</g>
</g>
<!-- Node1&#45;&gt;Node6 -->
<g id="edge5" class="edge"><title>Node1&#45;&gt;Node6</title>
<path fill="none" stroke="midnightblue" d="M110.295,-193.301C120.729,-192.014 131.774,-190.651 142.565,-189.32"/>
<polygon fill="midnightblue" stroke="midnightblue" points="143.308,-192.755 152.804,-188.057 142.451,-185.808 143.308,-192.755"/>
</g>
<!-- Node7 -->
<g id="node7" class="node"><title>Node7</title>
<g id="a_node7"><a xlink:href="classRa_1_1Gui_1_1Gizmo.html#a59f612603ee6c129a563ee6829abbc63" target="_top" xlink:title="Ra::Gui::Gizmo::findPoint\lOnPlane">
<polygon fill="white" stroke="black" points="146.5,-122 146.5,-152 275.5,-152 275.5,-122 146.5,-122"/>
<text text-anchor="start" x="154.5" y="-140" font-family="Helvetica,sans-Serif" font-size="10.00">Ra::Gui::Gizmo::findPoint</text>
<text text-anchor="middle" x="211" y="-129" font-family="Helvetica,sans-Serif" font-size="10.00">OnPlane</text>
</a>
</g>
</g>
<!-- Node1&#45;&gt;Node7 -->
<g id="edge6" class="edge"><title>Node1&#45;&gt;Node7</title>
<path fill="none" stroke="midnightblue" d="M90.9559,-184.981C107.585,-177.903 127.773,-169.406 146,-162 151.042,-159.951 156.32,-157.839 161.589,-155.75"/>
<polygon fill="midnightblue" stroke="midnightblue" points="162.992,-158.959 171.012,-152.035 160.425,-152.447 162.992,-158.959"/>
</g>
<!-- Node14 -->
<g id="node14" class="node"><title>Node14</title>
<g id="a_node14"><a xlink:href="classRa_1_1Gui_1_1Gizmo.html#a9f381cac5f535c0f66b04f02856f057d" target="_top" xlink:title="Ra::Gui::Gizmo::findPoint\lOnAxis">
<polygon fill="white" stroke="black" points="146.5,-73 146.5,-103 275.5,-103 275.5,-73 146.5,-73"/>
<text text-anchor="start" x="154.5" y="-91" font-family="Helvetica,sans-Serif" font-size="10.00">Ra::Gui::Gizmo::findPoint</text>
<text text-anchor="middle" x="211" y="-80" font-family="Helvetica,sans-Serif" font-size="10.00">OnAxis</text>
</a>
</g>
</g>
<!-- Node1&#45;&gt;Node14 -->
<g id="edge13" class="edge"><title>Node1&#45;&gt;Node14</title>
<path fill="none" stroke="midnightblue" d="M68.2683,-184.897C84.3798,-165.895 114.356,-133.302 146,-113 149.094,-111.015 152.37,-109.146 155.739,-107.393"/>
<polygon fill="midnightblue" stroke="midnightblue" points="157.323,-110.516 164.817,-103.027 154.289,-104.208 157.323,-110.516"/>
</g>
<!-- Node17 -->
<g id="node17" class="node"><title>Node17</title>
<g id="a_node17"><a xlink:href="namespaceRa_1_1Core_1_1QuaternionUtils.html#ae49b72169aa4a3cb300979b34c6e1289" target="_top" xlink:title="Returns the quaternion q multipled by a scalar factor of k. ">
<polygon fill="white" stroke="black" points="146,-24 146,-54 276,-54 276,-24 146,-24"/>
<text text-anchor="start" x="154" y="-42" font-family="Helvetica,sans-Serif" font-size="10.00">Ra::Core::QuaternionUtils</text>
<text text-anchor="middle" x="211" y="-31" font-family="Helvetica,sans-Serif" font-size="10.00">::scale</text>
</a>
</g>
</g>
<!-- Node1&#45;&gt;Node17 -->
<g id="edge18" class="edge"><title>Node1&#45;&gt;Node17</title>
<path fill="none" stroke="midnightblue" d="M62.0589,-184.989C74.0322,-157.117 103.314,-97.1083 146,-63 147.599,-61.7222 149.273,-60.5076 151.005,-59.3535"/>
<polygon fill="midnightblue" stroke="midnightblue" points="153.187,-62.1332 160.065,-54.0748 149.663,-56.0849 153.187,-62.1332"/>
</g>
<!-- Node8 -->
<g id="node8" class="node"><title>Node8</title>
<g id="a_node8"><a xlink:href="classRa_1_1Engine_1_1Camera.html#a2b584b5db1c28d168d1d2c12eacbee1e" target="_top" xlink:title="Return a ray emanating from the camera, passing by the point given by screen coordinates x and y...">
<polygon fill="white" stroke="black" points="312.5,-147 312.5,-177 419.5,-177 419.5,-147 312.5,-147"/>
<text text-anchor="start" x="320.5" y="-165" font-family="Helvetica,sans-Serif" font-size="10.00">Ra::Engine::Camera</text>
<text text-anchor="middle" x="366" y="-154" font-family="Helvetica,sans-Serif" font-size="10.00">::getRayFromScreen</text>
</a>
</g>
</g>
<!-- Node7&#45;&gt;Node8 -->
<g id="edge7" class="edge"><title>Node7&#45;&gt;Node8</title>
<path fill="none" stroke="midnightblue" d="M275.557,-147.385C284.29,-148.812 293.256,-150.277 301.98,-151.703"/>
<polygon fill="midnightblue" stroke="midnightblue" points="301.648,-155.195 312.082,-153.353 302.777,-148.286 301.648,-155.195"/>
</g>
<!-- Node12 -->
<g id="node12" class="node"><title>Node12</title>
<g id="a_node12"><a xlink:href="namespaceRa_1_1Core_1_1RayCast.html#a3aa002fc151cea24ec8d9b3f5f5dfb76" target="_top" xlink:title="Intersect a ray with an infinite plane defined by point A and normal. ">
<polygon fill="white" stroke="black" points="312.5,-98 312.5,-128 419.5,-128 419.5,-98 312.5,-98"/>
<text text-anchor="start" x="320.5" y="-116" font-family="Helvetica,sans-Serif" font-size="10.00">Ra::Core::RayCast::</text>
<text text-anchor="middle" x="366" y="-105" font-family="Helvetica,sans-Serif" font-size="10.00">vsPlane</text>
</a>
</g>
</g>
<!-- Node7&#45;&gt;Node12 -->
<g id="edge11" class="edge"><title>Node7&#45;&gt;Node12</title>
<path fill="none" stroke="midnightblue" d="M275.557,-127.03C284.29,-125.66 293.256,-124.254 301.98,-122.886"/>
<polygon fill="midnightblue" stroke="midnightblue" points="302.745,-126.308 312.082,-121.301 301.66,-119.393 302.745,-126.308"/>
</g>
<!-- Node9 -->
<g id="node9" class="node"><title>Node9</title>
<g id="a_node9"><a xlink:href="classRa_1_1Engine_1_1Camera.html#a724a052e94817af7e602129467c8696f" target="_top" xlink:title="Return the position. ">
<polygon fill="white" stroke="black" points="456,-144 456,-174 562,-174 562,-144 456,-144"/>
<text text-anchor="start" x="464" y="-162" font-family="Helvetica,sans-Serif" font-size="10.00">Ra::Engine::Camera</text>
<text text-anchor="middle" x="509" y="-151" font-family="Helvetica,sans-Serif" font-size="10.00">::getPosition</text>
</a>
</g>
</g>
<!-- Node8&#45;&gt;Node9 -->
<g id="edge8" class="edge"><title>Node8&#45;&gt;Node9</title>
<path fill="none" stroke="midnightblue" d="M419.503,-160.883C428.057,-160.701 436.99,-160.511 445.751,-160.324"/>
<polygon fill="midnightblue" stroke="midnightblue" points="445.999,-163.82 455.922,-160.108 445.85,-156.822 445.999,-163.82"/>
</g>
<!-- Node10 -->
<g id="node10" class="node"><title>Node10</title>
<g id="a_node10"><a xlink:href="classRa_1_1Engine_1_1Camera.html#ad1d6eb41b5e8d52cd2ddecf47f1b2053" target="_top" xlink:title="Return the point on the screen plane (near plane) represented by screen coordinates pix...">
<polygon fill="white" stroke="black" points="456,-193 456,-223 562,-223 562,-193 456,-193"/>
<text text-anchor="start" x="464" y="-211" font-family="Helvetica,sans-Serif" font-size="10.00">Ra::Engine::Camera</text>
<text text-anchor="middle" x="509" y="-200" font-family="Helvetica,sans-Serif" font-size="10.00">::unProject</text>
</a>
</g>
</g>
<!-- Node8&#45;&gt;Node10 -->
<g id="edge9" class="edge"><title>Node8&#45;&gt;Node10</title>
<path fill="none" stroke="midnightblue" d="M413.169,-177.062C425.585,-181.113 439.149,-185.538 452.035,-189.742"/>
<polygon fill="midnightblue" stroke="midnightblue" points="451.135,-193.13 461.728,-192.904 453.306,-186.475 451.135,-193.13"/>
</g>
<!-- Node11 -->
<g id="node11" class="node"><title>Node11</title>
<g id="a_node11"><a xlink:href="classRa_1_1Engine_1_1Camera.html#adb545a4a1f889d63ce4fc9a41cdeef2a" target="_top" xlink:title="Return the projection matrix. ">
<polygon fill="white" stroke="black" points="598,-193 598,-223 704,-223 704,-193 598,-193"/>
<text text-anchor="start" x="606" y="-211" font-family="Helvetica,sans-Serif" font-size="10.00">Ra::Engine::Camera</text>
<text text-anchor="middle" x="651" y="-200" font-family="Helvetica,sans-Serif" font-size="10.00">::getProjMatrix</text>
</a>
</g>
</g>
<!-- Node10&#45;&gt;Node11 -->
<g id="edge10" class="edge"><title>Node10&#45;&gt;Node11</title>
<path fill="none" stroke="midnightblue" d="M562.131,-208C570.421,-208 579.07,-208 587.568,-208"/>
<polygon fill="midnightblue" stroke="midnightblue" points="587.826,-211.5 597.826,-208 587.826,-204.5 587.826,-211.5"/>
</g>
<!-- Node13 -->
<g id="node13" class="node"><title>Node13</title>
<g id="a_node13"><a xlink:href="namespaceOpenMesh.html#a575b338f0fc9ecb5393d23e977e6ac38" target="_top" xlink:title="OpenMesh::dot">
<polygon fill="white" stroke="black" points="467.5,-103.5 467.5,-122.5 550.5,-122.5 550.5,-103.5 467.5,-103.5"/>
<text text-anchor="middle" x="509" y="-110.5" font-family="Helvetica,sans-Serif" font-size="10.00">OpenMesh::dot</text>
</a>
</g>
</g>
<!-- Node12&#45;&gt;Node13 -->
<g id="edge12" class="edge"><title>Node12&#45;&gt;Node13</title>
<path fill="none" stroke="midnightblue" d="M419.503,-113C431.86,-113 445.006,-113 457.282,-113"/>
<polygon fill="midnightblue" stroke="midnightblue" points="457.353,-116.5 467.353,-113 457.353,-109.5 457.353,-116.5"/>
</g>
<!-- Node14&#45;&gt;Node8 -->
<g id="edge16" class="edge"><title>Node14&#45;&gt;Node8</title>
<path fill="none" stroke="midnightblue" d="M254.233,-103.002C261.613,-106.043 269.123,-109.418 276,-113 293.055,-121.883 295.259,-127.539 312,-137 315.247,-138.835 318.65,-140.657 322.099,-142.432"/>
<polygon fill="midnightblue" stroke="midnightblue" points="320.747,-145.669 331.258,-146.998 323.87,-139.404 320.747,-145.669"/>
</g>
<!-- Node14&#45;&gt;Node12 -->
<g id="edge17" class="edge"><title>Node14&#45;&gt;Node12</title>
<path fill="none" stroke="midnightblue" d="M275.557,-98.3851C284.29,-99.8121 293.256,-101.277 301.98,-102.703"/>
<polygon fill="midnightblue" stroke="midnightblue" points="301.648,-106.195 312.082,-104.353 302.777,-99.2863 301.648,-106.195"/>
</g>
<!-- Node15 -->
<g id="node15" class="node"><title>Node15</title>
<g id="a_node15"><a xlink:href="classRa_1_1Engine_1_1Camera.html#a23be7aa714c0e9c2a9429dfc9ef2c53a" target="_top" xlink:title="Return the direction the camera is looking at. ">
<polygon fill="white" stroke="black" points="313,-49 313,-79 419,-79 419,-49 313,-49"/>
<text text-anchor="start" x="321" y="-67" font-family="Helvetica,sans-Serif" font-size="10.00">Ra::Engine::Camera</text>
<text text-anchor="middle" x="366" y="-56" font-family="Helvetica,sans-Serif" font-size="10.00">::getDirection</text>
</a>
</g>
</g>
<!-- Node14&#45;&gt;Node15 -->
<g id="edge14" class="edge"><title>Node14&#45;&gt;Node15</title>
<path fill="none" stroke="midnightblue" d="M275.557,-78.0303C284.504,-76.6267 293.696,-75.185 302.621,-73.7849"/>
<polygon fill="midnightblue" stroke="midnightblue" points="303.222,-77.2336 312.558,-72.2261 302.137,-70.3182 303.222,-77.2336"/>
</g>
<!-- Node16 -->
<g id="node16" class="node"><title>Node16</title>
<g id="a_node16"><a xlink:href="classRa_1_1Engine_1_1Camera.html#adfc7c573c5cedb70aadd8afd8274253b" target="_top" xlink:title="Return the up vector. ">
<polygon fill="white" stroke="black" points="313,-0 313,-30 419,-30 419,-0 313,-0"/>
<text text-anchor="start" x="321" y="-18" font-family="Helvetica,sans-Serif" font-size="10.00">Ra::Engine::Camera</text>
<text text-anchor="middle" x="366" y="-7" font-family="Helvetica,sans-Serif" font-size="10.00">::getUpVector</text>
</a>
</g>
</g>
<!-- Node14&#45;&gt;Node16 -->
<g id="edge15" class="edge"><title>Node14&#45;&gt;Node16</title>
<path fill="none" stroke="midnightblue" d="M254.233,-72.9983C261.613,-69.9565 269.123,-66.5819 276,-63 293.055,-54.1167 295.186,-48.3304 312,-39 314.695,-37.5044 317.501,-36.0244 320.353,-34.5774"/>
<polygon fill="midnightblue" stroke="midnightblue" points="322.089,-37.6246 329.537,-30.0901 319.016,-31.3351 322.089,-37.6246"/>
</g>
</g>
</svg>
