<?xml version="1.0" encoding="UTF-8" standalone="no"?>
<!DOCTYPE svg PUBLIC "-//W3C//DTD SVG 1.1//EN"
 "http://www.w3.org/Graphics/SVG/1.1/DTD/svg11.dtd">
<!-- Generated by graphviz version 2.36.0 (20140111.2315)
 -->
<!-- Title: Ra::Engine::Component::Component Pages: 1 -->
<svg width="422pt" height="136pt"
 viewBox="0.00 0.00 422.00 136.00" xmlns="http://www.w3.org/2000/svg" xmlns:xlink="http://www.w3.org/1999/xlink">
<g id="graph0" class="graph" transform="scale(1 1) rotate(0) translate(4 132)">
<title>Ra::Engine::Component::Component</title>
<polygon fill="white" stroke="none" points="-4,4 -4,-132 418,-132 418,4 -4,4"/>
<!-- Node1 -->
<g id="node1" class="node"><title>Node1</title>
<polygon fill="#bfbfbf" stroke="black" points="0,-49 0,-79 122,-79 122,-49 0,-49"/>
<text text-anchor="start" x="8" y="-67" font-family="Helvetica,sans-Serif" font-size="10.00">Ra::Engine::Component</text>
<text text-anchor="middle" x="61" y="-56" font-family="Helvetica,sans-Serif" font-size="10.00">::Component</text>
</g>
<!-- Node2 -->
<g id="node2" class="node"><title>Node2</title>
<g id="a_node2"><a xlink:href="classRa_1_1Engine_1_1Entity.html#a9a12371846a981467ab64e304b213992" target="_top" xlink:title="Add a component to the given entity. Component ownership is transfered to the entity. ">
<polygon fill="white" stroke="black" points="158.5,-49 158.5,-79 255.5,-79 255.5,-49 158.5,-49"/>
<text text-anchor="start" x="166.5" y="-67" font-family="Helvetica,sans-Serif" font-size="10.00">Ra::Engine::Entity</text>
<text text-anchor="middle" x="207" y="-56" font-family="Helvetica,sans-Serif" font-size="10.00">::addComponent</text>
</a>
</g>
</g>
<!-- Node1&#45;&gt;Node2 -->
<g id="edge1" class="edge"><title>Node1&#45;&gt;Node2</title>
<path fill="none" stroke="midnightblue" d="M122.235,-64C130.782,-64 139.557,-64 148.06,-64"/>
<polygon fill="midnightblue" stroke="midnightblue" points="148.263,-67.5001 158.263,-64 148.263,-60.5001 148.263,-67.5001"/>
</g>
<!-- Node3 -->
<g id="node3" class="node"><title>Node3</title>
<g id="a_node3"><a xlink:href="classRa_1_1Engine_1_1Entity.html#a524712805170bfce52ed0a98f7eee436" target="_top" xlink:title="Get component with a given name. ">
<polygon fill="white" stroke="black" points="304.5,-98 304.5,-128 401.5,-128 401.5,-98 304.5,-98"/>
<text text-anchor="start" x="312.5" y="-116" font-family="Helvetica,sans-Serif" font-size="10.00">Ra::Engine::Entity</text>
<text text-anchor="middle" x="353" y="-105" font-family="Helvetica,sans-Serif" font-size="10.00">::getComponent</text>
</a>
</g>
</g>
<!-- Node2&#45;&gt;Node3 -->
<g id="edge2" class="edge"><title>Node2&#45;&gt;Node3</title>
<path fill="none" stroke="midnightblue" d="M252.38,-79.1014C266.751,-83.9917 282.853,-89.4707 297.851,-94.5744"/>
<polygon fill="midnightblue" stroke="midnightblue" points="296.924,-97.9561 307.519,-97.8641 299.179,-91.3292 296.924,-97.9561"/>
</g>
<!-- Node4 -->
<g id="node4" class="node"><title>Node4</title>
<g id="a_node4"><a xlink:href="classRa_1_1Engine_1_1Component.html#aa3e5cb90432a9a49e4362b673652ff76" target="_top" xlink:title="Return the component&#39;s name. ">
<polygon fill="white" stroke="black" points="292,-49 292,-79 414,-79 414,-49 292,-49"/>
<text text-anchor="start" x="300" y="-67" font-family="Helvetica,sans-Serif" font-size="10.00">Ra::Engine::Component</text>
<text text-anchor="middle" x="353" y="-56" font-family="Helvetica,sans-Serif" font-size="10.00">::getName</text>
</a>
</g>
</g>
<!-- Node2&#45;&gt;Node4 -->
<g id="edge3" class="edge"><title>Node2&#45;&gt;Node4</title>
<path fill="none" stroke="midnightblue" d="M255.55,-64C264.002,-64 272.964,-64 281.888,-64"/>
<polygon fill="midnightblue" stroke="midnightblue" points="281.917,-67.5001 291.917,-64 281.917,-60.5001 281.917,-67.5001"/>
</g>
<!-- Node5 -->
<g id="node5" class="node"><title>Node5</title>
<g id="a_node5"><a xlink:href="classRa_1_1Engine_1_1Component.html#a63b26ba33a78358bfa5747f85015c932" target="_top" xlink:title="Set entity the component is part of. ">
<polygon fill="white" stroke="black" points="292,-0 292,-30 414,-30 414,-0 292,-0"/>
<text text-anchor="start" x="300" y="-18" font-family="Helvetica,sans-Serif" font-size="10.00">Ra::Engine::Component</text>
<text text-anchor="middle" x="353" y="-7" font-family="Helvetica,sans-Serif" font-size="10.00">::setEntity</text>
</a>
</g>
</g>
<!-- Node2&#45;&gt;Node5 -->
<g id="edge4" class="edge"><title>Node2&#45;&gt;Node5</title>
<path fill="none" stroke="midnightblue" d="M252.38,-48.8986C266.751,-44.0083 282.853,-38.5293 297.851,-33.4256"/>
<polygon fill="midnightblue" stroke="midnightblue" points="299.179,-36.6708 307.519,-30.1359 296.924,-30.0439 299.179,-36.6708"/>
</g>
</g>
</svg>
