<?xml version="1.0" encoding="UTF-8" standalone="no"?>
<!DOCTYPE svg PUBLIC "-//W3C//DTD SVG 1.1//EN"
 "http://www.w3.org/Graphics/SVG/1.1/DTD/svg11.dtd">
<!-- Generated by graphviz version 2.36.0 (20140111.2315)
 -->
<!-- Title: FILELog Pages: 1 -->
<svg width="190pt" height="894pt"
 viewBox="0.00 0.00 190.00 894.00" xmlns="http://www.w3.org/2000/svg" xmlns:xlink="http://www.w3.org/1999/xlink">
<g id="graph0" class="graph" transform="scale(1 1) rotate(0) translate(4 890)">
<title>FILELog</title>
<polygon fill="white" stroke="none" points="-4,4 -4,-890 186,-890 186,4 -4,4"/>
<!-- Node1 -->
<g id="node1" class="node"><title>Node1</title>
<polygon fill="#bfbfbf" stroke="black" points="48.5,-0.5 48.5,-57.5 101.5,-57.5 101.5,-0.5 48.5,-0.5"/>
<text text-anchor="middle" x="75" y="-45.5" font-family="Helvetica,sans-Serif" font-size="10.00">FILELog</text>
<polyline fill="none" stroke="black" points="48.5,-38.5 101.5,-38.5 "/>
<text text-anchor="middle" x="75" y="-26.5" font-family="Helvetica,sans-Serif" font-size="10.00"> </text>
<polyline fill="none" stroke="black" points="48.5,-19.5 101.5,-19.5 "/>
<text text-anchor="middle" x="75" y="-7.5" font-family="Helvetica,sans-Serif" font-size="10.00"> </text>
</g>
<!-- Node2 -->
<g id="node2" class="node"><title>Node2</title>
<g id="a_node2"><a xlink:href="classLog.html" target="_top" xlink:title="{Log\&lt; Output2FILE \&gt;\n||+ Log()\l+ ~Log()\l+ Get()\l+ ReportingLevel()\l+ ToString()\l+ FromString()\l}">
<polygon fill="white" stroke="black" points="22,-97 22,-209 128,-209 128,-97 22,-97"/>
<text text-anchor="middle" x="75" y="-197" font-family="Helvetica,sans-Serif" font-size="10.00">Log&lt; Output2FILE &gt;</text>
<polyline fill="none" stroke="black" points="22,-190 128,-190 "/>
<text text-anchor="middle" x="75" y="-178" font-family="Helvetica,sans-Serif" font-size="10.00"> </text>
<polyline fill="none" stroke="black" points="22,-171 128,-171 "/>
<text text-anchor="start" x="30" y="-159" font-family="Helvetica,sans-Serif" font-size="10.00">+ Log()</text>
<text text-anchor="start" x="30" y="-148" font-family="Helvetica,sans-Serif" font-size="10.00">+ ~Log()</text>
<text text-anchor="start" x="30" y="-137" font-family="Helvetica,sans-Serif" font-size="10.00">+ Get()</text>
<text text-anchor="start" x="30" y="-126" font-family="Helvetica,sans-Serif" font-size="10.00">+ ReportingLevel()</text>
<text text-anchor="start" x="30" y="-115" font-family="Helvetica,sans-Serif" font-size="10.00">+ ToString()</text>
<text text-anchor="start" x="30" y="-104" font-family="Helvetica,sans-Serif" font-size="10.00">+ FromString()</text>
</a>
</g>
</g>
<!-- Node2&#45;&gt;Node1 -->
<g id="edge1" class="edge"><title>Node2&#45;&gt;Node1</title>
<path fill="none" stroke="midnightblue" d="M75,-86.5636C75,-76.429 75,-66.4584 75,-57.7791"/>
<polygon fill="none" stroke="midnightblue" points="71.5001,-86.7113 75,-96.7113 78.5001,-86.7113 71.5001,-86.7113"/>
</g>
<!-- Node3 -->
<g id="node3" class="node"><title>Node3</title>
<g id="a_node3"><a xlink:title="STL class. ">
<polygon fill="white" stroke="#bfbfbf" points="14.5,-420.5 14.5,-477.5 109.5,-477.5 109.5,-420.5 14.5,-420.5"/>
<text text-anchor="middle" x="62" y="-465.5" font-family="Helvetica,sans-Serif" font-size="10.00">std::ostringstream</text>
<polyline fill="none" stroke="#bfbfbf" points="14.5,-458.5 109.5,-458.5 "/>
<text text-anchor="middle" x="62" y="-446.5" font-family="Helvetica,sans-Serif" font-size="10.00"> </text>
<polyline fill="none" stroke="#bfbfbf" points="14.5,-439.5 109.5,-439.5 "/>
<text text-anchor="middle" x="62" y="-427.5" font-family="Helvetica,sans-Serif" font-size="10.00"> </text>
</a>
</g>
</g>
<!-- Node3&#45;&gt;Node2 -->
<g id="edge2" class="edge"><title>Node3&#45;&gt;Node2</title>
<path fill="none" stroke="#404040" d="M59.2803,-420.236C58.0056,-405.856 56.6307,-388.003 56,-372 54.0047,-321.373 51.4285,-308.46 56,-258 57.0868,-246.004 58.865,-233.324 60.9086,-221.099"/>
<polygon fill="none" stroke="#404040" points="60.9459,-220.887 58.046,-214.284 63.025,-209.068 65.925,-215.67 60.9459,-220.887"/>
<text text-anchor="middle" x="65.5" y="-312.5" font-family="Helvetica,sans-Serif" font-size="10.00"> #os</text>
</g>
<!-- Node8 -->
<g id="node8" class="node"><title>Node8</title>
<g id="a_node8"><a xlink:href="classLog.html" target="_top" xlink:title="{Log\&lt; T \&gt;\n||+ Log()\l+ ~Log()\l+ Get()\l+ ReportingLevel()\l+ ToString()\l+ FromString()\l}">
<polygon fill="white" stroke="black" points="83.5,-259 83.5,-371 180.5,-371 180.5,-259 83.5,-259"/>
<text text-anchor="middle" x="132" y="-359" font-family="Helvetica,sans-Serif" font-size="10.00">Log&lt; T &gt;</text>
<polyline fill="none" stroke="black" points="83.5,-352 180.5,-352 "/>
<text text-anchor="middle" x="132" y="-340" font-family="Helvetica,sans-Serif" font-size="10.00"> </text>
<polyline fill="none" stroke="black" points="83.5,-333 180.5,-333 "/>
<text text-anchor="start" x="91.5" y="-321" font-family="Helvetica,sans-Serif" font-size="10.00">+ Log()</text>
<text text-anchor="start" x="91.5" y="-310" font-family="Helvetica,sans-Serif" font-size="10.00">+ ~Log()</text>
<text text-anchor="start" x="91.5" y="-299" font-family="Helvetica,sans-Serif" font-size="10.00">+ Get()</text>
<text text-anchor="start" x="91.5" y="-288" font-family="Helvetica,sans-Serif" font-size="10.00">+ ReportingLevel()</text>
<text text-anchor="start" x="91.5" y="-277" font-family="Helvetica,sans-Serif" font-size="10.00">+ ToString()</text>
<text text-anchor="start" x="91.5" y="-266" font-family="Helvetica,sans-Serif" font-size="10.00">+ FromString()</text>
</a>
</g>
</g>
<!-- Node3&#45;&gt;Node8 -->
<g id="edge8" class="edge"><title>Node3&#45;&gt;Node8</title>
<path fill="none" stroke="#404040" d="M76.6743,-420.328C82.6531,-409.054 89.8428,-395.496 97.0308,-381.942"/>
<polygon fill="none" stroke="#404040" points="97.1498,-381.717 96.427,-374.543 102.772,-371.116 103.495,-378.291 97.1498,-381.717"/>
<text text-anchor="middle" x="100.5" y="-393.5" font-family="Helvetica,sans-Serif" font-size="10.00"> #os</text>
</g>
<!-- Node4 -->
<g id="node4" class="node"><title>Node4</title>
<g id="a_node4"><a xlink:title="STL class. ">
<polygon fill="white" stroke="#bfbfbf" points="0,-517 0,-585 124,-585 124,-517 0,-517"/>
<text text-anchor="start" x="8" y="-573" font-family="Helvetica,sans-Serif" font-size="10.00">std::basic_ostringstream</text>
<text text-anchor="middle" x="62" y="-562" font-family="Helvetica,sans-Serif" font-size="10.00">&lt; char &gt;</text>
<polyline fill="none" stroke="#bfbfbf" points="0,-555 124,-555 "/>
<text text-anchor="middle" x="62" y="-543" font-family="Helvetica,sans-Serif" font-size="10.00"> </text>
<polyline fill="none" stroke="#bfbfbf" points="0,-536 124,-536 "/>
<text text-anchor="middle" x="62" y="-524" font-family="Helvetica,sans-Serif" font-size="10.00"> </text>
</a>
</g>
</g>
<!-- Node4&#45;&gt;Node3 -->
<g id="edge3" class="edge"><title>Node4&#45;&gt;Node3</title>
<path fill="none" stroke="midnightblue" d="M62,-506.857C62,-496.952 62,-486.682 62,-477.64"/>
<polygon fill="none" stroke="midnightblue" points="58.5001,-506.979 62,-516.979 65.5001,-506.979 58.5001,-506.979"/>
</g>
<!-- Node5 -->
<g id="node5" class="node"><title>Node5</title>
<g id="a_node5"><a xlink:title="STL class. ">
<polygon fill="white" stroke="#bfbfbf" points="12,-625 12,-693 112,-693 112,-625 12,-625"/>
<text text-anchor="start" x="20" y="-681" font-family="Helvetica,sans-Serif" font-size="10.00">std::basic_ostream</text>
<text text-anchor="middle" x="62" y="-670" font-family="Helvetica,sans-Serif" font-size="10.00">&lt; Char &gt;</text>
<polyline fill="none" stroke="#bfbfbf" points="12,-663 112,-663 "/>
<text text-anchor="middle" x="62" y="-651" font-family="Helvetica,sans-Serif" font-size="10.00"> </text>
<polyline fill="none" stroke="#bfbfbf" points="12,-644 112,-644 "/>
<text text-anchor="middle" x="62" y="-632" font-family="Helvetica,sans-Serif" font-size="10.00"> </text>
</a>
</g>
</g>
<!-- Node5&#45;&gt;Node4 -->
<g id="edge4" class="edge"><title>Node5&#45;&gt;Node4</title>
<path fill="none" stroke="midnightblue" d="M62,-614.696C62,-604.828 62,-594.495 62,-585.13"/>
<polygon fill="none" stroke="midnightblue" points="58.5001,-614.752 62,-624.752 65.5001,-614.752 58.5001,-614.752"/>
</g>
<!-- Node6 -->
<g id="node6" class="node"><title>Node6</title>
<g id="a_node6"><a xlink:title="STL class. ">
<polygon fill="white" stroke="#bfbfbf" points="4,-732.5 4,-789.5 120,-789.5 120,-732.5 4,-732.5"/>
<text text-anchor="middle" x="62" y="-777.5" font-family="Helvetica,sans-Serif" font-size="10.00">std::basic_ios&lt; Char &gt;</text>
<polyline fill="none" stroke="#bfbfbf" points="4,-770.5 120,-770.5 "/>
<text text-anchor="middle" x="62" y="-758.5" font-family="Helvetica,sans-Serif" font-size="10.00"> </text>
<polyline fill="none" stroke="#bfbfbf" points="4,-751.5 120,-751.5 "/>
<text text-anchor="middle" x="62" y="-739.5" font-family="Helvetica,sans-Serif" font-size="10.00"> </text>
</a>
</g>
</g>
<!-- Node6&#45;&gt;Node5 -->
<g id="edge5" class="edge"><title>Node6&#45;&gt;Node5</title>
<path fill="none" stroke="midnightblue" d="M62,-722.337C62,-712.755 62,-702.528 62,-693.187"/>
<polygon fill="none" stroke="midnightblue" points="58.5001,-722.41 62,-732.41 65.5001,-722.41 58.5001,-722.41"/>
</g>
<!-- Node7 -->
<g id="node7" class="node"><title>Node7</title>
<g id="a_node7"><a xlink:title="STL class. ">
<polygon fill="white" stroke="#bfbfbf" points="24.5,-828.5 24.5,-885.5 99.5,-885.5 99.5,-828.5 24.5,-828.5"/>
<text text-anchor="middle" x="62" y="-873.5" font-family="Helvetica,sans-Serif" font-size="10.00">std::ios_base</text>
<polyline fill="none" stroke="#bfbfbf" points="24.5,-866.5 99.5,-866.5 "/>
<text text-anchor="middle" x="62" y="-854.5" font-family="Helvetica,sans-Serif" font-size="10.00"> </text>
<polyline fill="none" stroke="#bfbfbf" points="24.5,-847.5 99.5,-847.5 "/>
<text text-anchor="middle" x="62" y="-835.5" font-family="Helvetica,sans-Serif" font-size="10.00"> </text>
</a>
</g>
</g>
<!-- Node7&#45;&gt;Node6 -->
<g id="edge6" class="edge"><title>Node7&#45;&gt;Node6</title>
<path fill="none" stroke="midnightblue" d="M62,-818.277C62,-808.772 62,-798.741 62,-789.822"/>
<polygon fill="none" stroke="midnightblue" points="58.5001,-818.305 62,-828.305 65.5001,-818.305 58.5001,-818.305"/>
</g>
<!-- Node8&#45;&gt;Node2 -->
<g id="edge7" class="edge"><title>Node8&#45;&gt;Node2</title>
<path fill="none" stroke="orange" d="M108.972,-249.36C104.225,-236.034 99.2667,-222.117 94.6523,-209.164"/>
<polygon fill="orange" stroke="orange" points="105.731,-250.692 112.384,-258.937 112.325,-248.342 105.731,-250.692"/>
<text text-anchor="middle" x="143.5" y="-231.5" font-family="Helvetica,sans-Serif" font-size="10.00"> &lt; Output2FILE &gt;</text>
</g>
</g>
</svg>
