<?xml version="1.0" encoding="UTF-8" standalone="no"?>
<!DOCTYPE svg PUBLIC "-//W3C//DTD SVG 1.1//EN"
 "http://www.w3.org/Graphics/SVG/1.1/DTD/svg11.dtd">
<!-- Generated by graphviz version 2.36.0 (20140111.2315)
 -->
<!-- Title: Ra::Core::Geometry::Mapping::getCoord Pages: 1 -->
<svg width="406pt" height="97pt"
 viewBox="0.00 0.00 406.00 97.00" xmlns="http://www.w3.org/2000/svg" xmlns:xlink="http://www.w3.org/1999/xlink">
<g id="graph0" class="graph" transform="scale(1 1) rotate(0) translate(4 93)">
<title>Ra::Core::Geometry::Mapping::getCoord</title>
<polygon fill="white" stroke="none" points="-4,4 -4,-93 402,-93 402,4 -4,4"/>
<!-- Node1 -->
<g id="node1" class="node"><title>Node1</title>
<polygon fill="#bfbfbf" stroke="black" points="0.5,-25 0.5,-55 105.5,-55 105.5,-25 0.5,-25"/>
<text text-anchor="start" x="8.5" y="-43" font-family="Helvetica,sans-Serif" font-size="10.00">Ra::Core::Geometry</text>
<text text-anchor="middle" x="53" y="-32" font-family="Helvetica,sans-Serif" font-size="10.00">::Mapping::getCoord</text>
</g>
<!-- Node2 -->
<g id="node2" class="node"><title>Node2</title>
<g id="a_node2"><a xlink:href="classRa_1_1Core_1_1Geometry_1_1Mapping.html#a763871f983029ce49872c463a7e9a6d4" target="_top" xlink:title="BARYCENTRIC COORDINATE. ">
<polygon fill="white" stroke="black" points="292.5,-59 292.5,-89 397.5,-89 397.5,-59 292.5,-59"/>
<text text-anchor="start" x="300.5" y="-77" font-family="Helvetica,sans-Serif" font-size="10.00">Ra::Core::Geometry</text>
<text text-anchor="middle" x="345" y="-66" font-family="Helvetica,sans-Serif" font-size="10.00">::Mapping::getAlpha</text>
</a>
</g>
</g>
<!-- Node1&#45;&gt;Node2 -->
<g id="edge1" class="edge"><title>Node1&#45;&gt;Node2</title>
<path fill="none" stroke="midnightblue" d="M102.004,-55.1119C114.873,-58.6061 128.863,-61.9089 142,-64 188.573,-71.4136 241.878,-73.8007 282.032,-74.3949"/>
<polygon fill="midnightblue" stroke="midnightblue" points="282.167,-77.8966 292.206,-74.5115 282.247,-70.8971 282.167,-77.8966"/>
</g>
<!-- Node3 -->
<g id="node3" class="node"><title>Node3</title>
<g id="a_node3"><a xlink:href="classRa_1_1Core_1_1Geometry_1_1Mapping.html#a8d49ef820cb4bc114f9d044b634e546e" target="_top" xlink:title="Ra::Core::Geometry\l::Mapping::getBeta">
<polygon fill="white" stroke="black" points="292.5,-0 292.5,-30 397.5,-30 397.5,-0 292.5,-0"/>
<text text-anchor="start" x="300.5" y="-18" font-family="Helvetica,sans-Serif" font-size="10.00">Ra::Core::Geometry</text>
<text text-anchor="middle" x="345" y="-7" font-family="Helvetica,sans-Serif" font-size="10.00">::Mapping::getBeta</text>
</a>
</g>
</g>
<!-- Node1&#45;&gt;Node3 -->
<g id="edge2" class="edge"><title>Node1&#45;&gt;Node3</title>
<path fill="none" stroke="midnightblue" d="M97.8044,-24.9792C111.757,-20.8942 127.371,-17.0377 142,-15 188.651,-8.50202 241.952,-8.82228 282.085,-10.5951"/>
<polygon fill="midnightblue" stroke="midnightblue" points="282.096,-14.0996 292.253,-11.0875 282.434,-7.10778 282.096,-14.0996"/>
</g>
<!-- Node4 -->
<g id="node4" class="node"><title>Node4</title>
<g id="a_node4"><a xlink:href="classRa_1_1Core_1_1Geometry_1_1Mapping.html#aec7531b8e9481ce1814af6578687e725" target="_top" xlink:title="Ra::Core::Geometry\l::Mapping::getGamma">
<polygon fill="white" stroke="black" points="142.5,-25 142.5,-55 255.5,-55 255.5,-25 142.5,-25"/>
<text text-anchor="start" x="150.5" y="-43" font-family="Helvetica,sans-Serif" font-size="10.00">Ra::Core::Geometry</text>
<text text-anchor="middle" x="199" y="-32" font-family="Helvetica,sans-Serif" font-size="10.00">::Mapping::getGamma</text>
</a>
</g>
</g>
<!-- Node1&#45;&gt;Node4 -->
<g id="edge3" class="edge"><title>Node1&#45;&gt;Node4</title>
<path fill="none" stroke="midnightblue" d="M105.581,-40C114.259,-40 123.368,-40 132.345,-40"/>
<polygon fill="midnightblue" stroke="midnightblue" points="132.393,-43.5001 142.393,-40 132.393,-36.5001 132.393,-43.5001"/>
</g>
<!-- Node4&#45;&gt;Node2 -->
<g id="edge4" class="edge"><title>Node4&#45;&gt;Node2</title>
<path fill="none" stroke="midnightblue" d="M255.674,-53.1453C264.415,-55.209 273.494,-57.3527 282.359,-59.4459"/>
<polygon fill="midnightblue" stroke="midnightblue" points="281.711,-62.8891 292.248,-61.7808 283.32,-56.0764 281.711,-62.8891"/>
</g>
<!-- Node4&#45;&gt;Node3 -->
<g id="edge5" class="edge"><title>Node4&#45;&gt;Node3</title>
<path fill="none" stroke="midnightblue" d="M255.674,-30.3343C264.415,-28.8169 273.494,-27.2406 282.359,-25.7015"/>
<polygon fill="midnightblue" stroke="midnightblue" points="282.994,-29.1438 292.248,-23.9847 281.797,-22.2469 282.994,-29.1438"/>
</g>
</g>
</svg>
