<?xml version="1.0" encoding="UTF-8" standalone="no"?>
<!DOCTYPE svg PUBLIC "-//W3C//DTD SVG 1.1//EN"
 "http://www.w3.org/Graphics/SVG/1.1/DTD/svg11.dtd">
<!-- Generated by graphviz version 2.36.0 (20140111.2315)
 -->
<!-- Title: Ra::Core::TriangleMesh::removeAttrib Pages: 1 -->
<svg width="602pt" height="77pt"
 viewBox="0.00 0.00 602.00 77.00" xmlns="http://www.w3.org/2000/svg" xmlns:xlink="http://www.w3.org/1999/xlink">
<g id="graph0" class="graph" transform="scale(1 1) rotate(0) translate(4 73)">
<title>Ra::Core::TriangleMesh::removeAttrib</title>
<polygon fill="white" stroke="none" points="-4,4 -4,-73 598,-73 598,4 -4,4"/>
<!-- Node1 -->
<g id="node1" class="node"><title>Node1</title>
<polygon fill="#bfbfbf" stroke="black" points="0.5,-17 0.5,-47 121.5,-47 121.5,-17 0.5,-17"/>
<text text-anchor="start" x="8.5" y="-35" font-family="Helvetica,sans-Serif" font-size="10.00">Ra::Core::TriangleMesh</text>
<text text-anchor="middle" x="61" y="-24" font-family="Helvetica,sans-Serif" font-size="10.00">::removeAttrib</text>
</g>
<!-- Node2 -->
<g id="node2" class="node"><title>Node2</title>
<g id="a_node2"><a xlink:href="classRa_1_1Core_1_1AttribManager.html#a22afbf5c345b9b8bf3ee10cbab4e4fd8" target="_top" xlink:title="Remove attribute by handle, invalidates the handle. ">
<polygon fill="white" stroke="black" points="158.5,-17 158.5,-47 281.5,-47 281.5,-17 158.5,-17"/>
<text text-anchor="start" x="166.5" y="-35" font-family="Helvetica,sans-Serif" font-size="10.00">Ra::Core::AttribManager</text>
<text text-anchor="middle" x="220" y="-24" font-family="Helvetica,sans-Serif" font-size="10.00">::removeAttrib</text>
</a>
</g>
</g>
<!-- Node1&#45;&gt;Node2 -->
<g id="edge1" class="edge"><title>Node1&#45;&gt;Node2</title>
<path fill="none" stroke="midnightblue" d="M121.803,-32C130.398,-32 139.311,-32 148.096,-32"/>
<polygon fill="midnightblue" stroke="midnightblue" points="148.323,-35.5001 158.323,-32 148.322,-28.5001 148.323,-35.5001"/>
</g>
<!-- Node3 -->
<g id="node3" class="node"><title>Node3</title>
<g id="a_node3"><a xlink:href="classRa_1_1Core_1_1AttribManager.html#aaa6088620425c1e1d74b50f1b50eb596" target="_top" xlink:title="Get attribute by handle. ">
<polygon fill="white" stroke="black" points="318.5,-39 318.5,-69 441.5,-69 441.5,-39 318.5,-39"/>
<text text-anchor="start" x="326.5" y="-57" font-family="Helvetica,sans-Serif" font-size="10.00">Ra::Core::AttribManager</text>
<text text-anchor="middle" x="380" y="-46" font-family="Helvetica,sans-Serif" font-size="10.00">::getAttrib</text>
</a>
</g>
</g>
<!-- Node2&#45;&gt;Node3 -->
<g id="edge2" class="edge"><title>Node2&#45;&gt;Node3</title>
<path fill="none" stroke="midnightblue" d="M281.635,-40.4429C290.361,-41.6578 299.403,-42.9168 308.303,-44.1561"/>
<polygon fill="midnightblue" stroke="midnightblue" points="307.879,-47.6308 318.266,-45.5434 308.844,-40.6976 307.879,-47.6308"/>
</g>
<!-- Node4 -->
<g id="node4" class="node"><title>Node4</title>
<g id="a_node4"><a xlink:href="classRa_1_1Core_1_1Index.html#a16f988512f9ef442cc97b6bc4809ba45" target="_top" xlink:title="Ra::Core::Index::Invalid">
<polygon fill="white" stroke="black" points="319.5,-0.5 319.5,-19.5 440.5,-19.5 440.5,-0.5 319.5,-0.5"/>
<text text-anchor="middle" x="380" y="-7.5" font-family="Helvetica,sans-Serif" font-size="10.00">Ra::Core::Index::Invalid</text>
</a>
</g>
</g>
<!-- Node2&#45;&gt;Node4 -->
<g id="edge3" class="edge"><title>Node2&#45;&gt;Node4</title>
<path fill="none" stroke="midnightblue" d="M281.635,-23.5571C290.71,-22.2935 300.128,-20.9822 309.371,-19.6951"/>
<polygon fill="midnightblue" stroke="midnightblue" points="309.887,-23.1571 319.309,-18.3114 308.922,-16.224 309.887,-23.1571"/>
</g>
<!-- Node5 -->
<g id="node5" class="node"><title>Node5</title>
<g id="a_node5"><a xlink:href="classRa_1_1Core_1_1Index.html#af6afe563ad57a4ab82f3706987e684ef" target="_top" xlink:title="CONSTRUCTOR. ">
<polygon fill="white" stroke="black" points="478,-0.5 478,-19.5 594,-19.5 594,-0.5 478,-0.5"/>
<text text-anchor="middle" x="536" y="-7.5" font-family="Helvetica,sans-Serif" font-size="10.00">Ra::Core::Index::Index</text>
</a>
</g>
</g>
<!-- Node4&#45;&gt;Node5 -->
<g id="edge4" class="edge"><title>Node4&#45;&gt;Node5</title>
<path fill="none" stroke="midnightblue" d="M440.54,-10C449.457,-10 458.704,-10 467.767,-10"/>
<polygon fill="midnightblue" stroke="midnightblue" points="467.895,-13.5001 477.895,-10 467.895,-6.5001 467.895,-13.5001"/>
</g>
</g>
</svg>
