<?xml version="1.0" encoding="UTF-8" standalone="no"?>
<!DOCTYPE svg PUBLIC "-//W3C//DTD SVG 1.1//EN"
 "http://www.w3.org/Graphics/SVG/1.1/DTD/svg11.dtd">
<!-- Generated by graphviz version 2.36.0 (20140111.2315)
 -->
<!-- Title: Ra::GuiBase::ItemModel::removeItem Pages: 1 -->
<svg width="952pt" height="362pt"
 viewBox="0.00 0.00 952.00 361.65" xmlns="http://www.w3.org/2000/svg" xmlns:xlink="http://www.w3.org/1999/xlink">
<g id="graph0" class="graph" transform="scale(1 1) rotate(0) translate(4 357.655)">
<title>Ra::GuiBase::ItemModel::removeItem</title>
<polygon fill="white" stroke="none" points="-4,4 -4,-357.655 948,-357.655 948,4 -4,4"/>
<!-- Node1 -->
<g id="node1" class="node"><title>Node1</title>
<polygon fill="#bfbfbf" stroke="black" points="0.5,-98 0.5,-128 125.5,-128 125.5,-98 0.5,-98"/>
<text text-anchor="start" x="8.5" y="-116" font-family="Helvetica,sans-Serif" font-size="10.00">Ra::GuiBase::ItemModel</text>
<text text-anchor="middle" x="63" y="-105" font-family="Helvetica,sans-Serif" font-size="10.00">::removeItem</text>
</g>
<!-- Node2 -->
<g id="node2" class="node"><title>Node2</title>
<g id="a_node2"><a xlink:href="classRa_1_1GuiBase_1_1ItemModel.html#a2b2715ecaecaadeb1e9a110b8d5f05b3" target="_top" xlink:title="Returns the index corresponding to the given entry if it exists in the model, or an invalid index if ...">
<polygon fill="white" stroke="black" points="162.5,-142 162.5,-172 287.5,-172 287.5,-142 162.5,-142"/>
<text text-anchor="start" x="170.5" y="-160" font-family="Helvetica,sans-Serif" font-size="10.00">Ra::GuiBase::ItemModel</text>
<text text-anchor="middle" x="225" y="-149" font-family="Helvetica,sans-Serif" font-size="10.00">::findEntryIndex</text>
</a>
</g>
</g>
<!-- Node1&#45;&gt;Node2 -->
<g id="edge1" class="edge"><title>Node1&#45;&gt;Node2</title>
<path fill="none" stroke="midnightblue" d="M118.615,-128.019C131.801,-131.645 146.013,-135.553 159.6,-139.29"/>
<polygon fill="midnightblue" stroke="midnightblue" points="158.789,-142.697 169.359,-141.974 160.645,-135.947 158.789,-142.697"/>
</g>
<!-- Node3 -->
<g id="node3" class="node"><title>Node3</title>
<g id="a_node3"><a xlink:href="structRa_1_1Engine_1_1ItemEntry.html#aceafc81a73631955b64999dd39a639da" target="_top" xlink:title="Returns true if the item represents any valid object. ">
<polygon fill="white" stroke="black" points="330,-186 330,-216 444,-216 444,-186 330,-186"/>
<text text-anchor="start" x="338" y="-204" font-family="Helvetica,sans-Serif" font-size="10.00">Ra::Engine::ItemEntry</text>
<text text-anchor="middle" x="387" y="-193" font-family="Helvetica,sans-Serif" font-size="10.00">::isValid</text>
</a>
</g>
</g>
<!-- Node1&#45;&gt;Node3 -->
<g id="edge15" class="edge"><title>Node1&#45;&gt;Node3</title>
<path fill="none" stroke="midnightblue" d="M80.1687,-128.253C98.4514,-144.471 129.877,-169.353 162,-181 212.846,-199.435 274.252,-203.775 319.903,-203.877"/>
<polygon fill="midnightblue" stroke="midnightblue" points="319.994,-207.376 329.978,-203.831 319.963,-200.377 319.994,-207.376"/>
</g>
<!-- Node13 -->
<g id="node13" class="node"><title>Node13</title>
<g id="a_node13"><a xlink:href="classRa_1_1GuiBase_1_1TreeItem.html#ac9e22ded576062a19560fe7bf5318d55" target="_top" xlink:title="Ra::GuiBase::TreeItem\l::getIndexInParent">
<polygon fill="white" stroke="black" points="328,-98 328,-128 446,-128 446,-98 328,-98"/>
<text text-anchor="start" x="336" y="-116" font-family="Helvetica,sans-Serif" font-size="10.00">Ra::GuiBase::TreeItem</text>
<text text-anchor="middle" x="387" y="-105" font-family="Helvetica,sans-Serif" font-size="10.00">::getIndexInParent</text>
</a>
</g>
</g>
<!-- Node1&#45;&gt;Node13 -->
<g id="edge18" class="edge"><title>Node1&#45;&gt;Node13</title>
<path fill="none" stroke="midnightblue" d="M125.704,-113C180.544,-113 260.602,-113 317.428,-113"/>
<polygon fill="midnightblue" stroke="midnightblue" points="317.757,-116.5 327.757,-113 317.757,-109.5 317.757,-116.5"/>
</g>
<!-- Node14 -->
<g id="node14" class="node"><title>Node14</title>
<g id="a_node14"><a xlink:href="classRa_1_1GuiBase_1_1TreeModel.html#a5aa24ace72c1c3d29e268cb34dc576f2" target="_top" xlink:title="Get the tree item corresponding to the given index. ">
<polygon fill="white" stroke="black" points="324.5,-10 324.5,-40 449.5,-40 449.5,-10 324.5,-10"/>
<text text-anchor="start" x="332.5" y="-28" font-family="Helvetica,sans-Serif" font-size="10.00">Ra::GuiBase::TreeModel</text>
<text text-anchor="middle" x="387" y="-17" font-family="Helvetica,sans-Serif" font-size="10.00">::getItem</text>
</a>
</g>
</g>
<!-- Node1&#45;&gt;Node14 -->
<g id="edge16" class="edge"><title>Node1&#45;&gt;Node14</title>
<path fill="none" stroke="midnightblue" d="M79.7855,-97.792C97.9714,-81.3185 129.542,-55.813 162,-44 210.655,-26.2923 269.039,-21.8352 314.001,-21.6506"/>
<polygon fill="midnightblue" stroke="midnightblue" points="314.242,-25.1512 324.253,-21.681 314.263,-18.1513 314.242,-25.1512"/>
</g>
<!-- Node16 -->
<g id="node16" class="node"><title>Node16</title>
<g id="a_node16"><a xlink:href="classRa_1_1GuiBase_1_1TreeModel.html#af6ce0073421fa11fa97389daadfb0e2d" target="_top" xlink:title="Get the parent of a given child item. ">
<polygon fill="white" stroke="black" points="162.5,-54 162.5,-84 287.5,-84 287.5,-54 162.5,-54"/>
<text text-anchor="start" x="170.5" y="-72" font-family="Helvetica,sans-Serif" font-size="10.00">Ra::GuiBase::TreeModel</text>
<text text-anchor="middle" x="225" y="-61" font-family="Helvetica,sans-Serif" font-size="10.00">::parent</text>
</a>
</g>
</g>
<!-- Node1&#45;&gt;Node16 -->
<g id="edge19" class="edge"><title>Node1&#45;&gt;Node16</title>
<path fill="none" stroke="midnightblue" d="M118.615,-97.9808C131.801,-94.3548 146.013,-90.4466 159.6,-86.7101"/>
<polygon fill="midnightblue" stroke="midnightblue" points="160.645,-90.0526 169.359,-84.0262 158.789,-83.3031 160.645,-90.0526"/>
</g>
<!-- Node2&#45;&gt;Node3 -->
<g id="edge2" class="edge"><title>Node2&#45;&gt;Node3</title>
<path fill="none" stroke="midnightblue" d="M280.615,-172.019C293.801,-175.645 308.013,-179.553 321.6,-183.29"/>
<polygon fill="midnightblue" stroke="midnightblue" points="320.789,-186.697 331.359,-185.974 322.645,-179.947 320.789,-186.697"/>
</g>
<!-- Node2&#45;&gt;Node13 -->
<g id="edge14" class="edge"><title>Node2&#45;&gt;Node13</title>
<path fill="none" stroke="midnightblue" d="M280.615,-141.981C293.801,-138.355 308.013,-134.447 321.6,-130.71"/>
<polygon fill="midnightblue" stroke="midnightblue" points="322.645,-134.053 331.359,-128.026 320.789,-127.303 322.645,-134.053"/>
</g>
<!-- Node4 -->
<g id="node4" class="node"><title>Node4</title>
<g id="a_node4"><a xlink:href="structRa_1_1Engine_1_1ItemEntry.html#a1fb9fdd74413a1fa5878f53c1cfcf8fd" target="_top" xlink:title="Debug checks. ">
<polygon fill="white" stroke="black" points="662,-182 662,-212 776,-212 776,-182 662,-182"/>
<text text-anchor="start" x="670" y="-200" font-family="Helvetica,sans-Serif" font-size="10.00">Ra::Engine::ItemEntry</text>
<text text-anchor="middle" x="719" y="-189" font-family="Helvetica,sans-Serif" font-size="10.00">::checkConsistency</text>
</a>
</g>
</g>
<!-- Node3&#45;&gt;Node4 -->
<g id="edge3" class="edge"><title>Node3&#45;&gt;Node4</title>
<path fill="none" stroke="midnightblue" d="M393.756,-216.098C405.761,-245.142 436.535,-308.117 486,-333 539.997,-360.163 568.332,-360.808 622,-333 667.152,-309.604 695.588,-254.12 708.956,-221.711"/>
<polygon fill="midnightblue" stroke="midnightblue" points="712.346,-222.656 712.769,-212.069 705.837,-220.081 712.346,-222.656"/>
</g>
<!-- Node6 -->
<g id="node6" class="node"><title>Node6</title>
<g id="a_node6"><a xlink:href="classRa_1_1Engine_1_1RadiumEngine.html#a79f6626ce468268791bc5bdfe17b5586" target="_top" xlink:title="Ra::Engine::RadiumEngine\l::getEntityManager">
<polygon fill="white" stroke="black" points="486.5,-294 486.5,-324 621.5,-324 621.5,-294 486.5,-294"/>
<text text-anchor="start" x="494.5" y="-312" font-family="Helvetica,sans-Serif" font-size="10.00">Ra::Engine::RadiumEngine</text>
<text text-anchor="middle" x="554" y="-301" font-family="Helvetica,sans-Serif" font-size="10.00">::getEntityManager</text>
</a>
</g>
</g>
<!-- Node3&#45;&gt;Node6 -->
<g id="edge5" class="edge"><title>Node3&#45;&gt;Node6</title>
<path fill="none" stroke="midnightblue" d="M402.357,-216.001C420.428,-234.169 453.103,-264.728 486,-284 489.456,-286.025 493.106,-287.936 496.845,-289.731"/>
<polygon fill="midnightblue" stroke="midnightblue" points="495.707,-293.056 506.264,-293.949 498.568,-286.668 495.707,-293.056"/>
</g>
<!-- Node7 -->
<g id="node7" class="node"><title>Node7</title>
<g id="a_node7"><a xlink:href="classRa_1_1Engine_1_1EntityManager.html#a5115cccae6aaef614ad4bd08e64d8185" target="_top" xlink:title="Check wether an entity with a given name exists or not. ">
<polygon fill="white" stroke="black" points="487,-245 487,-275 621,-275 621,-245 487,-245"/>
<text text-anchor="start" x="495" y="-263" font-family="Helvetica,sans-Serif" font-size="10.00">Ra::Engine::EntityManager</text>
<text text-anchor="middle" x="554" y="-252" font-family="Helvetica,sans-Serif" font-size="10.00">::entityExists</text>
</a>
</g>
</g>
<!-- Node3&#45;&gt;Node7 -->
<g id="edge6" class="edge"><title>Node3&#45;&gt;Node7</title>
<path fill="none" stroke="midnightblue" d="M430.063,-216.041C451.785,-223.808 478.475,-233.352 501.43,-241.56"/>
<polygon fill="midnightblue" stroke="midnightblue" points="500.419,-244.915 511.013,-244.987 502.776,-238.324 500.419,-244.915"/>
</g>
<!-- Node8 -->
<g id="node8" class="node"><title>Node8</title>
<g id="a_node8"><a xlink:href="classRa_1_1Engine_1_1Entity.html#aaf256bea44bbc5bff6aa504aca05ca35" target="_top" xlink:title="Ra::Engine::Entity\l::getName">
<polygon fill="white" stroke="black" points="505.5,-196 505.5,-226 602.5,-226 602.5,-196 505.5,-196"/>
<text text-anchor="start" x="513.5" y="-214" font-family="Helvetica,sans-Serif" font-size="10.00">Ra::Engine::Entity</text>
<text text-anchor="middle" x="554" y="-203" font-family="Helvetica,sans-Serif" font-size="10.00">::getName</text>
</a>
</g>
</g>
<!-- Node3&#45;&gt;Node8 -->
<g id="edge7" class="edge"><title>Node3&#45;&gt;Node8</title>
<path fill="none" stroke="midnightblue" d="M444.322,-204.413C460.79,-205.411 478.809,-206.504 495.358,-207.507"/>
<polygon fill="midnightblue" stroke="midnightblue" points="495.25,-211.006 505.444,-208.118 495.674,-204.019 495.25,-211.006"/>
</g>
<!-- Node9 -->
<g id="node9" class="node"><title>Node9</title>
<g id="a_node9"><a xlink:href="structRa_1_1Engine_1_1ItemEntry.html#a898047549069e5b64d3a9a65c058af56" target="_top" xlink:title="Returns true if the item represents a render object. ">
<polygon fill="white" stroke="black" points="497,-147 497,-177 611,-177 611,-147 497,-147"/>
<text text-anchor="start" x="505" y="-165" font-family="Helvetica,sans-Serif" font-size="10.00">Ra::Engine::ItemEntry</text>
<text text-anchor="middle" x="554" y="-154" font-family="Helvetica,sans-Serif" font-size="10.00">::isRoNode</text>
</a>
</g>
</g>
<!-- Node3&#45;&gt;Node9 -->
<g id="edge8" class="edge"><title>Node3&#45;&gt;Node9</title>
<path fill="none" stroke="midnightblue" d="M444.322,-187.687C457.995,-184.456 472.737,-180.971 486.819,-177.643"/>
<polygon fill="midnightblue" stroke="midnightblue" points="488.005,-180.959 496.932,-175.253 486.395,-174.147 488.005,-180.959"/>
</g>
<!-- Node11 -->
<g id="node11" class="node"><title>Node11</title>
<g id="a_node11"><a xlink:href="classRa_1_1Engine_1_1RadiumEngine.html#a58b27bc600ea769f68b0e2938abc7862" target="_top" xlink:title="Manager getters. ">
<polygon fill="white" stroke="black" points="486.5,-98 486.5,-128 621.5,-128 621.5,-98 486.5,-98"/>
<text text-anchor="start" x="494.5" y="-116" font-family="Helvetica,sans-Serif" font-size="10.00">Ra::Engine::RadiumEngine</text>
<text text-anchor="middle" x="554" y="-105" font-family="Helvetica,sans-Serif" font-size="10.00">::getRenderObjectManager</text>
</a>
</g>
</g>
<!-- Node3&#45;&gt;Node11 -->
<g id="edge11" class="edge"><title>Node3&#45;&gt;Node11</title>
<path fill="none" stroke="midnightblue" d="M408.636,-185.874C427.954,-172.171 457.967,-152.037 486,-138 490.219,-135.888 494.661,-133.852 499.168,-131.916"/>
<polygon fill="midnightblue" stroke="midnightblue" points="500.544,-135.134 508.458,-128.09 497.879,-128.661 500.544,-135.134"/>
</g>
<!-- Node12 -->
<g id="node12" class="node"><title>Node12</title>
<g id="a_node12"><a xlink:href="classRa_1_1Engine_1_1RenderObjectManager.html#a4077b9cf9e1e4d62fd5456386f2d72c8" target="_top" xlink:title="Returns true if the index points to a valid render object. ">
<polygon fill="white" stroke="black" points="488.5,-49 488.5,-79 619.5,-79 619.5,-49 488.5,-49"/>
<text text-anchor="start" x="496.5" y="-67" font-family="Helvetica,sans-Serif" font-size="10.00">Ra::Engine::RenderObject</text>
<text text-anchor="middle" x="554" y="-56" font-family="Helvetica,sans-Serif" font-size="10.00">Manager::exists</text>
</a>
</g>
</g>
<!-- Node3&#45;&gt;Node12 -->
<g id="edge12" class="edge"><title>Node3&#45;&gt;Node12</title>
<path fill="none" stroke="midnightblue" d="M403.903,-185.776C416.809,-173.146 435.223,-154.488 450,-137 467.442,-116.359 464.334,-104.151 486,-88 487.851,-86.62 489.789,-85.3137 491.791,-84.0775"/>
<polygon fill="midnightblue" stroke="midnightblue" points="493.813,-86.9615 500.912,-79.0965 490.457,-80.8181 493.813,-86.9615"/>
</g>
<!-- Node5 -->
<g id="node5" class="node"><title>Node5</title>
<g id="a_node5"><a xlink:href="classRa_1_1Core_1_1Index.html#a7283e7fb9cc134e04ef3cde8877f8fe2" target="_top" xlink:title="INVALID. ">
<polygon fill="white" stroke="black" points="816,-187.5 816,-206.5 944,-206.5 944,-187.5 816,-187.5"/>
<text text-anchor="middle" x="880" y="-194.5" font-family="Helvetica,sans-Serif" font-size="10.00">Ra::Core::Index::isInvalid</text>
</a>
</g>
</g>
<!-- Node4&#45;&gt;Node5 -->
<g id="edge4" class="edge"><title>Node4&#45;&gt;Node5</title>
<path fill="none" stroke="midnightblue" d="M776.057,-197C785.613,-197 795.665,-197 805.589,-197"/>
<polygon fill="midnightblue" stroke="midnightblue" points="805.859,-200.5 815.859,-197 805.859,-193.5 805.859,-200.5"/>
</g>
<!-- Node9&#45;&gt;Node4 -->
<g id="edge9" class="edge"><title>Node9&#45;&gt;Node4</title>
<path fill="none" stroke="midnightblue" d="M611.095,-174.045C624.158,-176.85 638.188,-179.862 651.646,-182.752"/>
<polygon fill="midnightblue" stroke="midnightblue" points="651.289,-186.255 661.801,-184.933 652.759,-179.411 651.289,-186.255"/>
</g>
<!-- Node10 -->
<g id="node10" class="node"><title>Node10</title>
<g id="a_node10"><a xlink:href="classRa_1_1Core_1_1Index.html#a87c70243f30c65c1a24834d1829bda01" target="_top" xlink:title="DESTRUCTOR: Must not be defined, we need it trivial to be constexpr. ">
<polygon fill="white" stroke="black" points="658,-116.5 658,-135.5 780,-135.5 780,-116.5 658,-116.5"/>
<text text-anchor="middle" x="719" y="-123.5" font-family="Helvetica,sans-Serif" font-size="10.00">Ra::Core::Index::isValid</text>
</a>
</g>
</g>
<!-- Node9&#45;&gt;Node10 -->
<g id="edge10" class="edge"><title>Node9&#45;&gt;Node10</title>
<path fill="none" stroke="midnightblue" d="M611.095,-149.611C628.57,-145.751 647.776,-141.51 665.03,-137.699"/>
<polygon fill="midnightblue" stroke="midnightblue" points="665.926,-141.086 674.935,-135.511 664.416,-134.25 665.926,-141.086"/>
</g>
<!-- Node12&#45;&gt;Node10 -->
<g id="edge13" class="edge"><title>Node12&#45;&gt;Node10</title>
<path fill="none" stroke="midnightblue" d="M597.609,-79.0253C605.725,-81.9544 614.138,-85.0368 622,-88 643.042,-95.9309 666.515,-105.214 684.984,-112.62"/>
<polygon fill="midnightblue" stroke="midnightblue" points="683.829,-115.928 694.413,-116.413 686.441,-109.434 683.829,-115.928"/>
</g>
<!-- Node15 -->
<g id="node15" class="node"><title>Node15</title>
<g id="a_node15"><a xlink:href="classRa_1_1GuiBase_1_1TreeModel.html#a972106921da4c960f23f81722d3b4cf5" target="_top" xlink:title="Internal functions to check if an item is in the tree. ">
<polygon fill="white" stroke="black" points="491.5,-0 491.5,-30 616.5,-30 616.5,-0 491.5,-0"/>
<text text-anchor="start" x="499.5" y="-18" font-family="Helvetica,sans-Serif" font-size="10.00">Ra::GuiBase::TreeModel</text>
<text text-anchor="middle" x="554" y="-7" font-family="Helvetica,sans-Serif" font-size="10.00">::findInTree</text>
</a>
</g>
</g>
<!-- Node14&#45;&gt;Node15 -->
<g id="edge17" class="edge"><title>Node14&#45;&gt;Node15</title>
<path fill="none" stroke="midnightblue" d="M449.909,-21.2479C460.06,-20.6327 470.654,-19.9907 481.023,-19.3622"/>
<polygon fill="midnightblue" stroke="midnightblue" points="481.523,-22.8385 491.292,-18.7399 481.099,-15.8513 481.523,-22.8385"/>
</g>
<!-- Node16&#45;&gt;Node13 -->
<g id="edge21" class="edge"><title>Node16&#45;&gt;Node13</title>
<path fill="none" stroke="midnightblue" d="M280.615,-84.0192C293.801,-87.6452 308.013,-91.5534 321.6,-95.2899"/>
<polygon fill="midnightblue" stroke="midnightblue" points="320.789,-98.6969 331.359,-97.9738 322.645,-91.9474 320.789,-98.6969"/>
</g>
<!-- Node16&#45;&gt;Node14 -->
<g id="edge20" class="edge"><title>Node16&#45;&gt;Node14</title>
<path fill="none" stroke="midnightblue" d="M280.615,-53.9808C293.801,-50.3548 308.013,-46.4466 321.6,-42.7101"/>
<polygon fill="midnightblue" stroke="midnightblue" points="322.645,-46.0526 331.359,-40.0262 320.789,-39.3031 322.645,-46.0526"/>
</g>
</g>
</svg>
