<?xml version="1.0" encoding="UTF-8" standalone="no"?>
<!DOCTYPE svg PUBLIC "-//W3C//DTD SVG 1.1//EN"
 "http://www.w3.org/Graphics/SVG/1.1/DTD/svg11.dtd">
<!-- Generated by graphviz version 2.36.0 (20140111.2315)
 -->
<!-- Title: Ra::IO::AssimpAnimationDataLoader Pages: 1 -->
<svg width="270pt" height="596pt"
 viewBox="0.00 0.00 270.00 596.00" xmlns="http://www.w3.org/2000/svg" xmlns:xlink="http://www.w3.org/1999/xlink">
<g id="graph0" class="graph" transform="scale(1 1) rotate(0) translate(4 592)">
<title>Ra::IO::AssimpAnimationDataLoader</title>
<polygon fill="white" stroke="none" points="-4,4 -4,-592 266,-592 266,4 -4,4"/>
<!-- Node1 -->
<g id="node1" class="node"><title>Node1</title>
<polygon fill="#bfbfbf" stroke="black" points="0,-0.5 0,-167.5 164,-167.5 164,-0.5 0,-0.5"/>
<text text-anchor="start" x="8" y="-155.5" font-family="Helvetica,sans-Serif" font-size="10.00">Ra::IO::AssimpAnimationData</text>
<text text-anchor="middle" x="82" y="-144.5" font-family="Helvetica,sans-Serif" font-size="10.00">Loader</text>
<polyline fill="none" stroke="black" points="0,-137.5 164,-137.5 "/>
<text text-anchor="middle" x="82" y="-125.5" font-family="Helvetica,sans-Serif" font-size="10.00"> </text>
<polyline fill="none" stroke="black" points="0,-118.5 164,-118.5 "/>
<text text-anchor="start" x="8" y="-106.5" font-family="Helvetica,sans-Serif" font-size="10.00">+ AssimpAnimationDataLoader()</text>
<text text-anchor="start" x="8" y="-95.5" font-family="Helvetica,sans-Serif" font-size="10.00">+ ~AssimpAnimationDataLoader()</text>
<text text-anchor="start" x="8" y="-84.5" font-family="Helvetica,sans-Serif" font-size="10.00">+ loadData()</text>
<text text-anchor="start" x="8" y="-73.5" font-family="Helvetica,sans-Serif" font-size="10.00"># sceneHasAnimation()</text>
<text text-anchor="start" x="8" y="-62.5" font-family="Helvetica,sans-Serif" font-size="10.00"># sceneAnimationSize()</text>
<text text-anchor="start" x="8" y="-51.5" font-family="Helvetica,sans-Serif" font-size="10.00"># fetchName()</text>
<text text-anchor="start" x="8" y="-40.5" font-family="Helvetica,sans-Serif" font-size="10.00"># fetchTime()</text>
<text text-anchor="start" x="8" y="-29.5" font-family="Helvetica,sans-Serif" font-size="10.00"># loadAnimationData()</text>
<text text-anchor="start" x="8" y="-18.5" font-family="Helvetica,sans-Serif" font-size="10.00"># fetchAnimation()</text>
<text text-anchor="start" x="8" y="-7.5" font-family="Helvetica,sans-Serif" font-size="10.00"># fetchHandleAnimation()</text>
</g>
<!-- Node2 -->
<g id="node2" class="node"><title>Node2</title>
<g id="a_node2"><a xlink:href="classRa_1_1Asset_1_1DataLoader.html" target="_top" xlink:title="{Ra::Asset::DataLoader\l\&lt; Asset::AnimationData \&gt;\n||+ DataLoader()\l+ ~DataLoader()\l+ loadData()\l+ isVerbose()\l+ setVerbose()\l}">
<polygon fill="white" stroke="black" points="16.5,-207 16.5,-319 147.5,-319 147.5,-207 16.5,-207"/>
<text text-anchor="start" x="24.5" y="-307" font-family="Helvetica,sans-Serif" font-size="10.00">Ra::Asset::DataLoader</text>
<text text-anchor="middle" x="82" y="-296" font-family="Helvetica,sans-Serif" font-size="10.00">&lt; Asset::AnimationData &gt;</text>
<polyline fill="none" stroke="black" points="16.5,-289 147.5,-289 "/>
<text text-anchor="middle" x="82" y="-277" font-family="Helvetica,sans-Serif" font-size="10.00"> </text>
<polyline fill="none" stroke="black" points="16.5,-270 147.5,-270 "/>
<text text-anchor="start" x="24.5" y="-258" font-family="Helvetica,sans-Serif" font-size="10.00">+ DataLoader()</text>
<text text-anchor="start" x="24.5" y="-247" font-family="Helvetica,sans-Serif" font-size="10.00">+ ~DataLoader()</text>
<text text-anchor="start" x="24.5" y="-236" font-family="Helvetica,sans-Serif" font-size="10.00">+ loadData()</text>
<text text-anchor="start" x="24.5" y="-225" font-family="Helvetica,sans-Serif" font-size="10.00">+ isVerbose()</text>
<text text-anchor="start" x="24.5" y="-214" font-family="Helvetica,sans-Serif" font-size="10.00">+ setVerbose()</text>
</a>
</g>
</g>
<!-- Node2&#45;&gt;Node1 -->
<g id="edge1" class="edge"><title>Node2&#45;&gt;Node1</title>
<path fill="none" stroke="midnightblue" d="M82,-196.822C82,-187.312 82,-177.415 82,-167.615"/>
<polygon fill="none" stroke="midnightblue" points="78.5001,-196.966 82,-206.966 85.5001,-196.966 78.5001,-196.966"/>
</g>
<!-- Node3 -->
<g id="node3" class="node"><title>Node3</title>
<g id="a_node3"><a xlink:href="classbool.html" target="_top" xlink:title="{bool\n||}">
<polygon fill="white" stroke="black" points="89.5,-530.5 89.5,-587.5 124.5,-587.5 124.5,-530.5 89.5,-530.5"/>
<text text-anchor="middle" x="107" y="-575.5" font-family="Helvetica,sans-Serif" font-size="10.00">bool</text>
<polyline fill="none" stroke="black" points="89.5,-568.5 124.5,-568.5 "/>
<text text-anchor="middle" x="107" y="-556.5" font-family="Helvetica,sans-Serif" font-size="10.00"> </text>
<polyline fill="none" stroke="black" points="89.5,-549.5 124.5,-549.5 "/>
<text text-anchor="middle" x="107" y="-537.5" font-family="Helvetica,sans-Serif" font-size="10.00"> </text>
</a>
</g>
</g>
<!-- Node3&#45;&gt;Node2 -->
<g id="edge2" class="edge"><title>Node3&#45;&gt;Node2</title>
<path fill="none" stroke="#404040" d="M92.6716,-530.296C86.1912,-516.232 79.2633,-498.64 76,-482 66.2309,-432.184 68.3408,-374.75 72.5663,-331.343"/>
<polygon fill="none" stroke="#404040" points="72.5875,-331.139 69.2345,-324.755 73.838,-319.205 77.191,-325.589 72.5875,-331.139"/>
<text text-anchor="middle" x="104.5" y="-422.5" font-family="Helvetica,sans-Serif" font-size="10.00"> #m_verbose</text>
</g>
<!-- Node4 -->
<g id="node4" class="node"><title>Node4</title>
<g id="a_node4"><a xlink:href="classRa_1_1Asset_1_1DataLoader.html" target="_top" xlink:title="{Ra::Asset::DataLoader\l\&lt; DATA \&gt;\n||+ DataLoader()\l+ ~DataLoader()\l+ loadData()\l+ isVerbose()\l+ setVerbose()\l}">
<polygon fill="white" stroke="black" points="141.5,-369 141.5,-481 258.5,-481 258.5,-369 141.5,-369"/>
<text text-anchor="start" x="149.5" y="-469" font-family="Helvetica,sans-Serif" font-size="10.00">Ra::Asset::DataLoader</text>
<text text-anchor="middle" x="200" y="-458" font-family="Helvetica,sans-Serif" font-size="10.00">&lt; DATA &gt;</text>
<polyline fill="none" stroke="black" points="141.5,-451 258.5,-451 "/>
<text text-anchor="middle" x="200" y="-439" font-family="Helvetica,sans-Serif" font-size="10.00"> </text>
<polyline fill="none" stroke="black" points="141.5,-432 258.5,-432 "/>
<text text-anchor="start" x="149.5" y="-420" font-family="Helvetica,sans-Serif" font-size="10.00">+ DataLoader()</text>
<text text-anchor="start" x="149.5" y="-409" font-family="Helvetica,sans-Serif" font-size="10.00">+ ~DataLoader()</text>
<text text-anchor="start" x="149.5" y="-398" font-family="Helvetica,sans-Serif" font-size="10.00">+ loadData()</text>
<text text-anchor="start" x="149.5" y="-387" font-family="Helvetica,sans-Serif" font-size="10.00">+ isVerbose()</text>
<text text-anchor="start" x="149.5" y="-376" font-family="Helvetica,sans-Serif" font-size="10.00">+ setVerbose()</text>
</a>
</g>
</g>
<!-- Node3&#45;&gt;Node4 -->
<g id="edge4" class="edge"><title>Node3&#45;&gt;Node4</title>
<path fill="none" stroke="#404040" d="M124.711,-532.861C133.104,-520.949 143.56,-506.109 153.983,-491.315"/>
<polygon fill="none" stroke="#404040" points="154.256,-490.926 154.442,-483.718 161.168,-481.117 160.982,-488.325 154.256,-490.926"/>
<text text-anchor="middle" x="173.5" y="-503.5" font-family="Helvetica,sans-Serif" font-size="10.00"> #m_verbose</text>
</g>
<!-- Node4&#45;&gt;Node2 -->
<g id="edge3" class="edge"><title>Node4&#45;&gt;Node2</title>
<path fill="none" stroke="orange" d="M153.186,-360.523C143.099,-346.846 132.515,-332.494 122.684,-319.164"/>
<polygon fill="orange" stroke="orange" points="150.639,-362.966 159.391,-368.937 156.272,-358.812 150.639,-362.966"/>
<text text-anchor="middle" x="203" y="-341.5" font-family="Helvetica,sans-Serif" font-size="10.00"> &lt; Asset::AnimationData &gt;</text>
</g>
</g>
</svg>
