<?xml version="1.0" encoding="UTF-8" standalone="no"?>
<!DOCTYPE svg PUBLIC "-//W3C//DTD SVG 1.1//EN"
 "http://www.w3.org/Graphics/SVG/1.1/DTD/svg11.dtd">
<!-- Generated by graphviz version 2.36.0 (20140111.2315)
 -->
<!-- Title: AnimationPlugin::AnimationComponent::update Pages: 1 -->
<svg width="640pt" height="126pt"
 viewBox="0.00 0.00 640.00 126.00" xmlns="http://www.w3.org/2000/svg" xmlns:xlink="http://www.w3.org/1999/xlink">
<g id="graph0" class="graph" transform="scale(1 1) rotate(0) translate(4 122)">
<title>AnimationPlugin::AnimationComponent::update</title>
<polygon fill="white" stroke="none" points="-4,4 -4,-122 636,-122 636,4 -4,4"/>
<!-- Node1 -->
<g id="node1" class="node"><title>Node1</title>
<polygon fill="#bfbfbf" stroke="black" points="0.5,-44 0.5,-74 137.5,-74 137.5,-44 0.5,-44"/>
<text text-anchor="start" x="8.5" y="-62" font-family="Helvetica,sans-Serif" font-size="10.00">AnimationPlugin::Animation</text>
<text text-anchor="middle" x="69" y="-51" font-family="Helvetica,sans-Serif" font-size="10.00">Component::update</text>
</g>
<!-- Node2 -->
<g id="node2" class="node"><title>Node2</title>
<g id="a_node2"><a xlink:href="classRa_1_1Core_1_1Animation_1_1Skeleton.html#a7aec08b57bfa9dbce1c5b47e96de81d9" target="_top" xlink:title="Set the current pose. ">
<polygon fill="white" stroke="black" points="174,-44 174,-74 280,-74 280,-44 174,-44"/>
<text text-anchor="start" x="182" y="-62" font-family="Helvetica,sans-Serif" font-size="10.00">Ra::Core::Animation</text>
<text text-anchor="middle" x="227" y="-51" font-family="Helvetica,sans-Serif" font-size="10.00">::Skeleton::setPose</text>
</a>
</g>
</g>
<!-- Node1&#45;&gt;Node2 -->
<g id="edge1" class="edge"><title>Node1&#45;&gt;Node2</title>
<path fill="none" stroke="midnightblue" d="M137.517,-59C146.276,-59 155.215,-59 163.881,-59"/>
<polygon fill="midnightblue" stroke="midnightblue" points="163.902,-62.5001 173.902,-59 163.902,-55.5001 163.902,-62.5001"/>
</g>
<!-- Node3 -->
<g id="node3" class="node"><title>Node3</title>
<g id="a_node3"><a xlink:href="classRa_1_1Core_1_1Animation_1_1Skeleton.html#a5679e1beb544b515c4539ce48a2f2ba3" target="_top" xlink:title="Ra::Core::Animation\l::Skeleton::size">
<polygon fill="white" stroke="black" points="333,-88 333,-118 439,-118 439,-88 333,-88"/>
<text text-anchor="start" x="341" y="-106" font-family="Helvetica,sans-Serif" font-size="10.00">Ra::Core::Animation</text>
<text text-anchor="middle" x="386" y="-95" font-family="Helvetica,sans-Serif" font-size="10.00">::Skeleton::size</text>
</a>
</g>
</g>
<!-- Node2&#45;&gt;Node3 -->
<g id="edge2" class="edge"><title>Node2&#45;&gt;Node3</title>
<path fill="none" stroke="midnightblue" d="M280.279,-73.6514C294.049,-77.5106 309.036,-81.7107 323.254,-85.6953"/>
<polygon fill="midnightblue" stroke="midnightblue" points="322.376,-89.0841 332.95,-88.4126 324.265,-82.3438 322.376,-89.0841"/>
</g>
<!-- Node4 -->
<g id="node4" class="node"><title>Node4</title>
<g id="a_node4"><a xlink:href="classRa_1_1Core_1_1Graph_1_1AdjacencyList.html#a63e089f5da2ddc2da39dfd5bd6adb410" target="_top" xlink:title="SIZE. ">
<polygon fill="white" stroke="black" points="492,-22 492,-52 632,-52 632,-22 492,-22"/>
<text text-anchor="start" x="500" y="-40" font-family="Helvetica,sans-Serif" font-size="10.00">Ra::Core::Graph::Adjacency</text>
<text text-anchor="middle" x="562" y="-29" font-family="Helvetica,sans-Serif" font-size="10.00">List::size</text>
</a>
</g>
</g>
<!-- Node2&#45;&gt;Node4 -->
<g id="edge3" class="edge"><title>Node2&#45;&gt;Node4</title>
<path fill="none" stroke="midnightblue" d="M280.031,-55.5625C334.007,-51.9966 419.089,-46.3755 481.496,-42.2525"/>
<polygon fill="midnightblue" stroke="midnightblue" points="481.951,-45.7302 491.699,-41.5785 481.49,-38.7454 481.951,-45.7302"/>
</g>
<!-- Node5 -->
<g id="node5" class="node"><title>Node5</title>
<g id="a_node5"><a xlink:href="classRa_1_1Core_1_1Graph_1_1AdjacencyList.html#a8671f51516bd82a2ea4246bc0c1e34f1" target="_top" xlink:title="Ra::Core::Graph::Adjacency\lList::isRoot">
<polygon fill="white" stroke="black" points="316,-0 316,-30 456,-30 456,-0 316,-0"/>
<text text-anchor="start" x="324" y="-18" font-family="Helvetica,sans-Serif" font-size="10.00">Ra::Core::Graph::Adjacency</text>
<text text-anchor="middle" x="386" y="-7" font-family="Helvetica,sans-Serif" font-size="10.00">List::isRoot</text>
</a>
</g>
</g>
<!-- Node2&#45;&gt;Node5 -->
<g id="edge4" class="edge"><title>Node2&#45;&gt;Node5</title>
<path fill="none" stroke="midnightblue" d="M280.279,-44.3486C293.486,-40.6472 307.812,-36.6322 321.506,-32.7945"/>
<polygon fill="midnightblue" stroke="midnightblue" points="322.656,-36.1073 331.34,-30.0385 320.767,-29.3669 322.656,-36.1073"/>
</g>
<!-- Node5&#45;&gt;Node4 -->
<g id="edge5" class="edge"><title>Node5&#45;&gt;Node4</title>
<path fill="none" stroke="midnightblue" d="M456.019,-23.7266C464.476,-24.7958 473.169,-25.8949 481.761,-26.9812"/>
<polygon fill="midnightblue" stroke="midnightblue" points="481.419,-30.4659 491.779,-28.248 482.298,-23.5212 481.419,-30.4659"/>
</g>
</g>
</svg>
