<?xml version="1.0" encoding="UTF-8" standalone="no"?>
<!DOCTYPE svg PUBLIC "-//W3C//DTD SVG 1.1//EN"
 "http://www.w3.org/Graphics/SVG/1.1/DTD/svg11.dtd">
<!-- Generated by graphviz version 2.36.0 (20140111.2315)
 -->
<!-- Title: SkinningPlugin::SkinningComponent::setSkinningType Pages: 1 -->
<svg width="994pt" height="479pt"
 viewBox="0.00 0.00 994.00 479.00" xmlns="http://www.w3.org/2000/svg" xmlns:xlink="http://www.w3.org/1999/xlink">
<g id="graph0" class="graph" transform="scale(1 1) rotate(0) translate(4 475)">
<title>SkinningPlugin::SkinningComponent::setSkinningType</title>
<polygon fill="white" stroke="none" points="-4,4 -4,-475 990,-475 990,4 -4,4"/>
<!-- Node1 -->
<g id="node1" class="node"><title>Node1</title>
<polygon fill="#bfbfbf" stroke="black" points="0,-269 0,-299 146,-299 146,-269 0,-269"/>
<text text-anchor="start" x="8" y="-287" font-family="Helvetica,sans-Serif" font-size="10.00">SkinningPlugin::Skinning</text>
<text text-anchor="middle" x="73" y="-276" font-family="Helvetica,sans-Serif" font-size="10.00">Component::setSkinningType</text>
</g>
<!-- Node2 -->
<g id="node2" class="node"><title>Node2</title>
<g id="a_node2"><a xlink:href="classSkinningPlugin_1_1SkinningComponent.html#a0ba759710b12a03a59faca912566d328" target="_top" xlink:title="Computes internal data related to the Skinning method. ">
<polygon fill="white" stroke="black" points="182,-269 182,-299 338,-299 338,-269 182,-269"/>
<text text-anchor="start" x="190" y="-287" font-family="Helvetica,sans-Serif" font-size="10.00">SkinningPlugin::Skinning</text>
<text text-anchor="middle" x="260" y="-276" font-family="Helvetica,sans-Serif" font-size="10.00">Component::setupSkinningType</text>
</a>
</g>
</g>
<!-- Node1&#45;&gt;Node2 -->
<g id="edge1" class="edge"><title>Node1&#45;&gt;Node2</title>
<path fill="none" stroke="midnightblue" d="M146.056,-284C154.514,-284 163.213,-284 171.85,-284"/>
<polygon fill="midnightblue" stroke="midnightblue" points="171.942,-287.5 181.942,-284 171.941,-280.5 171.942,-287.5"/>
</g>
<!-- Node3 -->
<g id="node3" class="node"><title>Node3</title>
<g id="a_node3"><a xlink:href="namespaceRa_1_1Core_1_1Animation.html#a40700cdabdd47fdb360f6bbfe692b36d" target="_top" xlink:title="Compute the optimal center of rotations (1 per vertex) based on weight similarity. ">
<polygon fill="white" stroke="black" points="374,-269 374,-299 480,-299 480,-269 374,-269"/>
<text text-anchor="start" x="382" y="-287" font-family="Helvetica,sans-Serif" font-size="10.00">Ra::Core::Animation</text>
<text text-anchor="middle" x="427" y="-276" font-family="Helvetica,sans-Serif" font-size="10.00">::computeCoR</text>
</a>
</g>
</g>
<!-- Node2&#45;&gt;Node3 -->
<g id="edge2" class="edge"><title>Node2&#45;&gt;Node3</title>
<path fill="none" stroke="midnightblue" d="M338.186,-284C346.772,-284 355.436,-284 363.803,-284"/>
<polygon fill="midnightblue" stroke="midnightblue" points="363.835,-287.5 373.835,-284 363.835,-280.5 363.835,-287.5"/>
</g>
<!-- Node4 -->
<g id="node4" class="node"><title>Node4</title>
<g id="a_node4"><a xlink:href="classRa_1_1Core_1_1TriangleMesh.html#a21ae39474fd85af3bfbcceb34e29d8ad" target="_top" xlink:title="Copy only the mesh faces and geometry. ">
<polygon fill="white" stroke="black" points="517.5,-392 517.5,-422 638.5,-422 638.5,-392 517.5,-392"/>
<text text-anchor="start" x="525.5" y="-410" font-family="Helvetica,sans-Serif" font-size="10.00">Ra::Core::TriangleMesh</text>
<text text-anchor="middle" x="578" y="-399" font-family="Helvetica,sans-Serif" font-size="10.00">::copyBaseGeometry</text>
</a>
</g>
</g>
<!-- Node3&#45;&gt;Node4 -->
<g id="edge3" class="edge"><title>Node3&#45;&gt;Node4</title>
<path fill="none" stroke="midnightblue" d="M439.449,-299.109C455.06,-318.938 484.684,-353.924 516,-377 520.869,-380.588 526.234,-383.942 531.7,-387.011"/>
<polygon fill="midnightblue" stroke="midnightblue" points="530.451,-390.31 540.926,-391.9 533.728,-384.125 530.451,-390.31"/>
</g>
<!-- Node8 -->
<g id="node8" class="node"><title>Node8</title>
<g id="a_node8"><a xlink:href="classRa_1_1Core_1_1TriangleMesh.html#a495116f40cfec8bb6504698d786d4b8c" target="_top" xlink:title="Access the vertices positions. ">
<polygon fill="white" stroke="black" points="517.5,-338 517.5,-368 638.5,-368 638.5,-338 517.5,-338"/>
<text text-anchor="start" x="525.5" y="-356" font-family="Helvetica,sans-Serif" font-size="10.00">Ra::Core::TriangleMesh</text>
<text text-anchor="middle" x="578" y="-345" font-family="Helvetica,sans-Serif" font-size="10.00">::vertices</text>
</a>
</g>
</g>
<!-- Node3&#45;&gt;Node8 -->
<g id="edge7" class="edge"><title>Node3&#45;&gt;Node8</title>
<path fill="none" stroke="midnightblue" d="M460.699,-299.142C482.63,-309.299 511.708,-322.764 535.301,-333.69"/>
<polygon fill="midnightblue" stroke="midnightblue" points="533.833,-336.867 544.378,-337.893 536.774,-330.515 533.833,-336.867"/>
</g>
<!-- Node10 -->
<g id="node10" class="node"><title>Node10</title>
<g id="a_node10"><a xlink:href="classRa_1_1Core_1_1TopologicalMesh.html#a94c32854d7aa51edc42d5d1dd70856f3" target="_top" xlink:title="Return the half&#45;edge associated with a given vertex and face. ">
<polygon fill="white" stroke="black" points="677,-294 677,-324 813,-324 813,-294 677,-294"/>
<text text-anchor="start" x="685" y="-312" font-family="Helvetica,sans-Serif" font-size="10.00">Ra::Core::TopologicalMesh</text>
<text text-anchor="middle" x="745" y="-301" font-family="Helvetica,sans-Serif" font-size="10.00">::halfedge_handle</text>
</a>
</g>
</g>
<!-- Node3&#45;&gt;Node10 -->
<g id="edge9" class="edge"><title>Node3&#45;&gt;Node10</title>
<path fill="none" stroke="midnightblue" d="M480.181,-288.128C530.949,-292.145 608.694,-298.295 666.654,-302.881"/>
<polygon fill="midnightblue" stroke="midnightblue" points="666.625,-306.389 676.87,-303.689 667.177,-299.411 666.625,-306.389"/>
</g>
<!-- Node11 -->
<g id="node11" class="node"><title>Node11</title>
<g id="a_node11"><a xlink:href="classRa_1_1Core_1_1TMOperations.html#aeaa56702c9396dd93a0748e9a8a54b36" target="_top" xlink:title="Apply a 2&#45;4 edge split. ">
<polygon fill="white" stroke="black" points="516,-245 516,-275 640,-275 640,-245 516,-245"/>
<text text-anchor="start" x="524" y="-263" font-family="Helvetica,sans-Serif" font-size="10.00">Ra::Core::TMOperations</text>
<text text-anchor="middle" x="578" y="-252" font-family="Helvetica,sans-Serif" font-size="10.00">::splitEdge</text>
</a>
</g>
</g>
<!-- Node3&#45;&gt;Node11 -->
<g id="edge10" class="edge"><title>Node3&#45;&gt;Node11</title>
<path fill="none" stroke="midnightblue" d="M480.113,-275.606C488.437,-274.265 497.172,-272.858 505.846,-271.461"/>
<polygon fill="midnightblue" stroke="midnightblue" points="506.657,-274.876 515.973,-269.83 505.543,-267.965 506.657,-274.876"/>
</g>
<!-- Node23 -->
<g id="node23" class="node"><title>Node23</title>
<g id="a_node23"><a xlink:href="namespaceRa_1_1Core_1_1Geometry.html#a178f2b7309fe2ea5bc31a3abcb25368e" target="_top" xlink:title="Ra::Core::Geometry\l::triangleArea">
<polygon fill="white" stroke="black" points="525.5,-150 525.5,-180 630.5,-180 630.5,-150 525.5,-150"/>
<text text-anchor="start" x="533.5" y="-168" font-family="Helvetica,sans-Serif" font-size="10.00">Ra::Core::Geometry</text>
<text text-anchor="middle" x="578" y="-157" font-family="Helvetica,sans-Serif" font-size="10.00">::triangleArea</text>
</a>
</g>
</g>
<!-- Node3&#45;&gt;Node23 -->
<g id="edge27" class="edge"><title>Node3&#45;&gt;Node23</title>
<path fill="none" stroke="midnightblue" d="M446.871,-268.929C472.926,-248.12 520.07,-210.467 549.892,-186.65"/>
<polygon fill="midnightblue" stroke="midnightblue" points="552.182,-189.3 557.812,-180.325 547.814,-183.831 552.182,-189.3"/>
</g>
<!-- Node26 -->
<g id="node26" class="node"><title>Node26</title>
<g id="a_node26"><a xlink:href="namespaceRa_1_1Core_1_1Animation.html#a71236244c5603a8a5bc63595db9b7717" target="_top" xlink:title="Computes the similarity between two weights vector. ">
<polygon fill="white" stroke="black" points="525,-101 525,-131 631,-131 631,-101 525,-101"/>
<text text-anchor="start" x="533" y="-119" font-family="Helvetica,sans-Serif" font-size="10.00">Ra::Core::Animation</text>
<text text-anchor="middle" x="578" y="-108" font-family="Helvetica,sans-Serif" font-size="10.00">::weightSimilarity</text>
</a>
</g>
</g>
<!-- Node3&#45;&gt;Node26 -->
<g id="edge30" class="edge"><title>Node3&#45;&gt;Node26</title>
<path fill="none" stroke="midnightblue" d="M433.498,-268.737C444.67,-239.744 472.698,-176.365 516,-140 517.503,-138.738 519.081,-137.536 520.716,-136.394"/>
<polygon fill="midnightblue" stroke="midnightblue" points="522.582,-139.355 529.294,-131.157 518.935,-133.38 522.582,-139.355"/>
</g>
<!-- Node5 -->
<g id="node5" class="node"><title>Node5</title>
<g id="a_node5"><a xlink:href="classRa_1_1Core_1_1TriangleMesh.html#aa838b995226a922fc10f2f8f4c6dec31" target="_top" xlink:title="Erases all data, making the mesh empty. ">
<polygon fill="white" stroke="black" points="684.5,-392 684.5,-422 805.5,-422 805.5,-392 684.5,-392"/>
<text text-anchor="start" x="692.5" y="-410" font-family="Helvetica,sans-Serif" font-size="10.00">Ra::Core::TriangleMesh</text>
<text text-anchor="middle" x="745" y="-399" font-family="Helvetica,sans-Serif" font-size="10.00">::clear</text>
</a>
</g>
</g>
<!-- Node4&#45;&gt;Node5 -->
<g id="edge4" class="edge"><title>Node4&#45;&gt;Node5</title>
<path fill="none" stroke="midnightblue" d="M638.569,-407C650.063,-407 662.203,-407 673.994,-407"/>
<polygon fill="midnightblue" stroke="midnightblue" points="674.242,-410.5 684.242,-407 674.242,-403.5 674.242,-410.5"/>
</g>
<!-- Node7 -->
<g id="node7" class="node"><title>Node7</title>
<g id="a_node7"><a xlink:href="classRa_1_1Core_1_1AttribManager.html#ab973dc08cbca7da7108c40bb56c4a708" target="_top" xlink:title="Base copy, does nothing. ">
<polygon fill="white" stroke="black" points="683.5,-441 683.5,-471 806.5,-471 806.5,-441 683.5,-441"/>
<text text-anchor="start" x="691.5" y="-459" font-family="Helvetica,sans-Serif" font-size="10.00">Ra::Core::AttribManager</text>
<text text-anchor="middle" x="745" y="-448" font-family="Helvetica,sans-Serif" font-size="10.00">::copyAttributes</text>
</a>
</g>
</g>
<!-- Node4&#45;&gt;Node7 -->
<g id="edge6" class="edge"><title>Node4&#45;&gt;Node7</title>
<path fill="none" stroke="midnightblue" d="M629.852,-422.101C646.869,-427.155 666.004,-432.838 683.673,-438.085"/>
<polygon fill="midnightblue" stroke="midnightblue" points="682.733,-441.457 693.316,-440.948 684.726,-434.746 682.733,-441.457"/>
</g>
<!-- Node6 -->
<g id="node6" class="node"><title>Node6</title>
<g id="a_node6"><a xlink:href="classRa_1_1Core_1_1AttribManager.html#ae53b7e22a2098c6151c6b2702569a3be" target="_top" xlink:title="clear all attribs, invalidate handles. ">
<polygon fill="white" stroke="black" points="856.5,-392 856.5,-422 979.5,-422 979.5,-392 856.5,-392"/>
<text text-anchor="start" x="864.5" y="-410" font-family="Helvetica,sans-Serif" font-size="10.00">Ra::Core::AttribManager</text>
<text text-anchor="middle" x="918" y="-399" font-family="Helvetica,sans-Serif" font-size="10.00">::clear</text>
</a>
</g>
</g>
<!-- Node5&#45;&gt;Node6 -->
<g id="edge5" class="edge"><title>Node5&#45;&gt;Node6</title>
<path fill="none" stroke="midnightblue" d="M805.808,-407C818.855,-407 832.782,-407 846.21,-407"/>
<polygon fill="midnightblue" stroke="midnightblue" points="846.358,-410.5 856.358,-407 846.358,-403.5 846.358,-410.5"/>
</g>
<!-- Node9 -->
<g id="node9" class="node"><title>Node9</title>
<g id="a_node9"><a xlink:href="classRa_1_1Core_1_1AttribManager.html#aaa6088620425c1e1d74b50f1b50eb596" target="_top" xlink:title="Get attribute by handle. ">
<polygon fill="white" stroke="black" points="683.5,-343 683.5,-373 806.5,-373 806.5,-343 683.5,-343"/>
<text text-anchor="start" x="691.5" y="-361" font-family="Helvetica,sans-Serif" font-size="10.00">Ra::Core::AttribManager</text>
<text text-anchor="middle" x="745" y="-350" font-family="Helvetica,sans-Serif" font-size="10.00">::getAttrib</text>
</a>
</g>
</g>
<!-- Node8&#45;&gt;Node9 -->
<g id="edge8" class="edge"><title>Node8&#45;&gt;Node9</title>
<path fill="none" stroke="midnightblue" d="M638.569,-354.805C649.849,-355.147 661.751,-355.508 673.335,-355.859"/>
<polygon fill="midnightblue" stroke="midnightblue" points="673.308,-359.359 683.409,-356.164 673.52,-352.363 673.308,-359.359"/>
</g>
<!-- Node11&#45;&gt;Node10 -->
<g id="edge12" class="edge"><title>Node11&#45;&gt;Node10</title>
<path fill="none" stroke="midnightblue" d="M629.852,-275.101C646.869,-280.155 666.004,-285.838 683.673,-291.085"/>
<polygon fill="midnightblue" stroke="midnightblue" points="682.733,-294.457 693.316,-293.948 684.726,-287.746 682.733,-294.457"/>
</g>
<!-- Node12 -->
<g id="node12" class="node"><title>Node12</title>
<g id="a_node12"><a xlink:href="namespaceRa_1_1Engine_1_1DrawPrimitives.html#a2eff9774611ef4e9cdfb2ac969182123" target="_top" xlink:title="Displays given point shown as the crossing of 3 lines of length &#39;scale&#39;. ">
<polygon fill="white" stroke="black" points="676,-245 676,-275 814,-275 814,-245 676,-245"/>
<text text-anchor="start" x="684" y="-263" font-family="Helvetica,sans-Serif" font-size="10.00">Ra::Engine::DrawPrimitives</text>
<text text-anchor="middle" x="745" y="-252" font-family="Helvetica,sans-Serif" font-size="10.00">::Point</text>
</a>
</g>
</g>
<!-- Node11&#45;&gt;Node12 -->
<g id="edge11" class="edge"><title>Node11&#45;&gt;Node12</title>
<path fill="none" stroke="midnightblue" d="M640.44,-260C648.647,-260 657.153,-260 665.601,-260"/>
<polygon fill="midnightblue" stroke="midnightblue" points="665.854,-263.5 675.854,-260 665.854,-256.5 665.854,-263.5"/>
</g>
<!-- Node13 -->
<g id="node13" class="node"><title>Node13</title>
<g id="a_node13"><a xlink:href="classRa_1_1Core_1_1TopologicalMesh.html#a42aa050397dd07b26bed2b35f3748246" target="_top" xlink:title="Interpolate all properties on edge center (after edge split). ">
<polygon fill="white" stroke="black" points="677,-196 677,-226 813,-226 813,-196 677,-196"/>
<text text-anchor="start" x="685" y="-214" font-family="Helvetica,sans-Serif" font-size="10.00">Ra::Core::TopologicalMesh</text>
<text text-anchor="middle" x="745" y="-203" font-family="Helvetica,sans-Serif" font-size="10.00">::interpolateAllProps</text>
</a>
</g>
</g>
<!-- Node11&#45;&gt;Node13 -->
<g id="edge13" class="edge"><title>Node11&#45;&gt;Node13</title>
<path fill="none" stroke="midnightblue" d="M629.852,-244.899C646.869,-239.845 666.004,-234.162 683.673,-228.915"/>
<polygon fill="midnightblue" stroke="midnightblue" points="684.726,-232.254 693.316,-226.052 682.733,-225.543 684.726,-232.254"/>
</g>
<!-- Node20 -->
<g id="node20" class="node"><title>Node20</title>
<g id="a_node20"><a xlink:href="classRa_1_1Core_1_1TopologicalMesh.html#ab8adf0e20463e4e4a4eb1b4624eb5b40" target="_top" xlink:title="Copy all properties from input_heh to copy_heh. ">
<polygon fill="white" stroke="black" points="677,-147 677,-177 813,-177 813,-147 677,-147"/>
<text text-anchor="start" x="685" y="-165" font-family="Helvetica,sans-Serif" font-size="10.00">Ra::Core::TopologicalMesh</text>
<text text-anchor="middle" x="745" y="-154" font-family="Helvetica,sans-Serif" font-size="10.00">::copyAllProps</text>
</a>
</g>
</g>
<!-- Node11&#45;&gt;Node20 -->
<g id="edge20" class="edge"><title>Node11&#45;&gt;Node20</title>
<path fill="none" stroke="midnightblue" d="M595.401,-244.895C613.846,-228.555 645.254,-202.617 676,-186 679.218,-184.261 682.587,-182.606 686.031,-181.039"/>
<polygon fill="midnightblue" stroke="midnightblue" points="687.445,-184.241 695.27,-177.098 684.699,-177.802 687.445,-184.241"/>
</g>
<!-- Node14 -->
<g id="node14" class="node"><title>Node14</title>
<g id="a_node14"><a xlink:href="classRa_1_1Core_1_1TopologicalMesh.html#ada6b93df0b80c67c28eec20876a14eab" target="_top" xlink:title="Interpolate normal property on edge center (after edge split). ">
<polygon fill="white" stroke="black" points="850,-294 850,-324 986,-324 986,-294 850,-294"/>
<text text-anchor="start" x="858" y="-312" font-family="Helvetica,sans-Serif" font-size="10.00">Ra::Core::TopologicalMesh</text>
<text text-anchor="middle" x="918" y="-301" font-family="Helvetica,sans-Serif" font-size="10.00">::interpolateNormal</text>
</a>
</g>
</g>
<!-- Node13&#45;&gt;Node14 -->
<g id="edge14" class="edge"><title>Node13&#45;&gt;Node14</title>
<path fill="none" stroke="midnightblue" d="M797.079,-226.051C803.059,-228.874 808.854,-232.17 814,-236 835.392,-251.921 828.646,-268.027 850,-284 852.456,-285.837 855.062,-287.552 857.766,-289.152"/>
<polygon fill="midnightblue" stroke="midnightblue" points="856.198,-292.282 866.672,-293.877 859.478,-286.099 856.198,-292.282"/>
</g>
<!-- Node15 -->
<g id="node15" class="node"><title>Node15</title>
<g id="a_node15"><a xlink:href="classRa_1_1Core_1_1TopologicalMesh.html#ace05f7289e356f433519904221ea94be" target="_top" xlink:title="Interpolate props on edge center (after edge split). ">
<polygon fill="white" stroke="black" points="850,-343 850,-373 986,-373 986,-343 850,-343"/>
<text text-anchor="start" x="858" y="-361" font-family="Helvetica,sans-Serif" font-size="10.00">Ra::Core::TopologicalMesh</text>
<text text-anchor="middle" x="918" y="-350" font-family="Helvetica,sans-Serif" font-size="10.00">::interpolateProps</text>
</a>
</g>
</g>
<!-- Node13&#45;&gt;Node15 -->
<g id="edge15" class="edge"><title>Node13&#45;&gt;Node15</title>
<path fill="none" stroke="midnightblue" d="M800.934,-226.19C805.708,-228.94 810.17,-232.181 814,-236 846.566,-268.466 817.513,-300.456 850,-333 851.447,-334.45 852.986,-335.817 854.599,-337.105"/>
<polygon fill="midnightblue" stroke="midnightblue" points="852.952,-340.216 863.197,-342.916 856.872,-334.417 852.952,-340.216"/>
</g>
<!-- Node16 -->
<g id="node16" class="node"><title>Node16</title>
<g id="a_node16"><a xlink:href="classRa_1_1Core_1_1TopologicalMesh.html#aa1016df75edb65e69fcdec5465e49245" target="_top" xlink:title="Ra::Core::TopologicalMesh\l::getFloatPropsHandles">
<polygon fill="white" stroke="black" points="850,-196 850,-226 986,-226 986,-196 850,-196"/>
<text text-anchor="start" x="858" y="-214" font-family="Helvetica,sans-Serif" font-size="10.00">Ra::Core::TopologicalMesh</text>
<text text-anchor="middle" x="918" y="-203" font-family="Helvetica,sans-Serif" font-size="10.00">::getFloatPropsHandles</text>
</a>
</g>
</g>
<!-- Node13&#45;&gt;Node16 -->
<g id="edge16" class="edge"><title>Node13&#45;&gt;Node16</title>
<path fill="none" stroke="midnightblue" d="M813.093,-211C821.768,-211 830.709,-211 839.535,-211"/>
<polygon fill="midnightblue" stroke="midnightblue" points="839.82,-214.5 849.82,-211 839.82,-207.5 839.82,-214.5"/>
</g>
<!-- Node17 -->
<g id="node17" class="node"><title>Node17</title>
<g id="a_node17"><a xlink:href="classRa_1_1Core_1_1TopologicalMesh.html#acf1e58078add6e5cc9ce13b30fb3baf3" target="_top" xlink:title="Ra::Core::TopologicalMesh\l::getVector2PropsHandles">
<polygon fill="white" stroke="black" points="850,-147 850,-177 986,-177 986,-147 850,-147"/>
<text text-anchor="start" x="858" y="-165" font-family="Helvetica,sans-Serif" font-size="10.00">Ra::Core::TopologicalMesh</text>
<text text-anchor="middle" x="918" y="-154" font-family="Helvetica,sans-Serif" font-size="10.00">::getVector2PropsHandles</text>
</a>
</g>
</g>
<!-- Node13&#45;&gt;Node17 -->
<g id="edge17" class="edge"><title>Node13&#45;&gt;Node17</title>
<path fill="none" stroke="midnightblue" d="M798.701,-195.899C816.419,-190.821 836.352,-185.11 854.734,-179.842"/>
<polygon fill="midnightblue" stroke="midnightblue" points="855.824,-183.171 864.473,-177.052 853.896,-176.442 855.824,-183.171"/>
</g>
<!-- Node18 -->
<g id="node18" class="node"><title>Node18</title>
<g id="a_node18"><a xlink:href="classRa_1_1Core_1_1TopologicalMesh.html#a6865aee84eb0d92f6acc12081bf8a6f8" target="_top" xlink:title="Ra::Core::TopologicalMesh\l::getVector3PropsHandles">
<polygon fill="white" stroke="black" points="850,-98 850,-128 986,-128 986,-98 850,-98"/>
<text text-anchor="start" x="858" y="-116" font-family="Helvetica,sans-Serif" font-size="10.00">Ra::Core::TopologicalMesh</text>
<text text-anchor="middle" x="918" y="-105" font-family="Helvetica,sans-Serif" font-size="10.00">::getVector3PropsHandles</text>
</a>
</g>
</g>
<!-- Node13&#45;&gt;Node18 -->
<g id="edge18" class="edge"><title>Node13&#45;&gt;Node18</title>
<path fill="none" stroke="midnightblue" d="M797.116,-195.998C803.09,-193.167 808.873,-189.855 814,-186 835.599,-169.759 828.334,-153.151 850,-137 851.851,-135.62 853.789,-134.314 855.791,-133.077"/>
<polygon fill="midnightblue" stroke="midnightblue" points="857.813,-135.962 864.912,-128.096 854.457,-129.818 857.813,-135.962"/>
</g>
<!-- Node19 -->
<g id="node19" class="node"><title>Node19</title>
<g id="a_node19"><a xlink:href="classRa_1_1Core_1_1TopologicalMesh.html#a938483e7f6900eeb3914d662b9aac21c" target="_top" xlink:title="Ra::Core::TopologicalMesh\l::getVector4PropsHandles">
<polygon fill="white" stroke="black" points="850,-245 850,-275 986,-275 986,-245 850,-245"/>
<text text-anchor="start" x="858" y="-263" font-family="Helvetica,sans-Serif" font-size="10.00">Ra::Core::TopologicalMesh</text>
<text text-anchor="middle" x="918" y="-252" font-family="Helvetica,sans-Serif" font-size="10.00">::getVector4PropsHandles</text>
</a>
</g>
</g>
<!-- Node13&#45;&gt;Node19 -->
<g id="edge19" class="edge"><title>Node13&#45;&gt;Node19</title>
<path fill="none" stroke="midnightblue" d="M798.701,-226.101C816.419,-231.179 836.352,-236.89 854.734,-242.158"/>
<polygon fill="midnightblue" stroke="midnightblue" points="853.896,-245.558 864.473,-244.948 855.824,-238.829 853.896,-245.558"/>
</g>
<!-- Node20&#45;&gt;Node16 -->
<g id="edge23" class="edge"><title>Node20&#45;&gt;Node16</title>
<path fill="none" stroke="midnightblue" d="M798.701,-177.101C816.419,-182.179 836.352,-187.89 854.734,-193.158"/>
<polygon fill="midnightblue" stroke="midnightblue" points="853.896,-196.558 864.473,-195.948 855.824,-189.829 853.896,-196.558"/>
</g>
<!-- Node20&#45;&gt;Node17 -->
<g id="edge24" class="edge"><title>Node20&#45;&gt;Node17</title>
<path fill="none" stroke="midnightblue" d="M813.093,-162C821.768,-162 830.709,-162 839.535,-162"/>
<polygon fill="midnightblue" stroke="midnightblue" points="839.82,-165.5 849.82,-162 839.82,-158.5 839.82,-165.5"/>
</g>
<!-- Node20&#45;&gt;Node18 -->
<g id="edge25" class="edge"><title>Node20&#45;&gt;Node18</title>
<path fill="none" stroke="midnightblue" d="M798.701,-146.899C816.419,-141.821 836.352,-136.11 854.734,-130.842"/>
<polygon fill="midnightblue" stroke="midnightblue" points="855.824,-134.171 864.473,-128.052 853.896,-127.442 855.824,-134.171"/>
</g>
<!-- Node20&#45;&gt;Node19 -->
<g id="edge26" class="edge"><title>Node20&#45;&gt;Node19</title>
<path fill="none" stroke="midnightblue" d="M798.865,-177.028C804.216,-179.596 809.375,-182.569 814,-186 835.704,-202.1 828.44,-218.707 850,-235 852.447,-236.849 855.045,-238.574 857.743,-240.182"/>
<polygon fill="midnightblue" stroke="midnightblue" points="856.165,-243.307 866.636,-244.925 859.46,-237.131 856.165,-243.307"/>
</g>
<!-- Node21 -->
<g id="node21" class="node"><title>Node21</title>
<g id="a_node21"><a xlink:href="classRa_1_1Core_1_1TopologicalMesh.html#afc2c2977da4b6cc4a76a044a580cfacf" target="_top" xlink:title="Copy the normal property from input_heh to copy_heh. ">
<polygon fill="white" stroke="black" points="850,-0 850,-30 986,-30 986,-0 850,-0"/>
<text text-anchor="start" x="858" y="-18" font-family="Helvetica,sans-Serif" font-size="10.00">Ra::Core::TopologicalMesh</text>
<text text-anchor="middle" x="918" y="-7" font-family="Helvetica,sans-Serif" font-size="10.00">::copyNormal</text>
</a>
</g>
</g>
<!-- Node20&#45;&gt;Node21 -->
<g id="edge21" class="edge"><title>Node20&#45;&gt;Node21</title>
<path fill="none" stroke="midnightblue" d="M800.947,-146.823C805.718,-144.07 810.176,-140.825 814,-137 846.806,-104.185 817.057,-71.678 850,-39 851.069,-37.9395 852.188,-36.9256 853.35,-35.9562"/>
<polygon fill="midnightblue" stroke="midnightblue" points="855.396,-38.7967 861.566,-30.1836 851.371,-33.0692 855.396,-38.7967"/>
</g>
<!-- Node22 -->
<g id="node22" class="node"><title>Node22</title>
<g id="a_node22"><a xlink:href="classRa_1_1Core_1_1TopologicalMesh.html#a7550874ffae2f25bcf60826dc2ff948e" target="_top" xlink:title="Copy props properties from input_heh to copy_heh. ">
<polygon fill="white" stroke="black" points="850,-49 850,-79 986,-79 986,-49 850,-49"/>
<text text-anchor="start" x="858" y="-67" font-family="Helvetica,sans-Serif" font-size="10.00">Ra::Core::TopologicalMesh</text>
<text text-anchor="middle" x="918" y="-56" font-family="Helvetica,sans-Serif" font-size="10.00">::copyProps</text>
</a>
</g>
</g>
<!-- Node20&#45;&gt;Node22 -->
<g id="edge22" class="edge"><title>Node20&#45;&gt;Node22</title>
<path fill="none" stroke="midnightblue" d="M797.116,-146.998C803.09,-144.167 808.873,-140.855 814,-137 835.599,-120.759 828.334,-104.151 850,-88 851.851,-86.62 853.789,-85.3137 855.791,-84.0775"/>
<polygon fill="midnightblue" stroke="midnightblue" points="857.813,-86.9615 864.912,-79.0965 854.457,-80.8181 857.813,-86.9615"/>
</g>
<!-- Node24 -->
<g id="node24" class="node"><title>Node24</title>
<g id="a_node24"><a xlink:href="namespaceOpenMesh.html#a71e7f1dd3eac016d2b8245ac408a291c" target="_top" xlink:title="OpenMesh::cross">
<polygon fill="white" stroke="black" points="698,-70.5 698,-89.5 792,-89.5 792,-70.5 698,-70.5"/>
<text text-anchor="middle" x="745" y="-77.5" font-family="Helvetica,sans-Serif" font-size="10.00">OpenMesh::cross</text>
</a>
</g>
</g>
<!-- Node23&#45;&gt;Node24 -->
<g id="edge28" class="edge"><title>Node23&#45;&gt;Node24</title>
<path fill="none" stroke="midnightblue" d="M622.966,-149.881C628.928,-147.012 634.782,-143.722 640,-140 659.742,-125.918 655.472,-111.909 676,-99 679.839,-96.5857 683.989,-94.4724 688.28,-92.6235"/>
<polygon fill="midnightblue" stroke="midnightblue" points="689.733,-95.8153 697.832,-88.9841 687.241,-89.274 689.733,-95.8153"/>
</g>
<!-- Node25 -->
<g id="node25" class="node"><title>Node25</title>
<g id="a_node25"><a xlink:href="namespaceOpenMesh.html#a8205f789ce08919bc11c58383574596c" target="_top" xlink:title="OpenMesh::norm">
<polygon fill="white" stroke="black" points="699,-108.5 699,-127.5 791,-127.5 791,-108.5 699,-108.5"/>
<text text-anchor="middle" x="745" y="-115.5" font-family="Helvetica,sans-Serif" font-size="10.00">OpenMesh::norm</text>
</a>
</g>
</g>
<!-- Node23&#45;&gt;Node25 -->
<g id="edge29" class="edge"><title>Node23&#45;&gt;Node25</title>
<path fill="none" stroke="midnightblue" d="M630.576,-150.023C645.247,-145.787 661.247,-141.19 676,-137 683.71,-134.81 691.919,-132.499 699.867,-130.272"/>
<polygon fill="midnightblue" stroke="midnightblue" points="701.052,-133.575 709.739,-127.511 699.166,-126.834 701.052,-133.575"/>
</g>
</g>
</svg>
