<?xml version="1.0" encoding="UTF-8" standalone="no"?>
<!DOCTYPE svg PUBLIC "-//W3C//DTD SVG 1.1//EN"
 "http://www.w3.org/Graphics/SVG/1.1/DTD/svg11.dtd">
<!-- Generated by graphviz version 2.36.0 (20140111.2315)
 -->
<!-- Title: Ra::Core::Animation::Sequence::insertLast Pages: 1 -->
<svg width="284pt" height="87pt"
 viewBox="0.00 0.00 284.00 87.00" xmlns="http://www.w3.org/2000/svg" xmlns:xlink="http://www.w3.org/1999/xlink">
<g id="graph0" class="graph" transform="scale(1 1) rotate(0) translate(4 83)">
<title>Ra::Core::Animation::Sequence::insertLast</title>
<polygon fill="white" stroke="none" points="-4,4 -4,-83 280,-83 280,4 -4,4"/>
<!-- Node1 -->
<g id="node1" class="node"><title>Node1</title>
<polygon fill="#bfbfbf" stroke="black" points="0.5,-24 0.5,-54 115.5,-54 115.5,-24 0.5,-24"/>
<text text-anchor="start" x="8.5" y="-42" font-family="Helvetica,sans-Serif" font-size="10.00">Ra::Core::Animation</text>
<text text-anchor="middle" x="58" y="-31" font-family="Helvetica,sans-Serif" font-size="10.00">::Sequence::insertLast</text>
</g>
<!-- Node2 -->
<g id="node2" class="node"><title>Node2</title>
<g id="a_node2"><a xlink:href="classRa_1_1Core_1_1Animation_1_1Sequence.html#aa16e3c62fde856853caf4e5078787fc3" target="_top" xlink:title="INSERT POSE. ">
<polygon fill="white" stroke="black" points="152,-49 152,-79 276,-79 276,-49 152,-49"/>
<text text-anchor="start" x="160" y="-67" font-family="Helvetica,sans-Serif" font-size="10.00">Ra::Core::Animation</text>
<text text-anchor="middle" x="214" y="-56" font-family="Helvetica,sans-Serif" font-size="10.00">::Sequence::insertFrame</text>
</a>
</g>
</g>
<!-- Node1&#45;&gt;Node2 -->
<g id="edge1" class="edge"><title>Node1&#45;&gt;Node2</title>
<path fill="none" stroke="midnightblue" d="M115.906,-48.238C124.343,-49.6077 133.126,-51.0335 141.81,-52.4432"/>
<polygon fill="midnightblue" stroke="midnightblue" points="141.5,-55.9387 151.932,-54.0864 142.622,-49.0291 141.5,-55.9387"/>
</g>
<!-- Node3 -->
<g id="node3" class="node"><title>Node3</title>
<g id="a_node3"><a xlink:href="classRa_1_1Core_1_1Animation_1_1Sequence.html#a1d4522bf10d00c9460c90d942be875e1" target="_top" xlink:title="SIZE INTERFACE. ">
<polygon fill="white" stroke="black" points="161,-0 161,-30 267,-30 267,-0 161,-0"/>
<text text-anchor="start" x="169" y="-18" font-family="Helvetica,sans-Serif" font-size="10.00">Ra::Core::Animation</text>
<text text-anchor="middle" x="214" y="-7" font-family="Helvetica,sans-Serif" font-size="10.00">::Sequence::size</text>
</a>
</g>
</g>
<!-- Node1&#45;&gt;Node3 -->
<g id="edge2" class="edge"><title>Node1&#45;&gt;Node3</title>
<path fill="none" stroke="midnightblue" d="M115.906,-30.1315C127.305,-28.3551 139.335,-26.4803 150.898,-24.6782"/>
<polygon fill="midnightblue" stroke="midnightblue" points="151.571,-28.1157 160.913,-23.1175 150.493,-21.1991 151.571,-28.1157"/>
</g>
</g>
</svg>
