<?xml version="1.0" encoding="UTF-8" standalone="no"?>
<!DOCTYPE svg PUBLIC "-//W3C//DTD SVG 1.1//EN"
 "http://www.w3.org/Graphics/SVG/1.1/DTD/svg11.dtd">
<!-- Generated by graphviz version 2.36.0 (20140111.2315)
 -->
<!-- Title: Ra::IO::AssimpFileLoader::loadFile Pages: 1 -->
<svg width="916pt" height="1316pt"
 viewBox="0.00 0.00 916.00 1316.00" xmlns="http://www.w3.org/2000/svg" xmlns:xlink="http://www.w3.org/1999/xlink">
<g id="graph0" class="graph" transform="scale(1 1) rotate(0) translate(4 1312)">
<title>Ra::IO::AssimpFileLoader::loadFile</title>
<polygon fill="white" stroke="none" points="-4,4 -4,-1312 912,-1312 912,4 -4,4"/>
<!-- Node1 -->
<g id="node1" class="node"><title>Node1</title>
<polygon fill="#bfbfbf" stroke="black" points="0,-813 0,-843 130,-843 130,-813 0,-813"/>
<text text-anchor="start" x="8" y="-831" font-family="Helvetica,sans-Serif" font-size="10.00">Ra::IO::AssimpFileLoader</text>
<text text-anchor="middle" x="65" y="-820" font-family="Helvetica,sans-Serif" font-size="10.00">::loadFile</text>
</g>
<!-- Node2 -->
<g id="node2" class="node"><title>Node2</title>
<g id="a_node2"><a xlink:href="classRa_1_1Asset_1_1FileData.html#a0201d9bd6fb3db5a35a0c7436551bbeb" target="_top" xlink:title="QUERY. ">
<polygon fill="white" stroke="black" points="192,-1009 192,-1039 296,-1039 296,-1009 192,-1009"/>
<text text-anchor="start" x="200" y="-1027" font-family="Helvetica,sans-Serif" font-size="10.00">Ra::Asset::FileData</text>
<text text-anchor="middle" x="244" y="-1016" font-family="Helvetica,sans-Serif" font-size="10.00">::isInitialized</text>
</a>
</g>
</g>
<!-- Node1&#45;&gt;Node2 -->
<g id="edge1" class="edge"><title>Node1&#45;&gt;Node2</title>
<path fill="none" stroke="midnightblue" d="M70.653,-843.025C81.6787,-876.16 112.555,-955.976 166,-999 170.958,-1002.99 176.57,-1006.35 182.452,-1009.18"/>
<polygon fill="midnightblue" stroke="midnightblue" points="181.288,-1012.49 191.859,-1013.2 184.04,-1006.05 181.288,-1012.49"/>
</g>
<!-- Node3 -->
<g id="node3" class="node"><title>Node3</title>
<g id="a_node3"><a xlink:href="classRa_1_1Asset_1_1FileData.html#a7237dc97ec9e918a805480921e7ade5d" target="_top" xlink:title="FILENAME. ">
<polygon fill="white" stroke="black" points="192,-960 192,-990 296,-990 296,-960 192,-960"/>
<text text-anchor="start" x="200" y="-978" font-family="Helvetica,sans-Serif" font-size="10.00">Ra::Asset::FileData</text>
<text text-anchor="middle" x="244" y="-967" font-family="Helvetica,sans-Serif" font-size="10.00">::getFileName</text>
</a>
</g>
</g>
<!-- Node1&#45;&gt;Node3 -->
<g id="edge2" class="edge"><title>Node1&#45;&gt;Node3</title>
<path fill="none" stroke="midnightblue" d="M74.4182,-843.106C89.4799,-868.782 123.479,-920.969 166,-950 170.982,-953.402 176.458,-956.365 182.123,-958.942"/>
<polygon fill="midnightblue" stroke="midnightblue" points="181.2,-962.348 191.779,-962.923 183.868,-955.876 181.2,-962.348"/>
</g>
<!-- Node4 -->
<g id="node4" class="node"><title>Node4</title>
<g id="a_node4"><a xlink:href="classRa_1_1Asset_1_1FileData.html#ac84f529ecb4aeb7e2662dc1b7a245c4a" target="_top" xlink:title="Ra::Asset::FileData\l::isVerbose">
<polygon fill="white" stroke="black" points="192,-911 192,-941 296,-941 296,-911 192,-911"/>
<text text-anchor="start" x="200" y="-929" font-family="Helvetica,sans-Serif" font-size="10.00">Ra::Asset::FileData</text>
<text text-anchor="middle" x="244" y="-918" font-family="Helvetica,sans-Serif" font-size="10.00">::isVerbose</text>
</a>
</g>
</g>
<!-- Node1&#45;&gt;Node4 -->
<g id="edge3" class="edge"><title>Node1&#45;&gt;Node4</title>
<path fill="none" stroke="midnightblue" d="M83.2992,-843.294C102.396,-859.515 134.607,-884.964 166,-901 171.212,-903.662 176.766,-906.12 182.412,-908.369"/>
<polygon fill="midnightblue" stroke="midnightblue" points="181.366,-911.715 191.958,-911.957 183.828,-905.162 181.366,-911.715"/>
</g>
<!-- Node5 -->
<g id="node5" class="node"><title>Node5</title>
<g id="a_node5"><a xlink:href="namespaceRa_1_1Core_1_1StringUtils.html#aea7790545bad625f08d4b3ee3d1a3e3b" target="_top" xlink:title="Ra::Core::StringUtils\l::getDirName">
<polygon fill="white" stroke="black" points="190,-862 190,-892 298,-892 298,-862 190,-862"/>
<text text-anchor="start" x="198" y="-880" font-family="Helvetica,sans-Serif" font-size="10.00">Ra::Core::StringUtils</text>
<text text-anchor="middle" x="244" y="-869" font-family="Helvetica,sans-Serif" font-size="10.00">::getDirName</text>
</a>
</g>
</g>
<!-- Node1&#45;&gt;Node5 -->
<g id="edge4" class="edge"><title>Node1&#45;&gt;Node5</title>
<path fill="none" stroke="midnightblue" d="M120.55,-843.101C139.406,-848.322 160.686,-854.213 180.153,-859.602"/>
<polygon fill="midnightblue" stroke="midnightblue" points="179.273,-862.99 189.844,-862.285 181.141,-856.243 179.273,-862.99"/>
</g>
<!-- Node6 -->
<g id="node6" class="node"><title>Node6</title>
<g id="a_node6"><a xlink:href="classRa_1_1IO_1_1AssimpGeometryDataLoader.html#abc5f4416bbbf2315801dad9e9d425d0a" target="_top" xlink:title="Convert all the geometry data from scene into data. ">
<polygon fill="white" stroke="black" points="169.5,-813 169.5,-843 318.5,-843 318.5,-813 169.5,-813"/>
<text text-anchor="start" x="177.5" y="-831" font-family="Helvetica,sans-Serif" font-size="10.00">Ra::IO::AssimpGeometryData</text>
<text text-anchor="middle" x="244" y="-820" font-family="Helvetica,sans-Serif" font-size="10.00">Loader::loadData</text>
</a>
</g>
</g>
<!-- Node1&#45;&gt;Node6 -->
<g id="edge5" class="edge"><title>Node1&#45;&gt;Node6</title>
<path fill="none" stroke="midnightblue" d="M130.151,-828C139.624,-828 149.499,-828 159.296,-828"/>
<polygon fill="midnightblue" stroke="midnightblue" points="159.457,-831.5 169.457,-828 159.457,-824.5 159.457,-831.5"/>
</g>
<!-- Node18 -->
<g id="node18" class="node"><title>Node18</title>
<g id="a_node18"><a xlink:href="classRa_1_1IO_1_1AssimpHandleDataLoader.html#aabe2cfed294f45904b76446926d07aab" target="_top" xlink:title="LOAD. ">
<polygon fill="white" stroke="black" points="175.5,-764 175.5,-794 312.5,-794 312.5,-764 175.5,-764"/>
<text text-anchor="start" x="183.5" y="-782" font-family="Helvetica,sans-Serif" font-size="10.00">Ra::IO::AssimpHandleData</text>
<text text-anchor="middle" x="244" y="-771" font-family="Helvetica,sans-Serif" font-size="10.00">Loader::loadData</text>
</a>
</g>
</g>
<!-- Node1&#45;&gt;Node18 -->
<g id="edge17" class="edge"><title>Node1&#45;&gt;Node18</title>
<path fill="none" stroke="midnightblue" d="M120.55,-812.899C138.974,-807.798 159.712,-802.057 178.812,-796.77"/>
<polygon fill="midnightblue" stroke="midnightblue" points="179.926,-800.093 188.63,-794.052 178.059,-793.347 179.926,-800.093"/>
</g>
<!-- Node31 -->
<g id="node31" class="node"><title>Node31</title>
<g id="a_node31"><a xlink:href="classRa_1_1IO_1_1AssimpAnimationDataLoader.html#a1c2fc43e7c71c035dd075f762047fcc8" target="_top" xlink:title="LOADING. ">
<polygon fill="white" stroke="black" points="169.5,-529 169.5,-559 318.5,-559 318.5,-529 169.5,-529"/>
<text text-anchor="start" x="177.5" y="-547" font-family="Helvetica,sans-Serif" font-size="10.00">Ra::IO::AssimpAnimationData</text>
<text text-anchor="middle" x="244" y="-536" font-family="Helvetica,sans-Serif" font-size="10.00">Loader::loadData</text>
</a>
</g>
</g>
<!-- Node1&#45;&gt;Node31 -->
<g id="edge30" class="edge"><title>Node1&#45;&gt;Node31</title>
<path fill="none" stroke="midnightblue" d="M75.5163,-812.731C104.629,-766.02 192.653,-624.782 228.036,-568.01"/>
<polygon fill="midnightblue" stroke="midnightblue" points="231.118,-569.683 233.437,-559.345 225.177,-565.98 231.118,-569.683"/>
</g>
<!-- Node39 -->
<g id="node39" class="node"><title>Node39</title>
<g id="a_node39"><a xlink:href="classRa_1_1IO_1_1AssimpLightDataLoader.html#a43c5fcf69bc57b7789fd04a79ef2af43" target="_top" xlink:title="LOADING. ">
<polygon fill="white" stroke="black" points="166,-431 166,-461 322,-461 322,-431 166,-431"/>
<text text-anchor="start" x="174" y="-449" font-family="Helvetica,sans-Serif" font-size="10.00">Ra::IO::AssimpLightDataLoader</text>
<text text-anchor="middle" x="244" y="-438" font-family="Helvetica,sans-Serif" font-size="10.00">::loadData</text>
</a>
</g>
</g>
<!-- Node1&#45;&gt;Node39 -->
<g id="edge39" class="edge"><title>Node1&#45;&gt;Node39</title>
<path fill="none" stroke="midnightblue" d="M68.2397,-812.783C75.6719,-765.945 102.73,-621.007 166,-520 178.656,-499.796 198.024,-481.219 214.169,-467.731"/>
<polygon fill="midnightblue" stroke="midnightblue" points="216.707,-470.18 222.266,-461.161 212.296,-464.744 216.707,-470.18"/>
</g>
<!-- Node50 -->
<g id="node50" class="node"><title>Node50</title>
<g id="a_node50"><a xlink:href="classRa_1_1Asset_1_1FileData.html#a48ed7c01ec6ccc1cdacda01524b9c8fd" target="_top" xlink:title="Ra::Asset::FileData\l::displayInfo">
<polygon fill="white" stroke="black" points="192,-382 192,-412 296,-412 296,-382 192,-382"/>
<text text-anchor="start" x="200" y="-400" font-family="Helvetica,sans-Serif" font-size="10.00">Ra::Asset::FileData</text>
<text text-anchor="middle" x="244" y="-389" font-family="Helvetica,sans-Serif" font-size="10.00">::displayInfo</text>
</a>
</g>
</g>
<!-- Node1&#45;&gt;Node50 -->
<g id="edge51" class="edge"><title>Node1&#45;&gt;Node50</title>
<path fill="none" stroke="midnightblue" d="M67.7546,-812.903C75.7513,-746.54 110.753,-481.402 166,-422 170.695,-416.952 176.417,-412.921 182.601,-409.702"/>
<polygon fill="midnightblue" stroke="midnightblue" points="184.218,-412.813 191.925,-405.543 181.366,-406.42 184.218,-412.813"/>
</g>
<!-- Node7 -->
<g id="node7" class="node"><title>Node7</title>
<g id="a_node7"><a xlink:href="classRa_1_1IO_1_1AssimpGeometryDataLoader.html#a34824214a7bca1f664b3cce7fdef3e0d" target="_top" xlink:title="Return true if the given scene has geometry data. ">
<polygon fill="white" stroke="black" points="361.5,-1205 361.5,-1235 510.5,-1235 510.5,-1205 361.5,-1205"/>
<text text-anchor="start" x="369.5" y="-1223" font-family="Helvetica,sans-Serif" font-size="10.00">Ra::IO::AssimpGeometryData</text>
<text text-anchor="middle" x="436" y="-1212" font-family="Helvetica,sans-Serif" font-size="10.00">Loader::sceneHasGeometry</text>
</a>
</g>
</g>
<!-- Node6&#45;&gt;Node7 -->
<g id="edge6" class="edge"><title>Node6&#45;&gt;Node7</title>
<path fill="none" stroke="midnightblue" d="M310.728,-843.007C314.945,-845.796 318.781,-849.096 322,-853 405.47,-954.226 299.312,-1028.66 358,-1146 368.523,-1167.04 387.53,-1185.4 404.027,-1198.57"/>
<polygon fill="midnightblue" stroke="midnightblue" points="402.302,-1201.66 412.366,-1204.97 406.564,-1196.11 402.302,-1201.66"/>
</g>
<!-- Node9 -->
<g id="node9" class="node"><title>Node9</title>
<g id="a_node9"><a xlink:href="classRa_1_1IO_1_1AssimpGeometryDataLoader.html#a6405375dbe603f1a5866140c3ebefd75" target="_top" xlink:title="Fill data with all the GeometryData from scene. ">
<polygon fill="white" stroke="black" points="361.5,-1107 361.5,-1137 510.5,-1137 510.5,-1107 361.5,-1107"/>
<text text-anchor="start" x="369.5" y="-1125" font-family="Helvetica,sans-Serif" font-size="10.00">Ra::IO::AssimpGeometryData</text>
<text text-anchor="middle" x="436" y="-1114" font-family="Helvetica,sans-Serif" font-size="10.00">Loader::loadGeometryData</text>
</a>
</g>
</g>
<!-- Node6&#45;&gt;Node9 -->
<g id="edge8" class="edge"><title>Node6&#45;&gt;Node9</title>
<path fill="none" stroke="midnightblue" d="M308.283,-843.047C313.274,-845.822 317.943,-849.108 322,-853 355.183,-884.835 340.596,-907.436 358,-950 379.77,-1003.24 407.955,-1064.48 423.476,-1097.62"/>
<polygon fill="midnightblue" stroke="midnightblue" points="420.445,-1099.4 427.865,-1106.96 426.781,-1096.42 420.445,-1099.4"/>
</g>
<!-- Node8 -->
<g id="node8" class="node"><title>Node8</title>
<g id="a_node8"><a xlink:href="classRa_1_1IO_1_1AssimpGeometryDataLoader.html#aa36139f3ab669179345ac2fe95793348" target="_top" xlink:title="Return the number of AssImp geometry data in the given scene. ">
<polygon fill="white" stroke="black" points="561.5,-1254 561.5,-1284 710.5,-1284 710.5,-1254 561.5,-1254"/>
<text text-anchor="start" x="569.5" y="-1272" font-family="Helvetica,sans-Serif" font-size="10.00">Ra::IO::AssimpGeometryData</text>
<text text-anchor="middle" x="636" y="-1261" font-family="Helvetica,sans-Serif" font-size="10.00">Loader::sceneGeometrySize</text>
</a>
</g>
</g>
<!-- Node7&#45;&gt;Node8 -->
<g id="edge7" class="edge"><title>Node7&#45;&gt;Node8</title>
<path fill="none" stroke="midnightblue" d="M497.752,-1235.03C518.848,-1240.26 542.682,-1246.15 564.498,-1251.55"/>
<polygon fill="midnightblue" stroke="midnightblue" points="563.815,-1254.99 574.363,-1253.99 565.496,-1248.19 563.815,-1254.99"/>
</g>
<!-- Node10 -->
<g id="node10" class="node"><title>Node10</title>
<g id="a_node10"><a xlink:href="classRa_1_1IO_1_1AssimpGeometryDataLoader.html#afcf02a4baea0060c81f9fde8ca6a070b" target="_top" xlink:title="Fill data with the GeometryData from mesh. ">
<polygon fill="white" stroke="red" points="561.5,-1205 561.5,-1235 710.5,-1235 710.5,-1205 561.5,-1205"/>
<text text-anchor="start" x="569.5" y="-1223" font-family="Helvetica,sans-Serif" font-size="10.00">Ra::IO::AssimpGeometryData</text>
<text text-anchor="middle" x="636" y="-1212" font-family="Helvetica,sans-Serif" font-size="10.00">Loader::loadMeshData</text>
</a>
</g>
</g>
<!-- Node9&#45;&gt;Node10 -->
<g id="edge9" class="edge"><title>Node9&#45;&gt;Node10</title>
<path fill="none" stroke="midnightblue" d="M456.405,-1137.03C478.152,-1153.26 514.968,-1178.94 550,-1195 555.069,-1197.32 560.406,-1199.49 565.835,-1201.5"/>
<polygon fill="midnightblue" stroke="midnightblue" points="565.072,-1204.94 575.667,-1204.94 567.385,-1198.33 565.072,-1204.94"/>
</g>
<!-- Node15 -->
<g id="node15" class="node"><title>Node15</title>
<g id="a_node15"><a xlink:href="classRa_1_1IO_1_1AssimpGeometryDataLoader.html#ab38389f07aecc7c690d899fbafe8082e" target="_top" xlink:title="Fill data with the Material data from material. ">
<polygon fill="white" stroke="red" points="561.5,-1156 561.5,-1186 710.5,-1186 710.5,-1156 561.5,-1156"/>
<text text-anchor="start" x="569.5" y="-1174" font-family="Helvetica,sans-Serif" font-size="10.00">Ra::IO::AssimpGeometryData</text>
<text text-anchor="middle" x="636" y="-1163" font-family="Helvetica,sans-Serif" font-size="10.00">Loader::loadMaterial</text>
</a>
</g>
</g>
<!-- Node9&#45;&gt;Node15 -->
<g id="edge14" class="edge"><title>Node9&#45;&gt;Node15</title>
<path fill="none" stroke="midnightblue" d="M497.752,-1137.03C518.848,-1142.26 542.682,-1148.15 564.498,-1153.55"/>
<polygon fill="midnightblue" stroke="midnightblue" points="563.815,-1156.99 574.363,-1155.99 565.496,-1150.19 563.815,-1156.99"/>
</g>
<!-- Node16 -->
<g id="node16" class="node"><title>Node16</title>
<g id="a_node16"><a xlink:href="classRa_1_1Asset_1_1GeometryData.html#a7c2ca971fb4250bb0e2cb85c482806ec" target="_top" xlink:title="Print stast info to the Debug output. ">
<polygon fill="white" stroke="red" points="570.5,-1107 570.5,-1137 701.5,-1137 701.5,-1107 570.5,-1107"/>
<text text-anchor="start" x="578.5" y="-1125" font-family="Helvetica,sans-Serif" font-size="10.00">Ra::Asset::GeometryData</text>
<text text-anchor="middle" x="636" y="-1114" font-family="Helvetica,sans-Serif" font-size="10.00">::displayInfo</text>
</a>
</g>
</g>
<!-- Node9&#45;&gt;Node16 -->
<g id="edge15" class="edge"><title>Node9&#45;&gt;Node16</title>
<path fill="none" stroke="midnightblue" d="M510.728,-1122C526.782,-1122 543.787,-1122 559.894,-1122"/>
<polygon fill="midnightblue" stroke="midnightblue" points="560.33,-1125.5 570.33,-1122 560.33,-1118.5 560.33,-1125.5"/>
</g>
<!-- Node17 -->
<g id="node17" class="node"><title>Node17</title>
<g id="a_node17"><a xlink:href="classRa_1_1IO_1_1AssimpGeometryDataLoader.html#a79e957b025386a0d911e985e53136d71" target="_top" xlink:title="Fill data with the transformation data from node and parentFrame. ">
<polygon fill="white" stroke="red" points="561.5,-1058 561.5,-1088 710.5,-1088 710.5,-1058 561.5,-1058"/>
<text text-anchor="start" x="569.5" y="-1076" font-family="Helvetica,sans-Serif" font-size="10.00">Ra::IO::AssimpGeometryData</text>
<text text-anchor="middle" x="636" y="-1065" font-family="Helvetica,sans-Serif" font-size="10.00">Loader::loadMeshFrame</text>
</a>
</g>
</g>
<!-- Node9&#45;&gt;Node17 -->
<g id="edge16" class="edge"><title>Node9&#45;&gt;Node17</title>
<path fill="none" stroke="midnightblue" d="M497.752,-1106.97C518.848,-1101.74 542.682,-1095.85 564.498,-1090.45"/>
<polygon fill="midnightblue" stroke="midnightblue" points="565.496,-1093.81 574.363,-1088.01 563.815,-1087.01 565.496,-1093.81"/>
</g>
<!-- Node11 -->
<g id="node11" class="node"><title>Node11</title>
<g id="a_node11"><a xlink:href="classRa_1_1IO_1_1AssimpGeometryDataLoader.html#a52df2ebcfac6c77d72d725f6833bccc8" target="_top" xlink:title="Fill data with the name from mesh. ">
<polygon fill="white" stroke="red" points="758.5,-1278 758.5,-1308 907.5,-1308 907.5,-1278 758.5,-1278"/>
<text text-anchor="start" x="766.5" y="-1296" font-family="Helvetica,sans-Serif" font-size="10.00">Ra::IO::AssimpGeometryData</text>
<text text-anchor="middle" x="833" y="-1285" font-family="Helvetica,sans-Serif" font-size="10.00">Loader::fetchName</text>
</a>
</g>
</g>
<!-- Node10&#45;&gt;Node11 -->
<g id="edge10" class="edge"><title>Node10&#45;&gt;Node11</title>
<path fill="none" stroke="midnightblue" d="M696.316,-1235.1C705.077,-1238 713.881,-1241.3 722,-1245 739.28,-1252.87 740.88,-1259.79 758,-1268 762.62,-1270.22 767.487,-1272.32 772.43,-1274.3"/>
<polygon fill="midnightblue" stroke="midnightblue" points="771.389,-1277.65 781.98,-1277.95 773.888,-1271.11 771.389,-1277.65"/>
</g>
<!-- Node12 -->
<g id="node12" class="node"><title>Node12</title>
<g id="a_node12"><a xlink:href="classRa_1_1IO_1_1AssimpGeometryDataLoader.html#a0da619e2173b7a422405fd1d2767af42" target="_top" xlink:title="Fill data with the GeometryType from mesh. ">
<polygon fill="white" stroke="red" points="758.5,-1229 758.5,-1259 907.5,-1259 907.5,-1229 758.5,-1229"/>
<text text-anchor="start" x="766.5" y="-1247" font-family="Helvetica,sans-Serif" font-size="10.00">Ra::IO::AssimpGeometryData</text>
<text text-anchor="middle" x="833" y="-1236" font-family="Helvetica,sans-Serif" font-size="10.00">Loader::fetchType</text>
</a>
</g>
</g>
<!-- Node10&#45;&gt;Node12 -->
<g id="edge11" class="edge"><title>Node10&#45;&gt;Node12</title>
<path fill="none" stroke="midnightblue" d="M710.721,-1229.07C723.061,-1230.59 735.942,-1232.18 748.506,-1233.72"/>
<polygon fill="midnightblue" stroke="midnightblue" points="748.145,-1237.21 758.498,-1234.95 749.001,-1230.26 748.145,-1237.21"/>
</g>
<!-- Node13 -->
<g id="node13" class="node"><title>Node13</title>
<g id="a_node13"><a xlink:href="classRa_1_1IO_1_1AssimpGeometryDataLoader.html#ad369689491711d63ac789df228f4db94" target="_top" xlink:title="Fill data with the vertices from mesh. ">
<polygon fill="white" stroke="red" points="758.5,-1180 758.5,-1210 907.5,-1210 907.5,-1180 758.5,-1180"/>
<text text-anchor="start" x="766.5" y="-1198" font-family="Helvetica,sans-Serif" font-size="10.00">Ra::IO::AssimpGeometryData</text>
<text text-anchor="middle" x="833" y="-1187" font-family="Helvetica,sans-Serif" font-size="10.00">Loader::fetchVertices</text>
</a>
</g>
</g>
<!-- Node10&#45;&gt;Node13 -->
<g id="edge12" class="edge"><title>Node10&#45;&gt;Node13</title>
<path fill="none" stroke="midnightblue" d="M710.721,-1210.55C723.061,-1208.97 735.942,-1207.32 748.506,-1205.7"/>
<polygon fill="midnightblue" stroke="midnightblue" points="749.024,-1209.17 758.498,-1204.42 748.134,-1202.22 749.024,-1209.17"/>
</g>
<!-- Node14 -->
<g id="node14" class="node"><title>Node14</title>
<g id="a_node14"><a xlink:href="classRa_1_1Asset_1_1GeometryData.html#aedb628595b4768888ea0c02c37242ef7" target="_top" xlink:title="Return true if the object is a Line Mesh. ">
<polygon fill="white" stroke="black" points="767.5,-1131 767.5,-1161 898.5,-1161 898.5,-1131 767.5,-1131"/>
<text text-anchor="start" x="775.5" y="-1149" font-family="Helvetica,sans-Serif" font-size="10.00">Ra::Asset::GeometryData</text>
<text text-anchor="middle" x="833" y="-1138" font-family="Helvetica,sans-Serif" font-size="10.00">::isLineMesh</text>
</a>
</g>
</g>
<!-- Node10&#45;&gt;Node14 -->
<g id="edge13" class="edge"><title>Node10&#45;&gt;Node14</title>
<path fill="none" stroke="midnightblue" d="M696.834,-1204.89C705.436,-1202.01 714.056,-1198.71 722,-1195 739.422,-1186.86 740.743,-1179.48 758,-1171 762.524,-1168.78 767.294,-1166.67 772.144,-1164.7"/>
<polygon fill="midnightblue" stroke="midnightblue" points="773.462,-1167.94 781.524,-1161.07 770.935,-1161.41 773.462,-1167.94"/>
</g>
<!-- Node19 -->
<g id="node19" class="node"><title>Node19</title>
<g id="a_node19"><a xlink:href="classRa_1_1IO_1_1AssimpHandleDataLoader.html#adb8537824f65bbf5681e3c412865aafa" target="_top" xlink:title="QUERY. ">
<polygon fill="white" stroke="black" points="367.5,-911 367.5,-941 504.5,-941 504.5,-911 367.5,-911"/>
<text text-anchor="start" x="375.5" y="-929" font-family="Helvetica,sans-Serif" font-size="10.00">Ra::IO::AssimpHandleData</text>
<text text-anchor="middle" x="436" y="-918" font-family="Helvetica,sans-Serif" font-size="10.00">Loader::sceneHasHandle</text>
</a>
</g>
</g>
<!-- Node18&#45;&gt;Node19 -->
<g id="edge18" class="edge"><title>Node18&#45;&gt;Node19</title>
<path fill="none" stroke="midnightblue" d="M302.834,-794.158C309.534,-796.955 316.079,-800.215 322,-804 363.264,-830.38 399.46,-875.37 419.185,-902.722"/>
<polygon fill="midnightblue" stroke="midnightblue" points="416.364,-904.795 424.997,-910.937 422.079,-900.752 416.364,-904.795"/>
</g>
<!-- Node21 -->
<g id="node21" class="node"><title>Node21</title>
<g id="a_node21"><a xlink:href="classRa_1_1IO_1_1AssimpHandleDataLoader.html#a5658fd82502d36f0d8e9e935a2cb7ae6" target="_top" xlink:title="LOAD. ">
<polygon fill="white" stroke="black" points="367.5,-764 367.5,-794 504.5,-794 504.5,-764 367.5,-764"/>
<text text-anchor="start" x="375.5" y="-782" font-family="Helvetica,sans-Serif" font-size="10.00">Ra::IO::AssimpHandleData</text>
<text text-anchor="middle" x="436" y="-771" font-family="Helvetica,sans-Serif" font-size="10.00">Loader::loadHandleData</text>
</a>
</g>
</g>
<!-- Node18&#45;&gt;Node21 -->
<g id="edge20" class="edge"><title>Node18&#45;&gt;Node21</title>
<path fill="none" stroke="midnightblue" d="M312.522,-779C326.995,-779 342.398,-779 357.223,-779"/>
<polygon fill="midnightblue" stroke="midnightblue" points="357.376,-782.5 367.376,-779 357.376,-775.5 357.376,-782.5"/>
</g>
<!-- Node20 -->
<g id="node20" class="node"><title>Node20</title>
<g id="a_node20"><a xlink:href="classRa_1_1IO_1_1AssimpHandleDataLoader.html#a490e0e5bd008f42af1cf31af678bec27" target="_top" xlink:title="Ra::IO::AssimpHandleData\lLoader::sceneHandleSize">
<polygon fill="white" stroke="black" points="567.5,-1009 567.5,-1039 704.5,-1039 704.5,-1009 567.5,-1009"/>
<text text-anchor="start" x="575.5" y="-1027" font-family="Helvetica,sans-Serif" font-size="10.00">Ra::IO::AssimpHandleData</text>
<text text-anchor="middle" x="636" y="-1016" font-family="Helvetica,sans-Serif" font-size="10.00">Loader::sceneHandleSize</text>
</a>
</g>
</g>
<!-- Node19&#45;&gt;Node20 -->
<g id="edge19" class="edge"><title>Node19&#45;&gt;Node20</title>
<path fill="none" stroke="midnightblue" d="M456.405,-941.027C478.152,-957.258 514.968,-982.942 550,-999 555.069,-1001.32 560.406,-1003.49 565.835,-1005.5"/>
<polygon fill="midnightblue" stroke="midnightblue" points="565.072,-1008.94 575.667,-1008.94 567.385,-1002.33 565.072,-1008.94"/>
</g>
<!-- Node22 -->
<g id="node22" class="node"><title>Node22</title>
<g id="a_node22"><a xlink:href="classRa_1_1IO_1_1AssimpHandleDataLoader.html#a19b7ea207946b06952e15bff627d4887" target="_top" xlink:title="NAME. ">
<polygon fill="white" stroke="red" points="567.5,-960 567.5,-990 704.5,-990 704.5,-960 567.5,-960"/>
<text text-anchor="start" x="575.5" y="-978" font-family="Helvetica,sans-Serif" font-size="10.00">Ra::IO::AssimpHandleData</text>
<text text-anchor="middle" x="636" y="-967" font-family="Helvetica,sans-Serif" font-size="10.00">Loader::fetchName</text>
</a>
</g>
</g>
<!-- Node21&#45;&gt;Node22 -->
<g id="edge21" class="edge"><title>Node21&#45;&gt;Node22</title>
<path fill="none" stroke="midnightblue" d="M446.207,-794.193C470.449,-834.006 535.191,-939.055 550,-950 552.66,-951.966 555.472,-953.777 558.393,-955.447"/>
<polygon fill="midnightblue" stroke="midnightblue" points="556.935,-958.633 567.436,-960.043 560.107,-952.392 556.935,-958.633"/>
</g>
<!-- Node23 -->
<g id="node23" class="node"><title>Node23</title>
<g id="a_node23"><a xlink:href="classRa_1_1IO_1_1AssimpHandleDataLoader.html#aba6ae2e060a45d0f6883cdbfa22cbee6" target="_top" xlink:title="TYPE. ">
<polygon fill="white" stroke="red" points="567.5,-911 567.5,-941 704.5,-941 704.5,-911 567.5,-911"/>
<text text-anchor="start" x="575.5" y="-929" font-family="Helvetica,sans-Serif" font-size="10.00">Ra::IO::AssimpHandleData</text>
<text text-anchor="middle" x="636" y="-918" font-family="Helvetica,sans-Serif" font-size="10.00">Loader::fetchType</text>
</a>
</g>
</g>
<!-- Node21&#45;&gt;Node23 -->
<g id="edge22" class="edge"><title>Node21&#45;&gt;Node23</title>
<path fill="none" stroke="midnightblue" d="M446.918,-794.198C464.55,-820.014 503.867,-872.406 550,-901 553.36,-903.083 556.903,-905 560.557,-906.762"/>
<polygon fill="midnightblue" stroke="midnightblue" points="559.267,-910.018 569.83,-910.834 562.081,-903.609 559.267,-910.018"/>
</g>
<!-- Node24 -->
<g id="node24" class="node"><title>Node24</title>
<g id="a_node24"><a xlink:href="classRa_1_1IO_1_1AssimpHandleDataLoader.html#a46e6b0b9e109dd74e6bd619592678545" target="_top" xlink:title="Ra::IO::AssimpHandleData\lLoader::loadHandleComponentData">
<polygon fill="white" stroke="red" points="550,-862 550,-892 722,-892 722,-862 550,-862"/>
<text text-anchor="start" x="558" y="-880" font-family="Helvetica,sans-Serif" font-size="10.00">Ra::IO::AssimpHandleData</text>
<text text-anchor="middle" x="636" y="-869" font-family="Helvetica,sans-Serif" font-size="10.00">Loader::loadHandleComponentData</text>
</a>
</g>
</g>
<!-- Node21&#45;&gt;Node24 -->
<g id="edge23" class="edge"><title>Node21&#45;&gt;Node24</title>
<path fill="none" stroke="midnightblue" d="M456.405,-794.027C478.152,-810.258 514.968,-835.942 550,-852 555.069,-854.324 560.406,-856.49 565.835,-858.498"/>
<polygon fill="midnightblue" stroke="midnightblue" points="565.072,-861.939 575.667,-861.94 567.385,-855.332 565.072,-861.939"/>
</g>
<!-- Node25 -->
<g id="node25" class="node"><title>Node25</title>
<g id="a_node25"><a xlink:href="classRa_1_1IO_1_1AssimpHandleDataLoader.html#af3185635871638d8bc19e85d0c978f80" target="_top" xlink:title="Ra::IO::AssimpHandleData\lLoader::loadHandleTopologyData">
<polygon fill="white" stroke="red" points="555.5,-813 555.5,-843 716.5,-843 716.5,-813 555.5,-813"/>
<text text-anchor="start" x="563.5" y="-831" font-family="Helvetica,sans-Serif" font-size="10.00">Ra::IO::AssimpHandleData</text>
<text text-anchor="middle" x="636" y="-820" font-family="Helvetica,sans-Serif" font-size="10.00">Loader::loadHandleTopologyData</text>
</a>
</g>
</g>
<!-- Node21&#45;&gt;Node25 -->
<g id="edge24" class="edge"><title>Node21&#45;&gt;Node25</title>
<path fill="none" stroke="midnightblue" d="M497.752,-794.035C518.848,-799.255 542.682,-805.154 564.498,-810.553"/>
<polygon fill="midnightblue" stroke="midnightblue" points="563.815,-813.989 574.363,-812.994 565.496,-807.194 563.815,-813.989"/>
</g>
<!-- Node26 -->
<g id="node26" class="node"><title>Node26</title>
<g id="a_node26"><a xlink:href="classRa_1_1IO_1_1AssimpHandleDataLoader.html#a6deb78de76d1650cbb521a7c9c85a86e" target="_top" xlink:title="VERTEX SIZE. ">
<polygon fill="white" stroke="red" points="567.5,-764 567.5,-794 704.5,-794 704.5,-764 567.5,-764"/>
<text text-anchor="start" x="575.5" y="-782" font-family="Helvetica,sans-Serif" font-size="10.00">Ra::IO::AssimpHandleData</text>
<text text-anchor="middle" x="636" y="-771" font-family="Helvetica,sans-Serif" font-size="10.00">Loader::fetchVertexSize</text>
</a>
</g>
</g>
<!-- Node21&#45;&gt;Node26 -->
<g id="edge25" class="edge"><title>Node21&#45;&gt;Node26</title>
<path fill="none" stroke="midnightblue" d="M504.587,-779C521.537,-779 539.858,-779 557.26,-779"/>
<polygon fill="midnightblue" stroke="midnightblue" points="557.382,-782.5 567.382,-779 557.382,-775.5 557.382,-782.5"/>
</g>
<!-- Node27 -->
<g id="node27" class="node"><title>Node27</title>
<g id="a_node27"><a xlink:href="classRa_1_1Asset_1_1HandleData.html#adeb89ae26f34f0878a089ed7ecd64e24" target="_top" xlink:title="Ra::Asset::HandleData\l::getComponentData">
<polygon fill="white" stroke="black" points="576.5,-715 576.5,-745 695.5,-745 695.5,-715 576.5,-715"/>
<text text-anchor="start" x="584.5" y="-733" font-family="Helvetica,sans-Serif" font-size="10.00">Ra::Asset::HandleData</text>
<text text-anchor="middle" x="636" y="-722" font-family="Helvetica,sans-Serif" font-size="10.00">::getComponentData</text>
</a>
</g>
</g>
<!-- Node21&#45;&gt;Node27 -->
<g id="edge26" class="edge"><title>Node21&#45;&gt;Node27</title>
<path fill="none" stroke="midnightblue" d="M497.752,-763.965C519.537,-758.574 544.243,-752.46 566.63,-746.92"/>
<polygon fill="midnightblue" stroke="midnightblue" points="567.533,-750.302 576.399,-744.502 565.851,-743.507 567.533,-750.302"/>
</g>
<!-- Node28 -->
<g id="node28" class="node"><title>Node28</title>
<g id="a_node28"><a xlink:href="namespaceRa_1_1Core_1_1Algorithm.html#aea294cdb6f4f0d85955bdcccb22886ec" target="_top" xlink:title="Ra::Core::Algorithm::t">
<polygon fill="white" stroke="black" points="579.5,-676.5 579.5,-695.5 692.5,-695.5 692.5,-676.5 579.5,-676.5"/>
<text text-anchor="middle" x="636" y="-683.5" font-family="Helvetica,sans-Serif" font-size="10.00">Ra::Core::Algorithm::t</text>
</a>
</g>
</g>
<!-- Node21&#45;&gt;Node28 -->
<g id="edge27" class="edge"><title>Node21&#45;&gt;Node28</title>
<path fill="none" stroke="midnightblue" d="M455.851,-763.905C477.403,-747.369 514.325,-721.181 550,-706 557.062,-702.995 564.655,-700.396 572.293,-698.161"/>
<polygon fill="midnightblue" stroke="midnightblue" points="573.231,-701.533 581.954,-695.52 571.385,-694.78 573.231,-701.533"/>
</g>
<!-- Node29 -->
<g id="node29" class="node"><title>Node29</title>
<g id="a_node29"><a xlink:href="classRa_1_1Asset_1_1HandleData.html#a8d76fcc29440acb7fe3489f4c0fd9914" target="_top" xlink:title="DEBUG. ">
<polygon fill="white" stroke="black" points="576.5,-627 576.5,-657 695.5,-657 695.5,-627 576.5,-627"/>
<text text-anchor="start" x="584.5" y="-645" font-family="Helvetica,sans-Serif" font-size="10.00">Ra::Asset::HandleData</text>
<text text-anchor="middle" x="636" y="-634" font-family="Helvetica,sans-Serif" font-size="10.00">::displayInfo</text>
</a>
</g>
</g>
<!-- Node21&#45;&gt;Node29 -->
<g id="edge28" class="edge"><title>Node21&#45;&gt;Node29</title>
<path fill="none" stroke="midnightblue" d="M448.101,-763.93C466.582,-739.905 506.001,-692.987 550,-667 555.176,-663.943 560.752,-661.237 566.486,-658.846"/>
<polygon fill="midnightblue" stroke="midnightblue" points="568.153,-661.955 576.241,-655.112 565.651,-655.418 568.153,-661.955"/>
</g>
<!-- Node30 -->
<g id="node30" class="node"><title>Node30</title>
<g id="a_node30"><a xlink:href="classRa_1_1IO_1_1AssimpHandleDataLoader.html#acc34e56d68b6b1094a993eaa8730cdb2" target="_top" xlink:title="Ra::IO::AssimpHandleData\lLoader::loadHandleFrame">
<polygon fill="white" stroke="red" points="567.5,-578 567.5,-608 704.5,-608 704.5,-578 567.5,-578"/>
<text text-anchor="start" x="575.5" y="-596" font-family="Helvetica,sans-Serif" font-size="10.00">Ra::IO::AssimpHandleData</text>
<text text-anchor="middle" x="636" y="-585" font-family="Helvetica,sans-Serif" font-size="10.00">Loader::loadHandleFrame</text>
</a>
</g>
</g>
<!-- Node21&#45;&gt;Node30 -->
<g id="edge29" class="edge"><title>Node21&#45;&gt;Node30</title>
<path fill="none" stroke="midnightblue" d="M443.53,-763.537C457.89,-731.419 495.343,-657.221 550,-618 552.687,-616.072 555.522,-614.291 558.462,-612.647"/>
<polygon fill="midnightblue" stroke="midnightblue" points="560.164,-615.709 567.549,-608.112 557.039,-609.446 560.164,-615.709"/>
</g>
<!-- Node32 -->
<g id="node32" class="node"><title>Node32</title>
<g id="a_node32"><a xlink:href="classRa_1_1IO_1_1AssimpAnimationDataLoader.html#a055e8ed9642a4a6131e6342e0855ef2b" target="_top" xlink:title="QUERY. ">
<polygon fill="white" stroke="black" points="361.5,-529 361.5,-559 510.5,-559 510.5,-529 361.5,-529"/>
<text text-anchor="start" x="369.5" y="-547" font-family="Helvetica,sans-Serif" font-size="10.00">Ra::IO::AssimpAnimationData</text>
<text text-anchor="middle" x="436" y="-536" font-family="Helvetica,sans-Serif" font-size="10.00">Loader::sceneHasAnimation</text>
</a>
</g>
</g>
<!-- Node31&#45;&gt;Node32 -->
<g id="edge31" class="edge"><title>Node31&#45;&gt;Node32</title>
<path fill="none" stroke="midnightblue" d="M318.731,-544C329.323,-544 340.288,-544 351.06,-544"/>
<polygon fill="midnightblue" stroke="midnightblue" points="351.311,-547.5 361.311,-544 351.311,-540.5 351.311,-547.5"/>
</g>
<!-- Node34 -->
<g id="node34" class="node"><title>Node34</title>
<g id="a_node34"><a xlink:href="classRa_1_1IO_1_1AssimpAnimationDataLoader.html#adf29077c0960683885c150703e49740f" target="_top" xlink:title="KEY FRAME. ">
<polygon fill="white" stroke="black" points="361.5,-480 361.5,-510 510.5,-510 510.5,-480 361.5,-480"/>
<text text-anchor="start" x="369.5" y="-498" font-family="Helvetica,sans-Serif" font-size="10.00">Ra::IO::AssimpAnimationData</text>
<text text-anchor="middle" x="436" y="-487" font-family="Helvetica,sans-Serif" font-size="10.00">Loader::loadAnimationData</text>
</a>
</g>
</g>
<!-- Node31&#45;&gt;Node34 -->
<g id="edge33" class="edge"><title>Node31&#45;&gt;Node34</title>
<path fill="none" stroke="midnightblue" d="M303.297,-528.965C323.45,-523.768 346.206,-517.899 367.064,-512.52"/>
<polygon fill="midnightblue" stroke="midnightblue" points="368.004,-515.893 376.813,-510.006 366.256,-509.114 368.004,-515.893"/>
</g>
<!-- Node33 -->
<g id="node33" class="node"><title>Node33</title>
<g id="a_node33"><a xlink:href="classRa_1_1IO_1_1AssimpAnimationDataLoader.html#ab0bc77b937a09f8e770b8826d526f980" target="_top" xlink:title="Ra::IO::AssimpAnimationData\lLoader::sceneAnimationSize">
<polygon fill="white" stroke="black" points="561.5,-529 561.5,-559 710.5,-559 710.5,-529 561.5,-529"/>
<text text-anchor="start" x="569.5" y="-547" font-family="Helvetica,sans-Serif" font-size="10.00">Ra::IO::AssimpAnimationData</text>
<text text-anchor="middle" x="636" y="-536" font-family="Helvetica,sans-Serif" font-size="10.00">Loader::sceneAnimationSize</text>
</a>
</g>
</g>
<!-- Node32&#45;&gt;Node33 -->
<g id="edge32" class="edge"><title>Node32&#45;&gt;Node33</title>
<path fill="none" stroke="midnightblue" d="M510.728,-544C523.87,-544 537.65,-544 551.052,-544"/>
<polygon fill="midnightblue" stroke="midnightblue" points="551.211,-547.5 561.211,-544 551.21,-540.5 551.211,-547.5"/>
</g>
<!-- Node34&#45;&gt;Node33 -->
<g id="edge34" class="edge"><title>Node34&#45;&gt;Node33</title>
<path fill="none" stroke="midnightblue" d="M497.752,-510.035C518.848,-515.255 542.682,-521.154 564.498,-526.553"/>
<polygon fill="midnightblue" stroke="midnightblue" points="563.815,-529.989 574.363,-528.994 565.496,-523.194 563.815,-529.989"/>
</g>
<!-- Node35 -->
<g id="node35" class="node"><title>Node35</title>
<g id="a_node35"><a xlink:href="classRa_1_1IO_1_1AssimpAnimationDataLoader.html#ae6d5be5f9895033f807047b305b79ef8" target="_top" xlink:title="NAME. ">
<polygon fill="white" stroke="red" points="561.5,-480 561.5,-510 710.5,-510 710.5,-480 561.5,-480"/>
<text text-anchor="start" x="569.5" y="-498" font-family="Helvetica,sans-Serif" font-size="10.00">Ra::IO::AssimpAnimationData</text>
<text text-anchor="middle" x="636" y="-487" font-family="Helvetica,sans-Serif" font-size="10.00">Loader::fetchName</text>
</a>
</g>
</g>
<!-- Node34&#45;&gt;Node35 -->
<g id="edge35" class="edge"><title>Node34&#45;&gt;Node35</title>
<path fill="none" stroke="midnightblue" d="M510.728,-495C523.87,-495 537.65,-495 551.052,-495"/>
<polygon fill="midnightblue" stroke="midnightblue" points="551.211,-498.5 561.211,-495 551.21,-491.5 551.211,-498.5"/>
</g>
<!-- Node36 -->
<g id="node36" class="node"><title>Node36</title>
<g id="a_node36"><a xlink:href="classRa_1_1IO_1_1AssimpAnimationDataLoader.html#a27689dc210ccf9597f87e330a97f8e9a" target="_top" xlink:title="TIME. ">
<polygon fill="white" stroke="red" points="561.5,-431 561.5,-461 710.5,-461 710.5,-431 561.5,-431"/>
<text text-anchor="start" x="569.5" y="-449" font-family="Helvetica,sans-Serif" font-size="10.00">Ra::IO::AssimpAnimationData</text>
<text text-anchor="middle" x="636" y="-438" font-family="Helvetica,sans-Serif" font-size="10.00">Loader::fetchTime</text>
</a>
</g>
</g>
<!-- Node34&#45;&gt;Node36 -->
<g id="edge36" class="edge"><title>Node34&#45;&gt;Node36</title>
<path fill="none" stroke="midnightblue" d="M497.752,-479.965C518.848,-474.745 542.682,-468.846 564.498,-463.447"/>
<polygon fill="midnightblue" stroke="midnightblue" points="565.496,-466.806 574.363,-461.006 563.815,-460.011 565.496,-466.806"/>
</g>
<!-- Node37 -->
<g id="node37" class="node"><title>Node37</title>
<g id="a_node37"><a xlink:href="classRa_1_1IO_1_1AssimpAnimationDataLoader.html#aa0ff91f44c0889489ef1370d4d041bfd" target="_top" xlink:title="Ra::IO::AssimpAnimationData\lLoader::fetchAnimation">
<polygon fill="white" stroke="red" points="561.5,-382 561.5,-412 710.5,-412 710.5,-382 561.5,-382"/>
<text text-anchor="start" x="569.5" y="-400" font-family="Helvetica,sans-Serif" font-size="10.00">Ra::IO::AssimpAnimationData</text>
<text text-anchor="middle" x="636" y="-389" font-family="Helvetica,sans-Serif" font-size="10.00">Loader::fetchAnimation</text>
</a>
</g>
</g>
<!-- Node34&#45;&gt;Node37 -->
<g id="edge37" class="edge"><title>Node34&#45;&gt;Node37</title>
<path fill="none" stroke="midnightblue" d="M496.421,-479.9C502.63,-477.115 508.626,-473.842 514,-470 535.694,-454.492 528.092,-437.204 550,-422 552.867,-420.01 555.893,-418.177 559.029,-416.488"/>
<polygon fill="midnightblue" stroke="midnightblue" points="560.629,-419.602 568.109,-412.099 557.583,-413.299 560.629,-419.602"/>
</g>
<!-- Node38 -->
<g id="node38" class="node"><title>Node38</title>
<g id="a_node38"><a xlink:href="classRa_1_1Asset_1_1AnimationData.html#a69850f70524d5c5b7d549a8837edd28b" target="_top" xlink:title="DEBUG. ">
<polygon fill="white" stroke="red" points="570.5,-333 570.5,-363 701.5,-363 701.5,-333 570.5,-333"/>
<text text-anchor="start" x="578.5" y="-351" font-family="Helvetica,sans-Serif" font-size="10.00">Ra::Asset::AnimationData</text>
<text text-anchor="middle" x="636" y="-340" font-family="Helvetica,sans-Serif" font-size="10.00">::displayInfo</text>
</a>
</g>
</g>
<!-- Node34&#45;&gt;Node38 -->
<g id="edge38" class="edge"><title>Node34&#45;&gt;Node38</title>
<path fill="none" stroke="midnightblue" d="M500.297,-479.967C505.285,-477.19 509.95,-473.899 514,-470 547.43,-437.82 515.953,-403.526 550,-372 553.382,-368.868 557.143,-366.141 561.145,-363.766"/>
<polygon fill="midnightblue" stroke="midnightblue" points="562.934,-366.782 570.242,-359.111 559.746,-360.551 562.934,-366.782"/>
</g>
<!-- Node40 -->
<g id="node40" class="node"><title>Node40</title>
<g id="a_node40"><a xlink:href="classRa_1_1IO_1_1AssimpLightDataLoader.html#a964e3a64503d5f97ff4dea2e159cecf3" target="_top" xlink:title="QUERY. ">
<polygon fill="white" stroke="black" points="358,-431 358,-461 514,-461 514,-431 358,-431"/>
<text text-anchor="start" x="366" y="-449" font-family="Helvetica,sans-Serif" font-size="10.00">Ra::IO::AssimpLightDataLoader</text>
<text text-anchor="middle" x="436" y="-438" font-family="Helvetica,sans-Serif" font-size="10.00">::sceneHasLight</text>
</a>
</g>
</g>
<!-- Node39&#45;&gt;Node40 -->
<g id="edge40" class="edge"><title>Node39&#45;&gt;Node40</title>
<path fill="none" stroke="midnightblue" d="M322.006,-446C330.509,-446 339.211,-446 347.827,-446"/>
<polygon fill="midnightblue" stroke="midnightblue" points="347.884,-449.5 357.884,-446 347.884,-442.5 347.884,-449.5"/>
</g>
<!-- Node41 -->
<g id="node41" class="node"><title>Node41</title>
<g id="a_node41"><a xlink:href="classRa_1_1IO_1_1AssimpLightDataLoader.html#a1e010b161ed6c5bfc3b067b669fa8a7f" target="_top" xlink:title="Ra::IO::AssimpLightDataLoader\l::sceneLightSize">
<polygon fill="white" stroke="black" points="358,-382 358,-412 514,-412 514,-382 358,-382"/>
<text text-anchor="start" x="366" y="-400" font-family="Helvetica,sans-Serif" font-size="10.00">Ra::IO::AssimpLightDataLoader</text>
<text text-anchor="middle" x="436" y="-389" font-family="Helvetica,sans-Serif" font-size="10.00">::sceneLightSize</text>
</a>
</g>
</g>
<!-- Node39&#45;&gt;Node41 -->
<g id="edge41" class="edge"><title>Node39&#45;&gt;Node41</title>
<path fill="none" stroke="midnightblue" d="M303.297,-430.965C323.45,-425.768 346.206,-419.899 367.064,-414.52"/>
<polygon fill="midnightblue" stroke="midnightblue" points="368.004,-417.893 376.813,-412.006 366.256,-411.114 368.004,-417.893"/>
</g>
<!-- Node42 -->
<g id="node42" class="node"><title>Node42</title>
<g id="a_node42"><a xlink:href="classRa_1_1IO_1_1AssimpLightDataLoader.html#a868cb11ca7a8d2e984d2829d37bbb6d3" target="_top" xlink:title="LOADING. ">
<polygon fill="white" stroke="black" points="358,-164 358,-194 514,-194 514,-164 358,-164"/>
<text text-anchor="start" x="366" y="-182" font-family="Helvetica,sans-Serif" font-size="10.00">Ra::IO::AssimpLightDataLoader</text>
<text text-anchor="middle" x="436" y="-171" font-family="Helvetica,sans-Serif" font-size="10.00">::loadLightData</text>
</a>
</g>
</g>
<!-- Node39&#45;&gt;Node42 -->
<g id="edge42" class="edge"><title>Node39&#45;&gt;Node42</title>
<path fill="none" stroke="midnightblue" d="M307.191,-430.994C312.533,-428.21 317.577,-424.91 322,-421 356.839,-390.2 406.452,-259.11 426.302,-203.789"/>
<polygon fill="midnightblue" stroke="midnightblue" points="429.7,-204.679 429.757,-194.084 423.106,-202.331 429.7,-204.679"/>
</g>
<!-- Node43 -->
<g id="node43" class="node"><title>Node43</title>
<g id="a_node43"><a xlink:href="classRa_1_1IO_1_1AssimpLightDataLoader.html#ab0f34b3dd64a21b095cefa5ed7c67cc0" target="_top" xlink:title="NAME. ">
<polygon fill="white" stroke="red" points="558,-284 558,-314 714,-314 714,-284 558,-284"/>
<text text-anchor="start" x="566" y="-302" font-family="Helvetica,sans-Serif" font-size="10.00">Ra::IO::AssimpLightDataLoader</text>
<text text-anchor="middle" x="636" y="-291" font-family="Helvetica,sans-Serif" font-size="10.00">::fetchName</text>
</a>
</g>
</g>
<!-- Node42&#45;&gt;Node43 -->
<g id="edge43" class="edge"><title>Node42&#45;&gt;Node43</title>
<path fill="none" stroke="midnightblue" d="M450.883,-194.075C470.874,-214.925 509.802,-252.426 550,-274 554.185,-276.246 558.596,-278.314 563.119,-280.214"/>
<polygon fill="midnightblue" stroke="midnightblue" points="561.934,-283.508 572.523,-283.881 564.478,-276.987 561.934,-283.508"/>
</g>
<!-- Node44 -->
<g id="node44" class="node"><title>Node44</title>
<g id="a_node44"><a xlink:href="classRa_1_1IO_1_1AssimpLightDataLoader.html#a2ff03465fa3aa3c0f8045007f3951a4f" target="_top" xlink:title="TYPE. ">
<polygon fill="white" stroke="red" points="558,-235 558,-265 714,-265 714,-235 558,-235"/>
<text text-anchor="start" x="566" y="-253" font-family="Helvetica,sans-Serif" font-size="10.00">Ra::IO::AssimpLightDataLoader</text>
<text text-anchor="middle" x="636" y="-242" font-family="Helvetica,sans-Serif" font-size="10.00">::fetchType</text>
</a>
</g>
</g>
<!-- Node42&#45;&gt;Node44 -->
<g id="edge44" class="edge"><title>Node42&#45;&gt;Node44</title>
<path fill="none" stroke="midnightblue" d="M471.275,-194.002C493.503,-203.469 523.207,-215.633 550,-225 556.788,-227.373 563.932,-229.713 571.075,-231.953"/>
<polygon fill="midnightblue" stroke="midnightblue" points="570.194,-235.344 580.781,-234.94 572.252,-228.654 570.194,-235.344"/>
</g>
<!-- Node45 -->
<g id="node45" class="node"><title>Node45</title>
<g id="a_node45"><a xlink:href="classRa_1_1IO_1_1AssimpLightDataLoader.html#aa43eb33e9f3c7ff480285dc0256bd943" target="_top" xlink:title="Ra::IO::AssimpLightDataLoader\l::loadLightFrame">
<polygon fill="white" stroke="black" points="558,-186 558,-216 714,-216 714,-186 558,-186"/>
<text text-anchor="start" x="566" y="-204" font-family="Helvetica,sans-Serif" font-size="10.00">Ra::IO::AssimpLightDataLoader</text>
<text text-anchor="middle" x="636" y="-193" font-family="Helvetica,sans-Serif" font-size="10.00">::loadLightFrame</text>
</a>
</g>
</g>
<!-- Node42&#45;&gt;Node45 -->
<g id="edge45" class="edge"><title>Node42&#45;&gt;Node45</title>
<path fill="none" stroke="midnightblue" d="M514.119,-187.569C525.093,-188.788 536.444,-190.049 547.596,-191.288"/>
<polygon fill="midnightblue" stroke="midnightblue" points="547.44,-194.793 557.766,-192.418 548.214,-187.835 547.44,-194.793"/>
</g>
<!-- Node46 -->
<g id="node46" class="node"><title>Node46</title>
<g id="a_node46"><a xlink:href="classRa_1_1Asset_1_1AssetData.html#a8b107d2673623febe173f37f14ff777d" target="_top" xlink:title="Acces to the name of the asset. ">
<polygon fill="white" stroke="black" points="776.5,-164 776.5,-194 889.5,-194 889.5,-164 776.5,-164"/>
<text text-anchor="start" x="784.5" y="-182" font-family="Helvetica,sans-Serif" font-size="10.00">Ra::Asset::AssetData</text>
<text text-anchor="middle" x="833" y="-171" font-family="Helvetica,sans-Serif" font-size="10.00">::getName</text>
</a>
</g>
</g>
<!-- Node42&#45;&gt;Node46 -->
<g id="edge50" class="edge"><title>Node42&#45;&gt;Node46</title>
<path fill="none" stroke="midnightblue" d="M514.192,-176.678C526.179,-176.396 538.422,-176.154 550,-176 626.438,-174.986 645.563,-174.958 722,-176 736.219,-176.194 751.468,-176.529 765.947,-176.906"/>
<polygon fill="midnightblue" stroke="midnightblue" points="766.237,-180.415 776.328,-177.187 766.427,-173.418 766.237,-180.415"/>
</g>
<!-- Node47 -->
<g id="node47" class="node"><title>Node47</title>
<g id="a_node47"><a xlink:href="classRa_1_1IO_1_1AssimpLightDataLoader.html#ad1b8ceeba5c2acfe436f48549e75bac6" target="_top" xlink:title="FRAME. ">
<polygon fill="white" stroke="black" points="558,-98 558,-128 714,-128 714,-98 558,-98"/>
<text text-anchor="start" x="566" y="-116" font-family="Helvetica,sans-Serif" font-size="10.00">Ra::IO::AssimpLightDataLoader</text>
<text text-anchor="middle" x="636" y="-105" font-family="Helvetica,sans-Serif" font-size="10.00">::setFrame</text>
</a>
</g>
</g>
<!-- Node42&#45;&gt;Node47 -->
<g id="edge47" class="edge"><title>Node42&#45;&gt;Node47</title>
<path fill="none" stroke="midnightblue" d="M482.425,-163.858C511.478,-154.174 549.339,-141.554 580.077,-131.308"/>
<polygon fill="midnightblue" stroke="midnightblue" points="581.406,-134.554 589.786,-128.071 579.193,-127.913 581.406,-134.554"/>
</g>
<!-- Node48 -->
<g id="node48" class="node"><title>Node48</title>
<g id="a_node48"><a xlink:href="group__TypeOperators.html#ga710ebcd57dabe8c947a2757d41e7ef0a" target="_top" xlink:title="Access to the type of the object. ">
<polygon fill="white" stroke="black" points="581.5,-49 581.5,-79 690.5,-79 690.5,-49 581.5,-49"/>
<text text-anchor="start" x="589.5" y="-67" font-family="Helvetica,sans-Serif" font-size="10.00">Ra::Asset::LightData</text>
<text text-anchor="middle" x="636" y="-56" font-family="Helvetica,sans-Serif" font-size="10.00">::getType</text>
</a>
</g>
</g>
<!-- Node42&#45;&gt;Node48 -->
<g id="edge48" class="edge"><title>Node42&#45;&gt;Node48</title>
<path fill="none" stroke="midnightblue" d="M451.668,-163.852C471.97,-143.722 510.608,-108.337 550,-88 556.651,-84.5664 563.856,-81.5696 571.161,-78.9679"/>
<polygon fill="midnightblue" stroke="midnightblue" points="572.752,-82.1282 581.144,-75.6611 570.551,-75.4833 572.752,-82.1282"/>
</g>
<!-- Node49 -->
<g id="node49" class="node"><title>Node49</title>
<g id="a_node49"><a xlink:href="group__HelperSetters.html#gaae3d85565ca6325abcbb7c94f002908c" target="_top" xlink:title="Construct a directional light. ">
<polygon fill="white" stroke="black" points="581.5,-0 581.5,-30 690.5,-30 690.5,-0 581.5,-0"/>
<text text-anchor="start" x="589.5" y="-18" font-family="Helvetica,sans-Serif" font-size="10.00">Ra::Asset::LightData</text>
<text text-anchor="middle" x="636" y="-7" font-family="Helvetica,sans-Serif" font-size="10.00">::setLight</text>
</a>
</g>
</g>
<!-- Node42&#45;&gt;Node49 -->
<g id="edge49" class="edge"><title>Node42&#45;&gt;Node49</title>
<path fill="none" stroke="midnightblue" d="M445.022,-163.771C461.011,-134.918 499.689,-72.2108 550,-39 556.569,-34.664 563.92,-31.102 571.477,-28.1778"/>
<polygon fill="midnightblue" stroke="midnightblue" points="572.832,-31.4117 581.114,-24.8047 570.52,-24.8046 572.832,-31.4117"/>
</g>
<!-- Node45&#45;&gt;Node46 -->
<g id="edge46" class="edge"><title>Node45&#45;&gt;Node46</title>
<path fill="none" stroke="midnightblue" d="M714.069,-192.305C731.26,-190.366 749.339,-188.326 766.034,-186.442"/>
<polygon fill="midnightblue" stroke="midnightblue" points="766.686,-189.891 776.231,-185.292 765.902,-182.935 766.686,-189.891"/>
</g>
</g>
</svg>
