<?xml version="1.0" encoding="UTF-8" standalone="no"?>
<!DOCTYPE svg PUBLIC "-//W3C//DTD SVG 1.1//EN"
 "http://www.w3.org/Graphics/SVG/1.1/DTD/svg11.dtd">
<!-- Generated by graphviz version 2.36.0 (20140111.2315)
 -->
<!-- Title: Ra::Gui::KeyMappingManager Pages: 1 -->
<svg width="205pt" height="324pt"
 viewBox="0.00 0.00 205.00 324.00" xmlns="http://www.w3.org/2000/svg" xmlns:xlink="http://www.w3.org/1999/xlink">
<g id="graph0" class="graph" transform="scale(1 1) rotate(0) translate(4 320)">
<title>Ra::Gui::KeyMappingManager</title>
<polygon fill="white" stroke="none" points="-4,4 -4,-320 201,-320 201,4 -4,4"/>
<!-- Node1 -->
<g id="node1" class="node"><title>Node1</title>
<polygon fill="#bfbfbf" stroke="black" points="0,-0.5 0,-101.5 148,-101.5 148,-0.5 0,-0.5"/>
<text text-anchor="middle" x="74" y="-89.5" font-family="Helvetica,sans-Serif" font-size="10.00">Ra::Gui::KeyMappingManager</text>
<polyline fill="none" stroke="black" points="0,-82.5 148,-82.5 "/>
<text text-anchor="middle" x="74" y="-70.5" font-family="Helvetica,sans-Serif" font-size="10.00"> </text>
<polyline fill="none" stroke="black" points="0,-63.5 148,-63.5 "/>
<text text-anchor="start" x="8" y="-51.5" font-family="Helvetica,sans-Serif" font-size="10.00">+ loadConfiguration()</text>
<text text-anchor="start" x="8" y="-40.5" font-family="Helvetica,sans-Serif" font-size="10.00">+ reloadConfiguration()</text>
<text text-anchor="start" x="8" y="-29.5" font-family="Helvetica,sans-Serif" font-size="10.00">+ getKeyFromAction()</text>
<text text-anchor="start" x="8" y="-18.5" font-family="Helvetica,sans-Serif" font-size="10.00">+ actionTriggered()</text>
<text text-anchor="start" x="8" y="-7.5" font-family="Helvetica,sans-Serif" font-size="10.00">+ actionTriggered()</text>
</g>
<!-- Node2 -->
<g id="node2" class="node"><title>Node2</title>
<g id="a_node2"><a xlink:title="STL class. ">
<polygon fill="white" stroke="#bfbfbf" points="44,-150.5 44,-207.5 104,-207.5 104,-150.5 44,-150.5"/>
<text text-anchor="middle" x="74" y="-195.5" font-family="Helvetica,sans-Serif" font-size="10.00">std::string</text>
<polyline fill="none" stroke="#bfbfbf" points="44,-188.5 104,-188.5 "/>
<text text-anchor="middle" x="74" y="-176.5" font-family="Helvetica,sans-Serif" font-size="10.00"> </text>
<polyline fill="none" stroke="#bfbfbf" points="44,-169.5 104,-169.5 "/>
<text text-anchor="middle" x="74" y="-157.5" font-family="Helvetica,sans-Serif" font-size="10.00"> </text>
</a>
</g>
</g>
<!-- Node2&#45;&gt;Node1 -->
<g id="edge1" class="edge"><title>Node2&#45;&gt;Node1</title>
<path fill="none" stroke="#404040" d="M74,-150.349C74,-139.534 74,-126.664 74,-113.858"/>
<polygon fill="none" stroke="#404040" points="74.0001,-113.668 70,-107.668 74,-101.668 78,-107.668 74.0001,-113.668"/>
<text text-anchor="middle" x="135.5" y="-123.5" font-family="Helvetica,sans-Serif" font-size="10.00"> +KeyMappingActionNames</text>
</g>
<!-- Node3 -->
<g id="node3" class="node"><title>Node3</title>
<g id="a_node3"><a xlink:title="STL class. ">
<polygon fill="white" stroke="#bfbfbf" points="26.5,-247 26.5,-315 121.5,-315 121.5,-247 26.5,-247"/>
<text text-anchor="start" x="34.5" y="-303" font-family="Helvetica,sans-Serif" font-size="10.00">std::basic_string&lt;</text>
<text text-anchor="middle" x="74" y="-292" font-family="Helvetica,sans-Serif" font-size="10.00"> char &gt;</text>
<polyline fill="none" stroke="#bfbfbf" points="26.5,-285 121.5,-285 "/>
<text text-anchor="middle" x="74" y="-273" font-family="Helvetica,sans-Serif" font-size="10.00"> </text>
<polyline fill="none" stroke="#bfbfbf" points="26.5,-266 121.5,-266 "/>
<text text-anchor="middle" x="74" y="-254" font-family="Helvetica,sans-Serif" font-size="10.00"> </text>
</a>
</g>
</g>
<!-- Node3&#45;&gt;Node2 -->
<g id="edge2" class="edge"><title>Node3&#45;&gt;Node2</title>
<path fill="none" stroke="midnightblue" d="M74,-236.857C74,-226.952 74,-216.682 74,-207.64"/>
<polygon fill="none" stroke="midnightblue" points="70.5001,-236.979 74,-246.979 77.5001,-236.979 70.5001,-236.979"/>
</g>
</g>
</svg>
