<?xml version="1.0" encoding="UTF-8" standalone="no"?>
<!DOCTYPE svg PUBLIC "-//W3C//DTD SVG 1.1//EN"
 "http://www.w3.org/Graphics/SVG/1.1/DTD/svg11.dtd">
<!-- Generated by graphviz version 2.36.0 (20140111.2315)
 -->
<!-- Title: Ra::Asset::KeyTranslation::interpolate Pages: 1 -->
<svg width="434pt" height="38pt"
 viewBox="0.00 0.00 434.00 38.00" xmlns="http://www.w3.org/2000/svg" xmlns:xlink="http://www.w3.org/1999/xlink">
<g id="graph0" class="graph" transform="scale(1 1) rotate(0) translate(4 34)">
<title>Ra::Asset::KeyTranslation::interpolate</title>
<polygon fill="white" stroke="none" points="-4,4 -4,-34 430,-34 430,4 -4,4"/>
<!-- Node1 -->
<g id="node1" class="node"><title>Node1</title>
<polygon fill="#bfbfbf" stroke="black" points="0,-0 0,-30 132,-30 132,-0 0,-0"/>
<text text-anchor="start" x="8" y="-18" font-family="Helvetica,sans-Serif" font-size="10.00">Ra::Asset::KeyTranslation</text>
<text text-anchor="middle" x="66" y="-7" font-family="Helvetica,sans-Serif" font-size="10.00">::interpolate</text>
</g>
<!-- Node2 -->
<g id="node2" class="node"><title>Node2</title>
<g id="a_node2"><a xlink:href="namespaceRa_1_1Core.html#a7ff443d568bf8d7cc3920a4db318ab77" target="_top" xlink:title="Ra::Core::interpolate">
<polygon fill="white" stroke="black" points="168.5,-5.5 168.5,-24.5 275.5,-24.5 275.5,-5.5 168.5,-5.5"/>
<text text-anchor="middle" x="222" y="-12.5" font-family="Helvetica,sans-Serif" font-size="10.00">Ra::Core::interpolate</text>
</a>
</g>
</g>
<!-- Node1&#45;&gt;Node2 -->
<g id="edge1" class="edge"><title>Node1&#45;&gt;Node2</title>
<path fill="none" stroke="midnightblue" d="M132.31,-15C140.819,-15 149.523,-15 157.993,-15"/>
<polygon fill="midnightblue" stroke="midnightblue" points="158.18,-18.5001 168.18,-15 158.18,-11.5001 158.18,-18.5001"/>
</g>
<!-- Node3 -->
<g id="node3" class="node"><title>Node3</title>
<g id="a_node3"><a xlink:href="namespaceRa_1_1Core_1_1Algorithm.html#aea294cdb6f4f0d85955bdcccb22886ec" target="_top" xlink:title="Ra::Core::Algorithm::t">
<polygon fill="white" stroke="black" points="312.5,-5.5 312.5,-24.5 425.5,-24.5 425.5,-5.5 312.5,-5.5"/>
<text text-anchor="middle" x="369" y="-12.5" font-family="Helvetica,sans-Serif" font-size="10.00">Ra::Core::Algorithm::t</text>
</a>
</g>
</g>
<!-- Node2&#45;&gt;Node3 -->
<g id="edge2" class="edge"><title>Node2&#45;&gt;Node3</title>
<path fill="none" stroke="midnightblue" d="M275.759,-15C284.256,-15 293.145,-15 301.908,-15"/>
<polygon fill="midnightblue" stroke="midnightblue" points="302.106,-18.5001 312.106,-15 302.106,-11.5001 302.106,-18.5001"/>
</g>
</g>
</svg>
