<?xml version="1.0" encoding="UTF-8" standalone="no"?>
<!DOCTYPE svg PUBLIC "-//W3C//DTD SVG 1.1//EN"
 "http://www.w3.org/Graphics/SVG/1.1/DTD/svg11.dtd">
<!-- Generated by graphviz version 2.36.0 (20140111.2315)
 -->
<!-- Title: Ra::Engine::RadiumEngine::loadFile Pages: 1 -->
<svg width="288pt" height="136pt"
 viewBox="0.00 0.00 288.00 136.00" xmlns="http://www.w3.org/2000/svg" xmlns:xlink="http://www.w3.org/1999/xlink">
<g id="graph0" class="graph" transform="scale(1 1) rotate(0) translate(4 132)">
<title>Ra::Engine::RadiumEngine::loadFile</title>
<polygon fill="white" stroke="none" points="-4,4 -4,-132 284,-132 284,4 -4,4"/>
<!-- Node1 -->
<g id="node1" class="node"><title>Node1</title>
<polygon fill="#bfbfbf" stroke="black" points="0.5,-49 0.5,-79 135.5,-79 135.5,-49 0.5,-49"/>
<text text-anchor="start" x="8.5" y="-67" font-family="Helvetica,sans-Serif" font-size="10.00">Ra::Engine::RadiumEngine</text>
<text text-anchor="middle" x="68" y="-56" font-family="Helvetica,sans-Serif" font-size="10.00">::loadFile</text>
</g>
<!-- Node2 -->
<g id="node2" class="node"><title>Node2</title>
<g id="a_node2"><a xlink:href="namespaceRa_1_1Core_1_1StringUtils.html#a30480ab8fa5ba3ac2824bf91bcddf7bf" target="_top" xlink:title="Ra::Core::StringUtils\l::getFileExt">
<polygon fill="white" stroke="black" points="172,-98 172,-128 280,-128 280,-98 172,-98"/>
<text text-anchor="start" x="180" y="-116" font-family="Helvetica,sans-Serif" font-size="10.00">Ra::Core::StringUtils</text>
<text text-anchor="middle" x="226" y="-105" font-family="Helvetica,sans-Serif" font-size="10.00">::getFileExt</text>
</a>
</g>
</g>
<!-- Node1&#45;&gt;Node2 -->
<g id="edge1" class="edge"><title>Node1&#45;&gt;Node2</title>
<path fill="none" stroke="midnightblue" d="M117.078,-79.1014C133.018,-84.1083 150.924,-89.7324 167.5,-94.939"/>
<polygon fill="midnightblue" stroke="midnightblue" points="166.491,-98.2908 177.081,-97.9484 168.589,-91.6125 166.491,-98.2908"/>
</g>
<!-- Node3 -->
<g id="node3" class="node"><title>Node3</title>
<g id="a_node3"><a xlink:href="namespaceRa_1_1Core_1_1StringUtils.html#a385372757aef49b430a523e860df4def" target="_top" xlink:title="Ra::Core::StringUtils\l::getBaseName">
<polygon fill="white" stroke="black" points="172,-49 172,-79 280,-79 280,-49 172,-49"/>
<text text-anchor="start" x="180" y="-67" font-family="Helvetica,sans-Serif" font-size="10.00">Ra::Core::StringUtils</text>
<text text-anchor="middle" x="226" y="-56" font-family="Helvetica,sans-Serif" font-size="10.00">::getBaseName</text>
</a>
</g>
</g>
<!-- Node1&#45;&gt;Node3 -->
<g id="edge2" class="edge"><title>Node1&#45;&gt;Node3</title>
<path fill="none" stroke="midnightblue" d="M135.611,-64C144.206,-64 152.991,-64 161.534,-64"/>
<polygon fill="midnightblue" stroke="midnightblue" points="161.806,-67.5001 171.806,-64 161.806,-60.5001 161.806,-67.5001"/>
</g>
<!-- Node4 -->
<g id="node4" class="node"><title>Node4</title>
<g id="a_node4"><a xlink:href="classRa_1_1Engine_1_1Entity.html#ae48596d95b5dcb605e046d12461959e6" target="_top" xlink:title="Ra::Engine::Entity\l::getComponents">
<polygon fill="white" stroke="black" points="177.5,-0 177.5,-30 274.5,-30 274.5,-0 177.5,-0"/>
<text text-anchor="start" x="185.5" y="-18" font-family="Helvetica,sans-Serif" font-size="10.00">Ra::Engine::Entity</text>
<text text-anchor="middle" x="226" y="-7" font-family="Helvetica,sans-Serif" font-size="10.00">::getComponents</text>
</a>
</g>
</g>
<!-- Node1&#45;&gt;Node4 -->
<g id="edge3" class="edge"><title>Node1&#45;&gt;Node4</title>
<path fill="none" stroke="midnightblue" d="M117.078,-48.8986C133.093,-43.8682 151.092,-38.2147 167.733,-32.9877"/>
<polygon fill="midnightblue" stroke="midnightblue" points="168.857,-36.3032 177.349,-29.9673 166.76,-29.6249 168.857,-36.3032"/>
</g>
</g>
</svg>
