<?xml version="1.0" encoding="UTF-8" standalone="no"?>
<!DOCTYPE svg PUBLIC "-//W3C//DTD SVG 1.1//EN"
 "http://www.w3.org/Graphics/SVG/1.1/DTD/svg11.dtd">
<!-- Generated by graphviz version 2.36.0 (20140111.2315)
 -->
<!-- Title: Ra::Engine::ShaderProgram::reload Pages: 1 -->
<svg width="344pt" height="87pt"
 viewBox="0.00 0.00 344.00 87.00" xmlns="http://www.w3.org/2000/svg" xmlns:xlink="http://www.w3.org/1999/xlink">
<g id="graph0" class="graph" transform="scale(1 1) rotate(0) translate(4 83)">
<title>Ra::Engine::ShaderProgram::reload</title>
<polygon fill="white" stroke="none" points="-4,4 -4,-83 340,-83 340,4 -4,4"/>
<!-- Node1 -->
<g id="node1" class="node"><title>Node1</title>
<polygon fill="#bfbfbf" stroke="black" points="0.5,-24 0.5,-54 139.5,-54 139.5,-24 0.5,-24"/>
<text text-anchor="start" x="8.5" y="-42" font-family="Helvetica,sans-Serif" font-size="10.00">Ra::Engine::ShaderProgram</text>
<text text-anchor="middle" x="70" y="-31" font-family="Helvetica,sans-Serif" font-size="10.00">::reload</text>
</g>
<!-- Node2 -->
<g id="node2" class="node"><title>Node2</title>
<g id="a_node2"><a xlink:href="classRa_1_1Engine_1_1ShaderConfiguration.html#ad0bd608d1b6f52302485b81907145136" target="_top" xlink:title="Ra::Engine::ShaderConfiguration\l::getProperties">
<polygon fill="white" stroke="black" points="176,-49 176,-79 336,-79 336,-49 176,-49"/>
<text text-anchor="start" x="184" y="-67" font-family="Helvetica,sans-Serif" font-size="10.00">Ra::Engine::ShaderConfiguration</text>
<text text-anchor="middle" x="256" y="-56" font-family="Helvetica,sans-Serif" font-size="10.00">::getProperties</text>
</a>
</g>
</g>
<!-- Node1&#45;&gt;Node2 -->
<g id="edge1" class="edge"><title>Node1&#45;&gt;Node2</title>
<path fill="none" stroke="midnightblue" d="M139.515,-48.3091C148.126,-49.4791 157.032,-50.6891 165.902,-51.8942"/>
<polygon fill="midnightblue" stroke="midnightblue" points="165.503,-55.3721 175.883,-53.2504 166.445,-48.4358 165.503,-55.3721"/>
</g>
<!-- Node3 -->
<g id="node3" class="node"><title>Node3</title>
<g id="a_node3"><a xlink:href="classRa_1_1Engine_1_1ShaderConfiguration.html#ad53b9a1661fea2d4703c9d9cf05e1cb5" target="_top" xlink:title="Ra::Engine::ShaderConfiguration\l::getIncludes">
<polygon fill="white" stroke="black" points="176,-0 176,-30 336,-30 336,-0 176,-0"/>
<text text-anchor="start" x="184" y="-18" font-family="Helvetica,sans-Serif" font-size="10.00">Ra::Engine::ShaderConfiguration</text>
<text text-anchor="middle" x="256" y="-7" font-family="Helvetica,sans-Serif" font-size="10.00">::getIncludes</text>
</a>
</g>
</g>
<!-- Node1&#45;&gt;Node3 -->
<g id="edge2" class="edge"><title>Node1&#45;&gt;Node3</title>
<path fill="none" stroke="midnightblue" d="M139.515,-30.0633C148.126,-28.9401 157.032,-27.7784 165.902,-26.6215"/>
<polygon fill="midnightblue" stroke="midnightblue" points="166.42,-30.0837 175.883,-25.3196 165.514,-23.1425 166.42,-30.0837"/>
</g>
</g>
</svg>
