<?xml version="1.0" encoding="UTF-8" standalone="no"?>
<!DOCTYPE svg PUBLIC "-//W3C//DTD SVG 1.1//EN"
 "http://www.w3.org/Graphics/SVG/1.1/DTD/svg11.dtd">
<!-- Generated by graphviz version 2.36.0 (20140111.2315)
 -->
<!-- Title: Ra::Engine::RenderParameters::Parameter Pages: 1 -->
<svg width="331pt" height="260pt"
 viewBox="0.00 0.00 331.00 260.00" xmlns="http://www.w3.org/2000/svg" xmlns:xlink="http://www.w3.org/1999/xlink">
<g id="graph0" class="graph" transform="scale(1 1) rotate(0) translate(4 256)">
<title>Ra::Engine::RenderParameters::Parameter</title>
<polygon fill="white" stroke="none" points="-4,4 -4,-256 327,-256 327,4 -4,4"/>
<!-- Node1 -->
<g id="node1" class="node"><title>Node1</title>
<polygon fill="#bfbfbf" stroke="black" points="84.5,-150.5 84.5,-251.5 237.5,-251.5 237.5,-150.5 84.5,-150.5"/>
<text text-anchor="start" x="92.5" y="-239.5" font-family="Helvetica,sans-Serif" font-size="10.00">Ra::Engine::RenderParameters</text>
<text text-anchor="middle" x="161" y="-228.5" font-family="Helvetica,sans-Serif" font-size="10.00">::Parameter</text>
<polyline fill="none" stroke="black" points="84.5,-221.5 237.5,-221.5 "/>
<text text-anchor="start" x="92.5" y="-209.5" font-family="Helvetica,sans-Serif" font-size="10.00">+ m_name</text>
<polyline fill="none" stroke="black" points="84.5,-202.5 237.5,-202.5 "/>
<text text-anchor="start" x="92.5" y="-190.5" font-family="Helvetica,sans-Serif" font-size="10.00">+ Parameter()</text>
<text text-anchor="start" x="92.5" y="-179.5" font-family="Helvetica,sans-Serif" font-size="10.00">+ Parameter()</text>
<text text-anchor="start" x="92.5" y="-168.5" font-family="Helvetica,sans-Serif" font-size="10.00">+ ~Parameter()</text>
<text text-anchor="start" x="92.5" y="-157.5" font-family="Helvetica,sans-Serif" font-size="10.00">+ bind()</text>
</g>
<!-- Node2 -->
<g id="node2" class="node"><title>Node2</title>
<g id="a_node2"><a xlink:href="classRa_1_1Engine_1_1RenderParameters_1_1TextureParameter.html" target="_top" xlink:title="{Ra::Engine::RenderParameters\l::TextureParameter\n|+ m_texture\l+ m_texUnit\l|+ TextureParameter()\l+ TextureParameter()\l+ ~TextureParameter()\l+ bind()\l}">
<polygon fill="white" stroke="black" points="-0.5,-1 -0.5,-113 152.5,-113 152.5,-1 -0.5,-1"/>
<text text-anchor="start" x="7.5" y="-101" font-family="Helvetica,sans-Serif" font-size="10.00">Ra::Engine::RenderParameters</text>
<text text-anchor="middle" x="76" y="-90" font-family="Helvetica,sans-Serif" font-size="10.00">::TextureParameter</text>
<polyline fill="none" stroke="black" points="-0.5,-83 152.5,-83 "/>
<text text-anchor="start" x="7.5" y="-71" font-family="Helvetica,sans-Serif" font-size="10.00">+ m_texture</text>
<text text-anchor="start" x="7.5" y="-60" font-family="Helvetica,sans-Serif" font-size="10.00">+ m_texUnit</text>
<polyline fill="none" stroke="black" points="-0.5,-53 152.5,-53 "/>
<text text-anchor="start" x="7.5" y="-41" font-family="Helvetica,sans-Serif" font-size="10.00">+ TextureParameter()</text>
<text text-anchor="start" x="7.5" y="-30" font-family="Helvetica,sans-Serif" font-size="10.00">+ TextureParameter()</text>
<text text-anchor="start" x="7.5" y="-19" font-family="Helvetica,sans-Serif" font-size="10.00">+ ~TextureParameter()</text>
<text text-anchor="start" x="7.5" y="-8" font-family="Helvetica,sans-Serif" font-size="10.00">+ bind()</text>
</a>
</g>
</g>
<!-- Node1&#45;&gt;Node2 -->
<g id="edge1" class="edge"><title>Node1&#45;&gt;Node2</title>
<path fill="none" stroke="midnightblue" d="M125.972,-141.483C120.375,-132.132 114.599,-122.483 109.05,-113.212"/>
<polygon fill="none" stroke="midnightblue" points="123.132,-143.553 131.271,-150.335 129.138,-139.957 123.132,-143.553"/>
</g>
<!-- Node3 -->
<g id="node3" class="node"><title>Node3</title>
<g id="a_node3"><a xlink:href="classRa_1_1Engine_1_1RenderParameters_1_1TParameter.html" target="_top" xlink:title="{Ra::Engine::RenderParameters\l::TParameter\&lt; T \&gt;\n|+ m_value\l|+ TParameter()\l+ TParameter()\l+ ~TParameter()\l+ bind()\l}">
<polygon fill="white" stroke="black" points="170.5,-6.5 170.5,-107.5 323.5,-107.5 323.5,-6.5 170.5,-6.5"/>
<text text-anchor="start" x="178.5" y="-95.5" font-family="Helvetica,sans-Serif" font-size="10.00">Ra::Engine::RenderParameters</text>
<text text-anchor="middle" x="247" y="-84.5" font-family="Helvetica,sans-Serif" font-size="10.00">::TParameter&lt; T &gt;</text>
<polyline fill="none" stroke="black" points="170.5,-77.5 323.5,-77.5 "/>
<text text-anchor="start" x="178.5" y="-65.5" font-family="Helvetica,sans-Serif" font-size="10.00">+ m_value</text>
<polyline fill="none" stroke="black" points="170.5,-58.5 323.5,-58.5 "/>
<text text-anchor="start" x="178.5" y="-46.5" font-family="Helvetica,sans-Serif" font-size="10.00">+ TParameter()</text>
<text text-anchor="start" x="178.5" y="-35.5" font-family="Helvetica,sans-Serif" font-size="10.00">+ TParameter()</text>
<text text-anchor="start" x="178.5" y="-24.5" font-family="Helvetica,sans-Serif" font-size="10.00">+ ~TParameter()</text>
<text text-anchor="start" x="178.5" y="-13.5" font-family="Helvetica,sans-Serif" font-size="10.00">+ bind()</text>
</a>
</g>
</g>
<!-- Node1&#45;&gt;Node3 -->
<g id="edge2" class="edge"><title>Node1&#45;&gt;Node3</title>
<path fill="none" stroke="midnightblue" d="M196.433,-141.495C203.194,-130.331 210.213,-118.741 216.793,-107.877"/>
<polygon fill="none" stroke="midnightblue" points="193.265,-139.969 191.079,-150.335 199.253,-143.595 193.265,-139.969"/>
</g>
</g>
</svg>
