<?xml version="1.0" encoding="UTF-8" standalone="no"?>
<!DOCTYPE svg PUBLIC "-//W3C//DTD SVG 1.1//EN"
 "http://www.w3.org/Graphics/SVG/1.1/DTD/svg11.dtd">
<!-- Generated by graphviz version 2.36.0 (20140111.2315)
 -->
<!-- Title: Ra::GuiBase::TransformEditor::setEditable Pages: 1 -->
<svg width="1192pt" height="459pt"
 viewBox="0.00 0.00 1192.00 459.00" xmlns="http://www.w3.org/2000/svg" xmlns:xlink="http://www.w3.org/1999/xlink">
<g id="graph0" class="graph" transform="scale(1 1) rotate(0) translate(4 455)">
<title>Ra::GuiBase::TransformEditor::setEditable</title>
<polygon fill="white" stroke="none" points="-4,4 -4,-455 1188,-455 1188,4 -4,4"/>
<!-- Node1 -->
<g id="node1" class="node"><title>Node1</title>
<polygon fill="#bfbfbf" stroke="black" points="0.5,-113 0.5,-143 149.5,-143 149.5,-113 0.5,-113"/>
<text text-anchor="start" x="8.5" y="-131" font-family="Helvetica,sans-Serif" font-size="10.00">Ra::GuiBase::TransformEditor</text>
<text text-anchor="middle" x="75" y="-120" font-family="Helvetica,sans-Serif" font-size="10.00">::setEditable</text>
</g>
<!-- Node2 -->
<g id="node2" class="node"><title>Node2</title>
<g id="a_node2"><a xlink:href="classRa_1_1GuiBase_1_1TransformEditor.html#aecdcc853ebf6b4ae1dab2c9ee56c96ef" target="_top" xlink:title="Ra::GuiBase::TransformEditor\l::getTransform">
<polygon fill="white" stroke="black" points="186.5,-113 186.5,-143 335.5,-143 335.5,-113 186.5,-113"/>
<text text-anchor="start" x="194.5" y="-131" font-family="Helvetica,sans-Serif" font-size="10.00">Ra::GuiBase::TransformEditor</text>
<text text-anchor="middle" x="261" y="-120" font-family="Helvetica,sans-Serif" font-size="10.00">::getTransform</text>
</a>
</g>
</g>
<!-- Node1&#45;&gt;Node2 -->
<g id="edge1" class="edge"><title>Node1&#45;&gt;Node2</title>
<path fill="none" stroke="midnightblue" d="M149.515,-128C158.315,-128 167.351,-128 176.281,-128"/>
<polygon fill="midnightblue" stroke="midnightblue" points="176.302,-131.5 186.302,-128 176.302,-124.5 176.302,-131.5"/>
</g>
<!-- Node3 -->
<g id="node3" class="node"><title>Node3</title>
<g id="a_node3"><a xlink:href="classRa_1_1GuiBase_1_1TransformEditor.html#ad21b8c46ad2d5c62e309eb16b104ee2f" target="_top" xlink:title="Ra::GuiBase::TransformEditor\l::canEdit">
<polygon fill="white" stroke="black" points="372.5,-186 372.5,-216 521.5,-216 521.5,-186 372.5,-186"/>
<text text-anchor="start" x="380.5" y="-204" font-family="Helvetica,sans-Serif" font-size="10.00">Ra::GuiBase::TransformEditor</text>
<text text-anchor="middle" x="447" y="-193" font-family="Helvetica,sans-Serif" font-size="10.00">::canEdit</text>
</a>
</g>
</g>
<!-- Node2&#45;&gt;Node3 -->
<g id="edge2" class="edge"><title>Node2&#45;&gt;Node3</title>
<path fill="none" stroke="midnightblue" d="M300.125,-143.126C328.62,-154.431 367.762,-169.96 398.326,-182.086"/>
<polygon fill="midnightblue" stroke="midnightblue" points="397.338,-185.459 407.924,-185.894 399.919,-178.953 397.338,-185.459"/>
</g>
<!-- Node10 -->
<g id="node10" class="node"><title>Node10</title>
<g id="a_node10"><a xlink:href="structRa_1_1Engine_1_1ItemEntry.html#a898047549069e5b64d3a9a65c058af56" target="_top" xlink:title="Returns true if the item represents a render object. ">
<polygon fill="white" stroke="black" points="727,-372 727,-402 841,-402 841,-372 727,-372"/>
<text text-anchor="start" x="735" y="-390" font-family="Helvetica,sans-Serif" font-size="10.00">Ra::Engine::ItemEntry</text>
<text text-anchor="middle" x="784" y="-379" font-family="Helvetica,sans-Serif" font-size="10.00">::isRoNode</text>
</a>
</g>
</g>
<!-- Node2&#45;&gt;Node10 -->
<g id="edge28" class="edge"><title>Node2&#45;&gt;Node10</title>
<path fill="none" stroke="midnightblue" d="M274.804,-143.181C312.691,-186.853 429.648,-312.878 558,-363 608.86,-382.861 670.816,-388.23 716.828,-388.989"/>
<polygon fill="midnightblue" stroke="midnightblue" points="716.949,-392.491 726.982,-389.087 717.016,-385.491 716.949,-392.491"/>
</g>
<!-- Node16 -->
<g id="node16" class="node"><title>Node16</title>
<g id="a_node16"><a xlink:href="structRa_1_1Engine_1_1ItemEntry.html#a4823dfa3c113db71733979f1719f3b28" target="_top" xlink:title="Returns true if the item represents an entity. ">
<polygon fill="white" stroke="black" points="562,-137 562,-167 676,-167 676,-137 562,-137"/>
<text text-anchor="start" x="570" y="-155" font-family="Helvetica,sans-Serif" font-size="10.00">Ra::Engine::ItemEntry</text>
<text text-anchor="middle" x="619" y="-144" font-family="Helvetica,sans-Serif" font-size="10.00">::isEntityNode</text>
</a>
</g>
</g>
<!-- Node2&#45;&gt;Node16 -->
<g id="edge23" class="edge"><title>Node2&#45;&gt;Node16</title>
<path fill="none" stroke="midnightblue" d="M335.763,-132.973C399.296,-137.256 490.184,-143.383 551.507,-147.517"/>
<polygon fill="midnightblue" stroke="midnightblue" points="551.63,-151.033 561.842,-148.214 552.1,-144.049 551.63,-151.033"/>
</g>
<!-- Node18 -->
<g id="node18" class="node"><title>Node18</title>
<g id="a_node18"><a xlink:href="classRa_1_1Engine_1_1Entity.html#adf0ef19e4b56e1d213b9898b60fe0e74" target="_top" xlink:title="Ra::Engine::Entity\l::getTransform">
<polygon fill="white" stroke="black" points="398.5,-49 398.5,-79 495.5,-79 495.5,-49 398.5,-49"/>
<text text-anchor="start" x="406.5" y="-67" font-family="Helvetica,sans-Serif" font-size="10.00">Ra::Engine::Entity</text>
<text text-anchor="middle" x="447" y="-56" font-family="Helvetica,sans-Serif" font-size="10.00">::getTransform</text>
</a>
</g>
</g>
<!-- Node2&#45;&gt;Node18 -->
<g id="edge24" class="edge"><title>Node2&#45;&gt;Node18</title>
<path fill="none" stroke="midnightblue" d="M305.14,-112.995C331.46,-103.84 365.296,-92.0711 393.208,-82.3624"/>
<polygon fill="midnightblue" stroke="midnightblue" points="394.517,-85.6129 402.812,-79.0219 392.217,-79.0014 394.517,-85.6129"/>
</g>
<!-- Node19 -->
<g id="node19" class="node"><title>Node19</title>
<g id="a_node19"><a xlink:href="structRa_1_1Engine_1_1ItemEntry.html#ac78e7430338c62ed664a16da7e3ea206" target="_top" xlink:title="Returns true if the item represents a component. ">
<polygon fill="white" stroke="black" points="727,-10 727,-40 841,-40 841,-10 727,-10"/>
<text text-anchor="start" x="735" y="-28" font-family="Helvetica,sans-Serif" font-size="10.00">Ra::Engine::ItemEntry</text>
<text text-anchor="middle" x="784" y="-17" font-family="Helvetica,sans-Serif" font-size="10.00">::isComponentNode</text>
</a>
</g>
</g>
<!-- Node2&#45;&gt;Node19 -->
<g id="edge25" class="edge"><title>Node2&#45;&gt;Node19</title>
<path fill="none" stroke="midnightblue" d="M335.694,-118.348C387.906,-111.099 459.495,-100.329 522,-88 588.809,-74.8221 664.36,-56.169 716.921,-42.5806"/>
<polygon fill="midnightblue" stroke="midnightblue" points="717.989,-45.9196 726.788,-40.0193 716.23,-39.1441 717.989,-45.9196"/>
</g>
<!-- Node20 -->
<g id="node20" class="node"><title>Node20</title>
<g id="a_node20"><a xlink:href="classRa_1_1Engine_1_1Component.html#a3f4195b2f8e93ca2a89b31ab51a44a13" target="_top" xlink:title="Get the transform associated with the given RO index key. ">
<polygon fill="white" stroke="black" points="386,-0 386,-30 508,-30 508,-0 386,-0"/>
<text text-anchor="start" x="394" y="-18" font-family="Helvetica,sans-Serif" font-size="10.00">Ra::Engine::Component</text>
<text text-anchor="middle" x="447" y="-7" font-family="Helvetica,sans-Serif" font-size="10.00">::getTransform</text>
</a>
</g>
</g>
<!-- Node2&#45;&gt;Node20 -->
<g id="edge29" class="edge"><title>Node2&#45;&gt;Node20</title>
<path fill="none" stroke="midnightblue" d="M277.063,-112.728C297.112,-93.1701 334.427,-59.3774 372,-39 375.28,-37.2213 378.713,-35.547 382.229,-33.9752"/>
<polygon fill="midnightblue" stroke="midnightblue" points="383.786,-37.1189 391.68,-30.0532 381.102,-30.6536 383.786,-37.1189"/>
</g>
<!-- Node4 -->
<g id="node4" class="node"><title>Node4</title>
<g id="a_node4"><a xlink:href="structRa_1_1Engine_1_1ItemEntry.html#aceafc81a73631955b64999dd39a639da" target="_top" xlink:title="Returns true if the item represents any valid object. ">
<polygon fill="white" stroke="black" points="562,-235 562,-265 676,-265 676,-235 562,-235"/>
<text text-anchor="start" x="570" y="-253" font-family="Helvetica,sans-Serif" font-size="10.00">Ra::Engine::ItemEntry</text>
<text text-anchor="middle" x="619" y="-242" font-family="Helvetica,sans-Serif" font-size="10.00">::isValid</text>
</a>
</g>
</g>
<!-- Node3&#45;&gt;Node4 -->
<g id="edge3" class="edge"><title>Node3&#45;&gt;Node4</title>
<path fill="none" stroke="midnightblue" d="M500.393,-216.101C518.007,-221.179 537.823,-226.89 556.098,-232.158"/>
<polygon fill="midnightblue" stroke="midnightblue" points="555.202,-235.542 565.78,-234.948 557.141,-228.816 555.202,-235.542"/>
</g>
<!-- Node14 -->
<g id="node14" class="node"><title>Node14</title>
<g id="a_node14"><a xlink:href="structRa_1_1Engine_1_1ItemEntry.html#a09e294208d0896596a42a7a6c7e78f75" target="_top" xlink:title="Returns true if the item can be selected. ">
<polygon fill="white" stroke="black" points="562,-324 562,-354 676,-354 676,-324 562,-324"/>
<text text-anchor="start" x="570" y="-342" font-family="Helvetica,sans-Serif" font-size="10.00">Ra::Engine::ItemEntry</text>
<text text-anchor="middle" x="619" y="-331" font-family="Helvetica,sans-Serif" font-size="10.00">::isSelectable</text>
</a>
</g>
</g>
<!-- Node3&#45;&gt;Node14 -->
<g id="edge15" class="edge"><title>Node3&#45;&gt;Node14</title>
<path fill="none" stroke="midnightblue" d="M466.517,-216.031C496.791,-240.606 556.979,-289.465 591.68,-317.635"/>
<polygon fill="midnightblue" stroke="midnightblue" points="589.536,-320.402 599.506,-323.987 593.948,-314.968 589.536,-320.402"/>
</g>
<!-- Node3&#45;&gt;Node16 -->
<g id="edge20" class="edge"><title>Node3&#45;&gt;Node16</title>
<path fill="none" stroke="midnightblue" d="M500.393,-185.899C518.007,-180.821 537.823,-175.11 556.098,-169.842"/>
<polygon fill="midnightblue" stroke="midnightblue" points="557.141,-173.184 565.78,-167.052 555.202,-166.458 557.141,-173.184"/>
</g>
<!-- Node17 -->
<g id="node17" class="node"><title>Node17</title>
<g id="a_node17"><a xlink:href="classRa_1_1Engine_1_1Component.html#a0a96ad5cbd7987270bbcf321d6a2e258" target="_top" xlink:title="Returns true if a transform can be edited with the render object index given as a key...">
<polygon fill="white" stroke="black" points="558,-186 558,-216 680,-216 680,-186 558,-186"/>
<text text-anchor="start" x="566" y="-204" font-family="Helvetica,sans-Serif" font-size="10.00">Ra::Engine::Component</text>
<text text-anchor="middle" x="619" y="-193" font-family="Helvetica,sans-Serif" font-size="10.00">::canEdit</text>
</a>
</g>
</g>
<!-- Node3&#45;&gt;Node17 -->
<g id="edge22" class="edge"><title>Node3&#45;&gt;Node17</title>
<path fill="none" stroke="midnightblue" d="M521.576,-201C530.283,-201 539.153,-201 547.811,-201"/>
<polygon fill="midnightblue" stroke="midnightblue" points="547.856,-204.5 557.856,-201 547.856,-197.5 547.856,-204.5"/>
</g>
<!-- Node5 -->
<g id="node5" class="node"><title>Node5</title>
<g id="a_node5"><a xlink:href="structRa_1_1Engine_1_1ItemEntry.html#a1fb9fdd74413a1fa5878f53c1cfcf8fd" target="_top" xlink:title="Debug checks. ">
<polygon fill="white" stroke="black" points="897,-54 897,-84 1011,-84 1011,-54 897,-54"/>
<text text-anchor="start" x="905" y="-72" font-family="Helvetica,sans-Serif" font-size="10.00">Ra::Engine::ItemEntry</text>
<text text-anchor="middle" x="954" y="-61" font-family="Helvetica,sans-Serif" font-size="10.00">::checkConsistency</text>
</a>
</g>
</g>
<!-- Node4&#45;&gt;Node5 -->
<g id="edge4" class="edge"><title>Node4&#45;&gt;Node5</title>
<path fill="none" stroke="midnightblue" d="M664.133,-234.856C669.739,-232.016 675.19,-228.741 680,-225 701.049,-208.628 694.092,-192.204 716,-177 767.761,-141.079 794.978,-163.797 852,-137 878.831,-124.391 906.577,-105.189 926.182,-90.4019"/>
<polygon fill="midnightblue" stroke="midnightblue" points="928.514,-93.0243 934.322,-84.163 924.256,-87.4686 928.514,-93.0243"/>
</g>
<!-- Node7 -->
<g id="node7" class="node"><title>Node7</title>
<g id="a_node7"><a xlink:href="classRa_1_1Engine_1_1RadiumEngine.html#a79f6626ce468268791bc5bdfe17b5586" target="_top" xlink:title="Ra::Engine::RadiumEngine\l::getEntityManager">
<polygon fill="white" stroke="black" points="716.5,-186 716.5,-216 851.5,-216 851.5,-186 716.5,-186"/>
<text text-anchor="start" x="724.5" y="-204" font-family="Helvetica,sans-Serif" font-size="10.00">Ra::Engine::RadiumEngine</text>
<text text-anchor="middle" x="784" y="-193" font-family="Helvetica,sans-Serif" font-size="10.00">::getEntityManager</text>
</a>
</g>
</g>
<!-- Node4&#45;&gt;Node7 -->
<g id="edge6" class="edge"><title>Node4&#45;&gt;Node7</title>
<path fill="none" stroke="midnightblue" d="M670.235,-234.899C686.891,-229.892 705.6,-224.268 722.919,-219.061"/>
<polygon fill="midnightblue" stroke="midnightblue" points="724.361,-222.282 732.93,-216.052 722.346,-215.579 724.361,-222.282"/>
</g>
<!-- Node8 -->
<g id="node8" class="node"><title>Node8</title>
<g id="a_node8"><a xlink:href="classRa_1_1Engine_1_1EntityManager.html#a5115cccae6aaef614ad4bd08e64d8185" target="_top" xlink:title="Check wether an entity with a given name exists or not. ">
<polygon fill="white" stroke="black" points="717,-98 717,-128 851,-128 851,-98 717,-98"/>
<text text-anchor="start" x="725" y="-116" font-family="Helvetica,sans-Serif" font-size="10.00">Ra::Engine::EntityManager</text>
<text text-anchor="middle" x="784" y="-105" font-family="Helvetica,sans-Serif" font-size="10.00">::entityExists</text>
</a>
</g>
</g>
<!-- Node4&#45;&gt;Node8 -->
<g id="edge7" class="edge"><title>Node4&#45;&gt;Node8</title>
<path fill="none" stroke="midnightblue" d="M666.506,-234.994C671.419,-232.179 676.053,-228.873 680,-225 708.409,-197.123 687.959,-171.247 716,-143 719.666,-139.307 723.867,-136.029 728.339,-133.128"/>
<polygon fill="midnightblue" stroke="midnightblue" points="730.298,-136.038 737.203,-128.002 726.794,-129.978 730.298,-136.038"/>
</g>
<!-- Node9 -->
<g id="node9" class="node"><title>Node9</title>
<g id="a_node9"><a xlink:href="classRa_1_1Engine_1_1Entity.html#aaf256bea44bbc5bff6aa504aca05ca35" target="_top" xlink:title="Ra::Engine::Entity\l::getName">
<polygon fill="white" stroke="black" points="735.5,-235 735.5,-265 832.5,-265 832.5,-235 735.5,-235"/>
<text text-anchor="start" x="743.5" y="-253" font-family="Helvetica,sans-Serif" font-size="10.00">Ra::Engine::Entity</text>
<text text-anchor="middle" x="784" y="-242" font-family="Helvetica,sans-Serif" font-size="10.00">::getName</text>
</a>
</g>
</g>
<!-- Node4&#45;&gt;Node9 -->
<g id="edge8" class="edge"><title>Node4&#45;&gt;Node9</title>
<path fill="none" stroke="midnightblue" d="M676.095,-250C691.959,-250 709.25,-250 725.212,-250"/>
<polygon fill="midnightblue" stroke="midnightblue" points="725.481,-253.5 735.481,-250 725.481,-246.5 725.481,-253.5"/>
</g>
<!-- Node4&#45;&gt;Node10 -->
<g id="edge9" class="edge"><title>Node4&#45;&gt;Node10</title>
<path fill="none" stroke="midnightblue" d="M634.713,-265.138C647.118,-278.087 665.168,-297.374 680,-315 696.941,-335.133 694.85,-346.347 716,-362 718.514,-363.86 721.181,-365.597 723.948,-367.215"/>
<polygon fill="midnightblue" stroke="midnightblue" points="722.574,-370.447 733.056,-371.992 725.826,-364.248 722.574,-370.447"/>
</g>
<!-- Node12 -->
<g id="node12" class="node"><title>Node12</title>
<g id="a_node12"><a xlink:href="classRa_1_1Engine_1_1RadiumEngine.html#a58b27bc600ea769f68b0e2938abc7862" target="_top" xlink:title="Manager getters. ">
<polygon fill="white" stroke="black" points="716.5,-323 716.5,-353 851.5,-353 851.5,-323 716.5,-323"/>
<text text-anchor="start" x="724.5" y="-341" font-family="Helvetica,sans-Serif" font-size="10.00">Ra::Engine::RadiumEngine</text>
<text text-anchor="middle" x="784" y="-330" font-family="Helvetica,sans-Serif" font-size="10.00">::getRenderObjectManager</text>
</a>
</g>
</g>
<!-- Node4&#45;&gt;Node12 -->
<g id="edge12" class="edge"><title>Node4&#45;&gt;Node12</title>
<path fill="none" stroke="midnightblue" d="M643.209,-265.122C662.371,-277.338 690.467,-294.635 716,-308 722.987,-311.657 730.51,-315.299 737.902,-318.719"/>
<polygon fill="midnightblue" stroke="midnightblue" points="736.594,-321.969 747.146,-322.918 739.488,-315.595 736.594,-321.969"/>
</g>
<!-- Node13 -->
<g id="node13" class="node"><title>Node13</title>
<g id="a_node13"><a xlink:href="classRa_1_1Engine_1_1RenderObjectManager.html#a4077b9cf9e1e4d62fd5456386f2d72c8" target="_top" xlink:title="Returns true if the index points to a valid render object. ">
<polygon fill="white" stroke="black" points="888.5,-416 888.5,-446 1019.5,-446 1019.5,-416 888.5,-416"/>
<text text-anchor="start" x="896.5" y="-434" font-family="Helvetica,sans-Serif" font-size="10.00">Ra::Engine::RenderObject</text>
<text text-anchor="middle" x="954" y="-423" font-family="Helvetica,sans-Serif" font-size="10.00">Manager::exists</text>
</a>
</g>
</g>
<!-- Node4&#45;&gt;Node13 -->
<g id="edge13" class="edge"><title>Node4&#45;&gt;Node13</title>
<path fill="none" stroke="midnightblue" d="M676.091,-264.599C742.289,-281.958 844.408,-309.199 852,-314 889.937,-337.992 921.42,-380.585 938.685,-407.227"/>
<polygon fill="midnightblue" stroke="midnightblue" points="935.884,-409.346 944.186,-415.928 941.801,-405.605 935.884,-409.346"/>
</g>
<!-- Node6 -->
<g id="node6" class="node"><title>Node6</title>
<g id="a_node6"><a xlink:href="classRa_1_1Core_1_1Index.html#a7283e7fb9cc134e04ef3cde8877f8fe2" target="_top" xlink:title="INVALID. ">
<polygon fill="white" stroke="black" points="1056,-37.5 1056,-56.5 1184,-56.5 1184,-37.5 1056,-37.5"/>
<text text-anchor="middle" x="1120" y="-44.5" font-family="Helvetica,sans-Serif" font-size="10.00">Ra::Core::Index::isInvalid</text>
</a>
</g>
</g>
<!-- Node5&#45;&gt;Node6 -->
<g id="edge5" class="edge"><title>Node5&#45;&gt;Node6</title>
<path fill="none" stroke="midnightblue" d="M1011.44,-61.4288C1022.55,-59.9388 1034.35,-58.3555 1045.91,-56.8042"/>
<polygon fill="midnightblue" stroke="midnightblue" points="1046.55,-60.251 1055.99,-55.4524 1045.61,-53.3131 1046.55,-60.251"/>
</g>
<!-- Node10&#45;&gt;Node5 -->
<g id="edge10" class="edge"><title>Node10&#45;&gt;Node5</title>
<path fill="none" stroke="midnightblue" d="M839.224,-371.817C843.908,-369.066 848.273,-365.822 852,-362 927.011,-285.076 946.453,-149.883 951.377,-94.1287"/>
<polygon fill="midnightblue" stroke="midnightblue" points="954.873,-94.3248 952.181,-84.0777 947.895,-93.767 954.873,-94.3248"/>
</g>
<!-- Node11 -->
<g id="node11" class="node"><title>Node11</title>
<g id="a_node11"><a xlink:href="classRa_1_1Core_1_1Index.html#a87c70243f30c65c1a24834d1829bda01" target="_top" xlink:title="DESTRUCTOR: Must not be defined, we need it trivial to be constexpr. ">
<polygon fill="white" stroke="black" points="1059,-399.5 1059,-418.5 1181,-418.5 1181,-399.5 1059,-399.5"/>
<text text-anchor="middle" x="1120" y="-406.5" font-family="Helvetica,sans-Serif" font-size="10.00">Ra::Core::Index::isValid</text>
</a>
</g>
</g>
<!-- Node10&#45;&gt;Node11 -->
<g id="edge11" class="edge"><title>Node10&#45;&gt;Node11</title>
<path fill="none" stroke="midnightblue" d="M841.281,-390.707C898.428,-394.471 987.058,-400.309 1048.77,-404.374"/>
<polygon fill="midnightblue" stroke="midnightblue" points="1048.61,-407.871 1058.82,-405.036 1049.07,-400.886 1048.61,-407.871"/>
</g>
<!-- Node13&#45;&gt;Node11 -->
<g id="edge14" class="edge"><title>Node13&#45;&gt;Node11</title>
<path fill="none" stroke="midnightblue" d="M1019.82,-422.305C1029.39,-421.021 1039.28,-419.694 1048.95,-418.397"/>
<polygon fill="midnightblue" stroke="midnightblue" points="1049.48,-421.858 1058.92,-417.059 1048.55,-414.92 1049.48,-421.858"/>
</g>
<!-- Node14&#45;&gt;Node10 -->
<g id="edge16" class="edge"><title>Node14&#45;&gt;Node10</title>
<path fill="none" stroke="midnightblue" d="M671.127,-354.056C687.361,-358.836 705.471,-364.169 722.31,-369.128"/>
<polygon fill="midnightblue" stroke="midnightblue" points="721.473,-372.53 732.054,-371.998 723.45,-365.815 721.473,-372.53"/>
</g>
<!-- Node14&#45;&gt;Node12 -->
<g id="edge17" class="edge"><title>Node14&#45;&gt;Node12</title>
<path fill="none" stroke="midnightblue" d="M676.095,-338.656C685.834,-338.596 696.11,-338.533 706.286,-338.471"/>
<polygon fill="midnightblue" stroke="midnightblue" points="706.428,-341.97 716.406,-338.409 706.385,-334.97 706.428,-341.97"/>
</g>
<!-- Node15 -->
<g id="node15" class="node"><title>Node15</title>
<g id="a_node15"><a xlink:href="classRa_1_1Engine_1_1RenderObjectManager.html#a32bd0db0d9620bb7e3f0fe50b541dae3" target="_top" xlink:title="Returns the render object corresponding to the given index. ">
<polygon fill="white" stroke="black" points="717,-421 717,-451 851,-451 851,-421 717,-421"/>
<text text-anchor="start" x="725" y="-439" font-family="Helvetica,sans-Serif" font-size="10.00">Ra::Engine::RenderObject</text>
<text text-anchor="middle" x="784" y="-428" font-family="Helvetica,sans-Serif" font-size="10.00">Manager::getRenderObject</text>
</a>
</g>
</g>
<!-- Node14&#45;&gt;Node15 -->
<g id="edge18" class="edge"><title>Node14&#45;&gt;Node15</title>
<path fill="none" stroke="midnightblue" d="M637.006,-354.153C655.432,-369.975 686.204,-394.71 716,-411 719.738,-413.044 723.677,-414.988 727.697,-416.824"/>
<polygon fill="midnightblue" stroke="midnightblue" points="726.598,-420.162 737.166,-420.906 729.368,-413.733 726.598,-420.162"/>
</g>
<!-- Node15&#45;&gt;Node13 -->
<g id="edge19" class="edge"><title>Node15&#45;&gt;Node13</title>
<path fill="none" stroke="midnightblue" d="M851.398,-434.024C860.261,-433.76 869.397,-433.488 878.389,-433.221"/>
<polygon fill="midnightblue" stroke="midnightblue" points="878.565,-436.717 888.456,-432.921 878.356,-429.72 878.565,-436.717"/>
</g>
<!-- Node16&#45;&gt;Node5 -->
<g id="edge21" class="edge"><title>Node16&#45;&gt;Node5</title>
<path fill="none" stroke="midnightblue" d="M654.629,-136.847C663.205,-132.517 672.174,-127.473 680,-122 698.036,-109.388 695.891,-96.9421 716,-88 769.875,-64.0433 837.414,-60.9055 886.596,-62.8124"/>
<polygon fill="midnightblue" stroke="midnightblue" points="886.647,-66.3186 896.8,-63.2902 886.975,-59.3263 886.647,-66.3186"/>
</g>
<!-- Node19&#45;&gt;Node5 -->
<g id="edge26" class="edge"><title>Node19&#45;&gt;Node5</title>
<path fill="none" stroke="midnightblue" d="M841.409,-39.7738C856.031,-43.6035 871.909,-47.7618 886.977,-51.7081"/>
<polygon fill="midnightblue" stroke="midnightblue" points="886.179,-55.1174 896.74,-54.2652 887.953,-48.3458 886.179,-55.1174"/>
</g>
<!-- Node19&#45;&gt;Node6 -->
<g id="edge27" class="edge"><title>Node19&#45;&gt;Node6</title>
<path fill="none" stroke="midnightblue" d="M841.281,-28.7071C897.548,-32.4133 984.334,-38.1298 1045.9,-42.1849"/>
<polygon fill="midnightblue" stroke="midnightblue" points="1045.73,-45.6812 1055.94,-42.8461 1046.19,-38.6963 1045.73,-45.6812"/>
</g>
</g>
</svg>
