<?xml version="1.0" encoding="UTF-8" standalone="no"?>
<!DOCTYPE svg PUBLIC "-//W3C//DTD SVG 1.1//EN"
 "http://www.w3.org/Graphics/SVG/1.1/DTD/svg11.dtd">
<!-- Generated by graphviz version 2.36.0 (20140111.2315)
 -->
<!-- Title: AnimationPlugin::AnimationSystem::restoreFrame Pages: 1 -->
<svg width="320pt" height="56pt"
 viewBox="0.00 0.00 320.00 56.00" xmlns="http://www.w3.org/2000/svg" xmlns:xlink="http://www.w3.org/1999/xlink">
<g id="graph0" class="graph" transform="scale(1 1) rotate(0) translate(4 52)">
<title>AnimationPlugin::AnimationSystem::restoreFrame</title>
<polygon fill="white" stroke="none" points="-4,4 -4,-52 316,-52 316,4 -4,4"/>
<!-- Node1 -->
<g id="node1" class="node"><title>Node1</title>
<polygon fill="#bfbfbf" stroke="black" points="0.5,-0 0.5,-30 137.5,-30 137.5,-0 0.5,-0"/>
<text text-anchor="start" x="8.5" y="-18" font-family="Helvetica,sans-Serif" font-size="10.00">AnimationPlugin::Animation</text>
<text text-anchor="middle" x="69" y="-7" font-family="Helvetica,sans-Serif" font-size="10.00">System::restoreFrame</text>
</g>
<!-- Node2 -->
<g id="node2" class="node"><title>Node2</title>
<g id="a_node2"><a xlink:href="classAnimationPlugin_1_1AnimationSystem.html#abfbf09ff83a03cbbcb158d5c5bdcc065" target="_top" xlink:title="Saves all the state data related to the current frame into a cache file. ">
<polygon fill="white" stroke="black" points="174.5,-0 174.5,-30 311.5,-30 311.5,-0 174.5,-0"/>
<text text-anchor="start" x="182.5" y="-18" font-family="Helvetica,sans-Serif" font-size="10.00">AnimationPlugin::Animation</text>
<text text-anchor="middle" x="243" y="-7" font-family="Helvetica,sans-Serif" font-size="10.00">System::cacheFrame</text>
</a>
</g>
</g>
<!-- Node1&#45;&gt;Node2 -->
<g id="edge1" class="edge"><title>Node1&#45;&gt;Node2</title>
<path fill="none" stroke="midnightblue" d="M137.979,-15C146.55,-15 155.372,-15 164.082,-15"/>
<polygon fill="midnightblue" stroke="midnightblue" points="164.233,-18.5001 174.233,-15 164.233,-11.5001 164.233,-18.5001"/>
</g>
<!-- Node2&#45;&gt;Node2 -->
<g id="edge2" class="edge"><title>Node2&#45;&gt;Node2</title>
<path fill="none" stroke="midnightblue" d="M212.414,-30.2754C205.617,-39.4062 215.812,-48 243,-48 259.143,-48 269.295,-44.9704 273.457,-40.5975"/>
<polygon fill="midnightblue" stroke="midnightblue" points="276.96,-40.3185 273.586,-30.2754 269.961,-40.2307 276.96,-40.3185"/>
</g>
</g>
</svg>
