<?xml version="1.0" encoding="UTF-8" standalone="no"?>
<!DOCTYPE svg PUBLIC "-//W3C//DTD SVG 1.1//EN"
 "http://www.w3.org/Graphics/SVG/1.1/DTD/svg11.dtd">
<!-- Generated by graphviz version 2.36.0 (20140111.2315)
 -->
<!-- Title: Ra::Core::Index::operator+ Pages: 1 -->
<svg width="458pt" height="85pt"
 viewBox="0.00 0.00 458.00 85.00" xmlns="http://www.w3.org/2000/svg" xmlns:xlink="http://www.w3.org/1999/xlink">
<g id="graph0" class="graph" transform="scale(1 1) rotate(0) translate(4 81)">
<title>Ra::Core::Index::operator+</title>
<polygon fill="white" stroke="none" points="-4,4 -4,-81 454,-81 454,4 -4,4"/>
<!-- Node1 -->
<g id="node1" class="node"><title>Node1</title>
<polygon fill="#bfbfbf" stroke="black" points="0,-19.5 0,-38.5 134,-38.5 134,-19.5 0,-19.5"/>
<text text-anchor="middle" x="67" y="-26.5" font-family="Helvetica,sans-Serif" font-size="10.00">Ra::Core::Index::operator+</text>
</g>
<!-- Node2 -->
<g id="node2" class="node"><title>Node2</title>
<g id="a_node2"><a xlink:href="classRa_1_1Core_1_1Index.html#a7283e7fb9cc134e04ef3cde8877f8fe2" target="_top" xlink:title="INVALID. ">
<polygon fill="white" stroke="black" points="170,-57.5 170,-76.5 298,-76.5 298,-57.5 170,-57.5"/>
<text text-anchor="middle" x="234" y="-64.5" font-family="Helvetica,sans-Serif" font-size="10.00">Ra::Core::Index::isInvalid</text>
</a>
</g>
</g>
<!-- Node1&#45;&gt;Node2 -->
<g id="edge1" class="edge"><title>Node1&#45;&gt;Node2</title>
<path fill="none" stroke="midnightblue" d="M109.636,-38.589C131.508,-43.6261 158.506,-49.8438 181.664,-55.1771"/>
<polygon fill="midnightblue" stroke="midnightblue" points="181.133,-58.6463 191.663,-57.4799 182.704,-51.8249 181.133,-58.6463"/>
</g>
<!-- Node3 -->
<g id="node3" class="node"><title>Node3</title>
<g id="a_node3"><a xlink:href="classRa_1_1Core_1_1Index.html#a16f988512f9ef442cc97b6bc4809ba45" target="_top" xlink:title="Ra::Core::Index::Invalid">
<polygon fill="white" stroke="black" points="173.5,-19.5 173.5,-38.5 294.5,-38.5 294.5,-19.5 173.5,-19.5"/>
<text text-anchor="middle" x="234" y="-26.5" font-family="Helvetica,sans-Serif" font-size="10.00">Ra::Core::Index::Invalid</text>
</a>
</g>
</g>
<!-- Node1&#45;&gt;Node3 -->
<g id="edge2" class="edge"><title>Node1&#45;&gt;Node3</title>
<path fill="none" stroke="midnightblue" d="M134.161,-29C143.81,-29 153.769,-29 163.482,-29"/>
<polygon fill="midnightblue" stroke="midnightblue" points="163.491,-32.5001 173.491,-29 163.491,-25.5001 163.491,-32.5001"/>
</g>
<!-- Node4 -->
<g id="node4" class="node"><title>Node4</title>
<g id="a_node4"><a xlink:href="classRa_1_1Core_1_1Index.html#af6afe563ad57a4ab82f3706987e684ef" target="_top" xlink:title="CONSTRUCTOR. ">
<polygon fill="white" stroke="black" points="334,-0.5 334,-19.5 450,-19.5 450,-0.5 334,-0.5"/>
<text text-anchor="middle" x="392" y="-7.5" font-family="Helvetica,sans-Serif" font-size="10.00">Ra::Core::Index::Index</text>
</a>
</g>
</g>
<!-- Node1&#45;&gt;Node4 -->
<g id="edge4" class="edge"><title>Node1&#45;&gt;Node4</title>
<path fill="none" stroke="midnightblue" d="M109.444,-19.4889C127.876,-15.7237 149.911,-11.8551 170,-10 221.286,-5.26406 279.554,-5.49487 323.379,-6.78583"/>
<polygon fill="midnightblue" stroke="midnightblue" points="323.522,-10.2921 333.629,-7.11474 323.747,-3.29574 323.522,-10.2921"/>
</g>
<!-- Node3&#45;&gt;Node4 -->
<g id="edge3" class="edge"><title>Node3&#45;&gt;Node4</title>
<path fill="none" stroke="midnightblue" d="M294.868,-21.7084C304.369,-20.5512 314.251,-19.3476 323.906,-18.1717"/>
<polygon fill="midnightblue" stroke="midnightblue" points="324.356,-21.6429 333.859,-16.9594 323.51,-14.6942 324.356,-21.6429"/>
</g>
</g>
</svg>
