<?xml version="1.0" encoding="UTF-8" standalone="no"?>
<!DOCTYPE svg PUBLIC "-//W3C//DTD SVG 1.1//EN"
 "http://www.w3.org/Graphics/SVG/1.1/DTD/svg11.dtd">
<!-- Generated by graphviz version 2.36.0 (20140111.2315)
 -->
<!-- Title: Ra::Core::Animation::Cage Pages: 1 -->
<svg width="557pt" height="1040pt"
 viewBox="0.00 0.00 557.00 1040.00" xmlns="http://www.w3.org/2000/svg" xmlns:xlink="http://www.w3.org/1999/xlink">
<g id="graph0" class="graph" transform="scale(1 1) rotate(0) translate(4 1036)">
<title>Ra::Core::Animation::Cage</title>
<polygon fill="white" stroke="none" points="-4,4 -4,-1036 553,-1036 553,4 -4,4"/>
<!-- Node1 -->
<g id="node1" class="node"><title>Node1</title>
<polygon fill="#bfbfbf" stroke="black" points="154,-1 154,-113 260,-113 260,-1 154,-1"/>
<text text-anchor="start" x="162" y="-101" font-family="Helvetica,sans-Serif" font-size="10.00">Ra::Core::Animation</text>
<text text-anchor="middle" x="207" y="-90" font-family="Helvetica,sans-Serif" font-size="10.00">::Cage</text>
<polyline fill="none" stroke="black" points="154,-83 260,-83 "/>
<text text-anchor="middle" x="207" y="-71" font-family="Helvetica,sans-Serif" font-size="10.00"> </text>
<polyline fill="none" stroke="black" points="154,-64 260,-64 "/>
<text text-anchor="start" x="162" y="-52" font-family="Helvetica,sans-Serif" font-size="10.00">+ Cage()</text>
<text text-anchor="start" x="162" y="-41" font-family="Helvetica,sans-Serif" font-size="10.00">+ Cage()</text>
<text text-anchor="start" x="162" y="-30" font-family="Helvetica,sans-Serif" font-size="10.00">+ Cage()</text>
<text text-anchor="start" x="162" y="-19" font-family="Helvetica,sans-Serif" font-size="10.00">+ ~Cage()</text>
<text text-anchor="start" x="162" y="-8" font-family="Helvetica,sans-Serif" font-size="10.00">+ clear()</text>
</g>
<!-- Node2 -->
<g id="node2" class="node"><title>Node2</title>
<g id="a_node2"><a xlink:href="classRa_1_1Core_1_1Animation_1_1Handle.html" target="_top" xlink:title="The Handle class describes the base handle structure used for deformation. ">
<polygon fill="white" stroke="black" points="87,-399 87,-621 193,-621 193,-399 87,-399"/>
<text text-anchor="start" x="95" y="-609" font-family="Helvetica,sans-Serif" font-size="10.00">Ra::Core::Animation</text>
<text text-anchor="middle" x="140" y="-598" font-family="Helvetica,sans-Serif" font-size="10.00">::Handle</text>
<polyline fill="none" stroke="black" points="87,-591 193,-591 "/>
<text text-anchor="middle" x="140" y="-579" font-family="Helvetica,sans-Serif" font-size="10.00"> </text>
<polyline fill="none" stroke="black" points="87,-572 193,-572 "/>
<text text-anchor="start" x="95" y="-560" font-family="Helvetica,sans-Serif" font-size="10.00">+ Handle()</text>
<text text-anchor="start" x="95" y="-549" font-family="Helvetica,sans-Serif" font-size="10.00">+ Handle()</text>
<text text-anchor="start" x="95" y="-538" font-family="Helvetica,sans-Serif" font-size="10.00">+ Handle()</text>
<text text-anchor="start" x="95" y="-527" font-family="Helvetica,sans-Serif" font-size="10.00">+ operator=()</text>
<text text-anchor="start" x="95" y="-516" font-family="Helvetica,sans-Serif" font-size="10.00">+ ~Handle()</text>
<text text-anchor="start" x="95" y="-505" font-family="Helvetica,sans-Serif" font-size="10.00">+ size()</text>
<text text-anchor="start" x="95" y="-494" font-family="Helvetica,sans-Serif" font-size="10.00">+ clear()</text>
<text text-anchor="start" x="95" y="-483" font-family="Helvetica,sans-Serif" font-size="10.00">+ getPose()</text>
<text text-anchor="start" x="95" y="-472" font-family="Helvetica,sans-Serif" font-size="10.00">+ setPose()</text>
<text text-anchor="start" x="95" y="-461" font-family="Helvetica,sans-Serif" font-size="10.00">+ getTransform()</text>
<text text-anchor="start" x="95" y="-450" font-family="Helvetica,sans-Serif" font-size="10.00">+ setTransform()</text>
<text text-anchor="start" x="95" y="-439" font-family="Helvetica,sans-Serif" font-size="10.00">+ getName()</text>
<text text-anchor="start" x="95" y="-428" font-family="Helvetica,sans-Serif" font-size="10.00">+ setName()</text>
<text text-anchor="start" x="95" y="-417" font-family="Helvetica,sans-Serif" font-size="10.00">+ getLabel()</text>
<text text-anchor="start" x="95" y="-406" font-family="Helvetica,sans-Serif" font-size="10.00">+ setLabel()</text>
</a>
</g>
</g>
<!-- Node2&#45;&gt;Node1 -->
<g id="edge1" class="edge"><title>Node2&#45;&gt;Node1</title>
<path fill="none" stroke="midnightblue" d="M157.823,-389.024C171.115,-299.555 188.657,-181.472 198.797,-113.217"/>
<polygon fill="none" stroke="midnightblue" points="154.355,-388.556 156.347,-398.961 161.279,-389.584 154.355,-388.556"/>
</g>
<!-- Node3 -->
<g id="node3" class="node"><title>Node3</title>
<polygon fill="white" stroke="#bfbfbf" points="88,-670.5 88,-727.5 192,-727.5 192,-670.5 88,-670.5"/>
<text text-anchor="middle" x="140" y="-715.5" font-family="Helvetica,sans-Serif" font-size="10.00">std::vector&lt; Label &gt;</text>
<polyline fill="none" stroke="#bfbfbf" points="88,-708.5 192,-708.5 "/>
<text text-anchor="middle" x="140" y="-696.5" font-family="Helvetica,sans-Serif" font-size="10.00"> </text>
<polyline fill="none" stroke="#bfbfbf" points="88,-689.5 192,-689.5 "/>
<text text-anchor="middle" x="140" y="-677.5" font-family="Helvetica,sans-Serif" font-size="10.00"> </text>
</g>
<!-- Node3&#45;&gt;Node2 -->
<g id="edge2" class="edge"><title>Node3&#45;&gt;Node2</title>
<path fill="none" stroke="#404040" d="M140,-670.408C140,-659.878 140,-647.08 140,-633.362"/>
<polygon fill="none" stroke="#404040" points="140,-633.105 136,-627.105 140,-621.105 144,-627.105 140,-633.105"/>
<text text-anchor="middle" x="161.5" y="-643.5" font-family="Helvetica,sans-Serif" font-size="10.00"> #m_label</text>
</g>
<!-- Node4 -->
<g id="node4" class="node"><title>Node4</title>
<g id="a_node4"><a xlink:title="STL class. ">
<polygon fill="white" stroke="#bfbfbf" points="17,-850.5 17,-907.5 77,-907.5 77,-850.5 17,-850.5"/>
<text text-anchor="middle" x="47" y="-895.5" font-family="Helvetica,sans-Serif" font-size="10.00">std::string</text>
<polyline fill="none" stroke="#bfbfbf" points="17,-888.5 77,-888.5 "/>
<text text-anchor="middle" x="47" y="-876.5" font-family="Helvetica,sans-Serif" font-size="10.00"> </text>
<polyline fill="none" stroke="#bfbfbf" points="17,-869.5 77,-869.5 "/>
<text text-anchor="middle" x="47" y="-857.5" font-family="Helvetica,sans-Serif" font-size="10.00"> </text>
</a>
</g>
</g>
<!-- Node4&#45;&gt;Node2 -->
<g id="edge10" class="edge"><title>Node4&#45;&gt;Node2</title>
<path fill="none" stroke="#404040" d="M39.0036,-850.364C28.6319,-809.829 13.9861,-732.311 33,-670 42.6442,-638.395 60.9089,-607.382 79.6541,-581.259"/>
<polygon fill="none" stroke="#404040" points="79.7287,-581.158 80.0661,-573.955 86.845,-571.496 86.5076,-578.699 79.7287,-581.158"/>
<text text-anchor="middle" x="56" y="-696.5" font-family="Helvetica,sans-Serif" font-size="10.00"> #m_name</text>
</g>
<!-- Node4&#45;&gt;Node3 -->
<g id="edge3" class="edge"><title>Node4&#45;&gt;Node3</title>
<path fill="none" stroke="#404040" d="M48.0165,-850.305C50.244,-821.987 57.1156,-777.767 78,-746 80.3158,-742.477 82.9985,-739.126 85.9229,-735.957"/>
<polygon fill="none" stroke="#404040" points="86.0503,-735.835 87.6033,-728.793 94.7008,-727.518 93.1478,-734.56 86.0503,-735.835"/>
<text text-anchor="middle" x="102.5" y="-783.5" font-family="Helvetica,sans-Serif" font-size="10.00"> +elements</text>
</g>
<!-- Node5 -->
<g id="node5" class="node"><title>Node5</title>
<g id="a_node5"><a xlink:title="STL class. ">
<polygon fill="white" stroke="#bfbfbf" points="-0.5,-963 -0.5,-1031 94.5,-1031 94.5,-963 -0.5,-963"/>
<text text-anchor="start" x="7.5" y="-1019" font-family="Helvetica,sans-Serif" font-size="10.00">std::basic_string&lt;</text>
<text text-anchor="middle" x="47" y="-1008" font-family="Helvetica,sans-Serif" font-size="10.00"> char &gt;</text>
<polyline fill="none" stroke="#bfbfbf" points="-0.5,-1001 94.5,-1001 "/>
<text text-anchor="middle" x="47" y="-989" font-family="Helvetica,sans-Serif" font-size="10.00"> </text>
<polyline fill="none" stroke="#bfbfbf" points="-0.5,-982 94.5,-982 "/>
<text text-anchor="middle" x="47" y="-970" font-family="Helvetica,sans-Serif" font-size="10.00"> </text>
</a>
</g>
</g>
<!-- Node5&#45;&gt;Node4 -->
<g id="edge4" class="edge"><title>Node5&#45;&gt;Node4</title>
<path fill="none" stroke="midnightblue" d="M47,-952.636C47,-937.611 47,-921.185 47,-907.76"/>
<polygon fill="none" stroke="midnightblue" points="43.5001,-952.759 47,-962.759 50.5001,-952.759 43.5001,-952.759"/>
</g>
<!-- Node6 -->
<g id="node6" class="node"><title>Node6</title>
<g id="a_node6"><a xlink:title="STL class. ">
<polygon fill="white" stroke="#bfbfbf" points="101.5,-850.5 101.5,-907.5 188.5,-907.5 188.5,-850.5 101.5,-850.5"/>
<text text-anchor="middle" x="145" y="-895.5" font-family="Helvetica,sans-Serif" font-size="10.00">std::vector&lt; T &gt;</text>
<polyline fill="none" stroke="#bfbfbf" points="101.5,-888.5 188.5,-888.5 "/>
<text text-anchor="middle" x="145" y="-876.5" font-family="Helvetica,sans-Serif" font-size="10.00"> </text>
<polyline fill="none" stroke="#bfbfbf" points="101.5,-869.5 188.5,-869.5 "/>
<text text-anchor="middle" x="145" y="-857.5" font-family="Helvetica,sans-Serif" font-size="10.00"> </text>
</a>
</g>
</g>
<!-- Node6&#45;&gt;Node3 -->
<g id="edge5" class="edge"><title>Node6&#45;&gt;Node3</title>
<path fill="none" stroke="orange" d="M135.304,-840.587C134.353,-835.709 133.542,-830.755 133,-826 128.977,-790.673 130.318,-781.454 133,-746 133.451,-740.039 134.226,-733.681 135.1,-727.653"/>
<polygon fill="orange" stroke="orange" points="131.89,-841.361 137.408,-850.406 138.735,-839.894 131.89,-841.361"/>
<text text-anchor="middle" x="155.5" y="-783.5" font-family="Helvetica,sans-Serif" font-size="10.00"> &lt; Label &gt;</text>
</g>
<!-- Node7 -->
<g id="node7" class="node"><title>Node7</title>
<polygon fill="white" stroke="#bfbfbf" points="273.5,-968.5 273.5,-1025.5 302.5,-1025.5 302.5,-968.5 273.5,-968.5"/>
<text text-anchor="middle" x="288" y="-1013.5" font-family="Helvetica,sans-Serif" font-size="10.00">T</text>
<polyline fill="none" stroke="#bfbfbf" points="273.5,-1006.5 302.5,-1006.5 "/>
<text text-anchor="middle" x="288" y="-994.5" font-family="Helvetica,sans-Serif" font-size="10.00"> </text>
<polyline fill="none" stroke="#bfbfbf" points="273.5,-987.5 302.5,-987.5 "/>
<text text-anchor="middle" x="288" y="-975.5" font-family="Helvetica,sans-Serif" font-size="10.00"> </text>
</g>
<!-- Node7&#45;&gt;Node6 -->
<g id="edge6" class="edge"><title>Node7&#45;&gt;Node6</title>
<path fill="none" stroke="#404040" d="M273.458,-992.637C250.173,-986.584 204.273,-971.813 176,-944 168.883,-936.999 163.17,-928.036 158.683,-919.048"/>
<polygon fill="none" stroke="#404040" points="158.548,-918.748 152.445,-914.908 153.642,-907.797 159.746,-911.637 158.548,-918.748"/>
<text text-anchor="middle" x="200.5" y="-935.5" font-family="Helvetica,sans-Serif" font-size="10.00"> +elements</text>
</g>
<!-- Node9 -->
<g id="node9" class="node"><title>Node9</title>
<g id="a_node9"><a xlink:title="STL class. ">
<polygon fill="white" stroke="#bfbfbf" points="275,-845 275,-913 403,-913 403,-845 275,-845"/>
<text text-anchor="start" x="283" y="-901" font-family="Helvetica,sans-Serif" font-size="10.00">std::vector&lt; T, Eigen</text>
<text text-anchor="middle" x="339" y="-890" font-family="Helvetica,sans-Serif" font-size="10.00">::aligned_allocator&lt; T &gt; &gt;</text>
<polyline fill="none" stroke="#bfbfbf" points="275,-883 403,-883 "/>
<text text-anchor="middle" x="339" y="-871" font-family="Helvetica,sans-Serif" font-size="10.00"> </text>
<polyline fill="none" stroke="#bfbfbf" points="275,-864 403,-864 "/>
<text text-anchor="middle" x="339" y="-852" font-family="Helvetica,sans-Serif" font-size="10.00"> </text>
</a>
</g>
</g>
<!-- Node7&#45;&gt;Node9 -->
<g id="edge9" class="edge"><title>Node7&#45;&gt;Node9</title>
<path fill="none" stroke="#404040" d="M300.216,-968.215C305.936,-955.205 312.893,-939.38 319.328,-924.745"/>
<polygon fill="none" stroke="#404040" points="319.512,-924.324 318.266,-917.222 324.342,-913.339 325.589,-920.442 319.512,-924.324"/>
<text text-anchor="middle" x="340.5" y="-935.5" font-family="Helvetica,sans-Serif" font-size="10.00"> +elements</text>
</g>
<!-- Node12 -->
<g id="node12" class="node"><title>Node12</title>
<g id="a_node12"><a xlink:title="STL class. ">
<polygon fill="white" stroke="#bfbfbf" points="383,-746.5 383,-825.5 549,-825.5 549,-746.5 383,-746.5"/>
<text text-anchor="start" x="391" y="-813.5" font-family="Helvetica,sans-Serif" font-size="10.00">std::vector&lt; Ra::Core</text>
<text text-anchor="start" x="391" y="-802.5" font-family="Helvetica,sans-Serif" font-size="10.00">::Triangle, Eigen::aligned</text>
<text text-anchor="middle" x="466" y="-791.5" font-family="Helvetica,sans-Serif" font-size="10.00">_allocator&lt; Ra::Core::Triangle &gt; &gt;</text>
<polyline fill="none" stroke="#bfbfbf" points="383,-784.5 549,-784.5 "/>
<text text-anchor="middle" x="466" y="-772.5" font-family="Helvetica,sans-Serif" font-size="10.00"> </text>
<polyline fill="none" stroke="#bfbfbf" points="383,-765.5 549,-765.5 "/>
<text text-anchor="middle" x="466" y="-753.5" font-family="Helvetica,sans-Serif" font-size="10.00"> </text>
</a>
</g>
</g>
<!-- Node7&#45;&gt;Node12 -->
<g id="edge14" class="edge"><title>Node7&#45;&gt;Node12</title>
<path fill="none" stroke="#404040" d="M302.718,-989.872C328.321,-978.519 381.258,-951.873 412,-914 430.249,-891.518 443.303,-861.957 451.999,-837.012"/>
<polygon fill="none" stroke="#404040" points="452.023,-836.943 450.119,-829.987 455.807,-825.555 457.711,-832.51 452.023,-836.943"/>
<text text-anchor="middle" x="419.5" y="-935.5" font-family="Helvetica,sans-Serif" font-size="10.00"> +elements</text>
</g>
<!-- Node15 -->
<g id="node15" class="node"><title>Node15</title>
<g id="a_node15"><a xlink:title="STL class. ">
<polygon fill="white" stroke="#bfbfbf" points="187.5,-752 187.5,-820 316.5,-820 316.5,-752 187.5,-752"/>
<text text-anchor="start" x="195.5" y="-808" font-family="Helvetica,sans-Serif" font-size="10.00">std::vector&lt; V, Eigen</text>
<text text-anchor="middle" x="252" y="-797" font-family="Helvetica,sans-Serif" font-size="10.00">::aligned_allocator&lt; V &gt; &gt;</text>
<polyline fill="none" stroke="#bfbfbf" points="187.5,-790 316.5,-790 "/>
<text text-anchor="middle" x="252" y="-778" font-family="Helvetica,sans-Serif" font-size="10.00"> </text>
<polyline fill="none" stroke="#bfbfbf" points="187.5,-771 316.5,-771 "/>
<text text-anchor="middle" x="252" y="-759" font-family="Helvetica,sans-Serif" font-size="10.00"> </text>
</a>
</g>
</g>
<!-- Node7&#45;&gt;Node15 -->
<g id="edge19" class="edge"><title>Node7&#45;&gt;Node15</title>
<path fill="none" stroke="#404040" d="M273.492,-975.225C267.897,-966.077 262.106,-954.938 259,-944 248.606,-907.39 247.46,-864.066 248.571,-832.212"/>
<polygon fill="none" stroke="#404040" points="248.573,-832.164 244.848,-825.989 249.116,-820.176 252.84,-826.351 248.573,-832.164"/>
<text text-anchor="middle" x="283.5" y="-935.5" font-family="Helvetica,sans-Serif" font-size="10.00"> +elements</text>
</g>
<!-- Node8 -->
<g id="node8" class="node"><title>Node8</title>
<g id="a_node8"><a xlink:href="structRa_1_1Core_1_1AlignedStdVector.html" target="_top" xlink:title="Shortcut for the ubiquitous aligned std::vector Uses Eigen&#39;s aligned allocator, as stated in http://e...">
<polygon fill="white" stroke="black" points="251,-670.5 251,-727.5 413,-727.5 413,-670.5 251,-670.5"/>
<text text-anchor="middle" x="332" y="-715.5" font-family="Helvetica,sans-Serif" font-size="10.00">Ra::Core::AlignedStdVector&lt; T &gt;</text>
<polyline fill="none" stroke="black" points="251,-708.5 413,-708.5 "/>
<text text-anchor="middle" x="332" y="-696.5" font-family="Helvetica,sans-Serif" font-size="10.00"> </text>
<polyline fill="none" stroke="black" points="251,-689.5 413,-689.5 "/>
<text text-anchor="middle" x="332" y="-677.5" font-family="Helvetica,sans-Serif" font-size="10.00"> </text>
</a>
</g>
</g>
<!-- Node8&#45;&gt;Node2 -->
<g id="edge7" class="edge"><title>Node8&#45;&gt;Node2</title>
<path fill="none" stroke="#404040" d="M269.729,-670.326C246.542,-657.907 221.219,-641.6 202,-622 201.71,-621.704 201.421,-621.407 201.133,-621.109"/>
<polygon fill="none" stroke="#404040" points="201.03,-620.993 194.052,-619.177 193.044,-612.037 200.022,-613.853 201.03,-620.993"/>
<text text-anchor="middle" x="259" y="-643.5" font-family="Helvetica,sans-Serif" font-size="10.00"> +m_pose</text>
</g>
<!-- Node11 -->
<g id="node11" class="node"><title>Node11</title>
<g id="a_node11"><a xlink:href="structRa_1_1Core_1_1AlignedStdVector.html" target="_top" xlink:title="{Ra::Core::AlignedStdVector\l\&lt; Ra::Core::Triangle \&gt;\n||}">
<polygon fill="white" stroke="black" points="393,-476 393,-544 531,-544 531,-476 393,-476"/>
<text text-anchor="start" x="401" y="-532" font-family="Helvetica,sans-Serif" font-size="10.00">Ra::Core::AlignedStdVector</text>
<text text-anchor="middle" x="462" y="-521" font-family="Helvetica,sans-Serif" font-size="10.00">&lt; Ra::Core::Triangle &gt;</text>
<polyline fill="none" stroke="black" points="393,-514 531,-514 "/>
<text text-anchor="middle" x="462" y="-502" font-family="Helvetica,sans-Serif" font-size="10.00"> </text>
<polyline fill="none" stroke="black" points="393,-495 531,-495 "/>
<text text-anchor="middle" x="462" y="-483" font-family="Helvetica,sans-Serif" font-size="10.00"> </text>
</a>
</g>
</g>
<!-- Node8&#45;&gt;Node11 -->
<g id="edge15" class="edge"><title>Node8&#45;&gt;Node11</title>
<path fill="none" stroke="orange" d="M356.941,-662.123C380.638,-628.036 415.978,-577.201 439.009,-544.072"/>
<polygon fill="orange" stroke="orange" points="354.016,-660.199 351.182,-670.408 359.764,-664.194 354.016,-660.199"/>
<text text-anchor="middle" x="422" y="-643.5" font-family="Helvetica,sans-Serif" font-size="10.00"> &lt; Ra::Core::Triangle &gt;</text>
</g>
<!-- Node14 -->
<g id="node14" class="node"><title>Node14</title>
<g id="a_node14"><a xlink:href="structRa_1_1Core_1_1AlignedStdVector.html" target="_top" xlink:title="{Ra::Core::AlignedStdVector\&lt; V \&gt;\n||}">
<polygon fill="white" stroke="black" points="211.5,-481.5 211.5,-538.5 374.5,-538.5 374.5,-481.5 211.5,-481.5"/>
<text text-anchor="middle" x="293" y="-526.5" font-family="Helvetica,sans-Serif" font-size="10.00">Ra::Core::AlignedStdVector&lt; V &gt;</text>
<polyline fill="none" stroke="black" points="211.5,-519.5 374.5,-519.5 "/>
<text text-anchor="middle" x="293" y="-507.5" font-family="Helvetica,sans-Serif" font-size="10.00"> </text>
<polyline fill="none" stroke="black" points="211.5,-500.5 374.5,-500.5 "/>
<text text-anchor="middle" x="293" y="-488.5" font-family="Helvetica,sans-Serif" font-size="10.00"> </text>
</a>
</g>
</g>
<!-- Node8&#45;&gt;Node14 -->
<g id="edge20" class="edge"><title>Node8&#45;&gt;Node14</title>
<path fill="none" stroke="orange" d="M324.137,-660.296C316.631,-624.309 305.5,-570.934 298.778,-538.706"/>
<polygon fill="orange" stroke="orange" points="320.777,-661.333 326.245,-670.408 327.63,-659.904 320.777,-661.333"/>
<text text-anchor="middle" x="336" y="-643.5" font-family="Helvetica,sans-Serif" font-size="10.00"> &lt; V &gt;</text>
</g>
<!-- Node9&#45;&gt;Node8 -->
<g id="edge8" class="edge"><title>Node9&#45;&gt;Node8</title>
<path fill="none" stroke="midnightblue" d="M337.292,-834.558C335.981,-801.219 334.21,-756.201 333.087,-727.629"/>
<polygon fill="none" stroke="midnightblue" points="333.809,-835.082 337.7,-844.937 340.804,-834.807 333.809,-835.082"/>
</g>
<!-- Node10 -->
<g id="node10" class="node"><title>Node10</title>
<g id="a_node10"><a xlink:href="classRa_1_1Core_1_1VectorArray.html" target="_top" xlink:title="{Ra::Core::VectorArray\l\&lt; Ra::Core::Triangle \&gt;\n||+ getMap()\l+ getMap()\l}">
<polygon fill="white" stroke="black" points="235.5,-162.5 235.5,-241.5 350.5,-241.5 350.5,-162.5 235.5,-162.5"/>
<text text-anchor="start" x="243.5" y="-229.5" font-family="Helvetica,sans-Serif" font-size="10.00">Ra::Core::VectorArray</text>
<text text-anchor="middle" x="293" y="-218.5" font-family="Helvetica,sans-Serif" font-size="10.00">&lt; Ra::Core::Triangle &gt;</text>
<polyline fill="none" stroke="black" points="235.5,-211.5 350.5,-211.5 "/>
<text text-anchor="middle" x="293" y="-199.5" font-family="Helvetica,sans-Serif" font-size="10.00"> </text>
<polyline fill="none" stroke="black" points="235.5,-192.5 350.5,-192.5 "/>
<text text-anchor="start" x="243.5" y="-180.5" font-family="Helvetica,sans-Serif" font-size="10.00">+ getMap()</text>
<text text-anchor="start" x="243.5" y="-169.5" font-family="Helvetica,sans-Serif" font-size="10.00">+ getMap()</text>
</a>
</g>
</g>
<!-- Node10&#45;&gt;Node1 -->
<g id="edge11" class="edge"><title>Node10&#45;&gt;Node1</title>
<path fill="none" stroke="#404040" d="M269.727,-162.302C262.544,-150.358 254.423,-136.855 246.465,-123.622"/>
<polygon fill="none" stroke="#404040" points="246.323,-123.387 239.803,-120.306 240.139,-113.103 246.659,-116.183 246.323,-123.387"/>
<text text-anchor="middle" x="285.5" y="-135.5" font-family="Helvetica,sans-Serif" font-size="10.00"> +m_triangle</text>
</g>
<!-- Node11&#45;&gt;Node10 -->
<g id="edge12" class="edge"><title>Node11&#45;&gt;Node10</title>
<path fill="none" stroke="midnightblue" d="M461.344,-465.727C458.407,-412.117 446.191,-320.478 399,-260 386.596,-244.103 368.481,-232.092 350.724,-223.296"/>
<polygon fill="none" stroke="midnightblue" points="457.857,-466.093 461.815,-475.921 464.85,-465.77 457.857,-466.093"/>
</g>
<!-- Node12&#45;&gt;Node11 -->
<g id="edge13" class="edge"><title>Node12&#45;&gt;Node11</title>
<path fill="none" stroke="midnightblue" d="M472.353,-736.265C475.27,-708.139 477.736,-672.09 476,-640 474.229,-607.271 469.949,-570.074 466.584,-544.061"/>
<polygon fill="none" stroke="midnightblue" points="468.869,-735.926 471.265,-746.247 475.828,-736.685 468.869,-735.926"/>
</g>
<!-- Node13 -->
<g id="node13" class="node"><title>Node13</title>
<g id="a_node13"><a xlink:href="classRa_1_1Core_1_1VectorArray.html" target="_top" xlink:title="This class is a wrapper around a std::vector of Core::Vectors. ">
<polygon fill="white" stroke="black" points="223.5,-291 223.5,-359 362.5,-359 362.5,-291 223.5,-291"/>
<text text-anchor="middle" x="293" y="-347" font-family="Helvetica,sans-Serif" font-size="10.00">Ra::Core::VectorArray&lt; V &gt;</text>
<polyline fill="none" stroke="black" points="223.5,-340 362.5,-340 "/>
<text text-anchor="middle" x="293" y="-328" font-family="Helvetica,sans-Serif" font-size="10.00"> </text>
<polyline fill="none" stroke="black" points="223.5,-321 362.5,-321 "/>
<text text-anchor="start" x="231.5" y="-309" font-family="Helvetica,sans-Serif" font-size="10.00">+ getMap()</text>
<text text-anchor="start" x="231.5" y="-298" font-family="Helvetica,sans-Serif" font-size="10.00">+ getMap()</text>
</a>
</g>
</g>
<!-- Node13&#45;&gt;Node10 -->
<g id="edge16" class="edge"><title>Node13&#45;&gt;Node10</title>
<path fill="none" stroke="orange" d="M293,-280.557C293,-267.828 293,-254.003 293,-241.597"/>
<polygon fill="orange" stroke="orange" points="289.5,-280.936 293,-290.936 296.5,-280.936 289.5,-280.936"/>
<text text-anchor="middle" x="344" y="-263.5" font-family="Helvetica,sans-Serif" font-size="10.00"> &lt; Ra::Core::Triangle &gt;</text>
</g>
<!-- Node14&#45;&gt;Node13 -->
<g id="edge17" class="edge"><title>Node14&#45;&gt;Node13</title>
<path fill="none" stroke="midnightblue" d="M293,-471.016C293,-437.958 293,-390.528 293,-359.021"/>
<polygon fill="none" stroke="midnightblue" points="289.5,-471.206 293,-481.206 296.5,-471.206 289.5,-471.206"/>
</g>
<!-- Node15&#45;&gt;Node14 -->
<g id="edge18" class="edge"><title>Node15&#45;&gt;Node14</title>
<path fill="none" stroke="midnightblue" d="M240.178,-742.054C233.91,-713.011 228.841,-673.915 236,-640 243.788,-603.107 262.833,-563.918 276.773,-538.547"/>
<polygon fill="none" stroke="midnightblue" points="236.785,-742.915 242.427,-751.883 243.608,-741.354 236.785,-742.915"/>
</g>
</g>
</svg>
