<?xml version="1.0" encoding="UTF-8" standalone="no"?>
<!DOCTYPE svg PUBLIC "-//W3C//DTD SVG 1.1//EN"
 "http://www.w3.org/Graphics/SVG/1.1/DTD/svg11.dtd">
<!-- Generated by graphviz version 2.36.0 (20140111.2315)
 -->
<!-- Title: Ra::Core::MAPFileManager::importData Pages: 1 -->
<svg width="320pt" height="146pt"
 viewBox="0.00 0.00 320.00 146.00" xmlns="http://www.w3.org/2000/svg" xmlns:xlink="http://www.w3.org/1999/xlink">
<g id="graph0" class="graph" transform="scale(1 1) rotate(0) translate(4 142)">
<title>Ra::Core::MAPFileManager::importData</title>
<polygon fill="white" stroke="none" points="-4,4 -4,-142 316,-142 316,4 -4,4"/>
<!-- Node1 -->
<g id="node1" class="node"><title>Node1</title>
<polygon fill="#bfbfbf" stroke="black" points="0.5,-54 0.5,-84 137.5,-84 137.5,-54 0.5,-54"/>
<text text-anchor="start" x="8.5" y="-72" font-family="Helvetica,sans-Serif" font-size="10.00">Ra::Core::MAPFileManager</text>
<text text-anchor="middle" x="69" y="-61" font-family="Helvetica,sans-Serif" font-size="10.00">::importData</text>
</g>
<!-- Node2 -->
<g id="node2" class="node"><title>Node2</title>
<g id="a_node2"><a xlink:href="classRa_1_1Core_1_1MAPFileManager.html#a5bf2e850b204bb574a4fcf27c6f78995" target="_top" xlink:title="HEADER. ">
<polygon fill="white" stroke="black" points="174.5,-108 174.5,-138 311.5,-138 311.5,-108 174.5,-108"/>
<text text-anchor="start" x="182.5" y="-126" font-family="Helvetica,sans-Serif" font-size="10.00">Ra::Core::MAPFileManager</text>
<text text-anchor="middle" x="243" y="-115" font-family="Helvetica,sans-Serif" font-size="10.00">::header</text>
</a>
</g>
</g>
<!-- Node1&#45;&gt;Node2 -->
<g id="edge1" class="edge"><title>Node1&#45;&gt;Node2</title>
<path fill="none" stroke="midnightblue" d="M117.912,-84.042C138.513,-90.51 162.769,-98.1253 184.345,-104.899"/>
<polygon fill="midnightblue" stroke="midnightblue" points="183.458,-108.289 194.047,-107.945 185.555,-101.61 183.458,-108.289"/>
</g>
<!-- Node3 -->
<g id="node3" class="node"><title>Node3</title>
<g id="a_node3"><a xlink:href="classRa_1_1Core_1_1FileManager.html#a32776fbf23e35ba0354e941b95194e73" target="_top" xlink:title="Ra::Core::FileManager\l\&lt; Parametrization \&gt;::\laddLogErrorEntry">
<polygon fill="white" stroke="black" points="185,-48.5 185,-89.5 301,-89.5 301,-48.5 185,-48.5"/>
<text text-anchor="start" x="193" y="-77.5" font-family="Helvetica,sans-Serif" font-size="10.00">Ra::Core::FileManager</text>
<text text-anchor="start" x="193" y="-66.5" font-family="Helvetica,sans-Serif" font-size="10.00">&lt; Parametrization &gt;::</text>
<text text-anchor="middle" x="243" y="-55.5" font-family="Helvetica,sans-Serif" font-size="10.00">addLogErrorEntry</text>
</a>
</g>
</g>
<!-- Node1&#45;&gt;Node3 -->
<g id="edge2" class="edge"><title>Node1&#45;&gt;Node3</title>
<path fill="none" stroke="midnightblue" d="M137.979,-69C150.083,-69 162.686,-69 174.77,-69"/>
<polygon fill="midnightblue" stroke="midnightblue" points="174.775,-72.5001 184.775,-69 174.775,-65.5001 174.775,-72.5001"/>
</g>
<!-- Node4 -->
<g id="node4" class="node"><title>Node4</title>
<g id="a_node4"><a xlink:href="namespaceRa_1_1Core_1_1Algorithm.html#abebfe08bb2303204bea2baea8195439d" target="_top" xlink:title="Ra::Core::Algorithm\l::delta">
<polygon fill="white" stroke="black" points="191,-0 191,-30 295,-30 295,-0 191,-0"/>
<text text-anchor="start" x="199" y="-18" font-family="Helvetica,sans-Serif" font-size="10.00">Ra::Core::Algorithm</text>
<text text-anchor="middle" x="243" y="-7" font-family="Helvetica,sans-Serif" font-size="10.00">::delta</text>
</a>
</g>
</g>
<!-- Node1&#45;&gt;Node4 -->
<g id="edge3" class="edge"><title>Node1&#45;&gt;Node4</title>
<path fill="none" stroke="midnightblue" d="M117.912,-53.958C138.513,-47.49 162.769,-39.8747 184.345,-33.1009"/>
<polygon fill="midnightblue" stroke="midnightblue" points="185.555,-36.3897 194.047,-30.0549 183.458,-29.7111 185.555,-36.3897"/>
</g>
</g>
</svg>
