<?xml version="1.0" encoding="UTF-8" standalone="no"?>
<!DOCTYPE svg PUBLIC "-//W3C//DTD SVG 1.1//EN"
 "http://www.w3.org/Graphics/SVG/1.1/DTD/svg11.dtd">
<!-- Generated by graphviz version 2.36.0 (20140111.2315)
 -->
<!-- Title: Ra::GuiBase::SelectionManager::setCurrentEntry Pages: 1 -->
<svg width="1008pt" height="313pt"
 viewBox="0.00 0.00 1008.00 312.50" xmlns="http://www.w3.org/2000/svg" xmlns:xlink="http://www.w3.org/1999/xlink">
<g id="graph0" class="graph" transform="scale(1 1) rotate(0) translate(4 308.504)">
<title>Ra::GuiBase::SelectionManager::setCurrentEntry</title>
<polygon fill="white" stroke="none" points="-4,4 -4,-308.504 1004,-308.504 1004,4 -4,4"/>
<!-- Node1 -->
<g id="node1" class="node"><title>Node1</title>
<polygon fill="#bfbfbf" stroke="black" points="0.5,-146 0.5,-176 157.5,-176 157.5,-146 0.5,-146"/>
<text text-anchor="start" x="8.5" y="-164" font-family="Helvetica,sans-Serif" font-size="10.00">Ra::GuiBase::SelectionManager</text>
<text text-anchor="middle" x="79" y="-153" font-family="Helvetica,sans-Serif" font-size="10.00">::setCurrentEntry</text>
</g>
<!-- Node2 -->
<g id="node2" class="node"><title>Node2</title>
<g id="a_node2"><a xlink:href="classRa_1_1GuiBase_1_1SelectionManager.html#aec178a6b3de1c04e5e1d16ff72c6e966" target="_top" xlink:title="Ra::GuiBase::SelectionManager\l::itemModel">
<polygon fill="white" stroke="black" points="194.5,-171 194.5,-201 351.5,-201 351.5,-171 194.5,-171"/>
<text text-anchor="start" x="202.5" y="-189" font-family="Helvetica,sans-Serif" font-size="10.00">Ra::GuiBase::SelectionManager</text>
<text text-anchor="middle" x="273" y="-178" font-family="Helvetica,sans-Serif" font-size="10.00">::itemModel</text>
</a>
</g>
</g>
<!-- Node1&#45;&gt;Node2 -->
<g id="edge1" class="edge"><title>Node1&#45;&gt;Node2</title>
<path fill="none" stroke="midnightblue" d="M157.54,-171.096C166.388,-172.248 175.452,-173.429 184.418,-174.596"/>
<polygon fill="midnightblue" stroke="midnightblue" points="184.114,-178.086 194.482,-175.907 185.018,-171.145 184.114,-178.086"/>
</g>
<!-- Node3 -->
<g id="node3" class="node"><title>Node3</title>
<g id="a_node3"><a xlink:href="classRa_1_1GuiBase_1_1ItemModel.html#a2b2715ecaecaadeb1e9a110b8d5f05b3" target="_top" xlink:title="Returns the index corresponding to the given entry if it exists in the model, or an invalid index if ...">
<polygon fill="white" stroke="black" points="210.5,-122 210.5,-152 335.5,-152 335.5,-122 210.5,-122"/>
<text text-anchor="start" x="218.5" y="-140" font-family="Helvetica,sans-Serif" font-size="10.00">Ra::GuiBase::ItemModel</text>
<text text-anchor="middle" x="273" y="-129" font-family="Helvetica,sans-Serif" font-size="10.00">::findEntryIndex</text>
</a>
</g>
</g>
<!-- Node1&#45;&gt;Node3 -->
<g id="edge2" class="edge"><title>Node1&#45;&gt;Node3</title>
<path fill="none" stroke="midnightblue" d="M157.54,-151.307C171.694,-149.538 186.404,-147.7 200.376,-145.953"/>
<polygon fill="midnightblue" stroke="midnightblue" points="200.912,-149.413 210.401,-144.7 200.044,-142.467 200.912,-149.413"/>
</g>
<!-- Node4 -->
<g id="node4" class="node"><title>Node4</title>
<g id="a_node4"><a xlink:href="structRa_1_1Engine_1_1ItemEntry.html#aceafc81a73631955b64999dd39a639da" target="_top" xlink:title="Returns true if the item represents any valid object. ">
<polygon fill="white" stroke="black" points="390,-147 390,-177 504,-177 504,-147 390,-147"/>
<text text-anchor="start" x="398" y="-165" font-family="Helvetica,sans-Serif" font-size="10.00">Ra::Engine::ItemEntry</text>
<text text-anchor="middle" x="447" y="-154" font-family="Helvetica,sans-Serif" font-size="10.00">::isValid</text>
</a>
</g>
</g>
<!-- Node3&#45;&gt;Node4 -->
<g id="edge3" class="edge"><title>Node3&#45;&gt;Node4</title>
<path fill="none" stroke="midnightblue" d="M335.61,-145.955C350.021,-148.05 365.428,-150.289 380.021,-152.41"/>
<polygon fill="midnightblue" stroke="midnightblue" points="379.571,-155.881 389.971,-153.856 380.578,-148.954 379.571,-155.881"/>
</g>
<!-- Node14 -->
<g id="node14" class="node"><title>Node14</title>
<g id="a_node14"><a xlink:href="classRa_1_1GuiBase_1_1TreeItem.html#ac9e22ded576062a19560fe7bf5318d55" target="_top" xlink:title="Ra::GuiBase::TreeItem\l::getIndexInParent">
<polygon fill="white" stroke="black" points="388,-98 388,-128 506,-128 506,-98 388,-98"/>
<text text-anchor="start" x="396" y="-116" font-family="Helvetica,sans-Serif" font-size="10.00">Ra::GuiBase::TreeItem</text>
<text text-anchor="middle" x="447" y="-105" font-family="Helvetica,sans-Serif" font-size="10.00">::getIndexInParent</text>
</a>
</g>
</g>
<!-- Node3&#45;&gt;Node14 -->
<g id="edge15" class="edge"><title>Node3&#45;&gt;Node14</title>
<path fill="none" stroke="midnightblue" d="M335.61,-128.403C349.339,-126.488 363.973,-124.446 377.945,-122.496"/>
<polygon fill="midnightblue" stroke="midnightblue" points="378.559,-125.944 387.979,-121.096 377.592,-119.012 378.559,-125.944"/>
</g>
<!-- Node5 -->
<g id="node5" class="node"><title>Node5</title>
<g id="a_node5"><a xlink:href="structRa_1_1Engine_1_1ItemEntry.html#a1fb9fdd74413a1fa5878f53c1cfcf8fd" target="_top" xlink:title="Debug checks. ">
<polygon fill="white" stroke="black" points="718,-133 718,-163 832,-163 832,-133 718,-133"/>
<text text-anchor="start" x="726" y="-151" font-family="Helvetica,sans-Serif" font-size="10.00">Ra::Engine::ItemEntry</text>
<text text-anchor="middle" x="775" y="-140" font-family="Helvetica,sans-Serif" font-size="10.00">::checkConsistency</text>
</a>
</g>
</g>
<!-- Node4&#45;&gt;Node5 -->
<g id="edge4" class="edge"><title>Node4&#45;&gt;Node5</title>
<path fill="none" stroke="midnightblue" d="M454.24,-177.242C466.403,-204.641 496.174,-261.458 542,-284 596.238,-310.68 624.332,-311.808 678,-284 723.152,-260.604 751.588,-205.12 764.956,-172.711"/>
<polygon fill="midnightblue" stroke="midnightblue" points="768.346,-173.656 768.769,-163.069 761.837,-171.081 768.346,-173.656"/>
</g>
<!-- Node7 -->
<g id="node7" class="node"><title>Node7</title>
<g id="a_node7"><a xlink:href="classRa_1_1Engine_1_1RadiumEngine.html#a79f6626ce468268791bc5bdfe17b5586" target="_top" xlink:title="Ra::Engine::RadiumEngine\l::getEntityManager">
<polygon fill="white" stroke="black" points="542.5,-245 542.5,-275 677.5,-275 677.5,-245 542.5,-245"/>
<text text-anchor="start" x="550.5" y="-263" font-family="Helvetica,sans-Serif" font-size="10.00">Ra::Engine::RadiumEngine</text>
<text text-anchor="middle" x="610" y="-252" font-family="Helvetica,sans-Serif" font-size="10.00">::getEntityManager</text>
</a>
</g>
</g>
<!-- Node4&#45;&gt;Node7 -->
<g id="edge6" class="edge"><title>Node4&#45;&gt;Node7</title>
<path fill="none" stroke="midnightblue" d="M464.228,-177.113C482.151,-193.178 512.404,-218.495 542,-235 545.66,-237.041 549.519,-238.978 553.461,-240.804"/>
<polygon fill="midnightblue" stroke="midnightblue" points="552.191,-244.068 562.757,-244.856 554.989,-237.652 552.191,-244.068"/>
</g>
<!-- Node8 -->
<g id="node8" class="node"><title>Node8</title>
<g id="a_node8"><a xlink:href="classRa_1_1Engine_1_1EntityManager.html#a5115cccae6aaef614ad4bd08e64d8185" target="_top" xlink:title="Check wether an entity with a given name exists or not. ">
<polygon fill="white" stroke="black" points="543,-196 543,-226 677,-226 677,-196 543,-196"/>
<text text-anchor="start" x="551" y="-214" font-family="Helvetica,sans-Serif" font-size="10.00">Ra::Engine::EntityManager</text>
<text text-anchor="middle" x="610" y="-203" font-family="Helvetica,sans-Serif" font-size="10.00">::entityExists</text>
</a>
</g>
</g>
<!-- Node4&#45;&gt;Node8 -->
<g id="edge7" class="edge"><title>Node4&#45;&gt;Node8</title>
<path fill="none" stroke="midnightblue" d="M497.619,-177.101C514.07,-182.108 532.549,-187.732 549.657,-192.939"/>
<polygon fill="midnightblue" stroke="midnightblue" points="548.959,-196.385 559.545,-195.948 550.997,-189.688 548.959,-196.385"/>
</g>
<!-- Node9 -->
<g id="node9" class="node"><title>Node9</title>
<g id="a_node9"><a xlink:href="classRa_1_1Engine_1_1Entity.html#aaf256bea44bbc5bff6aa504aca05ca35" target="_top" xlink:title="Ra::Engine::Entity\l::getName">
<polygon fill="white" stroke="black" points="561.5,-147 561.5,-177 658.5,-177 658.5,-147 561.5,-147"/>
<text text-anchor="start" x="569.5" y="-165" font-family="Helvetica,sans-Serif" font-size="10.00">Ra::Engine::Entity</text>
<text text-anchor="middle" x="610" y="-154" font-family="Helvetica,sans-Serif" font-size="10.00">::getName</text>
</a>
</g>
</g>
<!-- Node4&#45;&gt;Node9 -->
<g id="edge8" class="edge"><title>Node4&#45;&gt;Node9</title>
<path fill="none" stroke="midnightblue" d="M504.31,-162C519.414,-162 535.77,-162 550.965,-162"/>
<polygon fill="midnightblue" stroke="midnightblue" points="551.27,-165.5 561.27,-162 551.27,-158.5 551.27,-165.5"/>
</g>
<!-- Node10 -->
<g id="node10" class="node"><title>Node10</title>
<g id="a_node10"><a xlink:href="structRa_1_1Engine_1_1ItemEntry.html#a898047549069e5b64d3a9a65c058af56" target="_top" xlink:title="Returns true if the item represents a render object. ">
<polygon fill="white" stroke="black" points="553,-98 553,-128 667,-128 667,-98 553,-98"/>
<text text-anchor="start" x="561" y="-116" font-family="Helvetica,sans-Serif" font-size="10.00">Ra::Engine::ItemEntry</text>
<text text-anchor="middle" x="610" y="-105" font-family="Helvetica,sans-Serif" font-size="10.00">::isRoNode</text>
</a>
</g>
</g>
<!-- Node4&#45;&gt;Node10 -->
<g id="edge9" class="edge"><title>Node4&#45;&gt;Node10</title>
<path fill="none" stroke="midnightblue" d="M497.619,-146.899C514.07,-141.892 532.549,-136.268 549.657,-131.061"/>
<polygon fill="midnightblue" stroke="midnightblue" points="550.997,-134.312 559.545,-128.052 548.959,-127.615 550.997,-134.312"/>
</g>
<!-- Node12 -->
<g id="node12" class="node"><title>Node12</title>
<g id="a_node12"><a xlink:href="classRa_1_1Engine_1_1RadiumEngine.html#a58b27bc600ea769f68b0e2938abc7862" target="_top" xlink:title="Manager getters. ">
<polygon fill="white" stroke="black" points="542.5,-49 542.5,-79 677.5,-79 677.5,-49 542.5,-49"/>
<text text-anchor="start" x="550.5" y="-67" font-family="Helvetica,sans-Serif" font-size="10.00">Ra::Engine::RadiumEngine</text>
<text text-anchor="middle" x="610" y="-56" font-family="Helvetica,sans-Serif" font-size="10.00">::getRenderObjectManager</text>
</a>
</g>
</g>
<!-- Node4&#45;&gt;Node12 -->
<g id="edge12" class="edge"><title>Node4&#45;&gt;Node12</title>
<path fill="none" stroke="midnightblue" d="M490.357,-146.867C495.883,-144.013 501.262,-140.731 506,-137 526.949,-120.5 520.646,-104.973 542,-89 544.456,-87.163 547.062,-85.4477 549.766,-83.8478"/>
<polygon fill="midnightblue" stroke="midnightblue" points="551.478,-86.9012 558.672,-79.1228 548.198,-80.7176 551.478,-86.9012"/>
</g>
<!-- Node13 -->
<g id="node13" class="node"><title>Node13</title>
<g id="a_node13"><a xlink:href="classRa_1_1Engine_1_1RenderObjectManager.html#a4077b9cf9e1e4d62fd5456386f2d72c8" target="_top" xlink:title="Returns true if the index points to a valid render object. ">
<polygon fill="white" stroke="black" points="544.5,-0 544.5,-30 675.5,-30 675.5,-0 544.5,-0"/>
<text text-anchor="start" x="552.5" y="-18" font-family="Helvetica,sans-Serif" font-size="10.00">Ra::Engine::RenderObject</text>
<text text-anchor="middle" x="610" y="-7" font-family="Helvetica,sans-Serif" font-size="10.00">Manager::exists</text>
</a>
</g>
</g>
<!-- Node4&#45;&gt;Node13 -->
<g id="edge13" class="edge"><title>Node4&#45;&gt;Node13</title>
<path fill="none" stroke="midnightblue" d="M493.482,-146.877C498.082,-144.09 502.382,-140.822 506,-137 537.897,-103.301 509.057,-71.678 542,-39 543.069,-37.9395 544.188,-36.9256 545.35,-35.9562"/>
<polygon fill="midnightblue" stroke="midnightblue" points="547.396,-38.7967 553.566,-30.1836 543.371,-33.0692 547.396,-38.7967"/>
</g>
<!-- Node6 -->
<g id="node6" class="node"><title>Node6</title>
<g id="a_node6"><a xlink:href="classRa_1_1Core_1_1Index.html#a7283e7fb9cc134e04ef3cde8877f8fe2" target="_top" xlink:title="INVALID. ">
<polygon fill="white" stroke="black" points="872,-138.5 872,-157.5 1000,-157.5 1000,-138.5 872,-138.5"/>
<text text-anchor="middle" x="936" y="-145.5" font-family="Helvetica,sans-Serif" font-size="10.00">Ra::Core::Index::isInvalid</text>
</a>
</g>
</g>
<!-- Node5&#45;&gt;Node6 -->
<g id="edge5" class="edge"><title>Node5&#45;&gt;Node6</title>
<path fill="none" stroke="midnightblue" d="M832.057,-148C841.613,-148 851.665,-148 861.589,-148"/>
<polygon fill="midnightblue" stroke="midnightblue" points="861.859,-151.5 871.859,-148 861.859,-144.5 861.859,-151.5"/>
</g>
<!-- Node10&#45;&gt;Node5 -->
<g id="edge10" class="edge"><title>Node10&#45;&gt;Node5</title>
<path fill="none" stroke="midnightblue" d="M667.095,-125.045C680.158,-127.85 694.188,-130.862 707.646,-133.752"/>
<polygon fill="midnightblue" stroke="midnightblue" points="707.289,-137.255 717.801,-135.933 708.759,-130.411 707.289,-137.255"/>
</g>
<!-- Node11 -->
<g id="node11" class="node"><title>Node11</title>
<g id="a_node11"><a xlink:href="classRa_1_1Core_1_1Index.html#a87c70243f30c65c1a24834d1829bda01" target="_top" xlink:title="DESTRUCTOR: Must not be defined, we need it trivial to be constexpr. ">
<polygon fill="white" stroke="black" points="714,-67.5 714,-86.5 836,-86.5 836,-67.5 714,-67.5"/>
<text text-anchor="middle" x="775" y="-74.5" font-family="Helvetica,sans-Serif" font-size="10.00">Ra::Core::Index::isValid</text>
</a>
</g>
</g>
<!-- Node10&#45;&gt;Node11 -->
<g id="edge11" class="edge"><title>Node10&#45;&gt;Node11</title>
<path fill="none" stroke="midnightblue" d="M667.095,-100.611C684.57,-96.7514 703.776,-92.5095 721.03,-88.6989"/>
<polygon fill="midnightblue" stroke="midnightblue" points="721.926,-92.0855 730.935,-86.5112 720.416,-85.2502 721.926,-92.0855"/>
</g>
<!-- Node13&#45;&gt;Node11 -->
<g id="edge14" class="edge"><title>Node13&#45;&gt;Node11</title>
<path fill="none" stroke="midnightblue" d="M653.609,-30.0253C661.725,-32.9544 670.138,-36.0368 678,-39 699.042,-46.9309 722.515,-56.2145 740.984,-63.6203"/>
<polygon fill="midnightblue" stroke="midnightblue" points="739.829,-66.9284 750.413,-67.4126 742.441,-60.4339 739.829,-66.9284"/>
</g>
</g>
</svg>
