<?xml version="1.0" encoding="UTF-8" standalone="no"?>
<!DOCTYPE svg PUBLIC "-//W3C//DTD SVG 1.1//EN"
 "http://www.w3.org/Graphics/SVG/1.1/DTD/svg11.dtd">
<!-- Generated by graphviz version 2.36.0 (20140111.2315)
 -->
<!-- Title: MeshPaintPlugin::MeshPaintPluginC::registerPlugin Pages: 1 -->
<svg width="1270pt" height="270pt"
 viewBox="0.00 0.00 1270.00 270.00" xmlns="http://www.w3.org/2000/svg" xmlns:xlink="http://www.w3.org/1999/xlink">
<g id="graph0" class="graph" transform="scale(1 1) rotate(0) translate(4 266)">
<title>MeshPaintPlugin::MeshPaintPluginC::registerPlugin</title>
<polygon fill="white" stroke="none" points="-4,4 -4,-266 1266,-266 1266,4 -4,4"/>
<!-- Node1 -->
<g id="node1" class="node"><title>Node1</title>
<polygon fill="#bfbfbf" stroke="black" points="0.5,-73 0.5,-103 143.5,-103 143.5,-73 0.5,-73"/>
<text text-anchor="start" x="8.5" y="-91" font-family="Helvetica,sans-Serif" font-size="10.00">MeshPaintPlugin::MeshPaint</text>
<text text-anchor="middle" x="72" y="-80" font-family="Helvetica,sans-Serif" font-size="10.00">PluginC::registerPlugin</text>
</g>
<!-- Node2 -->
<g id="node2" class="node"><title>Node2</title>
<g id="a_node2"><a xlink:href="classRa_1_1Engine_1_1RadiumEngine.html#a88d584c699f333ea93aff6b15f0f2341" target="_top" xlink:title="Ra::Engine::RadiumEngine\l::registerSystem">
<polygon fill="white" stroke="black" points="184.5,-147 184.5,-177 319.5,-177 319.5,-147 184.5,-147"/>
<text text-anchor="start" x="192.5" y="-165" font-family="Helvetica,sans-Serif" font-size="10.00">Ra::Engine::RadiumEngine</text>
<text text-anchor="middle" x="252" y="-154" font-family="Helvetica,sans-Serif" font-size="10.00">::registerSystem</text>
</a>
</g>
</g>
<!-- Node1&#45;&gt;Node2 -->
<g id="edge1" class="edge"><title>Node1&#45;&gt;Node2</title>
<path fill="none" stroke="midnightblue" d="M104.043,-103.123C125.228,-113.218 154.047,-126.514 180,-137 185.356,-139.164 190.979,-141.326 196.617,-143.422"/>
<polygon fill="midnightblue" stroke="midnightblue" points="195.482,-146.734 206.076,-146.877 197.884,-140.159 195.482,-146.734"/>
</g>
<!-- Node3 -->
<g id="node3" class="node"><title>Node3</title>
<g id="a_node3"><a xlink:href="classMeshPaintPlugin_1_1MeshPaintPluginC.html#a2b454d95ffea93f89a0599d023bf5755" target="_top" xlink:title="MeshPaintPlugin::MeshPaint\lPluginC::onCurrentChanged">
<polygon fill="white" stroke="black" points="180.5,-98 180.5,-128 323.5,-128 323.5,-98 180.5,-98"/>
<text text-anchor="start" x="188.5" y="-116" font-family="Helvetica,sans-Serif" font-size="10.00">MeshPaintPlugin::MeshPaint</text>
<text text-anchor="middle" x="252" y="-105" font-family="Helvetica,sans-Serif" font-size="10.00">PluginC::onCurrentChanged</text>
</a>
</g>
</g>
<!-- Node1&#45;&gt;Node3 -->
<g id="edge2" class="edge"><title>Node1&#45;&gt;Node3</title>
<path fill="none" stroke="midnightblue" d="M143.606,-97.9166C152.421,-99.1547 161.488,-100.428 170.441,-101.685"/>
<polygon fill="midnightblue" stroke="midnightblue" points="170.09,-105.17 180.479,-103.095 171.063,-98.2385 170.09,-105.17"/>
</g>
<!-- Node19 -->
<g id="node19" class="node"><title>Node19</title>
<g id="a_node19"><a xlink:href="classMeshPaintPlugin_1_1MeshPaintPluginC.html#a9037a6bb68e61ed08dade482730462c8" target="_top" xlink:title="MeshPaintPlugin::MeshPaint\lPluginC::activePaintColor">
<polygon fill="white" stroke="black" points="180.5,-49 180.5,-79 323.5,-79 323.5,-49 180.5,-49"/>
<text text-anchor="start" x="188.5" y="-67" font-family="Helvetica,sans-Serif" font-size="10.00">MeshPaintPlugin::MeshPaint</text>
<text text-anchor="middle" x="252" y="-56" font-family="Helvetica,sans-Serif" font-size="10.00">PluginC::activePaintColor</text>
</a>
</g>
</g>
<!-- Node1&#45;&gt;Node19 -->
<g id="edge18" class="edge"><title>Node1&#45;&gt;Node19</title>
<path fill="none" stroke="midnightblue" d="M143.606,-78.4801C152.421,-77.2915 161.488,-76.069 170.441,-74.8619"/>
<polygon fill="midnightblue" stroke="midnightblue" points="171.037,-78.3133 180.479,-73.5084 170.101,-71.3761 171.037,-78.3133"/>
</g>
<!-- Node24 -->
<g id="node24" class="node"><title>Node24</title>
<g id="a_node24"><a xlink:href="classMeshPaintPlugin_1_1MeshPaintPluginC.html#a08d032068a708eafea55997c7f02702f" target="_top" xlink:title="MeshPaintPlugin::MeshPaint\lPluginC::changePaintColor">
<polygon fill="white" stroke="black" points="180.5,-0 180.5,-30 323.5,-30 323.5,-0 180.5,-0"/>
<text text-anchor="start" x="188.5" y="-18" font-family="Helvetica,sans-Serif" font-size="10.00">MeshPaintPlugin::MeshPaint</text>
<text text-anchor="middle" x="252" y="-7" font-family="Helvetica,sans-Serif" font-size="10.00">PluginC::changePaintColor</text>
</a>
</g>
</g>
<!-- Node1&#45;&gt;Node24 -->
<g id="edge25" class="edge"><title>Node1&#45;&gt;Node24</title>
<path fill="none" stroke="midnightblue" d="M103.538,-72.993C124.746,-62.8247 153.792,-49.3982 180,-39 184.717,-37.1286 189.644,-35.2703 194.609,-33.4647"/>
<polygon fill="midnightblue" stroke="midnightblue" points="195.908,-36.7176 204.156,-30.0676 193.561,-30.1226 195.908,-36.7176"/>
</g>
<!-- Node4 -->
<g id="node4" class="node"><title>Node4</title>
<g id="a_node4"><a xlink:href="classRa_1_1Core_1_1Index.html#a16f988512f9ef442cc97b6bc4809ba45" target="_top" xlink:title="Ra::Core::Index::Invalid">
<polygon fill="white" stroke="black" points="378.5,-59.5 378.5,-78.5 499.5,-78.5 499.5,-59.5 378.5,-59.5"/>
<text text-anchor="middle" x="439" y="-66.5" font-family="Helvetica,sans-Serif" font-size="10.00">Ra::Core::Index::Invalid</text>
</a>
</g>
</g>
<!-- Node3&#45;&gt;Node4 -->
<g id="edge3" class="edge"><title>Node3&#45;&gt;Node4</title>
<path fill="none" stroke="midnightblue" d="M316.149,-97.9808C339.659,-92.3892 365.991,-86.1265 388.145,-80.8574"/>
<polygon fill="midnightblue" stroke="midnightblue" points="389.086,-84.2313 398.005,-78.5124 387.466,-77.4213 389.086,-84.2313"/>
</g>
<!-- Node6 -->
<g id="node6" class="node"><title>Node6</title>
<g id="a_node6"><a xlink:href="classRa_1_1GuiBase_1_1SelectionManager.html#a29cbd250208f1e18d2ab1e0f4d91105d" target="_top" xlink:title="Return the current selected item, or an invalid entry if there is no current item. ">
<polygon fill="white" stroke="black" points="360.5,-196 360.5,-226 517.5,-226 517.5,-196 360.5,-196"/>
<text text-anchor="start" x="368.5" y="-214" font-family="Helvetica,sans-Serif" font-size="10.00">Ra::GuiBase::SelectionManager</text>
<text text-anchor="middle" x="439" y="-203" font-family="Helvetica,sans-Serif" font-size="10.00">::currentItem</text>
</a>
</g>
</g>
<!-- Node3&#45;&gt;Node6 -->
<g id="edge5" class="edge"><title>Node3&#45;&gt;Node6</title>
<path fill="none" stroke="midnightblue" d="M306.698,-128.004C312.813,-130.826 318.732,-134.135 324,-138 345.501,-153.773 338.277,-170.533 360,-186 362.722,-187.938 365.602,-189.731 368.587,-191.389"/>
<polygon fill="midnightblue" stroke="midnightblue" points="367.295,-194.656 377.809,-195.97 370.41,-188.387 367.295,-194.656"/>
</g>
<!-- Node11 -->
<g id="node11" class="node"><title>Node11</title>
<g id="a_node11"><a xlink:href="classMeshPaintPlugin_1_1MeshPaintSystem.html#a7778723bd43c13d6b9db42ea8b1fbe09" target="_top" xlink:title="MeshPaintPlugin::MeshPaint\lSystem::paintMesh">
<polygon fill="white" stroke="black" points="367.5,-147 367.5,-177 510.5,-177 510.5,-147 367.5,-147"/>
<text text-anchor="start" x="375.5" y="-165" font-family="Helvetica,sans-Serif" font-size="10.00">MeshPaintPlugin::MeshPaint</text>
<text text-anchor="middle" x="439" y="-154" font-family="Helvetica,sans-Serif" font-size="10.00">System::paintMesh</text>
</a>
</g>
</g>
<!-- Node3&#45;&gt;Node11 -->
<g id="edge10" class="edge"><title>Node3&#45;&gt;Node11</title>
<path fill="none" stroke="midnightblue" d="M309.763,-128.035C329.297,-133.208 351.343,-139.048 371.576,-144.407"/>
<polygon fill="midnightblue" stroke="midnightblue" points="370.781,-147.817 381.344,-146.994 372.573,-141.05 370.781,-147.817"/>
</g>
<!-- Node18 -->
<g id="node18" class="node"><title>Node18</title>
<g id="a_node18"><a xlink:href="classRa_1_1Gui_1_1PickingManager.html#a93bbe7807a11b0aa423ddcc777dc1168" target="_top" xlink:title="Ra::Gui::PickingManager\l::getCurrent">
<polygon fill="white" stroke="black" points="376,-98 376,-128 502,-128 502,-98 376,-98"/>
<text text-anchor="start" x="384" y="-116" font-family="Helvetica,sans-Serif" font-size="10.00">Ra::Gui::PickingManager</text>
<text text-anchor="middle" x="439" y="-105" font-family="Helvetica,sans-Serif" font-size="10.00">::getCurrent</text>
</a>
</g>
</g>
<!-- Node3&#45;&gt;Node18 -->
<g id="edge17" class="edge"><title>Node3&#45;&gt;Node18</title>
<path fill="none" stroke="midnightblue" d="M323.732,-113C337.388,-113 351.715,-113 365.429,-113"/>
<polygon fill="midnightblue" stroke="midnightblue" points="365.774,-116.5 375.774,-113 365.774,-109.5 365.774,-116.5"/>
</g>
<!-- Node5 -->
<g id="node5" class="node"><title>Node5</title>
<g id="a_node5"><a xlink:href="classRa_1_1Core_1_1Index.html#af6afe563ad57a4ab82f3706987e684ef" target="_top" xlink:title="CONSTRUCTOR. ">
<polygon fill="white" stroke="black" points="575,-59.5 575,-78.5 691,-78.5 691,-59.5 575,-59.5"/>
<text text-anchor="middle" x="633" y="-66.5" font-family="Helvetica,sans-Serif" font-size="10.00">Ra::Core::Index::Index</text>
</a>
</g>
</g>
<!-- Node4&#45;&gt;Node5 -->
<g id="edge4" class="edge"><title>Node4&#45;&gt;Node5</title>
<path fill="none" stroke="midnightblue" d="M499.698,-69C520.321,-69 543.565,-69 564.752,-69"/>
<polygon fill="midnightblue" stroke="midnightblue" points="564.966,-72.5001 574.966,-69 564.966,-65.5001 564.966,-72.5001"/>
</g>
<!-- Node7 -->
<g id="node7" class="node"><title>Node7</title>
<g id="a_node7"><a xlink:href="classRa_1_1GuiBase_1_1SelectionManager.html#aec178a6b3de1c04e5e1d16ff72c6e966" target="_top" xlink:title="Ra::GuiBase::SelectionManager\l::itemModel">
<polygon fill="white" stroke="black" points="554.5,-183 554.5,-213 711.5,-213 711.5,-183 554.5,-183"/>
<text text-anchor="start" x="562.5" y="-201" font-family="Helvetica,sans-Serif" font-size="10.00">Ra::GuiBase::SelectionManager</text>
<text text-anchor="middle" x="633" y="-190" font-family="Helvetica,sans-Serif" font-size="10.00">::itemModel</text>
</a>
</g>
</g>
<!-- Node6&#45;&gt;Node7 -->
<g id="edge6" class="edge"><title>Node6&#45;&gt;Node7</title>
<path fill="none" stroke="midnightblue" d="M517.54,-205.75C526.388,-205.151 535.452,-204.537 544.418,-203.93"/>
<polygon fill="midnightblue" stroke="midnightblue" points="544.742,-207.416 554.482,-203.249 544.269,-200.432 544.742,-207.416"/>
</g>
<!-- Node8 -->
<g id="node8" class="node"><title>Node8</title>
<g id="a_node8"><a xlink:href="classRa_1_1GuiBase_1_1ItemModel.html#a3236433d461ad6cac5e9390b2685fa3f" target="_top" xlink:title="Returns the entry corresponding to a given index or an invalid entry if the index doesn&#39;t match any e...">
<polygon fill="white" stroke="black" points="570.5,-232 570.5,-262 695.5,-262 695.5,-232 570.5,-232"/>
<text text-anchor="start" x="578.5" y="-250" font-family="Helvetica,sans-Serif" font-size="10.00">Ra::GuiBase::ItemModel</text>
<text text-anchor="middle" x="633" y="-239" font-family="Helvetica,sans-Serif" font-size="10.00">::getEntry</text>
</a>
</g>
</g>
<!-- Node6&#45;&gt;Node8 -->
<g id="edge7" class="edge"><title>Node6&#45;&gt;Node8</title>
<path fill="none" stroke="midnightblue" d="M517.54,-225.539C531.694,-228.193 546.404,-230.951 560.376,-233.57"/>
<polygon fill="midnightblue" stroke="midnightblue" points="559.927,-237.047 570.401,-235.45 561.217,-230.167 559.927,-237.047"/>
</g>
<!-- Node9 -->
<g id="node9" class="node"><title>Node9</title>
<g id="a_node9"><a xlink:href="classRa_1_1GuiBase_1_1TreeModel.html#a5aa24ace72c1c3d29e268cb34dc576f2" target="_top" xlink:title="Get the tree item corresponding to the given index. ">
<polygon fill="white" stroke="black" points="765.5,-232 765.5,-262 890.5,-262 890.5,-232 765.5,-232"/>
<text text-anchor="start" x="773.5" y="-250" font-family="Helvetica,sans-Serif" font-size="10.00">Ra::GuiBase::TreeModel</text>
<text text-anchor="middle" x="828" y="-239" font-family="Helvetica,sans-Serif" font-size="10.00">::getItem</text>
</a>
</g>
</g>
<!-- Node8&#45;&gt;Node9 -->
<g id="edge8" class="edge"><title>Node8&#45;&gt;Node9</title>
<path fill="none" stroke="midnightblue" d="M695.597,-247C714.573,-247 735.631,-247 755.229,-247"/>
<polygon fill="midnightblue" stroke="midnightblue" points="755.326,-250.5 765.326,-247 755.326,-243.5 755.326,-250.5"/>
</g>
<!-- Node10 -->
<g id="node10" class="node"><title>Node10</title>
<g id="a_node10"><a xlink:href="classRa_1_1GuiBase_1_1TreeModel.html#a972106921da4c960f23f81722d3b4cf5" target="_top" xlink:title="Internal functions to check if an item is in the tree. ">
<polygon fill="white" stroke="black" points="961.5,-232 961.5,-262 1086.5,-262 1086.5,-232 961.5,-232"/>
<text text-anchor="start" x="969.5" y="-250" font-family="Helvetica,sans-Serif" font-size="10.00">Ra::GuiBase::TreeModel</text>
<text text-anchor="middle" x="1024" y="-239" font-family="Helvetica,sans-Serif" font-size="10.00">::findInTree</text>
</a>
</g>
</g>
<!-- Node9&#45;&gt;Node10 -->
<g id="edge9" class="edge"><title>Node9&#45;&gt;Node10</title>
<path fill="none" stroke="midnightblue" d="M890.649,-247C909.829,-247 931.144,-247 950.967,-247"/>
<polygon fill="midnightblue" stroke="midnightblue" points="951.178,-250.5 961.178,-247 951.178,-243.5 951.178,-250.5"/>
</g>
<!-- Node12 -->
<g id="node12" class="node"><title>Node12</title>
<g id="a_node12"><a xlink:href="classMeshPaintPlugin_1_1MeshPaintComponent.html#af8ea91954674d7815f830ba3c280a1de" target="_top" xlink:title="MeshPaintPlugin::MeshPaint\lComponent::paintMesh">
<polygon fill="white" stroke="black" points="561.5,-115 561.5,-145 704.5,-145 704.5,-115 561.5,-115"/>
<text text-anchor="start" x="569.5" y="-133" font-family="Helvetica,sans-Serif" font-size="10.00">MeshPaintPlugin::MeshPaint</text>
<text text-anchor="middle" x="633" y="-122" font-family="Helvetica,sans-Serif" font-size="10.00">Component::paintMesh</text>
</a>
</g>
</g>
<!-- Node11&#45;&gt;Node12 -->
<g id="edge11" class="edge"><title>Node11&#45;&gt;Node12</title>
<path fill="none" stroke="midnightblue" d="M510.676,-150.221C523.883,-148.02 537.778,-145.704 551.262,-143.456"/>
<polygon fill="midnightblue" stroke="midnightblue" points="552.185,-146.851 561.474,-141.754 551.034,-139.946 552.185,-146.851"/>
</g>
<!-- Node13 -->
<g id="node13" class="node"><title>Node13</title>
<g id="a_node13"><a xlink:href="classRa_1_1Engine_1_1Component.html#a10b0bc182b76165744ebea603ae32dfe" target="_top" xlink:title="Shortcut to access the render object manager. ">
<polygon fill="white" stroke="black" points="767,-103 767,-133 889,-133 889,-103 767,-103"/>
<text text-anchor="start" x="775" y="-121" font-family="Helvetica,sans-Serif" font-size="10.00">Ra::Engine::Component</text>
<text text-anchor="middle" x="828" y="-110" font-family="Helvetica,sans-Serif" font-size="10.00">::getRoMgr</text>
</a>
</g>
</g>
<!-- Node12&#45;&gt;Node13 -->
<g id="edge12" class="edge"><title>Node12&#45;&gt;Node13</title>
<path fill="none" stroke="midnightblue" d="M704.77,-125.6C721.608,-124.553 739.574,-123.436 756.405,-122.389"/>
<polygon fill="midnightblue" stroke="midnightblue" points="756.954,-125.862 766.717,-121.748 756.519,-118.876 756.954,-125.862"/>
</g>
<!-- Node14 -->
<g id="node14" class="node"><title>Node14</title>
<g id="a_node14"><a xlink:href="classRa_1_1Engine_1_1RenderObjectManager.html#a32bd0db0d9620bb7e3f0fe50b541dae3" target="_top" xlink:title="Returns the render object corresponding to the given index. ">
<polygon fill="white" stroke="black" points="761,-54 761,-84 895,-84 895,-54 761,-54"/>
<text text-anchor="start" x="769" y="-72" font-family="Helvetica,sans-Serif" font-size="10.00">Ra::Engine::RenderObject</text>
<text text-anchor="middle" x="828" y="-61" font-family="Helvetica,sans-Serif" font-size="10.00">Manager::getRenderObject</text>
</a>
</g>
</g>
<!-- Node12&#45;&gt;Node14 -->
<g id="edge13" class="edge"><title>Node12&#45;&gt;Node14</title>
<path fill="none" stroke="midnightblue" d="M679.7,-114.949C700.507,-108.153 725.469,-100.078 748,-93 754.103,-91.0829 760.478,-89.1049 766.846,-87.1454"/>
<polygon fill="midnightblue" stroke="midnightblue" points="768.271,-90.3696 776.806,-84.093 766.219,-83.6768 768.271,-90.3696"/>
</g>
<!-- Node17 -->
<g id="node17" class="node"><title>Node17</title>
<g id="a_node17"><a xlink:href="namespaceRa_1_1Core_1_1Algorithm.html#aea294cdb6f4f0d85955bdcccb22886ec" target="_top" xlink:title="Ra::Core::Algorithm::t">
<polygon fill="white" stroke="black" points="771.5,-152.5 771.5,-171.5 884.5,-171.5 884.5,-152.5 771.5,-152.5"/>
<text text-anchor="middle" x="828" y="-159.5" font-family="Helvetica,sans-Serif" font-size="10.00">Ra::Core::Algorithm::t</text>
</a>
</g>
</g>
<!-- Node12&#45;&gt;Node17 -->
<g id="edge16" class="edge"><title>Node12&#45;&gt;Node17</title>
<path fill="none" stroke="midnightblue" d="M704.77,-141.734C723.288,-144.804 743.169,-148.101 761.404,-151.124"/>
<polygon fill="midnightblue" stroke="midnightblue" points="760.909,-154.59 771.346,-152.772 762.054,-147.684 760.909,-154.59"/>
</g>
<!-- Node15 -->
<g id="node15" class="node"><title>Node15</title>
<g id="a_node15"><a xlink:href="classRa_1_1Engine_1_1RenderObjectManager.html#a4077b9cf9e1e4d62fd5456386f2d72c8" target="_top" xlink:title="Returns true if the index points to a valid render object. ">
<polygon fill="white" stroke="black" points="958.5,-54 958.5,-84 1089.5,-84 1089.5,-54 958.5,-54"/>
<text text-anchor="start" x="966.5" y="-72" font-family="Helvetica,sans-Serif" font-size="10.00">Ra::Engine::RenderObject</text>
<text text-anchor="middle" x="1024" y="-61" font-family="Helvetica,sans-Serif" font-size="10.00">Manager::exists</text>
</a>
</g>
</g>
<!-- Node14&#45;&gt;Node15 -->
<g id="edge14" class="edge"><title>Node14&#45;&gt;Node15</title>
<path fill="none" stroke="midnightblue" d="M895.221,-69C912.288,-69 930.773,-69 948.241,-69"/>
<polygon fill="midnightblue" stroke="midnightblue" points="948.39,-72.5001 958.39,-69 948.39,-65.5001 948.39,-72.5001"/>
</g>
<!-- Node16 -->
<g id="node16" class="node"><title>Node16</title>
<g id="a_node16"><a xlink:href="classRa_1_1Core_1_1Index.html#a87c70243f30c65c1a24834d1829bda01" target="_top" xlink:title="DESTRUCTOR: Must not be defined, we need it trivial to be constexpr. ">
<polygon fill="white" stroke="black" points="1140,-59.5 1140,-78.5 1262,-78.5 1262,-59.5 1140,-59.5"/>
<text text-anchor="middle" x="1201" y="-66.5" font-family="Helvetica,sans-Serif" font-size="10.00">Ra::Core::Index::isValid</text>
</a>
</g>
</g>
<!-- Node15&#45;&gt;Node16 -->
<g id="edge15" class="edge"><title>Node15&#45;&gt;Node16</title>
<path fill="none" stroke="midnightblue" d="M1089.67,-69C1102.78,-69 1116.63,-69 1129.92,-69"/>
<polygon fill="midnightblue" stroke="midnightblue" points="1129.95,-72.5001 1139.95,-69 1129.95,-65.5001 1129.95,-72.5001"/>
</g>
<!-- Node20 -->
<g id="node20" class="node"><title>Node20</title>
<g id="a_node20"><a xlink:href="classMeshPaintPlugin_1_1MeshPaintSystem.html#aefa5e3a92bef793200ef4e32cda1fe80" target="_top" xlink:title="MeshPaintPlugin::MeshPaint\lSystem::startPaintMesh">
<polygon fill="white" stroke="black" points="367.5,-10 367.5,-40 510.5,-40 510.5,-10 367.5,-10"/>
<text text-anchor="start" x="375.5" y="-28" font-family="Helvetica,sans-Serif" font-size="10.00">MeshPaintPlugin::MeshPaint</text>
<text text-anchor="middle" x="439" y="-17" font-family="Helvetica,sans-Serif" font-size="10.00">System::startPaintMesh</text>
</a>
</g>
</g>
<!-- Node19&#45;&gt;Node20 -->
<g id="edge19" class="edge"><title>Node19&#45;&gt;Node20</title>
<path fill="none" stroke="midnightblue" d="M323.732,-49.0888C334.778,-46.7604 346.262,-44.3394 357.505,-41.9692"/>
<polygon fill="midnightblue" stroke="midnightblue" points="358.244,-45.3905 367.307,-39.9029 356.8,-38.541 358.244,-45.3905"/>
</g>
<!-- Node21 -->
<g id="node21" class="node"><title>Node21</title>
<g id="a_node21"><a xlink:href="classMeshPaintPlugin_1_1MeshPaintComponent.html#a0c13da0e237aef580f67ad5b900d1036" target="_top" xlink:title="MeshPaintPlugin::MeshPaint\lComponent::startPaint">
<polygon fill="white" stroke="black" points="561.5,-10 561.5,-40 704.5,-40 704.5,-10 561.5,-10"/>
<text text-anchor="start" x="569.5" y="-28" font-family="Helvetica,sans-Serif" font-size="10.00">MeshPaintPlugin::MeshPaint</text>
<text text-anchor="middle" x="633" y="-17" font-family="Helvetica,sans-Serif" font-size="10.00">Component::startPaint</text>
</a>
</g>
</g>
<!-- Node20&#45;&gt;Node21 -->
<g id="edge20" class="edge"><title>Node20&#45;&gt;Node21</title>
<path fill="none" stroke="midnightblue" d="M510.676,-25C523.883,-25 537.778,-25 551.262,-25"/>
<polygon fill="midnightblue" stroke="midnightblue" points="551.474,-28.5001 561.474,-25 551.474,-21.5001 551.474,-28.5001"/>
</g>
<!-- Node21&#45;&gt;Node13 -->
<g id="edge21" class="edge"><title>Node21&#45;&gt;Node13</title>
<path fill="none" stroke="midnightblue" d="M693.584,-40.1498C700.053,-42.9319 706.336,-46.1913 712,-50 732.683,-63.9079 727.291,-79.1302 748,-93 750.958,-94.9813 754.083,-96.8131 757.314,-98.5059"/>
<polygon fill="midnightblue" stroke="midnightblue" points="756.116,-101.811 766.653,-102.917 759.106,-95.4813 756.116,-101.811"/>
</g>
<!-- Node21&#45;&gt;Node14 -->
<g id="edge22" class="edge"><title>Node21&#45;&gt;Node14</title>
<path fill="none" stroke="midnightblue" d="M699.88,-40.0192C716.402,-43.786 734.261,-47.8574 751.223,-51.7244"/>
<polygon fill="midnightblue" stroke="midnightblue" points="750.562,-55.1634 761.09,-53.9738 752.118,-48.3385 750.562,-55.1634"/>
</g>
<!-- Node22 -->
<g id="node22" class="node"><title>Node22</title>
<g id="a_node22"><a xlink:href="namespaceRa_1_1Engine_1_1ShaderConfigurationFactory.html#a0bc60f21dbabd745961037f3d2f019c8" target="_top" xlink:title="Ra::Engine::ShaderConfiguration\lFactory::getConfiguration">
<polygon fill="white" stroke="black" points="748,-5 748,-35 908,-35 908,-5 748,-5"/>
<text text-anchor="start" x="756" y="-23" font-family="Helvetica,sans-Serif" font-size="10.00">Ra::Engine::ShaderConfiguration</text>
<text text-anchor="middle" x="828" y="-12" font-family="Helvetica,sans-Serif" font-size="10.00">Factory::getConfiguration</text>
</a>
</g>
</g>
<!-- Node21&#45;&gt;Node22 -->
<g id="edge23" class="edge"><title>Node21&#45;&gt;Node22</title>
<path fill="none" stroke="midnightblue" d="M704.77,-23.1666C715.478,-22.8892 726.642,-22.6 737.68,-22.314"/>
<polygon fill="midnightblue" stroke="midnightblue" points="737.858,-25.8106 747.764,-22.0527 737.677,-18.813 737.858,-25.8106"/>
</g>
<!-- Node23 -->
<g id="node23" class="node"><title>Node23</title>
<g id="a_node23"><a xlink:href="classRa_1_1Engine_1_1ShaderConfiguration.html#a7e20a600c78e8627f0238b342f4b42f2" target="_top" xlink:title="Ra::Engine::ShaderConfiguration\l::getDefaultShaderConfig">
<polygon fill="white" stroke="black" points="944,-5 944,-35 1104,-35 1104,-5 944,-5"/>
<text text-anchor="start" x="952" y="-23" font-family="Helvetica,sans-Serif" font-size="10.00">Ra::Engine::ShaderConfiguration</text>
<text text-anchor="middle" x="1024" y="-12" font-family="Helvetica,sans-Serif" font-size="10.00">::getDefaultShaderConfig</text>
</a>
</g>
</g>
<!-- Node22&#45;&gt;Node23 -->
<g id="edge24" class="edge"><title>Node22&#45;&gt;Node23</title>
<path fill="none" stroke="midnightblue" d="M908.187,-20C916.529,-20 925.054,-20 933.502,-20"/>
<polygon fill="midnightblue" stroke="midnightblue" points="933.752,-23.5001 943.752,-20 933.752,-16.5001 933.752,-23.5001"/>
</g>
</g>
</svg>
