<?xml version="1.0" encoding="UTF-8" standalone="no"?>
<!DOCTYPE svg PUBLIC "-//W3C//DTD SVG 1.1//EN"
 "http://www.w3.org/Graphics/SVG/1.1/DTD/svg11.dtd">
<!-- Generated by graphviz version 2.36.0 (20140111.2315)
 -->
<!-- Title: Ra::GuiBase::SelectionManager::printSelection Pages: 1 -->
<svg width="1052pt" height="504pt"
 viewBox="0.00 0.00 1052.00 504.00" xmlns="http://www.w3.org/2000/svg" xmlns:xlink="http://www.w3.org/1999/xlink">
<g id="graph0" class="graph" transform="scale(1 1) rotate(0) translate(4 500)">
<title>Ra::GuiBase::SelectionManager::printSelection</title>
<polygon fill="white" stroke="none" points="-4,4 -4,-500 1048,-500 1048,4 -4,4"/>
<!-- Node1 -->
<g id="node1" class="node"><title>Node1</title>
<polygon fill="#bfbfbf" stroke="black" points="0.5,-417 0.5,-447 157.5,-447 157.5,-417 0.5,-417"/>
<text text-anchor="start" x="8.5" y="-435" font-family="Helvetica,sans-Serif" font-size="10.00">Ra::GuiBase::SelectionManager</text>
<text text-anchor="middle" x="79" y="-424" font-family="Helvetica,sans-Serif" font-size="10.00">::printSelection</text>
</g>
<!-- Node2 -->
<g id="node2" class="node"><title>Node2</title>
<g id="a_node2"><a xlink:href="classRa_1_1GuiBase_1_1SelectionManager.html#a34082047d9104b97d5a655c6dd36b8e0" target="_top" xlink:title="Return the set of selected entries. ">
<polygon fill="white" stroke="black" points="194.5,-466 194.5,-496 351.5,-496 351.5,-466 194.5,-466"/>
<text text-anchor="start" x="202.5" y="-484" font-family="Helvetica,sans-Serif" font-size="10.00">Ra::GuiBase::SelectionManager</text>
<text text-anchor="middle" x="273" y="-473" font-family="Helvetica,sans-Serif" font-size="10.00">::selectedEntries</text>
</a>
</g>
</g>
<!-- Node1&#45;&gt;Node2 -->
<g id="edge1" class="edge"><title>Node1&#45;&gt;Node2</title>
<path fill="none" stroke="midnightblue" d="M138.911,-447.035C159.276,-452.232 182.272,-458.101 203.349,-463.48"/>
<polygon fill="midnightblue" stroke="midnightblue" points="202.645,-466.912 213.2,-465.994 204.376,-460.13 202.645,-466.912"/>
</g>
<!-- Node4 -->
<g id="node4" class="node"><title>Node4</title>
<g id="a_node4"><a xlink:href="namespaceRa_1_1Engine.html#a318db0d77f9e9b965c12bd100fb8de50" target="_top" xlink:title="Returns the name associated to the given item. ">
<polygon fill="white" stroke="black" points="206,-231.5 206,-250.5 340,-250.5 340,-231.5 206,-231.5"/>
<text text-anchor="middle" x="273" y="-238.5" font-family="Helvetica,sans-Serif" font-size="10.00">Ra::Engine::getEntryName</text>
</a>
</g>
</g>
<!-- Node1&#45;&gt;Node4 -->
<g id="edge3" class="edge"><title>Node1&#45;&gt;Node4</title>
<path fill="none" stroke="midnightblue" d="M95.3876,-416.693C130.796,-381.469 217.838,-294.88 254.873,-258.038"/>
<polygon fill="midnightblue" stroke="midnightblue" points="257.753,-260.11 262.374,-250.576 252.816,-255.147 257.753,-260.11"/>
</g>
<!-- Node19 -->
<g id="node19" class="node"><title>Node19</title>
<g id="a_node19"><a xlink:href="classRa_1_1GuiBase_1_1SelectionManager.html#a29cbd250208f1e18d2ab1e0f4d91105d" target="_top" xlink:title="Return the current selected item, or an invalid entry if there is no current item. ">
<polygon fill="white" stroke="black" points="194.5,-417 194.5,-447 351.5,-447 351.5,-417 194.5,-417"/>
<text text-anchor="start" x="202.5" y="-435" font-family="Helvetica,sans-Serif" font-size="10.00">Ra::GuiBase::SelectionManager</text>
<text text-anchor="middle" x="273" y="-424" font-family="Helvetica,sans-Serif" font-size="10.00">::currentItem</text>
</a>
</g>
</g>
<!-- Node1&#45;&gt;Node19 -->
<g id="edge27" class="edge"><title>Node1&#45;&gt;Node19</title>
<path fill="none" stroke="midnightblue" d="M157.54,-432C166.388,-432 175.452,-432 184.418,-432"/>
<polygon fill="midnightblue" stroke="midnightblue" points="184.482,-435.5 194.482,-432 184.482,-428.5 184.482,-435.5"/>
</g>
<!-- Node3 -->
<g id="node3" class="node"><title>Node3</title>
<g id="a_node3"><a xlink:href="classRa_1_1GuiBase_1_1SelectionManager.html#aec178a6b3de1c04e5e1d16ff72c6e966" target="_top" xlink:title="Ra::GuiBase::SelectionManager\l::itemModel">
<polygon fill="white" stroke="black" points="388.5,-466 388.5,-496 545.5,-496 545.5,-466 388.5,-466"/>
<text text-anchor="start" x="396.5" y="-484" font-family="Helvetica,sans-Serif" font-size="10.00">Ra::GuiBase::SelectionManager</text>
<text text-anchor="middle" x="467" y="-473" font-family="Helvetica,sans-Serif" font-size="10.00">::itemModel</text>
</a>
</g>
</g>
<!-- Node2&#45;&gt;Node3 -->
<g id="edge2" class="edge"><title>Node2&#45;&gt;Node3</title>
<path fill="none" stroke="midnightblue" d="M351.54,-481C360.388,-481 369.452,-481 378.418,-481"/>
<polygon fill="midnightblue" stroke="midnightblue" points="378.482,-484.5 388.482,-481 378.482,-477.5 378.482,-484.5"/>
</g>
<!-- Node5 -->
<g id="node5" class="node"><title>Node5</title>
<g id="a_node5"><a xlink:href="structRa_1_1Engine_1_1ItemEntry.html#aceafc81a73631955b64999dd39a639da" target="_top" xlink:title="Returns true if the item represents any valid object. ">
<polygon fill="white" stroke="black" points="410,-171 410,-201 524,-201 524,-171 410,-171"/>
<text text-anchor="start" x="418" y="-189" font-family="Helvetica,sans-Serif" font-size="10.00">Ra::Engine::ItemEntry</text>
<text text-anchor="middle" x="467" y="-178" font-family="Helvetica,sans-Serif" font-size="10.00">::isValid</text>
</a>
</g>
</g>
<!-- Node4&#45;&gt;Node5 -->
<g id="edge4" class="edge"><title>Node4&#45;&gt;Node5</title>
<path fill="none" stroke="midnightblue" d="M307.444,-231.42C333.928,-223.833 371.662,-213.024 403.676,-203.853"/>
<polygon fill="midnightblue" stroke="midnightblue" points="404.759,-207.184 413.408,-201.065 402.831,-200.455 404.759,-207.184"/>
</g>
<!-- Node10 -->
<g id="node10" class="node"><title>Node10</title>
<g id="a_node10"><a xlink:href="classRa_1_1Engine_1_1Entity.html#aaf256bea44bbc5bff6aa504aca05ca35" target="_top" xlink:title="Ra::Engine::Entity\l::getName">
<polygon fill="white" stroke="black" points="601.5,-49 601.5,-79 698.5,-79 698.5,-49 601.5,-49"/>
<text text-anchor="start" x="609.5" y="-67" font-family="Helvetica,sans-Serif" font-size="10.00">Ra::Engine::Entity</text>
<text text-anchor="middle" x="650" y="-56" font-family="Helvetica,sans-Serif" font-size="10.00">::getName</text>
</a>
</g>
</g>
<!-- Node4&#45;&gt;Node10 -->
<g id="edge26" class="edge"><title>Node4&#45;&gt;Node10</title>
<path fill="none" stroke="midnightblue" d="M277.919,-231.471C289.768,-204.031 328.119,-124.652 388,-91 450.808,-55.7024 535.628,-53.7131 591.289,-57.3488"/>
<polygon fill="midnightblue" stroke="midnightblue" points="591.102,-60.8444 601.331,-58.0863 591.615,-53.8632 591.102,-60.8444"/>
</g>
<!-- Node11 -->
<g id="node11" class="node"><title>Node11</title>
<g id="a_node11"><a xlink:href="structRa_1_1Engine_1_1ItemEntry.html#a898047549069e5b64d3a9a65c058af56" target="_top" xlink:title="Returns true if the item represents a render object. ">
<polygon fill="white" stroke="black" points="593,-245 593,-275 707,-275 707,-245 593,-245"/>
<text text-anchor="start" x="601" y="-263" font-family="Helvetica,sans-Serif" font-size="10.00">Ra::Engine::ItemEntry</text>
<text text-anchor="middle" x="650" y="-252" font-family="Helvetica,sans-Serif" font-size="10.00">::isRoNode</text>
</a>
</g>
</g>
<!-- Node4&#45;&gt;Node11 -->
<g id="edge16" class="edge"><title>Node4&#45;&gt;Node11</title>
<path fill="none" stroke="midnightblue" d="M340.179,-244.353C408.478,-247.814 514.415,-253.181 582.742,-256.643"/>
<polygon fill="midnightblue" stroke="midnightblue" points="582.793,-260.15 592.958,-257.161 583.148,-253.159 582.793,-260.15"/>
</g>
<!-- Node13 -->
<g id="node13" class="node"><title>Node13</title>
<g id="a_node13"><a xlink:href="classRa_1_1Engine_1_1RadiumEngine.html#a58b27bc600ea769f68b0e2938abc7862" target="_top" xlink:title="Manager getters. ">
<polygon fill="white" stroke="black" points="582.5,-0 582.5,-30 717.5,-30 717.5,-0 582.5,-0"/>
<text text-anchor="start" x="590.5" y="-18" font-family="Helvetica,sans-Serif" font-size="10.00">Ra::Engine::RadiumEngine</text>
<text text-anchor="middle" x="650" y="-7" font-family="Helvetica,sans-Serif" font-size="10.00">::getRenderObjectManager</text>
</a>
</g>
</g>
<!-- Node4&#45;&gt;Node13 -->
<g id="edge17" class="edge"><title>Node4&#45;&gt;Node13</title>
<path fill="none" stroke="midnightblue" d="M276.7,-231.123C285.994,-199.176 319.904,-98.116 388,-53 442.263,-17.0488 516.74,-9.30691 572.25,-9.53117"/>
<polygon fill="midnightblue" stroke="midnightblue" points="572.341,-13.0325 582.385,-9.66074 572.431,-6.03309 572.341,-13.0325"/>
</g>
<!-- Node15 -->
<g id="node15" class="node"><title>Node15</title>
<g id="a_node15"><a xlink:href="classRa_1_1Engine_1_1RenderObjectManager.html#a32bd0db0d9620bb7e3f0fe50b541dae3" target="_top" xlink:title="Returns the render object corresponding to the given index. ">
<polygon fill="white" stroke="black" points="400,-101 400,-131 534,-131 534,-101 400,-101"/>
<text text-anchor="start" x="408" y="-119" font-family="Helvetica,sans-Serif" font-size="10.00">Ra::Engine::RenderObject</text>
<text text-anchor="middle" x="467" y="-108" font-family="Helvetica,sans-Serif" font-size="10.00">Manager::getRenderObject</text>
</a>
</g>
</g>
<!-- Node4&#45;&gt;Node15 -->
<g id="edge18" class="edge"><title>Node4&#45;&gt;Node15</title>
<path fill="none" stroke="midnightblue" d="M287.078,-231.251C308.006,-215.782 350.487,-184.917 388,-161 401.388,-152.464 416.43,-143.618 429.706,-136.052"/>
<polygon fill="midnightblue" stroke="midnightblue" points="431.592,-139.007 438.574,-131.038 428.146,-132.914 431.592,-139.007"/>
</g>
<!-- Node16 -->
<g id="node16" class="node"><title>Node16</title>
<g id="a_node16"><a xlink:href="structRa_1_1Engine_1_1ItemEntry.html#ac78e7430338c62ed664a16da7e3ea206" target="_top" xlink:title="Returns true if the item represents a component. ">
<polygon fill="white" stroke="black" points="593,-371 593,-401 707,-401 707,-371 593,-371"/>
<text text-anchor="start" x="601" y="-389" font-family="Helvetica,sans-Serif" font-size="10.00">Ra::Engine::ItemEntry</text>
<text text-anchor="middle" x="650" y="-378" font-family="Helvetica,sans-Serif" font-size="10.00">::isComponentNode</text>
</a>
</g>
</g>
<!-- Node4&#45;&gt;Node16 -->
<g id="edge20" class="edge"><title>Node4&#45;&gt;Node16</title>
<path fill="none" stroke="midnightblue" d="M279.978,-250.731C294.879,-274.005 336.226,-332.822 388,-358 449.122,-387.724 527.609,-392.318 582.484,-390.974"/>
<polygon fill="midnightblue" stroke="midnightblue" points="582.905,-394.463 592.788,-390.646 582.682,-387.466 582.905,-394.463"/>
</g>
<!-- Node17 -->
<g id="node17" class="node"><title>Node17</title>
<g id="a_node17"><a xlink:href="classRa_1_1Engine_1_1Component.html#aa3e5cb90432a9a49e4362b673652ff76" target="_top" xlink:title="Return the component&#39;s name. ">
<polygon fill="white" stroke="black" points="406,-319 406,-349 528,-349 528,-319 406,-319"/>
<text text-anchor="start" x="414" y="-337" font-family="Helvetica,sans-Serif" font-size="10.00">Ra::Engine::Component</text>
<text text-anchor="middle" x="467" y="-326" font-family="Helvetica,sans-Serif" font-size="10.00">::getName</text>
</a>
</g>
</g>
<!-- Node4&#45;&gt;Node17 -->
<g id="edge23" class="edge"><title>Node4&#45;&gt;Node17</title>
<path fill="none" stroke="midnightblue" d="M287.831,-250.671C308.736,-264.952 349.982,-291.839 388,-309 393.022,-311.267 398.311,-313.421 403.671,-315.443"/>
<polygon fill="midnightblue" stroke="midnightblue" points="402.759,-318.835 413.354,-318.938 405.136,-312.251 402.759,-318.835"/>
</g>
<!-- Node18 -->
<g id="node18" class="node"><title>Node18</title>
<g id="a_node18"><a xlink:href="structRa_1_1Engine_1_1ItemEntry.html#a4823dfa3c113db71733979f1719f3b28" target="_top" xlink:title="Returns true if the item represents an entity. ">
<polygon fill="white" stroke="black" points="410,-270 410,-300 524,-300 524,-270 410,-270"/>
<text text-anchor="start" x="418" y="-288" font-family="Helvetica,sans-Serif" font-size="10.00">Ra::Engine::ItemEntry</text>
<text text-anchor="middle" x="467" y="-277" font-family="Helvetica,sans-Serif" font-size="10.00">::isEntityNode</text>
</a>
</g>
</g>
<!-- Node4&#45;&gt;Node18 -->
<g id="edge24" class="edge"><title>Node4&#45;&gt;Node18</title>
<path fill="none" stroke="midnightblue" d="M315.661,-250.547C340.218,-256.175 371.848,-263.424 399.755,-269.819"/>
<polygon fill="midnightblue" stroke="midnightblue" points="399.319,-273.31 409.849,-272.132 400.883,-266.487 399.319,-273.31"/>
</g>
<!-- Node6 -->
<g id="node6" class="node"><title>Node6</title>
<g id="a_node6"><a xlink:href="structRa_1_1Engine_1_1ItemEntry.html#a1fb9fdd74413a1fa5878f53c1cfcf8fd" target="_top" xlink:title="Debug checks. ">
<polygon fill="white" stroke="black" points="760,-327 760,-357 874,-357 874,-327 760,-327"/>
<text text-anchor="start" x="768" y="-345" font-family="Helvetica,sans-Serif" font-size="10.00">Ra::Engine::ItemEntry</text>
<text text-anchor="middle" x="817" y="-334" font-family="Helvetica,sans-Serif" font-size="10.00">::checkConsistency</text>
</a>
</g>
</g>
<!-- Node5&#45;&gt;Node6 -->
<g id="edge5" class="edge"><title>Node5&#45;&gt;Node6</title>
<path fill="none" stroke="midnightblue" d="M483.655,-201.081C509.482,-225.675 560.316,-272.807 582,-284 583.928,-284.995 681.563,-309.042 750.093,-325.856"/>
<polygon fill="midnightblue" stroke="midnightblue" points="749.432,-329.298 759.978,-328.281 751.099,-322.5 749.432,-329.298"/>
</g>
<!-- Node8 -->
<g id="node8" class="node"><title>Node8</title>
<g id="a_node8"><a xlink:href="classRa_1_1Engine_1_1RadiumEngine.html#a79f6626ce468268791bc5bdfe17b5586" target="_top" xlink:title="Ra::Engine::RadiumEngine\l::getEntityManager">
<polygon fill="white" stroke="black" points="582.5,-147 582.5,-177 717.5,-177 717.5,-147 582.5,-147"/>
<text text-anchor="start" x="590.5" y="-165" font-family="Helvetica,sans-Serif" font-size="10.00">Ra::Engine::RadiumEngine</text>
<text text-anchor="middle" x="650" y="-154" font-family="Helvetica,sans-Serif" font-size="10.00">::getEntityManager</text>
</a>
</g>
</g>
<!-- Node5&#45;&gt;Node8 -->
<g id="edge7" class="edge"><title>Node5&#45;&gt;Node8</title>
<path fill="none" stroke="midnightblue" d="M524.277,-178.538C539.489,-176.521 556.212,-174.303 572.336,-172.165"/>
<polygon fill="midnightblue" stroke="midnightblue" points="572.826,-175.631 582.279,-170.847 571.906,-168.692 572.826,-175.631"/>
</g>
<!-- Node9 -->
<g id="node9" class="node"><title>Node9</title>
<g id="a_node9"><a xlink:href="classRa_1_1Engine_1_1EntityManager.html#a5115cccae6aaef614ad4bd08e64d8185" target="_top" xlink:title="Check wether an entity with a given name exists or not. ">
<polygon fill="white" stroke="black" points="583,-196 583,-226 717,-226 717,-196 583,-196"/>
<text text-anchor="start" x="591" y="-214" font-family="Helvetica,sans-Serif" font-size="10.00">Ra::Engine::EntityManager</text>
<text text-anchor="middle" x="650" y="-203" font-family="Helvetica,sans-Serif" font-size="10.00">::entityExists</text>
</a>
</g>
</g>
<!-- Node5&#45;&gt;Node9 -->
<g id="edge8" class="edge"><title>Node5&#45;&gt;Node9</title>
<path fill="none" stroke="midnightblue" d="M524.277,-193.773C539.66,-195.898 556.591,-198.236 572.883,-200.487"/>
<polygon fill="midnightblue" stroke="midnightblue" points="572.54,-203.972 582.925,-201.874 573.498,-197.038 572.54,-203.972"/>
</g>
<!-- Node5&#45;&gt;Node10 -->
<g id="edge9" class="edge"><title>Node5&#45;&gt;Node10</title>
<path fill="none" stroke="midnightblue" d="M500.486,-170.917C515.377,-163.027 532.645,-152.418 546,-140 566.585,-120.859 559.701,-105.114 582,-88 585.163,-85.5727 588.592,-83.3761 592.171,-81.3904"/>
<polygon fill="midnightblue" stroke="midnightblue" points="593.893,-84.444 601.31,-76.8782 590.793,-78.1675 593.893,-84.444"/>
</g>
<!-- Node5&#45;&gt;Node11 -->
<g id="edge10" class="edge"><title>Node5&#45;&gt;Node11</title>
<path fill="none" stroke="midnightblue" d="M501.739,-201.015C524.335,-210.944 554.809,-224.091 582,-235 587.185,-237.08 592.618,-239.202 598.05,-241.286"/>
<polygon fill="midnightblue" stroke="midnightblue" points="597.185,-244.701 607.776,-244.979 599.67,-238.157 597.185,-244.701"/>
</g>
<!-- Node5&#45;&gt;Node13 -->
<g id="edge13" class="edge"><title>Node5&#45;&gt;Node13</title>
<path fill="none" stroke="midnightblue" d="M504.828,-170.988C519.33,-163.515 535.09,-153.214 546,-140 576.341,-103.251 548.329,-72.7238 582,-39 583.064,-37.9344 584.178,-36.9158 585.336,-35.9422"/>
<polygon fill="midnightblue" stroke="midnightblue" points="587.386,-38.7795 593.53,-30.1482 583.344,-33.0641 587.386,-38.7795"/>
</g>
<!-- Node14 -->
<g id="node14" class="node"><title>Node14</title>
<g id="a_node14"><a xlink:href="classRa_1_1Engine_1_1RenderObjectManager.html#a4077b9cf9e1e4d62fd5456386f2d72c8" target="_top" xlink:title="Returns true if the index points to a valid render object. ">
<polygon fill="white" stroke="black" points="584.5,-98 584.5,-128 715.5,-128 715.5,-98 584.5,-98"/>
<text text-anchor="start" x="592.5" y="-116" font-family="Helvetica,sans-Serif" font-size="10.00">Ra::Engine::RenderObject</text>
<text text-anchor="middle" x="650" y="-105" font-family="Helvetica,sans-Serif" font-size="10.00">Manager::exists</text>
</a>
</g>
</g>
<!-- Node5&#45;&gt;Node14 -->
<g id="edge14" class="edge"><title>Node5&#45;&gt;Node14</title>
<path fill="none" stroke="midnightblue" d="M501.693,-170.867C524.268,-160.888 554.738,-147.73 582,-137 586.505,-135.227 591.202,-133.434 595.924,-131.669"/>
<polygon fill="midnightblue" stroke="midnightblue" points="597.431,-134.844 605.603,-128.102 595.01,-128.276 597.431,-134.844"/>
</g>
<!-- Node7 -->
<g id="node7" class="node"><title>Node7</title>
<g id="a_node7"><a xlink:href="classRa_1_1Core_1_1Index.html#a7283e7fb9cc134e04ef3cde8877f8fe2" target="_top" xlink:title="INVALID. ">
<polygon fill="white" stroke="black" points="916,-354.5 916,-373.5 1044,-373.5 1044,-354.5 916,-354.5"/>
<text text-anchor="middle" x="980" y="-361.5" font-family="Helvetica,sans-Serif" font-size="10.00">Ra::Core::Index::isInvalid</text>
</a>
</g>
</g>
<!-- Node6&#45;&gt;Node7 -->
<g id="edge6" class="edge"><title>Node6&#45;&gt;Node7</title>
<path fill="none" stroke="midnightblue" d="M874.31,-349.695C884.48,-351.084 895.218,-352.552 905.788,-353.996"/>
<polygon fill="midnightblue" stroke="midnightblue" points="905.463,-357.484 915.845,-355.37 906.411,-350.548 905.463,-357.484"/>
</g>
<!-- Node11&#45;&gt;Node6 -->
<g id="edge11" class="edge"><title>Node11&#45;&gt;Node6</title>
<path fill="none" stroke="midnightblue" d="M685.979,-275.133C696.353,-279.763 707.694,-284.965 718,-290 738.727,-300.125 761.509,-312.158 779.888,-322.097"/>
<polygon fill="midnightblue" stroke="midnightblue" points="778.337,-325.237 788.794,-326.936 781.678,-319.087 778.337,-325.237"/>
</g>
<!-- Node12 -->
<g id="node12" class="node"><title>Node12</title>
<g id="a_node12"><a xlink:href="classRa_1_1Core_1_1Index.html#a87c70243f30c65c1a24834d1829bda01" target="_top" xlink:title="DESTRUCTOR: Must not be defined, we need it trivial to be constexpr. ">
<polygon fill="white" stroke="black" points="756,-177.5 756,-196.5 878,-196.5 878,-177.5 756,-177.5"/>
<text text-anchor="middle" x="817" y="-184.5" font-family="Helvetica,sans-Serif" font-size="10.00">Ra::Core::Index::isValid</text>
</a>
</g>
</g>
<!-- Node11&#45;&gt;Node12 -->
<g id="edge12" class="edge"><title>Node11&#45;&gt;Node12</title>
<path fill="none" stroke="midnightblue" d="M693.425,-244.889C701.636,-241.762 710.131,-238.386 718,-235 742.378,-224.512 769.419,-211.13 788.91,-201.162"/>
<polygon fill="midnightblue" stroke="midnightblue" points="790.54,-204.26 797.828,-196.57 787.335,-198.036 790.54,-204.26"/>
</g>
<!-- Node14&#45;&gt;Node12 -->
<g id="edge15" class="edge"><title>Node14&#45;&gt;Node12</title>
<path fill="none" stroke="midnightblue" d="M695.64,-128.09C703.168,-130.891 710.854,-133.912 718,-137 743.013,-147.808 770.58,-162.097 790.089,-172.631"/>
<polygon fill="midnightblue" stroke="midnightblue" points="788.515,-175.76 798.971,-177.469 791.863,-169.612 788.515,-175.76"/>
</g>
<!-- Node15&#45;&gt;Node14 -->
<g id="edge19" class="edge"><title>Node15&#45;&gt;Node14</title>
<path fill="none" stroke="midnightblue" d="M534.113,-114.904C547.15,-114.688 560.917,-114.46 574.216,-114.24"/>
<polygon fill="midnightblue" stroke="midnightblue" points="574.334,-117.738 584.275,-114.073 574.218,-110.739 574.334,-117.738"/>
</g>
<!-- Node16&#45;&gt;Node6 -->
<g id="edge21" class="edge"><title>Node16&#45;&gt;Node6</title>
<path fill="none" stroke="midnightblue" d="M707.322,-370.981C721.127,-367.299 736.024,-363.327 750.229,-359.539"/>
<polygon fill="midnightblue" stroke="midnightblue" points="751.171,-362.91 759.932,-356.952 749.367,-356.146 751.171,-362.91"/>
</g>
<!-- Node16&#45;&gt;Node7 -->
<g id="edge22" class="edge"><title>Node16&#45;&gt;Node7</title>
<path fill="none" stroke="midnightblue" d="M707.013,-382.243C761.842,-378.565 845.661,-372.943 905.753,-368.913"/>
<polygon fill="midnightblue" stroke="midnightblue" points="906.19,-372.392 915.933,-368.23 905.722,-365.407 906.19,-372.392"/>
</g>
<!-- Node18&#45;&gt;Node6 -->
<g id="edge25" class="edge"><title>Node18&#45;&gt;Node6</title>
<path fill="none" stroke="midnightblue" d="M516.776,-300.06C541.663,-307.554 569.308,-315.533 582,-318 638.021,-328.89 702.61,-335.042 749.718,-338.384"/>
<polygon fill="midnightblue" stroke="midnightblue" points="749.579,-341.883 759.795,-339.075 750.058,-334.899 749.579,-341.883"/>
</g>
<!-- Node19&#45;&gt;Node3 -->
<g id="edge28" class="edge"><title>Node19&#45;&gt;Node3</title>
<path fill="none" stroke="midnightblue" d="M332.911,-447.035C353.276,-452.232 376.272,-458.101 397.349,-463.48"/>
<polygon fill="midnightblue" stroke="midnightblue" points="396.645,-466.912 407.2,-465.994 398.376,-460.13 396.645,-466.912"/>
</g>
<!-- Node20 -->
<g id="node20" class="node"><title>Node20</title>
<g id="a_node20"><a xlink:href="classRa_1_1GuiBase_1_1ItemModel.html#a3236433d461ad6cac5e9390b2685fa3f" target="_top" xlink:title="Returns the entry corresponding to a given index or an invalid entry if the index doesn&#39;t match any e...">
<polygon fill="white" stroke="black" points="404.5,-417 404.5,-447 529.5,-447 529.5,-417 404.5,-417"/>
<text text-anchor="start" x="412.5" y="-435" font-family="Helvetica,sans-Serif" font-size="10.00">Ra::GuiBase::ItemModel</text>
<text text-anchor="middle" x="467" y="-424" font-family="Helvetica,sans-Serif" font-size="10.00">::getEntry</text>
</a>
</g>
</g>
<!-- Node19&#45;&gt;Node20 -->
<g id="edge29" class="edge"><title>Node19&#45;&gt;Node20</title>
<path fill="none" stroke="midnightblue" d="M351.54,-432C365.694,-432 380.404,-432 394.376,-432"/>
<polygon fill="midnightblue" stroke="midnightblue" points="394.401,-435.5 404.401,-432 394.401,-428.5 394.401,-435.5"/>
</g>
<!-- Node21 -->
<g id="node21" class="node"><title>Node21</title>
<g id="a_node21"><a xlink:href="classRa_1_1GuiBase_1_1TreeModel.html#a5aa24ace72c1c3d29e268cb34dc576f2" target="_top" xlink:title="Get the tree item corresponding to the given index. ">
<polygon fill="white" stroke="black" points="587.5,-420 587.5,-450 712.5,-450 712.5,-420 587.5,-420"/>
<text text-anchor="start" x="595.5" y="-438" font-family="Helvetica,sans-Serif" font-size="10.00">Ra::GuiBase::TreeModel</text>
<text text-anchor="middle" x="650" y="-427" font-family="Helvetica,sans-Serif" font-size="10.00">::getItem</text>
</a>
</g>
</g>
<!-- Node20&#45;&gt;Node21 -->
<g id="edge30" class="edge"><title>Node20&#45;&gt;Node21</title>
<path fill="none" stroke="midnightblue" d="M529.531,-433.02C544.832,-433.273 561.367,-433.548 577.117,-433.809"/>
<polygon fill="midnightblue" stroke="midnightblue" points="577.275,-437.312 587.332,-433.978 577.391,-430.313 577.275,-437.312"/>
</g>
<!-- Node22 -->
<g id="node22" class="node"><title>Node22</title>
<g id="a_node22"><a xlink:href="classRa_1_1GuiBase_1_1TreeModel.html#a972106921da4c960f23f81722d3b4cf5" target="_top" xlink:title="Internal functions to check if an item is in the tree. ">
<polygon fill="white" stroke="black" points="754.5,-420 754.5,-450 879.5,-450 879.5,-420 754.5,-420"/>
<text text-anchor="start" x="762.5" y="-438" font-family="Helvetica,sans-Serif" font-size="10.00">Ra::GuiBase::TreeModel</text>
<text text-anchor="middle" x="817" y="-427" font-family="Helvetica,sans-Serif" font-size="10.00">::findInTree</text>
</a>
</g>
</g>
<!-- Node21&#45;&gt;Node22 -->
<g id="edge31" class="edge"><title>Node21&#45;&gt;Node22</title>
<path fill="none" stroke="midnightblue" d="M712.909,-435C723.06,-435 733.654,-435 744.023,-435"/>
<polygon fill="midnightblue" stroke="midnightblue" points="744.292,-438.5 754.292,-435 744.292,-431.5 744.292,-438.5"/>
</g>
</g>
</svg>
