<?xml version="1.0" encoding="UTF-8" standalone="no"?>
<!DOCTYPE svg PUBLIC "-//W3C//DTD SVG 1.1//EN"
 "http://www.w3.org/Graphics/SVG/1.1/DTD/svg11.dtd">
<!-- Generated by graphviz version 2.36.0 (20140111.2315)
 -->
<!-- Title: Ra::Core::Animation::Skeleton Pages: 1 -->
<svg width="710pt" height="1152pt"
 viewBox="0.00 0.00 710.00 1152.00" xmlns="http://www.w3.org/2000/svg" xmlns:xlink="http://www.w3.org/1999/xlink">
<g id="graph0" class="graph" transform="scale(1 1) rotate(0) translate(4 1148)">
<title>Ra::Core::Animation::Skeleton</title>
<polygon fill="white" stroke="none" points="-4,4 -4,-1148 706,-1148 706,4 -4,4"/>
<!-- Node1 -->
<g id="node1" class="node"><title>Node1</title>
<polygon fill="#bfbfbf" stroke="black" points="171,-1 171,-201 277,-201 277,-1 171,-1"/>
<text text-anchor="start" x="179" y="-189" font-family="Helvetica,sans-Serif" font-size="10.00">Ra::Core::Animation</text>
<text text-anchor="middle" x="224" y="-178" font-family="Helvetica,sans-Serif" font-size="10.00">::Skeleton</text>
<polyline fill="none" stroke="black" points="171,-171 277,-171 "/>
<text text-anchor="middle" x="224" y="-159" font-family="Helvetica,sans-Serif" font-size="10.00"> </text>
<polyline fill="none" stroke="black" points="171,-152 277,-152 "/>
<text text-anchor="start" x="179" y="-140" font-family="Helvetica,sans-Serif" font-size="10.00">+ Skeleton()</text>
<text text-anchor="start" x="179" y="-129" font-family="Helvetica,sans-Serif" font-size="10.00">+ Skeleton()</text>
<text text-anchor="start" x="179" y="-118" font-family="Helvetica,sans-Serif" font-size="10.00">+ Skeleton()</text>
<text text-anchor="start" x="179" y="-107" font-family="Helvetica,sans-Serif" font-size="10.00">+ ~Skeleton()</text>
<text text-anchor="start" x="179" y="-96" font-family="Helvetica,sans-Serif" font-size="10.00">+ size()</text>
<text text-anchor="start" x="179" y="-85" font-family="Helvetica,sans-Serif" font-size="10.00">+ clear()</text>
<text text-anchor="start" x="179" y="-74" font-family="Helvetica,sans-Serif" font-size="10.00">+ getPose()</text>
<text text-anchor="start" x="179" y="-63" font-family="Helvetica,sans-Serif" font-size="10.00">+ setPose()</text>
<text text-anchor="start" x="179" y="-52" font-family="Helvetica,sans-Serif" font-size="10.00">+ getTransform()</text>
<text text-anchor="start" x="179" y="-41" font-family="Helvetica,sans-Serif" font-size="10.00">+ setTransform()</text>
<text text-anchor="start" x="179" y="-30" font-family="Helvetica,sans-Serif" font-size="10.00">+ addBone()</text>
<text text-anchor="start" x="179" y="-19" font-family="Helvetica,sans-Serif" font-size="10.00">+ getBonePoints()</text>
<text text-anchor="start" x="179" y="-8" font-family="Helvetica,sans-Serif" font-size="10.00">+ projectOnBone()</text>
</g>
<!-- Node2 -->
<g id="node2" class="node"><title>Node2</title>
<g id="a_node2"><a xlink:href="classRa_1_1Core_1_1Animation_1_1Handle.html" target="_top" xlink:title="The Handle class describes the base handle structure used for deformation. ">
<polygon fill="white" stroke="black" points="68,-511 68,-733 174,-733 174,-511 68,-511"/>
<text text-anchor="start" x="76" y="-721" font-family="Helvetica,sans-Serif" font-size="10.00">Ra::Core::Animation</text>
<text text-anchor="middle" x="121" y="-710" font-family="Helvetica,sans-Serif" font-size="10.00">::Handle</text>
<polyline fill="none" stroke="black" points="68,-703 174,-703 "/>
<text text-anchor="middle" x="121" y="-691" font-family="Helvetica,sans-Serif" font-size="10.00"> </text>
<polyline fill="none" stroke="black" points="68,-684 174,-684 "/>
<text text-anchor="start" x="76" y="-672" font-family="Helvetica,sans-Serif" font-size="10.00">+ Handle()</text>
<text text-anchor="start" x="76" y="-661" font-family="Helvetica,sans-Serif" font-size="10.00">+ Handle()</text>
<text text-anchor="start" x="76" y="-650" font-family="Helvetica,sans-Serif" font-size="10.00">+ Handle()</text>
<text text-anchor="start" x="76" y="-639" font-family="Helvetica,sans-Serif" font-size="10.00">+ operator=()</text>
<text text-anchor="start" x="76" y="-628" font-family="Helvetica,sans-Serif" font-size="10.00">+ ~Handle()</text>
<text text-anchor="start" x="76" y="-617" font-family="Helvetica,sans-Serif" font-size="10.00">+ size()</text>
<text text-anchor="start" x="76" y="-606" font-family="Helvetica,sans-Serif" font-size="10.00">+ clear()</text>
<text text-anchor="start" x="76" y="-595" font-family="Helvetica,sans-Serif" font-size="10.00">+ getPose()</text>
<text text-anchor="start" x="76" y="-584" font-family="Helvetica,sans-Serif" font-size="10.00">+ setPose()</text>
<text text-anchor="start" x="76" y="-573" font-family="Helvetica,sans-Serif" font-size="10.00">+ getTransform()</text>
<text text-anchor="start" x="76" y="-562" font-family="Helvetica,sans-Serif" font-size="10.00">+ setTransform()</text>
<text text-anchor="start" x="76" y="-551" font-family="Helvetica,sans-Serif" font-size="10.00">+ getName()</text>
<text text-anchor="start" x="76" y="-540" font-family="Helvetica,sans-Serif" font-size="10.00">+ setName()</text>
<text text-anchor="start" x="76" y="-529" font-family="Helvetica,sans-Serif" font-size="10.00">+ getLabel()</text>
<text text-anchor="start" x="76" y="-518" font-family="Helvetica,sans-Serif" font-size="10.00">+ setLabel()</text>
</a>
</g>
</g>
<!-- Node2&#45;&gt;Node1 -->
<g id="edge1" class="edge"><title>Node2&#45;&gt;Node1</title>
<path fill="none" stroke="midnightblue" d="M144.844,-500.855C162.877,-409.991 187.341,-286.719 204.278,-201.378"/>
<polygon fill="none" stroke="midnightblue" points="141.357,-500.443 142.844,-510.933 148.223,-501.806 141.357,-500.443"/>
</g>
<!-- Node3 -->
<g id="node3" class="node"><title>Node3</title>
<polygon fill="white" stroke="#bfbfbf" points="65,-782.5 65,-839.5 169,-839.5 169,-782.5 65,-782.5"/>
<text text-anchor="middle" x="117" y="-827.5" font-family="Helvetica,sans-Serif" font-size="10.00">std::vector&lt; Label &gt;</text>
<polyline fill="none" stroke="#bfbfbf" points="65,-820.5 169,-820.5 "/>
<text text-anchor="middle" x="117" y="-808.5" font-family="Helvetica,sans-Serif" font-size="10.00"> </text>
<polyline fill="none" stroke="#bfbfbf" points="65,-801.5 169,-801.5 "/>
<text text-anchor="middle" x="117" y="-789.5" font-family="Helvetica,sans-Serif" font-size="10.00"> </text>
</g>
<!-- Node3&#45;&gt;Node2 -->
<g id="edge2" class="edge"><title>Node3&#45;&gt;Node2</title>
<path fill="none" stroke="#404040" d="M104.951,-782.221C102.896,-776.313 101.079,-770.034 100,-764 98.9112,-757.913 98.235,-751.671 97.9012,-745.363"/>
<polygon fill="none" stroke="#404040" points="97.8975,-745.17 93.7809,-739.25 97.6628,-733.172 101.779,-739.093 97.8975,-745.17"/>
<text text-anchor="middle" x="121.5" y="-755.5" font-family="Helvetica,sans-Serif" font-size="10.00"> #m_label</text>
</g>
<!-- Node4 -->
<g id="node4" class="node"><title>Node4</title>
<g id="a_node4"><a xlink:title="STL class. ">
<polygon fill="white" stroke="#bfbfbf" points="17,-962.5 17,-1019.5 77,-1019.5 77,-962.5 17,-962.5"/>
<text text-anchor="middle" x="47" y="-1007.5" font-family="Helvetica,sans-Serif" font-size="10.00">std::string</text>
<polyline fill="none" stroke="#bfbfbf" points="17,-1000.5 77,-1000.5 "/>
<text text-anchor="middle" x="47" y="-988.5" font-family="Helvetica,sans-Serif" font-size="10.00"> </text>
<polyline fill="none" stroke="#bfbfbf" points="17,-981.5 77,-981.5 "/>
<text text-anchor="middle" x="47" y="-969.5" font-family="Helvetica,sans-Serif" font-size="10.00"> </text>
</a>
</g>
</g>
<!-- Node4&#45;&gt;Node2 -->
<g id="edge10" class="edge"><title>Node4&#45;&gt;Node2</title>
<path fill="none" stroke="#404040" d="M33.7707,-962.204C16.385,-921.797 -9.7534,-844.804 10,-782 20.3904,-748.965 40.353,-716.806 60.5174,-690.153"/>
<polygon fill="none" stroke="#404040" points="60.5809,-690.071 61.0995,-682.878 67.9381,-680.591 67.4195,-687.783 60.5809,-690.071"/>
<text text-anchor="middle" x="33" y="-808.5" font-family="Helvetica,sans-Serif" font-size="10.00"> #m_name</text>
</g>
<!-- Node4&#45;&gt;Node3 -->
<g id="edge3" class="edge"><title>Node4&#45;&gt;Node3</title>
<path fill="none" stroke="#404040" d="M47.2843,-962.421C48.6214,-934.592 53.6497,-891.114 71,-858 72.5971,-854.952 74.4656,-851.978 76.5183,-849.103"/>
<polygon fill="none" stroke="#404040" points="76.5356,-849.082 77.1975,-841.901 84.0804,-839.75 83.4185,-846.931 76.5356,-849.082"/>
<text text-anchor="middle" x="95.5" y="-895.5" font-family="Helvetica,sans-Serif" font-size="10.00"> +elements</text>
</g>
<!-- Node5 -->
<g id="node5" class="node"><title>Node5</title>
<g id="a_node5"><a xlink:title="STL class. ">
<polygon fill="white" stroke="#bfbfbf" points="-0.5,-1075 -0.5,-1143 94.5,-1143 94.5,-1075 -0.5,-1075"/>
<text text-anchor="start" x="7.5" y="-1131" font-family="Helvetica,sans-Serif" font-size="10.00">std::basic_string&lt;</text>
<text text-anchor="middle" x="47" y="-1120" font-family="Helvetica,sans-Serif" font-size="10.00"> char &gt;</text>
<polyline fill="none" stroke="#bfbfbf" points="-0.5,-1113 94.5,-1113 "/>
<text text-anchor="middle" x="47" y="-1101" font-family="Helvetica,sans-Serif" font-size="10.00"> </text>
<polyline fill="none" stroke="#bfbfbf" points="-0.5,-1094 94.5,-1094 "/>
<text text-anchor="middle" x="47" y="-1082" font-family="Helvetica,sans-Serif" font-size="10.00"> </text>
</a>
</g>
</g>
<!-- Node5&#45;&gt;Node4 -->
<g id="edge4" class="edge"><title>Node5&#45;&gt;Node4</title>
<path fill="none" stroke="midnightblue" d="M47,-1064.64C47,-1049.61 47,-1033.18 47,-1019.76"/>
<polygon fill="none" stroke="midnightblue" points="43.5001,-1064.76 47,-1074.76 50.5001,-1064.76 43.5001,-1064.76"/>
</g>
<!-- Node6 -->
<g id="node6" class="node"><title>Node6</title>
<g id="a_node6"><a xlink:title="STL class. ">
<polygon fill="white" stroke="#bfbfbf" points="97.5,-962.5 97.5,-1019.5 184.5,-1019.5 184.5,-962.5 97.5,-962.5"/>
<text text-anchor="middle" x="141" y="-1007.5" font-family="Helvetica,sans-Serif" font-size="10.00">std::vector&lt; T &gt;</text>
<polyline fill="none" stroke="#bfbfbf" points="97.5,-1000.5 184.5,-1000.5 "/>
<text text-anchor="middle" x="141" y="-988.5" font-family="Helvetica,sans-Serif" font-size="10.00"> </text>
<polyline fill="none" stroke="#bfbfbf" points="97.5,-981.5 184.5,-981.5 "/>
<text text-anchor="middle" x="141" y="-969.5" font-family="Helvetica,sans-Serif" font-size="10.00"> </text>
</a>
</g>
</g>
<!-- Node6&#45;&gt;Node3 -->
<g id="edge5" class="edge"><title>Node6&#45;&gt;Node3</title>
<path fill="none" stroke="orange" d="M135.907,-952.23C131.358,-918.486 124.799,-869.843 120.724,-839.617"/>
<polygon fill="orange" stroke="orange" points="132.445,-952.745 137.25,-962.188 139.382,-951.809 132.445,-952.745"/>
<text text-anchor="middle" x="156.5" y="-895.5" font-family="Helvetica,sans-Serif" font-size="10.00"> &lt; Label &gt;</text>
</g>
<!-- Node7 -->
<g id="node7" class="node"><title>Node7</title>
<polygon fill="white" stroke="#bfbfbf" points="345.5,-1080.5 345.5,-1137.5 374.5,-1137.5 374.5,-1080.5 345.5,-1080.5"/>
<text text-anchor="middle" x="360" y="-1125.5" font-family="Helvetica,sans-Serif" font-size="10.00">T</text>
<polyline fill="none" stroke="#bfbfbf" points="345.5,-1118.5 374.5,-1118.5 "/>
<text text-anchor="middle" x="360" y="-1106.5" font-family="Helvetica,sans-Serif" font-size="10.00"> </text>
<polyline fill="none" stroke="#bfbfbf" points="345.5,-1099.5 374.5,-1099.5 "/>
<text text-anchor="middle" x="360" y="-1087.5" font-family="Helvetica,sans-Serif" font-size="10.00"> </text>
</g>
<!-- Node7&#45;&gt;Node6 -->
<g id="edge6" class="edge"><title>Node7&#45;&gt;Node6</title>
<path fill="none" stroke="#404040" d="M345.443,-1103.47C320.847,-1095.54 269.848,-1077.87 230,-1056 214.695,-1047.6 198.931,-1037 185.002,-1026.86"/>
<polygon fill="none" stroke="#404040" points="184.85,-1026.75 177.648,-1026.38 175.216,-1019.59 182.418,-1019.96 184.85,-1026.75"/>
<text text-anchor="middle" x="254.5" y="-1047.5" font-family="Helvetica,sans-Serif" font-size="10.00"> +elements</text>
</g>
<!-- Node9 -->
<g id="node9" class="node"><title>Node9</title>
<g id="a_node9"><a xlink:title="STL class. ">
<polygon fill="white" stroke="#bfbfbf" points="204,-957 204,-1025 332,-1025 332,-957 204,-957"/>
<text text-anchor="start" x="212" y="-1013" font-family="Helvetica,sans-Serif" font-size="10.00">std::vector&lt; T, Eigen</text>
<text text-anchor="middle" x="268" y="-1002" font-family="Helvetica,sans-Serif" font-size="10.00">::aligned_allocator&lt; T &gt; &gt;</text>
<polyline fill="none" stroke="#bfbfbf" points="204,-995 332,-995 "/>
<text text-anchor="middle" x="268" y="-983" font-family="Helvetica,sans-Serif" font-size="10.00"> </text>
<polyline fill="none" stroke="#bfbfbf" points="204,-976 332,-976 "/>
<text text-anchor="middle" x="268" y="-964" font-family="Helvetica,sans-Serif" font-size="10.00"> </text>
</a>
</g>
</g>
<!-- Node7&#45;&gt;Node9 -->
<g id="edge9" class="edge"><title>Node7&#45;&gt;Node9</title>
<path fill="none" stroke="#404040" d="M345.368,-1100.85C329.329,-1092.3 303.898,-1076.53 289,-1056 284.775,-1050.18 281.369,-1043.46 278.631,-1036.61"/>
<polygon fill="none" stroke="#404040" points="278.569,-1036.44 272.82,-1032.08 274.628,-1025.1 280.376,-1029.46 278.569,-1036.44"/>
<text text-anchor="middle" x="313.5" y="-1047.5" font-family="Helvetica,sans-Serif" font-size="10.00"> +elements</text>
</g>
<!-- Node12 -->
<g id="node12" class="node"><title>Node12</title>
<g id="a_node12"><a xlink:title="STL class. ">
<polygon fill="white" stroke="#bfbfbf" points="292.5,-864 292.5,-932 425.5,-932 425.5,-864 292.5,-864"/>
<text text-anchor="start" x="300.5" y="-920" font-family="Helvetica,sans-Serif" font-size="10.00">std::vector&lt; int, Eigen</text>
<text text-anchor="middle" x="359" y="-909" font-family="Helvetica,sans-Serif" font-size="10.00">::aligned_allocator&lt; int &gt; &gt;</text>
<polyline fill="none" stroke="#bfbfbf" points="292.5,-902 425.5,-902 "/>
<text text-anchor="middle" x="359" y="-890" font-family="Helvetica,sans-Serif" font-size="10.00"> </text>
<polyline fill="none" stroke="#bfbfbf" points="292.5,-883 425.5,-883 "/>
<text text-anchor="middle" x="359" y="-871" font-family="Helvetica,sans-Serif" font-size="10.00"> </text>
</a>
</g>
</g>
<!-- Node7&#45;&gt;Node12 -->
<g id="edge15" class="edge"><title>Node7&#45;&gt;Node12</title>
<path fill="none" stroke="#404040" d="M359.867,-1080.25C359.701,-1045.53 359.414,-985.626 359.216,-944.242"/>
<polygon fill="none" stroke="#404040" points="359.216,-944.042 355.187,-938.061 359.158,-932.042 363.187,-938.023 359.216,-944.042"/>
<text text-anchor="middle" x="384.5" y="-1047.5" font-family="Helvetica,sans-Serif" font-size="10.00"> +elements</text>
</g>
<!-- Node14 -->
<g id="node14" class="node"><title>Node14</title>
<g id="a_node14"><a xlink:title="STL class. ">
<polygon fill="white" stroke="#bfbfbf" points="431,-858.5 431,-937.5 565,-937.5 565,-858.5 431,-858.5"/>
<text text-anchor="start" x="439" y="-925.5" font-family="Helvetica,sans-Serif" font-size="10.00">std::vector&lt; uint8</text>
<text text-anchor="start" x="439" y="-914.5" font-family="Helvetica,sans-Serif" font-size="10.00">_t, Eigen::aligned_allocator</text>
<text text-anchor="middle" x="498" y="-903.5" font-family="Helvetica,sans-Serif" font-size="10.00">&lt; uint8_t &gt; &gt;</text>
<polyline fill="none" stroke="#bfbfbf" points="431,-896.5 565,-896.5 "/>
<text text-anchor="middle" x="498" y="-884.5" font-family="Helvetica,sans-Serif" font-size="10.00"> </text>
<polyline fill="none" stroke="#bfbfbf" points="431,-877.5 565,-877.5 "/>
<text text-anchor="middle" x="498" y="-865.5" font-family="Helvetica,sans-Serif" font-size="10.00"> </text>
</a>
</g>
</g>
<!-- Node7&#45;&gt;Node14 -->
<g id="edge19" class="edge"><title>Node7&#45;&gt;Node14</title>
<path fill="none" stroke="#404040" d="M374.675,-1095.77C386.031,-1085.83 401.677,-1071.03 413,-1056 438.189,-1022.56 460.461,-980.699 475.881,-948.614"/>
<polygon fill="none" stroke="#404040" points="475.911,-948.55 474.862,-941.415 481.043,-937.702 482.093,-944.837 475.911,-948.55"/>
<text text-anchor="middle" x="446.5" y="-1047.5" font-family="Helvetica,sans-Serif" font-size="10.00"> +elements</text>
</g>
<!-- Node16 -->
<g id="node16" class="node"><title>Node16</title>
<g id="a_node16"><a xlink:title="STL class. ">
<polygon fill="white" stroke="#bfbfbf" points="570.5,-858.5 570.5,-937.5 697.5,-937.5 697.5,-858.5 570.5,-858.5"/>
<text text-anchor="start" x="578.5" y="-925.5" font-family="Helvetica,sans-Serif" font-size="10.00">std::vector&lt; ChildrenList,</text>
<text text-anchor="start" x="578.5" y="-914.5" font-family="Helvetica,sans-Serif" font-size="10.00"> Eigen::aligned_allocator</text>
<text text-anchor="middle" x="634" y="-903.5" font-family="Helvetica,sans-Serif" font-size="10.00">&lt; ChildrenList &gt; &gt;</text>
<polyline fill="none" stroke="#bfbfbf" points="570.5,-896.5 697.5,-896.5 "/>
<text text-anchor="middle" x="634" y="-884.5" font-family="Helvetica,sans-Serif" font-size="10.00"> </text>
<polyline fill="none" stroke="#bfbfbf" points="570.5,-877.5 697.5,-877.5 "/>
<text text-anchor="middle" x="634" y="-865.5" font-family="Helvetica,sans-Serif" font-size="10.00"> </text>
</a>
</g>
</g>
<!-- Node7&#45;&gt;Node16 -->
<g id="edge23" class="edge"><title>Node7&#45;&gt;Node16</title>
<path fill="none" stroke="#404040" d="M374.658,-1103.26C397.385,-1095.52 441.948,-1078.7 475,-1056 520.012,-1025.08 563.597,-980.696 593.715,-947.002"/>
<polygon fill="none" stroke="#404040" points="593.897,-946.795 594.872,-939.65 601.842,-937.802 600.868,-944.947 593.897,-946.795"/>
<text text-anchor="middle" x="513.5" y="-1047.5" font-family="Helvetica,sans-Serif" font-size="10.00"> +elements</text>
</g>
<!-- Node8 -->
<g id="node8" class="node"><title>Node8</title>
<g id="a_node8"><a xlink:href="structRa_1_1Core_1_1AlignedStdVector.html" target="_top" xlink:title="Shortcut for the ubiquitous aligned std::vector Uses Eigen&#39;s aligned allocator, as stated in http://e...">
<polygon fill="white" stroke="black" points="187,-782.5 187,-839.5 349,-839.5 349,-782.5 187,-782.5"/>
<text text-anchor="middle" x="268" y="-827.5" font-family="Helvetica,sans-Serif" font-size="10.00">Ra::Core::AlignedStdVector&lt; T &gt;</text>
<polyline fill="none" stroke="black" points="187,-820.5 349,-820.5 "/>
<text text-anchor="middle" x="268" y="-808.5" font-family="Helvetica,sans-Serif" font-size="10.00"> </text>
<polyline fill="none" stroke="black" points="187,-801.5 349,-801.5 "/>
<text text-anchor="middle" x="268" y="-789.5" font-family="Helvetica,sans-Serif" font-size="10.00"> </text>
</a>
</g>
</g>
<!-- Node8&#45;&gt;Node1 -->
<g id="edge11" class="edge"><title>Node8&#45;&gt;Node1</title>
<path fill="none" stroke="#404040" d="M256.772,-782.342C251.558,-768.142 245.884,-750.416 243,-734 211.325,-553.721 212.852,-340.16 217.767,-213.159"/>
<polygon fill="none" stroke="#404040" points="217.768,-213.133 214.014,-206.977 218.253,-201.143 222.007,-207.3 217.768,-213.133"/>
<text text-anchor="middle" x="257" y="-483.5" font-family="Helvetica,sans-Serif" font-size="10.00"> #m_modelSpace</text>
</g>
<!-- Node8&#45;&gt;Node2 -->
<g id="edge7" class="edge"><title>Node8&#45;&gt;Node2</title>
<path fill="none" stroke="#404040" d="M188.204,-782.348C179.98,-777.176 172.334,-771.106 166,-764 160.543,-757.878 155.748,-751.092 151.534,-743.901"/>
<polygon fill="none" stroke="#404040" points="151.421,-743.691 145.065,-740.284 145.765,-733.107 152.121,-736.514 151.421,-743.691"/>
<text text-anchor="middle" x="188" y="-755.5" font-family="Helvetica,sans-Serif" font-size="10.00"> +m_pose</text>
</g>
<!-- Node11 -->
<g id="node11" class="node"><title>Node11</title>
<g id="a_node11"><a xlink:href="structRa_1_1Core_1_1AlignedStdVector.html" target="_top" xlink:title="{Ra::Core::AlignedStdVector\l\&lt; int \&gt;\n||}">
<polygon fill="white" stroke="black" points="252,-588 252,-656 390,-656 390,-588 252,-588"/>
<text text-anchor="start" x="260" y="-644" font-family="Helvetica,sans-Serif" font-size="10.00">Ra::Core::AlignedStdVector</text>
<text text-anchor="middle" x="321" y="-633" font-family="Helvetica,sans-Serif" font-size="10.00">&lt; int &gt;</text>
<polyline fill="none" stroke="black" points="252,-626 390,-626 "/>
<text text-anchor="middle" x="321" y="-614" font-family="Helvetica,sans-Serif" font-size="10.00"> </text>
<polyline fill="none" stroke="black" points="252,-607 390,-607 "/>
<text text-anchor="middle" x="321" y="-595" font-family="Helvetica,sans-Serif" font-size="10.00"> </text>
</a>
</g>
</g>
<!-- Node8&#45;&gt;Node11 -->
<g id="edge16" class="edge"><title>Node8&#45;&gt;Node11</title>
<path fill="none" stroke="orange" d="M257.108,-772.116C256.413,-765.389 256.505,-758.468 258,-752 265.998,-717.396 284.613,-681.345 299.546,-656.181"/>
<polygon fill="orange" stroke="orange" points="253.723,-773.113 258.759,-782.434 260.635,-772.007 253.723,-773.113"/>
<text text-anchor="middle" x="274" y="-755.5" font-family="Helvetica,sans-Serif" font-size="10.00"> &lt; int &gt;</text>
</g>
<!-- Node13 -->
<g id="node13" class="node"><title>Node13</title>
<g id="a_node13"><a xlink:href="structRa_1_1Core_1_1AlignedStdVector.html" target="_top" xlink:title="{Ra::Core::AlignedStdVector\l\&lt; uint8_t \&gt;\n||}">
<polygon fill="white" stroke="black" points="408,-588 408,-656 546,-656 546,-588 408,-588"/>
<text text-anchor="start" x="416" y="-644" font-family="Helvetica,sans-Serif" font-size="10.00">Ra::Core::AlignedStdVector</text>
<text text-anchor="middle" x="477" y="-633" font-family="Helvetica,sans-Serif" font-size="10.00">&lt; uint8_t &gt;</text>
<polyline fill="none" stroke="black" points="408,-626 546,-626 "/>
<text text-anchor="middle" x="477" y="-614" font-family="Helvetica,sans-Serif" font-size="10.00"> </text>
<polyline fill="none" stroke="black" points="408,-607 546,-607 "/>
<text text-anchor="middle" x="477" y="-595" font-family="Helvetica,sans-Serif" font-size="10.00"> </text>
</a>
</g>
</g>
<!-- Node8&#45;&gt;Node13 -->
<g id="edge20" class="edge"><title>Node8&#45;&gt;Node13</title>
<path fill="none" stroke="orange" d="M303.738,-775.699C314.173,-767.033 326.012,-758.386 338,-752 362.948,-738.711 376.037,-750.484 399,-734 426.839,-714.016 448.23,-680.891 461.509,-656.019"/>
<polygon fill="orange" stroke="orange" points="301.362,-773.125 296.052,-782.293 305.921,-778.438 301.362,-773.125"/>
<text text-anchor="middle" x="363.5" y="-755.5" font-family="Helvetica,sans-Serif" font-size="10.00"> &lt; uint8_t &gt;</text>
</g>
<!-- Node15 -->
<g id="node15" class="node"><title>Node15</title>
<g id="a_node15"><a xlink:href="structRa_1_1Core_1_1AlignedStdVector.html" target="_top" xlink:title="{Ra::Core::AlignedStdVector\l\&lt; ChildrenList \&gt;\n||}">
<polygon fill="white" stroke="black" points="564,-588 564,-656 702,-656 702,-588 564,-588"/>
<text text-anchor="start" x="572" y="-644" font-family="Helvetica,sans-Serif" font-size="10.00">Ra::Core::AlignedStdVector</text>
<text text-anchor="middle" x="633" y="-633" font-family="Helvetica,sans-Serif" font-size="10.00">&lt; ChildrenList &gt;</text>
<polyline fill="none" stroke="black" points="564,-626 702,-626 "/>
<text text-anchor="middle" x="633" y="-614" font-family="Helvetica,sans-Serif" font-size="10.00"> </text>
<polyline fill="none" stroke="black" points="564,-607 702,-607 "/>
<text text-anchor="middle" x="633" y="-595" font-family="Helvetica,sans-Serif" font-size="10.00"> </text>
</a>
</g>
</g>
<!-- Node8&#45;&gt;Node15 -->
<g id="edge24" class="edge"><title>Node8&#45;&gt;Node15</title>
<path fill="none" stroke="orange" d="M359.363,-802.092C419.4,-793.186 497.233,-774.251 555,-734 583.117,-714.408 604.47,-681.23 617.664,-656.239"/>
<polygon fill="orange" stroke="orange" points="358.54,-798.673 349.129,-803.539 359.521,-805.604 358.54,-798.673"/>
<text text-anchor="middle" x="557.5" y="-755.5" font-family="Helvetica,sans-Serif" font-size="10.00"> &lt; ChildrenList &gt;</text>
</g>
<!-- Node9&#45;&gt;Node8 -->
<g id="edge8" class="edge"><title>Node9&#45;&gt;Node8</title>
<path fill="none" stroke="midnightblue" d="M268,-946.558C268,-913.219 268,-868.201 268,-839.629"/>
<polygon fill="none" stroke="midnightblue" points="264.5,-946.937 268,-956.937 271.5,-946.937 264.5,-946.937"/>
</g>
<!-- Node10 -->
<g id="node10" class="node"><title>Node10</title>
<g id="a_node10"><a xlink:href="classRa_1_1Core_1_1Graph_1_1AdjacencyList.html" target="_top" xlink:title="The AdjacencyList contains the adjacency matrix expressed as a vector of indices and a vector contain...">
<polygon fill="white" stroke="black" points="306,-250.5 306,-461.5 462,-461.5 462,-250.5 306,-250.5"/>
<text text-anchor="middle" x="384" y="-449.5" font-family="Helvetica,sans-Serif" font-size="10.00">Ra::Core::Graph::AdjacencyList</text>
<polyline fill="none" stroke="black" points="306,-442.5 462,-442.5 "/>
<text text-anchor="middle" x="384" y="-430.5" font-family="Helvetica,sans-Serif" font-size="10.00"> </text>
<polyline fill="none" stroke="black" points="306,-423.5 462,-423.5 "/>
<text text-anchor="start" x="314" y="-411.5" font-family="Helvetica,sans-Serif" font-size="10.00">+ AdjacencyList()</text>
<text text-anchor="start" x="314" y="-400.5" font-family="Helvetica,sans-Serif" font-size="10.00">+ AdjacencyList()</text>
<text text-anchor="start" x="314" y="-389.5" font-family="Helvetica,sans-Serif" font-size="10.00">+ AdjacencyList()</text>
<text text-anchor="start" x="314" y="-378.5" font-family="Helvetica,sans-Serif" font-size="10.00">+ ~AdjacencyList()</text>
<text text-anchor="start" x="314" y="-367.5" font-family="Helvetica,sans-Serif" font-size="10.00">+ addNode()</text>
<text text-anchor="start" x="314" y="-356.5" font-family="Helvetica,sans-Serif" font-size="10.00">+ pruneLeaves()</text>
<text text-anchor="start" x="314" y="-345.5" font-family="Helvetica,sans-Serif" font-size="10.00">+ pruneLeaves()</text>
<text text-anchor="start" x="314" y="-334.5" font-family="Helvetica,sans-Serif" font-size="10.00">+ size()</text>
<text text-anchor="start" x="314" y="-323.5" font-family="Helvetica,sans-Serif" font-size="10.00">+ clear()</text>
<text text-anchor="start" x="314" y="-312.5" font-family="Helvetica,sans-Serif" font-size="10.00">+ isEmpty()</text>
<text text-anchor="start" x="314" y="-301.5" font-family="Helvetica,sans-Serif" font-size="10.00">+ isRoot()</text>
<text text-anchor="start" x="314" y="-290.5" font-family="Helvetica,sans-Serif" font-size="10.00">+ isLeaf()</text>
<text text-anchor="start" x="314" y="-279.5" font-family="Helvetica,sans-Serif" font-size="10.00">+ isBranch()</text>
<text text-anchor="start" x="314" y="-268.5" font-family="Helvetica,sans-Serif" font-size="10.00">+ isJoint()</text>
<text text-anchor="start" x="314" y="-257.5" font-family="Helvetica,sans-Serif" font-size="10.00">+ isEdge()</text>
</a>
</g>
</g>
<!-- Node10&#45;&gt;Node1 -->
<g id="edge12" class="edge"><title>Node10&#45;&gt;Node1</title>
<path fill="none" stroke="#404040" d="M317.767,-250.269C306.412,-232.314 294.676,-213.756 283.51,-196.101"/>
<polygon fill="none" stroke="#404040" points="283.423,-195.963 276.836,-193.03 277.009,-185.821 283.597,-188.754 283.423,-195.963"/>
<text text-anchor="middle" x="327.5" y="-223.5" font-family="Helvetica,sans-Serif" font-size="10.00"> +m_graph</text>
</g>
<!-- Node11&#45;&gt;Node10 -->
<g id="edge13" class="edge"><title>Node11&#45;&gt;Node10</title>
<path fill="none" stroke="#404040" d="M328.915,-587.832C335.833,-558.844 346.301,-514.976 356.261,-473.241"/>
<polygon fill="none" stroke="#404040" points="356.267,-473.213 353.769,-466.448 359.053,-461.54 361.551,-468.305 356.267,-473.213"/>
<text text-anchor="middle" x="380" y="-483.5" font-family="Helvetica,sans-Serif" font-size="10.00"> +m_parent</text>
</g>
<!-- Node12&#45;&gt;Node11 -->
<g id="edge14" class="edge"><title>Node12&#45;&gt;Node11</title>
<path fill="none" stroke="midnightblue" d="M364.866,-853.747C367.726,-824.775 369.498,-785.88 364,-752 358.555,-718.444 345.63,-681.823 335.363,-656.201"/>
<polygon fill="none" stroke="midnightblue" points="361.359,-853.629 363.775,-863.944 368.319,-854.374 361.359,-853.629"/>
</g>
<!-- Node13&#45;&gt;Node10 -->
<g id="edge17" class="edge"><title>Node13&#45;&gt;Node10</title>
<path fill="none" stroke="#404040" d="M465.316,-587.832C455.082,-558.782 439.585,-514.789 424.854,-472.974"/>
<polygon fill="none" stroke="#404040" points="424.814,-472.859 419.048,-468.529 420.827,-461.54 426.593,-465.871 424.814,-472.859"/>
<text text-anchor="middle" x="452.5" y="-483.5" font-family="Helvetica,sans-Serif" font-size="10.00"> +m_level</text>
</g>
<!-- Node14&#45;&gt;Node13 -->
<g id="edge18" class="edge"><title>Node14&#45;&gt;Node13</title>
<path fill="none" stroke="midnightblue" d="M494.249,-848.063C490.01,-792.749 483.223,-704.196 479.554,-656.322"/>
<polygon fill="none" stroke="midnightblue" points="490.782,-848.62 495.036,-858.324 497.761,-848.085 490.782,-848.62"/>
</g>
<!-- Node15&#45;&gt;Node10 -->
<g id="edge21" class="edge"><title>Node15&#45;&gt;Node10</title>
<path fill="none" stroke="#404040" d="M612.646,-587.969C597.878,-565.089 576.752,-534.468 555,-510 529.793,-481.647 499.676,-453.215 471.79,-428.687"/>
<polygon fill="none" stroke="#404040" points="471.474,-428.411 464.323,-427.483 462.429,-420.525 469.58,-421.453 471.474,-428.411"/>
<text text-anchor="middle" x="560.5" y="-483.5" font-family="Helvetica,sans-Serif" font-size="10.00"> +m_child</text>
</g>
<!-- Node16&#45;&gt;Node15 -->
<g id="edge22" class="edge"><title>Node16&#45;&gt;Node15</title>
<path fill="none" stroke="midnightblue" d="M633.821,-848.063C633.62,-792.749 633.296,-704.196 633.122,-656.322"/>
<polygon fill="none" stroke="midnightblue" points="630.322,-848.337 633.859,-858.324 637.322,-848.311 630.322,-848.337"/>
</g>
</g>
</svg>
