<?xml version="1.0" encoding="UTF-8" standalone="no"?>
<!DOCTYPE svg PUBLIC "-//W3C//DTD SVG 1.1//EN"
 "http://www.w3.org/Graphics/SVG/1.1/DTD/svg11.dtd">
<!-- Generated by graphviz version 2.36.0 (20140111.2315)
 -->
<!-- Title: AnimationPlugin::AnimationSystem::getTime Pages: 1 -->
<svg width="814pt" height="312pt"
 viewBox="0.00 0.00 814.00 312.08" xmlns="http://www.w3.org/2000/svg" xmlns:xlink="http://www.w3.org/1999/xlink">
<g id="graph0" class="graph" transform="scale(1 1) rotate(0) translate(4 308.082)">
<title>AnimationPlugin::AnimationSystem::getTime</title>
<polygon fill="white" stroke="none" points="-4,4 -4,-308.082 810,-308.082 810,4 -4,4"/>
<!-- Node1 -->
<g id="node1" class="node"><title>Node1</title>
<polygon fill="#bfbfbf" stroke="black" points="0.5,-122 0.5,-152 137.5,-152 137.5,-122 0.5,-122"/>
<text text-anchor="start" x="8.5" y="-140" font-family="Helvetica,sans-Serif" font-size="10.00">AnimationPlugin::Animation</text>
<text text-anchor="middle" x="69" y="-129" font-family="Helvetica,sans-Serif" font-size="10.00">System::getTime</text>
</g>
<!-- Node2 -->
<g id="node2" class="node"><title>Node2</title>
<g id="a_node2"><a xlink:href="structRa_1_1Engine_1_1ItemEntry.html#aceafc81a73631955b64999dd39a639da" target="_top" xlink:title="Returns true if the item represents any valid object. ">
<polygon fill="white" stroke="black" points="186,-147 186,-177 300,-177 300,-147 186,-147"/>
<text text-anchor="start" x="194" y="-165" font-family="Helvetica,sans-Serif" font-size="10.00">Ra::Engine::ItemEntry</text>
<text text-anchor="middle" x="243" y="-154" font-family="Helvetica,sans-Serif" font-size="10.00">::isValid</text>
</a>
</g>
</g>
<!-- Node1&#45;&gt;Node2 -->
<g id="edge1" class="edge"><title>Node1&#45;&gt;Node2</title>
<path fill="none" stroke="midnightblue" d="M137.979,-146.881C150.377,-148.683 163.298,-150.561 175.647,-152.356"/>
<polygon fill="midnightblue" stroke="midnightblue" points="175.464,-155.866 185.863,-153.841 176.47,-148.938 175.464,-155.866"/>
</g>
<!-- Node12 -->
<g id="node12" class="node"><title>Node12</title>
<g id="a_node12"><a xlink:href="classAnimationPlugin_1_1AnimationComponent.html#a7bb9a09b3c704302420b1ec5e24ea59e" target="_top" xlink:title="AnimationPlugin::Animation\lComponent::getTime">
<polygon fill="white" stroke="black" points="174.5,-98 174.5,-128 311.5,-128 311.5,-98 174.5,-98"/>
<text text-anchor="start" x="182.5" y="-116" font-family="Helvetica,sans-Serif" font-size="10.00">AnimationPlugin::Animation</text>
<text text-anchor="middle" x="243" y="-105" font-family="Helvetica,sans-Serif" font-size="10.00">Component::getTime</text>
</a>
</g>
</g>
<!-- Node1&#45;&gt;Node12 -->
<g id="edge13" class="edge"><title>Node1&#45;&gt;Node12</title>
<path fill="none" stroke="midnightblue" d="M137.979,-127.515C146.55,-126.319 155.372,-125.088 164.082,-123.872"/>
<polygon fill="midnightblue" stroke="midnightblue" points="164.813,-127.304 174.233,-122.456 163.845,-120.371 164.813,-127.304"/>
</g>
<!-- Node3 -->
<g id="node3" class="node"><title>Node3</title>
<g id="a_node3"><a xlink:href="structRa_1_1Engine_1_1ItemEntry.html#a1fb9fdd74413a1fa5878f53c1cfcf8fd" target="_top" xlink:title="Debug checks. ">
<polygon fill="white" stroke="black" points="524,-133 524,-163 638,-163 638,-133 524,-133"/>
<text text-anchor="start" x="532" y="-151" font-family="Helvetica,sans-Serif" font-size="10.00">Ra::Engine::ItemEntry</text>
<text text-anchor="middle" x="581" y="-140" font-family="Helvetica,sans-Serif" font-size="10.00">::checkConsistency</text>
</a>
</g>
</g>
<!-- Node2&#45;&gt;Node3 -->
<g id="edge2" class="edge"><title>Node2&#45;&gt;Node3</title>
<path fill="none" stroke="midnightblue" d="M251.375,-177.293C265.598,-204.775 299.734,-261.722 348,-284 402.88,-309.331 430.332,-311.808 484,-284 529.152,-260.604 557.588,-205.12 570.956,-172.711"/>
<polygon fill="midnightblue" stroke="midnightblue" points="574.346,-173.656 574.769,-163.069 567.837,-171.081 574.346,-173.656"/>
</g>
<!-- Node5 -->
<g id="node5" class="node"><title>Node5</title>
<g id="a_node5"><a xlink:href="classRa_1_1Engine_1_1RadiumEngine.html#a79f6626ce468268791bc5bdfe17b5586" target="_top" xlink:title="Ra::Engine::RadiumEngine\l::getEntityManager">
<polygon fill="white" stroke="black" points="348.5,-245 348.5,-275 483.5,-275 483.5,-245 348.5,-245"/>
<text text-anchor="start" x="356.5" y="-263" font-family="Helvetica,sans-Serif" font-size="10.00">Ra::Engine::RadiumEngine</text>
<text text-anchor="middle" x="416" y="-252" font-family="Helvetica,sans-Serif" font-size="10.00">::getEntityManager</text>
</a>
</g>
</g>
<!-- Node2&#45;&gt;Node5 -->
<g id="edge4" class="edge"><title>Node2&#45;&gt;Node5</title>
<path fill="none" stroke="midnightblue" d="M262.606,-177.271C282.72,-193.235 316.183,-218.25 348,-235 351.938,-237.073 356.086,-239.056 360.309,-240.932"/>
<polygon fill="midnightblue" stroke="midnightblue" points="359.047,-244.199 369.621,-244.866 361.771,-237.751 359.047,-244.199"/>
</g>
<!-- Node6 -->
<g id="node6" class="node"><title>Node6</title>
<g id="a_node6"><a xlink:href="classRa_1_1Engine_1_1EntityManager.html#a5115cccae6aaef614ad4bd08e64d8185" target="_top" xlink:title="Check wether an entity with a given name exists or not. ">
<polygon fill="white" stroke="black" points="349,-196 349,-226 483,-226 483,-196 349,-196"/>
<text text-anchor="start" x="357" y="-214" font-family="Helvetica,sans-Serif" font-size="10.00">Ra::Engine::EntityManager</text>
<text text-anchor="middle" x="416" y="-203" font-family="Helvetica,sans-Serif" font-size="10.00">::entityExists</text>
</a>
</g>
</g>
<!-- Node2&#45;&gt;Node6 -->
<g id="edge5" class="edge"><title>Node2&#45;&gt;Node6</title>
<path fill="none" stroke="midnightblue" d="M296.701,-177.101C314.419,-182.179 334.352,-187.89 352.734,-193.158"/>
<polygon fill="midnightblue" stroke="midnightblue" points="351.896,-196.558 362.473,-195.948 353.824,-189.829 351.896,-196.558"/>
</g>
<!-- Node7 -->
<g id="node7" class="node"><title>Node7</title>
<g id="a_node7"><a xlink:href="classRa_1_1Engine_1_1Entity.html#aaf256bea44bbc5bff6aa504aca05ca35" target="_top" xlink:title="Ra::Engine::Entity\l::getName">
<polygon fill="white" stroke="black" points="367.5,-147 367.5,-177 464.5,-177 464.5,-147 367.5,-147"/>
<text text-anchor="start" x="375.5" y="-165" font-family="Helvetica,sans-Serif" font-size="10.00">Ra::Engine::Entity</text>
<text text-anchor="middle" x="416" y="-154" font-family="Helvetica,sans-Serif" font-size="10.00">::getName</text>
</a>
</g>
</g>
<!-- Node2&#45;&gt;Node7 -->
<g id="edge6" class="edge"><title>Node2&#45;&gt;Node7</title>
<path fill="none" stroke="midnightblue" d="M300.466,-162C318.685,-162 338.901,-162 357.214,-162"/>
<polygon fill="midnightblue" stroke="midnightblue" points="357.457,-165.5 367.457,-162 357.457,-158.5 357.457,-165.5"/>
</g>
<!-- Node8 -->
<g id="node8" class="node"><title>Node8</title>
<g id="a_node8"><a xlink:href="structRa_1_1Engine_1_1ItemEntry.html#a898047549069e5b64d3a9a65c058af56" target="_top" xlink:title="Returns true if the item represents a render object. ">
<polygon fill="white" stroke="black" points="359,-98 359,-128 473,-128 473,-98 359,-98"/>
<text text-anchor="start" x="367" y="-116" font-family="Helvetica,sans-Serif" font-size="10.00">Ra::Engine::ItemEntry</text>
<text text-anchor="middle" x="416" y="-105" font-family="Helvetica,sans-Serif" font-size="10.00">::isRoNode</text>
</a>
</g>
</g>
<!-- Node2&#45;&gt;Node8 -->
<g id="edge7" class="edge"><title>Node2&#45;&gt;Node8</title>
<path fill="none" stroke="midnightblue" d="M296.701,-146.899C314.419,-141.821 334.352,-136.11 352.734,-130.842"/>
<polygon fill="midnightblue" stroke="midnightblue" points="353.824,-134.171 362.473,-128.052 351.896,-127.442 353.824,-134.171"/>
</g>
<!-- Node10 -->
<g id="node10" class="node"><title>Node10</title>
<g id="a_node10"><a xlink:href="classRa_1_1Engine_1_1RadiumEngine.html#a58b27bc600ea769f68b0e2938abc7862" target="_top" xlink:title="Manager getters. ">
<polygon fill="white" stroke="black" points="348.5,-49 348.5,-79 483.5,-79 483.5,-49 348.5,-49"/>
<text text-anchor="start" x="356.5" y="-67" font-family="Helvetica,sans-Serif" font-size="10.00">Ra::Engine::RadiumEngine</text>
<text text-anchor="middle" x="416" y="-56" font-family="Helvetica,sans-Serif" font-size="10.00">::getRenderObjectManager</text>
</a>
</g>
</g>
<!-- Node2&#45;&gt;Node10 -->
<g id="edge10" class="edge"><title>Node2&#45;&gt;Node10</title>
<path fill="none" stroke="midnightblue" d="M295.079,-146.949C301.059,-144.126 306.854,-140.83 312,-137 333.392,-121.079 326.646,-104.973 348,-89 350.456,-87.163 353.062,-85.4477 355.766,-83.8478"/>
<polygon fill="midnightblue" stroke="midnightblue" points="357.478,-86.9012 364.672,-79.1228 354.198,-80.7176 357.478,-86.9012"/>
</g>
<!-- Node11 -->
<g id="node11" class="node"><title>Node11</title>
<g id="a_node11"><a xlink:href="classRa_1_1Engine_1_1RenderObjectManager.html#a4077b9cf9e1e4d62fd5456386f2d72c8" target="_top" xlink:title="Returns true if the index points to a valid render object. ">
<polygon fill="white" stroke="black" points="350.5,-0 350.5,-30 481.5,-30 481.5,-0 350.5,-0"/>
<text text-anchor="start" x="358.5" y="-18" font-family="Helvetica,sans-Serif" font-size="10.00">Ra::Engine::RenderObject</text>
<text text-anchor="middle" x="416" y="-7" font-family="Helvetica,sans-Serif" font-size="10.00">Manager::exists</text>
</a>
</g>
</g>
<!-- Node2&#45;&gt;Node11 -->
<g id="edge11" class="edge"><title>Node2&#45;&gt;Node11</title>
<path fill="none" stroke="midnightblue" d="M298.947,-146.823C303.718,-144.07 308.176,-140.825 312,-137 344.806,-104.185 315.057,-71.678 348,-39 349.069,-37.9395 350.188,-36.9256 351.35,-35.9562"/>
<polygon fill="midnightblue" stroke="midnightblue" points="353.396,-38.7967 359.566,-30.1836 349.371,-33.0692 353.396,-38.7967"/>
</g>
<!-- Node4 -->
<g id="node4" class="node"><title>Node4</title>
<g id="a_node4"><a xlink:href="classRa_1_1Core_1_1Index.html#a7283e7fb9cc134e04ef3cde8877f8fe2" target="_top" xlink:title="INVALID. ">
<polygon fill="white" stroke="black" points="678,-138.5 678,-157.5 806,-157.5 806,-138.5 678,-138.5"/>
<text text-anchor="middle" x="742" y="-145.5" font-family="Helvetica,sans-Serif" font-size="10.00">Ra::Core::Index::isInvalid</text>
</a>
</g>
</g>
<!-- Node3&#45;&gt;Node4 -->
<g id="edge3" class="edge"><title>Node3&#45;&gt;Node4</title>
<path fill="none" stroke="midnightblue" d="M638.057,-148C647.613,-148 657.665,-148 667.589,-148"/>
<polygon fill="midnightblue" stroke="midnightblue" points="667.859,-151.5 677.859,-148 667.859,-144.5 667.859,-151.5"/>
</g>
<!-- Node8&#45;&gt;Node3 -->
<g id="edge8" class="edge"><title>Node8&#45;&gt;Node3</title>
<path fill="none" stroke="midnightblue" d="M473.095,-125.045C486.158,-127.85 500.188,-130.862 513.646,-133.752"/>
<polygon fill="midnightblue" stroke="midnightblue" points="513.289,-137.255 523.801,-135.933 514.759,-130.411 513.289,-137.255"/>
</g>
<!-- Node9 -->
<g id="node9" class="node"><title>Node9</title>
<g id="a_node9"><a xlink:href="classRa_1_1Core_1_1Index.html#a87c70243f30c65c1a24834d1829bda01" target="_top" xlink:title="DESTRUCTOR: Must not be defined, we need it trivial to be constexpr. ">
<polygon fill="white" stroke="black" points="520,-67.5 520,-86.5 642,-86.5 642,-67.5 520,-67.5"/>
<text text-anchor="middle" x="581" y="-74.5" font-family="Helvetica,sans-Serif" font-size="10.00">Ra::Core::Index::isValid</text>
</a>
</g>
</g>
<!-- Node8&#45;&gt;Node9 -->
<g id="edge9" class="edge"><title>Node8&#45;&gt;Node9</title>
<path fill="none" stroke="midnightblue" d="M473.095,-100.611C490.57,-96.7514 509.776,-92.5095 527.03,-88.6989"/>
<polygon fill="midnightblue" stroke="midnightblue" points="527.926,-92.0855 536.935,-86.5112 526.416,-85.2502 527.926,-92.0855"/>
</g>
<!-- Node11&#45;&gt;Node9 -->
<g id="edge12" class="edge"><title>Node11&#45;&gt;Node9</title>
<path fill="none" stroke="midnightblue" d="M459.609,-30.0253C467.725,-32.9544 476.138,-36.0368 484,-39 505.042,-46.9309 528.515,-56.2145 546.984,-63.6203"/>
<polygon fill="midnightblue" stroke="midnightblue" points="545.829,-66.9284 556.413,-67.4126 548.441,-60.4339 545.829,-66.9284"/>
</g>
</g>
</svg>
