<?xml version="1.0" encoding="UTF-8" standalone="no"?>
<!DOCTYPE svg PUBLIC "-//W3C//DTD SVG 1.1//EN"
 "http://www.w3.org/Graphics/SVG/1.1/DTD/svg11.dtd">
<!-- Generated by graphviz version 2.36.0 (20140111.2315)
 -->
<!-- Title: Ra::Engine::RenderParameters::TextureParameter Pages: 1 -->
<svg width="350pt" height="532pt"
 viewBox="0.00 0.00 350.00 532.00" xmlns="http://www.w3.org/2000/svg" xmlns:xlink="http://www.w3.org/1999/xlink">
<g id="graph0" class="graph" transform="scale(1 1) rotate(0) translate(4 528)">
<title>Ra::Engine::RenderParameters::TextureParameter</title>
<polygon fill="white" stroke="none" points="-4,4 -4,-528 346,-528 346,4 -4,4"/>
<!-- Node1 -->
<g id="node1" class="node"><title>Node1</title>
<polygon fill="#bfbfbf" stroke="black" points="149.5,-0.5 149.5,-101.5 302.5,-101.5 302.5,-0.5 149.5,-0.5"/>
<text text-anchor="start" x="157.5" y="-89.5" font-family="Helvetica,sans-Serif" font-size="10.00">Ra::Engine::RenderParameters</text>
<text text-anchor="middle" x="226" y="-78.5" font-family="Helvetica,sans-Serif" font-size="10.00">::TextureParameter</text>
<polyline fill="none" stroke="black" points="149.5,-71.5 302.5,-71.5 "/>
<text text-anchor="middle" x="226" y="-59.5" font-family="Helvetica,sans-Serif" font-size="10.00"> </text>
<polyline fill="none" stroke="black" points="149.5,-52.5 302.5,-52.5 "/>
<text text-anchor="start" x="157.5" y="-40.5" font-family="Helvetica,sans-Serif" font-size="10.00">+ TextureParameter()</text>
<text text-anchor="start" x="157.5" y="-29.5" font-family="Helvetica,sans-Serif" font-size="10.00">+ TextureParameter()</text>
<text text-anchor="start" x="157.5" y="-18.5" font-family="Helvetica,sans-Serif" font-size="10.00">+ ~TextureParameter()</text>
<text text-anchor="start" x="157.5" y="-7.5" font-family="Helvetica,sans-Serif" font-size="10.00">+ bind()</text>
</g>
<!-- Node2 -->
<g id="node2" class="node"><title>Node2</title>
<g id="a_node2"><a xlink:href="classRa_1_1Engine_1_1RenderParameters_1_1Parameter.html" target="_top" xlink:title="{Ra::Engine::RenderParameters\l::Parameter\n||+ Parameter()\l+ Parameter()\l+ ~Parameter()\l+ bind()\l}">
<polygon fill="white" stroke="black" points="-0.5,-200.5 -0.5,-301.5 152.5,-301.5 152.5,-200.5 -0.5,-200.5"/>
<text text-anchor="start" x="7.5" y="-289.5" font-family="Helvetica,sans-Serif" font-size="10.00">Ra::Engine::RenderParameters</text>
<text text-anchor="middle" x="76" y="-278.5" font-family="Helvetica,sans-Serif" font-size="10.00">::Parameter</text>
<polyline fill="none" stroke="black" points="-0.5,-271.5 152.5,-271.5 "/>
<text text-anchor="middle" x="76" y="-259.5" font-family="Helvetica,sans-Serif" font-size="10.00"> </text>
<polyline fill="none" stroke="black" points="-0.5,-252.5 152.5,-252.5 "/>
<text text-anchor="start" x="7.5" y="-240.5" font-family="Helvetica,sans-Serif" font-size="10.00">+ Parameter()</text>
<text text-anchor="start" x="7.5" y="-229.5" font-family="Helvetica,sans-Serif" font-size="10.00">+ Parameter()</text>
<text text-anchor="start" x="7.5" y="-218.5" font-family="Helvetica,sans-Serif" font-size="10.00">+ ~Parameter()</text>
<text text-anchor="start" x="7.5" y="-207.5" font-family="Helvetica,sans-Serif" font-size="10.00">+ bind()</text>
</a>
</g>
</g>
<!-- Node2&#45;&gt;Node1 -->
<g id="edge1" class="edge"><title>Node2&#45;&gt;Node1</title>
<path fill="none" stroke="midnightblue" d="M119.951,-191.985C141.646,-163.347 167.551,-129.153 188.327,-101.729"/>
<polygon fill="none" stroke="midnightblue" points="116.907,-190.207 113.658,-200.292 122.486,-194.434 116.907,-190.207"/>
</g>
<!-- Node3 -->
<g id="node3" class="node"><title>Node3</title>
<polygon fill="white" stroke="#bfbfbf" points="41.5,-466.5 41.5,-523.5 110.5,-523.5 110.5,-466.5 41.5,-466.5"/>
<text text-anchor="middle" x="76" y="-511.5" font-family="Helvetica,sans-Serif" font-size="10.00">const char *</text>
<polyline fill="none" stroke="#bfbfbf" points="41.5,-504.5 110.5,-504.5 "/>
<text text-anchor="middle" x="76" y="-492.5" font-family="Helvetica,sans-Serif" font-size="10.00"> </text>
<polyline fill="none" stroke="#bfbfbf" points="41.5,-485.5 110.5,-485.5 "/>
<text text-anchor="middle" x="76" y="-473.5" font-family="Helvetica,sans-Serif" font-size="10.00"> </text>
</g>
<!-- Node3&#45;&gt;Node2 -->
<g id="edge2" class="edge"><title>Node3&#45;&gt;Node2</title>
<path fill="none" stroke="#404040" d="M76,-466.24C76,-429.271 76,-362.841 76,-313.721"/>
<polygon fill="none" stroke="#404040" points="76.0001,-313.634 72,-307.634 76,-301.634 80,-307.634 76.0001,-313.634"/>
<text text-anchor="middle" x="99.5" y="-406.5" font-family="Helvetica,sans-Serif" font-size="10.00"> +m_name</text>
</g>
<!-- Node4 -->
<g id="node4" class="node"><title>Node4</title>
<g id="a_node4"><a xlink:href="classRa_1_1Engine_1_1Texture.html" target="_top" xlink:title="{Ra::Engine::Texture\n||+ Texture()\l+ ~Texture()\l+ Generate()\l+ Generate()\l+ Generate()\l+ GenerateCube()\l+ bind()\l+ getName()\l+ updateData()\l+ updateParameters()\l+ format()\l+ width()\l+ height()\l+ texture()\l}">
<polygon fill="white" stroke="black" points="170.5,-151 170.5,-351 281.5,-351 281.5,-151 170.5,-151"/>
<text text-anchor="middle" x="226" y="-339" font-family="Helvetica,sans-Serif" font-size="10.00">Ra::Engine::Texture</text>
<polyline fill="none" stroke="black" points="170.5,-332 281.5,-332 "/>
<text text-anchor="middle" x="226" y="-320" font-family="Helvetica,sans-Serif" font-size="10.00"> </text>
<polyline fill="none" stroke="black" points="170.5,-313 281.5,-313 "/>
<text text-anchor="start" x="178.5" y="-301" font-family="Helvetica,sans-Serif" font-size="10.00">+ Texture()</text>
<text text-anchor="start" x="178.5" y="-290" font-family="Helvetica,sans-Serif" font-size="10.00">+ ~Texture()</text>
<text text-anchor="start" x="178.5" y="-279" font-family="Helvetica,sans-Serif" font-size="10.00">+ Generate()</text>
<text text-anchor="start" x="178.5" y="-268" font-family="Helvetica,sans-Serif" font-size="10.00">+ Generate()</text>
<text text-anchor="start" x="178.5" y="-257" font-family="Helvetica,sans-Serif" font-size="10.00">+ Generate()</text>
<text text-anchor="start" x="178.5" y="-246" font-family="Helvetica,sans-Serif" font-size="10.00">+ GenerateCube()</text>
<text text-anchor="start" x="178.5" y="-235" font-family="Helvetica,sans-Serif" font-size="10.00">+ bind()</text>
<text text-anchor="start" x="178.5" y="-224" font-family="Helvetica,sans-Serif" font-size="10.00">+ getName()</text>
<text text-anchor="start" x="178.5" y="-213" font-family="Helvetica,sans-Serif" font-size="10.00">+ updateData()</text>
<text text-anchor="start" x="178.5" y="-202" font-family="Helvetica,sans-Serif" font-size="10.00">+ updateParameters()</text>
<text text-anchor="start" x="178.5" y="-191" font-family="Helvetica,sans-Serif" font-size="10.00">+ format()</text>
<text text-anchor="start" x="178.5" y="-180" font-family="Helvetica,sans-Serif" font-size="10.00">+ width()</text>
<text text-anchor="start" x="178.5" y="-169" font-family="Helvetica,sans-Serif" font-size="10.00">+ height()</text>
<text text-anchor="start" x="178.5" y="-158" font-family="Helvetica,sans-Serif" font-size="10.00">+ texture()</text>
</a>
</g>
</g>
<!-- Node4&#45;&gt;Node1 -->
<g id="edge3" class="edge"><title>Node4&#45;&gt;Node1</title>
<path fill="none" stroke="#404040" d="M226,-150.71C226,-138.168 226,-125.632 226,-113.907"/>
<polygon fill="none" stroke="#404040" points="226,-113.541 222,-107.541 226,-101.541 230,-107.541 226,-113.541"/>
<text text-anchor="middle" x="252.5" y="-123.5" font-family="Helvetica,sans-Serif" font-size="10.00"> +m_texture</text>
</g>
<!-- Node5 -->
<g id="node5" class="node"><title>Node5</title>
<polygon fill="white" stroke="#bfbfbf" points="199.5,-466.5 199.5,-523.5 252.5,-523.5 252.5,-466.5 199.5,-466.5"/>
<text text-anchor="middle" x="226" y="-511.5" font-family="Helvetica,sans-Serif" font-size="10.00">GLenum</text>
<polyline fill="none" stroke="#bfbfbf" points="199.5,-504.5 252.5,-504.5 "/>
<text text-anchor="middle" x="226" y="-492.5" font-family="Helvetica,sans-Serif" font-size="10.00"> </text>
<polyline fill="none" stroke="#bfbfbf" points="199.5,-485.5 252.5,-485.5 "/>
<text text-anchor="middle" x="226" y="-473.5" font-family="Helvetica,sans-Serif" font-size="10.00"> </text>
</g>
<!-- Node5&#45;&gt;Node4 -->
<g id="edge4" class="edge"><title>Node5&#45;&gt;Node4</title>
<path fill="none" stroke="#404040" d="M226,-466.24C226,-440.809 226,-401.437 226,-363.349"/>
<polygon fill="none" stroke="#404040" points="226,-363.047 222,-357.047 226,-351.047 230,-357.047 226,-363.047"/>
<text text-anchor="middle" x="260.5" y="-439.5" font-family="Helvetica,sans-Serif" font-size="10.00"> +minFilter</text>
<text text-anchor="middle" x="260.5" y="-428.5" font-family="Helvetica,sans-Serif" font-size="10.00">+dataType</text>
<text text-anchor="middle" x="260.5" y="-417.5" font-family="Helvetica,sans-Serif" font-size="10.00">+magFilter</text>
<text text-anchor="middle" x="260.5" y="-406.5" font-family="Helvetica,sans-Serif" font-size="10.00">+wrapR</text>
<text text-anchor="middle" x="260.5" y="-395.5" font-family="Helvetica,sans-Serif" font-size="10.00">+internalFormat</text>
<text text-anchor="middle" x="260.5" y="-384.5" font-family="Helvetica,sans-Serif" font-size="10.00">+wrapS</text>
<text text-anchor="middle" x="260.5" y="-373.5" font-family="Helvetica,sans-Serif" font-size="10.00">+wrapT</text>
</g>
<!-- Node6 -->
<g id="node6" class="node"><title>Node6</title>
<polygon fill="white" stroke="#bfbfbf" points="299.5,-222.5 299.5,-279.5 328.5,-279.5 328.5,-222.5 299.5,-222.5"/>
<text text-anchor="middle" x="314" y="-267.5" font-family="Helvetica,sans-Serif" font-size="10.00">int</text>
<polyline fill="none" stroke="#bfbfbf" points="299.5,-260.5 328.5,-260.5 "/>
<text text-anchor="middle" x="314" y="-248.5" font-family="Helvetica,sans-Serif" font-size="10.00"> </text>
<polyline fill="none" stroke="#bfbfbf" points="299.5,-241.5 328.5,-241.5 "/>
<text text-anchor="middle" x="314" y="-229.5" font-family="Helvetica,sans-Serif" font-size="10.00"> </text>
</g>
<!-- Node6&#45;&gt;Node1 -->
<g id="edge5" class="edge"><title>Node6&#45;&gt;Node1</title>
<path fill="none" stroke="#404040" d="M311.158,-222.348C307.516,-195.126 299.571,-152.96 283,-120 281.638,-117.29 280.148,-114.595 278.558,-111.929"/>
<polygon fill="none" stroke="#404040" points="278.525,-111.878 271.902,-109.024 271.99,-101.813 278.612,-104.667 278.525,-111.878"/>
<text text-anchor="middle" x="314.5" y="-123.5" font-family="Helvetica,sans-Serif" font-size="10.00"> +m_texUnit</text>
</g>
</g>
</svg>
