<?xml version="1.0" encoding="UTF-8" standalone="no"?>
<!DOCTYPE svg PUBLIC "-//W3C//DTD SVG 1.1//EN"
 "http://www.w3.org/Graphics/SVG/1.1/DTD/svg11.dtd">
<!-- Generated by graphviz version 2.36.0 (20140111.2315)
 -->
<!-- Title: Ra::Asset::DataLoader&lt; DATA &gt; Pages: 1 -->
<svg width="124pt" height="228pt"
 viewBox="0.00 0.00 124.00 228.00" xmlns="http://www.w3.org/2000/svg" xmlns:xlink="http://www.w3.org/1999/xlink">
<g id="graph0" class="graph" transform="scale(1 1) rotate(0) translate(4 224)">
<title>Ra::Asset::DataLoader&lt; DATA &gt;</title>
<polygon fill="white" stroke="none" points="-4,4 -4,-224 120,-224 120,4 -4,4"/>
<!-- Node1 -->
<g id="node1" class="node"><title>Node1</title>
<polygon fill="#bfbfbf" stroke="black" points="-0.5,-1 -0.5,-113 116.5,-113 116.5,-1 -0.5,-1"/>
<text text-anchor="start" x="7.5" y="-101" font-family="Helvetica,sans-Serif" font-size="10.00">Ra::Asset::DataLoader</text>
<text text-anchor="middle" x="58" y="-90" font-family="Helvetica,sans-Serif" font-size="10.00">&lt; DATA &gt;</text>
<polyline fill="none" stroke="black" points="-0.5,-83 116.5,-83 "/>
<text text-anchor="middle" x="58" y="-71" font-family="Helvetica,sans-Serif" font-size="10.00"> </text>
<polyline fill="none" stroke="black" points="-0.5,-64 116.5,-64 "/>
<text text-anchor="start" x="7.5" y="-52" font-family="Helvetica,sans-Serif" font-size="10.00">+ DataLoader()</text>
<text text-anchor="start" x="7.5" y="-41" font-family="Helvetica,sans-Serif" font-size="10.00">+ ~DataLoader()</text>
<text text-anchor="start" x="7.5" y="-30" font-family="Helvetica,sans-Serif" font-size="10.00">+ loadData()</text>
<text text-anchor="start" x="7.5" y="-19" font-family="Helvetica,sans-Serif" font-size="10.00">+ isVerbose()</text>
<text text-anchor="start" x="7.5" y="-8" font-family="Helvetica,sans-Serif" font-size="10.00">+ setVerbose()</text>
</g>
<!-- Node2 -->
<g id="node2" class="node"><title>Node2</title>
<g id="a_node2"><a xlink:href="classbool.html" target="_top" xlink:title="{bool\n||}">
<polygon fill="white" stroke="black" points="40.5,-162.5 40.5,-219.5 75.5,-219.5 75.5,-162.5 40.5,-162.5"/>
<text text-anchor="middle" x="58" y="-207.5" font-family="Helvetica,sans-Serif" font-size="10.00">bool</text>
<polyline fill="none" stroke="black" points="40.5,-200.5 75.5,-200.5 "/>
<text text-anchor="middle" x="58" y="-188.5" font-family="Helvetica,sans-Serif" font-size="10.00"> </text>
<polyline fill="none" stroke="black" points="40.5,-181.5 75.5,-181.5 "/>
<text text-anchor="middle" x="58" y="-169.5" font-family="Helvetica,sans-Serif" font-size="10.00"> </text>
</a>
</g>
</g>
<!-- Node2&#45;&gt;Node1 -->
<g id="edge1" class="edge"><title>Node2&#45;&gt;Node1</title>
<path fill="none" stroke="#404040" d="M58,-162.328C58,-151.389 58,-138.3 58,-125.15"/>
<polygon fill="none" stroke="#404040" points="58.0001,-125.116 54,-119.116 58,-113.116 62,-119.116 58.0001,-125.116"/>
<text text-anchor="middle" x="86.5" y="-135.5" font-family="Helvetica,sans-Serif" font-size="10.00"> #m_verbose</text>
</g>
</g>
</svg>
