<?xml version="1.0" encoding="UTF-8" standalone="no"?>
<!DOCTYPE svg PUBLIC "-//W3C//DTD SVG 1.1//EN"
 "http://www.w3.org/Graphics/SVG/1.1/DTD/svg11.dtd">
<!-- Generated by graphviz version 2.36.0 (20140111.2315)
 -->
<!-- Title: Ra::Core::VectorArray&lt; Scalar &gt; Pages: 1 -->
<svg width="251pt" height="594pt"
 viewBox="0.00 0.00 251.00 594.00" xmlns="http://www.w3.org/2000/svg" xmlns:xlink="http://www.w3.org/1999/xlink">
<g id="graph0" class="graph" transform="scale(1 1) rotate(0) translate(4 590)">
<title>Ra::Core::VectorArray&lt; Scalar &gt;</title>
<polygon fill="white" stroke="none" points="-4,4 -4,-590 247,-590 247,4 -4,4"/>
<!-- Node1 -->
<g id="node1" class="node"><title>Node1</title>
<polygon fill="#bfbfbf" stroke="black" points="12,-0.5 12,-79.5 126,-79.5 126,-0.5 12,-0.5"/>
<text text-anchor="start" x="20" y="-67.5" font-family="Helvetica,sans-Serif" font-size="10.00">Ra::Core::VectorArray</text>
<text text-anchor="middle" x="69" y="-56.5" font-family="Helvetica,sans-Serif" font-size="10.00">&lt; Scalar &gt;</text>
<polyline fill="none" stroke="black" points="12,-49.5 126,-49.5 "/>
<text text-anchor="middle" x="69" y="-37.5" font-family="Helvetica,sans-Serif" font-size="10.00"> </text>
<polyline fill="none" stroke="black" points="12,-30.5 126,-30.5 "/>
<text text-anchor="start" x="20" y="-18.5" font-family="Helvetica,sans-Serif" font-size="10.00">+ getMap()</text>
<text text-anchor="start" x="20" y="-7.5" font-family="Helvetica,sans-Serif" font-size="10.00">+ getMap()</text>
</g>
<!-- Node2 -->
<g id="node2" class="node"><title>Node2</title>
<g id="a_node2"><a xlink:href="structRa_1_1Core_1_1AlignedStdVector.html" target="_top" xlink:title="{Ra::Core::AlignedStdVector\l\&lt; Scalar \&gt;\n||}">
<polygon fill="white" stroke="black" points="0,-119 0,-187 138,-187 138,-119 0,-119"/>
<text text-anchor="start" x="8" y="-175" font-family="Helvetica,sans-Serif" font-size="10.00">Ra::Core::AlignedStdVector</text>
<text text-anchor="middle" x="69" y="-164" font-family="Helvetica,sans-Serif" font-size="10.00">&lt; Scalar &gt;</text>
<polyline fill="none" stroke="black" points="0,-157 138,-157 "/>
<text text-anchor="middle" x="69" y="-145" font-family="Helvetica,sans-Serif" font-size="10.00"> </text>
<polyline fill="none" stroke="black" points="0,-138 138,-138 "/>
<text text-anchor="middle" x="69" y="-126" font-family="Helvetica,sans-Serif" font-size="10.00"> </text>
</a>
</g>
</g>
<!-- Node2&#45;&gt;Node1 -->
<g id="edge1" class="edge"><title>Node2&#45;&gt;Node1</title>
<path fill="none" stroke="midnightblue" d="M69,-108.795C69,-99.1499 69,-88.9834 69,-79.5413"/>
<polygon fill="none" stroke="midnightblue" points="65.5001,-108.997 69,-118.997 72.5001,-108.997 65.5001,-108.997"/>
</g>
<!-- Node3 -->
<g id="node3" class="node"><title>Node3</title>
<g id="a_node3"><a xlink:title="STL class. ">
<polygon fill="white" stroke="#bfbfbf" points="-0.5,-312.5 -0.5,-391.5 122.5,-391.5 122.5,-312.5 -0.5,-312.5"/>
<text text-anchor="start" x="7.5" y="-379.5" font-family="Helvetica,sans-Serif" font-size="10.00">std::vector&lt; Scalar,</text>
<text text-anchor="start" x="7.5" y="-368.5" font-family="Helvetica,sans-Serif" font-size="10.00"> Eigen::aligned_allocator</text>
<text text-anchor="middle" x="61" y="-357.5" font-family="Helvetica,sans-Serif" font-size="10.00">&lt; Scalar &gt; &gt;</text>
<polyline fill="none" stroke="#bfbfbf" points="-0.5,-350.5 122.5,-350.5 "/>
<text text-anchor="middle" x="61" y="-338.5" font-family="Helvetica,sans-Serif" font-size="10.00"> </text>
<polyline fill="none" stroke="#bfbfbf" points="-0.5,-331.5 122.5,-331.5 "/>
<text text-anchor="middle" x="61" y="-319.5" font-family="Helvetica,sans-Serif" font-size="10.00"> </text>
</a>
</g>
</g>
<!-- Node3&#45;&gt;Node2 -->
<g id="edge2" class="edge"><title>Node3&#45;&gt;Node2</title>
<path fill="none" stroke="midnightblue" d="M62.9955,-301.861C64.4472,-266.112 66.374,-218.665 67.6488,-187.274"/>
<polygon fill="none" stroke="midnightblue" points="59.4893,-301.945 62.5805,-312.079 66.4835,-302.229 59.4893,-301.945"/>
</g>
<!-- Node4 -->
<g id="node4" class="node"><title>Node4</title>
<polygon fill="white" stroke="#bfbfbf" points="89.5,-528.5 89.5,-585.5 118.5,-585.5 118.5,-528.5 89.5,-528.5"/>
<text text-anchor="middle" x="104" y="-573.5" font-family="Helvetica,sans-Serif" font-size="10.00">T</text>
<polyline fill="none" stroke="#bfbfbf" points="89.5,-566.5 118.5,-566.5 "/>
<text text-anchor="middle" x="104" y="-554.5" font-family="Helvetica,sans-Serif" font-size="10.00"> </text>
<polyline fill="none" stroke="#bfbfbf" points="89.5,-547.5 118.5,-547.5 "/>
<text text-anchor="middle" x="104" y="-535.5" font-family="Helvetica,sans-Serif" font-size="10.00"> </text>
</g>
<!-- Node4&#45;&gt;Node3 -->
<g id="edge3" class="edge"><title>Node4&#45;&gt;Node3</title>
<path fill="none" stroke="#404040" d="M89.4892,-538.298C83.638,-530.169 77.4629,-520.101 74,-510 62.307,-475.891 59.2097,-435.276 58.9559,-403.901"/>
<polygon fill="none" stroke="#404040" points="58.9572,-403.5 54.9776,-397.487 58.9979,-391.5 62.9775,-397.514 58.9572,-403.5"/>
<text text-anchor="middle" x="98.5" y="-501.5" font-family="Helvetica,sans-Serif" font-size="10.00"> +elements</text>
</g>
<!-- Node6 -->
<g id="node6" class="node"><title>Node6</title>
<g id="a_node6"><a xlink:title="STL class. ">
<polygon fill="white" stroke="#bfbfbf" points="92,-411 92,-479 220,-479 220,-411 92,-411"/>
<text text-anchor="start" x="100" y="-467" font-family="Helvetica,sans-Serif" font-size="10.00">std::vector&lt; T, Eigen</text>
<text text-anchor="middle" x="156" y="-456" font-family="Helvetica,sans-Serif" font-size="10.00">::aligned_allocator&lt; T &gt; &gt;</text>
<polyline fill="none" stroke="#bfbfbf" points="92,-449 220,-449 "/>
<text text-anchor="middle" x="156" y="-437" font-family="Helvetica,sans-Serif" font-size="10.00"> </text>
<polyline fill="none" stroke="#bfbfbf" points="92,-430 220,-430 "/>
<text text-anchor="middle" x="156" y="-418" font-family="Helvetica,sans-Serif" font-size="10.00"> </text>
</a>
</g>
</g>
<!-- Node4&#45;&gt;Node6 -->
<g id="edge6" class="edge"><title>Node4&#45;&gt;Node6</title>
<path fill="none" stroke="#404040" d="M117.122,-528.242C122.567,-516.723 129.021,-503.072 135.089,-490.234"/>
<polygon fill="none" stroke="#404040" points="135.159,-490.086 134.107,-482.952 140.288,-479.237 141.34,-486.371 135.159,-490.086"/>
<text text-anchor="middle" x="154.5" y="-501.5" font-family="Helvetica,sans-Serif" font-size="10.00"> +elements</text>
</g>
<!-- Node5 -->
<g id="node5" class="node"><title>Node5</title>
<g id="a_node5"><a xlink:href="structRa_1_1Core_1_1AlignedStdVector.html" target="_top" xlink:title="Shortcut for the ubiquitous aligned std::vector Uses Eigen&#39;s aligned allocator, as stated in http://e...">
<polygon fill="white" stroke="black" points="81,-236.5 81,-293.5 243,-293.5 243,-236.5 81,-236.5"/>
<text text-anchor="middle" x="162" y="-281.5" font-family="Helvetica,sans-Serif" font-size="10.00">Ra::Core::AlignedStdVector&lt; T &gt;</text>
<polyline fill="none" stroke="black" points="81,-274.5 243,-274.5 "/>
<text text-anchor="middle" x="162" y="-262.5" font-family="Helvetica,sans-Serif" font-size="10.00"> </text>
<polyline fill="none" stroke="black" points="81,-255.5 243,-255.5 "/>
<text text-anchor="middle" x="162" y="-243.5" font-family="Helvetica,sans-Serif" font-size="10.00"> </text>
</a>
</g>
</g>
<!-- Node5&#45;&gt;Node2 -->
<g id="edge4" class="edge"><title>Node5&#45;&gt;Node2</title>
<path fill="none" stroke="orange" d="M131.8,-228.279C120.646,-215.087 108.06,-200.2 97.1002,-187.237"/>
<polygon fill="orange" stroke="orange" points="129.403,-230.866 138.532,-236.242 134.749,-226.346 129.403,-230.866"/>
<text text-anchor="middle" x="146.5" y="-209.5" font-family="Helvetica,sans-Serif" font-size="10.00"> &lt; Scalar &gt;</text>
</g>
<!-- Node6&#45;&gt;Node5 -->
<g id="edge5" class="edge"><title>Node6&#45;&gt;Node5</title>
<path fill="none" stroke="midnightblue" d="M157.464,-400.558C158.588,-367.219 160.106,-322.201 161.069,-293.629"/>
<polygon fill="none" stroke="midnightblue" points="153.953,-400.824 157.114,-410.937 160.949,-401.06 153.953,-400.824"/>
</g>
</g>
</svg>
