<?xml version="1.0" encoding="UTF-8" standalone="no"?>
<!DOCTYPE svg PUBLIC "-//W3C//DTD SVG 1.1//EN"
 "http://www.w3.org/Graphics/SVG/1.1/DTD/svg11.dtd">
<!-- Generated by graphviz version 2.36.0 (20140111.2315)
 -->
<!-- Title: Ra::Engine::LightManager::registerComponent Pages: 1 -->
<svg width="438pt" height="136pt"
 viewBox="0.00 0.00 438.00 136.00" xmlns="http://www.w3.org/2000/svg" xmlns:xlink="http://www.w3.org/1999/xlink">
<g id="graph0" class="graph" transform="scale(1 1) rotate(0) translate(4 132)">
<title>Ra::Engine::LightManager::registerComponent</title>
<polygon fill="white" stroke="none" points="-4,4 -4,-132 434,-132 434,4 -4,4"/>
<!-- Node1 -->
<g id="node1" class="node"><title>Node1</title>
<polygon fill="#bfbfbf" stroke="black" points="0,-49 0,-79 130,-79 130,-49 0,-49"/>
<text text-anchor="start" x="8" y="-67" font-family="Helvetica,sans-Serif" font-size="10.00">Ra::Engine::LightManager</text>
<text text-anchor="middle" x="65" y="-56" font-family="Helvetica,sans-Serif" font-size="10.00">::registerComponent</text>
</g>
<!-- Node2 -->
<g id="node2" class="node"><title>Node2</title>
<g id="a_node2"><a xlink:href="classRa_1_1Engine_1_1System.html#ad7b2a746c42f08a729b4df9b991293a8" target="_top" xlink:title="Registers a component belonging to an entity, making it active within the system. ...">
<polygon fill="white" stroke="black" points="166.5,-49 166.5,-79 271.5,-79 271.5,-49 166.5,-49"/>
<text text-anchor="start" x="174.5" y="-67" font-family="Helvetica,sans-Serif" font-size="10.00">Ra::Engine::System</text>
<text text-anchor="middle" x="219" y="-56" font-family="Helvetica,sans-Serif" font-size="10.00">::registerComponent</text>
</a>
</g>
</g>
<!-- Node1&#45;&gt;Node2 -->
<g id="edge1" class="edge"><title>Node1&#45;&gt;Node2</title>
<path fill="none" stroke="midnightblue" d="M130.021,-64C138.558,-64 147.302,-64 155.807,-64"/>
<polygon fill="midnightblue" stroke="midnightblue" points="156.032,-67.5001 166.032,-64 156.032,-60.5001 156.032,-67.5001"/>
</g>
<!-- Node3 -->
<g id="node3" class="node"><title>Node3</title>
<g id="a_node3"><a xlink:href="classRa_1_1Engine_1_1Component.html#a207c1dc2e97856c22e0767fb77162933" target="_top" xlink:title="Return the entity the component belongs to. ">
<polygon fill="white" stroke="black" points="308,-98 308,-128 430,-128 430,-98 308,-98"/>
<text text-anchor="start" x="316" y="-116" font-family="Helvetica,sans-Serif" font-size="10.00">Ra::Engine::Component</text>
<text text-anchor="middle" x="369" y="-105" font-family="Helvetica,sans-Serif" font-size="10.00">::getEntity</text>
</a>
</g>
</g>
<!-- Node2&#45;&gt;Node3 -->
<g id="edge2" class="edge"><title>Node2&#45;&gt;Node3</title>
<path fill="none" stroke="midnightblue" d="M265.613,-79.1014C280.594,-84.0615 297.405,-89.6274 313.007,-94.7929"/>
<polygon fill="midnightblue" stroke="midnightblue" points="311.945,-98.128 322.538,-97.9484 314.145,-91.4827 311.945,-98.128"/>
</g>
<!-- Node4 -->
<g id="node4" class="node"><title>Node4</title>
<g id="a_node4"><a xlink:href="classRa_1_1Engine_1_1Component.html#aa3e5cb90432a9a49e4362b673652ff76" target="_top" xlink:title="Return the component&#39;s name. ">
<polygon fill="white" stroke="black" points="308,-49 308,-79 430,-79 430,-49 308,-49"/>
<text text-anchor="start" x="316" y="-67" font-family="Helvetica,sans-Serif" font-size="10.00">Ra::Engine::Component</text>
<text text-anchor="middle" x="369" y="-56" font-family="Helvetica,sans-Serif" font-size="10.00">::getName</text>
</a>
</g>
</g>
<!-- Node2&#45;&gt;Node4 -->
<g id="edge3" class="edge"><title>Node2&#45;&gt;Node4</title>
<path fill="none" stroke="midnightblue" d="M271.763,-64C280.151,-64 288.959,-64 297.698,-64"/>
<polygon fill="midnightblue" stroke="midnightblue" points="297.896,-67.5001 307.896,-64 297.896,-60.5001 297.896,-67.5001"/>
</g>
<!-- Node5 -->
<g id="node5" class="node"><title>Node5</title>
<g id="a_node5"><a xlink:href="classRa_1_1Engine_1_1Component.html#aa9416af3319ba92aa7b532952c75e477" target="_top" xlink:title="Set the system to which the component belongs. ">
<polygon fill="white" stroke="black" points="308,-0 308,-30 430,-30 430,-0 308,-0"/>
<text text-anchor="start" x="316" y="-18" font-family="Helvetica,sans-Serif" font-size="10.00">Ra::Engine::Component</text>
<text text-anchor="middle" x="369" y="-7" font-family="Helvetica,sans-Serif" font-size="10.00">::setSystem</text>
</a>
</g>
</g>
<!-- Node2&#45;&gt;Node5 -->
<g id="edge4" class="edge"><title>Node2&#45;&gt;Node5</title>
<path fill="none" stroke="midnightblue" d="M265.613,-48.8986C280.594,-43.9385 297.405,-38.3726 313.007,-33.2071"/>
<polygon fill="midnightblue" stroke="midnightblue" points="314.145,-36.5173 322.538,-30.0516 311.945,-29.872 314.145,-36.5173"/>
</g>
</g>
</svg>
