<?xml version="1.0" encoding="UTF-8" standalone="no"?>
<!DOCTYPE svg PUBLIC "-//W3C//DTD SVG 1.1//EN"
 "http://www.w3.org/Graphics/SVG/1.1/DTD/svg11.dtd">
<!-- Generated by graphviz version 2.36.0 (20140111.2315)
 -->
<!-- Title: /home/travis/build/STORM&#45;IRIT/Radium&#45;Engine/src/Engine/Managers/ComponentMessenger/ComponentMessenger.hpp Pages: 1 -->
<svg width="1341pt" height="478pt"
 viewBox="0.00 0.00 1341.00 478.00" xmlns="http://www.w3.org/2000/svg" xmlns:xlink="http://www.w3.org/1999/xlink">
<g id="graph0" class="graph" transform="scale(1 1) rotate(0) translate(4 474)">
<title>/home/travis/build/STORM&#45;IRIT/Radium&#45;Engine/src/Engine/Managers/ComponentMessenger/ComponentMessenger.hpp</title>
<polygon fill="white" stroke="none" points="-4,4 -4,-474 1337,-474 1337,4 -4,4"/>
<!-- Node1 -->
<g id="node1" class="node"><title>Node1</title>
<polygon fill="#bfbfbf" stroke="black" points="305.5,-417 305.5,-469 518.5,-469 518.5,-417 305.5,-417"/>
<text text-anchor="start" x="313.5" y="-457" font-family="Helvetica,sans-Serif" font-size="10.00">/home/travis/build</text>
<text text-anchor="start" x="313.5" y="-446" font-family="Helvetica,sans-Serif" font-size="10.00">/STORM&#45;IRIT/Radium&#45;Engine</text>
<text text-anchor="start" x="313.5" y="-435" font-family="Helvetica,sans-Serif" font-size="10.00">/src/Engine/Managers/ComponentMessenger</text>
<text text-anchor="middle" x="412" y="-424" font-family="Helvetica,sans-Serif" font-size="10.00">/ComponentMessenger.hpp</text>
</g>
<!-- Node2 -->
<g id="node2" class="node"><title>Node2</title>
<g id="a_node2"><a xlink:href="RaEngine_8hpp.html" target="_top" xlink:title="Engine/RaEngine.hpp">
<polygon fill="white" stroke="black" points="55.5,-292.5 55.5,-311.5 166.5,-311.5 166.5,-292.5 55.5,-292.5"/>
<text text-anchor="middle" x="111" y="-299.5" font-family="Helvetica,sans-Serif" font-size="10.00">Engine/RaEngine.hpp</text>
</a>
</g>
</g>
<!-- Node1&#45;&gt;Node2 -->
<g id="edge1" class="edge"><title>Node1&#45;&gt;Node2</title>
<path fill="none" stroke="midnightblue" d="M305.43,-426.624C264.425,-417.416 218.49,-402.862 181,-380 156.012,-364.762 134.618,-337.975 122.276,-320.358"/>
<polygon fill="midnightblue" stroke="midnightblue" points="124.885,-317.969 116.385,-311.645 119.086,-321.89 124.885,-317.969"/>
</g>
<!-- Node6 -->
<g id="node6" class="node"><title>Node6</title>
<polygon fill="white" stroke="#bfbfbf" points="0,-0.5 0,-19.5 54,-19.5 54,-0.5 0,-0.5"/>
<text text-anchor="middle" x="27" y="-7.5" font-family="Helvetica,sans-Serif" font-size="10.00">iostream</text>
</g>
<!-- Node1&#45;&gt;Node6 -->
<g id="edge9" class="edge"><title>Node1&#45;&gt;Node6</title>
<path fill="none" stroke="midnightblue" d="M305.267,-424.892C191.329,-403.533 27,-362.427 27,-303 27,-303 27,-303 27,-121 27,-88.948 27,-51.6426 27,-29.7489"/>
<polygon fill="midnightblue" stroke="midnightblue" points="30.5001,-29.5577 27,-19.5578 23.5001,-29.5578 30.5001,-29.5577"/>
</g>
<!-- Node9 -->
<g id="node9" class="node"><title>Node9</title>
<polygon fill="white" stroke="#bfbfbf" points="139.5,-174.5 139.5,-193.5 198.5,-193.5 198.5,-174.5 139.5,-174.5"/>
<text text-anchor="middle" x="169" y="-181.5" font-family="Helvetica,sans-Serif" font-size="10.00">functional</text>
</g>
<!-- Node1&#45;&gt;Node9 -->
<g id="edge8" class="edge"><title>Node1&#45;&gt;Node9</title>
<path fill="none" stroke="midnightblue" d="M305.471,-429.694C272.095,-420.823 237.803,-405.701 214,-380 190.161,-354.26 175.929,-247.777 170.983,-203.963"/>
<polygon fill="midnightblue" stroke="midnightblue" points="174.44,-203.383 169.879,-193.821 167.481,-204.141 174.44,-203.383"/>
</g>
<!-- Node10 -->
<g id="node10" class="node"><title>Node10</title>
<polygon fill="white" stroke="#bfbfbf" points="223,-354.5 223,-373.5 275,-373.5 275,-354.5 223,-354.5"/>
<text text-anchor="middle" x="249" y="-361.5" font-family="Helvetica,sans-Serif" font-size="10.00">memory</text>
</g>
<!-- Node1&#45;&gt;Node10 -->
<g id="edge10" class="edge"><title>Node1&#45;&gt;Node10</title>
<path fill="none" stroke="midnightblue" d="M358.628,-416.787C331.129,-403.797 298.761,-388.507 276.358,-377.924"/>
<polygon fill="midnightblue" stroke="midnightblue" points="277.653,-374.664 267.116,-373.558 274.663,-380.994 277.653,-374.664"/>
</g>
<!-- Node11 -->
<g id="node11" class="node"><title>Node11</title>
<polygon fill="white" stroke="#bfbfbf" points="293.5,-354.5 293.5,-373.5 352.5,-373.5 352.5,-354.5 293.5,-354.5"/>
<text text-anchor="middle" x="323" y="-361.5" font-family="Helvetica,sans-Serif" font-size="10.00">typeindex</text>
</g>
<!-- Node1&#45;&gt;Node11 -->
<g id="edge11" class="edge"><title>Node1&#45;&gt;Node11</title>
<path fill="none" stroke="midnightblue" d="M382.858,-416.787C368.853,-404.671 352.536,-390.553 340.478,-380.121"/>
<polygon fill="midnightblue" stroke="midnightblue" points="342.744,-377.454 332.891,-373.558 338.164,-382.747 342.744,-377.454"/>
</g>
<!-- Node12 -->
<g id="node12" class="node"><title>Node12</title>
<polygon fill="white" stroke="#bfbfbf" points="370.5,-354.5 370.5,-373.5 453.5,-373.5 453.5,-354.5 370.5,-354.5"/>
<text text-anchor="middle" x="412" y="-361.5" font-family="Helvetica,sans-Serif" font-size="10.00">unordered_map</text>
</g>
<!-- Node1&#45;&gt;Node12 -->
<g id="edge12" class="edge"><title>Node1&#45;&gt;Node12</title>
<path fill="none" stroke="midnightblue" d="M412,-416.787C412,-406.069 412,-393.785 412,-383.871"/>
<polygon fill="midnightblue" stroke="midnightblue" points="415.5,-383.558 412,-373.558 408.5,-383.558 415.5,-383.558"/>
</g>
<!-- Node13 -->
<g id="node13" class="node"><title>Node13</title>
<polygon fill="white" stroke="#bfbfbf" points="472,-354.5 472,-373.5 516,-373.5 516,-354.5 472,-354.5"/>
<text text-anchor="middle" x="494" y="-361.5" font-family="Helvetica,sans-Serif" font-size="10.00">vector</text>
</g>
<!-- Node1&#45;&gt;Node13 -->
<g id="edge13" class="edge"><title>Node1&#45;&gt;Node13</title>
<path fill="none" stroke="midnightblue" d="M438.85,-416.787C451.629,-404.787 466.498,-390.825 477.575,-380.423"/>
<polygon fill="midnightblue" stroke="midnightblue" points="479.993,-382.955 484.887,-373.558 475.201,-377.852 479.993,-382.955"/>
</g>
<!-- Node14 -->
<g id="node14" class="node"><title>Node14</title>
<g id="a_node14"><a xlink:href="Singleton_8hpp.html" target="_top" xlink:title="Core/Utils/Singleton.hpp">
<polygon fill="white" stroke="black" points="1210.5,-236.5 1210.5,-255.5 1333.5,-255.5 1333.5,-236.5 1210.5,-236.5"/>
<text text-anchor="middle" x="1272" y="-243.5" font-family="Helvetica,sans-Serif" font-size="10.00">Core/Utils/Singleton.hpp</text>
</a>
</g>
</g>
<!-- Node1&#45;&gt;Node14 -->
<g id="edge14" class="edge"><title>Node1&#45;&gt;Node14</title>
<path fill="none" stroke="midnightblue" d="M518.922,-434.117C620.96,-425.339 778.608,-408.494 913,-380 1014.78,-358.421 1040.06,-349.791 1137,-312 1176.5,-296.6 1220.42,-274.463 1247.13,-260.409"/>
<polygon fill="midnightblue" stroke="midnightblue" points="1248.95,-263.402 1256.15,-255.624 1245.67,-257.219 1248.95,-263.402"/>
</g>
<!-- Node16 -->
<g id="node16" class="node"><title>Node16</title>
<g id="a_node16"><a xlink:href="Component_8hpp.html" target="_top" xlink:title="Engine/Component/Component.hpp">
<polygon fill="white" stroke="black" points="732,-354.5 732,-373.5 904,-373.5 904,-354.5 732,-354.5"/>
<text text-anchor="middle" x="818" y="-361.5" font-family="Helvetica,sans-Serif" font-size="10.00">Engine/Component/Component.hpp</text>
</a>
</g>
</g>
<!-- Node1&#45;&gt;Node16 -->
<g id="edge17" class="edge"><title>Node1&#45;&gt;Node16</title>
<path fill="none" stroke="midnightblue" d="M518.672,-421.769C597.122,-406.891 700.558,-387.273 763.024,-375.427"/>
<polygon fill="midnightblue" stroke="midnightblue" points="763.891,-378.825 773.064,-373.522 762.587,-371.947 763.891,-378.825"/>
</g>
<!-- Node33 -->
<g id="node33" class="node"><title>Node33</title>
<g id="a_node33"><a xlink:href="ComponentMessenger_8inl.html" target="_top" xlink:title="Engine/Managers/Component\lMessenger/ComponentMessenger.inl">
<polygon fill="white" stroke="black" points="534.5,-349 534.5,-379 713.5,-379 713.5,-349 534.5,-349"/>
<text text-anchor="start" x="542.5" y="-367" font-family="Helvetica,sans-Serif" font-size="10.00">Engine/Managers/Component</text>
<text text-anchor="middle" x="624" y="-356" font-family="Helvetica,sans-Serif" font-size="10.00">Messenger/ComponentMessenger.inl</text>
</a>
</g>
</g>
<!-- Node1&#45;&gt;Node33 -->
<g id="edge44" class="edge"><title>Node1&#45;&gt;Node33</title>
<path fill="none" stroke="midnightblue" d="M474.75,-416.894C505.139,-405.617 541.215,-392.589 570.32,-382.407"/>
<polygon fill="midnightblue" stroke="midnightblue" points="571.611,-385.664 579.904,-379.07 569.31,-379.053 571.611,-385.664"/>
</g>
<!-- Node3 -->
<g id="node3" class="node"><title>Node3</title>
<g id="a_node3"><a xlink:href="CoreMacros_8hpp.html" target="_top" xlink:title="Core/CoreMacros.hpp">
<polygon fill="white" stroke="black" points="103.5,-56.5 103.5,-75.5 216.5,-75.5 216.5,-56.5 103.5,-56.5"/>
<text text-anchor="middle" x="160" y="-63.5" font-family="Helvetica,sans-Serif" font-size="10.00">Core/CoreMacros.hpp</text>
</a>
</g>
</g>
<!-- Node2&#45;&gt;Node3 -->
<g id="edge2" class="edge"><title>Node2&#45;&gt;Node3</title>
<path fill="none" stroke="midnightblue" d="M111.805,-292.206C113.864,-270.783 119.884,-214.256 130,-168 136.43,-138.599 146.987,-105.271 153.71,-85.2077"/>
<polygon fill="midnightblue" stroke="midnightblue" points="157.093,-86.1299 157,-75.5355 150.466,-83.8756 157.093,-86.1299"/>
</g>
<!-- Node4 -->
<g id="node4" class="node"><title>Node4</title>
<polygon fill="white" stroke="#bfbfbf" points="266.5,-0.5 266.5,-19.5 315.5,-19.5 315.5,-0.5 266.5,-0.5"/>
<text text-anchor="middle" x="291" y="-7.5" font-family="Helvetica,sans-Serif" font-size="10.00">cassert</text>
</g>
<!-- Node3&#45;&gt;Node4 -->
<g id="edge3" class="edge"><title>Node3&#45;&gt;Node4</title>
<path fill="none" stroke="midnightblue" d="M180.757,-56.4435C202.316,-47.5566 236.263,-33.5632 260.794,-23.4514"/>
<polygon fill="midnightblue" stroke="midnightblue" points="262.428,-26.5634 270.34,-19.5164 259.761,-20.0917 262.428,-26.5634"/>
</g>
<!-- Node5 -->
<g id="node5" class="node"><title>Node5</title>
<polygon fill="white" stroke="#bfbfbf" points="72.5,-0.5 72.5,-19.5 115.5,-19.5 115.5,-0.5 72.5,-0.5"/>
<text text-anchor="middle" x="94" y="-7.5" font-family="Helvetica,sans-Serif" font-size="10.00">cstdio</text>
</g>
<!-- Node3&#45;&gt;Node5 -->
<g id="edge4" class="edge"><title>Node3&#45;&gt;Node5</title>
<path fill="none" stroke="midnightblue" d="M149.396,-56.324C139.544,-48.2631 124.649,-36.0765 112.785,-26.3695"/>
<polygon fill="midnightblue" stroke="midnightblue" points="114.753,-23.4575 104.797,-19.8339 110.32,-28.8752 114.753,-23.4575"/>
</g>
<!-- Node3&#45;&gt;Node6 -->
<g id="edge5" class="edge"><title>Node3&#45;&gt;Node6</title>
<path fill="none" stroke="midnightblue" d="M138.926,-56.4435C116.94,-47.5171 82.2657,-33.4387 57.3359,-23.3168"/>
<polygon fill="midnightblue" stroke="midnightblue" points="58.5578,-20.0355 47.9756,-19.5164 55.9244,-26.5213 58.5578,-20.0355"/>
</g>
<!-- Node7 -->
<g id="node7" class="node"><title>Node7</title>
<polygon fill="white" stroke="#bfbfbf" points="134,-0.5 134,-19.5 186,-19.5 186,-0.5 134,-0.5"/>
<text text-anchor="middle" x="160" y="-7.5" font-family="Helvetica,sans-Serif" font-size="10.00">sstream</text>
</g>
<!-- Node3&#45;&gt;Node7 -->
<g id="edge6" class="edge"><title>Node3&#45;&gt;Node7</title>
<path fill="none" stroke="midnightblue" d="M160,-56.083C160,-49.0059 160,-38.8611 160,-29.9865"/>
<polygon fill="midnightblue" stroke="midnightblue" points="163.5,-29.751 160,-19.7511 156.5,-29.7511 163.5,-29.751"/>
</g>
<!-- Node8 -->
<g id="node8" class="node"><title>Node8</title>
<polygon fill="white" stroke="#bfbfbf" points="204,-0.5 204,-19.5 248,-19.5 248,-0.5 204,-0.5"/>
<text text-anchor="middle" x="226" y="-7.5" font-family="Helvetica,sans-Serif" font-size="10.00">thread</text>
</g>
<!-- Node3&#45;&gt;Node8 -->
<g id="edge7" class="edge"><title>Node3&#45;&gt;Node8</title>
<path fill="none" stroke="midnightblue" d="M170.604,-56.324C180.456,-48.2631 195.351,-36.0765 207.215,-26.3695"/>
<polygon fill="midnightblue" stroke="midnightblue" points="209.68,-28.8752 215.203,-19.8339 205.247,-23.4575 209.68,-28.8752"/>
</g>
<!-- Node15 -->
<g id="node15" class="node"><title>Node15</title>
<g id="a_node15"><a xlink:href="RaCore_8hpp.html" target="_top" xlink:title="Core/RaCore.hpp">
<polygon fill="white" stroke="black" points="498.5,-112.5 498.5,-131.5 591.5,-131.5 591.5,-112.5 498.5,-112.5"/>
<text text-anchor="middle" x="545" y="-119.5" font-family="Helvetica,sans-Serif" font-size="10.00">Core/RaCore.hpp</text>
</a>
</g>
</g>
<!-- Node14&#45;&gt;Node15 -->
<g id="edge15" class="edge"><title>Node14&#45;&gt;Node15</title>
<path fill="none" stroke="midnightblue" d="M1272.83,-236.148C1273.83,-219.789 1273.28,-184.953 1253,-168 1203.5,-126.627 760.758,-122.834 601.636,-122.82"/>
<polygon fill="midnightblue" stroke="midnightblue" points="601.571,-119.32 591.573,-122.824 601.574,-126.32 601.571,-119.32"/>
</g>
<!-- Node15&#45;&gt;Node3 -->
<g id="edge16" class="edge"><title>Node15&#45;&gt;Node3</title>
<path fill="none" stroke="midnightblue" d="M498.176,-114.433C430.38,-104.923 304.528,-87.2715 226.943,-76.3894"/>
<polygon fill="midnightblue" stroke="midnightblue" points="227.183,-72.8889 216.794,-74.9659 226.211,-79.8211 227.183,-72.8889"/>
</g>
<!-- Node16&#45;&gt;Node2 -->
<g id="edge18" class="edge"><title>Node16&#45;&gt;Node2</title>
<path fill="none" stroke="midnightblue" d="M768.279,-354.442C753.426,-352.099 737.083,-349.731 722,-348 524.231,-325.305 289.064,-311.742 176.886,-306.089"/>
<polygon fill="midnightblue" stroke="midnightblue" points="176.906,-302.585 166.744,-305.582 176.557,-309.577 176.906,-302.585"/>
</g>
<!-- Node17 -->
<g id="node17" class="node"><title>Node17</title>
<g id="a_node17"><a xlink:href="IndexedObject_8hpp.html" target="_top" xlink:title="Core/Index/IndexedObject.hpp">
<polygon fill="white" stroke="black" points="979.5,-292.5 979.5,-311.5 1128.5,-311.5 1128.5,-292.5 979.5,-292.5"/>
<text text-anchor="middle" x="1054" y="-299.5" font-family="Helvetica,sans-Serif" font-size="10.00">Core/Index/IndexedObject.hpp</text>
</a>
</g>
</g>
<!-- Node16&#45;&gt;Node17 -->
<g id="edge19" class="edge"><title>Node16&#45;&gt;Node17</title>
<path fill="none" stroke="midnightblue" d="M851.562,-354.467C893.325,-343.849 964.722,-325.698 1010.6,-314.033"/>
<polygon fill="midnightblue" stroke="midnightblue" points="1011.72,-317.36 1020.55,-311.503 1010,-310.575 1011.72,-317.36"/>
</g>
<!-- Node21 -->
<g id="node21" class="node"><title>Node21</title>
<g id="a_node21"><a xlink:href="LinearAlgebra_8hpp.html" target="_top" xlink:title="Core/Math/LinearAlgebra.hpp">
<polygon fill="white" stroke="black" points="540.5,-236.5 540.5,-255.5 683.5,-255.5 683.5,-236.5 540.5,-236.5"/>
<text text-anchor="middle" x="612" y="-243.5" font-family="Helvetica,sans-Serif" font-size="10.00">Core/Math/LinearAlgebra.hpp</text>
</a>
</g>
</g>
<!-- Node16&#45;&gt;Node21 -->
<g id="edge24" class="edge"><title>Node16&#45;&gt;Node21</title>
<path fill="none" stroke="midnightblue" d="M760.084,-354.496C727.081,-347.4 686.383,-334.638 656,-312 639.486,-299.695 627.136,-279.266 619.788,-264.593"/>
<polygon fill="midnightblue" stroke="midnightblue" points="622.943,-263.076 615.511,-255.525 616.612,-266.063 622.943,-263.076"/>
</g>
<!-- Node31 -->
<g id="node31" class="node"><title>Node31</title>
<g id="a_node31"><a xlink:href="Ray_8hpp.html" target="_top" xlink:title="Core/Math/Ray.hpp">
<polygon fill="white" stroke="black" points="665,-292.5 665,-311.5 767,-311.5 767,-292.5 665,-292.5"/>
<text text-anchor="middle" x="716" y="-299.5" font-family="Helvetica,sans-Serif" font-size="10.00">Core/Math/Ray.hpp</text>
</a>
</g>
</g>
<!-- Node16&#45;&gt;Node31 -->
<g id="edge38" class="edge"><title>Node16&#45;&gt;Node31</title>
<path fill="none" stroke="midnightblue" d="M803.386,-354.403C786.647,-344.557 758.996,-328.291 739.281,-316.695"/>
<polygon fill="midnightblue" stroke="midnightblue" points="740.981,-313.634 730.587,-311.581 737.432,-319.668 740.981,-313.634"/>
</g>
<!-- Node32 -->
<g id="node32" class="node"><title>Node32</title>
<g id="a_node32"><a xlink:href="Component_8inl.html" target="_top" xlink:title="Engine/Component/Component.inl">
<polygon fill="white" stroke="black" points="785,-292.5 785,-311.5 951,-311.5 951,-292.5 785,-292.5"/>
<text text-anchor="middle" x="868" y="-299.5" font-family="Helvetica,sans-Serif" font-size="10.00">Engine/Component/Component.inl</text>
</a>
</g>
</g>
<!-- Node16&#45;&gt;Node32 -->
<g id="edge42" class="edge"><title>Node16&#45;&gt;Node32</title>
<path fill="none" stroke="midnightblue" d="M820.263,-354.403C825.982,-345.136 838.067,-330.183 848.818,-318.788"/>
<polygon fill="midnightblue" stroke="midnightblue" points="851.404,-321.15 855.952,-311.581 846.43,-316.225 851.404,-321.15"/>
</g>
<!-- Node17&#45;&gt;Node15 -->
<g id="edge23" class="edge"><title>Node17&#45;&gt;Node15</title>
<path fill="none" stroke="midnightblue" d="M1054.32,-292.423C1054.7,-268.362 1052.15,-199.903 1013,-168 981.715,-142.503 719.43,-129.543 601.751,-124.967"/>
<polygon fill="midnightblue" stroke="midnightblue" points="601.627,-121.46 591.501,-124.576 601.36,-128.455 601.627,-121.46"/>
</g>
<!-- Node18 -->
<g id="node18" class="node"><title>Node18</title>
<g id="a_node18"><a xlink:href="Index_8hpp.html" target="_top" xlink:title="Core/Index/Index.hpp">
<polygon fill="white" stroke="black" points="1082,-236.5 1082,-255.5 1192,-255.5 1192,-236.5 1082,-236.5"/>
<text text-anchor="middle" x="1137" y="-243.5" font-family="Helvetica,sans-Serif" font-size="10.00">Core/Index/Index.hpp</text>
</a>
</g>
</g>
<!-- Node17&#45;&gt;Node18 -->
<g id="edge20" class="edge"><title>Node17&#45;&gt;Node18</title>
<path fill="none" stroke="midnightblue" d="M1067.34,-292.324C1080.16,-283.979 1099.78,-271.212 1114.94,-261.352"/>
<polygon fill="midnightblue" stroke="midnightblue" points="1117.22,-264.042 1123.7,-255.655 1113.41,-258.174 1117.22,-264.042"/>
</g>
<!-- Node19 -->
<g id="node19" class="node"><title>Node19</title>
<polygon fill="white" stroke="#bfbfbf" points="1082,-174.5 1082,-193.5 1122,-193.5 1122,-174.5 1082,-174.5"/>
<text text-anchor="middle" x="1102" y="-181.5" font-family="Helvetica,sans-Serif" font-size="10.00">limits</text>
</g>
<!-- Node18&#45;&gt;Node19 -->
<g id="edge21" class="edge"><title>Node18&#45;&gt;Node19</title>
<path fill="none" stroke="midnightblue" d="M1131.99,-236.403C1126.84,-227.582 1118.69,-213.608 1112.18,-202.455"/>
<polygon fill="midnightblue" stroke="midnightblue" points="1115.07,-200.455 1107.01,-193.581 1109.02,-203.982 1115.07,-200.455"/>
</g>
<!-- Node20 -->
<g id="node20" class="node"><title>Node20</title>
<g id="a_node20"><a xlink:href="Index_8inl.html" target="_top" xlink:title="Core/Index/Index.inl">
<polygon fill="white" stroke="black" points="1140,-174.5 1140,-193.5 1244,-193.5 1244,-174.5 1140,-174.5"/>
<text text-anchor="middle" x="1192" y="-181.5" font-family="Helvetica,sans-Serif" font-size="10.00">Core/Index/Index.inl</text>
</a>
</g>
</g>
<!-- Node18&#45;&gt;Node20 -->
<g id="edge22" class="edge"><title>Node18&#45;&gt;Node20</title>
<path fill="none" stroke="midnightblue" d="M1144.88,-236.403C1153.29,-227.225 1166.82,-212.47 1177.23,-201.117"/>
<polygon fill="midnightblue" stroke="midnightblue" points="1179.96,-203.317 1184.13,-193.581 1174.8,-198.587 1179.96,-203.317"/>
</g>
<!-- Node21&#45;&gt;Node9 -->
<g id="edge29" class="edge"><title>Node21&#45;&gt;Node9</title>
<path fill="none" stroke="midnightblue" d="M540.249,-242.547C458.719,-238.489 322.162,-227.823 208,-200 204.758,-199.21 201.422,-198.219 198.13,-197.126"/>
<polygon fill="midnightblue" stroke="midnightblue" points="199.12,-193.762 188.526,-193.635 196.729,-200.341 199.12,-193.762"/>
</g>
<!-- Node21&#45;&gt;Node15 -->
<g id="edge25" class="edge"><title>Node21&#45;&gt;Node15</title>
<path fill="none" stroke="midnightblue" d="M599.446,-236.491C588.454,-228.381 572.89,-215.18 564,-200 553.474,-182.025 548.753,-158.405 546.653,-142.089"/>
<polygon fill="midnightblue" stroke="midnightblue" points="550.084,-141.256 545.541,-131.684 543.123,-142 550.084,-141.256"/>
</g>
<!-- Node22 -->
<g id="node22" class="node"><title>Node22</title>
<polygon fill="white" stroke="#bfbfbf" points="573.5,-174.5 573.5,-193.5 638.5,-193.5 638.5,-174.5 573.5,-174.5"/>
<text text-anchor="middle" x="606" y="-181.5" font-family="Helvetica,sans-Serif" font-size="10.00">Eigen/Core</text>
</g>
<!-- Node21&#45;&gt;Node22 -->
<g id="edge26" class="edge"><title>Node21&#45;&gt;Node22</title>
<path fill="none" stroke="midnightblue" d="M611.14,-236.403C610.294,-227.938 608.973,-214.728 607.882,-203.82"/>
<polygon fill="midnightblue" stroke="midnightblue" points="611.336,-203.183 606.858,-193.581 604.371,-203.879 611.336,-203.183"/>
</g>
<!-- Node23 -->
<g id="node23" class="node"><title>Node23</title>
<polygon fill="white" stroke="#bfbfbf" points="900.5,-174.5 900.5,-193.5 987.5,-193.5 987.5,-174.5 900.5,-174.5"/>
<text text-anchor="middle" x="944" y="-181.5" font-family="Helvetica,sans-Serif" font-size="10.00">Eigen/Geometry</text>
</g>
<!-- Node21&#45;&gt;Node23 -->
<g id="edge27" class="edge"><title>Node21&#45;&gt;Node23</title>
<path fill="none" stroke="midnightblue" d="M678.647,-236.464C735.429,-228.665 819.025,-215.933 891,-200 896.007,-198.892 901.242,-197.589 906.389,-196.223"/>
<polygon fill="midnightblue" stroke="midnightblue" points="907.385,-199.579 916.098,-193.551 905.528,-192.83 907.385,-199.579"/>
</g>
<!-- Node24 -->
<g id="node24" class="node"><title>Node24</title>
<polygon fill="white" stroke="#bfbfbf" points="656.5,-174.5 656.5,-193.5 731.5,-193.5 731.5,-174.5 656.5,-174.5"/>
<text text-anchor="middle" x="694" y="-181.5" font-family="Helvetica,sans-Serif" font-size="10.00">Eigen/Sparse</text>
</g>
<!-- Node21&#45;&gt;Node24 -->
<g id="edge28" class="edge"><title>Node21&#45;&gt;Node24</title>
<path fill="none" stroke="midnightblue" d="M623.749,-236.403C636.901,-226.78 658.434,-211.024 674.198,-199.489"/>
<polygon fill="midnightblue" stroke="midnightblue" points="676.27,-202.31 682.273,-193.581 672.136,-196.661 676.27,-202.31"/>
</g>
<!-- Node25 -->
<g id="node25" class="node"><title>Node25</title>
<polygon fill="white" stroke="#bfbfbf" points="749.5,-169 749.5,-199 882.5,-199 882.5,-169 749.5,-169"/>
<text text-anchor="start" x="757.5" y="-187" font-family="Helvetica,sans-Serif" font-size="10.00">unsupported/Eigen/Aligned</text>
<text text-anchor="middle" x="816" y="-176" font-family="Helvetica,sans-Serif" font-size="10.00">Vector3</text>
</g>
<!-- Node21&#45;&gt;Node25 -->
<g id="edge30" class="edge"><title>Node21&#45;&gt;Node25</title>
<path fill="none" stroke="midnightblue" d="M641.228,-236.403C671.67,-227.45 720.155,-213.19 758.343,-201.958"/>
<polygon fill="midnightblue" stroke="midnightblue" points="759.708,-205.205 768.314,-199.025 757.733,-198.489 759.708,-205.205"/>
</g>
<!-- Node26 -->
<g id="node26" class="node"><title>Node26</title>
<g id="a_node26"><a xlink:href="Math_8hpp.html" target="_top" xlink:title="Core/Math/Math.hpp">
<polygon fill="white" stroke="black" points="217,-174.5 217,-193.5 323,-193.5 323,-174.5 217,-174.5"/>
<text text-anchor="middle" x="270" y="-181.5" font-family="Helvetica,sans-Serif" font-size="10.00">Core/Math/Math.hpp</text>
</a>
</g>
</g>
<!-- Node21&#45;&gt;Node26 -->
<g id="edge31" class="edge"><title>Node21&#45;&gt;Node26</title>
<path fill="none" stroke="midnightblue" d="M563.363,-236.467C501.443,-225.604 394.573,-206.855 328.337,-195.235"/>
<polygon fill="midnightblue" stroke="midnightblue" points="328.924,-191.784 318.469,-193.503 327.714,-198.679 328.924,-191.784"/>
</g>
<!-- Node30 -->
<g id="node30" class="node"><title>Node30</title>
<g id="a_node30"><a xlink:href="LinearAlgebra_8inl.html" target="_top" xlink:title="Core/Math/LinearAlgebra.inl">
<polygon fill="white" stroke="black" points="379.5,-174.5 379.5,-193.5 516.5,-193.5 516.5,-174.5 379.5,-174.5"/>
<text text-anchor="middle" x="448" y="-181.5" font-family="Helvetica,sans-Serif" font-size="10.00">Core/Math/LinearAlgebra.inl</text>
</a>
</g>
</g>
<!-- Node21&#45;&gt;Node30 -->
<g id="edge37" class="edge"><title>Node21&#45;&gt;Node30</title>
<path fill="none" stroke="midnightblue" d="M588.503,-236.403C560.371,-226.111 513.071,-208.806 481.211,-197.15"/>
<polygon fill="midnightblue" stroke="midnightblue" points="482.047,-193.73 471.454,-193.581 479.642,-200.303 482.047,-193.73"/>
</g>
<!-- Node26&#45;&gt;Node15 -->
<g id="edge32" class="edge"><title>Node26&#45;&gt;Node15</title>
<path fill="none" stroke="midnightblue" d="M307.903,-174.464C317.401,-172.339 327.571,-170.076 337,-168 391.002,-156.114 452.951,-142.745 495.1,-133.69"/>
<polygon fill="midnightblue" stroke="midnightblue" points="496.064,-137.063 505.106,-131.542 494.595,-130.219 496.064,-137.063"/>
</g>
<!-- Node27 -->
<g id="node27" class="node"><title>Node27</title>
<polygon fill="white" stroke="#bfbfbf" points="297,-112.5 297,-131.5 353,-131.5 353,-112.5 297,-112.5"/>
<text text-anchor="middle" x="325" y="-119.5" font-family="Helvetica,sans-Serif" font-size="10.00">algorithm</text>
</g>
<!-- Node26&#45;&gt;Node27 -->
<g id="edge33" class="edge"><title>Node26&#45;&gt;Node27</title>
<path fill="none" stroke="midnightblue" d="M277.88,-174.403C286.294,-165.225 299.819,-150.47 310.226,-139.117"/>
<polygon fill="midnightblue" stroke="midnightblue" points="312.957,-141.317 317.134,-131.581 307.797,-136.587 312.957,-141.317"/>
</g>
<!-- Node28 -->
<g id="node28" class="node"><title>Node28</title>
<polygon fill="white" stroke="#bfbfbf" points="371,-112.5 371,-131.5 415,-131.5 415,-112.5 371,-112.5"/>
<text text-anchor="middle" x="393" y="-119.5" font-family="Helvetica,sans-Serif" font-size="10.00">cmath</text>
</g>
<!-- Node26&#45;&gt;Node28 -->
<g id="edge34" class="edge"><title>Node26&#45;&gt;Node28</title>
<path fill="none" stroke="midnightblue" d="M287.623,-174.403C308.174,-164.379 342.364,-147.701 366.207,-136.07"/>
<polygon fill="midnightblue" stroke="midnightblue" points="367.957,-139.111 375.41,-131.581 364.888,-132.819 367.957,-139.111"/>
</g>
<!-- Node29 -->
<g id="node29" class="node"><title>Node29</title>
<g id="a_node29"><a xlink:href="Math_8inl.html" target="_top" xlink:title="Core/Math/Math.inl">
<polygon fill="white" stroke="black" points="179,-112.5 179,-131.5 279,-131.5 279,-112.5 179,-112.5"/>
<text text-anchor="middle" x="229" y="-119.5" font-family="Helvetica,sans-Serif" font-size="10.00">Core/Math/Math.inl</text>
</a>
</g>
</g>
<!-- Node26&#45;&gt;Node29 -->
<g id="edge35" class="edge"><title>Node26&#45;&gt;Node29</title>
<path fill="none" stroke="midnightblue" d="M259.225,-174.403C251.289,-165.582 241.308,-151.608 234.732,-140.455"/>
<polygon fill="midnightblue" stroke="midnightblue" points="237.781,-138.735 229.966,-131.581 231.614,-142.047 237.781,-138.735"/>
</g>
<!-- Node29&#45;&gt;Node26 -->
<g id="edge36" class="edge"><title>Node29&#45;&gt;Node26</title>
<path fill="none" stroke="midnightblue" d="M239.761,-131.581C247.694,-140.396 257.676,-154.369 264.256,-165.525"/>
<polygon fill="midnightblue" stroke="midnightblue" points="261.21,-167.251 269.026,-174.403 267.376,-163.938 261.21,-167.251"/>
</g>
<!-- Node31&#45;&gt;Node15 -->
<g id="edge40" class="edge"><title>Node31&#45;&gt;Node15</title>
<path fill="none" stroke="midnightblue" d="M756.056,-292.46C826.48,-276.544 967.72,-240.287 996,-200 1004.17,-188.36 1005.54,-178.544 996,-168 969.986,-139.261 716.804,-128.103 601.587,-124.488"/>
<polygon fill="midnightblue" stroke="midnightblue" points="601.644,-120.988 591.542,-124.181 601.43,-127.985 601.644,-120.988"/>
</g>
<!-- Node31&#45;&gt;Node21 -->
<g id="edge39" class="edge"><title>Node31&#45;&gt;Node21</title>
<path fill="none" stroke="midnightblue" d="M699.291,-292.324C682.688,-283.703 656.998,-270.364 637.78,-260.386"/>
<polygon fill="midnightblue" stroke="midnightblue" points="639.156,-257.156 628.668,-255.655 635.93,-263.369 639.156,-257.156"/>
</g>
<!-- Node31&#45;&gt;Node23 -->
<g id="edge41" class="edge"><title>Node31&#45;&gt;Node23</title>
<path fill="none" stroke="midnightblue" d="M732.765,-292.47C772.212,-272.401 871.11,-222.084 918.242,-198.105"/>
<polygon fill="midnightblue" stroke="midnightblue" points="919.884,-201.196 927.21,-193.542 916.71,-194.957 919.884,-201.196"/>
</g>
<!-- Node32&#45;&gt;Node16 -->
<g id="edge43" class="edge"><title>Node32&#45;&gt;Node16</title>
<path fill="none" stroke="midnightblue" d="M865.747,-311.581C860.036,-320.841 847.953,-335.793 837.201,-347.193"/>
<polygon fill="midnightblue" stroke="midnightblue" points="834.611,-344.834 830.064,-354.403 839.586,-349.758 834.611,-344.834"/>
</g>
<!-- Node33&#45;&gt;Node1 -->
<g id="edge45" class="edge"><title>Node33&#45;&gt;Node1</title>
<path fill="none" stroke="midnightblue" d="M590.618,-379.07C565.465,-388.673 529.909,-401.731 497.115,-413.463"/>
<polygon fill="midnightblue" stroke="midnightblue" points="495.739,-410.237 487.496,-416.894 498.091,-416.831 495.739,-410.237"/>
</g>
<!-- Node34 -->
<g id="node34" class="node"><title>Node34</title>
<g id="a_node34"><a xlink:href="StdUtils_8hpp.html" target="_top" xlink:title="Core/Utils/StdUtils.hpp">
<polygon fill="white" stroke="black" points="292,-236.5 292,-255.5 410,-255.5 410,-236.5 292,-236.5"/>
<text text-anchor="middle" x="351" y="-243.5" font-family="Helvetica,sans-Serif" font-size="10.00">Core/Utils/StdUtils.hpp</text>
</a>
</g>
</g>
<!-- Node33&#45;&gt;Node34 -->
<g id="edge46" class="edge"><title>Node33&#45;&gt;Node34</title>
<path fill="none" stroke="midnightblue" d="M590.798,-348.892C536.999,-326.033 431.644,-281.267 380.397,-259.491"/>
<polygon fill="midnightblue" stroke="midnightblue" points="381.763,-256.269 371.191,-255.579 379.026,-262.711 381.763,-256.269"/>
</g>
<!-- Node34&#45;&gt;Node9 -->
<g id="edge48" class="edge"><title>Node34&#45;&gt;Node9</title>
<path fill="none" stroke="midnightblue" d="M322.067,-236.473C293.057,-227.788 247.191,-213.688 208,-200 205.455,-199.111 202.828,-198.164 200.195,-197.195"/>
<polygon fill="midnightblue" stroke="midnightblue" points="201.368,-193.897 190.776,-193.65 198.902,-200.449 201.368,-193.897"/>
</g>
<!-- Node34&#45;&gt;Node15 -->
<g id="edge47" class="edge"><title>Node34&#45;&gt;Node15</title>
<path fill="none" stroke="midnightblue" d="M350.481,-236.491C350.012,-220.705 351.398,-186.785 370,-168 386.571,-151.266 443.902,-138.682 488.48,-131.136"/>
<polygon fill="midnightblue" stroke="midnightblue" points="489.054,-134.589 498.353,-129.511 487.917,-127.682 489.054,-134.589"/>
</g>
</g>
</svg>
