<?xml version="1.0" encoding="UTF-8" standalone="no"?>
<!DOCTYPE svg PUBLIC "-//W3C//DTD SVG 1.1//EN"
 "http://www.w3.org/Graphics/SVG/1.1/DTD/svg11.dtd">
<!-- Generated by graphviz version 2.36.0 (20140111.2315)
 -->
<!-- Title: /home/travis/build/STORM&#45;IRIT/Radium&#45;Engine/src/Engine/Component/Component.hpp Pages: 1 -->
<svg width="1153pt" height="398pt"
 viewBox="0.00 0.00 1153.00 398.00" xmlns="http://www.w3.org/2000/svg" xmlns:xlink="http://www.w3.org/1999/xlink">
<g id="graph0" class="graph" transform="scale(1 1) rotate(0) translate(4 394)">
<title>/home/travis/build/STORM&#45;IRIT/Radium&#45;Engine/src/Engine/Component/Component.hpp</title>
<polygon fill="white" stroke="none" points="-4,4 -4,-394 1149,-394 1149,4 -4,4"/>
<!-- Node1 -->
<g id="node1" class="node"><title>Node1</title>
<polygon fill="#bfbfbf" stroke="black" points="323.5,-348.5 323.5,-389.5 514.5,-389.5 514.5,-348.5 323.5,-348.5"/>
<text text-anchor="start" x="331.5" y="-377.5" font-family="Helvetica,sans-Serif" font-size="10.00">/home/travis/build</text>
<text text-anchor="start" x="331.5" y="-366.5" font-family="Helvetica,sans-Serif" font-size="10.00">/STORM&#45;IRIT/Radium&#45;Engine</text>
<text text-anchor="middle" x="419" y="-355.5" font-family="Helvetica,sans-Serif" font-size="10.00">/src/Engine/Component/Component.hpp</text>
</g>
<!-- Node2 -->
<g id="node2" class="node"><title>Node2</title>
<g id="a_node2"><a xlink:href="RaEngine_8hpp.html" target="_top" xlink:title="Engine/RaEngine.hpp">
<polygon fill="white" stroke="black" points="-0.5,-236.5 -0.5,-255.5 110.5,-255.5 110.5,-236.5 -0.5,-236.5"/>
<text text-anchor="middle" x="55" y="-243.5" font-family="Helvetica,sans-Serif" font-size="10.00">Engine/RaEngine.hpp</text>
</a>
</g>
</g>
<!-- Node1&#45;&gt;Node2 -->
<g id="edge1" class="edge"><title>Node1&#45;&gt;Node2</title>
<path fill="none" stroke="midnightblue" d="M323.446,-356.816C271.59,-348.56 207.195,-334.695 153,-312 122.762,-299.338 91.9016,-276.988 73.0956,-262.084"/>
<polygon fill="midnightblue" stroke="midnightblue" points="75.0942,-259.199 65.118,-255.632 70.6922,-264.642 75.0942,-259.199"/>
</g>
<!-- Node9 -->
<g id="node9" class="node"><title>Node9</title>
<g id="a_node9"><a xlink:href="IndexedObject_8hpp.html" target="_top" xlink:title="Core/Index/IndexedObject.hpp">
<polygon fill="white" stroke="black" points="162.5,-292.5 162.5,-311.5 311.5,-311.5 311.5,-292.5 162.5,-292.5"/>
<text text-anchor="middle" x="237" y="-299.5" font-family="Helvetica,sans-Serif" font-size="10.00">Core/Index/IndexedObject.hpp</text>
</a>
</g>
</g>
<!-- Node1&#45;&gt;Node9 -->
<g id="edge8" class="edge"><title>Node1&#45;&gt;Node9</title>
<path fill="none" stroke="midnightblue" d="M364.394,-348.498C333.941,-337.622 296.978,-324.421 270.727,-315.045"/>
<polygon fill="midnightblue" stroke="midnightblue" points="271.822,-311.72 261.227,-311.652 269.467,-318.312 271.822,-311.72"/>
</g>
<!-- Node14 -->
<g id="node14" class="node"><title>Node14</title>
<g id="a_node14"><a xlink:href="LinearAlgebra_8hpp.html" target="_top" xlink:title="Core/Math/LinearAlgebra.hpp">
<polygon fill="white" stroke="black" points="530.5,-236.5 530.5,-255.5 673.5,-255.5 673.5,-236.5 530.5,-236.5"/>
<text text-anchor="middle" x="602" y="-243.5" font-family="Helvetica,sans-Serif" font-size="10.00">Core/Math/LinearAlgebra.hpp</text>
</a>
</g>
</g>
<!-- Node1&#45;&gt;Node14 -->
<g id="edge14" class="edge"><title>Node1&#45;&gt;Node14</title>
<path fill="none" stroke="midnightblue" d="M429.934,-348.297C440.301,-331.252 457.34,-307.044 478,-292 499.788,-276.134 527.749,-265.346 551.603,-258.319"/>
<polygon fill="midnightblue" stroke="midnightblue" points="552.86,-261.602 561.545,-255.535 550.972,-254.862 552.86,-261.602"/>
</g>
<!-- Node25 -->
<g id="node25" class="node"><title>Node25</title>
<g id="a_node25"><a xlink:href="Ray_8hpp.html" target="_top" xlink:title="Core/Math/Ray.hpp">
<polygon fill="white" stroke="black" points="329,-292.5 329,-311.5 431,-311.5 431,-292.5 329,-292.5"/>
<text text-anchor="middle" x="380" y="-299.5" font-family="Helvetica,sans-Serif" font-size="10.00">Core/Math/Ray.hpp</text>
</a>
</g>
</g>
<!-- Node1&#45;&gt;Node25 -->
<g id="edge28" class="edge"><title>Node1&#45;&gt;Node25</title>
<path fill="none" stroke="midnightblue" d="M407.299,-348.498C401.952,-339.586 395.668,-329.113 390.478,-320.464"/>
<polygon fill="midnightblue" stroke="midnightblue" points="393.338,-318.427 385.191,-311.652 387.335,-322.028 393.338,-318.427"/>
</g>
<!-- Node26 -->
<g id="node26" class="node"><title>Node26</title>
<g id="a_node26"><a xlink:href="Component_8inl.html" target="_top" xlink:title="Engine/Component/Component.inl">
<polygon fill="white" stroke="black" points="487,-292.5 487,-311.5 653,-311.5 653,-292.5 487,-292.5"/>
<text text-anchor="middle" x="570" y="-299.5" font-family="Helvetica,sans-Serif" font-size="10.00">Engine/Component/Component.inl</text>
</a>
</g>
</g>
<!-- Node1&#45;&gt;Node26 -->
<g id="edge32" class="edge"><title>Node1&#45;&gt;Node26</title>
<path fill="none" stroke="midnightblue" d="M458.06,-348.498C482.113,-337.766 512.573,-324.769 535.708,-315.419"/>
<polygon fill="midnightblue" stroke="midnightblue" points="537.148,-318.613 545.135,-311.652 534.55,-312.113 537.148,-318.613"/>
</g>
<!-- Node3 -->
<g id="node3" class="node"><title>Node3</title>
<g id="a_node3"><a xlink:href="CoreMacros_8hpp.html" target="_top" xlink:title="Core/CoreMacros.hpp">
<polygon fill="white" stroke="black" points="123.5,-56.5 123.5,-75.5 236.5,-75.5 236.5,-56.5 123.5,-56.5"/>
<text text-anchor="middle" x="180" y="-63.5" font-family="Helvetica,sans-Serif" font-size="10.00">Core/CoreMacros.hpp</text>
</a>
</g>
</g>
<!-- Node2&#45;&gt;Node3 -->
<g id="edge2" class="edge"><title>Node2&#45;&gt;Node3</title>
<path fill="none" stroke="midnightblue" d="M55.1148,-236.318C55.6644,-221.4 58.3756,-190.35 71,-168 92.2448,-130.389 132.328,-98.7707 157.518,-81.3957"/>
<polygon fill="midnightblue" stroke="midnightblue" points="159.715,-84.1366 166.063,-75.654 155.811,-78.3265 159.715,-84.1366"/>
</g>
<!-- Node4 -->
<g id="node4" class="node"><title>Node4</title>
<polygon fill="white" stroke="#bfbfbf" points="24.5,-0.5 24.5,-19.5 73.5,-19.5 73.5,-0.5 24.5,-0.5"/>
<text text-anchor="middle" x="49" y="-7.5" font-family="Helvetica,sans-Serif" font-size="10.00">cassert</text>
</g>
<!-- Node3&#45;&gt;Node4 -->
<g id="edge3" class="edge"><title>Node3&#45;&gt;Node4</title>
<path fill="none" stroke="midnightblue" d="M159.243,-56.4435C137.684,-47.5566 103.737,-33.5632 79.2062,-23.4514"/>
<polygon fill="midnightblue" stroke="midnightblue" points="80.2394,-20.0917 69.6602,-19.5164 77.5717,-26.5634 80.2394,-20.0917"/>
</g>
<!-- Node5 -->
<g id="node5" class="node"><title>Node5</title>
<polygon fill="white" stroke="#bfbfbf" points="91.5,-0.5 91.5,-19.5 134.5,-19.5 134.5,-0.5 91.5,-0.5"/>
<text text-anchor="middle" x="113" y="-7.5" font-family="Helvetica,sans-Serif" font-size="10.00">cstdio</text>
</g>
<!-- Node3&#45;&gt;Node5 -->
<g id="edge4" class="edge"><title>Node3&#45;&gt;Node5</title>
<path fill="none" stroke="midnightblue" d="M169.235,-56.324C159.234,-48.2631 144.113,-36.0765 132.07,-26.3695"/>
<polygon fill="midnightblue" stroke="midnightblue" points="133.943,-23.3841 123.961,-19.8339 129.55,-28.8343 133.943,-23.3841"/>
</g>
<!-- Node6 -->
<g id="node6" class="node"><title>Node6</title>
<polygon fill="white" stroke="#bfbfbf" points="153,-0.5 153,-19.5 207,-19.5 207,-0.5 153,-0.5"/>
<text text-anchor="middle" x="180" y="-7.5" font-family="Helvetica,sans-Serif" font-size="10.00">iostream</text>
</g>
<!-- Node3&#45;&gt;Node6 -->
<g id="edge5" class="edge"><title>Node3&#45;&gt;Node6</title>
<path fill="none" stroke="midnightblue" d="M180,-56.083C180,-49.0059 180,-38.8611 180,-29.9865"/>
<polygon fill="midnightblue" stroke="midnightblue" points="183.5,-29.751 180,-19.7511 176.5,-29.7511 183.5,-29.751"/>
</g>
<!-- Node7 -->
<g id="node7" class="node"><title>Node7</title>
<polygon fill="white" stroke="#bfbfbf" points="225,-0.5 225,-19.5 277,-19.5 277,-0.5 225,-0.5"/>
<text text-anchor="middle" x="251" y="-7.5" font-family="Helvetica,sans-Serif" font-size="10.00">sstream</text>
</g>
<!-- Node3&#45;&gt;Node7 -->
<g id="edge6" class="edge"><title>Node3&#45;&gt;Node7</title>
<path fill="none" stroke="midnightblue" d="M191.407,-56.324C202.109,-48.1849 218.341,-35.8395 231.163,-26.0874"/>
<polygon fill="midnightblue" stroke="midnightblue" points="233.544,-28.6734 239.385,-19.8339 229.307,-23.1018 233.544,-28.6734"/>
</g>
<!-- Node8 -->
<g id="node8" class="node"><title>Node8</title>
<polygon fill="white" stroke="#bfbfbf" points="295,-0.5 295,-19.5 339,-19.5 339,-0.5 295,-0.5"/>
<text text-anchor="middle" x="317" y="-7.5" font-family="Helvetica,sans-Serif" font-size="10.00">thread</text>
</g>
<!-- Node3&#45;&gt;Node8 -->
<g id="edge7" class="edge"><title>Node3&#45;&gt;Node8</title>
<path fill="none" stroke="midnightblue" d="M201.708,-56.4435C224.355,-47.5171 260.072,-33.4387 285.752,-23.3168"/>
<polygon fill="midnightblue" stroke="midnightblue" points="287.374,-26.4397 295.394,-19.5164 284.807,-19.9273 287.374,-26.4397"/>
</g>
<!-- Node10 -->
<g id="node10" class="node"><title>Node10</title>
<g id="a_node10"><a xlink:href="Index_8hpp.html" target="_top" xlink:title="Core/Index/Index.hpp">
<polygon fill="white" stroke="black" points="132,-236.5 132,-255.5 242,-255.5 242,-236.5 132,-236.5"/>
<text text-anchor="middle" x="187" y="-243.5" font-family="Helvetica,sans-Serif" font-size="10.00">Core/Index/Index.hpp</text>
</a>
</g>
</g>
<!-- Node9&#45;&gt;Node10 -->
<g id="edge9" class="edge"><title>Node9&#45;&gt;Node10</title>
<path fill="none" stroke="midnightblue" d="M228.744,-292.083C221.535,-284.298 210.89,-272.801 202.154,-263.367"/>
<polygon fill="midnightblue" stroke="midnightblue" points="204.465,-260.711 195.103,-255.751 199.329,-265.467 204.465,-260.711"/>
</g>
<!-- Node13 -->
<g id="node13" class="node"><title>Node13</title>
<g id="a_node13"><a xlink:href="RaCore_8hpp.html" target="_top" xlink:title="Core/RaCore.hpp">
<polygon fill="white" stroke="black" points="261.5,-112.5 261.5,-131.5 354.5,-131.5 354.5,-112.5 261.5,-112.5"/>
<text text-anchor="middle" x="308" y="-119.5" font-family="Helvetica,sans-Serif" font-size="10.00">Core/RaCore.hpp</text>
</a>
</g>
</g>
<!-- Node9&#45;&gt;Node13 -->
<g id="edge12" class="edge"><title>Node9&#45;&gt;Node13</title>
<path fill="none" stroke="midnightblue" d="M240.424,-292.415C251.363,-264.992 285.624,-179.099 300.726,-141.236"/>
<polygon fill="midnightblue" stroke="midnightblue" points="303.989,-142.504 304.443,-131.918 297.487,-139.91 303.989,-142.504"/>
</g>
<!-- Node11 -->
<g id="node11" class="node"><title>Node11</title>
<polygon fill="white" stroke="#bfbfbf" points="80,-174.5 80,-193.5 120,-193.5 120,-174.5 80,-174.5"/>
<text text-anchor="middle" x="100" y="-181.5" font-family="Helvetica,sans-Serif" font-size="10.00">limits</text>
</g>
<!-- Node10&#45;&gt;Node11 -->
<g id="edge10" class="edge"><title>Node10&#45;&gt;Node11</title>
<path fill="none" stroke="midnightblue" d="M174.535,-236.403C160.581,-226.78 137.735,-211.024 121.009,-199.489"/>
<polygon fill="midnightblue" stroke="midnightblue" points="122.661,-196.377 112.442,-193.581 118.687,-202.139 122.661,-196.377"/>
</g>
<!-- Node12 -->
<g id="node12" class="node"><title>Node12</title>
<g id="a_node12"><a xlink:href="Index_8inl.html" target="_top" xlink:title="Core/Index/Index.inl">
<polygon fill="white" stroke="black" points="138,-174.5 138,-193.5 242,-193.5 242,-174.5 138,-174.5"/>
<text text-anchor="middle" x="190" y="-181.5" font-family="Helvetica,sans-Serif" font-size="10.00">Core/Index/Index.inl</text>
</a>
</g>
</g>
<!-- Node10&#45;&gt;Node12 -->
<g id="edge11" class="edge"><title>Node10&#45;&gt;Node12</title>
<path fill="none" stroke="midnightblue" d="M187.43,-236.403C187.853,-227.938 188.514,-214.728 189.059,-203.82"/>
<polygon fill="midnightblue" stroke="midnightblue" points="192.567,-203.743 189.571,-193.581 185.576,-203.393 192.567,-203.743"/>
</g>
<!-- Node13&#45;&gt;Node3 -->
<g id="edge13" class="edge"><title>Node13&#45;&gt;Node3</title>
<path fill="none" stroke="midnightblue" d="M287.718,-112.444C266.653,-103.557 233.483,-89.5632 209.514,-79.4514"/>
<polygon fill="midnightblue" stroke="midnightblue" points="210.761,-76.1787 200.187,-75.5164 208.04,-82.6283 210.761,-76.1787"/>
</g>
<!-- Node14&#45;&gt;Node13 -->
<g id="edge15" class="edge"><title>Node14&#45;&gt;Node13</title>
<path fill="none" stroke="midnightblue" d="M566.364,-236.463C539.17,-229.088 501.344,-216.933 471,-200 451.421,-189.074 451.484,-179.094 432,-168 406.375,-153.409 375.158,-142.112 350.457,-134.486"/>
<polygon fill="midnightblue" stroke="midnightblue" points="351.234,-131.065 340.65,-131.544 349.222,-137.77 351.234,-131.065"/>
</g>
<!-- Node15 -->
<g id="node15" class="node"><title>Node15</title>
<polygon fill="white" stroke="#bfbfbf" points="910.5,-174.5 910.5,-193.5 975.5,-193.5 975.5,-174.5 910.5,-174.5"/>
<text text-anchor="middle" x="943" y="-181.5" font-family="Helvetica,sans-Serif" font-size="10.00">Eigen/Core</text>
</g>
<!-- Node14&#45;&gt;Node15 -->
<g id="edge16" class="edge"><title>Node14&#45;&gt;Node15</title>
<path fill="none" stroke="midnightblue" d="M673.753,-238.148C734.807,-231.383 824.506,-219.223 901,-200 904.59,-199.098 908.305,-198.009 911.971,-196.836"/>
<polygon fill="midnightblue" stroke="midnightblue" points="913.116,-200.143 921.448,-193.599 910.854,-193.519 913.116,-200.143"/>
</g>
<!-- Node16 -->
<g id="node16" class="node"><title>Node16</title>
<polygon fill="white" stroke="#bfbfbf" points="336.5,-174.5 336.5,-193.5 423.5,-193.5 423.5,-174.5 336.5,-174.5"/>
<text text-anchor="middle" x="380" y="-181.5" font-family="Helvetica,sans-Serif" font-size="10.00">Eigen/Geometry</text>
</g>
<!-- Node14&#45;&gt;Node16 -->
<g id="edge17" class="edge"><title>Node14&#45;&gt;Node16</title>
<path fill="none" stroke="midnightblue" d="M570.193,-236.403C531.123,-225.844 464.74,-207.903 421.639,-196.254"/>
<polygon fill="midnightblue" stroke="midnightblue" points="422.315,-192.811 411.748,-193.581 420.489,-199.569 422.315,-192.811"/>
</g>
<!-- Node17 -->
<g id="node17" class="node"><title>Node17</title>
<polygon fill="white" stroke="#bfbfbf" points="993.5,-174.5 993.5,-193.5 1068.5,-193.5 1068.5,-174.5 993.5,-174.5"/>
<text text-anchor="middle" x="1031" y="-181.5" font-family="Helvetica,sans-Serif" font-size="10.00">Eigen/Sparse</text>
</g>
<!-- Node14&#45;&gt;Node17 -->
<g id="edge18" class="edge"><title>Node14&#45;&gt;Node17</title>
<path fill="none" stroke="midnightblue" d="M673.782,-240.664C751.065,-235.042 877.288,-223.091 984,-200 988.453,-199.037 993.084,-197.826 997.627,-196.512"/>
<polygon fill="midnightblue" stroke="midnightblue" points="998.8,-199.814 1007.33,-193.529 996.743,-193.123 998.8,-199.814"/>
</g>
<!-- Node18 -->
<g id="node18" class="node"><title>Node18</title>
<polygon fill="white" stroke="#bfbfbf" points="1086.5,-174.5 1086.5,-193.5 1145.5,-193.5 1145.5,-174.5 1086.5,-174.5"/>
<text text-anchor="middle" x="1116" y="-181.5" font-family="Helvetica,sans-Serif" font-size="10.00">functional</text>
</g>
<!-- Node14&#45;&gt;Node18 -->
<g id="edge19" class="edge"><title>Node14&#45;&gt;Node18</title>
<path fill="none" stroke="midnightblue" d="M673.797,-244.256C767.676,-241.912 936.69,-232.973 1077,-200 1080.42,-199.196 1083.95,-198.158 1087.41,-197.005"/>
<polygon fill="midnightblue" stroke="midnightblue" points="1088.7,-200.262 1096.89,-193.544 1086.29,-193.687 1088.7,-200.262"/>
</g>
<!-- Node19 -->
<g id="node19" class="node"><title>Node19</title>
<polygon fill="white" stroke="#bfbfbf" points="604.5,-169 604.5,-199 737.5,-199 737.5,-169 604.5,-169"/>
<text text-anchor="start" x="612.5" y="-187" font-family="Helvetica,sans-Serif" font-size="10.00">unsupported/Eigen/Aligned</text>
<text text-anchor="middle" x="671" y="-176" font-family="Helvetica,sans-Serif" font-size="10.00">Vector3</text>
</g>
<!-- Node14&#45;&gt;Node19 -->
<g id="edge20" class="edge"><title>Node14&#45;&gt;Node19</title>
<path fill="none" stroke="midnightblue" d="M611.886,-236.403C621.056,-228.429 635.068,-216.245 647.149,-205.74"/>
<polygon fill="midnightblue" stroke="midnightblue" points="649.489,-208.344 654.738,-199.141 644.895,-203.062 649.489,-208.344"/>
</g>
<!-- Node20 -->
<g id="node20" class="node"><title>Node20</title>
<g id="a_node20"><a xlink:href="Math_8hpp.html" target="_top" xlink:title="Core/Math/Math.hpp">
<polygon fill="white" stroke="black" points="480,-174.5 480,-193.5 586,-193.5 586,-174.5 480,-174.5"/>
<text text-anchor="middle" x="533" y="-181.5" font-family="Helvetica,sans-Serif" font-size="10.00">Core/Math/Math.hpp</text>
</a>
</g>
</g>
<!-- Node14&#45;&gt;Node20 -->
<g id="edge21" class="edge"><title>Node14&#45;&gt;Node20</title>
<path fill="none" stroke="midnightblue" d="M592.114,-236.403C581.354,-227.047 563.929,-211.895 550.779,-200.46"/>
<polygon fill="midnightblue" stroke="midnightblue" points="552.71,-197.501 542.868,-193.581 548.117,-202.784 552.71,-197.501"/>
</g>
<!-- Node24 -->
<g id="node24" class="node"><title>Node24</title>
<g id="a_node24"><a xlink:href="LinearAlgebra_8inl.html" target="_top" xlink:title="Core/Math/LinearAlgebra.inl">
<polygon fill="white" stroke="black" points="755.5,-174.5 755.5,-193.5 892.5,-193.5 892.5,-174.5 755.5,-174.5"/>
<text text-anchor="middle" x="824" y="-181.5" font-family="Helvetica,sans-Serif" font-size="10.00">Core/Math/LinearAlgebra.inl</text>
</a>
</g>
</g>
<!-- Node14&#45;&gt;Node24 -->
<g id="edge27" class="edge"><title>Node14&#45;&gt;Node24</title>
<path fill="none" stroke="midnightblue" d="M633.807,-236.403C672.877,-225.844 739.26,-207.903 782.361,-196.254"/>
<polygon fill="midnightblue" stroke="midnightblue" points="783.511,-199.569 792.252,-193.581 781.685,-192.811 783.511,-199.569"/>
</g>
<!-- Node20&#45;&gt;Node13 -->
<g id="edge22" class="edge"><title>Node20&#45;&gt;Node13</title>
<path fill="none" stroke="midnightblue" d="M500.763,-174.403C461.081,-163.822 393.601,-145.827 349.926,-134.18"/>
<polygon fill="midnightblue" stroke="midnightblue" points="350.741,-130.775 340.177,-131.581 348.938,-137.539 350.741,-130.775"/>
</g>
<!-- Node21 -->
<g id="node21" class="node"><title>Node21</title>
<polygon fill="white" stroke="#bfbfbf" points="601,-112.5 601,-131.5 657,-131.5 657,-112.5 601,-112.5"/>
<text text-anchor="middle" x="629" y="-119.5" font-family="Helvetica,sans-Serif" font-size="10.00">algorithm</text>
</g>
<!-- Node20&#45;&gt;Node21 -->
<g id="edge23" class="edge"><title>Node20&#45;&gt;Node21</title>
<path fill="none" stroke="midnightblue" d="M546.754,-174.403C562.366,-164.646 588.063,-148.585 606.583,-137.011"/>
<polygon fill="midnightblue" stroke="midnightblue" points="608.646,-139.849 615.271,-131.581 604.936,-133.913 608.646,-139.849"/>
</g>
<!-- Node22 -->
<g id="node22" class="node"><title>Node22</title>
<polygon fill="white" stroke="#bfbfbf" points="421,-112.5 421,-131.5 465,-131.5 465,-112.5 421,-112.5"/>
<text text-anchor="middle" x="443" y="-119.5" font-family="Helvetica,sans-Serif" font-size="10.00">cmath</text>
</g>
<!-- Node20&#45;&gt;Node22 -->
<g id="edge24" class="edge"><title>Node20&#45;&gt;Node22</title>
<path fill="none" stroke="midnightblue" d="M520.105,-174.403C505.536,-164.691 481.598,-148.732 464.255,-137.17"/>
<polygon fill="midnightblue" stroke="midnightblue" points="466.133,-134.215 455.871,-131.581 462.25,-140.04 466.133,-134.215"/>
</g>
<!-- Node23 -->
<g id="node23" class="node"><title>Node23</title>
<g id="a_node23"><a xlink:href="Math_8inl.html" target="_top" xlink:title="Core/Math/Math.inl">
<polygon fill="white" stroke="black" points="483,-112.5 483,-131.5 583,-131.5 583,-112.5 483,-112.5"/>
<text text-anchor="middle" x="533" y="-119.5" font-family="Helvetica,sans-Serif" font-size="10.00">Core/Math/Math.inl</text>
</a>
</g>
</g>
<!-- Node20&#45;&gt;Node23 -->
<g id="edge25" class="edge"><title>Node20&#45;&gt;Node23</title>
<path fill="none" stroke="midnightblue" d="M528.099,-174.403C526.268,-165.938 525.797,-152.728 526.685,-141.82"/>
<polygon fill="midnightblue" stroke="midnightblue" points="530.198,-141.966 528.103,-131.581 523.264,-141.006 530.198,-141.966"/>
</g>
<!-- Node23&#45;&gt;Node20 -->
<g id="edge26" class="edge"><title>Node23&#45;&gt;Node20</title>
<path fill="none" stroke="midnightblue" d="M537.897,-131.581C539.73,-140.04 540.203,-153.248 539.317,-164.16"/>
<polygon fill="midnightblue" stroke="midnightblue" points="535.803,-164.018 537.901,-174.403 542.737,-164.977 535.803,-164.018"/>
</g>
<!-- Node25&#45;&gt;Node13 -->
<g id="edge30" class="edge"><title>Node25&#45;&gt;Node13</title>
<path fill="none" stroke="midnightblue" d="M374.577,-292.418C364.037,-275.4 340.626,-235.919 327,-200 319.69,-180.732 314.433,-157.674 311.327,-141.844"/>
<polygon fill="midnightblue" stroke="midnightblue" points="314.72,-140.942 309.447,-131.752 307.838,-142.224 314.72,-140.942"/>
</g>
<!-- Node25&#45;&gt;Node14 -->
<g id="edge29" class="edge"><title>Node25&#45;&gt;Node14</title>
<path fill="none" stroke="midnightblue" d="M415.177,-292.444C453.579,-283.102 515.176,-268.119 557.055,-257.933"/>
<polygon fill="midnightblue" stroke="midnightblue" points="558.099,-261.281 566.988,-255.516 556.444,-254.479 558.099,-261.281"/>
</g>
<!-- Node25&#45;&gt;Node16 -->
<g id="edge31" class="edge"><title>Node25&#45;&gt;Node16</title>
<path fill="none" stroke="midnightblue" d="M380,-292.281C380,-273.547 380,-229.098 380,-203.682"/>
<polygon fill="midnightblue" stroke="midnightblue" points="383.5,-203.505 380,-193.505 376.5,-203.505 383.5,-203.505"/>
</g>
<!-- Node26&#45;&gt;Node1 -->
<g id="edge33" class="edge"><title>Node26&#45;&gt;Node1</title>
<path fill="none" stroke="midnightblue" d="M554.664,-311.652C537,-320.023 507.235,-333.087 480.039,-344.529"/>
<polygon fill="midnightblue" stroke="midnightblue" points="478.425,-341.41 470.55,-348.498 481.126,-347.868 478.425,-341.41"/>
</g>
</g>
</svg>
