<?xml version="1.0" encoding="UTF-8" standalone="no"?>
<!DOCTYPE svg PUBLIC "-//W3C//DTD SVG 1.1//EN"
 "http://www.w3.org/Graphics/SVG/1.1/DTD/svg11.dtd">
<!-- Generated by graphviz version 2.36.0 (20140111.2315)
 -->
<!-- Title: /home/travis/build/STORM&#45;IRIT/Radium&#45;Engine/src/Engine/Managers/ComponentMessenger/ComponentMessenger.inl Pages: 1 -->
<svg width="2362pt" height="410pt"
 viewBox="0.00 0.00 2362.00 410.00" xmlns="http://www.w3.org/2000/svg" xmlns:xlink="http://www.w3.org/1999/xlink">
<g id="graph0" class="graph" transform="scale(1 1) rotate(0) translate(4 406)">
<title>/home/travis/build/STORM&#45;IRIT/Radium&#45;Engine/src/Engine/Managers/ComponentMessenger/ComponentMessenger.inl</title>
<polygon fill="white" stroke="none" points="-4,4 -4,-406 2358,-406 2358,4 -4,4"/>
<!-- Node1 -->
<g id="node1" class="node"><title>Node1</title>
<polygon fill="#bfbfbf" stroke="black" points="1143.5,-349 1143.5,-401 1356.5,-401 1356.5,-349 1143.5,-349"/>
<text text-anchor="start" x="1151.5" y="-389" font-family="Helvetica,sans-Serif" font-size="10.00">/home/travis/build</text>
<text text-anchor="start" x="1151.5" y="-378" font-family="Helvetica,sans-Serif" font-size="10.00">/STORM&#45;IRIT/Radium&#45;Engine</text>
<text text-anchor="start" x="1151.5" y="-367" font-family="Helvetica,sans-Serif" font-size="10.00">/src/Engine/Managers/ComponentMessenger</text>
<text text-anchor="middle" x="1250" y="-356" font-family="Helvetica,sans-Serif" font-size="10.00">/ComponentMessenger.inl</text>
</g>
<!-- Node2 -->
<g id="node2" class="node"><title>Node2</title>
<g id="a_node2"><a xlink:href="ComponentMessenger_8hpp.html" target="_top" xlink:title="/home/travis/build\l/STORM&#45;IRIT/Radium&#45;Engine\l/src/Engine/Managers/ComponentMessenger\l/ComponentMessenger.hpp">
<polygon fill="white" stroke="black" points="1143.5,-259 1143.5,-311 1356.5,-311 1356.5,-259 1143.5,-259"/>
<text text-anchor="start" x="1151.5" y="-299" font-family="Helvetica,sans-Serif" font-size="10.00">/home/travis/build</text>
<text text-anchor="start" x="1151.5" y="-288" font-family="Helvetica,sans-Serif" font-size="10.00">/STORM&#45;IRIT/Radium&#45;Engine</text>
<text text-anchor="start" x="1151.5" y="-277" font-family="Helvetica,sans-Serif" font-size="10.00">/src/Engine/Managers/ComponentMessenger</text>
<text text-anchor="middle" x="1250" y="-266" font-family="Helvetica,sans-Serif" font-size="10.00">/ComponentMessenger.hpp</text>
</a>
</g>
</g>
<!-- Node1&#45;&gt;Node2 -->
<g id="edge1" class="edge"><title>Node1&#45;&gt;Node2</title>
<path fill="none" stroke="midnightblue" d="M1243.36,-338.489C1243.12,-329.309 1243.27,-319.616 1243.84,-311.092"/>
<polygon fill="midnightblue" stroke="midnightblue" points="1239.87,-338.714 1243.81,-348.547 1246.86,-338.4 1239.87,-338.714"/>
</g>
<!-- Node2&#45;&gt;Node1 -->
<g id="edge5" class="edge"><title>Node2&#45;&gt;Node1</title>
<path fill="none" stroke="midnightblue" d="M1256.63,-321.123C1256.88,-330.289 1256.74,-339.99 1256.19,-348.547"/>
<polygon fill="midnightblue" stroke="midnightblue" points="1260.12,-320.92 1256.16,-311.092 1253.13,-321.243 1260.12,-320.92"/>
</g>
<!-- Node3 -->
<g id="node3" class="node"><title>Node3</title>
<g id="a_node3"><a xlink:href="GeometryComponent_8cpp.html" target="_top" xlink:title="/home/travis/build\l/STORM&#45;IRIT/Radium&#45;Engine\l/src/Engine/Component/GeometryComponent.cpp">
<polygon fill="white" stroke="black" points="0,-174.5 0,-215.5 234,-215.5 234,-174.5 0,-174.5"/>
<text text-anchor="start" x="8" y="-203.5" font-family="Helvetica,sans-Serif" font-size="10.00">/home/travis/build</text>
<text text-anchor="start" x="8" y="-192.5" font-family="Helvetica,sans-Serif" font-size="10.00">/STORM&#45;IRIT/Radium&#45;Engine</text>
<text text-anchor="middle" x="117" y="-181.5" font-family="Helvetica,sans-Serif" font-size="10.00">/src/Engine/Component/GeometryComponent.cpp</text>
</a>
</g>
</g>
<!-- Node2&#45;&gt;Node3 -->
<g id="edge2" class="edge"><title>Node2&#45;&gt;Node3</title>
<path fill="none" stroke="midnightblue" d="M1133.25,-282.116C945.227,-277.891 564.015,-264.405 244,-222 231.06,-220.285 217.464,-218.013 204.174,-215.524"/>
<polygon fill="midnightblue" stroke="midnightblue" points="1133.36,-285.619 1143.43,-282.34 1133.51,-278.621 1133.36,-285.619"/>
</g>
<!-- Node4 -->
<g id="node4" class="node"><title>Node4</title>
<g id="a_node4"><a xlink:href="CameraManager_8cpp.html" target="_top" xlink:title="/home/travis/build\l/STORM&#45;IRIT/Radium&#45;Engine\l/src/Engine/Managers/CameraManager\l/CameraManager.cpp">
<polygon fill="white" stroke="black" points="252.5,-169 252.5,-221 439.5,-221 439.5,-169 252.5,-169"/>
<text text-anchor="start" x="260.5" y="-209" font-family="Helvetica,sans-Serif" font-size="10.00">/home/travis/build</text>
<text text-anchor="start" x="260.5" y="-198" font-family="Helvetica,sans-Serif" font-size="10.00">/STORM&#45;IRIT/Radium&#45;Engine</text>
<text text-anchor="start" x="260.5" y="-187" font-family="Helvetica,sans-Serif" font-size="10.00">/src/Engine/Managers/CameraManager</text>
<text text-anchor="middle" x="346" y="-176" font-family="Helvetica,sans-Serif" font-size="10.00">/CameraManager.cpp</text>
</a>
</g>
</g>
<!-- Node2&#45;&gt;Node4 -->
<g id="edge3" class="edge"><title>Node2&#45;&gt;Node4</title>
<path fill="none" stroke="midnightblue" d="M1133.26,-281.174C976.644,-275.971 690.262,-261.493 449,-222 445.906,-221.494 442.769,-220.94 439.607,-220.347"/>
<polygon fill="midnightblue" stroke="midnightblue" points="1133.28,-284.677 1143.39,-281.504 1133.51,-277.68 1133.28,-284.677"/>
</g>
<!-- Node5 -->
<g id="node5" class="node"><title>Node5</title>
<g id="a_node5"><a xlink:href="ComponentMessenger_8cpp.html" target="_top" xlink:title="/home/travis/build\l/STORM&#45;IRIT/Radium&#45;Engine\l/src/Engine/Managers/ComponentMessenger\l/ComponentMessenger.cpp">
<polygon fill="white" stroke="black" points="457.5,-169 457.5,-221 670.5,-221 670.5,-169 457.5,-169"/>
<text text-anchor="start" x="465.5" y="-209" font-family="Helvetica,sans-Serif" font-size="10.00">/home/travis/build</text>
<text text-anchor="start" x="465.5" y="-198" font-family="Helvetica,sans-Serif" font-size="10.00">/STORM&#45;IRIT/Radium&#45;Engine</text>
<text text-anchor="start" x="465.5" y="-187" font-family="Helvetica,sans-Serif" font-size="10.00">/src/Engine/Managers/ComponentMessenger</text>
<text text-anchor="middle" x="564" y="-176" font-family="Helvetica,sans-Serif" font-size="10.00">/ComponentMessenger.cpp</text>
</a>
</g>
</g>
<!-- Node2&#45;&gt;Node5 -->
<g id="edge4" class="edge"><title>Node2&#45;&gt;Node5</title>
<path fill="none" stroke="midnightblue" d="M1133.13,-275.147C1017.54,-265.484 835.852,-247.859 680,-222 676.946,-221.493 673.852,-220.957 670.732,-220.395"/>
<polygon fill="midnightblue" stroke="midnightblue" points="1133.16,-278.661 1143.41,-276 1133.73,-271.685 1133.16,-278.661"/>
</g>
<!-- Node6 -->
<g id="node6" class="node"><title>Node6</title>
<g id="a_node6"><a xlink:href="LightManager_8cpp.html" target="_top" xlink:title="/home/travis/build\l/STORM&#45;IRIT/Radium&#45;Engine\l/src/Engine/Managers/LightManager\l/LightManager.cpp">
<polygon fill="white" stroke="black" points="688.5,-169 688.5,-221 861.5,-221 861.5,-169 688.5,-169"/>
<text text-anchor="start" x="696.5" y="-209" font-family="Helvetica,sans-Serif" font-size="10.00">/home/travis/build</text>
<text text-anchor="start" x="696.5" y="-198" font-family="Helvetica,sans-Serif" font-size="10.00">/STORM&#45;IRIT/Radium&#45;Engine</text>
<text text-anchor="start" x="696.5" y="-187" font-family="Helvetica,sans-Serif" font-size="10.00">/src/Engine/Managers/LightManager</text>
<text text-anchor="middle" x="775" y="-176" font-family="Helvetica,sans-Serif" font-size="10.00">/LightManager.cpp</text>
</a>
</g>
</g>
<!-- Node2&#45;&gt;Node6 -->
<g id="edge6" class="edge"><title>Node2&#45;&gt;Node6</title>
<path fill="none" stroke="midnightblue" d="M1133.28,-268.061C1058.04,-257.011 958.307,-240.912 871,-222 867.878,-221.324 864.706,-220.609 861.507,-219.866"/>
<polygon fill="midnightblue" stroke="midnightblue" points="1132.86,-271.537 1143.26,-269.519 1133.87,-264.611 1132.86,-271.537"/>
</g>
<!-- Node7 -->
<g id="node7" class="node"><title>Node7</title>
<g id="a_node7"><a xlink:href="RadiumEngine_8cpp.html" target="_top" xlink:title="/home/travis/build\l/STORM&#45;IRIT/Radium&#45;Engine\l/src/Engine/RadiumEngine.cpp">
<polygon fill="white" stroke="black" points="880,-174.5 880,-215.5 1032,-215.5 1032,-174.5 880,-174.5"/>
<text text-anchor="start" x="888" y="-203.5" font-family="Helvetica,sans-Serif" font-size="10.00">/home/travis/build</text>
<text text-anchor="start" x="888" y="-192.5" font-family="Helvetica,sans-Serif" font-size="10.00">/STORM&#45;IRIT/Radium&#45;Engine</text>
<text text-anchor="middle" x="956" y="-181.5" font-family="Helvetica,sans-Serif" font-size="10.00">/src/Engine/RadiumEngine.cpp</text>
</a>
</g>
</g>
<!-- Node2&#45;&gt;Node7 -->
<g id="edge7" class="edge"><title>Node2&#45;&gt;Node7</title>
<path fill="none" stroke="midnightblue" d="M1155.82,-256.01C1120.15,-245.39 1079.19,-233.166 1042,-222 1035.13,-219.937 1027.95,-217.776 1020.79,-215.619"/>
<polygon fill="midnightblue" stroke="midnightblue" points="1155.14,-259.462 1165.73,-258.961 1157.14,-252.753 1155.14,-259.462"/>
</g>
<!-- Node8 -->
<g id="node8" class="node"><title>Node8</title>
<g id="a_node8"><a xlink:href="GeometrySystem_8cpp.html" target="_top" xlink:title="/home/travis/build\l/STORM&#45;IRIT/Radium&#45;Engine\l/src/Engine/System/GeometrySystem.cpp">
<polygon fill="white" stroke="black" points="1050.5,-174.5 1050.5,-215.5 1251.5,-215.5 1251.5,-174.5 1050.5,-174.5"/>
<text text-anchor="start" x="1058.5" y="-203.5" font-family="Helvetica,sans-Serif" font-size="10.00">/home/travis/build</text>
<text text-anchor="start" x="1058.5" y="-192.5" font-family="Helvetica,sans-Serif" font-size="10.00">/STORM&#45;IRIT/Radium&#45;Engine</text>
<text text-anchor="middle" x="1151" y="-181.5" font-family="Helvetica,sans-Serif" font-size="10.00">/src/Engine/System/GeometrySystem.cpp</text>
</a>
</g>
</g>
<!-- Node2&#45;&gt;Node8 -->
<g id="edge8" class="edge"><title>Node2&#45;&gt;Node8</title>
<path fill="none" stroke="midnightblue" d="M1213.8,-251.822C1200.16,-239.694 1185.06,-226.272 1173.08,-215.628"/>
<polygon fill="midnightblue" stroke="midnightblue" points="1211.83,-254.755 1221.63,-258.783 1216.48,-249.523 1211.83,-254.755"/>
</g>
<!-- Node9 -->
<g id="node9" class="node"><title>Node9</title>
<g id="a_node9"><a xlink:href="AnimationComponent_8cpp.html" target="_top" xlink:title="/home/travis/build\l/STORM&#45;IRIT/Radium&#45;Engine\l/Plugins/Animation/src/Animation\lComponent.cpp">
<polygon fill="white" stroke="black" points="1269.5,-169 1269.5,-221 1430.5,-221 1430.5,-169 1269.5,-169"/>
<text text-anchor="start" x="1277.5" y="-209" font-family="Helvetica,sans-Serif" font-size="10.00">/home/travis/build</text>
<text text-anchor="start" x="1277.5" y="-198" font-family="Helvetica,sans-Serif" font-size="10.00">/STORM&#45;IRIT/Radium&#45;Engine</text>
<text text-anchor="start" x="1277.5" y="-187" font-family="Helvetica,sans-Serif" font-size="10.00">/Plugins/Animation/src/Animation</text>
<text text-anchor="middle" x="1350" y="-176" font-family="Helvetica,sans-Serif" font-size="10.00">Component.cpp</text>
</a>
</g>
</g>
<!-- Node2&#45;&gt;Node9 -->
<g id="edge9" class="edge"><title>Node2&#45;&gt;Node9</title>
<path fill="none" stroke="midnightblue" d="M1286.42,-251.951C1297.92,-241.829 1310.46,-230.795 1321.34,-221.221"/>
<polygon fill="midnightblue" stroke="midnightblue" points="1283.85,-249.549 1278.66,-258.783 1288.48,-254.804 1283.85,-249.549"/>
</g>
<!-- Node10 -->
<g id="node10" class="node"><title>Node10</title>
<g id="a_node10"><a xlink:href="MeshFeatureTrackingComponent_8cpp.html" target="_top" xlink:title="/home/travis/build\l/STORM&#45;IRIT/Radium&#45;Engine\l/Plugins/MeshFeatureTracking\l/src/MeshFeatureTrackingComponent.cpp">
<polygon fill="white" stroke="black" points="1449,-169 1449,-221 1649,-221 1649,-169 1449,-169"/>
<text text-anchor="start" x="1457" y="-209" font-family="Helvetica,sans-Serif" font-size="10.00">/home/travis/build</text>
<text text-anchor="start" x="1457" y="-198" font-family="Helvetica,sans-Serif" font-size="10.00">/STORM&#45;IRIT/Radium&#45;Engine</text>
<text text-anchor="start" x="1457" y="-187" font-family="Helvetica,sans-Serif" font-size="10.00">/Plugins/MeshFeatureTracking</text>
<text text-anchor="middle" x="1549" y="-176" font-family="Helvetica,sans-Serif" font-size="10.00">/src/MeshFeatureTrackingComponent.cpp</text>
</a>
</g>
</g>
<!-- Node2&#45;&gt;Node10 -->
<g id="edge10" class="edge"><title>Node2&#45;&gt;Node10</title>
<path fill="none" stroke="midnightblue" d="M1345.35,-255.938C1383.41,-244.736 1426.88,-231.941 1463.86,-221.057"/>
<polygon fill="midnightblue" stroke="midnightblue" points="1343.89,-252.719 1335.28,-258.901 1345.86,-259.435 1343.89,-252.719"/>
</g>
<!-- Node11 -->
<g id="node11" class="node"><title>Node11</title>
<g id="a_node11"><a xlink:href="MeshPaintComponent_8hpp.html" target="_top" xlink:title="/home/travis/build\l/STORM&#45;IRIT/Radium&#45;Engine\l/Plugins/MeshPaint/src/MeshPaint\lComponent.hpp">
<polygon fill="white" stroke="black" points="1667.5,-169 1667.5,-221 1834.5,-221 1834.5,-169 1667.5,-169"/>
<text text-anchor="start" x="1675.5" y="-209" font-family="Helvetica,sans-Serif" font-size="10.00">/home/travis/build</text>
<text text-anchor="start" x="1675.5" y="-198" font-family="Helvetica,sans-Serif" font-size="10.00">/STORM&#45;IRIT/Radium&#45;Engine</text>
<text text-anchor="start" x="1675.5" y="-187" font-family="Helvetica,sans-Serif" font-size="10.00">/Plugins/MeshPaint/src/MeshPaint</text>
<text text-anchor="middle" x="1751" y="-176" font-family="Helvetica,sans-Serif" font-size="10.00">Component.hpp</text>
</a>
</g>
</g>
<!-- Node2&#45;&gt;Node11 -->
<g id="edge11" class="edge"><title>Node2&#45;&gt;Node11</title>
<path fill="none" stroke="midnightblue" d="M1366.84,-270.089C1448.79,-259.396 1560.67,-242.92 1658,-222 1661.11,-221.331 1664.28,-220.617 1667.47,-219.871"/>
<polygon fill="midnightblue" stroke="midnightblue" points="1366.21,-266.641 1356.74,-271.397 1367.11,-273.583 1366.21,-266.641"/>
</g>
<!-- Node13 -->
<g id="node13" class="node"><title>Node13</title>
<g id="a_node13"><a xlink:href="MeshPaintSystem_8cpp.html" target="_top" xlink:title="/home/travis/build\l/STORM&#45;IRIT/Radium&#45;Engine\l/Plugins/MeshPaint/src/MeshPaint\lSystem.cpp">
<polygon fill="white" stroke="black" points="1730.5,-79 1730.5,-131 1897.5,-131 1897.5,-79 1730.5,-79"/>
<text text-anchor="start" x="1738.5" y="-119" font-family="Helvetica,sans-Serif" font-size="10.00">/home/travis/build</text>
<text text-anchor="start" x="1738.5" y="-108" font-family="Helvetica,sans-Serif" font-size="10.00">/STORM&#45;IRIT/Radium&#45;Engine</text>
<text text-anchor="start" x="1738.5" y="-97" font-family="Helvetica,sans-Serif" font-size="10.00">/Plugins/MeshPaint/src/MeshPaint</text>
<text text-anchor="middle" x="1814" y="-86" font-family="Helvetica,sans-Serif" font-size="10.00">System.cpp</text>
</a>
</g>
</g>
<!-- Node2&#45;&gt;Node13 -->
<g id="edge14" class="edge"><title>Node2&#45;&gt;Node13</title>
<path fill="none" stroke="midnightblue" d="M1366.9,-280.027C1530.61,-273.242 1811.78,-256.651 1843,-222 1865.51,-197.015 1847.92,-157.199 1831.96,-131.328"/>
<polygon fill="midnightblue" stroke="midnightblue" points="1366.62,-276.536 1356.77,-280.441 1366.91,-283.53 1366.62,-276.536"/>
</g>
<!-- Node14 -->
<g id="node14" class="node"><title>Node14</title>
<g id="a_node14"><a xlink:href="SkinningDisplayComponent_8hpp.html" target="_top" xlink:title="/home/travis/build\l/STORM&#45;IRIT/Radium&#45;Engine\l/Plugins/Skinning/src/Display\l/SkinningDisplayComponent.hpp">
<polygon fill="white" stroke="black" points="1889.5,-169 1889.5,-221 2048.5,-221 2048.5,-169 1889.5,-169"/>
<text text-anchor="start" x="1897.5" y="-209" font-family="Helvetica,sans-Serif" font-size="10.00">/home/travis/build</text>
<text text-anchor="start" x="1897.5" y="-198" font-family="Helvetica,sans-Serif" font-size="10.00">/STORM&#45;IRIT/Radium&#45;Engine</text>
<text text-anchor="start" x="1897.5" y="-187" font-family="Helvetica,sans-Serif" font-size="10.00">/Plugins/Skinning/src/Display</text>
<text text-anchor="middle" x="1969" y="-176" font-family="Helvetica,sans-Serif" font-size="10.00">/SkinningDisplayComponent.hpp</text>
</a>
</g>
</g>
<!-- Node2&#45;&gt;Node14 -->
<g id="edge15" class="edge"><title>Node2&#45;&gt;Node14</title>
<path fill="none" stroke="midnightblue" d="M1366.66,-278.519C1493.04,-271.172 1700.17,-255.026 1876,-222 1880.37,-221.18 1884.83,-220.251 1889.31,-219.245"/>
<polygon fill="midnightblue" stroke="midnightblue" points="1366.36,-275.03 1356.58,-279.096 1366.76,-282.019 1366.36,-275.03"/>
</g>
<!-- Node17 -->
<g id="node17" class="node"><title>Node17</title>
<g id="a_node17"><a xlink:href="SkinningComponent_8hpp.html" target="_top" xlink:title="/home/travis/build\l/STORM&#45;IRIT/Radium&#45;Engine\l/Plugins/Skinning/src/SkinningComponent.hpp">
<polygon fill="white" stroke="black" points="2067,-174.5 2067,-215.5 2285,-215.5 2285,-174.5 2067,-174.5"/>
<text text-anchor="start" x="2075" y="-203.5" font-family="Helvetica,sans-Serif" font-size="10.00">/home/travis/build</text>
<text text-anchor="start" x="2075" y="-192.5" font-family="Helvetica,sans-Serif" font-size="10.00">/STORM&#45;IRIT/Radium&#45;Engine</text>
<text text-anchor="middle" x="2176" y="-181.5" font-family="Helvetica,sans-Serif" font-size="10.00">/Plugins/Skinning/src/SkinningComponent.hpp</text>
</a>
</g>
</g>
<!-- Node2&#45;&gt;Node17 -->
<g id="edge18" class="edge"><title>Node2&#45;&gt;Node17</title>
<path fill="none" stroke="midnightblue" d="M1366.77,-280.101C1524.22,-273.689 1812.98,-257.855 2057,-222 2068.93,-220.248 2081.44,-217.987 2093.69,-215.53"/>
<polygon fill="midnightblue" stroke="midnightblue" points="1366.44,-276.611 1356.59,-280.51 1366.73,-283.605 1366.44,-276.611"/>
</g>
<!-- Node12 -->
<g id="node12" class="node"><title>Node12</title>
<g id="a_node12"><a xlink:href="MeshPaintComponent_8cpp.html" target="_top" xlink:title="/home/travis/build\l/STORM&#45;IRIT/Radium&#45;Engine\l/Plugins/MeshPaint/src/MeshPaint\lComponent.cpp">
<polygon fill="white" stroke="black" points="1545.5,-79 1545.5,-131 1712.5,-131 1712.5,-79 1545.5,-79"/>
<text text-anchor="start" x="1553.5" y="-119" font-family="Helvetica,sans-Serif" font-size="10.00">/home/travis/build</text>
<text text-anchor="start" x="1553.5" y="-108" font-family="Helvetica,sans-Serif" font-size="10.00">/STORM&#45;IRIT/Radium&#45;Engine</text>
<text text-anchor="start" x="1553.5" y="-97" font-family="Helvetica,sans-Serif" font-size="10.00">/Plugins/MeshPaint/src/MeshPaint</text>
<text text-anchor="middle" x="1629" y="-86" font-family="Helvetica,sans-Serif" font-size="10.00">Component.cpp</text>
</a>
</g>
</g>
<!-- Node11&#45;&gt;Node12 -->
<g id="edge12" class="edge"><title>Node11&#45;&gt;Node12</title>
<path fill="none" stroke="midnightblue" d="M1707.78,-162.824C1693.42,-152.467 1677.62,-141.071 1663.97,-131.221"/>
<polygon fill="midnightblue" stroke="midnightblue" points="1705.88,-165.771 1716.04,-168.783 1709.98,-160.094 1705.88,-165.771"/>
</g>
<!-- Node11&#45;&gt;Node13 -->
<g id="edge13" class="edge"><title>Node11&#45;&gt;Node13</title>
<path fill="none" stroke="midnightblue" d="M1775.16,-160.259C1782.1,-150.564 1789.54,-140.166 1796.04,-131.092"/>
<polygon fill="midnightblue" stroke="midnightblue" points="1772.2,-158.378 1769.22,-168.547 1777.89,-162.453 1772.2,-158.378"/>
</g>
<!-- Node15 -->
<g id="node15" class="node"><title>Node15</title>
<g id="a_node15"><a xlink:href="SkinningSystem_8hpp.html" target="_top" xlink:title="/home/travis/build\l/STORM&#45;IRIT/Radium&#45;Engine\l/Plugins/Skinning/src/SkinningSystem.hpp">
<polygon fill="white" stroke="black" points="1916,-84.5 1916,-125.5 2118,-125.5 2118,-84.5 1916,-84.5"/>
<text text-anchor="start" x="1924" y="-113.5" font-family="Helvetica,sans-Serif" font-size="10.00">/home/travis/build</text>
<text text-anchor="start" x="1924" y="-102.5" font-family="Helvetica,sans-Serif" font-size="10.00">/STORM&#45;IRIT/Radium&#45;Engine</text>
<text text-anchor="middle" x="2017" y="-91.5" font-family="Helvetica,sans-Serif" font-size="10.00">/Plugins/Skinning/src/SkinningSystem.hpp</text>
</a>
</g>
</g>
<!-- Node14&#45;&gt;Node15 -->
<g id="edge16" class="edge"><title>Node14&#45;&gt;Node15</title>
<path fill="none" stroke="midnightblue" d="M1987.79,-159.546C1994.09,-147.996 2000.9,-135.524 2006.35,-125.525"/>
<polygon fill="midnightblue" stroke="midnightblue" points="1984.6,-158.092 1982.88,-168.547 1990.74,-161.444 1984.6,-158.092"/>
</g>
<!-- Node16 -->
<g id="node16" class="node"><title>Node16</title>
<g id="a_node16"><a xlink:href="SkinningPlugin_8cpp.html" target="_top" xlink:title="/home/travis/build\l/STORM&#45;IRIT/Radium&#45;Engine\l/Plugins/Skinning/src/SkinningPlugin.cpp">
<polygon fill="white" stroke="black" points="1919.5,-0.5 1919.5,-41.5 2114.5,-41.5 2114.5,-0.5 1919.5,-0.5"/>
<text text-anchor="start" x="1927.5" y="-29.5" font-family="Helvetica,sans-Serif" font-size="10.00">/home/travis/build</text>
<text text-anchor="start" x="1927.5" y="-18.5" font-family="Helvetica,sans-Serif" font-size="10.00">/STORM&#45;IRIT/Radium&#45;Engine</text>
<text text-anchor="middle" x="2017" y="-7.5" font-family="Helvetica,sans-Serif" font-size="10.00">/Plugins/Skinning/src/SkinningPlugin.cpp</text>
</a>
</g>
</g>
<!-- Node15&#45;&gt;Node16 -->
<g id="edge17" class="edge"><title>Node15&#45;&gt;Node16</title>
<path fill="none" stroke="midnightblue" d="M2017,-73.881C2017,-63.1328 2017,-51.309 2017,-41.6671"/>
<polygon fill="midnightblue" stroke="midnightblue" points="2013.5,-74.1501 2017,-84.1501 2020.5,-74.1501 2013.5,-74.1501"/>
</g>
<!-- Node17&#45;&gt;Node15 -->
<g id="edge20" class="edge"><title>Node17&#45;&gt;Node15</title>
<path fill="none" stroke="midnightblue" d="M2131.78,-169.528C2106.76,-155.678 2075.89,-138.591 2052.46,-125.627"/>
<polygon fill="midnightblue" stroke="midnightblue" points="2130.27,-172.69 2140.71,-174.47 2133.66,-166.565 2130.27,-172.69"/>
</g>
<!-- Node18 -->
<g id="node18" class="node"><title>Node18</title>
<g id="a_node18"><a xlink:href="SkinningComponent_8cpp.html" target="_top" xlink:title="/home/travis/build\l/STORM&#45;IRIT/Radium&#45;Engine\l/Plugins/Skinning/src/SkinningComponent.cpp">
<polygon fill="white" stroke="black" points="2136,-84.5 2136,-125.5 2354,-125.5 2354,-84.5 2136,-84.5"/>
<text text-anchor="start" x="2144" y="-113.5" font-family="Helvetica,sans-Serif" font-size="10.00">/home/travis/build</text>
<text text-anchor="start" x="2144" y="-102.5" font-family="Helvetica,sans-Serif" font-size="10.00">/STORM&#45;IRIT/Radium&#45;Engine</text>
<text text-anchor="middle" x="2245" y="-91.5" font-family="Helvetica,sans-Serif" font-size="10.00">/Plugins/Skinning/src/SkinningComponent.cpp</text>
</a>
</g>
</g>
<!-- Node17&#45;&gt;Node18 -->
<g id="edge19" class="edge"><title>Node17&#45;&gt;Node18</title>
<path fill="none" stroke="midnightblue" d="M2197.49,-166.596C2207.85,-153.379 2220.05,-137.822 2229.49,-125.78"/>
<polygon fill="midnightblue" stroke="midnightblue" points="2194.73,-164.441 2191.31,-174.47 2200.24,-168.76 2194.73,-164.441"/>
</g>
</g>
</svg>
