<?xml version="1.0" encoding="UTF-8" standalone="no"?>
<!DOCTYPE svg PUBLIC "-//W3C//DTD SVG 1.1//EN"
 "http://www.w3.org/Graphics/SVG/1.1/DTD/svg11.dtd">
<!-- Generated by graphviz version 2.36.0 (20140111.2315)
 -->
<!-- Title: /home/travis/build/STORM&#45;IRIT/Radium&#45;Engine/src/Engine/System/CouplingSystem.hpp Pages: 1 -->
<svg width="460pt" height="308pt"
 viewBox="0.00 0.00 460.00 308.00" xmlns="http://www.w3.org/2000/svg" xmlns:xlink="http://www.w3.org/1999/xlink">
<g id="graph0" class="graph" transform="scale(1 1) rotate(0) translate(4 304)">
<title>/home/travis/build/STORM&#45;IRIT/Radium&#45;Engine/src/Engine/System/CouplingSystem.hpp</title>
<polygon fill="white" stroke="none" points="-4,4 -4,-304 456,-304 456,4 -4,4"/>
<!-- Node1 -->
<g id="node1" class="node"><title>Node1</title>
<polygon fill="#bfbfbf" stroke="black" points="88.5,-258.5 88.5,-299.5 285.5,-299.5 285.5,-258.5 88.5,-258.5"/>
<text text-anchor="start" x="96.5" y="-287.5" font-family="Helvetica,sans-Serif" font-size="10.00">/home/travis/build</text>
<text text-anchor="start" x="96.5" y="-276.5" font-family="Helvetica,sans-Serif" font-size="10.00">/STORM&#45;IRIT/Radium&#45;Engine</text>
<text text-anchor="middle" x="187" y="-265.5" font-family="Helvetica,sans-Serif" font-size="10.00">/src/Engine/System/CouplingSystem.hpp</text>
</g>
<!-- Node2 -->
<g id="node2" class="node"><title>Node2</title>
<g id="a_node2"><a xlink:href="TimedSystem_8hpp.html" target="_top" xlink:title="/home/travis/build\l/STORM&#45;IRIT/Radium&#45;Engine\l/src/Engine/System/TimedSystem.hpp">
<polygon fill="white" stroke="black" points="94.5,-180.5 94.5,-221.5 279.5,-221.5 279.5,-180.5 94.5,-180.5"/>
<text text-anchor="start" x="102.5" y="-209.5" font-family="Helvetica,sans-Serif" font-size="10.00">/home/travis/build</text>
<text text-anchor="start" x="102.5" y="-198.5" font-family="Helvetica,sans-Serif" font-size="10.00">/STORM&#45;IRIT/Radium&#45;Engine</text>
<text text-anchor="middle" x="187" y="-187.5" font-family="Helvetica,sans-Serif" font-size="10.00">/src/Engine/System/TimedSystem.hpp</text>
</a>
</g>
</g>
<!-- Node1&#45;&gt;Node2 -->
<g id="edge1" class="edge"><title>Node1&#45;&gt;Node2</title>
<path fill="none" stroke="midnightblue" d="M187,-248.297C187,-239.301 187,-229.653 187,-221.506"/>
<polygon fill="midnightblue" stroke="midnightblue" points="183.5,-248.428 187,-258.428 190.5,-248.428 183.5,-248.428"/>
</g>
<!-- Node3 -->
<g id="node3" class="node"><title>Node3</title>
<g id="a_node3"><a xlink:href="TimedSystem_8cpp.html" target="_top" xlink:title="/home/travis/build\l/STORM&#45;IRIT/Radium&#45;Engine\l/src/Engine/System/TimedSystem.cpp">
<polygon fill="white" stroke="black" points="-0.5,-96.5 -0.5,-137.5 184.5,-137.5 184.5,-96.5 -0.5,-96.5"/>
<text text-anchor="start" x="7.5" y="-125.5" font-family="Helvetica,sans-Serif" font-size="10.00">/home/travis/build</text>
<text text-anchor="start" x="7.5" y="-114.5" font-family="Helvetica,sans-Serif" font-size="10.00">/STORM&#45;IRIT/Radium&#45;Engine</text>
<text text-anchor="middle" x="92" y="-103.5" font-family="Helvetica,sans-Serif" font-size="10.00">/src/Engine/System/TimedSystem.cpp</text>
</a>
</g>
</g>
<!-- Node2&#45;&gt;Node3 -->
<g id="edge2" class="edge"><title>Node2&#45;&gt;Node3</title>
<path fill="none" stroke="midnightblue" d="M156.332,-173.528C142.826,-161.871 127.236,-148.414 114.785,-137.667"/>
<polygon fill="midnightblue" stroke="midnightblue" points="154.146,-176.265 164.003,-180.15 158.72,-170.966 154.146,-176.265"/>
</g>
<!-- Node4 -->
<g id="node4" class="node"><title>Node4</title>
<g id="a_node4"><a xlink:href="AnimationSystem_8hpp.html" target="_top" xlink:title="/home/travis/build\l/STORM&#45;IRIT/Radium&#45;Engine\l/Plugins/Animation/src/Animation\lSystem.hpp">
<polygon fill="white" stroke="black" points="202.5,-91 202.5,-143 363.5,-143 363.5,-91 202.5,-91"/>
<text text-anchor="start" x="210.5" y="-131" font-family="Helvetica,sans-Serif" font-size="10.00">/home/travis/build</text>
<text text-anchor="start" x="210.5" y="-120" font-family="Helvetica,sans-Serif" font-size="10.00">/STORM&#45;IRIT/Radium&#45;Engine</text>
<text text-anchor="start" x="210.5" y="-109" font-family="Helvetica,sans-Serif" font-size="10.00">/Plugins/Animation/src/Animation</text>
<text text-anchor="middle" x="283" y="-98" font-family="Helvetica,sans-Serif" font-size="10.00">System.hpp</text>
</a>
</g>
</g>
<!-- Node2&#45;&gt;Node4 -->
<g id="edge3" class="edge"><title>Node2&#45;&gt;Node4</title>
<path fill="none" stroke="midnightblue" d="M217.856,-173.644C229.256,-163.906 242.142,-152.9 253.426,-143.261"/>
<polygon fill="midnightblue" stroke="midnightblue" points="215.569,-170.994 210.239,-180.15 220.116,-176.317 215.569,-170.994"/>
</g>
<!-- Node5 -->
<g id="node5" class="node"><title>Node5</title>
<g id="a_node5"><a xlink:href="AnimationPlugin_8cpp.html" target="_top" xlink:title="/home/travis/build\l/STORM&#45;IRIT/Radium&#45;Engine\l/Plugins/Animation/src/Animation\lPlugin.cpp">
<polygon fill="white" stroke="black" points="112.5,-1 112.5,-53 273.5,-53 273.5,-1 112.5,-1"/>
<text text-anchor="start" x="120.5" y="-41" font-family="Helvetica,sans-Serif" font-size="10.00">/home/travis/build</text>
<text text-anchor="start" x="120.5" y="-30" font-family="Helvetica,sans-Serif" font-size="10.00">/STORM&#45;IRIT/Radium&#45;Engine</text>
<text text-anchor="start" x="120.5" y="-19" font-family="Helvetica,sans-Serif" font-size="10.00">/Plugins/Animation/src/Animation</text>
<text text-anchor="middle" x="193" y="-8" font-family="Helvetica,sans-Serif" font-size="10.00">Plugin.cpp</text>
</a>
</g>
</g>
<!-- Node4&#45;&gt;Node5 -->
<g id="edge4" class="edge"><title>Node4&#45;&gt;Node5</title>
<path fill="none" stroke="midnightblue" d="M249.691,-83.4308C239.439,-73.4069 228.317,-62.5325 218.662,-53.0921"/>
<polygon fill="midnightblue" stroke="midnightblue" points="247.371,-86.0581 256.968,-90.5468 252.265,-81.053 247.371,-86.0581"/>
</g>
<!-- Node6 -->
<g id="node6" class="node"><title>Node6</title>
<g id="a_node6"><a xlink:href="AnimationSystem_8cpp.html" target="_top" xlink:title="/home/travis/build\l/STORM&#45;IRIT/Radium&#45;Engine\l/Plugins/Animation/src/Animation\lSystem.cpp">
<polygon fill="white" stroke="black" points="291.5,-1 291.5,-53 452.5,-53 452.5,-1 291.5,-1"/>
<text text-anchor="start" x="299.5" y="-41" font-family="Helvetica,sans-Serif" font-size="10.00">/home/travis/build</text>
<text text-anchor="start" x="299.5" y="-30" font-family="Helvetica,sans-Serif" font-size="10.00">/STORM&#45;IRIT/Radium&#45;Engine</text>
<text text-anchor="start" x="299.5" y="-19" font-family="Helvetica,sans-Serif" font-size="10.00">/Plugins/Animation/src/Animation</text>
<text text-anchor="middle" x="372" y="-8" font-family="Helvetica,sans-Serif" font-size="10.00">System.cpp</text>
</a>
</g>
</g>
<!-- Node4&#45;&gt;Node6 -->
<g id="edge5" class="edge"><title>Node4&#45;&gt;Node6</title>
<path fill="none" stroke="midnightblue" d="M315.939,-83.4308C326.077,-73.4069 337.075,-62.5325 346.623,-53.0921"/>
<polygon fill="midnightblue" stroke="midnightblue" points="313.393,-81.0269 308.742,-90.5468 318.314,-86.0045 313.393,-81.0269"/>
</g>
</g>
</svg>
