<?xml version="1.0" encoding="UTF-8" standalone="no"?>
<!DOCTYPE svg PUBLIC "-//W3C//DTD SVG 1.1//EN"
 "http://www.w3.org/Graphics/SVG/1.1/DTD/svg11.dtd">
<!-- Generated by graphviz version 2.36.0 (20140111.2315)
 -->
<!-- Title: /home/travis/build/STORM&#45;IRIT/Radium&#45;Engine/src/Core/Geometry/Curvature/Curvature.cpp Pages: 1 -->
<svg width="1307pt" height="558pt"
 viewBox="0.00 0.00 1307.00 558.00" xmlns="http://www.w3.org/2000/svg" xmlns:xlink="http://www.w3.org/1999/xlink">
<g id="graph0" class="graph" transform="scale(1 1) rotate(0) translate(4 554)">
<title>/home/travis/build/STORM&#45;IRIT/Radium&#45;Engine/src/Core/Geometry/Curvature/Curvature.cpp</title>
<polygon fill="white" stroke="none" points="-4,4 -4,-554 1303,-554 1303,4 -4,4"/>
<!-- Node1 -->
<g id="node1" class="node"><title>Node1</title>
<polygon fill="#bfbfbf" stroke="black" points="732.5,-497 732.5,-549 881.5,-549 881.5,-497 732.5,-497"/>
<text text-anchor="start" x="740.5" y="-537" font-family="Helvetica,sans-Serif" font-size="10.00">/home/travis/build</text>
<text text-anchor="start" x="740.5" y="-526" font-family="Helvetica,sans-Serif" font-size="10.00">/STORM&#45;IRIT/Radium&#45;Engine</text>
<text text-anchor="start" x="740.5" y="-515" font-family="Helvetica,sans-Serif" font-size="10.00">/src/Core/Geometry/Curvature</text>
<text text-anchor="middle" x="807" y="-504" font-family="Helvetica,sans-Serif" font-size="10.00">/Curvature.cpp</text>
</g>
<!-- Node2 -->
<g id="node2" class="node"><title>Node2</title>
<g id="a_node2"><a xlink:href="Curvature_8hpp.html" target="_top" xlink:title="Core/Geometry/Curvature\l/Curvature.hpp">
<polygon fill="white" stroke="black" points="538.5,-429 538.5,-459 667.5,-459 667.5,-429 538.5,-429"/>
<text text-anchor="start" x="546.5" y="-447" font-family="Helvetica,sans-Serif" font-size="10.00">Core/Geometry/Curvature</text>
<text text-anchor="middle" x="603" y="-436" font-family="Helvetica,sans-Serif" font-size="10.00">/Curvature.hpp</text>
</a>
</g>
</g>
<!-- Node1&#45;&gt;Node2 -->
<g id="edge1" class="edge"><title>Node1&#45;&gt;Node2</title>
<path fill="none" stroke="midnightblue" d="M740.485,-496.894C710.868,-485.715 676.692,-472.815 649.823,-462.673"/>
<polygon fill="midnightblue" stroke="midnightblue" points="650.868,-459.327 640.277,-459.07 648.397,-465.876 650.868,-459.327"/>
</g>
<!-- Node30 -->
<g id="node30" class="node"><title>Node30</title>
<g id="a_node30"><a xlink:href="CircularIndex_8hpp.html" target="_top" xlink:title="Core/Index/CircularIndex.hpp">
<polygon fill="white" stroke="black" points="899,-434.5 899,-453.5 1043,-453.5 1043,-434.5 899,-434.5"/>
<text text-anchor="middle" x="971" y="-441.5" font-family="Helvetica,sans-Serif" font-size="10.00">Core/Index/CircularIndex.hpp</text>
</a>
</g>
</g>
<!-- Node1&#45;&gt;Node30 -->
<g id="edge39" class="edge"><title>Node1&#45;&gt;Node30</title>
<path fill="none" stroke="midnightblue" d="M860.7,-496.787C888.367,-483.797 920.934,-468.507 943.474,-457.924"/>
<polygon fill="midnightblue" stroke="midnightblue" points="945.209,-460.976 952.773,-453.558 942.234,-454.64 945.209,-460.976"/>
</g>
<!-- Node3 -->
<g id="node3" class="node"><title>Node3</title>
<g id="a_node3"><a xlink:href="VectorArray_8hpp.html" target="_top" xlink:title="Core/Containers/VectorArray.hpp">
<polygon fill="white" stroke="black" points="201.5,-304.5 201.5,-323.5 362.5,-323.5 362.5,-304.5 201.5,-304.5"/>
<text text-anchor="middle" x="282" y="-311.5" font-family="Helvetica,sans-Serif" font-size="10.00">Core/Containers/VectorArray.hpp</text>
</a>
</g>
</g>
<!-- Node2&#45;&gt;Node3 -->
<g id="edge2" class="edge"><title>Node2&#45;&gt;Node3</title>
<path fill="none" stroke="midnightblue" d="M567.729,-428.936C504.476,-403.713 372.775,-351.197 312.865,-327.308"/>
<polygon fill="midnightblue" stroke="midnightblue" points="314.137,-324.047 303.551,-323.594 311.544,-330.549 314.137,-324.047"/>
</g>
<!-- Node14 -->
<g id="node14" class="node"><title>Node14</title>
<g id="a_node14"><a xlink:href="LinearAlgebra_8hpp.html" target="_top" xlink:title="Core/Math/LinearAlgebra.hpp">
<polygon fill="white" stroke="black" points="542.5,-242.5 542.5,-261.5 685.5,-261.5 685.5,-242.5 542.5,-242.5"/>
<text text-anchor="middle" x="614" y="-249.5" font-family="Helvetica,sans-Serif" font-size="10.00">Core/Math/LinearAlgebra.hpp</text>
</a>
</g>
</g>
<!-- Node2&#45;&gt;Node14 -->
<g id="edge38" class="edge"><title>Node2&#45;&gt;Node14</title>
<path fill="none" stroke="midnightblue" d="M610.638,-428.745C615.534,-418.77 621.436,-404.963 624,-392 632.422,-349.427 624.132,-298.271 618.415,-271.462"/>
<polygon fill="midnightblue" stroke="midnightblue" points="621.796,-270.542 616.179,-261.559 614.967,-272.084 621.796,-270.542"/>
</g>
<!-- Node25 -->
<g id="node25" class="node"><title>Node25</title>
<g id="a_node25"><a xlink:href="Area_8hpp.html" target="_top" xlink:title="Core/Geometry/Area\l/Area.hpp">
<polygon fill="white" stroke="black" points="508.5,-361 508.5,-391 615.5,-391 615.5,-361 508.5,-361"/>
<text text-anchor="start" x="516.5" y="-379" font-family="Helvetica,sans-Serif" font-size="10.00">Core/Geometry/Area</text>
<text text-anchor="middle" x="562" y="-368" font-family="Helvetica,sans-Serif" font-size="10.00">/Area.hpp</text>
</a>
</g>
</g>
<!-- Node2&#45;&gt;Node25 -->
<g id="edge29" class="edge"><title>Node2&#45;&gt;Node25</title>
<path fill="none" stroke="midnightblue" d="M594.104,-428.679C588.892,-420.29 582.189,-409.499 576.256,-399.949"/>
<polygon fill="midnightblue" stroke="midnightblue" points="579.129,-397.941 570.879,-391.293 573.183,-401.634 579.129,-397.941"/>
</g>
<!-- Node4 -->
<g id="node4" class="node"><title>Node4</title>
<g id="a_node4"><a xlink:href="AlignedStdVector_8hpp.html" target="_top" xlink:title="Core/Containers/AlignedStd\lVector.hpp">
<polygon fill="white" stroke="black" points="50,-237 50,-267 188,-267 188,-237 50,-237"/>
<text text-anchor="start" x="58" y="-255" font-family="Helvetica,sans-Serif" font-size="10.00">Core/Containers/AlignedStd</text>
<text text-anchor="middle" x="119" y="-244" font-family="Helvetica,sans-Serif" font-size="10.00">Vector.hpp</text>
</a>
</g>
</g>
<!-- Node3&#45;&gt;Node4 -->
<g id="edge3" class="edge"><title>Node3&#45;&gt;Node4</title>
<path fill="none" stroke="midnightblue" d="M258.646,-304.403C234.737,-295.603 196.897,-281.674 166.634,-270.534"/>
<polygon fill="midnightblue" stroke="midnightblue" points="167.696,-267.195 157.102,-267.025 165.277,-273.764 167.696,-267.195"/>
</g>
<!-- Node5 -->
<g id="node5" class="node"><title>Node5</title>
<g id="a_node5"><a xlink:href="RaCore_8hpp.html" target="_top" xlink:title="Core/RaCore.hpp">
<polygon fill="white" stroke="black" points="468.5,-112.5 468.5,-131.5 561.5,-131.5 561.5,-112.5 468.5,-112.5"/>
<text text-anchor="middle" x="515" y="-119.5" font-family="Helvetica,sans-Serif" font-size="10.00">Core/RaCore.hpp</text>
</a>
</g>
</g>
<!-- Node3&#45;&gt;Node5 -->
<g id="edge27" class="edge"><title>Node3&#45;&gt;Node5</title>
<path fill="none" stroke="midnightblue" d="M276.401,-304.261C261.401,-279.638 223.697,-208.832 258,-168 283.047,-138.187 390.364,-128.121 458.152,-124.726"/>
<polygon fill="midnightblue" stroke="midnightblue" points="458.437,-128.217 468.263,-124.254 458.111,-121.224 458.437,-128.217"/>
</g>
<!-- Node13 -->
<g id="node13" class="node"><title>Node13</title>
<polygon fill="white" stroke="#bfbfbf" points="0,-174.5 0,-193.5 44,-193.5 44,-174.5 0,-174.5"/>
<text text-anchor="middle" x="22" y="-181.5" font-family="Helvetica,sans-Serif" font-size="10.00">vector</text>
</g>
<!-- Node3&#45;&gt;Node13 -->
<g id="edge28" class="edge"><title>Node3&#45;&gt;Node13</title>
<path fill="none" stroke="midnightblue" d="M201.333,-307.349C140.457,-301.409 63.6791,-289.78 41,-268 23.7901,-251.472 20.729,-222.789 20.8164,-203.85"/>
<polygon fill="midnightblue" stroke="midnightblue" points="24.3179,-203.866 21.1638,-193.752 17.322,-203.625 24.3179,-203.866"/>
</g>
<!-- Node3&#45;&gt;Node14 -->
<g id="edge13" class="edge"><title>Node3&#45;&gt;Node14</title>
<path fill="none" stroke="midnightblue" d="M329.215,-304.467C389.201,-293.626 492.644,-274.932 556.972,-263.306"/>
<polygon fill="midnightblue" stroke="midnightblue" points="557.73,-266.726 566.948,-261.503 556.485,-259.838 557.73,-266.726"/>
</g>
<!-- Node4&#45;&gt;Node5 -->
<g id="edge4" class="edge"><title>Node4&#45;&gt;Node5</title>
<path fill="none" stroke="midnightblue" d="M106.775,-236.964C92.5988,-218.947 73.304,-187.673 91,-168 115.098,-141.209 347.84,-129.139 457.886,-124.896"/>
<polygon fill="midnightblue" stroke="midnightblue" points="458.28,-128.383 468.141,-124.509 458.017,-121.388 458.28,-128.383"/>
</g>
<!-- Node12 -->
<g id="node12" class="node"><title>Node12</title>
<polygon fill="white" stroke="#bfbfbf" points="100,-174.5 100,-193.5 188,-193.5 188,-174.5 100,-174.5"/>
<text text-anchor="middle" x="144" y="-181.5" font-family="Helvetica,sans-Serif" font-size="10.00">Eigen/StdVector</text>
</g>
<!-- Node4&#45;&gt;Node12 -->
<g id="edge11" class="edge"><title>Node4&#45;&gt;Node12</title>
<path fill="none" stroke="midnightblue" d="M124.425,-236.679C128.13,-226.898 133.071,-213.852 137.063,-203.315"/>
<polygon fill="midnightblue" stroke="midnightblue" points="140.387,-204.42 140.656,-193.828 133.841,-201.94 140.387,-204.42"/>
</g>
<!-- Node4&#45;&gt;Node13 -->
<g id="edge12" class="edge"><title>Node4&#45;&gt;Node13</title>
<path fill="none" stroke="midnightblue" d="M97.9524,-236.679C81.6858,-225.611 59.2759,-210.363 43.0169,-199.3"/>
<polygon fill="midnightblue" stroke="midnightblue" points="44.9317,-196.37 34.6951,-193.638 40.9938,-202.157 44.9317,-196.37"/>
</g>
<!-- Node6 -->
<g id="node6" class="node"><title>Node6</title>
<g id="a_node6"><a xlink:href="CoreMacros_8hpp.html" target="_top" xlink:title="Core/CoreMacros.hpp">
<polygon fill="white" stroke="black" points="980.5,-56.5 980.5,-75.5 1093.5,-75.5 1093.5,-56.5 980.5,-56.5"/>
<text text-anchor="middle" x="1037" y="-63.5" font-family="Helvetica,sans-Serif" font-size="10.00">Core/CoreMacros.hpp</text>
</a>
</g>
</g>
<!-- Node5&#45;&gt;Node6 -->
<g id="edge5" class="edge"><title>Node5&#45;&gt;Node6</title>
<path fill="none" stroke="midnightblue" d="M561.783,-116.16C654.753,-106.543 863.013,-84.9987 970.3,-73.9"/>
<polygon fill="midnightblue" stroke="midnightblue" points="970.773,-77.3698 980.36,-72.8593 970.053,-70.407 970.773,-77.3698"/>
</g>
<!-- Node7 -->
<g id="node7" class="node"><title>Node7</title>
<polygon fill="white" stroke="#bfbfbf" points="881.5,-0.5 881.5,-19.5 930.5,-19.5 930.5,-0.5 881.5,-0.5"/>
<text text-anchor="middle" x="906" y="-7.5" font-family="Helvetica,sans-Serif" font-size="10.00">cassert</text>
</g>
<!-- Node6&#45;&gt;Node7 -->
<g id="edge6" class="edge"><title>Node6&#45;&gt;Node7</title>
<path fill="none" stroke="midnightblue" d="M1016.24,-56.4435C994.684,-47.5566 960.737,-33.5632 936.206,-23.4514"/>
<polygon fill="midnightblue" stroke="midnightblue" points="937.239,-20.0917 926.66,-19.5164 934.572,-26.5634 937.239,-20.0917"/>
</g>
<!-- Node8 -->
<g id="node8" class="node"><title>Node8</title>
<polygon fill="white" stroke="#bfbfbf" points="948.5,-0.5 948.5,-19.5 991.5,-19.5 991.5,-0.5 948.5,-0.5"/>
<text text-anchor="middle" x="970" y="-7.5" font-family="Helvetica,sans-Serif" font-size="10.00">cstdio</text>
</g>
<!-- Node6&#45;&gt;Node8 -->
<g id="edge7" class="edge"><title>Node6&#45;&gt;Node8</title>
<path fill="none" stroke="midnightblue" d="M1026.24,-56.324C1016.23,-48.2631 1001.11,-36.0765 989.07,-26.3695"/>
<polygon fill="midnightblue" stroke="midnightblue" points="990.943,-23.3841 980.961,-19.8339 986.55,-28.8343 990.943,-23.3841"/>
</g>
<!-- Node9 -->
<g id="node9" class="node"><title>Node9</title>
<polygon fill="white" stroke="#bfbfbf" points="1010,-0.5 1010,-19.5 1064,-19.5 1064,-0.5 1010,-0.5"/>
<text text-anchor="middle" x="1037" y="-7.5" font-family="Helvetica,sans-Serif" font-size="10.00">iostream</text>
</g>
<!-- Node6&#45;&gt;Node9 -->
<g id="edge8" class="edge"><title>Node6&#45;&gt;Node9</title>
<path fill="none" stroke="midnightblue" d="M1037,-56.083C1037,-49.0059 1037,-38.8611 1037,-29.9865"/>
<polygon fill="midnightblue" stroke="midnightblue" points="1040.5,-29.751 1037,-19.7511 1033.5,-29.7511 1040.5,-29.751"/>
</g>
<!-- Node10 -->
<g id="node10" class="node"><title>Node10</title>
<polygon fill="white" stroke="#bfbfbf" points="1082,-0.5 1082,-19.5 1134,-19.5 1134,-0.5 1082,-0.5"/>
<text text-anchor="middle" x="1108" y="-7.5" font-family="Helvetica,sans-Serif" font-size="10.00">sstream</text>
</g>
<!-- Node6&#45;&gt;Node10 -->
<g id="edge9" class="edge"><title>Node6&#45;&gt;Node10</title>
<path fill="none" stroke="midnightblue" d="M1048.41,-56.324C1059.11,-48.1849 1075.34,-35.8395 1088.16,-26.0874"/>
<polygon fill="midnightblue" stroke="midnightblue" points="1090.54,-28.6734 1096.39,-19.8339 1086.31,-23.1018 1090.54,-28.6734"/>
</g>
<!-- Node11 -->
<g id="node11" class="node"><title>Node11</title>
<polygon fill="white" stroke="#bfbfbf" points="1152,-0.5 1152,-19.5 1196,-19.5 1196,-0.5 1152,-0.5"/>
<text text-anchor="middle" x="1174" y="-7.5" font-family="Helvetica,sans-Serif" font-size="10.00">thread</text>
</g>
<!-- Node6&#45;&gt;Node11 -->
<g id="edge10" class="edge"><title>Node6&#45;&gt;Node11</title>
<path fill="none" stroke="midnightblue" d="M1058.71,-56.4435C1081.35,-47.5171 1117.07,-33.4387 1142.75,-23.3168"/>
<polygon fill="midnightblue" stroke="midnightblue" points="1144.37,-26.4397 1152.39,-19.5164 1141.81,-19.9273 1144.37,-26.4397"/>
</g>
<!-- Node14&#45;&gt;Node5 -->
<g id="edge14" class="edge"><title>Node14&#45;&gt;Node5</title>
<path fill="none" stroke="midnightblue" d="M542.302,-250.807C452.728,-248.863 307.041,-239.511 273,-200 219.505,-137.909 371.298,-125.391 458.452,-123.191"/>
<polygon fill="midnightblue" stroke="midnightblue" points="458.561,-126.69 468.484,-122.976 458.411,-119.692 458.561,-126.69"/>
</g>
<!-- Node15 -->
<g id="node15" class="node"><title>Node15</title>
<polygon fill="white" stroke="#bfbfbf" points="437.5,-174.5 437.5,-193.5 502.5,-193.5 502.5,-174.5 437.5,-174.5"/>
<text text-anchor="middle" x="470" y="-181.5" font-family="Helvetica,sans-Serif" font-size="10.00">Eigen/Core</text>
</g>
<!-- Node14&#45;&gt;Node15 -->
<g id="edge15" class="edge"><title>Node14&#45;&gt;Node15</title>
<path fill="none" stroke="midnightblue" d="M595.175,-242.372C570.488,-231.057 526.957,-211.105 498.293,-197.968"/>
<polygon fill="midnightblue" stroke="midnightblue" points="499.379,-194.615 488.83,-193.63 496.462,-200.979 499.379,-194.615"/>
</g>
<!-- Node16 -->
<g id="node16" class="node"><title>Node16</title>
<polygon fill="white" stroke="#bfbfbf" points="520.5,-174.5 520.5,-193.5 607.5,-193.5 607.5,-174.5 520.5,-174.5"/>
<text text-anchor="middle" x="564" y="-181.5" font-family="Helvetica,sans-Serif" font-size="10.00">Eigen/Geometry</text>
</g>
<!-- Node14&#45;&gt;Node16 -->
<g id="edge16" class="edge"><title>Node14&#45;&gt;Node16</title>
<path fill="none" stroke="midnightblue" d="M607.463,-242.372C599.721,-232.151 586.639,-214.884 576.846,-201.957"/>
<polygon fill="midnightblue" stroke="midnightblue" points="579.526,-199.699 570.698,-193.841 573.947,-203.926 579.526,-199.699"/>
</g>
<!-- Node17 -->
<g id="node17" class="node"><title>Node17</title>
<polygon fill="white" stroke="#bfbfbf" points="625.5,-174.5 625.5,-193.5 700.5,-193.5 700.5,-174.5 625.5,-174.5"/>
<text text-anchor="middle" x="663" y="-181.5" font-family="Helvetica,sans-Serif" font-size="10.00">Eigen/Sparse</text>
</g>
<!-- Node14&#45;&gt;Node17 -->
<g id="edge17" class="edge"><title>Node14&#45;&gt;Node17</title>
<path fill="none" stroke="midnightblue" d="M620.406,-242.372C627.994,-232.151 640.813,-214.884 650.411,-201.957"/>
<polygon fill="midnightblue" stroke="midnightblue" points="653.285,-203.957 656.436,-193.841 647.665,-199.784 653.285,-203.957"/>
</g>
<!-- Node18 -->
<g id="node18" class="node"><title>Node18</title>
<polygon fill="white" stroke="#bfbfbf" points="718.5,-174.5 718.5,-193.5 777.5,-193.5 777.5,-174.5 718.5,-174.5"/>
<text text-anchor="middle" x="748" y="-181.5" font-family="Helvetica,sans-Serif" font-size="10.00">functional</text>
</g>
<!-- Node14&#45;&gt;Node18 -->
<g id="edge18" class="edge"><title>Node14&#45;&gt;Node18</title>
<path fill="none" stroke="midnightblue" d="M631.518,-242.372C654.39,-231.106 694.645,-211.279 721.321,-198.14"/>
<polygon fill="midnightblue" stroke="midnightblue" points="723.053,-201.189 730.478,-193.63 719.96,-194.909 723.053,-201.189"/>
</g>
<!-- Node19 -->
<g id="node19" class="node"><title>Node19</title>
<polygon fill="white" stroke="#bfbfbf" points="795.5,-169 795.5,-199 928.5,-199 928.5,-169 795.5,-169"/>
<text text-anchor="start" x="803.5" y="-187" font-family="Helvetica,sans-Serif" font-size="10.00">unsupported/Eigen/Aligned</text>
<text text-anchor="middle" x="862" y="-176" font-family="Helvetica,sans-Serif" font-size="10.00">Vector3</text>
</g>
<!-- Node14&#45;&gt;Node19 -->
<g id="edge19" class="edge"><title>Node14&#45;&gt;Node19</title>
<path fill="none" stroke="midnightblue" d="M646.167,-242.439C684.79,-232.161 750.456,-214.685 799.238,-201.703"/>
<polygon fill="midnightblue" stroke="midnightblue" points="800.302,-205.041 809.066,-199.087 798.502,-198.277 800.302,-205.041"/>
</g>
<!-- Node20 -->
<g id="node20" class="node"><title>Node20</title>
<g id="a_node20"><a xlink:href="Math_8hpp.html" target="_top" xlink:title="Core/Math/Math.hpp">
<polygon fill="white" stroke="black" points="985,-174.5 985,-193.5 1091,-193.5 1091,-174.5 985,-174.5"/>
<text text-anchor="middle" x="1038" y="-181.5" font-family="Helvetica,sans-Serif" font-size="10.00">Core/Math/Math.hpp</text>
</a>
</g>
</g>
<!-- Node14&#45;&gt;Node20 -->
<g id="edge20" class="edge"><title>Node14&#45;&gt;Node20</title>
<path fill="none" stroke="midnightblue" d="M668.996,-242.439C747.615,-230.202 891.771,-207.762 974.72,-194.85"/>
<polygon fill="midnightblue" stroke="midnightblue" points="975.428,-198.282 984.771,-193.286 974.351,-191.365 975.428,-198.282"/>
</g>
<!-- Node24 -->
<g id="node24" class="node"><title>Node24</title>
<g id="a_node24"><a xlink:href="LinearAlgebra_8inl.html" target="_top" xlink:title="Core/Math/LinearAlgebra.inl">
<polygon fill="white" stroke="black" points="282.5,-174.5 282.5,-193.5 419.5,-193.5 419.5,-174.5 282.5,-174.5"/>
<text text-anchor="middle" x="351" y="-181.5" font-family="Helvetica,sans-Serif" font-size="10.00">Core/Math/LinearAlgebra.inl</text>
</a>
</g>
</g>
<!-- Node14&#45;&gt;Node24 -->
<g id="edge26" class="edge"><title>Node14&#45;&gt;Node24</title>
<path fill="none" stroke="midnightblue" d="M579.887,-242.439C532.588,-230.57 447.046,-209.103 394.995,-196.041"/>
<polygon fill="midnightblue" stroke="midnightblue" points="395.604,-192.585 385.053,-193.546 393.9,-199.374 395.604,-192.585"/>
</g>
<!-- Node20&#45;&gt;Node5 -->
<g id="edge21" class="edge"><title>Node20&#45;&gt;Node5</title>
<path fill="none" stroke="midnightblue" d="M1003.73,-174.483C993.272,-172.113 981.71,-169.721 971,-168 828.162,-145.05 658.147,-131.998 571.648,-126.362"/>
<polygon fill="midnightblue" stroke="midnightblue" points="571.725,-122.86 561.521,-125.712 571.276,-129.846 571.725,-122.86"/>
</g>
<!-- Node21 -->
<g id="node21" class="node"><title>Node21</title>
<polygon fill="white" stroke="#bfbfbf" points="1058,-112.5 1058,-131.5 1114,-131.5 1114,-112.5 1058,-112.5"/>
<text text-anchor="middle" x="1086" y="-119.5" font-family="Helvetica,sans-Serif" font-size="10.00">algorithm</text>
</g>
<!-- Node20&#45;&gt;Node21 -->
<g id="edge22" class="edge"><title>Node20&#45;&gt;Node21</title>
<path fill="none" stroke="midnightblue" d="M1044.88,-174.403C1052.15,-165.314 1063.8,-150.756 1072.84,-139.449"/>
<polygon fill="midnightblue" stroke="midnightblue" points="1075.62,-141.576 1079.14,-131.581 1070.16,-137.203 1075.62,-141.576"/>
</g>
<!-- Node22 -->
<g id="node22" class="node"><title>Node22</title>
<polygon fill="white" stroke="#bfbfbf" points="1132,-112.5 1132,-131.5 1176,-131.5 1176,-112.5 1132,-112.5"/>
<text text-anchor="middle" x="1154" y="-119.5" font-family="Helvetica,sans-Serif" font-size="10.00">cmath</text>
</g>
<!-- Node20&#45;&gt;Node22 -->
<g id="edge23" class="edge"><title>Node20&#45;&gt;Node22</title>
<path fill="none" stroke="midnightblue" d="M1054.62,-174.403C1073.92,-164.423 1105.96,-147.849 1128.43,-136.225"/>
<polygon fill="midnightblue" stroke="midnightblue" points="1130.14,-139.284 1137.41,-131.581 1126.92,-133.066 1130.14,-139.284"/>
</g>
<!-- Node23 -->
<g id="node23" class="node"><title>Node23</title>
<g id="a_node23"><a xlink:href="Math_8inl.html" target="_top" xlink:title="Core/Math/Math.inl">
<polygon fill="white" stroke="black" points="940,-112.5 940,-131.5 1040,-131.5 1040,-112.5 940,-112.5"/>
<text text-anchor="middle" x="990" y="-119.5" font-family="Helvetica,sans-Serif" font-size="10.00">Core/Math/Math.inl</text>
</a>
</g>
</g>
<!-- Node20&#45;&gt;Node23 -->
<g id="edge24" class="edge"><title>Node20&#45;&gt;Node23</title>
<path fill="none" stroke="midnightblue" d="M1026.22,-174.403C1017.17,-165.493 1005.41,-151.325 997.531,-140.118"/>
<polygon fill="midnightblue" stroke="midnightblue" points="1000.36,-138.048 991.967,-131.581 994.495,-141.87 1000.36,-138.048"/>
</g>
<!-- Node23&#45;&gt;Node20 -->
<g id="edge25" class="edge"><title>Node23&#45;&gt;Node20</title>
<path fill="none" stroke="midnightblue" d="M1001.76,-131.581C1010.81,-140.485 1022.57,-154.652 1030.46,-165.862"/>
<polygon fill="midnightblue" stroke="midnightblue" points="1027.63,-167.938 1036.02,-174.403 1033.49,-164.115 1027.63,-167.938"/>
</g>
<!-- Node25&#45;&gt;Node3 -->
<g id="edge30" class="edge"><title>Node25&#45;&gt;Node3</title>
<path fill="none" stroke="midnightblue" d="M508.344,-363.502C457.389,-352.583 381.395,-336.299 331.765,-325.664"/>
<polygon fill="midnightblue" stroke="midnightblue" points="332.411,-322.223 321.899,-323.55 330.944,-329.068 332.411,-322.223"/>
</g>
<!-- Node25&#45;&gt;Node14 -->
<g id="edge31" class="edge"><title>Node25&#45;&gt;Node14</title>
<path fill="none" stroke="midnightblue" d="M568.169,-360.526C577.684,-338.203 595.922,-295.415 606.292,-271.085"/>
<polygon fill="midnightblue" stroke="midnightblue" points="609.623,-272.194 610.325,-261.623 603.184,-269.45 609.623,-272.194"/>
</g>
<!-- Node26 -->
<g id="node26" class="node"><title>Node26</title>
<g id="a_node26"><a xlink:href="MeshTypes_8hpp.html" target="_top" xlink:title="Core/Mesh/MeshTypes.hpp">
<polygon fill="white" stroke="black" points="765.5,-304.5 765.5,-323.5 902.5,-323.5 902.5,-304.5 765.5,-304.5"/>
<text text-anchor="middle" x="834" y="-311.5" font-family="Helvetica,sans-Serif" font-size="10.00">Core/Mesh/MeshTypes.hpp</text>
</a>
</g>
</g>
<!-- Node25&#45;&gt;Node26 -->
<g id="edge32" class="edge"><title>Node25&#45;&gt;Node26</title>
<path fill="none" stroke="midnightblue" d="M615.738,-363.146C665.172,-352.242 737.831,-336.214 785.524,-325.693"/>
<polygon fill="midnightblue" stroke="midnightblue" points="786.293,-329.108 795.304,-323.536 784.785,-322.272 786.293,-329.108"/>
</g>
<!-- Node26&#45;&gt;Node5 -->
<g id="edge37" class="edge"><title>Node26&#45;&gt;Node5</title>
<path fill="none" stroke="midnightblue" d="M848.303,-304.489C885.562,-281.317 979.837,-215.648 937,-168 913.021,-141.328 681.374,-129.196 571.846,-124.916"/>
<polygon fill="midnightblue" stroke="midnightblue" points="571.765,-121.411 561.638,-124.526 571.498,-128.405 571.765,-121.411"/>
</g>
<!-- Node26&#45;&gt;Node14 -->
<g id="edge36" class="edge"><title>Node26&#45;&gt;Node14</title>
<path fill="none" stroke="midnightblue" d="M802.479,-304.403C763.761,-293.844 697.976,-275.903 655.264,-264.254"/>
<polygon fill="midnightblue" stroke="midnightblue" points="656.031,-260.835 645.462,-261.581 654.189,-267.589 656.031,-260.835"/>
</g>
<!-- Node27 -->
<g id="node27" class="node"><title>Node27</title>
<g id="a_node27"><a xlink:href="Index_8hpp.html" target="_top" xlink:title="Core/Index/Index.hpp">
<polygon fill="white" stroke="black" points="1074,-242.5 1074,-261.5 1184,-261.5 1184,-242.5 1074,-242.5"/>
<text text-anchor="middle" x="1129" y="-249.5" font-family="Helvetica,sans-Serif" font-size="10.00">Core/Index/Index.hpp</text>
</a>
</g>
</g>
<!-- Node26&#45;&gt;Node27 -->
<g id="edge33" class="edge"><title>Node26&#45;&gt;Node27</title>
<path fill="none" stroke="midnightblue" d="M875.953,-304.467C928.925,-293.693 1020.04,-275.162 1077.27,-263.522"/>
<polygon fill="midnightblue" stroke="midnightblue" points="1078.09,-266.926 1087.19,-261.503 1076.69,-260.067 1078.09,-266.926"/>
</g>
<!-- Node28 -->
<g id="node28" class="node"><title>Node28</title>
<polygon fill="white" stroke="#bfbfbf" points="1109,-174.5 1109,-193.5 1149,-193.5 1149,-174.5 1109,-174.5"/>
<text text-anchor="middle" x="1129" y="-181.5" font-family="Helvetica,sans-Serif" font-size="10.00">limits</text>
</g>
<!-- Node27&#45;&gt;Node28 -->
<g id="edge34" class="edge"><title>Node27&#45;&gt;Node28</title>
<path fill="none" stroke="midnightblue" d="M1129,-242.372C1129,-232.643 1129,-216.528 1129,-203.85"/>
<polygon fill="midnightblue" stroke="midnightblue" points="1132.5,-203.841 1129,-193.841 1125.5,-203.841 1132.5,-203.841"/>
</g>
<!-- Node29 -->
<g id="node29" class="node"><title>Node29</title>
<g id="a_node29"><a xlink:href="Index_8inl.html" target="_top" xlink:title="Core/Index/Index.inl">
<polygon fill="white" stroke="black" points="1167,-174.5 1167,-193.5 1271,-193.5 1271,-174.5 1167,-174.5"/>
<text text-anchor="middle" x="1219" y="-181.5" font-family="Helvetica,sans-Serif" font-size="10.00">Core/Index/Index.inl</text>
</a>
</g>
</g>
<!-- Node27&#45;&gt;Node29 -->
<g id="edge35" class="edge"><title>Node27&#45;&gt;Node29</title>
<path fill="none" stroke="midnightblue" d="M1140.77,-242.372C1155.59,-231.502 1181.28,-212.66 1199.16,-199.547"/>
<polygon fill="midnightblue" stroke="midnightblue" points="1201.24,-202.367 1207.23,-193.63 1197.1,-196.722 1201.24,-202.367"/>
</g>
<!-- Node30&#45;&gt;Node6 -->
<g id="edge40" class="edge"><title>Node30&#45;&gt;Node6</title>
<path fill="none" stroke="midnightblue" d="M1019.75,-434.48C1111.12,-417.117 1299,-374.217 1299,-315 1299,-315 1299,-315 1299,-183 1299,-97.6636 1181.35,-74.6072 1103.73,-68.682"/>
<polygon fill="midnightblue" stroke="midnightblue" points="1103.74,-65.1751 1093.53,-67.9835 1103.26,-72.1587 1103.74,-65.1751"/>
</g>
<!-- Node31 -->
<g id="node31" class="node"><title>Node31</title>
<g id="a_node31"><a xlink:href="CircularIndex_8inl.html" target="_top" xlink:title="Core/Index/CircularIndex.inl">
<polygon fill="white" stroke="black" points="902,-366.5 902,-385.5 1040,-385.5 1040,-366.5 902,-366.5"/>
<text text-anchor="middle" x="971" y="-373.5" font-family="Helvetica,sans-Serif" font-size="10.00">Core/Index/CircularIndex.inl</text>
</a>
</g>
</g>
<!-- Node30&#45;&gt;Node31 -->
<g id="edge41" class="edge"><title>Node30&#45;&gt;Node31</title>
<path fill="none" stroke="midnightblue" d="M966.269,-434.372C964.199,-424.643 963.721,-408.528 964.835,-395.85"/>
<polygon fill="midnightblue" stroke="midnightblue" points="968.316,-396.227 966.224,-385.841 961.382,-395.265 968.316,-396.227"/>
</g>
<!-- Node31&#45;&gt;Node30 -->
<g id="edge42" class="edge"><title>Node31&#45;&gt;Node30</title>
<path fill="none" stroke="midnightblue" d="M975.776,-385.841C977.823,-395.662 978.278,-411.798 977.141,-424.425"/>
<polygon fill="midnightblue" stroke="midnightblue" points="973.669,-423.979 975.731,-434.372 980.6,-424.962 973.669,-423.979"/>
</g>
</g>
</svg>
