<?xml version="1.0" encoding="UTF-8" standalone="no"?>
<!DOCTYPE svg PUBLIC "-//W3C//DTD SVG 1.1//EN"
 "http://www.w3.org/Graphics/SVG/1.1/DTD/svg11.dtd">
<!-- Generated by graphviz version 2.36.0 (20140111.2315)
 -->
<!-- Title: /home/travis/build/STORM&#45;IRIT/Radium&#45;Engine/src/Core/Math/Curve2D.inl Pages: 1 -->
<svg width="1257pt" height="522pt"
 viewBox="0.00 0.00 1257.00 522.00" xmlns="http://www.w3.org/2000/svg" xmlns:xlink="http://www.w3.org/1999/xlink">
<g id="graph0" class="graph" transform="scale(1 1) rotate(0) translate(4 518)">
<title>/home/travis/build/STORM&#45;IRIT/Radium&#45;Engine/src/Core/Math/Curve2D.inl</title>
<polygon fill="white" stroke="none" points="-4,4 -4,-518 1253,-518 1253,4 -4,4"/>
<!-- Node1 -->
<g id="node1" class="node"><title>Node1</title>
<polygon fill="#bfbfbf" stroke="black" points="0,-472.5 0,-513.5 148,-513.5 148,-472.5 0,-472.5"/>
<text text-anchor="start" x="8" y="-501.5" font-family="Helvetica,sans-Serif" font-size="10.00">/home/travis/build</text>
<text text-anchor="start" x="8" y="-490.5" font-family="Helvetica,sans-Serif" font-size="10.00">/STORM&#45;IRIT/Radium&#45;Engine</text>
<text text-anchor="middle" x="74" y="-479.5" font-family="Helvetica,sans-Serif" font-size="10.00">/src/Core/Math/Curve2D.inl</text>
</g>
<!-- Node2 -->
<g id="node2" class="node"><title>Node2</title>
<g id="a_node2"><a xlink:href="Curve2D_8hpp.html" target="_top" xlink:title="Core/Math/Curve2D.hpp">
<polygon fill="white" stroke="black" points="12.5,-416.5 12.5,-435.5 135.5,-435.5 135.5,-416.5 12.5,-416.5"/>
<text text-anchor="middle" x="74" y="-423.5" font-family="Helvetica,sans-Serif" font-size="10.00">Core/Math/Curve2D.hpp</text>
</a>
</g>
</g>
<!-- Node1&#45;&gt;Node2 -->
<g id="edge1" class="edge"><title>Node1&#45;&gt;Node2</title>
<path fill="none" stroke="midnightblue" d="M67.7547,-472.498C67.0567,-463.969 67.0827,-454.011 67.8326,-445.59"/>
<polygon fill="midnightblue" stroke="midnightblue" points="71.3032,-446.044 69.2355,-435.652 64.3719,-445.065 71.3032,-446.044"/>
</g>
<!-- Node2&#45;&gt;Node1 -->
<g id="edge38" class="edge"><title>Node2&#45;&gt;Node1</title>
<path fill="none" stroke="midnightblue" d="M78.7645,-435.652C80.2266,-442.524 80.8812,-452.559 80.7283,-462.263"/>
<polygon fill="midnightblue" stroke="midnightblue" points="77.2207,-462.344 80.2453,-472.498 84.2129,-462.674 77.2207,-462.344"/>
</g>
<!-- Node3 -->
<g id="node3" class="node"><title>Node3</title>
<g id="a_node3"><a xlink:href="VectorArray_8hpp.html" target="_top" xlink:title="Core/Containers/VectorArray.hpp">
<polygon fill="white" stroke="black" points="144.5,-304.5 144.5,-323.5 305.5,-323.5 305.5,-304.5 144.5,-304.5"/>
<text text-anchor="middle" x="225" y="-311.5" font-family="Helvetica,sans-Serif" font-size="10.00">Core/Containers/VectorArray.hpp</text>
</a>
</g>
</g>
<!-- Node2&#45;&gt;Node3 -->
<g id="edge2" class="edge"><title>Node2&#45;&gt;Node3</title>
<path fill="none" stroke="midnightblue" d="M82.0419,-416.29C94.4967,-403.102 119.571,-377.727 144,-360 160.87,-347.758 181.413,-336.381 197.589,-328.128"/>
<polygon fill="midnightblue" stroke="midnightblue" points="199.17,-331.251 206.548,-323.648 196.039,-324.991 199.17,-331.251"/>
</g>
<!-- Node5 -->
<g id="node5" class="node"><title>Node5</title>
<g id="a_node5"><a xlink:href="RaCore_8hpp.html" target="_top" xlink:title="Core/RaCore.hpp">
<polygon fill="white" stroke="black" points="275.5,-112.5 275.5,-131.5 368.5,-131.5 368.5,-112.5 275.5,-112.5"/>
<text text-anchor="middle" x="322" y="-119.5" font-family="Helvetica,sans-Serif" font-size="10.00">Core/RaCore.hpp</text>
</a>
</g>
</g>
<!-- Node2&#45;&gt;Node5 -->
<g id="edge36" class="edge"><title>Node2&#45;&gt;Node5</title>
<path fill="none" stroke="midnightblue" d="M63.0647,-416.297C42.923,-399.203 2,-359.051 2,-315 2,-315 2,-315 2,-251 2,-200.073 36.2424,-192.297 81,-168 138.568,-136.749 214.017,-126.809 265.044,-123.851"/>
<polygon fill="midnightblue" stroke="midnightblue" points="265.418,-127.337 275.228,-123.335 265.064,-120.346 265.418,-127.337"/>
</g>
<!-- Node13 -->
<g id="node13" class="node"><title>Node13</title>
<polygon fill="white" stroke="#bfbfbf" points="112,-174.5 112,-193.5 156,-193.5 156,-174.5 112,-174.5"/>
<text text-anchor="middle" x="134" y="-181.5" font-family="Helvetica,sans-Serif" font-size="10.00">vector</text>
</g>
<!-- Node2&#45;&gt;Node13 -->
<g id="edge37" class="edge"><title>Node2&#45;&gt;Node13</title>
<path fill="none" stroke="midnightblue" d="M75.7865,-416.276C81.3626,-389.3 99.1996,-304.904 118,-236 120.982,-225.072 124.757,-212.971 127.892,-203.299"/>
<polygon fill="midnightblue" stroke="midnightblue" points="131.281,-204.197 131.083,-193.604 124.632,-202.009 131.281,-204.197"/>
</g>
<!-- Node25 -->
<g id="node25" class="node"><title>Node25</title>
<g id="a_node25"><a xlink:href="Spline_8hpp.html" target="_top" xlink:title="Core/Math/Spline.hpp">
<polygon fill="white" stroke="black" points="153.5,-360.5 153.5,-379.5 264.5,-379.5 264.5,-360.5 153.5,-360.5"/>
<text text-anchor="middle" x="209" y="-367.5" font-family="Helvetica,sans-Serif" font-size="10.00">Core/Math/Spline.hpp</text>
</a>
</g>
</g>
<!-- Node2&#45;&gt;Node25 -->
<g id="edge29" class="edge"><title>Node2&#45;&gt;Node25</title>
<path fill="none" stroke="midnightblue" d="M95.3912,-416.444C117.707,-407.517 152.903,-393.439 178.208,-383.317"/>
<polygon fill="midnightblue" stroke="midnightblue" points="179.724,-386.48 187.709,-379.516 177.124,-379.981 179.724,-386.48"/>
</g>
<!-- Node4 -->
<g id="node4" class="node"><title>Node4</title>
<g id="a_node4"><a xlink:href="AlignedStdVector_8hpp.html" target="_top" xlink:title="Core/Containers/AlignedStd\lVector.hpp">
<polygon fill="white" stroke="black" points="182,-237 182,-267 320,-267 320,-237 182,-237"/>
<text text-anchor="start" x="190" y="-255" font-family="Helvetica,sans-Serif" font-size="10.00">Core/Containers/AlignedStd</text>
<text text-anchor="middle" x="251" y="-244" font-family="Helvetica,sans-Serif" font-size="10.00">Vector.hpp</text>
</a>
</g>
</g>
<!-- Node3&#45;&gt;Node4 -->
<g id="edge3" class="edge"><title>Node3&#45;&gt;Node4</title>
<path fill="none" stroke="midnightblue" d="M228.725,-304.403C231.884,-297.113 236.569,-286.303 240.828,-276.475"/>
<polygon fill="midnightblue" stroke="midnightblue" points="244.108,-277.708 244.872,-267.141 237.685,-274.925 244.108,-277.708"/>
</g>
<!-- Node3&#45;&gt;Node5 -->
<g id="edge27" class="edge"><title>Node3&#45;&gt;Node5</title>
<path fill="none" stroke="midnightblue" d="M273.049,-304.458C293.942,-298.101 316.47,-287.074 329,-268 354.634,-228.978 339.503,-170.503 329.182,-141.162"/>
<polygon fill="midnightblue" stroke="midnightblue" points="332.451,-139.911 325.682,-131.76 325.891,-142.353 332.451,-139.911"/>
</g>
<!-- Node3&#45;&gt;Node13 -->
<g id="edge28" class="edge"><title>Node3&#45;&gt;Node13</title>
<path fill="none" stroke="midnightblue" d="M212.101,-304.241C200.665,-295.963 184.103,-282.655 173,-268 157.793,-247.927 146.489,-220.974 140.071,-203.305"/>
<polygon fill="midnightblue" stroke="midnightblue" points="143.303,-201.944 136.714,-193.647 136.691,-204.242 143.303,-201.944"/>
</g>
<!-- Node14 -->
<g id="node14" class="node"><title>Node14</title>
<g id="a_node14"><a xlink:href="LinearAlgebra_8hpp.html" target="_top" xlink:title="Core/Math/LinearAlgebra.hpp">
<polygon fill="white" stroke="black" points="561.5,-242.5 561.5,-261.5 704.5,-261.5 704.5,-242.5 561.5,-242.5"/>
<text text-anchor="middle" x="633" y="-249.5" font-family="Helvetica,sans-Serif" font-size="10.00">Core/Math/LinearAlgebra.hpp</text>
</a>
</g>
</g>
<!-- Node3&#45;&gt;Node14 -->
<g id="edge13" class="edge"><title>Node3&#45;&gt;Node14</title>
<path fill="none" stroke="midnightblue" d="M283.023,-304.467C357.347,-293.537 485.96,-274.624 564.86,-263.021"/>
<polygon fill="midnightblue" stroke="midnightblue" points="565.793,-266.421 575.177,-261.503 564.774,-259.496 565.793,-266.421"/>
</g>
<!-- Node4&#45;&gt;Node5 -->
<g id="edge4" class="edge"><title>Node4&#45;&gt;Node5</title>
<path fill="none" stroke="midnightblue" d="M260.32,-236.922C266.902,-226.797 275.797,-212.739 283,-200 294.253,-180.097 305.946,-156.567 313.557,-140.802"/>
<polygon fill="midnightblue" stroke="midnightblue" points="316.763,-142.212 317.924,-131.681 310.449,-139.189 316.763,-142.212"/>
</g>
<!-- Node12 -->
<g id="node12" class="node"><title>Node12</title>
<polygon fill="white" stroke="#bfbfbf" points="187,-174.5 187,-193.5 275,-193.5 275,-174.5 187,-174.5"/>
<text text-anchor="middle" x="231" y="-181.5" font-family="Helvetica,sans-Serif" font-size="10.00">Eigen/StdVector</text>
</g>
<!-- Node4&#45;&gt;Node12 -->
<g id="edge11" class="edge"><title>Node4&#45;&gt;Node12</title>
<path fill="none" stroke="midnightblue" d="M246.66,-236.679C243.727,-226.999 239.825,-214.123 236.65,-203.645"/>
<polygon fill="midnightblue" stroke="midnightblue" points="239.925,-202.383 233.675,-193.828 233.226,-204.414 239.925,-202.383"/>
</g>
<!-- Node4&#45;&gt;Node13 -->
<g id="edge12" class="edge"><title>Node4&#45;&gt;Node13</title>
<path fill="none" stroke="midnightblue" d="M225.901,-236.841C205.845,-225.528 177.912,-209.771 158.119,-198.605"/>
<polygon fill="midnightblue" stroke="midnightblue" points="159.82,-195.547 149.391,-193.682 156.381,-201.644 159.82,-195.547"/>
</g>
<!-- Node6 -->
<g id="node6" class="node"><title>Node6</title>
<g id="a_node6"><a xlink:href="CoreMacros_8hpp.html" target="_top" xlink:title="Core/CoreMacros.hpp">
<polygon fill="white" stroke="black" points="265.5,-56.5 265.5,-75.5 378.5,-75.5 378.5,-56.5 265.5,-56.5"/>
<text text-anchor="middle" x="322" y="-63.5" font-family="Helvetica,sans-Serif" font-size="10.00">Core/CoreMacros.hpp</text>
</a>
</g>
</g>
<!-- Node5&#45;&gt;Node6 -->
<g id="edge5" class="edge"><title>Node5&#45;&gt;Node6</title>
<path fill="none" stroke="midnightblue" d="M322,-112.083C322,-105.006 322,-94.8611 322,-85.9865"/>
<polygon fill="midnightblue" stroke="midnightblue" points="325.5,-85.751 322,-75.7511 318.5,-85.7511 325.5,-85.751"/>
</g>
<!-- Node7 -->
<g id="node7" class="node"><title>Node7</title>
<polygon fill="white" stroke="#bfbfbf" points="166.5,-0.5 166.5,-19.5 215.5,-19.5 215.5,-0.5 166.5,-0.5"/>
<text text-anchor="middle" x="191" y="-7.5" font-family="Helvetica,sans-Serif" font-size="10.00">cassert</text>
</g>
<!-- Node6&#45;&gt;Node7 -->
<g id="edge6" class="edge"><title>Node6&#45;&gt;Node7</title>
<path fill="none" stroke="midnightblue" d="M301.243,-56.4435C279.684,-47.5566 245.737,-33.5632 221.206,-23.4514"/>
<polygon fill="midnightblue" stroke="midnightblue" points="222.239,-20.0917 211.66,-19.5164 219.572,-26.5634 222.239,-20.0917"/>
</g>
<!-- Node8 -->
<g id="node8" class="node"><title>Node8</title>
<polygon fill="white" stroke="#bfbfbf" points="233.5,-0.5 233.5,-19.5 276.5,-19.5 276.5,-0.5 233.5,-0.5"/>
<text text-anchor="middle" x="255" y="-7.5" font-family="Helvetica,sans-Serif" font-size="10.00">cstdio</text>
</g>
<!-- Node6&#45;&gt;Node8 -->
<g id="edge7" class="edge"><title>Node6&#45;&gt;Node8</title>
<path fill="none" stroke="midnightblue" d="M311.235,-56.324C301.234,-48.2631 286.113,-36.0765 274.07,-26.3695"/>
<polygon fill="midnightblue" stroke="midnightblue" points="275.943,-23.3841 265.961,-19.8339 271.55,-28.8343 275.943,-23.3841"/>
</g>
<!-- Node9 -->
<g id="node9" class="node"><title>Node9</title>
<polygon fill="white" stroke="#bfbfbf" points="295,-0.5 295,-19.5 349,-19.5 349,-0.5 295,-0.5"/>
<text text-anchor="middle" x="322" y="-7.5" font-family="Helvetica,sans-Serif" font-size="10.00">iostream</text>
</g>
<!-- Node6&#45;&gt;Node9 -->
<g id="edge8" class="edge"><title>Node6&#45;&gt;Node9</title>
<path fill="none" stroke="midnightblue" d="M322,-56.083C322,-49.0059 322,-38.8611 322,-29.9865"/>
<polygon fill="midnightblue" stroke="midnightblue" points="325.5,-29.751 322,-19.7511 318.5,-29.7511 325.5,-29.751"/>
</g>
<!-- Node10 -->
<g id="node10" class="node"><title>Node10</title>
<polygon fill="white" stroke="#bfbfbf" points="367,-0.5 367,-19.5 419,-19.5 419,-0.5 367,-0.5"/>
<text text-anchor="middle" x="393" y="-7.5" font-family="Helvetica,sans-Serif" font-size="10.00">sstream</text>
</g>
<!-- Node6&#45;&gt;Node10 -->
<g id="edge9" class="edge"><title>Node6&#45;&gt;Node10</title>
<path fill="none" stroke="midnightblue" d="M333.407,-56.324C344.109,-48.1849 360.341,-35.8395 373.163,-26.0874"/>
<polygon fill="midnightblue" stroke="midnightblue" points="375.544,-28.6734 381.385,-19.8339 371.307,-23.1018 375.544,-28.6734"/>
</g>
<!-- Node11 -->
<g id="node11" class="node"><title>Node11</title>
<polygon fill="white" stroke="#bfbfbf" points="437,-0.5 437,-19.5 481,-19.5 481,-0.5 437,-0.5"/>
<text text-anchor="middle" x="459" y="-7.5" font-family="Helvetica,sans-Serif" font-size="10.00">thread</text>
</g>
<!-- Node6&#45;&gt;Node11 -->
<g id="edge10" class="edge"><title>Node6&#45;&gt;Node11</title>
<path fill="none" stroke="midnightblue" d="M343.708,-56.4435C366.355,-47.5171 402.072,-33.4387 427.752,-23.3168"/>
<polygon fill="midnightblue" stroke="midnightblue" points="429.374,-26.4397 437.394,-19.5164 426.807,-19.9273 429.374,-26.4397"/>
</g>
<!-- Node14&#45;&gt;Node5 -->
<g id="edge14" class="edge"><title>Node14&#45;&gt;Node5</title>
<path fill="none" stroke="midnightblue" d="M561.418,-246.178C512.826,-240.414 448.482,-227.763 398,-200 371.091,-185.201 347.554,-157.897 334.057,-140.098"/>
<polygon fill="midnightblue" stroke="midnightblue" points="336.687,-137.766 327.95,-131.773 331.043,-141.906 336.687,-137.766"/>
</g>
<!-- Node15 -->
<g id="node15" class="node"><title>Node15</title>
<polygon fill="white" stroke="#bfbfbf" points="407.5,-174.5 407.5,-193.5 472.5,-193.5 472.5,-174.5 407.5,-174.5"/>
<text text-anchor="middle" x="440" y="-181.5" font-family="Helvetica,sans-Serif" font-size="10.00">Eigen/Core</text>
</g>
<!-- Node14&#45;&gt;Node15 -->
<g id="edge15" class="edge"><title>Node14&#45;&gt;Node15</title>
<path fill="none" stroke="midnightblue" d="M606.837,-242.46C576.492,-232.499 524.997,-215.426 481,-200 478.251,-199.036 475.403,-198.023 472.548,-196.998"/>
<polygon fill="midnightblue" stroke="midnightblue" points="473.541,-193.636 462.946,-193.519 471.156,-200.217 473.541,-193.636"/>
</g>
<!-- Node16 -->
<g id="node16" class="node"><title>Node16</title>
<polygon fill="white" stroke="#bfbfbf" points="490.5,-174.5 490.5,-193.5 577.5,-193.5 577.5,-174.5 490.5,-174.5"/>
<text text-anchor="middle" x="534" y="-181.5" font-family="Helvetica,sans-Serif" font-size="10.00">Eigen/Geometry</text>
</g>
<!-- Node14&#45;&gt;Node16 -->
<g id="edge16" class="edge"><title>Node14&#45;&gt;Node16</title>
<path fill="none" stroke="midnightblue" d="M620.057,-242.372C603.604,-231.403 574.975,-212.317 555.287,-199.191"/>
<polygon fill="midnightblue" stroke="midnightblue" points="557.208,-196.265 546.946,-193.63 553.325,-202.09 557.208,-196.265"/>
</g>
<!-- Node17 -->
<g id="node17" class="node"><title>Node17</title>
<polygon fill="white" stroke="#bfbfbf" points="595.5,-174.5 595.5,-193.5 670.5,-193.5 670.5,-174.5 595.5,-174.5"/>
<text text-anchor="middle" x="633" y="-181.5" font-family="Helvetica,sans-Serif" font-size="10.00">Eigen/Sparse</text>
</g>
<!-- Node14&#45;&gt;Node17 -->
<g id="edge17" class="edge"><title>Node14&#45;&gt;Node17</title>
<path fill="none" stroke="midnightblue" d="M633,-242.372C633,-232.643 633,-216.528 633,-203.85"/>
<polygon fill="midnightblue" stroke="midnightblue" points="636.5,-203.841 633,-193.841 629.5,-203.841 636.5,-203.841"/>
</g>
<!-- Node18 -->
<g id="node18" class="node"><title>Node18</title>
<polygon fill="white" stroke="#bfbfbf" points="688.5,-174.5 688.5,-193.5 747.5,-193.5 747.5,-174.5 688.5,-174.5"/>
<text text-anchor="middle" x="718" y="-181.5" font-family="Helvetica,sans-Serif" font-size="10.00">functional</text>
</g>
<!-- Node14&#45;&gt;Node18 -->
<g id="edge18" class="edge"><title>Node14&#45;&gt;Node18</title>
<path fill="none" stroke="midnightblue" d="M644.112,-242.372C657.984,-231.6 681.937,-213.002 698.802,-199.906"/>
<polygon fill="midnightblue" stroke="midnightblue" points="701.133,-202.528 706.885,-193.63 696.84,-196.999 701.133,-202.528"/>
</g>
<!-- Node19 -->
<g id="node19" class="node"><title>Node19</title>
<polygon fill="white" stroke="#bfbfbf" points="765.5,-169 765.5,-199 898.5,-199 898.5,-169 765.5,-169"/>
<text text-anchor="start" x="773.5" y="-187" font-family="Helvetica,sans-Serif" font-size="10.00">unsupported/Eigen/Aligned</text>
<text text-anchor="middle" x="832" y="-176" font-family="Helvetica,sans-Serif" font-size="10.00">Vector3</text>
</g>
<!-- Node14&#45;&gt;Node19 -->
<g id="edge19" class="edge"><title>Node14&#45;&gt;Node19</title>
<path fill="none" stroke="midnightblue" d="M659.016,-242.372C689.61,-232.225 741.145,-215.133 780.026,-202.237"/>
<polygon fill="midnightblue" stroke="midnightblue" points="781.229,-205.526 789.618,-199.056 779.025,-198.882 781.229,-205.526"/>
</g>
<!-- Node20 -->
<g id="node20" class="node"><title>Node20</title>
<g id="a_node20"><a xlink:href="Math_8hpp.html" target="_top" xlink:title="Core/Math/Math.hpp">
<polygon fill="white" stroke="black" points="1072,-174.5 1072,-193.5 1178,-193.5 1178,-174.5 1072,-174.5"/>
<text text-anchor="middle" x="1125" y="-181.5" font-family="Helvetica,sans-Serif" font-size="10.00">Core/Math/Math.hpp</text>
</a>
</g>
</g>
<!-- Node14&#45;&gt;Node20 -->
<g id="edge20" class="edge"><title>Node14&#45;&gt;Node20</title>
<path fill="none" stroke="midnightblue" d="M704.724,-245.024C790.216,-237.314 937.203,-222.198 1062,-200 1068.69,-198.809 1075.74,-197.344 1082.6,-195.801"/>
<polygon fill="midnightblue" stroke="midnightblue" points="1083.51,-199.183 1092.45,-193.506 1081.92,-192.366 1083.51,-199.183"/>
</g>
<!-- Node24 -->
<g id="node24" class="node"><title>Node24</title>
<g id="a_node24"><a xlink:href="LinearAlgebra_8inl.html" target="_top" xlink:title="Core/Math/LinearAlgebra.inl">
<polygon fill="white" stroke="black" points="916.5,-174.5 916.5,-193.5 1053.5,-193.5 1053.5,-174.5 916.5,-174.5"/>
<text text-anchor="middle" x="985" y="-181.5" font-family="Helvetica,sans-Serif" font-size="10.00">Core/Math/LinearAlgebra.inl</text>
</a>
</g>
</g>
<!-- Node14&#45;&gt;Node24 -->
<g id="edge26" class="edge"><title>Node14&#45;&gt;Node24</title>
<path fill="none" stroke="midnightblue" d="M679.558,-242.422C734.086,-232.354 827.128,-215.113 907,-200 914.717,-198.54 922.861,-196.987 930.859,-195.455"/>
<polygon fill="midnightblue" stroke="midnightblue" points="931.709,-198.856 940.871,-193.534 930.39,-191.981 931.709,-198.856"/>
</g>
<!-- Node20&#45;&gt;Node5 -->
<g id="edge21" class="edge"><title>Node20&#45;&gt;Node5</title>
<path fill="none" stroke="midnightblue" d="M1093.8,-174.445C1083.73,-171.985 1072.45,-169.551 1062,-168 809.066,-130.487 503.053,-124.096 378.667,-123.116"/>
<polygon fill="midnightblue" stroke="midnightblue" points="378.637,-119.615 368.613,-123.045 378.588,-126.615 378.637,-119.615"/>
</g>
<!-- Node21 -->
<g id="node21" class="node"><title>Node21</title>
<polygon fill="white" stroke="#bfbfbf" points="1193,-112.5 1193,-131.5 1249,-131.5 1249,-112.5 1193,-112.5"/>
<text text-anchor="middle" x="1221" y="-119.5" font-family="Helvetica,sans-Serif" font-size="10.00">algorithm</text>
</g>
<!-- Node20&#45;&gt;Node21 -->
<g id="edge22" class="edge"><title>Node20&#45;&gt;Node21</title>
<path fill="none" stroke="midnightblue" d="M1138.75,-174.403C1154.37,-164.646 1180.06,-148.585 1198.58,-137.011"/>
<polygon fill="midnightblue" stroke="midnightblue" points="1200.65,-139.849 1207.27,-131.581 1196.94,-133.913 1200.65,-139.849"/>
</g>
<!-- Node22 -->
<g id="node22" class="node"><title>Node22</title>
<polygon fill="white" stroke="#bfbfbf" points="1013,-112.5 1013,-131.5 1057,-131.5 1057,-112.5 1013,-112.5"/>
<text text-anchor="middle" x="1035" y="-119.5" font-family="Helvetica,sans-Serif" font-size="10.00">cmath</text>
</g>
<!-- Node20&#45;&gt;Node22 -->
<g id="edge23" class="edge"><title>Node20&#45;&gt;Node22</title>
<path fill="none" stroke="midnightblue" d="M1112.11,-174.403C1097.54,-164.691 1073.6,-148.732 1056.25,-137.17"/>
<polygon fill="midnightblue" stroke="midnightblue" points="1058.13,-134.215 1047.87,-131.581 1054.25,-140.04 1058.13,-134.215"/>
</g>
<!-- Node23 -->
<g id="node23" class="node"><title>Node23</title>
<g id="a_node23"><a xlink:href="Math_8inl.html" target="_top" xlink:title="Core/Math/Math.inl">
<polygon fill="white" stroke="black" points="1075,-112.5 1075,-131.5 1175,-131.5 1175,-112.5 1075,-112.5"/>
<text text-anchor="middle" x="1125" y="-119.5" font-family="Helvetica,sans-Serif" font-size="10.00">Core/Math/Math.inl</text>
</a>
</g>
</g>
<!-- Node20&#45;&gt;Node23 -->
<g id="edge24" class="edge"><title>Node20&#45;&gt;Node23</title>
<path fill="none" stroke="midnightblue" d="M1120.1,-174.403C1118.27,-165.938 1117.8,-152.728 1118.69,-141.82"/>
<polygon fill="midnightblue" stroke="midnightblue" points="1122.2,-141.966 1120.1,-131.581 1115.26,-141.006 1122.2,-141.966"/>
</g>
<!-- Node23&#45;&gt;Node20 -->
<g id="edge25" class="edge"><title>Node23&#45;&gt;Node20</title>
<path fill="none" stroke="midnightblue" d="M1129.9,-131.581C1131.73,-140.04 1132.2,-153.248 1131.32,-164.16"/>
<polygon fill="midnightblue" stroke="midnightblue" points="1127.8,-164.018 1129.9,-174.403 1134.74,-164.977 1127.8,-164.018"/>
</g>
<!-- Node25&#45;&gt;Node3 -->
<g id="edge30" class="edge"><title>Node25&#45;&gt;Node3</title>
<path fill="none" stroke="midnightblue" d="M211.642,-360.083C213.786,-352.849 216.879,-342.409 219.549,-333.397"/>
<polygon fill="midnightblue" stroke="midnightblue" points="222.922,-334.333 222.407,-323.751 216.21,-332.345 222.922,-334.333"/>
</g>
<!-- Node25&#45;&gt;Node5 -->
<g id="edge31" class="edge"><title>Node25&#45;&gt;Node5</title>
<path fill="none" stroke="midnightblue" d="M177.591,-360.411C158.801,-353.62 136.101,-342.184 123,-324 82.14,-267.285 58.8261,-222.174 103,-168 123.103,-143.346 207.241,-131.815 265.174,-126.709"/>
<polygon fill="midnightblue" stroke="midnightblue" points="265.634,-130.183 275.306,-125.858 265.048,-123.208 265.634,-130.183"/>
</g>
<!-- Node25&#45;&gt;Node13 -->
<g id="edge32" class="edge"><title>Node25&#45;&gt;Node13</title>
<path fill="none" stroke="midnightblue" d="M182.482,-360.485C165.639,-353.547 145.161,-341.919 135,-324 113.344,-285.807 121.964,-231.696 128.764,-203.582"/>
<polygon fill="midnightblue" stroke="midnightblue" points="132.243,-204.112 131.388,-193.552 125.471,-202.341 132.243,-204.112"/>
</g>
<!-- Node26 -->
<g id="node26" class="node"><title>Node26</title>
<g id="a_node26"><a xlink:href="Spline_8inl.html" target="_top" xlink:title="Core/Math/Spline.inl">
<polygon fill="white" stroke="black" points="323.5,-304.5 323.5,-323.5 428.5,-323.5 428.5,-304.5 323.5,-304.5"/>
<text text-anchor="middle" x="376" y="-311.5" font-family="Helvetica,sans-Serif" font-size="10.00">Core/Math/Spline.inl</text>
</a>
</g>
</g>
<!-- Node25&#45;&gt;Node26 -->
<g id="edge33" class="edge"><title>Node25&#45;&gt;Node26</title>
<path fill="none" stroke="midnightblue" d="M230.373,-360.444C256.702,-351.28 301.644,-336.688 334.729,-326.519"/>
<polygon fill="midnightblue" stroke="midnightblue" points="336.037,-329.78 344.582,-323.516 333.996,-323.084 336.037,-329.78"/>
</g>
<!-- Node26&#45;&gt;Node20 -->
<g id="edge35" class="edge"><title>Node26&#45;&gt;Node20</title>
<path fill="none" stroke="midnightblue" d="M428.679,-306.953C495.126,-299.099 612.814,-284.434 713,-268 868.944,-242.419 907.546,-233.42 1062,-200 1067.91,-198.72 1074.12,-197.316 1080.25,-195.896"/>
<polygon fill="midnightblue" stroke="midnightblue" points="1081.46,-199.205 1090.4,-193.51 1079.86,-192.391 1081.46,-199.205"/>
</g>
<!-- Node26&#45;&gt;Node25 -->
<g id="edge34" class="edge"><title>Node26&#45;&gt;Node25</title>
<path fill="none" stroke="midnightblue" d="M354.742,-323.516C328.468,-332.664 283.535,-347.255 250.416,-357.436"/>
<polygon fill="midnightblue" stroke="midnightblue" points="249.095,-354.18 240.55,-360.444 251.136,-360.876 249.095,-354.18"/>
</g>
</g>
</svg>
