<?xml version="1.0" encoding="UTF-8" standalone="no"?>
<!DOCTYPE svg PUBLIC "-//W3C//DTD SVG 1.1//EN"
 "http://www.w3.org/Graphics/SVG/1.1/DTD/svg11.dtd">
<!-- Generated by graphviz version 2.36.0 (20140111.2315)
 -->
<!-- Title: /home/travis/build/STORM&#45;IRIT/Radium&#45;Engine/src/Core/Algorithm/Delta/Delta.hpp Pages: 1 -->
<svg width="966pt" height="354pt"
 viewBox="0.00 0.00 966.00 354.00" xmlns="http://www.w3.org/2000/svg" xmlns:xlink="http://www.w3.org/1999/xlink">
<g id="graph0" class="graph" transform="scale(1 1) rotate(0) translate(4 350)">
<title>/home/travis/build/STORM&#45;IRIT/Radium&#45;Engine/src/Core/Algorithm/Delta/Delta.hpp</title>
<polygon fill="white" stroke="none" points="-4,4 -4,-350 962,-350 962,4 -4,4"/>
<!-- Node1 -->
<g id="node1" class="node"><title>Node1</title>
<polygon fill="#bfbfbf" stroke="black" points="294,-293 294,-345 442,-345 442,-293 294,-293"/>
<text text-anchor="start" x="302" y="-333" font-family="Helvetica,sans-Serif" font-size="10.00">/home/travis/build</text>
<text text-anchor="start" x="302" y="-322" font-family="Helvetica,sans-Serif" font-size="10.00">/STORM&#45;IRIT/Radium&#45;Engine</text>
<text text-anchor="start" x="302" y="-311" font-family="Helvetica,sans-Serif" font-size="10.00">/src/Core/Algorithm/Delta</text>
<text text-anchor="middle" x="368" y="-300" font-family="Helvetica,sans-Serif" font-size="10.00">/Delta.hpp</text>
</g>
<!-- Node2 -->
<g id="node2" class="node"><title>Node2</title>
<polygon fill="white" stroke="#bfbfbf" points="226,-236.5 226,-255.5 272,-255.5 272,-236.5 226,-236.5"/>
<text text-anchor="middle" x="249" y="-243.5" font-family="Helvetica,sans-Serif" font-size="10.00">cstdint</text>
</g>
<!-- Node1&#45;&gt;Node2 -->
<g id="edge1" class="edge"><title>Node1&#45;&gt;Node2</title>
<path fill="none" stroke="midnightblue" d="M326.045,-292.968C307.98,-282.19 287.545,-269.997 272.262,-260.879"/>
<polygon fill="midnightblue" stroke="midnightblue" points="273.86,-257.757 263.479,-255.639 270.274,-263.768 273.86,-257.757"/>
</g>
<!-- Node3 -->
<g id="node3" class="node"><title>Node3</title>
<polygon fill="white" stroke="#bfbfbf" points="290,-236.5 290,-255.5 334,-255.5 334,-236.5 290,-236.5"/>
<text text-anchor="middle" x="312" y="-243.5" font-family="Helvetica,sans-Serif" font-size="10.00">vector</text>
</g>
<!-- Node1&#45;&gt;Node3 -->
<g id="edge2" class="edge"><title>Node1&#45;&gt;Node3</title>
<path fill="none" stroke="midnightblue" d="M348.099,-292.768C340.539,-283.183 332.118,-272.506 325.311,-263.877"/>
<polygon fill="midnightblue" stroke="midnightblue" points="327.848,-261.441 318.907,-255.757 322.352,-265.776 327.848,-261.441"/>
</g>
<!-- Node4 -->
<g id="node4" class="node"><title>Node4</title>
<g id="a_node4"><a xlink:href="LinearAlgebra_8hpp.html" target="_top" xlink:title="Core/Math/LinearAlgebra.hpp">
<polygon fill="white" stroke="black" points="352.5,-236.5 352.5,-255.5 495.5,-255.5 495.5,-236.5 352.5,-236.5"/>
<text text-anchor="middle" x="424" y="-243.5" font-family="Helvetica,sans-Serif" font-size="10.00">Core/Math/LinearAlgebra.hpp</text>
</a>
</g>
</g>
<!-- Node1&#45;&gt;Node4 -->
<g id="edge3" class="edge"><title>Node1&#45;&gt;Node4</title>
<path fill="none" stroke="midnightblue" d="M387.901,-292.768C395.461,-283.183 403.882,-272.506 410.689,-263.877"/>
<polygon fill="midnightblue" stroke="midnightblue" points="413.648,-265.776 417.093,-255.757 408.152,-261.441 413.648,-265.776"/>
</g>
<!-- Node5 -->
<g id="node5" class="node"><title>Node5</title>
<g id="a_node5"><a xlink:href="RaCore_8hpp.html" target="_top" xlink:title="Core/RaCore.hpp">
<polygon fill="white" stroke="black" points="752.5,-112.5 752.5,-131.5 845.5,-131.5 845.5,-112.5 752.5,-112.5"/>
<text text-anchor="middle" x="799" y="-119.5" font-family="Helvetica,sans-Serif" font-size="10.00">Core/RaCore.hpp</text>
</a>
</g>
</g>
<!-- Node1&#45;&gt;Node5 -->
<g id="edge23" class="edge"><title>Node1&#45;&gt;Node5</title>
<path fill="none" stroke="midnightblue" d="M442.073,-308.637C553.945,-292.804 757.602,-256.807 801,-200 813.653,-183.438 810.158,-158.501 805.487,-141.526"/>
<polygon fill="midnightblue" stroke="midnightblue" points="808.735,-140.186 802.406,-131.689 802.055,-142.278 808.735,-140.186"/>
</g>
<!-- Node4&#45;&gt;Node5 -->
<g id="edge4" class="edge"><title>Node4&#45;&gt;Node5</title>
<path fill="none" stroke="midnightblue" d="M495.871,-245.118C587.278,-243.747 738.182,-235.9 779,-200 795.412,-185.565 799.176,-159.553 799.658,-141.792"/>
<polygon fill="midnightblue" stroke="midnightblue" points="803.157,-141.73 799.609,-131.748 796.157,-141.764 803.157,-141.73"/>
</g>
<!-- Node12 -->
<g id="node12" class="node"><title>Node12</title>
<polygon fill="white" stroke="#bfbfbf" points="-0.5,-174.5 -0.5,-193.5 64.5,-193.5 64.5,-174.5 -0.5,-174.5"/>
<text text-anchor="middle" x="32" y="-181.5" font-family="Helvetica,sans-Serif" font-size="10.00">Eigen/Core</text>
</g>
<!-- Node4&#45;&gt;Node12 -->
<g id="edge11" class="edge"><title>Node4&#45;&gt;Node12</title>
<path fill="none" stroke="midnightblue" d="M352.3,-236.675C257.54,-225.54 99.4493,-206.448 73,-200 69.5068,-199.148 65.9004,-198.097 62.3426,-196.95"/>
<polygon fill="midnightblue" stroke="midnightblue" points="63.1742,-193.533 52.5794,-193.547 60.8703,-200.143 63.1742,-193.533"/>
</g>
<!-- Node13 -->
<g id="node13" class="node"><title>Node13</title>
<polygon fill="white" stroke="#bfbfbf" points="82.5,-174.5 82.5,-193.5 169.5,-193.5 169.5,-174.5 82.5,-174.5"/>
<text text-anchor="middle" x="126" y="-181.5" font-family="Helvetica,sans-Serif" font-size="10.00">Eigen/Geometry</text>
</g>
<!-- Node4&#45;&gt;Node13 -->
<g id="edge12" class="edge"><title>Node4&#45;&gt;Node13</title>
<path fill="none" stroke="midnightblue" d="M368.471,-236.469C318.397,-228.391 242.877,-215.251 178,-200 173.275,-198.889 168.34,-197.616 163.472,-196.291"/>
<polygon fill="midnightblue" stroke="midnightblue" points="164.235,-192.87 153.661,-193.535 162.341,-199.609 164.235,-192.87"/>
</g>
<!-- Node14 -->
<g id="node14" class="node"><title>Node14</title>
<polygon fill="white" stroke="#bfbfbf" points="187.5,-174.5 187.5,-193.5 262.5,-193.5 262.5,-174.5 187.5,-174.5"/>
<text text-anchor="middle" x="225" y="-181.5" font-family="Helvetica,sans-Serif" font-size="10.00">Eigen/Sparse</text>
</g>
<!-- Node4&#45;&gt;Node14 -->
<g id="edge13" class="edge"><title>Node4&#45;&gt;Node14</title>
<path fill="none" stroke="midnightblue" d="M394.019,-236.462C363.116,-227.596 313.578,-213.2 271,-200 267.608,-198.948 264.081,-197.835 260.557,-196.709"/>
<polygon fill="midnightblue" stroke="midnightblue" points="261.338,-193.283 250.747,-193.542 259.188,-199.945 261.338,-193.283"/>
</g>
<!-- Node15 -->
<g id="node15" class="node"><title>Node15</title>
<polygon fill="white" stroke="#bfbfbf" points="280.5,-174.5 280.5,-193.5 339.5,-193.5 339.5,-174.5 280.5,-174.5"/>
<text text-anchor="middle" x="310" y="-181.5" font-family="Helvetica,sans-Serif" font-size="10.00">functional</text>
</g>
<!-- Node4&#45;&gt;Node15 -->
<g id="edge14" class="edge"><title>Node4&#45;&gt;Node15</title>
<path fill="none" stroke="midnightblue" d="M407.667,-236.403C388.789,-226.468 357.493,-209.997 335.424,-198.381"/>
<polygon fill="midnightblue" stroke="midnightblue" points="336.782,-195.141 326.303,-193.581 333.522,-201.335 336.782,-195.141"/>
</g>
<!-- Node16 -->
<g id="node16" class="node"><title>Node16</title>
<polygon fill="white" stroke="#bfbfbf" points="357.5,-169 357.5,-199 490.5,-199 490.5,-169 357.5,-169"/>
<text text-anchor="start" x="365.5" y="-187" font-family="Helvetica,sans-Serif" font-size="10.00">unsupported/Eigen/Aligned</text>
<text text-anchor="middle" x="424" y="-176" font-family="Helvetica,sans-Serif" font-size="10.00">Vector3</text>
</g>
<!-- Node4&#45;&gt;Node16 -->
<g id="edge15" class="edge"><title>Node4&#45;&gt;Node16</title>
<path fill="none" stroke="midnightblue" d="M424,-236.403C424,-229.341 424,-218.975 424,-209.399"/>
<polygon fill="midnightblue" stroke="midnightblue" points="427.5,-209.141 424,-199.141 420.5,-209.141 427.5,-209.141"/>
</g>
<!-- Node17 -->
<g id="node17" class="node"><title>Node17</title>
<g id="a_node17"><a xlink:href="Math_8hpp.html" target="_top" xlink:title="Core/Math/Math.hpp">
<polygon fill="white" stroke="black" points="509,-174.5 509,-193.5 615,-193.5 615,-174.5 509,-174.5"/>
<text text-anchor="middle" x="562" y="-181.5" font-family="Helvetica,sans-Serif" font-size="10.00">Core/Math/Math.hpp</text>
</a>
</g>
</g>
<!-- Node4&#45;&gt;Node17 -->
<g id="edge16" class="edge"><title>Node4&#45;&gt;Node17</title>
<path fill="none" stroke="midnightblue" d="M443.772,-236.403C467.136,-226.245 506.214,-209.255 533.003,-197.607"/>
<polygon fill="midnightblue" stroke="midnightblue" points="534.489,-200.778 542.265,-193.581 531.698,-194.358 534.489,-200.778"/>
</g>
<!-- Node21 -->
<g id="node21" class="node"><title>Node21</title>
<g id="a_node21"><a xlink:href="LinearAlgebra_8inl.html" target="_top" xlink:title="Core/Math/LinearAlgebra.inl">
<polygon fill="white" stroke="black" points="633.5,-174.5 633.5,-193.5 770.5,-193.5 770.5,-174.5 633.5,-174.5"/>
<text text-anchor="middle" x="702" y="-181.5" font-family="Helvetica,sans-Serif" font-size="10.00">Core/Math/LinearAlgebra.inl</text>
</a>
</g>
</g>
<!-- Node4&#45;&gt;Node21 -->
<g id="edge22" class="edge"><title>Node4&#45;&gt;Node21</title>
<path fill="none" stroke="midnightblue" d="M463.535,-236.467C513.248,-225.738 598.604,-207.316 652.575,-195.667"/>
<polygon fill="midnightblue" stroke="midnightblue" points="653.564,-199.034 662.601,-193.503 652.088,-192.192 653.564,-199.034"/>
</g>
<!-- Node6 -->
<g id="node6" class="node"><title>Node6</title>
<g id="a_node6"><a xlink:href="CoreMacros_8hpp.html" target="_top" xlink:title="Core/CoreMacros.hpp">
<polygon fill="white" stroke="black" points="742.5,-56.5 742.5,-75.5 855.5,-75.5 855.5,-56.5 742.5,-56.5"/>
<text text-anchor="middle" x="799" y="-63.5" font-family="Helvetica,sans-Serif" font-size="10.00">Core/CoreMacros.hpp</text>
</a>
</g>
</g>
<!-- Node5&#45;&gt;Node6 -->
<g id="edge5" class="edge"><title>Node5&#45;&gt;Node6</title>
<path fill="none" stroke="midnightblue" d="M799,-112.083C799,-105.006 799,-94.8611 799,-85.9865"/>
<polygon fill="midnightblue" stroke="midnightblue" points="802.5,-85.751 799,-75.7511 795.5,-85.7511 802.5,-85.751"/>
</g>
<!-- Node7 -->
<g id="node7" class="node"><title>Node7</title>
<polygon fill="white" stroke="#bfbfbf" points="643.5,-0.5 643.5,-19.5 692.5,-19.5 692.5,-0.5 643.5,-0.5"/>
<text text-anchor="middle" x="668" y="-7.5" font-family="Helvetica,sans-Serif" font-size="10.00">cassert</text>
</g>
<!-- Node6&#45;&gt;Node7 -->
<g id="edge6" class="edge"><title>Node6&#45;&gt;Node7</title>
<path fill="none" stroke="midnightblue" d="M778.243,-56.4435C756.684,-47.5566 722.737,-33.5632 698.206,-23.4514"/>
<polygon fill="midnightblue" stroke="midnightblue" points="699.239,-20.0917 688.66,-19.5164 696.572,-26.5634 699.239,-20.0917"/>
</g>
<!-- Node8 -->
<g id="node8" class="node"><title>Node8</title>
<polygon fill="white" stroke="#bfbfbf" points="710.5,-0.5 710.5,-19.5 753.5,-19.5 753.5,-0.5 710.5,-0.5"/>
<text text-anchor="middle" x="732" y="-7.5" font-family="Helvetica,sans-Serif" font-size="10.00">cstdio</text>
</g>
<!-- Node6&#45;&gt;Node8 -->
<g id="edge7" class="edge"><title>Node6&#45;&gt;Node8</title>
<path fill="none" stroke="midnightblue" d="M788.235,-56.324C778.234,-48.2631 763.113,-36.0765 751.07,-26.3695"/>
<polygon fill="midnightblue" stroke="midnightblue" points="752.943,-23.3841 742.961,-19.8339 748.55,-28.8343 752.943,-23.3841"/>
</g>
<!-- Node9 -->
<g id="node9" class="node"><title>Node9</title>
<polygon fill="white" stroke="#bfbfbf" points="772,-0.5 772,-19.5 826,-19.5 826,-0.5 772,-0.5"/>
<text text-anchor="middle" x="799" y="-7.5" font-family="Helvetica,sans-Serif" font-size="10.00">iostream</text>
</g>
<!-- Node6&#45;&gt;Node9 -->
<g id="edge8" class="edge"><title>Node6&#45;&gt;Node9</title>
<path fill="none" stroke="midnightblue" d="M799,-56.083C799,-49.0059 799,-38.8611 799,-29.9865"/>
<polygon fill="midnightblue" stroke="midnightblue" points="802.5,-29.751 799,-19.7511 795.5,-29.7511 802.5,-29.751"/>
</g>
<!-- Node10 -->
<g id="node10" class="node"><title>Node10</title>
<polygon fill="white" stroke="#bfbfbf" points="844,-0.5 844,-19.5 896,-19.5 896,-0.5 844,-0.5"/>
<text text-anchor="middle" x="870" y="-7.5" font-family="Helvetica,sans-Serif" font-size="10.00">sstream</text>
</g>
<!-- Node6&#45;&gt;Node10 -->
<g id="edge9" class="edge"><title>Node6&#45;&gt;Node10</title>
<path fill="none" stroke="midnightblue" d="M810.407,-56.324C821.109,-48.1849 837.341,-35.8395 850.163,-26.0874"/>
<polygon fill="midnightblue" stroke="midnightblue" points="852.544,-28.6734 858.385,-19.8339 848.307,-23.1018 852.544,-28.6734"/>
</g>
<!-- Node11 -->
<g id="node11" class="node"><title>Node11</title>
<polygon fill="white" stroke="#bfbfbf" points="914,-0.5 914,-19.5 958,-19.5 958,-0.5 914,-0.5"/>
<text text-anchor="middle" x="936" y="-7.5" font-family="Helvetica,sans-Serif" font-size="10.00">thread</text>
</g>
<!-- Node6&#45;&gt;Node11 -->
<g id="edge10" class="edge"><title>Node6&#45;&gt;Node11</title>
<path fill="none" stroke="midnightblue" d="M820.708,-56.4435C843.355,-47.5171 879.072,-33.4387 904.752,-23.3168"/>
<polygon fill="midnightblue" stroke="midnightblue" points="906.374,-26.4397 914.394,-19.5164 903.807,-19.9273 906.374,-26.4397"/>
</g>
<!-- Node17&#45;&gt;Node5 -->
<g id="edge17" class="edge"><title>Node17&#45;&gt;Node5</title>
<path fill="none" stroke="midnightblue" d="M595.705,-174.467C637.733,-163.827 709.645,-145.622 755.711,-133.959"/>
<polygon fill="midnightblue" stroke="midnightblue" points="756.576,-137.351 765.412,-131.503 754.858,-130.565 756.576,-137.351"/>
</g>
<!-- Node18 -->
<g id="node18" class="node"><title>Node18</title>
<polygon fill="white" stroke="#bfbfbf" points="421,-112.5 421,-131.5 477,-131.5 477,-112.5 421,-112.5"/>
<text text-anchor="middle" x="449" y="-119.5" font-family="Helvetica,sans-Serif" font-size="10.00">algorithm</text>
</g>
<!-- Node17&#45;&gt;Node18 -->
<g id="edge18" class="edge"><title>Node17&#45;&gt;Node18</title>
<path fill="none" stroke="midnightblue" d="M545.81,-174.403C527.098,-164.468 496.077,-147.997 474.201,-136.381"/>
<polygon fill="midnightblue" stroke="midnightblue" points="475.634,-133.179 465.16,-131.581 472.351,-139.362 475.634,-133.179"/>
</g>
<!-- Node19 -->
<g id="node19" class="node"><title>Node19</title>
<polygon fill="white" stroke="#bfbfbf" points="495,-112.5 495,-131.5 539,-131.5 539,-112.5 495,-112.5"/>
<text text-anchor="middle" x="517" y="-119.5" font-family="Helvetica,sans-Serif" font-size="10.00">cmath</text>
</g>
<!-- Node17&#45;&gt;Node19 -->
<g id="edge19" class="edge"><title>Node17&#45;&gt;Node19</title>
<path fill="none" stroke="midnightblue" d="M555.553,-174.403C548.803,-165.403 538.031,-151.041 529.587,-139.782"/>
<polygon fill="midnightblue" stroke="midnightblue" points="532.235,-137.481 523.435,-131.581 526.635,-141.681 532.235,-137.481"/>
</g>
<!-- Node20 -->
<g id="node20" class="node"><title>Node20</title>
<g id="a_node20"><a xlink:href="Math_8inl.html" target="_top" xlink:title="Core/Math/Math.inl">
<polygon fill="white" stroke="black" points="557,-112.5 557,-131.5 657,-131.5 657,-112.5 557,-112.5"/>
<text text-anchor="middle" x="607" y="-119.5" font-family="Helvetica,sans-Serif" font-size="10.00">Core/Math/Math.inl</text>
</a>
</g>
</g>
<!-- Node17&#45;&gt;Node20 -->
<g id="edge20" class="edge"><title>Node17&#45;&gt;Node20</title>
<path fill="none" stroke="midnightblue" d="M563.547,-174.403C568.445,-165.225 579.125,-150.47 588.85,-139.117"/>
<polygon fill="midnightblue" stroke="midnightblue" points="591.555,-141.345 595.667,-131.581 586.364,-136.649 591.555,-141.345"/>
</g>
<!-- Node20&#45;&gt;Node17 -->
<g id="edge21" class="edge"><title>Node20&#45;&gt;Node17</title>
<path fill="none" stroke="midnightblue" d="M605.462,-131.581C600.57,-140.752 589.893,-155.506 580.166,-166.863"/>
<polygon fill="midnightblue" stroke="midnightblue" points="577.459,-164.639 573.348,-174.403 582.651,-169.334 577.459,-164.639"/>
</g>
</g>
</svg>
