<?xml version="1.0" encoding="UTF-8" standalone="no"?>
<!DOCTYPE svg PUBLIC "-//W3C//DTD SVG 1.1//EN"
 "http://www.w3.org/Graphics/SVG/1.1/DTD/svg11.dtd">
<!-- Generated by graphviz version 2.36.0 (20140111.2315)
 -->
<!-- Title: /home/travis/build/STORM&#45;IRIT/Radium&#45;Engine/src/Core/Algorithm/Delta/Delta.hpp Pages: 1 -->
<svg width="508pt" height="332pt"
 viewBox="0.00 0.00 508.00 332.00" xmlns="http://www.w3.org/2000/svg" xmlns:xlink="http://www.w3.org/1999/xlink">
<g id="graph0" class="graph" transform="scale(1 1) rotate(0) translate(4 328)">
<title>/home/travis/build/STORM&#45;IRIT/Radium&#45;Engine/src/Core/Algorithm/Delta/Delta.hpp</title>
<polygon fill="white" stroke="none" points="-4,4 -4,-328 504,-328 504,4 -4,4"/>
<!-- Node1 -->
<g id="node1" class="node"><title>Node1</title>
<polygon fill="#bfbfbf" stroke="black" points="168,-271 168,-323 316,-323 316,-271 168,-271"/>
<text text-anchor="start" x="176" y="-311" font-family="Helvetica,sans-Serif" font-size="10.00">/home/travis/build</text>
<text text-anchor="start" x="176" y="-300" font-family="Helvetica,sans-Serif" font-size="10.00">/STORM&#45;IRIT/Radium&#45;Engine</text>
<text text-anchor="start" x="176" y="-289" font-family="Helvetica,sans-Serif" font-size="10.00">/src/Core/Algorithm/Delta</text>
<text text-anchor="middle" x="242" y="-278" font-family="Helvetica,sans-Serif" font-size="10.00">/Delta.hpp</text>
</g>
<!-- Node2 -->
<g id="node2" class="node"><title>Node2</title>
<g id="a_node2"><a xlink:href="Delta_8cpp.html" target="_top" xlink:title="/home/travis/build\l/STORM&#45;IRIT/Radium&#45;Engine\l/src/Core/Algorithm/Delta\l/Delta.cpp">
<polygon fill="white" stroke="black" points="2,-181 2,-233 150,-233 150,-181 2,-181"/>
<text text-anchor="start" x="10" y="-221" font-family="Helvetica,sans-Serif" font-size="10.00">/home/travis/build</text>
<text text-anchor="start" x="10" y="-210" font-family="Helvetica,sans-Serif" font-size="10.00">/STORM&#45;IRIT/Radium&#45;Engine</text>
<text text-anchor="start" x="10" y="-199" font-family="Helvetica,sans-Serif" font-size="10.00">/src/Core/Algorithm/Delta</text>
<text text-anchor="middle" x="76" y="-188" font-family="Helvetica,sans-Serif" font-size="10.00">/Delta.cpp</text>
</a>
</g>
</g>
<!-- Node1&#45;&gt;Node2 -->
<g id="edge1" class="edge"><title>Node1&#45;&gt;Node2</title>
<path fill="none" stroke="midnightblue" d="M185.334,-265.96C165.136,-255.253 142.616,-243.315 123.289,-233.069"/>
<polygon fill="midnightblue" stroke="midnightblue" points="183.956,-269.191 194.431,-270.783 187.235,-263.007 183.956,-269.191"/>
</g>
<!-- Node3 -->
<g id="node3" class="node"><title>Node3</title>
<g id="a_node3"><a xlink:href="Diffusion_8hpp.html" target="_top" xlink:title="/home/travis/build\l/STORM&#45;IRIT/Radium&#45;Engine\l/src/Core/Algorithm/Diffusion\l/Diffusion.hpp">
<polygon fill="white" stroke="black" points="168,-181 168,-233 316,-233 316,-181 168,-181"/>
<text text-anchor="start" x="176" y="-221" font-family="Helvetica,sans-Serif" font-size="10.00">/home/travis/build</text>
<text text-anchor="start" x="176" y="-210" font-family="Helvetica,sans-Serif" font-size="10.00">/STORM&#45;IRIT/Radium&#45;Engine</text>
<text text-anchor="start" x="176" y="-199" font-family="Helvetica,sans-Serif" font-size="10.00">/src/Core/Algorithm/Diffusion</text>
<text text-anchor="middle" x="242" y="-188" font-family="Helvetica,sans-Serif" font-size="10.00">/Diffusion.hpp</text>
</a>
</g>
</g>
<!-- Node1&#45;&gt;Node3 -->
<g id="edge2" class="edge"><title>Node1&#45;&gt;Node3</title>
<path fill="none" stroke="midnightblue" d="M242,-260.489C242,-251.309 242,-241.616 242,-233.092"/>
<polygon fill="midnightblue" stroke="midnightblue" points="238.5,-260.547 242,-270.547 245.5,-260.547 238.5,-260.547"/>
</g>
<!-- Node7 -->
<g id="node7" class="node"><title>Node7</title>
<g id="a_node7"><a xlink:href="HeatDiffusion_8hpp.html" target="_top" xlink:title="/home/travis/build\l/STORM&#45;IRIT/Radium&#45;Engine\l/src/Core/Algorithm/HeatDiffusion\l/HeatDiffusion.hpp">
<polygon fill="white" stroke="black" points="335,-181 335,-233 499,-233 499,-181 335,-181"/>
<text text-anchor="start" x="343" y="-221" font-family="Helvetica,sans-Serif" font-size="10.00">/home/travis/build</text>
<text text-anchor="start" x="343" y="-210" font-family="Helvetica,sans-Serif" font-size="10.00">/STORM&#45;IRIT/Radium&#45;Engine</text>
<text text-anchor="start" x="343" y="-199" font-family="Helvetica,sans-Serif" font-size="10.00">/src/Core/Algorithm/HeatDiffusion</text>
<text text-anchor="middle" x="417" y="-188" font-family="Helvetica,sans-Serif" font-size="10.00">/HeatDiffusion.hpp</text>
</a>
</g>
</g>
<!-- Node1&#45;&gt;Node7 -->
<g id="edge6" class="edge"><title>Node1&#45;&gt;Node7</title>
<path fill="none" stroke="midnightblue" d="M301.163,-266.249C322.604,-255.468 346.589,-243.407 367.147,-233.069"/>
<polygon fill="midnightblue" stroke="midnightblue" points="299.51,-263.163 292.148,-270.783 302.654,-269.417 299.51,-263.163"/>
</g>
<!-- Node4 -->
<g id="node4" class="node"><title>Node4</title>
<g id="a_node4"><a xlink:href="Diffusion_8cpp.html" target="_top" xlink:title="/home/travis/build\l/STORM&#45;IRIT/Radium&#45;Engine\l/src/Core/Algorithm/Diffusion\l/Diffusion.cpp">
<polygon fill="white" stroke="black" points="0,-91 0,-143 148,-143 148,-91 0,-91"/>
<text text-anchor="start" x="8" y="-131" font-family="Helvetica,sans-Serif" font-size="10.00">/home/travis/build</text>
<text text-anchor="start" x="8" y="-120" font-family="Helvetica,sans-Serif" font-size="10.00">/STORM&#45;IRIT/Radium&#45;Engine</text>
<text text-anchor="start" x="8" y="-109" font-family="Helvetica,sans-Serif" font-size="10.00">/src/Core/Algorithm/Diffusion</text>
<text text-anchor="middle" x="74" y="-98" font-family="Helvetica,sans-Serif" font-size="10.00">/Diffusion.cpp</text>
</a>
</g>
</g>
<!-- Node3&#45;&gt;Node4 -->
<g id="edge3" class="edge"><title>Node3&#45;&gt;Node4</title>
<path fill="none" stroke="midnightblue" d="M184.927,-176.105C164.415,-165.36 141.507,-153.361 121.858,-143.069"/>
<polygon fill="midnightblue" stroke="midnightblue" points="183.376,-179.243 193.858,-180.783 186.624,-173.042 183.376,-179.243"/>
</g>
<!-- Node5 -->
<g id="node5" class="node"><title>Node5</title>
<g id="a_node5"><a xlink:href="LaplacianSmoothing_8hpp.html" target="_top" xlink:title="/home/travis/build\l/STORM&#45;IRIT/Radium&#45;Engine\l/src/Core/Algorithm/Smoothing\l/LaplacianSmoothing.hpp">
<polygon fill="white" stroke="black" points="166.5,-91 166.5,-143 317.5,-143 317.5,-91 166.5,-91"/>
<text text-anchor="start" x="174.5" y="-131" font-family="Helvetica,sans-Serif" font-size="10.00">/home/travis/build</text>
<text text-anchor="start" x="174.5" y="-120" font-family="Helvetica,sans-Serif" font-size="10.00">/STORM&#45;IRIT/Radium&#45;Engine</text>
<text text-anchor="start" x="174.5" y="-109" font-family="Helvetica,sans-Serif" font-size="10.00">/src/Core/Algorithm/Smoothing</text>
<text text-anchor="middle" x="242" y="-98" font-family="Helvetica,sans-Serif" font-size="10.00">/LaplacianSmoothing.hpp</text>
</a>
</g>
</g>
<!-- Node3&#45;&gt;Node5 -->
<g id="edge4" class="edge"><title>Node3&#45;&gt;Node5</title>
<path fill="none" stroke="midnightblue" d="M242,-170.489C242,-161.309 242,-151.616 242,-143.092"/>
<polygon fill="midnightblue" stroke="midnightblue" points="238.5,-170.547 242,-180.547 245.5,-170.547 238.5,-170.547"/>
</g>
<!-- Node6 -->
<g id="node6" class="node"><title>Node6</title>
<g id="a_node6"><a xlink:href="LaplacianSmoothing_8cpp.html" target="_top" xlink:title="/home/travis/build\l/STORM&#45;IRIT/Radium&#45;Engine\l/src/Core/Algorithm/Smoothing\l/LaplacianSmoothing.cpp">
<polygon fill="white" stroke="black" points="166.5,-1 166.5,-53 317.5,-53 317.5,-1 166.5,-1"/>
<text text-anchor="start" x="174.5" y="-41" font-family="Helvetica,sans-Serif" font-size="10.00">/home/travis/build</text>
<text text-anchor="start" x="174.5" y="-30" font-family="Helvetica,sans-Serif" font-size="10.00">/STORM&#45;IRIT/Radium&#45;Engine</text>
<text text-anchor="start" x="174.5" y="-19" font-family="Helvetica,sans-Serif" font-size="10.00">/src/Core/Algorithm/Smoothing</text>
<text text-anchor="middle" x="242" y="-8" font-family="Helvetica,sans-Serif" font-size="10.00">/LaplacianSmoothing.cpp</text>
</a>
</g>
</g>
<!-- Node5&#45;&gt;Node6 -->
<g id="edge5" class="edge"><title>Node5&#45;&gt;Node6</title>
<path fill="none" stroke="midnightblue" d="M242,-80.4892C242,-71.3088 242,-61.616 242,-53.0921"/>
<polygon fill="midnightblue" stroke="midnightblue" points="238.5,-80.5467 242,-90.5468 245.5,-80.5468 238.5,-80.5467"/>
</g>
<!-- Node8 -->
<g id="node8" class="node"><title>Node8</title>
<g id="a_node8"><a xlink:href="HeatDiffusion_8cpp.html" target="_top" xlink:title="/home/travis/build\l/STORM&#45;IRIT/Radium&#45;Engine\l/src/Core/Algorithm/HeatDiffusion\l/HeatDiffusion.cpp">
<polygon fill="white" stroke="black" points="336,-91 336,-143 500,-143 500,-91 336,-91"/>
<text text-anchor="start" x="344" y="-131" font-family="Helvetica,sans-Serif" font-size="10.00">/home/travis/build</text>
<text text-anchor="start" x="344" y="-120" font-family="Helvetica,sans-Serif" font-size="10.00">/STORM&#45;IRIT/Radium&#45;Engine</text>
<text text-anchor="start" x="344" y="-109" font-family="Helvetica,sans-Serif" font-size="10.00">/src/Core/Algorithm/HeatDiffusion</text>
<text text-anchor="middle" x="418" y="-98" font-family="Helvetica,sans-Serif" font-size="10.00">/HeatDiffusion.cpp</text>
</a>
</g>
</g>
<!-- Node7&#45;&gt;Node8 -->
<g id="edge7" class="edge"><title>Node7&#45;&gt;Node8</title>
<path fill="none" stroke="midnightblue" d="M417.404,-170.489C417.508,-161.309 417.618,-151.616 417.715,-143.092"/>
<polygon fill="midnightblue" stroke="midnightblue" points="413.903,-170.508 417.289,-180.547 420.903,-170.587 413.903,-170.508"/>
</g>
</g>
</svg>
