<?xml version="1.0" encoding="UTF-8" standalone="no"?>
<!DOCTYPE svg PUBLIC "-//W3C//DTD SVG 1.1//EN"
 "http://www.w3.org/Graphics/SVG/1.1/DTD/svg11.dtd">
<!-- Generated by graphviz version 2.36.0 (20140111.2315)
 -->
<!-- Title: /home/travis/build/STORM&#45;IRIT/Radium&#45;Engine/src/Engine/Managers/ComponentMessenger Pages: 1 -->
<svg width="224pt" height="151pt"
 viewBox="0.00 0.00 224.00 151.00" xmlns="http://www.w3.org/2000/svg" xmlns:xlink="http://www.w3.org/1999/xlink">
<g id="graph0" class="graph" transform="scale(1 1) rotate(0) translate(4 147)">
<title>/home/travis/build/STORM&#45;IRIT/Radium&#45;Engine/src/Engine/Managers/ComponentMessenger</title>
<polygon fill="white" stroke="none" points="-4,4 -4,-147 220,-147 220,4 -4,4"/>
<g id="clust1" class="cluster"><title>clusterdir_06113b60808b1bbb52a01dfd2c3a8657</title>
<g id="a_clust1"><a xlink:href="dir_06113b60808b1bbb52a01dfd2c3a8657.html" target="_top" xlink:title="Managers">
<polygon fill="#ddddee" stroke="black" points="8,-64 8,-135 140,-135 140,-64 8,-64"/>
<text text-anchor="middle" x="74" y="-123" font-family="Helvetica,sans-Serif" font-size="10.00">Managers</text>
</a>
</g>
</g>
<!-- dir_f60fd3cff26f751d5a136115ec0dccfa -->
<g id="node1" class="node"><title>dir_f60fd3cff26f751d5a136115ec0dccfa</title>
<g id="a_node1"><a xlink:href="dir_f60fd3cff26f751d5a136115ec0dccfa.html" target="_top" xlink:title="ComponentMessenger">
<polygon fill="#eeeeff" stroke="black" points="131.25,-108 16.75,-108 16.75,-72 131.25,-72 131.25,-108"/>
<text text-anchor="middle" x="74" y="-87.5" font-family="Helvetica,sans-Serif" font-size="10.00">ComponentMessenger</text>
</a>
</g>
</g>
<!-- dir_a2f0e5642e47e7ed59fe0f0829eafb5f -->
<g id="node2" class="node"><title>dir_a2f0e5642e47e7ed59fe0f0829eafb5f</title>
<g id="a_node2"><a xlink:href="dir_a2f0e5642e47e7ed59fe0f0829eafb5f.html" target="_top" xlink:title="Core">
<polygon fill="white" stroke="red" points="155,-36 101,-36 101,-0 155,-0 155,-36"/>
<text text-anchor="middle" x="128" y="-15.5" font-family="Helvetica,sans-Serif" font-size="10.00">Core</text>
</a>
</g>
</g>
<!-- dir_f60fd3cff26f751d5a136115ec0dccfa&#45;&gt;dir_a2f0e5642e47e7ed59fe0f0829eafb5f -->
<g id="edge3" class="edge"><title>dir_f60fd3cff26f751d5a136115ec0dccfa&#45;&gt;dir_a2f0e5642e47e7ed59fe0f0829eafb5f</title>
<path fill="none" stroke="black" d="M87.3483,-71.6966C93.7568,-63.3893 101.558,-53.2771 108.606,-44.1407"/>
<polygon fill="black" stroke="black" points="111.468,-46.16 114.805,-36.1043 105.926,-41.8844 111.468,-46.16"/>
<g id="a_edge3&#45;headlabel"><a xlink:href="dir_000069_000020.html" target="_top" xlink:title="2">
<text text-anchor="middle" x="111.521" y="-48.2404" font-family="Helvetica,sans-Serif" font-size="10.00">2</text>
</a>
</g>
</g>
<!-- dir_d0f3276f03e9a9cb8f8ba3f2a5ea1262 -->
<g id="node3" class="node"><title>dir_d0f3276f03e9a9cb8f8ba3f2a5ea1262</title>
<g id="a_node3"><a xlink:href="dir_d0f3276f03e9a9cb8f8ba3f2a5ea1262.html" target="_top" xlink:title="Component">
<polygon fill="none" stroke="black" points="216.25,-108 149.75,-108 149.75,-72 216.25,-72 216.25,-108"/>
<text text-anchor="middle" x="183" y="-87.5" font-family="Helvetica,sans-Serif" font-size="10.00">Component</text>
</a>
</g>
</g>
<!-- dir_f60fd3cff26f751d5a136115ec0dccfa&#45;&gt;dir_d0f3276f03e9a9cb8f8ba3f2a5ea1262 -->
<g id="edge4" class="edge"><title>dir_f60fd3cff26f751d5a136115ec0dccfa&#45;&gt;dir_d0f3276f03e9a9cb8f8ba3f2a5ea1262</title>
<path fill="none" stroke="black" d="M131.48,-90C134.122,-90 136.763,-90 139.405,-90"/>
<polygon fill="black" stroke="black" points="139.593,-93.5001 149.593,-90 139.593,-86.5001 139.593,-93.5001"/>
<g id="a_edge4&#45;headlabel"><a xlink:href="dir_000069_000064.html" target="_top" xlink:title="1">
<text text-anchor="middle" x="135.998" y="-93.8393" font-family="Helvetica,sans-Serif" font-size="10.00">1</text>
</a>
</g>
</g>
<!-- dir_d0f3276f03e9a9cb8f8ba3f2a5ea1262&#45;&gt;dir_f60fd3cff26f751d5a136115ec0dccfa -->
<g id="edge2" class="edge"><title>dir_d0f3276f03e9a9cb8f8ba3f2a5ea1262&#45;&gt;dir_f60fd3cff26f751d5a136115ec0dccfa</title>
<path fill="none" stroke="black" d="M149.593,-90C146.951,-90 144.31,-90 141.669,-90"/>
<polygon fill="black" stroke="black" points="141.481,-86.5001 131.48,-90 141.48,-93.5001 141.481,-86.5001"/>
<g id="a_edge2&#45;headlabel"><a xlink:href="dir_000064_000069.html" target="_top" xlink:title="1">
<text text-anchor="middle" x="145.075" y="-81.1607" font-family="Helvetica,sans-Serif" font-size="10.00">1</text>
</a>
</g>
</g>
<!-- dir_d0f3276f03e9a9cb8f8ba3f2a5ea1262&#45;&gt;dir_a2f0e5642e47e7ed59fe0f0829eafb5f -->
<g id="edge1" class="edge"><title>dir_d0f3276f03e9a9cb8f8ba3f2a5ea1262&#45;&gt;dir_a2f0e5642e47e7ed59fe0f0829eafb5f</title>
<path fill="none" stroke="black" d="M169.404,-71.6966C162.877,-63.3893 154.932,-53.2771 147.753,-44.1407"/>
<polygon fill="black" stroke="black" points="150.369,-41.8051 141.439,-36.1043 144.865,-46.1299 150.369,-41.8051"/>
<g id="a_edge1&#45;headlabel"><a xlink:href="dir_000064_000020.html" target="_top" xlink:title="15">
<text text-anchor="middle" x="154.823" y="-40.3775" font-family="Helvetica,sans-Serif" font-size="10.00">15</text>
</a>
</g>
</g>
</g>
</svg>
