<?xml version="1.0" encoding="UTF-8" standalone="no"?>
<!DOCTYPE svg PUBLIC "-//W3C//DTD SVG 1.1//EN"
 "http://www.w3.org/Graphics/SVG/1.1/DTD/svg11.dtd">
<!-- Generated by graphviz version 2.36.0 (20140111.2315)
 -->
<!-- Title: /home/travis/build/STORM&#45;IRIT/Radium&#45;Engine/Plugins/Dummy Pages: 1 -->
<svg width="182pt" height="159pt"
 viewBox="0.00 0.00 182.00 159.00" xmlns="http://www.w3.org/2000/svg" xmlns:xlink="http://www.w3.org/1999/xlink">
<g id="graph0" class="graph" transform="scale(1 1) rotate(0) translate(4 155)">
<title>/home/travis/build/STORM&#45;IRIT/Radium&#45;Engine/Plugins/Dummy</title>
<polygon fill="white" stroke="none" points="-4,4 -4,-155 178,-155 178,4 -4,4"/>
<g id="clust1" class="cluster"><title>clusterdir_0b4eaef40a1fe20bedafe9e8e719ce66</title>
<g id="a_clust1"><a xlink:href="dir_0b4eaef40a1fe20bedafe9e8e719ce66.html" target="_top" xlink:title="Plugins">
<polygon fill="#ddddee" stroke="black" points="8,-56 8,-143 166,-143 166,-56 8,-56"/>
<text text-anchor="middle" x="87" y="-131" font-family="Helvetica,sans-Serif" font-size="10.00">Plugins</text>
</a>
</g>
</g>
<g id="clust2" class="cluster"><title>clusterdir_32a1c999cb5aa5fd6f9e249225c96ab7</title>
<g id="a_clust2"><a xlink:href="dir_32a1c999cb5aa5fd6f9e249225c96ab7.html" target="_top">
<polygon fill="#eeeeff" stroke="black" points="16,-64 16,-116 158,-116 158,-64 16,-64"/>
</a>
</g>
</g>
<!-- dir_32a1c999cb5aa5fd6f9e249225c96ab7 -->
<g id="node1" class="node"><title>dir_32a1c999cb5aa5fd6f9e249225c96ab7</title>
<text text-anchor="middle" x="123" y="-87.5" font-family="Helvetica,sans-Serif" font-size="10.00">Dummy</text>
</g>
<!-- dir_28d2c1162168dfa5ceade1f38abe0b38 -->
<g id="node2" class="node"><title>dir_28d2c1162168dfa5ceade1f38abe0b38</title>
<g id="a_node2"><a xlink:href="dir_28d2c1162168dfa5ceade1f38abe0b38.html" target="_top" xlink:title="src">
<polygon fill="white" stroke="black" points="78,-108 24,-108 24,-72 78,-72 78,-108"/>
<text text-anchor="middle" x="51" y="-87.5" font-family="Helvetica,sans-Serif" font-size="10.00">src</text>
</a>
</g>
</g>
<!-- dir_68267d1309a1af8e8297ef4c3efbcdba -->
<g id="node3" class="node"><title>dir_68267d1309a1af8e8297ef4c3efbcdba</title>
<g id="a_node3"><a xlink:href="dir_68267d1309a1af8e8297ef4c3efbcdba.html" target="_top" xlink:title="src">
<polygon fill="white" stroke="red" points="78,-36 24,-36 24,-0 78,-0 78,-36"/>
<text text-anchor="middle" x="51" y="-15.5" font-family="Helvetica,sans-Serif" font-size="10.00">src</text>
</a>
</g>
</g>
<!-- dir_28d2c1162168dfa5ceade1f38abe0b38&#45;&gt;dir_68267d1309a1af8e8297ef4c3efbcdba -->
<g id="edge1" class="edge"><title>dir_28d2c1162168dfa5ceade1f38abe0b38&#45;&gt;dir_68267d1309a1af8e8297ef4c3efbcdba</title>
<path fill="none" stroke="black" d="M51,-71.6966C51,-63.9827 51,-54.7125 51,-46.1124"/>
<polygon fill="black" stroke="black" points="54.5001,-46.1043 51,-36.1043 47.5001,-46.1044 54.5001,-46.1043"/>
<g id="a_edge1&#45;headlabel"><a xlink:href="dir_000009_000019.html" target="_top" xlink:title="23">
<text text-anchor="middle" x="57.3393" y="-47.199" font-family="Helvetica,sans-Serif" font-size="10.00">23</text>
</a>
</g>
</g>
</g>
</svg>
