<?xml version="1.0" encoding="UTF-8" standalone="no"?>
<!DOCTYPE svg PUBLIC "-//W3C//DTD SVG 1.1//EN"
 "http://www.w3.org/Graphics/SVG/1.1/DTD/svg11.dtd">
<!-- Generated by graphviz version 2.36.0 (20140111.2315)
 -->
<!-- Title: /home/travis/build/STORM&#45;IRIT/Radium&#45;Engine/src/Core/Algorithm/ScalarField Pages: 1 -->
<svg width="128pt" height="295pt"
 viewBox="0.00 0.00 128.00 295.00" xmlns="http://www.w3.org/2000/svg" xmlns:xlink="http://www.w3.org/1999/xlink">
<g id="graph0" class="graph" transform="scale(1 1) rotate(0) translate(4 291)">
<title>/home/travis/build/STORM&#45;IRIT/Radium&#45;Engine/src/Core/Algorithm/ScalarField</title>
<polygon fill="white" stroke="none" points="-4,4 -4,-291 124,-291 124,4 -4,4"/>
<g id="clust1" class="cluster"><title>clusterdir_ec48d91ab8a264b56e678b01a1ccafad</title>
<g id="a_clust1"><a xlink:href="dir_ec48d91ab8a264b56e678b01a1ccafad.html" target="_top" xlink:title="Algorithm">
<polygon fill="#ddddee" stroke="black" points="8,-208 8,-279 90,-279 90,-208 8,-208"/>
<text text-anchor="middle" x="49" y="-267" font-family="Helvetica,sans-Serif" font-size="10.00">Algorithm</text>
</a>
</g>
</g>
<!-- dir_0a9eac736250dab641e03be9c835eb0a -->
<g id="node1" class="node"><title>dir_0a9eac736250dab641e03be9c835eb0a</title>
<g id="a_node1"><a xlink:href="dir_0a9eac736250dab641e03be9c835eb0a.html" target="_top" xlink:title="ScalarField">
<polygon fill="#eeeeff" stroke="black" points="81.25,-252 16.75,-252 16.75,-216 81.25,-216 81.25,-252"/>
<text text-anchor="middle" x="49" y="-231.5" font-family="Helvetica,sans-Serif" font-size="10.00">ScalarField</text>
</a>
</g>
</g>
<!-- dir_1456dd235032e023892318efbecb420b -->
<g id="node2" class="node"><title>dir_1456dd235032e023892318efbecb420b</title>
<g id="a_node2"><a xlink:href="dir_1456dd235032e023892318efbecb420b.html" target="_top" xlink:title="Containers">
<polygon fill="none" stroke="black" points="64,-36 0,-36 0,-0 64,-0 64,-36"/>
<text text-anchor="middle" x="32" y="-15.5" font-family="Helvetica,sans-Serif" font-size="10.00">Containers</text>
</a>
</g>
</g>
<!-- dir_0a9eac736250dab641e03be9c835eb0a&#45;&gt;dir_1456dd235032e023892318efbecb420b -->
<g id="edge1" class="edge"><title>dir_0a9eac736250dab641e03be9c835eb0a&#45;&gt;dir_1456dd235032e023892318efbecb420b</title>
<path fill="none" stroke="black" d="M33.3901,-215.774C25.6271,-206.03 17.0541,-193.184 13,-180 -1.03371,-134.363 11.8749,-78.5118 22.1812,-46.0233"/>
<polygon fill="black" stroke="black" points="25.5673,-46.9321 25.3985,-36.3386 18.9242,-44.7252 25.5673,-46.9321"/>
<g id="a_edge1&#45;headlabel"><a xlink:href="dir_000025_000033.html" target="_top" xlink:title="1">
<text text-anchor="middle" x="27.1286" y="-48.7385" font-family="Helvetica,sans-Serif" font-size="10.00">1</text>
</a>
</g>
</g>
<!-- dir_d080e052e6032887076b6b5756e5361d -->
<g id="node3" class="node"><title>dir_d080e052e6032887076b6b5756e5361d</title>
<g id="a_node3"><a xlink:href="dir_d080e052e6032887076b6b5756e5361d.html" target="_top" xlink:title="Mesh">
<polygon fill="white" stroke="red" points="76,-180 22,-180 22,-144 76,-144 76,-180"/>
<text text-anchor="middle" x="49" y="-159.5" font-family="Helvetica,sans-Serif" font-size="10.00">Mesh</text>
</a>
</g>
</g>
<!-- dir_0a9eac736250dab641e03be9c835eb0a&#45;&gt;dir_d080e052e6032887076b6b5756e5361d -->
<g id="edge2" class="edge"><title>dir_0a9eac736250dab641e03be9c835eb0a&#45;&gt;dir_d080e052e6032887076b6b5756e5361d</title>
<path fill="none" stroke="black" d="M49,-215.697C49,-207.983 49,-198.712 49,-190.112"/>
<polygon fill="black" stroke="black" points="52.5001,-190.104 49,-180.104 45.5001,-190.104 52.5001,-190.104"/>
<g id="a_edge2&#45;headlabel"><a xlink:href="dir_000025_000054.html" target="_top" xlink:title="1">
<text text-anchor="middle" x="55.3393" y="-191.199" font-family="Helvetica,sans-Serif" font-size="10.00">1</text>
</a>
</g>
</g>
<!-- dir_cb2b5dfd43482fb277f6333d539f1f06 -->
<g id="node4" class="node"><title>dir_cb2b5dfd43482fb277f6333d539f1f06</title>
<g id="a_node4"><a xlink:href="dir_cb2b5dfd43482fb277f6333d539f1f06.html" target="_top" xlink:title="Geometry">
<polygon fill="white" stroke="red" points="119.25,-108 60.75,-108 60.75,-72 119.25,-72 119.25,-108"/>
<text text-anchor="middle" x="90" y="-87.5" font-family="Helvetica,sans-Serif" font-size="10.00">Geometry</text>
</a>
</g>
</g>
<!-- dir_0a9eac736250dab641e03be9c835eb0a&#45;&gt;dir_cb2b5dfd43482fb277f6333d539f1f06 -->
<g id="edge3" class="edge"><title>dir_0a9eac736250dab641e03be9c835eb0a&#45;&gt;dir_cb2b5dfd43482fb277f6333d539f1f06</title>
<path fill="none" stroke="black" d="M64.3162,-215.679C71.9931,-205.908 80.5776,-193.065 85,-180 91.7294,-160.12 92.732,-136.325 92.187,-118.343"/>
<polygon fill="black" stroke="black" points="95.6777,-118.064 91.702,-108.243 88.6857,-118.399 95.6777,-118.064"/>
<g id="a_edge3&#45;headlabel"><a xlink:href="dir_000025_000038.html" target="_top" xlink:title="1">
<text text-anchor="middle" x="98.686" y="-119.018" font-family="Helvetica,sans-Serif" font-size="10.00">1</text>
</a>
</g>
</g>
<!-- dir_d080e052e6032887076b6b5756e5361d&#45;&gt;dir_1456dd235032e023892318efbecb420b -->
<g id="edge4" class="edge"><title>dir_d080e052e6032887076b6b5756e5361d&#45;&gt;dir_1456dd235032e023892318efbecb420b</title>
<path fill="none" stroke="black" d="M46.9494,-143.871C44.0521,-119.67 38.7295,-75.2108 35.2795,-46.3932"/>
<polygon fill="black" stroke="black" points="38.7218,-45.7023 34.0579,-36.1893 31.7715,-46.5344 38.7218,-45.7023"/>
<g id="a_edge4&#45;headlabel"><a xlink:href="dir_000054_000033.html" target="_top" xlink:title="2">
<text text-anchor="middle" x="41.9682" y="-46.4339" font-family="Helvetica,sans-Serif" font-size="10.00">2</text>
</a>
</g>
</g>
<!-- dir_d080e052e6032887076b6b5756e5361d&#45;&gt;dir_cb2b5dfd43482fb277f6333d539f1f06 -->
<g id="edge5" class="edge"><title>dir_d080e052e6032887076b6b5756e5361d&#45;&gt;dir_cb2b5dfd43482fb277f6333d539f1f06</title>
<path fill="none" stroke="black" d="M53.2191,-143.697C57.1461,-135.559 62.721,-125.689 68.4127,-116.701"/>
<polygon fill="black" stroke="black" points="71.4994,-118.378 74.0867,-108.104 65.6571,-114.522 71.4994,-118.378"/>
<g id="a_edge5&#45;headlabel"><a xlink:href="dir_000054_000038.html" target="_top" xlink:title="2">
<text text-anchor="middle" x="71.8891" y="-120.442" font-family="Helvetica,sans-Serif" font-size="10.00">2</text>
</a>
</g>
</g>
<!-- dir_cb2b5dfd43482fb277f6333d539f1f06&#45;&gt;dir_1456dd235032e023892318efbecb420b -->
<g id="edge6" class="edge"><title>dir_cb2b5dfd43482fb277f6333d539f1f06&#45;&gt;dir_1456dd235032e023892318efbecb420b</title>
<path fill="none" stroke="black" d="M75.6629,-71.6966C68.7095,-63.3046 60.2298,-53.0705 52.5994,-43.8613"/>
<polygon fill="black" stroke="black" points="55.2475,-41.5715 46.1722,-36.1043 49.8573,-46.0376 55.2475,-41.5715"/>
<g id="a_edge6&#45;headlabel"><a xlink:href="dir_000038_000033.html" target="_top" xlink:title="12">
<text text-anchor="middle" x="59.7271" y="-40.0279" font-family="Helvetica,sans-Serif" font-size="10.00">12</text>
</a>
</g>
</g>
<!-- dir_cb2b5dfd43482fb277f6333d539f1f06&#45;&gt;dir_d080e052e6032887076b6b5756e5361d -->
<g id="edge7" class="edge"><title>dir_cb2b5dfd43482fb277f6333d539f1f06&#45;&gt;dir_d080e052e6032887076b6b5756e5361d</title>
<path fill="none" stroke="black" d="M85.8768,-108.104C81.9768,-116.214 76.4164,-126.076 70.7267,-135.078"/>
<polygon fill="black" stroke="black" points="67.628,-133.42 65.0506,-143.697 73.474,-137.27 67.628,-133.42"/>
<g id="a_edge7&#45;headlabel"><a xlink:href="dir_000038_000054.html" target="_top" xlink:title="10">
<text text-anchor="middle" x="67.2339" y="-126.356" font-family="Helvetica,sans-Serif" font-size="10.00">10</text>
</a>
</g>
</g>
</g>
</svg>
