<?xml version="1.0" encoding="UTF-8" standalone="no"?>
<!DOCTYPE svg PUBLIC "-//W3C//DTD SVG 1.1//EN"
 "http://www.w3.org/Graphics/SVG/1.1/DTD/svg11.dtd">
<!-- Generated by graphviz version 2.36.0 (20140111.2315)
 -->
<!-- Title: /home/travis/build/STORM&#45;IRIT/Radium&#45;Engine/Plugins/MeshFeatureTracking/src Pages: 1 -->
<svg width="135pt" height="231pt"
 viewBox="0.00 0.00 135.00 231.00" xmlns="http://www.w3.org/2000/svg" xmlns:xlink="http://www.w3.org/1999/xlink">
<g id="graph0" class="graph" transform="scale(1 1) rotate(0) translate(4 227)">
<title>/home/travis/build/STORM&#45;IRIT/Radium&#45;Engine/Plugins/MeshFeatureTracking/src</title>
<polygon fill="white" stroke="none" points="-4,4 -4,-227 131,-227 131,4 -4,4"/>
<g id="clust1" class="cluster"><title>clusterdir_25434094def706cc6b831b685850d58f</title>
<g id="a_clust1"><a xlink:href="dir_25434094def706cc6b831b685850d58f.html" target="_top" xlink:title="MeshFeatureTracking">
<polygon fill="#ddddee" stroke="black" points="8,-56 8,-215 119,-215 119,-56 8,-56"/>
<text text-anchor="middle" x="63.5" y="-203" font-family="Helvetica,sans-Serif" font-size="10.00">MeshFeatureTracking</text>
</a>
</g>
</g>
<g id="clust2" class="cluster"><title>clusterdir_1025807adf00fd9eb737e04f5161a96b</title>
<g id="a_clust2"><a xlink:href="dir_1025807adf00fd9eb737e04f5161a96b.html" target="_top">
<polygon fill="#eeeeff" stroke="black" points="28,-64 28,-188 98,-188 98,-64 28,-64"/>
</a>
</g>
</g>
<!-- dir_1025807adf00fd9eb737e04f5161a96b -->
<g id="node1" class="node"><title>dir_1025807adf00fd9eb737e04f5161a96b</title>
<text text-anchor="middle" x="63" y="-159.5" font-family="Helvetica,sans-Serif" font-size="10.00">src</text>
</g>
<!-- dir_aab55eebc4bcb676d527af25ba4e9947 -->
<g id="node2" class="node"><title>dir_aab55eebc4bcb676d527af25ba4e9947</title>
<g id="a_node2"><a xlink:href="dir_aab55eebc4bcb676d527af25ba4e9947.html" target="_top" xlink:title="UI">
<polygon fill="white" stroke="black" points="90,-108 36,-108 36,-72 90,-72 90,-108"/>
<text text-anchor="middle" x="63" y="-87.5" font-family="Helvetica,sans-Serif" font-size="10.00">UI</text>
</a>
</g>
</g>
<!-- dir_1025807adf00fd9eb737e04f5161a96b&#45;&gt;dir_aab55eebc4bcb676d527af25ba4e9947 -->
<g id="edge2" class="edge"><title>dir_1025807adf00fd9eb737e04f5161a96b&#45;&gt;dir_aab55eebc4bcb676d527af25ba4e9947</title>
<path fill="none" stroke="black" d="M63,-143.697C63,-135.983 63,-126.712 63,-118.112"/>
<polygon fill="black" stroke="black" points="66.5001,-118.104 63,-108.104 59.5001,-118.104 66.5001,-118.104"/>
<g id="a_edge2&#45;headlabel"><a xlink:href="dir_000011_000012.html" target="_top" xlink:title="3">
<text text-anchor="middle" x="69.3393" y="-119.199" font-family="Helvetica,sans-Serif" font-size="10.00">3</text>
</a>
</g>
</g>
<!-- dir_68267d1309a1af8e8297ef4c3efbcdba -->
<g id="node3" class="node"><title>dir_68267d1309a1af8e8297ef4c3efbcdba</title>
<g id="a_node3"><a xlink:href="dir_68267d1309a1af8e8297ef4c3efbcdba.html" target="_top" xlink:title="src">
<polygon fill="white" stroke="red" points="117,-36 63,-36 63,-0 117,-0 117,-36"/>
<text text-anchor="middle" x="90" y="-15.5" font-family="Helvetica,sans-Serif" font-size="10.00">src</text>
</a>
</g>
</g>
<!-- dir_1025807adf00fd9eb737e04f5161a96b&#45;&gt;dir_68267d1309a1af8e8297ef4c3efbcdba -->
<g id="edge1" class="edge"><title>dir_1025807adf00fd9eb737e04f5161a96b&#45;&gt;dir_68267d1309a1af8e8297ef4c3efbcdba</title>
<path fill="none" stroke="black" d="M78.6099,-143.774C86.3729,-134.03 94.9459,-121.184 99,-108 105.22,-87.7736 102.269,-63.865 98.1475,-45.9241"/>
<polygon fill="black" stroke="black" points="101.51,-44.9471 95.6461,-36.1232 94.7278,-46.6782 101.51,-44.9471"/>
<g id="a_edge1&#45;headlabel"><a xlink:href="dir_000011_000019.html" target="_top" xlink:title="23">
<text text-anchor="middle" x="105.15" y="-45.228" font-family="Helvetica,sans-Serif" font-size="10.00">23</text>
</a>
</g>
</g>
<!-- dir_aab55eebc4bcb676d527af25ba4e9947&#45;&gt;dir_68267d1309a1af8e8297ef4c3efbcdba -->
<g id="edge3" class="edge"><title>dir_aab55eebc4bcb676d527af25ba4e9947&#45;&gt;dir_68267d1309a1af8e8297ef4c3efbcdba</title>
<path fill="none" stroke="black" d="M69.6742,-71.6966C72.7149,-63.8132 76.3827,-54.3042 79.7607,-45.5464"/>
<polygon fill="black" stroke="black" points="83.0693,-46.6939 83.4026,-36.1043 76.5383,-44.1748 83.0693,-46.6939"/>
<g id="a_edge3&#45;headlabel"><a xlink:href="dir_000012_000019.html" target="_top" xlink:title="1">
<text text-anchor="middle" x="84.4248" y="-48.5695" font-family="Helvetica,sans-Serif" font-size="10.00">1</text>
</a>
</g>
</g>
</g>
</svg>
