<?xml version="1.0" encoding="UTF-8" standalone="no"?>
<!DOCTYPE svg PUBLIC "-//W3C//DTD SVG 1.1//EN"
 "http://www.w3.org/Graphics/SVG/1.1/DTD/svg11.dtd">
<!-- Generated by graphviz version 2.36.0 (20140111.2315)
 -->
<!-- Title: /home/travis/build/STORM&#45;IRIT/Radium&#45;Engine/src/Core/Animation/Skinning Pages: 1 -->
<svg width="473pt" height="655pt"
 viewBox="0.00 0.00 473.00 655.00" xmlns="http://www.w3.org/2000/svg" xmlns:xlink="http://www.w3.org/1999/xlink">
<g id="graph0" class="graph" transform="scale(1 1) rotate(0) translate(4 651)">
<title>/home/travis/build/STORM&#45;IRIT/Radium&#45;Engine/src/Core/Animation/Skinning</title>
<polygon fill="white" stroke="none" points="-4,4 -4,-651 469,-651 469,4 -4,4"/>
<g id="clust1" class="cluster"><title>clusterdir_721a74ea40d2768c46a3c9514389a16b</title>
<g id="a_clust1"><a xlink:href="dir_721a74ea40d2768c46a3c9514389a16b.html" target="_top" xlink:title="Animation">
<polygon fill="#ddddee" stroke="black" points="157,-568 157,-639 227,-639 227,-568 157,-568"/>
<text text-anchor="middle" x="192" y="-627" font-family="Helvetica,sans-Serif" font-size="10.00">Animation</text>
</a>
</g>
</g>
<!-- dir_7370db5ffd6e13fa616902e0fbacb1f0 -->
<g id="node1" class="node"><title>dir_7370db5ffd6e13fa616902e0fbacb1f0</title>
<g id="a_node1"><a xlink:href="dir_7370db5ffd6e13fa616902e0fbacb1f0.html" target="_top" xlink:title="Skinning">
<polygon fill="#eeeeff" stroke="black" points="219,-612 165,-612 165,-576 219,-576 219,-612"/>
<text text-anchor="middle" x="192" y="-591.5" font-family="Helvetica,sans-Serif" font-size="10.00">Skinning</text>
</a>
</g>
</g>
<!-- dir_2c6b9e60b5cfd48e3d1f71fa90957520 -->
<g id="node2" class="node"><title>dir_2c6b9e60b5cfd48e3d1f71fa90957520</title>
<g id="a_node2"><a xlink:href="dir_2c6b9e60b5cfd48e3d1f71fa90957520.html" target="_top" xlink:title="Pose">
<polygon fill="none" stroke="black" points="247,-540 193,-540 193,-504 247,-504 247,-540"/>
<text text-anchor="middle" x="220" y="-519.5" font-family="Helvetica,sans-Serif" font-size="10.00">Pose</text>
</a>
</g>
</g>
<!-- dir_7370db5ffd6e13fa616902e0fbacb1f0&#45;&gt;dir_2c6b9e60b5cfd48e3d1f71fa90957520 -->
<g id="edge15" class="edge"><title>dir_7370db5ffd6e13fa616902e0fbacb1f0&#45;&gt;dir_2c6b9e60b5cfd48e3d1f71fa90957520</title>
<path fill="none" stroke="black" d="M198.921,-575.697C202.075,-567.813 205.878,-558.304 209.381,-549.546"/>
<polygon fill="black" stroke="black" points="212.694,-550.689 213.158,-540.104 206.195,-548.089 212.694,-550.689"/>
<g id="a_edge15&#45;headlabel"><a xlink:href="dir_000032_000030.html" target="_top" xlink:title="5">
<text text-anchor="middle" x="213.995" y="-552.581" font-family="Helvetica,sans-Serif" font-size="10.00">5</text>
</a>
</g>
</g>
<!-- dir_91c141b8e78af59a0323020451a6b6a2 -->
<g id="node3" class="node"><title>dir_91c141b8e78af59a0323020451a6b6a2</title>
<g id="a_node3"><a xlink:href="dir_91c141b8e78af59a0323020451a6b6a2.html" target="_top" xlink:title="Handle">
<polygon fill="none" stroke="black" points="211,-252 157,-252 157,-216 211,-216 211,-252"/>
<text text-anchor="middle" x="184" y="-231.5" font-family="Helvetica,sans-Serif" font-size="10.00">Handle</text>
</a>
</g>
</g>
<!-- dir_7370db5ffd6e13fa616902e0fbacb1f0&#45;&gt;dir_91c141b8e78af59a0323020451a6b6a2 -->
<g id="edge16" class="edge"><title>dir_7370db5ffd6e13fa616902e0fbacb1f0&#45;&gt;dir_91c141b8e78af59a0323020451a6b6a2</title>
<path fill="none" stroke="black" d="M183.378,-575.729C172.045,-552.086 152.572,-508.006 144,-468 127.23,-389.732 122.238,-363.076 150,-288 153.546,-278.411 159.038,-268.756 164.581,-260.362"/>
<polygon fill="black" stroke="black" points="167.471,-262.337 170.297,-252.126 161.72,-258.346 167.471,-262.337"/>
<g id="a_edge16&#45;headlabel"><a xlink:href="dir_000032_000029.html" target="_top" xlink:title="5">
<text text-anchor="middle" x="167.754" y="-264.409" font-family="Helvetica,sans-Serif" font-size="10.00">5</text>
</a>
</g>
</g>
<!-- dir_1456dd235032e023892318efbecb420b -->
<g id="node4" class="node"><title>dir_1456dd235032e023892318efbecb420b</title>
<g id="a_node4"><a xlink:href="dir_1456dd235032e023892318efbecb420b.html" target="_top" xlink:title="Containers">
<polygon fill="none" stroke="black" points="231,-468 167,-468 167,-432 231,-432 231,-468"/>
<text text-anchor="middle" x="199" y="-447.5" font-family="Helvetica,sans-Serif" font-size="10.00">Containers</text>
</a>
</g>
</g>
<!-- dir_7370db5ffd6e13fa616902e0fbacb1f0&#45;&gt;dir_1456dd235032e023892318efbecb420b -->
<g id="edge17" class="edge"><title>dir_7370db5ffd6e13fa616902e0fbacb1f0&#45;&gt;dir_1456dd235032e023892318efbecb420b</title>
<path fill="none" stroke="black" d="M188.159,-575.882C184.666,-557.921 180.545,-528.894 184,-504 185.183,-495.475 187.388,-486.394 189.751,-478.201"/>
<polygon fill="black" stroke="black" points="193.168,-478.994 192.762,-468.407 186.478,-476.937 193.168,-478.994"/>
<g id="a_edge17&#45;headlabel"><a xlink:href="dir_000032_000033.html" target="_top" xlink:title="4">
<text text-anchor="middle" x="194.826" y="-480.764" font-family="Helvetica,sans-Serif" font-size="10.00">4</text>
</a>
</g>
</g>
<!-- dir_d080e052e6032887076b6b5756e5361d -->
<g id="node5" class="node"><title>dir_d080e052e6032887076b6b5756e5361d</title>
<g id="a_node5"><a xlink:href="dir_d080e052e6032887076b6b5756e5361d.html" target="_top" xlink:title="Mesh">
<polygon fill="white" stroke="red" points="313,-108 259,-108 259,-72 313,-72 313,-108"/>
<text text-anchor="middle" x="286" y="-87.5" font-family="Helvetica,sans-Serif" font-size="10.00">Mesh</text>
</a>
</g>
</g>
<!-- dir_7370db5ffd6e13fa616902e0fbacb1f0&#45;&gt;dir_d080e052e6032887076b6b5756e5361d -->
<g id="edge18" class="edge"><title>dir_7370db5ffd6e13fa616902e0fbacb1f0&#45;&gt;dir_d080e052e6032887076b6b5756e5361d</title>
<path fill="none" stroke="black" d="M219.174,-591.46C288.227,-585.938 465,-561.053 465,-451 465,-451 465,-451 465,-233 465,-161.077 375.208,-119.803 322.816,-101.841"/>
<polygon fill="black" stroke="black" points="323.779,-98.4737 313.186,-98.6572 321.582,-105.12 323.779,-98.4737"/>
<g id="a_edge18&#45;headlabel"><a xlink:href="dir_000032_000054.html" target="_top" xlink:title="4">
<text text-anchor="middle" x="328.084" y="-94.4064" font-family="Helvetica,sans-Serif" font-size="10.00">4</text>
</a>
</g>
</g>
<!-- dir_a1f42069ba95676f6b9abbd5065ccf6d -->
<g id="node6" class="node"><title>dir_a1f42069ba95676f6b9abbd5065ccf6d</title>
<g id="a_node6"><a xlink:href="dir_a1f42069ba95676f6b9abbd5065ccf6d.html" target="_top" xlink:title="Math">
<polygon fill="none" stroke="black" points="313,-396 259,-396 259,-360 313,-360 313,-396"/>
<text text-anchor="middle" x="286" y="-375.5" font-family="Helvetica,sans-Serif" font-size="10.00">Math</text>
</a>
</g>
</g>
<!-- dir_7370db5ffd6e13fa616902e0fbacb1f0&#45;&gt;dir_a1f42069ba95676f6b9abbd5065ccf6d -->
<g id="edge19" class="edge"><title>dir_7370db5ffd6e13fa616902e0fbacb1f0&#45;&gt;dir_a1f42069ba95676f6b9abbd5065ccf6d</title>
<path fill="none" stroke="black" d="M219.239,-576.881C232.368,-567.71 247.15,-555.046 256,-540 280.713,-497.983 285.781,-440.034 286.432,-406.338"/>
<polygon fill="black" stroke="black" points="289.932,-406.327 286.507,-396.301 282.932,-406.274 289.932,-406.327"/>
<g id="a_edge19&#45;headlabel"><a xlink:href="dir_000032_000053.html" target="_top" xlink:title="4">
<text text-anchor="middle" x="292.744" y="-407.443" font-family="Helvetica,sans-Serif" font-size="10.00">4</text>
</a>
</g>
</g>
<!-- dir_cb2b5dfd43482fb277f6333d539f1f06 -->
<g id="node7" class="node"><title>dir_cb2b5dfd43482fb277f6333d539f1f06</title>
<g id="a_node7"><a xlink:href="dir_cb2b5dfd43482fb277f6333d539f1f06.html" target="_top" xlink:title="Geometry">
<polygon fill="white" stroke="red" points="315.25,-324 256.75,-324 256.75,-288 315.25,-288 315.25,-324"/>
<text text-anchor="middle" x="286" y="-303.5" font-family="Helvetica,sans-Serif" font-size="10.00">Geometry</text>
</a>
</g>
</g>
<!-- dir_7370db5ffd6e13fa616902e0fbacb1f0&#45;&gt;dir_cb2b5dfd43482fb277f6333d539f1f06 -->
<g id="edge20" class="edge"><title>dir_7370db5ffd6e13fa616902e0fbacb1f0&#45;&gt;dir_cb2b5dfd43482fb277f6333d539f1f06</title>
<path fill="none" stroke="black" d="M219.322,-582.373C238.333,-573.663 262.887,-559.573 278,-540 328.332,-474.815 346.206,-438.718 322,-360 318.991,-350.215 313.493,-340.616 307.684,-332.334"/>
<polygon fill="black" stroke="black" points="310.407,-330.131 301.61,-324.226 304.805,-334.328 310.407,-330.131"/>
<g id="a_edge20&#45;headlabel"><a xlink:href="dir_000032_000038.html" target="_top" xlink:title="1">
<text text-anchor="middle" x="314.835" y="-328.805" font-family="Helvetica,sans-Serif" font-size="10.00">1</text>
</a>
</g>
</g>
<!-- dir_1efe152df2f2e9cd3517b1174a4598d7 -->
<g id="node8" class="node"><title>dir_1efe152df2f2e9cd3517b1174a4598d7</title>
<g id="a_node8"><a xlink:href="dir_1efe152df2f2e9cd3517b1174a4598d7.html" target="_top" xlink:title="Log">
<polygon fill="none" stroke="black" points="211,-36 157,-36 157,-0 211,-0 211,-36"/>
<text text-anchor="middle" x="184" y="-15.5" font-family="Helvetica,sans-Serif" font-size="10.00">Log</text>
</a>
</g>
</g>
<!-- dir_7370db5ffd6e13fa616902e0fbacb1f0&#45;&gt;dir_1efe152df2f2e9cd3517b1174a4598d7 -->
<g id="edge21" class="edge"><title>dir_7370db5ffd6e13fa616902e0fbacb1f0&#45;&gt;dir_1efe152df2f2e9cd3517b1174a4598d7</title>
<path fill="none" stroke="black" d="M164.946,-588.083C135.012,-581.492 86.6925,-567.317 54,-540 18.4959,-510.334 0,-497.267 0,-451 0,-451 0,-451 0,-161 0,-87.4586 93.2592,-46.658 146.99,-29.2539"/>
<polygon fill="black" stroke="black" points="148.346,-32.4972 156.85,-26.1779 146.262,-25.8148 148.346,-32.4972"/>
<g id="a_edge21&#45;headlabel"><a xlink:href="dir_000032_000052.html" target="_top" xlink:title="1">
<text text-anchor="middle" x="145.76" y="-33.778" font-family="Helvetica,sans-Serif" font-size="10.00">1</text>
</a>
</g>
</g>
<!-- dir_ff87cf903db18af0fdb6c342683ece25 -->
<g id="node9" class="node"><title>dir_ff87cf903db18af0fdb6c342683ece25</title>
<g id="a_node9"><a xlink:href="dir_ff87cf903db18af0fdb6c342683ece25.html" target="_top" xlink:title="Utils">
<polygon fill="white" stroke="red" points="211,-180 157,-180 157,-144 211,-144 211,-180"/>
<text text-anchor="middle" x="184" y="-159.5" font-family="Helvetica,sans-Serif" font-size="10.00">Utils</text>
</a>
</g>
</g>
<!-- dir_7370db5ffd6e13fa616902e0fbacb1f0&#45;&gt;dir_ff87cf903db18af0fdb6c342683ece25 -->
<g id="edge22" class="edge"><title>dir_7370db5ffd6e13fa616902e0fbacb1f0&#45;&gt;dir_ff87cf903db18af0fdb6c342683ece25</title>
<path fill="none" stroke="black" d="M164.822,-582.587C120.612,-563.666 38,-519.189 38,-451 38,-451 38,-451 38,-305 38,-243.893 104.536,-200.577 147.775,-178.879"/>
<polygon fill="black" stroke="black" points="149.417,-181.972 156.881,-174.453 146.357,-175.676 149.417,-181.972"/>
<g id="a_edge22&#45;headlabel"><a xlink:href="dir_000032_000061.html" target="_top" xlink:title="1">
<text text-anchor="middle" x="147.425" y="-183.597" font-family="Helvetica,sans-Serif" font-size="10.00">1</text>
</a>
</g>
</g>
<!-- dir_2c6b9e60b5cfd48e3d1f71fa90957520&#45;&gt;dir_1456dd235032e023892318efbecb420b -->
<g id="edge1" class="edge"><title>dir_2c6b9e60b5cfd48e3d1f71fa90957520&#45;&gt;dir_1456dd235032e023892318efbecb420b</title>
<path fill="none" stroke="black" d="M214.809,-503.697C212.469,-495.898 209.653,-486.509 207.049,-477.829"/>
<polygon fill="black" stroke="black" points="210.357,-476.677 204.131,-468.104 203.652,-478.688 210.357,-476.677"/>
<g id="a_edge1&#45;headlabel"><a xlink:href="dir_000030_000033.html" target="_top" xlink:title="1">
<text text-anchor="middle" x="214.11" y="-476.804" font-family="Helvetica,sans-Serif" font-size="10.00">1</text>
</a>
</g>
</g>
<!-- dir_2c6b9e60b5cfd48e3d1f71fa90957520&#45;&gt;dir_a1f42069ba95676f6b9abbd5065ccf6d -->
<g id="edge2" class="edge"><title>dir_2c6b9e60b5cfd48e3d1f71fa90957520&#45;&gt;dir_a1f42069ba95676f6b9abbd5065ccf6d</title>
<path fill="none" stroke="black" d="M227.961,-503.871C239.358,-479.35 260.422,-434.032 273.795,-405.259"/>
<polygon fill="black" stroke="black" points="276.97,-406.733 278.011,-396.189 270.622,-403.782 276.97,-406.733"/>
<g id="a_edge2&#45;headlabel"><a xlink:href="dir_000030_000053.html" target="_top" xlink:title="1">
<text text-anchor="middle" x="278.029" y="-408.689" font-family="Helvetica,sans-Serif" font-size="10.00">1</text>
</a>
</g>
</g>
<!-- dir_91c141b8e78af59a0323020451a6b6a2&#45;&gt;dir_2c6b9e60b5cfd48e3d1f71fa90957520 -->
<g id="edge3" class="edge"><title>dir_91c141b8e78af59a0323020451a6b6a2&#45;&gt;dir_2c6b9e60b5cfd48e3d1f71fa90957520</title>
<path fill="none" stroke="black" d="M176.3,-252.056C159.495,-291.931 123.68,-393.511 158,-468 163.761,-480.504 174.088,-491.154 184.682,-499.556"/>
<polygon fill="black" stroke="black" points="182.643,-502.401 192.764,-505.535 186.807,-496.774 182.643,-502.401"/>
<g id="a_edge3&#45;headlabel"><a xlink:href="dir_000029_000030.html" target="_top" xlink:title="1">
<text text-anchor="middle" x="178.065" y="-500.046" font-family="Helvetica,sans-Serif" font-size="10.00">1</text>
</a>
</g>
</g>
<!-- dir_91c141b8e78af59a0323020451a6b6a2&#45;&gt;dir_1456dd235032e023892318efbecb420b -->
<g id="edge4" class="edge"><title>dir_91c141b8e78af59a0323020451a6b6a2&#45;&gt;dir_1456dd235032e023892318efbecb420b</title>
<path fill="none" stroke="black" d="M185.208,-252.232C187.808,-289.324 193.952,-376.981 197.087,-421.712"/>
<polygon fill="black" stroke="black" points="193.607,-422.118 197.798,-431.849 200.59,-421.629 193.607,-422.118"/>
<g id="a_edge4&#45;headlabel"><a xlink:href="dir_000029_000033.html" target="_top" xlink:title="2">
<text text-anchor="middle" x="190.524" y="-416.231" font-family="Helvetica,sans-Serif" font-size="10.00">2</text>
</a>
</g>
</g>
<!-- dir_91c141b8e78af59a0323020451a6b6a2&#45;&gt;dir_d080e052e6032887076b6b5756e5361d -->
<g id="edge5" class="edge"><title>dir_91c141b8e78af59a0323020451a6b6a2&#45;&gt;dir_d080e052e6032887076b6b5756e5361d</title>
<path fill="none" stroke="black" d="M196.304,-215.871C214.07,-191.137 247.037,-145.242 267.674,-116.512"/>
<polygon fill="black" stroke="black" points="270.661,-118.353 273.653,-108.189 264.976,-114.269 270.661,-118.353"/>
<g id="a_edge5&#45;headlabel"><a xlink:href="dir_000029_000054.html" target="_top" xlink:title="1">
<text text-anchor="middle" x="270.87" y="-120.429" font-family="Helvetica,sans-Serif" font-size="10.00">1</text>
</a>
</g>
</g>
<!-- dir_91c141b8e78af59a0323020451a6b6a2&#45;&gt;dir_a1f42069ba95676f6b9abbd5065ccf6d -->
<g id="edge6" class="edge"><title>dir_91c141b8e78af59a0323020451a6b6a2&#45;&gt;dir_a1f42069ba95676f6b9abbd5065ccf6d</title>
<path fill="none" stroke="black" d="M195.985,-252.128C208.591,-270.098 229.052,-299.133 247,-324 253.519,-333.032 260.729,-342.872 267.159,-351.594"/>
<polygon fill="black" stroke="black" points="264.517,-353.908 273.274,-359.873 270.148,-349.75 264.517,-353.908"/>
<g id="a_edge6&#45;headlabel"><a xlink:href="dir_000029_000053.html" target="_top" xlink:title="2">
<text text-anchor="middle" x="260.098" y="-350.204" font-family="Helvetica,sans-Serif" font-size="10.00">2</text>
</a>
</g>
</g>
<!-- dir_91c141b8e78af59a0323020451a6b6a2&#45;&gt;dir_1efe152df2f2e9cd3517b1174a4598d7 -->
<g id="edge7" class="edge"><title>dir_91c141b8e78af59a0323020451a6b6a2&#45;&gt;dir_1efe152df2f2e9cd3517b1174a4598d7</title>
<path fill="none" stroke="black" d="M168.39,-215.774C160.627,-206.03 152.054,-193.184 148,-180 133.657,-133.357 154.351,-77.4874 169.798,-45.3315"/>
<polygon fill="black" stroke="black" points="173.047,-46.6606 174.379,-36.1499 166.783,-43.5354 173.047,-46.6606"/>
<g id="a_edge7&#45;headlabel"><a xlink:href="dir_000029_000052.html" target="_top" xlink:title="1">
<text text-anchor="middle" x="173.982" y="-48.6446" font-family="Helvetica,sans-Serif" font-size="10.00">1</text>
</a>
</g>
</g>
<!-- dir_91c141b8e78af59a0323020451a6b6a2&#45;&gt;dir_ff87cf903db18af0fdb6c342683ece25 -->
<g id="edge8" class="edge"><title>dir_91c141b8e78af59a0323020451a6b6a2&#45;&gt;dir_ff87cf903db18af0fdb6c342683ece25</title>
<path fill="none" stroke="black" d="M184,-215.697C184,-207.983 184,-198.712 184,-190.112"/>
<polygon fill="black" stroke="black" points="187.5,-190.104 184,-180.104 180.5,-190.104 187.5,-190.104"/>
<g id="a_edge8&#45;headlabel"><a xlink:href="dir_000029_000061.html" target="_top" xlink:title="1">
<text text-anchor="middle" x="190.339" y="-191.199" font-family="Helvetica,sans-Serif" font-size="10.00">1</text>
</a>
</g>
</g>
<!-- dir_1456dd235032e023892318efbecb420b&#45;&gt;dir_a1f42069ba95676f6b9abbd5065ccf6d -->
<g id="edge9" class="edge"><title>dir_1456dd235032e023892318efbecb420b&#45;&gt;dir_a1f42069ba95676f6b9abbd5065ccf6d</title>
<path fill="none" stroke="black" d="M214.59,-431.697C224.734,-422.796 238.211,-411.823 250.77,-402.199"/>
<polygon fill="black" stroke="black" points="252.973,-404.922 258.847,-396.104 248.756,-399.334 252.973,-404.922"/>
<g id="a_edge9&#45;headlabel"><a xlink:href="dir_000033_000053.html" target="_top" xlink:title="1">
<text text-anchor="middle" x="251.814" y="-406.853" font-family="Helvetica,sans-Serif" font-size="10.00">1</text>
</a>
</g>
</g>
<!-- dir_d080e052e6032887076b6b5756e5361d&#45;&gt;dir_1456dd235032e023892318efbecb420b -->
<g id="edge10" class="edge"><title>dir_d080e052e6032887076b6b5756e5361d&#45;&gt;dir_1456dd235032e023892318efbecb420b</title>
<path fill="none" stroke="black" d="M313.186,-103.209C354.159,-123.685 427,-169.075 427,-233 427,-307 427,-307 427,-307 427,-393.537 307.193,-429.231 241.274,-442.32"/>
<polygon fill="black" stroke="black" points="240.357,-438.932 231.183,-444.231 241.66,-445.809 240.357,-438.932"/>
<g id="a_edge10&#45;headlabel"><a xlink:href="dir_000054_000033.html" target="_top" xlink:title="2">
<text text-anchor="middle" x="243.361" y="-432.973" font-family="Helvetica,sans-Serif" font-size="10.00">2</text>
</a>
</g>
</g>
<!-- dir_d080e052e6032887076b6b5756e5361d&#45;&gt;dir_a1f42069ba95676f6b9abbd5065ccf6d -->
<g id="edge11" class="edge"><title>dir_d080e052e6032887076b6b5756e5361d&#45;&gt;dir_a1f42069ba95676f6b9abbd5065ccf6d</title>
<path fill="none" stroke="black" d="M302.931,-108.186C308.991,-118.331 314.741,-131.581 318,-144 343.503,-241.19 344.727,-287.519 333,-324 329.744,-334.129 323.758,-343.963 317.041,-352.354"/>
<polygon fill="black" stroke="black" points="314.377,-350.082 310.441,-359.919 319.652,-354.684 314.377,-350.082"/>
<g id="a_edge11&#45;headlabel"><a xlink:href="dir_000054_000053.html" target="_top" xlink:title="7">
<text text-anchor="middle" x="314.601" y="-343.007" font-family="Helvetica,sans-Serif" font-size="10.00">7</text>
</a>
</g>
</g>
<!-- dir_d080e052e6032887076b6b5756e5361d&#45;&gt;dir_cb2b5dfd43482fb277f6333d539f1f06 -->
<g id="edge12" class="edge"><title>dir_d080e052e6032887076b6b5756e5361d&#45;&gt;dir_cb2b5dfd43482fb277f6333d539f1f06</title>
<path fill="none" stroke="black" d="M289.885,-108.232C293.416,-145.324 293.683,-232.981 290.686,-277.712"/>
<polygon fill="black" stroke="black" points="287.183,-277.603 289.878,-287.849 294.161,-278.159 287.183,-277.603"/>
<g id="a_edge12&#45;headlabel"><a xlink:href="dir_000054_000038.html" target="_top" xlink:title="2">
<text text-anchor="middle" x="284.639" y="-271.294" font-family="Helvetica,sans-Serif" font-size="10.00">2</text>
</a>
</g>
</g>
<!-- dir_d080e052e6032887076b6b5756e5361d&#45;&gt;dir_1efe152df2f2e9cd3517b1174a4598d7 -->
<g id="edge13" class="edge"><title>dir_d080e052e6032887076b6b5756e5361d&#45;&gt;dir_1efe152df2f2e9cd3517b1174a4598d7</title>
<path fill="none" stroke="black" d="M261.048,-71.8761C247.958,-62.8931 231.74,-51.7625 217.564,-42.0341"/>
<polygon fill="black" stroke="black" points="219.274,-38.9624 209.048,-36.1898 215.313,-44.734 219.274,-38.9624"/>
<g id="a_edge13&#45;headlabel"><a xlink:href="dir_000054_000052.html" target="_top" xlink:title="3">
<text text-anchor="middle" x="223.844" y="-36.1553" font-family="Helvetica,sans-Serif" font-size="10.00">3</text>
</a>
</g>
</g>
<!-- dir_d080e052e6032887076b6b5756e5361d&#45;&gt;dir_ff87cf903db18af0fdb6c342683ece25 -->
<g id="edge14" class="edge"><title>dir_d080e052e6032887076b6b5756e5361d&#45;&gt;dir_ff87cf903db18af0fdb6c342683ece25</title>
<path fill="none" stroke="black" d="M267.059,-108.04C253.763,-117.875 235.753,-130.305 219.845,-140.651"/>
<polygon fill="black" stroke="black" points="217.794,-137.809 211.268,-146.155 221.574,-143.7 217.794,-137.809"/>
<g id="a_edge14&#45;headlabel"><a xlink:href="dir_000054_000061.html" target="_top" xlink:title="2">
<text text-anchor="middle" x="219.286" y="-130.978" font-family="Helvetica,sans-Serif" font-size="10.00">2</text>
</a>
</g>
</g>
<!-- dir_a1f42069ba95676f6b9abbd5065ccf6d&#45;&gt;dir_1456dd235032e023892318efbecb420b -->
<g id="edge23" class="edge"><title>dir_a1f42069ba95676f6b9abbd5065ccf6d&#45;&gt;dir_1456dd235032e023892318efbecb420b</title>
<path fill="none" stroke="black" d="M270.637,-396.104C260.543,-404.974 247.084,-415.941 234.511,-425.585"/>
<polygon fill="black" stroke="black" points="232.291,-422.876 226.421,-431.697 236.51,-428.462 232.291,-422.876"/>
<g id="a_edge23&#45;headlabel"><a xlink:href="dir_000053_000033.html" target="_top" xlink:title="3">
<text text-anchor="middle" x="233.448" y="-415.944" font-family="Helvetica,sans-Serif" font-size="10.00">3</text>
</a>
</g>
</g>
<!-- dir_a1f42069ba95676f6b9abbd5065ccf6d&#45;&gt;dir_d080e052e6032887076b6b5756e5361d -->
<g id="edge24" class="edge"><title>dir_a1f42069ba95676f6b9abbd5065ccf6d&#45;&gt;dir_d080e052e6032887076b6b5756e5361d</title>
<path fill="none" stroke="black" d="M294.486,-359.919C301.654,-350.218 310.704,-337.366 315,-324 326.727,-287.519 325.503,-241.19 300,-144 297.683,-135.171 294.107,-125.922 290.864,-117.667"/>
<polygon fill="black" stroke="black" points="294.065,-116.24 287.181,-108.186 287.54,-118.775 294.065,-116.24"/>
<g id="a_edge24&#45;headlabel"><a xlink:href="dir_000053_000054.html" target="_top" xlink:title="1">
<text text-anchor="middle" x="298.013" y="-116.062" font-family="Helvetica,sans-Serif" font-size="10.00">1</text>
</a>
</g>
</g>
<!-- dir_a1f42069ba95676f6b9abbd5065ccf6d&#45;&gt;dir_cb2b5dfd43482fb277f6333d539f1f06 -->
<g id="edge25" class="edge"><title>dir_a1f42069ba95676f6b9abbd5065ccf6d&#45;&gt;dir_cb2b5dfd43482fb277f6333d539f1f06</title>
<path fill="none" stroke="black" d="M280.084,-359.697C279.289,-351.983 279.062,-342.712 279.405,-334.112"/>
<polygon fill="black" stroke="black" points="282.898,-334.324 280.105,-324.104 275.915,-333.836 282.898,-334.324"/>
<g id="a_edge25&#45;headlabel"><a xlink:href="dir_000053_000038.html" target="_top" xlink:title="2">
<text text-anchor="middle" x="285.48" y="-335.608" font-family="Helvetica,sans-Serif" font-size="10.00">2</text>
</a>
</g>
</g>
<!-- dir_cb2b5dfd43482fb277f6333d539f1f06&#45;&gt;dir_91c141b8e78af59a0323020451a6b6a2 -->
<g id="edge26" class="edge"><title>dir_cb2b5dfd43482fb277f6333d539f1f06&#45;&gt;dir_91c141b8e78af59a0323020451a6b6a2</title>
<path fill="none" stroke="black" d="M261.048,-287.876C247.958,-278.893 231.74,-267.763 217.564,-258.034"/>
<polygon fill="black" stroke="black" points="219.274,-254.962 209.048,-252.19 215.313,-260.734 219.274,-254.962"/>
<g id="a_edge26&#45;headlabel"><a xlink:href="dir_000038_000029.html" target="_top" xlink:title="1">
<text text-anchor="middle" x="223.844" y="-252.155" font-family="Helvetica,sans-Serif" font-size="10.00">1</text>
</a>
</g>
</g>
<!-- dir_cb2b5dfd43482fb277f6333d539f1f06&#45;&gt;dir_1456dd235032e023892318efbecb420b -->
<g id="edge27" class="edge"><title>dir_cb2b5dfd43482fb277f6333d539f1f06&#45;&gt;dir_1456dd235032e023892318efbecb420b</title>
<path fill="none" stroke="black" d="M273.659,-324.444C266.545,-334.676 257.545,-347.926 250,-360 237.101,-380.643 223.437,-404.615 213.502,-422.475"/>
<polygon fill="black" stroke="black" points="210.172,-421.265 208.395,-431.709 216.298,-424.653 210.172,-421.265"/>
<g id="a_edge27&#45;headlabel"><a xlink:href="dir_000038_000033.html" target="_top" xlink:title="12">
<text text-anchor="middle" x="209.427" y="-414.245" font-family="Helvetica,sans-Serif" font-size="10.00">12</text>
</a>
</g>
</g>
<!-- dir_cb2b5dfd43482fb277f6333d539f1f06&#45;&gt;dir_d080e052e6032887076b6b5756e5361d -->
<g id="edge28" class="edge"><title>dir_cb2b5dfd43482fb277f6333d539f1f06&#45;&gt;dir_d080e052e6032887076b6b5756e5361d</title>
<path fill="none" stroke="black" d="M282.122,-287.849C278.587,-250.832 278.315,-163.181 281.308,-118.386"/>
<polygon fill="black" stroke="black" points="284.811,-118.478 282.115,-108.232 277.833,-117.924 284.811,-118.478"/>
<g id="a_edge28&#45;headlabel"><a xlink:href="dir_000038_000054.html" target="_top" xlink:title="10">
<text text-anchor="middle" x="287.357" y="-119.787" font-family="Helvetica,sans-Serif" font-size="10.00">10</text>
</a>
</g>
</g>
<!-- dir_cb2b5dfd43482fb277f6333d539f1f06&#45;&gt;dir_a1f42069ba95676f6b9abbd5065ccf6d -->
<g id="edge29" class="edge"><title>dir_cb2b5dfd43482fb277f6333d539f1f06&#45;&gt;dir_a1f42069ba95676f6b9abbd5065ccf6d</title>
<path fill="none" stroke="black" d="M291.895,-324.104C292.701,-331.791 292.937,-341.054 292.604,-349.665"/>
<polygon fill="black" stroke="black" points="289.109,-349.48 291.916,-359.697 296.092,-349.96 289.109,-349.48"/>
<g id="a_edge29&#45;headlabel"><a xlink:href="dir_000038_000053.html" target="_top" xlink:title="14">
<text text-anchor="middle" x="286.522" y="-343.2" font-family="Helvetica,sans-Serif" font-size="10.00">14</text>
</a>
</g>
</g>
<!-- dir_cb2b5dfd43482fb277f6333d539f1f06&#45;&gt;dir_1efe152df2f2e9cd3517b1174a4598d7 -->
<g id="edge30" class="edge"><title>dir_cb2b5dfd43482fb277f6333d539f1f06&#45;&gt;dir_1efe152df2f2e9cd3517b1174a4598d7</title>
<path fill="none" stroke="black" d="M296.041,-287.98C318.848,-246.866 369.057,-140.481 322,-72 299.507,-39.2668 253.78,-26.7408 221.128,-21.9528"/>
<polygon fill="black" stroke="black" points="221.398,-18.4587 211.033,-20.6544 220.505,-25.4015 221.398,-18.4587"/>
<g id="a_edge30&#45;headlabel"><a xlink:href="dir_000038_000052.html" target="_top" xlink:title="2">
<text text-anchor="middle" x="225.325" y="-13.601" font-family="Helvetica,sans-Serif" font-size="10.00">2</text>
</a>
</g>
</g>
<!-- dir_cb2b5dfd43482fb277f6333d539f1f06&#45;&gt;dir_ff87cf903db18af0fdb6c342683ece25 -->
<g id="edge31" class="edge"><title>dir_cb2b5dfd43482fb277f6333d539f1f06&#45;&gt;dir_ff87cf903db18af0fdb6c342683ece25</title>
<path fill="none" stroke="black" d="M273.696,-287.871C255.93,-263.137 222.963,-217.242 202.326,-188.512"/>
<polygon fill="black" stroke="black" points="205.024,-186.269 196.347,-180.189 199.339,-190.353 205.024,-186.269"/>
<g id="a_edge31&#45;headlabel"><a xlink:href="dir_000038_000061.html" target="_top" xlink:title="1">
<text text-anchor="middle" x="209.427" y="-185.032" font-family="Helvetica,sans-Serif" font-size="10.00">1</text>
</a>
</g>
</g>
<!-- dir_ff87cf903db18af0fdb6c342683ece25&#45;&gt;dir_1456dd235032e023892318efbecb420b -->
<g id="edge32" class="edge"><title>dir_ff87cf903db18af0fdb6c342683ece25&#45;&gt;dir_1456dd235032e023892318efbecb420b</title>
<path fill="none" stroke="black" d="M168.39,-180.226C160.627,-189.97 152.054,-202.816 148,-216 143.297,-231.293 145.979,-236.128 148,-252 155.914,-314.146 177.335,-384.72 189.753,-422.228"/>
<polygon fill="black" stroke="black" points="186.498,-423.529 192.998,-431.896 193.134,-421.302 186.498,-423.529"/>
<g id="a_edge32&#45;headlabel"><a xlink:href="dir_000061_000033.html" target="_top" xlink:title="3">
<text text-anchor="middle" x="182.662" y="-418.525" font-family="Helvetica,sans-Serif" font-size="10.00">3</text>
</a>
</g>
</g>
<!-- dir_ff87cf903db18af0fdb6c342683ece25&#45;&gt;dir_d080e052e6032887076b6b5756e5361d -->
<g id="edge33" class="edge"><title>dir_ff87cf903db18af0fdb6c342683ece25&#45;&gt;dir_d080e052e6032887076b6b5756e5361d</title>
<path fill="none" stroke="black" d="M203.298,-143.697C216.619,-133.858 234.554,-121.489 250.373,-111.207"/>
<polygon fill="black" stroke="black" points="252.373,-114.082 258.902,-105.738 248.594,-108.19 252.373,-114.082"/>
<g id="a_edge33&#45;headlabel"><a xlink:href="dir_000061_000054.html" target="_top" xlink:title="1">
<text text-anchor="middle" x="250.879" y="-115.913" font-family="Helvetica,sans-Serif" font-size="10.00">1</text>
</a>
</g>
</g>
<!-- dir_ff87cf903db18af0fdb6c342683ece25&#45;&gt;dir_1efe152df2f2e9cd3517b1174a4598d7 -->
<g id="edge34" class="edge"><title>dir_ff87cf903db18af0fdb6c342683ece25&#45;&gt;dir_1efe152df2f2e9cd3517b1174a4598d7</title>
<path fill="none" stroke="black" d="M184,-143.871C184,-119.67 184,-75.2108 184,-46.3932"/>
<polygon fill="black" stroke="black" points="187.5,-46.1892 184,-36.1893 180.5,-46.1893 187.5,-46.1892"/>
<g id="a_edge34&#45;headlabel"><a xlink:href="dir_000061_000052.html" target="_top" xlink:title="1">
<text text-anchor="middle" x="190.339" y="-47.2839" font-family="Helvetica,sans-Serif" font-size="10.00">1</text>
</a>
</g>
</g>
</g>
</svg>
