<?xml version="1.0" encoding="UTF-8" standalone="no"?>
<!DOCTYPE svg PUBLIC "-//W3C//DTD SVG 1.1//EN"
 "http://www.w3.org/Graphics/SVG/1.1/DTD/svg11.dtd">
<!-- Generated by graphviz version 2.36.0 (20140111.2315)
 -->
<!-- Title: /home/travis/build/STORM&#45;IRIT/Radium&#45;Engine/src/Core/Mesh/TopologicalTriMesh/Operations Pages: 1 -->
<svg width="134pt" height="151pt"
 viewBox="0.00 0.00 134.00 151.00" xmlns="http://www.w3.org/2000/svg" xmlns:xlink="http://www.w3.org/1999/xlink">
<g id="graph0" class="graph" transform="scale(1 1) rotate(0) translate(4 147)">
<title>/home/travis/build/STORM&#45;IRIT/Radium&#45;Engine/src/Core/Mesh/TopologicalTriMesh/Operations</title>
<polygon fill="white" stroke="none" points="-4,4 -4,-147 130,-147 130,4 -4,4"/>
<g id="clust1" class="cluster"><title>clusterdir_ac204889f54aebb9ba7b91d6916c1389</title>
<g id="a_clust1"><a xlink:href="dir_ac204889f54aebb9ba7b91d6916c1389.html" target="_top" xlink:title="TopologicalTriMesh">
<polygon fill="#ddddee" stroke="black" points="13,-64 13,-135 114,-135 114,-64 13,-64"/>
<text text-anchor="middle" x="63.5" y="-123" font-family="Helvetica,sans-Serif" font-size="10.00">TopologicalTriMesh</text>
</a>
</g>
</g>
<!-- dir_a750d1a7b0706cce5919e35b4344eedd -->
<g id="node1" class="node"><title>dir_a750d1a7b0706cce5919e35b4344eedd</title>
<g id="a_node1"><a xlink:href="dir_a750d1a7b0706cce5919e35b4344eedd.html" target="_top" xlink:title="Operations">
<polygon fill="#eeeeff" stroke="black" points="95,-108 31,-108 31,-72 95,-72 95,-108"/>
<text text-anchor="middle" x="63" y="-87.5" font-family="Helvetica,sans-Serif" font-size="10.00">Operations</text>
</a>
</g>
</g>
<!-- dir_1efe152df2f2e9cd3517b1174a4598d7 -->
<g id="node2" class="node"><title>dir_1efe152df2f2e9cd3517b1174a4598d7</title>
<g id="a_node2"><a xlink:href="dir_1efe152df2f2e9cd3517b1174a4598d7.html" target="_top" xlink:title="Log">
<polygon fill="none" stroke="black" points="54,-36 0,-36 0,-0 54,-0 54,-36"/>
<text text-anchor="middle" x="27" y="-15.5" font-family="Helvetica,sans-Serif" font-size="10.00">Log</text>
</a>
</g>
</g>
<!-- dir_a750d1a7b0706cce5919e35b4344eedd&#45;&gt;dir_1efe152df2f2e9cd3517b1174a4598d7 -->
<g id="edge1" class="edge"><title>dir_a750d1a7b0706cce5919e35b4344eedd&#45;&gt;dir_1efe152df2f2e9cd3517b1174a4598d7</title>
<path fill="none" stroke="black" d="M54.1011,-71.6966C50.0032,-63.7284 45.0512,-54.0995 40.5073,-45.2641"/>
<polygon fill="black" stroke="black" points="43.4826,-43.3965 35.7965,-36.1043 37.2575,-46.598 43.4826,-43.3965"/>
<g id="a_edge1&#45;headlabel"><a xlink:href="dir_000056_000052.html" target="_top" xlink:title="1">
<text text-anchor="middle" x="47.6514" y="-42.7946" font-family="Helvetica,sans-Serif" font-size="10.00">1</text>
</a>
</g>
</g>
<!-- dir_f5906172d2c9558d453eb81ef8e5bf93 -->
<g id="node3" class="node"><title>dir_f5906172d2c9558d453eb81ef8e5bf93</title>
<g id="a_node3"><a xlink:href="dir_f5906172d2c9558d453eb81ef8e5bf93.html" target="_top" xlink:title="Index">
<polygon fill="none" stroke="black" points="126,-36 72,-36 72,-0 126,-0 126,-36"/>
<text text-anchor="middle" x="99" y="-15.5" font-family="Helvetica,sans-Serif" font-size="10.00">Index</text>
</a>
</g>
</g>
<!-- dir_a750d1a7b0706cce5919e35b4344eedd&#45;&gt;dir_f5906172d2c9558d453eb81ef8e5bf93 -->
<g id="edge2" class="edge"><title>dir_a750d1a7b0706cce5919e35b4344eedd&#45;&gt;dir_f5906172d2c9558d453eb81ef8e5bf93</title>
<path fill="none" stroke="black" d="M71.8989,-71.6966C75.9968,-63.7284 80.9488,-54.0995 85.4927,-45.2641"/>
<polygon fill="black" stroke="black" points="88.7425,-46.598 90.2035,-36.1043 82.5174,-43.3965 88.7425,-46.598"/>
<g id="a_edge2&#45;headlabel"><a xlink:href="dir_000056_000051.html" target="_top" xlink:title="2">
<text text-anchor="middle" x="89.6235" y="-48.5931" font-family="Helvetica,sans-Serif" font-size="10.00">2</text>
</a>
</g>
</g>
</g>
</svg>
