<?xml version="1.0" encoding="UTF-8" standalone="no"?>
<!DOCTYPE svg PUBLIC "-//W3C//DTD SVG 1.1//EN"
 "http://www.w3.org/Graphics/SVG/1.1/DTD/svg11.dtd">
<!-- Generated by graphviz version 2.36.0 (20140111.2315)
 -->
<!-- Title: /home/travis/build/STORM&#45;IRIT/Radium&#45;Engine/src/GuiBase Pages: 1 -->
<svg width="412pt" height="375pt"
 viewBox="0.00 0.00 411.73 375.00" xmlns="http://www.w3.org/2000/svg" xmlns:xlink="http://www.w3.org/1999/xlink">
<g id="graph0" class="graph" transform="scale(1 1) rotate(0) translate(4 371)">
<title>/home/travis/build/STORM&#45;IRIT/Radium&#45;Engine/src/GuiBase</title>
<polygon fill="white" stroke="none" points="-4,4 -4,-371 407.732,-371 407.732,4 -4,4"/>
<g id="clust1" class="cluster"><title>clusterdir_68267d1309a1af8e8297ef4c3efbcdba</title>
<g id="a_clust1"><a xlink:href="dir_68267d1309a1af8e8297ef4c3efbcdba.html" target="_top" xlink:title="src">
<polygon fill="#ddddee" stroke="black" points="51.7944,-128 51.7944,-359 297.794,-359 297.794,-128 51.7944,-128"/>
<text text-anchor="middle" x="174.794" y="-347" font-family="Helvetica,sans-Serif" font-size="10.00">src</text>
</a>
</g>
</g>
<g id="clust2" class="cluster"><title>clusterdir_cb59203ea3f84fc4d67c89730003fed4</title>
<g id="a_clust2"><a xlink:href="dir_cb59203ea3f84fc4d67c89730003fed4.html" target="_top">
<polygon fill="#eeeeff" stroke="black" points="59.7944,-136 59.7944,-332 289.794,-332 289.794,-136 59.7944,-136"/>
</a>
</g>
</g>
<!-- dir_cb59203ea3f84fc4d67c89730003fed4 -->
<g id="node1" class="node"><title>dir_cb59203ea3f84fc4d67c89730003fed4</title>
<text text-anchor="middle" x="140.794" y="-303.5" font-family="Helvetica,sans-Serif" font-size="10.00">GuiBase</text>
</g>
<!-- dir_fde802d0fe976469e8430b6df93e1b9e -->
<g id="node3" class="node"><title>dir_fde802d0fe976469e8430b6df93e1b9e</title>
<g id="a_node3"><a xlink:href="dir_fde802d0fe976469e8430b6df93e1b9e.html" target="_top" xlink:title="TimerData">
<polygon fill="white" stroke="black" points="201.294,-252 140.294,-252 140.294,-216 201.294,-216 201.294,-252"/>
<text text-anchor="middle" x="170.794" y="-231.5" font-family="Helvetica,sans-Serif" font-size="10.00">TimerData</text>
</a>
</g>
</g>
<!-- dir_cb59203ea3f84fc4d67c89730003fed4&#45;&gt;dir_fde802d0fe976469e8430b6df93e1b9e -->
<g id="edge11" class="edge"><title>dir_cb59203ea3f84fc4d67c89730003fed4&#45;&gt;dir_fde802d0fe976469e8430b6df93e1b9e</title>
<path fill="none" stroke="black" d="M148.21,-287.697C151.589,-279.813 155.664,-270.304 159.417,-261.546"/>
<polygon fill="black" stroke="black" points="162.742,-262.675 163.464,-252.104 156.308,-259.917 162.742,-262.675"/>
<g id="a_edge11&#45;headlabel"><a xlink:href="dir_000086_000088.html" target="_top" xlink:title="1">
<text text-anchor="middle" x="163.935" y="-264.597" font-family="Helvetica,sans-Serif" font-size="10.00">1</text>
</a>
</g>
</g>
<!-- dir_796a1a15fb9cc23998586ef6281d84e1 -->
<g id="node7" class="node"><title>dir_796a1a15fb9cc23998586ef6281d84e1</title>
<g id="a_node7"><a xlink:href="dir_796a1a15fb9cc23998586ef6281d84e1.html" target="_top" xlink:title="Viewer">
<polygon fill="white" stroke="red" points="121.794,-252 67.7944,-252 67.7944,-216 121.794,-216 121.794,-252"/>
<text text-anchor="middle" x="94.7944" y="-231.5" font-family="Helvetica,sans-Serif" font-size="10.00">Viewer</text>
</a>
</g>
</g>
<!-- dir_cb59203ea3f84fc4d67c89730003fed4&#45;&gt;dir_796a1a15fb9cc23998586ef6281d84e1 -->
<g id="edge10" class="edge"><title>dir_cb59203ea3f84fc4d67c89730003fed4&#45;&gt;dir_796a1a15fb9cc23998586ef6281d84e1</title>
<path fill="none" stroke="black" d="M129.424,-287.697C124.076,-279.559 117.59,-269.689 111.684,-260.701"/>
<polygon fill="black" stroke="black" points="114.451,-258.539 106.034,-252.104 108.601,-262.384 114.451,-258.539"/>
<g id="a_edge10&#45;headlabel"><a xlink:href="dir_000086_000092.html" target="_top" xlink:title="3">
<text text-anchor="middle" x="118.798" y="-257.484" font-family="Helvetica,sans-Serif" font-size="10.00">3</text>
</a>
</g>
</g>
<!-- dir_1b07f77798358fd74e92420363fd4633 -->
<g id="node10" class="node"><title>dir_1b07f77798358fd74e92420363fd4633</title>
<g id="a_node10"><a xlink:href="dir_1b07f77798358fd74e92420363fd4633.html" target="_top" xlink:title="PluginBase">
<polygon fill="none" stroke="black" points="371.794,-252 305.794,-252 305.794,-216 371.794,-216 371.794,-252"/>
<text text-anchor="middle" x="338.794" y="-231.5" font-family="Helvetica,sans-Serif" font-size="10.00">PluginBase</text>
</a>
</g>
</g>
<!-- dir_cb59203ea3f84fc4d67c89730003fed4&#45;&gt;dir_1b07f77798358fd74e92420363fd4633 -->
<g id="edge12" class="edge"><title>dir_cb59203ea3f84fc4d67c89730003fed4&#45;&gt;dir_1b07f77798358fd74e92420363fd4633</title>
<path fill="none" stroke="black" d="M168.136,-291.596C171.034,-290.323 173.959,-289.099 176.794,-288 227.522,-268.334 242.321,-269.622 293.794,-252 294.505,-251.757 295.222,-251.509 295.943,-251.259"/>
<polygon fill="black" stroke="black" points="297.218,-254.52 305.458,-247.86 294.864,-247.928 297.218,-254.52"/>
<g id="a_edge12&#45;headlabel"><a xlink:href="dir_000086_000098.html" target="_top" xlink:title="1">
<text text-anchor="middle" x="294.788" y="-255.903" font-family="Helvetica,sans-Serif" font-size="10.00">1</text>
</a>
</g>
</g>
<!-- dir_0a0d8c554334a5684cc8b98421956a17 -->
<g id="node2" class="node"><title>dir_0a0d8c554334a5684cc8b98421956a17</title>
<g id="a_node2"><a xlink:href="dir_0a0d8c554334a5684cc8b98421956a17.html" target="_top" xlink:title="SelectionManager">
<polygon fill="white" stroke="black" points="281.044,-324 186.544,-324 186.544,-288 281.044,-288 281.044,-324"/>
<text text-anchor="middle" x="233.794" y="-303.5" font-family="Helvetica,sans-Serif" font-size="10.00">SelectionManager</text>
</a>
</g>
</g>
<!-- dir_e89aeb6b59063c7bef233057991cda67 -->
<g id="node5" class="node"><title>dir_e89aeb6b59063c7bef233057991cda67</title>
<g id="a_node5"><a xlink:href="dir_e89aeb6b59063c7bef233057991cda67.html" target="_top" xlink:title="TreeModel">
<polygon fill="white" stroke="black" points="281.294,-252 220.294,-252 220.294,-216 281.294,-216 281.294,-252"/>
<text text-anchor="middle" x="250.794" y="-231.5" font-family="Helvetica,sans-Serif" font-size="10.00">TreeModel</text>
</a>
</g>
</g>
<!-- dir_0a0d8c554334a5684cc8b98421956a17&#45;&gt;dir_e89aeb6b59063c7bef233057991cda67 -->
<g id="edge18" class="edge"><title>dir_0a0d8c554334a5684cc8b98421956a17&#45;&gt;dir_e89aeb6b59063c7bef233057991cda67</title>
<path fill="none" stroke="black" d="M237.997,-287.697C239.891,-279.898 242.171,-270.509 244.279,-261.829"/>
<polygon fill="black" stroke="black" points="247.682,-262.648 246.64,-252.104 240.879,-260.996 247.682,-262.648"/>
<g id="a_edge18&#45;headlabel"><a xlink:href="dir_000087_000090.html" target="_top" xlink:title="1">
<text text-anchor="middle" x="249.592" y="-264.311" font-family="Helvetica,sans-Serif" font-size="10.00">1</text>
</a>
</g>
</g>
<!-- dir_a2f0e5642e47e7ed59fe0f0829eafb5f -->
<g id="node8" class="node"><title>dir_a2f0e5642e47e7ed59fe0f0829eafb5f</title>
<g id="a_node8"><a xlink:href="dir_a2f0e5642e47e7ed59fe0f0829eafb5f.html" target="_top" xlink:title="Core">
<polygon fill="white" stroke="red" points="296.794,-108 242.794,-108 242.794,-72 296.794,-72 296.794,-108"/>
<text text-anchor="middle" x="269.794" y="-87.5" font-family="Helvetica,sans-Serif" font-size="10.00">Core</text>
</a>
</g>
</g>
<!-- dir_0a0d8c554334a5684cc8b98421956a17&#45;&gt;dir_a2f0e5642e47e7ed59fe0f0829eafb5f -->
<g id="edge17" class="edge"><title>dir_0a0d8c554334a5684cc8b98421956a17&#45;&gt;dir_a2f0e5642e47e7ed59fe0f0829eafb5f</title>
<path fill="none" stroke="black" d="M281.044,-301.746C314.937,-296.651 358.417,-283.856 380.794,-252 407.545,-213.918 350.511,-139.269 339.794,-128 330.526,-118.254 318.117,-110.553 306.322,-104.757"/>
<polygon fill="black" stroke="black" points="307.615,-101.5 297.066,-100.515 304.698,-107.863 307.615,-101.5"/>
<g id="a_edge17&#45;headlabel"><a xlink:href="dir_000087_000020.html" target="_top" xlink:title="1">
<text text-anchor="middle" x="312.065" y="-97.9162" font-family="Helvetica,sans-Serif" font-size="10.00">1</text>
</a>
</g>
</g>
<!-- dir_3072bc1f55ed1280fe4fbe6b21c78379 -->
<g id="node9" class="node"><title>dir_3072bc1f55ed1280fe4fbe6b21c78379</title>
<g id="a_node9"><a xlink:href="dir_3072bc1f55ed1280fe4fbe6b21c78379.html" target="_top" xlink:title="Engine">
<polygon fill="white" stroke="red" points="203.794,-36 149.794,-36 149.794,-0 203.794,-0 203.794,-36"/>
<text text-anchor="middle" x="176.794" y="-15.5" font-family="Helvetica,sans-Serif" font-size="10.00">Engine</text>
</a>
</g>
</g>
<!-- dir_0a0d8c554334a5684cc8b98421956a17&#45;&gt;dir_3072bc1f55ed1280fe4fbe6b21c78379 -->
<g id="edge19" class="edge"><title>dir_0a0d8c554334a5684cc8b98421956a17&#45;&gt;dir_3072bc1f55ed1280fe4fbe6b21c78379</title>
<path fill="none" stroke="black" d="M281.173,-304.057C319.78,-300.475 372.117,-288.589 398.794,-252 408.221,-239.072 401.167,-231.823 398.794,-216 392.727,-175.542 394.298,-162.165 371.794,-128 350.634,-95.8733 338.656,-91.9998 305.794,-72 276.542,-54.197 240.238,-39.8885 213.603,-30.6471"/>
<polygon fill="black" stroke="black" points="214.497,-27.2546 203.903,-27.3566 212.248,-33.8836 214.497,-27.2546"/>
<g id="a_edge19&#45;headlabel"><a xlink:href="dir_000087_000063.html" target="_top" xlink:title="2">
<text text-anchor="middle" x="218.813" y="-23.2205" font-family="Helvetica,sans-Serif" font-size="10.00">2</text>
</a>
</g>
</g>
<!-- dir_fde802d0fe976469e8430b6df93e1b9e&#45;&gt;dir_a2f0e5642e47e7ed59fe0f0829eafb5f -->
<g id="edge13" class="edge"><title>dir_fde802d0fe976469e8430b6df93e1b9e&#45;&gt;dir_a2f0e5642e47e7ed59fe0f0829eafb5f</title>
<path fill="none" stroke="black" d="M201.391,-219.621C234.02,-205.209 281.368,-183.818 283.794,-180 295.599,-161.424 290.197,-136.381 282.938,-117.591"/>
<polygon fill="black" stroke="black" points="286.057,-115.982 278.933,-108.14 279.612,-118.713 286.057,-115.982"/>
<g id="a_edge13&#45;headlabel"><a xlink:href="dir_000088_000020.html" target="_top" xlink:title="3">
<text text-anchor="middle" x="290.074" y="-115.684" font-family="Helvetica,sans-Serif" font-size="10.00">3</text>
</a>
</g>
</g>
<!-- dir_fde802d0fe976469e8430b6df93e1b9e&#45;&gt;dir_3072bc1f55ed1280fe4fbe6b21c78379 -->
<g id="edge14" class="edge"><title>dir_fde802d0fe976469e8430b6df93e1b9e&#45;&gt;dir_3072bc1f55ed1280fe4fbe6b21c78379</title>
<path fill="none" stroke="black" d="M140.243,-219.951C137.055,-218.609 133.861,-217.272 130.794,-216 91.3803,-199.655 65.6474,-215.379 41.7944,-180 14.9611,-140.201 14.7571,-111.661 41.7944,-72 63.52,-40.1307 107.582,-27.4242 139.471,-22.3583"/>
<polygon fill="black" stroke="black" points="140.351,-25.7694 149.769,-20.9166 139.38,-18.837 140.351,-25.7694"/>
<g id="a_edge14&#45;headlabel"><a xlink:href="dir_000088_000063.html" target="_top" xlink:title="1">
<text text-anchor="middle" x="137.185" y="-26.5795" font-family="Helvetica,sans-Serif" font-size="10.00">1</text>
</a>
</g>
</g>
<!-- dir_db76f3c94886d731af6b7e364cea8b12 -->
<g id="node4" class="node"><title>dir_db76f3c94886d731af6b7e364cea8b12</title>
<g id="a_node4"><a xlink:href="dir_db76f3c94886d731af6b7e364cea8b12.html" target="_top" xlink:title="TransformEditor">
<polygon fill="white" stroke="black" points="169.794,-180 83.7944,-180 83.7944,-144 169.794,-144 169.794,-180"/>
<text text-anchor="middle" x="126.794" y="-159.5" font-family="Helvetica,sans-Serif" font-size="10.00">TransformEditor</text>
</a>
</g>
</g>
<!-- dir_db76f3c94886d731af6b7e364cea8b12&#45;&gt;dir_a2f0e5642e47e7ed59fe0f0829eafb5f -->
<g id="edge15" class="edge"><title>dir_db76f3c94886d731af6b7e364cea8b12&#45;&gt;dir_a2f0e5642e47e7ed59fe0f0829eafb5f</title>
<path fill="none" stroke="black" d="M151.649,-143.952C160.077,-138.518 169.67,-132.702 178.794,-128 196.156,-119.053 216.196,-110.706 233.043,-104.213"/>
<polygon fill="black" stroke="black" points="234.436,-107.428 242.549,-100.614 231.957,-100.882 234.436,-107.428"/>
<g id="a_edge15&#45;headlabel"><a xlink:href="dir_000089_000020.html" target="_top" xlink:title="1">
<text text-anchor="middle" x="232.08" y="-108.856" font-family="Helvetica,sans-Serif" font-size="10.00">1</text>
</a>
</g>
</g>
<!-- dir_db76f3c94886d731af6b7e364cea8b12&#45;&gt;dir_3072bc1f55ed1280fe4fbe6b21c78379 -->
<g id="edge16" class="edge"><title>dir_db76f3c94886d731af6b7e364cea8b12&#45;&gt;dir_3072bc1f55ed1280fe4fbe6b21c78379</title>
<path fill="none" stroke="black" d="M132.826,-143.871C141.422,-119.457 157.278,-74.4258 167.416,-45.6351"/>
<polygon fill="black" stroke="black" points="170.722,-46.7841 170.742,-36.1893 164.119,-44.4592 170.722,-46.7841"/>
<g id="a_edge16&#45;headlabel"><a xlink:href="dir_000089_000063.html" target="_top" xlink:title="3">
<text text-anchor="middle" x="172.206" y="-48.6176" font-family="Helvetica,sans-Serif" font-size="10.00">3</text>
</a>
</g>
</g>
<!-- dir_e89aeb6b59063c7bef233057991cda67&#45;&gt;dir_a2f0e5642e47e7ed59fe0f0829eafb5f -->
<g id="edge2" class="edge"><title>dir_e89aeb6b59063c7bef233057991cda67&#45;&gt;dir_a2f0e5642e47e7ed59fe0f0829eafb5f</title>
<path fill="none" stroke="black" d="M281.507,-218.643C296.592,-209.809 313.314,-196.913 321.794,-180 332.153,-159.34 332.388,-148.54 321.794,-128 318.009,-120.661 312.02,-114.459 305.432,-109.354"/>
<polygon fill="black" stroke="black" points="307.108,-106.259 296.887,-103.472 303.139,-112.025 307.108,-106.259"/>
<g id="a_edge2&#45;headlabel"><a xlink:href="dir_000090_000020.html" target="_top" xlink:title="1">
<text text-anchor="middle" x="311.679" y="-103.458" font-family="Helvetica,sans-Serif" font-size="10.00">1</text>
</a>
</g>
</g>
<!-- dir_e89aeb6b59063c7bef233057991cda67&#45;&gt;dir_3072bc1f55ed1280fe4fbe6b21c78379 -->
<g id="edge3" class="edge"><title>dir_e89aeb6b59063c7bef233057991cda67&#45;&gt;dir_3072bc1f55ed1280fe4fbe6b21c78379</title>
<path fill="none" stroke="black" d="M220.067,-219.747C216.626,-218.416 213.151,-217.138 209.794,-216 150.985,-196.064 112.626,-229.242 74.7944,-180 39.0754,-133.508 101.665,-74.2457 143.588,-42.1631"/>
<polygon fill="black" stroke="black" points="145.753,-44.9148 151.662,-36.1208 141.559,-39.3104 145.753,-44.9148"/>
<g id="a_edge3&#45;headlabel"><a xlink:href="dir_000090_000063.html" target="_top" xlink:title="5">
<text text-anchor="middle" x="144.576" y="-46.8417" font-family="Helvetica,sans-Serif" font-size="10.00">5</text>
</a>
</g>
</g>
<!-- dir_2cea9413440cac76c0711bd520597573 -->
<g id="node6" class="node"><title>dir_2cea9413440cac76c0711bd520597573</title>
<g id="a_node6"><a xlink:href="dir_2cea9413440cac76c0711bd520597573.html" target="_top" xlink:title="Utils">
<polygon fill="white" stroke="black" points="241.794,-180 187.794,-180 187.794,-144 241.794,-144 241.794,-180"/>
<text text-anchor="middle" x="214.794" y="-159.5" font-family="Helvetica,sans-Serif" font-size="10.00">Utils</text>
</a>
</g>
</g>
<!-- dir_2cea9413440cac76c0711bd520597573&#45;&gt;dir_a2f0e5642e47e7ed59fe0f0829eafb5f -->
<g id="edge8" class="edge"><title>dir_2cea9413440cac76c0711bd520597573&#45;&gt;dir_a2f0e5642e47e7ed59fe0f0829eafb5f</title>
<path fill="none" stroke="black" d="M228.39,-143.697C234.917,-135.389 242.862,-125.277 250.041,-116.141"/>
<polygon fill="black" stroke="black" points="252.929,-118.13 256.355,-108.104 247.425,-113.805 252.929,-118.13"/>
<g id="a_edge8&#45;headlabel"><a xlink:href="dir_000091_000020.html" target="_top" xlink:title="5">
<text text-anchor="middle" x="252.941" y="-120.211" font-family="Helvetica,sans-Serif" font-size="10.00">5</text>
</a>
</g>
</g>
<!-- dir_2cea9413440cac76c0711bd520597573&#45;&gt;dir_3072bc1f55ed1280fe4fbe6b21c78379 -->
<g id="edge9" class="edge"><title>dir_2cea9413440cac76c0711bd520597573&#45;&gt;dir_3072bc1f55ed1280fe4fbe6b21c78379</title>
<path fill="none" stroke="black" d="M210.211,-143.871C203.706,-119.564 191.732,-74.8187 184.023,-46.0132"/>
<polygon fill="black" stroke="black" points="187.361,-44.9445 181.394,-36.1893 180.598,-46.7542 187.361,-44.9445"/>
<g id="a_edge9&#45;headlabel"><a xlink:href="dir_000091_000063.html" target="_top" xlink:title="1">
<text text-anchor="middle" x="191.032" y="-45.183" font-family="Helvetica,sans-Serif" font-size="10.00">1</text>
</a>
</g>
</g>
<!-- dir_796a1a15fb9cc23998586ef6281d84e1&#45;&gt;dir_db76f3c94886d731af6b7e364cea8b12 -->
<g id="edge6" class="edge"><title>dir_796a1a15fb9cc23998586ef6281d84e1&#45;&gt;dir_db76f3c94886d731af6b7e364cea8b12</title>
<path fill="none" stroke="black" d="M102.704,-215.697C106.347,-207.728 110.749,-198.1 114.788,-189.264"/>
<polygon fill="black" stroke="black" points="118.001,-190.654 118.975,-180.104 111.634,-187.744 118.001,-190.654"/>
<g id="a_edge6&#45;headlabel"><a xlink:href="dir_000092_000089.html" target="_top" xlink:title="1">
<text text-anchor="middle" x="119.089" y="-192.604" font-family="Helvetica,sans-Serif" font-size="10.00">1</text>
</a>
</g>
</g>
<!-- dir_796a1a15fb9cc23998586ef6281d84e1&#45;&gt;dir_2cea9413440cac76c0711bd520597573 -->
<g id="edge5" class="edge"><title>dir_796a1a15fb9cc23998586ef6281d84e1&#45;&gt;dir_2cea9413440cac76c0711bd520597573</title>
<path fill="none" stroke="black" d="M122.024,-217.116C138.901,-207.271 160.768,-194.515 179.033,-183.861"/>
<polygon fill="black" stroke="black" points="180.798,-186.883 187.672,-178.821 177.271,-180.837 180.798,-186.883"/>
<g id="a_edge5&#45;headlabel"><a xlink:href="dir_000092_000091.html" target="_top" xlink:title="6">
<text text-anchor="middle" x="179.124" y="-188.647" font-family="Helvetica,sans-Serif" font-size="10.00">6</text>
</a>
</g>
</g>
<!-- dir_796a1a15fb9cc23998586ef6281d84e1&#45;&gt;dir_a2f0e5642e47e7ed59fe0f0829eafb5f -->
<g id="edge4" class="edge"><title>dir_796a1a15fb9cc23998586ef6281d84e1&#45;&gt;dir_a2f0e5642e47e7ed59fe0f0829eafb5f</title>
<path fill="none" stroke="black" d="M122.128,-219.575C125.028,-218.306 127.955,-217.089 130.794,-216 182.782,-196.056 213.051,-220.937 250.794,-180 266.066,-163.437 270.219,-137.712 270.903,-118.171"/>
<polygon fill="black" stroke="black" points="274.403,-118.073 270.974,-108.049 267.404,-118.024 274.403,-118.073"/>
<g id="a_edge4&#45;headlabel"><a xlink:href="dir_000092_000020.html" target="_top" xlink:title="31">
<text text-anchor="middle" x="277.217" y="-119.187" font-family="Helvetica,sans-Serif" font-size="10.00">31</text>
</a>
</g>
</g>
<!-- dir_796a1a15fb9cc23998586ef6281d84e1&#45;&gt;dir_3072bc1f55ed1280fe4fbe6b21c78379 -->
<g id="edge7" class="edge"><title>dir_796a1a15fb9cc23998586ef6281d84e1&#45;&gt;dir_3072bc1f55ed1280fe4fbe6b21c78379</title>
<path fill="none" stroke="black" d="M67.439,-222.234C49.7763,-213.676 28.2152,-199.823 17.7944,-180 -4.54888,-137.496 -8.20473,-110.273 20.7944,-72 48.4655,-35.4796 102.588,-23.9115 139.224,-20.368"/>
<polygon fill="black" stroke="black" points="139.834,-23.8303 149.52,-19.537 139.271,-16.853 139.834,-23.8303"/>
<g id="a_edge7&#45;headlabel"><a xlink:href="dir_000092_000063.html" target="_top" xlink:title="51">
<text text-anchor="middle" x="136.479" y="-24.4495" font-family="Helvetica,sans-Serif" font-size="10.00">51</text>
</a>
</g>
</g>
<!-- dir_a2f0e5642e47e7ed59fe0f0829eafb5f&#45;&gt;dir_3072bc1f55ed1280fe4fbe6b21c78379 -->
<g id="edge1" class="edge"><title>dir_a2f0e5642e47e7ed59fe0f0829eafb5f&#45;&gt;dir_3072bc1f55ed1280fe4fbe6b21c78379</title>
<path fill="none" stroke="black" d="M242.677,-72.9406C229.687,-63.9344 214.329,-52.5337 201.646,-42.536"/>
<polygon fill="black" stroke="black" points="203.743,-39.7307 193.751,-36.208 199.365,-45.193 203.743,-39.7307"/>
<g id="a_edge1&#45;headlabel"><a xlink:href="dir_000020_000063.html" target="_top" xlink:title="2">
<text text-anchor="middle" x="208.323" y="-37.2631" font-family="Helvetica,sans-Serif" font-size="10.00">2</text>
</a>
</g>
</g>
<!-- dir_3072bc1f55ed1280fe4fbe6b21c78379&#45;&gt;dir_2cea9413440cac76c0711bd520597573 -->
<g id="edge21" class="edge"><title>dir_3072bc1f55ed1280fe4fbe6b21c78379&#45;&gt;dir_2cea9413440cac76c0711bd520597573</title>
<path fill="none" stroke="black" d="M186.016,-36.2098C191.09,-46.3631 197.09,-59.6131 200.794,-72 206.873,-92.3235 210.44,-116.092 212.451,-133.951"/>
<polygon fill="black" stroke="black" points="208.977,-134.381 213.486,-143.968 215.939,-133.661 208.977,-134.381"/>
<g id="a_edge21&#45;headlabel"><a xlink:href="dir_000063_000091.html" target="_top" xlink:title="1">
<text text-anchor="middle" x="205.783" y="-128.597" font-family="Helvetica,sans-Serif" font-size="10.00">1</text>
</a>
</g>
</g>
<!-- dir_3072bc1f55ed1280fe4fbe6b21c78379&#45;&gt;dir_a2f0e5642e47e7ed59fe0f0829eafb5f -->
<g id="edge20" class="edge"><title>dir_3072bc1f55ed1280fe4fbe6b21c78379&#45;&gt;dir_a2f0e5642e47e7ed59fe0f0829eafb5f</title>
<path fill="none" stroke="black" d="M204.034,-35.1446C216.969,-44.117 232.23,-55.4461 244.856,-65.3959"/>
<polygon fill="black" stroke="black" points="242.728,-68.1761 252.721,-71.6966 247.105,-62.7129 242.728,-68.1761"/>
<g id="a_edge20&#45;headlabel"><a xlink:href="dir_000063_000020.html" target="_top" xlink:title="98">
<text text-anchor="middle" x="238.148" y="-65.6447" font-family="Helvetica,sans-Serif" font-size="10.00">98</text>
</a>
</g>
</g>
</g>
</svg>
