<?xml version="1.0" encoding="UTF-8" standalone="no"?>
<!DOCTYPE svg PUBLIC "-//W3C//DTD SVG 1.1//EN"
 "http://www.w3.org/Graphics/SVG/1.1/DTD/svg11.dtd">
<!-- Generated by graphviz version 2.36.0 (20140111.2315)
 -->
<!-- Title: /home/travis/build/STORM&#45;IRIT/Radium&#45;Engine/src/Core/Geometry/PointCloud Pages: 1 -->
<svg width="172pt" height="151pt"
 viewBox="0.00 0.00 172.00 151.00" xmlns="http://www.w3.org/2000/svg" xmlns:xlink="http://www.w3.org/1999/xlink">
<g id="graph0" class="graph" transform="scale(1 1) rotate(0) translate(4 147)">
<title>/home/travis/build/STORM&#45;IRIT/Radium&#45;Engine/src/Core/Geometry/PointCloud</title>
<polygon fill="white" stroke="none" points="-4,4 -4,-147 168,-147 168,4 -4,4"/>
<g id="clust1" class="cluster"><title>clusterdir_cb2b5dfd43482fb277f6333d539f1f06</title>
<g id="a_clust1"><a xlink:href="dir_cb2b5dfd43482fb277f6333d539f1f06.html" target="_top" xlink:title="Geometry">
<polygon fill="#ddddee" stroke="black" points="8,-64 8,-135 90,-135 90,-64 8,-64"/>
<text text-anchor="middle" x="49" y="-123" font-family="Helvetica,sans-Serif" font-size="10.00">Geometry</text>
</a>
</g>
</g>
<!-- dir_8148e0a0c7590a8ca5d56f41cfd3458a -->
<g id="node1" class="node"><title>dir_8148e0a0c7590a8ca5d56f41cfd3458a</title>
<g id="a_node1"><a xlink:href="dir_8148e0a0c7590a8ca5d56f41cfd3458a.html" target="_top" xlink:title="PointCloud">
<polygon fill="#eeeeff" stroke="black" points="81.25,-108 16.75,-108 16.75,-72 81.25,-72 81.25,-108"/>
<text text-anchor="middle" x="49" y="-87.5" font-family="Helvetica,sans-Serif" font-size="10.00">PointCloud</text>
</a>
</g>
</g>
<!-- dir_1456dd235032e023892318efbecb420b -->
<g id="node2" class="node"><title>dir_1456dd235032e023892318efbecb420b</title>
<g id="a_node2"><a xlink:href="dir_1456dd235032e023892318efbecb420b.html" target="_top" xlink:title="Containers">
<polygon fill="none" stroke="black" points="164,-108 100,-108 100,-72 164,-72 164,-108"/>
<text text-anchor="middle" x="132" y="-87.5" font-family="Helvetica,sans-Serif" font-size="10.00">Containers</text>
</a>
</g>
</g>
<!-- dir_8148e0a0c7590a8ca5d56f41cfd3458a&#45;&gt;dir_1456dd235032e023892318efbecb420b -->
<g id="edge4" class="edge"><title>dir_8148e0a0c7590a8ca5d56f41cfd3458a&#45;&gt;dir_1456dd235032e023892318efbecb420b</title>
<path fill="none" stroke="black" d="M81.4219,-90C84.227,-90 87.0321,-90 89.8372,-90"/>
<polygon fill="black" stroke="black" points="89.9936,-93.5001 99.9935,-90 89.9935,-86.5001 89.9936,-93.5001"/>
<g id="a_edge4&#45;headlabel"><a xlink:href="dir_000048_000033.html" target="_top" xlink:title="1">
<text text-anchor="middle" x="86.3989" y="-93.8393" font-family="Helvetica,sans-Serif" font-size="10.00">1</text>
</a>
</g>
</g>
<!-- dir_a1f42069ba95676f6b9abbd5065ccf6d -->
<g id="node3" class="node"><title>dir_a1f42069ba95676f6b9abbd5065ccf6d</title>
<g id="a_node3"><a xlink:href="dir_a1f42069ba95676f6b9abbd5065ccf6d.html" target="_top" xlink:title="Math">
<polygon fill="none" stroke="black" points="159,-36 105,-36 105,-0 159,-0 159,-36"/>
<text text-anchor="middle" x="132" y="-15.5" font-family="Helvetica,sans-Serif" font-size="10.00">Math</text>
</a>
</g>
</g>
<!-- dir_8148e0a0c7590a8ca5d56f41cfd3458a&#45;&gt;dir_a1f42069ba95676f6b9abbd5065ccf6d -->
<g id="edge5" class="edge"><title>dir_8148e0a0c7590a8ca5d56f41cfd3458a&#45;&gt;dir_a1f42069ba95676f6b9abbd5065ccf6d</title>
<path fill="none" stroke="black" d="M63.6011,-71.6966C73.1449,-62.8807 85.8424,-52.0321 97.7527,-42.4742"/>
<polygon fill="black" stroke="black" points="100.142,-45.0469 105.824,-36.1043 95.8059,-39.552 100.142,-45.0469"/>
<g id="a_edge5&#45;headlabel"><a xlink:href="dir_000048_000053.html" target="_top" xlink:title="3">
<text text-anchor="middle" x="99.0797" y="-47.0026" font-family="Helvetica,sans-Serif" font-size="10.00">3</text>
</a>
</g>
</g>
<!-- dir_1456dd235032e023892318efbecb420b&#45;&gt;dir_a1f42069ba95676f6b9abbd5065ccf6d -->
<g id="edge1" class="edge"><title>dir_1456dd235032e023892318efbecb420b&#45;&gt;dir_a1f42069ba95676f6b9abbd5065ccf6d</title>
<path fill="none" stroke="black" d="M126.084,-71.6966C125.289,-63.9827 125.062,-54.7125 125.405,-46.1124"/>
<polygon fill="black" stroke="black" points="128.898,-46.3243 126.105,-36.1043 121.915,-45.8356 128.898,-46.3243"/>
<g id="a_edge1&#45;headlabel"><a xlink:href="dir_000033_000053.html" target="_top" xlink:title="1">
<text text-anchor="middle" x="131.48" y="-47.6083" font-family="Helvetica,sans-Serif" font-size="10.00">1</text>
</a>
</g>
</g>
<!-- dir_a1f42069ba95676f6b9abbd5065ccf6d&#45;&gt;dir_8148e0a0c7590a8ca5d56f41cfd3458a -->
<g id="edge3" class="edge"><title>dir_a1f42069ba95676f6b9abbd5065ccf6d&#45;&gt;dir_8148e0a0c7590a8ca5d56f41cfd3458a</title>
<path fill="none" stroke="black" d="M117.614,-36.1043C108.118,-44.8894 95.4388,-55.7323 83.5168,-65.3094"/>
<polygon fill="black" stroke="black" points="81.1093,-62.7509 75.4326,-71.6966 85.4489,-68.2435 81.1093,-62.7509"/>
<g id="a_edge3&#45;headlabel"><a xlink:href="dir_000053_000048.html" target="_top" xlink:title="1">
<text text-anchor="middle" x="82.1696" y="-55.7947" font-family="Helvetica,sans-Serif" font-size="10.00">1</text>
</a>
</g>
</g>
<!-- dir_a1f42069ba95676f6b9abbd5065ccf6d&#45;&gt;dir_1456dd235032e023892318efbecb420b -->
<g id="edge2" class="edge"><title>dir_a1f42069ba95676f6b9abbd5065ccf6d&#45;&gt;dir_1456dd235032e023892318efbecb420b</title>
<path fill="none" stroke="black" d="M137.895,-36.1043C138.701,-43.7913 138.937,-53.0537 138.604,-61.6651"/>
<polygon fill="black" stroke="black" points="135.109,-61.4805 137.916,-71.6966 142.092,-61.9597 135.109,-61.4805"/>
<g id="a_edge2&#45;headlabel"><a xlink:href="dir_000053_000033.html" target="_top" xlink:title="3">
<text text-anchor="middle" x="132.522" y="-55.2" font-family="Helvetica,sans-Serif" font-size="10.00">3</text>
</a>
</g>
</g>
</g>
</svg>
