<?xml version="1.0" encoding="UTF-8" standalone="no"?>
<!DOCTYPE svg PUBLIC "-//W3C//DTD SVG 1.1//EN"
 "http://www.w3.org/Graphics/SVG/1.1/DTD/svg11.dtd">
<!-- Generated by graphviz version 2.36.0 (20140111.2315)
 -->
<!-- Title: /home/travis/build/STORM&#45;IRIT/Radium&#45;Engine/src/Engine/Renderer/RenderTechnique Pages: 1 -->
<svg width="198pt" height="223pt"
 viewBox="0.00 0.00 198.00 223.00" xmlns="http://www.w3.org/2000/svg" xmlns:xlink="http://www.w3.org/1999/xlink">
<g id="graph0" class="graph" transform="scale(1 1) rotate(0) translate(4 219)">
<title>/home/travis/build/STORM&#45;IRIT/Radium&#45;Engine/src/Engine/Renderer/RenderTechnique</title>
<polygon fill="white" stroke="none" points="-4,4 -4,-219 194,-219 194,4 -4,4"/>
<g id="clust1" class="cluster"><title>clusterdir_54018506bb725509c19b38b6d9bcf0f6</title>
<g id="a_clust1"><a xlink:href="dir_54018506bb725509c19b38b6d9bcf0f6.html" target="_top" xlink:title="Renderer">
<polygon fill="#ddddee" stroke="black" points="8,-136 8,-207 116,-207 116,-136 8,-136"/>
<text text-anchor="middle" x="62" y="-195" font-family="Helvetica,sans-Serif" font-size="10.00">Renderer</text>
</a>
</g>
</g>
<!-- dir_6bc97c5ccce2964f7b25f8377ac95818 -->
<g id="node1" class="node"><title>dir_6bc97c5ccce2964f7b25f8377ac95818</title>
<g id="a_node1"><a xlink:href="dir_6bc97c5ccce2964f7b25f8377ac95818.html" target="_top" xlink:title="RenderTechnique">
<polygon fill="#eeeeff" stroke="black" points="108.25,-180 15.75,-180 15.75,-144 108.25,-144 108.25,-180"/>
<text text-anchor="middle" x="62" y="-159.5" font-family="Helvetica,sans-Serif" font-size="10.00">RenderTechnique</text>
</a>
</g>
</g>
<!-- dir_8efb2e226a329d96dc3bcfc9eaf1a998 -->
<g id="node2" class="node"><title>dir_8efb2e226a329d96dc3bcfc9eaf1a998</title>
<g id="a_node2"><a xlink:href="dir_8efb2e226a329d96dc3bcfc9eaf1a998.html" target="_top" xlink:title="Texture">
<polygon fill="none" stroke="black" points="144,-108 90,-108 90,-72 144,-72 144,-108"/>
<text text-anchor="middle" x="117" y="-87.5" font-family="Helvetica,sans-Serif" font-size="10.00">Texture</text>
</a>
</g>
</g>
<!-- dir_6bc97c5ccce2964f7b25f8377ac95818&#45;&gt;dir_8efb2e226a329d96dc3bcfc9eaf1a998 -->
<g id="edge3" class="edge"><title>dir_6bc97c5ccce2964f7b25f8377ac95818&#45;&gt;dir_8efb2e226a329d96dc3bcfc9eaf1a998</title>
<path fill="none" stroke="black" d="M75.5955,-143.697C82.1227,-135.389 90.068,-125.277 97.2466,-116.141"/>
<polygon fill="black" stroke="black" points="100.135,-118.13 103.561,-108.104 94.6305,-113.805 100.135,-118.13"/>
<g id="a_edge3&#45;headlabel"><a xlink:href="dir_000083_000084.html" target="_top" xlink:title="1">
<text text-anchor="middle" x="100.147" y="-120.211" font-family="Helvetica,sans-Serif" font-size="10.00">1</text>
</a>
</g>
</g>
<!-- dir_a2f0e5642e47e7ed59fe0f0829eafb5f -->
<g id="node3" class="node"><title>dir_a2f0e5642e47e7ed59fe0f0829eafb5f</title>
<g id="a_node3"><a xlink:href="dir_a2f0e5642e47e7ed59fe0f0829eafb5f.html" target="_top" xlink:title="Core">
<polygon fill="white" stroke="red" points="144,-36 90,-36 90,-0 144,-0 144,-36"/>
<text text-anchor="middle" x="117" y="-15.5" font-family="Helvetica,sans-Serif" font-size="10.00">Core</text>
</a>
</g>
</g>
<!-- dir_6bc97c5ccce2964f7b25f8377ac95818&#45;&gt;dir_a2f0e5642e47e7ed59fe0f0829eafb5f -->
<g id="edge4" class="edge"><title>dir_6bc97c5ccce2964f7b25f8377ac95818&#45;&gt;dir_a2f0e5642e47e7ed59fe0f0829eafb5f</title>
<path fill="none" stroke="black" d="M63.6972,-143.674C65.9505,-125.29 70.8884,-95.6852 81,-72 85.0842,-62.4333 90.9884,-52.7836 96.8379,-44.3881"/>
<polygon fill="black" stroke="black" points="99.7797,-46.2938 102.835,-36.1492 94.1203,-42.1741 99.7797,-46.2938"/>
<g id="a_edge4&#45;headlabel"><a xlink:href="dir_000083_000020.html" target="_top" xlink:title="12">
<text text-anchor="middle" x="99.9597" y="-48.371" font-family="Helvetica,sans-Serif" font-size="10.00">12</text>
</a>
</g>
</g>
<!-- dir_745a441f70a5ddf403f2f793490dcc6d -->
<g id="node4" class="node"><title>dir_745a441f70a5ddf403f2f793490dcc6d</title>
<g id="a_node4"><a xlink:href="dir_745a441f70a5ddf403f2f793490dcc6d.html" target="_top" xlink:title="OpenGL">
<polygon fill="none" stroke="black" points="62,-36 8,-36 8,-0 62,-0 62,-36"/>
<text text-anchor="middle" x="35" y="-15.5" font-family="Helvetica,sans-Serif" font-size="10.00">OpenGL</text>
</a>
</g>
</g>
<!-- dir_6bc97c5ccce2964f7b25f8377ac95818&#45;&gt;dir_745a441f70a5ddf403f2f793490dcc6d -->
<g id="edge5" class="edge"><title>dir_6bc97c5ccce2964f7b25f8377ac95818&#45;&gt;dir_745a441f70a5ddf403f2f793490dcc6d</title>
<path fill="none" stroke="black" d="M56.9649,-143.93C54.0494,-133.599 50.4779,-120.121 48,-108 43.8043,-87.4755 40.4359,-64.0209 38.18,-46.3438"/>
<polygon fill="black" stroke="black" points="41.6219,-45.657 36.9218,-36.1618 34.6747,-46.5156 41.6219,-45.657"/>
<g id="a_edge5&#45;headlabel"><a xlink:href="dir_000083_000079.html" target="_top" xlink:title="1">
<text text-anchor="middle" x="44.8805" y="-46.3763" font-family="Helvetica,sans-Serif" font-size="10.00">1</text>
</a>
</g>
</g>
<!-- dir_909774b1a000bf73b2cf501716b773f3 -->
<g id="node5" class="node"><title>dir_909774b1a000bf73b2cf501716b773f3</title>
<g id="a_node5"><a xlink:href="dir_909774b1a000bf73b2cf501716b773f3.html" target="_top" xlink:title="Material">
<polygon fill="none" stroke="black" points="190,-180 136,-180 136,-144 190,-144 190,-180"/>
<text text-anchor="middle" x="163" y="-159.5" font-family="Helvetica,sans-Serif" font-size="10.00">Material</text>
</a>
</g>
</g>
<!-- dir_6bc97c5ccce2964f7b25f8377ac95818&#45;&gt;dir_909774b1a000bf73b2cf501716b773f3 -->
<g id="edge6" class="edge"><title>dir_6bc97c5ccce2964f7b25f8377ac95818&#45;&gt;dir_909774b1a000bf73b2cf501716b773f3</title>
<path fill="none" stroke="black" d="M108.555,-162C114.226,-162 119.897,-162 125.569,-162"/>
<polygon fill="black" stroke="black" points="125.777,-165.5 135.777,-162 125.777,-158.5 125.777,-165.5"/>
<g id="a_edge6&#45;headlabel"><a xlink:href="dir_000083_000077.html" target="_top" xlink:title="1">
<text text-anchor="middle" x="122.183" y="-165.839" font-family="Helvetica,sans-Serif" font-size="10.00">1</text>
</a>
</g>
</g>
<!-- dir_8efb2e226a329d96dc3bcfc9eaf1a998&#45;&gt;dir_a2f0e5642e47e7ed59fe0f0829eafb5f -->
<g id="edge1" class="edge"><title>dir_8efb2e226a329d96dc3bcfc9eaf1a998&#45;&gt;dir_a2f0e5642e47e7ed59fe0f0829eafb5f</title>
<path fill="none" stroke="black" d="M117,-71.6966C117,-63.9827 117,-54.7125 117,-46.1124"/>
<polygon fill="black" stroke="black" points="120.5,-46.1043 117,-36.1043 113.5,-46.1044 120.5,-46.1043"/>
<g id="a_edge1&#45;headlabel"><a xlink:href="dir_000084_000020.html" target="_top" xlink:title="2">
<text text-anchor="middle" x="123.339" y="-47.199" font-family="Helvetica,sans-Serif" font-size="10.00">2</text>
</a>
</g>
</g>
<!-- dir_8efb2e226a329d96dc3bcfc9eaf1a998&#45;&gt;dir_745a441f70a5ddf403f2f793490dcc6d -->
<g id="edge2" class="edge"><title>dir_8efb2e226a329d96dc3bcfc9eaf1a998&#45;&gt;dir_745a441f70a5ddf403f2f793490dcc6d</title>
<path fill="none" stroke="black" d="M96.7303,-71.6966C86.5024,-62.9655 73.9389,-52.2405 62.8218,-42.7503"/>
<polygon fill="black" stroke="black" points="64.9146,-39.935 55.0365,-36.1043 60.3697,-45.259 64.9146,-39.935"/>
<g id="a_edge2&#45;headlabel"><a xlink:href="dir_000084_000079.html" target="_top" xlink:title="2">
<text text-anchor="middle" x="69.4919" y="-37.6094" font-family="Helvetica,sans-Serif" font-size="10.00">2</text>
</a>
</g>
</g>
<!-- dir_909774b1a000bf73b2cf501716b773f3&#45;&gt;dir_6bc97c5ccce2964f7b25f8377ac95818 -->
<g id="edge9" class="edge"><title>dir_909774b1a000bf73b2cf501716b773f3&#45;&gt;dir_6bc97c5ccce2964f7b25f8377ac95818</title>
<path fill="none" stroke="black" d="M135.777,-162C130.106,-162 124.435,-162 118.763,-162"/>
<polygon fill="black" stroke="black" points="118.555,-158.5 108.555,-162 118.555,-165.5 118.555,-158.5"/>
<g id="a_edge9&#45;headlabel"><a xlink:href="dir_000077_000083.html" target="_top" xlink:title="3">
<text text-anchor="middle" x="122.149" y="-153.161" font-family="Helvetica,sans-Serif" font-size="10.00">3</text>
</a>
</g>
</g>
<!-- dir_909774b1a000bf73b2cf501716b773f3&#45;&gt;dir_8efb2e226a329d96dc3bcfc9eaf1a998 -->
<g id="edge7" class="edge"><title>dir_909774b1a000bf73b2cf501716b773f3&#45;&gt;dir_8efb2e226a329d96dc3bcfc9eaf1a998</title>
<path fill="none" stroke="black" d="M151.629,-143.697C146.282,-135.559 139.796,-125.689 133.889,-116.701"/>
<polygon fill="black" stroke="black" points="136.657,-114.539 128.24,-108.104 130.807,-118.384 136.657,-114.539"/>
<g id="a_edge7&#45;headlabel"><a xlink:href="dir_000077_000084.html" target="_top" xlink:title="2">
<text text-anchor="middle" x="141.004" y="-113.484" font-family="Helvetica,sans-Serif" font-size="10.00">2</text>
</a>
</g>
</g>
<!-- dir_909774b1a000bf73b2cf501716b773f3&#45;&gt;dir_a2f0e5642e47e7ed59fe0f0829eafb5f -->
<g id="edge8" class="edge"><title>dir_909774b1a000bf73b2cf501716b773f3&#45;&gt;dir_a2f0e5642e47e7ed59fe0f0829eafb5f</title>
<path fill="none" stroke="black" d="M163.481,-143.708C163.442,-125.352 161.792,-95.7703 153,-72 149.449,-62.3988 143.798,-52.8512 138.017,-44.5595"/>
<polygon fill="black" stroke="black" points="140.774,-42.4016 132.027,-36.4237 135.137,-46.5517 140.774,-42.4016"/>
<g id="a_edge8&#45;headlabel"><a xlink:href="dir_000077_000020.html" target="_top" xlink:title="3">
<text text-anchor="middle" x="145.192" y="-41.1129" font-family="Helvetica,sans-Serif" font-size="10.00">3</text>
</a>
</g>
</g>
</g>
</svg>
