<?xml version="1.0" encoding="UTF-8" standalone="no"?>
<!DOCTYPE svg PUBLIC "-//W3C//DTD SVG 1.1//EN"
 "http://www.w3.org/Graphics/SVG/1.1/DTD/svg11.dtd">
<!-- Generated by graphviz version 2.36.0 (20140111.2315)
 -->
<!-- Title: /home/travis/build/STORM&#45;IRIT/Radium&#45;Engine/src/Core/TreeStructures Pages: 1 -->
<svg width="146pt" height="367pt"
 viewBox="0.00 0.00 145.80 367.00" xmlns="http://www.w3.org/2000/svg" xmlns:xlink="http://www.w3.org/1999/xlink">
<g id="graph0" class="graph" transform="scale(1 1) rotate(0) translate(4 363)">
<title>/home/travis/build/STORM&#45;IRIT/Radium&#45;Engine/src/Core/TreeStructures</title>
<polygon fill="white" stroke="none" points="-4,4 -4,-363 141.799,-363 141.799,4 -4,4"/>
<g id="clust1" class="cluster"><title>clusterdir_a2f0e5642e47e7ed59fe0f0829eafb5f</title>
<g id="a_clust1"><a xlink:href="dir_a2f0e5642e47e7ed59fe0f0829eafb5f.html" target="_top" xlink:title="Core">
<polygon fill="#ddddee" stroke="black" points="16.9881,-280 16.9881,-351 114.988,-351 114.988,-280 16.9881,-280"/>
<text text-anchor="middle" x="65.9881" y="-339" font-family="Helvetica,sans-Serif" font-size="10.00">Core</text>
</a>
</g>
</g>
<!-- dir_a705468f57540a4393b94530d70ef4ca -->
<g id="node1" class="node"><title>dir_a705468f57540a4393b94530d70ef4ca</title>
<g id="a_node1"><a xlink:href="dir_a705468f57540a4393b94530d70ef4ca.html" target="_top" xlink:title="TreeStructures">
<polygon fill="#eeeeff" stroke="black" points="106.238,-324 25.7381,-324 25.7381,-288 106.238,-288 106.238,-324"/>
<text text-anchor="middle" x="65.9881" y="-303.5" font-family="Helvetica,sans-Serif" font-size="10.00">TreeStructures</text>
</a>
</g>
</g>
<!-- dir_d080e052e6032887076b6b5756e5361d -->
<g id="node2" class="node"><title>dir_d080e052e6032887076b6b5756e5361d</title>
<g id="a_node2"><a xlink:href="dir_d080e052e6032887076b6b5756e5361d.html" target="_top" xlink:title="Mesh">
<polygon fill="white" stroke="red" points="65.9881,-180 11.9881,-180 11.9881,-144 65.9881,-144 65.9881,-180"/>
<text text-anchor="middle" x="38.9881" y="-159.5" font-family="Helvetica,sans-Serif" font-size="10.00">Mesh</text>
</a>
</g>
</g>
<!-- dir_a705468f57540a4393b94530d70ef4ca&#45;&gt;dir_d080e052e6032887076b6b5756e5361d -->
<g id="edge7" class="edge"><title>dir_a705468f57540a4393b94530d70ef4ca&#45;&gt;dir_d080e052e6032887076b6b5756e5361d</title>
<path fill="none" stroke="black" d="M62.7313,-287.871C58.1296,-263.67 49.6761,-219.211 44.1966,-190.393"/>
<polygon fill="black" stroke="black" points="47.5629,-189.359 42.2565,-180.189 40.6861,-190.667 47.5629,-189.359"/>
<g id="a_edge7&#45;headlabel"><a xlink:href="dir_000060_000054.html" target="_top" xlink:title="3">
<text text-anchor="middle" x="51.0236" y="-189.86" font-family="Helvetica,sans-Serif" font-size="10.00">3</text>
</a>
</g>
</g>
<!-- dir_a1f42069ba95676f6b9abbd5065ccf6d -->
<g id="node3" class="node"><title>dir_a1f42069ba95676f6b9abbd5065ccf6d</title>
<g id="a_node3"><a xlink:href="dir_a1f42069ba95676f6b9abbd5065ccf6d.html" target="_top" xlink:title="Math">
<polygon fill="none" stroke="black" points="112.988,-108 58.9881,-108 58.9881,-72 112.988,-72 112.988,-108"/>
<text text-anchor="middle" x="85.9881" y="-87.5" font-family="Helvetica,sans-Serif" font-size="10.00">Math</text>
</a>
</g>
</g>
<!-- dir_a705468f57540a4393b94530d70ef4ca&#45;&gt;dir_a1f42069ba95676f6b9abbd5065ccf6d -->
<g id="edge8" class="edge"><title>dir_a705468f57540a4393b94530d70ef4ca&#45;&gt;dir_a1f42069ba95676f6b9abbd5065ccf6d</title>
<path fill="none" stroke="black" d="M96.7571,-287.907C109.533,-279.021 122.989,-266.883 129.988,-252 151.291,-206.7 123.804,-149.22 103.676,-116.629"/>
<polygon fill="black" stroke="black" points="106.577,-114.668 98.2411,-108.128 100.679,-118.438 106.577,-114.668"/>
<g id="a_edge8&#45;headlabel"><a xlink:href="dir_000060_000053.html" target="_top" xlink:title="2">
<text text-anchor="middle" x="110.905" y="-113.667" font-family="Helvetica,sans-Serif" font-size="10.00">2</text>
</a>
</g>
</g>
<!-- dir_cb2b5dfd43482fb277f6333d539f1f06 -->
<g id="node4" class="node"><title>dir_cb2b5dfd43482fb277f6333d539f1f06</title>
<g id="a_node4"><a xlink:href="dir_cb2b5dfd43482fb277f6333d539f1f06.html" target="_top" xlink:title="Geometry">
<polygon fill="white" stroke="red" points="83.2381,-36 24.7381,-36 24.7381,-0 83.2381,-0 83.2381,-36"/>
<text text-anchor="middle" x="53.9881" y="-15.5" font-family="Helvetica,sans-Serif" font-size="10.00">Geometry</text>
</a>
</g>
</g>
<!-- dir_a705468f57540a4393b94530d70ef4ca&#45;&gt;dir_cb2b5dfd43482fb277f6333d539f1f06 -->
<g id="edge9" class="edge"><title>dir_a705468f57540a4393b94530d70ef4ca&#45;&gt;dir_cb2b5dfd43482fb277f6333d539f1f06</title>
<path fill="none" stroke="black" d="M54.0124,-287.803C38.653,-264.595 12.8252,-221.375 2.98809,-180 -8.5548,-131.451 17.7933,-76.2923 36.7516,-44.7723"/>
<polygon fill="black" stroke="black" points="39.7995,-46.4988 42.1063,-36.1582 33.8544,-42.8033 39.7995,-46.4988"/>
<g id="a_edge9&#45;headlabel"><a xlink:href="dir_000060_000038.html" target="_top" xlink:title="2">
<text text-anchor="middle" x="40.3132" y="-48.5506" font-family="Helvetica,sans-Serif" font-size="10.00">2</text>
</a>
</g>
</g>
<!-- dir_3072bc1f55ed1280fe4fbe6b21c78379 -->
<g id="node5" class="node"><title>dir_3072bc1f55ed1280fe4fbe6b21c78379</title>
<g id="a_node5"><a xlink:href="dir_3072bc1f55ed1280fe4fbe6b21c78379.html" target="_top" xlink:title="Engine">
<polygon fill="white" stroke="red" points="120.988,-252 66.9881,-252 66.9881,-216 120.988,-216 120.988,-252"/>
<text text-anchor="middle" x="93.9881" y="-231.5" font-family="Helvetica,sans-Serif" font-size="10.00">Engine</text>
</a>
</g>
</g>
<!-- dir_a705468f57540a4393b94530d70ef4ca&#45;&gt;dir_3072bc1f55ed1280fe4fbe6b21c78379 -->
<g id="edge10" class="edge"><title>dir_a705468f57540a4393b94530d70ef4ca&#45;&gt;dir_3072bc1f55ed1280fe4fbe6b21c78379</title>
<path fill="none" stroke="black" d="M72.9094,-287.697C76.0628,-279.813 79.8664,-270.304 83.3695,-261.546"/>
<polygon fill="black" stroke="black" points="86.6821,-262.689 87.1464,-252.104 80.1827,-260.089 86.6821,-262.689"/>
<g id="a_edge10&#45;headlabel"><a xlink:href="dir_000060_000063.html" target="_top" xlink:title="1">
<text text-anchor="middle" x="87.9833" y="-264.581" font-family="Helvetica,sans-Serif" font-size="10.00">1</text>
</a>
</g>
</g>
<!-- dir_d080e052e6032887076b6b5756e5361d&#45;&gt;dir_a1f42069ba95676f6b9abbd5065ccf6d -->
<g id="edge1" class="edge"><title>dir_d080e052e6032887076b6b5756e5361d&#45;&gt;dir_a1f42069ba95676f6b9abbd5065ccf6d</title>
<path fill="none" stroke="black" d="M44.6903,-143.697C49.4112,-135.389 56.0041,-125.277 62.6018,-116.141"/>
<polygon fill="black" stroke="black" points="65.4251,-118.21 68.6087,-108.104 59.8183,-114.019 65.4251,-118.21"/>
<g id="a_edge1&#45;headlabel"><a xlink:href="dir_000054_000053.html" target="_top" xlink:title="7">
<text text-anchor="middle" x="65.5472" y="-120.289" font-family="Helvetica,sans-Serif" font-size="10.00">7</text>
</a>
</g>
</g>
<!-- dir_d080e052e6032887076b6b5756e5361d&#45;&gt;dir_cb2b5dfd43482fb277f6333d539f1f06 -->
<g id="edge2" class="edge"><title>dir_d080e052e6032887076b6b5756e5361d&#45;&gt;dir_cb2b5dfd43482fb277f6333d539f1f06</title>
<path fill="none" stroke="black" d="M36.2129,-143.871C36.211,-119.564 40.6549,-74.8187 45.7018,-46.0132"/>
<polygon fill="black" stroke="black" points="49.1398,-46.6689 47.5814,-36.1893 42.2645,-45.3534 49.1398,-46.6689"/>
<g id="a_edge2&#45;headlabel"><a xlink:href="dir_000054_000038.html" target="_top" xlink:title="2">
<text text-anchor="middle" x="51.2531" y="-48.233" font-family="Helvetica,sans-Serif" font-size="10.00">2</text>
</a>
</g>
</g>
<!-- dir_a1f42069ba95676f6b9abbd5065ccf6d&#45;&gt;dir_d080e052e6032887076b6b5756e5361d -->
<g id="edge3" class="edge"><title>dir_a1f42069ba95676f6b9abbd5065ccf6d&#45;&gt;dir_d080e052e6032887076b6b5756e5361d</title>
<path fill="none" stroke="black" d="M80.3988,-108.104C75.708,-116.383 69.1303,-126.488 62.5327,-135.64"/>
<polygon fill="black" stroke="black" points="59.6964,-133.589 56.5218,-143.697 65.3069,-137.774 59.6964,-133.589"/>
<g id="a_edge3&#45;headlabel"><a xlink:href="dir_000053_000054.html" target="_top" xlink:title="1">
<text text-anchor="middle" x="59.5701" y="-126.51" font-family="Helvetica,sans-Serif" font-size="10.00">1</text>
</a>
</g>
</g>
<!-- dir_a1f42069ba95676f6b9abbd5065ccf6d&#45;&gt;dir_cb2b5dfd43482fb277f6333d539f1f06 -->
<g id="edge4" class="edge"><title>dir_a1f42069ba95676f6b9abbd5065ccf6d&#45;&gt;dir_cb2b5dfd43482fb277f6333d539f1f06</title>
<path fill="none" stroke="black" d="M72.1622,-71.6966C67.7452,-63.8132 63.1795,-54.3042 59.5517,-45.5464"/>
<polygon fill="black" stroke="black" points="62.7747,-44.1763 55.9122,-36.1043 56.2431,-46.694 62.7747,-44.1763"/>
<g id="a_edge4&#45;headlabel"><a xlink:href="dir_000053_000038.html" target="_top" xlink:title="2">
<text text-anchor="middle" x="66.7167" y="-44.0092" font-family="Helvetica,sans-Serif" font-size="10.00">2</text>
</a>
</g>
</g>
<!-- dir_cb2b5dfd43482fb277f6333d539f1f06&#45;&gt;dir_d080e052e6032887076b6b5756e5361d -->
<g id="edge5" class="edge"><title>dir_cb2b5dfd43482fb277f6333d539f1f06&#45;&gt;dir_d080e052e6032887076b6b5756e5361d</title>
<path fill="none" stroke="black" d="M56.7632,-36.1893C56.7578,-60.4244 52.3486,-104.888 47.3281,-133.679"/>
<polygon fill="black" stroke="black" points="43.8197,-133.392 45.3819,-143.871 50.6955,-134.705 43.8197,-133.392"/>
<g id="a_edge5&#45;headlabel"><a xlink:href="dir_000038_000054.html" target="_top" xlink:title="10">
<text text-anchor="middle" x="41.7049" y="-126.829" font-family="Helvetica,sans-Serif" font-size="10.00">10</text>
</a>
</g>
</g>
<!-- dir_cb2b5dfd43482fb277f6333d539f1f06&#45;&gt;dir_a1f42069ba95676f6b9abbd5065ccf6d -->
<g id="edge6" class="edge"><title>dir_cb2b5dfd43482fb277f6333d539f1f06&#45;&gt;dir_a1f42069ba95676f6b9abbd5065ccf6d</title>
<path fill="none" stroke="black" d="M67.7022,-36.1043C72.1167,-43.9602 76.6889,-53.4616 80.3325,-62.232"/>
<polygon fill="black" stroke="black" points="77.1216,-63.6328 83.9937,-71.6966 83.6502,-61.1074 77.1216,-63.6328"/>
<g id="a_edge6&#45;headlabel"><a xlink:href="dir_000038_000053.html" target="_top" xlink:title="14">
<text text-anchor="middle" x="73.1768" y="-58.8046" font-family="Helvetica,sans-Serif" font-size="10.00">14</text>
</a>
</g>
</g>
<!-- dir_3072bc1f55ed1280fe4fbe6b21c78379&#45;&gt;dir_d080e052e6032887076b6b5756e5361d -->
<g id="edge11" class="edge"><title>dir_3072bc1f55ed1280fe4fbe6b21c78379&#45;&gt;dir_d080e052e6032887076b6b5756e5361d</title>
<path fill="none" stroke="black" d="M80.3926,-215.697C73.8654,-207.389 65.9201,-197.277 58.7415,-188.141"/>
<polygon fill="black" stroke="black" points="61.3576,-185.805 52.4272,-180.104 55.8533,-190.13 61.3576,-185.805"/>
<g id="a_edge11&#45;headlabel"><a xlink:href="dir_000063_000054.html" target="_top" xlink:title="11">
<text text-anchor="middle" x="65.8109" y="-184.377" font-family="Helvetica,sans-Serif" font-size="10.00">11</text>
</a>
</g>
</g>
<!-- dir_3072bc1f55ed1280fe4fbe6b21c78379&#45;&gt;dir_a1f42069ba95676f6b9abbd5065ccf6d -->
<g id="edge12" class="edge"><title>dir_3072bc1f55ed1280fe4fbe6b21c78379&#45;&gt;dir_a1f42069ba95676f6b9abbd5065ccf6d</title>
<path fill="none" stroke="black" d="M93.0231,-215.871C91.6596,-191.67 89.1549,-147.211 87.5314,-118.393"/>
<polygon fill="black" stroke="black" points="91.0135,-117.977 86.9565,-108.189 84.0246,-118.37 91.0135,-117.977"/>
<g id="a_edge12&#45;headlabel"><a xlink:href="dir_000063_000053.html" target="_top" xlink:title="24">
<text text-anchor="middle" x="94.0504" y="-118.906" font-family="Helvetica,sans-Serif" font-size="10.00">24</text>
</a>
</g>
</g>
<!-- dir_3072bc1f55ed1280fe4fbe6b21c78379&#45;&gt;dir_cb2b5dfd43482fb277f6333d539f1f06 -->
<g id="edge13" class="edge"><title>dir_3072bc1f55ed1280fe4fbe6b21c78379&#45;&gt;dir_cb2b5dfd43482fb277f6333d539f1f06</title>
<path fill="none" stroke="black" d="M103.574,-215.589C119.045,-184.974 145.522,-120.181 121.988,-72 115.486,-58.6884 103.847,-47.7476 92.0152,-39.3342"/>
<polygon fill="black" stroke="black" points="93.7072,-36.257 83.4364,-33.6568 89.844,-42.0944 93.7072,-36.257"/>
<g id="a_edge13&#45;headlabel"><a xlink:href="dir_000063_000038.html" target="_top" xlink:title="1">
<text text-anchor="middle" x="98.2718" y="-33.373" font-family="Helvetica,sans-Serif" font-size="10.00">1</text>
</a>
</g>
</g>
</g>
</svg>
