<?xml version="1.0" encoding="UTF-8" standalone="no"?>
<!DOCTYPE svg PUBLIC "-//W3C//DTD SVG 1.1//EN"
 "http://www.w3.org/Graphics/SVG/1.1/DTD/svg11.dtd">
<!-- Generated by graphviz version 2.36.0 (20140111.2315)
 -->
<!-- Title: /home/travis/build/STORM&#45;IRIT/Radium&#45;Engine/src/GuiBase/Viewer Pages: 1 -->
<svg width="161pt" height="447pt"
 viewBox="0.00 0.00 161.02 447.00" xmlns="http://www.w3.org/2000/svg" xmlns:xlink="http://www.w3.org/1999/xlink">
<g id="graph0" class="graph" transform="scale(1 1) rotate(0) translate(4 443)">
<title>/home/travis/build/STORM&#45;IRIT/Radium&#45;Engine/src/GuiBase/Viewer</title>
<polygon fill="white" stroke="none" points="-4,4 -4,-443 157.02,-443 157.02,4 -4,4"/>
<g id="clust1" class="cluster"><title>clusterdir_cb59203ea3f84fc4d67c89730003fed4</title>
<g id="a_clust1"><a xlink:href="dir_cb59203ea3f84fc4d67c89730003fed4.html" target="_top" xlink:title="GuiBase">
<polygon fill="#ddddee" stroke="black" points="13.2906,-272 13.2906,-431 99.2906,-431 99.2906,-272 13.2906,-272"/>
<text text-anchor="middle" x="56.2906" y="-419" font-family="Helvetica,sans-Serif" font-size="10.00">GuiBase</text>
</a>
</g>
</g>
<g id="clust2" class="cluster"><title>clusterdir_796a1a15fb9cc23998586ef6281d84e1</title>
<g id="a_clust2"><a xlink:href="dir_796a1a15fb9cc23998586ef6281d84e1.html" target="_top">
<polygon fill="#eeeeff" stroke="black" points="21.2906,-280 21.2906,-404 91.2906,-404 91.2906,-280 21.2906,-280"/>
</a>
</g>
</g>
<!-- dir_796a1a15fb9cc23998586ef6281d84e1 -->
<g id="node1" class="node"><title>dir_796a1a15fb9cc23998586ef6281d84e1</title>
<text text-anchor="middle" x="56.2906" y="-375.5" font-family="Helvetica,sans-Serif" font-size="10.00">Viewer</text>
</g>
<!-- dir_2c8f14969c5db5f42892fe1e101a5e81 -->
<g id="node2" class="node"><title>dir_2c8f14969c5db5f42892fe1e101a5e81</title>
<g id="a_node2"><a xlink:href="dir_2c8f14969c5db5f42892fe1e101a5e81.html" target="_top" xlink:title="Gizmo">
<polygon fill="white" stroke="black" points="83.2906,-324 29.2906,-324 29.2906,-288 83.2906,-288 83.2906,-324"/>
<text text-anchor="middle" x="56.2906" y="-303.5" font-family="Helvetica,sans-Serif" font-size="10.00">Gizmo</text>
</a>
</g>
</g>
<!-- dir_796a1a15fb9cc23998586ef6281d84e1&#45;&gt;dir_2c8f14969c5db5f42892fe1e101a5e81 -->
<g id="edge2" class="edge"><title>dir_796a1a15fb9cc23998586ef6281d84e1&#45;&gt;dir_2c8f14969c5db5f42892fe1e101a5e81</title>
<path fill="none" stroke="black" d="M56.2906,-359.697C56.2906,-351.983 56.2906,-342.712 56.2906,-334.112"/>
<polygon fill="black" stroke="black" points="59.7907,-334.104 56.2906,-324.104 52.7907,-334.104 59.7907,-334.104"/>
<g id="a_edge2&#45;headlabel"><a xlink:href="dir_000092_000093.html" target="_top" xlink:title="1">
<text text-anchor="middle" x="62.6299" y="-335.199" font-family="Helvetica,sans-Serif" font-size="10.00">1</text>
</a>
</g>
</g>
<!-- dir_a2f0e5642e47e7ed59fe0f0829eafb5f -->
<g id="node3" class="node"><title>dir_a2f0e5642e47e7ed59fe0f0829eafb5f</title>
<g id="a_node3"><a xlink:href="dir_a2f0e5642e47e7ed59fe0f0829eafb5f.html" target="_top" xlink:title="Core">
<polygon fill="white" stroke="red" points="65.2906,-180 11.2906,-180 11.2906,-144 65.2906,-144 65.2906,-180"/>
<text text-anchor="middle" x="38.2906" y="-159.5" font-family="Helvetica,sans-Serif" font-size="10.00">Core</text>
</a>
</g>
</g>
<!-- dir_2c8f14969c5db5f42892fe1e101a5e81&#45;&gt;dir_a2f0e5642e47e7ed59fe0f0829eafb5f -->
<g id="edge7" class="edge"><title>dir_2c8f14969c5db5f42892fe1e101a5e81&#45;&gt;dir_a2f0e5642e47e7ed59fe0f0829eafb5f</title>
<path fill="none" stroke="black" d="M49.7408,-287.612C46.2243,-277.4 42.2243,-264.15 40.2906,-252 37.0317,-231.523 36.6392,-208.067 37.0038,-190.376"/>
<polygon fill="black" stroke="black" points="40.508,-190.286 37.3098,-180.185 33.5112,-190.076 40.508,-190.286"/>
<g id="a_edge7&#45;headlabel"><a xlink:href="dir_000093_000020.html" target="_top" xlink:title="15">
<text text-anchor="middle" x="43.2382" y="-191.464" font-family="Helvetica,sans-Serif" font-size="10.00">15</text>
</a>
</g>
</g>
<!-- dir_2cea9413440cac76c0711bd520597573 -->
<g id="node4" class="node"><title>dir_2cea9413440cac76c0711bd520597573</title>
<g id="a_node4"><a xlink:href="dir_2cea9413440cac76c0711bd520597573.html" target="_top" xlink:title="Utils">
<polygon fill="none" stroke="black" points="83.2906,-36 29.2906,-36 29.2906,-0 83.2906,-0 83.2906,-36"/>
<text text-anchor="middle" x="56.2906" y="-15.5" font-family="Helvetica,sans-Serif" font-size="10.00">Utils</text>
</a>
</g>
</g>
<!-- dir_2c8f14969c5db5f42892fe1e101a5e81&#45;&gt;dir_2cea9413440cac76c0711bd520597573 -->
<g id="edge8" class="edge"><title>dir_2c8f14969c5db5f42892fe1e101a5e81&#45;&gt;dir_2cea9413440cac76c0711bd520597573</title>
<path fill="none" stroke="black" d="M44.2036,-287.983C25.0866,-259.01 -8.87244,-197.989 2.29059,-144 9.72785,-108.03 28.0292,-69.6771 41.2673,-45.0836"/>
<polygon fill="black" stroke="black" points="44.4808,-46.5036 46.2343,-36.0549 38.3476,-43.1296 44.4808,-46.5036"/>
<g id="a_edge8&#45;headlabel"><a xlink:href="dir_000093_000091.html" target="_top" xlink:title="2">
<text text-anchor="middle" x="45.2359" y="-48.5216" font-family="Helvetica,sans-Serif" font-size="10.00">2</text>
</a>
</g>
</g>
<!-- dir_db76f3c94886d731af6b7e364cea8b12 -->
<g id="node5" class="node"><title>dir_db76f3c94886d731af6b7e364cea8b12</title>
<g id="a_node5"><a xlink:href="dir_db76f3c94886d731af6b7e364cea8b12.html" target="_top" xlink:title="TransformEditor">
<polygon fill="none" stroke="black" points="135.291,-252 49.2906,-252 49.2906,-216 135.291,-216 135.291,-252"/>
<text text-anchor="middle" x="92.2906" y="-231.5" font-family="Helvetica,sans-Serif" font-size="10.00">TransformEditor</text>
</a>
</g>
</g>
<!-- dir_2c8f14969c5db5f42892fe1e101a5e81&#45;&gt;dir_db76f3c94886d731af6b7e364cea8b12 -->
<g id="edge9" class="edge"><title>dir_2c8f14969c5db5f42892fe1e101a5e81&#45;&gt;dir_db76f3c94886d731af6b7e364cea8b12</title>
<path fill="none" stroke="black" d="M65.1895,-287.697C69.2874,-279.728 74.2394,-270.1 78.7833,-261.264"/>
<polygon fill="black" stroke="black" points="82.0331,-262.598 83.4941,-252.104 75.808,-259.396 82.0331,-262.598"/>
<g id="a_edge9&#45;headlabel"><a xlink:href="dir_000093_000089.html" target="_top" xlink:title="1">
<text text-anchor="middle" x="82.914" y="-264.593" font-family="Helvetica,sans-Serif" font-size="10.00">1</text>
</a>
</g>
</g>
<!-- dir_3072bc1f55ed1280fe4fbe6b21c78379 -->
<g id="node6" class="node"><title>dir_3072bc1f55ed1280fe4fbe6b21c78379</title>
<g id="a_node6"><a xlink:href="dir_3072bc1f55ed1280fe4fbe6b21c78379.html" target="_top" xlink:title="Engine">
<polygon fill="white" stroke="red" points="111.291,-108 57.2906,-108 57.2906,-72 111.291,-72 111.291,-108"/>
<text text-anchor="middle" x="84.2906" y="-87.5" font-family="Helvetica,sans-Serif" font-size="10.00">Engine</text>
</a>
</g>
</g>
<!-- dir_2c8f14969c5db5f42892fe1e101a5e81&#45;&gt;dir_3072bc1f55ed1280fe4fbe6b21c78379 -->
<g id="edge10" class="edge"><title>dir_2c8f14969c5db5f42892fe1e101a5e81&#45;&gt;dir_3072bc1f55ed1280fe4fbe6b21c78379</title>
<path fill="none" stroke="black" d="M83.5508,-296.771C104.291,-288.912 131.393,-274.825 144.291,-252 169.86,-206.752 132.831,-148.517 106.569,-115.933"/>
<polygon fill="black" stroke="black" points="109.249,-113.683 100.168,-108.225 103.864,-118.155 109.249,-113.683"/>
<g id="a_edge10&#45;headlabel"><a xlink:href="dir_000093_000063.html" target="_top" xlink:title="35">
<text text-anchor="middle" x="113.73" y="-112.135" font-family="Helvetica,sans-Serif" font-size="10.00">35</text>
</a>
</g>
</g>
<!-- dir_a2f0e5642e47e7ed59fe0f0829eafb5f&#45;&gt;dir_3072bc1f55ed1280fe4fbe6b21c78379 -->
<g id="edge1" class="edge"><title>dir_a2f0e5642e47e7ed59fe0f0829eafb5f&#45;&gt;dir_3072bc1f55ed1280fe4fbe6b21c78379</title>
<path fill="none" stroke="black" d="M43.7457,-143.697C48.3009,-135.474 54.6648,-125.483 61.0655,-116.421"/>
<polygon fill="black" stroke="black" points="64.0711,-118.24 67.1556,-108.104 58.4235,-114.104 64.0711,-118.24"/>
<g id="a_edge1&#45;headlabel"><a xlink:href="dir_000020_000063.html" target="_top" xlink:title="2">
<text text-anchor="middle" x="64.2381" y="-120.318" font-family="Helvetica,sans-Serif" font-size="10.00">2</text>
</a>
</g>
</g>
<!-- dir_2cea9413440cac76c0711bd520597573&#45;&gt;dir_a2f0e5642e47e7ed59fe0f0829eafb5f -->
<g id="edge3" class="edge"><title>dir_2cea9413440cac76c0711bd520597573&#45;&gt;dir_a2f0e5642e47e7ed59fe0f0829eafb5f</title>
<path fill="none" stroke="black" d="M53.5315,-36.1625C51.9073,-46.5262 49.869,-60.0061 48.2906,-72 45.5689,-92.6811 42.9535,-116.128 41.0805,-133.763"/>
<polygon fill="black" stroke="black" points="37.578,-133.604 40.0159,-143.915 44.5398,-134.334 37.578,-133.604"/>
<g id="a_edge3&#45;headlabel"><a xlink:href="dir_000091_000020.html" target="_top" xlink:title="5">
<text text-anchor="middle" x="35.129" y="-127.233" font-family="Helvetica,sans-Serif" font-size="10.00">5</text>
</a>
</g>
</g>
<!-- dir_2cea9413440cac76c0711bd520597573&#45;&gt;dir_3072bc1f55ed1280fe4fbe6b21c78379 -->
<g id="edge4" class="edge"><title>dir_2cea9413440cac76c0711bd520597573&#45;&gt;dir_3072bc1f55ed1280fe4fbe6b21c78379</title>
<path fill="none" stroke="black" d="M69.0274,-36.1043C72.9503,-43.8757 76.9356,-53.2575 80.0629,-61.9488"/>
<polygon fill="black" stroke="black" points="76.8233,-63.3003 83.285,-71.6966 83.4697,-61.1034 76.8233,-63.3003"/>
<g id="a_edge4&#45;headlabel"><a xlink:href="dir_000091_000063.html" target="_top" xlink:title="1">
<text text-anchor="middle" x="72.9995" y="-58.2784" font-family="Helvetica,sans-Serif" font-size="10.00">1</text>
</a>
</g>
</g>
<!-- dir_db76f3c94886d731af6b7e364cea8b12&#45;&gt;dir_a2f0e5642e47e7ed59fe0f0829eafb5f -->
<g id="edge5" class="edge"><title>dir_db76f3c94886d731af6b7e364cea8b12&#45;&gt;dir_a2f0e5642e47e7ed59fe0f0829eafb5f</title>
<path fill="none" stroke="black" d="M78.9423,-215.697C72.5338,-207.389 64.7329,-197.277 57.6848,-188.141"/>
<polygon fill="black" stroke="black" points="60.3647,-185.884 51.4854,-180.104 54.8222,-190.16 60.3647,-185.884"/>
<g id="a_edge5&#45;headlabel"><a xlink:href="dir_000089_000020.html" target="_top" xlink:title="1">
<text text-anchor="middle" x="64.8083" y="-184.496" font-family="Helvetica,sans-Serif" font-size="10.00">1</text>
</a>
</g>
</g>
<!-- dir_db76f3c94886d731af6b7e364cea8b12&#45;&gt;dir_3072bc1f55ed1280fe4fbe6b21c78379 -->
<g id="edge6" class="edge"><title>dir_db76f3c94886d731af6b7e364cea8b12&#45;&gt;dir_3072bc1f55ed1280fe4fbe6b21c78379</title>
<path fill="none" stroke="black" d="M91.3256,-215.871C89.9621,-191.67 87.4574,-147.211 85.8339,-118.393"/>
<polygon fill="black" stroke="black" points="89.316,-117.977 85.259,-108.189 82.3271,-118.37 89.316,-117.977"/>
<g id="a_edge6&#45;headlabel"><a xlink:href="dir_000089_000063.html" target="_top" xlink:title="3">
<text text-anchor="middle" x="92.3529" y="-118.906" font-family="Helvetica,sans-Serif" font-size="10.00">3</text>
</a>
</g>
</g>
<!-- dir_3072bc1f55ed1280fe4fbe6b21c78379&#45;&gt;dir_a2f0e5642e47e7ed59fe0f0829eafb5f -->
<g id="edge11" class="edge"><title>dir_3072bc1f55ed1280fe4fbe6b21c78379&#45;&gt;dir_a2f0e5642e47e7ed59fe0f0829eafb5f</title>
<path fill="none" stroke="black" d="M78.9456,-108.104C74.4198,-116.298 68.0708,-126.282 61.6709,-135.359"/>
<polygon fill="black" stroke="black" points="58.6524,-133.558 55.5771,-143.697 64.3037,-137.689 58.6524,-133.558"/>
<g id="a_edge11&#45;headlabel"><a xlink:href="dir_000063_000020.html" target="_top" xlink:title="98">
<text text-anchor="middle" x="58.4812" y="-126.48" font-family="Helvetica,sans-Serif" font-size="10.00">98</text>
</a>
</g>
</g>
<!-- dir_3072bc1f55ed1280fe4fbe6b21c78379&#45;&gt;dir_2cea9413440cac76c0711bd520597573 -->
<g id="edge12" class="edge"><title>dir_3072bc1f55ed1280fe4fbe6b21c78379&#45;&gt;dir_2cea9413440cac76c0711bd520597573</title>
<path fill="none" stroke="black" d="M71.4535,-71.6966C67.5296,-63.8979 63.5511,-54.5085 60.4385,-45.8292"/>
<polygon fill="black" stroke="black" points="63.6886,-44.5086 57.2373,-36.1043 57.0396,-46.6973 63.6886,-44.5086"/>
<g id="a_edge12&#45;headlabel"><a xlink:href="dir_000063_000091.html" target="_top" xlink:title="1">
<text text-anchor="middle" x="67.5094" y="-44.5352" font-family="Helvetica,sans-Serif" font-size="10.00">1</text>
</a>
</g>
</g>
</g>
</svg>
