<?xml version="1.0" encoding="UTF-8" standalone="no"?>
<!DOCTYPE svg PUBLIC "-//W3C//DTD SVG 1.1//EN"
 "http://www.w3.org/Graphics/SVG/1.1/DTD/svg11.dtd">
<!-- Generated by graphviz version 2.36.0 (20140111.2315)
 -->
<!-- Title: /home/travis/build/STORM&#45;IRIT/Radium&#45;Engine/src/Engine Pages: 1 -->
<svg width="461pt" height="488pt"
 viewBox="0.00 0.00 460.61 487.73" xmlns="http://www.w3.org/2000/svg" xmlns:xlink="http://www.w3.org/1999/xlink">
<g id="graph0" class="graph" transform="scale(1 1) rotate(0) translate(4 483.729)">
<title>/home/travis/build/STORM&#45;IRIT/Radium&#45;Engine/src/Engine</title>
<polygon fill="white" stroke="none" points="-4,4 -4,-483.729 456.608,-483.729 456.608,4 -4,4"/>
<g id="clust1" class="cluster"><title>clusterdir_68267d1309a1af8e8297ef4c3efbcdba</title>
<g id="a_clust1"><a xlink:href="dir_68267d1309a1af8e8297ef4c3efbcdba.html" target="_top" xlink:title="src">
<polygon fill="#ddddee" stroke="black" points="8,-8 8,-455 180,-455 180,-8 8,-8"/>
<text text-anchor="middle" x="94" y="-443" font-family="Helvetica,sans-Serif" font-size="10.00">src</text>
</a>
</g>
</g>
<g id="clust2" class="cluster"><title>clusterdir_3072bc1f55ed1280fe4fbe6b21c78379</title>
<g id="a_clust2"><a xlink:href="dir_3072bc1f55ed1280fe4fbe6b21c78379.html" target="_top">
<polygon fill="#eeeeff" stroke="black" points="16,-16 16,-428 172,-428 172,-16 16,-16"/>
</a>
</g>
</g>
<!-- dir_3072bc1f55ed1280fe4fbe6b21c78379 -->
<g id="node1" class="node"><title>dir_3072bc1f55ed1280fe4fbe6b21c78379</title>
<text text-anchor="middle" x="137" y="-399.5" font-family="Helvetica,sans-Serif" font-size="10.00">Engine</text>
</g>
<!-- dir_d0f3276f03e9a9cb8f8ba3f2a5ea1262 -->
<g id="node2" class="node"><title>dir_d0f3276f03e9a9cb8f8ba3f2a5ea1262</title>
<g id="a_node2"><a xlink:href="dir_d0f3276f03e9a9cb8f8ba3f2a5ea1262.html" target="_top" xlink:title="Component">
<polygon fill="white" stroke="black" points="91.25,-420 24.75,-420 24.75,-384 91.25,-384 91.25,-420"/>
<text text-anchor="middle" x="58" y="-399.5" font-family="Helvetica,sans-Serif" font-size="10.00">Component</text>
</a>
</g>
</g>
<!-- dir_7205f054df4e14abb60715afe3e7e90c -->
<g id="node3" class="node"><title>dir_7205f054df4e14abb60715afe3e7e90c</title>
<g id="a_node3"><a xlink:href="dir_7205f054df4e14abb60715afe3e7e90c.html" target="_top" xlink:title="Entity">
<polygon fill="white" stroke="black" points="158,-348 104,-348 104,-312 158,-312 158,-348"/>
<text text-anchor="middle" x="131" y="-327.5" font-family="Helvetica,sans-Serif" font-size="10.00">Entity</text>
</a>
</g>
</g>
<!-- dir_d0f3276f03e9a9cb8f8ba3f2a5ea1262&#45;&gt;dir_7205f054df4e14abb60715afe3e7e90c -->
<g id="edge34" class="edge"><title>dir_d0f3276f03e9a9cb8f8ba3f2a5ea1262&#45;&gt;dir_7205f054df4e14abb60715afe3e7e90c</title>
<path fill="none" stroke="black" d="M70.1292,-383.697C78.2543,-375.05 89.1335,-364.449 99.4972,-355.027"/>
<polygon fill="black" stroke="black" points="102.129,-357.37 107.268,-348.104 97.4727,-352.143 102.129,-357.37"/>
<g id="a_edge34&#45;headlabel"><a xlink:href="dir_000064_000065.html" target="_top" xlink:title="1">
<text text-anchor="middle" x="101.334" y="-359.381" font-family="Helvetica,sans-Serif" font-size="10.00">1</text>
</a>
</g>
</g>
<!-- dir_06113b60808b1bbb52a01dfd2c3a8657 -->
<g id="node5" class="node"><title>dir_06113b60808b1bbb52a01dfd2c3a8657</title>
<g id="a_node5"><a xlink:href="dir_06113b60808b1bbb52a01dfd2c3a8657.html" target="_top" xlink:title="Managers">
<polygon fill="white" stroke="red" points="99.25,-132 40.75,-132 40.75,-96 99.25,-96 99.25,-132"/>
<text text-anchor="middle" x="70" y="-111.5" font-family="Helvetica,sans-Serif" font-size="10.00">Managers</text>
</a>
</g>
</g>
<!-- dir_d0f3276f03e9a9cb8f8ba3f2a5ea1262&#45;&gt;dir_06113b60808b1bbb52a01dfd2c3a8657 -->
<g id="edge36" class="edge"><title>dir_d0f3276f03e9a9cb8f8ba3f2a5ea1262&#45;&gt;dir_06113b60808b1bbb52a01dfd2c3a8657</title>
<path fill="none" stroke="black" d="M51.4708,-383.937C43.4192,-345.281 36.0251,-248.158 47,-168 48.1748,-159.42 50.2834,-150.242 52.9177,-141.977"/>
<polygon fill="black" stroke="black" points="56.2542,-143.042 56.3643,-132.448 49.6715,-140.661 56.2542,-143.042"/>
<g id="a_edge36&#45;headlabel"><a xlink:href="dir_000064_000067.html" target="_top" xlink:title="2">
<text text-anchor="middle" x="57.7015" y="-144.888" font-family="Helvetica,sans-Serif" font-size="10.00">2</text>
</a>
</g>
</g>
<!-- dir_54018506bb725509c19b38b6d9bcf0f6 -->
<g id="node6" class="node"><title>dir_54018506bb725509c19b38b6d9bcf0f6</title>
<g id="a_node6"><a xlink:href="dir_54018506bb725509c19b38b6d9bcf0f6.html" target="_top" xlink:title="Renderer">
<polygon fill="white" stroke="red" points="139.5,-204 84.5,-204 84.5,-168 139.5,-168 139.5,-204"/>
<text text-anchor="middle" x="112" y="-183.5" font-family="Helvetica,sans-Serif" font-size="10.00">Renderer</text>
</a>
</g>
</g>
<!-- dir_d0f3276f03e9a9cb8f8ba3f2a5ea1262&#45;&gt;dir_54018506bb725509c19b38b6d9bcf0f6 -->
<g id="edge37" class="edge"><title>dir_d0f3276f03e9a9cb8f8ba3f2a5ea1262&#45;&gt;dir_54018506bb725509c19b38b6d9bcf0f6</title>
<path fill="none" stroke="black" d="M51.6874,-383.915C47.0082,-353.804 47.4194,-289.766 66,-240 69.6503,-230.223 75.5315,-220.555 81.9724,-212.207"/>
<polygon fill="black" stroke="black" points="84.8151,-214.263 88.5379,-204.344 79.4419,-209.777 84.8151,-214.263"/>
<g id="a_edge37&#45;headlabel"><a xlink:href="dir_000064_000074.html" target="_top" xlink:title="15">
<text text-anchor="middle" x="84.6906" y="-216.342" font-family="Helvetica,sans-Serif" font-size="10.00">15</text>
</a>
</g>
</g>
<!-- dir_eecdbbfa89a6d9af25d920c499e6f44e -->
<g id="node7" class="node"><title>dir_eecdbbfa89a6d9af25d920c499e6f44e</title>
<g id="a_node7"><a xlink:href="dir_eecdbbfa89a6d9af25d920c499e6f44e.html" target="_top" xlink:title="System">
<polygon fill="white" stroke="black" points="138,-276 84,-276 84,-240 138,-240 138,-276"/>
<text text-anchor="middle" x="111" y="-255.5" font-family="Helvetica,sans-Serif" font-size="10.00">System</text>
</a>
</g>
</g>
<!-- dir_d0f3276f03e9a9cb8f8ba3f2a5ea1262&#45;&gt;dir_eecdbbfa89a6d9af25d920c499e6f44e -->
<g id="edge35" class="edge"><title>dir_d0f3276f03e9a9cb8f8ba3f2a5ea1262&#45;&gt;dir_eecdbbfa89a6d9af25d920c499e6f44e</title>
<path fill="none" stroke="black" d="M59.8085,-383.871C66.3401,-359.457 82.8736,-314.426 95.6525,-285.635"/>
<polygon fill="black" stroke="black" points="98.9979,-286.737 99.9934,-276.189 92.6373,-283.814 98.9979,-286.737"/>
<g id="a_edge35&#45;headlabel"><a xlink:href="dir_000064_000085.html" target="_top" xlink:title="1">
<text text-anchor="middle" x="100.077" y="-288.689" font-family="Helvetica,sans-Serif" font-size="10.00">1</text>
</a>
</g>
</g>
<!-- dir_a2f0e5642e47e7ed59fe0f0829eafb5f -->
<g id="node8" class="node"><title>dir_a2f0e5642e47e7ed59fe0f0829eafb5f</title>
<g id="a_node8"><a xlink:href="dir_a2f0e5642e47e7ed59fe0f0829eafb5f.html" target="_top" xlink:title="Core">
<polygon fill="white" stroke="red" points="242,-132 188,-132 188,-96 242,-96 242,-132"/>
<text text-anchor="middle" x="215" y="-111.5" font-family="Helvetica,sans-Serif" font-size="10.00">Core</text>
</a>
</g>
</g>
<!-- dir_d0f3276f03e9a9cb8f8ba3f2a5ea1262&#45;&gt;dir_a2f0e5642e47e7ed59fe0f0829eafb5f -->
<g id="edge33" class="edge"><title>dir_d0f3276f03e9a9cb8f8ba3f2a5ea1262&#45;&gt;dir_a2f0e5642e47e7ed59fe0f0829eafb5f</title>
<path fill="none" stroke="black" d="M91.3371,-387.818C119.12,-376.299 155.882,-359.641 167,-348 224.685,-287.598 225.705,-251.39 221,-168 220.523,-159.549 219.622,-150.376 218.66,-142.074"/>
<polygon fill="black" stroke="black" points="222.133,-141.641 217.437,-132.144 215.186,-142.497 222.133,-141.641"/>
<g id="a_edge33&#45;headlabel"><a xlink:href="dir_000064_000020.html" target="_top" xlink:title="15">
<text text-anchor="middle" x="225.391" y="-142.362" font-family="Helvetica,sans-Serif" font-size="10.00">15</text>
</a>
</g>
</g>
<!-- dir_7205f054df4e14abb60715afe3e7e90c&#45;&gt;dir_d0f3276f03e9a9cb8f8ba3f2a5ea1262 -->
<g id="edge6" class="edge"><title>dir_7205f054df4e14abb60715afe3e7e90c&#45;&gt;dir_d0f3276f03e9a9cb8f8ba3f2a5ea1262</title>
<path fill="none" stroke="black" d="M119.058,-348.104C110.896,-356.805 99.9,-367.524 89.437,-377.033"/>
<polygon fill="black" stroke="black" points="87.0969,-374.43 81.9607,-383.697 91.7546,-379.656 87.0969,-374.43"/>
<g id="a_edge6&#45;headlabel"><a xlink:href="dir_000065_000064.html" target="_top" xlink:title="1">
<text text-anchor="middle" x="87.8911" y="-367.419" font-family="Helvetica,sans-Serif" font-size="10.00">1</text>
</a>
</g>
</g>
<!-- dir_7205f054df4e14abb60715afe3e7e90c&#45;&gt;dir_06113b60808b1bbb52a01dfd2c3a8657 -->
<g id="edge5" class="edge"><title>dir_7205f054df4e14abb60715afe3e7e90c&#45;&gt;dir_06113b60808b1bbb52a01dfd2c3a8657</title>
<path fill="none" stroke="black" d="M103.769,-315.86C89.8423,-306.337 74.3946,-292.305 66,-276 44.0535,-233.373 49.26,-175.632 57.7968,-142.139"/>
<polygon fill="black" stroke="black" points="61.2643,-142.743 60.6553,-132.166 54.5353,-140.815 61.2643,-142.743"/>
<g id="a_edge5&#45;headlabel"><a xlink:href="dir_000065_000067.html" target="_top" xlink:title="1">
<text text-anchor="middle" x="63.0033" y="-144.481" font-family="Helvetica,sans-Serif" font-size="10.00">1</text>
</a>
</g>
</g>
<!-- dir_7205f054df4e14abb60715afe3e7e90c&#45;&gt;dir_eecdbbfa89a6d9af25d920c499e6f44e -->
<g id="edge4" class="edge"><title>dir_7205f054df4e14abb60715afe3e7e90c&#45;&gt;dir_eecdbbfa89a6d9af25d920c499e6f44e</title>
<path fill="none" stroke="black" d="M120.14,-311.697C117.141,-303.983 114.266,-294.712 112.151,-286.112"/>
<polygon fill="black" stroke="black" points="115.522,-285.141 109.992,-276.104 108.68,-286.618 115.522,-285.141"/>
<g id="a_edge4&#45;headlabel"><a xlink:href="dir_000065_000085.html" target="_top" xlink:title="1">
<text text-anchor="middle" x="119.056" y="-285.556" font-family="Helvetica,sans-Serif" font-size="10.00">1</text>
</a>
</g>
</g>
<!-- dir_7205f054df4e14abb60715afe3e7e90c&#45;&gt;dir_a2f0e5642e47e7ed59fe0f0829eafb5f -->
<g id="edge3" class="edge"><title>dir_7205f054df4e14abb60715afe3e7e90c&#45;&gt;dir_a2f0e5642e47e7ed59fe0f0829eafb5f</title>
<path fill="none" stroke="black" d="M147.604,-311.926C156.58,-302.029 167.358,-288.987 175,-276 192.413,-246.409 194.424,-237.246 203,-204 208.249,-183.651 211.298,-160.057 213.007,-142.277"/>
<polygon fill="black" stroke="black" points="216.496,-142.563 213.886,-132.294 209.523,-141.949 216.496,-142.563"/>
<g id="a_edge3&#45;headlabel"><a xlink:href="dir_000065_000020.html" target="_top" xlink:title="4">
<text text-anchor="middle" x="219.009" y="-143.892" font-family="Helvetica,sans-Serif" font-size="10.00">4</text>
</a>
</g>
</g>
<!-- dir_d3d507863844f6311a74cf28116d817e -->
<g id="node4" class="node"><title>dir_d3d507863844f6311a74cf28116d817e</title>
<g id="a_node4"><a xlink:href="dir_d3d507863844f6311a74cf28116d817e.html" target="_top" xlink:title="ItemModel">
<polygon fill="white" stroke="black" points="160.5,-60 99.5,-60 99.5,-24 160.5,-24 160.5,-60"/>
<text text-anchor="middle" x="130" y="-39.5" font-family="Helvetica,sans-Serif" font-size="10.00">ItemModel</text>
</a>
</g>
</g>
<!-- dir_d3d507863844f6311a74cf28116d817e&#45;&gt;dir_06113b60808b1bbb52a01dfd2c3a8657 -->
<g id="edge21" class="edge"><title>dir_d3d507863844f6311a74cf28116d817e&#45;&gt;dir_06113b60808b1bbb52a01dfd2c3a8657</title>
<path fill="none" stroke="black" d="M121.234,-60.1043C114.879,-68.5515 106.206,-78.9013 97.7466,-88.1989"/>
<polygon fill="black" stroke="black" points="95.0128,-85.9984 90.7472,-95.6966 100.13,-90.7752 95.0128,-85.9984"/>
<g id="a_edge21&#45;headlabel"><a xlink:href="dir_000066_000067.html" target="_top" xlink:title="2">
<text text-anchor="middle" x="95.3903" y="-78.9333" font-family="Helvetica,sans-Serif" font-size="10.00">2</text>
</a>
</g>
</g>
<!-- dir_d3d507863844f6311a74cf28116d817e&#45;&gt;dir_54018506bb725509c19b38b6d9bcf0f6 -->
<g id="edge22" class="edge"><title>dir_d3d507863844f6311a74cf28116d817e&#45;&gt;dir_54018506bb725509c19b38b6d9bcf0f6</title>
<path fill="none" stroke="black" d="M127.821,-60.1893C124.749,-84.4244 119.113,-128.888 115.463,-157.679"/>
<polygon fill="black" stroke="black" points="111.957,-157.511 114.171,-167.871 118.901,-158.391 111.957,-157.511"/>
<g id="a_edge22&#45;headlabel"><a xlink:href="dir_000066_000074.html" target="_top" xlink:title="2">
<text text-anchor="middle" x="109.592" y="-151.088" font-family="Helvetica,sans-Serif" font-size="10.00">2</text>
</a>
</g>
</g>
<!-- dir_d3d507863844f6311a74cf28116d817e&#45;&gt;dir_a2f0e5642e47e7ed59fe0f0829eafb5f -->
<g id="edge19" class="edge"><title>dir_d3d507863844f6311a74cf28116d817e&#45;&gt;dir_a2f0e5642e47e7ed59fe0f0829eafb5f</title>
<path fill="none" stroke="black" d="M150.77,-60.1043C161.437,-68.8894 174.603,-79.7323 186.233,-89.3094"/>
<polygon fill="black" stroke="black" points="184.044,-92.0413 193.989,-95.6966 188.494,-86.6378 184.044,-92.0413"/>
<g id="a_edge19&#45;headlabel"><a xlink:href="dir_000066_000020.html" target="_top" xlink:title="1">
<text text-anchor="middle" x="179.465" y="-89.4479" font-family="Helvetica,sans-Serif" font-size="10.00">1</text>
</a>
</g>
</g>
<!-- dir_cb59203ea3f84fc4d67c89730003fed4 -->
<g id="node9" class="node"><title>dir_cb59203ea3f84fc4d67c89730003fed4</title>
<g id="a_node9"><a xlink:href="dir_cb59203ea3f84fc4d67c89730003fed4.html" target="_top" xlink:title="GuiBase">
<polygon fill="white" stroke="red" points="346,-420 292,-420 292,-384 346,-384 346,-420"/>
<text text-anchor="middle" x="319" y="-399.5" font-family="Helvetica,sans-Serif" font-size="10.00">GuiBase</text>
</a>
</g>
</g>
<!-- dir_d3d507863844f6311a74cf28116d817e&#45;&gt;dir_cb59203ea3f84fc4d67c89730003fed4 -->
<g id="edge20" class="edge"><title>dir_d3d507863844f6311a74cf28116d817e&#45;&gt;dir_cb59203ea3f84fc4d67c89730003fed4</title>
<path fill="none" stroke="black" d="M160.663,-44.2948C234.099,-49.201 414,-72.6822 414,-185 414,-259 414,-259 414,-259 414,-306.988 376.056,-351.037 348.129,-376.958"/>
<polygon fill="black" stroke="black" points="345.646,-374.484 340.557,-383.777 350.33,-379.686 345.646,-374.484"/>
<g id="a_edge20&#45;headlabel"><a xlink:href="dir_000066_000086.html" target="_top" xlink:title="1">
<text text-anchor="middle" x="346.417" y="-367.469" font-family="Helvetica,sans-Serif" font-size="10.00">1</text>
</a>
</g>
</g>
<!-- dir_06113b60808b1bbb52a01dfd2c3a8657&#45;&gt;dir_d0f3276f03e9a9cb8f8ba3f2a5ea1262 -->
<g id="edge28" class="edge"><title>dir_06113b60808b1bbb52a01dfd2c3a8657&#45;&gt;dir_d0f3276f03e9a9cb8f8ba3f2a5ea1262</title>
<path fill="none" stroke="black" d="M72.1143,-132.448C70.1525,-142.681 66.6525,-155.931 65,-168 54.8825,-241.896 60.376,-330.209 60.8797,-373.842"/>
<polygon fill="black" stroke="black" points="57.3797,-373.939 60.8877,-383.937 64.3797,-373.934 57.3797,-373.939"/>
<g id="a_edge28&#45;headlabel"><a xlink:href="dir_000067_000064.html" target="_top" xlink:title="2">
<text text-anchor="middle" x="54.5376" y="-367.847" font-family="Helvetica,sans-Serif" font-size="10.00">2</text>
</a>
</g>
</g>
<!-- dir_06113b60808b1bbb52a01dfd2c3a8657&#45;&gt;dir_7205f054df4e14abb60715afe3e7e90c -->
<g id="edge24" class="edge"><title>dir_06113b60808b1bbb52a01dfd2c3a8657&#45;&gt;dir_7205f054df4e14abb60715afe3e7e90c</title>
<path fill="none" stroke="black" d="M71.2964,-132.166C68.705,-162.956 59.6784,-228.76 84,-276 89.6396,-286.954 98.4626,-296.882 107.033,-305.106"/>
<polygon fill="black" stroke="black" points="104.678,-307.696 114.413,-311.878 109.411,-302.538 104.678,-307.696"/>
<g id="a_edge24&#45;headlabel"><a xlink:href="dir_000067_000065.html" target="_top" xlink:title="3">
<text text-anchor="middle" x="100.11" y="-304.858" font-family="Helvetica,sans-Serif" font-size="10.00">3</text>
</a>
</g>
</g>
<!-- dir_06113b60808b1bbb52a01dfd2c3a8657&#45;&gt;dir_d3d507863844f6311a74cf28116d817e -->
<g id="edge26" class="edge"><title>dir_06113b60808b1bbb52a01dfd2c3a8657&#45;&gt;dir_d3d507863844f6311a74cf28116d817e</title>
<path fill="none" stroke="black" d="M78.9157,-95.6966C85.3072,-87.2198 93.9969,-76.8636 102.452,-67.5826"/>
<polygon fill="black" stroke="black" points="105.171,-69.7993 109.444,-60.1043 100.058,-65.0187 105.171,-69.7993"/>
<g id="a_edge26&#45;headlabel"><a xlink:href="dir_000067_000066.html" target="_top" xlink:title="1">
<text text-anchor="middle" x="104.79" y="-71.8641" font-family="Helvetica,sans-Serif" font-size="10.00">1</text>
</a>
</g>
</g>
<!-- dir_06113b60808b1bbb52a01dfd2c3a8657&#45;&gt;dir_54018506bb725509c19b38b6d9bcf0f6 -->
<g id="edge27" class="edge"><title>dir_06113b60808b1bbb52a01dfd2c3a8657&#45;&gt;dir_54018506bb725509c19b38b6d9bcf0f6</title>
<path fill="none" stroke="black" d="M86.1576,-132.104C91.8134,-140.129 97.8792,-149.871 102.835,-158.797"/>
<polygon fill="black" stroke="black" points="99.7697,-160.488 107.534,-167.697 105.96,-157.219 99.7697,-160.488"/>
<g id="a_edge27&#45;headlabel"><a xlink:href="dir_000067_000074.html" target="_top" xlink:title="19">
<text text-anchor="middle" x="95.5806" y="-156.134" font-family="Helvetica,sans-Serif" font-size="10.00">19</text>
</a>
</g>
</g>
<!-- dir_06113b60808b1bbb52a01dfd2c3a8657&#45;&gt;dir_eecdbbfa89a6d9af25d920c499e6f44e -->
<g id="edge25" class="edge"><title>dir_06113b60808b1bbb52a01dfd2c3a8657&#45;&gt;dir_eecdbbfa89a6d9af25d920c499e6f44e</title>
<path fill="none" stroke="black" d="M74.9748,-132.243C76.0965,-150.558 75.912,-180.106 84,-204 87.2477,-213.594 92.74,-223.069 98.0641,-231.296"/>
<polygon fill="black" stroke="black" points="95.1975,-233.305 103.661,-239.679 101.019,-229.419 95.1975,-233.305"/>
<g id="a_edge25&#45;headlabel"><a xlink:href="dir_000067_000085.html" target="_top" xlink:title="2">
<text text-anchor="middle" x="90.8402" y="-229.392" font-family="Helvetica,sans-Serif" font-size="10.00">2</text>
</a>
</g>
</g>
<!-- dir_06113b60808b1bbb52a01dfd2c3a8657&#45;&gt;dir_a2f0e5642e47e7ed59fe0f0829eafb5f -->
<g id="edge23" class="edge"><title>dir_06113b60808b1bbb52a01dfd2c3a8657&#45;&gt;dir_a2f0e5642e47e7ed59fe0f0829eafb5f</title>
<path fill="none" stroke="black" d="M99.4531,-114C125.601,-114 151.749,-114 177.897,-114"/>
<polygon fill="black" stroke="black" points="177.919,-117.5 187.919,-114 177.919,-110.5 177.919,-117.5"/>
<g id="a_edge23&#45;headlabel"><a xlink:href="dir_000067_000020.html" target="_top" xlink:title="16">
<text text-anchor="middle" x="174.324" y="-117.839" font-family="Helvetica,sans-Serif" font-size="10.00">16</text>
</a>
</g>
</g>
<!-- dir_54018506bb725509c19b38b6d9bcf0f6&#45;&gt;dir_d0f3276f03e9a9cb8f8ba3f2a5ea1262 -->
<g id="edge32" class="edge"><title>dir_54018506bb725509c19b38b6d9bcf0f6&#45;&gt;dir_d0f3276f03e9a9cb8f8ba3f2a5ea1262</title>
<path fill="none" stroke="black" d="M104.492,-204.344C97.7001,-214.122 88.8671,-226.964 84,-240 67.3065,-284.712 65.2791,-340.944 63.18,-373.741"/>
<polygon fill="black" stroke="black" points="59.6747,-373.689 62.444,-383.915 66.6565,-374.194 59.6747,-373.689"/>
<g id="a_edge32&#45;headlabel"><a xlink:href="dir_000074_000064.html" target="_top" xlink:title="4">
<text text-anchor="middle" x="57.1021" y="-367.398" font-family="Helvetica,sans-Serif" font-size="10.00">4</text>
</a>
</g>
</g>
<!-- dir_54018506bb725509c19b38b6d9bcf0f6&#45;&gt;dir_7205f054df4e14abb60715afe3e7e90c -->
<g id="edge30" class="edge"><title>dir_54018506bb725509c19b38b6d9bcf0f6&#45;&gt;dir_7205f054df4e14abb60715afe3e7e90c</title>
<path fill="none" stroke="black" d="M127.183,-204.297C134.732,-214.061 143.066,-226.905 147,-240 153.145,-260.456 148.239,-284.307 142.293,-302.167"/>
<polygon fill="black" stroke="black" points="138.967,-301.071 138.847,-311.666 145.547,-303.459 138.967,-301.071"/>
<g id="a_edge30&#45;headlabel"><a xlink:href="dir_000074_000065.html" target="_top" xlink:title="3">
<text text-anchor="middle" x="137.524" y="-294.224" font-family="Helvetica,sans-Serif" font-size="10.00">3</text>
</a>
</g>
</g>
<!-- dir_54018506bb725509c19b38b6d9bcf0f6&#45;&gt;dir_06113b60808b1bbb52a01dfd2c3a8657 -->
<g id="edge31" class="edge"><title>dir_54018506bb725509c19b38b6d9bcf0f6&#45;&gt;dir_06113b60808b1bbb52a01dfd2c3a8657</title>
<path fill="none" stroke="black" d="M95.7022,-167.697C90.0398,-159.644 83.9799,-149.894 79.0427,-140.982"/>
<polygon fill="black" stroke="black" points="82.1238,-139.322 74.3676,-132.104 75.9301,-142.583 82.1238,-139.322"/>
<g id="a_edge31&#45;headlabel"><a xlink:href="dir_000074_000067.html" target="_top" xlink:title="6">
<text text-anchor="middle" x="86.3109" y="-138.679" font-family="Helvetica,sans-Serif" font-size="10.00">6</text>
</a>
</g>
</g>
<!-- dir_54018506bb725509c19b38b6d9bcf0f6&#45;&gt;dir_a2f0e5642e47e7ed59fe0f0829eafb5f -->
<g id="edge29" class="edge"><title>dir_54018506bb725509c19b38b6d9bcf0f6&#45;&gt;dir_a2f0e5642e47e7ed59fe0f0829eafb5f</title>
<path fill="none" stroke="black" d="M131.545,-167.697C145.006,-157.858 163.118,-145.489 179.085,-135.207"/>
<polygon fill="black" stroke="black" points="181.128,-138.055 187.691,-129.738 177.374,-132.147 181.128,-138.055"/>
<g id="a_edge29&#45;headlabel"><a xlink:href="dir_000074_000020.html" target="_top" xlink:title="52">
<text text-anchor="middle" x="179.616" y="-139.879" font-family="Helvetica,sans-Serif" font-size="10.00">52</text>
</a>
</g>
</g>
<!-- dir_eecdbbfa89a6d9af25d920c499e6f44e&#45;&gt;dir_d0f3276f03e9a9cb8f8ba3f2a5ea1262 -->
<g id="edge11" class="edge"><title>dir_eecdbbfa89a6d9af25d920c499e6f44e&#45;&gt;dir_d0f3276f03e9a9cb8f8ba3f2a5ea1262</title>
<path fill="none" stroke="black" d="M109.175,-276.189C102.627,-300.638 86.0884,-345.673 73.3158,-374.436"/>
<polygon fill="black" stroke="black" points="69.9752,-373.324 68.9775,-383.871 76.3351,-376.248 69.9752,-373.324"/>
<g id="a_edge11&#45;headlabel"><a xlink:href="dir_000085_000064.html" target="_top" xlink:title="2">
<text text-anchor="middle" x="68.8971" y="-366.372" font-family="Helvetica,sans-Serif" font-size="10.00">2</text>
</a>
</g>
</g>
<!-- dir_eecdbbfa89a6d9af25d920c499e6f44e&#45;&gt;dir_7205f054df4e14abb60715afe3e7e90c -->
<g id="edge8" class="edge"><title>dir_eecdbbfa89a6d9af25d920c499e6f44e&#45;&gt;dir_7205f054df4e14abb60715afe3e7e90c</title>
<path fill="none" stroke="black" d="M121.782,-276.104C124.784,-283.791 127.666,-293.054 129.794,-301.665"/>
<polygon fill="black" stroke="black" points="126.43,-302.667 131.972,-311.697 133.271,-301.182 126.43,-302.667"/>
<g id="a_edge8&#45;headlabel"><a xlink:href="dir_000085_000065.html" target="_top" xlink:title="2">
<text text-anchor="middle" x="122.893" y="-297.256" font-family="Helvetica,sans-Serif" font-size="10.00">2</text>
</a>
</g>
</g>
<!-- dir_eecdbbfa89a6d9af25d920c499e6f44e&#45;&gt;dir_06113b60808b1bbb52a01dfd2c3a8657 -->
<g id="edge9" class="edge"><title>dir_eecdbbfa89a6d9af25d920c499e6f44e&#45;&gt;dir_06113b60808b1bbb52a01dfd2c3a8657</title>
<path fill="none" stroke="black" d="M87.7066,-239.679C79.0069,-229.908 70.4224,-217.065 66,-204 59.2706,-184.12 58.268,-160.325 60.1512,-142.343"/>
<polygon fill="black" stroke="black" points="63.6443,-142.643 61.6212,-132.243 56.7173,-141.635 63.6443,-142.643"/>
<g id="a_edge9&#45;headlabel"><a xlink:href="dir_000085_000067.html" target="_top" xlink:title="1">
<text text-anchor="middle" x="65.9363" y="-144.109" font-family="Helvetica,sans-Serif" font-size="10.00">1</text>
</a>
</g>
</g>
<!-- dir_eecdbbfa89a6d9af25d920c499e6f44e&#45;&gt;dir_54018506bb725509c19b38b6d9bcf0f6 -->
<g id="edge10" class="edge"><title>dir_eecdbbfa89a6d9af25d920c499e6f44e&#45;&gt;dir_54018506bb725509c19b38b6d9bcf0f6</title>
<path fill="none" stroke="black" d="M111.247,-239.697C111.357,-231.983 111.49,-222.712 111.613,-214.112"/>
<polygon fill="black" stroke="black" points="115.112,-214.153 111.756,-204.104 108.113,-214.053 115.112,-214.153"/>
<g id="a_edge10&#45;headlabel"><a xlink:href="dir_000085_000074.html" target="_top" xlink:title="1">
<text text-anchor="middle" x="117.9" y="-215.288" font-family="Helvetica,sans-Serif" font-size="10.00">1</text>
</a>
</g>
</g>
<!-- dir_eecdbbfa89a6d9af25d920c499e6f44e&#45;&gt;dir_a2f0e5642e47e7ed59fe0f0829eafb5f -->
<g id="edge7" class="edge"><title>dir_eecdbbfa89a6d9af25d920c499e6f44e&#45;&gt;dir_a2f0e5642e47e7ed59fe0f0829eafb5f</title>
<path fill="none" stroke="black" d="M123.545,-239.871C141.66,-215.137 175.273,-169.242 196.315,-140.512"/>
<polygon fill="black" stroke="black" points="199.326,-142.325 202.411,-132.189 193.678,-138.189 199.326,-142.325"/>
<g id="a_edge7&#45;headlabel"><a xlink:href="dir_000085_000020.html" target="_top" xlink:title="6">
<text text-anchor="middle" x="199.492" y="-144.403" font-family="Helvetica,sans-Serif" font-size="10.00">6</text>
</a>
</g>
</g>
<!-- dir_a2f0e5642e47e7ed59fe0f0829eafb5f&#45;&gt;dir_7205f054df4e14abb60715afe3e7e90c -->
<g id="edge1" class="edge"><title>dir_a2f0e5642e47e7ed59fe0f0829eafb5f&#45;&gt;dir_7205f054df4e14abb60715afe3e7e90c</title>
<path fill="none" stroke="black" d="M208.851,-132.024C198.132,-161.513 175.146,-223.937 154,-276 150.473,-284.683 146.457,-294.089 142.778,-302.532"/>
<polygon fill="black" stroke="black" points="139.48,-301.338 138.664,-311.901 145.89,-304.152 139.48,-301.338"/>
<g id="a_edge1&#45;headlabel"><a xlink:href="dir_000020_000065.html" target="_top" xlink:title="1">
<text text-anchor="middle" x="138.326" y="-294.405" font-family="Helvetica,sans-Serif" font-size="10.00">1</text>
</a>
</g>
</g>
<!-- dir_a2f0e5642e47e7ed59fe0f0829eafb5f&#45;&gt;dir_54018506bb725509c19b38b6d9bcf0f6 -->
<g id="edge2" class="edge"><title>dir_a2f0e5642e47e7ed59fe0f0829eafb5f&#45;&gt;dir_54018506bb725509c19b38b6d9bcf0f6</title>
<path fill="none" stroke="black" d="M195.584,-132.209C182.228,-141.976 164.253,-154.26 148.339,-164.52"/>
<polygon fill="black" stroke="black" points="146.311,-161.662 139.753,-169.983 150.069,-167.568 146.311,-161.662"/>
<g id="a_edge2&#45;headlabel"><a xlink:href="dir_000020_000074.html" target="_top" xlink:title="1">
<text text-anchor="middle" x="147.82" y="-154.837" font-family="Helvetica,sans-Serif" font-size="10.00">1</text>
</a>
</g>
</g>
<!-- dir_cb59203ea3f84fc4d67c89730003fed4&#45;&gt;dir_d0f3276f03e9a9cb8f8ba3f2a5ea1262 -->
<g id="edge18" class="edge"><title>dir_cb59203ea3f84fc4d67c89730003fed4&#45;&gt;dir_d0f3276f03e9a9cb8f8ba3f2a5ea1262</title>
<path fill="none" stroke="black" d="M291.744,-419.228C262.296,-436.739 213.346,-462.709 167,-473 142.269,-478.491 132.594,-484.458 110,-473 91.8882,-463.815 78.5662,-445.029 69.9426,-429.087"/>
<polygon fill="black" stroke="black" points="73.0451,-427.466 65.4074,-420.123 66.7991,-430.626 73.0451,-427.466"/>
<g id="a_edge18&#45;headlabel"><a xlink:href="dir_000086_000064.html" target="_top" xlink:title="4">
<text text-anchor="middle" x="77.2013" y="-426.892" font-family="Helvetica,sans-Serif" font-size="10.00">4</text>
</a>
</g>
</g>
<!-- dir_cb59203ea3f84fc4d67c89730003fed4&#45;&gt;dir_7205f054df4e14abb60715afe3e7e90c -->
<g id="edge13" class="edge"><title>dir_cb59203ea3f84fc4d67c89730003fed4&#45;&gt;dir_7205f054df4e14abb60715afe3e7e90c</title>
<path fill="none" stroke="black" d="M291.663,-390.821C258.99,-378.656 204.177,-358.247 167.802,-344.703"/>
<polygon fill="black" stroke="black" points="168.658,-341.287 158.065,-341.077 166.215,-347.847 168.658,-341.287"/>
<g id="a_edge13&#45;headlabel"><a xlink:href="dir_000086_000065.html" target="_top" xlink:title="3">
<text text-anchor="middle" x="173.017" y="-337.38" font-family="Helvetica,sans-Serif" font-size="10.00">3</text>
</a>
</g>
</g>
<!-- dir_cb59203ea3f84fc4d67c89730003fed4&#45;&gt;dir_d3d507863844f6311a74cf28116d817e -->
<g id="edge15" class="edge"><title>dir_cb59203ea3f84fc4d67c89730003fed4&#45;&gt;dir_d3d507863844f6311a74cf28116d817e</title>
<path fill="none" stroke="black" d="M346.328,-394.638C371.184,-387.446 407.085,-373.3 428,-348 454.104,-316.424 452,-299.969 452,-259 452,-259 452,-259 452,-185 452,-144.031 458.207,-123.676 428,-96 391.025,-62.1231 243.538,-49.3002 170.879,-44.968"/>
<polygon fill="black" stroke="black" points="170.906,-41.464 160.723,-44.3889 170.508,-48.4526 170.906,-41.464"/>
<g id="a_edge15&#45;headlabel"><a xlink:href="dir_000086_000066.html" target="_top" xlink:title="4">
<text text-anchor="middle" x="174.657" y="-36.3339" font-family="Helvetica,sans-Serif" font-size="10.00">4</text>
</a>
</g>
</g>
<!-- dir_cb59203ea3f84fc4d67c89730003fed4&#45;&gt;dir_06113b60808b1bbb52a01dfd2c3a8657 -->
<g id="edge16" class="edge"><title>dir_cb59203ea3f84fc4d67c89730003fed4&#45;&gt;dir_06113b60808b1bbb52a01dfd2c3a8657</title>
<path fill="none" stroke="black" d="M309.505,-383.748C286.221,-342.574 222.707,-236.868 148,-168 135.854,-156.804 121.166,-146.2 107.826,-137.461"/>
<polygon fill="black" stroke="black" points="109.604,-134.443 99.2948,-132 105.83,-140.339 109.604,-134.443"/>
<g id="a_edge16&#45;headlabel"><a xlink:href="dir_000086_000067.html" target="_top" xlink:title="7">
<text text-anchor="middle" x="114.162" y="-131.49" font-family="Helvetica,sans-Serif" font-size="10.00">7</text>
</a>
</g>
</g>
<!-- dir_cb59203ea3f84fc4d67c89730003fed4&#45;&gt;dir_54018506bb725509c19b38b6d9bcf0f6 -->
<g id="edge17" class="edge"><title>dir_cb59203ea3f84fc4d67c89730003fed4&#45;&gt;dir_54018506bb725509c19b38b6d9bcf0f6</title>
<path fill="none" stroke="black" d="M302.41,-383.849C265.847,-346.049 178.213,-255.452 135.799,-211.604"/>
<polygon fill="black" stroke="black" points="138.137,-208.987 128.669,-204.232 133.106,-213.854 138.137,-208.987"/>
<g id="a_edge17&#45;headlabel"><a xlink:href="dir_000086_000074.html" target="_top" xlink:title="47">
<text text-anchor="middle" x="142.677" y="-207.096" font-family="Helvetica,sans-Serif" font-size="10.00">47</text>
</a>
</g>
</g>
<!-- dir_cb59203ea3f84fc4d67c89730003fed4&#45;&gt;dir_eecdbbfa89a6d9af25d920c499e6f44e -->
<g id="edge14" class="edge"><title>dir_cb59203ea3f84fc4d67c89730003fed4&#45;&gt;dir_eecdbbfa89a6d9af25d920c499e6f44e</title>
<path fill="none" stroke="black" d="M293.91,-383.871C256.587,-358.391 186.369,-310.454 144.631,-281.959"/>
<polygon fill="black" stroke="black" points="146.411,-278.937 136.179,-276.189 142.464,-284.718 146.411,-278.937"/>
<g id="a_edge14&#45;headlabel"><a xlink:href="dir_000086_000085.html" target="_top" xlink:title="1">
<text text-anchor="middle" x="150.981" y="-276.119" font-family="Helvetica,sans-Serif" font-size="10.00">1</text>
</a>
</g>
</g>
<!-- dir_cb59203ea3f84fc4d67c89730003fed4&#45;&gt;dir_a2f0e5642e47e7ed59fe0f0829eafb5f -->
<g id="edge12" class="edge"><title>dir_cb59203ea3f84fc4d67c89730003fed4&#45;&gt;dir_a2f0e5642e47e7ed59fe0f0829eafb5f</title>
<path fill="none" stroke="black" d="M333.327,-383.566C340.448,-373.762 348.306,-360.923 352,-348 374.099,-270.698 385.695,-229.576 334,-168 313.175,-143.195 278.411,-129.557 251.82,-122.354"/>
<polygon fill="black" stroke="black" points="252.626,-118.948 242.074,-119.899 250.916,-125.736 252.626,-118.948"/>
<g id="a_edge12&#45;headlabel"><a xlink:href="dir_000086_000020.html" target="_top" xlink:title="53">
<text text-anchor="middle" x="256.806" y="-114.573" font-family="Helvetica,sans-Serif" font-size="10.00">53</text>
</a>
</g>
</g>
</g>
</svg>
