<?xml version="1.0" encoding="UTF-8" standalone="no"?>
<!DOCTYPE svg PUBLIC "-//W3C//DTD SVG 1.1//EN"
 "http://www.w3.org/Graphics/SVG/1.1/DTD/svg11.dtd">
<!-- Generated by graphviz version 2.36.0 (20140111.2315)
 -->
<!-- Title: /home/travis/build/STORM&#45;IRIT/Radium&#45;Engine/src/Core/Utils Pages: 1 -->
<svg width="236pt" height="178pt"
 viewBox="0.00 0.00 236.00 178.06" xmlns="http://www.w3.org/2000/svg" xmlns:xlink="http://www.w3.org/1999/xlink">
<g id="graph0" class="graph" transform="scale(1 1) rotate(0) translate(4 174.055)">
<title>/home/travis/build/STORM&#45;IRIT/Radium&#45;Engine/src/Core/Utils</title>
<polygon fill="white" stroke="none" points="-4,4 -4,-174.055 232,-174.055 232,4 -4,4"/>
<g id="clust1" class="cluster"><title>clusterdir_a2f0e5642e47e7ed59fe0f0829eafb5f</title>
<g id="a_clust1"><a xlink:href="dir_a2f0e5642e47e7ed59fe0f0829eafb5f.html" target="_top" xlink:title="Core">
<polygon fill="#ddddee" stroke="black" points="8,-56 8,-143 166,-143 166,-56 8,-56"/>
<text text-anchor="middle" x="87" y="-131" font-family="Helvetica,sans-Serif" font-size="10.00">Core</text>
</a>
</g>
</g>
<g id="clust2" class="cluster"><title>clusterdir_ff87cf903db18af0fdb6c342683ece25</title>
<g id="a_clust2"><a xlink:href="dir_ff87cf903db18af0fdb6c342683ece25.html" target="_top">
<polygon fill="#eeeeff" stroke="black" points="16,-64 16,-116 158,-116 158,-64 16,-64"/>
</a>
</g>
</g>
<!-- dir_ff87cf903db18af0fdb6c342683ece25 -->
<g id="node1" class="node"><title>dir_ff87cf903db18af0fdb6c342683ece25</title>
<text text-anchor="middle" x="123" y="-87.5" font-family="Helvetica,sans-Serif" font-size="10.00">Utils</text>
</g>
<!-- dir_1efe152df2f2e9cd3517b1174a4598d7 -->
<g id="node5" class="node"><title>dir_1efe152df2f2e9cd3517b1174a4598d7</title>
<g id="a_node5"><a xlink:href="dir_1efe152df2f2e9cd3517b1174a4598d7.html" target="_top" xlink:title="Log">
<polygon fill="none" stroke="black" points="227,-36 173,-36 173,-0 227,-0 227,-36"/>
<text text-anchor="middle" x="200" y="-15.5" font-family="Helvetica,sans-Serif" font-size="10.00">Log</text>
</a>
</g>
</g>
<!-- dir_ff87cf903db18af0fdb6c342683ece25&#45;&gt;dir_1efe152df2f2e9cd3517b1174a4598d7 -->
<g id="edge7" class="edge"><title>dir_ff87cf903db18af0fdb6c342683ece25&#45;&gt;dir_1efe152df2f2e9cd3517b1174a4598d7</title>
<path fill="none" stroke="black" d="M142.034,-71.6966C151.545,-63.0503 163.207,-52.4486 173.57,-43.027"/>
<polygon fill="black" stroke="black" points="176.14,-45.4209 181.185,-36.1043 171.431,-40.2413 176.14,-45.4209"/>
<g id="a_edge7&#45;headlabel"><a xlink:href="dir_000061_000052.html" target="_top" xlink:title="1">
<text text-anchor="middle" x="175.39" y="-47.4397" font-family="Helvetica,sans-Serif" font-size="10.00">1</text>
</a>
</g>
</g>
<!-- dir_f5906172d2c9558d453eb81ef8e5bf93 -->
<g id="node6" class="node"><title>dir_f5906172d2c9558d453eb81ef8e5bf93</title>
<g id="a_node6"><a xlink:href="dir_f5906172d2c9558d453eb81ef8e5bf93.html" target="_top" xlink:title="Index">
<polygon fill="none" stroke="black" points="155,-36 101,-36 101,-0 155,-0 155,-36"/>
<text text-anchor="middle" x="128" y="-15.5" font-family="Helvetica,sans-Serif" font-size="10.00">Index</text>
</a>
</g>
</g>
<!-- dir_ff87cf903db18af0fdb6c342683ece25&#45;&gt;dir_f5906172d2c9558d453eb81ef8e5bf93 -->
<g id="edge8" class="edge"><title>dir_ff87cf903db18af0fdb6c342683ece25&#45;&gt;dir_f5906172d2c9558d453eb81ef8e5bf93</title>
<path fill="none" stroke="black" d="M124.236,-71.6966C124.787,-63.9827 125.449,-54.7125 126.063,-46.1124"/>
<polygon fill="black" stroke="black" points="129.557,-46.3283 126.778,-36.1043 122.575,-45.8295 129.557,-46.3283"/>
<g id="a_edge8&#45;headlabel"><a xlink:href="dir_000061_000051.html" target="_top" xlink:title="1">
<text text-anchor="middle" x="132.133" y="-47.6161" font-family="Helvetica,sans-Serif" font-size="10.00">1</text>
</a>
</g>
</g>
<!-- dir_6dd2e7c3dd0c6b2350fe1d5c32361b10 -->
<g id="node2" class="node"><title>dir_6dd2e7c3dd0c6b2350fe1d5c32361b10</title>
<g id="a_node2"><a xlink:href="dir_6dd2e7c3dd0c6b2350fe1d5c32361b10.html" target="_top" xlink:title="Graph">
<polygon fill="white" stroke="black" points="78,-108 24,-108 24,-72 78,-72 78,-108"/>
<text text-anchor="middle" x="51" y="-87.5" font-family="Helvetica,sans-Serif" font-size="10.00">Graph</text>
</a>
</g>
</g>
<!-- dir_1456dd235032e023892318efbecb420b -->
<g id="node3" class="node"><title>dir_1456dd235032e023892318efbecb420b</title>
<g id="a_node3"><a xlink:href="dir_1456dd235032e023892318efbecb420b.html" target="_top" xlink:title="Containers">
<polygon fill="none" stroke="black" points="83,-36 19,-36 19,-0 83,-0 83,-36"/>
<text text-anchor="middle" x="51" y="-15.5" font-family="Helvetica,sans-Serif" font-size="10.00">Containers</text>
</a>
</g>
</g>
<!-- dir_6dd2e7c3dd0c6b2350fe1d5c32361b10&#45;&gt;dir_1456dd235032e023892318efbecb420b -->
<g id="edge5" class="edge"><title>dir_6dd2e7c3dd0c6b2350fe1d5c32361b10&#45;&gt;dir_1456dd235032e023892318efbecb420b</title>
<path fill="none" stroke="black" d="M51,-71.6966C51,-63.9827 51,-54.7125 51,-46.1124"/>
<polygon fill="black" stroke="black" points="54.5001,-46.1043 51,-36.1043 47.5001,-46.1044 54.5001,-46.1043"/>
<g id="a_edge5&#45;headlabel"><a xlink:href="dir_000062_000033.html" target="_top" xlink:title="2">
<text text-anchor="middle" x="57.3393" y="-47.199" font-family="Helvetica,sans-Serif" font-size="10.00">2</text>
</a>
</g>
</g>
<!-- dir_d080e052e6032887076b6b5756e5361d -->
<g id="node4" class="node"><title>dir_d080e052e6032887076b6b5756e5361d</title>
<g id="a_node4"><a xlink:href="dir_d080e052e6032887076b6b5756e5361d.html" target="_top" xlink:title="Mesh">
<polygon fill="white" stroke="red" points="228,-108 174,-108 174,-72 228,-72 228,-108"/>
<text text-anchor="middle" x="201" y="-87.5" font-family="Helvetica,sans-Serif" font-size="10.00">Mesh</text>
</a>
</g>
</g>
<!-- dir_6dd2e7c3dd0c6b2350fe1d5c32361b10&#45;&gt;dir_d080e052e6032887076b6b5756e5361d -->
<g id="edge6" class="edge"><title>dir_6dd2e7c3dd0c6b2350fe1d5c32361b10&#45;&gt;dir_d080e052e6032887076b6b5756e5361d</title>
<path fill="none" stroke="black" d="M56.7294,-108.038C63.2342,-125.135 75.6695,-149.816 96,-161 118.196,-173.211 130.626,-172.881 153,-161 170.303,-151.812 182.505,-133.292 190.276,-117.471"/>
<polygon fill="black" stroke="black" points="193.594,-118.629 194.548,-108.077 187.222,-115.731 193.594,-118.629"/>
<g id="a_edge6&#45;headlabel"><a xlink:href="dir_000062_000054.html" target="_top" xlink:title="1">
<text text-anchor="middle" x="194.691" y="-120.576" font-family="Helvetica,sans-Serif" font-size="10.00">1</text>
</a>
</g>
</g>
<!-- dir_d080e052e6032887076b6b5756e5361d&#45;&gt;dir_ff87cf903db18af0fdb6c342683ece25 -->
<g id="edge4" class="edge"><title>dir_d080e052e6032887076b6b5756e5361d&#45;&gt;dir_ff87cf903db18af0fdb6c342683ece25</title>
<path fill="none" stroke="black" d="M173.969,-90C169.372,-90 164.776,-90 160.179,-90"/>
<polygon fill="black" stroke="black" points="160.117,-86.5001 150.117,-90 160.117,-93.5001 160.117,-86.5001"/>
<g id="a_edge4&#45;headlabel"><a xlink:href="dir_000054_000061.html" target="_top" xlink:title="2">
<text text-anchor="middle" x="163.712" y="-81.1607" font-family="Helvetica,sans-Serif" font-size="10.00">2</text>
</a>
</g>
</g>
<!-- dir_d080e052e6032887076b6b5756e5361d&#45;&gt;dir_1456dd235032e023892318efbecb420b -->
<g id="edge1" class="edge"><title>dir_d080e052e6032887076b6b5756e5361d&#45;&gt;dir_1456dd235032e023892318efbecb420b</title>
<path fill="none" stroke="black" d="M183.92,-71.8248C177.487,-66.1254 169.825,-60.1764 162,-56 135.908,-42.0738 124.555,-45.8014 92.6633,-35.8971"/>
<polygon fill="black" stroke="black" points="93.6879,-32.5494 83.0944,-32.7161 91.4796,-39.192 93.6879,-32.5494"/>
<g id="a_edge1&#45;headlabel"><a xlink:href="dir_000054_000033.html" target="_top" xlink:title="2">
<text text-anchor="middle" x="97.9946" y="-28.489" font-family="Helvetica,sans-Serif" font-size="10.00">2</text>
</a>
</g>
</g>
<!-- dir_d080e052e6032887076b6b5756e5361d&#45;&gt;dir_1efe152df2f2e9cd3517b1174a4598d7 -->
<g id="edge2" class="edge"><title>dir_d080e052e6032887076b6b5756e5361d&#45;&gt;dir_1efe152df2f2e9cd3517b1174a4598d7</title>
<path fill="none" stroke="black" d="M200.753,-71.6966C200.643,-63.9827 200.51,-54.7125 200.387,-46.1124"/>
<polygon fill="black" stroke="black" points="203.887,-46.0533 200.244,-36.1043 196.888,-46.1533 203.887,-46.0533"/>
<g id="a_edge2&#45;headlabel"><a xlink:href="dir_000054_000052.html" target="_top" xlink:title="3">
<text text-anchor="middle" x="206.777" y="-47.107" font-family="Helvetica,sans-Serif" font-size="10.00">3</text>
</a>
</g>
</g>
<!-- dir_d080e052e6032887076b6b5756e5361d&#45;&gt;dir_f5906172d2c9558d453eb81ef8e5bf93 -->
<g id="edge3" class="edge"><title>dir_d080e052e6032887076b6b5756e5361d&#45;&gt;dir_f5906172d2c9558d453eb81ef8e5bf93</title>
<path fill="none" stroke="black" d="M182.955,-71.6966C173.938,-63.0503 162.882,-52.4486 153.057,-43.027"/>
<polygon fill="black" stroke="black" points="155.478,-40.4993 145.837,-36.1043 150.633,-45.5518 155.478,-40.4993"/>
<g id="a_edge3&#45;headlabel"><a xlink:href="dir_000054_000051.html" target="_top" xlink:title="4">
<text text-anchor="middle" x="160.037" y="-38.4379" font-family="Helvetica,sans-Serif" font-size="10.00">4</text>
</a>
</g>
</g>
</g>
</svg>
