<?xml version="1.0" encoding="UTF-8" standalone="no"?>
<!DOCTYPE svg PUBLIC "-//W3C//DTD SVG 1.1//EN"
 "http://www.w3.org/Graphics/SVG/1.1/DTD/svg11.dtd">
<!-- Generated by graphviz version 2.36.0 (20140111.2315)
 -->
<!-- Title: /home/travis/build/STORM&#45;IRIT/Radium&#45;Engine/src/Core/File/deprecated Pages: 1 -->
<svg width="113pt" height="223pt"
 viewBox="0.00 0.00 113.00 223.00" xmlns="http://www.w3.org/2000/svg" xmlns:xlink="http://www.w3.org/1999/xlink">
<g id="graph0" class="graph" transform="scale(1 1) rotate(0) translate(4 219)">
<title>/home/travis/build/STORM&#45;IRIT/Radium&#45;Engine/src/Core/File/deprecated</title>
<polygon fill="white" stroke="none" points="-4,4 -4,-219 109,-219 109,4 -4,4"/>
<g id="clust1" class="cluster"><title>clusterdir_82af7cf9869521097845e89346391773</title>
<g id="a_clust1"><a xlink:href="dir_82af7cf9869521097845e89346391773.html" target="_top" xlink:title="File">
<polygon fill="#ddddee" stroke="black" points="15,-136 15,-207 97,-207 97,-136 15,-136"/>
<text text-anchor="middle" x="56" y="-195" font-family="Helvetica,sans-Serif" font-size="10.00">File</text>
</a>
</g>
</g>
<!-- dir_ae4577f0adf729a8fb4ff646d07da33a -->
<g id="node1" class="node"><title>dir_ae4577f0adf729a8fb4ff646d07da33a</title>
<g id="a_node1"><a xlink:href="dir_ae4577f0adf729a8fb4ff646d07da33a.html" target="_top" xlink:title="deprecated">
<polygon fill="#eeeeff" stroke="black" points="88.25,-180 23.75,-180 23.75,-144 88.25,-144 88.25,-180"/>
<text text-anchor="middle" x="56" y="-159.5" font-family="Helvetica,sans-Serif" font-size="10.00">deprecated</text>
</a>
</g>
</g>
<!-- dir_d080e052e6032887076b6b5756e5361d -->
<g id="node2" class="node"><title>dir_d080e052e6032887076b6b5756e5361d</title>
<g id="a_node2"><a xlink:href="dir_d080e052e6032887076b6b5756e5361d.html" target="_top" xlink:title="Mesh">
<polygon fill="white" stroke="red" points="56,-108 2,-108 2,-72 56,-72 56,-108"/>
<text text-anchor="middle" x="29" y="-87.5" font-family="Helvetica,sans-Serif" font-size="10.00">Mesh</text>
</a>
</g>
</g>
<!-- dir_ae4577f0adf729a8fb4ff646d07da33a&#45;&gt;dir_d080e052e6032887076b6b5756e5361d -->
<g id="edge2" class="edge"><title>dir_ae4577f0adf729a8fb4ff646d07da33a&#45;&gt;dir_d080e052e6032887076b6b5756e5361d</title>
<path fill="none" stroke="black" d="M49.3258,-143.697C46.2851,-135.813 42.6173,-126.304 39.2393,-117.546"/>
<polygon fill="black" stroke="black" points="42.4617,-116.175 35.5974,-108.104 35.9307,-118.694 42.4617,-116.175"/>
<g id="a_edge2&#45;headlabel"><a xlink:href="dir_000036_000054.html" target="_top" xlink:title="2">
<text text-anchor="middle" x="46.4043" y="-116.007" font-family="Helvetica,sans-Serif" font-size="10.00">2</text>
</a>
</g>
</g>
<!-- dir_cb2b5dfd43482fb277f6333d539f1f06 -->
<g id="node3" class="node"><title>dir_cb2b5dfd43482fb277f6333d539f1f06</title>
<g id="a_node3"><a xlink:href="dir_cb2b5dfd43482fb277f6333d539f1f06.html" target="_top" xlink:title="Geometry">
<polygon fill="white" stroke="red" points="58.25,-36 -0.25,-36 -0.25,-0 58.25,-0 58.25,-36"/>
<text text-anchor="middle" x="29" y="-15.5" font-family="Helvetica,sans-Serif" font-size="10.00">Geometry</text>
</a>
</g>
</g>
<!-- dir_ae4577f0adf729a8fb4ff646d07da33a&#45;&gt;dir_cb2b5dfd43482fb277f6333d539f1f06 -->
<g id="edge3" class="edge"><title>dir_ae4577f0adf729a8fb4ff646d07da33a&#45;&gt;dir_cb2b5dfd43482fb277f6333d539f1f06</title>
<path fill="none" stroke="black" d="M61.6461,-143.877C66.7573,-125.661 72.4405,-96.196 65,-72 61.9911,-62.2153 56.493,-52.6161 50.6843,-44.3336"/>
<polygon fill="black" stroke="black" points="53.4072,-42.1306 44.6099,-36.2264 47.8052,-46.3279 53.4072,-42.1306"/>
<g id="a_edge3&#45;headlabel"><a xlink:href="dir_000036_000038.html" target="_top" xlink:title="1">
<text text-anchor="middle" x="57.8348" y="-40.8048" font-family="Helvetica,sans-Serif" font-size="10.00">1</text>
</a>
</g>
</g>
<!-- dir_d080e052e6032887076b6b5756e5361d&#45;&gt;dir_cb2b5dfd43482fb277f6333d539f1f06 -->
<g id="edge1" class="edge"><title>dir_d080e052e6032887076b6b5756e5361d&#45;&gt;dir_cb2b5dfd43482fb277f6333d539f1f06</title>
<path fill="none" stroke="black" d="M23.0843,-71.6966C22.2886,-63.9827 22.0621,-54.7125 22.4047,-46.1124"/>
<polygon fill="black" stroke="black" points="25.8984,-46.3243 23.105,-36.1043 18.9154,-45.8356 25.8984,-46.3243"/>
<g id="a_edge1&#45;headlabel"><a xlink:href="dir_000054_000038.html" target="_top" xlink:title="2">
<text text-anchor="middle" x="28.4799" y="-47.6083" font-family="Helvetica,sans-Serif" font-size="10.00">2</text>
</a>
</g>
</g>
<!-- dir_cb2b5dfd43482fb277f6333d539f1f06&#45;&gt;dir_d080e052e6032887076b6b5756e5361d -->
<g id="edge4" class="edge"><title>dir_cb2b5dfd43482fb277f6333d539f1f06&#45;&gt;dir_d080e052e6032887076b6b5756e5361d</title>
<path fill="none" stroke="black" d="M34.895,-36.1043C35.7005,-43.7913 35.9369,-53.0537 35.604,-61.6651"/>
<polygon fill="black" stroke="black" points="32.1085,-61.4805 34.9157,-71.6966 39.0921,-61.9597 32.1085,-61.4805"/>
<g id="a_edge4&#45;headlabel"><a xlink:href="dir_000038_000054.html" target="_top" xlink:title="10">
<text text-anchor="middle" x="29.5219" y="-55.2" font-family="Helvetica,sans-Serif" font-size="10.00">10</text>
</a>
</g>
</g>
</g>
</svg>
