<?xml version="1.0" encoding="UTF-8" standalone="no"?>
<!DOCTYPE svg PUBLIC "-//W3C//DTD SVG 1.1//EN"
 "http://www.w3.org/Graphics/SVG/1.1/DTD/svg11.dtd">
<!-- Generated by graphviz version 2.36.0 (20140111.2315)
 -->
<!-- Title: /home/travis/build/STORM&#45;IRIT/Radium&#45;Engine/src/Engine/Renderer/RenderObject/Primitives Pages: 1 -->
<svg width="205pt" height="295pt"
 viewBox="0.00 0.00 205.27 295.00" xmlns="http://www.w3.org/2000/svg" xmlns:xlink="http://www.w3.org/1999/xlink">
<g id="graph0" class="graph" transform="scale(1 1) rotate(0) translate(4 291)">
<title>/home/travis/build/STORM&#45;IRIT/Radium&#45;Engine/src/Engine/Renderer/RenderObject/Primitives</title>
<polygon fill="white" stroke="none" points="-4,4 -4,-291 201.27,-291 201.27,4 -4,4"/>
<g id="clust1" class="cluster"><title>clusterdir_652267079d823ee01f6c6cf98db9085b</title>
<g id="a_clust1"><a xlink:href="dir_652267079d823ee01f6c6cf98db9085b.html" target="_top" xlink:title="RenderObject">
<polygon fill="#ddddee" stroke="black" points="52.5666,-208 52.5666,-279 129.567,-279 129.567,-208 52.5666,-208"/>
<text text-anchor="middle" x="91.0666" y="-267" font-family="Helvetica,sans-Serif" font-size="10.00">RenderObject</text>
</a>
</g>
</g>
<!-- dir_72da96c41019f509fc15d3101528a281 -->
<g id="node1" class="node"><title>dir_72da96c41019f509fc15d3101528a281</title>
<g id="a_node1"><a xlink:href="dir_72da96c41019f509fc15d3101528a281.html" target="_top" xlink:title="Primitives">
<polygon fill="#eeeeff" stroke="black" points="120.067,-252 61.0666,-252 61.0666,-216 120.067,-216 120.067,-252"/>
<text text-anchor="middle" x="90.5666" y="-231.5" font-family="Helvetica,sans-Serif" font-size="10.00">Primitives</text>
</a>
</g>
</g>
<!-- dir_a2f0e5642e47e7ed59fe0f0829eafb5f -->
<g id="node2" class="node"><title>dir_a2f0e5642e47e7ed59fe0f0829eafb5f</title>
<g id="a_node2"><a xlink:href="dir_a2f0e5642e47e7ed59fe0f0829eafb5f.html" target="_top" xlink:title="Core">
<polygon fill="white" stroke="red" points="89.5666,-36 35.5666,-36 35.5666,-0 89.5666,-0 89.5666,-36"/>
<text text-anchor="middle" x="62.5666" y="-15.5" font-family="Helvetica,sans-Serif" font-size="10.00">Core</text>
</a>
</g>
</g>
<!-- dir_72da96c41019f509fc15d3101528a281&#45;&gt;dir_a2f0e5642e47e7ed59fe0f0829eafb5f -->
<g id="edge1" class="edge"><title>dir_72da96c41019f509fc15d3101528a281&#45;&gt;dir_a2f0e5642e47e7ed59fe0f0829eafb5f</title>
<path fill="none" stroke="black" d="M60.6707,-222.328C42.0422,-213.94 19.5885,-200.248 8.56657,-180 -15.8884,-135.075 17.6062,-77.0954 41.7356,-44.3899"/>
<polygon fill="black" stroke="black" points="44.6568,-46.3309 47.9319,-36.2549 39.0882,-42.0893 44.6568,-46.3309"/>
<g id="a_edge1&#45;headlabel"><a xlink:href="dir_000082_000020.html" target="_top" xlink:title="7">
<text text-anchor="middle" x="44.7374" y="-48.4108" font-family="Helvetica,sans-Serif" font-size="10.00">7</text>
</a>
</g>
</g>
<!-- dir_f6a0a87962fcbf90fc709c1bf5ba5a00 -->
<g id="node3" class="node"><title>dir_f6a0a87962fcbf90fc709c1bf5ba5a00</title>
<g id="a_node3"><a xlink:href="dir_f6a0a87962fcbf90fc709c1bf5ba5a00.html" target="_top" xlink:title="Mesh">
<polygon fill="none" stroke="black" points="71.5666,-180 17.5666,-180 17.5666,-144 71.5666,-144 71.5666,-180"/>
<text text-anchor="middle" x="44.5666" y="-159.5" font-family="Helvetica,sans-Serif" font-size="10.00">Mesh</text>
</a>
</g>
</g>
<!-- dir_72da96c41019f509fc15d3101528a281&#45;&gt;dir_f6a0a87962fcbf90fc709c1bf5ba5a00 -->
<g id="edge2" class="edge"><title>dir_72da96c41019f509fc15d3101528a281&#45;&gt;dir_f6a0a87962fcbf90fc709c1bf5ba5a00</title>
<path fill="none" stroke="black" d="M79.1958,-215.697C73.8481,-207.559 67.3622,-197.689 61.456,-188.701"/>
<polygon fill="black" stroke="black" points="64.2234,-186.539 55.8066,-180.104 58.3734,-190.384 64.2234,-186.539"/>
<g id="a_edge2&#45;headlabel"><a xlink:href="dir_000082_000078.html" target="_top" xlink:title="1">
<text text-anchor="middle" x="68.5702" y="-185.484" font-family="Helvetica,sans-Serif" font-size="10.00">1</text>
</a>
</g>
</g>
<!-- dir_6bc97c5ccce2964f7b25f8377ac95818 -->
<g id="node4" class="node"><title>dir_6bc97c5ccce2964f7b25f8377ac95818</title>
<g id="a_node4"><a xlink:href="dir_6bc97c5ccce2964f7b25f8377ac95818.html" target="_top" xlink:title="RenderTechnique">
<polygon fill="none" stroke="black" points="182.817,-180 90.3166,-180 90.3166,-144 182.817,-144 182.817,-180"/>
<text text-anchor="middle" x="136.567" y="-159.5" font-family="Helvetica,sans-Serif" font-size="10.00">RenderTechnique</text>
</a>
</g>
</g>
<!-- dir_72da96c41019f509fc15d3101528a281&#45;&gt;dir_6bc97c5ccce2964f7b25f8377ac95818 -->
<g id="edge3" class="edge"><title>dir_72da96c41019f509fc15d3101528a281&#45;&gt;dir_6bc97c5ccce2964f7b25f8377ac95818</title>
<path fill="none" stroke="black" d="M101.937,-215.697C107.285,-207.559 113.771,-197.689 119.677,-188.701"/>
<polygon fill="black" stroke="black" points="122.76,-190.384 125.327,-180.104 116.91,-186.539 122.76,-190.384"/>
<g id="a_edge3&#45;headlabel"><a xlink:href="dir_000082_000083.html" target="_top" xlink:title="2">
<text text-anchor="middle" x="123.158" y="-192.447" font-family="Helvetica,sans-Serif" font-size="10.00">2</text>
</a>
</g>
</g>
<!-- dir_909774b1a000bf73b2cf501716b773f3 -->
<g id="node5" class="node"><title>dir_909774b1a000bf73b2cf501716b773f3</title>
<g id="a_node5"><a xlink:href="dir_909774b1a000bf73b2cf501716b773f3.html" target="_top" xlink:title="Material">
<polygon fill="none" stroke="black" points="163.567,-108 109.567,-108 109.567,-72 163.567,-72 163.567,-108"/>
<text text-anchor="middle" x="136.567" y="-87.5" font-family="Helvetica,sans-Serif" font-size="10.00">Material</text>
</a>
</g>
</g>
<!-- dir_72da96c41019f509fc15d3101528a281&#45;&gt;dir_909774b1a000bf73b2cf501716b773f3 -->
<g id="edge4" class="edge"><title>dir_72da96c41019f509fc15d3101528a281&#45;&gt;dir_909774b1a000bf73b2cf501716b773f3</title>
<path fill="none" stroke="black" d="M120.271,-226.339C144.165,-219.246 176.199,-205.419 191.567,-180 199.844,-166.308 197.826,-158.725 191.567,-144 186.832,-132.862 178.483,-122.93 169.698,-114.759"/>
<polygon fill="black" stroke="black" points="171.797,-111.946 161.946,-108.045 167.214,-117.238 171.797,-111.946"/>
<g id="a_edge4&#45;headlabel"><a xlink:href="dir_000082_000077.html" target="_top" xlink:title="1">
<text text-anchor="middle" x="176.373" y="-109.653" font-family="Helvetica,sans-Serif" font-size="10.00">1</text>
</a>
</g>
</g>
<!-- dir_f6a0a87962fcbf90fc709c1bf5ba5a00&#45;&gt;dir_a2f0e5642e47e7ed59fe0f0829eafb5f -->
<g id="edge5" class="edge"><title>dir_f6a0a87962fcbf90fc709c1bf5ba5a00&#45;&gt;dir_a2f0e5642e47e7ed59fe0f0829eafb5f</title>
<path fill="none" stroke="black" d="M46.7378,-143.871C49.8056,-119.67 55.4413,-75.2108 59.0942,-46.3932"/>
<polygon fill="black" stroke="black" points="62.6022,-46.55 60.3877,-36.1893 55.6578,-45.6697 62.6022,-46.55"/>
<g id="a_edge5&#45;headlabel"><a xlink:href="dir_000078_000020.html" target="_top" xlink:title="4">
<text text-anchor="middle" x="64.967" y="-47.9732" font-family="Helvetica,sans-Serif" font-size="10.00">4</text>
</a>
</g>
</g>
<!-- dir_6bc97c5ccce2964f7b25f8377ac95818&#45;&gt;dir_a2f0e5642e47e7ed59fe0f0829eafb5f -->
<g id="edge6" class="edge"><title>dir_6bc97c5ccce2964f7b25f8377ac95818&#45;&gt;dir_a2f0e5642e47e7ed59fe0f0829eafb5f</title>
<path fill="none" stroke="black" d="M123.687,-143.871C116.394,-133.744 107.394,-120.494 100.567,-108 89.5381,-87.8172 79.4383,-63.77 72.4276,-45.7626"/>
<polygon fill="black" stroke="black" points="75.6079,-44.2801 68.7688,-36.1883 69.0691,-46.7789 75.6079,-44.2801"/>
<g id="a_edge6&#45;headlabel"><a xlink:href="dir_000083_000020.html" target="_top" xlink:title="12">
<text text-anchor="middle" x="79.5433" y="-44.1243" font-family="Helvetica,sans-Serif" font-size="10.00">12</text>
</a>
</g>
</g>
<!-- dir_6bc97c5ccce2964f7b25f8377ac95818&#45;&gt;dir_909774b1a000bf73b2cf501716b773f3 -->
<g id="edge7" class="edge"><title>dir_6bc97c5ccce2964f7b25f8377ac95818&#45;&gt;dir_909774b1a000bf73b2cf501716b773f3</title>
<path fill="none" stroke="black" d="M130.651,-143.697C129.855,-135.983 129.629,-126.712 129.971,-118.112"/>
<polygon fill="black" stroke="black" points="133.465,-118.324 130.672,-108.104 126.482,-117.836 133.465,-118.324"/>
<g id="a_edge7&#45;headlabel"><a xlink:href="dir_000083_000077.html" target="_top" xlink:title="1">
<text text-anchor="middle" x="136.046" y="-119.608" font-family="Helvetica,sans-Serif" font-size="10.00">1</text>
</a>
</g>
</g>
<!-- dir_909774b1a000bf73b2cf501716b773f3&#45;&gt;dir_a2f0e5642e47e7ed59fe0f0829eafb5f -->
<g id="edge8" class="edge"><title>dir_909774b1a000bf73b2cf501716b773f3&#45;&gt;dir_a2f0e5642e47e7ed59fe0f0829eafb5f</title>
<path fill="none" stroke="black" d="M118.274,-71.6966C109.134,-63.0503 97.9265,-52.4486 87.9666,-43.027"/>
<polygon fill="black" stroke="black" points="90.3182,-40.4337 80.6483,-36.1043 85.5078,-45.519 90.3182,-40.4337"/>
<g id="a_edge8&#45;headlabel"><a xlink:href="dir_000077_000020.html" target="_top" xlink:title="3">
<text text-anchor="middle" x="94.8807" y="-38.3413" font-family="Helvetica,sans-Serif" font-size="10.00">3</text>
</a>
</g>
</g>
<!-- dir_909774b1a000bf73b2cf501716b773f3&#45;&gt;dir_6bc97c5ccce2964f7b25f8377ac95818 -->
<g id="edge9" class="edge"><title>dir_909774b1a000bf73b2cf501716b773f3&#45;&gt;dir_6bc97c5ccce2964f7b25f8377ac95818</title>
<path fill="none" stroke="black" d="M142.462,-108.104C143.267,-115.791 143.503,-125.054 143.171,-133.665"/>
<polygon fill="black" stroke="black" points="139.675,-133.48 142.482,-143.697 146.659,-133.96 139.675,-133.48"/>
<g id="a_edge9&#45;headlabel"><a xlink:href="dir_000077_000083.html" target="_top" xlink:title="3">
<text text-anchor="middle" x="137.088" y="-127.2" font-family="Helvetica,sans-Serif" font-size="10.00">3</text>
</a>
</g>
</g>
</g>
</svg>
