<?xml version="1.0" encoding="UTF-8" standalone="no"?>
<!DOCTYPE svg PUBLIC "-//W3C//DTD SVG 1.1//EN"
 "http://www.w3.org/Graphics/SVG/1.1/DTD/svg11.dtd">
<!-- Generated by graphviz version 2.36.0 (20140111.2315)
 -->
<!-- Title: /home/travis/build/STORM&#45;IRIT/Radium&#45;Engine/src/Core/Geometry/Adjacency Pages: 1 -->
<svg width="166pt" height="367pt"
 viewBox="0.00 0.00 166.00 367.00" xmlns="http://www.w3.org/2000/svg" xmlns:xlink="http://www.w3.org/1999/xlink">
<g id="graph0" class="graph" transform="scale(1 1) rotate(0) translate(4 363)">
<title>/home/travis/build/STORM&#45;IRIT/Radium&#45;Engine/src/Core/Geometry/Adjacency</title>
<polygon fill="white" stroke="none" points="-4,4 -4,-363 162,-363 162,4 -4,4"/>
<g id="clust1" class="cluster"><title>clusterdir_cb2b5dfd43482fb277f6333d539f1f06</title>
<g id="a_clust1"><a xlink:href="dir_cb2b5dfd43482fb277f6333d539f1f06.html" target="_top" xlink:title="Geometry">
<polygon fill="#ddddee" stroke="black" points="72,-280 72,-351 150,-351 150,-280 72,-280"/>
<text text-anchor="middle" x="111" y="-339" font-family="Helvetica,sans-Serif" font-size="10.00">Geometry</text>
</a>
</g>
</g>
<!-- dir_15537c5ca5277b4bdb75eea0337000f7 -->
<g id="node1" class="node"><title>dir_15537c5ca5277b4bdb75eea0337000f7</title>
<g id="a_node1"><a xlink:href="dir_15537c5ca5277b4bdb75eea0337000f7.html" target="_top" xlink:title="Adjacency">
<polygon fill="#eeeeff" stroke="black" points="141.5,-324 80.5,-324 80.5,-288 141.5,-288 141.5,-324"/>
<text text-anchor="middle" x="111" y="-303.5" font-family="Helvetica,sans-Serif" font-size="10.00">Adjacency</text>
</a>
</g>
</g>
<!-- dir_1456dd235032e023892318efbecb420b -->
<g id="node2" class="node"><title>dir_1456dd235032e023892318efbecb420b</title>
<g id="a_node2"><a xlink:href="dir_1456dd235032e023892318efbecb420b.html" target="_top" xlink:title="Containers">
<polygon fill="none" stroke="black" points="64,-252 0,-252 0,-216 64,-216 64,-252"/>
<text text-anchor="middle" x="32" y="-231.5" font-family="Helvetica,sans-Serif" font-size="10.00">Containers</text>
</a>
</g>
</g>
<!-- dir_15537c5ca5277b4bdb75eea0337000f7&#45;&gt;dir_1456dd235032e023892318efbecb420b -->
<g id="edge5" class="edge"><title>dir_15537c5ca5277b4bdb75eea0337000f7&#45;&gt;dir_1456dd235032e023892318efbecb420b</title>
<path fill="none" stroke="black" d="M91.4719,-287.697C81.6182,-278.965 69.5143,-268.24 58.8039,-258.75"/>
<polygon fill="black" stroke="black" points="61.1092,-256.117 51.3035,-252.104 56.4669,-261.356 61.1092,-256.117"/>
<g id="a_edge5&#45;headlabel"><a xlink:href="dir_000039_000033.html" target="_top" xlink:title="2">
<text text-anchor="middle" x="65.6825" y="-253.875" font-family="Helvetica,sans-Serif" font-size="10.00">2</text>
</a>
</g>
</g>
<!-- dir_d080e052e6032887076b6b5756e5361d -->
<g id="node3" class="node"><title>dir_d080e052e6032887076b6b5756e5361d</title>
<g id="a_node3"><a xlink:href="dir_d080e052e6032887076b6b5756e5361d.html" target="_top" xlink:title="Mesh">
<polygon fill="white" stroke="red" points="102,-108 48,-108 48,-72 102,-72 102,-108"/>
<text text-anchor="middle" x="75" y="-87.5" font-family="Helvetica,sans-Serif" font-size="10.00">Mesh</text>
</a>
</g>
</g>
<!-- dir_15537c5ca5277b4bdb75eea0337000f7&#45;&gt;dir_d080e052e6032887076b6b5756e5361d -->
<g id="edge6" class="edge"><title>dir_15537c5ca5277b4bdb75eea0337000f7&#45;&gt;dir_d080e052e6032887076b6b5756e5361d</title>
<path fill="none" stroke="black" d="M114.269,-287.588C119.205,-257.512 126.445,-194.227 111,-144 107.991,-134.215 102.493,-124.616 96.6843,-116.334"/>
<polygon fill="black" stroke="black" points="99.4072,-114.131 90.6099,-108.226 93.8052,-118.328 99.4072,-114.131"/>
<g id="a_edge6&#45;headlabel"><a xlink:href="dir_000039_000054.html" target="_top" xlink:title="1">
<text text-anchor="middle" x="103.835" y="-112.805" font-family="Helvetica,sans-Serif" font-size="10.00">1</text>
</a>
</g>
</g>
<!-- dir_a1f42069ba95676f6b9abbd5065ccf6d -->
<g id="node4" class="node"><title>dir_a1f42069ba95676f6b9abbd5065ccf6d</title>
<g id="a_node4"><a xlink:href="dir_a1f42069ba95676f6b9abbd5065ccf6d.html" target="_top" xlink:title="Math">
<polygon fill="none" stroke="black" points="102,-180 48,-180 48,-144 102,-144 102,-180"/>
<text text-anchor="middle" x="75" y="-159.5" font-family="Helvetica,sans-Serif" font-size="10.00">Math</text>
</a>
</g>
</g>
<!-- dir_15537c5ca5277b4bdb75eea0337000f7&#45;&gt;dir_a1f42069ba95676f6b9abbd5065ccf6d -->
<g id="edge7" class="edge"><title>dir_15537c5ca5277b4bdb75eea0337000f7&#45;&gt;dir_a1f42069ba95676f6b9abbd5065ccf6d</title>
<path fill="none" stroke="black" d="M106.658,-287.871C100.495,-263.564 89.1512,-218.819 81.8484,-190.013"/>
<polygon fill="black" stroke="black" points="85.2081,-189.022 79.3578,-180.189 78.4227,-190.743 85.2081,-189.022"/>
<g id="a_edge7&#45;headlabel"><a xlink:href="dir_000039_000053.html" target="_top" xlink:title="1">
<text text-anchor="middle" x="88.8435" y="-189.309" font-family="Helvetica,sans-Serif" font-size="10.00">1</text>
</a>
</g>
</g>
<!-- dir_ff87cf903db18af0fdb6c342683ece25 -->
<g id="node5" class="node"><title>dir_ff87cf903db18af0fdb6c342683ece25</title>
<g id="a_node5"><a xlink:href="dir_ff87cf903db18af0fdb6c342683ece25.html" target="_top" xlink:title="Utils">
<polygon fill="white" stroke="red" points="102,-36 48,-36 48,-0 102,-0 102,-36"/>
<text text-anchor="middle" x="75" y="-15.5" font-family="Helvetica,sans-Serif" font-size="10.00">Utils</text>
</a>
</g>
</g>
<!-- dir_15537c5ca5277b4bdb75eea0337000f7&#45;&gt;dir_ff87cf903db18af0fdb6c342683ece25 -->
<g id="edge8" class="edge"><title>dir_15537c5ca5277b4bdb75eea0337000f7&#45;&gt;dir_ff87cf903db18af0fdb6c342683ece25</title>
<path fill="none" stroke="black" d="M120.542,-287.928C125.64,-277.821 131.39,-264.571 134,-252 137.253,-236.334 134.555,-231.99 134,-216 131.754,-151.228 137.476,-131.157 111,-72 106.751,-62.5055 100.802,-52.8752 94.9625,-44.4753"/>
<polygon fill="black" stroke="black" points="97.6902,-42.2744 88.9926,-36.2244 92.019,-46.3778 97.6902,-42.2744"/>
<g id="a_edge8&#45;headlabel"><a xlink:href="dir_000039_000061.html" target="_top" xlink:title="1">
<text text-anchor="middle" x="102.098" y="-41.0222" font-family="Helvetica,sans-Serif" font-size="10.00">1</text>
</a>
</g>
</g>
<!-- dir_1456dd235032e023892318efbecb420b&#45;&gt;dir_a1f42069ba95676f6b9abbd5065ccf6d -->
<g id="edge1" class="edge"><title>dir_1456dd235032e023892318efbecb420b&#45;&gt;dir_a1f42069ba95676f6b9abbd5065ccf6d</title>
<path fill="none" stroke="black" d="M36.7135,-215.697C40.9163,-207.474 46.8521,-197.483 52.8643,-188.421"/>
<polygon fill="black" stroke="black" points="55.8034,-190.324 58.598,-180.104 50.0403,-186.351 55.8034,-190.324"/>
<g id="a_edge1&#45;headlabel"><a xlink:href="dir_000033_000053.html" target="_top" xlink:title="1">
<text text-anchor="middle" x="56.1006" y="-192.395" font-family="Helvetica,sans-Serif" font-size="10.00">1</text>
</a>
</g>
</g>
<!-- dir_d080e052e6032887076b6b5756e5361d&#45;&gt;dir_1456dd235032e023892318efbecb420b -->
<g id="edge2" class="edge"><title>dir_d080e052e6032887076b6b5756e5361d&#45;&gt;dir_1456dd235032e023892318efbecb420b</title>
<path fill="none" stroke="black" d="M59.8002,-108.361C52.1573,-118.144 43.5682,-130.986 39,-144 32.0382,-163.834 30.4881,-187.631 30.5697,-205.626"/>
<polygon fill="black" stroke="black" points="27.0728,-205.813 30.7875,-215.735 34.0711,-205.662 27.0728,-205.813"/>
<g id="a_edge2&#45;headlabel"><a xlink:href="dir_000054_000033.html" target="_top" xlink:title="2">
<text text-anchor="middle" x="24.1568" y="-199.78" font-family="Helvetica,sans-Serif" font-size="10.00">2</text>
</a>
</g>
</g>
<!-- dir_d080e052e6032887076b6b5756e5361d&#45;&gt;dir_a1f42069ba95676f6b9abbd5065ccf6d -->
<g id="edge3" class="edge"><title>dir_d080e052e6032887076b6b5756e5361d&#45;&gt;dir_a1f42069ba95676f6b9abbd5065ccf6d</title>
<path fill="none" stroke="black" d="M80.895,-108.104C81.7005,-115.791 81.9369,-125.054 81.604,-133.665"/>
<polygon fill="black" stroke="black" points="78.1085,-133.48 80.9157,-143.697 85.0921,-133.96 78.1085,-133.48"/>
<g id="a_edge3&#45;headlabel"><a xlink:href="dir_000054_000053.html" target="_top" xlink:title="7">
<text text-anchor="middle" x="75.5219" y="-127.2" font-family="Helvetica,sans-Serif" font-size="10.00">7</text>
</a>
</g>
</g>
<!-- dir_d080e052e6032887076b6b5756e5361d&#45;&gt;dir_ff87cf903db18af0fdb6c342683ece25 -->
<g id="edge4" class="edge"><title>dir_d080e052e6032887076b6b5756e5361d&#45;&gt;dir_ff87cf903db18af0fdb6c342683ece25</title>
<path fill="none" stroke="black" d="M69.0843,-71.6966C68.2886,-63.9827 68.0621,-54.7125 68.4047,-46.1124"/>
<polygon fill="black" stroke="black" points="71.8984,-46.3243 69.105,-36.1043 64.9154,-45.8356 71.8984,-46.3243"/>
<g id="a_edge4&#45;headlabel"><a xlink:href="dir_000054_000061.html" target="_top" xlink:title="2">
<text text-anchor="middle" x="74.4799" y="-47.6083" font-family="Helvetica,sans-Serif" font-size="10.00">2</text>
</a>
</g>
</g>
<!-- dir_a1f42069ba95676f6b9abbd5065ccf6d&#45;&gt;dir_1456dd235032e023892318efbecb420b -->
<g id="edge9" class="edge"><title>dir_a1f42069ba95676f6b9abbd5065ccf6d&#45;&gt;dir_1456dd235032e023892318efbecb420b</title>
<path fill="none" stroke="black" d="M70.3881,-180.104C66.2134,-188.298 60.2923,-198.282 54.2814,-207.359"/>
<polygon fill="black" stroke="black" points="51.33,-205.474 48.5449,-215.697 57.0968,-209.442 51.33,-205.474"/>
<g id="a_edge9&#45;headlabel"><a xlink:href="dir_000053_000033.html" target="_top" xlink:title="3">
<text text-anchor="middle" x="51.0284" y="-198.404" font-family="Helvetica,sans-Serif" font-size="10.00">3</text>
</a>
</g>
</g>
<!-- dir_a1f42069ba95676f6b9abbd5065ccf6d&#45;&gt;dir_d080e052e6032887076b6b5756e5361d -->
<g id="edge10" class="edge"><title>dir_a1f42069ba95676f6b9abbd5065ccf6d&#45;&gt;dir_d080e052e6032887076b6b5756e5361d</title>
<path fill="none" stroke="black" d="M69.0843,-143.697C68.2886,-135.983 68.0621,-126.712 68.4047,-118.112"/>
<polygon fill="black" stroke="black" points="71.8984,-118.324 69.105,-108.104 64.9154,-117.836 71.8984,-118.324"/>
<g id="a_edge10&#45;headlabel"><a xlink:href="dir_000053_000054.html" target="_top" xlink:title="1">
<text text-anchor="middle" x="74.4799" y="-119.608" font-family="Helvetica,sans-Serif" font-size="10.00">1</text>
</a>
</g>
</g>
<!-- dir_ff87cf903db18af0fdb6c342683ece25&#45;&gt;dir_1456dd235032e023892318efbecb420b -->
<g id="edge11" class="edge"><title>dir_ff87cf903db18af0fdb6c342683ece25&#45;&gt;dir_1456dd235032e023892318efbecb420b</title>
<path fill="none" stroke="black" d="M60.5407,-36.0285C52.9231,-45.9111 44.1221,-58.9541 39,-72 21.6376,-116.221 24.2284,-172.613 27.9413,-205.574"/>
<polygon fill="black" stroke="black" points="24.5062,-206.313 29.2163,-215.803 31.4524,-205.447 24.5062,-206.313"/>
<g id="a_edge11&#45;headlabel"><a xlink:href="dir_000061_000033.html" target="_top" xlink:title="3">
<text text-anchor="middle" x="21.2442" y="-200.597" font-family="Helvetica,sans-Serif" font-size="10.00">3</text>
</a>
</g>
</g>
<!-- dir_ff87cf903db18af0fdb6c342683ece25&#45;&gt;dir_d080e052e6032887076b6b5756e5361d -->
<g id="edge12" class="edge"><title>dir_ff87cf903db18af0fdb6c342683ece25&#45;&gt;dir_d080e052e6032887076b6b5756e5361d</title>
<path fill="none" stroke="black" d="M80.895,-36.1043C81.7005,-43.7913 81.9369,-53.0537 81.604,-61.6651"/>
<polygon fill="black" stroke="black" points="78.1085,-61.4805 80.9157,-71.6966 85.0921,-61.9597 78.1085,-61.4805"/>
<g id="a_edge12&#45;headlabel"><a xlink:href="dir_000061_000054.html" target="_top" xlink:title="1">
<text text-anchor="middle" x="75.5219" y="-55.2" font-family="Helvetica,sans-Serif" font-size="10.00">1</text>
</a>
</g>
</g>
</g>
</svg>
