<?xml version="1.0" encoding="UTF-8" standalone="no"?>
<!DOCTYPE svg PUBLIC "-//W3C//DTD SVG 1.1//EN"
 "http://www.w3.org/Graphics/SVG/1.1/DTD/svg11.dtd">
<!-- Generated by graphviz version 2.36.0 (20140111.2315)
 -->
<!-- Title: /home/travis/build/STORM&#45;IRIT/Radium&#45;Engine/src/Engine/Renderer/Camera Pages: 1 -->
<svg width="423pt" height="439pt"
 viewBox="0.00 0.00 423.00 439.00" xmlns="http://www.w3.org/2000/svg" xmlns:xlink="http://www.w3.org/1999/xlink">
<g id="graph0" class="graph" transform="scale(1 1) rotate(0) translate(4 435)">
<title>/home/travis/build/STORM&#45;IRIT/Radium&#45;Engine/src/Engine/Renderer/Camera</title>
<polygon fill="white" stroke="none" points="-4,4 -4,-435 419,-435 419,4 -4,4"/>
<g id="clust1" class="cluster"><title>clusterdir_54018506bb725509c19b38b6d9bcf0f6</title>
<g id="a_clust1"><a xlink:href="dir_54018506bb725509c19b38b6d9bcf0f6.html" target="_top" xlink:title="Renderer">
<polygon fill="#ddddee" stroke="black" points="120,-352 120,-423 190,-423 190,-352 120,-352"/>
<text text-anchor="middle" x="155" y="-411" font-family="Helvetica,sans-Serif" font-size="10.00">Renderer</text>
</a>
</g>
</g>
<!-- dir_35f904a890c1431d13964486334c23a9 -->
<g id="node1" class="node"><title>dir_35f904a890c1431d13964486334c23a9</title>
<g id="a_node1"><a xlink:href="dir_35f904a890c1431d13964486334c23a9.html" target="_top" xlink:title="Camera">
<polygon fill="#eeeeff" stroke="black" points="182,-396 128,-396 128,-360 182,-360 182,-396"/>
<text text-anchor="middle" x="155" y="-375.5" font-family="Helvetica,sans-Serif" font-size="10.00">Camera</text>
</a>
</g>
</g>
<!-- dir_652267079d823ee01f6c6cf98db9085b -->
<g id="node2" class="node"><title>dir_652267079d823ee01f6c6cf98db9085b</title>
<g id="a_node2"><a xlink:href="dir_652267079d823ee01f6c6cf98db9085b.html" target="_top" xlink:title="RenderObject">
<polygon fill="white" stroke="red" points="223.25,-324 146.75,-324 146.75,-288 223.25,-288 223.25,-324"/>
<text text-anchor="middle" x="185" y="-303.5" font-family="Helvetica,sans-Serif" font-size="10.00">RenderObject</text>
</a>
</g>
</g>
<!-- dir_35f904a890c1431d13964486334c23a9&#45;&gt;dir_652267079d823ee01f6c6cf98db9085b -->
<g id="edge11" class="edge"><title>dir_35f904a890c1431d13964486334c23a9&#45;&gt;dir_652267079d823ee01f6c6cf98db9085b</title>
<path fill="none" stroke="black" d="M162.416,-359.697C165.794,-351.813 169.87,-342.304 173.623,-333.546"/>
<polygon fill="black" stroke="black" points="176.947,-334.675 177.67,-324.104 170.513,-331.917 176.947,-334.675"/>
<g id="a_edge11&#45;headlabel"><a xlink:href="dir_000075_000081.html" target="_top" xlink:title="1">
<text text-anchor="middle" x="178.141" y="-336.597" font-family="Helvetica,sans-Serif" font-size="10.00">1</text>
</a>
</g>
</g>
<!-- dir_a2f0e5642e47e7ed59fe0f0829eafb5f -->
<g id="node3" class="node"><title>dir_a2f0e5642e47e7ed59fe0f0829eafb5f</title>
<g id="a_node3"><a xlink:href="dir_a2f0e5642e47e7ed59fe0f0829eafb5f.html" target="_top" xlink:title="Core">
<polygon fill="white" stroke="red" points="290,-252 236,-252 236,-216 290,-216 290,-252"/>
<text text-anchor="middle" x="263" y="-231.5" font-family="Helvetica,sans-Serif" font-size="10.00">Core</text>
</a>
</g>
</g>
<!-- dir_35f904a890c1431d13964486334c23a9&#45;&gt;dir_a2f0e5642e47e7ed59fe0f0829eafb5f -->
<g id="edge12" class="edge"><title>dir_35f904a890c1431d13964486334c23a9&#45;&gt;dir_a2f0e5642e47e7ed59fe0f0829eafb5f</title>
<path fill="none" stroke="black" d="M182.18,-363.938C198.639,-354.797 218.911,-341.162 232,-324 245.833,-305.862 253.793,-281.085 258.175,-262.278"/>
<polygon fill="black" stroke="black" points="261.649,-262.768 260.307,-252.258 254.802,-261.311 261.649,-262.768"/>
<g id="a_edge12&#45;headlabel"><a xlink:href="dir_000075_000020.html" target="_top" xlink:title="3">
<text text-anchor="middle" x="263.678" y="-264.374" font-family="Helvetica,sans-Serif" font-size="10.00">3</text>
</a>
</g>
</g>
<!-- dir_7205f054df4e14abb60715afe3e7e90c -->
<g id="node4" class="node"><title>dir_7205f054df4e14abb60715afe3e7e90c</title>
<g id="a_node4"><a xlink:href="dir_7205f054df4e14abb60715afe3e7e90c.html" target="_top" xlink:title="Entity">
<polygon fill="none" stroke="black" points="235,-180 181,-180 181,-144 235,-144 235,-180"/>
<text text-anchor="middle" x="208" y="-159.5" font-family="Helvetica,sans-Serif" font-size="10.00">Entity</text>
</a>
</g>
</g>
<!-- dir_35f904a890c1431d13964486334c23a9&#45;&gt;dir_7205f054df4e14abb60715afe3e7e90c -->
<g id="edge13" class="edge"><title>dir_35f904a890c1431d13964486334c23a9&#45;&gt;dir_7205f054df4e14abb60715afe3e7e90c</title>
<path fill="none" stroke="black" d="M146.863,-359.8C139.418,-341.773 130.477,-312.691 137,-288 146.879,-250.606 170.815,-212.679 188.169,-188.567"/>
<polygon fill="black" stroke="black" points="191.119,-190.464 194.227,-180.336 185.481,-186.315 191.119,-190.464"/>
<g id="a_edge13&#45;headlabel"><a xlink:href="dir_000075_000065.html" target="_top" xlink:title="1">
<text text-anchor="middle" x="191.275" y="-192.542" font-family="Helvetica,sans-Serif" font-size="10.00">1</text>
</a>
</g>
</g>
<!-- dir_f6a0a87962fcbf90fc709c1bf5ba5a00 -->
<g id="node5" class="node"><title>dir_f6a0a87962fcbf90fc709c1bf5ba5a00</title>
<g id="a_node5"><a xlink:href="dir_f6a0a87962fcbf90fc709c1bf5ba5a00.html" target="_top" xlink:title="Mesh">
<polygon fill="none" stroke="black" points="153,-36 99,-36 99,-0 153,-0 153,-36"/>
<text text-anchor="middle" x="126" y="-15.5" font-family="Helvetica,sans-Serif" font-size="10.00">Mesh</text>
</a>
</g>
</g>
<!-- dir_35f904a890c1431d13964486334c23a9&#45;&gt;dir_f6a0a87962fcbf90fc709c1bf5ba5a00 -->
<g id="edge14" class="edge"><title>dir_35f904a890c1431d13964486334c23a9&#45;&gt;dir_f6a0a87962fcbf90fc709c1bf5ba5a00</title>
<path fill="none" stroke="black" d="M127.646,-366.638C83.1485,-347.795 0,-303.428 0,-235 0,-235 0,-235 0,-161 0,-106.23 53.0929,-62.7311 90.3501,-38.9489"/>
<polygon fill="black" stroke="black" points="92.3089,-41.8528 98.9698,-33.6137 88.6248,-35.9007 92.3089,-41.8528"/>
<g id="a_edge14&#45;headlabel"><a xlink:href="dir_000075_000078.html" target="_top" xlink:title="1">
<text text-anchor="middle" x="90.7467" y="-43.6588" font-family="Helvetica,sans-Serif" font-size="10.00">1</text>
</a>
</g>
</g>
<!-- dir_6bc97c5ccce2964f7b25f8377ac95818 -->
<g id="node6" class="node"><title>dir_6bc97c5ccce2964f7b25f8377ac95818</title>
<g id="a_node6"><a xlink:href="dir_6bc97c5ccce2964f7b25f8377ac95818.html" target="_top" xlink:title="RenderTechnique">
<polygon fill="none" stroke="black" points="404.25,-36 311.75,-36 311.75,-0 404.25,-0 404.25,-36"/>
<text text-anchor="middle" x="358" y="-15.5" font-family="Helvetica,sans-Serif" font-size="10.00">RenderTechnique</text>
</a>
</g>
</g>
<!-- dir_35f904a890c1431d13964486334c23a9&#45;&gt;dir_6bc97c5ccce2964f7b25f8377ac95818 -->
<g id="edge15" class="edge"><title>dir_35f904a890c1431d13964486334c23a9&#45;&gt;dir_6bc97c5ccce2964f7b25f8377ac95818</title>
<path fill="none" stroke="black" d="M182.333,-374.842C249.087,-367.932 415,-340.179 415,-235 415,-235 415,-235 415,-161 415,-117.801 392,-72.1859 375.22,-44.6553"/>
<polygon fill="black" stroke="black" points="378.093,-42.6485 369.81,-36.0417 372.165,-46.3716 378.093,-42.6485"/>
<g id="a_edge15&#45;headlabel"><a xlink:href="dir_000075_000083.html" target="_top" xlink:title="1">
<text text-anchor="middle" x="382.409" y="-41.6824" font-family="Helvetica,sans-Serif" font-size="10.00">1</text>
</a>
</g>
</g>
<!-- dir_d0f3276f03e9a9cb8f8ba3f2a5ea1262 -->
<g id="node7" class="node"><title>dir_d0f3276f03e9a9cb8f8ba3f2a5ea1262</title>
<g id="a_node7"><a xlink:href="dir_d0f3276f03e9a9cb8f8ba3f2a5ea1262.html" target="_top" xlink:title="Component">
<polygon fill="none" stroke="black" points="209.25,-108 142.75,-108 142.75,-72 209.25,-72 209.25,-108"/>
<text text-anchor="middle" x="176" y="-87.5" font-family="Helvetica,sans-Serif" font-size="10.00">Component</text>
</a>
</g>
</g>
<!-- dir_35f904a890c1431d13964486334c23a9&#45;&gt;dir_d0f3276f03e9a9cb8f8ba3f2a5ea1262 -->
<g id="edge16" class="edge"><title>dir_35f904a890c1431d13964486334c23a9&#45;&gt;dir_d0f3276f03e9a9cb8f8ba3f2a5ea1262</title>
<path fill="none" stroke="black" d="M145.046,-359.978C139.728,-349.888 133.728,-336.638 131,-324 114.87,-249.278 145.761,-160.471 163.986,-117.25"/>
<polygon fill="black" stroke="black" points="167.226,-118.576 167.986,-108.008 160.802,-115.795 167.226,-118.576"/>
<g id="a_edge16&#45;headlabel"><a xlink:href="dir_000075_000064.html" target="_top" xlink:title="1">
<text text-anchor="middle" x="168.404" y="-120.502" font-family="Helvetica,sans-Serif" font-size="10.00">1</text>
</a>
</g>
</g>
<!-- dir_652267079d823ee01f6c6cf98db9085b&#45;&gt;dir_a2f0e5642e47e7ed59fe0f0829eafb5f -->
<g id="edge1" class="edge"><title>dir_652267079d823ee01f6c6cf98db9085b&#45;&gt;dir_a2f0e5642e47e7ed59fe0f0829eafb5f</title>
<path fill="none" stroke="black" d="M198.365,-287.697C207.194,-278.965 218.973,-268.24 230.105,-258.75"/>
<polygon fill="black" stroke="black" points="232.624,-261.207 238.046,-252.104 228.131,-255.839 232.624,-261.207"/>
<g id="a_edge1&#45;headlabel"><a xlink:href="dir_000081_000020.html" target="_top" xlink:title="13">
<text text-anchor="middle" x="231.69" y="-263.191" font-family="Helvetica,sans-Serif" font-size="10.00">13</text>
</a>
</g>
</g>
<!-- dir_652267079d823ee01f6c6cf98db9085b&#45;&gt;dir_7205f054df4e14abb60715afe3e7e90c -->
<g id="edge2" class="edge"><title>dir_652267079d823ee01f6c6cf98db9085b&#45;&gt;dir_7205f054df4e14abb60715afe3e7e90c</title>
<path fill="none" stroke="black" d="M187.774,-287.871C191.694,-263.67 198.895,-219.211 203.563,-190.393"/>
<polygon fill="black" stroke="black" points="207.072,-190.62 205.216,-180.189 200.162,-189.501 207.072,-190.62"/>
<g id="a_edge2&#45;headlabel"><a xlink:href="dir_000081_000065.html" target="_top" xlink:title="2">
<text text-anchor="middle" x="209.3" y="-192.123" font-family="Helvetica,sans-Serif" font-size="10.00">2</text>
</a>
</g>
</g>
<!-- dir_652267079d823ee01f6c6cf98db9085b&#45;&gt;dir_f6a0a87962fcbf90fc709c1bf5ba5a00 -->
<g id="edge3" class="edge"><title>dir_652267079d823ee01f6c6cf98db9085b&#45;&gt;dir_f6a0a87962fcbf90fc709c1bf5ba5a00</title>
<path fill="none" stroke="black" d="M180.459,-287.815C177.719,-277.443 174.158,-263.962 171,-252 154.103,-188.002 144.084,-173.256 133,-108 129.518,-87.5006 127.763,-64.0448 126.881,-46.3609"/>
<polygon fill="black" stroke="black" points="130.37,-46.0122 126.438,-36.174 123.376,-46.3169 130.37,-46.0122"/>
<g id="a_edge3&#45;headlabel"><a xlink:href="dir_000081_000078.html" target="_top" xlink:title="3">
<text text-anchor="middle" x="133.363" y="-46.9798" font-family="Helvetica,sans-Serif" font-size="10.00">3</text>
</a>
</g>
</g>
<!-- dir_652267079d823ee01f6c6cf98db9085b&#45;&gt;dir_6bc97c5ccce2964f7b25f8377ac95818 -->
<g id="edge4" class="edge"><title>dir_652267079d823ee01f6c6cf98db9085b&#45;&gt;dir_6bc97c5ccce2964f7b25f8377ac95818</title>
<path fill="none" stroke="black" d="M223.48,-294.014C247.46,-285.62 277.696,-272.038 299,-252 349.757,-204.26 350.27,-176.849 361,-108 364.194,-87.5066 363.216,-64.0505 361.562,-46.3649"/>
<polygon fill="black" stroke="black" points="365.017,-45.7496 360.476,-36.177 358.056,-46.4916 365.017,-45.7496"/>
<g id="a_edge4&#45;headlabel"><a xlink:href="dir_000081_000083.html" target="_top" xlink:title="4">
<text text-anchor="middle" x="368.221" y="-46.5231" font-family="Helvetica,sans-Serif" font-size="10.00">4</text>
</a>
</g>
</g>
<!-- dir_652267079d823ee01f6c6cf98db9085b&#45;&gt;dir_d0f3276f03e9a9cb8f8ba3f2a5ea1262 -->
<g id="edge5" class="edge"><title>dir_652267079d823ee01f6c6cf98db9085b&#45;&gt;dir_d0f3276f03e9a9cb8f8ba3f2a5ea1262</title>
<path fill="none" stroke="black" d="M176.753,-287.637C168.872,-258.155 161.025,-196.402 163,-144 163.318,-135.571 163.918,-126.405 164.969,-118.102"/>
<polygon fill="black" stroke="black" points="168.435,-118.594 166.554,-108.167 161.522,-117.491 168.435,-118.594"/>
<g id="a_edge5&#45;headlabel"><a xlink:href="dir_000081_000064.html" target="_top" xlink:title="2">
<text text-anchor="middle" x="170.673" y="-120.091" font-family="Helvetica,sans-Serif" font-size="10.00">2</text>
</a>
</g>
</g>
<!-- dir_a2f0e5642e47e7ed59fe0f0829eafb5f&#45;&gt;dir_652267079d823ee01f6c6cf98db9085b -->
<g id="edge6" class="edge"><title>dir_a2f0e5642e47e7ed59fe0f0829eafb5f&#45;&gt;dir_652267079d823ee01f6c6cf98db9085b</title>
<path fill="none" stroke="black" d="M249.836,-252.104C241.053,-260.805 229.291,-271.524 218.149,-281.033"/>
<polygon fill="black" stroke="black" points="215.613,-278.591 210.197,-287.697 220.109,-283.956 215.613,-278.591"/>
<g id="a_edge6&#45;headlabel"><a xlink:href="dir_000020_000081.html" target="_top" xlink:title="1">
<text text-anchor="middle" x="216.545" y="-271.606" font-family="Helvetica,sans-Serif" font-size="10.00">1</text>
</a>
</g>
</g>
<!-- dir_a2f0e5642e47e7ed59fe0f0829eafb5f&#45;&gt;dir_7205f054df4e14abb60715afe3e7e90c -->
<g id="edge7" class="edge"><title>dir_a2f0e5642e47e7ed59fe0f0829eafb5f&#45;&gt;dir_7205f054df4e14abb60715afe3e7e90c</title>
<path fill="none" stroke="black" d="M243.489,-215.697C236.18,-207.474 228.129,-197.483 221.453,-188.421"/>
<polygon fill="black" stroke="black" points="224.189,-186.229 215.544,-180.104 218.483,-190.283 224.189,-186.229"/>
<g id="a_edge7&#45;headlabel"><a xlink:href="dir_000020_000065.html" target="_top" xlink:title="1">
<text text-anchor="middle" x="228.586" y="-185.014" font-family="Helvetica,sans-Serif" font-size="10.00">1</text>
</a>
</g>
</g>
<!-- dir_7205f054df4e14abb60715afe3e7e90c&#45;&gt;dir_a2f0e5642e47e7ed59fe0f0829eafb5f -->
<g id="edge8" class="edge"><title>dir_7205f054df4e14abb60715afe3e7e90c&#45;&gt;dir_a2f0e5642e47e7ed59fe0f0829eafb5f</title>
<path fill="none" stroke="black" d="M227.334,-180.104C234.631,-188.298 242.687,-198.282 249.385,-207.359"/>
<polygon fill="black" stroke="black" points="246.669,-209.58 255.32,-215.697 252.372,-205.52 246.669,-209.58"/>
<g id="a_edge8&#45;headlabel"><a xlink:href="dir_000065_000020.html" target="_top" xlink:title="4">
<text text-anchor="middle" x="242.271" y="-205.799" font-family="Helvetica,sans-Serif" font-size="10.00">4</text>
</a>
</g>
</g>
<!-- dir_7205f054df4e14abb60715afe3e7e90c&#45;&gt;dir_d0f3276f03e9a9cb8f8ba3f2a5ea1262 -->
<g id="edge9" class="edge"><title>dir_7205f054df4e14abb60715afe3e7e90c&#45;&gt;dir_d0f3276f03e9a9cb8f8ba3f2a5ea1262</title>
<path fill="none" stroke="black" d="M194.174,-143.697C189.757,-135.813 185.191,-126.304 181.564,-117.546"/>
<polygon fill="black" stroke="black" points="184.787,-116.176 177.924,-108.104 178.255,-118.694 184.787,-116.176"/>
<g id="a_edge9&#45;headlabel"><a xlink:href="dir_000065_000064.html" target="_top" xlink:title="1">
<text text-anchor="middle" x="188.729" y="-116.009" font-family="Helvetica,sans-Serif" font-size="10.00">1</text>
</a>
</g>
</g>
<!-- dir_f6a0a87962fcbf90fc709c1bf5ba5a00&#45;&gt;dir_a2f0e5642e47e7ed59fe0f0829eafb5f -->
<g id="edge10" class="edge"><title>dir_f6a0a87962fcbf90fc709c1bf5ba5a00&#45;&gt;dir_a2f0e5642e47e7ed59fe0f0829eafb5f</title>
<path fill="none" stroke="black" d="M153.17,-30.4696C172.757,-39.6741 198.984,-54.0139 218,-72 245.763,-98.2591 254.103,-107.372 265,-144 270.977,-164.09 270.06,-187.873 267.876,-205.797"/>
<polygon fill="black" stroke="black" points="264.388,-205.464 266.444,-215.857 271.318,-206.45 264.388,-205.464"/>
<g id="a_edge10&#45;headlabel"><a xlink:href="dir_000078_000020.html" target="_top" xlink:title="4">
<text text-anchor="middle" x="262.083" y="-199.005" font-family="Helvetica,sans-Serif" font-size="10.00">4</text>
</a>
</g>
</g>
<!-- dir_6bc97c5ccce2964f7b25f8377ac95818&#45;&gt;dir_a2f0e5642e47e7ed59fe0f0829eafb5f -->
<g id="edge17" class="edge"><title>dir_6bc97c5ccce2964f7b25f8377ac95818&#45;&gt;dir_a2f0e5642e47e7ed59fe0f0829eafb5f</title>
<path fill="none" stroke="black" d="M356.331,-36.0652C352.731,-66.6953 342.238,-132.254 315,-180 308.973,-190.565 300.324,-200.542 291.805,-208.93"/>
<polygon fill="black" stroke="black" points="289.314,-206.468 284.421,-215.866 294.106,-211.57 289.314,-206.468"/>
<g id="a_edge17&#45;headlabel"><a xlink:href="dir_000083_000020.html" target="_top" xlink:title="12">
<text text-anchor="middle" x="289.989" y="-199.438" font-family="Helvetica,sans-Serif" font-size="10.00">12</text>
</a>
</g>
</g>
<!-- dir_d0f3276f03e9a9cb8f8ba3f2a5ea1262&#45;&gt;dir_652267079d823ee01f6c6cf98db9085b -->
<g id="edge18" class="edge"><title>dir_d0f3276f03e9a9cb8f8ba3f2a5ea1262&#45;&gt;dir_652267079d823ee01f6c6cf98db9085b</title>
<path fill="none" stroke="black" d="M182.197,-108.167C182.476,-118.533 181.452,-132.013 181,-144 179.234,-190.875 185.326,-245.233 187.251,-277.281"/>
<polygon fill="black" stroke="black" points="183.772,-277.813 187.738,-287.637 190.764,-277.484 183.772,-277.813"/>
<g id="a_edge18&#45;headlabel"><a xlink:href="dir_000064_000081.html" target="_top" xlink:title="6">
<text text-anchor="middle" x="180.767" y="-271.855" font-family="Helvetica,sans-Serif" font-size="10.00">6</text>
</a>
</g>
</g>
<!-- dir_d0f3276f03e9a9cb8f8ba3f2a5ea1262&#45;&gt;dir_a2f0e5642e47e7ed59fe0f0829eafb5f -->
<g id="edge19" class="edge"><title>dir_d0f3276f03e9a9cb8f8ba3f2a5ea1262&#45;&gt;dir_a2f0e5642e47e7ed59fe0f0829eafb5f</title>
<path fill="none" stroke="black" d="M206.499,-108.013C219.958,-117.023 234.784,-129.285 244,-144 255.637,-162.581 260.241,-187.168 262.017,-205.791"/>
<polygon fill="black" stroke="black" points="258.542,-206.26 262.768,-215.976 265.523,-205.746 258.542,-206.26"/>
<g id="a_edge19&#45;headlabel"><a xlink:href="dir_000064_000020.html" target="_top" xlink:title="15">
<text text-anchor="middle" x="255.446" y="-200.384" font-family="Helvetica,sans-Serif" font-size="10.00">15</text>
</a>
</g>
</g>
<!-- dir_d0f3276f03e9a9cb8f8ba3f2a5ea1262&#45;&gt;dir_7205f054df4e14abb60715afe3e7e90c -->
<g id="edge20" class="edge"><title>dir_d0f3276f03e9a9cb8f8ba3f2a5ea1262&#45;&gt;dir_7205f054df4e14abb60715afe3e7e90c</title>
<path fill="none" stroke="black" d="M189.714,-108.104C194.129,-115.96 198.701,-125.462 202.344,-134.232"/>
<polygon fill="black" stroke="black" points="199.134,-135.633 206.006,-143.697 205.662,-133.107 199.134,-135.633"/>
<g id="a_edge20&#45;headlabel"><a xlink:href="dir_000064_000065.html" target="_top" xlink:title="1">
<text text-anchor="middle" x="195.189" y="-130.805" font-family="Helvetica,sans-Serif" font-size="10.00">1</text>
</a>
</g>
</g>
<!-- dir_d0f3276f03e9a9cb8f8ba3f2a5ea1262&#45;&gt;dir_f6a0a87962fcbf90fc709c1bf5ba5a00 -->
<g id="edge21" class="edge"><title>dir_d0f3276f03e9a9cb8f8ba3f2a5ea1262&#45;&gt;dir_f6a0a87962fcbf90fc709c1bf5ba5a00</title>
<path fill="none" stroke="black" d="M163.64,-71.6966C157.767,-63.4741 150.631,-53.4832 144.158,-44.4207"/>
<polygon fill="black" stroke="black" points="146.878,-42.2073 138.217,-36.1043 141.182,-46.276 146.878,-42.2073"/>
<g id="a_edge21&#45;headlabel"><a xlink:href="dir_000064_000078.html" target="_top" xlink:title="2">
<text text-anchor="middle" x="151.278" y="-40.9821" font-family="Helvetica,sans-Serif" font-size="10.00">2</text>
</a>
</g>
</g>
<!-- dir_d0f3276f03e9a9cb8f8ba3f2a5ea1262&#45;&gt;dir_6bc97c5ccce2964f7b25f8377ac95818 -->
<g id="edge22" class="edge"><title>dir_d0f3276f03e9a9cb8f8ba3f2a5ea1262&#45;&gt;dir_6bc97c5ccce2964f7b25f8377ac95818</title>
<path fill="none" stroke="black" d="M209.382,-76.1609C235.772,-66.0106 273.146,-51.636 303.812,-39.8414"/>
<polygon fill="black" stroke="black" points="305.434,-42.9679 313.511,-36.1113 302.921,-36.4345 305.434,-42.9679"/>
<g id="a_edge22&#45;headlabel"><a xlink:href="dir_000064_000083.html" target="_top" xlink:title="4">
<text text-anchor="middle" x="303.098" y="-44.4082" font-family="Helvetica,sans-Serif" font-size="10.00">4</text>
</a>
</g>
</g>
</g>
</svg>
