<?xml version="1.0" encoding="UTF-8" standalone="no"?>
<!DOCTYPE svg PUBLIC "-//W3C//DTD SVG 1.1//EN"
 "http://www.w3.org/Graphics/SVG/1.1/DTD/svg11.dtd">
<!-- Generated by graphviz version 2.36.0 (20140111.2315)
 -->
<!-- Title: /home/travis/build/STORM&#45;IRIT/Radium&#45;Engine/src/IO Pages: 1 -->
<svg width="403pt" height="159pt"
 viewBox="0.00 0.00 403.00 159.00" xmlns="http://www.w3.org/2000/svg" xmlns:xlink="http://www.w3.org/1999/xlink">
<g id="graph0" class="graph" transform="scale(1 1) rotate(0) translate(4 155)">
<title>/home/travis/build/STORM&#45;IRIT/Radium&#45;Engine/src/IO</title>
<polygon fill="white" stroke="none" points="-4,4 -4,-155 399,-155 399,4 -4,4"/>
<g id="clust1" class="cluster"><title>clusterdir_68267d1309a1af8e8297ef4c3efbcdba</title>
<g id="a_clust1"><a xlink:href="dir_68267d1309a1af8e8297ef4c3efbcdba.html" target="_top" xlink:title="src">
<polygon fill="#ddddee" stroke="black" points="8,-56 8,-143 387,-143 387,-56 8,-56"/>
<text text-anchor="middle" x="197.5" y="-131" font-family="Helvetica,sans-Serif" font-size="10.00">src</text>
</a>
</g>
</g>
<g id="clust2" class="cluster"><title>clusterdir_fae119eb913a40fe8ed97cde8b98911e</title>
<g id="a_clust2"><a xlink:href="dir_fae119eb913a40fe8ed97cde8b98911e.html" target="_top">
<polygon fill="#eeeeff" stroke="black" points="16,-64 16,-116 379,-116 379,-64 16,-64"/>
</a>
</g>
</g>
<!-- dir_fae119eb913a40fe8ed97cde8b98911e -->
<g id="node1" class="node"><title>dir_fae119eb913a40fe8ed97cde8b98911e</title>
<text text-anchor="middle" x="344" y="-87.5" font-family="Helvetica,sans-Serif" font-size="10.00">IO</text>
</g>
<!-- dir_7788c5f37a81918c772c9185f759a19f -->
<g id="node2" class="node"><title>dir_7788c5f37a81918c772c9185f759a19f</title>
<g id="a_node2"><a xlink:href="dir_7788c5f37a81918c772c9185f759a19f.html" target="_top" xlink:title="AssimpLoader">
<polygon fill="white" stroke="black" points="298.25,-108 219.75,-108 219.75,-72 298.25,-72 298.25,-108"/>
<text text-anchor="middle" x="259" y="-87.5" font-family="Helvetica,sans-Serif" font-size="10.00">AssimpLoader</text>
</a>
</g>
</g>
<!-- dir_a2f0e5642e47e7ed59fe0f0829eafb5f -->
<g id="node5" class="node"><title>dir_a2f0e5642e47e7ed59fe0f0829eafb5f</title>
<g id="a_node5"><a xlink:href="dir_a2f0e5642e47e7ed59fe0f0829eafb5f.html" target="_top" xlink:title="Core">
<polygon fill="white" stroke="red" points="188,-36 134,-36 134,-0 188,-0 188,-36"/>
<text text-anchor="middle" x="161" y="-15.5" font-family="Helvetica,sans-Serif" font-size="10.00">Core</text>
</a>
</g>
</g>
<!-- dir_7788c5f37a81918c772c9185f759a19f&#45;&gt;dir_a2f0e5642e47e7ed59fe0f0829eafb5f -->
<g id="edge1" class="edge"><title>dir_7788c5f37a81918c772c9185f759a19f&#45;&gt;dir_a2f0e5642e47e7ed59fe0f0829eafb5f</title>
<path fill="none" stroke="black" d="M235.027,-71.8761C222.45,-62.8931 206.868,-51.7625 193.248,-42.0341"/>
<polygon fill="black" stroke="black" points="195.237,-39.1541 185.066,-36.1898 191.169,-44.8502 195.237,-39.1541"/>
<g id="a_edge1&#45;headlabel"><a xlink:href="dir_000095_000020.html" target="_top" xlink:title="28">
<text text-anchor="middle" x="199.813" y="-36.433" font-family="Helvetica,sans-Serif" font-size="10.00">28</text>
</a>
</g>
</g>
<!-- dir_67e32a227b28c0433b702e220b1d94de -->
<g id="node3" class="node"><title>dir_67e32a227b28c0433b702e220b1d94de</title>
<g id="a_node3"><a xlink:href="dir_67e32a227b28c0433b702e220b1d94de.html" target="_top" xlink:title="CameraLoader">
<polygon fill="white" stroke="black" points="201,-108 121,-108 121,-72 201,-72 201,-108"/>
<text text-anchor="middle" x="161" y="-87.5" font-family="Helvetica,sans-Serif" font-size="10.00">CameraLoader</text>
</a>
</g>
</g>
<!-- dir_67e32a227b28c0433b702e220b1d94de&#45;&gt;dir_a2f0e5642e47e7ed59fe0f0829eafb5f -->
<g id="edge3" class="edge"><title>dir_67e32a227b28c0433b702e220b1d94de&#45;&gt;dir_a2f0e5642e47e7ed59fe0f0829eafb5f</title>
<path fill="none" stroke="black" d="M161,-71.6966C161,-63.9827 161,-54.7125 161,-46.1124"/>
<polygon fill="black" stroke="black" points="164.5,-46.1043 161,-36.1043 157.5,-46.1044 164.5,-46.1043"/>
<g id="a_edge3&#45;headlabel"><a xlink:href="dir_000096_000020.html" target="_top" xlink:title="2">
<text text-anchor="middle" x="167.339" y="-47.199" font-family="Helvetica,sans-Serif" font-size="10.00">2</text>
</a>
</g>
</g>
<!-- dir_21c87f206f6872de3cc60b97917f3fdd -->
<g id="node4" class="node"><title>dir_21c87f206f6872de3cc60b97917f3fdd</title>
<g id="a_node4"><a xlink:href="dir_21c87f206f6872de3cc60b97917f3fdd.html" target="_top" xlink:title="TinyPlyLoader">
<polygon fill="white" stroke="black" points="102.25,-108 23.75,-108 23.75,-72 102.25,-72 102.25,-108"/>
<text text-anchor="middle" x="63" y="-87.5" font-family="Helvetica,sans-Serif" font-size="10.00">TinyPlyLoader</text>
</a>
</g>
</g>
<!-- dir_21c87f206f6872de3cc60b97917f3fdd&#45;&gt;dir_a2f0e5642e47e7ed59fe0f0829eafb5f -->
<g id="edge2" class="edge"><title>dir_21c87f206f6872de3cc60b97917f3fdd&#45;&gt;dir_a2f0e5642e47e7ed59fe0f0829eafb5f</title>
<path fill="none" stroke="black" d="M86.9735,-71.8761C99.5497,-62.8931 115.132,-51.7625 128.752,-42.0341"/>
<polygon fill="black" stroke="black" points="130.831,-44.8502 136.934,-36.1898 126.763,-39.1541 130.831,-44.8502"/>
<g id="a_edge2&#45;headlabel"><a xlink:href="dir_000097_000020.html" target="_top" xlink:title="2">
<text text-anchor="middle" x="129.557" y="-46.7499" font-family="Helvetica,sans-Serif" font-size="10.00">2</text>
</a>
</g>
</g>
</g>
</svg>
