<?xml version="1.0" encoding="UTF-8" standalone="no"?>
<!DOCTYPE svg PUBLIC "-//W3C//DTD SVG 1.1//EN"
 "http://www.w3.org/Graphics/SVG/1.1/DTD/svg11.dtd">
<!-- Generated by graphviz version 2.36.0 (20140111.2315)
 -->
<!-- Title: /home/travis/build/STORM&#45;IRIT/Radium&#45;Engine/src/Engine/System Pages: 1 -->
<svg width="211pt" height="332pt"
 viewBox="0.00 0.00 210.88 332.00" xmlns="http://www.w3.org/2000/svg" xmlns:xlink="http://www.w3.org/1999/xlink">
<g id="graph0" class="graph" transform="scale(1 1) rotate(0) translate(4 328)">
<title>/home/travis/build/STORM&#45;IRIT/Radium&#45;Engine/src/Engine/System</title>
<polygon fill="white" stroke="none" points="-4,4 -4,-328 206.882,-328 206.882,4 -4,4"/>
<g id="clust1" class="cluster"><title>clusterdir_3072bc1f55ed1280fe4fbe6b21c78379</title>
<g id="a_clust1"><a xlink:href="dir_3072bc1f55ed1280fe4fbe6b21c78379.html" target="_top" xlink:title="Engine">
<polygon fill="#ddddee" stroke="black" points="24.0573,-208 24.0573,-279 94.0573,-279 94.0573,-208 24.0573,-208"/>
<text text-anchor="middle" x="59.0573" y="-267" font-family="Helvetica,sans-Serif" font-size="10.00">Engine</text>
</a>
</g>
</g>
<!-- dir_eecdbbfa89a6d9af25d920c499e6f44e -->
<g id="node1" class="node"><title>dir_eecdbbfa89a6d9af25d920c499e6f44e</title>
<g id="a_node1"><a xlink:href="dir_eecdbbfa89a6d9af25d920c499e6f44e.html" target="_top" xlink:title="System">
<polygon fill="#eeeeff" stroke="black" points="86.0573,-252 32.0573,-252 32.0573,-216 86.0573,-216 86.0573,-252"/>
<text text-anchor="middle" x="59.0573" y="-231.5" font-family="Helvetica,sans-Serif" font-size="10.00">System</text>
</a>
</g>
</g>
<!-- dir_a2f0e5642e47e7ed59fe0f0829eafb5f -->
<g id="node2" class="node"><title>dir_a2f0e5642e47e7ed59fe0f0829eafb5f</title>
<g id="a_node2"><a xlink:href="dir_a2f0e5642e47e7ed59fe0f0829eafb5f.html" target="_top" xlink:title="Core">
<polygon fill="white" stroke="red" points="86.0573,-324 32.0573,-324 32.0573,-288 86.0573,-288 86.0573,-324"/>
<text text-anchor="middle" x="59.0573" y="-303.5" font-family="Helvetica,sans-Serif" font-size="10.00">Core</text>
</a>
</g>
</g>
<!-- dir_eecdbbfa89a6d9af25d920c499e6f44e&#45;&gt;dir_a2f0e5642e47e7ed59fe0f0829eafb5f -->
<g id="edge7" class="edge"><title>dir_eecdbbfa89a6d9af25d920c499e6f44e&#45;&gt;dir_a2f0e5642e47e7ed59fe0f0829eafb5f</title>
<path fill="none" stroke="black" d="M59.0573,-252.104C59.0573,-259.791 59.0573,-269.054 59.0573,-277.665"/>
<polygon fill="black" stroke="black" points="55.5574,-277.697 59.0573,-287.697 62.5574,-277.697 55.5574,-277.697"/>
<g id="a_edge7&#45;headlabel"><a xlink:href="dir_000085_000020.html" target="_top" xlink:title="6">
<text text-anchor="middle" x="52.718" y="-271.602" font-family="Helvetica,sans-Serif" font-size="10.00">6</text>
</a>
</g>
</g>
<!-- dir_7205f054df4e14abb60715afe3e7e90c -->
<g id="node3" class="node"><title>dir_7205f054df4e14abb60715afe3e7e90c</title>
<g id="a_node3"><a xlink:href="dir_7205f054df4e14abb60715afe3e7e90c.html" target="_top" xlink:title="Entity">
<polygon fill="none" stroke="black" points="196.057,-252 142.057,-252 142.057,-216 196.057,-216 196.057,-252"/>
<text text-anchor="middle" x="169.057" y="-231.5" font-family="Helvetica,sans-Serif" font-size="10.00">Entity</text>
</a>
</g>
</g>
<!-- dir_eecdbbfa89a6d9af25d920c499e6f44e&#45;&gt;dir_7205f054df4e14abb60715afe3e7e90c -->
<g id="edge8" class="edge"><title>dir_eecdbbfa89a6d9af25d920c499e6f44e&#45;&gt;dir_7205f054df4e14abb60715afe3e7e90c</title>
<path fill="none" stroke="black" d="M86.1276,-234C101.363,-234 116.599,-234 131.834,-234"/>
<polygon fill="black" stroke="black" points="131.846,-237.5 141.846,-234 131.846,-230.5 131.846,-237.5"/>
<g id="a_edge8&#45;headlabel"><a xlink:href="dir_000085_000065.html" target="_top" xlink:title="2">
<text text-anchor="middle" x="128.251" y="-237.839" font-family="Helvetica,sans-Serif" font-size="10.00">2</text>
</a>
</g>
</g>
<!-- dir_06113b60808b1bbb52a01dfd2c3a8657 -->
<g id="node4" class="node"><title>dir_06113b60808b1bbb52a01dfd2c3a8657</title>
<g id="a_node4"><a xlink:href="dir_06113b60808b1bbb52a01dfd2c3a8657.html" target="_top" xlink:title="Managers">
<polygon fill="white" stroke="red" points="149.307,-36 90.8073,-36 90.8073,-0 149.307,-0 149.307,-36"/>
<text text-anchor="middle" x="120.057" y="-15.5" font-family="Helvetica,sans-Serif" font-size="10.00">Managers</text>
</a>
</g>
</g>
<!-- dir_eecdbbfa89a6d9af25d920c499e6f44e&#45;&gt;dir_06113b60808b1bbb52a01dfd2c3a8657 -->
<g id="edge9" class="edge"><title>dir_eecdbbfa89a6d9af25d920c499e6f44e&#45;&gt;dir_06113b60808b1bbb52a01dfd2c3a8657</title>
<path fill="none" stroke="black" d="M53.0491,-215.925C43.3437,-185.279 27.5512,-119.695 51.0573,-72 57.7849,-58.3493 69.9042,-47.2343 82.1294,-38.7734"/>
<polygon fill="black" stroke="black" points="84.0413,-41.7051 90.5449,-33.3413 80.245,-35.8239 84.0413,-41.7051"/>
<g id="a_edge9&#45;headlabel"><a xlink:href="dir_000085_000067.html" target="_top" xlink:title="1">
<text text-anchor="middle" x="82.5609" y="-43.54" font-family="Helvetica,sans-Serif" font-size="10.00">1</text>
</a>
</g>
</g>
<!-- dir_54018506bb725509c19b38b6d9bcf0f6 -->
<g id="node5" class="node"><title>dir_54018506bb725509c19b38b6d9bcf0f6</title>
<g id="a_node5"><a xlink:href="dir_54018506bb725509c19b38b6d9bcf0f6.html" target="_top" xlink:title="Renderer">
<polygon fill="white" stroke="red" points="115.557,-108 60.5573,-108 60.5573,-72 115.557,-72 115.557,-108"/>
<text text-anchor="middle" x="88.0573" y="-87.5" font-family="Helvetica,sans-Serif" font-size="10.00">Renderer</text>
</a>
</g>
</g>
<!-- dir_eecdbbfa89a6d9af25d920c499e6f44e&#45;&gt;dir_54018506bb725509c19b38b6d9bcf0f6 -->
<g id="edge10" class="edge"><title>dir_eecdbbfa89a6d9af25d920c499e6f44e&#45;&gt;dir_54018506bb725509c19b38b6d9bcf0f6</title>
<path fill="none" stroke="black" d="M62.5554,-215.871C67.5197,-191.564 76.6577,-146.819 82.5405,-118.013"/>
<polygon fill="black" stroke="black" points="85.975,-118.687 84.5468,-108.189 79.1166,-117.287 85.975,-118.687"/>
<g id="a_edge10&#45;headlabel"><a xlink:href="dir_000085_000074.html" target="_top" xlink:title="1">
<text text-anchor="middle" x="88.0377" y="-120.277" font-family="Helvetica,sans-Serif" font-size="10.00">1</text>
</a>
</g>
</g>
<!-- dir_d0f3276f03e9a9cb8f8ba3f2a5ea1262 -->
<g id="node6" class="node"><title>dir_d0f3276f03e9a9cb8f8ba3f2a5ea1262</title>
<g id="a_node6"><a xlink:href="dir_d0f3276f03e9a9cb8f8ba3f2a5ea1262.html" target="_top" xlink:title="Component">
<polygon fill="none" stroke="black" points="165.307,-180 98.8073,-180 98.8073,-144 165.307,-144 165.307,-180"/>
<text text-anchor="middle" x="132.057" y="-159.5" font-family="Helvetica,sans-Serif" font-size="10.00">Component</text>
</a>
</g>
</g>
<!-- dir_eecdbbfa89a6d9af25d920c499e6f44e&#45;&gt;dir_d0f3276f03e9a9cb8f8ba3f2a5ea1262 -->
<g id="edge11" class="edge"><title>dir_eecdbbfa89a6d9af25d920c499e6f44e&#45;&gt;dir_d0f3276f03e9a9cb8f8ba3f2a5ea1262</title>
<path fill="none" stroke="black" d="M71.1865,-215.697C79.3116,-207.05 90.1908,-196.449 100.554,-187.027"/>
<polygon fill="black" stroke="black" points="103.186,-189.37 108.325,-180.104 98.53,-184.143 103.186,-189.37"/>
<g id="a_edge11&#45;headlabel"><a xlink:href="dir_000085_000064.html" target="_top" xlink:title="2">
<text text-anchor="middle" x="102.391" y="-191.381" font-family="Helvetica,sans-Serif" font-size="10.00">2</text>
</a>
</g>
</g>
<!-- dir_a2f0e5642e47e7ed59fe0f0829eafb5f&#45;&gt;dir_7205f054df4e14abb60715afe3e7e90c -->
<g id="edge1" class="edge"><title>dir_a2f0e5642e47e7ed59fe0f0829eafb5f&#45;&gt;dir_7205f054df4e14abb60715afe3e7e90c</title>
<path fill="none" stroke="black" d="M86.0769,-295.119C96.8491,-291.098 108.955,-285.771 119.057,-279 126.955,-273.706 134.422,-266.611 141.17,-259.666"/>
<polygon fill="black" stroke="black" points="143.84,-261.938 148.197,-252.281 138.768,-257.113 143.84,-261.938"/>
<g id="a_edge1&#45;headlabel"><a xlink:href="dir_000020_000065.html" target="_top" xlink:title="1">
<text text-anchor="middle" x="143.419" y="-263.999" font-family="Helvetica,sans-Serif" font-size="10.00">1</text>
</a>
</g>
</g>
<!-- dir_a2f0e5642e47e7ed59fe0f0829eafb5f&#45;&gt;dir_54018506bb725509c19b38b6d9bcf0f6 -->
<g id="edge2" class="edge"><title>dir_a2f0e5642e47e7ed59fe0f0829eafb5f&#45;&gt;dir_54018506bb725509c19b38b6d9bcf0f6</title>
<path fill="none" stroke="black" d="M31.7559,-297.203C23.3602,-293.017 15.3578,-287.036 11.0573,-279 -3.83244,-251.178 2.84624,-238.469 11.0573,-208 20.3678,-173.452 42.6669,-138.601 61.1002,-116.036"/>
<polygon fill="black" stroke="black" points="63.8677,-118.184 67.6854,-108.301 58.5378,-113.646 63.8677,-118.184"/>
<g id="a_edge2&#45;headlabel"><a xlink:href="dir_000020_000074.html" target="_top" xlink:title="1">
<text text-anchor="middle" x="63.6994" y="-120.262" font-family="Helvetica,sans-Serif" font-size="10.00">1</text>
</a>
</g>
</g>
<!-- dir_7205f054df4e14abb60715afe3e7e90c&#45;&gt;dir_eecdbbfa89a6d9af25d920c499e6f44e -->
<g id="edge4" class="edge"><title>dir_7205f054df4e14abb60715afe3e7e90c&#45;&gt;dir_eecdbbfa89a6d9af25d920c499e6f44e</title>
<path fill="none" stroke="black" d="M141.846,-234C126.611,-234 111.375,-234 96.1395,-234"/>
<polygon fill="black" stroke="black" points="96.1276,-230.5 86.1276,-234 96.1276,-237.5 96.1276,-230.5"/>
<g id="a_edge4&#45;headlabel"><a xlink:href="dir_000065_000085.html" target="_top" xlink:title="1">
<text text-anchor="middle" x="99.7222" y="-225.161" font-family="Helvetica,sans-Serif" font-size="10.00">1</text>
</a>
</g>
</g>
<!-- dir_7205f054df4e14abb60715afe3e7e90c&#45;&gt;dir_a2f0e5642e47e7ed59fe0f0829eafb5f -->
<g id="edge3" class="edge"><title>dir_7205f054df4e14abb60715afe3e7e90c&#45;&gt;dir_a2f0e5642e47e7ed59fe0f0829eafb5f</title>
<path fill="none" stroke="black" d="M164.152,-252.281C157.767,-261.243 147.812,-271.791 137.057,-279 124.821,-287.202 109.644,-293.284 95.8249,-297.494"/>
<polygon fill="black" stroke="black" points="94.7466,-294.161 86.0638,-300.232 96.6375,-300.901 94.7466,-294.161"/>
<g id="a_edge3&#45;headlabel"><a xlink:href="dir_000065_000020.html" target="_top" xlink:title="4">
<text text-anchor="middle" x="97.4406" y="-287.957" font-family="Helvetica,sans-Serif" font-size="10.00">4</text>
</a>
</g>
</g>
<!-- dir_7205f054df4e14abb60715afe3e7e90c&#45;&gt;dir_06113b60808b1bbb52a01dfd2c3a8657 -->
<g id="edge5" class="edge"><title>dir_7205f054df4e14abb60715afe3e7e90c&#45;&gt;dir_06113b60808b1bbb52a01dfd2c3a8657</title>
<path fill="none" stroke="black" d="M170.313,-215.88C174.065,-205.756 179.565,-192.506 182.057,-180 185.185,-164.309 186.144,-159.469 182.057,-144 172.222,-106.77 148.452,-69.0119 133.087,-44.8854"/>
<polygon fill="black" stroke="black" points="135.972,-42.9002 127.656,-36.3357 130.064,-46.6534 135.972,-42.9002"/>
<g id="a_edge5&#45;headlabel"><a xlink:href="dir_000065_000067.html" target="_top" xlink:title="1">
<text text-anchor="middle" x="140.296" y="-41.9121" font-family="Helvetica,sans-Serif" font-size="10.00">1</text>
</a>
</g>
</g>
<!-- dir_7205f054df4e14abb60715afe3e7e90c&#45;&gt;dir_d0f3276f03e9a9cb8f8ba3f2a5ea1262 -->
<g id="edge6" class="edge"><title>dir_7205f054df4e14abb60715afe3e7e90c&#45;&gt;dir_d0f3276f03e9a9cb8f8ba3f2a5ea1262</title>
<path fill="none" stroke="black" d="M153.996,-215.697C148.962,-207.728 143.658,-198.1 139.38,-189.264"/>
<polygon fill="black" stroke="black" points="142.537,-187.751 135.203,-180.104 136.168,-190.655 142.537,-187.751"/>
<g id="a_edge6&#45;headlabel"><a xlink:href="dir_000065_000064.html" target="_top" xlink:title="1">
<text text-anchor="middle" x="146.612" y="-187.343" font-family="Helvetica,sans-Serif" font-size="10.00">1</text>
</a>
</g>
</g>
<!-- dir_06113b60808b1bbb52a01dfd2c3a8657&#45;&gt;dir_a2f0e5642e47e7ed59fe0f0829eafb5f -->
<g id="edge12" class="edge"><title>dir_06113b60808b1bbb52a01dfd2c3a8657&#45;&gt;dir_a2f0e5642e47e7ed59fe0f0829eafb5f</title>
<path fill="none" stroke="black" d="M90.7729,-30.6164C72.5718,-39.3314 50.2095,-53.033 37.0573,-72 30.4202,-81.5715 -18.4339,-235.76 8.0573,-279 11.6502,-284.865 17.0275,-289.458 22.9618,-293.04"/>
<polygon fill="black" stroke="black" points="21.412,-296.178 31.912,-297.593 24.5861,-289.939 21.412,-296.178"/>
<g id="a_edge12&#45;headlabel"><a xlink:href="dir_000067_000020.html" target="_top" xlink:title="16">
<text text-anchor="middle" x="16.9208" y="-294.579" font-family="Helvetica,sans-Serif" font-size="10.00">16</text>
</a>
</g>
</g>
<!-- dir_06113b60808b1bbb52a01dfd2c3a8657&#45;&gt;dir_7205f054df4e14abb60715afe3e7e90c -->
<g id="edge13" class="edge"><title>dir_06113b60808b1bbb52a01dfd2c3a8657&#45;&gt;dir_7205f054df4e14abb60715afe3e7e90c</title>
<path fill="none" stroke="black" d="M140.004,-36.3357C160.151,-59.3558 188.965,-102.014 200.057,-144 204.144,-159.469 203.185,-164.309 200.057,-180 198.246,-189.087 194.848,-198.566 190.823,-206.953"/>
<polygon fill="black" stroke="black" points="187.679,-205.409 186.063,-215.88 193.856,-208.702 187.679,-205.409"/>
<g id="a_edge13&#45;headlabel"><a xlink:href="dir_000067_000065.html" target="_top" xlink:title="3">
<text text-anchor="middle" x="186.865" y="-198.401" font-family="Helvetica,sans-Serif" font-size="10.00">3</text>
</a>
</g>
</g>
<!-- dir_06113b60808b1bbb52a01dfd2c3a8657&#45;&gt;dir_54018506bb725509c19b38b6d9bcf0f6 -->
<g id="edge14" class="edge"><title>dir_06113b60808b1bbb52a01dfd2c3a8657&#45;&gt;dir_54018506bb725509c19b38b6d9bcf0f6</title>
<path fill="none" stroke="black" d="M118.133,-36.1043C115.306,-44.1291 111.073,-53.871 106.593,-62.7967"/>
<polygon fill="black" stroke="black" points="103.467,-61.2208 101.883,-71.6966 109.654,-64.4949 103.467,-61.2208"/>
<g id="a_edge14&#45;headlabel"><a xlink:href="dir_000067_000074.html" target="_top" xlink:title="19">
<text text-anchor="middle" x="102.639" y="-54.2157" font-family="Helvetica,sans-Serif" font-size="10.00">19</text>
</a>
</g>
</g>
<!-- dir_06113b60808b1bbb52a01dfd2c3a8657&#45;&gt;dir_d0f3276f03e9a9cb8f8ba3f2a5ea1262 -->
<g id="edge15" class="edge"><title>dir_06113b60808b1bbb52a01dfd2c3a8657&#45;&gt;dir_d0f3276f03e9a9cb8f8ba3f2a5ea1262</title>
<path fill="none" stroke="black" d="M126.101,-36.1893C130.703,-60.4244 134.749,-104.888 135.203,-133.679"/>
<polygon fill="black" stroke="black" points="131.702,-133.869 135.194,-143.871 138.702,-133.874 131.702,-133.869"/>
<g id="a_edge15&#45;headlabel"><a xlink:href="dir_000067_000064.html" target="_top" xlink:title="2">
<text text-anchor="middle" x="128.866" y="-127.772" font-family="Helvetica,sans-Serif" font-size="10.00">2</text>
</a>
</g>
</g>
<!-- dir_54018506bb725509c19b38b6d9bcf0f6&#45;&gt;dir_a2f0e5642e47e7ed59fe0f0829eafb5f -->
<g id="edge16" class="edge"><title>dir_54018506bb725509c19b38b6d9bcf0f6&#45;&gt;dir_a2f0e5642e47e7ed59fe0f0829eafb5f</title>
<path fill="none" stroke="black" d="M80.3207,-108.301C66.3397,-130.037 39.5112,-169.209 29.0573,-208 20.8462,-238.469 14.1676,-251.178 29.0573,-279 29.2229,-279.309 29.394,-279.616 29.5703,-279.919"/>
<polygon fill="black" stroke="black" points="26.9342,-282.228 35.8959,-287.879 32.4146,-277.873 26.9342,-282.228"/>
<g id="a_edge16&#45;headlabel"><a xlink:href="dir_000074_000020.html" target="_top" xlink:title="52">
<text text-anchor="middle" x="22.475" y="-278.68" font-family="Helvetica,sans-Serif" font-size="10.00">52</text>
</a>
</g>
</g>
<!-- dir_54018506bb725509c19b38b6d9bcf0f6&#45;&gt;dir_7205f054df4e14abb60715afe3e7e90c -->
<g id="edge17" class="edge"><title>dir_54018506bb725509c19b38b6d9bcf0f6&#45;&gt;dir_7205f054df4e14abb60715afe3e7e90c</title>
<path fill="none" stroke="black" d="M115.967,-99.8954C136.073,-107.936 161.745,-121.95 174.057,-144 184.512,-162.724 182.184,-187.255 177.847,-205.821"/>
<polygon fill="black" stroke="black" points="174.405,-205.146 175.223,-215.709 181.171,-206.942 174.405,-205.146"/>
<g id="a_edge17&#45;headlabel"><a xlink:href="dir_000074_000065.html" target="_top" xlink:title="3">
<text text-anchor="middle" x="172.583" y="-198.443" font-family="Helvetica,sans-Serif" font-size="10.00">3</text>
</a>
</g>
</g>
<!-- dir_54018506bb725509c19b38b6d9bcf0f6&#45;&gt;dir_06113b60808b1bbb52a01dfd2c3a8657 -->
<g id="edge18" class="edge"><title>dir_54018506bb725509c19b38b6d9bcf0f6&#45;&gt;dir_06113b60808b1bbb52a01dfd2c3a8657</title>
<path fill="none" stroke="black" d="M90.0517,-71.6966C92.9024,-63.6436 97.1488,-53.8945 101.633,-44.9824"/>
<polygon fill="black" stroke="black" points="104.748,-46.5784 106.343,-36.1043 98.5645,-43.2977 104.748,-46.5784"/>
<g id="a_edge18&#45;headlabel"><a xlink:href="dir_000074_000067.html" target="_top" xlink:title="6">
<text text-anchor="middle" x="105.572" y="-48.5845" font-family="Helvetica,sans-Serif" font-size="10.00">6</text>
</a>
</g>
</g>
<!-- dir_54018506bb725509c19b38b6d9bcf0f6&#45;&gt;dir_d0f3276f03e9a9cb8f8ba3f2a5ea1262 -->
<g id="edge19" class="edge"><title>dir_54018506bb725509c19b38b6d9bcf0f6&#45;&gt;dir_d0f3276f03e9a9cb8f8ba3f2a5ea1262</title>
<path fill="none" stroke="black" d="M104.704,-108.104C110.589,-116.129 116.933,-125.871 122.144,-134.797"/>
<polygon fill="black" stroke="black" points="119.175,-136.661 127.097,-143.697 125.292,-133.257 119.175,-136.661"/>
<g id="a_edge19&#45;headlabel"><a xlink:href="dir_000074_000064.html" target="_top" xlink:title="4">
<text text-anchor="middle" x="114.946" y="-132.401" font-family="Helvetica,sans-Serif" font-size="10.00">4</text>
</a>
</g>
</g>
<!-- dir_d0f3276f03e9a9cb8f8ba3f2a5ea1262&#45;&gt;dir_eecdbbfa89a6d9af25d920c499e6f44e -->
<g id="edge22" class="edge"><title>dir_d0f3276f03e9a9cb8f8ba3f2a5ea1262&#45;&gt;dir_eecdbbfa89a6d9af25d920c499e6f44e</title>
<path fill="none" stroke="black" d="M120.115,-180.104C111.953,-188.805 100.957,-199.524 90.4943,-209.033"/>
<polygon fill="black" stroke="black" points="88.1542,-206.43 83.018,-215.697 92.8119,-211.656 88.1542,-206.43"/>
<g id="a_edge22&#45;headlabel"><a xlink:href="dir_000064_000085.html" target="_top" xlink:title="1">
<text text-anchor="middle" x="88.9484" y="-199.419" font-family="Helvetica,sans-Serif" font-size="10.00">1</text>
</a>
</g>
</g>
<!-- dir_d0f3276f03e9a9cb8f8ba3f2a5ea1262&#45;&gt;dir_a2f0e5642e47e7ed59fe0f0829eafb5f -->
<g id="edge20" class="edge"><title>dir_d0f3276f03e9a9cb8f8ba3f2a5ea1262&#45;&gt;dir_a2f0e5642e47e7ed59fe0f0829eafb5f</title>
<path fill="none" stroke="black" d="M130.674,-180.362C127.979,-204.578 120.184,-248.903 98.0573,-279 96.8643,-280.623 95.5375,-282.175 94.1138,-283.654"/>
<polygon fill="black" stroke="black" points="91.5775,-281.223 86.3601,-290.444 96.1891,-286.489 91.5775,-281.223"/>
<g id="a_edge20&#45;headlabel"><a xlink:href="dir_000064_000020.html" target="_top" xlink:title="15">
<text text-anchor="middle" x="92.4113" y="-274.219" font-family="Helvetica,sans-Serif" font-size="10.00">15</text>
</a>
</g>
</g>
<!-- dir_d0f3276f03e9a9cb8f8ba3f2a5ea1262&#45;&gt;dir_7205f054df4e14abb60715afe3e7e90c -->
<g id="edge21" class="edge"><title>dir_d0f3276f03e9a9cb8f8ba3f2a5ea1262&#45;&gt;dir_7205f054df4e14abb60715afe3e7e90c</title>
<path fill="none" stroke="black" d="M146.993,-180.104C152.022,-188.045 157.333,-197.666 161.627,-206.515"/>
<polygon fill="black" stroke="black" points="158.485,-208.059 165.827,-215.697 164.85,-205.147 158.485,-208.059"/>
<g id="a_edge21&#45;headlabel"><a xlink:href="dir_000064_000065.html" target="_top" xlink:title="1">
<text text-anchor="middle" x="154.407" y="-203.471" font-family="Helvetica,sans-Serif" font-size="10.00">1</text>
</a>
</g>
</g>
<!-- dir_d0f3276f03e9a9cb8f8ba3f2a5ea1262&#45;&gt;dir_06113b60808b1bbb52a01dfd2c3a8657 -->
<g id="edge23" class="edge"><title>dir_d0f3276f03e9a9cb8f8ba3f2a5ea1262&#45;&gt;dir_06113b60808b1bbb52a01dfd2c3a8657</title>
<path fill="none" stroke="black" d="M126.025,-143.871C121.422,-119.67 117.373,-75.2108 116.913,-46.3932"/>
<polygon fill="black" stroke="black" points="120.413,-46.1913 116.919,-36.1893 113.413,-46.1872 120.413,-46.1913"/>
<g id="a_edge23&#45;headlabel"><a xlink:href="dir_000064_000067.html" target="_top" xlink:title="2">
<text text-anchor="middle" x="123.251" y="-47.2875" font-family="Helvetica,sans-Serif" font-size="10.00">2</text>
</a>
</g>
</g>
<!-- dir_d0f3276f03e9a9cb8f8ba3f2a5ea1262&#45;&gt;dir_54018506bb725509c19b38b6d9bcf0f6 -->
<g id="edge24" class="edge"><title>dir_d0f3276f03e9a9cb8f8ba3f2a5ea1262&#45;&gt;dir_54018506bb725509c19b38b6d9bcf0f6</title>
<path fill="none" stroke="black" d="M115.265,-143.697C109.373,-135.644 103.034,-125.894 97.8423,-116.982"/>
<polygon fill="black" stroke="black" points="100.827,-115.149 92.9136,-108.104 94.7073,-118.546 100.827,-115.149"/>
<g id="a_edge24&#45;headlabel"><a xlink:href="dir_000064_000074.html" target="_top" xlink:title="15">
<text text-anchor="middle" x="105.055" y="-114.413" font-family="Helvetica,sans-Serif" font-size="10.00">15</text>
</a>
</g>
</g>
</g>
</svg>
