<?xml version="1.0" encoding="UTF-8" standalone="no"?>
<!DOCTYPE svg PUBLIC "-//W3C//DTD SVG 1.1//EN"
 "http://www.w3.org/Graphics/SVG/1.1/DTD/svg11.dtd">
<!-- Generated by graphviz version 2.36.0 (20140111.2315)
 -->
<!-- Title: /home/travis/build/STORM&#45;IRIT/Radium&#45;Engine/src/Engine/Renderer Pages: 1 -->
<svg width="748pt" height="496pt"
 viewBox="0.00 0.00 747.76 496.29" xmlns="http://www.w3.org/2000/svg" xmlns:xlink="http://www.w3.org/1999/xlink">
<g id="graph0" class="graph" transform="scale(1 1) rotate(0) translate(4 492.288)">
<title>/home/travis/build/STORM&#45;IRIT/Radium&#45;Engine/src/Engine/Renderer</title>
<polygon fill="white" stroke="none" points="-4,4 -4,-492.288 743.755,-492.288 743.755,4 -4,4"/>
<g id="clust1" class="cluster"><title>clusterdir_3072bc1f55ed1280fe4fbe6b21c78379</title>
<g id="a_clust1"><a xlink:href="dir_3072bc1f55ed1280fe4fbe6b21c78379.html" target="_top" xlink:title="Engine">
<polygon fill="#ddddee" stroke="black" points="8,-8 8,-455 330,-455 330,-8 8,-8"/>
<text text-anchor="middle" x="169" y="-443" font-family="Helvetica,sans-Serif" font-size="10.00">Engine</text>
</a>
</g>
</g>
<g id="clust2" class="cluster"><title>clusterdir_54018506bb725509c19b38b6d9bcf0f6</title>
<g id="a_clust2"><a xlink:href="dir_54018506bb725509c19b38b6d9bcf0f6.html" target="_top">
<polygon fill="#eeeeff" stroke="black" points="16,-16 16,-428 322,-428 322,-16 16,-16"/>
</a>
</g>
</g>
<!-- dir_54018506bb725509c19b38b6d9bcf0f6 -->
<g id="node1" class="node"><title>dir_54018506bb725509c19b38b6d9bcf0f6</title>
<text text-anchor="middle" x="286" y="-399.5" font-family="Helvetica,sans-Serif" font-size="10.00">Renderer</text>
</g>
<!-- dir_35f904a890c1431d13964486334c23a9 -->
<g id="node2" class="node"><title>dir_35f904a890c1431d13964486334c23a9</title>
<g id="a_node2"><a xlink:href="dir_35f904a890c1431d13964486334c23a9.html" target="_top" xlink:title="Camera">
<polygon fill="white" stroke="black" points="240,-420 186,-420 186,-384 240,-384 240,-420"/>
<text text-anchor="middle" x="213" y="-399.5" font-family="Helvetica,sans-Serif" font-size="10.00">Camera</text>
</a>
</g>
</g>
<!-- dir_f6a0a87962fcbf90fc709c1bf5ba5a00 -->
<g id="node5" class="node"><title>dir_f6a0a87962fcbf90fc709c1bf5ba5a00</title>
<g id="a_node5"><a xlink:href="dir_f6a0a87962fcbf90fc709c1bf5ba5a00.html" target="_top" xlink:title="Mesh">
<polygon fill="white" stroke="black" points="138,-276 84,-276 84,-240 138,-240 138,-276"/>
<text text-anchor="middle" x="111" y="-255.5" font-family="Helvetica,sans-Serif" font-size="10.00">Mesh</text>
</a>
</g>
</g>
<!-- dir_35f904a890c1431d13964486334c23a9&#45;&gt;dir_f6a0a87962fcbf90fc709c1bf5ba5a00 -->
<g id="edge33" class="edge"><title>dir_35f904a890c1431d13964486334c23a9&#45;&gt;dir_f6a0a87962fcbf90fc709c1bf5ba5a00</title>
<path fill="none" stroke="black" d="M185.769,-387.111C159.811,-373.616 124.079,-354.27 120,-348 108.193,-329.852 106.576,-305.075 107.553,-286.271"/>
<polygon fill="black" stroke="black" points="111.046,-286.497 108.342,-276.253 104.068,-285.948 111.046,-286.497"/>
<g id="a_edge33&#45;headlabel"><a xlink:href="dir_000075_000078.html" target="_top" xlink:title="1">
<text text-anchor="middle" x="113.594" y="-287.804" font-family="Helvetica,sans-Serif" font-size="10.00">1</text>
</a>
</g>
</g>
<!-- dir_652267079d823ee01f6c6cf98db9085b -->
<g id="node8" class="node"><title>dir_652267079d823ee01f6c6cf98db9085b</title>
<g id="a_node8"><a xlink:href="dir_652267079d823ee01f6c6cf98db9085b.html" target="_top" xlink:title="RenderObject">
<polygon fill="white" stroke="red" points="241.25,-348 164.75,-348 164.75,-312 241.25,-312 241.25,-348"/>
<text text-anchor="middle" x="203" y="-327.5" font-family="Helvetica,sans-Serif" font-size="10.00">RenderObject</text>
</a>
</g>
</g>
<!-- dir_35f904a890c1431d13964486334c23a9&#45;&gt;dir_652267079d823ee01f6c6cf98db9085b -->
<g id="edge30" class="edge"><title>dir_35f904a890c1431d13964486334c23a9&#45;&gt;dir_652267079d823ee01f6c6cf98db9085b</title>
<path fill="none" stroke="black" d="M210.528,-383.697C209.426,-375.983 208.102,-366.712 206.873,-358.112"/>
<polygon fill="black" stroke="black" points="210.323,-357.509 205.443,-348.104 203.393,-358.499 210.323,-357.509"/>
<g id="a_edge30&#45;headlabel"><a xlink:href="dir_000075_000081.html" target="_top" xlink:title="1">
<text text-anchor="middle" x="213.642" y="-358.166" font-family="Helvetica,sans-Serif" font-size="10.00">1</text>
</a>
</g>
</g>
<!-- dir_6bc97c5ccce2964f7b25f8377ac95818 -->
<g id="node9" class="node"><title>dir_6bc97c5ccce2964f7b25f8377ac95818</title>
<g id="a_node9"><a xlink:href="dir_6bc97c5ccce2964f7b25f8377ac95818.html" target="_top" xlink:title="RenderTechnique">
<polygon fill="white" stroke="black" points="272.25,-204 179.75,-204 179.75,-168 272.25,-168 272.25,-204"/>
<text text-anchor="middle" x="226" y="-183.5" font-family="Helvetica,sans-Serif" font-size="10.00">RenderTechnique</text>
</a>
</g>
</g>
<!-- dir_35f904a890c1431d13964486334c23a9&#45;&gt;dir_6bc97c5ccce2964f7b25f8377ac95818 -->
<g id="edge34" class="edge"><title>dir_35f904a890c1431d13964486334c23a9&#45;&gt;dir_6bc97c5ccce2964f7b25f8377ac95818</title>
<path fill="none" stroke="black" d="M185.965,-384.008C174.106,-374.929 161.438,-362.603 155,-348 148.546,-333.359 153.68,-327.945 155,-312 157.676,-279.669 151.389,-268.438 167,-240 173.108,-228.873 182.468,-218.887 191.946,-210.663"/>
<polygon fill="black" stroke="black" points="194.343,-213.224 199.866,-204.183 189.91,-207.806 194.343,-213.224"/>
<g id="a_edge34&#45;headlabel"><a xlink:href="dir_000075_000083.html" target="_top" xlink:title="1">
<text text-anchor="middle" x="193.358" y="-215.198" font-family="Helvetica,sans-Serif" font-size="10.00">1</text>
</a>
</g>
</g>
<!-- dir_a2f0e5642e47e7ed59fe0f0829eafb5f -->
<g id="node11" class="node"><title>dir_a2f0e5642e47e7ed59fe0f0829eafb5f</title>
<g id="a_node11"><a xlink:href="dir_a2f0e5642e47e7ed59fe0f0829eafb5f.html" target="_top" xlink:title="Core">
<polygon fill="white" stroke="red" points="521,-420 467,-420 467,-384 521,-384 521,-420"/>
<text text-anchor="middle" x="494" y="-399.5" font-family="Helvetica,sans-Serif" font-size="10.00">Core</text>
</a>
</g>
</g>
<!-- dir_35f904a890c1431d13964486334c23a9&#45;&gt;dir_a2f0e5642e47e7ed59fe0f0829eafb5f -->
<g id="edge31" class="edge"><title>dir_35f904a890c1431d13964486334c23a9&#45;&gt;dir_a2f0e5642e47e7ed59fe0f0829eafb5f</title>
<path fill="none" stroke="black" d="M218.729,-420.038C225.234,-437.135 237.67,-461.816 258,-473 280.975,-485.639 291.253,-477.971 317,-473 367.813,-463.189 422.56,-438.89 457.495,-421.453"/>
<polygon fill="black" stroke="black" points="459.467,-424.378 466.804,-416.734 456.302,-418.134 459.467,-424.378"/>
<g id="a_edge31&#45;headlabel"><a xlink:href="dir_000075_000020.html" target="_top" xlink:title="3">
<text text-anchor="middle" x="457.544" y="-426.035" font-family="Helvetica,sans-Serif" font-size="10.00">3</text>
</a>
</g>
</g>
<!-- dir_7205f054df4e14abb60715afe3e7e90c -->
<g id="node12" class="node"><title>dir_7205f054df4e14abb60715afe3e7e90c</title>
<g id="a_node12"><a xlink:href="dir_7205f054df4e14abb60715afe3e7e90c.html" target="_top" xlink:title="Entity">
<polygon fill="none" stroke="black" points="652,-348 598,-348 598,-312 652,-312 652,-348"/>
<text text-anchor="middle" x="625" y="-327.5" font-family="Helvetica,sans-Serif" font-size="10.00">Entity</text>
</a>
</g>
</g>
<!-- dir_35f904a890c1431d13964486334c23a9&#45;&gt;dir_7205f054df4e14abb60715afe3e7e90c -->
<g id="edge32" class="edge"><title>dir_35f904a890c1431d13964486334c23a9&#45;&gt;dir_7205f054df4e14abb60715afe3e7e90c</title>
<path fill="none" stroke="black" d="M240.179,-387.121C243.109,-385.941 246.085,-384.869 249,-384 360.377,-350.807 392.939,-364.356 508,-348 534.61,-344.217 564.609,-339.857 587.568,-336.499"/>
<polygon fill="black" stroke="black" points="588.197,-339.944 597.584,-335.032 587.183,-333.018 588.197,-339.944"/>
<g id="a_edge32&#45;headlabel"><a xlink:href="dir_000075_000065.html" target="_top" xlink:title="1">
<text text-anchor="middle" x="585.052" y="-340.774" font-family="Helvetica,sans-Serif" font-size="10.00">1</text>
</a>
</g>
</g>
<!-- dir_d0f3276f03e9a9cb8f8ba3f2a5ea1262 -->
<g id="node14" class="node"><title>dir_d0f3276f03e9a9cb8f8ba3f2a5ea1262</title>
<g id="a_node14"><a xlink:href="dir_d0f3276f03e9a9cb8f8ba3f2a5ea1262.html" target="_top" xlink:title="Component">
<polygon fill="none" stroke="black" points="583.25,-276 516.75,-276 516.75,-240 583.25,-240 583.25,-276"/>
<text text-anchor="middle" x="550" y="-255.5" font-family="Helvetica,sans-Serif" font-size="10.00">Component</text>
</a>
</g>
</g>
<!-- dir_35f904a890c1431d13964486334c23a9&#45;&gt;dir_d0f3276f03e9a9cb8f8ba3f2a5ea1262 -->
<g id="edge35" class="edge"><title>dir_35f904a890c1431d13964486334c23a9&#45;&gt;dir_d0f3276f03e9a9cb8f8ba3f2a5ea1262</title>
<path fill="none" stroke="black" d="M240.2,-387.191C243.126,-385.997 246.096,-384.903 249,-384 344.033,-354.464 382.668,-395.714 470,-348 484.515,-340.069 511.923,-307.574 530.57,-284.139"/>
<polygon fill="black" stroke="black" points="533.321,-286.303 536.765,-276.283 527.824,-281.968 533.321,-286.303"/>
<g id="a_edge35&#45;headlabel"><a xlink:href="dir_000075_000064.html" target="_top" xlink:title="1">
<text text-anchor="middle" x="533.325" y="-288.383" font-family="Helvetica,sans-Serif" font-size="10.00">1</text>
</a>
</g>
</g>
<!-- dir_b3c92c43cc8feb1052f624d79df8b6af -->
<g id="node3" class="node"><title>dir_b3c92c43cc8feb1052f624d79df8b6af</title>
<g id="a_node3"><a xlink:href="dir_b3c92c43cc8feb1052f624d79df8b6af.html" target="_top" xlink:title="Light">
<polygon fill="white" stroke="black" points="314,-348 260,-348 260,-312 314,-312 314,-348"/>
<text text-anchor="middle" x="287" y="-327.5" font-family="Helvetica,sans-Serif" font-size="10.00">Light</text>
</a>
</g>
</g>
<!-- dir_b3c92c43cc8feb1052f624d79df8b6af&#45;&gt;dir_6bc97c5ccce2964f7b25f8377ac95818 -->
<g id="edge2" class="edge"><title>dir_b3c92c43cc8feb1052f624d79df8b6af&#45;&gt;dir_6bc97c5ccce2964f7b25f8377ac95818</title>
<path fill="none" stroke="black" d="M279.642,-311.871C269.154,-287.457 249.81,-242.426 237.442,-213.635"/>
<polygon fill="black" stroke="black" points="240.547,-211.996 233.384,-204.189 234.115,-214.759 240.547,-211.996"/>
<g id="a_edge2&#45;headlabel"><a xlink:href="dir_000076_000083.html" target="_top" xlink:title="4">
<text text-anchor="middle" x="244.575" y="-211.678" font-family="Helvetica,sans-Serif" font-size="10.00">4</text>
</a>
</g>
</g>
<!-- dir_b3c92c43cc8feb1052f624d79df8b6af&#45;&gt;dir_a2f0e5642e47e7ed59fe0f0829eafb5f -->
<g id="edge1" class="edge"><title>dir_b3c92c43cc8feb1052f624d79df8b6af&#45;&gt;dir_a2f0e5642e47e7ed59fe0f0829eafb5f</title>
<path fill="none" stroke="black" d="M314.068,-340.154C350.721,-352.548 416.263,-374.712 457.314,-388.594"/>
<polygon fill="black" stroke="black" points="456.344,-391.961 466.938,-391.849 458.587,-385.33 456.344,-391.961"/>
<g id="a_edge1&#45;headlabel"><a xlink:href="dir_000076_000020.html" target="_top" xlink:title="2">
<text text-anchor="middle" x="452.029" y="-390.999" font-family="Helvetica,sans-Serif" font-size="10.00">2</text>
</a>
</g>
</g>
<!-- dir_06113b60808b1bbb52a01dfd2c3a8657 -->
<g id="node13" class="node"><title>dir_06113b60808b1bbb52a01dfd2c3a8657</title>
<g id="a_node13"><a xlink:href="dir_06113b60808b1bbb52a01dfd2c3a8657.html" target="_top" xlink:title="Managers">
<polygon fill="white" stroke="red" points="498.25,-204 439.75,-204 439.75,-168 498.25,-168 498.25,-204"/>
<text text-anchor="middle" x="469" y="-183.5" font-family="Helvetica,sans-Serif" font-size="10.00">Managers</text>
</a>
</g>
</g>
<!-- dir_b3c92c43cc8feb1052f624d79df8b6af&#45;&gt;dir_06113b60808b1bbb52a01dfd2c3a8657 -->
<g id="edge3" class="edge"><title>dir_b3c92c43cc8feb1052f624d79df8b6af&#45;&gt;dir_06113b60808b1bbb52a01dfd2c3a8657</title>
<path fill="none" stroke="black" d="M308.106,-311.718C330.309,-293.623 366.353,-264.488 398,-240 410.751,-230.134 424.962,-219.462 437.301,-210.299"/>
<polygon fill="black" stroke="black" points="439.55,-212.988 445.503,-204.224 435.384,-207.363 439.55,-212.988"/>
<g id="a_edge3&#45;headlabel"><a xlink:href="dir_000076_000067.html" target="_top" xlink:title="1">
<text text-anchor="middle" x="438.351" y="-214.909" font-family="Helvetica,sans-Serif" font-size="10.00">1</text>
</a>
</g>
</g>
<!-- dir_b3c92c43cc8feb1052f624d79df8b6af&#45;&gt;dir_d0f3276f03e9a9cb8f8ba3f2a5ea1262 -->
<g id="edge4" class="edge"><title>dir_b3c92c43cc8feb1052f624d79df8b6af&#45;&gt;dir_d0f3276f03e9a9cb8f8ba3f2a5ea1262</title>
<path fill="none" stroke="black" d="M314.155,-321.772C359.746,-309.638 452.038,-285.073 506.674,-270.532"/>
<polygon fill="black" stroke="black" points="507.654,-273.893 516.417,-267.938 505.854,-267.128 507.654,-273.893"/>
<g id="a_edge4&#45;headlabel"><a xlink:href="dir_000076_000064.html" target="_top" xlink:title="1">
<text text-anchor="middle" x="504.911" y="-275.061" font-family="Helvetica,sans-Serif" font-size="10.00">1</text>
</a>
</g>
</g>
<!-- dir_909774b1a000bf73b2cf501716b773f3 -->
<g id="node4" class="node"><title>dir_909774b1a000bf73b2cf501716b773f3</title>
<g id="a_node4"><a xlink:href="dir_909774b1a000bf73b2cf501716b773f3.html" target="_top" xlink:title="Material">
<polygon fill="white" stroke="black" points="230,-276 176,-276 176,-240 230,-240 230,-276"/>
<text text-anchor="middle" x="203" y="-255.5" font-family="Helvetica,sans-Serif" font-size="10.00">Material</text>
</a>
</g>
</g>
<!-- dir_909774b1a000bf73b2cf501716b773f3&#45;&gt;dir_6bc97c5ccce2964f7b25f8377ac95818 -->
<g id="edge58" class="edge"><title>dir_909774b1a000bf73b2cf501716b773f3&#45;&gt;dir_6bc97c5ccce2964f7b25f8377ac95818</title>
<path fill="none" stroke="black" d="M202.77,-239.697C204.547,-231.813 207.452,-222.304 210.706,-213.546"/>
<polygon fill="black" stroke="black" points="214.018,-214.689 214.485,-204.104 207.52,-212.088 214.018,-214.689"/>
<g id="a_edge58&#45;headlabel"><a xlink:href="dir_000077_000083.html" target="_top" xlink:title="3">
<text text-anchor="middle" x="215.319" y="-216.581" font-family="Helvetica,sans-Serif" font-size="10.00">3</text>
</a>
</g>
</g>
<!-- dir_8efb2e226a329d96dc3bcfc9eaf1a998 -->
<g id="node10" class="node"><title>dir_8efb2e226a329d96dc3bcfc9eaf1a998</title>
<g id="a_node10"><a xlink:href="dir_8efb2e226a329d96dc3bcfc9eaf1a998.html" target="_top" xlink:title="Texture">
<polygon fill="white" stroke="black" points="197,-132 143,-132 143,-96 197,-96 197,-132"/>
<text text-anchor="middle" x="170" y="-111.5" font-family="Helvetica,sans-Serif" font-size="10.00">Texture</text>
</a>
</g>
</g>
<!-- dir_909774b1a000bf73b2cf501716b773f3&#45;&gt;dir_8efb2e226a329d96dc3bcfc9eaf1a998 -->
<g id="edge56" class="edge"><title>dir_909774b1a000bf73b2cf501716b773f3&#45;&gt;dir_8efb2e226a329d96dc3bcfc9eaf1a998</title>
<path fill="none" stroke="black" d="M188.673,-239.566C181.552,-229.762 173.694,-216.923 170,-204 164.24,-183.852 164.583,-160.073 166.179,-142.165"/>
<polygon fill="black" stroke="black" points="169.671,-142.432 167.259,-132.115 162.711,-141.684 169.671,-142.432"/>
<g id="a_edge56&#45;headlabel"><a xlink:href="dir_000077_000084.html" target="_top" xlink:title="2">
<text text-anchor="middle" x="172.11" y="-143.81" font-family="Helvetica,sans-Serif" font-size="10.00">2</text>
</a>
</g>
</g>
<!-- dir_909774b1a000bf73b2cf501716b773f3&#45;&gt;dir_a2f0e5642e47e7ed59fe0f0829eafb5f -->
<g id="edge57" class="edge"><title>dir_909774b1a000bf73b2cf501716b773f3&#45;&gt;dir_a2f0e5642e47e7ed59fe0f0829eafb5f</title>
<path fill="none" stroke="black" d="M230.086,-262.549C268.482,-268.435 340.063,-282.606 394,-312 424.447,-328.593 453.37,-356.074 472.205,-376.116"/>
<polygon fill="black" stroke="black" points="469.803,-378.676 479.152,-383.662 474.953,-373.934 469.803,-378.676"/>
<g id="a_edge57&#45;headlabel"><a xlink:href="dir_000077_000020.html" target="_top" xlink:title="3">
<text text-anchor="middle" x="465.28" y="-375.454" font-family="Helvetica,sans-Serif" font-size="10.00">3</text>
</a>
</g>
</g>
<!-- dir_745a441f70a5ddf403f2f793490dcc6d -->
<g id="node6" class="node"><title>dir_745a441f70a5ddf403f2f793490dcc6d</title>
<g id="a_node6"><a xlink:href="dir_745a441f70a5ddf403f2f793490dcc6d.html" target="_top" xlink:title="OpenGL">
<polygon fill="white" stroke="black" points="197,-60 143,-60 143,-24 197,-24 197,-60"/>
<text text-anchor="middle" x="170" y="-39.5" font-family="Helvetica,sans-Serif" font-size="10.00">OpenGL</text>
</a>
</g>
</g>
<!-- dir_f6a0a87962fcbf90fc709c1bf5ba5a00&#45;&gt;dir_745a441f70a5ddf403f2f793490dcc6d -->
<g id="edge29" class="edge"><title>dir_f6a0a87962fcbf90fc709c1bf5ba5a00&#45;&gt;dir_745a441f70a5ddf403f2f793490dcc6d</title>
<path fill="none" stroke="black" d="M110.944,-239.915C111.381,-209.804 114.738,-145.767 134,-96 137.755,-86.2992 143.57,-76.6133 149.439,-68.226"/>
<polygon fill="black" stroke="black" points="152.379,-70.1367 155.492,-60.0094 146.743,-65.9852 152.379,-70.1367"/>
<g id="a_edge29&#45;headlabel"><a xlink:href="dir_000078_000079.html" target="_top" xlink:title="1">
<text text-anchor="middle" x="152.533" y="-72.2148" font-family="Helvetica,sans-Serif" font-size="10.00">1</text>
</a>
</g>
</g>
<!-- dir_f6a0a87962fcbf90fc709c1bf5ba5a00&#45;&gt;dir_a2f0e5642e47e7ed59fe0f0829eafb5f -->
<g id="edge28" class="edge"><title>dir_f6a0a87962fcbf90fc709c1bf5ba5a00&#45;&gt;dir_a2f0e5642e47e7ed59fe0f0829eafb5f</title>
<path fill="none" stroke="black" d="M138.237,-267.674C147.345,-270.466 157.576,-273.485 167,-276 235.75,-294.345 256.24,-287.378 323,-312 329.988,-314.577 409.953,-356.611 458.017,-381.977"/>
<polygon fill="black" stroke="black" points="456.407,-385.085 466.884,-386.659 459.675,-378.895 456.407,-385.085"/>
<g id="a_edge28&#45;headlabel"><a xlink:href="dir_000078_000020.html" target="_top" xlink:title="4">
<text text-anchor="middle" x="451.902" y="-383.417" font-family="Helvetica,sans-Serif" font-size="10.00">4</text>
</a>
</g>
</g>
<!-- dir_ac53bbf7aa3921b9bb37792f08d5cbd9 -->
<g id="node7" class="node"><title>dir_ac53bbf7aa3921b9bb37792f08d5cbd9</title>
<g id="a_node7"><a xlink:href="dir_ac53bbf7aa3921b9bb37792f08d5cbd9.html" target="_top" xlink:title="Renderers">
<polygon fill="white" stroke="black" points="167.5,-420 106.5,-420 106.5,-384 167.5,-384 167.5,-420"/>
<text text-anchor="middle" x="137" y="-399.5" font-family="Helvetica,sans-Serif" font-size="10.00">Renderers</text>
</a>
</g>
</g>
<!-- dir_ac53bbf7aa3921b9bb37792f08d5cbd9&#45;&gt;dir_b3c92c43cc8feb1052f624d79df8b6af -->
<g id="edge19" class="edge"><title>dir_ac53bbf7aa3921b9bb37792f08d5cbd9&#45;&gt;dir_b3c92c43cc8feb1052f624d79df8b6af</title>
<path fill="none" stroke="black" d="M167.717,-386.666C191.733,-375.458 225.189,-359.845 250.559,-348.006"/>
<polygon fill="black" stroke="black" points="252.268,-351.071 259.85,-343.67 249.308,-344.727 252.268,-351.071"/>
<g id="a_edge19&#45;headlabel"><a xlink:href="dir_000080_000076.html" target="_top" xlink:title="2">
<text text-anchor="middle" x="250.211" y="-352.664" font-family="Helvetica,sans-Serif" font-size="10.00">2</text>
</a>
</g>
</g>
<!-- dir_ac53bbf7aa3921b9bb37792f08d5cbd9&#45;&gt;dir_909774b1a000bf73b2cf501716b773f3 -->
<g id="edge27" class="edge"><title>dir_ac53bbf7aa3921b9bb37792f08d5cbd9&#45;&gt;dir_909774b1a000bf73b2cf501716b773f3</title>
<path fill="none" stroke="black" d="M137.787,-383.719C139.235,-365.112 143.343,-335.076 155,-312 160.228,-301.65 168.031,-291.797 175.834,-283.456"/>
<polygon fill="black" stroke="black" points="178.406,-285.832 182.927,-276.25 173.417,-280.922 178.406,-285.832"/>
<g id="a_edge27&#45;headlabel"><a xlink:href="dir_000080_000077.html" target="_top" xlink:title="1">
<text text-anchor="middle" x="177.908" y="-287.886" font-family="Helvetica,sans-Serif" font-size="10.00">1</text>
</a>
</g>
</g>
<!-- dir_ac53bbf7aa3921b9bb37792f08d5cbd9&#45;&gt;dir_f6a0a87962fcbf90fc709c1bf5ba5a00 -->
<g id="edge24" class="edge"><title>dir_ac53bbf7aa3921b9bb37792f08d5cbd9&#45;&gt;dir_f6a0a87962fcbf90fc709c1bf5ba5a00</title>
<path fill="none" stroke="black" d="M120.963,-383.846C112.986,-374.124 104.175,-361.274 100,-348 93.6351,-327.763 97.162,-303.855 101.854,-285.917"/>
<polygon fill="black" stroke="black" points="105.272,-286.697 104.685,-276.118 98.5468,-284.754 105.272,-286.697"/>
<g id="a_edge24&#45;headlabel"><a xlink:href="dir_000080_000078.html" target="_top" xlink:title="2">
<text text-anchor="middle" x="107.002" y="-288.438" font-family="Helvetica,sans-Serif" font-size="10.00">2</text>
</a>
</g>
</g>
<!-- dir_ac53bbf7aa3921b9bb37792f08d5cbd9&#45;&gt;dir_745a441f70a5ddf403f2f793490dcc6d -->
<g id="edge23" class="edge"><title>dir_ac53bbf7aa3921b9bb37792f08d5cbd9&#45;&gt;dir_745a441f70a5ddf403f2f793490dcc6d</title>
<path fill="none" stroke="black" d="M107.702,-383.865C94.4426,-374.753 79.621,-362.441 70,-348 47.22,-313.807 45,-300.086 45,-259 45,-259 45,-259 45,-185 45,-130.573 97.3785,-87.1079 134.324,-63.2192"/>
<polygon fill="black" stroke="black" points="136.264,-66.1337 142.877,-57.8557 132.545,-60.2032 136.264,-66.1337"/>
<g id="a_edge23&#45;headlabel"><a xlink:href="dir_000080_000079.html" target="_top" xlink:title="2">
<text text-anchor="middle" x="134.727" y="-67.9488" font-family="Helvetica,sans-Serif" font-size="10.00">2</text>
</a>
</g>
</g>
<!-- dir_ac53bbf7aa3921b9bb37792f08d5cbd9&#45;&gt;dir_652267079d823ee01f6c6cf98db9085b -->
<g id="edge20" class="edge"><title>dir_ac53bbf7aa3921b9bb37792f08d5cbd9&#45;&gt;dir_652267079d823ee01f6c6cf98db9085b</title>
<path fill="none" stroke="black" d="M153.315,-383.697C161.307,-375.22 171.072,-364.864 179.822,-355.583"/>
<polygon fill="black" stroke="black" points="182.559,-357.781 186.873,-348.104 177.466,-352.979 182.559,-357.781"/>
<g id="a_edge20&#45;headlabel"><a xlink:href="dir_000080_000081.html" target="_top" xlink:title="2">
<text text-anchor="middle" x="182.159" y="-359.844" font-family="Helvetica,sans-Serif" font-size="10.00">2</text>
</a>
</g>
</g>
<!-- dir_ac53bbf7aa3921b9bb37792f08d5cbd9&#45;&gt;dir_6bc97c5ccce2964f7b25f8377ac95818 -->
<g id="edge25" class="edge"><title>dir_ac53bbf7aa3921b9bb37792f08d5cbd9&#45;&gt;dir_6bc97c5ccce2964f7b25f8377ac95818</title>
<path fill="none" stroke="black" d="M120.2,-383.672C92.1832,-352.626 42.0904,-286.429 75,-240 96.3307,-209.907 136.15,-196.772 169.543,-191.1"/>
<polygon fill="black" stroke="black" points="170.309,-194.524 179.673,-189.569 169.262,-187.603 170.309,-194.524"/>
<g id="a_edge25&#45;headlabel"><a xlink:href="dir_000080_000083.html" target="_top" xlink:title="4">
<text text-anchor="middle" x="167.179" y="-195.369" font-family="Helvetica,sans-Serif" font-size="10.00">4</text>
</a>
</g>
</g>
<!-- dir_ac53bbf7aa3921b9bb37792f08d5cbd9&#45;&gt;dir_8efb2e226a329d96dc3bcfc9eaf1a998 -->
<g id="edge21" class="edge"><title>dir_ac53bbf7aa3921b9bb37792f08d5cbd9&#45;&gt;dir_8efb2e226a329d96dc3bcfc9eaf1a998</title>
<path fill="none" stroke="black" d="M106.378,-384.234C92.9911,-375.278 78.443,-362.99 70,-348 46.3625,-306.033 44.097,-285.103 61,-240 76.5671,-198.462 112.874,-161.648 139.32,-138.916"/>
<polygon fill="black" stroke="black" points="141.766,-141.433 147.177,-132.324 137.267,-136.07 141.766,-141.433"/>
<g id="a_edge21&#45;headlabel"><a xlink:href="dir_000080_000084.html" target="_top" xlink:title="1">
<text text-anchor="middle" x="140.837" y="-143.418" font-family="Helvetica,sans-Serif" font-size="10.00">1</text>
</a>
</g>
</g>
<!-- dir_ac53bbf7aa3921b9bb37792f08d5cbd9&#45;&gt;dir_a2f0e5642e47e7ed59fe0f0829eafb5f -->
<g id="edge22" class="edge"><title>dir_ac53bbf7aa3921b9bb37792f08d5cbd9&#45;&gt;dir_a2f0e5642e47e7ed59fe0f0829eafb5f</title>
<path fill="none" stroke="black" d="M143.692,-420.089C151.119,-437.224 164.915,-461.933 186,-473 237.552,-500.059 259.834,-484.038 317,-473 367.813,-463.189 422.56,-438.89 457.495,-421.453"/>
<polygon fill="black" stroke="black" points="459.467,-424.378 466.804,-416.734 456.302,-418.134 459.467,-424.378"/>
<g id="a_edge22&#45;headlabel"><a xlink:href="dir_000080_000020.html" target="_top" xlink:title="7">
<text text-anchor="middle" x="457.544" y="-426.035" font-family="Helvetica,sans-Serif" font-size="10.00">7</text>
</a>
</g>
</g>
<!-- dir_ac53bbf7aa3921b9bb37792f08d5cbd9&#45;&gt;dir_06113b60808b1bbb52a01dfd2c3a8657 -->
<g id="edge26" class="edge"><title>dir_ac53bbf7aa3921b9bb37792f08d5cbd9&#45;&gt;dir_06113b60808b1bbb52a01dfd2c3a8657</title>
<path fill="none" stroke="black" d="M167.821,-387.324C170.897,-386.133 173.994,-385.002 177,-384 240.401,-362.862 262.266,-375.893 323,-348 329.262,-345.124 419.509,-281.227 424,-276 439.877,-257.521 451.896,-232.468 459.501,-213.65"/>
<polygon fill="black" stroke="black" points="462.82,-214.772 463.17,-204.183 456.293,-212.242 462.82,-214.772"/>
<g id="a_edge26&#45;headlabel"><a xlink:href="dir_000080_000067.html" target="_top" xlink:title="2">
<text text-anchor="middle" x="464.168" y="-216.649" font-family="Helvetica,sans-Serif" font-size="10.00">2</text>
</a>
</g>
</g>
<!-- dir_652267079d823ee01f6c6cf98db9085b&#45;&gt;dir_909774b1a000bf73b2cf501716b773f3 -->
<g id="edge11" class="edge"><title>dir_652267079d823ee01f6c6cf98db9085b&#45;&gt;dir_909774b1a000bf73b2cf501716b773f3</title>
<path fill="none" stroke="black" d="M203,-311.697C203,-303.983 203,-294.712 203,-286.112"/>
<polygon fill="black" stroke="black" points="206.5,-286.104 203,-276.104 199.5,-286.104 206.5,-286.104"/>
<g id="a_edge11&#45;headlabel"><a xlink:href="dir_000081_000077.html" target="_top" xlink:title="2">
<text text-anchor="middle" x="209.339" y="-287.199" font-family="Helvetica,sans-Serif" font-size="10.00">2</text>
</a>
</g>
</g>
<!-- dir_652267079d823ee01f6c6cf98db9085b&#45;&gt;dir_f6a0a87962fcbf90fc709c1bf5ba5a00 -->
<g id="edge7" class="edge"><title>dir_652267079d823ee01f6c6cf98db9085b&#45;&gt;dir_f6a0a87962fcbf90fc709c1bf5ba5a00</title>
<path fill="none" stroke="black" d="M180.258,-311.697C168.56,-302.796 154.139,-291.823 141.49,-282.199"/>
<polygon fill="black" stroke="black" points="143.558,-279.374 133.48,-276.104 139.319,-284.945 143.558,-279.374"/>
<g id="a_edge7&#45;headlabel"><a xlink:href="dir_000081_000078.html" target="_top" xlink:title="3">
<text text-anchor="middle" x="148.138" y="-276.791" font-family="Helvetica,sans-Serif" font-size="10.00">3</text>
</a>
</g>
</g>
<!-- dir_652267079d823ee01f6c6cf98db9085b&#45;&gt;dir_6bc97c5ccce2964f7b25f8377ac95818 -->
<g id="edge8" class="edge"><title>dir_652267079d823ee01f6c6cf98db9085b&#45;&gt;dir_6bc97c5ccce2964f7b25f8377ac95818</title>
<path fill="none" stroke="black" d="M218.61,-311.774C226.373,-302.03 234.946,-289.184 239,-276 245.283,-255.568 241.129,-231.538 235.904,-213.601"/>
<polygon fill="black" stroke="black" points="239.237,-212.533 232.862,-204.071 232.568,-214.661 239.237,-212.533"/>
<g id="a_edge8&#45;headlabel"><a xlink:href="dir_000081_000083.html" target="_top" xlink:title="4">
<text text-anchor="middle" x="243.035" y="-212.594" font-family="Helvetica,sans-Serif" font-size="10.00">4</text>
</a>
</g>
</g>
<!-- dir_652267079d823ee01f6c6cf98db9085b&#45;&gt;dir_a2f0e5642e47e7ed59fe0f0829eafb5f -->
<g id="edge5" class="edge"><title>dir_652267079d823ee01f6c6cf98db9085b&#45;&gt;dir_a2f0e5642e47e7ed59fe0f0829eafb5f</title>
<path fill="none" stroke="black" d="M241.489,-347.854C241.66,-347.903 241.83,-347.952 242,-348 317.018,-369.374 407.166,-386.974 456.897,-395.483"/>
<polygon fill="black" stroke="black" points="456.434,-398.955 466.875,-397.159 457.593,-392.051 456.434,-398.955"/>
<g id="a_edge5&#45;headlabel"><a xlink:href="dir_000081_000020.html" target="_top" xlink:title="13">
<text text-anchor="middle" x="452.419" y="-398.659" font-family="Helvetica,sans-Serif" font-size="10.00">13</text>
</a>
</g>
</g>
<!-- dir_652267079d823ee01f6c6cf98db9085b&#45;&gt;dir_7205f054df4e14abb60715afe3e7e90c -->
<g id="edge6" class="edge"><title>dir_652267079d823ee01f6c6cf98db9085b&#45;&gt;dir_7205f054df4e14abb60715afe3e7e90c</title>
<path fill="none" stroke="black" d="M225.133,-348.089C235.147,-355.141 247.52,-362.389 260,-366 327.242,-385.456 508.38,-387.488 575,-366 582.874,-363.46 590.554,-359.169 597.438,-354.417"/>
<polygon fill="black" stroke="black" points="599.776,-357.039 605.688,-348.247 595.584,-351.433 599.776,-357.039"/>
<g id="a_edge6&#45;headlabel"><a xlink:href="dir_000081_000065.html" target="_top" xlink:title="2">
<text text-anchor="middle" x="598.597" y="-358.966" font-family="Helvetica,sans-Serif" font-size="10.00">2</text>
</a>
</g>
</g>
<!-- dir_652267079d823ee01f6c6cf98db9085b&#45;&gt;dir_06113b60808b1bbb52a01dfd2c3a8657 -->
<g id="edge9" class="edge"><title>dir_652267079d823ee01f6c6cf98db9085b&#45;&gt;dir_06113b60808b1bbb52a01dfd2c3a8657</title>
<path fill="none" stroke="black" d="M241.326,-313.667C262.931,-304.229 289.929,-291.067 312,-276 331.482,-262.7 331.318,-253.002 351,-240 375.704,-223.681 406.258,-210.114 430.085,-200.792"/>
<polygon fill="black" stroke="black" points="431.428,-204.026 439.518,-197.185 428.928,-197.488 431.428,-204.026"/>
<g id="a_edge9&#45;headlabel"><a xlink:href="dir_000081_000067.html" target="_top" xlink:title="2">
<text text-anchor="middle" x="429.085" y="-205.462" font-family="Helvetica,sans-Serif" font-size="10.00">2</text>
</a>
</g>
</g>
<!-- dir_652267079d823ee01f6c6cf98db9085b&#45;&gt;dir_d0f3276f03e9a9cb8f8ba3f2a5ea1262 -->
<g id="edge10" class="edge"><title>dir_652267079d823ee01f6c6cf98db9085b&#45;&gt;dir_d0f3276f03e9a9cb8f8ba3f2a5ea1262</title>
<path fill="none" stroke="black" d="M241.486,-312.136C241.658,-312.091 241.829,-312.045 242,-312 334.52,-287.595 446.145,-271.154 506.485,-263.653"/>
<polygon fill="black" stroke="black" points="506.926,-267.125 516.429,-262.441 506.079,-260.176 506.926,-267.125"/>
<g id="a_edge10&#45;headlabel"><a xlink:href="dir_000081_000064.html" target="_top" xlink:title="2">
<text text-anchor="middle" x="503.701" y="-267.878" font-family="Helvetica,sans-Serif" font-size="10.00">2</text>
</a>
</g>
</g>
<!-- dir_6bc97c5ccce2964f7b25f8377ac95818&#45;&gt;dir_909774b1a000bf73b2cf501716b773f3 -->
<g id="edge39" class="edge"><title>dir_6bc97c5ccce2964f7b25f8377ac95818&#45;&gt;dir_909774b1a000bf73b2cf501716b773f3</title>
<path fill="none" stroke="black" d="M226.275,-204.104C224.517,-211.96 221.624,-221.462 218.376,-230.232"/>
<polygon fill="black" stroke="black" points="215.055,-229.112 214.601,-239.697 221.557,-231.705 215.055,-229.112"/>
<g id="a_edge39&#45;headlabel"><a xlink:href="dir_000083_000077.html" target="_top" xlink:title="1">
<text text-anchor="middle" x="213.75" y="-222.221" font-family="Helvetica,sans-Serif" font-size="10.00">1</text>
</a>
</g>
</g>
<!-- dir_6bc97c5ccce2964f7b25f8377ac95818&#45;&gt;dir_745a441f70a5ddf403f2f793490dcc6d -->
<g id="edge38" class="edge"><title>dir_6bc97c5ccce2964f7b25f8377ac95818&#45;&gt;dir_745a441f70a5ddf403f2f793490dcc6d</title>
<path fill="none" stroke="black" d="M224.062,-167.675C221.565,-149.291 216.262,-119.686 206,-96 201.865,-86.4553 195.947,-76.8116 190.1,-68.4147"/>
<polygon fill="black" stroke="black" points="192.821,-66.2048 184.111,-60.1721 187.158,-70.3195 192.821,-66.2048"/>
<g id="a_edge38&#45;headlabel"><a xlink:href="dir_000083_000079.html" target="_top" xlink:title="1">
<text text-anchor="middle" x="197.231" y="-64.9439" font-family="Helvetica,sans-Serif" font-size="10.00">1</text>
</a>
</g>
</g>
<!-- dir_6bc97c5ccce2964f7b25f8377ac95818&#45;&gt;dir_8efb2e226a329d96dc3bcfc9eaf1a998 -->
<g id="edge36" class="edge"><title>dir_6bc97c5ccce2964f7b25f8377ac95818&#45;&gt;dir_8efb2e226a329d96dc3bcfc9eaf1a998</title>
<path fill="none" stroke="black" d="M212.157,-167.697C205.511,-159.389 197.422,-149.277 190.113,-140.141"/>
<polygon fill="black" stroke="black" points="192.664,-137.727 183.683,-132.104 187.197,-142.099 192.664,-137.727"/>
<g id="a_edge36&#45;headlabel"><a xlink:href="dir_000083_000084.html" target="_top" xlink:title="1">
<text text-anchor="middle" x="197.126" y="-136.26" font-family="Helvetica,sans-Serif" font-size="10.00">1</text>
</a>
</g>
</g>
<!-- dir_6bc97c5ccce2964f7b25f8377ac95818&#45;&gt;dir_a2f0e5642e47e7ed59fe0f0829eafb5f -->
<g id="edge37" class="edge"><title>dir_6bc97c5ccce2964f7b25f8377ac95818&#45;&gt;dir_a2f0e5642e47e7ed59fe0f0829eafb5f</title>
<path fill="none" stroke="black" d="M272.577,-189.97C358.257,-196.046 537.123,-211.761 592,-240 631.41,-260.28 644.475,-270.874 661,-312 666.965,-326.846 670.449,-335.088 661,-348 631.401,-388.448 570.718,-398.784 531.229,-401.015"/>
<polygon fill="black" stroke="black" points="531.033,-397.52 521.188,-401.434 531.325,-404.514 531.033,-397.52"/>
<g id="a_edge37&#45;headlabel"><a xlink:href="dir_000083_000020.html" target="_top" xlink:title="12">
<text text-anchor="middle" x="534.506" y="-392.033" font-family="Helvetica,sans-Serif" font-size="10.00">12</text>
</a>
</g>
</g>
<!-- dir_8efb2e226a329d96dc3bcfc9eaf1a998&#45;&gt;dir_745a441f70a5ddf403f2f793490dcc6d -->
<g id="edge13" class="edge"><title>dir_8efb2e226a329d96dc3bcfc9eaf1a998&#45;&gt;dir_745a441f70a5ddf403f2f793490dcc6d</title>
<path fill="none" stroke="black" d="M170,-95.6966C170,-87.9827 170,-78.7125 170,-70.1124"/>
<polygon fill="black" stroke="black" points="173.5,-70.1043 170,-60.1043 166.5,-70.1044 173.5,-70.1043"/>
<g id="a_edge13&#45;headlabel"><a xlink:href="dir_000084_000079.html" target="_top" xlink:title="2">
<text text-anchor="middle" x="176.339" y="-71.199" font-family="Helvetica,sans-Serif" font-size="10.00">2</text>
</a>
</g>
</g>
<!-- dir_8efb2e226a329d96dc3bcfc9eaf1a998&#45;&gt;dir_a2f0e5642e47e7ed59fe0f0829eafb5f -->
<g id="edge12" class="edge"><title>dir_8efb2e226a329d96dc3bcfc9eaf1a998&#45;&gt;dir_a2f0e5642e47e7ed59fe0f0829eafb5f</title>
<path fill="none" stroke="black" d="M197.137,-116.633C298.988,-123.401 655.83,-153.095 718,-240 745.928,-279.039 747.778,-310.354 718,-348 695.127,-376.916 588.858,-391.682 531.293,-397.674"/>
<polygon fill="black" stroke="black" points="530.743,-394.212 521.142,-398.692 531.442,-401.177 530.743,-394.212"/>
<g id="a_edge12&#45;headlabel"><a xlink:href="dir_000084_000020.html" target="_top" xlink:title="2">
<text text-anchor="middle" x="534.036" y="-388.528" font-family="Helvetica,sans-Serif" font-size="10.00">2</text>
</a>
</g>
</g>
<!-- dir_a2f0e5642e47e7ed59fe0f0829eafb5f&#45;&gt;dir_652267079d823ee01f6c6cf98db9085b -->
<g id="edge14" class="edge"><title>dir_a2f0e5642e47e7ed59fe0f0829eafb5f&#45;&gt;dir_652267079d823ee01f6c6cf98db9085b</title>
<path fill="none" stroke="black" d="M466.631,-395.103C422.524,-386.457 333.917,-369.06 260,-348 257.076,-347.167 254.071,-346.251 251.039,-345.289"/>
<polygon fill="black" stroke="black" points="251.915,-341.893 241.322,-342.108 249.737,-348.546 251.915,-341.893"/>
<g id="a_edge14&#45;headlabel"><a xlink:href="dir_000020_000081.html" target="_top" xlink:title="1">
<text text-anchor="middle" x="256.214" y="-337.813" font-family="Helvetica,sans-Serif" font-size="10.00">1</text>
</a>
</g>
</g>
<!-- dir_a2f0e5642e47e7ed59fe0f0829eafb5f&#45;&gt;dir_7205f054df4e14abb60715afe3e7e90c -->
<g id="edge15" class="edge"><title>dir_a2f0e5642e47e7ed59fe0f0829eafb5f&#45;&gt;dir_7205f054df4e14abb60715afe3e7e90c</title>
<path fill="none" stroke="black" d="M520.149,-383.876C539.922,-372.685 567.139,-358.16 588.953,-347.166"/>
<polygon fill="black" stroke="black" points="590.545,-350.283 597.934,-342.691 587.423,-344.018 590.545,-350.283"/>
<g id="a_edge15&#45;headlabel"><a xlink:href="dir_000020_000065.html" target="_top" xlink:title="1">
<text text-anchor="middle" x="588.594" y="-351.928" font-family="Helvetica,sans-Serif" font-size="10.00">1</text>
</a>
</g>
</g>
<!-- dir_7205f054df4e14abb60715afe3e7e90c&#45;&gt;dir_a2f0e5642e47e7ed59fe0f0829eafb5f -->
<g id="edge16" class="edge"><title>dir_7205f054df4e14abb60715afe3e7e90c&#45;&gt;dir_a2f0e5642e47e7ed59fe0f0829eafb5f</title>
<path fill="none" stroke="black" d="M599.062,-348.004C579.296,-359.198 552.005,-373.766 530.126,-384.794"/>
<polygon fill="black" stroke="black" points="528.507,-381.69 521.118,-389.284 531.629,-387.955 528.507,-381.69"/>
<g id="a_edge16&#45;headlabel"><a xlink:href="dir_000065_000020.html" target="_top" xlink:title="4">
<text text-anchor="middle" x="530.457" y="-375.046" font-family="Helvetica,sans-Serif" font-size="10.00">4</text>
</a>
</g>
</g>
<!-- dir_7205f054df4e14abb60715afe3e7e90c&#45;&gt;dir_06113b60808b1bbb52a01dfd2c3a8657 -->
<g id="edge17" class="edge"><title>dir_7205f054df4e14abb60715afe3e7e90c&#45;&gt;dir_06113b60808b1bbb52a01dfd2c3a8657</title>
<path fill="none" stroke="black" d="M616.284,-311.797C610.318,-292.132 602.063,-260.077 583,-240 562.737,-218.659 532.446,-205.465 508.083,-197.579"/>
<polygon fill="black" stroke="black" points="508.978,-194.193 498.392,-194.614 506.93,-200.887 508.978,-194.193"/>
<g id="a_edge17&#45;headlabel"><a xlink:href="dir_000065_000067.html" target="_top" xlink:title="1">
<text text-anchor="middle" x="513.246" y="-190.03" font-family="Helvetica,sans-Serif" font-size="10.00">1</text>
</a>
</g>
</g>
<!-- dir_7205f054df4e14abb60715afe3e7e90c&#45;&gt;dir_d0f3276f03e9a9cb8f8ba3f2a5ea1262 -->
<g id="edge18" class="edge"><title>dir_7205f054df4e14abb60715afe3e7e90c&#45;&gt;dir_d0f3276f03e9a9cb8f8ba3f2a5ea1262</title>
<path fill="none" stroke="black" d="M600.545,-311.697C590.489,-303.135 579.079,-292.656 569.579,-283.304"/>
<polygon fill="black" stroke="black" points="571.96,-280.735 562.431,-276.104 566.992,-285.667 571.96,-280.735"/>
<g id="a_edge18&#45;headlabel"><a xlink:href="dir_000065_000064.html" target="_top" xlink:title="1">
<text text-anchor="middle" x="576.508" y="-278.786" font-family="Helvetica,sans-Serif" font-size="10.00">1</text>
</a>
</g>
</g>
<!-- dir_06113b60808b1bbb52a01dfd2c3a8657&#45;&gt;dir_35f904a890c1431d13964486334c23a9 -->
<g id="edge45" class="edge"><title>dir_06113b60808b1bbb52a01dfd2c3a8657&#45;&gt;dir_35f904a890c1431d13964486334c23a9</title>
<path fill="none" stroke="black" d="M472.359,-204.34C475.089,-223.268 476.676,-253.833 464,-276 412.472,-366.109 351.859,-345.402 249.732,-384.009"/>
<polygon fill="black" stroke="black" points="248.409,-380.769 240.371,-387.671 250.959,-387.287 248.409,-380.769"/>
<g id="a_edge45&#45;headlabel"><a xlink:href="dir_000067_000075.html" target="_top" xlink:title="2">
<text text-anchor="middle" x="250.722" y="-374.315" font-family="Helvetica,sans-Serif" font-size="10.00">2</text>
</a>
</g>
</g>
<!-- dir_06113b60808b1bbb52a01dfd2c3a8657&#45;&gt;dir_b3c92c43cc8feb1052f624d79df8b6af -->
<g id="edge40" class="edge"><title>dir_06113b60808b1bbb52a01dfd2c3a8657&#45;&gt;dir_b3c92c43cc8feb1052f624d79df8b6af</title>
<path fill="none" stroke="black" d="M457.092,-204.151C443.022,-223.475 418.079,-254.93 391,-276 379.584,-284.883 348.557,-300.341 323.343,-312.278"/>
<polygon fill="black" stroke="black" points="321.58,-309.24 314.017,-316.66 324.556,-315.575 321.58,-309.24"/>
<g id="a_edge40&#45;headlabel"><a xlink:href="dir_000067_000076.html" target="_top" xlink:title="5">
<text text-anchor="middle" x="323.626" y="-302.641" font-family="Helvetica,sans-Serif" font-size="10.00">5</text>
</a>
</g>
</g>
<!-- dir_06113b60808b1bbb52a01dfd2c3a8657&#45;&gt;dir_745a441f70a5ddf403f2f793490dcc6d -->
<g id="edge43" class="edge"><title>dir_06113b60808b1bbb52a01dfd2c3a8657&#45;&gt;dir_745a441f70a5ddf403f2f793490dcc6d</title>
<path fill="none" stroke="black" d="M439.512,-170.996C384.412,-144.828 266.007,-88.5951 206.178,-60.1817"/>
<polygon fill="black" stroke="black" points="207.632,-56.9976 197.098,-55.8692 204.629,-63.3208 207.632,-56.9976"/>
<g id="a_edge43&#45;headlabel"><a xlink:href="dir_000067_000079.html" target="_top" xlink:title="2">
<text text-anchor="middle" x="212.097" y="-53.4749" font-family="Helvetica,sans-Serif" font-size="10.00">2</text>
</a>
</g>
</g>
<!-- dir_06113b60808b1bbb52a01dfd2c3a8657&#45;&gt;dir_652267079d823ee01f6c6cf98db9085b -->
<g id="edge41" class="edge"><title>dir_06113b60808b1bbb52a01dfd2c3a8657&#45;&gt;dir_652267079d823ee01f6c6cf98db9085b</title>
<path fill="none" stroke="black" d="M439.631,-193.549C407.075,-201.558 353.665,-216.959 312,-240 280.152,-257.612 248.46,-284.864 227.526,-304.573"/>
<polygon fill="black" stroke="black" points="224.86,-302.28 220.052,-311.721 229.698,-307.339 224.86,-302.28"/>
<g id="a_edge41&#45;headlabel"><a xlink:href="dir_000067_000081.html" target="_top" xlink:title="4">
<text text-anchor="middle" x="225.495" y="-295.244" font-family="Helvetica,sans-Serif" font-size="10.00">4</text>
</a>
</g>
</g>
<!-- dir_06113b60808b1bbb52a01dfd2c3a8657&#45;&gt;dir_6bc97c5ccce2964f7b25f8377ac95818 -->
<g id="edge46" class="edge"><title>dir_06113b60808b1bbb52a01dfd2c3a8657&#45;&gt;dir_6bc97c5ccce2964f7b25f8377ac95818</title>
<path fill="none" stroke="black" d="M439.45,-186C387.173,-186 334.896,-186 282.619,-186"/>
<polygon fill="black" stroke="black" points="282.512,-182.5 272.512,-186 282.512,-189.5 282.512,-182.5"/>
<g id="a_edge46&#45;headlabel"><a xlink:href="dir_000067_000083.html" target="_top" xlink:title="4">
<text text-anchor="middle" x="286.106" y="-177.161" font-family="Helvetica,sans-Serif" font-size="10.00">4</text>
</a>
</g>
</g>
<!-- dir_06113b60808b1bbb52a01dfd2c3a8657&#45;&gt;dir_a2f0e5642e47e7ed59fe0f0829eafb5f -->
<g id="edge42" class="edge"><title>dir_06113b60808b1bbb52a01dfd2c3a8657&#45;&gt;dir_a2f0e5642e47e7ed59fe0f0829eafb5f</title>
<path fill="none" stroke="black" d="M498.375,-189.491C553.683,-194.856 669.897,-209.56 694,-240 723.797,-277.632 723.273,-309.959 694,-348 674.325,-373.568 583.795,-389.349 531.529,-396.49"/>
<polygon fill="black" stroke="black" points="530.761,-393.061 521.307,-397.843 531.68,-400 530.761,-393.061"/>
<g id="a_edge42&#45;headlabel"><a xlink:href="dir_000067_000020.html" target="_top" xlink:title="16">
<text text-anchor="middle" x="533.952" y="-387.274" font-family="Helvetica,sans-Serif" font-size="10.00">16</text>
</a>
</g>
</g>
<!-- dir_06113b60808b1bbb52a01dfd2c3a8657&#45;&gt;dir_7205f054df4e14abb60715afe3e7e90c -->
<g id="edge44" class="edge"><title>dir_06113b60808b1bbb52a01dfd2c3a8657&#45;&gt;dir_7205f054df4e14abb60715afe3e7e90c</title>
<path fill="none" stroke="black" d="M498.466,-191.22C528.472,-197.369 573.782,-211.335 601,-240 617.085,-256.94 625.474,-282.407 628.231,-301.765"/>
<polygon fill="black" stroke="black" points="624.755,-302.179 629.197,-311.797 631.723,-301.508 624.755,-302.179"/>
<g id="a_edge44&#45;headlabel"><a xlink:href="dir_000067_000065.html" target="_top" xlink:title="3">
<text text-anchor="middle" x="621.585" y="-296.372" font-family="Helvetica,sans-Serif" font-size="10.00">3</text>
</a>
</g>
</g>
<!-- dir_06113b60808b1bbb52a01dfd2c3a8657&#45;&gt;dir_d0f3276f03e9a9cb8f8ba3f2a5ea1262 -->
<g id="edge47" class="edge"><title>dir_06113b60808b1bbb52a01dfd2c3a8657&#45;&gt;dir_d0f3276f03e9a9cb8f8ba3f2a5ea1262</title>
<path fill="none" stroke="black" d="M494.687,-204.104C505.56,-212.72 518.008,-223.316 528.404,-232.755"/>
<polygon fill="black" stroke="black" points="526.18,-235.466 535.893,-239.697 530.938,-230.332 526.18,-235.466"/>
<g id="a_edge47&#45;headlabel"><a xlink:href="dir_000067_000064.html" target="_top" xlink:title="2">
<text text-anchor="middle" x="521.613" y="-232.605" font-family="Helvetica,sans-Serif" font-size="10.00">2</text>
</a>
</g>
</g>
<!-- dir_d0f3276f03e9a9cb8f8ba3f2a5ea1262&#45;&gt;dir_54018506bb725509c19b38b6d9bcf0f6 -->
<g id="edge54" class="edge"><title>dir_d0f3276f03e9a9cb8f8ba3f2a5ea1262&#45;&gt;dir_54018506bb725509c19b38b6d9bcf0f6</title>
<path fill="none" stroke="black" d="M546.598,-276.184C541.669,-296.45 530.546,-329.689 508,-348 454.669,-391.313 371.742,-400.268 323.774,-401.536"/>
<polygon fill="black" stroke="black" points="323.46,-398.041 313.519,-401.704 323.574,-405.04 323.46,-398.041"/>
<g id="a_edge54&#45;headlabel"><a xlink:href="dir_000064_000074.html" target="_top" xlink:title="15">
<text text-anchor="middle" x="327.008" y="-392.643" font-family="Helvetica,sans-Serif" font-size="10.00">15</text>
</a>
</g>
</g>
<!-- dir_d0f3276f03e9a9cb8f8ba3f2a5ea1262&#45;&gt;dir_909774b1a000bf73b2cf501716b773f3 -->
<g id="edge55" class="edge"><title>dir_d0f3276f03e9a9cb8f8ba3f2a5ea1262&#45;&gt;dir_909774b1a000bf73b2cf501716b773f3</title>
<path fill="none" stroke="black" d="M516.574,-258C424.443,-258 332.312,-258 240.18,-258"/>
<polygon fill="black" stroke="black" points="240.109,-254.5 230.109,-258 240.109,-261.5 240.109,-254.5"/>
<g id="a_edge55&#45;headlabel"><a xlink:href="dir_000064_000077.html" target="_top" xlink:title="3">
<text text-anchor="middle" x="243.704" y="-249.161" font-family="Helvetica,sans-Serif" font-size="10.00">3</text>
</a>
</g>
</g>
<!-- dir_d0f3276f03e9a9cb8f8ba3f2a5ea1262&#45;&gt;dir_f6a0a87962fcbf90fc709c1bf5ba5a00 -->
<g id="edge51" class="edge"><title>dir_d0f3276f03e9a9cb8f8ba3f2a5ea1262&#45;&gt;dir_f6a0a87962fcbf90fc709c1bf5ba5a00</title>
<path fill="none" stroke="black" d="M527.867,-276.089C517.853,-283.141 505.48,-290.389 493,-294 425.331,-313.58 244.204,-311.626 176,-294 165.494,-291.285 154.875,-286.467 145.35,-281.222"/>
<polygon fill="black" stroke="black" points="146.996,-278.13 136.594,-276.117 143.47,-284.177 146.996,-278.13"/>
<g id="a_edge51&#45;headlabel"><a xlink:href="dir_000064_000078.html" target="_top" xlink:title="2">
<text text-anchor="middle" x="151.531" y="-274.988" font-family="Helvetica,sans-Serif" font-size="10.00">2</text>
</a>
</g>
</g>
<!-- dir_d0f3276f03e9a9cb8f8ba3f2a5ea1262&#45;&gt;dir_652267079d823ee01f6c6cf98db9085b -->
<g id="edge48" class="edge"><title>dir_d0f3276f03e9a9cb8f8ba3f2a5ea1262&#45;&gt;dir_652267079d823ee01f6c6cf98db9085b</title>
<path fill="none" stroke="black" d="M516.722,-263.84C462.301,-271.427 351.755,-287.796 260,-312 257.06,-312.775 254.044,-313.649 251.003,-314.581"/>
<polygon fill="black" stroke="black" points="249.722,-311.316 241.271,-317.706 251.862,-317.981 249.722,-311.316"/>
<g id="a_edge48&#45;headlabel"><a xlink:href="dir_000064_000081.html" target="_top" xlink:title="6">
<text text-anchor="middle" x="252.277" y="-305.014" font-family="Helvetica,sans-Serif" font-size="10.00">6</text>
</a>
</g>
</g>
<!-- dir_d0f3276f03e9a9cb8f8ba3f2a5ea1262&#45;&gt;dir_6bc97c5ccce2964f7b25f8377ac95818 -->
<g id="edge52" class="edge"><title>dir_d0f3276f03e9a9cb8f8ba3f2a5ea1262&#45;&gt;dir_6bc97c5ccce2964f7b25f8377ac95818</title>
<path fill="none" stroke="black" d="M516.547,-249.772C461.26,-237.828 350.225,-213.839 282.567,-199.221"/>
<polygon fill="black" stroke="black" points="283.017,-195.738 272.503,-197.047 281.539,-202.58 283.017,-195.738"/>
<g id="a_edge52&#45;headlabel"><a xlink:href="dir_000064_000083.html" target="_top" xlink:title="4">
<text text-anchor="middle" x="287.13" y="-191.222" font-family="Helvetica,sans-Serif" font-size="10.00">4</text>
</a>
</g>
</g>
<!-- dir_d0f3276f03e9a9cb8f8ba3f2a5ea1262&#45;&gt;dir_a2f0e5642e47e7ed59fe0f0829eafb5f -->
<g id="edge49" class="edge"><title>dir_d0f3276f03e9a9cb8f8ba3f2a5ea1262&#45;&gt;dir_a2f0e5642e47e7ed59fe0f0829eafb5f</title>
<path fill="none" stroke="black" d="M552.743,-276.21C554.916,-294.757 556.12,-324.74 546,-348 541.266,-358.879 533.215,-368.786 524.843,-377.014"/>
<polygon fill="black" stroke="black" points="522.465,-374.446 517.479,-383.795 527.207,-379.596 522.465,-374.446"/>
<g id="a_edge49&#45;headlabel"><a xlink:href="dir_000064_000020.html" target="_top" xlink:title="15">
<text text-anchor="middle" x="523.186" y="-367.423" font-family="Helvetica,sans-Serif" font-size="10.00">15</text>
</a>
</g>
</g>
<!-- dir_d0f3276f03e9a9cb8f8ba3f2a5ea1262&#45;&gt;dir_7205f054df4e14abb60715afe3e7e90c -->
<g id="edge50" class="edge"><title>dir_d0f3276f03e9a9cb8f8ba3f2a5ea1262&#45;&gt;dir_7205f054df4e14abb60715afe3e7e90c</title>
<path fill="none" stroke="black" d="M574.221,-276.104C584.256,-284.636 595.67,-295.108 605.2,-304.478"/>
<polygon fill="black" stroke="black" points="602.844,-307.072 612.376,-311.697 607.808,-302.137 602.844,-307.072"/>
<g id="a_edge50&#45;headlabel"><a xlink:href="dir_000064_000065.html" target="_top" xlink:title="1">
<text text-anchor="middle" x="598.296" y="-304.025" font-family="Helvetica,sans-Serif" font-size="10.00">1</text>
</a>
</g>
</g>
<!-- dir_d0f3276f03e9a9cb8f8ba3f2a5ea1262&#45;&gt;dir_06113b60808b1bbb52a01dfd2c3a8657 -->
<g id="edge53" class="edge"><title>dir_d0f3276f03e9a9cb8f8ba3f2a5ea1262&#45;&gt;dir_06113b60808b1bbb52a01dfd2c3a8657</title>
<path fill="none" stroke="black" d="M524.062,-239.697C513.165,-231.05 500.72,-220.449 490.357,-211.027"/>
<polygon fill="black" stroke="black" points="492.608,-208.341 482.897,-204.104 487.846,-213.472 492.608,-208.341"/>
<g id="a_edge53&#45;headlabel"><a xlink:href="dir_000064_000067.html" target="_top" xlink:title="2">
<text text-anchor="middle" x="497.174" y="-206.205" font-family="Helvetica,sans-Serif" font-size="10.00">2</text>
</a>
</g>
</g>
</g>
</svg>
