<?xml version="1.0" encoding="UTF-8" standalone="no"?>
<!DOCTYPE svg PUBLIC "-//W3C//DTD SVG 1.1//EN"
 "http://www.w3.org/Graphics/SVG/1.1/DTD/svg11.dtd">
<!-- Generated by graphviz version 2.36.0 (20140111.2315)
 -->
<!-- Title: /home/travis/build/STORM&#45;IRIT/Radium&#45;Engine/src/Core/Geometry/Approximation Pages: 1 -->
<svg width="216pt" height="223pt"
 viewBox="0.00 0.00 216.00 223.00" xmlns="http://www.w3.org/2000/svg" xmlns:xlink="http://www.w3.org/1999/xlink">
<g id="graph0" class="graph" transform="scale(1 1) rotate(0) translate(4 219)">
<title>/home/travis/build/STORM&#45;IRIT/Radium&#45;Engine/src/Core/Geometry/Approximation</title>
<polygon fill="white" stroke="none" points="-4,4 -4,-219 212,-219 212,4 -4,4"/>
<g id="clust1" class="cluster"><title>clusterdir_cb2b5dfd43482fb277f6333d539f1f06</title>
<g id="a_clust1"><a xlink:href="dir_cb2b5dfd43482fb277f6333d539f1f06.html" target="_top" xlink:title="Geometry">
<polygon fill="#ddddee" stroke="black" points="67,-136 67,-207 161,-207 161,-136 67,-136"/>
<text text-anchor="middle" x="114" y="-195" font-family="Helvetica,sans-Serif" font-size="10.00">Geometry</text>
</a>
</g>
</g>
<!-- dir_9a3ae4489194236ee73c60aa2860961a -->
<g id="node1" class="node"><title>dir_9a3ae4489194236ee73c60aa2860961a</title>
<g id="a_node1"><a xlink:href="dir_9a3ae4489194236ee73c60aa2860961a.html" target="_top" xlink:title="Approximation">
<polygon fill="#eeeeff" stroke="black" points="153.25,-180 74.75,-180 74.75,-144 153.25,-144 153.25,-180"/>
<text text-anchor="middle" x="114" y="-159.5" font-family="Helvetica,sans-Serif" font-size="10.00">Approximation</text>
</a>
</g>
</g>
<!-- dir_1456dd235032e023892318efbecb420b -->
<g id="node2" class="node"><title>dir_1456dd235032e023892318efbecb420b</title>
<g id="a_node2"><a xlink:href="dir_1456dd235032e023892318efbecb420b.html" target="_top" xlink:title="Containers">
<polygon fill="none" stroke="black" points="64,-36 0,-36 0,-0 64,-0 64,-36"/>
<text text-anchor="middle" x="32" y="-15.5" font-family="Helvetica,sans-Serif" font-size="10.00">Containers</text>
</a>
</g>
</g>
<!-- dir_9a3ae4489194236ee73c60aa2860961a&#45;&gt;dir_1456dd235032e023892318efbecb420b -->
<g id="edge4" class="edge"><title>dir_9a3ae4489194236ee73c60aa2860961a&#45;&gt;dir_1456dd235032e023892318efbecb420b</title>
<path fill="none" stroke="black" d="M86.0647,-143.772C73.5094,-134.639 59.6102,-122.336 51,-108 39.7797,-89.3182 35.1346,-64.9314 33.2366,-46.4104"/>
<polygon fill="black" stroke="black" points="36.7109,-45.9523 32.4075,-36.2708 29.7342,-46.5228 36.7109,-45.9523"/>
<g id="a_edge4&#45;headlabel"><a xlink:href="dir_000040_000033.html" target="_top" xlink:title="1">
<text text-anchor="middle" x="39.8335" y="-46.8036" font-family="Helvetica,sans-Serif" font-size="10.00">1</text>
</a>
</g>
</g>
<!-- dir_d080e052e6032887076b6b5756e5361d -->
<g id="node3" class="node"><title>dir_d080e052e6032887076b6b5756e5361d</title>
<g id="a_node3"><a xlink:href="dir_d080e052e6032887076b6b5756e5361d.html" target="_top" xlink:title="Mesh">
<polygon fill="white" stroke="red" points="114,-108 60,-108 60,-72 114,-72 114,-108"/>
<text text-anchor="middle" x="87" y="-87.5" font-family="Helvetica,sans-Serif" font-size="10.00">Mesh</text>
</a>
</g>
</g>
<!-- dir_9a3ae4489194236ee73c60aa2860961a&#45;&gt;dir_d080e052e6032887076b6b5756e5361d -->
<g id="edge5" class="edge"><title>dir_9a3ae4489194236ee73c60aa2860961a&#45;&gt;dir_d080e052e6032887076b6b5756e5361d</title>
<path fill="none" stroke="black" d="M107.326,-143.697C104.285,-135.813 100.617,-126.304 97.2393,-117.546"/>
<polygon fill="black" stroke="black" points="100.462,-116.175 93.5974,-108.104 93.9307,-118.694 100.462,-116.175"/>
<g id="a_edge5&#45;headlabel"><a xlink:href="dir_000040_000054.html" target="_top" xlink:title="1">
<text text-anchor="middle" x="104.404" y="-116.007" font-family="Helvetica,sans-Serif" font-size="10.00">1</text>
</a>
</g>
</g>
<!-- dir_1efe152df2f2e9cd3517b1174a4598d7 -->
<g id="node4" class="node"><title>dir_1efe152df2f2e9cd3517b1174a4598d7</title>
<g id="a_node4"><a xlink:href="dir_1efe152df2f2e9cd3517b1174a4598d7.html" target="_top" xlink:title="Log">
<polygon fill="none" stroke="black" points="136,-36 82,-36 82,-0 136,-0 136,-36"/>
<text text-anchor="middle" x="109" y="-15.5" font-family="Helvetica,sans-Serif" font-size="10.00">Log</text>
</a>
</g>
</g>
<!-- dir_9a3ae4489194236ee73c60aa2860961a&#45;&gt;dir_1efe152df2f2e9cd3517b1174a4598d7 -->
<g id="edge6" class="edge"><title>dir_9a3ae4489194236ee73c60aa2860961a&#45;&gt;dir_1efe152df2f2e9cd3517b1174a4598d7</title>
<path fill="none" stroke="black" d="M118.06,-143.905C121.775,-125.962 126.24,-96.9495 123,-72 121.897,-63.506 119.839,-54.4338 117.634,-46.2397"/>
<polygon fill="black" stroke="black" points="120.945,-45.0872 114.824,-36.4397 114.216,-47.0172 120.945,-45.0872"/>
<g id="a_edge6&#45;headlabel"><a xlink:href="dir_000040_000052.html" target="_top" xlink:title="1">
<text text-anchor="middle" x="124.665" y="-45.2597" font-family="Helvetica,sans-Serif" font-size="10.00">1</text>
</a>
</g>
</g>
<!-- dir_35ff2dd0a6e4899b08d0fedbc94a27f7 -->
<g id="node5" class="node"><title>dir_35ff2dd0a6e4899b08d0fedbc94a27f7</title>
<g id="a_node5"><a xlink:href="dir_35ff2dd0a6e4899b08d0fedbc94a27f7.html" target="_top" xlink:title="Triangle">
<polygon fill="none" stroke="black" points="208,-36 154,-36 154,-0 208,-0 208,-36"/>
<text text-anchor="middle" x="181" y="-15.5" font-family="Helvetica,sans-Serif" font-size="10.00">Triangle</text>
</a>
</g>
</g>
<!-- dir_9a3ae4489194236ee73c60aa2860961a&#45;&gt;dir_35ff2dd0a6e4899b08d0fedbc94a27f7 -->
<g id="edge7" class="edge"><title>dir_9a3ae4489194236ee73c60aa2860961a&#45;&gt;dir_35ff2dd0a6e4899b08d0fedbc94a27f7</title>
<path fill="none" stroke="black" d="M122.082,-143.871C133.652,-119.35 155.034,-74.0321 168.61,-45.2589"/>
<polygon fill="black" stroke="black" points="171.788,-46.7267 172.89,-36.1893 165.457,-43.7396 171.788,-46.7267"/>
<g id="a_edge7&#45;headlabel"><a xlink:href="dir_000040_000050.html" target="_top" xlink:title="1">
<text text-anchor="middle" x="172.822" y="-48.6891" font-family="Helvetica,sans-Serif" font-size="10.00">1</text>
</a>
</g>
</g>
<!-- dir_d080e052e6032887076b6b5756e5361d&#45;&gt;dir_1456dd235032e023892318efbecb420b -->
<g id="edge1" class="edge"><title>dir_d080e052e6032887076b6b5756e5361d&#45;&gt;dir_1456dd235032e023892318efbecb420b</title>
<path fill="none" stroke="black" d="M73.4045,-71.6966C66.8773,-63.3893 58.932,-53.2771 51.7534,-44.1407"/>
<polygon fill="black" stroke="black" points="54.3695,-41.8051 45.4391,-36.1043 48.8653,-46.1299 54.3695,-41.8051"/>
<g id="a_edge1&#45;headlabel"><a xlink:href="dir_000054_000033.html" target="_top" xlink:title="2">
<text text-anchor="middle" x="58.8229" y="-40.3775" font-family="Helvetica,sans-Serif" font-size="10.00">2</text>
</a>
</g>
</g>
<!-- dir_d080e052e6032887076b6b5756e5361d&#45;&gt;dir_1efe152df2f2e9cd3517b1174a4598d7 -->
<g id="edge2" class="edge"><title>dir_d080e052e6032887076b6b5756e5361d&#45;&gt;dir_1efe152df2f2e9cd3517b1174a4598d7</title>
<path fill="none" stroke="black" d="M92.4382,-71.6966C94.8892,-63.8979 97.8402,-54.5085 100.568,-45.8292"/>
<polygon fill="black" stroke="black" points="103.965,-46.6937 103.624,-36.1043 97.287,-44.5949 103.965,-46.6937"/>
<g id="a_edge2&#45;headlabel"><a xlink:href="dir_000054_000052.html" target="_top" xlink:title="3">
<text text-anchor="middle" x="105.596" y="-48.4742" font-family="Helvetica,sans-Serif" font-size="10.00">3</text>
</a>
</g>
</g>
<!-- dir_d080e052e6032887076b6b5756e5361d&#45;&gt;dir_35ff2dd0a6e4899b08d0fedbc94a27f7 -->
<g id="edge3" class="edge"><title>dir_d080e052e6032887076b6b5756e5361d&#45;&gt;dir_35ff2dd0a6e4899b08d0fedbc94a27f7</title>
<path fill="none" stroke="black" d="M110.236,-71.6966C122.188,-62.796 136.923,-51.8232 149.847,-42.1989"/>
<polygon fill="black" stroke="black" points="152.101,-44.8842 158.031,-36.1043 147.92,-39.2699 152.101,-44.8842"/>
<g id="a_edge3&#45;headlabel"><a xlink:href="dir_000054_000050.html" target="_top" xlink:title="1">
<text text-anchor="middle" x="150.914" y="-46.8083" font-family="Helvetica,sans-Serif" font-size="10.00">1</text>
</a>
</g>
</g>
</g>
</svg>
