<?xml version="1.0" encoding="UTF-8" standalone="no"?>
<!DOCTYPE svg PUBLIC "-//W3C//DTD SVG 1.1//EN"
 "http://www.w3.org/Graphics/SVG/1.1/DTD/svg11.dtd">
<!-- Generated by graphviz version 2.36.0 (20140111.2315)
 -->
<!-- Title: /home/travis/build/STORM&#45;IRIT/Radium&#45;Engine/src/Engine/Renderer/Light/DirLight.cpp Pages: 1 -->
<svg width="2379pt" height="638pt"
 viewBox="0.00 0.00 2379.00 638.00" xmlns="http://www.w3.org/2000/svg" xmlns:xlink="http://www.w3.org/1999/xlink">
<g id="graph0" class="graph" transform="scale(1 1) rotate(0) translate(4 634)">
<title>/home/travis/build/STORM&#45;IRIT/Radium&#45;Engine/src/Engine/Renderer/Light/DirLight.cpp</title>
<polygon fill="white" stroke="none" points="-4,4 -4,-634 2375,-634 2375,4 -4,4"/>
<!-- Node1 -->
<g id="node1" class="node"><title>Node1</title>
<polygon fill="#bfbfbf" stroke="black" points="1009,-577 1009,-629 1157,-629 1157,-577 1009,-577"/>
<text text-anchor="start" x="1017" y="-617" font-family="Helvetica,sans-Serif" font-size="10.00">/home/travis/build</text>
<text text-anchor="start" x="1017" y="-606" font-family="Helvetica,sans-Serif" font-size="10.00">/STORM&#45;IRIT/Radium&#45;Engine</text>
<text text-anchor="start" x="1017" y="-595" font-family="Helvetica,sans-Serif" font-size="10.00">/src/Engine/Renderer/Light</text>
<text text-anchor="middle" x="1083" y="-584" font-family="Helvetica,sans-Serif" font-size="10.00">/DirLight.cpp</text>
</g>
<!-- Node2 -->
<g id="node2" class="node"><title>Node2</title>
<g id="a_node2"><a xlink:href="DirLight_8hpp.html" target="_top" xlink:title="Engine/Renderer/Light\l/DirLight.hpp">
<polygon fill="white" stroke="black" points="915.5,-509 915.5,-539 1028.5,-539 1028.5,-509 915.5,-509"/>
<text text-anchor="start" x="923.5" y="-527" font-family="Helvetica,sans-Serif" font-size="10.00">Engine/Renderer/Light</text>
<text text-anchor="middle" x="972" y="-516" font-family="Helvetica,sans-Serif" font-size="10.00">/DirLight.hpp</text>
</a>
</g>
</g>
<!-- Node1&#45;&gt;Node2 -->
<g id="edge1" class="edge"><title>Node1&#45;&gt;Node2</title>
<path fill="none" stroke="midnightblue" d="M1046.65,-576.787C1031.68,-566.399 1014.58,-554.54 1000.53,-544.794"/>
<polygon fill="midnightblue" stroke="midnightblue" points="1002.44,-541.855 992.226,-539.031 998.448,-547.606 1002.44,-541.855"/>
</g>
<!-- Node30 -->
<g id="node30" class="node"><title>Node30</title>
<g id="a_node30"><a xlink:href="RenderParameters_8hpp.html" target="_top" xlink:title="Engine/Renderer/RenderTechnique\l/RenderParameters.hpp">
<polygon fill="white" stroke="black" points="1397.5,-441 1397.5,-471 1566.5,-471 1566.5,-441 1397.5,-441"/>
<text text-anchor="start" x="1405.5" y="-459" font-family="Helvetica,sans-Serif" font-size="10.00">Engine/Renderer/RenderTechnique</text>
<text text-anchor="middle" x="1482" y="-448" font-family="Helvetica,sans-Serif" font-size="10.00">/RenderParameters.hpp</text>
</a>
</g>
</g>
<!-- Node1&#45;&gt;Node30 -->
<g id="edge40" class="edge"><title>Node1&#45;&gt;Node30</title>
<path fill="none" stroke="midnightblue" d="M1152.04,-576.908C1232.57,-547.646 1363.59,-500.033 1433.85,-474.497"/>
<polygon fill="midnightblue" stroke="midnightblue" points="1435.15,-477.75 1443.35,-471.045 1432.76,-471.171 1435.15,-477.75"/>
</g>
<!-- Node3 -->
<g id="node3" class="node"><title>Node3</title>
<g id="a_node3"><a xlink:href="RaEngine_8hpp.html" target="_top" xlink:title="Engine/RaEngine.hpp">
<polygon fill="white" stroke="black" points="1032.5,-174.5 1032.5,-193.5 1143.5,-193.5 1143.5,-174.5 1032.5,-174.5"/>
<text text-anchor="middle" x="1088" y="-181.5" font-family="Helvetica,sans-Serif" font-size="10.00">Engine/RaEngine.hpp</text>
</a>
</g>
</g>
<!-- Node2&#45;&gt;Node3 -->
<g id="edge2" class="edge"><title>Node2&#45;&gt;Node3</title>
<path fill="none" stroke="midnightblue" d="M979.887,-508.616C992.301,-484.59 1015,-434.444 1015,-389 1015,-389 1015,-389 1015,-319 1015,-271.367 1051.01,-224.543 1072.45,-200.888"/>
<polygon fill="midnightblue" stroke="midnightblue" points="1075.06,-203.217 1079.34,-193.524 1069.95,-198.434 1075.06,-203.217"/>
</g>
<!-- Node10 -->
<g id="node10" class="node"><title>Node10</title>
<g id="a_node10"><a xlink:href="Light_8hpp.html" target="_top" xlink:title="Engine/Renderer/Light\l/Light.hpp">
<polygon fill="white" stroke="black" points="742.5,-441 742.5,-471 855.5,-471 855.5,-441 742.5,-441"/>
<text text-anchor="start" x="750.5" y="-459" font-family="Helvetica,sans-Serif" font-size="10.00">Engine/Renderer/Light</text>
<text text-anchor="middle" x="799" y="-448" font-family="Helvetica,sans-Serif" font-size="10.00">/Light.hpp</text>
</a>
</g>
</g>
<!-- Node2&#45;&gt;Node10 -->
<g id="edge9" class="edge"><title>Node2&#45;&gt;Node10</title>
<path fill="none" stroke="midnightblue" d="M934.887,-508.841C908.688,-498.846 873.398,-485.383 845.347,-474.682"/>
<polygon fill="midnightblue" stroke="midnightblue" points="846.345,-471.316 835.754,-471.022 843.85,-477.856 846.345,-471.316"/>
</g>
<!-- Node29 -->
<g id="node29" class="node"><title>Node29</title>
<g id="a_node29"><a xlink:href="DirLight_8inl.html" target="_top" xlink:title="Engine/Renderer/Light\l/DirLight.inl">
<polygon fill="white" stroke="black" points="873.5,-441 873.5,-471 986.5,-471 986.5,-441 873.5,-441"/>
<text text-anchor="start" x="881.5" y="-459" font-family="Helvetica,sans-Serif" font-size="10.00">Engine/Renderer/Light</text>
<text text-anchor="middle" x="930" y="-448" font-family="Helvetica,sans-Serif" font-size="10.00">/DirLight.inl</text>
</a>
</g>
</g>
<!-- Node2&#45;&gt;Node29 -->
<g id="edge39" class="edge"><title>Node2&#45;&gt;Node29</title>
<path fill="none" stroke="midnightblue" d="M962.887,-508.679C957.548,-500.29 950.681,-489.499 944.604,-479.949"/>
<polygon fill="midnightblue" stroke="midnightblue" points="947.417,-477.851 939.096,-471.293 941.512,-481.609 947.417,-477.851"/>
</g>
<!-- Node4 -->
<g id="node4" class="node"><title>Node4</title>
<g id="a_node4"><a xlink:href="CoreMacros_8hpp.html" target="_top" xlink:title="Core/CoreMacros.hpp">
<polygon fill="white" stroke="black" points="1031.5,-56.5 1031.5,-75.5 1144.5,-75.5 1144.5,-56.5 1031.5,-56.5"/>
<text text-anchor="middle" x="1088" y="-63.5" font-family="Helvetica,sans-Serif" font-size="10.00">Core/CoreMacros.hpp</text>
</a>
</g>
</g>
<!-- Node3&#45;&gt;Node4 -->
<g id="edge3" class="edge"><title>Node3&#45;&gt;Node4</title>
<path fill="none" stroke="midnightblue" d="M1088,-174.281C1088,-155.547 1088,-111.098 1088,-85.6822"/>
<polygon fill="midnightblue" stroke="midnightblue" points="1091.5,-85.5047 1088,-75.5048 1084.5,-85.5048 1091.5,-85.5047"/>
</g>
<!-- Node5 -->
<g id="node5" class="node"><title>Node5</title>
<polygon fill="white" stroke="#bfbfbf" points="1050.5,-0.5 1050.5,-19.5 1099.5,-19.5 1099.5,-0.5 1050.5,-0.5"/>
<text text-anchor="middle" x="1075" y="-7.5" font-family="Helvetica,sans-Serif" font-size="10.00">cassert</text>
</g>
<!-- Node4&#45;&gt;Node5 -->
<g id="edge4" class="edge"><title>Node4&#45;&gt;Node5</title>
<path fill="none" stroke="midnightblue" d="M1085.85,-56.083C1084.13,-48.9272 1081.65,-38.6353 1079.5,-29.6911"/>
<polygon fill="midnightblue" stroke="midnightblue" points="1082.85,-28.6541 1077.11,-19.7511 1076.04,-30.2925 1082.85,-28.6541"/>
</g>
<!-- Node6 -->
<g id="node6" class="node"><title>Node6</title>
<polygon fill="white" stroke="#bfbfbf" points="1117.5,-0.5 1117.5,-19.5 1160.5,-19.5 1160.5,-0.5 1117.5,-0.5"/>
<text text-anchor="middle" x="1139" y="-7.5" font-family="Helvetica,sans-Serif" font-size="10.00">cstdio</text>
</g>
<!-- Node4&#45;&gt;Node6 -->
<g id="edge5" class="edge"><title>Node4&#45;&gt;Node6</title>
<path fill="none" stroke="midnightblue" d="M1096.42,-56.083C1103.85,-48.2195 1114.85,-36.5688 1123.81,-27.0813"/>
<polygon fill="midnightblue" stroke="midnightblue" points="1126.41,-29.4244 1130.74,-19.7511 1121.32,-24.618 1126.41,-29.4244"/>
</g>
<!-- Node7 -->
<g id="node7" class="node"><title>Node7</title>
<polygon fill="white" stroke="#bfbfbf" points="1179,-0.5 1179,-19.5 1233,-19.5 1233,-0.5 1179,-0.5"/>
<text text-anchor="middle" x="1206" y="-7.5" font-family="Helvetica,sans-Serif" font-size="10.00">iostream</text>
</g>
<!-- Node4&#45;&gt;Node7 -->
<g id="edge6" class="edge"><title>Node4&#45;&gt;Node7</title>
<path fill="none" stroke="midnightblue" d="M1106.7,-56.4435C1125.94,-47.6356 1156.15,-33.8116 1178.2,-23.722"/>
<polygon fill="midnightblue" stroke="midnightblue" points="1179.75,-26.8603 1187.39,-19.5164 1176.84,-20.4951 1179.75,-26.8603"/>
</g>
<!-- Node8 -->
<g id="node8" class="node"><title>Node8</title>
<polygon fill="white" stroke="#bfbfbf" points="1260,-0.5 1260,-19.5 1312,-19.5 1312,-0.5 1260,-0.5"/>
<text text-anchor="middle" x="1286" y="-7.5" font-family="Helvetica,sans-Serif" font-size="10.00">sstream</text>
</g>
<!-- Node4&#45;&gt;Node8 -->
<g id="edge7" class="edge"><title>Node4&#45;&gt;Node8</title>
<path fill="none" stroke="midnightblue" d="M1119.37,-56.4435C1154.86,-46.7662 1212.54,-31.0336 1249.88,-20.8518"/>
<polygon fill="midnightblue" stroke="midnightblue" points="1251.1,-24.1447 1259.83,-18.1368 1249.26,-17.3914 1251.1,-24.1447"/>
</g>
<!-- Node9 -->
<g id="node9" class="node"><title>Node9</title>
<polygon fill="white" stroke="#bfbfbf" points="988,-0.5 988,-19.5 1032,-19.5 1032,-0.5 988,-0.5"/>
<text text-anchor="middle" x="1010" y="-7.5" font-family="Helvetica,sans-Serif" font-size="10.00">thread</text>
</g>
<!-- Node4&#45;&gt;Node9 -->
<g id="edge8" class="edge"><title>Node4&#45;&gt;Node9</title>
<path fill="none" stroke="midnightblue" d="M1075.47,-56.324C1063.41,-47.979 1044.97,-35.2122 1030.73,-25.3524"/>
<polygon fill="midnightblue" stroke="midnightblue" points="1032.72,-22.469 1022.5,-19.6545 1028.73,-28.2243 1032.72,-22.469"/>
</g>
<!-- Node10&#45;&gt;Node3 -->
<g id="edge37" class="edge"><title>Node10&#45;&gt;Node3</title>
<path fill="none" stroke="midnightblue" d="M853.646,-440.991C876.019,-433.076 900.857,-421.22 919,-404 979.264,-346.803 944.528,-296.944 1001,-236 1016.36,-219.421 1038.35,-206.594 1056.38,-197.951"/>
<polygon fill="midnightblue" stroke="midnightblue" points="1058.29,-200.928 1065.92,-193.582 1055.37,-194.563 1058.29,-200.928"/>
</g>
<!-- Node11 -->
<g id="node11" class="node"><title>Node11</title>
<g id="a_node11"><a xlink:href="LinearAlgebra_8hpp.html" target="_top" xlink:title="Core/Math/LinearAlgebra.hpp">
<polygon fill="white" stroke="black" points="559.5,-242.5 559.5,-261.5 702.5,-261.5 702.5,-242.5 559.5,-242.5"/>
<text text-anchor="middle" x="631" y="-249.5" font-family="Helvetica,sans-Serif" font-size="10.00">Core/Math/LinearAlgebra.hpp</text>
</a>
</g>
</g>
<!-- Node10&#45;&gt;Node11 -->
<g id="edge10" class="edge"><title>Node10&#45;&gt;Node11</title>
<path fill="none" stroke="midnightblue" d="M787.187,-440.796C756.912,-404.394 676.681,-307.926 644.568,-269.314"/>
<polygon fill="midnightblue" stroke="midnightblue" points="647.235,-267.047 638.15,-261.597 641.853,-271.523 647.235,-267.047"/>
</g>
<!-- Node23 -->
<g id="node23" class="node"><title>Node23</title>
<g id="a_node23"><a xlink:href="Component_8hpp.html" target="_top" xlink:title="Engine/Component/Component.hpp">
<polygon fill="white" stroke="black" points="434,-378.5 434,-397.5 606,-397.5 606,-378.5 434,-378.5"/>
<text text-anchor="middle" x="520" y="-385.5" font-family="Helvetica,sans-Serif" font-size="10.00">Engine/Component/Component.hpp</text>
</a>
</g>
</g>
<!-- Node10&#45;&gt;Node23 -->
<g id="edge25" class="edge"><title>Node10&#45;&gt;Node23</title>
<path fill="none" stroke="midnightblue" d="M742.204,-441.564C690.291,-429.284 614.464,-411.346 566.182,-399.925"/>
<polygon fill="midnightblue" stroke="midnightblue" points="566.853,-396.487 556.316,-397.591 565.242,-403.299 566.853,-396.487"/>
</g>
<!-- Node28 -->
<g id="node28" class="node"><title>Node28</title>
<g id="a_node28"><a xlink:href="Light_8inl.html" target="_top" xlink:title="Engine/Renderer/Light\l/Light.inl">
<polygon fill="white" stroke="black" points="797.5,-373 797.5,-403 910.5,-403 910.5,-373 797.5,-373"/>
<text text-anchor="start" x="805.5" y="-391" font-family="Helvetica,sans-Serif" font-size="10.00">Engine/Renderer/Light</text>
<text text-anchor="middle" x="854" y="-380" font-family="Helvetica,sans-Serif" font-size="10.00">/Light.inl</text>
</a>
</g>
</g>
<!-- Node10&#45;&gt;Node28 -->
<g id="edge38" class="edge"><title>Node10&#45;&gt;Node28</title>
<path fill="none" stroke="midnightblue" d="M810.934,-440.679C818.141,-432.03 827.476,-420.829 835.611,-411.067"/>
<polygon fill="midnightblue" stroke="midnightblue" points="838.376,-413.216 842.089,-403.293 832.998,-408.735 838.376,-413.216"/>
</g>
<!-- Node12 -->
<g id="node12" class="node"><title>Node12</title>
<g id="a_node12"><a xlink:href="RaCore_8hpp.html" target="_top" xlink:title="Core/RaCore.hpp">
<polygon fill="white" stroke="black" points="961.5,-112.5 961.5,-131.5 1054.5,-131.5 1054.5,-112.5 961.5,-112.5"/>
<text text-anchor="middle" x="1008" y="-119.5" font-family="Helvetica,sans-Serif" font-size="10.00">Core/RaCore.hpp</text>
</a>
</g>
</g>
<!-- Node11&#45;&gt;Node12 -->
<g id="edge11" class="edge"><title>Node11&#45;&gt;Node12</title>
<path fill="none" stroke="midnightblue" d="M677.811,-242.497C690.511,-240.283 704.269,-237.968 717,-236 776.168,-226.855 938.26,-238.631 984,-200 1000.93,-185.702 1006.1,-159.657 1007.58,-141.852"/>
<polygon fill="midnightblue" stroke="midnightblue" points="1011.08,-141.946 1008.1,-131.779 1004.09,-141.584 1011.08,-141.946"/>
</g>
<!-- Node13 -->
<g id="node13" class="node"><title>Node13</title>
<polygon fill="white" stroke="#bfbfbf" points="434.5,-174.5 434.5,-193.5 499.5,-193.5 499.5,-174.5 434.5,-174.5"/>
<text text-anchor="middle" x="467" y="-181.5" font-family="Helvetica,sans-Serif" font-size="10.00">Eigen/Core</text>
</g>
<!-- Node11&#45;&gt;Node13 -->
<g id="edge13" class="edge"><title>Node11&#45;&gt;Node13</title>
<path fill="none" stroke="midnightblue" d="M609.56,-242.372C580.997,-230.877 530.286,-210.469 497.679,-197.346"/>
<polygon fill="midnightblue" stroke="midnightblue" points="498.769,-194.012 488.186,-193.526 496.156,-200.506 498.769,-194.012"/>
</g>
<!-- Node14 -->
<g id="node14" class="node"><title>Node14</title>
<polygon fill="white" stroke="#bfbfbf" points="204.5,-174.5 204.5,-193.5 291.5,-193.5 291.5,-174.5 204.5,-174.5"/>
<text text-anchor="middle" x="248" y="-181.5" font-family="Helvetica,sans-Serif" font-size="10.00">Eigen/Geometry</text>
</g>
<!-- Node11&#45;&gt;Node14 -->
<g id="edge14" class="edge"><title>Node11&#45;&gt;Node14</title>
<path fill="none" stroke="midnightblue" d="M559.403,-242.507C492.244,-233.935 389.221,-219.225 301,-200 295.933,-198.896 290.634,-197.586 285.428,-196.208"/>
<polygon fill="midnightblue" stroke="midnightblue" points="286.191,-192.787 275.62,-193.508 284.333,-199.536 286.191,-192.787"/>
</g>
<!-- Node15 -->
<g id="node15" class="node"><title>Node15</title>
<polygon fill="white" stroke="#bfbfbf" points="517.5,-174.5 517.5,-193.5 592.5,-193.5 592.5,-174.5 517.5,-174.5"/>
<text text-anchor="middle" x="555" y="-181.5" font-family="Helvetica,sans-Serif" font-size="10.00">Eigen/Sparse</text>
</g>
<!-- Node11&#45;&gt;Node15 -->
<g id="edge15" class="edge"><title>Node11&#45;&gt;Node15</title>
<path fill="none" stroke="midnightblue" d="M621.064,-242.372C608.843,-231.758 587.87,-213.545 572.832,-200.485"/>
<polygon fill="midnightblue" stroke="midnightblue" points="575.026,-197.755 565.181,-193.841 570.436,-203.041 575.026,-197.755"/>
</g>
<!-- Node16 -->
<g id="node16" class="node"><title>Node16</title>
<polygon fill="white" stroke="#bfbfbf" points="610.5,-174.5 610.5,-193.5 669.5,-193.5 669.5,-174.5 610.5,-174.5"/>
<text text-anchor="middle" x="640" y="-181.5" font-family="Helvetica,sans-Serif" font-size="10.00">functional</text>
</g>
<!-- Node11&#45;&gt;Node16 -->
<g id="edge16" class="edge"><title>Node11&#45;&gt;Node16</title>
<path fill="none" stroke="midnightblue" d="M632.177,-242.372C633.503,-232.643 635.701,-216.528 637.429,-203.85"/>
<polygon fill="midnightblue" stroke="midnightblue" points="640.911,-204.222 638.794,-193.841 633.975,-203.276 640.911,-204.222"/>
</g>
<!-- Node17 -->
<g id="node17" class="node"><title>Node17</title>
<polygon fill="white" stroke="#bfbfbf" points="687.5,-169 687.5,-199 820.5,-199 820.5,-169 687.5,-169"/>
<text text-anchor="start" x="695.5" y="-187" font-family="Helvetica,sans-Serif" font-size="10.00">unsupported/Eigen/Aligned</text>
<text text-anchor="middle" x="754" y="-176" font-family="Helvetica,sans-Serif" font-size="10.00">Vector3</text>
</g>
<!-- Node11&#45;&gt;Node17 -->
<g id="edge17" class="edge"><title>Node11&#45;&gt;Node17</title>
<path fill="none" stroke="midnightblue" d="M647.08,-242.372C665.131,-232.686 694.977,-216.671 718.555,-204.019"/>
<polygon fill="midnightblue" stroke="midnightblue" points="720.414,-206.994 727.571,-199.181 717.104,-200.826 720.414,-206.994"/>
</g>
<!-- Node18 -->
<g id="node18" class="node"><title>Node18</title>
<g id="a_node18"><a xlink:href="Math_8hpp.html" target="_top" xlink:title="Core/Math/Math.hpp">
<polygon fill="white" stroke="black" points="310,-174.5 310,-193.5 416,-193.5 416,-174.5 310,-174.5"/>
<text text-anchor="middle" x="363" y="-181.5" font-family="Helvetica,sans-Serif" font-size="10.00">Core/Math/Math.hpp</text>
</a>
</g>
</g>
<!-- Node11&#45;&gt;Node18 -->
<g id="edge18" class="edge"><title>Node11&#45;&gt;Node18</title>
<path fill="none" stroke="midnightblue" d="M596.238,-242.439C547.94,-230.545 460.508,-209.013 407.5,-195.959"/>
<polygon fill="midnightblue" stroke="midnightblue" points="408.247,-192.538 397.7,-193.546 406.573,-199.335 408.247,-192.538"/>
</g>
<!-- Node22 -->
<g id="node22" class="node"><title>Node22</title>
<g id="a_node22"><a xlink:href="LinearAlgebra_8inl.html" target="_top" xlink:title="Core/Math/LinearAlgebra.inl">
<polygon fill="white" stroke="black" points="838.5,-174.5 838.5,-193.5 975.5,-193.5 975.5,-174.5 838.5,-174.5"/>
<text text-anchor="middle" x="907" y="-181.5" font-family="Helvetica,sans-Serif" font-size="10.00">Core/Math/LinearAlgebra.inl</text>
</a>
</g>
</g>
<!-- Node11&#45;&gt;Node22 -->
<g id="edge24" class="edge"><title>Node11&#45;&gt;Node22</title>
<path fill="none" stroke="midnightblue" d="M666.799,-242.439C716.643,-230.52 806.956,-208.924 861.511,-195.878"/>
<polygon fill="midnightblue" stroke="midnightblue" points="862.352,-199.275 871.264,-193.546 860.724,-192.467 862.352,-199.275"/>
</g>
<!-- Node12&#45;&gt;Node4 -->
<g id="edge12" class="edge"><title>Node12&#45;&gt;Node4</title>
<path fill="none" stroke="midnightblue" d="M1020.85,-112.324C1033.22,-103.979 1052.13,-91.2122 1066.74,-81.3524"/>
<polygon fill="midnightblue" stroke="midnightblue" points="1068.85,-84.1503 1075.18,-75.6545 1064.93,-78.3483 1068.85,-84.1503"/>
</g>
<!-- Node18&#45;&gt;Node12 -->
<g id="edge19" class="edge"><title>Node18&#45;&gt;Node12</title>
<path fill="none" stroke="midnightblue" d="M394.026,-174.462C403.864,-172.033 414.828,-169.612 425,-168 616.398,-137.661 846.522,-127.547 951.194,-124.364"/>
<polygon fill="midnightblue" stroke="midnightblue" points="951.334,-127.862 961.227,-124.069 951.128,-120.865 951.334,-127.862"/>
</g>
<!-- Node19 -->
<g id="node19" class="node"><title>Node19</title>
<polygon fill="white" stroke="#bfbfbf" points="222,-112.5 222,-131.5 278,-131.5 278,-112.5 222,-112.5"/>
<text text-anchor="middle" x="250" y="-119.5" font-family="Helvetica,sans-Serif" font-size="10.00">algorithm</text>
</g>
<!-- Node18&#45;&gt;Node19 -->
<g id="edge20" class="edge"><title>Node18&#45;&gt;Node19</title>
<path fill="none" stroke="midnightblue" d="M346.81,-174.403C328.098,-164.468 297.077,-147.997 275.201,-136.381"/>
<polygon fill="midnightblue" stroke="midnightblue" points="276.634,-133.179 266.16,-131.581 273.351,-139.362 276.634,-133.179"/>
</g>
<!-- Node20 -->
<g id="node20" class="node"><title>Node20</title>
<polygon fill="white" stroke="#bfbfbf" points="296,-112.5 296,-131.5 340,-131.5 340,-112.5 296,-112.5"/>
<text text-anchor="middle" x="318" y="-119.5" font-family="Helvetica,sans-Serif" font-size="10.00">cmath</text>
</g>
<!-- Node18&#45;&gt;Node20 -->
<g id="edge21" class="edge"><title>Node18&#45;&gt;Node20</title>
<path fill="none" stroke="midnightblue" d="M356.553,-174.403C349.803,-165.403 339.031,-151.041 330.587,-139.782"/>
<polygon fill="midnightblue" stroke="midnightblue" points="333.235,-137.481 324.435,-131.581 327.635,-141.681 333.235,-137.481"/>
</g>
<!-- Node21 -->
<g id="node21" class="node"><title>Node21</title>
<g id="a_node21"><a xlink:href="Math_8inl.html" target="_top" xlink:title="Core/Math/Math.inl">
<polygon fill="white" stroke="black" points="358,-112.5 358,-131.5 458,-131.5 458,-112.5 358,-112.5"/>
<text text-anchor="middle" x="408" y="-119.5" font-family="Helvetica,sans-Serif" font-size="10.00">Core/Math/Math.inl</text>
</a>
</g>
</g>
<!-- Node18&#45;&gt;Node21 -->
<g id="edge22" class="edge"><title>Node18&#45;&gt;Node21</title>
<path fill="none" stroke="midnightblue" d="M364.547,-174.403C369.445,-165.225 380.125,-150.47 389.85,-139.117"/>
<polygon fill="midnightblue" stroke="midnightblue" points="392.555,-141.345 396.667,-131.581 387.364,-136.649 392.555,-141.345"/>
</g>
<!-- Node21&#45;&gt;Node18 -->
<g id="edge23" class="edge"><title>Node21&#45;&gt;Node18</title>
<path fill="none" stroke="midnightblue" d="M406.462,-131.581C401.57,-140.752 390.893,-155.506 381.166,-166.863"/>
<polygon fill="midnightblue" stroke="midnightblue" points="378.459,-164.639 374.348,-174.403 383.651,-169.334 378.459,-164.639"/>
</g>
<!-- Node23&#45;&gt;Node3 -->
<g id="edge26" class="edge"><title>Node23&#45;&gt;Node3</title>
<path fill="none" stroke="midnightblue" d="M544.043,-378.449C633.854,-346.509 949.843,-234.133 1054.24,-197.006"/>
<polygon fill="midnightblue" stroke="midnightblue" points="1055.7,-200.201 1063.95,-193.553 1053.36,-193.606 1055.7,-200.201"/>
</g>
<!-- Node23&#45;&gt;Node11 -->
<g id="edge30" class="edge"><title>Node23&#45;&gt;Node11</title>
<path fill="none" stroke="midnightblue" d="M547.913,-378.486C568.683,-370.714 596.084,-357.163 612,-336 626.061,-317.304 629.998,-290.006 630.955,-271.885"/>
<polygon fill="midnightblue" stroke="midnightblue" points="634.458,-271.807 631.23,-261.716 627.461,-271.617 634.458,-271.807"/>
</g>
<!-- Node24 -->
<g id="node24" class="node"><title>Node24</title>
<g id="a_node24"><a xlink:href="IndexedObject_8hpp.html" target="_top" xlink:title="Core/Index/IndexedObject.hpp">
<polygon fill="white" stroke="black" points="63.5,-310.5 63.5,-329.5 212.5,-329.5 212.5,-310.5 63.5,-310.5"/>
<text text-anchor="middle" x="138" y="-317.5" font-family="Helvetica,sans-Serif" font-size="10.00">Core/Index/IndexedObject.hpp</text>
</a>
</g>
</g>
<!-- Node23&#45;&gt;Node24 -->
<g id="edge27" class="edge"><title>Node23&#45;&gt;Node24</title>
<path fill="none" stroke="midnightblue" d="M470.452,-378.439C400.463,-366.347 272.825,-344.294 197.701,-331.315"/>
<polygon fill="midnightblue" stroke="midnightblue" points="197.91,-327.799 187.46,-329.546 196.719,-334.697 197.91,-327.799"/>
</g>
<!-- Node26 -->
<g id="node26" class="node"><title>Node26</title>
<g id="a_node26"><a xlink:href="Ray_8hpp.html" target="_top" xlink:title="Core/Math/Ray.hpp">
<polygon fill="white" stroke="black" points="274,-310.5 274,-329.5 376,-329.5 376,-310.5 274,-310.5"/>
<text text-anchor="middle" x="325" y="-317.5" font-family="Helvetica,sans-Serif" font-size="10.00">Core/Math/Ray.hpp</text>
</a>
</g>
</g>
<!-- Node23&#45;&gt;Node26 -->
<g id="edge31" class="edge"><title>Node23&#45;&gt;Node26</title>
<path fill="none" stroke="midnightblue" d="M494.507,-378.372C460.106,-366.728 398.685,-345.939 359.985,-332.841"/>
<polygon fill="midnightblue" stroke="midnightblue" points="360.784,-329.417 350.19,-329.526 358.54,-336.047 360.784,-329.417"/>
</g>
<!-- Node27 -->
<g id="node27" class="node"><title>Node27</title>
<g id="a_node27"><a xlink:href="Component_8inl.html" target="_top" xlink:title="Engine/Component/Component.inl">
<polygon fill="white" stroke="black" points="437,-310.5 437,-329.5 603,-329.5 603,-310.5 437,-310.5"/>
<text text-anchor="middle" x="520" y="-317.5" font-family="Helvetica,sans-Serif" font-size="10.00">Engine/Component/Component.inl</text>
</a>
</g>
</g>
<!-- Node23&#45;&gt;Node27 -->
<g id="edge35" class="edge"><title>Node23&#45;&gt;Node27</title>
<path fill="none" stroke="midnightblue" d="M515.269,-378.372C513.199,-368.643 512.721,-352.528 513.835,-339.85"/>
<polygon fill="midnightblue" stroke="midnightblue" points="517.316,-340.227 515.224,-329.841 510.382,-339.265 517.316,-340.227"/>
</g>
<!-- Node24&#45;&gt;Node12 -->
<g id="edge29" class="edge"><title>Node24&#45;&gt;Node12</title>
<path fill="none" stroke="midnightblue" d="M137.311,-310.354C135.739,-283.975 135.033,-204.133 180,-168 210.032,-143.868 768.939,-128.626 951.116,-124.283"/>
<polygon fill="midnightblue" stroke="midnightblue" points="951.379,-127.778 961.293,-124.042 951.213,-120.78 951.379,-127.778"/>
</g>
<!-- Node25 -->
<g id="node25" class="node"><title>Node25</title>
<g id="a_node25"><a xlink:href="Index_8hpp.html" target="_top" xlink:title="Core/Index/Index.hpp">
<polygon fill="white" stroke="red" points="0,-242.5 0,-261.5 110,-261.5 110,-242.5 0,-242.5"/>
<text text-anchor="middle" x="55" y="-249.5" font-family="Helvetica,sans-Serif" font-size="10.00">Core/Index/Index.hpp</text>
</a>
</g>
</g>
<!-- Node24&#45;&gt;Node25 -->
<g id="edge28" class="edge"><title>Node24&#45;&gt;Node25</title>
<path fill="none" stroke="midnightblue" d="M127.149,-310.372C113.603,-299.6 90.2148,-281.002 73.746,-267.906"/>
<polygon fill="midnightblue" stroke="midnightblue" points="75.8589,-265.115 65.8535,-261.63 71.5022,-270.594 75.8589,-265.115"/>
</g>
<!-- Node26&#45;&gt;Node11 -->
<g id="edge32" class="edge"><title>Node26&#45;&gt;Node11</title>
<path fill="none" stroke="midnightblue" d="M364.69,-310.439C420.181,-298.471 520.913,-276.744 581.318,-263.716"/>
<polygon fill="midnightblue" stroke="midnightblue" points="582.343,-267.075 591.38,-261.546 580.867,-260.233 582.343,-267.075"/>
</g>
<!-- Node26&#45;&gt;Node12 -->
<g id="edge33" class="edge"><title>Node26&#45;&gt;Node12</title>
<path fill="none" stroke="midnightblue" d="M307.458,-310.408C261.716,-286.961 145.667,-220.139 195,-168 220.971,-140.552 770.867,-127.56 951.247,-124.026"/>
<polygon fill="midnightblue" stroke="midnightblue" points="951.398,-127.524 961.328,-123.831 951.262,-120.525 951.398,-127.524"/>
</g>
<!-- Node26&#45;&gt;Node14 -->
<g id="edge34" class="edge"><title>Node26&#45;&gt;Node14</title>
<path fill="none" stroke="midnightblue" d="M319.948,-310.208C307.437,-288.437 274.827,-231.686 258.147,-202.659"/>
<polygon fill="midnightblue" stroke="midnightblue" points="260.988,-200.577 252.971,-193.65 254.918,-204.065 260.988,-200.577"/>
</g>
<!-- Node27&#45;&gt;Node23 -->
<g id="edge36" class="edge"><title>Node27&#45;&gt;Node23</title>
<path fill="none" stroke="midnightblue" d="M524.776,-329.841C526.823,-339.662 527.278,-355.798 526.141,-368.425"/>
<polygon fill="midnightblue" stroke="midnightblue" points="522.669,-367.979 524.731,-378.372 529.6,-368.962 522.669,-367.979"/>
</g>
<!-- Node30&#45;&gt;Node3 -->
<g id="edge41" class="edge"><title>Node30&#45;&gt;Node3</title>
<path fill="none" stroke="midnightblue" d="M1408.92,-440.913C1320.55,-419.756 1174.56,-370.751 1101,-268 1087.56,-249.232 1085.77,-221.951 1086.36,-203.854"/>
<polygon fill="midnightblue" stroke="midnightblue" points="1089.87,-203.892 1086.97,-193.699 1082.88,-203.47 1089.87,-203.892"/>
</g>
<!-- Node30&#45;&gt;Node11 -->
<g id="edge60" class="edge"><title>Node30&#45;&gt;Node11</title>
<path fill="none" stroke="midnightblue" d="M1397.26,-451.285C1307.32,-445.945 1161.55,-433.282 1039,-404 890.867,-368.605 722.954,-295.282 658.332,-265.743"/>
<polygon fill="midnightblue" stroke="midnightblue" points="659.761,-262.548 649.213,-261.551 656.837,-268.908 659.761,-262.548"/>
</g>
<!-- Node31 -->
<g id="node31" class="node"><title>Node31</title>
<polygon fill="white" stroke="#bfbfbf" points="1747,-174.5 1747,-193.5 1777,-193.5 1777,-174.5 1747,-174.5"/>
<text text-anchor="middle" x="1762" y="-181.5" font-family="Helvetica,sans-Serif" font-size="10.00">set</text>
</g>
<!-- Node30&#45;&gt;Node31 -->
<g id="edge42" class="edge"><title>Node30&#45;&gt;Node31</title>
<path fill="none" stroke="midnightblue" d="M1566.74,-444.128C1610.53,-436.503 1664.07,-423.992 1709,-404 1756.77,-382.744 1768.06,-373.002 1805,-336 1839.83,-301.112 1877.92,-278.536 1853,-236 1851.08,-232.73 1812.75,-211.92 1786.45,-197.914"/>
<polygon fill="midnightblue" stroke="midnightblue" points="1787.87,-194.705 1777.4,-193.106 1784.59,-200.887 1787.87,-194.705"/>
</g>
<!-- Node32 -->
<g id="node32" class="node"><title>Node32</title>
<polygon fill="white" stroke="#bfbfbf" points="1609,-174.5 1609,-193.5 1653,-193.5 1653,-174.5 1609,-174.5"/>
<text text-anchor="middle" x="1631" y="-181.5" font-family="Helvetica,sans-Serif" font-size="10.00">vector</text>
</g>
<!-- Node30&#45;&gt;Node32 -->
<g id="edge43" class="edge"><title>Node30&#45;&gt;Node32</title>
<path fill="none" stroke="midnightblue" d="M1551.2,-440.968C1635.16,-419.779 1772.8,-370.651 1832,-268 1890.7,-166.202 1745.1,-222.061 1671,-200 1668.04,-199.118 1664.98,-198.127 1661.94,-197.084"/>
<polygon fill="midnightblue" stroke="midnightblue" points="1663,-193.745 1652.4,-193.651 1660.63,-200.331 1663,-193.745"/>
</g>
<!-- Node33 -->
<g id="node33" class="node"><title>Node33</title>
<g id="a_node33"><a xlink:href="AlignedAllocator_8hpp.html" target="_top" xlink:title="Core/Containers/AlignedAllocator.hpp">
<polygon fill="white" stroke="black" points="2069,-378.5 2069,-397.5 2249,-397.5 2249,-378.5 2069,-378.5"/>
<text text-anchor="middle" x="2159" y="-385.5" font-family="Helvetica,sans-Serif" font-size="10.00">Core/Containers/AlignedAllocator.hpp</text>
</a>
</g>
</g>
<!-- Node30&#45;&gt;Node33 -->
<g id="edge44" class="edge"><title>Node30&#45;&gt;Node33</title>
<path fill="none" stroke="midnightblue" d="M1566.72,-446.741C1692.67,-434.462 1928.7,-411.452 2061.61,-398.494"/>
<polygon fill="midnightblue" stroke="midnightblue" points="2062.17,-401.956 2071.78,-397.503 2061.49,-394.989 2062.17,-401.956"/>
</g>
<!-- Node38 -->
<g id="node38" class="node"><title>Node38</title>
<g id="a_node38"><a xlink:href="Log_8hpp.html" target="_top" xlink:title="Core/Log/Log.hpp">
<polygon fill="white" stroke="black" points="1244,-310.5 1244,-329.5 1338,-329.5 1338,-310.5 1244,-310.5"/>
<text text-anchor="middle" x="1291" y="-317.5" font-family="Helvetica,sans-Serif" font-size="10.00">Core/Log/Log.hpp</text>
</a>
</g>
</g>
<!-- Node30&#45;&gt;Node38 -->
<g id="edge50" class="edge"><title>Node30&#45;&gt;Node38</title>
<path fill="none" stroke="midnightblue" d="M1461.92,-440.913C1425.54,-415.391 1349.08,-361.747 1312.02,-335.748"/>
<polygon fill="midnightblue" stroke="midnightblue" points="1313.69,-332.646 1303.5,-329.768 1309.67,-338.376 1313.69,-332.646"/>
</g>
<!-- Node43 -->
<g id="node43" class="node"><title>Node43</title>
<g id="a_node43"><a xlink:href="RenderParameters_8inl.html" target="_top" xlink:title="Engine/Renderer/RenderTechnique\l/RenderParameters.inl">
<polygon fill="white" stroke="black" points="1419.5,-373 1419.5,-403 1588.5,-403 1588.5,-373 1419.5,-373"/>
<text text-anchor="start" x="1427.5" y="-391" font-family="Helvetica,sans-Serif" font-size="10.00">Engine/Renderer/RenderTechnique</text>
<text text-anchor="middle" x="1504" y="-380" font-family="Helvetica,sans-Serif" font-size="10.00">/RenderParameters.inl</text>
</a>
</g>
</g>
<!-- Node30&#45;&gt;Node43 -->
<g id="edge61" class="edge"><title>Node30&#45;&gt;Node43</title>
<path fill="none" stroke="midnightblue" d="M1486.77,-440.679C1489.48,-432.549 1492.95,-422.164 1496.05,-412.839"/>
<polygon fill="midnightblue" stroke="midnightblue" points="1499.39,-413.887 1499.24,-403.293 1492.75,-411.673 1499.39,-413.887"/>
</g>
<!-- Node33&#45;&gt;Node12 -->
<g id="edge45" class="edge"><title>Node33&#45;&gt;Node12</title>
<path fill="none" stroke="midnightblue" d="M2142.08,-378.435C2126.72,-369.788 2104.6,-355.008 2092,-336 2049.42,-271.759 2108.85,-216.566 2049,-168 2010.58,-136.823 1277.35,-126.067 1065.1,-123.599"/>
<polygon fill="midnightblue" stroke="midnightblue" points="1064.85,-120.096 1054.81,-123.481 1064.77,-127.096 1064.85,-120.096"/>
</g>
<!-- Node34 -->
<g id="node34" class="node"><title>Node34</title>
<polygon fill="white" stroke="#bfbfbf" points="2296.5,-310.5 2296.5,-329.5 2371.5,-329.5 2371.5,-310.5 2296.5,-310.5"/>
<text text-anchor="middle" x="2334" y="-317.5" font-family="Helvetica,sans-Serif" font-size="10.00">mm_malloc.h</text>
</g>
<!-- Node33&#45;&gt;Node34 -->
<g id="edge46" class="edge"><title>Node33&#45;&gt;Node34</title>
<path fill="none" stroke="midnightblue" d="M2181.88,-378.372C2212.49,-366.827 2266.94,-346.293 2301.71,-333.177"/>
<polygon fill="midnightblue" stroke="midnightblue" points="2303.27,-336.33 2311.39,-329.526 2300.8,-329.78 2303.27,-336.33"/>
</g>
<!-- Node35 -->
<g id="node35" class="node"><title>Node35</title>
<polygon fill="white" stroke="#bfbfbf" points="2101.5,-310.5 2101.5,-329.5 2150.5,-329.5 2150.5,-310.5 2101.5,-310.5"/>
<text text-anchor="middle" x="2126" y="-317.5" font-family="Helvetica,sans-Serif" font-size="10.00">cstddef</text>
</g>
<!-- Node33&#45;&gt;Node35 -->
<g id="edge47" class="edge"><title>Node33&#45;&gt;Node35</title>
<path fill="none" stroke="midnightblue" d="M2154.69,-378.372C2149.72,-368.446 2141.44,-351.874 2135.04,-339.086"/>
<polygon fill="midnightblue" stroke="midnightblue" points="2138.02,-337.22 2130.42,-329.841 2131.76,-340.351 2138.02,-337.22"/>
</g>
<!-- Node36 -->
<g id="node36" class="node"><title>Node36</title>
<polygon fill="white" stroke="#bfbfbf" points="2169,-310.5 2169,-329.5 2215,-329.5 2215,-310.5 2169,-310.5"/>
<text text-anchor="middle" x="2192" y="-317.5" font-family="Helvetica,sans-Serif" font-size="10.00">cstdint</text>
</g>
<!-- Node33&#45;&gt;Node36 -->
<g id="edge48" class="edge"><title>Node33&#45;&gt;Node36</title>
<path fill="none" stroke="midnightblue" d="M2163.31,-378.372C2168.28,-368.446 2176.56,-351.874 2182.96,-339.086"/>
<polygon fill="midnightblue" stroke="midnightblue" points="2186.24,-340.351 2187.58,-329.841 2179.98,-337.22 2186.24,-340.351"/>
</g>
<!-- Node37 -->
<g id="node37" class="node"><title>Node37</title>
<polygon fill="white" stroke="#bfbfbf" points="2233.5,-310.5 2233.5,-329.5 2278.5,-329.5 2278.5,-310.5 2233.5,-310.5"/>
<text text-anchor="middle" x="2256" y="-317.5" font-family="Helvetica,sans-Serif" font-size="10.00">cstdlib</text>
</g>
<!-- Node33&#45;&gt;Node37 -->
<g id="edge49" class="edge"><title>Node33&#45;&gt;Node37</title>
<path fill="none" stroke="midnightblue" d="M2171.68,-378.372C2187.73,-367.452 2215.6,-348.489 2234.88,-335.369"/>
<polygon fill="midnightblue" stroke="midnightblue" points="2237.02,-338.15 2243.32,-329.63 2233.08,-332.362 2237.02,-338.15"/>
</g>
<!-- Node38&#45;&gt;Node8 -->
<g id="edge52" class="edge"><title>Node38&#45;&gt;Node8</title>
<path fill="none" stroke="midnightblue" d="M1291,-310.22C1291,-288.814 1291,-232.226 1291,-185 1291,-185 1291,-185 1291,-121 1291,-88.9149 1288.85,-51.6198 1287.37,-29.7371"/>
<polygon fill="midnightblue" stroke="midnightblue" points="1290.85,-29.2813 1286.65,-19.5518 1283.86,-29.7729 1290.85,-29.2813"/>
</g>
<!-- Node38&#45;&gt;Node12 -->
<g id="edge51" class="edge"><title>Node38&#45;&gt;Node12</title>
<path fill="none" stroke="midnightblue" d="M1243.93,-312.243C1195.9,-304.271 1126.16,-289.343 1110,-268 1101.41,-256.661 1104.06,-248.921 1110,-236 1120.27,-213.664 1141.73,-222.336 1152,-200 1157.94,-187.079 1160.42,-179.459 1152,-168 1132.14,-140.983 1096.13,-129.734 1065.09,-125.238"/>
<polygon fill="midnightblue" stroke="midnightblue" points="1065.14,-121.718 1054.78,-123.96 1064.27,-128.664 1065.14,-121.718"/>
</g>
<!-- Node39 -->
<g id="node39" class="node"><title>Node39</title>
<polygon fill="white" stroke="#bfbfbf" points="1179,-242.5 1179,-261.5 1225,-261.5 1225,-242.5 1179,-242.5"/>
<text text-anchor="middle" x="1202" y="-249.5" font-family="Helvetica,sans-Serif" font-size="10.00">stdio.h</text>
</g>
<!-- Node38&#45;&gt;Node39 -->
<g id="edge53" class="edge"><title>Node38&#45;&gt;Node39</title>
<path fill="none" stroke="midnightblue" d="M1279.36,-310.372C1264.84,-299.6 1239.76,-281.002 1222.1,-267.906"/>
<polygon fill="midnightblue" stroke="midnightblue" points="1223.76,-264.776 1213.64,-261.63 1219.59,-270.398 1223.76,-264.776"/>
</g>
<!-- Node40 -->
<g id="node40" class="node"><title>Node40</title>
<polygon fill="white" stroke="#bfbfbf" points="1479.5,-174.5 1479.5,-193.5 1520.5,-193.5 1520.5,-174.5 1479.5,-174.5"/>
<text text-anchor="middle" x="1500" y="-181.5" font-family="Helvetica,sans-Serif" font-size="10.00">string</text>
</g>
<!-- Node38&#45;&gt;Node40 -->
<g id="edge54" class="edge"><title>Node38&#45;&gt;Node40</title>
<path fill="none" stroke="midnightblue" d="M1338.15,-315.49C1375.65,-310.428 1427.4,-298.082 1462,-268 1481.4,-251.137 1491.47,-222.331 1496.24,-203.48"/>
<polygon fill="midnightblue" stroke="midnightblue" points="1499.66,-204.225 1498.48,-193.697 1492.84,-202.669 1499.66,-204.225"/>
</g>
<!-- Node41 -->
<g id="node41" class="node"><title>Node41</title>
<g id="a_node41"><a xlink:href="StringUtils_8hpp.html" target="_top" xlink:title="Core/String/StringUtils.hpp">
<polygon fill="white" stroke="black" points="1319,-242.5 1319,-261.5 1453,-261.5 1453,-242.5 1319,-242.5"/>
<text text-anchor="middle" x="1386" y="-249.5" font-family="Helvetica,sans-Serif" font-size="10.00">Core/String/StringUtils.hpp</text>
</a>
</g>
</g>
<!-- Node38&#45;&gt;Node41 -->
<g id="edge55" class="edge"><title>Node38&#45;&gt;Node41</title>
<path fill="none" stroke="midnightblue" d="M1303.42,-310.372C1319.14,-299.452 1346.43,-280.489 1365.32,-267.369"/>
<polygon fill="midnightblue" stroke="midnightblue" points="1367.36,-270.21 1373.58,-261.63 1363.37,-264.462 1367.36,-270.21"/>
</g>
<!-- Node42 -->
<g id="node42" class="node"><title>Node42</title>
<polygon fill="white" stroke="#bfbfbf" points="1119.5,-242.5 1119.5,-261.5 1160.5,-261.5 1160.5,-242.5 1119.5,-242.5"/>
<text text-anchor="middle" x="1140" y="-249.5" font-family="Helvetica,sans-Serif" font-size="10.00">ctime</text>
</g>
<!-- Node38&#45;&gt;Node42 -->
<g id="edge59" class="edge"><title>Node38&#45;&gt;Node42</title>
<path fill="none" stroke="midnightblue" d="M1269.4,-310.387C1245.05,-300.567 1204.38,-283.819 1170,-268 1168.64,-267.376 1167.26,-266.727 1165.87,-266.064"/>
<polygon fill="midnightblue" stroke="midnightblue" points="1167.25,-262.844 1156.73,-261.603 1164.18,-269.135 1167.25,-262.844"/>
</g>
<!-- Node41&#45;&gt;Node12 -->
<g id="edge56" class="edge"><title>Node41&#45;&gt;Node12</title>
<path fill="none" stroke="midnightblue" d="M1367.87,-242.421C1333.16,-226.241 1254.68,-190.798 1186,-168 1143.69,-153.956 1094.49,-141.827 1058.55,-133.711"/>
<polygon fill="midnightblue" stroke="midnightblue" points="1059.3,-130.294 1048.78,-131.531 1057.78,-137.126 1059.3,-130.294"/>
</g>
<!-- Node41&#45;&gt;Node32 -->
<g id="edge58" class="edge"><title>Node41&#45;&gt;Node32</title>
<path fill="none" stroke="midnightblue" d="M1418.03,-242.372C1464.94,-229.735 1551.84,-206.326 1598.83,-193.667"/>
<polygon fill="midnightblue" stroke="midnightblue" points="1600.02,-196.97 1608.77,-190.989 1598.2,-190.211 1600.02,-196.97"/>
</g>
<!-- Node41&#45;&gt;Node40 -->
<g id="edge57" class="edge"><title>Node41&#45;&gt;Node40</title>
<path fill="none" stroke="midnightblue" d="M1400.9,-242.372C1420.11,-231.254 1453.71,-211.8 1476.4,-198.662"/>
<polygon fill="midnightblue" stroke="midnightblue" points="1478.19,-201.67 1485.09,-193.63 1474.68,-195.612 1478.19,-201.67"/>
</g>
<!-- Node44 -->
<g id="node44" class="node"><title>Node44</title>
<g id="a_node44"><a xlink:href="ShaderProgram_8hpp.html" target="_top" xlink:title="Engine/Renderer/RenderTechnique\l/ShaderProgram.hpp">
<polygon fill="white" stroke="black" points="1504.5,-305 1504.5,-335 1673.5,-335 1673.5,-305 1504.5,-305"/>
<text text-anchor="start" x="1512.5" y="-323" font-family="Helvetica,sans-Serif" font-size="10.00">Engine/Renderer/RenderTechnique</text>
<text text-anchor="middle" x="1589" y="-312" font-family="Helvetica,sans-Serif" font-size="10.00">/ShaderProgram.hpp</text>
</a>
</g>
</g>
<!-- Node43&#45;&gt;Node44 -->
<g id="edge62" class="edge"><title>Node43&#45;&gt;Node44</title>
<path fill="none" stroke="midnightblue" d="M1522.44,-372.679C1534.22,-363.536 1549.67,-351.54 1562.72,-341.407"/>
<polygon fill="midnightblue" stroke="midnightblue" points="1565.13,-343.964 1570.88,-335.066 1560.84,-338.435 1565.13,-343.964"/>
</g>
<!-- Node44&#45;&gt;Node3 -->
<g id="edge63" class="edge"><title>Node44&#45;&gt;Node3</title>
<path fill="none" stroke="midnightblue" d="M1504.25,-308.406C1448.36,-300.228 1373.94,-287.057 1310,-268 1274.88,-257.532 1268.21,-249.161 1234,-236 1196.63,-221.621 1153.25,-206.686 1123.54,-196.724"/>
<polygon fill="midnightblue" stroke="midnightblue" points="1124.62,-193.392 1114.02,-193.544 1122.4,-200.032 1124.62,-193.392"/>
</g>
<!-- Node44&#45;&gt;Node11 -->
<g id="edge64" class="edge"><title>Node44&#45;&gt;Node11</title>
<path fill="none" stroke="midnightblue" d="M1504.4,-313.172C1321.85,-300.595 892.914,-271.044 712.853,-258.639"/>
<polygon fill="midnightblue" stroke="midnightblue" points="712.868,-255.132 702.651,-257.936 712.387,-262.115 712.868,-255.132"/>
</g>
<!-- Node44&#45;&gt;Node40 -->
<g id="edge76" class="edge"><title>Node44&#45;&gt;Node40</title>
<path fill="none" stroke="midnightblue" d="M1571.41,-304.773C1560.46,-295.236 1546.67,-281.915 1537,-268 1522.76,-247.507 1511.99,-220.652 1505.84,-203.12"/>
<polygon fill="midnightblue" stroke="midnightblue" points="1509.13,-201.909 1502.62,-193.549 1502.49,-204.143 1509.13,-201.909"/>
</g>
<!-- Node45 -->
<g id="node45" class="node"><title>Node45</title>
<g id="a_node45"><a xlink:href="OpenGL_8hpp.html" target="_top" xlink:title="Engine/Renderer/OpenGL\l/OpenGL.hpp">
<polygon fill="white" stroke="black" points="1917,-237 1917,-267 2045,-267 2045,-237 1917,-237"/>
<text text-anchor="start" x="1925" y="-255" font-family="Helvetica,sans-Serif" font-size="10.00">Engine/Renderer/OpenGL</text>
<text text-anchor="middle" x="1981" y="-244" font-family="Helvetica,sans-Serif" font-size="10.00">/OpenGL.hpp</text>
</a>
</g>
</g>
<!-- Node44&#45;&gt;Node45 -->
<g id="edge65" class="edge"><title>Node44&#45;&gt;Node45</title>
<path fill="none" stroke="midnightblue" d="M1672.61,-304.922C1742.12,-293.219 1840.12,-276.72 1906.86,-265.483"/>
<polygon fill="midnightblue" stroke="midnightblue" points="1907.6,-268.907 1916.88,-263.795 1906.44,-262.004 1907.6,-268.907"/>
</g>
<!-- Node48 -->
<g id="node48" class="node"><title>Node48</title>
<g id="a_node48"><a xlink:href="ShaderConfiguration_8hpp.html" target="_top" xlink:title="Engine/Renderer/RenderTechnique\l/ShaderConfiguration.hpp">
<polygon fill="white" stroke="red" points="1546.5,-237 1546.5,-267 1715.5,-267 1715.5,-237 1546.5,-237"/>
<text text-anchor="start" x="1554.5" y="-255" font-family="Helvetica,sans-Serif" font-size="10.00">Engine/Renderer/RenderTechnique</text>
<text text-anchor="middle" x="1631" y="-244" font-family="Helvetica,sans-Serif" font-size="10.00">/ShaderConfiguration.hpp</text>
</a>
</g>
</g>
<!-- Node44&#45;&gt;Node48 -->
<g id="edge68" class="edge"><title>Node44&#45;&gt;Node48</title>
<path fill="none" stroke="midnightblue" d="M1598.11,-304.679C1603.45,-296.29 1610.32,-285.499 1616.4,-275.949"/>
<polygon fill="midnightblue" stroke="midnightblue" points="1619.49,-277.609 1621.9,-267.293 1613.58,-273.851 1619.49,-277.609"/>
</g>
<!-- Node49 -->
<g id="node49" class="node"><title>Node49</title>
<polygon fill="white" stroke="#bfbfbf" points="1680,-174.5 1680,-193.5 1718,-193.5 1718,-174.5 1680,-174.5"/>
<text text-anchor="middle" x="1699" y="-181.5" font-family="Helvetica,sans-Serif" font-size="10.00">array</text>
</g>
<!-- Node44&#45;&gt;Node49 -->
<g id="edge74" class="edge"><title>Node44&#45;&gt;Node49</title>
<path fill="none" stroke="midnightblue" d="M1671.97,-304.98C1692.27,-297.43 1711.68,-285.828 1724,-268 1737.99,-247.759 1723.91,-219.517 1711.91,-201.75"/>
<polygon fill="midnightblue" stroke="midnightblue" points="1714.67,-199.586 1705.99,-193.512 1708.99,-203.674 1714.67,-199.586"/>
</g>
<!-- Node50 -->
<g id="node50" class="node"><title>Node50</title>
<polygon fill="white" stroke="#bfbfbf" points="1771,-242.5 1771,-261.5 1823,-261.5 1823,-242.5 1771,-242.5"/>
<text text-anchor="middle" x="1797" y="-249.5" font-family="Helvetica,sans-Serif" font-size="10.00">memory</text>
</g>
<!-- Node44&#45;&gt;Node50 -->
<g id="edge75" class="edge"><title>Node44&#45;&gt;Node50</title>
<path fill="none" stroke="midnightblue" d="M1638.15,-304.981C1671.79,-295.167 1717.31,-281.452 1757,-268 1759.77,-267.063 1762.63,-266.059 1765.49,-265.031"/>
<polygon fill="midnightblue" stroke="midnightblue" points="1766.9,-268.24 1775.08,-261.507 1764.49,-261.669 1766.9,-268.24"/>
</g>
<!-- Node46 -->
<g id="node46" class="node"><title>Node46</title>
<polygon fill="white" stroke="#bfbfbf" points="1927.5,-174.5 1927.5,-193.5 2040.5,-193.5 2040.5,-174.5 1927.5,-174.5"/>
<text text-anchor="middle" x="1984" y="-181.5" font-family="Helvetica,sans-Serif" font-size="10.00">glbinding/gl45core/gl.h</text>
</g>
<!-- Node45&#45;&gt;Node46 -->
<g id="edge66" class="edge"><title>Node45&#45;&gt;Node46</title>
<path fill="none" stroke="midnightblue" d="M1981.65,-236.679C1982.09,-227.101 1982.66,-214.394 1983.14,-203.977"/>
<polygon fill="midnightblue" stroke="midnightblue" points="1986.64,-203.977 1983.6,-193.828 1979.65,-203.659 1986.64,-203.977"/>
</g>
<!-- Node47 -->
<g id="node47" class="node"><title>Node47</title>
<polygon fill="white" stroke="#bfbfbf" points="1801,-174.5 1801,-193.5 1909,-193.5 1909,-174.5 1801,-174.5"/>
<text text-anchor="middle" x="1855" y="-181.5" font-family="Helvetica,sans-Serif" font-size="10.00">glbinding/gl45ext/gl.h</text>
</g>
<!-- Node45&#45;&gt;Node47 -->
<g id="edge67" class="edge"><title>Node45&#45;&gt;Node47</title>
<path fill="none" stroke="midnightblue" d="M1953.97,-236.841C1932.27,-225.476 1902.02,-209.628 1880.68,-198.454"/>
<polygon fill="midnightblue" stroke="midnightblue" points="1882.06,-195.222 1871.57,-193.682 1878.81,-201.422 1882.06,-195.222"/>
</g>
<!-- Node48&#45;&gt;Node3 -->
<g id="edge69" class="edge"><title>Node48&#45;&gt;Node3</title>
<path fill="none" stroke="midnightblue" d="M1546.45,-240.724C1438.06,-227.549 1252.39,-204.981 1153.88,-193.007"/>
<polygon fill="midnightblue" stroke="midnightblue" points="1154.1,-189.509 1143.75,-191.777 1153.26,-196.458 1154.1,-189.509"/>
</g>
<!-- Node48&#45;&gt;Node31 -->
<g id="edge71" class="edge"><title>Node48&#45;&gt;Node31</title>
<path fill="none" stroke="midnightblue" d="M1659.1,-236.841C1682.55,-225.029 1715.61,-208.374 1737.87,-197.157"/>
<polygon fill="midnightblue" stroke="midnightblue" points="1739.62,-200.194 1746.98,-192.569 1736.47,-193.942 1739.62,-200.194"/>
</g>
<!-- Node48&#45;&gt;Node32 -->
<g id="edge73" class="edge"><title>Node48&#45;&gt;Node32</title>
<path fill="none" stroke="midnightblue" d="M1631,-236.679C1631,-227.101 1631,-214.394 1631,-203.977"/>
<polygon fill="midnightblue" stroke="midnightblue" points="1634.5,-203.828 1631,-193.828 1627.5,-203.828 1634.5,-203.828"/>
</g>
<!-- Node48&#45;&gt;Node40 -->
<g id="edge72" class="edge"><title>Node48&#45;&gt;Node40</title>
<path fill="none" stroke="midnightblue" d="M1602.9,-236.841C1580.24,-225.425 1548.6,-209.485 1526.41,-198.303"/>
<polygon fill="midnightblue" stroke="midnightblue" points="1527.74,-195.056 1517.23,-193.682 1524.59,-201.307 1527.74,-195.056"/>
</g>
<!-- Node48&#45;&gt;Node49 -->
<g id="edge70" class="edge"><title>Node48&#45;&gt;Node49</title>
<path fill="none" stroke="midnightblue" d="M1645.75,-236.679C1656.57,-226.184 1671.25,-211.932 1682.46,-201.052"/>
<polygon fill="midnightblue" stroke="midnightblue" points="1685.17,-203.305 1689.9,-193.828 1680.29,-198.282 1685.17,-203.305"/>
</g>
</g>
</svg>
