<?xml version="1.0" encoding="UTF-8" standalone="no"?>
<!DOCTYPE svg PUBLIC "-//W3C//DTD SVG 1.1//EN"
 "http://www.w3.org/Graphics/SVG/1.1/DTD/svg11.dtd">
<!-- Generated by graphviz version 2.36.0 (20140111.2315)
 -->
<!-- Title: /home/travis/build/STORM&#45;IRIT/Radium&#45;Engine/src/Core/Math/DualQuaternion.inl Pages: 1 -->
<svg width="778pt" height="386pt"
 viewBox="0.00 0.00 778.00 386.00" xmlns="http://www.w3.org/2000/svg" xmlns:xlink="http://www.w3.org/1999/xlink">
<g id="graph0" class="graph" transform="scale(1 1) rotate(0) translate(4 382)">
<title>/home/travis/build/STORM&#45;IRIT/Radium&#45;Engine/src/Core/Math/DualQuaternion.inl</title>
<polygon fill="white" stroke="none" points="-4,4 -4,-382 774,-382 774,4 -4,4"/>
<!-- Node1 -->
<g id="node1" class="node"><title>Node1</title>
<polygon fill="#bfbfbf" stroke="black" points="257.5,-336.5 257.5,-377.5 422.5,-377.5 422.5,-336.5 257.5,-336.5"/>
<text text-anchor="start" x="265.5" y="-365.5" font-family="Helvetica,sans-Serif" font-size="10.00">/home/travis/build</text>
<text text-anchor="start" x="265.5" y="-354.5" font-family="Helvetica,sans-Serif" font-size="10.00">/STORM&#45;IRIT/Radium&#45;Engine</text>
<text text-anchor="middle" x="340" y="-343.5" font-family="Helvetica,sans-Serif" font-size="10.00">/src/Core/Math/DualQuaternion.inl</text>
</g>
<!-- Node2 -->
<g id="node2" class="node"><title>Node2</title>
<g id="a_node2"><a xlink:href="DualQuaternion_8hpp.html" target="_top" xlink:title="/home/travis/build\l/STORM&#45;IRIT/Radium&#45;Engine\l/src/Core/Math/DualQuaternion.hpp">
<polygon fill="white" stroke="black" points="254.5,-258.5 254.5,-299.5 425.5,-299.5 425.5,-258.5 254.5,-258.5"/>
<text text-anchor="start" x="262.5" y="-287.5" font-family="Helvetica,sans-Serif" font-size="10.00">/home/travis/build</text>
<text text-anchor="start" x="262.5" y="-276.5" font-family="Helvetica,sans-Serif" font-size="10.00">/STORM&#45;IRIT/Radium&#45;Engine</text>
<text text-anchor="middle" x="340" y="-265.5" font-family="Helvetica,sans-Serif" font-size="10.00">/src/Core/Math/DualQuaternion.hpp</text>
</a>
</g>
</g>
<!-- Node1&#45;&gt;Node2 -->
<g id="edge1" class="edge"><title>Node1&#45;&gt;Node2</title>
<path fill="none" stroke="midnightblue" d="M333.395,-326.297C333.076,-317.301 333.283,-307.653 334.018,-299.506"/>
<polygon fill="midnightblue" stroke="midnightblue" points="329.911,-326.659 334.012,-336.428 336.898,-326.234 329.911,-326.659"/>
</g>
<!-- Node2&#45;&gt;Node1 -->
<g id="edge6" class="edge"><title>Node2&#45;&gt;Node1</title>
<path fill="none" stroke="midnightblue" d="M346.602,-309.63C346.924,-318.622 346.72,-328.272 345.988,-336.428"/>
<polygon fill="midnightblue" stroke="midnightblue" points="350.087,-309.273 345.982,-299.506 343.1,-309.701 350.087,-309.273"/>
</g>
<!-- Node3 -->
<g id="node3" class="node"><title>Node3</title>
<g id="a_node3"><a xlink:href="DualQuaternionSkinning_8hpp.html" target="_top" xlink:title="/home/travis/build\l/STORM&#45;IRIT/Radium&#45;Engine\l/src/Core/Animation/Skinning\l/DualQuaternionSkinning.hpp">
<polygon fill="white" stroke="black" points="166,-169 166,-221 314,-221 314,-169 166,-169"/>
<text text-anchor="start" x="174" y="-209" font-family="Helvetica,sans-Serif" font-size="10.00">/home/travis/build</text>
<text text-anchor="start" x="174" y="-198" font-family="Helvetica,sans-Serif" font-size="10.00">/STORM&#45;IRIT/Radium&#45;Engine</text>
<text text-anchor="start" x="174" y="-187" font-family="Helvetica,sans-Serif" font-size="10.00">/src/Core/Animation/Skinning</text>
<text text-anchor="middle" x="240" y="-176" font-family="Helvetica,sans-Serif" font-size="10.00">/DualQuaternionSkinning.hpp</text>
</a>
</g>
</g>
<!-- Node2&#45;&gt;Node3 -->
<g id="edge2" class="edge"><title>Node2&#45;&gt;Node3</title>
<path fill="none" stroke="midnightblue" d="M308.04,-251.793C296.045,-241.957 282.45,-230.809 270.583,-221.078"/>
<polygon fill="midnightblue" stroke="midnightblue" points="306.096,-254.725 316.048,-258.359 310.534,-249.312 306.096,-254.725"/>
</g>
<!-- Node7 -->
<g id="node7" class="node"><title>Node7</title>
<g id="a_node7"><a xlink:href="SkinningComponent_8hpp.html" target="_top" xlink:title="/home/travis/build\l/STORM&#45;IRIT/Radium&#45;Engine\l/Plugins/Skinning/src/SkinningComponent.hpp">
<polygon fill="white" stroke="black" points="332,-174.5 332,-215.5 550,-215.5 550,-174.5 332,-174.5"/>
<text text-anchor="start" x="340" y="-203.5" font-family="Helvetica,sans-Serif" font-size="10.00">/home/travis/build</text>
<text text-anchor="start" x="340" y="-192.5" font-family="Helvetica,sans-Serif" font-size="10.00">/STORM&#45;IRIT/Radium&#45;Engine</text>
<text text-anchor="middle" x="441" y="-181.5" font-family="Helvetica,sans-Serif" font-size="10.00">/Plugins/Skinning/src/SkinningComponent.hpp</text>
</a>
</g>
</g>
<!-- Node2&#45;&gt;Node7 -->
<g id="edge7" class="edge"><title>Node2&#45;&gt;Node7</title>
<path fill="none" stroke="midnightblue" d="M372.351,-251.735C386.724,-240.065 403.36,-226.559 416.655,-215.765"/>
<polygon fill="midnightblue" stroke="midnightblue" points="369.749,-249.339 364.192,-258.359 374.162,-254.773 369.749,-249.339"/>
</g>
<!-- Node4 -->
<g id="node4" class="node"><title>Node4</title>
<g id="a_node4"><a xlink:href="DualQuaternionSkinning_8cpp.html" target="_top" xlink:title="/home/travis/build\l/STORM&#45;IRIT/Radium&#45;Engine\l/src/Core/Animation/Skinning\l/DualQuaternionSkinning.cpp">
<polygon fill="white" stroke="black" points="0,-79 0,-131 148,-131 148,-79 0,-79"/>
<text text-anchor="start" x="8" y="-119" font-family="Helvetica,sans-Serif" font-size="10.00">/home/travis/build</text>
<text text-anchor="start" x="8" y="-108" font-family="Helvetica,sans-Serif" font-size="10.00">/STORM&#45;IRIT/Radium&#45;Engine</text>
<text text-anchor="start" x="8" y="-97" font-family="Helvetica,sans-Serif" font-size="10.00">/src/Core/Animation/Skinning</text>
<text text-anchor="middle" x="74" y="-86" font-family="Helvetica,sans-Serif" font-size="10.00">/DualQuaternionSkinning.cpp</text>
</a>
</g>
</g>
<!-- Node3&#45;&gt;Node4 -->
<g id="edge3" class="edge"><title>Node3&#45;&gt;Node4</title>
<path fill="none" stroke="midnightblue" d="M183.334,-163.96C163.136,-153.253 140.616,-141.315 121.289,-131.069"/>
<polygon fill="midnightblue" stroke="midnightblue" points="181.956,-167.191 192.431,-168.783 185.235,-161.007 181.956,-167.191"/>
</g>
<!-- Node5 -->
<g id="node5" class="node"><title>Node5</title>
<g id="a_node5"><a xlink:href="RotationCenterSkinning_8cpp.html" target="_top" xlink:title="/home/travis/build\l/STORM&#45;IRIT/Radium&#45;Engine\l/src/Core/Animation/Skinning\l/RotationCenterSkinning.cpp">
<polygon fill="white" stroke="black" points="166,-79 166,-131 314,-131 314,-79 166,-79"/>
<text text-anchor="start" x="174" y="-119" font-family="Helvetica,sans-Serif" font-size="10.00">/home/travis/build</text>
<text text-anchor="start" x="174" y="-108" font-family="Helvetica,sans-Serif" font-size="10.00">/STORM&#45;IRIT/Radium&#45;Engine</text>
<text text-anchor="start" x="174" y="-97" font-family="Helvetica,sans-Serif" font-size="10.00">/src/Core/Animation/Skinning</text>
<text text-anchor="middle" x="240" y="-86" font-family="Helvetica,sans-Serif" font-size="10.00">/RotationCenterSkinning.cpp</text>
</a>
</g>
</g>
<!-- Node3&#45;&gt;Node5 -->
<g id="edge4" class="edge"><title>Node3&#45;&gt;Node5</title>
<path fill="none" stroke="midnightblue" d="M240,-158.489C240,-149.309 240,-139.616 240,-131.092"/>
<polygon fill="midnightblue" stroke="midnightblue" points="236.5,-158.547 240,-168.547 243.5,-158.547 236.5,-158.547"/>
</g>
<!-- Node6 -->
<g id="node6" class="node"><title>Node6</title>
<g id="a_node6"><a xlink:href="SkinningComponent_8cpp.html" target="_top" xlink:title="/home/travis/build\l/STORM&#45;IRIT/Radium&#45;Engine\l/Plugins/Skinning/src/SkinningComponent.cpp">
<polygon fill="white" stroke="black" points="332,-84.5 332,-125.5 550,-125.5 550,-84.5 332,-84.5"/>
<text text-anchor="start" x="340" y="-113.5" font-family="Helvetica,sans-Serif" font-size="10.00">/home/travis/build</text>
<text text-anchor="start" x="340" y="-102.5" font-family="Helvetica,sans-Serif" font-size="10.00">/STORM&#45;IRIT/Radium&#45;Engine</text>
<text text-anchor="middle" x="441" y="-91.5" font-family="Helvetica,sans-Serif" font-size="10.00">/Plugins/Skinning/src/SkinningComponent.cpp</text>
</a>
</g>
</g>
<!-- Node3&#45;&gt;Node6 -->
<g id="edge5" class="edge"><title>Node3&#45;&gt;Node6</title>
<path fill="none" stroke="midnightblue" d="M306.726,-164.787C336.189,-151.888 370.033,-137.07 396.373,-125.538"/>
<polygon fill="midnightblue" stroke="midnightblue" points="305.086,-161.684 297.33,-168.901 307.894,-168.096 305.086,-161.684"/>
</g>
<!-- Node7&#45;&gt;Node6 -->
<g id="edge8" class="edge"><title>Node7&#45;&gt;Node6</title>
<path fill="none" stroke="midnightblue" d="M441,-164.33C441,-151.629 441,-137.14 441,-125.78"/>
<polygon fill="midnightblue" stroke="midnightblue" points="437.5,-164.47 441,-174.47 444.5,-164.47 437.5,-164.47"/>
</g>
<!-- Node8 -->
<g id="node8" class="node"><title>Node8</title>
<g id="a_node8"><a xlink:href="SkinningSystem_8hpp.html" target="_top" xlink:title="/home/travis/build\l/STORM&#45;IRIT/Radium&#45;Engine\l/Plugins/Skinning/src/SkinningSystem.hpp">
<polygon fill="white" stroke="black" points="568,-84.5 568,-125.5 770,-125.5 770,-84.5 568,-84.5"/>
<text text-anchor="start" x="576" y="-113.5" font-family="Helvetica,sans-Serif" font-size="10.00">/home/travis/build</text>
<text text-anchor="start" x="576" y="-102.5" font-family="Helvetica,sans-Serif" font-size="10.00">/STORM&#45;IRIT/Radium&#45;Engine</text>
<text text-anchor="middle" x="669" y="-91.5" font-family="Helvetica,sans-Serif" font-size="10.00">/Plugins/Skinning/src/SkinningSystem.hpp</text>
</a>
</g>
</g>
<!-- Node7&#45;&gt;Node8 -->
<g id="edge9" class="edge"><title>Node7&#45;&gt;Node8</title>
<path fill="none" stroke="midnightblue" d="M501.125,-170.794C537.559,-156.732 583.528,-138.989 618.147,-125.627"/>
<polygon fill="midnightblue" stroke="midnightblue" points="499.67,-167.604 491.601,-174.47 502.19,-174.134 499.67,-167.604"/>
</g>
<!-- Node9 -->
<g id="node9" class="node"><title>Node9</title>
<g id="a_node9"><a xlink:href="SkinningPlugin_8cpp.html" target="_top" xlink:title="/home/travis/build\l/STORM&#45;IRIT/Radium&#45;Engine\l/Plugins/Skinning/src/SkinningPlugin.cpp">
<polygon fill="white" stroke="black" points="571.5,-0.5 571.5,-41.5 766.5,-41.5 766.5,-0.5 571.5,-0.5"/>
<text text-anchor="start" x="579.5" y="-29.5" font-family="Helvetica,sans-Serif" font-size="10.00">/home/travis/build</text>
<text text-anchor="start" x="579.5" y="-18.5" font-family="Helvetica,sans-Serif" font-size="10.00">/STORM&#45;IRIT/Radium&#45;Engine</text>
<text text-anchor="middle" x="669" y="-7.5" font-family="Helvetica,sans-Serif" font-size="10.00">/Plugins/Skinning/src/SkinningPlugin.cpp</text>
</a>
</g>
</g>
<!-- Node8&#45;&gt;Node9 -->
<g id="edge10" class="edge"><title>Node8&#45;&gt;Node9</title>
<path fill="none" stroke="midnightblue" d="M669,-73.881C669,-63.1328 669,-51.309 669,-41.6671"/>
<polygon fill="midnightblue" stroke="midnightblue" points="665.5,-74.1501 669,-84.1501 672.5,-74.1501 665.5,-74.1501"/>
</g>
</g>
</svg>
