<?xml version="1.0" encoding="UTF-8" standalone="no"?>
<!DOCTYPE svg PUBLIC "-//W3C//DTD SVG 1.1//EN"
 "http://www.w3.org/Graphics/SVG/1.1/DTD/svg11.dtd">
<!-- Generated by graphviz version 2.36.0 (20140111.2315)
 -->
<!-- Title: /home/travis/build/STORM&#45;IRIT/Radium&#45;Engine/Plugins/Dummy/src/DummyPlugin.cpp Pages: 1 -->
<svg width="1628pt" height="330pt"
 viewBox="0.00 0.00 1627.74 330.00" xmlns="http://www.w3.org/2000/svg" xmlns:xlink="http://www.w3.org/1999/xlink">
<g id="graph0" class="graph" transform="scale(1 1) rotate(0) translate(4 326)">
<title>/home/travis/build/STORM&#45;IRIT/Radium&#45;Engine/Plugins/Dummy/src/DummyPlugin.cpp</title>
<polygon fill="white" stroke="none" points="-4,4 -4,-326 1623.74,-326 1623.74,4 -4,4"/>
<!-- Node1 -->
<g id="node1" class="node"><title>Node1</title>
<polygon fill="#bfbfbf" stroke="black" points="1075.24,-280.5 1075.24,-321.5 1264.24,-321.5 1264.24,-280.5 1075.24,-280.5"/>
<text text-anchor="start" x="1083.24" y="-309.5" font-family="Helvetica,sans-Serif" font-size="10.00">/home/travis/build</text>
<text text-anchor="start" x="1083.24" y="-298.5" font-family="Helvetica,sans-Serif" font-size="10.00">/STORM&#45;IRIT/Radium&#45;Engine</text>
<text text-anchor="middle" x="1169.74" y="-287.5" font-family="Helvetica,sans-Serif" font-size="10.00">/Plugins/Dummy/src/DummyPlugin.cpp</text>
</g>
<!-- Node2 -->
<g id="node2" class="node"><title>Node2</title>
<g id="a_node2"><a xlink:href="DummyPlugin_8hpp.html" target="_top" xlink:title="DummyPlugin.hpp">
<polygon fill="white" stroke="black" points="130.245,-224.5 130.245,-243.5 227.245,-243.5 227.245,-224.5 130.245,-224.5"/>
<text text-anchor="middle" x="178.745" y="-231.5" font-family="Helvetica,sans-Serif" font-size="10.00">DummyPlugin.hpp</text>
</a>
</g>
</g>
<!-- Node1&#45;&gt;Node2 -->
<g id="edge1" class="edge"><title>Node1&#45;&gt;Node2</title>
<path fill="none" stroke="midnightblue" d="M1075.17,-293.797C872.91,-280.531 403.271,-249.727 237.763,-238.871"/>
<polygon fill="midnightblue" stroke="midnightblue" points="237.515,-235.347 227.307,-238.185 237.057,-242.332 237.515,-235.347"/>
</g>
<!-- Node15 -->
<g id="node15" class="node"><title>Node15</title>
<polygon fill="white" stroke="#bfbfbf" points="1075.74,-224.5 1075.74,-243.5 1127.74,-243.5 1127.74,-224.5 1075.74,-224.5"/>
<text text-anchor="middle" x="1101.74" y="-231.5" font-family="Helvetica,sans-Serif" font-size="10.00">QAction</text>
</g>
<!-- Node1&#45;&gt;Node15 -->
<g id="edge15" class="edge"><title>Node1&#45;&gt;Node15</title>
<path fill="none" stroke="midnightblue" d="M1149.34,-280.498C1139.42,-271.011 1127.64,-259.756 1118.29,-250.813"/>
<polygon fill="midnightblue" stroke="midnightblue" points="1120.44,-248.032 1110.8,-243.652 1115.61,-253.092 1120.44,-248.032"/>
</g>
<!-- Node16 -->
<g id="node16" class="node"><title>Node16</title>
<polygon fill="white" stroke="#bfbfbf" points="1146.24,-224.5 1146.24,-243.5 1193.24,-243.5 1193.24,-224.5 1146.24,-224.5"/>
<text text-anchor="middle" x="1169.74" y="-231.5" font-family="Helvetica,sans-Serif" font-size="10.00">QLabel</text>
</g>
<!-- Node1&#45;&gt;Node16 -->
<g id="edge16" class="edge"><title>Node1&#45;&gt;Node16</title>
<path fill="none" stroke="midnightblue" d="M1169.74,-280.498C1169.74,-272.065 1169.74,-262.235 1169.74,-253.874"/>
<polygon fill="midnightblue" stroke="midnightblue" points="1173.24,-253.652 1169.74,-243.652 1166.24,-253.653 1173.24,-253.652"/>
</g>
<!-- Node17 -->
<g id="node17" class="node"><title>Node17</title>
<polygon fill="white" stroke="#bfbfbf" points="1211.74,-224.5 1211.74,-243.5 1259.74,-243.5 1259.74,-224.5 1211.74,-224.5"/>
<text text-anchor="middle" x="1235.74" y="-231.5" font-family="Helvetica,sans-Serif" font-size="10.00">QMenu</text>
</g>
<!-- Node1&#45;&gt;Node17 -->
<g id="edge17" class="edge"><title>Node1&#45;&gt;Node17</title>
<path fill="none" stroke="midnightblue" d="M1189.55,-280.498C1199.18,-271.011 1210.61,-259.756 1219.69,-250.813"/>
<polygon fill="midnightblue" stroke="midnightblue" points="1222.29,-253.163 1226.96,-243.652 1217.38,-248.176 1222.29,-253.163"/>
</g>
<!-- Node18 -->
<g id="node18" class="node"><title>Node18</title>
<polygon fill="white" stroke="#bfbfbf" points="1278.24,-224.5 1278.24,-243.5 1359.24,-243.5 1359.24,-224.5 1278.24,-224.5"/>
<text text-anchor="middle" x="1318.74" y="-231.5" font-family="Helvetica,sans-Serif" font-size="10.00">QMessageBox</text>
</g>
<!-- Node1&#45;&gt;Node18 -->
<g id="edge18" class="edge"><title>Node1&#45;&gt;Node18</title>
<path fill="none" stroke="midnightblue" d="M1214.45,-280.498C1238.83,-269.861 1268.31,-257.001 1289.7,-247.67"/>
<polygon fill="midnightblue" stroke="midnightblue" points="1291.14,-250.859 1298.91,-243.652 1288.35,-244.443 1291.14,-250.859"/>
</g>
<!-- Node19 -->
<g id="node19" class="node"><title>Node19</title>
<polygon fill="white" stroke="#bfbfbf" points="1377.24,-224.5 1377.24,-243.5 1452.24,-243.5 1452.24,-224.5 1377.24,-224.5"/>
<text text-anchor="middle" x="1414.74" y="-231.5" font-family="Helvetica,sans-Serif" font-size="10.00">QPushButton</text>
</g>
<!-- Node1&#45;&gt;Node19 -->
<g id="edge19" class="edge"><title>Node1&#45;&gt;Node19</title>
<path fill="none" stroke="midnightblue" d="M1243.25,-280.498C1285.46,-269.3 1336.95,-255.638 1372.44,-246.224"/>
<polygon fill="midnightblue" stroke="midnightblue" points="1373.69,-249.514 1382.45,-243.567 1371.89,-242.749 1373.69,-249.514"/>
</g>
<!-- Node20 -->
<g id="node20" class="node"><title>Node20</title>
<polygon fill="white" stroke="#bfbfbf" points="1470.24,-224.5 1470.24,-243.5 1547.24,-243.5 1547.24,-224.5 1470.24,-224.5"/>
<text text-anchor="middle" x="1508.74" y="-231.5" font-family="Helvetica,sans-Serif" font-size="10.00">QVBoxLayout</text>
</g>
<!-- Node1&#45;&gt;Node20 -->
<g id="edge20" class="edge"><title>Node1&#45;&gt;Node20</title>
<path fill="none" stroke="midnightblue" d="M1264.63,-281.807C1328.21,-269.615 1409.31,-254.066 1460.14,-244.319"/>
<polygon fill="midnightblue" stroke="midnightblue" points="1461.04,-247.711 1470.2,-242.39 1459.72,-240.836 1461.04,-247.711"/>
</g>
<!-- Node21 -->
<g id="node21" class="node"><title>Node21</title>
<polygon fill="white" stroke="#bfbfbf" points="1565.24,-224.5 1565.24,-243.5 1620.24,-243.5 1620.24,-224.5 1565.24,-224.5"/>
<text text-anchor="middle" x="1592.74" y="-231.5" font-family="Helvetica,sans-Serif" font-size="10.00">QWidget</text>
</g>
<!-- Node1&#45;&gt;Node21 -->
<g id="edge21" class="edge"><title>Node1&#45;&gt;Node21</title>
<path fill="none" stroke="midnightblue" d="M1264.55,-288.785C1340.5,-279.213 1449.93,-264.104 1554.79,-244.024"/>
<polygon fill="midnightblue" stroke="midnightblue" points="1555.77,-247.4 1564.93,-242.065 1554.44,-240.527 1555.77,-247.4"/>
</g>
<!-- Node22 -->
<g id="node22" class="node"><title>Node22</title>
<g id="a_node22"><a xlink:href="Log_8hpp.html" target="_top" xlink:title="Core/Log/Log.hpp">
<polygon fill="white" stroke="black" points="963.745,-224.5 963.745,-243.5 1057.74,-243.5 1057.74,-224.5 963.745,-224.5"/>
<text text-anchor="middle" x="1010.74" y="-231.5" font-family="Helvetica,sans-Serif" font-size="10.00">Core/Log/Log.hpp</text>
</a>
</g>
</g>
<!-- Node1&#45;&gt;Node22 -->
<g id="edge22" class="edge"><title>Node1&#45;&gt;Node22</title>
<path fill="none" stroke="midnightblue" d="M1122.04,-280.498C1095.9,-269.813 1064.28,-256.885 1041.43,-247.545"/>
<polygon fill="midnightblue" stroke="midnightblue" points="1042.49,-244.197 1031.91,-243.652 1039.84,-250.676 1042.49,-244.197"/>
</g>
<!-- Node28 -->
<g id="node28" class="node"><title>Node28</title>
<g id="a_node28"><a xlink:href="RadiumEngine_8hpp.html" target="_top" xlink:title="Engine/RadiumEngine.hpp">
<polygon fill="white" stroke="black" points="669.745,-224.5 669.745,-243.5 801.745,-243.5 801.745,-224.5 669.745,-224.5"/>
<text text-anchor="middle" x="735.745" y="-231.5" font-family="Helvetica,sans-Serif" font-size="10.00">Engine/RadiumEngine.hpp</text>
</a>
</g>
</g>
<!-- Node1&#45;&gt;Node28 -->
<g id="edge33" class="edge"><title>Node1&#45;&gt;Node28</title>
<path fill="none" stroke="midnightblue" d="M1075.04,-285.816C992.736,-273.49 875.588,-255.944 802.696,-245.027"/>
<polygon fill="midnightblue" stroke="midnightblue" points="803.12,-241.552 792.712,-243.532 802.083,-248.475 803.12,-241.552"/>
</g>
<!-- Node32 -->
<g id="node32" class="node"><title>Node32</title>
<g id="a_node32"><a xlink:href="DummySystem_8hpp.html" target="_top" xlink:title="DummySystem.hpp">
<polygon fill="white" stroke="black" points="493.745,-224.5 493.745,-243.5 597.745,-243.5 597.745,-224.5 493.745,-224.5"/>
<text text-anchor="middle" x="545.745" y="-231.5" font-family="Helvetica,sans-Serif" font-size="10.00">DummySystem.hpp</text>
</a>
</g>
</g>
<!-- Node1&#45;&gt;Node32 -->
<g id="edge42" class="edge"><title>Node1&#45;&gt;Node32</title>
<path fill="none" stroke="midnightblue" d="M1074.97,-290.128C945.83,-276.676 718.115,-252.955 608.358,-241.522"/>
<polygon fill="midnightblue" stroke="midnightblue" points="608.42,-238.01 598.112,-240.455 607.695,-244.972 608.42,-238.01"/>
</g>
<!-- Node3 -->
<g id="node3" class="node"><title>Node3</title>
<g id="a_node3"><a xlink:href="DummyPluginMacros_8hpp.html" target="_top" xlink:title="DummyPluginMacros.hpp">
<polygon fill="white" stroke="black" points="290.245,-168.5 290.245,-187.5 419.245,-187.5 419.245,-168.5 290.245,-168.5"/>
<text text-anchor="middle" x="354.745" y="-175.5" font-family="Helvetica,sans-Serif" font-size="10.00">DummyPluginMacros.hpp</text>
</a>
</g>
</g>
<!-- Node2&#45;&gt;Node3 -->
<g id="edge2" class="edge"><title>Node2&#45;&gt;Node3</title>
<path fill="none" stroke="midnightblue" d="M206.632,-224.444C236.498,-215.28 284.059,-200.688 317.201,-190.519"/>
<polygon fill="midnightblue" stroke="midnightblue" points="318.454,-193.796 326.987,-187.516 316.401,-187.104 318.454,-193.796"/>
</g>
<!-- Node10 -->
<g id="node10" class="node"><title>Node10</title>
<polygon fill="white" stroke="#bfbfbf" points="14.2447,-168.5 14.2447,-187.5 67.2447,-187.5 67.2447,-168.5 14.2447,-168.5"/>
<text text-anchor="middle" x="40.7447" y="-175.5" font-family="Helvetica,sans-Serif" font-size="10.00">QObject</text>
</g>
<!-- Node2&#45;&gt;Node10 -->
<g id="edge9" class="edge"><title>Node2&#45;&gt;Node10</title>
<path fill="none" stroke="midnightblue" d="M156.878,-224.444C133.965,-215.478 97.7695,-201.314 71.8783,-191.183"/>
<polygon fill="midnightblue" stroke="midnightblue" points="73.0968,-187.901 62.5089,-187.516 70.5459,-194.42 73.0968,-187.901"/>
</g>
<!-- Node11 -->
<g id="node11" class="node"><title>Node11</title>
<polygon fill="white" stroke="#bfbfbf" points="54.7447,-112.5 54.7447,-131.5 108.745,-131.5 108.745,-112.5 54.7447,-112.5"/>
<text text-anchor="middle" x="81.7447" y="-119.5" font-family="Helvetica,sans-Serif" font-size="10.00">QtPlugin</text>
</g>
<!-- Node2&#45;&gt;Node11 -->
<g id="edge10" class="edge"><title>Node2&#45;&gt;Node11</title>
<path fill="none" stroke="midnightblue" d="M130.137,-227.088C84.175,-220.381 20.0267,-207.737 4.74472,-188 -11.8299,-166.594 19.7725,-147.315 47.3621,-135.414"/>
<polygon fill="midnightblue" stroke="midnightblue" points="48.9405,-138.55 56.8679,-131.521 46.2874,-132.072 48.9405,-138.55"/>
</g>
<!-- Node12 -->
<g id="node12" class="node"><title>Node12</title>
<g id="a_node12"><a xlink:href="RadiumPluginInterface_8hpp.html" target="_top" xlink:title="PluginBase/RadiumPluginInterface.hpp">
<polygon fill="white" stroke="black" points="85.2447,-168.5 85.2447,-187.5 272.245,-187.5 272.245,-168.5 85.2447,-168.5"/>
<text text-anchor="middle" x="178.745" y="-175.5" font-family="Helvetica,sans-Serif" font-size="10.00">PluginBase/RadiumPluginInterface.hpp</text>
</a>
</g>
</g>
<!-- Node2&#45;&gt;Node12 -->
<g id="edge11" class="edge"><title>Node2&#45;&gt;Node12</title>
<path fill="none" stroke="midnightblue" d="M178.745,-224.083C178.745,-217.006 178.745,-206.861 178.745,-197.986"/>
<polygon fill="midnightblue" stroke="midnightblue" points="182.245,-197.751 178.745,-187.751 175.245,-197.751 182.245,-197.751"/>
</g>
<!-- Node4 -->
<g id="node4" class="node"><title>Node4</title>
<g id="a_node4"><a xlink:href="CoreMacros_8hpp.html" target="_top" xlink:title="Core/CoreMacros.hpp">
<polygon fill="white" stroke="black" points="754.245,-56.5 754.245,-75.5 867.245,-75.5 867.245,-56.5 754.245,-56.5"/>
<text text-anchor="middle" x="810.745" y="-63.5" font-family="Helvetica,sans-Serif" font-size="10.00">Core/CoreMacros.hpp</text>
</a>
</g>
</g>
<!-- Node3&#45;&gt;Node4 -->
<g id="edge3" class="edge"><title>Node3&#45;&gt;Node4</title>
<path fill="none" stroke="midnightblue" d="M359.502,-168.443C368.049,-153.996 387.491,-125.065 412.745,-112 468.891,-82.9535 646.04,-72.4673 743.994,-68.829"/>
<polygon fill="midnightblue" stroke="midnightblue" points="744.219,-72.3233 754.088,-68.4679 743.969,-65.3277 744.219,-72.3233"/>
</g>
<!-- Node5 -->
<g id="node5" class="node"><title>Node5</title>
<polygon fill="white" stroke="#bfbfbf" points="689.245,-0.5 689.245,-19.5 738.245,-19.5 738.245,-0.5 689.245,-0.5"/>
<text text-anchor="middle" x="713.745" y="-7.5" font-family="Helvetica,sans-Serif" font-size="10.00">cassert</text>
</g>
<!-- Node4&#45;&gt;Node5 -->
<g id="edge4" class="edge"><title>Node4&#45;&gt;Node5</title>
<path fill="none" stroke="midnightblue" d="M795.16,-56.324C779.746,-47.7428 755.933,-34.486 738.035,-24.5224"/>
<polygon fill="midnightblue" stroke="midnightblue" points="739.731,-21.4606 729.291,-19.6545 736.326,-27.5767 739.731,-21.4606"/>
</g>
<!-- Node6 -->
<g id="node6" class="node"><title>Node6</title>
<polygon fill="white" stroke="#bfbfbf" points="756.245,-0.5 756.245,-19.5 799.245,-19.5 799.245,-0.5 756.245,-0.5"/>
<text text-anchor="middle" x="777.745" y="-7.5" font-family="Helvetica,sans-Serif" font-size="10.00">cstdio</text>
</g>
<!-- Node4&#45;&gt;Node6 -->
<g id="edge5" class="edge"><title>Node4&#45;&gt;Node6</title>
<path fill="none" stroke="midnightblue" d="M805.295,-56.083C800.73,-48.6127 794.076,-37.7244 788.451,-28.5199"/>
<polygon fill="midnightblue" stroke="midnightblue" points="791.294,-26.4588 783.093,-19.7511 785.321,-30.109 791.294,-26.4588"/>
</g>
<!-- Node7 -->
<g id="node7" class="node"><title>Node7</title>
<polygon fill="white" stroke="#bfbfbf" points="817.745,-0.5 817.745,-19.5 871.745,-19.5 871.745,-0.5 817.745,-0.5"/>
<text text-anchor="middle" x="844.745" y="-7.5" font-family="Helvetica,sans-Serif" font-size="10.00">iostream</text>
</g>
<!-- Node4&#45;&gt;Node7 -->
<g id="edge6" class="edge"><title>Node4&#45;&gt;Node7</title>
<path fill="none" stroke="midnightblue" d="M816.359,-56.083C821.112,-48.5341 828.063,-37.4948 833.896,-28.2298"/>
<polygon fill="midnightblue" stroke="midnightblue" points="836.868,-30.0783 839.235,-19.7511 830.945,-26.3486 836.868,-30.0783"/>
</g>
<!-- Node8 -->
<g id="node8" class="node"><title>Node8</title>
<polygon fill="white" stroke="#bfbfbf" points="1104.74,-0.5 1104.74,-19.5 1156.74,-19.5 1156.74,-0.5 1104.74,-0.5"/>
<text text-anchor="middle" x="1130.74" y="-7.5" font-family="Helvetica,sans-Serif" font-size="10.00">sstream</text>
</g>
<!-- Node4&#45;&gt;Node8 -->
<g id="edge7" class="edge"><title>Node4&#45;&gt;Node8</title>
<path fill="none" stroke="midnightblue" d="M861.45,-56.4435C926.485,-45.4688 1037.67,-26.7065 1094.69,-17.084"/>
<polygon fill="midnightblue" stroke="midnightblue" points="1095.41,-20.5128 1104.68,-15.3976 1094.24,-13.6104 1095.41,-20.5128"/>
</g>
<!-- Node9 -->
<g id="node9" class="node"><title>Node9</title>
<polygon fill="white" stroke="#bfbfbf" points="889.745,-0.5 889.745,-19.5 933.745,-19.5 933.745,-0.5 889.745,-0.5"/>
<text text-anchor="middle" x="911.745" y="-7.5" font-family="Helvetica,sans-Serif" font-size="10.00">thread</text>
</g>
<!-- Node4&#45;&gt;Node9 -->
<g id="edge8" class="edge"><title>Node4&#45;&gt;Node9</title>
<path fill="none" stroke="midnightblue" d="M826.972,-56.324C843.096,-47.7034 868.045,-34.3643 886.709,-24.3855"/>
<polygon fill="midnightblue" stroke="midnightblue" points="888.389,-27.456 895.558,-19.6545 885.089,-21.283 888.389,-27.456"/>
</g>
<!-- Node12&#45;&gt;Node11 -->
<g id="edge14" class="edge"><title>Node12&#45;&gt;Node11</title>
<path fill="none" stroke="midnightblue" d="M163.16,-168.324C147.746,-159.743 123.933,-146.486 106.035,-136.522"/>
<polygon fill="midnightblue" stroke="midnightblue" points="107.731,-133.461 97.2908,-131.655 104.326,-139.577 107.731,-133.461"/>
</g>
<!-- Node13 -->
<g id="node13" class="node"><title>Node13</title>
<polygon fill="white" stroke="#bfbfbf" points="421.745,-112.5 421.745,-131.5 473.745,-131.5 473.745,-112.5 421.745,-112.5"/>
<text text-anchor="middle" x="447.745" y="-119.5" font-family="Helvetica,sans-Serif" font-size="10.00">memory</text>
</g>
<!-- Node12&#45;&gt;Node13 -->
<g id="edge12" class="edge"><title>Node12&#45;&gt;Node13</title>
<path fill="none" stroke="midnightblue" d="M221.369,-168.444C273.926,-157.893 362.335,-140.145 411.679,-130.24"/>
<polygon fill="midnightblue" stroke="midnightblue" points="412.473,-133.65 421.589,-128.251 411.095,-126.787 412.473,-133.65"/>
</g>
<!-- Node14 -->
<g id="node14" class="node"><title>Node14</title>
<polygon fill="white" stroke="#bfbfbf" points="570.745,-112.5 570.745,-131.5 614.745,-131.5 614.745,-112.5 570.745,-112.5"/>
<text text-anchor="middle" x="592.745" y="-119.5" font-family="Helvetica,sans-Serif" font-size="10.00">vector</text>
</g>
<!-- Node12&#45;&gt;Node14 -->
<g id="edge13" class="edge"><title>Node12&#45;&gt;Node14</title>
<path fill="none" stroke="midnightblue" d="M244.344,-168.444C334.376,-156.7 492.768,-136.04 560.524,-127.203"/>
<polygon fill="midnightblue" stroke="midnightblue" points="561.133,-130.653 570.596,-125.889 560.227,-123.712 561.133,-130.653"/>
</g>
<!-- Node22&#45;&gt;Node8 -->
<g id="edge25" class="edge"><title>Node22&#45;&gt;Node8</title>
<path fill="none" stroke="midnightblue" d="M1057.86,-224.901C1110.9,-215.307 1190.89,-199.216 1199.74,-188 1239.89,-137.179 1177.85,-60.1852 1146.77,-27.0691"/>
<polygon fill="midnightblue" stroke="midnightblue" points="1149.07,-24.4143 1139.62,-19.6377 1144.03,-29.2692 1149.07,-24.4143"/>
</g>
<!-- Node23 -->
<g id="node23" class="node"><title>Node23</title>
<g id="a_node23"><a xlink:href="RaCore_8hpp.html" target="_top" xlink:title="Core/RaCore.hpp">
<polygon fill="white" stroke="black" points="839.245,-112.5 839.245,-131.5 932.245,-131.5 932.245,-112.5 839.245,-112.5"/>
<text text-anchor="middle" x="885.745" y="-119.5" font-family="Helvetica,sans-Serif" font-size="10.00">Core/RaCore.hpp</text>
</a>
</g>
</g>
<!-- Node22&#45;&gt;Node23 -->
<g id="edge23" class="edge"><title>Node22&#45;&gt;Node23</title>
<path fill="none" stroke="midnightblue" d="M991.908,-224.447C975.653,-216.489 952.117,-203.538 934.745,-188 919.168,-174.068 905.237,-154.543 896.248,-140.535"/>
<polygon fill="midnightblue" stroke="midnightblue" points="899.106,-138.502 890.855,-131.856 893.16,-142.197 899.106,-138.502"/>
</g>
<!-- Node24 -->
<g id="node24" class="node"><title>Node24</title>
<polygon fill="white" stroke="#bfbfbf" points="1269.74,-168.5 1269.74,-187.5 1315.74,-187.5 1315.74,-168.5 1269.74,-168.5"/>
<text text-anchor="middle" x="1292.74" y="-175.5" font-family="Helvetica,sans-Serif" font-size="10.00">stdio.h</text>
</g>
<!-- Node22&#45;&gt;Node24 -->
<g id="edge26" class="edge"><title>Node22&#45;&gt;Node24</title>
<path fill="none" stroke="midnightblue" d="M1057.87,-225.165C1107.32,-216.752 1187.23,-202.613 1255.74,-188 1257.02,-187.729 1258.31,-187.446 1259.62,-187.155"/>
<polygon fill="midnightblue" stroke="midnightblue" points="1260.75,-190.487 1269.7,-184.821 1259.17,-183.667 1260.75,-190.487"/>
</g>
<!-- Node25 -->
<g id="node25" class="node"><title>Node25</title>
<polygon fill="white" stroke="#bfbfbf" points="1085.24,-112.5 1085.24,-131.5 1126.24,-131.5 1126.24,-112.5 1085.24,-112.5"/>
<text text-anchor="middle" x="1105.74" y="-119.5" font-family="Helvetica,sans-Serif" font-size="10.00">string</text>
</g>
<!-- Node22&#45;&gt;Node25 -->
<g id="edge27" class="edge"><title>Node22&#45;&gt;Node25</title>
<path fill="none" stroke="midnightblue" d="M1054.76,-224.447C1103.33,-214.565 1175.75,-198.342 1183.74,-188 1201.37,-165.197 1164.66,-145.006 1135.83,-133.392"/>
<polygon fill="midnightblue" stroke="midnightblue" points="1137.04,-130.106 1126.45,-129.792 1134.53,-136.642 1137.04,-130.106"/>
</g>
<!-- Node26 -->
<g id="node26" class="node"><title>Node26</title>
<g id="a_node26"><a xlink:href="StringUtils_8hpp.html" target="_top" xlink:title="Core/String/StringUtils.hpp">
<polygon fill="white" stroke="black" points="943.745,-168.5 943.745,-187.5 1077.74,-187.5 1077.74,-168.5 943.745,-168.5"/>
<text text-anchor="middle" x="1010.74" y="-175.5" font-family="Helvetica,sans-Serif" font-size="10.00">Core/String/StringUtils.hpp</text>
</a>
</g>
</g>
<!-- Node22&#45;&gt;Node26 -->
<g id="edge28" class="edge"><title>Node22&#45;&gt;Node26</title>
<path fill="none" stroke="midnightblue" d="M1010.74,-224.083C1010.74,-217.006 1010.74,-206.861 1010.74,-197.986"/>
<polygon fill="midnightblue" stroke="midnightblue" points="1014.24,-197.751 1010.74,-187.751 1007.24,-197.751 1014.24,-197.751"/>
</g>
<!-- Node27 -->
<g id="node27" class="node"><title>Node27</title>
<polygon fill="white" stroke="#bfbfbf" points="1134.24,-168.5 1134.24,-187.5 1175.24,-187.5 1175.24,-168.5 1134.24,-168.5"/>
<text text-anchor="middle" x="1154.74" y="-175.5" font-family="Helvetica,sans-Serif" font-size="10.00">ctime</text>
</g>
<!-- Node22&#45;&gt;Node27 -->
<g id="edge32" class="edge"><title>Node22&#45;&gt;Node27</title>
<path fill="none" stroke="midnightblue" d="M1033.56,-224.444C1058.14,-215.226 1097.37,-200.516 1124.5,-190.34"/>
<polygon fill="midnightblue" stroke="midnightblue" points="1125.77,-193.604 1133.9,-186.815 1123.31,-187.049 1125.77,-193.604"/>
</g>
<!-- Node23&#45;&gt;Node4 -->
<g id="edge24" class="edge"><title>Node23&#45;&gt;Node4</title>
<path fill="none" stroke="midnightblue" d="M873.695,-112.324C862.282,-104.107 844.914,-91.6017 831.31,-81.8069"/>
<polygon fill="midnightblue" stroke="midnightblue" points="833.174,-78.8366 823.014,-75.8339 829.084,-84.5174 833.174,-78.8366"/>
</g>
<!-- Node26&#45;&gt;Node14 -->
<g id="edge31" class="edge"><title>Node26&#45;&gt;Node14</title>
<path fill="none" stroke="midnightblue" d="M944.511,-168.444C853.609,-156.7 693.687,-136.04 625.277,-127.203"/>
<polygon fill="midnightblue" stroke="midnightblue" points="625.473,-123.699 615.107,-125.889 624.576,-130.641 625.473,-123.699"/>
</g>
<!-- Node26&#45;&gt;Node23 -->
<g id="edge29" class="edge"><title>Node26&#45;&gt;Node23</title>
<path fill="none" stroke="midnightblue" d="M990.938,-168.444C970.458,-159.596 938.262,-145.687 914.88,-135.586"/>
<polygon fill="midnightblue" stroke="midnightblue" points="916.027,-132.269 905.459,-131.516 913.251,-138.695 916.027,-132.269"/>
</g>
<!-- Node26&#45;&gt;Node25 -->
<g id="edge30" class="edge"><title>Node26&#45;&gt;Node25</title>
<path fill="none" stroke="midnightblue" d="M1026.01,-168.324C1040.97,-159.822 1064,-146.729 1081.47,-136.797"/>
<polygon fill="midnightblue" stroke="midnightblue" points="1083.56,-139.639 1090.52,-131.655 1080.1,-133.553 1083.56,-139.639"/>
</g>
<!-- Node28&#45;&gt;Node13 -->
<g id="edge39" class="edge"><title>Node28&#45;&gt;Node13</title>
<path fill="none" stroke="midnightblue" d="M669.503,-225.622C594.811,-216.73 481.749,-201.322 466.745,-188 453.714,-176.43 449.403,-156.469 448.083,-141.711"/>
<polygon fill="midnightblue" stroke="midnightblue" points="451.575,-141.47 447.562,-131.665 444.585,-141.833 451.575,-141.47"/>
</g>
<!-- Node28&#45;&gt;Node14 -->
<g id="edge41" class="edge"><title>Node28&#45;&gt;Node14</title>
<path fill="none" stroke="midnightblue" d="M719.783,-224.366C704.589,-215.872 681.347,-202.153 662.745,-188 642.665,-172.722 621.728,-152.646 608.046,-138.871"/>
<polygon fill="midnightblue" stroke="midnightblue" points="610.389,-136.262 600.889,-131.572 605.391,-141.163 610.389,-136.262"/>
</g>
<!-- Node28&#45;&gt;Node25 -->
<g id="edge40" class="edge"><title>Node28&#45;&gt;Node25</title>
<path fill="none" stroke="midnightblue" d="M801.841,-228.415C897.513,-221.2 1065.52,-206.132 1086.74,-188 1099.99,-176.681 1104.27,-156.68 1105.52,-141.845"/>
<polygon fill="midnightblue" stroke="midnightblue" points="1109.02,-141.887 1105.99,-131.736 1102.03,-141.564 1109.02,-141.887"/>
</g>
<!-- Node29 -->
<g id="node29" class="node"><title>Node29</title>
<g id="a_node29"><a xlink:href="RaEngine_8hpp.html" target="_top" xlink:title="Engine/RaEngine.hpp">
<polygon fill="white" stroke="black" points="680.245,-112.5 680.245,-131.5 791.245,-131.5 791.245,-112.5 680.245,-112.5"/>
<text text-anchor="middle" x="735.745" y="-119.5" font-family="Helvetica,sans-Serif" font-size="10.00">Engine/RaEngine.hpp</text>
</a>
</g>
</g>
<!-- Node28&#45;&gt;Node29 -->
<g id="edge34" class="edge"><title>Node28&#45;&gt;Node29</title>
<path fill="none" stroke="midnightblue" d="M735.745,-224.368C735.745,-206.617 735.745,-165.666 735.745,-141.597"/>
<polygon fill="midnightblue" stroke="midnightblue" points="739.245,-141.591 735.745,-131.591 732.245,-141.591 739.245,-141.591"/>
</g>
<!-- Node30 -->
<g id="node30" class="node"><title>Node30</title>
<g id="a_node30"><a xlink:href="Singleton_8hpp.html" target="_top" xlink:title="Core/Utils/Singleton.hpp">
<polygon fill="white" stroke="black" points="764.245,-168.5 764.245,-187.5 887.245,-187.5 887.245,-168.5 764.245,-168.5"/>
<text text-anchor="middle" x="825.745" y="-175.5" font-family="Helvetica,sans-Serif" font-size="10.00">Core/Utils/Singleton.hpp</text>
</a>
</g>
</g>
<!-- Node28&#45;&gt;Node30 -->
<g id="edge36" class="edge"><title>Node28&#45;&gt;Node30</title>
<path fill="none" stroke="midnightblue" d="M750.205,-224.324C764.244,-215.9 785.793,-202.971 802.288,-193.074"/>
<polygon fill="midnightblue" stroke="midnightblue" points="804.546,-195.801 811.321,-187.655 800.945,-189.798 804.546,-195.801"/>
</g>
<!-- Node31 -->
<g id="node31" class="node"><title>Node31</title>
<polygon fill="white" stroke="#bfbfbf" points="672.245,-168.5 672.245,-187.5 707.245,-187.5 707.245,-168.5 672.245,-168.5"/>
<text text-anchor="middle" x="689.745" y="-175.5" font-family="Helvetica,sans-Serif" font-size="10.00">map</text>
</g>
<!-- Node28&#45;&gt;Node31 -->
<g id="edge38" class="edge"><title>Node28&#45;&gt;Node31</title>
<path fill="none" stroke="midnightblue" d="M728.149,-224.083C721.517,-216.298 711.724,-204.801 703.687,-195.367"/>
<polygon fill="midnightblue" stroke="midnightblue" points="706.348,-193.094 697.199,-187.751 701.02,-197.633 706.348,-193.094"/>
</g>
<!-- Node29&#45;&gt;Node4 -->
<g id="edge35" class="edge"><title>Node29&#45;&gt;Node4</title>
<path fill="none" stroke="midnightblue" d="M747.795,-112.324C759.208,-104.107 776.576,-91.6017 790.18,-81.8069"/>
<polygon fill="midnightblue" stroke="midnightblue" points="792.405,-84.5174 798.475,-75.8339 788.315,-78.8366 792.405,-84.5174"/>
</g>
<!-- Node30&#45;&gt;Node23 -->
<g id="edge37" class="edge"><title>Node30&#45;&gt;Node23</title>
<path fill="none" stroke="midnightblue" d="M835.385,-168.324C844.254,-160.341 857.619,-148.313 868.353,-138.653"/>
<polygon fill="midnightblue" stroke="midnightblue" points="870.838,-141.125 875.929,-131.834 866.155,-135.922 870.838,-141.125"/>
</g>
<!-- Node32&#45;&gt;Node3 -->
<g id="edge43" class="edge"><title>Node32&#45;&gt;Node3</title>
<path fill="none" stroke="midnightblue" d="M515.48,-224.444C482.789,-215.201 430.563,-200.436 394.562,-190.257"/>
<polygon fill="midnightblue" stroke="midnightblue" points="395.443,-186.869 384.868,-187.516 393.538,-193.605 395.443,-186.869"/>
</g>
<!-- Node33 -->
<g id="node33" class="node"><title>Node33</title>
<g id="a_node33"><a xlink:href="System_8hpp.html" target="_top" xlink:title="Engine/System/System.hpp">
<polygon fill="white" stroke="black" points="476.245,-168.5 476.245,-187.5 615.245,-187.5 615.245,-168.5 476.245,-168.5"/>
<text text-anchor="middle" x="545.745" y="-175.5" font-family="Helvetica,sans-Serif" font-size="10.00">Engine/System/System.hpp</text>
</a>
</g>
</g>
<!-- Node32&#45;&gt;Node33 -->
<g id="edge44" class="edge"><title>Node32&#45;&gt;Node33</title>
<path fill="none" stroke="midnightblue" d="M545.745,-224.083C545.745,-217.006 545.745,-206.861 545.745,-197.986"/>
<polygon fill="midnightblue" stroke="midnightblue" points="549.245,-197.751 545.745,-187.751 542.245,-197.751 549.245,-197.751"/>
</g>
<!-- Node33&#45;&gt;Node13 -->
<g id="edge46" class="edge"><title>Node33&#45;&gt;Node13</title>
<path fill="none" stroke="midnightblue" d="M529.999,-168.324C514.426,-159.743 490.367,-146.486 472.285,-136.522"/>
<polygon fill="midnightblue" stroke="midnightblue" points="473.899,-133.415 463.451,-131.655 470.52,-139.546 473.899,-133.415"/>
</g>
<!-- Node33&#45;&gt;Node14 -->
<g id="edge47" class="edge"><title>Node33&#45;&gt;Node14</title>
<path fill="none" stroke="midnightblue" d="M553.506,-168.083C560.282,-160.298 570.288,-148.801 578.5,-139.367"/>
<polygon fill="midnightblue" stroke="midnightblue" points="581.203,-141.592 585.128,-131.751 575.923,-136.996 581.203,-141.592"/>
</g>
<!-- Node33&#45;&gt;Node29 -->
<g id="edge45" class="edge"><title>Node33&#45;&gt;Node29</title>
<path fill="none" stroke="midnightblue" d="M575.851,-168.444C608.37,-159.201 660.323,-144.436 696.136,-134.257"/>
<polygon fill="midnightblue" stroke="midnightblue" points="697.117,-137.617 705.78,-131.516 695.204,-130.884 697.117,-137.617"/>
</g>
</g>
</svg>
