<?xml version="1.0" encoding="UTF-8" standalone="no"?>
<!DOCTYPE svg PUBLIC "-//W3C//DTD SVG 1.1//EN"
 "http://www.w3.org/Graphics/SVG/1.1/DTD/svg11.dtd">
<!-- Generated by graphviz version 2.36.0 (20140111.2315)
 -->
<!-- Title: /home/travis/build/STORM&#45;IRIT/Radium&#45;Engine/src/Core/File/deprecated/FileManager.inl Pages: 1 -->
<svg width="156pt" height="186pt"
 viewBox="0.00 0.00 156.00 186.00" xmlns="http://www.w3.org/2000/svg" xmlns:xlink="http://www.w3.org/1999/xlink">
<g id="graph0" class="graph" transform="scale(1 1) rotate(0) translate(4 182)">
<title>/home/travis/build/STORM&#45;IRIT/Radium&#45;Engine/src/Core/File/deprecated/FileManager.inl</title>
<polygon fill="white" stroke="none" points="-4,4 -4,-182 152,-182 152,4 -4,4"/>
<!-- Node1 -->
<g id="node1" class="node"><title>Node1</title>
<polygon fill="#bfbfbf" stroke="black" points="0,-125 0,-177 148,-177 148,-125 0,-125"/>
<text text-anchor="start" x="8" y="-165" font-family="Helvetica,sans-Serif" font-size="10.00">/home/travis/build</text>
<text text-anchor="start" x="8" y="-154" font-family="Helvetica,sans-Serif" font-size="10.00">/STORM&#45;IRIT/Radium&#45;Engine</text>
<text text-anchor="start" x="8" y="-143" font-family="Helvetica,sans-Serif" font-size="10.00">/src/Core/File/deprecated</text>
<text text-anchor="middle" x="74" y="-132" font-family="Helvetica,sans-Serif" font-size="10.00">/FileManager.inl</text>
</g>
<!-- Node2 -->
<g id="node2" class="node"><title>Node2</title>
<g id="a_node2"><a xlink:href="FileManager_8hpp.html" target="_top" xlink:title="Core/File/deprecated\l/FileManager.hpp">
<polygon fill="white" stroke="black" points="20.5,-57 20.5,-87 127.5,-87 127.5,-57 20.5,-57"/>
<text text-anchor="start" x="28.5" y="-75" font-family="Helvetica,sans-Serif" font-size="10.00">Core/File/deprecated</text>
<text text-anchor="middle" x="74" y="-64" font-family="Helvetica,sans-Serif" font-size="10.00">/FileManager.hpp</text>
</a>
</g>
</g>
<!-- Node1&#45;&gt;Node2 -->
<g id="edge1" class="edge"><title>Node1&#45;&gt;Node2</title>
<path fill="none" stroke="midnightblue" d="M67.6208,-124.787C67.1074,-115.932 67.1271,-106.007 67.68,-97.2335"/>
<polygon fill="midnightblue" stroke="midnightblue" points="71.1669,-97.5359 68.6188,-87.252 64.1977,-96.8803 71.1669,-97.5359"/>
</g>
<!-- Node2&#45;&gt;Node1 -->
<g id="edge4" class="edge"><title>Node2&#45;&gt;Node1</title>
<path fill="none" stroke="midnightblue" d="M79.3812,-87.252C80.4001,-94.9685 80.8502,-104.877 80.7314,-114.529"/>
<polygon fill="midnightblue" stroke="midnightblue" points="77.2245,-114.673 80.3792,-124.787 84.2204,-114.913 77.2245,-114.673"/>
</g>
<!-- Node3 -->
<g id="node3" class="node"><title>Node3</title>
<polygon fill="white" stroke="#bfbfbf" points="17,-0.5 17,-19.5 67,-19.5 67,-0.5 17,-0.5"/>
<text text-anchor="middle" x="42" y="-7.5" font-family="Helvetica,sans-Serif" font-size="10.00">fstream</text>
</g>
<!-- Node2&#45;&gt;Node3 -->
<g id="edge2" class="edge"><title>Node2&#45;&gt;Node3</title>
<path fill="none" stroke="midnightblue" d="M66.4164,-56.7808C61.9103,-48.3318 56.159,-37.5481 51.3703,-28.5693"/>
<polygon fill="midnightblue" stroke="midnightblue" points="54.4505,-26.907 46.6563,-19.7305 48.274,-30.2012 54.4505,-26.907"/>
</g>
<!-- Node4 -->
<g id="node4" class="node"><title>Node4</title>
<polygon fill="white" stroke="#bfbfbf" points="85.5,-0.5 85.5,-19.5 126.5,-19.5 126.5,-0.5 85.5,-0.5"/>
<text text-anchor="middle" x="106" y="-7.5" font-family="Helvetica,sans-Serif" font-size="10.00">string</text>
</g>
<!-- Node2&#45;&gt;Node4 -->
<g id="edge3" class="edge"><title>Node2&#45;&gt;Node4</title>
<path fill="none" stroke="midnightblue" d="M81.5836,-56.7808C86.0897,-48.3318 91.841,-37.5481 96.6297,-28.5693"/>
<polygon fill="midnightblue" stroke="midnightblue" points="99.726,-30.2012 101.344,-19.7305 93.5495,-26.907 99.726,-30.2012"/>
</g>
</g>
</svg>
