<?xml version="1.0" encoding="UTF-8" standalone="no"?>
<!DOCTYPE svg PUBLIC "-//W3C//DTD SVG 1.1//EN"
 "http://www.w3.org/Graphics/SVG/1.1/DTD/svg11.dtd">
<!-- Generated by graphviz version 2.36.0 (20140111.2315)
 -->
<!-- Title: /home/travis/build/STORM&#45;IRIT/Radium&#45;Engine/src/Core/File/FileLoaderInterface.hpp Pages: 1 -->
<svg width="742pt" height="230pt"
 viewBox="0.00 0.00 742.00 230.00" xmlns="http://www.w3.org/2000/svg" xmlns:xlink="http://www.w3.org/1999/xlink">
<g id="graph0" class="graph" transform="scale(1 1) rotate(0) translate(4 226)">
<title>/home/travis/build/STORM&#45;IRIT/Radium&#45;Engine/src/Core/File/FileLoaderInterface.hpp</title>
<polygon fill="white" stroke="none" points="-4,4 -4,-226 738,-226 738,4 -4,4"/>
<!-- Node1 -->
<g id="node1" class="node"><title>Node1</title>
<polygon fill="#bfbfbf" stroke="black" points="261.5,-180.5 261.5,-221.5 442.5,-221.5 442.5,-180.5 261.5,-180.5"/>
<text text-anchor="start" x="269.5" y="-209.5" font-family="Helvetica,sans-Serif" font-size="10.00">/home/travis/build</text>
<text text-anchor="start" x="269.5" y="-198.5" font-family="Helvetica,sans-Serif" font-size="10.00">/STORM&#45;IRIT/Radium&#45;Engine</text>
<text text-anchor="middle" x="352" y="-187.5" font-family="Helvetica,sans-Serif" font-size="10.00">/src/Core/File/FileLoaderInterface.hpp</text>
</g>
<!-- Node2 -->
<g id="node2" class="node"><title>Node2</title>
<g id="a_node2"><a xlink:href="RadiumEngine_8cpp.html" target="_top" xlink:title="/home/travis/build\l/STORM&#45;IRIT/Radium&#45;Engine\l/src/Engine/RadiumEngine.cpp">
<polygon fill="white" stroke="black" points="0,-96.5 0,-137.5 152,-137.5 152,-96.5 0,-96.5"/>
<text text-anchor="start" x="8" y="-125.5" font-family="Helvetica,sans-Serif" font-size="10.00">/home/travis/build</text>
<text text-anchor="start" x="8" y="-114.5" font-family="Helvetica,sans-Serif" font-size="10.00">/STORM&#45;IRIT/Radium&#45;Engine</text>
<text text-anchor="middle" x="76" y="-103.5" font-family="Helvetica,sans-Serif" font-size="10.00">/src/Engine/RadiumEngine.cpp</text>
</a>
</g>
</g>
<!-- Node1&#45;&gt;Node2 -->
<g id="edge1" class="edge"><title>Node1&#45;&gt;Node2</title>
<path fill="none" stroke="midnightblue" d="M275.122,-177.681C240.257,-167.502 198.52,-155.238 161,-144 154.052,-141.919 146.79,-139.726 139.564,-137.531"/>
<polygon fill="midnightblue" stroke="midnightblue" points="274.184,-181.054 284.764,-180.494 276.145,-174.334 274.184,-181.054"/>
</g>
<!-- Node3 -->
<g id="node3" class="node"><title>Node3</title>
<g id="a_node3"><a xlink:href="AssimpFileLoader_8hpp.html" target="_top" xlink:title="/home/travis/build\l/STORM&#45;IRIT/Radium&#45;Engine\l/src/IO/AssimpLoader/AssimpFile\lLoader.hpp">
<polygon fill="white" stroke="black" points="170,-91 170,-143 334,-143 334,-91 170,-91"/>
<text text-anchor="start" x="178" y="-131" font-family="Helvetica,sans-Serif" font-size="10.00">/home/travis/build</text>
<text text-anchor="start" x="178" y="-120" font-family="Helvetica,sans-Serif" font-size="10.00">/STORM&#45;IRIT/Radium&#45;Engine</text>
<text text-anchor="start" x="178" y="-109" font-family="Helvetica,sans-Serif" font-size="10.00">/src/IO/AssimpLoader/AssimpFile</text>
<text text-anchor="middle" x="252" y="-98" font-family="Helvetica,sans-Serif" font-size="10.00">Loader.hpp</text>
</a>
</g>
</g>
<!-- Node1&#45;&gt;Node3 -->
<g id="edge2" class="edge"><title>Node1&#45;&gt;Node3</title>
<path fill="none" stroke="midnightblue" d="M320.04,-173.793C308.045,-163.957 294.45,-152.809 282.583,-143.078"/>
<polygon fill="midnightblue" stroke="midnightblue" points="318.096,-176.725 328.048,-180.359 322.534,-171.312 318.096,-176.725"/>
</g>
<!-- Node5 -->
<g id="node5" class="node"><title>Node5</title>
<g id="a_node5"><a xlink:href="CameraLoader_8hpp.html" target="_top" xlink:title="/home/travis/build\l/STORM&#45;IRIT/Radium&#45;Engine\l/src/IO/CameraLoader/CameraLoader.hpp">
<polygon fill="white" stroke="black" points="352.5,-96.5 352.5,-137.5 551.5,-137.5 551.5,-96.5 352.5,-96.5"/>
<text text-anchor="start" x="360.5" y="-125.5" font-family="Helvetica,sans-Serif" font-size="10.00">/home/travis/build</text>
<text text-anchor="start" x="360.5" y="-114.5" font-family="Helvetica,sans-Serif" font-size="10.00">/STORM&#45;IRIT/Radium&#45;Engine</text>
<text text-anchor="middle" x="452" y="-103.5" font-family="Helvetica,sans-Serif" font-size="10.00">/src/IO/CameraLoader/CameraLoader.hpp</text>
</a>
</g>
</g>
<!-- Node1&#45;&gt;Node5 -->
<g id="edge4" class="edge"><title>Node1&#45;&gt;Node5</title>
<path fill="none" stroke="midnightblue" d="M384.031,-173.735C398.262,-162.065 414.733,-148.559 427.896,-137.765"/>
<polygon fill="midnightblue" stroke="midnightblue" points="381.466,-171.312 375.952,-180.359 385.904,-176.725 381.466,-171.312"/>
</g>
<!-- Node7 -->
<g id="node7" class="node"><title>Node7</title>
<g id="a_node7"><a xlink:href="TinyPlyFileLoader_8hpp.html" target="_top" xlink:title="/home/travis/build\l/STORM&#45;IRIT/Radium&#45;Engine\l/src/IO/TinyPlyLoader/TinyPlyFile\lLoader.hpp">
<polygon fill="white" stroke="black" points="570,-91 570,-143 734,-143 734,-91 570,-91"/>
<text text-anchor="start" x="578" y="-131" font-family="Helvetica,sans-Serif" font-size="10.00">/home/travis/build</text>
<text text-anchor="start" x="578" y="-120" font-family="Helvetica,sans-Serif" font-size="10.00">/STORM&#45;IRIT/Radium&#45;Engine</text>
<text text-anchor="start" x="578" y="-109" font-family="Helvetica,sans-Serif" font-size="10.00">/src/IO/TinyPlyLoader/TinyPlyFile</text>
<text text-anchor="middle" x="652" y="-98" font-family="Helvetica,sans-Serif" font-size="10.00">Loader.hpp</text>
</a>
</g>
</g>
<!-- Node1&#45;&gt;Node7 -->
<g id="edge6" class="edge"><title>Node1&#45;&gt;Node7</title>
<path fill="none" stroke="midnightblue" d="M435.694,-177.721C473.667,-167.548 519.13,-155.276 560,-144 563.2,-143.117 566.462,-142.213 569.755,-141.298"/>
<polygon fill="midnightblue" stroke="midnightblue" points="434.456,-174.429 425.702,-180.396 436.267,-181.191 434.456,-174.429"/>
</g>
<!-- Node4 -->
<g id="node4" class="node"><title>Node4</title>
<g id="a_node4"><a xlink:href="AssimpFileLoader_8cpp.html" target="_top" xlink:title="/home/travis/build\l/STORM&#45;IRIT/Radium&#45;Engine\l/src/IO/AssimpLoader/AssimpFile\lLoader.cpp">
<polygon fill="white" stroke="black" points="170,-1 170,-53 334,-53 334,-1 170,-1"/>
<text text-anchor="start" x="178" y="-41" font-family="Helvetica,sans-Serif" font-size="10.00">/home/travis/build</text>
<text text-anchor="start" x="178" y="-30" font-family="Helvetica,sans-Serif" font-size="10.00">/STORM&#45;IRIT/Radium&#45;Engine</text>
<text text-anchor="start" x="178" y="-19" font-family="Helvetica,sans-Serif" font-size="10.00">/src/IO/AssimpLoader/AssimpFile</text>
<text text-anchor="middle" x="252" y="-8" font-family="Helvetica,sans-Serif" font-size="10.00">Loader.cpp</text>
</a>
</g>
</g>
<!-- Node3&#45;&gt;Node4 -->
<g id="edge3" class="edge"><title>Node3&#45;&gt;Node4</title>
<path fill="none" stroke="midnightblue" d="M252,-80.4892C252,-71.3088 252,-61.616 252,-53.0921"/>
<polygon fill="midnightblue" stroke="midnightblue" points="248.5,-80.5467 252,-90.5468 255.5,-80.5468 248.5,-80.5467"/>
</g>
<!-- Node6 -->
<g id="node6" class="node"><title>Node6</title>
<g id="a_node6"><a xlink:href="CameraLoader_8cpp.html" target="_top" xlink:title="/home/travis/build\l/STORM&#45;IRIT/Radium&#45;Engine\l/src/IO/CameraLoader/CameraLoader.cpp">
<polygon fill="white" stroke="black" points="352.5,-6.5 352.5,-47.5 551.5,-47.5 551.5,-6.5 352.5,-6.5"/>
<text text-anchor="start" x="360.5" y="-35.5" font-family="Helvetica,sans-Serif" font-size="10.00">/home/travis/build</text>
<text text-anchor="start" x="360.5" y="-24.5" font-family="Helvetica,sans-Serif" font-size="10.00">/STORM&#45;IRIT/Radium&#45;Engine</text>
<text text-anchor="middle" x="452" y="-13.5" font-family="Helvetica,sans-Serif" font-size="10.00">/src/IO/CameraLoader/CameraLoader.cpp</text>
</a>
</g>
</g>
<!-- Node5&#45;&gt;Node6 -->
<g id="edge5" class="edge"><title>Node5&#45;&gt;Node6</title>
<path fill="none" stroke="midnightblue" d="M452,-86.3298C452,-73.6289 452,-59.1399 452,-47.7798"/>
<polygon fill="midnightblue" stroke="midnightblue" points="448.5,-86.4699 452,-96.4699 455.5,-86.47 448.5,-86.4699"/>
</g>
<!-- Node8 -->
<g id="node8" class="node"><title>Node8</title>
<g id="a_node8"><a xlink:href="TinyPlyFileLoader_8cpp.html" target="_top" xlink:title="/home/travis/build\l/STORM&#45;IRIT/Radium&#45;Engine\l/src/IO/TinyPlyLoader/TinyPlyFile\lLoader.cpp">
<polygon fill="white" stroke="black" points="570,-1 570,-53 734,-53 734,-1 570,-1"/>
<text text-anchor="start" x="578" y="-41" font-family="Helvetica,sans-Serif" font-size="10.00">/home/travis/build</text>
<text text-anchor="start" x="578" y="-30" font-family="Helvetica,sans-Serif" font-size="10.00">/STORM&#45;IRIT/Radium&#45;Engine</text>
<text text-anchor="start" x="578" y="-19" font-family="Helvetica,sans-Serif" font-size="10.00">/src/IO/TinyPlyLoader/TinyPlyFile</text>
<text text-anchor="middle" x="652" y="-8" font-family="Helvetica,sans-Serif" font-size="10.00">Loader.cpp</text>
</a>
</g>
</g>
<!-- Node7&#45;&gt;Node8 -->
<g id="edge7" class="edge"><title>Node7&#45;&gt;Node8</title>
<path fill="none" stroke="midnightblue" d="M652,-80.4892C652,-71.3088 652,-61.616 652,-53.0921"/>
<polygon fill="midnightblue" stroke="midnightblue" points="648.5,-80.5467 652,-90.5468 655.5,-80.5468 648.5,-80.5467"/>
</g>
</g>
</svg>
