<?xml version="1.0" encoding="UTF-8" standalone="no"?>
<!DOCTYPE svg PUBLIC "-//W3C//DTD SVG 1.1//EN"
 "http://www.w3.org/Graphics/SVG/1.1/DTD/svg11.dtd">
<!-- Generated by graphviz version 2.36.0 (20140111.2315)
 -->
<!-- Title: /home/travis/build/STORM&#45;IRIT/Radium&#45;Engine/src/Core/File/FileLoaderInterface.hpp Pages: 1 -->
<svg width="343pt" height="218pt"
 viewBox="0.00 0.00 343.00 218.00" xmlns="http://www.w3.org/2000/svg" xmlns:xlink="http://www.w3.org/1999/xlink">
<g id="graph0" class="graph" transform="scale(1 1) rotate(0) translate(4 214)">
<title>/home/travis/build/STORM&#45;IRIT/Radium&#45;Engine/src/Core/File/FileLoaderInterface.hpp</title>
<polygon fill="white" stroke="none" points="-4,4 -4,-214 339,-214 339,4 -4,4"/>
<!-- Node1 -->
<g id="node1" class="node"><title>Node1</title>
<polygon fill="#bfbfbf" stroke="black" points="-0.5,-168.5 -0.5,-209.5 180.5,-209.5 180.5,-168.5 -0.5,-168.5"/>
<text text-anchor="start" x="7.5" y="-197.5" font-family="Helvetica,sans-Serif" font-size="10.00">/home/travis/build</text>
<text text-anchor="start" x="7.5" y="-186.5" font-family="Helvetica,sans-Serif" font-size="10.00">/STORM&#45;IRIT/Radium&#45;Engine</text>
<text text-anchor="middle" x="90" y="-175.5" font-family="Helvetica,sans-Serif" font-size="10.00">/src/Core/File/FileLoaderInterface.hpp</text>
</g>
<!-- Node2 -->
<g id="node2" class="node"><title>Node2</title>
<polygon fill="white" stroke="#bfbfbf" points="8.5,-112.5 8.5,-131.5 49.5,-131.5 49.5,-112.5 8.5,-112.5"/>
<text text-anchor="middle" x="29" y="-119.5" font-family="Helvetica,sans-Serif" font-size="10.00">string</text>
</g>
<!-- Node1&#45;&gt;Node2 -->
<g id="edge1" class="edge"><title>Node1&#45;&gt;Node2</title>
<path fill="none" stroke="midnightblue" d="M71.698,-168.498C62.8851,-159.107 52.4455,-147.983 44.0949,-139.085"/>
<polygon fill="midnightblue" stroke="midnightblue" points="46.5154,-136.549 37.12,-131.652 41.411,-141.34 46.5154,-136.549"/>
</g>
<!-- Node3 -->
<g id="node3" class="node"><title>Node3</title>
<polygon fill="white" stroke="#bfbfbf" points="68,-112.5 68,-131.5 112,-131.5 112,-112.5 68,-112.5"/>
<text text-anchor="middle" x="90" y="-119.5" font-family="Helvetica,sans-Serif" font-size="10.00">vector</text>
</g>
<!-- Node1&#45;&gt;Node3 -->
<g id="edge2" class="edge"><title>Node1&#45;&gt;Node3</title>
<path fill="none" stroke="midnightblue" d="M90,-168.498C90,-160.065 90,-150.235 90,-141.874"/>
<polygon fill="midnightblue" stroke="midnightblue" points="93.5001,-141.652 90,-131.652 86.5001,-141.653 93.5001,-141.652"/>
</g>
<!-- Node4 -->
<g id="node4" class="node"><title>Node4</title>
<g id="a_node4"><a xlink:href="RaCore_8hpp.html" target="_top" xlink:title="Core/RaCore.hpp">
<polygon fill="white" stroke="black" points="129.5,-112.5 129.5,-131.5 222.5,-131.5 222.5,-112.5 129.5,-112.5"/>
<text text-anchor="middle" x="176" y="-119.5" font-family="Helvetica,sans-Serif" font-size="10.00">Core/RaCore.hpp</text>
</a>
</g>
</g>
<!-- Node1&#45;&gt;Node4 -->
<g id="edge3" class="edge"><title>Node1&#45;&gt;Node4</title>
<path fill="none" stroke="midnightblue" d="M115.803,-168.498C128.861,-158.628 144.454,-146.843 156.497,-137.741"/>
<polygon fill="midnightblue" stroke="midnightblue" points="158.685,-140.474 164.552,-131.652 154.464,-134.89 158.685,-140.474"/>
</g>
<!-- Node5 -->
<g id="node5" class="node"><title>Node5</title>
<g id="a_node5"><a xlink:href="CoreMacros_8hpp.html" target="_top" xlink:title="Core/CoreMacros.hpp">
<polygon fill="white" stroke="black" points="119.5,-56.5 119.5,-75.5 232.5,-75.5 232.5,-56.5 119.5,-56.5"/>
<text text-anchor="middle" x="176" y="-63.5" font-family="Helvetica,sans-Serif" font-size="10.00">Core/CoreMacros.hpp</text>
</a>
</g>
</g>
<!-- Node4&#45;&gt;Node5 -->
<g id="edge4" class="edge"><title>Node4&#45;&gt;Node5</title>
<path fill="none" stroke="midnightblue" d="M176,-112.083C176,-105.006 176,-94.8611 176,-85.9865"/>
<polygon fill="midnightblue" stroke="midnightblue" points="179.5,-85.751 176,-75.7511 172.5,-85.7511 179.5,-85.751"/>
</g>
<!-- Node6 -->
<g id="node6" class="node"><title>Node6</title>
<polygon fill="white" stroke="#bfbfbf" points="20.5,-0.5 20.5,-19.5 69.5,-19.5 69.5,-0.5 20.5,-0.5"/>
<text text-anchor="middle" x="45" y="-7.5" font-family="Helvetica,sans-Serif" font-size="10.00">cassert</text>
</g>
<!-- Node5&#45;&gt;Node6 -->
<g id="edge5" class="edge"><title>Node5&#45;&gt;Node6</title>
<path fill="none" stroke="midnightblue" d="M155.243,-56.4435C133.684,-47.5566 99.7367,-33.5632 75.2062,-23.4514"/>
<polygon fill="midnightblue" stroke="midnightblue" points="76.2394,-20.0917 65.6602,-19.5164 73.5717,-26.5634 76.2394,-20.0917"/>
</g>
<!-- Node7 -->
<g id="node7" class="node"><title>Node7</title>
<polygon fill="white" stroke="#bfbfbf" points="87.5,-0.5 87.5,-19.5 130.5,-19.5 130.5,-0.5 87.5,-0.5"/>
<text text-anchor="middle" x="109" y="-7.5" font-family="Helvetica,sans-Serif" font-size="10.00">cstdio</text>
</g>
<!-- Node5&#45;&gt;Node7 -->
<g id="edge6" class="edge"><title>Node5&#45;&gt;Node7</title>
<path fill="none" stroke="midnightblue" d="M165.235,-56.324C155.234,-48.2631 140.113,-36.0765 128.07,-26.3695"/>
<polygon fill="midnightblue" stroke="midnightblue" points="129.943,-23.3841 119.961,-19.8339 125.55,-28.8343 129.943,-23.3841"/>
</g>
<!-- Node8 -->
<g id="node8" class="node"><title>Node8</title>
<polygon fill="white" stroke="#bfbfbf" points="149,-0.5 149,-19.5 203,-19.5 203,-0.5 149,-0.5"/>
<text text-anchor="middle" x="176" y="-7.5" font-family="Helvetica,sans-Serif" font-size="10.00">iostream</text>
</g>
<!-- Node5&#45;&gt;Node8 -->
<g id="edge7" class="edge"><title>Node5&#45;&gt;Node8</title>
<path fill="none" stroke="midnightblue" d="M176,-56.083C176,-49.0059 176,-38.8611 176,-29.9865"/>
<polygon fill="midnightblue" stroke="midnightblue" points="179.5,-29.751 176,-19.7511 172.5,-29.7511 179.5,-29.751"/>
</g>
<!-- Node9 -->
<g id="node9" class="node"><title>Node9</title>
<polygon fill="white" stroke="#bfbfbf" points="221,-0.5 221,-19.5 273,-19.5 273,-0.5 221,-0.5"/>
<text text-anchor="middle" x="247" y="-7.5" font-family="Helvetica,sans-Serif" font-size="10.00">sstream</text>
</g>
<!-- Node5&#45;&gt;Node9 -->
<g id="edge8" class="edge"><title>Node5&#45;&gt;Node9</title>
<path fill="none" stroke="midnightblue" d="M187.407,-56.324C198.109,-48.1849 214.341,-35.8395 227.163,-26.0874"/>
<polygon fill="midnightblue" stroke="midnightblue" points="229.544,-28.6734 235.385,-19.8339 225.307,-23.1018 229.544,-28.6734"/>
</g>
<!-- Node10 -->
<g id="node10" class="node"><title>Node10</title>
<polygon fill="white" stroke="#bfbfbf" points="291,-0.5 291,-19.5 335,-19.5 335,-0.5 291,-0.5"/>
<text text-anchor="middle" x="313" y="-7.5" font-family="Helvetica,sans-Serif" font-size="10.00">thread</text>
</g>
<!-- Node5&#45;&gt;Node10 -->
<g id="edge9" class="edge"><title>Node5&#45;&gt;Node10</title>
<path fill="none" stroke="midnightblue" d="M197.708,-56.4435C220.355,-47.5171 256.072,-33.4387 281.752,-23.3168"/>
<polygon fill="midnightblue" stroke="midnightblue" points="283.374,-26.4397 291.394,-19.5164 280.807,-19.9273 283.374,-26.4397"/>
</g>
</g>
</svg>
