<?xml version="1.0" encoding="UTF-8" standalone="no"?>
<!DOCTYPE svg PUBLIC "-//W3C//DTD SVG 1.1//EN"
 "http://www.w3.org/Graphics/SVG/1.1/DTD/svg11.dtd">
<!-- Generated by graphviz version 2.36.0 (20140111.2315)
 -->
<!-- Title: /home/travis/build/STORM&#45;IRIT/Radium&#45;Engine/src/Core/File/deprecated/FileManager.hpp Pages: 1 -->
<svg width="242pt" height="130pt"
 viewBox="0.00 0.00 242.00 130.00" xmlns="http://www.w3.org/2000/svg" xmlns:xlink="http://www.w3.org/1999/xlink">
<g id="graph0" class="graph" transform="scale(1 1) rotate(0) translate(4 126)">
<title>/home/travis/build/STORM&#45;IRIT/Radium&#45;Engine/src/Core/File/deprecated/FileManager.hpp</title>
<polygon fill="white" stroke="none" points="-4,4 -4,-126 238,-126 238,4 -4,4"/>
<!-- Node1 -->
<g id="node1" class="node"><title>Node1</title>
<polygon fill="#bfbfbf" stroke="black" points="61,-69 61,-121 209,-121 209,-69 61,-69"/>
<text text-anchor="start" x="69" y="-109" font-family="Helvetica,sans-Serif" font-size="10.00">/home/travis/build</text>
<text text-anchor="start" x="69" y="-98" font-family="Helvetica,sans-Serif" font-size="10.00">/STORM&#45;IRIT/Radium&#45;Engine</text>
<text text-anchor="start" x="69" y="-87" font-family="Helvetica,sans-Serif" font-size="10.00">/src/Core/File/deprecated</text>
<text text-anchor="middle" x="135" y="-76" font-family="Helvetica,sans-Serif" font-size="10.00">/FileManager.hpp</text>
</g>
<!-- Node2 -->
<g id="node2" class="node"><title>Node2</title>
<polygon fill="white" stroke="#bfbfbf" points="0,-6.5 0,-25.5 50,-25.5 50,-6.5 0,-6.5"/>
<text text-anchor="middle" x="25" y="-13.5" font-family="Helvetica,sans-Serif" font-size="10.00">fstream</text>
</g>
<!-- Node1&#45;&gt;Node2 -->
<g id="edge1" class="edge"><title>Node1&#45;&gt;Node2</title>
<path fill="none" stroke="midnightblue" d="M98.9819,-68.7873C81.3399,-56.4379 60.7279,-42.0096 45.7478,-31.5235"/>
<polygon fill="midnightblue" stroke="midnightblue" points="47.4248,-28.4251 37.2253,-25.5577 43.4105,-34.1597 47.4248,-28.4251"/>
</g>
<!-- Node3 -->
<g id="node3" class="node"><title>Node3</title>
<polygon fill="white" stroke="#bfbfbf" points="68.5,-6.5 68.5,-25.5 109.5,-25.5 109.5,-6.5 68.5,-6.5"/>
<text text-anchor="middle" x="89" y="-13.5" font-family="Helvetica,sans-Serif" font-size="10.00">string</text>
</g>
<!-- Node1&#45;&gt;Node3 -->
<g id="edge2" class="edge"><title>Node1&#45;&gt;Node3</title>
<path fill="none" stroke="midnightblue" d="M119.938,-68.7873C113.187,-57.4865 105.396,-44.4447 99.3208,-34.276"/>
<polygon fill="midnightblue" stroke="midnightblue" points="102.246,-32.3475 94.1124,-25.5577 96.2363,-35.9375 102.246,-32.3475"/>
</g>
<!-- Node4 -->
<g id="node4" class="node"><title>Node4</title>
<g id="a_node4"><a xlink:href="FileManager_8inl.html" target="_top" xlink:title="Core/File/deprecated\l/FileManager.inl">
<polygon fill="white" stroke="black" points="127.5,-1 127.5,-31 234.5,-31 234.5,-1 127.5,-1"/>
<text text-anchor="start" x="135.5" y="-19" font-family="Helvetica,sans-Serif" font-size="10.00">Core/File/deprecated</text>
<text text-anchor="middle" x="181" y="-8" font-family="Helvetica,sans-Serif" font-size="10.00">/FileManager.inl</text>
</a>
</g>
</g>
<!-- Node1&#45;&gt;Node4 -->
<g id="edge3" class="edge"><title>Node1&#45;&gt;Node4</title>
<path fill="none" stroke="midnightblue" d="M143.683,-68.7873C148.775,-59.3478 155.198,-48.6936 161.347,-39.5138"/>
<polygon fill="midnightblue" stroke="midnightblue" points="164.258,-41.4574 167.105,-31.252 158.515,-37.4548 164.258,-41.4574"/>
</g>
<!-- Node4&#45;&gt;Node1 -->
<g id="edge4" class="edge"><title>Node4&#45;&gt;Node1</title>
<path fill="none" stroke="midnightblue" d="M177.867,-31.252C174.085,-39.379 168.22,-49.9369 161.979,-60.0671"/>
<polygon fill="midnightblue" stroke="midnightblue" points="158.848,-58.4694 156.441,-68.7873 164.757,-62.2221 158.848,-58.4694"/>
</g>
</g>
</svg>
