<?xml version="1.0" encoding="UTF-8" standalone="no"?>
<!DOCTYPE svg PUBLIC "-//W3C//DTD SVG 1.1//EN"
 "http://www.w3.org/Graphics/SVG/1.1/DTD/svg11.dtd">
<!-- Generated by graphviz version 2.36.0 (20140111.2315)
 -->
<!-- Title: /home/travis/build/STORM&#45;IRIT/Radium&#45;Engine/src/Core/File/deprecated/FileManager.inl Pages: 1 -->
<svg width="488pt" height="332pt"
 viewBox="0.00 0.00 488.00 332.00" xmlns="http://www.w3.org/2000/svg" xmlns:xlink="http://www.w3.org/1999/xlink">
<g id="graph0" class="graph" transform="scale(1 1) rotate(0) translate(4 328)">
<title>/home/travis/build/STORM&#45;IRIT/Radium&#45;Engine/src/Core/File/deprecated/FileManager.inl</title>
<polygon fill="white" stroke="none" points="-4,4 -4,-328 484,-328 484,4 -4,4"/>
<!-- Node1 -->
<g id="node1" class="node"><title>Node1</title>
<polygon fill="#bfbfbf" stroke="black" points="166,-271 166,-323 314,-323 314,-271 166,-271"/>
<text text-anchor="start" x="174" y="-311" font-family="Helvetica,sans-Serif" font-size="10.00">/home/travis/build</text>
<text text-anchor="start" x="174" y="-300" font-family="Helvetica,sans-Serif" font-size="10.00">/STORM&#45;IRIT/Radium&#45;Engine</text>
<text text-anchor="start" x="174" y="-289" font-family="Helvetica,sans-Serif" font-size="10.00">/src/Core/File/deprecated</text>
<text text-anchor="middle" x="240" y="-278" font-family="Helvetica,sans-Serif" font-size="10.00">/FileManager.inl</text>
</g>
<!-- Node2 -->
<g id="node2" class="node"><title>Node2</title>
<g id="a_node2"><a xlink:href="FileManager_8hpp.html" target="_top" xlink:title="/home/travis/build\l/STORM&#45;IRIT/Radium&#45;Engine\l/src/Core/File/deprecated\l/FileManager.hpp">
<polygon fill="white" stroke="black" points="166,-181 166,-233 314,-233 314,-181 166,-181"/>
<text text-anchor="start" x="174" y="-221" font-family="Helvetica,sans-Serif" font-size="10.00">/home/travis/build</text>
<text text-anchor="start" x="174" y="-210" font-family="Helvetica,sans-Serif" font-size="10.00">/STORM&#45;IRIT/Radium&#45;Engine</text>
<text text-anchor="start" x="174" y="-199" font-family="Helvetica,sans-Serif" font-size="10.00">/src/Core/File/deprecated</text>
<text text-anchor="middle" x="240" y="-188" font-family="Helvetica,sans-Serif" font-size="10.00">/FileManager.hpp</text>
</a>
</g>
</g>
<!-- Node1&#45;&gt;Node2 -->
<g id="edge1" class="edge"><title>Node1&#45;&gt;Node2</title>
<path fill="none" stroke="midnightblue" d="M233.363,-260.489C233.116,-251.309 233.274,-241.616 233.838,-233.092"/>
<polygon fill="midnightblue" stroke="midnightblue" points="229.869,-260.714 233.814,-270.547 236.862,-260.4 229.869,-260.714"/>
</g>
<!-- Node2&#45;&gt;Node1 -->
<g id="edge2" class="edge"><title>Node2&#45;&gt;Node1</title>
<path fill="none" stroke="midnightblue" d="M246.626,-243.123C246.885,-252.289 246.738,-261.99 246.186,-270.547"/>
<polygon fill="midnightblue" stroke="midnightblue" points="250.121,-242.92 246.162,-233.092 243.128,-243.243 250.121,-242.92"/>
</g>
<!-- Node3 -->
<g id="node3" class="node"><title>Node3</title>
<g id="a_node3"><a xlink:href="MAPFileManager_8hpp.html" target="_top" xlink:title="/home/travis/build\l/STORM&#45;IRIT/Radium&#45;Engine\l/src/Core/File/deprecated\l/MAPFileManager.hpp">
<polygon fill="white" stroke="black" points="0,-91 0,-143 148,-143 148,-91 0,-91"/>
<text text-anchor="start" x="8" y="-131" font-family="Helvetica,sans-Serif" font-size="10.00">/home/travis/build</text>
<text text-anchor="start" x="8" y="-120" font-family="Helvetica,sans-Serif" font-size="10.00">/STORM&#45;IRIT/Radium&#45;Engine</text>
<text text-anchor="start" x="8" y="-109" font-family="Helvetica,sans-Serif" font-size="10.00">/src/Core/File/deprecated</text>
<text text-anchor="middle" x="74" y="-98" font-family="Helvetica,sans-Serif" font-size="10.00">/MAPFileManager.hpp</text>
</a>
</g>
</g>
<!-- Node2&#45;&gt;Node3 -->
<g id="edge3" class="edge"><title>Node2&#45;&gt;Node3</title>
<path fill="none" stroke="midnightblue" d="M183.334,-175.96C163.136,-165.253 140.616,-153.315 121.289,-143.069"/>
<polygon fill="midnightblue" stroke="midnightblue" points="181.956,-179.191 192.431,-180.783 185.235,-173.007 181.956,-179.191"/>
</g>
<!-- Node5 -->
<g id="node5" class="node"><title>Node5</title>
<g id="a_node5"><a xlink:href="OBJFileManager_8hpp.html" target="_top" xlink:title="/home/travis/build\l/STORM&#45;IRIT/Radium&#45;Engine\l/src/Core/File/deprecated\l/OBJFileManager.hpp">
<polygon fill="white" stroke="black" points="166,-91 166,-143 314,-143 314,-91 166,-91"/>
<text text-anchor="start" x="174" y="-131" font-family="Helvetica,sans-Serif" font-size="10.00">/home/travis/build</text>
<text text-anchor="start" x="174" y="-120" font-family="Helvetica,sans-Serif" font-size="10.00">/STORM&#45;IRIT/Radium&#45;Engine</text>
<text text-anchor="start" x="174" y="-109" font-family="Helvetica,sans-Serif" font-size="10.00">/src/Core/File/deprecated</text>
<text text-anchor="middle" x="240" y="-98" font-family="Helvetica,sans-Serif" font-size="10.00">/OBJFileManager.hpp</text>
</a>
</g>
</g>
<!-- Node2&#45;&gt;Node5 -->
<g id="edge5" class="edge"><title>Node2&#45;&gt;Node5</title>
<path fill="none" stroke="midnightblue" d="M240,-170.489C240,-161.309 240,-151.616 240,-143.092"/>
<polygon fill="midnightblue" stroke="midnightblue" points="236.5,-170.547 240,-180.547 243.5,-170.547 236.5,-170.547"/>
</g>
<!-- Node7 -->
<g id="node7" class="node"><title>Node7</title>
<g id="a_node7"><a xlink:href="OFFFileManager_8hpp.html" target="_top" xlink:title="/home/travis/build\l/STORM&#45;IRIT/Radium&#45;Engine\l/src/Core/File/deprecated\l/OFFFileManager.hpp">
<polygon fill="white" stroke="black" points="332,-91 332,-143 480,-143 480,-91 332,-91"/>
<text text-anchor="start" x="340" y="-131" font-family="Helvetica,sans-Serif" font-size="10.00">/home/travis/build</text>
<text text-anchor="start" x="340" y="-120" font-family="Helvetica,sans-Serif" font-size="10.00">/STORM&#45;IRIT/Radium&#45;Engine</text>
<text text-anchor="start" x="340" y="-109" font-family="Helvetica,sans-Serif" font-size="10.00">/src/Core/File/deprecated</text>
<text text-anchor="middle" x="406" y="-98" font-family="Helvetica,sans-Serif" font-size="10.00">/OFFFileManager.hpp</text>
</a>
</g>
</g>
<!-- Node2&#45;&gt;Node7 -->
<g id="edge7" class="edge"><title>Node2&#45;&gt;Node7</title>
<path fill="none" stroke="midnightblue" d="M296.666,-175.96C316.864,-165.253 339.384,-153.315 358.711,-143.069"/>
<polygon fill="midnightblue" stroke="midnightblue" points="294.765,-173.007 287.569,-180.783 298.044,-179.191 294.765,-173.007"/>
</g>
<!-- Node4 -->
<g id="node4" class="node"><title>Node4</title>
<g id="a_node4"><a xlink:href="MAPFileManager_8cpp.html" target="_top" xlink:title="/home/travis/build\l/STORM&#45;IRIT/Radium&#45;Engine\l/src/Core/File/deprecated\l/MAPFileManager.cpp">
<polygon fill="white" stroke="black" points="0,-1 0,-53 148,-53 148,-1 0,-1"/>
<text text-anchor="start" x="8" y="-41" font-family="Helvetica,sans-Serif" font-size="10.00">/home/travis/build</text>
<text text-anchor="start" x="8" y="-30" font-family="Helvetica,sans-Serif" font-size="10.00">/STORM&#45;IRIT/Radium&#45;Engine</text>
<text text-anchor="start" x="8" y="-19" font-family="Helvetica,sans-Serif" font-size="10.00">/src/Core/File/deprecated</text>
<text text-anchor="middle" x="74" y="-8" font-family="Helvetica,sans-Serif" font-size="10.00">/MAPFileManager.cpp</text>
</a>
</g>
</g>
<!-- Node3&#45;&gt;Node4 -->
<g id="edge4" class="edge"><title>Node3&#45;&gt;Node4</title>
<path fill="none" stroke="midnightblue" d="M74,-80.4892C74,-71.3088 74,-61.616 74,-53.0921"/>
<polygon fill="midnightblue" stroke="midnightblue" points="70.5001,-80.5467 74,-90.5468 77.5001,-80.5468 70.5001,-80.5467"/>
</g>
<!-- Node6 -->
<g id="node6" class="node"><title>Node6</title>
<g id="a_node6"><a xlink:href="OBJFileManager_8cpp.html" target="_top" xlink:title="/home/travis/build\l/STORM&#45;IRIT/Radium&#45;Engine\l/src/Core/File/deprecated\l/OBJFileManager.cpp">
<polygon fill="white" stroke="black" points="166,-1 166,-53 314,-53 314,-1 166,-1"/>
<text text-anchor="start" x="174" y="-41" font-family="Helvetica,sans-Serif" font-size="10.00">/home/travis/build</text>
<text text-anchor="start" x="174" y="-30" font-family="Helvetica,sans-Serif" font-size="10.00">/STORM&#45;IRIT/Radium&#45;Engine</text>
<text text-anchor="start" x="174" y="-19" font-family="Helvetica,sans-Serif" font-size="10.00">/src/Core/File/deprecated</text>
<text text-anchor="middle" x="240" y="-8" font-family="Helvetica,sans-Serif" font-size="10.00">/OBJFileManager.cpp</text>
</a>
</g>
</g>
<!-- Node5&#45;&gt;Node6 -->
<g id="edge6" class="edge"><title>Node5&#45;&gt;Node6</title>
<path fill="none" stroke="midnightblue" d="M240,-80.4892C240,-71.3088 240,-61.616 240,-53.0921"/>
<polygon fill="midnightblue" stroke="midnightblue" points="236.5,-80.5467 240,-90.5468 243.5,-80.5468 236.5,-80.5467"/>
</g>
<!-- Node8 -->
<g id="node8" class="node"><title>Node8</title>
<g id="a_node8"><a xlink:href="OFFFileManager_8cpp.html" target="_top" xlink:title="/home/travis/build\l/STORM&#45;IRIT/Radium&#45;Engine\l/src/Core/File/deprecated\l/OFFFileManager.cpp">
<polygon fill="white" stroke="black" points="332,-1 332,-53 480,-53 480,-1 332,-1"/>
<text text-anchor="start" x="340" y="-41" font-family="Helvetica,sans-Serif" font-size="10.00">/home/travis/build</text>
<text text-anchor="start" x="340" y="-30" font-family="Helvetica,sans-Serif" font-size="10.00">/STORM&#45;IRIT/Radium&#45;Engine</text>
<text text-anchor="start" x="340" y="-19" font-family="Helvetica,sans-Serif" font-size="10.00">/src/Core/File/deprecated</text>
<text text-anchor="middle" x="406" y="-8" font-family="Helvetica,sans-Serif" font-size="10.00">/OFFFileManager.cpp</text>
</a>
</g>
</g>
<!-- Node7&#45;&gt;Node8 -->
<g id="edge8" class="edge"><title>Node7&#45;&gt;Node8</title>
<path fill="none" stroke="midnightblue" d="M406,-80.4892C406,-71.3088 406,-61.616 406,-53.0921"/>
<polygon fill="midnightblue" stroke="midnightblue" points="402.5,-80.5467 406,-90.5468 409.5,-80.5468 402.5,-80.5467"/>
</g>
</g>
</svg>
