<?xml version="1.0" encoding="UTF-8" standalone="no"?>
<!DOCTYPE svg PUBLIC "-//W3C//DTD SVG 1.1//EN"
 "http://www.w3.org/Graphics/SVG/1.1/DTD/svg11.dtd">
<!-- Generated by graphviz version 2.36.0 (20140111.2315)
 -->
<!-- Title: /home/travis/build/STORM&#45;IRIT/Radium&#45;Engine/src/Core/File/GeometryData.inl Pages: 1 -->
<svg width="1825pt" height="510pt"
 viewBox="0.00 0.00 1825.00 510.00" xmlns="http://www.w3.org/2000/svg" xmlns:xlink="http://www.w3.org/1999/xlink">
<g id="graph0" class="graph" transform="scale(1 1) rotate(0) translate(4 506)">
<title>/home/travis/build/STORM&#45;IRIT/Radium&#45;Engine/src/Core/File/GeometryData.inl</title>
<polygon fill="white" stroke="none" points="-4,4 -4,-506 1821,-506 1821,4 -4,4"/>
<!-- Node1 -->
<g id="node1" class="node"><title>Node1</title>
<polygon fill="#bfbfbf" stroke="black" points="701.5,-460.5 701.5,-501.5 856.5,-501.5 856.5,-460.5 701.5,-460.5"/>
<text text-anchor="start" x="709.5" y="-489.5" font-family="Helvetica,sans-Serif" font-size="10.00">/home/travis/build</text>
<text text-anchor="start" x="709.5" y="-478.5" font-family="Helvetica,sans-Serif" font-size="10.00">/STORM&#45;IRIT/Radium&#45;Engine</text>
<text text-anchor="middle" x="779" y="-467.5" font-family="Helvetica,sans-Serif" font-size="10.00">/src/Core/File/GeometryData.inl</text>
</g>
<!-- Node2 -->
<g id="node2" class="node"><title>Node2</title>
<g id="a_node2"><a xlink:href="GeometryData_8hpp.html" target="_top" xlink:title="Core/File/GeometryData.hpp">
<polygon fill="white" stroke="black" points="708,-404.5 708,-423.5 850,-423.5 850,-404.5 708,-404.5"/>
<text text-anchor="middle" x="779" y="-411.5" font-family="Helvetica,sans-Serif" font-size="10.00">Core/File/GeometryData.hpp</text>
</a>
</g>
</g>
<!-- Node1&#45;&gt;Node2 -->
<g id="edge1" class="edge"><title>Node1&#45;&gt;Node2</title>
<path fill="none" stroke="midnightblue" d="M772.755,-460.498C772.057,-451.969 772.083,-442.011 772.833,-433.59"/>
<polygon fill="midnightblue" stroke="midnightblue" points="776.303,-434.044 774.236,-423.652 769.372,-433.065 776.303,-434.044"/>
</g>
<!-- Node23 -->
<g id="node23" class="node"><title>Node23</title>
<polygon fill="white" stroke="#bfbfbf" points="1500,-112.5 1500,-131.5 1556,-131.5 1556,-112.5 1500,-112.5"/>
<text text-anchor="middle" x="1528" y="-119.5" font-family="Helvetica,sans-Serif" font-size="10.00">algorithm</text>
</g>
<!-- Node1&#45;&gt;Node23 -->
<g id="edge62" class="edge"><title>Node1&#45;&gt;Node23</title>
<path fill="none" stroke="midnightblue" d="M856.51,-475.848C1051.51,-464.373 1547,-428.387 1547,-359 1547,-359 1547,-359 1547,-245 1547,-207.805 1538.27,-164.982 1532.65,-141.249"/>
<polygon fill="midnightblue" stroke="midnightblue" points="1536.04,-140.385 1530.25,-131.508 1529.24,-142.054 1536.04,-140.385"/>
</g>
<!-- Node33 -->
<g id="node33" class="node"><title>Node33</title>
<g id="a_node33"><a xlink:href="Log_8hpp.html" target="_top" xlink:title="Core/Log/Log.hpp">
<polygon fill="white" stroke="black" points="298,-236.5 298,-255.5 392,-255.5 392,-236.5 298,-236.5"/>
<text text-anchor="middle" x="345" y="-243.5" font-family="Helvetica,sans-Serif" font-size="10.00">Core/Log/Log.hpp</text>
</a>
</g>
</g>
<!-- Node1&#45;&gt;Node33 -->
<g id="edge61" class="edge"><title>Node1&#45;&gt;Node33</title>
<path fill="none" stroke="midnightblue" d="M742.371,-460.335C656.317,-414.136 443.023,-299.625 369.994,-260.418"/>
<polygon fill="midnightblue" stroke="midnightblue" points="371.496,-257.252 361.03,-255.606 368.185,-263.42 371.496,-257.252"/>
</g>
<!-- Node37 -->
<g id="node37" class="node"><title>Node37</title>
<polygon fill="white" stroke="#bfbfbf" points="771.5,-236.5 771.5,-255.5 818.5,-255.5 818.5,-236.5 771.5,-236.5"/>
<text text-anchor="middle" x="795" y="-243.5" font-family="Helvetica,sans-Serif" font-size="10.00">iterator</text>
</g>
<!-- Node1&#45;&gt;Node37 -->
<g id="edge63" class="edge"><title>Node1&#45;&gt;Node37</title>
<path fill="none" stroke="midnightblue" d="M821.928,-460.498C836.41,-451.579 850.936,-439.489 859,-424 888.104,-368.101 837.029,-295.965 810.067,-263.786"/>
<polygon fill="midnightblue" stroke="midnightblue" points="812.372,-261.1 803.189,-255.816 807.073,-265.673 812.372,-261.1"/>
</g>
<!-- Node2&#45;&gt;Node1 -->
<g id="edge60" class="edge"><title>Node2&#45;&gt;Node1</title>
<path fill="none" stroke="midnightblue" d="M783.764,-423.652C785.227,-430.524 785.881,-440.559 785.728,-450.263"/>
<polygon fill="midnightblue" stroke="midnightblue" points="782.221,-450.344 785.245,-460.498 789.213,-450.674 782.221,-450.344"/>
</g>
<!-- Node3 -->
<g id="node3" class="node"><title>Node3</title>
<polygon fill="white" stroke="#bfbfbf" points="798,-348.5 798,-367.5 850,-367.5 850,-348.5 798,-348.5"/>
<text text-anchor="middle" x="824" y="-355.5" font-family="Helvetica,sans-Serif" font-size="10.00">memory</text>
</g>
<!-- Node2&#45;&gt;Node3 -->
<g id="edge2" class="edge"><title>Node2&#45;&gt;Node3</title>
<path fill="none" stroke="midnightblue" d="M786.431,-404.083C792.853,-396.377 802.306,-385.033 810.122,-375.653"/>
<polygon fill="midnightblue" stroke="midnightblue" points="812.994,-377.674 816.707,-367.751 807.617,-373.193 812.994,-377.674"/>
</g>
<!-- Node4 -->
<g id="node4" class="node"><title>Node4</title>
<polygon fill="white" stroke="#bfbfbf" points="81.5,-112.5 81.5,-131.5 122.5,-131.5 122.5,-112.5 81.5,-112.5"/>
<text text-anchor="middle" x="102" y="-119.5" font-family="Helvetica,sans-Serif" font-size="10.00">string</text>
</g>
<!-- Node2&#45;&gt;Node4 -->
<g id="edge3" class="edge"><title>Node2&#45;&gt;Node4</title>
<path fill="none" stroke="midnightblue" d="M707.844,-410.288C570.214,-404.62 272.276,-390.177 172,-368 92.2071,-350.353 0,-384.721 0,-303 0,-303 0,-303 0,-245 0,-196.462 48.1083,-157.051 78.2464,-137.124"/>
<polygon fill="midnightblue" stroke="midnightblue" points="80.3981,-139.903 86.9495,-131.577 76.6356,-134 80.3981,-139.903"/>
</g>
<!-- Node5 -->
<g id="node5" class="node"><title>Node5</title>
<polygon fill="white" stroke="#bfbfbf" points="1719,-112.5 1719,-131.5 1763,-131.5 1763,-112.5 1719,-112.5"/>
<text text-anchor="middle" x="1741" y="-119.5" font-family="Helvetica,sans-Serif" font-size="10.00">vector</text>
</g>
<!-- Node2&#45;&gt;Node5 -->
<g id="edge4" class="edge"><title>Node2&#45;&gt;Node5</title>
<path fill="none" stroke="midnightblue" d="M850.346,-412.935C1084.86,-411.787 1817,-400.404 1817,-303 1817,-303 1817,-303 1817,-245 1817,-201.217 1781.3,-160.142 1758.84,-138.63"/>
<polygon fill="midnightblue" stroke="midnightblue" points="1760.97,-135.835 1751.25,-131.62 1756.22,-140.977 1760.97,-135.835"/>
</g>
<!-- Node6 -->
<g id="node6" class="node"><title>Node6</title>
<g id="a_node6"><a xlink:href="VectorArray_8hpp.html" target="_top" xlink:title="Core/Containers/VectorArray.hpp">
<polygon fill="white" stroke="black" points="1020.5,-292.5 1020.5,-311.5 1181.5,-311.5 1181.5,-292.5 1020.5,-292.5"/>
<text text-anchor="middle" x="1101" y="-299.5" font-family="Helvetica,sans-Serif" font-size="10.00">Core/Containers/VectorArray.hpp</text>
</a>
</g>
</g>
<!-- Node2&#45;&gt;Node6 -->
<g id="edge5" class="edge"><title>Node2&#45;&gt;Node6</title>
<path fill="none" stroke="midnightblue" d="M803.999,-404.46C860.945,-385.006 1000.43,-337.355 1065.94,-314.977"/>
<polygon fill="midnightblue" stroke="midnightblue" points="1067.46,-318.155 1075.8,-311.61 1065.2,-311.531 1067.46,-318.155"/>
</g>
<!-- Node8 -->
<g id="node8" class="node"><title>Node8</title>
<g id="a_node8"><a xlink:href="RaCore_8hpp.html" target="_top" xlink:title="Core/RaCore.hpp">
<polygon fill="white" stroke="black" points="540.5,-112.5 540.5,-131.5 633.5,-131.5 633.5,-112.5 540.5,-112.5"/>
<text text-anchor="middle" x="587" y="-119.5" font-family="Helvetica,sans-Serif" font-size="10.00">Core/RaCore.hpp</text>
</a>
</g>
</g>
<!-- Node2&#45;&gt;Node8 -->
<g id="edge35" class="edge"><title>Node2&#45;&gt;Node8</title>
<path fill="none" stroke="midnightblue" d="M707.74,-410.487C601.466,-402.822 401.889,-372.686 289,-256 261.359,-227.43 246.961,-198.037 273,-168 305.648,-130.34 449.108,-123.439 530.356,-122.627"/>
<polygon fill="midnightblue" stroke="midnightblue" points="530.452,-126.127 540.426,-122.555 530.401,-119.127 530.452,-126.127"/>
</g>
<!-- Node27 -->
<g id="node27" class="node"><title>Node27</title>
<g id="a_node27"><a xlink:href="Index_8hpp.html" target="_top" xlink:title="Core/Index/Index.hpp">
<polygon fill="white" stroke="black" points="1354,-348.5 1354,-367.5 1464,-367.5 1464,-348.5 1354,-348.5"/>
<text text-anchor="middle" x="1409" y="-355.5" font-family="Helvetica,sans-Serif" font-size="10.00">Core/Index/Index.hpp</text>
</a>
</g>
</g>
<!-- Node2&#45;&gt;Node27 -->
<g id="edge32" class="edge"><title>Node2&#45;&gt;Node27</title>
<path fill="none" stroke="midnightblue" d="M850.044,-406.91C973.242,-396.351 1224.72,-374.795 1343.76,-364.592"/>
<polygon fill="midnightblue" stroke="midnightblue" points="1344.16,-368.071 1353.82,-363.73 1343.56,-361.097 1344.16,-368.071"/>
</g>
<!-- Node30 -->
<g id="node30" class="node"><title>Node30</title>
<g id="a_node30"><a xlink:href="AssetData_8hpp.html" target="_top" xlink:title="Core/File/AssetData.hpp">
<polygon fill="white" stroke="black" points="28.5,-236.5 28.5,-255.5 153.5,-255.5 153.5,-236.5 28.5,-236.5"/>
<text text-anchor="middle" x="91" y="-243.5" font-family="Helvetica,sans-Serif" font-size="10.00">Core/File/AssetData.hpp</text>
</a>
</g>
</g>
<!-- Node2&#45;&gt;Node30 -->
<g id="edge36" class="edge"><title>Node2&#45;&gt;Node30</title>
<path fill="none" stroke="midnightblue" d="M707.768,-413.69C574.465,-413.961 292.932,-409.415 206,-368 157.553,-344.92 119.025,-291.923 101.413,-264.363"/>
<polygon fill="midnightblue" stroke="midnightblue" points="104.323,-262.415 96.0741,-255.766 98.3768,-266.108 104.323,-262.415"/>
</g>
<!-- Node31 -->
<g id="node31" class="node"><title>Node31</title>
<g id="a_node31"><a xlink:href="MaterialData_8hpp.html" target="_top" xlink:title="Core/File/MaterialData.hpp">
<polygon fill="white" stroke="black" points="646,-348.5 646,-367.5 780,-367.5 780,-348.5 646,-348.5"/>
<text text-anchor="middle" x="713" y="-355.5" font-family="Helvetica,sans-Serif" font-size="10.00">Core/File/MaterialData.hpp</text>
</a>
</g>
</g>
<!-- Node2&#45;&gt;Node31 -->
<g id="edge39" class="edge"><title>Node2&#45;&gt;Node31</title>
<path fill="none" stroke="midnightblue" d="M768.396,-404.324C758.544,-396.263 743.649,-384.077 731.785,-374.369"/>
<polygon fill="midnightblue" stroke="midnightblue" points="733.753,-371.457 723.797,-367.834 729.32,-376.875 733.753,-371.457"/>
</g>
<!-- Node6&#45;&gt;Node5 -->
<g id="edge31" class="edge"><title>Node6&#45;&gt;Node5</title>
<path fill="none" stroke="midnightblue" d="M1181.67,-298.784C1331.69,-292.962 1645.34,-272.249 1722,-200 1737.78,-185.126 1741.34,-159.408 1741.74,-141.82"/>
<polygon fill="midnightblue" stroke="midnightblue" points="1745.23,-141.598 1741.64,-131.631 1738.23,-141.664 1745.23,-141.598"/>
</g>
<!-- Node7 -->
<g id="node7" class="node"><title>Node7</title>
<g id="a_node7"><a xlink:href="AlignedStdVector_8hpp.html" target="_top" xlink:title="Core/Containers/AlignedStd\lVector.hpp">
<polygon fill="white" stroke="black" points="1575,-169 1575,-199 1713,-199 1713,-169 1575,-169"/>
<text text-anchor="start" x="1583" y="-187" font-family="Helvetica,sans-Serif" font-size="10.00">Core/Containers/AlignedStd</text>
<text text-anchor="middle" x="1644" y="-176" font-family="Helvetica,sans-Serif" font-size="10.00">Vector.hpp</text>
</a>
</g>
</g>
<!-- Node6&#45;&gt;Node7 -->
<g id="edge6" class="edge"><title>Node6&#45;&gt;Node7</title>
<path fill="none" stroke="midnightblue" d="M1157.27,-292.5C1210.09,-284.229 1291.2,-270.775 1361,-256 1438.02,-239.697 1525.83,-217.02 1582.94,-201.718"/>
<polygon fill="midnightblue" stroke="midnightblue" points="1584.14,-205.02 1592.88,-199.044 1582.32,-198.26 1584.14,-205.02"/>
</g>
<!-- Node6&#45;&gt;Node8 -->
<g id="edge30" class="edge"><title>Node6&#45;&gt;Node8</title>
<path fill="none" stroke="midnightblue" d="M1145.95,-292.493C1227.77,-275.2 1387.29,-232.071 1327,-168 1303.66,-143.197 812.905,-128.643 643.73,-124.348"/>
<polygon fill="midnightblue" stroke="midnightblue" points="643.618,-120.845 633.534,-124.092 643.442,-127.842 643.618,-120.845"/>
</g>
<!-- Node16 -->
<g id="node16" class="node"><title>Node16</title>
<g id="a_node16"><a xlink:href="LinearAlgebra_8hpp.html" target="_top" xlink:title="Core/Math/LinearAlgebra.hpp">
<polygon fill="white" stroke="black" points="928.5,-236.5 928.5,-255.5 1071.5,-255.5 1071.5,-236.5 928.5,-236.5"/>
<text text-anchor="middle" x="1000" y="-243.5" font-family="Helvetica,sans-Serif" font-size="10.00">Core/Math/LinearAlgebra.hpp</text>
</a>
</g>
</g>
<!-- Node6&#45;&gt;Node16 -->
<g id="edge16" class="edge"><title>Node6&#45;&gt;Node16</title>
<path fill="none" stroke="midnightblue" d="M1084.77,-292.324C1068.65,-283.703 1043.7,-270.364 1025.04,-260.386"/>
<polygon fill="midnightblue" stroke="midnightblue" points="1026.66,-257.283 1016.19,-255.655 1023.36,-263.456 1026.66,-257.283"/>
</g>
<!-- Node7&#45;&gt;Node5 -->
<g id="edge15" class="edge"><title>Node7&#45;&gt;Node5</title>
<path fill="none" stroke="midnightblue" d="M1666.99,-168.781C1682.48,-159.196 1702.84,-146.606 1718.28,-137.056"/>
<polygon fill="midnightblue" stroke="midnightblue" points="1720.5,-139.793 1727.17,-131.556 1716.82,-133.84 1720.5,-139.793"/>
</g>
<!-- Node7&#45;&gt;Node8 -->
<g id="edge7" class="edge"><title>Node7&#45;&gt;Node8</title>
<path fill="none" stroke="midnightblue" d="M1574.62,-175.589C1547.88,-172.916 1517.04,-170.055 1489,-168 1169.78,-144.604 786.096,-129.906 643.748,-124.911"/>
<polygon fill="midnightblue" stroke="midnightblue" points="643.636,-121.405 633.52,-124.555 643.391,-128.401 643.636,-121.405"/>
</g>
<!-- Node15 -->
<g id="node15" class="node"><title>Node15</title>
<polygon fill="white" stroke="#bfbfbf" points="1600,-112.5 1600,-131.5 1688,-131.5 1688,-112.5 1600,-112.5"/>
<text text-anchor="middle" x="1644" y="-119.5" font-family="Helvetica,sans-Serif" font-size="10.00">Eigen/StdVector</text>
</g>
<!-- Node7&#45;&gt;Node15 -->
<g id="edge14" class="edge"><title>Node7&#45;&gt;Node15</title>
<path fill="none" stroke="midnightblue" d="M1644,-168.781C1644,-160.781 1644,-150.689 1644,-142.017"/>
<polygon fill="midnightblue" stroke="midnightblue" points="1647.5,-141.73 1644,-131.731 1640.5,-141.731 1647.5,-141.73"/>
</g>
<!-- Node9 -->
<g id="node9" class="node"><title>Node9</title>
<g id="a_node9"><a xlink:href="CoreMacros_8hpp.html" target="_top" xlink:title="Core/CoreMacros.hpp">
<polygon fill="white" stroke="black" points="488.5,-56.5 488.5,-75.5 601.5,-75.5 601.5,-56.5 488.5,-56.5"/>
<text text-anchor="middle" x="545" y="-63.5" font-family="Helvetica,sans-Serif" font-size="10.00">Core/CoreMacros.hpp</text>
</a>
</g>
</g>
<!-- Node8&#45;&gt;Node9 -->
<g id="edge8" class="edge"><title>Node8&#45;&gt;Node9</title>
<path fill="none" stroke="midnightblue" d="M580.065,-112.083C574.071,-104.377 565.248,-93.0333 557.952,-83.6531"/>
<polygon fill="midnightblue" stroke="midnightblue" points="560.709,-81.4958 551.806,-75.7511 555.183,-85.7934 560.709,-81.4958"/>
</g>
<!-- Node10 -->
<g id="node10" class="node"><title>Node10</title>
<polygon fill="white" stroke="#bfbfbf" points="619.5,-0.5 619.5,-19.5 668.5,-19.5 668.5,-0.5 619.5,-0.5"/>
<text text-anchor="middle" x="644" y="-7.5" font-family="Helvetica,sans-Serif" font-size="10.00">cassert</text>
</g>
<!-- Node9&#45;&gt;Node10 -->
<g id="edge9" class="edge"><title>Node9&#45;&gt;Node10</title>
<path fill="none" stroke="midnightblue" d="M560.906,-56.324C576.638,-47.7428 600.942,-34.486 619.209,-24.5224"/>
<polygon fill="midnightblue" stroke="midnightblue" points="621.03,-27.5157 628.133,-19.6545 617.678,-21.3704 621.03,-27.5157"/>
</g>
<!-- Node11 -->
<g id="node11" class="node"><title>Node11</title>
<polygon fill="white" stroke="#bfbfbf" points="423.5,-0.5 423.5,-19.5 466.5,-19.5 466.5,-0.5 423.5,-0.5"/>
<text text-anchor="middle" x="445" y="-7.5" font-family="Helvetica,sans-Serif" font-size="10.00">cstdio</text>
</g>
<!-- Node9&#45;&gt;Node11 -->
<g id="edge10" class="edge"><title>Node9&#45;&gt;Node11</title>
<path fill="none" stroke="midnightblue" d="M528.933,-56.324C513.042,-47.7428 488.493,-34.486 470.042,-24.5224"/>
<polygon fill="midnightblue" stroke="midnightblue" points="471.489,-21.3264 461.027,-19.6545 468.163,-27.4857 471.489,-21.3264"/>
</g>
<!-- Node12 -->
<g id="node12" class="node"><title>Node12</title>
<polygon fill="white" stroke="#bfbfbf" points="485,-0.5 485,-19.5 539,-19.5 539,-0.5 485,-0.5"/>
<text text-anchor="middle" x="512" y="-7.5" font-family="Helvetica,sans-Serif" font-size="10.00">iostream</text>
</g>
<!-- Node9&#45;&gt;Node12 -->
<g id="edge11" class="edge"><title>Node9&#45;&gt;Node12</title>
<path fill="none" stroke="midnightblue" d="M539.551,-56.083C534.986,-48.6127 528.332,-37.7244 522.707,-28.5199"/>
<polygon fill="midnightblue" stroke="midnightblue" points="525.549,-26.4588 517.348,-19.7511 519.576,-30.109 525.549,-26.4588"/>
</g>
<!-- Node13 -->
<g id="node13" class="node"><title>Node13</title>
<polygon fill="white" stroke="#bfbfbf" points="311,-0.5 311,-19.5 363,-19.5 363,-0.5 311,-0.5"/>
<text text-anchor="middle" x="337" y="-7.5" font-family="Helvetica,sans-Serif" font-size="10.00">sstream</text>
</g>
<!-- Node9&#45;&gt;Node13 -->
<g id="edge12" class="edge"><title>Node9&#45;&gt;Node13</title>
<path fill="none" stroke="midnightblue" d="M512.042,-56.4435C474.186,-46.6156 412.275,-30.5427 373.133,-20.3807"/>
<polygon fill="midnightblue" stroke="midnightblue" points="373.777,-16.9319 363.218,-17.8067 372.018,-23.7073 373.777,-16.9319"/>
</g>
<!-- Node14 -->
<g id="node14" class="node"><title>Node14</title>
<polygon fill="white" stroke="#bfbfbf" points="557,-0.5 557,-19.5 601,-19.5 601,-0.5 557,-0.5"/>
<text text-anchor="middle" x="579" y="-7.5" font-family="Helvetica,sans-Serif" font-size="10.00">thread</text>
</g>
<!-- Node9&#45;&gt;Node14 -->
<g id="edge13" class="edge"><title>Node9&#45;&gt;Node14</title>
<path fill="none" stroke="midnightblue" d="M550.614,-56.083C555.367,-48.5341 562.318,-37.4948 568.152,-28.2298"/>
<polygon fill="midnightblue" stroke="midnightblue" points="571.124,-30.0783 573.49,-19.7511 565.2,-26.3486 571.124,-30.0783"/>
</g>
<!-- Node16&#45;&gt;Node8 -->
<g id="edge17" class="edge"><title>Node16&#45;&gt;Node8</title>
<path fill="none" stroke="midnightblue" d="M928.153,-240.856C843.358,-235.027 708.169,-222.511 663,-200 635.228,-186.159 611.65,-158.116 598.419,-139.964"/>
<polygon fill="midnightblue" stroke="midnightblue" points="601.087,-137.674 592.475,-131.502 595.358,-141.697 601.087,-137.674"/>
</g>
<!-- Node17 -->
<g id="node17" class="node"><title>Node17</title>
<polygon fill="white" stroke="#bfbfbf" points="1253.5,-174.5 1253.5,-193.5 1318.5,-193.5 1318.5,-174.5 1253.5,-174.5"/>
<text text-anchor="middle" x="1286" y="-181.5" font-family="Helvetica,sans-Serif" font-size="10.00">Eigen/Core</text>
</g>
<!-- Node16&#45;&gt;Node17 -->
<g id="edge18" class="edge"><title>Node16&#45;&gt;Node17</title>
<path fill="none" stroke="midnightblue" d="M1061.27,-236.493C1110.99,-228.925 1182.64,-216.5 1244,-200 1247.39,-199.088 1250.9,-198.027 1254.38,-196.901"/>
<polygon fill="midnightblue" stroke="midnightblue" points="1255.65,-200.165 1263.98,-193.615 1253.38,-193.543 1255.65,-200.165"/>
</g>
<!-- Node18 -->
<g id="node18" class="node"><title>Node18</title>
<polygon fill="white" stroke="#bfbfbf" points="672.5,-174.5 672.5,-193.5 759.5,-193.5 759.5,-174.5 672.5,-174.5"/>
<text text-anchor="middle" x="716" y="-181.5" font-family="Helvetica,sans-Serif" font-size="10.00">Eigen/Geometry</text>
</g>
<!-- Node16&#45;&gt;Node18 -->
<g id="edge19" class="edge"><title>Node16&#45;&gt;Node18</title>
<path fill="none" stroke="midnightblue" d="M949.03,-236.463C901.836,-228.24 829.828,-214.882 768,-200 763.335,-198.877 758.463,-197.606 753.651,-196.289"/>
<polygon fill="midnightblue" stroke="midnightblue" points="754.519,-192.897 743.945,-193.557 752.622,-199.636 754.519,-192.897"/>
</g>
<!-- Node19 -->
<g id="node19" class="node"><title>Node19</title>
<polygon fill="white" stroke="#bfbfbf" points="777.5,-174.5 777.5,-193.5 852.5,-193.5 852.5,-174.5 777.5,-174.5"/>
<text text-anchor="middle" x="815" y="-181.5" font-family="Helvetica,sans-Serif" font-size="10.00">Eigen/Sparse</text>
</g>
<!-- Node16&#45;&gt;Node19 -->
<g id="edge20" class="edge"><title>Node16&#45;&gt;Node19</title>
<path fill="none" stroke="midnightblue" d="M973.606,-236.474C945.642,-227.436 900.201,-212.737 861,-200 857.705,-198.929 854.277,-197.814 850.845,-196.697"/>
<polygon fill="midnightblue" stroke="midnightblue" points="851.861,-193.347 841.269,-193.577 849.692,-200.002 851.861,-193.347"/>
</g>
<!-- Node20 -->
<g id="node20" class="node"><title>Node20</title>
<polygon fill="white" stroke="#bfbfbf" points="870.5,-174.5 870.5,-193.5 929.5,-193.5 929.5,-174.5 870.5,-174.5"/>
<text text-anchor="middle" x="900" y="-181.5" font-family="Helvetica,sans-Serif" font-size="10.00">functional</text>
</g>
<!-- Node16&#45;&gt;Node20 -->
<g id="edge21" class="edge"><title>Node16&#45;&gt;Node20</title>
<path fill="none" stroke="midnightblue" d="M985.672,-236.403C969.336,-226.601 942.398,-210.439 923.088,-198.853"/>
<polygon fill="midnightblue" stroke="midnightblue" points="924.677,-195.724 914.301,-193.581 921.075,-201.727 924.677,-195.724"/>
</g>
<!-- Node21 -->
<g id="node21" class="node"><title>Node21</title>
<polygon fill="white" stroke="#bfbfbf" points="947.5,-169 947.5,-199 1080.5,-199 1080.5,-169 947.5,-169"/>
<text text-anchor="start" x="955.5" y="-187" font-family="Helvetica,sans-Serif" font-size="10.00">unsupported/Eigen/Aligned</text>
<text text-anchor="middle" x="1014" y="-176" font-family="Helvetica,sans-Serif" font-size="10.00">Vector3</text>
</g>
<!-- Node16&#45;&gt;Node21 -->
<g id="edge22" class="edge"><title>Node16&#45;&gt;Node21</title>
<path fill="none" stroke="midnightblue" d="M1002.01,-236.403C1003.67,-229.265 1006.12,-218.752 1008.38,-209.09"/>
<polygon fill="midnightblue" stroke="midnightblue" points="1011.84,-209.675 1010.7,-199.141 1005.02,-208.084 1011.84,-209.675"/>
</g>
<!-- Node22 -->
<g id="node22" class="node"><title>Node22</title>
<g id="a_node22"><a xlink:href="Math_8hpp.html" target="_top" xlink:title="Core/Math/Math.hpp">
<polygon fill="white" stroke="black" points="1375,-174.5 1375,-193.5 1481,-193.5 1481,-174.5 1375,-174.5"/>
<text text-anchor="middle" x="1428" y="-181.5" font-family="Helvetica,sans-Serif" font-size="10.00">Core/Math/Math.hpp</text>
</a>
</g>
</g>
<!-- Node16&#45;&gt;Node22 -->
<g id="edge23" class="edge"><title>Node16&#45;&gt;Node22</title>
<path fill="none" stroke="midnightblue" d="M1063.33,-236.489C1129.22,-227.586 1235.38,-213.107 1327,-200 1339.25,-198.247 1352.34,-196.334 1364.89,-194.479"/>
<polygon fill="midnightblue" stroke="midnightblue" points="1365.43,-197.937 1374.81,-193.008 1364.41,-191.012 1365.43,-197.937"/>
</g>
<!-- Node26 -->
<g id="node26" class="node"><title>Node26</title>
<g id="a_node26"><a xlink:href="LinearAlgebra_8inl.html" target="_top" xlink:title="Core/Math/LinearAlgebra.inl">
<polygon fill="white" stroke="black" points="1098.5,-174.5 1098.5,-193.5 1235.5,-193.5 1235.5,-174.5 1098.5,-174.5"/>
<text text-anchor="middle" x="1167" y="-181.5" font-family="Helvetica,sans-Serif" font-size="10.00">Core/Math/LinearAlgebra.inl</text>
</a>
</g>
</g>
<!-- Node16&#45;&gt;Node26 -->
<g id="edge29" class="edge"><title>Node16&#45;&gt;Node26</title>
<path fill="none" stroke="midnightblue" d="M1023.93,-236.403C1052.7,-226.067 1101.16,-208.656 1133.6,-196.999"/>
<polygon fill="midnightblue" stroke="midnightblue" points="1134.89,-200.256 1143.12,-193.581 1132.52,-193.668 1134.89,-200.256"/>
</g>
<!-- Node22&#45;&gt;Node8 -->
<g id="edge24" class="edge"><title>Node22&#45;&gt;Node8</title>
<path fill="none" stroke="midnightblue" d="M1394.8,-174.449C1384.08,-171.989 1372.1,-169.554 1361,-168 1094.61,-130.688 772.472,-124.208 643.948,-123.16"/>
<polygon fill="midnightblue" stroke="midnightblue" points="643.962,-119.66 633.937,-123.086 643.911,-126.66 643.962,-119.66"/>
</g>
<!-- Node22&#45;&gt;Node23 -->
<g id="edge25" class="edge"><title>Node22&#45;&gt;Node23</title>
<path fill="none" stroke="midnightblue" d="M1442.33,-174.403C1458.66,-164.601 1485.6,-148.439 1504.91,-136.853"/>
<polygon fill="midnightblue" stroke="midnightblue" points="1506.92,-139.727 1513.7,-131.581 1503.32,-133.724 1506.92,-139.727"/>
</g>
<!-- Node24 -->
<g id="node24" class="node"><title>Node24</title>
<polygon fill="white" stroke="#bfbfbf" points="1438,-112.5 1438,-131.5 1482,-131.5 1482,-112.5 1438,-112.5"/>
<text text-anchor="middle" x="1460" y="-119.5" font-family="Helvetica,sans-Serif" font-size="10.00">cmath</text>
</g>
<!-- Node22&#45;&gt;Node24 -->
<g id="edge26" class="edge"><title>Node22&#45;&gt;Node24</title>
<path fill="none" stroke="midnightblue" d="M1432.58,-174.403C1437.29,-165.582 1444.74,-151.608 1450.69,-140.455"/>
<polygon fill="midnightblue" stroke="midnightblue" points="1453.81,-142.051 1455.42,-131.581 1447.63,-138.757 1453.81,-142.051"/>
</g>
<!-- Node25 -->
<g id="node25" class="node"><title>Node25</title>
<g id="a_node25"><a xlink:href="Math_8inl.html" target="_top" xlink:title="Core/Math/Math.inl">
<polygon fill="white" stroke="black" points="1320,-112.5 1320,-131.5 1420,-131.5 1420,-112.5 1320,-112.5"/>
<text text-anchor="middle" x="1370" y="-119.5" font-family="Helvetica,sans-Serif" font-size="10.00">Core/Math/Math.inl</text>
</a>
</g>
</g>
<!-- Node22&#45;&gt;Node25 -->
<g id="edge27" class="edge"><title>Node22&#45;&gt;Node25</title>
<path fill="none" stroke="midnightblue" d="M1414.79,-174.403C1404.04,-165.314 1389.57,-150.756 1379.8,-139.449"/>
<polygon fill="midnightblue" stroke="midnightblue" points="1382.43,-137.125 1373.4,-131.581 1377,-141.545 1382.43,-137.125"/>
</g>
<!-- Node25&#45;&gt;Node22 -->
<g id="edge28" class="edge"><title>Node25&#45;&gt;Node22</title>
<path fill="none" stroke="midnightblue" d="M1383.19,-131.581C1393.94,-140.663 1408.41,-155.22 1418.18,-166.531"/>
<polygon fill="midnightblue" stroke="midnightblue" points="1415.56,-168.86 1424.59,-174.403 1420.99,-164.44 1415.56,-168.86"/>
</g>
<!-- Node28 -->
<g id="node28" class="node"><title>Node28</title>
<polygon fill="white" stroke="#bfbfbf" points="1479,-292.5 1479,-311.5 1519,-311.5 1519,-292.5 1479,-292.5"/>
<text text-anchor="middle" x="1499" y="-299.5" font-family="Helvetica,sans-Serif" font-size="10.00">limits</text>
</g>
<!-- Node27&#45;&gt;Node28 -->
<g id="edge33" class="edge"><title>Node27&#45;&gt;Node28</title>
<path fill="none" stroke="midnightblue" d="M1423.46,-348.324C1437.5,-339.9 1459.05,-326.971 1475.54,-317.074"/>
<polygon fill="midnightblue" stroke="midnightblue" points="1477.8,-319.801 1484.58,-311.655 1474.2,-313.798 1477.8,-319.801"/>
</g>
<!-- Node29 -->
<g id="node29" class="node"><title>Node29</title>
<g id="a_node29"><a xlink:href="Index_8inl.html" target="_top" xlink:title="Core/Index/Index.inl">
<polygon fill="white" stroke="black" points="1357,-292.5 1357,-311.5 1461,-311.5 1461,-292.5 1357,-292.5"/>
<text text-anchor="middle" x="1409" y="-299.5" font-family="Helvetica,sans-Serif" font-size="10.00">Core/Index/Index.inl</text>
</a>
</g>
</g>
<!-- Node27&#45;&gt;Node29 -->
<g id="edge34" class="edge"><title>Node27&#45;&gt;Node29</title>
<path fill="none" stroke="midnightblue" d="M1409,-348.083C1409,-341.006 1409,-330.861 1409,-321.986"/>
<polygon fill="midnightblue" stroke="midnightblue" points="1412.5,-321.751 1409,-311.751 1405.5,-321.751 1412.5,-321.751"/>
</g>
<!-- Node30&#45;&gt;Node4 -->
<g id="edge38" class="edge"><title>Node30&#45;&gt;Node4</title>
<path fill="none" stroke="midnightblue" d="M89.6112,-236.395C87.5392,-222.101 84.2615,-192.601 88,-168 89.3675,-159.001 92.1904,-149.325 94.9455,-141.26"/>
<polygon fill="midnightblue" stroke="midnightblue" points="98.2653,-142.372 98.4,-131.778 91.6882,-139.976 98.2653,-142.372"/>
</g>
<!-- Node30&#45;&gt;Node8 -->
<g id="edge37" class="edge"><title>Node30&#45;&gt;Node8</title>
<path fill="none" stroke="midnightblue" d="M96.134,-236.425C106.56,-219.889 131.963,-183.834 164,-168 226.985,-136.871 430.006,-127.156 530.113,-124.22"/>
<polygon fill="midnightblue" stroke="midnightblue" points="530.446,-127.712 540.344,-123.933 530.25,-120.715 530.446,-127.712"/>
</g>
<!-- Node31&#45;&gt;Node4 -->
<g id="edge40" class="edge"><title>Node31&#45;&gt;Node4</title>
<path fill="none" stroke="midnightblue" d="M659.599,-348.476C578.031,-334.527 418.259,-303.531 289,-256 237.511,-237.067 223.388,-232.238 179,-200 154.251,-182.025 130.028,-156.014 115.552,-139.304"/>
<polygon fill="midnightblue" stroke="midnightblue" points="118.065,-136.856 108.92,-131.506 112.732,-141.391 118.065,-136.856"/>
</g>
<!-- Node31&#45;&gt;Node5 -->
<g id="edge41" class="edge"><title>Node31&#45;&gt;Node5</title>
<path fill="none" stroke="midnightblue" d="M780.125,-348.946C783.124,-348.62 786.093,-348.303 789,-348 966.978,-329.477 1012.1,-331.249 1190,-312 1190.38,-311.958 1631.63,-256.112 1632,-256 1685.66,-239.808 1715.45,-247.628 1745,-200 1755.88,-182.459 1752.2,-158.108 1747.56,-141.518"/>
<polygon fill="midnightblue" stroke="midnightblue" points="1750.86,-140.363 1744.51,-131.886 1744.19,-142.476 1750.86,-140.363"/>
</g>
<!-- Node31&#45;&gt;Node6 -->
<g id="edge42" class="edge"><title>Node31&#45;&gt;Node6</title>
<path fill="none" stroke="midnightblue" d="M774.48,-348.444C843.868,-338.786 956.583,-323.099 1029.75,-312.916"/>
<polygon fill="midnightblue" stroke="midnightblue" points="1030.39,-316.362 1039.81,-311.516 1029.42,-309.428 1030.39,-316.362"/>
</g>
<!-- Node31&#45;&gt;Node8 -->
<g id="edge44" class="edge"><title>Node31&#45;&gt;Node8</title>
<path fill="none" stroke="midnightblue" d="M690.377,-348.375C674.091,-341.05 652.815,-329.001 640,-312 600.391,-259.45 590.381,-178.641 587.853,-142.105"/>
<polygon fill="midnightblue" stroke="midnightblue" points="591.334,-141.673 587.267,-131.89 584.346,-142.074 591.334,-141.673"/>
</g>
<!-- Node31&#45;&gt;Node16 -->
<g id="edge43" class="edge"><title>Node31&#45;&gt;Node16</title>
<path fill="none" stroke="midnightblue" d="M735.52,-348.368C786.237,-328.93 909.531,-281.674 968.096,-259.228"/>
<polygon fill="midnightblue" stroke="midnightblue" points="969.499,-262.439 977.584,-255.591 966.994,-255.902 969.499,-262.439"/>
</g>
<!-- Node31&#45;&gt;Node30 -->
<g id="edge45" class="edge"><title>Node31&#45;&gt;Node30</title>
<path fill="none" stroke="midnightblue" d="M645.733,-352.64C567.063,-346.772 433.181,-334.388 320,-312 250.041,-298.162 170.348,-273.446 125.83,-258.804"/>
<polygon fill="midnightblue" stroke="midnightblue" points="126.681,-255.4 116.088,-255.576 124.479,-262.044 126.681,-255.4"/>
</g>
<!-- Node32 -->
<g id="node32" class="node"><title>Node32</title>
<g id="a_node32"><a xlink:href="MaterialData_8inl.html" target="_top" xlink:title="Core/File/MaterialData.inl">
<polygon fill="white" stroke="black" points="649,-292.5 649,-311.5 777,-311.5 777,-292.5 649,-292.5"/>
<text text-anchor="middle" x="713" y="-299.5" font-family="Helvetica,sans-Serif" font-size="10.00">Core/File/MaterialData.inl</text>
</a>
</g>
</g>
<!-- Node31&#45;&gt;Node32 -->
<g id="edge46" class="edge"><title>Node31&#45;&gt;Node32</title>
<path fill="none" stroke="midnightblue" d="M707.834,-348.083C706.324,-340.927 705.894,-330.635 706.542,-321.691"/>
<polygon fill="midnightblue" stroke="midnightblue" points="710.015,-322.126 707.869,-311.751 703.077,-321.2 710.015,-322.126"/>
</g>
<!-- Node32&#45;&gt;Node23 -->
<g id="edge58" class="edge"><title>Node32&#45;&gt;Node23</title>
<path fill="none" stroke="midnightblue" d="M777.277,-296.103C952.85,-282.245 1431.32,-241.09 1489,-200 1508.41,-186.175 1518.75,-159.82 1523.8,-141.833"/>
<polygon fill="midnightblue" stroke="midnightblue" points="1527.26,-142.453 1526.3,-131.901 1520.47,-140.746 1527.26,-142.453"/>
</g>
<!-- Node32&#45;&gt;Node31 -->
<g id="edge47" class="edge"><title>Node32&#45;&gt;Node31</title>
<path fill="none" stroke="midnightblue" d="M718.131,-311.751C719.657,-318.858 720.104,-329.136 719.472,-338.101"/>
<polygon fill="midnightblue" stroke="midnightblue" points="715.993,-337.713 718.166,-348.083 722.934,-338.622 715.993,-337.713"/>
</g>
<!-- Node32&#45;&gt;Node33 -->
<g id="edge48" class="edge"><title>Node32&#45;&gt;Node33</title>
<path fill="none" stroke="midnightblue" d="M654.689,-292.444C585.581,-282.303 471.158,-265.512 402.435,-255.428"/>
<polygon fill="midnightblue" stroke="midnightblue" points="402.627,-251.919 392.225,-253.93 401.611,-258.845 402.627,-251.919"/>
</g>
<!-- Node32&#45;&gt;Node37 -->
<g id="edge59" class="edge"><title>Node32&#45;&gt;Node37</title>
<path fill="none" stroke="midnightblue" d="M726.175,-292.324C738.847,-283.979 758.233,-271.212 773.206,-261.352"/>
<polygon fill="midnightblue" stroke="midnightblue" points="775.431,-264.078 781.858,-255.655 771.581,-258.231 775.431,-264.078"/>
</g>
<!-- Node33&#45;&gt;Node4 -->
<g id="edge52" class="edge"><title>Node33&#45;&gt;Node4</title>
<path fill="none" stroke="midnightblue" d="M322.982,-236.343C301.527,-227.726 268.121,-213.825 240,-200 198.594,-179.644 152.036,-152.804 124.963,-136.783"/>
<polygon fill="midnightblue" stroke="midnightblue" points="126.624,-133.699 116.24,-131.596 123.046,-139.715 126.624,-133.699"/>
</g>
<!-- Node33&#45;&gt;Node8 -->
<g id="edge49" class="edge"><title>Node33&#45;&gt;Node8</title>
<path fill="none" stroke="midnightblue" d="M392.244,-239.365C444.659,-232.3 525.021,-218.792 549,-200 567.656,-185.379 577.796,-159.217 582.803,-141.49"/>
<polygon fill="midnightblue" stroke="midnightblue" points="586.214,-142.275 585.286,-131.721 579.43,-140.55 586.214,-142.275"/>
</g>
<!-- Node33&#45;&gt;Node13 -->
<g id="edge50" class="edge"><title>Node33&#45;&gt;Node13</title>
<path fill="none" stroke="midnightblue" d="M319.496,-236.472C303.013,-229.478 282.861,-217.792 273,-200 240.164,-140.755 294.822,-61.7556 322.477,-27.7387"/>
<polygon fill="midnightblue" stroke="midnightblue" points="325.433,-29.6599 329.162,-19.7431 320.062,-25.1697 325.433,-29.6599"/>
</g>
<!-- Node34 -->
<g id="node34" class="node"><title>Node34</title>
<polygon fill="white" stroke="#bfbfbf" points="282,-174.5 282,-193.5 328,-193.5 328,-174.5 282,-174.5"/>
<text text-anchor="middle" x="305" y="-181.5" font-family="Helvetica,sans-Serif" font-size="10.00">stdio.h</text>
</g>
<!-- Node33&#45;&gt;Node34 -->
<g id="edge51" class="edge"><title>Node33&#45;&gt;Node34</title>
<path fill="none" stroke="midnightblue" d="M339.269,-236.403C333.328,-227.493 323.883,-213.325 316.412,-202.118"/>
<polygon fill="midnightblue" stroke="midnightblue" points="319.18,-199.96 310.72,-193.581 313.355,-203.843 319.18,-199.96"/>
</g>
<!-- Node35 -->
<g id="node35" class="node"><title>Node35</title>
<g id="a_node35"><a xlink:href="StringUtils_8hpp.html" target="_top" xlink:title="Core/String/StringUtils.hpp">
<polygon fill="white" stroke="black" points="406,-174.5 406,-193.5 540,-193.5 540,-174.5 406,-174.5"/>
<text text-anchor="middle" x="473" y="-181.5" font-family="Helvetica,sans-Serif" font-size="10.00">Core/String/StringUtils.hpp</text>
</a>
</g>
</g>
<!-- Node33&#45;&gt;Node35 -->
<g id="edge53" class="edge"><title>Node33&#45;&gt;Node35</title>
<path fill="none" stroke="midnightblue" d="M363.339,-236.403C384.821,-226.334 420.622,-209.552 445.448,-197.915"/>
<polygon fill="midnightblue" stroke="midnightblue" points="447.126,-200.994 454.695,-193.581 444.155,-194.656 447.126,-200.994"/>
</g>
<!-- Node36 -->
<g id="node36" class="node"><title>Node36</title>
<polygon fill="white" stroke="#bfbfbf" points="346.5,-174.5 346.5,-193.5 387.5,-193.5 387.5,-174.5 346.5,-174.5"/>
<text text-anchor="middle" x="367" y="-181.5" font-family="Helvetica,sans-Serif" font-size="10.00">ctime</text>
</g>
<!-- Node33&#45;&gt;Node36 -->
<g id="edge57" class="edge"><title>Node33&#45;&gt;Node36</title>
<path fill="none" stroke="midnightblue" d="M348.152,-236.403C351.321,-227.76 356.304,-214.17 360.351,-203.134"/>
<polygon fill="midnightblue" stroke="midnightblue" points="363.697,-204.174 363.854,-193.581 357.125,-201.764 363.697,-204.174"/>
</g>
<!-- Node35&#45;&gt;Node4 -->
<g id="edge55" class="edge"><title>Node35&#45;&gt;Node4</title>
<path fill="none" stroke="midnightblue" d="M430.694,-174.439C419.436,-172.248 407.271,-169.96 396,-168 300.336,-151.368 186.58,-134.89 132.928,-127.313"/>
<polygon fill="midnightblue" stroke="midnightblue" points="133.111,-123.805 122.721,-125.877 132.135,-130.736 133.111,-123.805"/>
</g>
<!-- Node35&#45;&gt;Node5 -->
<g id="edge56" class="edge"><title>Node35&#45;&gt;Node5</title>
<path fill="none" stroke="midnightblue" d="M540.219,-176.969C576.548,-173.893 622.201,-170.32 663,-168 1121.65,-141.916 1239.7,-185.223 1696,-132 1700.07,-131.525 1704.32,-130.879 1708.51,-130.148"/>
<polygon fill="midnightblue" stroke="midnightblue" points="1709.51,-133.519 1718.68,-128.208 1708.2,-126.643 1709.51,-133.519"/>
</g>
<!-- Node35&#45;&gt;Node8 -->
<g id="edge54" class="edge"><title>Node35&#45;&gt;Node8</title>
<path fill="none" stroke="midnightblue" d="M489.333,-174.403C508.211,-164.468 539.507,-147.997 561.576,-136.381"/>
<polygon fill="midnightblue" stroke="midnightblue" points="563.478,-139.335 570.697,-131.581 560.218,-133.141 563.478,-139.335"/>
</g>
</g>
</svg>
