<?xml version="1.0" encoding="UTF-8" standalone="no"?>
<!DOCTYPE svg PUBLIC "-//W3C//DTD SVG 1.1//EN"
 "http://www.w3.org/Graphics/SVG/1.1/DTD/svg11.dtd">
<!-- Generated by graphviz version 2.36.0 (20140111.2315)
 -->
<!-- Title: /home/travis/build/STORM&#45;IRIT/Radium&#45;Engine/src/Core/File/GeometryData.hpp Pages: 1 -->
<svg width="2154pt" height="454pt"
 viewBox="0.00 0.00 2154.00 454.00" xmlns="http://www.w3.org/2000/svg" xmlns:xlink="http://www.w3.org/1999/xlink">
<g id="graph0" class="graph" transform="scale(1 1) rotate(0) translate(4 450)">
<title>/home/travis/build/STORM&#45;IRIT/Radium&#45;Engine/src/Core/File/GeometryData.hpp</title>
<polygon fill="white" stroke="none" points="-4,4 -4,-450 2150,-450 2150,4 -4,4"/>
<!-- Node1 -->
<g id="node1" class="node"><title>Node1</title>
<polygon fill="#bfbfbf" stroke="black" points="596.5,-404.5 596.5,-445.5 757.5,-445.5 757.5,-404.5 596.5,-404.5"/>
<text text-anchor="start" x="604.5" y="-433.5" font-family="Helvetica,sans-Serif" font-size="10.00">/home/travis/build</text>
<text text-anchor="start" x="604.5" y="-422.5" font-family="Helvetica,sans-Serif" font-size="10.00">/STORM&#45;IRIT/Radium&#45;Engine</text>
<text text-anchor="middle" x="677" y="-411.5" font-family="Helvetica,sans-Serif" font-size="10.00">/src/Core/File/GeometryData.hpp</text>
</g>
<!-- Node2 -->
<g id="node2" class="node"><title>Node2</title>
<polygon fill="white" stroke="#bfbfbf" points="0,-348.5 0,-367.5 52,-367.5 52,-348.5 0,-348.5"/>
<text text-anchor="middle" x="26" y="-355.5" font-family="Helvetica,sans-Serif" font-size="10.00">memory</text>
</g>
<!-- Node1&#45;&gt;Node2 -->
<g id="edge1" class="edge"><title>Node1&#45;&gt;Node2</title>
<path fill="none" stroke="midnightblue" d="M596.033,-419.935C478.649,-413.283 254.61,-397.733 66,-368 64.7344,-367.8 63.449,-367.585 62.1528,-367.355"/>
<polygon fill="midnightblue" stroke="midnightblue" points="62.6427,-363.885 52.1563,-365.397 61.2966,-370.754 62.6427,-363.885"/>
</g>
<!-- Node3 -->
<g id="node3" class="node"><title>Node3</title>
<polygon fill="white" stroke="#bfbfbf" points="279.5,-112.5 279.5,-131.5 320.5,-131.5 320.5,-112.5 279.5,-112.5"/>
<text text-anchor="middle" x="300" y="-119.5" font-family="Helvetica,sans-Serif" font-size="10.00">string</text>
</g>
<!-- Node1&#45;&gt;Node3 -->
<g id="edge2" class="edge"><title>Node1&#45;&gt;Node3</title>
<path fill="none" stroke="midnightblue" d="M596.486,-424.28C433.53,-422.668 80,-407.167 80,-303 80,-303 80,-303 80,-245 80,-159.509 208.627,-133.428 269.176,-125.886"/>
<polygon fill="midnightblue" stroke="midnightblue" points="269.769,-129.341 279.303,-124.719 268.968,-122.387 269.769,-129.341"/>
</g>
<!-- Node4 -->
<g id="node4" class="node"><title>Node4</title>
<polygon fill="white" stroke="#bfbfbf" points="1723,-112.5 1723,-131.5 1767,-131.5 1767,-112.5 1723,-112.5"/>
<text text-anchor="middle" x="1745" y="-119.5" font-family="Helvetica,sans-Serif" font-size="10.00">vector</text>
</g>
<!-- Node1&#45;&gt;Node4 -->
<g id="edge3" class="edge"><title>Node1&#45;&gt;Node4</title>
<path fill="none" stroke="midnightblue" d="M757.864,-424.755C1036.4,-426.304 1939,-422.13 1939,-303 1939,-303 1939,-303 1939,-245 1939,-209.751 1944.8,-193.046 1920,-168 1914.9,-162.85 1825.92,-141.674 1776.86,-130.302"/>
<polygon fill="midnightblue" stroke="midnightblue" points="1777.57,-126.874 1767.04,-128.033 1775.99,-133.695 1777.57,-126.874"/>
</g>
<!-- Node5 -->
<g id="node5" class="node"><title>Node5</title>
<g id="a_node5"><a xlink:href="VectorArray_8hpp.html" target="_top" xlink:title="Core/Containers/VectorArray.hpp">
<polygon fill="white" stroke="black" points="1664.5,-292.5 1664.5,-311.5 1825.5,-311.5 1825.5,-292.5 1664.5,-292.5"/>
<text text-anchor="middle" x="1745" y="-299.5" font-family="Helvetica,sans-Serif" font-size="10.00">Core/Containers/VectorArray.hpp</text>
</a>
</g>
</g>
<!-- Node1&#45;&gt;Node5 -->
<g id="edge4" class="edge"><title>Node1&#45;&gt;Node5</title>
<path fill="none" stroke="midnightblue" d="M757.711,-414.856C954.598,-392.549 1458.12,-335.502 1659.69,-312.665"/>
<polygon fill="midnightblue" stroke="midnightblue" points="1660.1,-316.142 1669.64,-311.538 1659.31,-309.186 1660.1,-316.142"/>
</g>
<!-- Node7 -->
<g id="node7" class="node"><title>Node7</title>
<g id="a_node7"><a xlink:href="RaCore_8hpp.html" target="_top" xlink:title="Core/RaCore.hpp">
<polygon fill="white" stroke="black" points="553.5,-112.5 553.5,-131.5 646.5,-131.5 646.5,-112.5 553.5,-112.5"/>
<text text-anchor="middle" x="600" y="-119.5" font-family="Helvetica,sans-Serif" font-size="10.00">Core/RaCore.hpp</text>
</a>
</g>
</g>
<!-- Node1&#45;&gt;Node7 -->
<g id="edge34" class="edge"><title>Node1&#45;&gt;Node7</title>
<path fill="none" stroke="midnightblue" d="M596.492,-417.003C475.807,-404.259 262,-371.951 262,-303 262,-303 262,-303 262,-245 262,-185.936 446.914,-147.501 543.199,-131.492"/>
<polygon fill="midnightblue" stroke="midnightblue" points="544.053,-134.899 553.357,-129.831 542.924,-127.99 544.053,-134.899"/>
</g>
<!-- Node26 -->
<g id="node26" class="node"><title>Node26</title>
<g id="a_node26"><a xlink:href="Index_8hpp.html" target="_top" xlink:title="Core/Index/Index.hpp">
<polygon fill="white" stroke="black" points="1967,-348.5 1967,-367.5 2077,-367.5 2077,-348.5 1967,-348.5"/>
<text text-anchor="middle" x="2022" y="-355.5" font-family="Helvetica,sans-Serif" font-size="10.00">Core/Index/Index.hpp</text>
</a>
</g>
</g>
<!-- Node1&#45;&gt;Node26 -->
<g id="edge31" class="edge"><title>Node1&#45;&gt;Node26</title>
<path fill="none" stroke="midnightblue" d="M757.773,-422.86C959.651,-419.488 1502.35,-407.206 1953,-368 1954.11,-367.903 1955.24,-367.802 1956.37,-367.696"/>
<polygon fill="midnightblue" stroke="midnightblue" points="1957.09,-371.14 1966.68,-366.64 1956.38,-364.176 1957.09,-371.14"/>
</g>
<!-- Node29 -->
<g id="node29" class="node"><title>Node29</title>
<g id="a_node29"><a xlink:href="AssetData_8hpp.html" target="_top" xlink:title="Core/File/AssetData.hpp">
<polygon fill="white" stroke="black" points="108.5,-236.5 108.5,-255.5 233.5,-255.5 233.5,-236.5 108.5,-236.5"/>
<text text-anchor="middle" x="171" y="-243.5" font-family="Helvetica,sans-Serif" font-size="10.00">Core/File/AssetData.hpp</text>
</a>
</g>
</g>
<!-- Node1&#45;&gt;Node29 -->
<g id="edge35" class="edge"><title>Node1&#45;&gt;Node29</title>
<path fill="none" stroke="midnightblue" d="M596.13,-421.512C488.207,-416.841 304.153,-403.75 248,-368 209.616,-343.563 186.796,-292.357 176.878,-265.052"/>
<polygon fill="midnightblue" stroke="midnightblue" points="180.174,-263.872 173.604,-255.56 173.556,-266.154 180.174,-263.872"/>
</g>
<!-- Node30 -->
<g id="node30" class="node"><title>Node30</title>
<g id="a_node30"><a xlink:href="MaterialData_8hpp.html" target="_top" xlink:title="Core/File/MaterialData.hpp">
<polygon fill="white" stroke="black" points="537,-348.5 537,-367.5 671,-367.5 671,-348.5 537,-348.5"/>
<text text-anchor="middle" x="604" y="-355.5" font-family="Helvetica,sans-Serif" font-size="10.00">Core/File/MaterialData.hpp</text>
</a>
</g>
</g>
<!-- Node1&#45;&gt;Node30 -->
<g id="edge38" class="edge"><title>Node1&#45;&gt;Node30</title>
<path fill="none" stroke="midnightblue" d="M655.098,-404.498C644.336,-394.915 631.547,-383.528 621.456,-374.543"/>
<polygon fill="midnightblue" stroke="midnightblue" points="623.513,-371.689 613.717,-367.652 618.858,-376.916 623.513,-371.689"/>
</g>
<!-- Node37 -->
<g id="node37" class="node"><title>Node37</title>
<g id="a_node37"><a xlink:href="GeometryData_8inl.html" target="_top" xlink:title="Core/File/GeometryData.inl">
<polygon fill="white" stroke="black" points="724,-292.5 724,-311.5 860,-311.5 860,-292.5 724,-292.5"/>
<text text-anchor="middle" x="792" y="-299.5" font-family="Helvetica,sans-Serif" font-size="10.00">Core/File/GeometryData.inl</text>
</a>
</g>
</g>
<!-- Node1&#45;&gt;Node37 -->
<g id="edge59" class="edge"><title>Node1&#45;&gt;Node37</title>
<path fill="none" stroke="midnightblue" d="M690.592,-404.29C711.08,-380.329 749.188,-340.389 772.568,-318.506"/>
<polygon fill="midnightblue" stroke="midnightblue" points="775.139,-320.899 780.171,-311.575 770.423,-315.726 775.139,-320.899"/>
</g>
<!-- Node5&#45;&gt;Node4 -->
<g id="edge30" class="edge"><title>Node5&#45;&gt;Node4</title>
<path fill="none" stroke="midnightblue" d="M1745,-292.415C1745,-265.227 1745,-180.563 1745,-142.217"/>
<polygon fill="midnightblue" stroke="midnightblue" points="1748.5,-141.918 1745,-131.918 1741.5,-141.919 1748.5,-141.918"/>
</g>
<!-- Node6 -->
<g id="node6" class="node"><title>Node6</title>
<g id="a_node6"><a xlink:href="AlignedStdVector_8hpp.html" target="_top" xlink:title="Core/Containers/AlignedStd\lVector.hpp">
<polygon fill="white" stroke="black" points="1773,-169 1773,-199 1911,-199 1911,-169 1773,-169"/>
<text text-anchor="start" x="1781" y="-187" font-family="Helvetica,sans-Serif" font-size="10.00">Core/Containers/AlignedStd</text>
<text text-anchor="middle" x="1842" y="-176" font-family="Helvetica,sans-Serif" font-size="10.00">Vector.hpp</text>
</a>
</g>
</g>
<!-- Node5&#45;&gt;Node6 -->
<g id="edge5" class="edge"><title>Node5&#45;&gt;Node6</title>
<path fill="none" stroke="midnightblue" d="M1752.29,-292.281C1767.32,-274.309 1802.14,-232.671 1823.71,-206.875"/>
<polygon fill="midnightblue" stroke="midnightblue" points="1826.47,-209.023 1830.2,-199.106 1821.1,-204.532 1826.47,-209.023"/>
</g>
<!-- Node5&#45;&gt;Node7 -->
<g id="edge29" class="edge"><title>Node5&#45;&gt;Node7</title>
<path fill="none" stroke="midnightblue" d="M1664.29,-299.429C1461.54,-294.4 935.945,-274.359 780,-200 761.269,-191.069 763.935,-178.437 746,-168 718.213,-151.83 684.009,-140.884 655.694,-133.84"/>
<polygon fill="midnightblue" stroke="midnightblue" points="656.484,-130.43 645.944,-131.509 654.856,-137.239 656.484,-130.43"/>
</g>
<!-- Node15 -->
<g id="node15" class="node"><title>Node15</title>
<g id="a_node15"><a xlink:href="LinearAlgebra_8hpp.html" target="_top" xlink:title="Core/Math/LinearAlgebra.hpp">
<polygon fill="white" stroke="black" points="1202.5,-236.5 1202.5,-255.5 1345.5,-255.5 1345.5,-236.5 1202.5,-236.5"/>
<text text-anchor="middle" x="1274" y="-243.5" font-family="Helvetica,sans-Serif" font-size="10.00">Core/Math/LinearAlgebra.hpp</text>
</a>
</g>
</g>
<!-- Node5&#45;&gt;Node15 -->
<g id="edge15" class="edge"><title>Node5&#45;&gt;Node15</title>
<path fill="none" stroke="midnightblue" d="M1670.63,-292.473C1584.89,-282.643 1444.4,-266.537 1355.69,-256.365"/>
<polygon fill="midnightblue" stroke="midnightblue" points="1356,-252.878 1345.67,-255.216 1355.2,-259.833 1356,-252.878"/>
</g>
<!-- Node6&#45;&gt;Node4 -->
<g id="edge14" class="edge"><title>Node6&#45;&gt;Node4</title>
<path fill="none" stroke="midnightblue" d="M1819.01,-168.781C1803.52,-159.196 1783.16,-146.606 1767.72,-137.056"/>
<polygon fill="midnightblue" stroke="midnightblue" points="1769.18,-133.84 1758.83,-131.556 1765.5,-139.793 1769.18,-133.84"/>
</g>
<!-- Node6&#45;&gt;Node7 -->
<g id="edge6" class="edge"><title>Node6&#45;&gt;Node7</title>
<path fill="none" stroke="midnightblue" d="M1772.81,-177.001C1736.06,-173.971 1690.1,-170.432 1649,-168 1256.03,-144.744 1157.21,-150.786 764,-132 728.43,-130.301 688.537,-128.117 657.002,-126.327"/>
<polygon fill="midnightblue" stroke="midnightblue" points="656.83,-122.812 646.647,-125.736 656.431,-129.8 656.83,-122.812"/>
</g>
<!-- Node14 -->
<g id="node14" class="node"><title>Node14</title>
<polygon fill="white" stroke="#bfbfbf" points="1798,-112.5 1798,-131.5 1886,-131.5 1886,-112.5 1798,-112.5"/>
<text text-anchor="middle" x="1842" y="-119.5" font-family="Helvetica,sans-Serif" font-size="10.00">Eigen/StdVector</text>
</g>
<!-- Node6&#45;&gt;Node14 -->
<g id="edge13" class="edge"><title>Node6&#45;&gt;Node14</title>
<path fill="none" stroke="midnightblue" d="M1842,-168.781C1842,-160.781 1842,-150.689 1842,-142.017"/>
<polygon fill="midnightblue" stroke="midnightblue" points="1845.5,-141.73 1842,-131.731 1838.5,-141.731 1845.5,-141.73"/>
</g>
<!-- Node8 -->
<g id="node8" class="node"><title>Node8</title>
<g id="a_node8"><a xlink:href="CoreMacros_8hpp.html" target="_top" xlink:title="Core/CoreMacros.hpp">
<polygon fill="white" stroke="black" points="515.5,-56.5 515.5,-75.5 628.5,-75.5 628.5,-56.5 515.5,-56.5"/>
<text text-anchor="middle" x="572" y="-63.5" font-family="Helvetica,sans-Serif" font-size="10.00">Core/CoreMacros.hpp</text>
</a>
</g>
</g>
<!-- Node7&#45;&gt;Node8 -->
<g id="edge7" class="edge"><title>Node7&#45;&gt;Node8</title>
<path fill="none" stroke="midnightblue" d="M595.376,-112.083C591.544,-104.691 585.976,-93.9533 581.235,-84.8111"/>
<polygon fill="midnightblue" stroke="midnightblue" points="584.248,-83.0175 576.538,-75.7511 578.034,-86.2398 584.248,-83.0175"/>
</g>
<!-- Node9 -->
<g id="node9" class="node"><title>Node9</title>
<polygon fill="white" stroke="#bfbfbf" points="665.5,-0.5 665.5,-19.5 714.5,-19.5 714.5,-0.5 665.5,-0.5"/>
<text text-anchor="middle" x="690" y="-7.5" font-family="Helvetica,sans-Serif" font-size="10.00">cassert</text>
</g>
<!-- Node8&#45;&gt;Node9 -->
<g id="edge8" class="edge"><title>Node8&#45;&gt;Node9</title>
<path fill="none" stroke="midnightblue" d="M590.697,-56.4435C609.944,-47.6356 640.152,-33.8116 662.2,-23.722"/>
<polygon fill="midnightblue" stroke="midnightblue" points="663.753,-26.8603 671.39,-19.5164 660.84,-20.4951 663.753,-26.8603"/>
</g>
<!-- Node10 -->
<g id="node10" class="node"><title>Node10</title>
<polygon fill="white" stroke="#bfbfbf" points="469.5,-0.5 469.5,-19.5 512.5,-19.5 512.5,-0.5 469.5,-0.5"/>
<text text-anchor="middle" x="491" y="-7.5" font-family="Helvetica,sans-Serif" font-size="10.00">cstdio</text>
</g>
<!-- Node8&#45;&gt;Node10 -->
<g id="edge9" class="edge"><title>Node8&#45;&gt;Node10</title>
<path fill="none" stroke="midnightblue" d="M558.986,-56.324C546.468,-47.979 527.318,-35.2122 512.529,-25.3524"/>
<polygon fill="midnightblue" stroke="midnightblue" points="514.244,-22.2894 503.982,-19.6545 510.361,-28.1137 514.244,-22.2894"/>
</g>
<!-- Node11 -->
<g id="node11" class="node"><title>Node11</title>
<polygon fill="white" stroke="#bfbfbf" points="531,-0.5 531,-19.5 585,-19.5 585,-0.5 531,-0.5"/>
<text text-anchor="middle" x="558" y="-7.5" font-family="Helvetica,sans-Serif" font-size="10.00">iostream</text>
</g>
<!-- Node8&#45;&gt;Node11 -->
<g id="edge10" class="edge"><title>Node8&#45;&gt;Node11</title>
<path fill="none" stroke="midnightblue" d="M569.688,-56.083C567.833,-48.9272 565.165,-38.6353 562.846,-29.6911"/>
<polygon fill="midnightblue" stroke="midnightblue" points="566.166,-28.5527 560.269,-19.7511 559.391,-30.3094 566.166,-28.5527"/>
</g>
<!-- Node12 -->
<g id="node12" class="node"><title>Node12</title>
<polygon fill="white" stroke="#bfbfbf" points="395,-0.5 395,-19.5 447,-19.5 447,-0.5 395,-0.5"/>
<text text-anchor="middle" x="421" y="-7.5" font-family="Helvetica,sans-Serif" font-size="10.00">sstream</text>
</g>
<!-- Node8&#45;&gt;Node12 -->
<g id="edge11" class="edge"><title>Node8&#45;&gt;Node12</title>
<path fill="none" stroke="midnightblue" d="M548.074,-56.4435C522.781,-47.3986 482.698,-33.064 454.32,-22.9158"/>
<polygon fill="midnightblue" stroke="midnightblue" points="455.409,-19.5882 444.814,-19.5164 453.052,-26.1794 455.409,-19.5882"/>
</g>
<!-- Node13 -->
<g id="node13" class="node"><title>Node13</title>
<polygon fill="white" stroke="#bfbfbf" points="603,-0.5 603,-19.5 647,-19.5 647,-0.5 603,-0.5"/>
<text text-anchor="middle" x="625" y="-7.5" font-family="Helvetica,sans-Serif" font-size="10.00">thread</text>
</g>
<!-- Node8&#45;&gt;Node13 -->
<g id="edge12" class="edge"><title>Node8&#45;&gt;Node13</title>
<path fill="none" stroke="midnightblue" d="M580.752,-56.083C588.47,-48.2195 599.905,-36.5688 609.217,-27.0813"/>
<polygon fill="midnightblue" stroke="midnightblue" points="611.904,-29.3396 616.411,-19.7511 606.908,-24.4363 611.904,-29.3396"/>
</g>
<!-- Node15&#45;&gt;Node7 -->
<g id="edge16" class="edge"><title>Node15&#45;&gt;Node7</title>
<path fill="none" stroke="midnightblue" d="M1202.17,-242.492C1092.85,-237.893 890.32,-226.081 823,-200 800.786,-191.394 801.529,-178.198 780,-168 740.884,-149.472 693.242,-137.996 656.799,-131.274"/>
<polygon fill="midnightblue" stroke="midnightblue" points="657.293,-127.807 646.834,-129.503 656.067,-134.699 657.293,-127.807"/>
</g>
<!-- Node16 -->
<g id="node16" class="node"><title>Node16</title>
<polygon fill="white" stroke="#bfbfbf" points="1300.5,-174.5 1300.5,-193.5 1365.5,-193.5 1365.5,-174.5 1300.5,-174.5"/>
<text text-anchor="middle" x="1333" y="-181.5" font-family="Helvetica,sans-Serif" font-size="10.00">Eigen/Core</text>
</g>
<!-- Node15&#45;&gt;Node16 -->
<g id="edge17" class="edge"><title>Node15&#45;&gt;Node16</title>
<path fill="none" stroke="midnightblue" d="M1282.45,-236.403C1291.57,-227.136 1306.27,-212.183 1317.48,-200.788"/>
<polygon fill="midnightblue" stroke="midnightblue" points="1320.05,-203.165 1324.56,-193.581 1315.06,-198.257 1320.05,-203.165"/>
</g>
<!-- Node17 -->
<g id="node17" class="node"><title>Node17</title>
<polygon fill="white" stroke="#bfbfbf" points="1383.5,-174.5 1383.5,-193.5 1470.5,-193.5 1470.5,-174.5 1383.5,-174.5"/>
<text text-anchor="middle" x="1427" y="-181.5" font-family="Helvetica,sans-Serif" font-size="10.00">Eigen/Geometry</text>
</g>
<!-- Node15&#45;&gt;Node17 -->
<g id="edge18" class="edge"><title>Node15&#45;&gt;Node17</title>
<path fill="none" stroke="midnightblue" d="M1295.92,-236.403C1322.05,-226.156 1365.91,-208.956 1395.63,-197.302"/>
<polygon fill="midnightblue" stroke="midnightblue" points="1397.09,-200.49 1405.12,-193.581 1394.53,-193.973 1397.09,-200.49"/>
</g>
<!-- Node18 -->
<g id="node18" class="node"><title>Node18</title>
<polygon fill="white" stroke="#bfbfbf" points="1488.5,-174.5 1488.5,-193.5 1563.5,-193.5 1563.5,-174.5 1488.5,-174.5"/>
<text text-anchor="middle" x="1526" y="-181.5" font-family="Helvetica,sans-Serif" font-size="10.00">Eigen/Sparse</text>
</g>
<!-- Node15&#45;&gt;Node18 -->
<g id="edge19" class="edge"><title>Node15&#45;&gt;Node18</title>
<path fill="none" stroke="midnightblue" d="M1318.68,-236.438C1360.4,-228.148 1424.28,-214.704 1479,-200 1482.89,-198.955 1486.94,-197.787 1490.95,-196.578"/>
<polygon fill="midnightblue" stroke="midnightblue" points="1492.25,-199.84 1500.76,-193.53 1490.17,-193.155 1492.25,-199.84"/>
</g>
<!-- Node19 -->
<g id="node19" class="node"><title>Node19</title>
<polygon fill="white" stroke="#bfbfbf" points="1581.5,-174.5 1581.5,-193.5 1640.5,-193.5 1640.5,-174.5 1581.5,-174.5"/>
<text text-anchor="middle" x="1611" y="-181.5" font-family="Helvetica,sans-Serif" font-size="10.00">functional</text>
</g>
<!-- Node15&#45;&gt;Node19 -->
<g id="edge20" class="edge"><title>Node15&#45;&gt;Node19</title>
<path fill="none" stroke="midnightblue" d="M1345.63,-238.596C1406.56,-232.106 1496,-220.098 1572,-200 1575.16,-199.165 1578.41,-198.161 1581.62,-197.072"/>
<polygon fill="midnightblue" stroke="midnightblue" points="1582.84,-200.353 1591.03,-193.636 1580.44,-193.778 1582.84,-200.353"/>
</g>
<!-- Node20 -->
<g id="node20" class="node"><title>Node20</title>
<polygon fill="white" stroke="#bfbfbf" points="994.5,-169 994.5,-199 1127.5,-199 1127.5,-169 994.5,-169"/>
<text text-anchor="start" x="1002.5" y="-187" font-family="Helvetica,sans-Serif" font-size="10.00">unsupported/Eigen/Aligned</text>
<text text-anchor="middle" x="1061" y="-176" font-family="Helvetica,sans-Serif" font-size="10.00">Vector3</text>
</g>
<!-- Node15&#45;&gt;Node20 -->
<g id="edge21" class="edge"><title>Node15&#45;&gt;Node20</title>
<path fill="none" stroke="midnightblue" d="M1243.48,-236.403C1211.5,-227.393 1160.43,-213.007 1120.44,-201.743"/>
<polygon fill="midnightblue" stroke="midnightblue" points="1121.36,-198.368 1110.79,-199.025 1119.47,-205.106 1121.36,-198.368"/>
</g>
<!-- Node21 -->
<g id="node21" class="node"><title>Node21</title>
<g id="a_node21"><a xlink:href="Math_8hpp.html" target="_top" xlink:title="Core/Math/Math.hpp">
<polygon fill="white" stroke="black" points="832,-174.5 832,-193.5 938,-193.5 938,-174.5 832,-174.5"/>
<text text-anchor="middle" x="885" y="-181.5" font-family="Helvetica,sans-Serif" font-size="10.00">Core/Math/Math.hpp</text>
</a>
</g>
</g>
<!-- Node15&#45;&gt;Node21 -->
<g id="edge22" class="edge"><title>Node15&#45;&gt;Node21</title>
<path fill="none" stroke="midnightblue" d="M1218.68,-236.467C1147.36,-225.467 1023.61,-206.38 948.52,-194.797"/>
<polygon fill="midnightblue" stroke="midnightblue" points="948.674,-191.28 938.257,-193.214 947.607,-198.198 948.674,-191.28"/>
</g>
<!-- Node25 -->
<g id="node25" class="node"><title>Node25</title>
<g id="a_node25"><a xlink:href="LinearAlgebra_8inl.html" target="_top" xlink:title="Core/Math/LinearAlgebra.inl">
<polygon fill="white" stroke="black" points="1145.5,-174.5 1145.5,-193.5 1282.5,-193.5 1282.5,-174.5 1145.5,-174.5"/>
<text text-anchor="middle" x="1214" y="-181.5" font-family="Helvetica,sans-Serif" font-size="10.00">Core/Math/LinearAlgebra.inl</text>
</a>
</g>
</g>
<!-- Node15&#45;&gt;Node25 -->
<g id="edge28" class="edge"><title>Node15&#45;&gt;Node25</title>
<path fill="none" stroke="midnightblue" d="M1265.4,-236.403C1256.14,-227.136 1241.18,-212.183 1229.79,-200.788"/>
<polygon fill="midnightblue" stroke="midnightblue" points="1232.13,-198.177 1222.58,-193.581 1227.18,-203.127 1232.13,-198.177"/>
</g>
<!-- Node21&#45;&gt;Node7 -->
<g id="edge23" class="edge"><title>Node21&#45;&gt;Node7</title>
<path fill="none" stroke="midnightblue" d="M847.462,-174.48C837.864,-172.334 827.556,-170.056 818,-168 761.393,-155.822 696.373,-142.484 652.178,-133.516"/>
<polygon fill="midnightblue" stroke="midnightblue" points="652.739,-130.059 642.243,-131.503 651.349,-136.919 652.739,-130.059"/>
</g>
<!-- Node22 -->
<g id="node22" class="node"><title>Node22</title>
<polygon fill="white" stroke="#bfbfbf" points="953,-112.5 953,-131.5 1009,-131.5 1009,-112.5 953,-112.5"/>
<text text-anchor="middle" x="981" y="-119.5" font-family="Helvetica,sans-Serif" font-size="10.00">algorithm</text>
</g>
<!-- Node21&#45;&gt;Node22 -->
<g id="edge24" class="edge"><title>Node21&#45;&gt;Node22</title>
<path fill="none" stroke="midnightblue" d="M898.754,-174.403C914.366,-164.646 940.063,-148.585 958.583,-137.011"/>
<polygon fill="midnightblue" stroke="midnightblue" points="960.646,-139.849 967.271,-131.581 956.936,-133.913 960.646,-139.849"/>
</g>
<!-- Node23 -->
<g id="node23" class="node"><title>Node23</title>
<polygon fill="white" stroke="#bfbfbf" points="773,-112.5 773,-131.5 817,-131.5 817,-112.5 773,-112.5"/>
<text text-anchor="middle" x="795" y="-119.5" font-family="Helvetica,sans-Serif" font-size="10.00">cmath</text>
</g>
<!-- Node21&#45;&gt;Node23 -->
<g id="edge25" class="edge"><title>Node21&#45;&gt;Node23</title>
<path fill="none" stroke="midnightblue" d="M872.105,-174.403C857.536,-164.691 833.598,-148.732 816.255,-137.17"/>
<polygon fill="midnightblue" stroke="midnightblue" points="818.133,-134.215 807.871,-131.581 814.25,-140.04 818.133,-134.215"/>
</g>
<!-- Node24 -->
<g id="node24" class="node"><title>Node24</title>
<g id="a_node24"><a xlink:href="Math_8inl.html" target="_top" xlink:title="Core/Math/Math.inl">
<polygon fill="white" stroke="black" points="835,-112.5 835,-131.5 935,-131.5 935,-112.5 835,-112.5"/>
<text text-anchor="middle" x="885" y="-119.5" font-family="Helvetica,sans-Serif" font-size="10.00">Core/Math/Math.inl</text>
</a>
</g>
</g>
<!-- Node21&#45;&gt;Node24 -->
<g id="edge26" class="edge"><title>Node21&#45;&gt;Node24</title>
<path fill="none" stroke="midnightblue" d="M880.099,-174.403C878.268,-165.938 877.797,-152.728 878.685,-141.82"/>
<polygon fill="midnightblue" stroke="midnightblue" points="882.198,-141.966 880.103,-131.581 875.264,-141.006 882.198,-141.966"/>
</g>
<!-- Node24&#45;&gt;Node21 -->
<g id="edge27" class="edge"><title>Node24&#45;&gt;Node21</title>
<path fill="none" stroke="midnightblue" d="M889.897,-131.581C891.73,-140.04 892.203,-153.248 891.317,-164.16"/>
<polygon fill="midnightblue" stroke="midnightblue" points="887.803,-164.018 889.901,-174.403 894.737,-164.977 887.803,-164.018"/>
</g>
<!-- Node27 -->
<g id="node27" class="node"><title>Node27</title>
<polygon fill="white" stroke="#bfbfbf" points="1984,-292.5 1984,-311.5 2024,-311.5 2024,-292.5 1984,-292.5"/>
<text text-anchor="middle" x="2004" y="-299.5" font-family="Helvetica,sans-Serif" font-size="10.00">limits</text>
</g>
<!-- Node26&#45;&gt;Node27 -->
<g id="edge32" class="edge"><title>Node26&#45;&gt;Node27</title>
<path fill="none" stroke="midnightblue" d="M2019.03,-348.083C2016.62,-340.849 2013.14,-330.409 2010.13,-321.397"/>
<polygon fill="midnightblue" stroke="midnightblue" points="2013.4,-320.131 2006.92,-311.751 2006.76,-322.345 2013.4,-320.131"/>
</g>
<!-- Node28 -->
<g id="node28" class="node"><title>Node28</title>
<g id="a_node28"><a xlink:href="Index_8inl.html" target="_top" xlink:title="Core/Index/Index.inl">
<polygon fill="white" stroke="black" points="2042,-292.5 2042,-311.5 2146,-311.5 2146,-292.5 2042,-292.5"/>
<text text-anchor="middle" x="2094" y="-299.5" font-family="Helvetica,sans-Serif" font-size="10.00">Core/Index/Index.inl</text>
</a>
</g>
</g>
<!-- Node26&#45;&gt;Node28 -->
<g id="edge33" class="edge"><title>Node26&#45;&gt;Node28</title>
<path fill="none" stroke="midnightblue" d="M2033.57,-348.324C2044.42,-340.185 2060.88,-327.839 2073.88,-318.087"/>
<polygon fill="midnightblue" stroke="midnightblue" points="2076.32,-320.634 2082.22,-311.834 2072.12,-315.034 2076.32,-320.634"/>
</g>
<!-- Node29&#45;&gt;Node3 -->
<g id="edge37" class="edge"><title>Node29&#45;&gt;Node3</title>
<path fill="none" stroke="midnightblue" d="M172.485,-236.241C175.55,-220.644 183.949,-187.839 203,-168 221.012,-149.244 248.355,-137.54 269.424,-130.787"/>
<polygon fill="midnightblue" stroke="midnightblue" points="270.62,-134.083 279.195,-127.86 268.611,-127.377 270.62,-134.083"/>
</g>
<!-- Node29&#45;&gt;Node7 -->
<g id="edge36" class="edge"><title>Node29&#45;&gt;Node7</title>
<path fill="none" stroke="midnightblue" d="M176.568,-236.482C187.833,-220.047 215.076,-184.16 248,-168 298.688,-143.122 457.25,-130.799 543.222,-125.807"/>
<polygon fill="midnightblue" stroke="midnightblue" points="543.548,-129.294 553.334,-125.234 543.152,-122.306 543.548,-129.294"/>
</g>
<!-- Node30&#45;&gt;Node3 -->
<g id="edge39" class="edge"><title>Node30&#45;&gt;Node3</title>
<path fill="none" stroke="midnightblue" d="M573.74,-348.359C549.182,-340.675 514.139,-328.16 486,-312 417.201,-272.491 399.331,-259.631 347,-200 330.917,-181.673 317.013,-157.159 308.586,-140.761"/>
<polygon fill="midnightblue" stroke="midnightblue" points="311.674,-139.112 304.076,-131.728 305.411,-142.238 311.674,-139.112"/>
</g>
<!-- Node30&#45;&gt;Node4 -->
<g id="edge40" class="edge"><title>Node30&#45;&gt;Node4</title>
<path fill="none" stroke="midnightblue" d="M671.142,-354.697C822.247,-348.387 1199.84,-326.305 1507,-256 1580.03,-239.284 1602.35,-239.518 1666,-200 1692.47,-183.569 1717.19,-156.935 1731.7,-139.695"/>
<polygon fill="midnightblue" stroke="midnightblue" points="1734.68,-141.589 1738.32,-131.64 1729.27,-137.147 1734.68,-141.589"/>
</g>
<!-- Node30&#45;&gt;Node5 -->
<g id="edge41" class="edge"><title>Node30&#45;&gt;Node5</title>
<path fill="none" stroke="midnightblue" d="M671.066,-355.312C837.132,-350.87 1280.75,-337.416 1650,-312 1651.47,-311.899 1652.96,-311.794 1654.45,-311.685"/>
<polygon fill="midnightblue" stroke="midnightblue" points="1654.73,-315.174 1664.43,-310.922 1654.19,-308.195 1654.73,-315.174"/>
</g>
<!-- Node30&#45;&gt;Node7 -->
<g id="edge43" class="edge"><title>Node30&#45;&gt;Node7</title>
<path fill="none" stroke="midnightblue" d="M584.742,-348.403C529.203,-322.45 376.214,-242.112 433,-168 446.526,-150.347 500.31,-138.057 543.236,-130.834"/>
<polygon fill="midnightblue" stroke="midnightblue" points="544.015,-134.253 553.324,-129.194 542.892,-127.344 544.015,-134.253"/>
</g>
<!-- Node30&#45;&gt;Node15 -->
<g id="edge42" class="edge"><title>Node30&#45;&gt;Node15</title>
<path fill="none" stroke="midnightblue" d="M618.135,-348.244C645.647,-331.272 704.616,-295.27 715,-292 801.663,-264.713 1059.08,-253.295 1192.21,-249.111"/>
<polygon fill="midnightblue" stroke="midnightblue" points="1192.47,-252.605 1202.36,-248.798 1192.26,-245.608 1192.47,-252.605"/>
</g>
<!-- Node30&#45;&gt;Node29 -->
<g id="edge44" class="edge"><title>Node30&#45;&gt;Node29</title>
<path fill="none" stroke="midnightblue" d="M536.811,-350.825C479.458,-344.462 395.202,-332.516 324,-312 277.657,-298.647 226.622,-275.03 196.768,-260.238"/>
<polygon fill="midnightblue" stroke="midnightblue" points="198.001,-256.941 187.493,-255.588 194.863,-263.199 198.001,-256.941"/>
</g>
<!-- Node31 -->
<g id="node31" class="node"><title>Node31</title>
<g id="a_node31"><a xlink:href="MaterialData_8inl.html" target="_top" xlink:title="Core/File/MaterialData.inl">
<polygon fill="white" stroke="black" points="540,-292.5 540,-311.5 668,-311.5 668,-292.5 540,-292.5"/>
<text text-anchor="middle" x="604" y="-299.5" font-family="Helvetica,sans-Serif" font-size="10.00">Core/File/MaterialData.inl</text>
</a>
</g>
</g>
<!-- Node30&#45;&gt;Node31 -->
<g id="edge45" class="edge"><title>Node30&#45;&gt;Node31</title>
<path fill="none" stroke="midnightblue" d="M598.834,-348.083C597.324,-340.927 596.894,-330.635 597.542,-321.691"/>
<polygon fill="midnightblue" stroke="midnightblue" points="601.015,-322.126 598.869,-311.751 594.077,-321.2 601.015,-322.126"/>
</g>
<!-- Node31&#45;&gt;Node22 -->
<g id="edge57" class="edge"><title>Node31&#45;&gt;Node22</title>
<path fill="none" stroke="midnightblue" d="M617.128,-292.299C639.098,-278.166 685.132,-250.36 728,-236 821.115,-204.808 868.057,-259.736 946,-200 964.531,-185.797 973.545,-159.534 977.715,-141.67"/>
<polygon fill="midnightblue" stroke="midnightblue" points="981.156,-142.314 979.727,-131.816 974.297,-140.913 981.156,-142.314"/>
</g>
<!-- Node31&#45;&gt;Node30 -->
<g id="edge46" class="edge"><title>Node31&#45;&gt;Node30</title>
<path fill="none" stroke="midnightblue" d="M609.131,-311.751C610.657,-318.858 611.104,-329.136 610.472,-338.101"/>
<polygon fill="midnightblue" stroke="midnightblue" points="606.993,-337.713 609.166,-348.083 613.934,-338.622 606.993,-337.713"/>
</g>
<!-- Node32 -->
<g id="node32" class="node"><title>Node32</title>
<g id="a_node32"><a xlink:href="Log_8hpp.html" target="_top" xlink:title="Core/Log/Log.hpp">
<polygon fill="white" stroke="black" points="557,-236.5 557,-255.5 651,-255.5 651,-236.5 557,-236.5"/>
<text text-anchor="middle" x="604" y="-243.5" font-family="Helvetica,sans-Serif" font-size="10.00">Core/Log/Log.hpp</text>
</a>
</g>
</g>
<!-- Node31&#45;&gt;Node32 -->
<g id="edge47" class="edge"><title>Node31&#45;&gt;Node32</title>
<path fill="none" stroke="midnightblue" d="M604,-292.083C604,-285.006 604,-274.861 604,-265.986"/>
<polygon fill="midnightblue" stroke="midnightblue" points="607.5,-265.751 604,-255.751 600.5,-265.751 607.5,-265.751"/>
</g>
<!-- Node36 -->
<g id="node36" class="node"><title>Node36</title>
<polygon fill="white" stroke="#bfbfbf" points="737.5,-236.5 737.5,-255.5 784.5,-255.5 784.5,-236.5 737.5,-236.5"/>
<text text-anchor="middle" x="761" y="-243.5" font-family="Helvetica,sans-Serif" font-size="10.00">iterator</text>
</g>
<!-- Node31&#45;&gt;Node36 -->
<g id="edge58" class="edge"><title>Node31&#45;&gt;Node36</title>
<path fill="none" stroke="midnightblue" d="M628.877,-292.444C655.6,-283.252 698.204,-268.599 727.779,-258.426"/>
<polygon fill="midnightblue" stroke="midnightblue" points="728.949,-261.725 737.267,-255.163 726.672,-255.106 728.949,-261.725"/>
</g>
<!-- Node32&#45;&gt;Node3 -->
<g id="edge51" class="edge"><title>Node32&#45;&gt;Node3</title>
<path fill="none" stroke="midnightblue" d="M556.755,-240.511C514.155,-235.107 450.613,-223.62 400,-200 366.791,-184.502 334.292,-156.389 315.749,-138.759"/>
<polygon fill="midnightblue" stroke="midnightblue" points="318.089,-136.152 308.477,-131.695 313.212,-141.173 318.089,-136.152"/>
</g>
<!-- Node32&#45;&gt;Node7 -->
<g id="edge48" class="edge"><title>Node32&#45;&gt;Node7</title>
<path fill="none" stroke="midnightblue" d="M603.712,-236.226C603.067,-216.53 601.49,-168.437 600.613,-141.7"/>
<polygon fill="midnightblue" stroke="midnightblue" points="604.111,-141.574 600.285,-131.694 597.115,-141.804 604.111,-141.574"/>
</g>
<!-- Node32&#45;&gt;Node12 -->
<g id="edge49" class="edge"><title>Node32&#45;&gt;Node12</title>
<path fill="none" stroke="midnightblue" d="M556.898,-238.828C511.893,-231.882 448.652,-219.024 433,-200 392.299,-150.529 406.603,-66.8785 415.759,-29.735"/>
<polygon fill="midnightblue" stroke="midnightblue" points="419.216,-30.3511 418.369,-19.7901 412.445,-28.5741 419.216,-30.3511"/>
</g>
<!-- Node33 -->
<g id="node33" class="node"><title>Node33</title>
<polygon fill="white" stroke="#bfbfbf" points="632,-174.5 632,-193.5 678,-193.5 678,-174.5 632,-174.5"/>
<text text-anchor="middle" x="655" y="-181.5" font-family="Helvetica,sans-Serif" font-size="10.00">stdio.h</text>
</g>
<!-- Node32&#45;&gt;Node33 -->
<g id="edge50" class="edge"><title>Node32&#45;&gt;Node33</title>
<path fill="none" stroke="midnightblue" d="M611.307,-236.403C619.033,-227.314 631.408,-212.756 641.018,-201.449"/>
<polygon fill="midnightblue" stroke="midnightblue" points="643.897,-203.467 647.706,-193.581 638.563,-198.933 643.897,-203.467"/>
</g>
<!-- Node34 -->
<g id="node34" class="node"><title>Node34</title>
<g id="a_node34"><a xlink:href="StringUtils_8hpp.html" target="_top" xlink:title="Core/String/StringUtils.hpp">
<polygon fill="white" stroke="black" points="442,-174.5 442,-193.5 576,-193.5 576,-174.5 442,-174.5"/>
<text text-anchor="middle" x="509" y="-181.5" font-family="Helvetica,sans-Serif" font-size="10.00">Core/String/StringUtils.hpp</text>
</a>
</g>
</g>
<!-- Node32&#45;&gt;Node34 -->
<g id="edge52" class="edge"><title>Node32&#45;&gt;Node34</title>
<path fill="none" stroke="midnightblue" d="M590.389,-236.403C574.939,-226.646 549.51,-210.585 531.184,-199.011"/>
<polygon fill="midnightblue" stroke="midnightblue" points="532.91,-195.961 522.586,-193.581 529.172,-201.88 532.91,-195.961"/>
</g>
<!-- Node35 -->
<g id="node35" class="node"><title>Node35</title>
<polygon fill="white" stroke="#bfbfbf" points="696.5,-174.5 696.5,-193.5 737.5,-193.5 737.5,-174.5 696.5,-174.5"/>
<text text-anchor="middle" x="717" y="-181.5" font-family="Helvetica,sans-Serif" font-size="10.00">ctime</text>
</g>
<!-- Node32&#45;&gt;Node35 -->
<g id="edge56" class="edge"><title>Node32&#45;&gt;Node35</title>
<path fill="none" stroke="midnightblue" d="M620.19,-236.403C638.902,-226.468 669.923,-209.997 691.799,-198.381"/>
<polygon fill="midnightblue" stroke="midnightblue" points="693.649,-201.362 700.84,-193.581 690.366,-195.179 693.649,-201.362"/>
</g>
<!-- Node34&#45;&gt;Node3 -->
<g id="edge54" class="edge"><title>Node34&#45;&gt;Node3</title>
<path fill="none" stroke="midnightblue" d="M479.055,-174.403C439.495,-163.046 370.19,-143.15 330.402,-131.728"/>
<polygon fill="midnightblue" stroke="midnightblue" points="331.299,-128.344 320.721,-128.949 329.367,-135.072 331.299,-128.344"/>
</g>
<!-- Node34&#45;&gt;Node4 -->
<g id="edge55" class="edge"><title>Node34&#45;&gt;Node4</title>
<path fill="none" stroke="midnightblue" d="M566.008,-174.467C584.184,-172.023 604.403,-169.593 623,-168 1053.24,-131.144 1578.93,-124.378 1712.8,-123.223"/>
<polygon fill="midnightblue" stroke="midnightblue" points="1712.84,-126.723 1722.81,-123.142 1712.78,-119.724 1712.84,-126.723"/>
</g>
<!-- Node34&#45;&gt;Node7 -->
<g id="edge53" class="edge"><title>Node34&#45;&gt;Node7</title>
<path fill="none" stroke="midnightblue" d="M522.038,-174.403C536.769,-164.691 560.973,-148.732 578.509,-137.17"/>
<polygon fill="midnightblue" stroke="midnightblue" points="580.564,-140.007 586.986,-131.581 576.711,-134.163 580.564,-140.007"/>
</g>
<!-- Node37&#45;&gt;Node1 -->
<g id="edge60" class="edge"><title>Node37&#45;&gt;Node1</title>
<path fill="none" stroke="midnightblue" d="M787.53,-311.575C774.041,-329.176 735.9,-370.018 708.064,-397.321"/>
<polygon fill="midnightblue" stroke="midnightblue" points="705.618,-394.817 700.873,-404.29 710.49,-399.844 705.618,-394.817"/>
</g>
<!-- Node37&#45;&gt;Node22 -->
<g id="edge62" class="edge"><title>Node37&#45;&gt;Node22</title>
<path fill="none" stroke="midnightblue" d="M860.208,-298.257C1054.29,-289.735 1598.84,-260.58 1649,-200 1658.07,-189.046 1658.71,-178.389 1649,-168 1605.91,-121.912 1155.41,-121.632 1019.56,-122.609"/>
<polygon fill="midnightblue" stroke="midnightblue" points="1019.2,-119.112 1009.23,-122.691 1019.26,-126.112 1019.2,-119.112"/>
</g>
<!-- Node37&#45;&gt;Node32 -->
<g id="edge61" class="edge"><title>Node37&#45;&gt;Node32</title>
<path fill="none" stroke="midnightblue" d="M762.211,-292.444C730.171,-283.241 679.067,-268.562 643.647,-258.388"/>
<polygon fill="midnightblue" stroke="midnightblue" points="644.227,-254.913 633.65,-255.516 642.295,-261.641 644.227,-254.913"/>
</g>
<!-- Node37&#45;&gt;Node36 -->
<g id="edge63" class="edge"><title>Node37&#45;&gt;Node36</title>
<path fill="none" stroke="midnightblue" d="M786.881,-292.083C782.592,-284.613 776.342,-273.724 771.058,-264.52"/>
<polygon fill="midnightblue" stroke="midnightblue" points="774.038,-262.681 766.024,-255.751 767.967,-266.166 774.038,-262.681"/>
</g>
</g>
</svg>
