<?xml version="1.0" encoding="UTF-8" standalone="no"?>
<!DOCTYPE svg PUBLIC "-//W3C//DTD SVG 1.1//EN"
 "http://www.w3.org/Graphics/SVG/1.1/DTD/svg11.dtd">
<!-- Generated by graphviz version 2.36.0 (20140111.2315)
 -->
<!-- Title: /home/travis/build/STORM&#45;IRIT/Radium&#45;Engine/src/Core/Math/GlmAdapters.hpp Pages: 1 -->
<svg width="797pt" height="342pt"
 viewBox="0.00 0.00 797.02 342.00" xmlns="http://www.w3.org/2000/svg" xmlns:xlink="http://www.w3.org/1999/xlink">
<g id="graph0" class="graph" transform="scale(1 1) rotate(0) translate(4 338)">
<title>/home/travis/build/STORM&#45;IRIT/Radium&#45;Engine/src/Core/Math/GlmAdapters.hpp</title>
<polygon fill="white" stroke="none" points="-4,4 -4,-338 793.017,-338 793.017,4 -4,4"/>
<!-- Node1 -->
<g id="node1" class="node"><title>Node1</title>
<polygon fill="#bfbfbf" stroke="black" points="143.517,-292.5 143.517,-333.5 304.517,-333.5 304.517,-292.5 143.517,-292.5"/>
<text text-anchor="start" x="151.517" y="-321.5" font-family="Helvetica,sans-Serif" font-size="10.00">/home/travis/build</text>
<text text-anchor="start" x="151.517" y="-310.5" font-family="Helvetica,sans-Serif" font-size="10.00">/STORM&#45;IRIT/Radium&#45;Engine</text>
<text text-anchor="middle" x="224.017" y="-299.5" font-family="Helvetica,sans-Serif" font-size="10.00">/src/Core/Math/GlmAdapters.hpp</text>
</g>
<!-- Node2 -->
<g id="node2" class="node"><title>Node2</title>
<polygon fill="white" stroke="#bfbfbf" points="127.017,-236.5 127.017,-255.5 197.017,-255.5 197.017,-236.5 127.017,-236.5"/>
<text text-anchor="middle" x="162.017" y="-243.5" font-family="Helvetica,sans-Serif" font-size="10.00">glm/glm.hpp</text>
</g>
<!-- Node1&#45;&gt;Node2 -->
<g id="edge1" class="edge"><title>Node1&#45;&gt;Node2</title>
<path fill="none" stroke="midnightblue" d="M205.415,-292.498C196.458,-283.107 185.847,-271.983 177.36,-263.085"/>
<polygon fill="midnightblue" stroke="midnightblue" points="179.705,-260.473 170.27,-255.652 174.64,-265.304 179.705,-260.473"/>
</g>
<!-- Node3 -->
<g id="node3" class="node"><title>Node3</title>
<g id="a_node3"><a xlink:href="LinearAlgebra_8hpp.html" target="_top" xlink:title="Core/Math/LinearAlgebra.hpp">
<polygon fill="white" stroke="black" points="215.517,-236.5 215.517,-255.5 358.517,-255.5 358.517,-236.5 215.517,-236.5"/>
<text text-anchor="middle" x="287.017" y="-243.5" font-family="Helvetica,sans-Serif" font-size="10.00">Core/Math/LinearAlgebra.hpp</text>
</a>
</g>
</g>
<!-- Node1&#45;&gt;Node3 -->
<g id="edge2" class="edge"><title>Node1&#45;&gt;Node3</title>
<path fill="none" stroke="midnightblue" d="M242.919,-292.498C252.021,-283.107 262.803,-271.983 271.427,-263.085"/>
<polygon fill="midnightblue" stroke="midnightblue" points="274.184,-265.269 278.631,-255.652 269.158,-260.397 274.184,-265.269"/>
</g>
<!-- Node4 -->
<g id="node4" class="node"><title>Node4</title>
<g id="a_node4"><a xlink:href="RaCore_8hpp.html" target="_top" xlink:title="Core/RaCore.hpp">
<polygon fill="white" stroke="black" points="136.517,-112.5 136.517,-131.5 229.517,-131.5 229.517,-112.5 136.517,-112.5"/>
<text text-anchor="middle" x="183.017" y="-119.5" font-family="Helvetica,sans-Serif" font-size="10.00">Core/RaCore.hpp</text>
</a>
</g>
</g>
<!-- Node3&#45;&gt;Node4 -->
<g id="edge3" class="edge"><title>Node3&#45;&gt;Node4</title>
<path fill="none" stroke="midnightblue" d="M220.806,-236.462C140.778,-225.823 15.8799,-208.063 9.01713,-200 -27.6675,-156.9 62.6912,-137.001 126.472,-128.553"/>
<polygon fill="midnightblue" stroke="midnightblue" points="126.973,-132.018 136.457,-127.294 126.097,-125.073 126.973,-132.018"/>
</g>
<!-- Node11 -->
<g id="node11" class="node"><title>Node11</title>
<polygon fill="white" stroke="#bfbfbf" points="18.5171,-174.5 18.5171,-193.5 83.5171,-193.5 83.5171,-174.5 18.5171,-174.5"/>
<text text-anchor="middle" x="51.0171" y="-181.5" font-family="Helvetica,sans-Serif" font-size="10.00">Eigen/Core</text>
</g>
<!-- Node3&#45;&gt;Node11 -->
<g id="edge10" class="edge"><title>Node3&#45;&gt;Node11</title>
<path fill="none" stroke="midnightblue" d="M242.855,-236.439C203.065,-228.341 143.141,-215.187 92.0171,-200 88.8929,-199.072 85.6615,-198.032 82.447,-196.945"/>
<polygon fill="midnightblue" stroke="midnightblue" points="83.5733,-193.631 72.9785,-193.603 81.2436,-200.232 83.5733,-193.631"/>
</g>
<!-- Node12 -->
<g id="node12" class="node"><title>Node12</title>
<polygon fill="white" stroke="#bfbfbf" points="101.517,-174.5 101.517,-193.5 188.517,-193.5 188.517,-174.5 101.517,-174.5"/>
<text text-anchor="middle" x="145.017" y="-181.5" font-family="Helvetica,sans-Serif" font-size="10.00">Eigen/Geometry</text>
</g>
<!-- Node3&#45;&gt;Node12 -->
<g id="edge11" class="edge"><title>Node3&#45;&gt;Node12</title>
<path fill="none" stroke="midnightblue" d="M266.672,-236.403C242.63,-226.245 202.42,-209.255 174.855,-197.607"/>
<polygon fill="midnightblue" stroke="midnightblue" points="175.898,-194.249 165.325,-193.581 173.174,-200.697 175.898,-194.249"/>
</g>
<!-- Node13 -->
<g id="node13" class="node"><title>Node13</title>
<polygon fill="white" stroke="#bfbfbf" points="206.517,-174.5 206.517,-193.5 281.517,-193.5 281.517,-174.5 206.517,-174.5"/>
<text text-anchor="middle" x="244.017" y="-181.5" font-family="Helvetica,sans-Serif" font-size="10.00">Eigen/Sparse</text>
</g>
<!-- Node3&#45;&gt;Node13 -->
<g id="edge12" class="edge"><title>Node3&#45;&gt;Node13</title>
<path fill="none" stroke="midnightblue" d="M280.856,-236.403C274.406,-227.403 264.113,-213.041 256.044,-201.782"/>
<polygon fill="midnightblue" stroke="midnightblue" points="258.837,-199.67 250.167,-193.581 253.147,-203.748 258.837,-199.67"/>
</g>
<!-- Node14 -->
<g id="node14" class="node"><title>Node14</title>
<polygon fill="white" stroke="#bfbfbf" points="299.517,-174.5 299.517,-193.5 358.517,-193.5 358.517,-174.5 299.517,-174.5"/>
<text text-anchor="middle" x="329.017" y="-181.5" font-family="Helvetica,sans-Serif" font-size="10.00">functional</text>
</g>
<!-- Node3&#45;&gt;Node14 -->
<g id="edge13" class="edge"><title>Node3&#45;&gt;Node14</title>
<path fill="none" stroke="midnightblue" d="M293.035,-236.403C299.335,-227.403 309.389,-213.041 317.269,-201.782"/>
<polygon fill="midnightblue" stroke="midnightblue" points="320.143,-203.78 323.011,-193.581 314.409,-199.766 320.143,-203.78"/>
</g>
<!-- Node15 -->
<g id="node15" class="node"><title>Node15</title>
<polygon fill="white" stroke="#bfbfbf" points="376.517,-169 376.517,-199 509.517,-199 509.517,-169 376.517,-169"/>
<text text-anchor="start" x="384.517" y="-187" font-family="Helvetica,sans-Serif" font-size="10.00">unsupported/Eigen/Aligned</text>
<text text-anchor="middle" x="443.017" y="-176" font-family="Helvetica,sans-Serif" font-size="10.00">Vector3</text>
</g>
<!-- Node3&#45;&gt;Node15 -->
<g id="edge14" class="edge"><title>Node3&#45;&gt;Node15</title>
<path fill="none" stroke="midnightblue" d="M309.368,-236.403C332.152,-227.641 368.152,-213.794 397.052,-202.679"/>
<polygon fill="midnightblue" stroke="midnightblue" points="398.474,-205.882 406.551,-199.025 395.961,-199.348 398.474,-205.882"/>
</g>
<!-- Node16 -->
<g id="node16" class="node"><title>Node16</title>
<g id="a_node16"><a xlink:href="Math_8hpp.html" target="_top" xlink:title="Core/Math/Math.hpp">
<polygon fill="white" stroke="black" points="528.017,-174.5 528.017,-193.5 634.017,-193.5 634.017,-174.5 528.017,-174.5"/>
<text text-anchor="middle" x="581.017" y="-181.5" font-family="Helvetica,sans-Serif" font-size="10.00">Core/Math/Math.hpp</text>
</a>
</g>
</g>
<!-- Node3&#45;&gt;Node16 -->
<g id="edge15" class="edge"><title>Node3&#45;&gt;Node16</title>
<path fill="none" stroke="midnightblue" d="M334.031,-236.431C380.79,-227.769 454.522,-213.737 518.017,-200 523.931,-198.721 530.142,-197.316 536.264,-195.896"/>
<polygon fill="midnightblue" stroke="midnightblue" points="537.481,-199.205 546.415,-193.51 535.88,-192.391 537.481,-199.205"/>
</g>
<!-- Node20 -->
<g id="node20" class="node"><title>Node20</title>
<g id="a_node20"><a xlink:href="LinearAlgebra_8inl.html" target="_top" xlink:title="Core/Math/LinearAlgebra.inl">
<polygon fill="white" stroke="black" points="652.517,-174.5 652.517,-193.5 789.517,-193.5 789.517,-174.5 652.517,-174.5"/>
<text text-anchor="middle" x="721.017" y="-181.5" font-family="Helvetica,sans-Serif" font-size="10.00">Core/Math/LinearAlgebra.inl</text>
</a>
</g>
</g>
<!-- Node3&#45;&gt;Node20 -->
<g id="edge21" class="edge"><title>Node3&#45;&gt;Node20</title>
<path fill="none" stroke="midnightblue" d="M358.596,-237.237C430.424,-229.139 544.144,-215.48 642.017,-200 650.633,-198.637 659.749,-197.046 668.609,-195.419"/>
<polygon fill="midnightblue" stroke="midnightblue" points="669.275,-198.856 678.461,-193.578 667.989,-191.975 669.275,-198.856"/>
</g>
<!-- Node5 -->
<g id="node5" class="node"><title>Node5</title>
<g id="a_node5"><a xlink:href="CoreMacros_8hpp.html" target="_top" xlink:title="Core/CoreMacros.hpp">
<polygon fill="white" stroke="black" points="126.517,-56.5 126.517,-75.5 239.517,-75.5 239.517,-56.5 126.517,-56.5"/>
<text text-anchor="middle" x="183.017" y="-63.5" font-family="Helvetica,sans-Serif" font-size="10.00">Core/CoreMacros.hpp</text>
</a>
</g>
</g>
<!-- Node4&#45;&gt;Node5 -->
<g id="edge4" class="edge"><title>Node4&#45;&gt;Node5</title>
<path fill="none" stroke="midnightblue" d="M183.017,-112.083C183.017,-105.006 183.017,-94.8611 183.017,-85.9865"/>
<polygon fill="midnightblue" stroke="midnightblue" points="186.517,-85.751 183.017,-75.7511 179.517,-85.7511 186.517,-85.751"/>
</g>
<!-- Node6 -->
<g id="node6" class="node"><title>Node6</title>
<polygon fill="white" stroke="#bfbfbf" points="27.5171,-0.5 27.5171,-19.5 76.5171,-19.5 76.5171,-0.5 27.5171,-0.5"/>
<text text-anchor="middle" x="52.0171" y="-7.5" font-family="Helvetica,sans-Serif" font-size="10.00">cassert</text>
</g>
<!-- Node5&#45;&gt;Node6 -->
<g id="edge5" class="edge"><title>Node5&#45;&gt;Node6</title>
<path fill="none" stroke="midnightblue" d="M162.26,-56.4435C140.701,-47.5566 106.754,-33.5632 82.2233,-23.4514"/>
<polygon fill="midnightblue" stroke="midnightblue" points="83.2566,-20.0917 72.6774,-19.5164 80.5888,-26.5634 83.2566,-20.0917"/>
</g>
<!-- Node7 -->
<g id="node7" class="node"><title>Node7</title>
<polygon fill="white" stroke="#bfbfbf" points="94.5171,-0.5 94.5171,-19.5 137.517,-19.5 137.517,-0.5 94.5171,-0.5"/>
<text text-anchor="middle" x="116.017" y="-7.5" font-family="Helvetica,sans-Serif" font-size="10.00">cstdio</text>
</g>
<!-- Node5&#45;&gt;Node7 -->
<g id="edge6" class="edge"><title>Node5&#45;&gt;Node7</title>
<path fill="none" stroke="midnightblue" d="M172.252,-56.324C162.251,-48.2631 147.131,-36.0765 135.087,-26.3695"/>
<polygon fill="midnightblue" stroke="midnightblue" points="136.96,-23.3841 126.978,-19.8339 132.567,-28.8343 136.96,-23.3841"/>
</g>
<!-- Node8 -->
<g id="node8" class="node"><title>Node8</title>
<polygon fill="white" stroke="#bfbfbf" points="156.017,-0.5 156.017,-19.5 210.017,-19.5 210.017,-0.5 156.017,-0.5"/>
<text text-anchor="middle" x="183.017" y="-7.5" font-family="Helvetica,sans-Serif" font-size="10.00">iostream</text>
</g>
<!-- Node5&#45;&gt;Node8 -->
<g id="edge7" class="edge"><title>Node5&#45;&gt;Node8</title>
<path fill="none" stroke="midnightblue" d="M183.017,-56.083C183.017,-49.0059 183.017,-38.8611 183.017,-29.9865"/>
<polygon fill="midnightblue" stroke="midnightblue" points="186.517,-29.751 183.017,-19.7511 179.517,-29.7511 186.517,-29.751"/>
</g>
<!-- Node9 -->
<g id="node9" class="node"><title>Node9</title>
<polygon fill="white" stroke="#bfbfbf" points="228.017,-0.5 228.017,-19.5 280.017,-19.5 280.017,-0.5 228.017,-0.5"/>
<text text-anchor="middle" x="254.017" y="-7.5" font-family="Helvetica,sans-Serif" font-size="10.00">sstream</text>
</g>
<!-- Node5&#45;&gt;Node9 -->
<g id="edge8" class="edge"><title>Node5&#45;&gt;Node9</title>
<path fill="none" stroke="midnightblue" d="M194.425,-56.324C205.126,-48.1849 221.358,-35.8395 234.18,-26.0874"/>
<polygon fill="midnightblue" stroke="midnightblue" points="236.562,-28.6734 242.402,-19.8339 232.324,-23.1018 236.562,-28.6734"/>
</g>
<!-- Node10 -->
<g id="node10" class="node"><title>Node10</title>
<polygon fill="white" stroke="#bfbfbf" points="298.017,-0.5 298.017,-19.5 342.017,-19.5 342.017,-0.5 298.017,-0.5"/>
<text text-anchor="middle" x="320.017" y="-7.5" font-family="Helvetica,sans-Serif" font-size="10.00">thread</text>
</g>
<!-- Node5&#45;&gt;Node10 -->
<g id="edge9" class="edge"><title>Node5&#45;&gt;Node10</title>
<path fill="none" stroke="midnightblue" d="M204.725,-56.4435C227.372,-47.5171 263.089,-33.4387 288.769,-23.3168"/>
<polygon fill="midnightblue" stroke="midnightblue" points="290.391,-26.4397 298.411,-19.5164 287.824,-19.9273 290.391,-26.4397"/>
</g>
<!-- Node16&#45;&gt;Node4 -->
<g id="edge16" class="edge"><title>Node16&#45;&gt;Node4</title>
<path fill="none" stroke="midnightblue" d="M547.8,-174.433C538.229,-172.144 527.745,-169.807 518.017,-168 420.945,-149.971 306.769,-136.203 239.9,-128.882"/>
<polygon fill="midnightblue" stroke="midnightblue" points="239.903,-125.362 229.584,-127.763 239.148,-132.321 239.903,-125.362"/>
</g>
<!-- Node17 -->
<g id="node17" class="node"><title>Node17</title>
<polygon fill="white" stroke="#bfbfbf" points="440.017,-112.5 440.017,-131.5 496.017,-131.5 496.017,-112.5 440.017,-112.5"/>
<text text-anchor="middle" x="468.017" y="-119.5" font-family="Helvetica,sans-Serif" font-size="10.00">algorithm</text>
</g>
<!-- Node16&#45;&gt;Node17 -->
<g id="edge17" class="edge"><title>Node16&#45;&gt;Node17</title>
<path fill="none" stroke="midnightblue" d="M564.827,-174.403C546.115,-164.468 515.094,-147.997 493.218,-136.381"/>
<polygon fill="midnightblue" stroke="midnightblue" points="494.651,-133.179 484.177,-131.581 491.368,-139.362 494.651,-133.179"/>
</g>
<!-- Node18 -->
<g id="node18" class="node"><title>Node18</title>
<polygon fill="white" stroke="#bfbfbf" points="514.017,-112.5 514.017,-131.5 558.017,-131.5 558.017,-112.5 514.017,-112.5"/>
<text text-anchor="middle" x="536.017" y="-119.5" font-family="Helvetica,sans-Serif" font-size="10.00">cmath</text>
</g>
<!-- Node16&#45;&gt;Node18 -->
<g id="edge18" class="edge"><title>Node16&#45;&gt;Node18</title>
<path fill="none" stroke="midnightblue" d="M574.57,-174.403C567.82,-165.403 557.048,-151.041 548.604,-139.782"/>
<polygon fill="midnightblue" stroke="midnightblue" points="551.253,-137.481 542.453,-131.581 545.653,-141.681 551.253,-137.481"/>
</g>
<!-- Node19 -->
<g id="node19" class="node"><title>Node19</title>
<g id="a_node19"><a xlink:href="Math_8inl.html" target="_top" xlink:title="Core/Math/Math.inl">
<polygon fill="white" stroke="black" points="576.017,-112.5 576.017,-131.5 676.017,-131.5 676.017,-112.5 576.017,-112.5"/>
<text text-anchor="middle" x="626.017" y="-119.5" font-family="Helvetica,sans-Serif" font-size="10.00">Core/Math/Math.inl</text>
</a>
</g>
</g>
<!-- Node16&#45;&gt;Node19 -->
<g id="edge19" class="edge"><title>Node16&#45;&gt;Node19</title>
<path fill="none" stroke="midnightblue" d="M582.564,-174.403C587.462,-165.225 598.142,-150.47 607.868,-139.117"/>
<polygon fill="midnightblue" stroke="midnightblue" points="610.572,-141.345 614.685,-131.581 605.381,-136.649 610.572,-141.345"/>
</g>
<!-- Node19&#45;&gt;Node16 -->
<g id="edge20" class="edge"><title>Node19&#45;&gt;Node16</title>
<path fill="none" stroke="midnightblue" d="M624.479,-131.581C619.587,-140.752 608.91,-155.506 599.184,-166.863"/>
<polygon fill="midnightblue" stroke="midnightblue" points="596.476,-164.639 592.365,-174.403 601.668,-169.334 596.476,-164.639"/>
</g>
</g>
</svg>
