<?xml version="1.0" encoding="UTF-8" standalone="no"?>
<!DOCTYPE svg PUBLIC "-//W3C//DTD SVG 1.1//EN"
 "http://www.w3.org/Graphics/SVG/1.1/DTD/svg11.dtd">
<!-- Generated by graphviz version 2.36.0 (20140111.2315)
 -->
<!-- Title: /home/travis/build/STORM&#45;IRIT/Radium&#45;Engine/src/Core/File/HandleData.inl Pages: 1 -->
<svg width="3078pt" height="476pt"
 viewBox="0.00 0.00 3078.00 476.00" xmlns="http://www.w3.org/2000/svg" xmlns:xlink="http://www.w3.org/1999/xlink">
<g id="graph0" class="graph" transform="scale(1 1) rotate(0) translate(4 472)">
<title>/home/travis/build/STORM&#45;IRIT/Radium&#45;Engine/src/Core/File/HandleData.inl</title>
<polygon fill="white" stroke="none" points="-4,4 -4,-472 3074,-472 3074,4 -4,4"/>
<!-- Node1 -->
<g id="node1" class="node"><title>Node1</title>
<polygon fill="#bfbfbf" stroke="black" points="2018,-426.5 2018,-467.5 2166,-467.5 2166,-426.5 2018,-426.5"/>
<text text-anchor="start" x="2026" y="-455.5" font-family="Helvetica,sans-Serif" font-size="10.00">/home/travis/build</text>
<text text-anchor="start" x="2026" y="-444.5" font-family="Helvetica,sans-Serif" font-size="10.00">/STORM&#45;IRIT/Radium&#45;Engine</text>
<text text-anchor="middle" x="2092" y="-433.5" font-family="Helvetica,sans-Serif" font-size="10.00">/src/Core/File/HandleData.inl</text>
</g>
<!-- Node2 -->
<g id="node2" class="node"><title>Node2</title>
<g id="a_node2"><a xlink:href="HandleData_8hpp.html" target="_top" xlink:title="/home/travis/build\l/STORM&#45;IRIT/Radium&#45;Engine\l/src/Core/File/HandleData.hpp">
<polygon fill="white" stroke="black" points="2017.5,-348.5 2017.5,-389.5 2166.5,-389.5 2166.5,-348.5 2017.5,-348.5"/>
<text text-anchor="start" x="2025.5" y="-377.5" font-family="Helvetica,sans-Serif" font-size="10.00">/home/travis/build</text>
<text text-anchor="start" x="2025.5" y="-366.5" font-family="Helvetica,sans-Serif" font-size="10.00">/STORM&#45;IRIT/Radium&#45;Engine</text>
<text text-anchor="middle" x="2092" y="-355.5" font-family="Helvetica,sans-Serif" font-size="10.00">/src/Core/File/HandleData.hpp</text>
</a>
</g>
</g>
<!-- Node1&#45;&gt;Node2 -->
<g id="edge1" class="edge"><title>Node1&#45;&gt;Node2</title>
<path fill="none" stroke="midnightblue" d="M2085.4,-416.297C2085.08,-407.301 2085.28,-397.653 2086.02,-389.506"/>
<polygon fill="midnightblue" stroke="midnightblue" points="2081.91,-416.659 2086.01,-426.428 2088.9,-416.234 2081.91,-416.659"/>
</g>
<!-- Node2&#45;&gt;Node1 -->
<g id="edge20" class="edge"><title>Node2&#45;&gt;Node1</title>
<path fill="none" stroke="midnightblue" d="M2098.6,-399.63C2098.92,-408.622 2098.72,-418.272 2097.99,-426.428"/>
<polygon fill="midnightblue" stroke="midnightblue" points="2102.09,-399.273 2097.98,-389.506 2095.1,-399.701 2102.09,-399.273"/>
</g>
<!-- Node3 -->
<g id="node3" class="node"><title>Node3</title>
<g id="a_node3"><a xlink:href="FileData_8inl.html" target="_top" xlink:title="/home/travis/build\l/STORM&#45;IRIT/Radium&#45;Engine\l/src/Core/File/FileData.inl">
<polygon fill="white" stroke="black" points="1516,-264.5 1516,-305.5 1664,-305.5 1664,-264.5 1516,-264.5"/>
<text text-anchor="start" x="1524" y="-293.5" font-family="Helvetica,sans-Serif" font-size="10.00">/home/travis/build</text>
<text text-anchor="start" x="1524" y="-282.5" font-family="Helvetica,sans-Serif" font-size="10.00">/STORM&#45;IRIT/Radium&#45;Engine</text>
<text text-anchor="middle" x="1590" y="-271.5" font-family="Helvetica,sans-Serif" font-size="10.00">/src/Core/File/FileData.inl</text>
</a>
</g>
</g>
<!-- Node2&#45;&gt;Node3 -->
<g id="edge2" class="edge"><title>Node2&#45;&gt;Node3</title>
<path fill="none" stroke="midnightblue" d="M2007.41,-354.182C1911.26,-338.476 1755.81,-313.085 1664.2,-298.121"/>
<polygon fill="midnightblue" stroke="midnightblue" points="2006.95,-357.654 2017.39,-355.812 2008.08,-350.746 2006.95,-357.654"/>
</g>
<!-- Node18 -->
<g id="node18" class="node"><title>Node18</title>
<g id="a_node18"><a xlink:href="SkinningSystem_8hpp.html" target="_top" xlink:title="/home/travis/build\l/STORM&#45;IRIT/Radium&#45;Engine\l/Plugins/Skinning/src/SkinningSystem.hpp">
<polygon fill="white" stroke="black" points="2337,-84.5 2337,-125.5 2539,-125.5 2539,-84.5 2337,-84.5"/>
<text text-anchor="start" x="2345" y="-113.5" font-family="Helvetica,sans-Serif" font-size="10.00">/home/travis/build</text>
<text text-anchor="start" x="2345" y="-102.5" font-family="Helvetica,sans-Serif" font-size="10.00">/STORM&#45;IRIT/Radium&#45;Engine</text>
<text text-anchor="middle" x="2438" y="-91.5" font-family="Helvetica,sans-Serif" font-size="10.00">/Plugins/Skinning/src/SkinningSystem.hpp</text>
</a>
</g>
</g>
<!-- Node2&#45;&gt;Node18 -->
<g id="edge33" class="edge"><title>Node2&#45;&gt;Node18</title>
<path fill="none" stroke="midnightblue" d="M2007.5,-361.53C1938.74,-354.302 1849.51,-339.764 1827,-312 1811.89,-293.357 1812.22,-276.908 1827,-258 1831.15,-252.692 2191.64,-165.324 2356.89,-125.503"/>
<polygon fill="midnightblue" stroke="midnightblue" points="2007.19,-365.016 2017.49,-362.545 2007.9,-358.052 2007.19,-365.016"/>
</g>
<!-- Node20 -->
<g id="node20" class="node"><title>Node20</title>
<g id="a_node20"><a xlink:href="HandleData_8cpp.html" target="_top" xlink:title="/home/travis/build\l/STORM&#45;IRIT/Radium&#45;Engine\l/src/Core/File/HandleData.cpp">
<polygon fill="white" stroke="black" points="1836.5,-264.5 1836.5,-305.5 1985.5,-305.5 1985.5,-264.5 1836.5,-264.5"/>
<text text-anchor="start" x="1844.5" y="-293.5" font-family="Helvetica,sans-Serif" font-size="10.00">/home/travis/build</text>
<text text-anchor="start" x="1844.5" y="-282.5" font-family="Helvetica,sans-Serif" font-size="10.00">/STORM&#45;IRIT/Radium&#45;Engine</text>
<text text-anchor="middle" x="1911" y="-271.5" font-family="Helvetica,sans-Serif" font-size="10.00">/src/Core/File/HandleData.cpp</text>
</a>
</g>
</g>
<!-- Node2&#45;&gt;Node20 -->
<g id="edge19" class="edge"><title>Node2&#45;&gt;Node20</title>
<path fill="none" stroke="midnightblue" d="M2039.34,-344.144C2012.34,-331.909 1979.85,-317.19 1954.31,-305.623"/>
<polygon fill="midnightblue" stroke="midnightblue" points="2038.09,-347.42 2048.65,-348.359 2040.98,-341.044 2038.09,-347.42"/>
</g>
<!-- Node21 -->
<g id="node21" class="node"><title>Node21</title>
<g id="a_node21"><a xlink:href="HandleToSkeleton_8cpp.html" target="_top" xlink:title="/home/travis/build\l/STORM&#45;IRIT/Radium&#45;Engine\l/src/Core/File/HandleToSkeleton.cpp">
<polygon fill="white" stroke="black" points="2003,-264.5 2003,-305.5 2181,-305.5 2181,-264.5 2003,-264.5"/>
<text text-anchor="start" x="2011" y="-293.5" font-family="Helvetica,sans-Serif" font-size="10.00">/home/travis/build</text>
<text text-anchor="start" x="2011" y="-282.5" font-family="Helvetica,sans-Serif" font-size="10.00">/STORM&#45;IRIT/Radium&#45;Engine</text>
<text text-anchor="middle" x="2092" y="-271.5" font-family="Helvetica,sans-Serif" font-size="10.00">/src/Core/File/HandleToSkeleton.cpp</text>
</a>
</g>
</g>
<!-- Node2&#45;&gt;Node21 -->
<g id="edge21" class="edge"><title>Node2&#45;&gt;Node21</title>
<path fill="none" stroke="midnightblue" d="M2092,-337.881C2092,-327.133 2092,-315.309 2092,-305.667"/>
<polygon fill="midnightblue" stroke="midnightblue" points="2088.5,-338.15 2092,-348.15 2095.5,-338.15 2088.5,-338.15"/>
</g>
<!-- Node22 -->
<g id="node22" class="node"><title>Node22</title>
<g id="a_node22"><a xlink:href="AssimpHandleDataLoader_8cpp.html" target="_top" xlink:title="/home/travis/build\l/STORM&#45;IRIT/Radium&#45;Engine\l/src/IO/AssimpLoader/AssimpHandle\lDataLoader.cpp">
<polygon fill="white" stroke="black" points="2199.5,-259 2199.5,-311 2378.5,-311 2378.5,-259 2199.5,-259"/>
<text text-anchor="start" x="2207.5" y="-299" font-family="Helvetica,sans-Serif" font-size="10.00">/home/travis/build</text>
<text text-anchor="start" x="2207.5" y="-288" font-family="Helvetica,sans-Serif" font-size="10.00">/STORM&#45;IRIT/Radium&#45;Engine</text>
<text text-anchor="start" x="2207.5" y="-277" font-family="Helvetica,sans-Serif" font-size="10.00">/src/IO/AssimpLoader/AssimpHandle</text>
<text text-anchor="middle" x="2289" y="-266" font-family="Helvetica,sans-Serif" font-size="10.00">DataLoader.cpp</text>
</a>
</g>
</g>
<!-- Node2&#45;&gt;Node22 -->
<g id="edge22" class="edge"><title>Node2&#45;&gt;Node22</title>
<path fill="none" stroke="midnightblue" d="M2148.32,-344.557C2173.43,-334.106 2203.04,-321.78 2228.61,-311.138"/>
<polygon fill="midnightblue" stroke="midnightblue" points="2146.82,-341.389 2138.94,-348.463 2149.51,-347.852 2146.82,-341.389"/>
</g>
<!-- Node23 -->
<g id="node23" class="node"><title>Node23</title>
<g id="a_node23"><a xlink:href="AnimationComponent_8hpp.html" target="_top" xlink:title="/home/travis/build\l/STORM&#45;IRIT/Radium&#45;Engine\l/Plugins/Animation/src/Animation\lComponent.hpp">
<polygon fill="white" stroke="black" points="2667.5,-259 2667.5,-311 2828.5,-311 2828.5,-259 2667.5,-259"/>
<text text-anchor="start" x="2675.5" y="-299" font-family="Helvetica,sans-Serif" font-size="10.00">/home/travis/build</text>
<text text-anchor="start" x="2675.5" y="-288" font-family="Helvetica,sans-Serif" font-size="10.00">/STORM&#45;IRIT/Radium&#45;Engine</text>
<text text-anchor="start" x="2675.5" y="-277" font-family="Helvetica,sans-Serif" font-size="10.00">/Plugins/Animation/src/Animation</text>
<text text-anchor="middle" x="2748" y="-266" font-family="Helvetica,sans-Serif" font-size="10.00">Component.hpp</text>
</a>
</g>
</g>
<!-- Node2&#45;&gt;Node23 -->
<g id="edge23" class="edge"><title>Node2&#45;&gt;Node23</title>
<path fill="none" stroke="midnightblue" d="M2177.02,-361.736C2282.33,-353.359 2467.06,-336.647 2624,-312 2638.02,-309.799 2652.84,-307.056 2667.18,-304.185"/>
<polygon fill="midnightblue" stroke="midnightblue" points="2176.46,-358.269 2166.76,-362.545 2177.01,-365.247 2176.46,-358.269"/>
</g>
<!-- Node27 -->
<g id="node27" class="node"><title>Node27</title>
<g id="a_node27"><a xlink:href="SkinningComponent_8hpp.html" target="_top" xlink:title="/home/travis/build\l/STORM&#45;IRIT/Radium&#45;Engine\l/Plugins/Skinning/src/SkinningComponent.hpp">
<polygon fill="white" stroke="black" points="2397,-264.5 2397,-305.5 2615,-305.5 2615,-264.5 2397,-264.5"/>
<text text-anchor="start" x="2405" y="-293.5" font-family="Helvetica,sans-Serif" font-size="10.00">/home/travis/build</text>
<text text-anchor="start" x="2405" y="-282.5" font-family="Helvetica,sans-Serif" font-size="10.00">/STORM&#45;IRIT/Radium&#45;Engine</text>
<text text-anchor="middle" x="2506" y="-271.5" font-family="Helvetica,sans-Serif" font-size="10.00">/Plugins/Skinning/src/SkinningComponent.hpp</text>
</a>
</g>
</g>
<!-- Node2&#45;&gt;Node27 -->
<g id="edge30" class="edge"><title>Node2&#45;&gt;Node27</title>
<path fill="none" stroke="midnightblue" d="M2176.7,-352.561C2235.73,-341.644 2316.26,-326.438 2387,-312 2397.05,-309.949 2407.56,-307.742 2418,-305.511"/>
<polygon fill="midnightblue" stroke="midnightblue" points="2175.87,-349.154 2166.67,-354.411 2177.14,-356.037 2175.87,-349.154"/>
</g>
<!-- Node4 -->
<g id="node4" class="node"><title>Node4</title>
<g id="a_node4"><a xlink:href="FileData_8hpp.html" target="_top" xlink:title="/home/travis/build\l/STORM&#45;IRIT/Radium&#45;Engine\l/src/Core/File/FileData.hpp">
<polygon fill="white" stroke="black" points="1398,-174.5 1398,-215.5 1546,-215.5 1546,-174.5 1398,-174.5"/>
<text text-anchor="start" x="1406" y="-203.5" font-family="Helvetica,sans-Serif" font-size="10.00">/home/travis/build</text>
<text text-anchor="start" x="1406" y="-192.5" font-family="Helvetica,sans-Serif" font-size="10.00">/STORM&#45;IRIT/Radium&#45;Engine</text>
<text text-anchor="middle" x="1472" y="-181.5" font-family="Helvetica,sans-Serif" font-size="10.00">/src/Core/File/FileData.hpp</text>
</a>
</g>
</g>
<!-- Node3&#45;&gt;Node4 -->
<g id="edge3" class="edge"><title>Node3&#45;&gt;Node4</title>
<path fill="none" stroke="midnightblue" d="M1555.74,-258.45C1537.51,-244.854 1515.43,-228.39 1498.52,-215.78"/>
<polygon fill="midnightblue" stroke="midnightblue" points="1553.7,-261.297 1563.81,-264.47 1557.89,-255.686 1553.7,-261.297"/>
</g>
<!-- Node5 -->
<g id="node5" class="node"><title>Node5</title>
<g id="a_node5"><a xlink:href="FileData_8cpp.html" target="_top" xlink:title="/home/travis/build\l/STORM&#45;IRIT/Radium&#45;Engine\l/src/Core/File/FileData.cpp">
<polygon fill="white" stroke="black" points="0,-84.5 0,-125.5 148,-125.5 148,-84.5 0,-84.5"/>
<text text-anchor="start" x="8" y="-113.5" font-family="Helvetica,sans-Serif" font-size="10.00">/home/travis/build</text>
<text text-anchor="start" x="8" y="-102.5" font-family="Helvetica,sans-Serif" font-size="10.00">/STORM&#45;IRIT/Radium&#45;Engine</text>
<text text-anchor="middle" x="74" y="-91.5" font-family="Helvetica,sans-Serif" font-size="10.00">/src/Core/File/FileData.cpp</text>
</a>
</g>
</g>
<!-- Node4&#45;&gt;Node5 -->
<g id="edge4" class="edge"><title>Node4&#45;&gt;Node5</title>
<path fill="none" stroke="midnightblue" d="M1387.55,-192.843C1136.05,-188.952 394.786,-174.127 157,-132 148.079,-130.42 138.78,-128.152 129.771,-125.605"/>
<polygon fill="midnightblue" stroke="midnightblue" points="1387.67,-196.345 1397.72,-192.999 1387.77,-189.346 1387.67,-196.345"/>
</g>
<!-- Node6 -->
<g id="node6" class="node"><title>Node6</title>
<g id="a_node6"><a xlink:href="GeometryComponent_8cpp.html" target="_top" xlink:title="/home/travis/build\l/STORM&#45;IRIT/Radium&#45;Engine\l/src/Engine/Component/GeometryComponent.cpp">
<polygon fill="white" stroke="black" points="166,-84.5 166,-125.5 400,-125.5 400,-84.5 166,-84.5"/>
<text text-anchor="start" x="174" y="-113.5" font-family="Helvetica,sans-Serif" font-size="10.00">/home/travis/build</text>
<text text-anchor="start" x="174" y="-102.5" font-family="Helvetica,sans-Serif" font-size="10.00">/STORM&#45;IRIT/Radium&#45;Engine</text>
<text text-anchor="middle" x="283" y="-91.5" font-family="Helvetica,sans-Serif" font-size="10.00">/src/Engine/Component/GeometryComponent.cpp</text>
</a>
</g>
</g>
<!-- Node4&#45;&gt;Node6 -->
<g id="edge5" class="edge"><title>Node4&#45;&gt;Node6</title>
<path fill="none" stroke="midnightblue" d="M1387.66,-193.233C1207.3,-190.682 771.054,-179.657 409,-132 396.045,-130.295 382.432,-128.011 369.137,-125.503"/>
<polygon fill="midnightblue" stroke="midnightblue" points="1387.82,-196.735 1397.87,-193.372 1387.92,-189.736 1387.82,-196.735"/>
</g>
<!-- Node7 -->
<g id="node7" class="node"><title>Node7</title>
<g id="a_node7"><a xlink:href="CameraManager_8cpp.html" target="_top" xlink:title="/home/travis/build\l/STORM&#45;IRIT/Radium&#45;Engine\l/src/Engine/Managers/CameraManager\l/CameraManager.cpp">
<polygon fill="white" stroke="black" points="418.5,-79 418.5,-131 605.5,-131 605.5,-79 418.5,-79"/>
<text text-anchor="start" x="426.5" y="-119" font-family="Helvetica,sans-Serif" font-size="10.00">/home/travis/build</text>
<text text-anchor="start" x="426.5" y="-108" font-family="Helvetica,sans-Serif" font-size="10.00">/STORM&#45;IRIT/Radium&#45;Engine</text>
<text text-anchor="start" x="426.5" y="-97" font-family="Helvetica,sans-Serif" font-size="10.00">/src/Engine/Managers/CameraManager</text>
<text text-anchor="middle" x="512" y="-86" font-family="Helvetica,sans-Serif" font-size="10.00">/CameraManager.cpp</text>
</a>
</g>
</g>
<!-- Node4&#45;&gt;Node7 -->
<g id="edge6" class="edge"><title>Node4&#45;&gt;Node7</title>
<path fill="none" stroke="midnightblue" d="M1387.39,-192.85C1232.81,-189.65 894.829,-177.568 614,-132 611.204,-131.546 608.373,-131.052 605.521,-130.524"/>
<polygon fill="midnightblue" stroke="midnightblue" points="1387.68,-196.356 1397.75,-193.057 1387.82,-189.358 1387.68,-196.356"/>
</g>
<!-- Node8 -->
<g id="node8" class="node"><title>Node8</title>
<g id="a_node8"><a xlink:href="LightManager_8cpp.html" target="_top" xlink:title="/home/travis/build\l/STORM&#45;IRIT/Radium&#45;Engine\l/src/Engine/Managers/LightManager\l/LightManager.cpp">
<polygon fill="white" stroke="black" points="623.5,-79 623.5,-131 796.5,-131 796.5,-79 623.5,-79"/>
<text text-anchor="start" x="631.5" y="-119" font-family="Helvetica,sans-Serif" font-size="10.00">/home/travis/build</text>
<text text-anchor="start" x="631.5" y="-108" font-family="Helvetica,sans-Serif" font-size="10.00">/STORM&#45;IRIT/Radium&#45;Engine</text>
<text text-anchor="start" x="631.5" y="-97" font-family="Helvetica,sans-Serif" font-size="10.00">/src/Engine/Managers/LightManager</text>
<text text-anchor="middle" x="710" y="-86" font-family="Helvetica,sans-Serif" font-size="10.00">/LightManager.cpp</text>
</a>
</g>
</g>
<!-- Node4&#45;&gt;Node8 -->
<g id="edge7" class="edge"><title>Node4&#45;&gt;Node8</title>
<path fill="none" stroke="midnightblue" d="M1387.47,-190.781C1260.39,-184.896 1012.95,-169.372 806,-132 802.941,-131.448 799.838,-130.844 796.712,-130.2"/>
<polygon fill="midnightblue" stroke="midnightblue" points="1387.37,-194.28 1397.52,-191.238 1387.69,-187.287 1387.37,-194.28"/>
</g>
<!-- Node9 -->
<g id="node9" class="node"><title>Node9</title>
<g id="a_node9"><a xlink:href="RadiumEngine_8cpp.html" target="_top" xlink:title="/home/travis/build\l/STORM&#45;IRIT/Radium&#45;Engine\l/src/Engine/RadiumEngine.cpp">
<polygon fill="white" stroke="black" points="815,-84.5 815,-125.5 967,-125.5 967,-84.5 815,-84.5"/>
<text text-anchor="start" x="823" y="-113.5" font-family="Helvetica,sans-Serif" font-size="10.00">/home/travis/build</text>
<text text-anchor="start" x="823" y="-102.5" font-family="Helvetica,sans-Serif" font-size="10.00">/STORM&#45;IRIT/Radium&#45;Engine</text>
<text text-anchor="middle" x="891" y="-91.5" font-family="Helvetica,sans-Serif" font-size="10.00">/src/Engine/RadiumEngine.cpp</text>
</a>
</g>
</g>
<!-- Node4&#45;&gt;Node9 -->
<g id="edge8" class="edge"><title>Node4&#45;&gt;Node9</title>
<path fill="none" stroke="midnightblue" d="M1387.83,-187.93C1288.56,-179.749 1118.97,-162.562 976,-132 967.549,-130.193 958.728,-127.933 950.103,-125.504"/>
<polygon fill="midnightblue" stroke="midnightblue" points="1387.55,-191.419 1397.8,-188.741 1388.12,-184.442 1387.55,-191.419"/>
</g>
<!-- Node10 -->
<g id="node10" class="node"><title>Node10</title>
<g id="a_node10"><a xlink:href="Renderer_8cpp.html" target="_top" xlink:title="/home/travis/build\l/STORM&#45;IRIT/Radium&#45;Engine\l/src/Engine/Renderer/Renderer.cpp">
<polygon fill="white" stroke="black" points="985,-84.5 985,-125.5 1155,-125.5 1155,-84.5 985,-84.5"/>
<text text-anchor="start" x="993" y="-113.5" font-family="Helvetica,sans-Serif" font-size="10.00">/home/travis/build</text>
<text text-anchor="start" x="993" y="-102.5" font-family="Helvetica,sans-Serif" font-size="10.00">/STORM&#45;IRIT/Radium&#45;Engine</text>
<text text-anchor="middle" x="1070" y="-91.5" font-family="Helvetica,sans-Serif" font-size="10.00">/src/Engine/Renderer/Renderer.cpp</text>
</a>
</g>
</g>
<!-- Node4&#45;&gt;Node10 -->
<g id="edge9" class="edge"><title>Node4&#45;&gt;Node10</title>
<path fill="none" stroke="midnightblue" d="M1387.79,-178.725C1325.68,-167.052 1239.26,-149.959 1164,-132 1155.68,-130.015 1146.99,-127.802 1138.39,-125.527"/>
<polygon fill="midnightblue" stroke="midnightblue" points="1387.46,-182.223 1397.93,-180.623 1388.75,-175.342 1387.46,-182.223"/>
</g>
<!-- Node11 -->
<g id="node11" class="node"><title>Node11</title>
<g id="a_node11"><a xlink:href="GeometrySystem_8cpp.html" target="_top" xlink:title="/home/travis/build\l/STORM&#45;IRIT/Radium&#45;Engine\l/src/Engine/System/GeometrySystem.cpp">
<polygon fill="white" stroke="black" points="1173.5,-84.5 1173.5,-125.5 1374.5,-125.5 1374.5,-84.5 1173.5,-84.5"/>
<text text-anchor="start" x="1181.5" y="-113.5" font-family="Helvetica,sans-Serif" font-size="10.00">/home/travis/build</text>
<text text-anchor="start" x="1181.5" y="-102.5" font-family="Helvetica,sans-Serif" font-size="10.00">/STORM&#45;IRIT/Radium&#45;Engine</text>
<text text-anchor="middle" x="1274" y="-91.5" font-family="Helvetica,sans-Serif" font-size="10.00">/src/Engine/System/GeometrySystem.cpp</text>
</a>
</g>
</g>
<!-- Node4&#45;&gt;Node11 -->
<g id="edge10" class="edge"><title>Node4&#45;&gt;Node11</title>
<path fill="none" stroke="midnightblue" d="M1418.57,-170.254C1387.13,-156.279 1347.84,-138.819 1318.16,-125.627"/>
<polygon fill="midnightblue" stroke="midnightblue" points="1417.5,-173.607 1428.06,-174.47 1420.34,-167.21 1417.5,-173.607"/>
</g>
<!-- Node12 -->
<g id="node12" class="node"><title>Node12</title>
<g id="a_node12"><a xlink:href="Viewer_8cpp.html" target="_top" xlink:title="/home/travis/build\l/STORM&#45;IRIT/Radium&#45;Engine\l/src/GuiBase/Viewer/Viewer.cpp">
<polygon fill="white" stroke="black" points="1393,-84.5 1393,-125.5 1551,-125.5 1551,-84.5 1393,-84.5"/>
<text text-anchor="start" x="1401" y="-113.5" font-family="Helvetica,sans-Serif" font-size="10.00">/home/travis/build</text>
<text text-anchor="start" x="1401" y="-102.5" font-family="Helvetica,sans-Serif" font-size="10.00">/STORM&#45;IRIT/Radium&#45;Engine</text>
<text text-anchor="middle" x="1472" y="-91.5" font-family="Helvetica,sans-Serif" font-size="10.00">/src/GuiBase/Viewer/Viewer.cpp</text>
</a>
</g>
</g>
<!-- Node4&#45;&gt;Node12 -->
<g id="edge11" class="edge"><title>Node4&#45;&gt;Node12</title>
<path fill="none" stroke="midnightblue" d="M1472,-164.33C1472,-151.629 1472,-137.14 1472,-125.78"/>
<polygon fill="midnightblue" stroke="midnightblue" points="1468.5,-164.47 1472,-174.47 1475.5,-164.47 1468.5,-164.47"/>
</g>
<!-- Node13 -->
<g id="node13" class="node"><title>Node13</title>
<g id="a_node13"><a xlink:href="AssimpFileLoader_8cpp.html" target="_top" xlink:title="/home/travis/build\l/STORM&#45;IRIT/Radium&#45;Engine\l/src/IO/AssimpLoader/AssimpFile\lLoader.cpp">
<polygon fill="white" stroke="black" points="1569,-79 1569,-131 1733,-131 1733,-79 1569,-79"/>
<text text-anchor="start" x="1577" y="-119" font-family="Helvetica,sans-Serif" font-size="10.00">/home/travis/build</text>
<text text-anchor="start" x="1577" y="-108" font-family="Helvetica,sans-Serif" font-size="10.00">/STORM&#45;IRIT/Radium&#45;Engine</text>
<text text-anchor="start" x="1577" y="-97" font-family="Helvetica,sans-Serif" font-size="10.00">/src/IO/AssimpLoader/AssimpFile</text>
<text text-anchor="middle" x="1651" y="-86" font-family="Helvetica,sans-Serif" font-size="10.00">Loader.cpp</text>
</a>
</g>
</g>
<!-- Node4&#45;&gt;Node13 -->
<g id="edge12" class="edge"><title>Node4&#45;&gt;Node13</title>
<path fill="none" stroke="midnightblue" d="M1520.88,-169.97C1545.48,-157.877 1575.27,-143.228 1600.14,-131.002"/>
<polygon fill="midnightblue" stroke="midnightblue" points="1519.16,-166.917 1511.73,-174.47 1522.24,-173.199 1519.16,-166.917"/>
</g>
<!-- Node14 -->
<g id="node14" class="node"><title>Node14</title>
<g id="a_node14"><a xlink:href="CameraLoader_8cpp.html" target="_top" xlink:title="/home/travis/build\l/STORM&#45;IRIT/Radium&#45;Engine\l/src/IO/CameraLoader/CameraLoader.cpp">
<polygon fill="white" stroke="black" points="1751.5,-84.5 1751.5,-125.5 1950.5,-125.5 1950.5,-84.5 1751.5,-84.5"/>
<text text-anchor="start" x="1759.5" y="-113.5" font-family="Helvetica,sans-Serif" font-size="10.00">/home/travis/build</text>
<text text-anchor="start" x="1759.5" y="-102.5" font-family="Helvetica,sans-Serif" font-size="10.00">/STORM&#45;IRIT/Radium&#45;Engine</text>
<text text-anchor="middle" x="1851" y="-91.5" font-family="Helvetica,sans-Serif" font-size="10.00">/src/IO/CameraLoader/CameraLoader.cpp</text>
</a>
</g>
</g>
<!-- Node4&#45;&gt;Node14 -->
<g id="edge13" class="edge"><title>Node4&#45;&gt;Node14</title>
<path fill="none" stroke="midnightblue" d="M1556.32,-174.829C1609.59,-162.671 1679.86,-146.546 1742,-132 1750.9,-129.916 1760.21,-127.721 1769.48,-125.526"/>
<polygon fill="midnightblue" stroke="midnightblue" points="1555.21,-171.492 1546.24,-177.129 1556.77,-178.317 1555.21,-171.492"/>
</g>
<!-- Node15 -->
<g id="node15" class="node"><title>Node15</title>
<g id="a_node15"><a xlink:href="TinyPlyFileLoader_8cpp.html" target="_top" xlink:title="/home/travis/build\l/STORM&#45;IRIT/Radium&#45;Engine\l/src/IO/TinyPlyLoader/TinyPlyFile\lLoader.cpp">
<polygon fill="white" stroke="black" points="1969,-79 1969,-131 2133,-131 2133,-79 1969,-79"/>
<text text-anchor="start" x="1977" y="-119" font-family="Helvetica,sans-Serif" font-size="10.00">/home/travis/build</text>
<text text-anchor="start" x="1977" y="-108" font-family="Helvetica,sans-Serif" font-size="10.00">/STORM&#45;IRIT/Radium&#45;Engine</text>
<text text-anchor="start" x="1977" y="-97" font-family="Helvetica,sans-Serif" font-size="10.00">/src/IO/TinyPlyLoader/TinyPlyFile</text>
<text text-anchor="middle" x="2051" y="-86" font-family="Helvetica,sans-Serif" font-size="10.00">Loader.cpp</text>
</a>
</g>
</g>
<!-- Node4&#45;&gt;Node15 -->
<g id="edge14" class="edge"><title>Node4&#45;&gt;Node15</title>
<path fill="none" stroke="midnightblue" d="M1556.51,-187.087C1654.13,-178.215 1819.26,-160.477 1959,-132 1962.25,-131.337 1965.56,-130.619 1968.89,-129.859"/>
<polygon fill="midnightblue" stroke="midnightblue" points="1556.05,-183.614 1546.4,-187.996 1556.68,-190.586 1556.05,-183.614"/>
</g>
<!-- Node16 -->
<g id="node16" class="node"><title>Node16</title>
<g id="a_node16"><a xlink:href="AnimationSystem_8cpp.html" target="_top" xlink:title="/home/travis/build\l/STORM&#45;IRIT/Radium&#45;Engine\l/Plugins/Animation/src/Animation\lSystem.cpp">
<polygon fill="white" stroke="black" points="2557.5,-79 2557.5,-131 2718.5,-131 2718.5,-79 2557.5,-79"/>
<text text-anchor="start" x="2565.5" y="-119" font-family="Helvetica,sans-Serif" font-size="10.00">/home/travis/build</text>
<text text-anchor="start" x="2565.5" y="-108" font-family="Helvetica,sans-Serif" font-size="10.00">/STORM&#45;IRIT/Radium&#45;Engine</text>
<text text-anchor="start" x="2565.5" y="-97" font-family="Helvetica,sans-Serif" font-size="10.00">/Plugins/Animation/src/Animation</text>
<text text-anchor="middle" x="2638" y="-86" font-family="Helvetica,sans-Serif" font-size="10.00">System.cpp</text>
</a>
</g>
</g>
<!-- Node4&#45;&gt;Node16 -->
<g id="edge15" class="edge"><title>Node4&#45;&gt;Node16</title>
<path fill="none" stroke="midnightblue" d="M1556.25,-191.581C1775.09,-184.907 2357.71,-164.546 2548,-132 2551.05,-131.479 2554.14,-130.892 2557.25,-130.252"/>
<polygon fill="midnightblue" stroke="midnightblue" points="1556,-188.087 1546.11,-191.888 1556.21,-195.084 1556,-188.087"/>
</g>
<!-- Node17 -->
<g id="node17" class="node"><title>Node17</title>
<g id="a_node17"><a xlink:href="MeshPaintSystem_8cpp.html" target="_top" xlink:title="/home/travis/build\l/STORM&#45;IRIT/Radium&#45;Engine\l/Plugins/MeshPaint/src/MeshPaint\lSystem.cpp">
<polygon fill="white" stroke="black" points="2151.5,-79 2151.5,-131 2318.5,-131 2318.5,-79 2151.5,-79"/>
<text text-anchor="start" x="2159.5" y="-119" font-family="Helvetica,sans-Serif" font-size="10.00">/home/travis/build</text>
<text text-anchor="start" x="2159.5" y="-108" font-family="Helvetica,sans-Serif" font-size="10.00">/STORM&#45;IRIT/Radium&#45;Engine</text>
<text text-anchor="start" x="2159.5" y="-97" font-family="Helvetica,sans-Serif" font-size="10.00">/Plugins/MeshPaint/src/MeshPaint</text>
<text text-anchor="middle" x="2235" y="-86" font-family="Helvetica,sans-Serif" font-size="10.00">System.cpp</text>
</a>
</g>
</g>
<!-- Node4&#45;&gt;Node17 -->
<g id="edge16" class="edge"><title>Node4&#45;&gt;Node17</title>
<path fill="none" stroke="midnightblue" d="M1556.21,-187.064C1723.34,-173.172 2085.75,-142.378 2142,-132 2145.05,-131.437 2148.14,-130.82 2151.26,-130.159"/>
<polygon fill="midnightblue" stroke="midnightblue" points="1555.89,-183.578 1546.21,-187.894 1556.47,-190.554 1555.89,-183.578"/>
</g>
<!-- Node4&#45;&gt;Node18 -->
<g id="edge17" class="edge"><title>Node4&#45;&gt;Node18</title>
<path fill="none" stroke="midnightblue" d="M1556.28,-186.92C1621.45,-181.517 1713.92,-174.006 1795,-168 2031.34,-150.492 2092.63,-167.14 2327,-132 2338.35,-130.298 2350.26,-128.032 2361.89,-125.546"/>
<polygon fill="midnightblue" stroke="midnightblue" points="1555.74,-183.453 1546.07,-187.768 1556.32,-190.428 1555.74,-183.453"/>
</g>
<!-- Node19 -->
<g id="node19" class="node"><title>Node19</title>
<g id="a_node19"><a xlink:href="SkinningPlugin_8cpp.html" target="_top" xlink:title="/home/travis/build\l/STORM&#45;IRIT/Radium&#45;Engine\l/Plugins/Skinning/src/SkinningPlugin.cpp">
<polygon fill="white" stroke="black" points="2340.5,-0.5 2340.5,-41.5 2535.5,-41.5 2535.5,-0.5 2340.5,-0.5"/>
<text text-anchor="start" x="2348.5" y="-29.5" font-family="Helvetica,sans-Serif" font-size="10.00">/home/travis/build</text>
<text text-anchor="start" x="2348.5" y="-18.5" font-family="Helvetica,sans-Serif" font-size="10.00">/STORM&#45;IRIT/Radium&#45;Engine</text>
<text text-anchor="middle" x="2438" y="-7.5" font-family="Helvetica,sans-Serif" font-size="10.00">/Plugins/Skinning/src/SkinningPlugin.cpp</text>
</a>
</g>
</g>
<!-- Node18&#45;&gt;Node19 -->
<g id="edge18" class="edge"><title>Node18&#45;&gt;Node19</title>
<path fill="none" stroke="midnightblue" d="M2438,-73.881C2438,-63.1328 2438,-51.309 2438,-41.6671"/>
<polygon fill="midnightblue" stroke="midnightblue" points="2434.5,-74.1501 2438,-84.1501 2441.5,-74.1501 2434.5,-74.1501"/>
</g>
<!-- Node23&#45;&gt;Node16 -->
<g id="edge25" class="edge"><title>Node23&#45;&gt;Node16</title>
<path fill="none" stroke="midnightblue" d="M2717.97,-251.105C2710.36,-242.006 2702.5,-231.902 2696,-222 2676.6,-192.446 2659.18,-155.513 2648.61,-131.367"/>
<polygon fill="midnightblue" stroke="midnightblue" points="2715.4,-253.487 2724.56,-258.812 2720.72,-248.937 2715.4,-253.487"/>
</g>
<!-- Node24 -->
<g id="node24" class="node"><title>Node24</title>
<g id="a_node24"><a xlink:href="AnimationComponent_8cpp.html" target="_top" xlink:title="/home/travis/build\l/STORM&#45;IRIT/Radium&#45;Engine\l/Plugins/Animation/src/Animation\lComponent.cpp">
<polygon fill="white" stroke="black" points="2909.5,-79 2909.5,-131 3070.5,-131 3070.5,-79 2909.5,-79"/>
<text text-anchor="start" x="2917.5" y="-119" font-family="Helvetica,sans-Serif" font-size="10.00">/home/travis/build</text>
<text text-anchor="start" x="2917.5" y="-108" font-family="Helvetica,sans-Serif" font-size="10.00">/STORM&#45;IRIT/Radium&#45;Engine</text>
<text text-anchor="start" x="2917.5" y="-97" font-family="Helvetica,sans-Serif" font-size="10.00">/Plugins/Animation/src/Animation</text>
<text text-anchor="middle" x="2990" y="-86" font-family="Helvetica,sans-Serif" font-size="10.00">Component.cpp</text>
</a>
</g>
</g>
<!-- Node23&#45;&gt;Node24 -->
<g id="edge24" class="edge"><title>Node23&#45;&gt;Node24</title>
<path fill="none" stroke="midnightblue" d="M2813.93,-254.173C2832.07,-244.851 2851.32,-233.868 2868,-222 2906.1,-194.885 2944.23,-156.351 2967.47,-131.264"/>
<polygon fill="midnightblue" stroke="midnightblue" points="2811.93,-251.265 2804.57,-258.891 2815.08,-257.516 2811.93,-251.265"/>
</g>
<!-- Node25 -->
<g id="node25" class="node"><title>Node25</title>
<g id="a_node25"><a xlink:href="SkeletonBoneDrawable_8hpp.html" target="_top" xlink:title="/home/travis/build\l/STORM&#45;IRIT/Radium&#45;Engine\l/Plugins/Animation/src/Drawing\l/SkeletonBoneDrawable.hpp">
<polygon fill="white" stroke="black" points="2705,-169 2705,-221 2859,-221 2859,-169 2705,-169"/>
<text text-anchor="start" x="2713" y="-209" font-family="Helvetica,sans-Serif" font-size="10.00">/home/travis/build</text>
<text text-anchor="start" x="2713" y="-198" font-family="Helvetica,sans-Serif" font-size="10.00">/STORM&#45;IRIT/Radium&#45;Engine</text>
<text text-anchor="start" x="2713" y="-187" font-family="Helvetica,sans-Serif" font-size="10.00">/Plugins/Animation/src/Drawing</text>
<text text-anchor="middle" x="2782" y="-176" font-family="Helvetica,sans-Serif" font-size="10.00">/SkeletonBoneDrawable.hpp</text>
</a>
</g>
</g>
<!-- Node23&#45;&gt;Node25 -->
<g id="edge26" class="edge"><title>Node23&#45;&gt;Node25</title>
<path fill="none" stroke="midnightblue" d="M2761.49,-249.081C2765.11,-239.726 2768.94,-229.799 2772.31,-221.092"/>
<polygon fill="midnightblue" stroke="midnightblue" points="2758.17,-247.957 2757.83,-258.547 2764.7,-250.48 2758.17,-247.957"/>
</g>
<!-- Node25&#45;&gt;Node16 -->
<g id="edge28" class="edge"><title>Node25&#45;&gt;Node16</title>
<path fill="none" stroke="midnightblue" d="M2731.93,-163.404C2714.74,-152.894 2695.69,-141.255 2679.27,-131.221"/>
<polygon fill="midnightblue" stroke="midnightblue" points="2730.38,-166.555 2740.74,-168.783 2734.03,-160.582 2730.38,-166.555"/>
</g>
<!-- Node25&#45;&gt;Node24 -->
<g id="edge27" class="edge"><title>Node25&#45;&gt;Node24</title>
<path fill="none" stroke="midnightblue" d="M2850.68,-164.942C2876.53,-154.008 2905.67,-141.679 2930.6,-131.133"/>
<polygon fill="midnightblue" stroke="midnightblue" points="2849.17,-161.781 2841.33,-168.901 2851.9,-168.227 2849.17,-161.781"/>
</g>
<!-- Node26 -->
<g id="node26" class="node"><title>Node26</title>
<g id="a_node26"><a xlink:href="SkeletonBoneDrawable_8cpp.html" target="_top" xlink:title="/home/travis/build\l/STORM&#45;IRIT/Radium&#45;Engine\l/Plugins/Animation/src/Drawing\l/SkeletonBoneDrawable.cpp">
<polygon fill="white" stroke="black" points="2737,-79 2737,-131 2891,-131 2891,-79 2737,-79"/>
<text text-anchor="start" x="2745" y="-119" font-family="Helvetica,sans-Serif" font-size="10.00">/home/travis/build</text>
<text text-anchor="start" x="2745" y="-108" font-family="Helvetica,sans-Serif" font-size="10.00">/STORM&#45;IRIT/Radium&#45;Engine</text>
<text text-anchor="start" x="2745" y="-97" font-family="Helvetica,sans-Serif" font-size="10.00">/Plugins/Animation/src/Drawing</text>
<text text-anchor="middle" x="2814" y="-86" font-family="Helvetica,sans-Serif" font-size="10.00">/SkeletonBoneDrawable.cpp</text>
</a>
</g>
</g>
<!-- Node25&#45;&gt;Node26 -->
<g id="edge29" class="edge"><title>Node25&#45;&gt;Node26</title>
<path fill="none" stroke="midnightblue" d="M2794.7,-159.081C2798.1,-149.726 2801.71,-139.799 2804.88,-131.092"/>
<polygon fill="midnightblue" stroke="midnightblue" points="2791.38,-157.953 2791.26,-168.547 2797.96,-160.345 2791.38,-157.953"/>
</g>
<!-- Node27&#45;&gt;Node18 -->
<g id="edge32" class="edge"><title>Node27&#45;&gt;Node18</title>
<path fill="none" stroke="midnightblue" d="M2505.22,-254.279C2503.64,-230.125 2499.2,-195.648 2487,-168 2480.08,-152.31 2468.23,-137.16 2457.92,-125.764"/>
<polygon fill="midnightblue" stroke="midnightblue" points="2501.73,-254.467 2505.75,-264.268 2508.72,-254.097 2501.73,-254.467"/>
</g>
<!-- Node28 -->
<g id="node28" class="node"><title>Node28</title>
<g id="a_node28"><a xlink:href="SkinningComponent_8cpp.html" target="_top" xlink:title="/home/travis/build\l/STORM&#45;IRIT/Radium&#45;Engine\l/Plugins/Skinning/src/SkinningComponent.cpp">
<polygon fill="white" stroke="black" points="2260,-174.5 2260,-215.5 2478,-215.5 2478,-174.5 2260,-174.5"/>
<text text-anchor="start" x="2268" y="-203.5" font-family="Helvetica,sans-Serif" font-size="10.00">/home/travis/build</text>
<text text-anchor="start" x="2268" y="-192.5" font-family="Helvetica,sans-Serif" font-size="10.00">/STORM&#45;IRIT/Radium&#45;Engine</text>
<text text-anchor="middle" x="2369" y="-181.5" font-family="Helvetica,sans-Serif" font-size="10.00">/Plugins/Skinning/src/SkinningComponent.cpp</text>
</a>
</g>
</g>
<!-- Node27&#45;&gt;Node28 -->
<g id="edge31" class="edge"><title>Node27&#45;&gt;Node28</title>
<path fill="none" stroke="midnightblue" d="M2467.08,-258.999C2445.75,-245.3 2419.69,-228.56 2399.79,-215.78"/>
<polygon fill="midnightblue" stroke="midnightblue" points="2465.29,-262.01 2475.6,-264.47 2469.07,-256.121 2465.29,-262.01"/>
</g>
</g>
</svg>
