<?xml version="1.0" encoding="UTF-8" standalone="no"?>
<!DOCTYPE svg PUBLIC "-//W3C//DTD SVG 1.1//EN"
 "http://www.w3.org/Graphics/SVG/1.1/DTD/svg11.dtd">
<!-- Generated by graphviz version 2.36.0 (20140111.2315)
 -->
<!-- Title: /home/travis/build/STORM&#45;IRIT/Radium&#45;Engine/src/Core/Animation/Handle/Handle.hpp Pages: 1 -->
<svg width="1207pt" height="434pt"
 viewBox="0.00 0.00 1207.00 434.00" xmlns="http://www.w3.org/2000/svg" xmlns:xlink="http://www.w3.org/1999/xlink">
<g id="graph0" class="graph" transform="scale(1 1) rotate(0) translate(4 430)">
<title>/home/travis/build/STORM&#45;IRIT/Radium&#45;Engine/src/Core/Animation/Handle/Handle.hpp</title>
<polygon fill="white" stroke="none" points="-4,4 -4,-430 1203,-430 1203,4 -4,4"/>
<!-- Node1 -->
<g id="node1" class="node"><title>Node1</title>
<polygon fill="#bfbfbf" stroke="black" points="934,-373 934,-425 1082,-425 1082,-373 934,-373"/>
<text text-anchor="start" x="942" y="-413" font-family="Helvetica,sans-Serif" font-size="10.00">/home/travis/build</text>
<text text-anchor="start" x="942" y="-402" font-family="Helvetica,sans-Serif" font-size="10.00">/STORM&#45;IRIT/Radium&#45;Engine</text>
<text text-anchor="start" x="942" y="-391" font-family="Helvetica,sans-Serif" font-size="10.00">/src/Core/Animation/Handle</text>
<text text-anchor="middle" x="1008" y="-380" font-family="Helvetica,sans-Serif" font-size="10.00">/Handle.hpp</text>
</g>
<!-- Node2 -->
<g id="node2" class="node"><title>Node2</title>
<g id="a_node2"><a xlink:href="Pose_8hpp.html" target="_top" xlink:title="Core/Animation/Pose\l/Pose.hpp">
<polygon fill="white" stroke="black" points="953,-305 953,-335 1063,-335 1063,-305 953,-305"/>
<text text-anchor="start" x="961" y="-323" font-family="Helvetica,sans-Serif" font-size="10.00">Core/Animation/Pose</text>
<text text-anchor="middle" x="1008" y="-312" font-family="Helvetica,sans-Serif" font-size="10.00">/Pose.hpp</text>
</a>
</g>
</g>
<!-- Node1&#45;&gt;Node2 -->
<g id="edge1" class="edge"><title>Node1&#45;&gt;Node2</title>
<path fill="none" stroke="midnightblue" d="M1008,-372.787C1008,-364.029 1008,-354.225 1008,-345.523"/>
<polygon fill="midnightblue" stroke="midnightblue" points="1011.5,-345.252 1008,-335.252 1004.5,-345.252 1011.5,-345.252"/>
</g>
<!-- Node4 -->
<g id="node4" class="node"><title>Node4</title>
<g id="a_node4"><a xlink:href="RaCore_8hpp.html" target="_top" xlink:title="Core/RaCore.hpp">
<polygon fill="white" stroke="black" points="859.5,-112.5 859.5,-131.5 952.5,-131.5 952.5,-112.5 859.5,-112.5"/>
<text text-anchor="middle" x="906" y="-119.5" font-family="Helvetica,sans-Serif" font-size="10.00">Core/RaCore.hpp</text>
</a>
</g>
</g>
<!-- Node1&#45;&gt;Node4 -->
<g id="edge27" class="edge"><title>Node1&#45;&gt;Node4</title>
<path fill="none" stroke="midnightblue" d="M974.43,-372.808C963.076,-362.603 951.411,-349.931 944,-336 909.466,-271.085 905.527,-180.906 905.585,-142.054"/>
<polygon fill="midnightblue" stroke="midnightblue" points="909.089,-141.768 905.702,-131.729 902.089,-141.689 909.089,-141.768"/>
</g>
<!-- Node13 -->
<g id="node13" class="node"><title>Node13</title>
<g id="a_node13"><a xlink:href="LinearAlgebra_8hpp.html" target="_top" xlink:title="Core/Math/LinearAlgebra.hpp">
<polygon fill="white" stroke="black" points="559.5,-242.5 559.5,-261.5 702.5,-261.5 702.5,-242.5 559.5,-242.5"/>
<text text-anchor="middle" x="631" y="-249.5" font-family="Helvetica,sans-Serif" font-size="10.00">Core/Math/LinearAlgebra.hpp</text>
</a>
</g>
</g>
<!-- Node1&#45;&gt;Node13 -->
<g id="edge26" class="edge"><title>Node1&#45;&gt;Node13</title>
<path fill="none" stroke="midnightblue" d="M942.762,-372.908C861.112,-341.505 724.517,-288.968 662.884,-265.263"/>
<polygon fill="midnightblue" stroke="midnightblue" points="663.9,-261.904 653.31,-261.581 661.387,-268.437 663.9,-261.904"/>
</g>
<!-- Node24 -->
<g id="node24" class="node"><title>Node24</title>
<g id="a_node24"><a xlink:href="Handle_8inl.html" target="_top" xlink:title="Core/Animation/Handle\l/Handle.inl">
<polygon fill="white" stroke="black" points="1081,-305 1081,-335 1199,-335 1199,-305 1081,-305"/>
<text text-anchor="start" x="1089" y="-323" font-family="Helvetica,sans-Serif" font-size="10.00">Core/Animation/Handle</text>
<text text-anchor="middle" x="1140" y="-312" font-family="Helvetica,sans-Serif" font-size="10.00">/Handle.inl</text>
</a>
</g>
</g>
<!-- Node1&#45;&gt;Node24 -->
<g id="edge28" class="edge"><title>Node1&#45;&gt;Node24</title>
<path fill="none" stroke="midnightblue" d="M1044.84,-372.787C1062.54,-362.105 1083.67,-349.868 1101.57,-339.972"/>
<polygon fill="midnightblue" stroke="midnightblue" points="1103.5,-342.902 1110.6,-335.031 1100.14,-336.761 1103.5,-342.902"/>
</g>
<!-- Node3 -->
<g id="node3" class="node"><title>Node3</title>
<g id="a_node3"><a xlink:href="AlignedStdVector_8hpp.html" target="_top" xlink:title="Core/Containers/AlignedStd\lVector.hpp">
<polygon fill="white" stroke="black" points="959,-237 959,-267 1097,-267 1097,-237 959,-237"/>
<text text-anchor="start" x="967" y="-255" font-family="Helvetica,sans-Serif" font-size="10.00">Core/Containers/AlignedStd</text>
<text text-anchor="middle" x="1028" y="-244" font-family="Helvetica,sans-Serif" font-size="10.00">Vector.hpp</text>
</a>
</g>
</g>
<!-- Node2&#45;&gt;Node3 -->
<g id="edge2" class="edge"><title>Node2&#45;&gt;Node3</title>
<path fill="none" stroke="midnightblue" d="M1012.34,-304.679C1014.78,-296.636 1017.88,-286.385 1020.69,-277.137"/>
<polygon fill="midnightblue" stroke="midnightblue" points="1024.12,-277.878 1023.67,-267.293 1017.42,-275.848 1024.12,-277.878"/>
</g>
<!-- Node2&#45;&gt;Node13 -->
<g id="edge12" class="edge"><title>Node2&#45;&gt;Node13</title>
<path fill="none" stroke="midnightblue" d="M952.777,-309.332C882.601,-297.047 761.967,-275.928 690.023,-263.333"/>
<polygon fill="midnightblue" stroke="midnightblue" points="690.227,-259.815 679.773,-261.539 689.02,-266.711 690.227,-259.815"/>
</g>
<!-- Node3&#45;&gt;Node4 -->
<g id="edge3" class="edge"><title>Node3&#45;&gt;Node4</title>
<path fill="none" stroke="midnightblue" d="M1014.48,-236.813C991.526,-212.732 945.104,-164.028 921.114,-138.858"/>
<polygon fill="midnightblue" stroke="midnightblue" points="923.605,-136.398 914.172,-131.574 918.538,-141.227 923.605,-136.398"/>
</g>
<!-- Node11 -->
<g id="node11" class="node"><title>Node11</title>
<polygon fill="white" stroke="#bfbfbf" points="991,-174.5 991,-193.5 1079,-193.5 1079,-174.5 991,-174.5"/>
<text text-anchor="middle" x="1035" y="-181.5" font-family="Helvetica,sans-Serif" font-size="10.00">Eigen/StdVector</text>
</g>
<!-- Node3&#45;&gt;Node11 -->
<g id="edge10" class="edge"><title>Node3&#45;&gt;Node11</title>
<path fill="none" stroke="midnightblue" d="M1029.52,-236.679C1030.53,-227.101 1031.88,-214.394 1032.99,-203.977"/>
<polygon fill="midnightblue" stroke="midnightblue" points="1036.49,-204.142 1034.06,-193.828 1029.53,-203.403 1036.49,-204.142"/>
</g>
<!-- Node12 -->
<g id="node12" class="node"><title>Node12</title>
<polygon fill="white" stroke="#bfbfbf" points="1097,-174.5 1097,-193.5 1141,-193.5 1141,-174.5 1097,-174.5"/>
<text text-anchor="middle" x="1119" y="-181.5" font-family="Helvetica,sans-Serif" font-size="10.00">vector</text>
</g>
<!-- Node3&#45;&gt;Node12 -->
<g id="edge11" class="edge"><title>Node3&#45;&gt;Node12</title>
<path fill="none" stroke="midnightblue" d="M1047.75,-236.679C1062.86,-225.713 1083.64,-210.645 1098.86,-199.609"/>
<polygon fill="midnightblue" stroke="midnightblue" points="1101.05,-202.342 1107.09,-193.638 1096.94,-196.676 1101.05,-202.342"/>
</g>
<!-- Node5 -->
<g id="node5" class="node"><title>Node5</title>
<g id="a_node5"><a xlink:href="CoreMacros_8hpp.html" target="_top" xlink:title="Core/CoreMacros.hpp">
<polygon fill="white" stroke="black" points="849.5,-56.5 849.5,-75.5 962.5,-75.5 962.5,-56.5 849.5,-56.5"/>
<text text-anchor="middle" x="906" y="-63.5" font-family="Helvetica,sans-Serif" font-size="10.00">Core/CoreMacros.hpp</text>
</a>
</g>
</g>
<!-- Node4&#45;&gt;Node5 -->
<g id="edge4" class="edge"><title>Node4&#45;&gt;Node5</title>
<path fill="none" stroke="midnightblue" d="M906,-112.083C906,-105.006 906,-94.8611 906,-85.9865"/>
<polygon fill="midnightblue" stroke="midnightblue" points="909.5,-85.751 906,-75.7511 902.5,-85.7511 909.5,-85.751"/>
</g>
<!-- Node6 -->
<g id="node6" class="node"><title>Node6</title>
<polygon fill="white" stroke="#bfbfbf" points="750.5,-0.5 750.5,-19.5 799.5,-19.5 799.5,-0.5 750.5,-0.5"/>
<text text-anchor="middle" x="775" y="-7.5" font-family="Helvetica,sans-Serif" font-size="10.00">cassert</text>
</g>
<!-- Node5&#45;&gt;Node6 -->
<g id="edge5" class="edge"><title>Node5&#45;&gt;Node6</title>
<path fill="none" stroke="midnightblue" d="M885.243,-56.4435C863.684,-47.5566 829.737,-33.5632 805.206,-23.4514"/>
<polygon fill="midnightblue" stroke="midnightblue" points="806.239,-20.0917 795.66,-19.5164 803.572,-26.5634 806.239,-20.0917"/>
</g>
<!-- Node7 -->
<g id="node7" class="node"><title>Node7</title>
<polygon fill="white" stroke="#bfbfbf" points="817.5,-0.5 817.5,-19.5 860.5,-19.5 860.5,-0.5 817.5,-0.5"/>
<text text-anchor="middle" x="839" y="-7.5" font-family="Helvetica,sans-Serif" font-size="10.00">cstdio</text>
</g>
<!-- Node5&#45;&gt;Node7 -->
<g id="edge6" class="edge"><title>Node5&#45;&gt;Node7</title>
<path fill="none" stroke="midnightblue" d="M895.235,-56.324C885.234,-48.2631 870.113,-36.0765 858.07,-26.3695"/>
<polygon fill="midnightblue" stroke="midnightblue" points="859.943,-23.3841 849.961,-19.8339 855.55,-28.8343 859.943,-23.3841"/>
</g>
<!-- Node8 -->
<g id="node8" class="node"><title>Node8</title>
<polygon fill="white" stroke="#bfbfbf" points="879,-0.5 879,-19.5 933,-19.5 933,-0.5 879,-0.5"/>
<text text-anchor="middle" x="906" y="-7.5" font-family="Helvetica,sans-Serif" font-size="10.00">iostream</text>
</g>
<!-- Node5&#45;&gt;Node8 -->
<g id="edge7" class="edge"><title>Node5&#45;&gt;Node8</title>
<path fill="none" stroke="midnightblue" d="M906,-56.083C906,-49.0059 906,-38.8611 906,-29.9865"/>
<polygon fill="midnightblue" stroke="midnightblue" points="909.5,-29.751 906,-19.7511 902.5,-29.7511 909.5,-29.751"/>
</g>
<!-- Node9 -->
<g id="node9" class="node"><title>Node9</title>
<polygon fill="white" stroke="#bfbfbf" points="951,-0.5 951,-19.5 1003,-19.5 1003,-0.5 951,-0.5"/>
<text text-anchor="middle" x="977" y="-7.5" font-family="Helvetica,sans-Serif" font-size="10.00">sstream</text>
</g>
<!-- Node5&#45;&gt;Node9 -->
<g id="edge8" class="edge"><title>Node5&#45;&gt;Node9</title>
<path fill="none" stroke="midnightblue" d="M917.407,-56.324C928.109,-48.1849 944.341,-35.8395 957.163,-26.0874"/>
<polygon fill="midnightblue" stroke="midnightblue" points="959.544,-28.6734 965.385,-19.8339 955.307,-23.1018 959.544,-28.6734"/>
</g>
<!-- Node10 -->
<g id="node10" class="node"><title>Node10</title>
<polygon fill="white" stroke="#bfbfbf" points="1021,-0.5 1021,-19.5 1065,-19.5 1065,-0.5 1021,-0.5"/>
<text text-anchor="middle" x="1043" y="-7.5" font-family="Helvetica,sans-Serif" font-size="10.00">thread</text>
</g>
<!-- Node5&#45;&gt;Node10 -->
<g id="edge9" class="edge"><title>Node5&#45;&gt;Node10</title>
<path fill="none" stroke="midnightblue" d="M927.708,-56.4435C950.355,-47.5171 986.072,-33.4387 1011.75,-23.3168"/>
<polygon fill="midnightblue" stroke="midnightblue" points="1013.37,-26.4397 1021.39,-19.5164 1010.81,-19.9273 1013.37,-26.4397"/>
</g>
<!-- Node13&#45;&gt;Node4 -->
<g id="edge13" class="edge"><title>Node13&#45;&gt;Node4</title>
<path fill="none" stroke="midnightblue" d="M701.957,-242.474C761.757,-234.079 841.533,-219.659 867,-200 885.86,-185.441 896.337,-159.264 901.569,-141.516"/>
<polygon fill="midnightblue" stroke="midnightblue" points="904.982,-142.299 904.177,-131.735 898.219,-140.496 904.982,-142.299"/>
</g>
<!-- Node14 -->
<g id="node14" class="node"><title>Node14</title>
<polygon fill="white" stroke="#bfbfbf" points="793.5,-174.5 793.5,-193.5 858.5,-193.5 858.5,-174.5 793.5,-174.5"/>
<text text-anchor="middle" x="826" y="-181.5" font-family="Helvetica,sans-Serif" font-size="10.00">Eigen/Core</text>
</g>
<!-- Node13&#45;&gt;Node14 -->
<g id="edge14" class="edge"><title>Node13&#45;&gt;Node14</title>
<path fill="none" stroke="midnightblue" d="M657.319,-242.416C687.849,-232.414 739.668,-215.303 784,-200 786.745,-199.053 789.586,-198.061 792.438,-197.058"/>
<polygon fill="midnightblue" stroke="midnightblue" points="793.787,-200.294 802.044,-193.655 791.449,-193.695 793.787,-200.294"/>
</g>
<!-- Node15 -->
<g id="node15" class="node"><title>Node15</title>
<polygon fill="white" stroke="#bfbfbf" points="212.5,-174.5 212.5,-193.5 299.5,-193.5 299.5,-174.5 212.5,-174.5"/>
<text text-anchor="middle" x="256" y="-181.5" font-family="Helvetica,sans-Serif" font-size="10.00">Eigen/Geometry</text>
</g>
<!-- Node13&#45;&gt;Node15 -->
<g id="edge15" class="edge"><title>Node13&#45;&gt;Node15</title>
<path fill="none" stroke="midnightblue" d="M560.906,-242.489C495.16,-233.904 394.314,-219.186 308,-200 303.153,-198.923 298.092,-197.651 293.11,-196.311"/>
<polygon fill="midnightblue" stroke="midnightblue" points="293.667,-192.832 283.094,-193.505 291.779,-199.573 293.667,-192.832"/>
</g>
<!-- Node16 -->
<g id="node16" class="node"><title>Node16</title>
<polygon fill="white" stroke="#bfbfbf" points="317.5,-174.5 317.5,-193.5 392.5,-193.5 392.5,-174.5 317.5,-174.5"/>
<text text-anchor="middle" x="355" y="-181.5" font-family="Helvetica,sans-Serif" font-size="10.00">Eigen/Sparse</text>
</g>
<!-- Node13&#45;&gt;Node16 -->
<g id="edge16" class="edge"><title>Node13&#45;&gt;Node16</title>
<path fill="none" stroke="midnightblue" d="M586.595,-242.485C540.042,-233.248 464.916,-217.463 401,-200 397.189,-198.959 393.226,-197.794 389.295,-196.586"/>
<polygon fill="midnightblue" stroke="midnightblue" points="390.285,-193.228 379.695,-193.54 388.168,-199.9 390.285,-193.228"/>
</g>
<!-- Node17 -->
<g id="node17" class="node"><title>Node17</title>
<polygon fill="white" stroke="#bfbfbf" points="410.5,-174.5 410.5,-193.5 469.5,-193.5 469.5,-174.5 410.5,-174.5"/>
<text text-anchor="middle" x="440" y="-181.5" font-family="Helvetica,sans-Serif" font-size="10.00">functional</text>
</g>
<!-- Node13&#45;&gt;Node17 -->
<g id="edge17" class="edge"><title>Node13&#45;&gt;Node17</title>
<path fill="none" stroke="midnightblue" d="M603.761,-242.413C573.044,-232.615 521.679,-215.888 478,-200 475.609,-199.13 473.142,-198.21 470.666,-197.27"/>
<polygon fill="midnightblue" stroke="midnightblue" points="471.815,-193.961 461.226,-193.614 469.287,-200.489 471.815,-193.961"/>
</g>
<!-- Node18 -->
<g id="node18" class="node"><title>Node18</title>
<polygon fill="white" stroke="#bfbfbf" points="487.5,-169 487.5,-199 620.5,-199 620.5,-169 487.5,-169"/>
<text text-anchor="start" x="495.5" y="-187" font-family="Helvetica,sans-Serif" font-size="10.00">unsupported/Eigen/Aligned</text>
<text text-anchor="middle" x="554" y="-176" font-family="Helvetica,sans-Serif" font-size="10.00">Vector3</text>
</g>
<!-- Node13&#45;&gt;Node18 -->
<g id="edge18" class="edge"><title>Node13&#45;&gt;Node18</title>
<path fill="none" stroke="midnightblue" d="M620.934,-242.372C610.133,-233.114 592.588,-218.076 578.17,-205.718"/>
<polygon fill="midnightblue" stroke="midnightblue" points="580.415,-203.032 570.545,-199.181 575.86,-208.347 580.415,-203.032"/>
</g>
<!-- Node19 -->
<g id="node19" class="node"><title>Node19</title>
<g id="a_node19"><a xlink:href="Math_8hpp.html" target="_top" xlink:title="Core/Math/Math.hpp">
<polygon fill="white" stroke="black" points="88,-174.5 88,-193.5 194,-193.5 194,-174.5 88,-174.5"/>
<text text-anchor="middle" x="141" y="-181.5" font-family="Helvetica,sans-Serif" font-size="10.00">Core/Math/Math.hpp</text>
</a>
</g>
</g>
<!-- Node13&#45;&gt;Node19 -->
<g id="edge19" class="edge"><title>Node13&#45;&gt;Node19</title>
<path fill="none" stroke="midnightblue" d="M559.429,-245.091C474.124,-237.445 327.467,-222.39 203,-200 196.562,-198.842 189.795,-197.42 183.193,-195.917"/>
<polygon fill="midnightblue" stroke="midnightblue" points="183.562,-192.408 173.025,-193.516 181.953,-199.221 183.562,-192.408"/>
</g>
<!-- Node23 -->
<g id="node23" class="node"><title>Node23</title>
<g id="a_node23"><a xlink:href="LinearAlgebra_8inl.html" target="_top" xlink:title="Core/Math/LinearAlgebra.inl">
<polygon fill="white" stroke="black" points="638.5,-174.5 638.5,-193.5 775.5,-193.5 775.5,-174.5 638.5,-174.5"/>
<text text-anchor="middle" x="707" y="-181.5" font-family="Helvetica,sans-Serif" font-size="10.00">Core/Math/LinearAlgebra.inl</text>
</a>
</g>
</g>
<!-- Node13&#45;&gt;Node23 -->
<g id="edge25" class="edge"><title>Node13&#45;&gt;Node23</title>
<path fill="none" stroke="midnightblue" d="M640.936,-242.372C653.157,-231.758 674.13,-213.545 689.168,-200.485"/>
<polygon fill="midnightblue" stroke="midnightblue" points="691.564,-203.041 696.819,-193.841 686.974,-197.755 691.564,-203.041"/>
</g>
<!-- Node19&#45;&gt;Node4 -->
<g id="edge20" class="edge"><title>Node19&#45;&gt;Node4</title>
<path fill="none" stroke="midnightblue" d="M171.697,-174.459C181.615,-172 192.708,-169.562 203,-168 441.209,-131.84 729.12,-124.685 849.161,-123.307"/>
<polygon fill="midnightblue" stroke="midnightblue" points="849.262,-126.806 859.224,-123.201 849.188,-119.807 849.262,-126.806"/>
</g>
<!-- Node20 -->
<g id="node20" class="node"><title>Node20</title>
<polygon fill="white" stroke="#bfbfbf" points="0,-112.5 0,-131.5 56,-131.5 56,-112.5 0,-112.5"/>
<text text-anchor="middle" x="28" y="-119.5" font-family="Helvetica,sans-Serif" font-size="10.00">algorithm</text>
</g>
<!-- Node19&#45;&gt;Node20 -->
<g id="edge21" class="edge"><title>Node19&#45;&gt;Node20</title>
<path fill="none" stroke="midnightblue" d="M124.81,-174.403C106.098,-164.468 75.0769,-147.997 53.2013,-136.381"/>
<polygon fill="midnightblue" stroke="midnightblue" points="54.6337,-133.179 44.1601,-131.581 51.3509,-139.362 54.6337,-133.179"/>
</g>
<!-- Node21 -->
<g id="node21" class="node"><title>Node21</title>
<polygon fill="white" stroke="#bfbfbf" points="74,-112.5 74,-131.5 118,-131.5 118,-112.5 74,-112.5"/>
<text text-anchor="middle" x="96" y="-119.5" font-family="Helvetica,sans-Serif" font-size="10.00">cmath</text>
</g>
<!-- Node19&#45;&gt;Node21 -->
<g id="edge22" class="edge"><title>Node19&#45;&gt;Node21</title>
<path fill="none" stroke="midnightblue" d="M134.553,-174.403C127.803,-165.403 117.031,-151.041 108.587,-139.782"/>
<polygon fill="midnightblue" stroke="midnightblue" points="111.235,-137.481 102.435,-131.581 105.635,-141.681 111.235,-137.481"/>
</g>
<!-- Node22 -->
<g id="node22" class="node"><title>Node22</title>
<g id="a_node22"><a xlink:href="Math_8inl.html" target="_top" xlink:title="Core/Math/Math.inl">
<polygon fill="white" stroke="black" points="136,-112.5 136,-131.5 236,-131.5 236,-112.5 136,-112.5"/>
<text text-anchor="middle" x="186" y="-119.5" font-family="Helvetica,sans-Serif" font-size="10.00">Core/Math/Math.inl</text>
</a>
</g>
</g>
<!-- Node19&#45;&gt;Node22 -->
<g id="edge23" class="edge"><title>Node19&#45;&gt;Node22</title>
<path fill="none" stroke="midnightblue" d="M142.547,-174.403C147.445,-165.225 158.125,-150.47 167.85,-139.117"/>
<polygon fill="midnightblue" stroke="midnightblue" points="170.555,-141.345 174.667,-131.581 165.364,-136.649 170.555,-141.345"/>
</g>
<!-- Node22&#45;&gt;Node19 -->
<g id="edge24" class="edge"><title>Node22&#45;&gt;Node19</title>
<path fill="none" stroke="midnightblue" d="M184.462,-131.581C179.57,-140.752 168.893,-155.506 159.166,-166.863"/>
<polygon fill="midnightblue" stroke="midnightblue" points="156.459,-164.639 152.348,-174.403 161.651,-169.334 156.459,-164.639"/>
</g>
<!-- Node24&#45;&gt;Node1 -->
<g id="edge29" class="edge"><title>Node24&#45;&gt;Node1</title>
<path fill="none" stroke="midnightblue" d="M1121.3,-335.031C1106.81,-344.198 1086.1,-356.525 1066.31,-367.843"/>
<polygon fill="midnightblue" stroke="midnightblue" points="1064.57,-364.805 1057.6,-372.787 1068.02,-370.891 1064.57,-364.805"/>
</g>
</g>
</svg>
