<?xml version="1.0" encoding="UTF-8" standalone="no"?>
<!DOCTYPE svg PUBLIC "-//W3C//DTD SVG 1.1//EN"
 "http://www.w3.org/Graphics/SVG/1.1/DTD/svg11.dtd">
<!-- Generated by graphviz version 2.36.0 (20140111.2315)
 -->
<!-- Title: /home/travis/build/STORM&#45;IRIT/Radium&#45;Engine/src/Core/Animation/Handle/Handle.inl Pages: 1 -->
<svg width="1046pt" height="502pt"
 viewBox="0.00 0.00 1046.25 502.00" xmlns="http://www.w3.org/2000/svg" xmlns:xlink="http://www.w3.org/1999/xlink">
<g id="graph0" class="graph" transform="scale(1 1) rotate(0) translate(4 498)">
<title>/home/travis/build/STORM&#45;IRIT/Radium&#45;Engine/src/Core/Animation/Handle/Handle.inl</title>
<polygon fill="white" stroke="none" points="-4,4 -4,-498 1042.25,-498 1042.25,4 -4,4"/>
<!-- Node1 -->
<g id="node1" class="node"><title>Node1</title>
<polygon fill="#bfbfbf" stroke="black" points="739,-441 739,-493 887,-493 887,-441 739,-441"/>
<text text-anchor="start" x="747" y="-481" font-family="Helvetica,sans-Serif" font-size="10.00">/home/travis/build</text>
<text text-anchor="start" x="747" y="-470" font-family="Helvetica,sans-Serif" font-size="10.00">/STORM&#45;IRIT/Radium&#45;Engine</text>
<text text-anchor="start" x="747" y="-459" font-family="Helvetica,sans-Serif" font-size="10.00">/src/Core/Animation/Handle</text>
<text text-anchor="middle" x="813" y="-448" font-family="Helvetica,sans-Serif" font-size="10.00">/Handle.inl</text>
</g>
<!-- Node2 -->
<g id="node2" class="node"><title>Node2</title>
<g id="a_node2"><a xlink:href="Handle_8hpp.html" target="_top" xlink:title="Core/Animation/Handle\l/Handle.hpp">
<polygon fill="white" stroke="black" points="754,-373 754,-403 872,-403 872,-373 754,-373"/>
<text text-anchor="start" x="762" y="-391" font-family="Helvetica,sans-Serif" font-size="10.00">Core/Animation/Handle</text>
<text text-anchor="middle" x="813" y="-380" font-family="Helvetica,sans-Serif" font-size="10.00">/Handle.hpp</text>
</a>
</g>
</g>
<!-- Node1&#45;&gt;Node2 -->
<g id="edge1" class="edge"><title>Node1&#45;&gt;Node2</title>
<path fill="none" stroke="midnightblue" d="M806.621,-440.787C806.107,-431.932 806.127,-422.007 806.68,-413.234"/>
<polygon fill="midnightblue" stroke="midnightblue" points="810.167,-413.536 807.619,-403.252 803.198,-412.88 810.167,-413.536"/>
</g>
<!-- Node2&#45;&gt;Node1 -->
<g id="edge29" class="edge"><title>Node2&#45;&gt;Node1</title>
<path fill="none" stroke="midnightblue" d="M818.381,-403.252C819.4,-410.969 819.85,-420.877 819.731,-430.529"/>
<polygon fill="midnightblue" stroke="midnightblue" points="816.224,-430.673 819.379,-440.787 823.22,-430.913 816.224,-430.673"/>
</g>
<!-- Node3 -->
<g id="node3" class="node"><title>Node3</title>
<g id="a_node3"><a xlink:href="Pose_8hpp.html" target="_top" xlink:title="Core/Animation/Pose\l/Pose.hpp">
<polygon fill="white" stroke="black" points="758,-305 758,-335 868,-335 868,-305 758,-305"/>
<text text-anchor="start" x="766" y="-323" font-family="Helvetica,sans-Serif" font-size="10.00">Core/Animation/Pose</text>
<text text-anchor="middle" x="813" y="-312" font-family="Helvetica,sans-Serif" font-size="10.00">/Pose.hpp</text>
</a>
</g>
</g>
<!-- Node2&#45;&gt;Node3 -->
<g id="edge2" class="edge"><title>Node2&#45;&gt;Node3</title>
<path fill="none" stroke="midnightblue" d="M813,-372.679C813,-364.722 813,-354.605 813,-345.436"/>
<polygon fill="midnightblue" stroke="midnightblue" points="816.5,-345.293 813,-335.293 809.5,-345.293 816.5,-345.293"/>
</g>
<!-- Node5 -->
<g id="node5" class="node"><title>Node5</title>
<g id="a_node5"><a xlink:href="RaCore_8hpp.html" target="_top" xlink:title="Core/RaCore.hpp">
<polygon fill="white" stroke="black" points="782.5,-112.5 782.5,-131.5 875.5,-131.5 875.5,-112.5 782.5,-112.5"/>
<text text-anchor="middle" x="829" y="-119.5" font-family="Helvetica,sans-Serif" font-size="10.00">Core/RaCore.hpp</text>
</a>
</g>
</g>
<!-- Node2&#45;&gt;Node5 -->
<g id="edge28" class="edge"><title>Node2&#45;&gt;Node5</title>
<path fill="none" stroke="midnightblue" d="M845.926,-372.998C920.176,-339.5 1089.2,-251.309 1023,-168 1006.1,-146.727 936.823,-134.613 885.856,-128.43"/>
<polygon fill="midnightblue" stroke="midnightblue" points="885.944,-124.917 875.606,-127.236 885.134,-131.87 885.944,-124.917"/>
</g>
<!-- Node14 -->
<g id="node14" class="node"><title>Node14</title>
<g id="a_node14"><a xlink:href="LinearAlgebra_8hpp.html" target="_top" xlink:title="Core/Math/LinearAlgebra.hpp">
<polygon fill="white" stroke="black" points="492.5,-242.5 492.5,-261.5 635.5,-261.5 635.5,-242.5 492.5,-242.5"/>
<text text-anchor="middle" x="564" y="-249.5" font-family="Helvetica,sans-Serif" font-size="10.00">Core/Math/LinearAlgebra.hpp</text>
</a>
</g>
</g>
<!-- Node2&#45;&gt;Node14 -->
<g id="edge27" class="edge"><title>Node2&#45;&gt;Node14</title>
<path fill="none" stroke="midnightblue" d="M786.823,-372.913C738.579,-346.95 636.253,-291.883 588.945,-266.424"/>
<polygon fill="midnightblue" stroke="midnightblue" points="590.451,-263.26 579.987,-261.603 587.134,-269.424 590.451,-263.26"/>
</g>
<!-- Node4 -->
<g id="node4" class="node"><title>Node4</title>
<g id="a_node4"><a xlink:href="AlignedStdVector_8hpp.html" target="_top" xlink:title="Core/Containers/AlignedStd\lVector.hpp">
<polygon fill="white" stroke="black" points="804,-237 804,-267 942,-267 942,-237 804,-237"/>
<text text-anchor="start" x="812" y="-255" font-family="Helvetica,sans-Serif" font-size="10.00">Core/Containers/AlignedStd</text>
<text text-anchor="middle" x="873" y="-244" font-family="Helvetica,sans-Serif" font-size="10.00">Vector.hpp</text>
</a>
</g>
</g>
<!-- Node3&#45;&gt;Node4 -->
<g id="edge3" class="edge"><title>Node3&#45;&gt;Node4</title>
<path fill="none" stroke="midnightblue" d="M826.019,-304.679C833.96,-295.944 844.268,-284.605 853.205,-274.775"/>
<polygon fill="midnightblue" stroke="midnightblue" points="855.869,-277.047 860.006,-267.293 850.69,-272.338 855.869,-277.047"/>
</g>
<!-- Node3&#45;&gt;Node14 -->
<g id="edge13" class="edge"><title>Node3&#45;&gt;Node14</title>
<path fill="none" stroke="midnightblue" d="M759.889,-304.922C713.873,-292.725 648.206,-275.32 605.838,-264.09"/>
<polygon fill="midnightblue" stroke="midnightblue" points="606.683,-260.693 596.12,-261.514 604.89,-267.459 606.683,-260.693"/>
</g>
<!-- Node4&#45;&gt;Node5 -->
<g id="edge4" class="edge"><title>Node4&#45;&gt;Node5</title>
<path fill="none" stroke="midnightblue" d="M868.123,-236.813C860.096,-213.461 844.11,-166.957 835.259,-141.209"/>
<polygon fill="midnightblue" stroke="midnightblue" points="838.508,-139.893 831.947,-131.574 831.888,-142.168 838.508,-139.893"/>
</g>
<!-- Node12 -->
<g id="node12" class="node"><title>Node12</title>
<polygon fill="white" stroke="#bfbfbf" points="865,-174.5 865,-193.5 953,-193.5 953,-174.5 865,-174.5"/>
<text text-anchor="middle" x="909" y="-181.5" font-family="Helvetica,sans-Serif" font-size="10.00">Eigen/StdVector</text>
</g>
<!-- Node4&#45;&gt;Node12 -->
<g id="edge11" class="edge"><title>Node4&#45;&gt;Node12</title>
<path fill="none" stroke="midnightblue" d="M880.811,-236.679C886.258,-226.694 893.56,-213.307 899.367,-202.66"/>
<polygon fill="midnightblue" stroke="midnightblue" points="902.469,-204.283 904.185,-193.828 896.323,-200.931 902.469,-204.283"/>
</g>
<!-- Node13 -->
<g id="node13" class="node"><title>Node13</title>
<polygon fill="white" stroke="#bfbfbf" points="971,-174.5 971,-193.5 1015,-193.5 1015,-174.5 971,-174.5"/>
<text text-anchor="middle" x="993" y="-181.5" font-family="Helvetica,sans-Serif" font-size="10.00">vector</text>
</g>
<!-- Node4&#45;&gt;Node13 -->
<g id="edge12" class="edge"><title>Node4&#45;&gt;Node13</title>
<path fill="none" stroke="midnightblue" d="M898.743,-236.841C919.313,-225.528 947.962,-209.771 968.263,-198.605"/>
<polygon fill="midnightblue" stroke="midnightblue" points="970.139,-201.568 977.215,-193.682 966.766,-195.434 970.139,-201.568"/>
</g>
<!-- Node6 -->
<g id="node6" class="node"><title>Node6</title>
<g id="a_node6"><a xlink:href="CoreMacros_8hpp.html" target="_top" xlink:title="Core/CoreMacros.hpp">
<polygon fill="white" stroke="black" points="772.5,-56.5 772.5,-75.5 885.5,-75.5 885.5,-56.5 772.5,-56.5"/>
<text text-anchor="middle" x="829" y="-63.5" font-family="Helvetica,sans-Serif" font-size="10.00">Core/CoreMacros.hpp</text>
</a>
</g>
</g>
<!-- Node5&#45;&gt;Node6 -->
<g id="edge5" class="edge"><title>Node5&#45;&gt;Node6</title>
<path fill="none" stroke="midnightblue" d="M829,-112.083C829,-105.006 829,-94.8611 829,-85.9865"/>
<polygon fill="midnightblue" stroke="midnightblue" points="832.5,-85.751 829,-75.7511 825.5,-85.7511 832.5,-85.751"/>
</g>
<!-- Node7 -->
<g id="node7" class="node"><title>Node7</title>
<polygon fill="white" stroke="#bfbfbf" points="673.5,-0.5 673.5,-19.5 722.5,-19.5 722.5,-0.5 673.5,-0.5"/>
<text text-anchor="middle" x="698" y="-7.5" font-family="Helvetica,sans-Serif" font-size="10.00">cassert</text>
</g>
<!-- Node6&#45;&gt;Node7 -->
<g id="edge6" class="edge"><title>Node6&#45;&gt;Node7</title>
<path fill="none" stroke="midnightblue" d="M808.243,-56.4435C786.684,-47.5566 752.737,-33.5632 728.206,-23.4514"/>
<polygon fill="midnightblue" stroke="midnightblue" points="729.239,-20.0917 718.66,-19.5164 726.572,-26.5634 729.239,-20.0917"/>
</g>
<!-- Node8 -->
<g id="node8" class="node"><title>Node8</title>
<polygon fill="white" stroke="#bfbfbf" points="740.5,-0.5 740.5,-19.5 783.5,-19.5 783.5,-0.5 740.5,-0.5"/>
<text text-anchor="middle" x="762" y="-7.5" font-family="Helvetica,sans-Serif" font-size="10.00">cstdio</text>
</g>
<!-- Node6&#45;&gt;Node8 -->
<g id="edge7" class="edge"><title>Node6&#45;&gt;Node8</title>
<path fill="none" stroke="midnightblue" d="M818.235,-56.324C808.234,-48.2631 793.113,-36.0765 781.07,-26.3695"/>
<polygon fill="midnightblue" stroke="midnightblue" points="782.943,-23.3841 772.961,-19.8339 778.55,-28.8343 782.943,-23.3841"/>
</g>
<!-- Node9 -->
<g id="node9" class="node"><title>Node9</title>
<polygon fill="white" stroke="#bfbfbf" points="802,-0.5 802,-19.5 856,-19.5 856,-0.5 802,-0.5"/>
<text text-anchor="middle" x="829" y="-7.5" font-family="Helvetica,sans-Serif" font-size="10.00">iostream</text>
</g>
<!-- Node6&#45;&gt;Node9 -->
<g id="edge8" class="edge"><title>Node6&#45;&gt;Node9</title>
<path fill="none" stroke="midnightblue" d="M829,-56.083C829,-49.0059 829,-38.8611 829,-29.9865"/>
<polygon fill="midnightblue" stroke="midnightblue" points="832.5,-29.751 829,-19.7511 825.5,-29.7511 832.5,-29.751"/>
</g>
<!-- Node10 -->
<g id="node10" class="node"><title>Node10</title>
<polygon fill="white" stroke="#bfbfbf" points="874,-0.5 874,-19.5 926,-19.5 926,-0.5 874,-0.5"/>
<text text-anchor="middle" x="900" y="-7.5" font-family="Helvetica,sans-Serif" font-size="10.00">sstream</text>
</g>
<!-- Node6&#45;&gt;Node10 -->
<g id="edge9" class="edge"><title>Node6&#45;&gt;Node10</title>
<path fill="none" stroke="midnightblue" d="M840.407,-56.324C851.109,-48.1849 867.341,-35.8395 880.163,-26.0874"/>
<polygon fill="midnightblue" stroke="midnightblue" points="882.544,-28.6734 888.385,-19.8339 878.307,-23.1018 882.544,-28.6734"/>
</g>
<!-- Node11 -->
<g id="node11" class="node"><title>Node11</title>
<polygon fill="white" stroke="#bfbfbf" points="944,-0.5 944,-19.5 988,-19.5 988,-0.5 944,-0.5"/>
<text text-anchor="middle" x="966" y="-7.5" font-family="Helvetica,sans-Serif" font-size="10.00">thread</text>
</g>
<!-- Node6&#45;&gt;Node11 -->
<g id="edge10" class="edge"><title>Node6&#45;&gt;Node11</title>
<path fill="none" stroke="midnightblue" d="M850.708,-56.4435C873.355,-47.5171 909.072,-33.4387 934.752,-23.3168"/>
<polygon fill="midnightblue" stroke="midnightblue" points="936.374,-26.4397 944.394,-19.5164 933.807,-19.9273 936.374,-26.4397"/>
</g>
<!-- Node14&#45;&gt;Node5 -->
<g id="edge14" class="edge"><title>Node14&#45;&gt;Node5</title>
<path fill="none" stroke="midnightblue" d="M635.568,-247.438C680.256,-242.15 737.059,-229.557 779,-200 799.911,-185.263 814.255,-158.739 822.047,-141"/>
<polygon fill="midnightblue" stroke="midnightblue" points="825.295,-142.305 825.878,-131.726 818.825,-139.632 825.295,-142.305"/>
</g>
<!-- Node15 -->
<g id="node15" class="node"><title>Node15</title>
<polygon fill="white" stroke="#bfbfbf" points="705.5,-174.5 705.5,-193.5 770.5,-193.5 770.5,-174.5 705.5,-174.5"/>
<text text-anchor="middle" x="738" y="-181.5" font-family="Helvetica,sans-Serif" font-size="10.00">Eigen/Core</text>
</g>
<!-- Node14&#45;&gt;Node15 -->
<g id="edge15" class="edge"><title>Node14&#45;&gt;Node15</title>
<path fill="none" stroke="midnightblue" d="M586.747,-242.372C617.182,-230.827 671.319,-210.293 705.897,-197.177"/>
<polygon fill="midnightblue" stroke="midnightblue" points="707.414,-200.345 715.523,-193.526 704.931,-193.8 707.414,-200.345"/>
</g>
<!-- Node16 -->
<g id="node16" class="node"><title>Node16</title>
<polygon fill="white" stroke="#bfbfbf" points="-0.5,-174.5 -0.5,-193.5 86.5,-193.5 86.5,-174.5 -0.5,-174.5"/>
<text text-anchor="middle" x="43" y="-181.5" font-family="Helvetica,sans-Serif" font-size="10.00">Eigen/Geometry</text>
</g>
<!-- Node14&#45;&gt;Node16 -->
<g id="edge16" class="edge"><title>Node14&#45;&gt;Node16</title>
<path fill="none" stroke="midnightblue" d="M492.309,-247.059C399.806,-241.095 234.22,-227.436 95,-200 89.8318,-198.982 84.4334,-197.69 79.1535,-196.293"/>
<polygon fill="midnightblue" stroke="midnightblue" points="79.8106,-192.843 69.2376,-193.523 77.927,-199.585 79.8106,-192.843"/>
</g>
<!-- Node17 -->
<g id="node17" class="node"><title>Node17</title>
<polygon fill="white" stroke="#bfbfbf" points="104.5,-174.5 104.5,-193.5 179.5,-193.5 179.5,-174.5 104.5,-174.5"/>
<text text-anchor="middle" x="142" y="-181.5" font-family="Helvetica,sans-Serif" font-size="10.00">Eigen/Sparse</text>
</g>
<!-- Node14&#45;&gt;Node17 -->
<g id="edge17" class="edge"><title>Node14&#45;&gt;Node17</title>
<path fill="none" stroke="midnightblue" d="M492.278,-245.151C416.104,-238.04 292.51,-223.921 188,-200 183.855,-199.051 179.55,-197.891 175.311,-196.64"/>
<polygon fill="midnightblue" stroke="midnightblue" points="176.234,-193.262 165.645,-193.614 174.143,-199.942 176.234,-193.262"/>
</g>
<!-- Node18 -->
<g id="node18" class="node"><title>Node18</title>
<polygon fill="white" stroke="#bfbfbf" points="197.5,-174.5 197.5,-193.5 256.5,-193.5 256.5,-174.5 197.5,-174.5"/>
<text text-anchor="middle" x="227" y="-181.5" font-family="Helvetica,sans-Serif" font-size="10.00">functional</text>
</g>
<!-- Node14&#45;&gt;Node18 -->
<g id="edge18" class="edge"><title>Node14&#45;&gt;Node18</title>
<path fill="none" stroke="midnightblue" d="M492.403,-243.02C431.251,-235.204 341.329,-221.326 265,-200 262.022,-199.168 258.957,-198.184 255.919,-197.125"/>
<polygon fill="midnightblue" stroke="midnightblue" points="257.05,-193.811 246.457,-193.575 254.591,-200.365 257.05,-193.811"/>
</g>
<!-- Node19 -->
<g id="node19" class="node"><title>Node19</title>
<polygon fill="white" stroke="#bfbfbf" points="274.5,-169 274.5,-199 407.5,-199 407.5,-169 274.5,-169"/>
<text text-anchor="start" x="282.5" y="-187" font-family="Helvetica,sans-Serif" font-size="10.00">unsupported/Eigen/Aligned</text>
<text text-anchor="middle" x="341" y="-176" font-family="Helvetica,sans-Serif" font-size="10.00">Vector3</text>
</g>
<!-- Node14&#45;&gt;Node19 -->
<g id="edge19" class="edge"><title>Node14&#45;&gt;Node19</title>
<path fill="none" stroke="midnightblue" d="M534.847,-242.372C500.273,-232.139 441.831,-214.842 398.137,-201.911"/>
<polygon fill="midnightblue" stroke="midnightblue" points="399.075,-198.538 388.493,-199.056 397.089,-205.25 399.075,-198.538"/>
</g>
<!-- Node20 -->
<g id="node20" class="node"><title>Node20</title>
<g id="a_node20"><a xlink:href="Math_8hpp.html" target="_top" xlink:title="Core/Math/Math.hpp">
<polygon fill="white" stroke="black" points="581,-174.5 581,-193.5 687,-193.5 687,-174.5 581,-174.5"/>
<text text-anchor="middle" x="634" y="-181.5" font-family="Helvetica,sans-Serif" font-size="10.00">Core/Math/Math.hpp</text>
</a>
</g>
</g>
<!-- Node14&#45;&gt;Node20 -->
<g id="edge20" class="edge"><title>Node14&#45;&gt;Node20</title>
<path fill="none" stroke="midnightblue" d="M573.151,-242.372C584.304,-231.856 603.368,-213.882 617.19,-200.85"/>
<polygon fill="midnightblue" stroke="midnightblue" points="619.748,-203.248 624.623,-193.841 614.946,-198.155 619.748,-203.248"/>
</g>
<!-- Node24 -->
<g id="node24" class="node"><title>Node24</title>
<g id="a_node24"><a xlink:href="LinearAlgebra_8inl.html" target="_top" xlink:title="Core/Math/LinearAlgebra.inl">
<polygon fill="white" stroke="black" points="425.5,-174.5 425.5,-193.5 562.5,-193.5 562.5,-174.5 425.5,-174.5"/>
<text text-anchor="middle" x="494" y="-181.5" font-family="Helvetica,sans-Serif" font-size="10.00">Core/Math/LinearAlgebra.inl</text>
</a>
</g>
</g>
<!-- Node14&#45;&gt;Node24 -->
<g id="edge26" class="edge"><title>Node14&#45;&gt;Node24</title>
<path fill="none" stroke="midnightblue" d="M554.849,-242.372C543.696,-231.856 524.632,-213.882 510.81,-200.85"/>
<polygon fill="midnightblue" stroke="midnightblue" points="513.054,-198.155 503.377,-193.841 508.252,-203.248 513.054,-198.155"/>
</g>
<!-- Node20&#45;&gt;Node5 -->
<g id="edge21" class="edge"><title>Node20&#45;&gt;Node5</title>
<path fill="none" stroke="midnightblue" d="M661.939,-174.403C695.967,-163.933 753.584,-146.205 791.462,-134.55"/>
<polygon fill="midnightblue" stroke="midnightblue" points="792.585,-137.867 801.113,-131.581 790.526,-131.176 792.585,-137.867"/>
</g>
<!-- Node21 -->
<g id="node21" class="node"><title>Node21</title>
<polygon fill="white" stroke="#bfbfbf" points="702,-112.5 702,-131.5 758,-131.5 758,-112.5 702,-112.5"/>
<text text-anchor="middle" x="730" y="-119.5" font-family="Helvetica,sans-Serif" font-size="10.00">algorithm</text>
</g>
<!-- Node20&#45;&gt;Node21 -->
<g id="edge22" class="edge"><title>Node20&#45;&gt;Node21</title>
<path fill="none" stroke="midnightblue" d="M647.754,-174.403C663.366,-164.646 689.063,-148.585 707.583,-137.011"/>
<polygon fill="midnightblue" stroke="midnightblue" points="709.646,-139.849 716.271,-131.581 705.936,-133.913 709.646,-139.849"/>
</g>
<!-- Node22 -->
<g id="node22" class="node"><title>Node22</title>
<polygon fill="white" stroke="#bfbfbf" points="522,-112.5 522,-131.5 566,-131.5 566,-112.5 522,-112.5"/>
<text text-anchor="middle" x="544" y="-119.5" font-family="Helvetica,sans-Serif" font-size="10.00">cmath</text>
</g>
<!-- Node20&#45;&gt;Node22 -->
<g id="edge23" class="edge"><title>Node20&#45;&gt;Node22</title>
<path fill="none" stroke="midnightblue" d="M621.105,-174.403C606.536,-164.691 582.598,-148.732 565.255,-137.17"/>
<polygon fill="midnightblue" stroke="midnightblue" points="567.133,-134.215 556.871,-131.581 563.25,-140.04 567.133,-134.215"/>
</g>
<!-- Node23 -->
<g id="node23" class="node"><title>Node23</title>
<g id="a_node23"><a xlink:href="Math_8inl.html" target="_top" xlink:title="Core/Math/Math.inl">
<polygon fill="white" stroke="black" points="584,-112.5 584,-131.5 684,-131.5 684,-112.5 584,-112.5"/>
<text text-anchor="middle" x="634" y="-119.5" font-family="Helvetica,sans-Serif" font-size="10.00">Core/Math/Math.inl</text>
</a>
</g>
</g>
<!-- Node20&#45;&gt;Node23 -->
<g id="edge24" class="edge"><title>Node20&#45;&gt;Node23</title>
<path fill="none" stroke="midnightblue" d="M629.099,-174.403C627.268,-165.938 626.797,-152.728 627.685,-141.82"/>
<polygon fill="midnightblue" stroke="midnightblue" points="631.198,-141.966 629.103,-131.581 624.264,-141.006 631.198,-141.966"/>
</g>
<!-- Node23&#45;&gt;Node20 -->
<g id="edge25" class="edge"><title>Node23&#45;&gt;Node20</title>
<path fill="none" stroke="midnightblue" d="M638.897,-131.581C640.73,-140.04 641.203,-153.248 640.317,-164.16"/>
<polygon fill="midnightblue" stroke="midnightblue" points="636.803,-164.018 638.901,-174.403 643.737,-164.977 636.803,-164.018"/>
</g>
</g>
</svg>
