<?xml version="1.0" encoding="UTF-8" standalone="no"?>
<!DOCTYPE svg PUBLIC "-//W3C//DTD SVG 1.1//EN"
 "http://www.w3.org/Graphics/SVG/1.1/DTD/svg11.dtd">
<!-- Generated by graphviz version 2.36.0 (20140111.2315)
 -->
<!-- Title: /home/travis/build/STORM&#45;IRIT/Radium&#45;Engine/src/Core/File/HandleData.hpp Pages: 1 -->
<svg width="3078pt" height="398pt"
 viewBox="0.00 0.00 3078.00 398.00" xmlns="http://www.w3.org/2000/svg" xmlns:xlink="http://www.w3.org/1999/xlink">
<g id="graph0" class="graph" transform="scale(1 1) rotate(0) translate(4 394)">
<title>/home/travis/build/STORM&#45;IRIT/Radium&#45;Engine/src/Core/File/HandleData.hpp</title>
<polygon fill="white" stroke="none" points="-4,4 -4,-394 3074,-394 3074,4 -4,4"/>
<!-- Node1 -->
<g id="node1" class="node"><title>Node1</title>
<polygon fill="#bfbfbf" stroke="black" points="2032.5,-348.5 2032.5,-389.5 2181.5,-389.5 2181.5,-348.5 2032.5,-348.5"/>
<text text-anchor="start" x="2040.5" y="-377.5" font-family="Helvetica,sans-Serif" font-size="10.00">/home/travis/build</text>
<text text-anchor="start" x="2040.5" y="-366.5" font-family="Helvetica,sans-Serif" font-size="10.00">/STORM&#45;IRIT/Radium&#45;Engine</text>
<text text-anchor="middle" x="2107" y="-355.5" font-family="Helvetica,sans-Serif" font-size="10.00">/src/Core/File/HandleData.hpp</text>
</g>
<!-- Node2 -->
<g id="node2" class="node"><title>Node2</title>
<g id="a_node2"><a xlink:href="FileData_8inl.html" target="_top" xlink:title="/home/travis/build\l/STORM&#45;IRIT/Radium&#45;Engine\l/src/Core/File/FileData.inl">
<polygon fill="white" stroke="black" points="1429,-264.5 1429,-305.5 1577,-305.5 1577,-264.5 1429,-264.5"/>
<text text-anchor="start" x="1437" y="-293.5" font-family="Helvetica,sans-Serif" font-size="10.00">/home/travis/build</text>
<text text-anchor="start" x="1437" y="-282.5" font-family="Helvetica,sans-Serif" font-size="10.00">/STORM&#45;IRIT/Radium&#45;Engine</text>
<text text-anchor="middle" x="1503" y="-271.5" font-family="Helvetica,sans-Serif" font-size="10.00">/src/Core/File/FileData.inl</text>
</a>
</g>
</g>
<!-- Node1&#45;&gt;Node2 -->
<g id="edge1" class="edge"><title>Node1&#45;&gt;Node2</title>
<path fill="none" stroke="midnightblue" d="M2022.32,-360.959C1924.87,-352.234 1760.23,-335.578 1620,-312 1606.05,-309.654 1591.25,-306.72 1577.04,-303.675"/>
<polygon fill="midnightblue" stroke="midnightblue" points="2022.14,-364.457 2032.41,-361.856 2022.75,-357.484 2022.14,-364.457"/>
</g>
<!-- Node17 -->
<g id="node17" class="node"><title>Node17</title>
<g id="a_node17"><a xlink:href="SkinningSystem_8hpp.html" target="_top" xlink:title="/home/travis/build\l/STORM&#45;IRIT/Radium&#45;Engine\l/Plugins/Skinning/src/SkinningSystem.hpp">
<polygon fill="white" stroke="black" points="2337,-84.5 2337,-125.5 2539,-125.5 2539,-84.5 2337,-84.5"/>
<text text-anchor="start" x="2345" y="-113.5" font-family="Helvetica,sans-Serif" font-size="10.00">/home/travis/build</text>
<text text-anchor="start" x="2345" y="-102.5" font-family="Helvetica,sans-Serif" font-size="10.00">/STORM&#45;IRIT/Radium&#45;Engine</text>
<text text-anchor="middle" x="2438" y="-91.5" font-family="Helvetica,sans-Serif" font-size="10.00">/Plugins/Skinning/src/SkinningSystem.hpp</text>
</a>
</g>
</g>
<!-- Node1&#45;&gt;Node17 -->
<g id="edge33" class="edge"><title>Node1&#45;&gt;Node17</title>
<path fill="none" stroke="midnightblue" d="M2191.93,-364.033C2321.82,-357.087 2557.51,-340.662 2583,-312 2639.24,-248.76 2527.62,-163.428 2469.76,-125.532"/>
<polygon fill="midnightblue" stroke="midnightblue" points="2191.42,-360.555 2181.62,-364.577 2191.79,-367.546 2191.42,-360.555"/>
</g>
<!-- Node19 -->
<g id="node19" class="node"><title>Node19</title>
<g id="a_node19"><a xlink:href="HandleData_8cpp.html" target="_top" xlink:title="/home/travis/build\l/STORM&#45;IRIT/Radium&#45;Engine\l/src/Core/File/HandleData.cpp">
<polygon fill="white" stroke="black" points="1865.5,-264.5 1865.5,-305.5 2014.5,-305.5 2014.5,-264.5 1865.5,-264.5"/>
<text text-anchor="start" x="1873.5" y="-293.5" font-family="Helvetica,sans-Serif" font-size="10.00">/home/travis/build</text>
<text text-anchor="start" x="1873.5" y="-282.5" font-family="Helvetica,sans-Serif" font-size="10.00">/STORM&#45;IRIT/Radium&#45;Engine</text>
<text text-anchor="middle" x="1940" y="-271.5" font-family="Helvetica,sans-Serif" font-size="10.00">/src/Core/File/HandleData.cpp</text>
</a>
</g>
</g>
<!-- Node1&#45;&gt;Node19 -->
<g id="edge18" class="edge"><title>Node1&#45;&gt;Node19</title>
<path fill="none" stroke="midnightblue" d="M2057.76,-343.823C2032.98,-331.652 2003.32,-317.089 1979.96,-305.623"/>
<polygon fill="midnightblue" stroke="midnightblue" points="2056.48,-347.093 2067,-348.359 2059.57,-340.81 2056.48,-347.093"/>
</g>
<!-- Node20 -->
<g id="node20" class="node"><title>Node20</title>
<g id="a_node20"><a xlink:href="HandleData_8inl.html" target="_top" xlink:title="/home/travis/build\l/STORM&#45;IRIT/Radium&#45;Engine\l/src/Core/File/HandleData.inl">
<polygon fill="white" stroke="black" points="2033,-264.5 2033,-305.5 2181,-305.5 2181,-264.5 2033,-264.5"/>
<text text-anchor="start" x="2041" y="-293.5" font-family="Helvetica,sans-Serif" font-size="10.00">/home/travis/build</text>
<text text-anchor="start" x="2041" y="-282.5" font-family="Helvetica,sans-Serif" font-size="10.00">/STORM&#45;IRIT/Radium&#45;Engine</text>
<text text-anchor="middle" x="2107" y="-271.5" font-family="Helvetica,sans-Serif" font-size="10.00">/src/Core/File/HandleData.inl</text>
</a>
</g>
</g>
<!-- Node1&#45;&gt;Node20 -->
<g id="edge19" class="edge"><title>Node1&#45;&gt;Node20</title>
<path fill="none" stroke="midnightblue" d="M2100.47,-337.881C2100.03,-327.133 2100.25,-315.309 2101.14,-305.667"/>
<polygon fill="midnightblue" stroke="midnightblue" points="2096.99,-338.394 2101.12,-348.15 2103.98,-337.947 2096.99,-338.394"/>
</g>
<!-- Node21 -->
<g id="node21" class="node"><title>Node21</title>
<g id="a_node21"><a xlink:href="HandleToSkeleton_8cpp.html" target="_top" xlink:title="/home/travis/build\l/STORM&#45;IRIT/Radium&#45;Engine\l/src/Core/File/HandleToSkeleton.cpp">
<polygon fill="white" stroke="black" points="2199,-264.5 2199,-305.5 2377,-305.5 2377,-264.5 2199,-264.5"/>
<text text-anchor="start" x="2207" y="-293.5" font-family="Helvetica,sans-Serif" font-size="10.00">/home/travis/build</text>
<text text-anchor="start" x="2207" y="-282.5" font-family="Helvetica,sans-Serif" font-size="10.00">/STORM&#45;IRIT/Radium&#45;Engine</text>
<text text-anchor="middle" x="2288" y="-271.5" font-family="Helvetica,sans-Serif" font-size="10.00">/src/Core/File/HandleToSkeleton.cpp</text>
</a>
</g>
</g>
<!-- Node1&#45;&gt;Node21 -->
<g id="edge21" class="edge"><title>Node1&#45;&gt;Node21</title>
<path fill="none" stroke="midnightblue" d="M2159.66,-344.144C2186.66,-331.909 2219.15,-317.19 2244.69,-305.623"/>
<polygon fill="midnightblue" stroke="midnightblue" points="2158.02,-341.044 2150.35,-348.359 2160.91,-347.42 2158.02,-341.044"/>
</g>
<!-- Node22 -->
<g id="node22" class="node"><title>Node22</title>
<g id="a_node22"><a xlink:href="AssimpHandleDataLoader_8cpp.html" target="_top" xlink:title="/home/travis/build\l/STORM&#45;IRIT/Radium&#45;Engine\l/src/IO/AssimpLoader/AssimpHandle\lDataLoader.cpp">
<polygon fill="white" stroke="black" points="2395.5,-259 2395.5,-311 2574.5,-311 2574.5,-259 2395.5,-259"/>
<text text-anchor="start" x="2403.5" y="-299" font-family="Helvetica,sans-Serif" font-size="10.00">/home/travis/build</text>
<text text-anchor="start" x="2403.5" y="-288" font-family="Helvetica,sans-Serif" font-size="10.00">/STORM&#45;IRIT/Radium&#45;Engine</text>
<text text-anchor="start" x="2403.5" y="-277" font-family="Helvetica,sans-Serif" font-size="10.00">/src/IO/AssimpLoader/AssimpHandle</text>
<text text-anchor="middle" x="2485" y="-266" font-family="Helvetica,sans-Serif" font-size="10.00">DataLoader.cpp</text>
</a>
</g>
</g>
<!-- Node1&#45;&gt;Node22 -->
<g id="edge22" class="edge"><title>Node1&#45;&gt;Node22</title>
<path fill="none" stroke="midnightblue" d="M2191.67,-352.212C2246.88,-341.604 2320.42,-326.889 2385,-312 2388.41,-311.214 2391.88,-310.397 2395.38,-309.559"/>
<polygon fill="midnightblue" stroke="midnightblue" points="2190.74,-348.826 2181.58,-354.144 2192.06,-355.701 2190.74,-348.826"/>
</g>
<!-- Node23 -->
<g id="node23" class="node"><title>Node23</title>
<g id="a_node23"><a xlink:href="AnimationComponent_8hpp.html" target="_top" xlink:title="/home/travis/build\l/STORM&#45;IRIT/Radium&#45;Engine\l/Plugins/Animation/src/Animation\lComponent.hpp">
<polygon fill="white" stroke="black" points="2673.5,-259 2673.5,-311 2834.5,-311 2834.5,-259 2673.5,-259"/>
<text text-anchor="start" x="2681.5" y="-299" font-family="Helvetica,sans-Serif" font-size="10.00">/home/travis/build</text>
<text text-anchor="start" x="2681.5" y="-288" font-family="Helvetica,sans-Serif" font-size="10.00">/STORM&#45;IRIT/Radium&#45;Engine</text>
<text text-anchor="start" x="2681.5" y="-277" font-family="Helvetica,sans-Serif" font-size="10.00">/Plugins/Animation/src/Animation</text>
<text text-anchor="middle" x="2754" y="-266" font-family="Helvetica,sans-Serif" font-size="10.00">Component.hpp</text>
</a>
</g>
</g>
<!-- Node1&#45;&gt;Node23 -->
<g id="edge23" class="edge"><title>Node1&#45;&gt;Node23</title>
<path fill="none" stroke="midnightblue" d="M2191.75,-360.739C2293.16,-351.578 2467.95,-334.291 2617,-312 2635.32,-309.261 2654.92,-305.837 2673.41,-302.382"/>
<polygon fill="midnightblue" stroke="midnightblue" points="2191.21,-357.273 2181.56,-361.654 2191.83,-364.245 2191.21,-357.273"/>
</g>
<!-- Node27 -->
<g id="node27" class="node"><title>Node27</title>
<g id="a_node27"><a xlink:href="SkinningComponent_8hpp.html" target="_top" xlink:title="/home/travis/build\l/STORM&#45;IRIT/Radium&#45;Engine\l/Plugins/Skinning/src/SkinningComponent.hpp">
<polygon fill="white" stroke="black" points="1629,-264.5 1629,-305.5 1847,-305.5 1847,-264.5 1629,-264.5"/>
<text text-anchor="start" x="1637" y="-293.5" font-family="Helvetica,sans-Serif" font-size="10.00">/home/travis/build</text>
<text text-anchor="start" x="1637" y="-282.5" font-family="Helvetica,sans-Serif" font-size="10.00">/STORM&#45;IRIT/Radium&#45;Engine</text>
<text text-anchor="middle" x="1738" y="-271.5" font-family="Helvetica,sans-Serif" font-size="10.00">/Plugins/Skinning/src/SkinningComponent.hpp</text>
</a>
</g>
</g>
<!-- Node1&#45;&gt;Node27 -->
<g id="edge30" class="edge"><title>Node1&#45;&gt;Node27</title>
<path fill="none" stroke="midnightblue" d="M2022.32,-349.183C1963.52,-336.115 1885.36,-318.746 1825.87,-305.526"/>
<polygon fill="midnightblue" stroke="midnightblue" points="2021.81,-352.653 2032.33,-351.406 2023.32,-345.82 2021.81,-352.653"/>
</g>
<!-- Node3 -->
<g id="node3" class="node"><title>Node3</title>
<g id="a_node3"><a xlink:href="FileData_8hpp.html" target="_top" xlink:title="/home/travis/build\l/STORM&#45;IRIT/Radium&#45;Engine\l/src/Core/File/FileData.hpp">
<polygon fill="white" stroke="black" points="1398,-174.5 1398,-215.5 1546,-215.5 1546,-174.5 1398,-174.5"/>
<text text-anchor="start" x="1406" y="-203.5" font-family="Helvetica,sans-Serif" font-size="10.00">/home/travis/build</text>
<text text-anchor="start" x="1406" y="-192.5" font-family="Helvetica,sans-Serif" font-size="10.00">/STORM&#45;IRIT/Radium&#45;Engine</text>
<text text-anchor="middle" x="1472" y="-181.5" font-family="Helvetica,sans-Serif" font-size="10.00">/src/Core/File/FileData.hpp</text>
</a>
</g>
</g>
<!-- Node2&#45;&gt;Node3 -->
<g id="edge2" class="edge"><title>Node2&#45;&gt;Node3</title>
<path fill="none" stroke="midnightblue" d="M1492.68,-254.71C1488.18,-241.919 1483.01,-227.253 1478.97,-215.78"/>
<polygon fill="midnightblue" stroke="midnightblue" points="1489.5,-256.201 1496.12,-264.47 1496.1,-253.875 1489.5,-256.201"/>
</g>
<!-- Node4 -->
<g id="node4" class="node"><title>Node4</title>
<g id="a_node4"><a xlink:href="FileData_8cpp.html" target="_top" xlink:title="/home/travis/build\l/STORM&#45;IRIT/Radium&#45;Engine\l/src/Core/File/FileData.cpp">
<polygon fill="white" stroke="black" points="0,-84.5 0,-125.5 148,-125.5 148,-84.5 0,-84.5"/>
<text text-anchor="start" x="8" y="-113.5" font-family="Helvetica,sans-Serif" font-size="10.00">/home/travis/build</text>
<text text-anchor="start" x="8" y="-102.5" font-family="Helvetica,sans-Serif" font-size="10.00">/STORM&#45;IRIT/Radium&#45;Engine</text>
<text text-anchor="middle" x="74" y="-91.5" font-family="Helvetica,sans-Serif" font-size="10.00">/src/Core/File/FileData.cpp</text>
</a>
</g>
</g>
<!-- Node3&#45;&gt;Node4 -->
<g id="edge3" class="edge"><title>Node3&#45;&gt;Node4</title>
<path fill="none" stroke="midnightblue" d="M1387.55,-192.843C1136.05,-188.952 394.786,-174.127 157,-132 148.079,-130.42 138.78,-128.152 129.771,-125.605"/>
<polygon fill="midnightblue" stroke="midnightblue" points="1387.67,-196.345 1397.72,-192.999 1387.77,-189.346 1387.67,-196.345"/>
</g>
<!-- Node5 -->
<g id="node5" class="node"><title>Node5</title>
<g id="a_node5"><a xlink:href="GeometryComponent_8cpp.html" target="_top" xlink:title="/home/travis/build\l/STORM&#45;IRIT/Radium&#45;Engine\l/src/Engine/Component/GeometryComponent.cpp">
<polygon fill="white" stroke="black" points="166,-84.5 166,-125.5 400,-125.5 400,-84.5 166,-84.5"/>
<text text-anchor="start" x="174" y="-113.5" font-family="Helvetica,sans-Serif" font-size="10.00">/home/travis/build</text>
<text text-anchor="start" x="174" y="-102.5" font-family="Helvetica,sans-Serif" font-size="10.00">/STORM&#45;IRIT/Radium&#45;Engine</text>
<text text-anchor="middle" x="283" y="-91.5" font-family="Helvetica,sans-Serif" font-size="10.00">/src/Engine/Component/GeometryComponent.cpp</text>
</a>
</g>
</g>
<!-- Node3&#45;&gt;Node5 -->
<g id="edge4" class="edge"><title>Node3&#45;&gt;Node5</title>
<path fill="none" stroke="midnightblue" d="M1387.66,-193.233C1207.3,-190.682 771.054,-179.657 409,-132 396.045,-130.295 382.432,-128.011 369.137,-125.503"/>
<polygon fill="midnightblue" stroke="midnightblue" points="1387.82,-196.735 1397.87,-193.372 1387.92,-189.736 1387.82,-196.735"/>
</g>
<!-- Node6 -->
<g id="node6" class="node"><title>Node6</title>
<g id="a_node6"><a xlink:href="CameraManager_8cpp.html" target="_top" xlink:title="/home/travis/build\l/STORM&#45;IRIT/Radium&#45;Engine\l/src/Engine/Managers/CameraManager\l/CameraManager.cpp">
<polygon fill="white" stroke="black" points="418.5,-79 418.5,-131 605.5,-131 605.5,-79 418.5,-79"/>
<text text-anchor="start" x="426.5" y="-119" font-family="Helvetica,sans-Serif" font-size="10.00">/home/travis/build</text>
<text text-anchor="start" x="426.5" y="-108" font-family="Helvetica,sans-Serif" font-size="10.00">/STORM&#45;IRIT/Radium&#45;Engine</text>
<text text-anchor="start" x="426.5" y="-97" font-family="Helvetica,sans-Serif" font-size="10.00">/src/Engine/Managers/CameraManager</text>
<text text-anchor="middle" x="512" y="-86" font-family="Helvetica,sans-Serif" font-size="10.00">/CameraManager.cpp</text>
</a>
</g>
</g>
<!-- Node3&#45;&gt;Node6 -->
<g id="edge5" class="edge"><title>Node3&#45;&gt;Node6</title>
<path fill="none" stroke="midnightblue" d="M1387.39,-192.85C1232.81,-189.65 894.829,-177.568 614,-132 611.204,-131.546 608.373,-131.052 605.521,-130.524"/>
<polygon fill="midnightblue" stroke="midnightblue" points="1387.68,-196.356 1397.75,-193.057 1387.82,-189.358 1387.68,-196.356"/>
</g>
<!-- Node7 -->
<g id="node7" class="node"><title>Node7</title>
<g id="a_node7"><a xlink:href="LightManager_8cpp.html" target="_top" xlink:title="/home/travis/build\l/STORM&#45;IRIT/Radium&#45;Engine\l/src/Engine/Managers/LightManager\l/LightManager.cpp">
<polygon fill="white" stroke="black" points="623.5,-79 623.5,-131 796.5,-131 796.5,-79 623.5,-79"/>
<text text-anchor="start" x="631.5" y="-119" font-family="Helvetica,sans-Serif" font-size="10.00">/home/travis/build</text>
<text text-anchor="start" x="631.5" y="-108" font-family="Helvetica,sans-Serif" font-size="10.00">/STORM&#45;IRIT/Radium&#45;Engine</text>
<text text-anchor="start" x="631.5" y="-97" font-family="Helvetica,sans-Serif" font-size="10.00">/src/Engine/Managers/LightManager</text>
<text text-anchor="middle" x="710" y="-86" font-family="Helvetica,sans-Serif" font-size="10.00">/LightManager.cpp</text>
</a>
</g>
</g>
<!-- Node3&#45;&gt;Node7 -->
<g id="edge6" class="edge"><title>Node3&#45;&gt;Node7</title>
<path fill="none" stroke="midnightblue" d="M1387.47,-190.781C1260.39,-184.896 1012.95,-169.372 806,-132 802.941,-131.448 799.838,-130.844 796.712,-130.2"/>
<polygon fill="midnightblue" stroke="midnightblue" points="1387.37,-194.28 1397.52,-191.238 1387.69,-187.287 1387.37,-194.28"/>
</g>
<!-- Node8 -->
<g id="node8" class="node"><title>Node8</title>
<g id="a_node8"><a xlink:href="RadiumEngine_8cpp.html" target="_top" xlink:title="/home/travis/build\l/STORM&#45;IRIT/Radium&#45;Engine\l/src/Engine/RadiumEngine.cpp">
<polygon fill="white" stroke="black" points="815,-84.5 815,-125.5 967,-125.5 967,-84.5 815,-84.5"/>
<text text-anchor="start" x="823" y="-113.5" font-family="Helvetica,sans-Serif" font-size="10.00">/home/travis/build</text>
<text text-anchor="start" x="823" y="-102.5" font-family="Helvetica,sans-Serif" font-size="10.00">/STORM&#45;IRIT/Radium&#45;Engine</text>
<text text-anchor="middle" x="891" y="-91.5" font-family="Helvetica,sans-Serif" font-size="10.00">/src/Engine/RadiumEngine.cpp</text>
</a>
</g>
</g>
<!-- Node3&#45;&gt;Node8 -->
<g id="edge7" class="edge"><title>Node3&#45;&gt;Node8</title>
<path fill="none" stroke="midnightblue" d="M1387.83,-187.93C1288.56,-179.749 1118.97,-162.562 976,-132 967.549,-130.193 958.728,-127.933 950.103,-125.504"/>
<polygon fill="midnightblue" stroke="midnightblue" points="1387.55,-191.419 1397.8,-188.741 1388.12,-184.442 1387.55,-191.419"/>
</g>
<!-- Node9 -->
<g id="node9" class="node"><title>Node9</title>
<g id="a_node9"><a xlink:href="Renderer_8cpp.html" target="_top" xlink:title="/home/travis/build\l/STORM&#45;IRIT/Radium&#45;Engine\l/src/Engine/Renderer/Renderer.cpp">
<polygon fill="white" stroke="black" points="985,-84.5 985,-125.5 1155,-125.5 1155,-84.5 985,-84.5"/>
<text text-anchor="start" x="993" y="-113.5" font-family="Helvetica,sans-Serif" font-size="10.00">/home/travis/build</text>
<text text-anchor="start" x="993" y="-102.5" font-family="Helvetica,sans-Serif" font-size="10.00">/STORM&#45;IRIT/Radium&#45;Engine</text>
<text text-anchor="middle" x="1070" y="-91.5" font-family="Helvetica,sans-Serif" font-size="10.00">/src/Engine/Renderer/Renderer.cpp</text>
</a>
</g>
</g>
<!-- Node3&#45;&gt;Node9 -->
<g id="edge8" class="edge"><title>Node3&#45;&gt;Node9</title>
<path fill="none" stroke="midnightblue" d="M1387.79,-178.725C1325.68,-167.052 1239.26,-149.959 1164,-132 1155.68,-130.015 1146.99,-127.802 1138.39,-125.527"/>
<polygon fill="midnightblue" stroke="midnightblue" points="1387.46,-182.223 1397.93,-180.623 1388.75,-175.342 1387.46,-182.223"/>
</g>
<!-- Node10 -->
<g id="node10" class="node"><title>Node10</title>
<g id="a_node10"><a xlink:href="GeometrySystem_8cpp.html" target="_top" xlink:title="/home/travis/build\l/STORM&#45;IRIT/Radium&#45;Engine\l/src/Engine/System/GeometrySystem.cpp">
<polygon fill="white" stroke="black" points="1173.5,-84.5 1173.5,-125.5 1374.5,-125.5 1374.5,-84.5 1173.5,-84.5"/>
<text text-anchor="start" x="1181.5" y="-113.5" font-family="Helvetica,sans-Serif" font-size="10.00">/home/travis/build</text>
<text text-anchor="start" x="1181.5" y="-102.5" font-family="Helvetica,sans-Serif" font-size="10.00">/STORM&#45;IRIT/Radium&#45;Engine</text>
<text text-anchor="middle" x="1274" y="-91.5" font-family="Helvetica,sans-Serif" font-size="10.00">/src/Engine/System/GeometrySystem.cpp</text>
</a>
</g>
</g>
<!-- Node3&#45;&gt;Node10 -->
<g id="edge9" class="edge"><title>Node3&#45;&gt;Node10</title>
<path fill="none" stroke="midnightblue" d="M1418.57,-170.254C1387.13,-156.279 1347.84,-138.819 1318.16,-125.627"/>
<polygon fill="midnightblue" stroke="midnightblue" points="1417.5,-173.607 1428.06,-174.47 1420.34,-167.21 1417.5,-173.607"/>
</g>
<!-- Node11 -->
<g id="node11" class="node"><title>Node11</title>
<g id="a_node11"><a xlink:href="Viewer_8cpp.html" target="_top" xlink:title="/home/travis/build\l/STORM&#45;IRIT/Radium&#45;Engine\l/src/GuiBase/Viewer/Viewer.cpp">
<polygon fill="white" stroke="black" points="1393,-84.5 1393,-125.5 1551,-125.5 1551,-84.5 1393,-84.5"/>
<text text-anchor="start" x="1401" y="-113.5" font-family="Helvetica,sans-Serif" font-size="10.00">/home/travis/build</text>
<text text-anchor="start" x="1401" y="-102.5" font-family="Helvetica,sans-Serif" font-size="10.00">/STORM&#45;IRIT/Radium&#45;Engine</text>
<text text-anchor="middle" x="1472" y="-91.5" font-family="Helvetica,sans-Serif" font-size="10.00">/src/GuiBase/Viewer/Viewer.cpp</text>
</a>
</g>
</g>
<!-- Node3&#45;&gt;Node11 -->
<g id="edge10" class="edge"><title>Node3&#45;&gt;Node11</title>
<path fill="none" stroke="midnightblue" d="M1472,-164.33C1472,-151.629 1472,-137.14 1472,-125.78"/>
<polygon fill="midnightblue" stroke="midnightblue" points="1468.5,-164.47 1472,-174.47 1475.5,-164.47 1468.5,-164.47"/>
</g>
<!-- Node12 -->
<g id="node12" class="node"><title>Node12</title>
<g id="a_node12"><a xlink:href="AssimpFileLoader_8cpp.html" target="_top" xlink:title="/home/travis/build\l/STORM&#45;IRIT/Radium&#45;Engine\l/src/IO/AssimpLoader/AssimpFile\lLoader.cpp">
<polygon fill="white" stroke="black" points="1569,-79 1569,-131 1733,-131 1733,-79 1569,-79"/>
<text text-anchor="start" x="1577" y="-119" font-family="Helvetica,sans-Serif" font-size="10.00">/home/travis/build</text>
<text text-anchor="start" x="1577" y="-108" font-family="Helvetica,sans-Serif" font-size="10.00">/STORM&#45;IRIT/Radium&#45;Engine</text>
<text text-anchor="start" x="1577" y="-97" font-family="Helvetica,sans-Serif" font-size="10.00">/src/IO/AssimpLoader/AssimpFile</text>
<text text-anchor="middle" x="1651" y="-86" font-family="Helvetica,sans-Serif" font-size="10.00">Loader.cpp</text>
</a>
</g>
</g>
<!-- Node3&#45;&gt;Node12 -->
<g id="edge11" class="edge"><title>Node3&#45;&gt;Node12</title>
<path fill="none" stroke="midnightblue" d="M1520.88,-169.97C1545.48,-157.877 1575.27,-143.228 1600.14,-131.002"/>
<polygon fill="midnightblue" stroke="midnightblue" points="1519.16,-166.917 1511.73,-174.47 1522.24,-173.199 1519.16,-166.917"/>
</g>
<!-- Node13 -->
<g id="node13" class="node"><title>Node13</title>
<g id="a_node13"><a xlink:href="CameraLoader_8cpp.html" target="_top" xlink:title="/home/travis/build\l/STORM&#45;IRIT/Radium&#45;Engine\l/src/IO/CameraLoader/CameraLoader.cpp">
<polygon fill="white" stroke="black" points="1751.5,-84.5 1751.5,-125.5 1950.5,-125.5 1950.5,-84.5 1751.5,-84.5"/>
<text text-anchor="start" x="1759.5" y="-113.5" font-family="Helvetica,sans-Serif" font-size="10.00">/home/travis/build</text>
<text text-anchor="start" x="1759.5" y="-102.5" font-family="Helvetica,sans-Serif" font-size="10.00">/STORM&#45;IRIT/Radium&#45;Engine</text>
<text text-anchor="middle" x="1851" y="-91.5" font-family="Helvetica,sans-Serif" font-size="10.00">/src/IO/CameraLoader/CameraLoader.cpp</text>
</a>
</g>
</g>
<!-- Node3&#45;&gt;Node13 -->
<g id="edge12" class="edge"><title>Node3&#45;&gt;Node13</title>
<path fill="none" stroke="midnightblue" d="M1556.32,-174.829C1609.59,-162.671 1679.86,-146.546 1742,-132 1750.9,-129.916 1760.21,-127.721 1769.48,-125.526"/>
<polygon fill="midnightblue" stroke="midnightblue" points="1555.21,-171.492 1546.24,-177.129 1556.77,-178.317 1555.21,-171.492"/>
</g>
<!-- Node14 -->
<g id="node14" class="node"><title>Node14</title>
<g id="a_node14"><a xlink:href="TinyPlyFileLoader_8cpp.html" target="_top" xlink:title="/home/travis/build\l/STORM&#45;IRIT/Radium&#45;Engine\l/src/IO/TinyPlyLoader/TinyPlyFile\lLoader.cpp">
<polygon fill="white" stroke="black" points="1969,-79 1969,-131 2133,-131 2133,-79 1969,-79"/>
<text text-anchor="start" x="1977" y="-119" font-family="Helvetica,sans-Serif" font-size="10.00">/home/travis/build</text>
<text text-anchor="start" x="1977" y="-108" font-family="Helvetica,sans-Serif" font-size="10.00">/STORM&#45;IRIT/Radium&#45;Engine</text>
<text text-anchor="start" x="1977" y="-97" font-family="Helvetica,sans-Serif" font-size="10.00">/src/IO/TinyPlyLoader/TinyPlyFile</text>
<text text-anchor="middle" x="2051" y="-86" font-family="Helvetica,sans-Serif" font-size="10.00">Loader.cpp</text>
</a>
</g>
</g>
<!-- Node3&#45;&gt;Node14 -->
<g id="edge13" class="edge"><title>Node3&#45;&gt;Node14</title>
<path fill="none" stroke="midnightblue" d="M1556.43,-178.145C1577.17,-174.532 1599.35,-170.906 1620,-168 1770.03,-146.88 1810.23,-160.706 1959,-132 1962.26,-131.371 1965.57,-130.682 1968.91,-129.945"/>
<polygon fill="midnightblue" stroke="midnightblue" points="1555.62,-174.734 1546.38,-179.914 1556.83,-181.628 1555.62,-174.734"/>
</g>
<!-- Node15 -->
<g id="node15" class="node"><title>Node15</title>
<g id="a_node15"><a xlink:href="AnimationSystem_8cpp.html" target="_top" xlink:title="/home/travis/build\l/STORM&#45;IRIT/Radium&#45;Engine\l/Plugins/Animation/src/Animation\lSystem.cpp">
<polygon fill="white" stroke="black" points="2557.5,-79 2557.5,-131 2718.5,-131 2718.5,-79 2557.5,-79"/>
<text text-anchor="start" x="2565.5" y="-119" font-family="Helvetica,sans-Serif" font-size="10.00">/home/travis/build</text>
<text text-anchor="start" x="2565.5" y="-108" font-family="Helvetica,sans-Serif" font-size="10.00">/STORM&#45;IRIT/Radium&#45;Engine</text>
<text text-anchor="start" x="2565.5" y="-97" font-family="Helvetica,sans-Serif" font-size="10.00">/Plugins/Animation/src/Animation</text>
<text text-anchor="middle" x="2638" y="-86" font-family="Helvetica,sans-Serif" font-size="10.00">System.cpp</text>
</a>
</g>
</g>
<!-- Node3&#45;&gt;Node15 -->
<g id="edge14" class="edge"><title>Node3&#45;&gt;Node15</title>
<path fill="none" stroke="midnightblue" d="M1556.31,-177.161C1577.06,-173.578 1599.27,-170.213 1620,-168 2030.42,-124.191 2140.52,-197.761 2548,-132 2551.05,-131.508 2554.14,-130.945 2557.26,-130.326"/>
<polygon fill="midnightblue" stroke="midnightblue" points="1555.49,-173.75 1546.25,-178.933 1556.71,-180.644 1555.49,-173.75"/>
</g>
<!-- Node16 -->
<g id="node16" class="node"><title>Node16</title>
<g id="a_node16"><a xlink:href="MeshPaintSystem_8cpp.html" target="_top" xlink:title="/home/travis/build\l/STORM&#45;IRIT/Radium&#45;Engine\l/Plugins/MeshPaint/src/MeshPaint\lSystem.cpp">
<polygon fill="white" stroke="black" points="2151.5,-79 2151.5,-131 2318.5,-131 2318.5,-79 2151.5,-79"/>
<text text-anchor="start" x="2159.5" y="-119" font-family="Helvetica,sans-Serif" font-size="10.00">/home/travis/build</text>
<text text-anchor="start" x="2159.5" y="-108" font-family="Helvetica,sans-Serif" font-size="10.00">/STORM&#45;IRIT/Radium&#45;Engine</text>
<text text-anchor="start" x="2159.5" y="-97" font-family="Helvetica,sans-Serif" font-size="10.00">/Plugins/MeshPaint/src/MeshPaint</text>
<text text-anchor="middle" x="2235" y="-86" font-family="Helvetica,sans-Serif" font-size="10.00">System.cpp</text>
</a>
</g>
</g>
<!-- Node3&#45;&gt;Node16 -->
<g id="edge15" class="edge"><title>Node3&#45;&gt;Node16</title>
<path fill="none" stroke="midnightblue" d="M1556.36,-177.603C1577.1,-174.007 1599.3,-170.525 1620,-168 1850.84,-139.842 1912.83,-171.512 2142,-132 2145.06,-131.473 2148.16,-130.886 2151.28,-130.252"/>
<polygon fill="midnightblue" stroke="midnightblue" points="1555.55,-174.192 1546.3,-179.374 1556.76,-181.086 1555.55,-174.192"/>
</g>
<!-- Node3&#45;&gt;Node17 -->
<g id="edge16" class="edge"><title>Node3&#45;&gt;Node17</title>
<path fill="none" stroke="midnightblue" d="M1556.33,-177.339C1577.07,-173.751 1599.28,-170.338 1620,-168 1932.64,-132.714 2015.47,-176.054 2327,-132 2338.66,-130.351 2350.9,-128.064 2362.81,-125.525"/>
<polygon fill="midnightblue" stroke="midnightblue" points="1555.51,-173.928 1546.27,-179.11 1556.73,-180.822 1555.51,-173.928"/>
</g>
<!-- Node18 -->
<g id="node18" class="node"><title>Node18</title>
<g id="a_node18"><a xlink:href="SkinningPlugin_8cpp.html" target="_top" xlink:title="/home/travis/build\l/STORM&#45;IRIT/Radium&#45;Engine\l/Plugins/Skinning/src/SkinningPlugin.cpp">
<polygon fill="white" stroke="black" points="2340.5,-0.5 2340.5,-41.5 2535.5,-41.5 2535.5,-0.5 2340.5,-0.5"/>
<text text-anchor="start" x="2348.5" y="-29.5" font-family="Helvetica,sans-Serif" font-size="10.00">/home/travis/build</text>
<text text-anchor="start" x="2348.5" y="-18.5" font-family="Helvetica,sans-Serif" font-size="10.00">/STORM&#45;IRIT/Radium&#45;Engine</text>
<text text-anchor="middle" x="2438" y="-7.5" font-family="Helvetica,sans-Serif" font-size="10.00">/Plugins/Skinning/src/SkinningPlugin.cpp</text>
</a>
</g>
</g>
<!-- Node17&#45;&gt;Node18 -->
<g id="edge17" class="edge"><title>Node17&#45;&gt;Node18</title>
<path fill="none" stroke="midnightblue" d="M2438,-73.881C2438,-63.1328 2438,-51.309 2438,-41.6671"/>
<polygon fill="midnightblue" stroke="midnightblue" points="2434.5,-74.1501 2438,-84.1501 2441.5,-74.1501 2434.5,-74.1501"/>
</g>
<!-- Node20&#45;&gt;Node1 -->
<g id="edge20" class="edge"><title>Node20&#45;&gt;Node1</title>
<path fill="none" stroke="midnightblue" d="M2113.53,-315.916C2113.97,-326.65 2113.75,-338.481 2112.88,-348.15"/>
<polygon fill="midnightblue" stroke="midnightblue" points="2117,-315.42 2112.86,-305.667 2110.02,-315.873 2117,-315.42"/>
</g>
<!-- Node23&#45;&gt;Node15 -->
<g id="edge25" class="edge"><title>Node23&#45;&gt;Node15</title>
<path fill="none" stroke="midnightblue" d="M2729.81,-250.718C2723.27,-241.496 2716.26,-231.428 2710,-222 2689.54,-191.2 2667.28,-154.862 2653.01,-131.173"/>
<polygon fill="midnightblue" stroke="midnightblue" points="2727,-252.803 2735.66,-258.906 2732.7,-248.734 2727,-252.803"/>
</g>
<!-- Node24 -->
<g id="node24" class="node"><title>Node24</title>
<g id="a_node24"><a xlink:href="AnimationComponent_8cpp.html" target="_top" xlink:title="/home/travis/build\l/STORM&#45;IRIT/Radium&#45;Engine\l/Plugins/Animation/src/Animation\lComponent.cpp">
<polygon fill="white" stroke="black" points="2909.5,-79 2909.5,-131 3070.5,-131 3070.5,-79 2909.5,-79"/>
<text text-anchor="start" x="2917.5" y="-119" font-family="Helvetica,sans-Serif" font-size="10.00">/home/travis/build</text>
<text text-anchor="start" x="2917.5" y="-108" font-family="Helvetica,sans-Serif" font-size="10.00">/STORM&#45;IRIT/Radium&#45;Engine</text>
<text text-anchor="start" x="2917.5" y="-97" font-family="Helvetica,sans-Serif" font-size="10.00">/Plugins/Animation/src/Animation</text>
<text text-anchor="middle" x="2990" y="-86" font-family="Helvetica,sans-Serif" font-size="10.00">Component.cpp</text>
</a>
</g>
</g>
<!-- Node23&#45;&gt;Node24 -->
<g id="edge24" class="edge"><title>Node23&#45;&gt;Node24</title>
<path fill="none" stroke="midnightblue" d="M2826.67,-254.542C2845.5,-245.4 2865.19,-234.416 2882,-222 2917.64,-195.683 2951.17,-156.587 2971.14,-131.195"/>
<polygon fill="midnightblue" stroke="midnightblue" points="2825.06,-251.435 2817.52,-258.879 2828.05,-257.761 2825.06,-251.435"/>
</g>
<!-- Node25 -->
<g id="node25" class="node"><title>Node25</title>
<g id="a_node25"><a xlink:href="SkeletonBoneDrawable_8hpp.html" target="_top" xlink:title="/home/travis/build\l/STORM&#45;IRIT/Radium&#45;Engine\l/Plugins/Animation/src/Drawing\l/SkeletonBoneDrawable.hpp">
<polygon fill="white" stroke="black" points="2719,-169 2719,-221 2873,-221 2873,-169 2719,-169"/>
<text text-anchor="start" x="2727" y="-209" font-family="Helvetica,sans-Serif" font-size="10.00">/home/travis/build</text>
<text text-anchor="start" x="2727" y="-198" font-family="Helvetica,sans-Serif" font-size="10.00">/STORM&#45;IRIT/Radium&#45;Engine</text>
<text text-anchor="start" x="2727" y="-187" font-family="Helvetica,sans-Serif" font-size="10.00">/Plugins/Animation/src/Drawing</text>
<text text-anchor="middle" x="2796" y="-176" font-family="Helvetica,sans-Serif" font-size="10.00">/SkeletonBoneDrawable.hpp</text>
</a>
</g>
</g>
<!-- Node23&#45;&gt;Node25 -->
<g id="edge26" class="edge"><title>Node23&#45;&gt;Node25</title>
<path fill="none" stroke="midnightblue" d="M2770.53,-249.376C2775.03,-239.935 2779.82,-229.891 2784.02,-221.092"/>
<polygon fill="midnightblue" stroke="midnightblue" points="2767.3,-248.014 2766.15,-258.547 2773.61,-251.03 2767.3,-248.014"/>
</g>
<!-- Node25&#45;&gt;Node15 -->
<g id="edge28" class="edge"><title>Node25&#45;&gt;Node15</title>
<path fill="none" stroke="midnightblue" d="M2741.8,-163.815C2722.65,-153.145 2701.32,-141.268 2683.01,-131.069"/>
<polygon fill="midnightblue" stroke="midnightblue" points="2740.28,-166.975 2750.72,-168.783 2743.69,-160.859 2740.28,-166.975"/>
</g>
<!-- Node25&#45;&gt;Node24 -->
<g id="edge27" class="edge"><title>Node25&#45;&gt;Node24</title>
<path fill="none" stroke="midnightblue" d="M2860.7,-164.654C2884.64,-153.792 2911.55,-141.586 2934.59,-131.133"/>
<polygon fill="midnightblue" stroke="midnightblue" points="2858.99,-161.582 2851.33,-168.901 2861.89,-167.957 2858.99,-161.582"/>
</g>
<!-- Node26 -->
<g id="node26" class="node"><title>Node26</title>
<g id="a_node26"><a xlink:href="SkeletonBoneDrawable_8cpp.html" target="_top" xlink:title="/home/travis/build\l/STORM&#45;IRIT/Radium&#45;Engine\l/Plugins/Animation/src/Drawing\l/SkeletonBoneDrawable.cpp">
<polygon fill="white" stroke="black" points="2737,-79 2737,-131 2891,-131 2891,-79 2737,-79"/>
<text text-anchor="start" x="2745" y="-119" font-family="Helvetica,sans-Serif" font-size="10.00">/home/travis/build</text>
<text text-anchor="start" x="2745" y="-108" font-family="Helvetica,sans-Serif" font-size="10.00">/STORM&#45;IRIT/Radium&#45;Engine</text>
<text text-anchor="start" x="2745" y="-97" font-family="Helvetica,sans-Serif" font-size="10.00">/Plugins/Animation/src/Drawing</text>
<text text-anchor="middle" x="2814" y="-86" font-family="Helvetica,sans-Serif" font-size="10.00">/SkeletonBoneDrawable.cpp</text>
</a>
</g>
</g>
<!-- Node25&#45;&gt;Node26 -->
<g id="edge29" class="edge"><title>Node25&#45;&gt;Node26</title>
<path fill="none" stroke="midnightblue" d="M2803.26,-158.489C2805.14,-149.309 2807.12,-139.616 2808.87,-131.092"/>
<polygon fill="midnightblue" stroke="midnightblue" points="2799.78,-158.048 2801.21,-168.547 2806.64,-159.451 2799.78,-158.048"/>
</g>
<!-- Node27&#45;&gt;Node17 -->
<g id="edge32" class="edge"><title>Node27&#45;&gt;Node17</title>
<path fill="none" stroke="midnightblue" d="M1824.62,-261.975C1962.52,-226.909 2229.78,-158.946 2361.22,-125.523"/>
<polygon fill="midnightblue" stroke="midnightblue" points="1823.74,-258.585 1814.91,-264.442 1825.47,-265.369 1823.74,-258.585"/>
</g>
<!-- Node28 -->
<g id="node28" class="node"><title>Node28</title>
<g id="a_node28"><a xlink:href="SkinningComponent_8cpp.html" target="_top" xlink:title="/home/travis/build\l/STORM&#45;IRIT/Radium&#45;Engine\l/Plugins/Skinning/src/SkinningComponent.cpp">
<polygon fill="white" stroke="black" points="1629,-174.5 1629,-215.5 1847,-215.5 1847,-174.5 1629,-174.5"/>
<text text-anchor="start" x="1637" y="-203.5" font-family="Helvetica,sans-Serif" font-size="10.00">/home/travis/build</text>
<text text-anchor="start" x="1637" y="-192.5" font-family="Helvetica,sans-Serif" font-size="10.00">/STORM&#45;IRIT/Radium&#45;Engine</text>
<text text-anchor="middle" x="1738" y="-181.5" font-family="Helvetica,sans-Serif" font-size="10.00">/Plugins/Skinning/src/SkinningComponent.cpp</text>
</a>
</g>
</g>
<!-- Node27&#45;&gt;Node28 -->
<g id="edge31" class="edge"><title>Node27&#45;&gt;Node28</title>
<path fill="none" stroke="midnightblue" d="M1738,-254.33C1738,-241.629 1738,-227.14 1738,-215.78"/>
<polygon fill="midnightblue" stroke="midnightblue" points="1734.5,-254.47 1738,-264.47 1741.5,-254.47 1734.5,-254.47"/>
</g>
</g>
</svg>
