<?xml version="1.0" encoding="UTF-8" standalone="no"?>
<!DOCTYPE svg PUBLIC "-//W3C//DTD SVG 1.1//EN"
 "http://www.w3.org/Graphics/SVG/1.1/DTD/svg11.dtd">
<!-- Generated by graphviz version 2.36.0 (20140111.2315)
 -->
<!-- Title: /home/travis/build/STORM&#45;IRIT/Radium&#45;Engine/src/Core/File/HandleData.inl Pages: 1 -->
<svg width="1510pt" height="410pt"
 viewBox="0.00 0.00 1510.00 410.00" xmlns="http://www.w3.org/2000/svg" xmlns:xlink="http://www.w3.org/1999/xlink">
<g id="graph0" class="graph" transform="scale(1 1) rotate(0) translate(4 406)">
<title>/home/travis/build/STORM&#45;IRIT/Radium&#45;Engine/src/Core/File/HandleData.inl</title>
<polygon fill="white" stroke="none" points="-4,4 -4,-406 1506,-406 1506,4 -4,4"/>
<!-- Node1 -->
<g id="node1" class="node"><title>Node1</title>
<polygon fill="#bfbfbf" stroke="black" points="332,-360.5 332,-401.5 480,-401.5 480,-360.5 332,-360.5"/>
<text text-anchor="start" x="340" y="-389.5" font-family="Helvetica,sans-Serif" font-size="10.00">/home/travis/build</text>
<text text-anchor="start" x="340" y="-378.5" font-family="Helvetica,sans-Serif" font-size="10.00">/STORM&#45;IRIT/Radium&#45;Engine</text>
<text text-anchor="middle" x="406" y="-367.5" font-family="Helvetica,sans-Serif" font-size="10.00">/src/Core/File/HandleData.inl</text>
</g>
<!-- Node2 -->
<g id="node2" class="node"><title>Node2</title>
<g id="a_node2"><a xlink:href="HandleData_8hpp.html" target="_top" xlink:title="Core/File/HandleData.hpp">
<polygon fill="white" stroke="black" points="341,-304.5 341,-323.5 471,-323.5 471,-304.5 341,-304.5"/>
<text text-anchor="middle" x="406" y="-311.5" font-family="Helvetica,sans-Serif" font-size="10.00">Core/File/HandleData.hpp</text>
</a>
</g>
</g>
<!-- Node1&#45;&gt;Node2 -->
<g id="edge1" class="edge"><title>Node1&#45;&gt;Node2</title>
<path fill="none" stroke="midnightblue" d="M399.755,-360.498C399.057,-351.969 399.083,-342.011 399.833,-333.59"/>
<polygon fill="midnightblue" stroke="midnightblue" points="403.303,-334.044 401.236,-323.652 396.372,-333.065 403.303,-334.044"/>
</g>
<!-- Node27 -->
<g id="node27" class="node"><title>Node27</title>
<g id="a_node27"><a xlink:href="Log_8hpp.html" target="_top" xlink:title="Core/Log/Log.hpp">
<polygon fill="white" stroke="black" points="619,-304.5 619,-323.5 713,-323.5 713,-304.5 619,-304.5"/>
<text text-anchor="middle" x="666" y="-311.5" font-family="Helvetica,sans-Serif" font-size="10.00">Core/Log/Log.hpp</text>
</a>
</g>
</g>
<!-- Node1&#45;&gt;Node27 -->
<g id="edge34" class="edge"><title>Node1&#45;&gt;Node27</title>
<path fill="none" stroke="midnightblue" d="M480.158,-361.461C525.902,-350.025 583.035,-335.741 621.791,-326.052"/>
<polygon fill="midnightblue" stroke="midnightblue" points="622.867,-329.391 631.719,-323.57 621.169,-322.6 622.867,-329.391"/>
</g>
<!-- Node2&#45;&gt;Node1 -->
<g id="edge33" class="edge"><title>Node2&#45;&gt;Node1</title>
<path fill="none" stroke="midnightblue" d="M410.764,-323.652C412.227,-330.524 412.881,-340.559 412.728,-350.263"/>
<polygon fill="midnightblue" stroke="midnightblue" points="409.221,-350.344 412.245,-360.498 416.213,-350.674 409.221,-350.344"/>
</g>
<!-- Node3 -->
<g id="node3" class="node"><title>Node3</title>
<polygon fill="white" stroke="#bfbfbf" points="-0.5,-242.5 -0.5,-261.5 34.5,-261.5 34.5,-242.5 -0.5,-242.5"/>
<text text-anchor="middle" x="17" y="-249.5" font-family="Helvetica,sans-Serif" font-size="10.00">map</text>
</g>
<!-- Node2&#45;&gt;Node3 -->
<g id="edge2" class="edge"><title>Node2&#45;&gt;Node3</title>
<path fill="none" stroke="midnightblue" d="M340.68,-312.663C266.652,-310.523 143.255,-301.592 43,-268 41.5485,-267.514 40.0878,-266.941 38.6391,-266.309"/>
<polygon fill="midnightblue" stroke="midnightblue" points="39.9652,-263.054 29.4779,-261.548 36.7371,-269.265 39.9652,-263.054"/>
</g>
<!-- Node4 -->
<g id="node4" class="node"><title>Node4</title>
<polygon fill="white" stroke="#bfbfbf" points="198.5,-174.5 198.5,-193.5 239.5,-193.5 239.5,-174.5 198.5,-174.5"/>
<text text-anchor="middle" x="219" y="-181.5" font-family="Helvetica,sans-Serif" font-size="10.00">string</text>
</g>
<!-- Node2&#45;&gt;Node4 -->
<g id="edge3" class="edge"><title>Node2&#45;&gt;Node4</title>
<path fill="none" stroke="midnightblue" d="M343.072,-304.447C298.88,-297.096 245.077,-284.98 230,-268 214.495,-250.538 214.118,-222.305 215.989,-203.697"/>
<polygon fill="midnightblue" stroke="midnightblue" points="219.491,-203.908 217.328,-193.537 212.551,-202.993 219.491,-203.908"/>
</g>
<!-- Node5 -->
<g id="node5" class="node"><title>Node5</title>
<polygon fill="white" stroke="#bfbfbf" points="450,-174.5 450,-193.5 494,-193.5 494,-174.5 450,-174.5"/>
<text text-anchor="middle" x="472" y="-181.5" font-family="Helvetica,sans-Serif" font-size="10.00">vector</text>
</g>
<!-- Node2&#45;&gt;Node5 -->
<g id="edge4" class="edge"><title>Node2&#45;&gt;Node5</title>
<path fill="none" stroke="midnightblue" d="M471.045,-307.317C523.707,-301.209 591.856,-289.361 609,-268 617.902,-256.908 617.283,-247.561 609,-236 580.022,-195.555 549.036,-218.871 503,-200 501.403,-199.345 499.771,-198.647 498.134,-197.924"/>
<polygon fill="midnightblue" stroke="midnightblue" points="499.429,-194.667 488.884,-193.635 496.484,-201.017 499.429,-194.667"/>
</g>
<!-- Node6 -->
<g id="node6" class="node"><title>Node6</title>
<g id="a_node6"><a xlink:href="AlignedStdVector_8hpp.html" target="_top" xlink:title="Core/Containers/AlignedStd\lVector.hpp">
<polygon fill="white" stroke="black" points="462,-237 462,-267 600,-267 600,-237 462,-237"/>
<text text-anchor="start" x="470" y="-255" font-family="Helvetica,sans-Serif" font-size="10.00">Core/Containers/AlignedStd</text>
<text text-anchor="middle" x="531" y="-244" font-family="Helvetica,sans-Serif" font-size="10.00">Vector.hpp</text>
</a>
</g>
</g>
<!-- Node2&#45;&gt;Node6 -->
<g id="edge5" class="edge"><title>Node2&#45;&gt;Node6</title>
<path fill="none" stroke="midnightblue" d="M423.909,-304.403C441.709,-295.86 469.577,-282.483 492.423,-271.517"/>
<polygon fill="midnightblue" stroke="midnightblue" points="494.039,-274.624 501.54,-267.141 491.01,-268.313 494.039,-274.624"/>
</g>
<!-- Node7 -->
<g id="node7" class="node"><title>Node7</title>
<g id="a_node7"><a xlink:href="RaCore_8hpp.html" target="_top" xlink:title="Core/RaCore.hpp">
<polygon fill="white" stroke="black" points="402.5,-112.5 402.5,-131.5 495.5,-131.5 495.5,-112.5 402.5,-112.5"/>
<text text-anchor="middle" x="449" y="-119.5" font-family="Helvetica,sans-Serif" font-size="10.00">Core/RaCore.hpp</text>
</a>
</g>
</g>
<!-- Node2&#45;&gt;Node7 -->
<g id="edge29" class="edge"><title>Node2&#45;&gt;Node7</title>
<path fill="none" stroke="midnightblue" d="M357.229,-304.495C336.215,-298.151 313.61,-287.124 301,-268 293.171,-256.127 294.696,-248.749 301,-236 325.426,-186.599 382.949,-152.883 418.659,-135.869"/>
<polygon fill="midnightblue" stroke="midnightblue" points="420.49,-138.878 428.107,-131.513 417.56,-132.521 420.49,-138.878"/>
</g>
<!-- Node15 -->
<g id="node15" class="node"><title>Node15</title>
<g id="a_node15"><a xlink:href="LinearAlgebra_8hpp.html" target="_top" xlink:title="Core/Math/LinearAlgebra.hpp">
<polygon fill="white" stroke="black" points="817.5,-242.5 817.5,-261.5 960.5,-261.5 960.5,-242.5 817.5,-242.5"/>
<text text-anchor="middle" x="889" y="-249.5" font-family="Helvetica,sans-Serif" font-size="10.00">Core/Math/LinearAlgebra.hpp</text>
</a>
</g>
</g>
<!-- Node2&#45;&gt;Node15 -->
<g id="edge15" class="edge"><title>Node2&#45;&gt;Node15</title>
<path fill="none" stroke="midnightblue" d="M471.14,-304.908C559.089,-293.983 715.653,-274.534 810.147,-262.795"/>
<polygon fill="midnightblue" stroke="midnightblue" points="810.731,-266.25 820.223,-261.544 809.868,-259.303 810.731,-266.25"/>
</g>
<!-- Node26 -->
<g id="node26" class="node"><title>Node26</title>
<g id="a_node26"><a xlink:href="AssetData_8hpp.html" target="_top" xlink:title="Core/File/AssetData.hpp">
<polygon fill="white" stroke="black" points="52.5,-242.5 52.5,-261.5 177.5,-261.5 177.5,-242.5 52.5,-242.5"/>
<text text-anchor="middle" x="115" y="-249.5" font-family="Helvetica,sans-Serif" font-size="10.00">Core/File/AssetData.hpp</text>
</a>
</g>
</g>
<!-- Node2&#45;&gt;Node26 -->
<g id="edge30" class="edge"><title>Node2&#45;&gt;Node26</title>
<path fill="none" stroke="midnightblue" d="M364.616,-304.467C312.471,-293.716 222.859,-275.239 166.384,-263.595"/>
<polygon fill="midnightblue" stroke="midnightblue" points="166.742,-260.095 156.241,-261.503 165.329,-266.951 166.742,-260.095"/>
</g>
<!-- Node6&#45;&gt;Node5 -->
<g id="edge14" class="edge"><title>Node6&#45;&gt;Node5</title>
<path fill="none" stroke="midnightblue" d="M518.198,-236.679C508.907,-226.286 496.322,-212.208 486.634,-201.37"/>
<polygon fill="midnightblue" stroke="midnightblue" points="489.166,-198.951 479.892,-193.828 483.947,-203.616 489.166,-198.951"/>
</g>
<!-- Node6&#45;&gt;Node7 -->
<g id="edge6" class="edge"><title>Node6&#45;&gt;Node7</title>
<path fill="none" stroke="midnightblue" d="M486.276,-236.812C468.962,-228.885 450.946,-217.069 441,-200 430.564,-182.092 435.605,-157.816 441.263,-141.344"/>
<polygon fill="midnightblue" stroke="midnightblue" points="444.613,-142.382 444.914,-131.791 438.074,-139.883 444.613,-142.382"/>
</g>
<!-- Node14 -->
<g id="node14" class="node"><title>Node14</title>
<polygon fill="white" stroke="#bfbfbf" points="512,-174.5 512,-193.5 600,-193.5 600,-174.5 512,-174.5"/>
<text text-anchor="middle" x="556" y="-181.5" font-family="Helvetica,sans-Serif" font-size="10.00">Eigen/StdVector</text>
</g>
<!-- Node6&#45;&gt;Node14 -->
<g id="edge13" class="edge"><title>Node6&#45;&gt;Node14</title>
<path fill="none" stroke="midnightblue" d="M536.425,-236.679C540.13,-226.898 545.071,-213.852 549.063,-203.315"/>
<polygon fill="midnightblue" stroke="midnightblue" points="552.387,-204.42 552.656,-193.828 545.841,-201.94 552.387,-204.42"/>
</g>
<!-- Node8 -->
<g id="node8" class="node"><title>Node8</title>
<g id="a_node8"><a xlink:href="CoreMacros_8hpp.html" target="_top" xlink:title="Core/CoreMacros.hpp">
<polygon fill="white" stroke="black" points="419.5,-56.5 419.5,-75.5 532.5,-75.5 532.5,-56.5 419.5,-56.5"/>
<text text-anchor="middle" x="476" y="-63.5" font-family="Helvetica,sans-Serif" font-size="10.00">Core/CoreMacros.hpp</text>
</a>
</g>
</g>
<!-- Node7&#45;&gt;Node8 -->
<g id="edge7" class="edge"><title>Node7&#45;&gt;Node8</title>
<path fill="none" stroke="midnightblue" d="M453.459,-112.083C457.154,-104.691 462.523,-93.9533 467.094,-84.8111"/>
<polygon fill="midnightblue" stroke="midnightblue" points="470.283,-86.2606 471.624,-75.7511 464.022,-83.1301 470.283,-86.2606"/>
</g>
<!-- Node9 -->
<g id="node9" class="node"><title>Node9</title>
<polygon fill="white" stroke="#bfbfbf" points="354.5,-0.5 354.5,-19.5 403.5,-19.5 403.5,-0.5 354.5,-0.5"/>
<text text-anchor="middle" x="379" y="-7.5" font-family="Helvetica,sans-Serif" font-size="10.00">cassert</text>
</g>
<!-- Node8&#45;&gt;Node9 -->
<g id="edge8" class="edge"><title>Node8&#45;&gt;Node9</title>
<path fill="none" stroke="midnightblue" d="M460.415,-56.324C445.001,-47.7428 421.188,-34.486 403.29,-24.5224"/>
<polygon fill="midnightblue" stroke="midnightblue" points="404.986,-21.4606 394.546,-19.6545 401.581,-27.5767 404.986,-21.4606"/>
</g>
<!-- Node10 -->
<g id="node10" class="node"><title>Node10</title>
<polygon fill="white" stroke="#bfbfbf" points="421.5,-0.5 421.5,-19.5 464.5,-19.5 464.5,-0.5 421.5,-0.5"/>
<text text-anchor="middle" x="443" y="-7.5" font-family="Helvetica,sans-Serif" font-size="10.00">cstdio</text>
</g>
<!-- Node8&#45;&gt;Node10 -->
<g id="edge9" class="edge"><title>Node8&#45;&gt;Node10</title>
<path fill="none" stroke="midnightblue" d="M470.551,-56.083C465.986,-48.6127 459.332,-37.7244 453.707,-28.5199"/>
<polygon fill="midnightblue" stroke="midnightblue" points="456.549,-26.4588 448.348,-19.7511 450.576,-30.109 456.549,-26.4588"/>
</g>
<!-- Node11 -->
<g id="node11" class="node"><title>Node11</title>
<polygon fill="white" stroke="#bfbfbf" points="483,-0.5 483,-19.5 537,-19.5 537,-0.5 483,-0.5"/>
<text text-anchor="middle" x="510" y="-7.5" font-family="Helvetica,sans-Serif" font-size="10.00">iostream</text>
</g>
<!-- Node8&#45;&gt;Node11 -->
<g id="edge10" class="edge"><title>Node8&#45;&gt;Node11</title>
<path fill="none" stroke="midnightblue" d="M481.614,-56.083C486.367,-48.5341 493.318,-37.4948 499.152,-28.2298"/>
<polygon fill="midnightblue" stroke="midnightblue" points="502.124,-30.0783 504.49,-19.7511 496.2,-26.3486 502.124,-30.0783"/>
</g>
<!-- Node12 -->
<g id="node12" class="node"><title>Node12</title>
<polygon fill="white" stroke="#bfbfbf" points="637,-0.5 637,-19.5 689,-19.5 689,-0.5 637,-0.5"/>
<text text-anchor="middle" x="663" y="-7.5" font-family="Helvetica,sans-Serif" font-size="10.00">sstream</text>
</g>
<!-- Node8&#45;&gt;Node12 -->
<g id="edge11" class="edge"><title>Node8&#45;&gt;Node12</title>
<path fill="none" stroke="midnightblue" d="M505.631,-56.4435C538.531,-46.9429 591.642,-31.6061 626.933,-21.415"/>
<polygon fill="midnightblue" stroke="midnightblue" points="628.191,-24.695 636.827,-18.558 626.248,-17.9698 628.191,-24.695"/>
</g>
<!-- Node13 -->
<g id="node13" class="node"><title>Node13</title>
<polygon fill="white" stroke="#bfbfbf" points="555,-0.5 555,-19.5 599,-19.5 599,-0.5 555,-0.5"/>
<text text-anchor="middle" x="577" y="-7.5" font-family="Helvetica,sans-Serif" font-size="10.00">thread</text>
</g>
<!-- Node8&#45;&gt;Node13 -->
<g id="edge12" class="edge"><title>Node8&#45;&gt;Node13</title>
<path fill="none" stroke="midnightblue" d="M492.227,-56.324C508.351,-47.7034 533.3,-34.3643 551.964,-24.3855"/>
<polygon fill="midnightblue" stroke="midnightblue" points="553.644,-27.456 560.813,-19.6545 550.344,-21.283 553.644,-27.456"/>
</g>
<!-- Node15&#45;&gt;Node7 -->
<g id="edge16" class="edge"><title>Node15&#45;&gt;Node7</title>
<path fill="none" stroke="midnightblue" d="M858.782,-242.487C825.335,-232.886 769.945,-216.456 723,-200 686.472,-187.195 678.948,-179.537 642,-168 596.175,-153.691 542.968,-141.612 504.04,-133.583"/>
<polygon fill="midnightblue" stroke="midnightblue" points="504.459,-130.096 493.961,-131.528 503.061,-136.955 504.459,-130.096"/>
</g>
<!-- Node16 -->
<g id="node16" class="node"><title>Node16</title>
<polygon fill="white" stroke="#bfbfbf" points="856.5,-174.5 856.5,-193.5 921.5,-193.5 921.5,-174.5 856.5,-174.5"/>
<text text-anchor="middle" x="889" y="-181.5" font-family="Helvetica,sans-Serif" font-size="10.00">Eigen/Core</text>
</g>
<!-- Node15&#45;&gt;Node16 -->
<g id="edge17" class="edge"><title>Node15&#45;&gt;Node16</title>
<path fill="none" stroke="midnightblue" d="M889,-242.372C889,-232.643 889,-216.528 889,-203.85"/>
<polygon fill="midnightblue" stroke="midnightblue" points="892.5,-203.841 889,-193.841 885.5,-203.841 892.5,-203.841"/>
</g>
<!-- Node17 -->
<g id="node17" class="node"><title>Node17</title>
<polygon fill="white" stroke="#bfbfbf" points="939.5,-174.5 939.5,-193.5 1026.5,-193.5 1026.5,-174.5 939.5,-174.5"/>
<text text-anchor="middle" x="983" y="-181.5" font-family="Helvetica,sans-Serif" font-size="10.00">Eigen/Geometry</text>
</g>
<!-- Node15&#45;&gt;Node17 -->
<g id="edge18" class="edge"><title>Node15&#45;&gt;Node17</title>
<path fill="none" stroke="midnightblue" d="M901.289,-242.372C916.771,-231.502 943.605,-212.66 962.281,-199.547"/>
<polygon fill="midnightblue" stroke="midnightblue" points="964.535,-202.241 970.708,-193.63 960.513,-196.512 964.535,-202.241"/>
</g>
<!-- Node18 -->
<g id="node18" class="node"><title>Node18</title>
<polygon fill="white" stroke="#bfbfbf" points="1044.5,-174.5 1044.5,-193.5 1119.5,-193.5 1119.5,-174.5 1044.5,-174.5"/>
<text text-anchor="middle" x="1082" y="-181.5" font-family="Helvetica,sans-Serif" font-size="10.00">Eigen/Sparse</text>
</g>
<!-- Node15&#45;&gt;Node18 -->
<g id="edge19" class="edge"><title>Node15&#45;&gt;Node18</title>
<path fill="none" stroke="midnightblue" d="M914.231,-242.372C948.279,-230.728 1009.07,-209.939 1047.37,-196.841"/>
<polygon fill="midnightblue" stroke="midnightblue" points="1048.74,-200.073 1057.07,-193.526 1046.47,-193.45 1048.74,-200.073"/>
</g>
<!-- Node19 -->
<g id="node19" class="node"><title>Node19</title>
<polygon fill="white" stroke="#bfbfbf" points="1137.5,-174.5 1137.5,-193.5 1196.5,-193.5 1196.5,-174.5 1137.5,-174.5"/>
<text text-anchor="middle" x="1167" y="-181.5" font-family="Helvetica,sans-Serif" font-size="10.00">functional</text>
</g>
<!-- Node15&#45;&gt;Node19 -->
<g id="edge20" class="edge"><title>Node15&#45;&gt;Node19</title>
<path fill="none" stroke="midnightblue" d="M932.95,-242.481C991.533,-230.978 1092.01,-210.69 1128,-200 1130.96,-199.12 1134.02,-198.117 1137.06,-197.056"/>
<polygon fill="midnightblue" stroke="midnightblue" points="1138.39,-200.296 1146.56,-193.553 1135.97,-193.728 1138.39,-200.296"/>
</g>
<!-- Node20 -->
<g id="node20" class="node"><title>Node20</title>
<polygon fill="white" stroke="#bfbfbf" points="1214.5,-169 1214.5,-199 1347.5,-199 1347.5,-169 1214.5,-169"/>
<text text-anchor="start" x="1222.5" y="-187" font-family="Helvetica,sans-Serif" font-size="10.00">unsupported/Eigen/Aligned</text>
<text text-anchor="middle" x="1281" y="-176" font-family="Helvetica,sans-Serif" font-size="10.00">Vector3</text>
</g>
<!-- Node15&#45;&gt;Node20 -->
<g id="edge21" class="edge"><title>Node15&#45;&gt;Node20</title>
<path fill="none" stroke="midnightblue" d="M933.519,-242.498C945.362,-240.307 958.155,-238.004 970,-236 1071.03,-218.911 1099.23,-218.259 1204.24,-200.086"/>
<polygon fill="midnightblue" stroke="midnightblue" points="1205.05,-203.497 1214.3,-198.332 1203.85,-196.601 1205.05,-203.497"/>
</g>
<!-- Node21 -->
<g id="node21" class="node"><title>Node21</title>
<g id="a_node21"><a xlink:href="Math_8hpp.html" target="_top" xlink:title="Core/Math/Math.hpp">
<polygon fill="white" stroke="black" points="732,-174.5 732,-193.5 838,-193.5 838,-174.5 732,-174.5"/>
<text text-anchor="middle" x="785" y="-181.5" font-family="Helvetica,sans-Serif" font-size="10.00">Core/Math/Math.hpp</text>
</a>
</g>
</g>
<!-- Node15&#45;&gt;Node21 -->
<g id="edge22" class="edge"><title>Node15&#45;&gt;Node21</title>
<path fill="none" stroke="midnightblue" d="M875.404,-242.372C858.042,-231.353 827.774,-212.145 807.083,-199.014"/>
<polygon fill="midnightblue" stroke="midnightblue" points="808.918,-196.034 798.6,-193.63 805.167,-201.944 808.918,-196.034"/>
</g>
<!-- Node25 -->
<g id="node25" class="node"><title>Node25</title>
<g id="a_node25"><a xlink:href="LinearAlgebra_8inl.html" target="_top" xlink:title="Core/Math/LinearAlgebra.inl">
<polygon fill="white" stroke="black" points="1365.5,-174.5 1365.5,-193.5 1502.5,-193.5 1502.5,-174.5 1365.5,-174.5"/>
<text text-anchor="middle" x="1434" y="-181.5" font-family="Helvetica,sans-Serif" font-size="10.00">Core/Math/LinearAlgebra.inl</text>
</a>
</g>
</g>
<!-- Node15&#45;&gt;Node25 -->
<g id="edge28" class="edge"><title>Node15&#45;&gt;Node25</title>
<path fill="none" stroke="midnightblue" d="M930.924,-242.493C943.455,-240.151 957.251,-237.771 970,-236 1140.66,-212.289 1185.42,-224.298 1356,-200 1365.02,-198.715 1374.59,-197.093 1383.81,-195.395"/>
<polygon fill="midnightblue" stroke="midnightblue" points="1384.47,-198.833 1393.64,-193.534 1383.17,-191.955 1384.47,-198.833"/>
</g>
<!-- Node21&#45;&gt;Node7 -->
<g id="edge23" class="edge"><title>Node21&#45;&gt;Node7</title>
<path fill="none" stroke="midnightblue" d="M737.216,-174.467C676.164,-163.565 570.631,-144.72 505.612,-133.109"/>
<polygon fill="midnightblue" stroke="midnightblue" points="505.998,-129.623 495.538,-131.31 504.767,-136.514 505.998,-129.623"/>
</g>
<!-- Node22 -->
<g id="node22" class="node"><title>Node22</title>
<polygon fill="white" stroke="#bfbfbf" points="732,-112.5 732,-131.5 788,-131.5 788,-112.5 732,-112.5"/>
<text text-anchor="middle" x="760" y="-119.5" font-family="Helvetica,sans-Serif" font-size="10.00">algorithm</text>
</g>
<!-- Node21&#45;&gt;Node22 -->
<g id="edge24" class="edge"><title>Node21&#45;&gt;Node22</title>
<path fill="none" stroke="midnightblue" d="M781.418,-174.403C777.817,-165.76 772.154,-152.17 767.556,-141.134"/>
<polygon fill="midnightblue" stroke="midnightblue" points="770.652,-139.465 763.575,-131.581 764.191,-142.158 770.652,-139.465"/>
</g>
<!-- Node23 -->
<g id="node23" class="node"><title>Node23</title>
<polygon fill="white" stroke="#bfbfbf" points="806,-112.5 806,-131.5 850,-131.5 850,-112.5 806,-112.5"/>
<text text-anchor="middle" x="828" y="-119.5" font-family="Helvetica,sans-Serif" font-size="10.00">cmath</text>
</g>
<!-- Node21&#45;&gt;Node23 -->
<g id="edge25" class="edge"><title>Node21&#45;&gt;Node23</title>
<path fill="none" stroke="midnightblue" d="M791.161,-174.403C797.611,-165.403 807.904,-151.041 815.973,-139.782"/>
<polygon fill="midnightblue" stroke="midnightblue" points="818.87,-141.748 821.851,-131.581 813.18,-137.67 818.87,-141.748"/>
</g>
<!-- Node24 -->
<g id="node24" class="node"><title>Node24</title>
<g id="a_node24"><a xlink:href="Math_8inl.html" target="_top" xlink:title="Core/Math/Math.inl">
<polygon fill="white" stroke="black" points="868,-112.5 868,-131.5 968,-131.5 968,-112.5 868,-112.5"/>
<text text-anchor="middle" x="918" y="-119.5" font-family="Helvetica,sans-Serif" font-size="10.00">Core/Math/Math.inl</text>
</a>
</g>
</g>
<!-- Node21&#45;&gt;Node24 -->
<g id="edge26" class="edge"><title>Node21&#45;&gt;Node24</title>
<path fill="none" stroke="midnightblue" d="M799.155,-174.403C819.565,-164.2 857.227,-147.105 884.797,-135.454"/>
<polygon fill="midnightblue" stroke="midnightblue" points="886.201,-138.661 894.083,-131.581 883.506,-132.201 886.201,-138.661"/>
</g>
<!-- Node24&#45;&gt;Node21 -->
<g id="edge27" class="edge"><title>Node24&#45;&gt;Node21</title>
<path fill="none" stroke="midnightblue" d="M903.877,-131.581C883.485,-141.776 845.827,-158.871 818.247,-170.527"/>
<polygon fill="midnightblue" stroke="midnightblue" points="816.837,-167.323 808.956,-174.403 819.533,-173.783 816.837,-167.323"/>
</g>
<!-- Node26&#45;&gt;Node4 -->
<g id="edge32" class="edge"><title>Node26&#45;&gt;Node4</title>
<path fill="none" stroke="midnightblue" d="M128.596,-242.372C145.958,-231.353 176.226,-212.145 196.917,-199.014"/>
<polygon fill="midnightblue" stroke="midnightblue" points="198.833,-201.944 205.4,-193.63 195.082,-196.034 198.833,-201.944"/>
</g>
<!-- Node26&#45;&gt;Node7 -->
<g id="edge31" class="edge"><title>Node26&#45;&gt;Node7</title>
<path fill="none" stroke="midnightblue" d="M119.838,-242.487C130.117,-225.266 155.922,-186.373 189,-168 223.022,-149.102 326.416,-135.467 392.108,-128.433"/>
<polygon fill="midnightblue" stroke="midnightblue" points="392.732,-131.887 402.312,-127.361 392.001,-124.925 392.732,-131.887"/>
</g>
<!-- Node27&#45;&gt;Node4 -->
<g id="edge38" class="edge"><title>Node27&#45;&gt;Node4</title>
<path fill="none" stroke="midnightblue" d="M618.947,-311.024C533.351,-306.807 355.931,-295.015 301,-268 270.244,-252.874 244.322,-221.484 230.28,-201.938"/>
<polygon fill="midnightblue" stroke="midnightblue" points="233.108,-199.873 224.531,-193.653 227.357,-203.864 233.108,-199.873"/>
</g>
<!-- Node27&#45;&gt;Node7 -->
<g id="edge35" class="edge"><title>Node27&#45;&gt;Node7</title>
<path fill="none" stroke="midnightblue" d="M665.153,-304.328C662.235,-279.264 650.312,-206.099 608,-168 580.081,-142.862 539.12,-131.666 505.765,-126.728"/>
<polygon fill="midnightblue" stroke="midnightblue" points="506.055,-123.235 495.681,-125.387 505.133,-130.174 506.055,-123.235"/>
</g>
<!-- Node27&#45;&gt;Node12 -->
<g id="edge36" class="edge"><title>Node27&#45;&gt;Node12</title>
<path fill="none" stroke="midnightblue" d="M670.508,-304.266C680.574,-283.929 704,-231.593 704,-185 704,-185 704,-185 704,-121 704,-86.5153 686.089,-49.5619 673.943,-28.468"/>
<polygon fill="midnightblue" stroke="midnightblue" points="676.841,-26.4938 668.701,-19.7121 670.835,-30.0898 676.841,-26.4938"/>
</g>
<!-- Node28 -->
<g id="node28" class="node"><title>Node28</title>
<polygon fill="white" stroke="#bfbfbf" points="979,-242.5 979,-261.5 1025,-261.5 1025,-242.5 979,-242.5"/>
<text text-anchor="middle" x="1002" y="-249.5" font-family="Helvetica,sans-Serif" font-size="10.00">stdio.h</text>
</g>
<!-- Node27&#45;&gt;Node28 -->
<g id="edge37" class="edge"><title>Node27&#45;&gt;Node28</title>
<path fill="none" stroke="midnightblue" d="M713.072,-310.09C773.408,-305.44 880.761,-294.047 969,-268 971.343,-267.308 973.733,-266.482 976.104,-265.577"/>
<polygon fill="midnightblue" stroke="midnightblue" points="977.722,-268.692 985.559,-261.563 974.987,-262.249 977.722,-268.692"/>
</g>
<!-- Node29 -->
<g id="node29" class="node"><title>Node29</title>
<g id="a_node29"><a xlink:href="StringUtils_8hpp.html" target="_top" xlink:title="Core/String/StringUtils.hpp">
<polygon fill="white" stroke="black" points="310,-242.5 310,-261.5 444,-261.5 444,-242.5 310,-242.5"/>
<text text-anchor="middle" x="377" y="-249.5" font-family="Helvetica,sans-Serif" font-size="10.00">Core/String/StringUtils.hpp</text>
</a>
</g>
</g>
<!-- Node27&#45;&gt;Node29 -->
<g id="edge39" class="edge"><title>Node27&#45;&gt;Node29</title>
<path fill="none" stroke="midnightblue" d="M624.9,-304.467C573.114,-293.716 484.118,-275.239 428.031,-263.595"/>
<polygon fill="midnightblue" stroke="midnightblue" points="428.461,-260.109 417.958,-261.503 427.038,-266.963 428.461,-260.109"/>
</g>
<!-- Node30 -->
<g id="node30" class="node"><title>Node30</title>
<polygon fill="white" stroke="#bfbfbf" points="1043.5,-242.5 1043.5,-261.5 1084.5,-261.5 1084.5,-242.5 1043.5,-242.5"/>
<text text-anchor="middle" x="1064" y="-249.5" font-family="Helvetica,sans-Serif" font-size="10.00">ctime</text>
</g>
<!-- Node27&#45;&gt;Node30 -->
<g id="edge43" class="edge"><title>Node27&#45;&gt;Node30</title>
<path fill="none" stroke="midnightblue" d="M713.233,-312.339C784.299,-310.213 922.299,-301.657 1034,-268 1035.97,-267.408 1037.96,-266.694 1039.93,-265.904"/>
<polygon fill="midnightblue" stroke="midnightblue" points="1041.84,-268.88 1049.46,-261.521 1038.91,-262.521 1041.84,-268.88"/>
</g>
<!-- Node29&#45;&gt;Node4 -->
<g id="edge41" class="edge"><title>Node29&#45;&gt;Node4</title>
<path fill="none" stroke="midnightblue" d="M356.344,-242.372C329.021,-230.958 280.659,-210.756 249.224,-197.625"/>
<polygon fill="midnightblue" stroke="midnightblue" points="250.237,-194.255 239.661,-193.63 247.539,-200.715 250.237,-194.255"/>
</g>
<!-- Node29&#45;&gt;Node5 -->
<g id="edge42" class="edge"><title>Node29&#45;&gt;Node5</title>
<path fill="none" stroke="midnightblue" d="M389.42,-242.372C405.137,-231.452 432.433,-212.489 451.317,-199.369"/>
<polygon fill="midnightblue" stroke="midnightblue" points="453.362,-202.21 459.577,-193.63 449.368,-196.462 453.362,-202.21"/>
</g>
<!-- Node29&#45;&gt;Node7 -->
<g id="edge40" class="edge"><title>Node29&#45;&gt;Node7</title>
<path fill="none" stroke="midnightblue" d="M379.082,-242.268C383.071,-226.581 392.769,-192.943 408,-168 414.444,-157.446 423.562,-147.14 431.563,-139.059"/>
<polygon fill="midnightblue" stroke="midnightblue" points="434.312,-141.269 439.053,-131.793 429.438,-136.245 434.312,-141.269"/>
</g>
</g>
</svg>
