<?xml version="1.0" encoding="UTF-8" standalone="no"?>
<!DOCTYPE svg PUBLIC "-//W3C//DTD SVG 1.1//EN"
 "http://www.w3.org/Graphics/SVG/1.1/DTD/svg11.dtd">
<!-- Generated by graphviz version 2.36.0 (20140111.2315)
 -->
<!-- Title: /home/travis/build/STORM&#45;IRIT/Radium&#45;Engine/src/Core/Algorithm/HeatDiffusion/HeatDiffusion.cpp Pages: 1 -->
<svg width="1470pt" height="638pt"
 viewBox="0.00 0.00 1470.00 638.00" xmlns="http://www.w3.org/2000/svg" xmlns:xlink="http://www.w3.org/1999/xlink">
<g id="graph0" class="graph" transform="scale(1 1) rotate(0) translate(4 634)">
<title>/home/travis/build/STORM&#45;IRIT/Radium&#45;Engine/src/Core/Algorithm/HeatDiffusion/HeatDiffusion.cpp</title>
<polygon fill="white" stroke="none" points="-4,4 -4,-634 1466,-634 1466,4 -4,4"/>
<!-- Node1 -->
<g id="node1" class="node"><title>Node1</title>
<polygon fill="#bfbfbf" stroke="black" points="181,-577 181,-629 345,-629 345,-577 181,-577"/>
<text text-anchor="start" x="189" y="-617" font-family="Helvetica,sans-Serif" font-size="10.00">/home/travis/build</text>
<text text-anchor="start" x="189" y="-606" font-family="Helvetica,sans-Serif" font-size="10.00">/STORM&#45;IRIT/Radium&#45;Engine</text>
<text text-anchor="start" x="189" y="-595" font-family="Helvetica,sans-Serif" font-size="10.00">/src/Core/Algorithm/HeatDiffusion</text>
<text text-anchor="middle" x="263" y="-584" font-family="Helvetica,sans-Serif" font-size="10.00">/HeatDiffusion.cpp</text>
</g>
<!-- Node2 -->
<g id="node2" class="node"><title>Node2</title>
<g id="a_node2"><a xlink:href="HeatDiffusion_8hpp.html" target="_top" xlink:title="Core/Algorithm/HeatDiffusion\l/HeatDiffusion.hpp">
<polygon fill="white" stroke="black" points="190.5,-509 190.5,-539 335.5,-539 335.5,-509 190.5,-509"/>
<text text-anchor="start" x="198.5" y="-527" font-family="Helvetica,sans-Serif" font-size="10.00">Core/Algorithm/HeatDiffusion</text>
<text text-anchor="middle" x="263" y="-516" font-family="Helvetica,sans-Serif" font-size="10.00">/HeatDiffusion.hpp</text>
</a>
</g>
</g>
<!-- Node1&#45;&gt;Node2 -->
<g id="edge1" class="edge"><title>Node1&#45;&gt;Node2</title>
<path fill="none" stroke="midnightblue" d="M263,-576.787C263,-568.029 263,-558.225 263,-549.523"/>
<polygon fill="midnightblue" stroke="midnightblue" points="266.5,-549.252 263,-539.252 259.5,-549.252 266.5,-549.252"/>
</g>
<!-- Node3 -->
<g id="node3" class="node"><title>Node3</title>
<g id="a_node3"><a xlink:href="Delta_8hpp.html" target="_top" xlink:title="Core/Algorithm/Delta\l/Delta.hpp">
<polygon fill="white" stroke="black" points="56,-305 56,-335 164,-335 164,-305 56,-305"/>
<text text-anchor="start" x="64" y="-323" font-family="Helvetica,sans-Serif" font-size="10.00">Core/Algorithm/Delta</text>
<text text-anchor="middle" x="110" y="-312" font-family="Helvetica,sans-Serif" font-size="10.00">/Delta.hpp</text>
</a>
</g>
</g>
<!-- Node2&#45;&gt;Node3 -->
<g id="edge2" class="edge"><title>Node2&#45;&gt;Node3</title>
<path fill="none" stroke="midnightblue" d="M252.241,-508.796C226.015,-474.17 158.621,-385.193 126.938,-343.363"/>
<polygon fill="midnightblue" stroke="midnightblue" points="129.575,-341.047 120.747,-335.189 123.995,-345.273 129.575,-341.047"/>
</g>
<!-- Node7 -->
<g id="node7" class="node"><title>Node7</title>
<g id="a_node7"><a xlink:href="RaCore_8hpp.html" target="_top" xlink:title="Core/RaCore.hpp">
<polygon fill="white" stroke="black" points="206.5,-112.5 206.5,-131.5 299.5,-131.5 299.5,-112.5 206.5,-112.5"/>
<text text-anchor="middle" x="253" y="-119.5" font-family="Helvetica,sans-Serif" font-size="10.00">Core/RaCore.hpp</text>
</a>
</g>
</g>
<!-- Node2&#45;&gt;Node7 -->
<g id="edge57" class="edge"><title>Node2&#45;&gt;Node7</title>
<path fill="none" stroke="midnightblue" d="M190.438,-516.804C112.591,-505.713 0,-474.835 0,-389 0,-389 0,-389 0,-251 0,-163.672 121.5,-135.909 196.103,-127.093"/>
<polygon fill="midnightblue" stroke="midnightblue" points="196.744,-130.543 206.301,-125.97 195.978,-123.585 196.744,-130.543"/>
</g>
<!-- Node24 -->
<g id="node24" class="node"><title>Node24</title>
<g id="a_node24"><a xlink:href="VectorArray_8hpp.html" target="_top" xlink:title="Core/Containers/VectorArray.hpp">
<polygon fill="white" stroke="black" points="182.5,-310.5 182.5,-329.5 343.5,-329.5 343.5,-310.5 182.5,-310.5"/>
<text text-anchor="middle" x="263" y="-317.5" font-family="Helvetica,sans-Serif" font-size="10.00">Core/Containers/VectorArray.hpp</text>
</a>
</g>
</g>
<!-- Node2&#45;&gt;Node24 -->
<g id="edge26" class="edge"><title>Node2&#45;&gt;Node24</title>
<path fill="none" stroke="midnightblue" d="M263,-508.796C263,-473.159 263,-379.952 263,-339.823"/>
<polygon fill="midnightblue" stroke="midnightblue" points="266.5,-339.597 263,-329.597 259.5,-339.597 266.5,-339.597"/>
</g>
<!-- Node27 -->
<g id="node27" class="node"><title>Node27</title>
<g id="a_node27"><a xlink:href="Area_8hpp.html" target="_top" xlink:title="Core/Geometry/Area\l/Area.hpp">
<polygon fill="white" stroke="black" points="605.5,-373 605.5,-403 712.5,-403 712.5,-373 605.5,-373"/>
<text text-anchor="start" x="613.5" y="-391" font-family="Helvetica,sans-Serif" font-size="10.00">Core/Geometry/Area</text>
<text text-anchor="middle" x="659" y="-380" font-family="Helvetica,sans-Serif" font-size="10.00">/Area.hpp</text>
</a>
</g>
</g>
<!-- Node2&#45;&gt;Node27 -->
<g id="edge34" class="edge"><title>Node2&#45;&gt;Node27</title>
<path fill="none" stroke="midnightblue" d="M335.682,-518.542C393.721,-512.938 476.117,-500.326 543,-472 578.743,-456.862 614.205,-429.144 636.33,-409.927"/>
<polygon fill="midnightblue" stroke="midnightblue" points="638.683,-412.519 643.853,-403.271 634.044,-407.276 638.683,-412.519"/>
</g>
<!-- Node32 -->
<g id="node32" class="node"><title>Node32</title>
<g id="a_node32"><a xlink:href="Laplacian_8hpp.html" target="_top" xlink:title="Core/Geometry/Laplacian\l/Laplacian.hpp">
<polygon fill="white" stroke="black" points="406,-441 406,-471 534,-471 534,-441 406,-441"/>
<text text-anchor="start" x="414" y="-459" font-family="Helvetica,sans-Serif" font-size="10.00">Core/Geometry/Laplacian</text>
<text text-anchor="middle" x="470" y="-448" font-family="Helvetica,sans-Serif" font-size="10.00">/Laplacian.hpp</text>
</a>
</g>
</g>
<!-- Node2&#45;&gt;Node32 -->
<g id="edge43" class="edge"><title>Node2&#45;&gt;Node32</title>
<path fill="none" stroke="midnightblue" d="M307.153,-508.922C339.033,-498.757 382.261,-484.975 416.167,-474.164"/>
<polygon fill="midnightblue" stroke="midnightblue" points="417.451,-477.428 425.915,-471.056 415.324,-470.759 417.451,-477.428"/>
</g>
<!-- Node4 -->
<g id="node4" class="node"><title>Node4</title>
<polygon fill="white" stroke="#bfbfbf" points="28,-242.5 28,-261.5 74,-261.5 74,-242.5 28,-242.5"/>
<text text-anchor="middle" x="51" y="-249.5" font-family="Helvetica,sans-Serif" font-size="10.00">cstdint</text>
</g>
<!-- Node3&#45;&gt;Node4 -->
<g id="edge3" class="edge"><title>Node3&#45;&gt;Node4</title>
<path fill="none" stroke="midnightblue" d="M97.1979,-304.679C87.9074,-294.286 75.3224,-280.208 65.6338,-269.37"/>
<polygon fill="midnightblue" stroke="midnightblue" points="68.166,-266.951 58.892,-261.828 62.9473,-271.616 68.166,-266.951"/>
</g>
<!-- Node5 -->
<g id="node5" class="node"><title>Node5</title>
<polygon fill="white" stroke="#bfbfbf" points="181,-174.5 181,-193.5 225,-193.5 225,-174.5 181,-174.5"/>
<text text-anchor="middle" x="203" y="-181.5" font-family="Helvetica,sans-Serif" font-size="10.00">vector</text>
</g>
<!-- Node3&#45;&gt;Node5 -->
<g id="edge4" class="edge"><title>Node3&#45;&gt;Node5</title>
<path fill="none" stroke="midnightblue" d="M119.953,-304.66C137.222,-279.777 172.66,-228.716 191.162,-202.057"/>
<polygon fill="midnightblue" stroke="midnightblue" points="194.116,-203.938 196.943,-193.728 188.366,-199.947 194.116,-203.938"/>
</g>
<!-- Node6 -->
<g id="node6" class="node"><title>Node6</title>
<g id="a_node6"><a xlink:href="LinearAlgebra_8hpp.html" target="_top" xlink:title="Core/Math/LinearAlgebra.hpp">
<polygon fill="white" stroke="black" points="565.5,-242.5 565.5,-261.5 708.5,-261.5 708.5,-242.5 565.5,-242.5"/>
<text text-anchor="middle" x="637" y="-249.5" font-family="Helvetica,sans-Serif" font-size="10.00">Core/Math/LinearAlgebra.hpp</text>
</a>
</g>
</g>
<!-- Node3&#45;&gt;Node6 -->
<g id="edge5" class="edge"><title>Node3&#45;&gt;Node6</title>
<path fill="none" stroke="midnightblue" d="M164.199,-305.594C167.169,-305.016 170.116,-304.479 173,-304 338.166,-276.544 382.009,-289.927 548,-268 558.359,-266.632 569.361,-264.958 579.968,-263.232"/>
<polygon fill="midnightblue" stroke="midnightblue" points="580.69,-266.66 589.981,-261.568 579.543,-259.754 580.69,-266.66"/>
</g>
<!-- Node3&#45;&gt;Node7 -->
<g id="edge25" class="edge"><title>Node3&#45;&gt;Node7</title>
<path fill="none" stroke="midnightblue" d="M111.558,-304.747C115.421,-275.692 127.893,-208.915 164,-168 177.243,-152.994 196.672,-142.364 214.001,-135.219"/>
<polygon fill="midnightblue" stroke="midnightblue" points="215.294,-138.471 223.36,-131.602 212.771,-131.942 215.294,-138.471"/>
</g>
<!-- Node6&#45;&gt;Node7 -->
<g id="edge6" class="edge"><title>Node6&#45;&gt;Node7</title>
<path fill="none" stroke="midnightblue" d="M589.891,-242.452C553.953,-234.69 503.988,-221.17 464,-200 444.184,-189.509 444.975,-178.184 425,-168 388.835,-149.561 344.433,-138.191 309.802,-131.493"/>
<polygon fill="midnightblue" stroke="midnightblue" points="310.321,-128.03 299.85,-129.644 309.042,-134.912 310.321,-128.03"/>
</g>
<!-- Node14 -->
<g id="node14" class="node"><title>Node14</title>
<polygon fill="white" stroke="#bfbfbf" points="473.5,-174.5 473.5,-193.5 538.5,-193.5 538.5,-174.5 473.5,-174.5"/>
<text text-anchor="middle" x="506" y="-181.5" font-family="Helvetica,sans-Serif" font-size="10.00">Eigen/Core</text>
</g>
<!-- Node6&#45;&gt;Node14 -->
<g id="edge13" class="edge"><title>Node6&#45;&gt;Node14</title>
<path fill="none" stroke="midnightblue" d="M619.874,-242.372C597.514,-231.106 558.161,-211.279 532.082,-198.14"/>
<polygon fill="midnightblue" stroke="midnightblue" points="533.636,-195.004 523.13,-193.63 530.486,-201.256 533.636,-195.004"/>
</g>
<!-- Node15 -->
<g id="node15" class="node"><title>Node15</title>
<polygon fill="white" stroke="#bfbfbf" points="556.5,-174.5 556.5,-193.5 643.5,-193.5 643.5,-174.5 556.5,-174.5"/>
<text text-anchor="middle" x="600" y="-181.5" font-family="Helvetica,sans-Serif" font-size="10.00">Eigen/Geometry</text>
</g>
<!-- Node6&#45;&gt;Node15 -->
<g id="edge14" class="edge"><title>Node6&#45;&gt;Node15</title>
<path fill="none" stroke="midnightblue" d="M632.163,-242.372C626.543,-232.348 617.124,-215.546 609.927,-202.708"/>
<polygon fill="midnightblue" stroke="midnightblue" points="612.899,-200.852 604.956,-193.841 606.794,-204.275 612.899,-200.852"/>
</g>
<!-- Node16 -->
<g id="node16" class="node"><title>Node16</title>
<polygon fill="white" stroke="#bfbfbf" points="661.5,-174.5 661.5,-193.5 736.5,-193.5 736.5,-174.5 661.5,-174.5"/>
<text text-anchor="middle" x="699" y="-181.5" font-family="Helvetica,sans-Serif" font-size="10.00">Eigen/Sparse</text>
</g>
<!-- Node6&#45;&gt;Node16 -->
<g id="edge15" class="edge"><title>Node6&#45;&gt;Node16</title>
<path fill="none" stroke="midnightblue" d="M645.105,-242.372C654.891,-231.955 671.553,-214.217 683.767,-201.216"/>
<polygon fill="midnightblue" stroke="midnightblue" points="686.399,-203.526 690.695,-193.841 681.297,-198.733 686.399,-203.526"/>
</g>
<!-- Node17 -->
<g id="node17" class="node"><title>Node17</title>
<polygon fill="white" stroke="#bfbfbf" points="754.5,-174.5 754.5,-193.5 813.5,-193.5 813.5,-174.5 754.5,-174.5"/>
<text text-anchor="middle" x="784" y="-181.5" font-family="Helvetica,sans-Serif" font-size="10.00">functional</text>
</g>
<!-- Node6&#45;&gt;Node17 -->
<g id="edge16" class="edge"><title>Node6&#45;&gt;Node17</title>
<path fill="none" stroke="midnightblue" d="M656.218,-242.372C681.529,-231.007 726.245,-210.931 755.5,-197.796"/>
<polygon fill="midnightblue" stroke="midnightblue" points="757.088,-200.919 764.778,-193.63 754.221,-194.533 757.088,-200.919"/>
</g>
<!-- Node18 -->
<g id="node18" class="node"><title>Node18</title>
<polygon fill="white" stroke="#bfbfbf" points="831.5,-169 831.5,-199 964.5,-199 964.5,-169 831.5,-169"/>
<text text-anchor="start" x="839.5" y="-187" font-family="Helvetica,sans-Serif" font-size="10.00">unsupported/Eigen/Aligned</text>
<text text-anchor="middle" x="898" y="-176" font-family="Helvetica,sans-Serif" font-size="10.00">Vector3</text>
</g>
<!-- Node6&#45;&gt;Node18 -->
<g id="edge17" class="edge"><title>Node6&#45;&gt;Node18</title>
<path fill="none" stroke="midnightblue" d="M670.854,-242.439C711.671,-232.118 781.187,-214.539 832.59,-201.54"/>
<polygon fill="midnightblue" stroke="midnightblue" points="833.454,-204.932 842.291,-199.087 831.738,-198.146 833.454,-204.932"/>
</g>
<!-- Node19 -->
<g id="node19" class="node"><title>Node19</title>
<g id="a_node19"><a xlink:href="Math_8hpp.html" target="_top" xlink:title="Core/Math/Math.hpp">
<polygon fill="white" stroke="black" points="1176,-174.5 1176,-193.5 1282,-193.5 1282,-174.5 1176,-174.5"/>
<text text-anchor="middle" x="1229" y="-181.5" font-family="Helvetica,sans-Serif" font-size="10.00">Core/Math/Math.hpp</text>
</a>
</g>
</g>
<!-- Node6&#45;&gt;Node19 -->
<g id="edge18" class="edge"><title>Node6&#45;&gt;Node19</title>
<path fill="none" stroke="midnightblue" d="M708.67,-244.55C804.394,-235.709 979.201,-218.768 1128,-200 1140.28,-198.451 1153.38,-196.631 1165.93,-194.803"/>
<polygon fill="midnightblue" stroke="midnightblue" points="1166.47,-198.261 1175.86,-193.34 1165.45,-191.336 1166.47,-198.261"/>
</g>
<!-- Node23 -->
<g id="node23" class="node"><title>Node23</title>
<g id="a_node23"><a xlink:href="LinearAlgebra_8inl.html" target="_top" xlink:title="Core/Math/LinearAlgebra.inl">
<polygon fill="white" stroke="black" points="982.5,-174.5 982.5,-193.5 1119.5,-193.5 1119.5,-174.5 982.5,-174.5"/>
<text text-anchor="middle" x="1051" y="-181.5" font-family="Helvetica,sans-Serif" font-size="10.00">Core/Math/LinearAlgebra.inl</text>
</a>
</g>
</g>
<!-- Node6&#45;&gt;Node23 -->
<g id="edge24" class="edge"><title>Node6&#45;&gt;Node23</title>
<path fill="none" stroke="midnightblue" d="M698.122,-242.46C765.547,-232.867 877.201,-216.475 973,-200 981.116,-198.604 989.69,-197.043 998.067,-195.47"/>
<polygon fill="midnightblue" stroke="midnightblue" points="998.972,-198.861 1008.14,-193.556 997.665,-191.984 998.972,-198.861"/>
</g>
<!-- Node8 -->
<g id="node8" class="node"><title>Node8</title>
<g id="a_node8"><a xlink:href="CoreMacros_8hpp.html" target="_top" xlink:title="Core/CoreMacros.hpp">
<polygon fill="white" stroke="black" points="196.5,-56.5 196.5,-75.5 309.5,-75.5 309.5,-56.5 196.5,-56.5"/>
<text text-anchor="middle" x="253" y="-63.5" font-family="Helvetica,sans-Serif" font-size="10.00">Core/CoreMacros.hpp</text>
</a>
</g>
</g>
<!-- Node7&#45;&gt;Node8 -->
<g id="edge7" class="edge"><title>Node7&#45;&gt;Node8</title>
<path fill="none" stroke="midnightblue" d="M253,-112.083C253,-105.006 253,-94.8611 253,-85.9865"/>
<polygon fill="midnightblue" stroke="midnightblue" points="256.5,-85.751 253,-75.7511 249.5,-85.7511 256.5,-85.751"/>
</g>
<!-- Node9 -->
<g id="node9" class="node"><title>Node9</title>
<polygon fill="white" stroke="#bfbfbf" points="97.5,-0.5 97.5,-19.5 146.5,-19.5 146.5,-0.5 97.5,-0.5"/>
<text text-anchor="middle" x="122" y="-7.5" font-family="Helvetica,sans-Serif" font-size="10.00">cassert</text>
</g>
<!-- Node8&#45;&gt;Node9 -->
<g id="edge8" class="edge"><title>Node8&#45;&gt;Node9</title>
<path fill="none" stroke="midnightblue" d="M232.243,-56.4435C210.684,-47.5566 176.737,-33.5632 152.206,-23.4514"/>
<polygon fill="midnightblue" stroke="midnightblue" points="153.239,-20.0917 142.66,-19.5164 150.572,-26.5634 153.239,-20.0917"/>
</g>
<!-- Node10 -->
<g id="node10" class="node"><title>Node10</title>
<polygon fill="white" stroke="#bfbfbf" points="164.5,-0.5 164.5,-19.5 207.5,-19.5 207.5,-0.5 164.5,-0.5"/>
<text text-anchor="middle" x="186" y="-7.5" font-family="Helvetica,sans-Serif" font-size="10.00">cstdio</text>
</g>
<!-- Node8&#45;&gt;Node10 -->
<g id="edge9" class="edge"><title>Node8&#45;&gt;Node10</title>
<path fill="none" stroke="midnightblue" d="M242.235,-56.324C232.234,-48.2631 217.113,-36.0765 205.07,-26.3695"/>
<polygon fill="midnightblue" stroke="midnightblue" points="206.943,-23.3841 196.961,-19.8339 202.55,-28.8343 206.943,-23.3841"/>
</g>
<!-- Node11 -->
<g id="node11" class="node"><title>Node11</title>
<polygon fill="white" stroke="#bfbfbf" points="226,-0.5 226,-19.5 280,-19.5 280,-0.5 226,-0.5"/>
<text text-anchor="middle" x="253" y="-7.5" font-family="Helvetica,sans-Serif" font-size="10.00">iostream</text>
</g>
<!-- Node8&#45;&gt;Node11 -->
<g id="edge10" class="edge"><title>Node8&#45;&gt;Node11</title>
<path fill="none" stroke="midnightblue" d="M253,-56.083C253,-49.0059 253,-38.8611 253,-29.9865"/>
<polygon fill="midnightblue" stroke="midnightblue" points="256.5,-29.751 253,-19.7511 249.5,-29.7511 256.5,-29.751"/>
</g>
<!-- Node12 -->
<g id="node12" class="node"><title>Node12</title>
<polygon fill="white" stroke="#bfbfbf" points="298,-0.5 298,-19.5 350,-19.5 350,-0.5 298,-0.5"/>
<text text-anchor="middle" x="324" y="-7.5" font-family="Helvetica,sans-Serif" font-size="10.00">sstream</text>
</g>
<!-- Node8&#45;&gt;Node12 -->
<g id="edge11" class="edge"><title>Node8&#45;&gt;Node12</title>
<path fill="none" stroke="midnightblue" d="M264.407,-56.324C275.109,-48.1849 291.341,-35.8395 304.163,-26.0874"/>
<polygon fill="midnightblue" stroke="midnightblue" points="306.544,-28.6734 312.385,-19.8339 302.307,-23.1018 306.544,-28.6734"/>
</g>
<!-- Node13 -->
<g id="node13" class="node"><title>Node13</title>
<polygon fill="white" stroke="#bfbfbf" points="368,-0.5 368,-19.5 412,-19.5 412,-0.5 368,-0.5"/>
<text text-anchor="middle" x="390" y="-7.5" font-family="Helvetica,sans-Serif" font-size="10.00">thread</text>
</g>
<!-- Node8&#45;&gt;Node13 -->
<g id="edge12" class="edge"><title>Node8&#45;&gt;Node13</title>
<path fill="none" stroke="midnightblue" d="M274.708,-56.4435C297.355,-47.5171 333.072,-33.4387 358.752,-23.3168"/>
<polygon fill="midnightblue" stroke="midnightblue" points="360.374,-26.4397 368.394,-19.5164 357.807,-19.9273 360.374,-26.4397"/>
</g>
<!-- Node19&#45;&gt;Node7 -->
<g id="edge19" class="edge"><title>Node19&#45;&gt;Node7</title>
<path fill="none" stroke="midnightblue" d="M1196.15,-174.47C1185.34,-171.981 1173.22,-169.522 1162,-168 841.992,-124.581 453.554,-121.808 309.928,-122.455"/>
<polygon fill="midnightblue" stroke="midnightblue" points="309.592,-118.957 299.611,-122.51 309.629,-125.957 309.592,-118.957"/>
</g>
<!-- Node20 -->
<g id="node20" class="node"><title>Node20</title>
<polygon fill="white" stroke="#bfbfbf" points="1297,-112.5 1297,-131.5 1353,-131.5 1353,-112.5 1297,-112.5"/>
<text text-anchor="middle" x="1325" y="-119.5" font-family="Helvetica,sans-Serif" font-size="10.00">algorithm</text>
</g>
<!-- Node19&#45;&gt;Node20 -->
<g id="edge20" class="edge"><title>Node19&#45;&gt;Node20</title>
<path fill="none" stroke="midnightblue" d="M1242.75,-174.403C1258.37,-164.646 1284.06,-148.585 1302.58,-137.011"/>
<polygon fill="midnightblue" stroke="midnightblue" points="1304.65,-139.849 1311.27,-131.581 1300.94,-133.913 1304.65,-139.849"/>
</g>
<!-- Node21 -->
<g id="node21" class="node"><title>Node21</title>
<polygon fill="white" stroke="#bfbfbf" points="1117,-112.5 1117,-131.5 1161,-131.5 1161,-112.5 1117,-112.5"/>
<text text-anchor="middle" x="1139" y="-119.5" font-family="Helvetica,sans-Serif" font-size="10.00">cmath</text>
</g>
<!-- Node19&#45;&gt;Node21 -->
<g id="edge21" class="edge"><title>Node19&#45;&gt;Node21</title>
<path fill="none" stroke="midnightblue" d="M1216.11,-174.403C1201.54,-164.691 1177.6,-148.732 1160.25,-137.17"/>
<polygon fill="midnightblue" stroke="midnightblue" points="1162.13,-134.215 1151.87,-131.581 1158.25,-140.04 1162.13,-134.215"/>
</g>
<!-- Node22 -->
<g id="node22" class="node"><title>Node22</title>
<g id="a_node22"><a xlink:href="Math_8inl.html" target="_top" xlink:title="Core/Math/Math.inl">
<polygon fill="white" stroke="black" points="1179,-112.5 1179,-131.5 1279,-131.5 1279,-112.5 1179,-112.5"/>
<text text-anchor="middle" x="1229" y="-119.5" font-family="Helvetica,sans-Serif" font-size="10.00">Core/Math/Math.inl</text>
</a>
</g>
</g>
<!-- Node19&#45;&gt;Node22 -->
<g id="edge22" class="edge"><title>Node19&#45;&gt;Node22</title>
<path fill="none" stroke="midnightblue" d="M1224.1,-174.403C1222.27,-165.938 1221.8,-152.728 1222.69,-141.82"/>
<polygon fill="midnightblue" stroke="midnightblue" points="1226.2,-141.966 1224.1,-131.581 1219.26,-141.006 1226.2,-141.966"/>
</g>
<!-- Node22&#45;&gt;Node19 -->
<g id="edge23" class="edge"><title>Node22&#45;&gt;Node19</title>
<path fill="none" stroke="midnightblue" d="M1233.9,-131.581C1235.73,-140.04 1236.2,-153.248 1235.32,-164.16"/>
<polygon fill="midnightblue" stroke="midnightblue" points="1231.8,-164.018 1233.9,-174.403 1238.74,-164.977 1231.8,-164.018"/>
</g>
<!-- Node24&#45;&gt;Node5 -->
<g id="edge33" class="edge"><title>Node24&#45;&gt;Node5</title>
<path fill="none" stroke="midnightblue" d="M257.671,-310.16C251.742,-300.135 242.066,-283.206 235,-268 224.963,-246.402 215.406,-220.704 209.393,-203.685"/>
<polygon fill="midnightblue" stroke="midnightblue" points="212.575,-202.18 205.984,-193.884 205.963,-204.479 212.575,-202.18"/>
</g>
<!-- Node24&#45;&gt;Node6 -->
<g id="edge31" class="edge"><title>Node24&#45;&gt;Node6</title>
<path fill="none" stroke="midnightblue" d="M311.511,-310.439C380.033,-298.347 504.999,-276.294 578.55,-263.315"/>
<polygon fill="midnightblue" stroke="midnightblue" points="579.336,-266.73 588.575,-261.546 578.119,-259.837 579.336,-266.73"/>
</g>
<!-- Node24&#45;&gt;Node7 -->
<g id="edge32" class="edge"><title>Node24&#45;&gt;Node7</title>
<path fill="none" stroke="midnightblue" d="M252.808,-310.485C232.344,-292.602 186.937,-248.738 172,-200 167.833,-186.402 164.788,-180.258 172,-168 180.918,-152.844 196.989,-142.426 212.478,-135.464"/>
<polygon fill="midnightblue" stroke="midnightblue" points="214.056,-138.6 221.977,-131.564 211.397,-132.124 214.056,-138.6"/>
</g>
<!-- Node25 -->
<g id="node25" class="node"><title>Node25</title>
<g id="a_node25"><a xlink:href="AlignedStdVector_8hpp.html" target="_top" xlink:title="Core/Containers/AlignedStd\lVector.hpp">
<polygon fill="white" stroke="black" points="244,-237 244,-267 382,-267 382,-237 244,-237"/>
<text text-anchor="start" x="252" y="-255" font-family="Helvetica,sans-Serif" font-size="10.00">Core/Containers/AlignedStd</text>
<text text-anchor="middle" x="313" y="-244" font-family="Helvetica,sans-Serif" font-size="10.00">Vector.hpp</text>
</a>
</g>
</g>
<!-- Node24&#45;&gt;Node25 -->
<g id="edge27" class="edge"><title>Node24&#45;&gt;Node25</title>
<path fill="none" stroke="midnightblue" d="M269.537,-310.372C276.225,-301.543 286.897,-287.456 295.992,-275.45"/>
<polygon fill="midnightblue" stroke="midnightblue" points="299.008,-277.266 302.256,-267.181 293.428,-273.039 299.008,-277.266"/>
</g>
<!-- Node25&#45;&gt;Node5 -->
<g id="edge30" class="edge"><title>Node25&#45;&gt;Node5</title>
<path fill="none" stroke="midnightblue" d="M289.402,-236.841C270.717,-225.63 244.759,-210.056 226.183,-198.91"/>
<polygon fill="midnightblue" stroke="midnightblue" points="227.845,-195.826 217.47,-193.682 224.244,-201.828 227.845,-195.826"/>
</g>
<!-- Node25&#45;&gt;Node7 -->
<g id="edge28" class="edge"><title>Node25&#45;&gt;Node7</title>
<path fill="none" stroke="midnightblue" d="M298.541,-236.588C289.669,-226.978 278.752,-213.644 272,-200 262.761,-181.331 257.807,-157.837 255.299,-141.74"/>
<polygon fill="midnightblue" stroke="midnightblue" points="258.72,-140.926 253.879,-131.502 251.786,-141.888 258.72,-140.926"/>
</g>
<!-- Node26 -->
<g id="node26" class="node"><title>Node26</title>
<polygon fill="white" stroke="#bfbfbf" points="281,-174.5 281,-193.5 369,-193.5 369,-174.5 281,-174.5"/>
<text text-anchor="middle" x="325" y="-181.5" font-family="Helvetica,sans-Serif" font-size="10.00">Eigen/StdVector</text>
</g>
<!-- Node25&#45;&gt;Node26 -->
<g id="edge29" class="edge"><title>Node25&#45;&gt;Node26</title>
<path fill="none" stroke="midnightblue" d="M315.604,-236.679C317.345,-227.101 319.656,-214.394 321.55,-203.977"/>
<polygon fill="midnightblue" stroke="midnightblue" points="325.049,-204.293 323.395,-193.828 318.162,-203.041 325.049,-204.293"/>
</g>
<!-- Node27&#45;&gt;Node6 -->
<g id="edge36" class="edge"><title>Node27&#45;&gt;Node6</title>
<path fill="none" stroke="midnightblue" d="M656.646,-372.66C652.65,-348.32 644.541,-298.933 640.093,-271.837"/>
<polygon fill="midnightblue" stroke="midnightblue" points="643.507,-271.028 638.433,-261.728 636.599,-272.162 643.507,-271.028"/>
</g>
<!-- Node27&#45;&gt;Node24 -->
<g id="edge35" class="edge"><title>Node27&#45;&gt;Node24</title>
<path fill="none" stroke="midnightblue" d="M605.182,-378.03C531.918,-365.82 401.132,-344.022 324.213,-331.202"/>
<polygon fill="midnightblue" stroke="midnightblue" points="324.628,-327.723 314.188,-329.531 323.477,-334.628 324.628,-327.723"/>
</g>
<!-- Node28 -->
<g id="node28" class="node"><title>Node28</title>
<g id="a_node28"><a xlink:href="MeshTypes_8hpp.html" target="_top" xlink:title="Core/Mesh/MeshTypes.hpp">
<polygon fill="white" stroke="black" points="672.5,-310.5 672.5,-329.5 809.5,-329.5 809.5,-310.5 672.5,-310.5"/>
<text text-anchor="middle" x="741" y="-317.5" font-family="Helvetica,sans-Serif" font-size="10.00">Core/Mesh/MeshTypes.hpp</text>
</a>
</g>
</g>
<!-- Node27&#45;&gt;Node28 -->
<g id="edge37" class="edge"><title>Node27&#45;&gt;Node28</title>
<path fill="none" stroke="midnightblue" d="M676.793,-372.679C690.211,-361.879 708.575,-347.098 722.227,-336.11"/>
<polygon fill="midnightblue" stroke="midnightblue" points="724.436,-338.825 730.032,-329.828 720.047,-333.372 724.436,-338.825"/>
</g>
<!-- Node28&#45;&gt;Node6 -->
<g id="edge41" class="edge"><title>Node28&#45;&gt;Node6</title>
<path fill="none" stroke="midnightblue" d="M727.404,-310.372C710.042,-299.353 679.774,-280.145 659.083,-267.014"/>
<polygon fill="midnightblue" stroke="midnightblue" points="660.918,-264.034 650.6,-261.63 657.167,-269.944 660.918,-264.034"/>
</g>
<!-- Node28&#45;&gt;Node7 -->
<g id="edge42" class="edge"><title>Node28&#45;&gt;Node7</title>
<path fill="none" stroke="midnightblue" d="M809.558,-314.992C945.002,-304.772 1225.66,-270.816 1128,-168 1099.78,-138.287 498.835,-126.708 309.56,-123.79"/>
<polygon fill="midnightblue" stroke="midnightblue" points="309.589,-120.291 299.537,-123.638 309.483,-127.29 309.589,-120.291"/>
</g>
<!-- Node29 -->
<g id="node29" class="node"><title>Node29</title>
<g id="a_node29"><a xlink:href="Index_8hpp.html" target="_top" xlink:title="Core/Index/Index.hpp">
<polygon fill="white" stroke="black" points="1265,-242.5 1265,-261.5 1375,-261.5 1375,-242.5 1265,-242.5"/>
<text text-anchor="middle" x="1320" y="-249.5" font-family="Helvetica,sans-Serif" font-size="10.00">Core/Index/Index.hpp</text>
</a>
</g>
</g>
<!-- Node28&#45;&gt;Node29 -->
<g id="edge38" class="edge"><title>Node28&#45;&gt;Node29</title>
<path fill="none" stroke="midnightblue" d="M809.693,-311.17C922.255,-298.339 1144.47,-273.009 1254.75,-260.438"/>
<polygon fill="midnightblue" stroke="midnightblue" points="1255.2,-263.909 1264.74,-259.299 1254.41,-256.954 1255.2,-263.909"/>
</g>
<!-- Node30 -->
<g id="node30" class="node"><title>Node30</title>
<polygon fill="white" stroke="#bfbfbf" points="1300,-174.5 1300,-193.5 1340,-193.5 1340,-174.5 1300,-174.5"/>
<text text-anchor="middle" x="1320" y="-181.5" font-family="Helvetica,sans-Serif" font-size="10.00">limits</text>
</g>
<!-- Node29&#45;&gt;Node30 -->
<g id="edge39" class="edge"><title>Node29&#45;&gt;Node30</title>
<path fill="none" stroke="midnightblue" d="M1320,-242.372C1320,-232.643 1320,-216.528 1320,-203.85"/>
<polygon fill="midnightblue" stroke="midnightblue" points="1323.5,-203.841 1320,-193.841 1316.5,-203.841 1323.5,-203.841"/>
</g>
<!-- Node31 -->
<g id="node31" class="node"><title>Node31</title>
<g id="a_node31"><a xlink:href="Index_8inl.html" target="_top" xlink:title="Core/Index/Index.inl">
<polygon fill="white" stroke="black" points="1358,-174.5 1358,-193.5 1462,-193.5 1462,-174.5 1358,-174.5"/>
<text text-anchor="middle" x="1410" y="-181.5" font-family="Helvetica,sans-Serif" font-size="10.00">Core/Index/Index.inl</text>
</a>
</g>
</g>
<!-- Node29&#45;&gt;Node31 -->
<g id="edge40" class="edge"><title>Node29&#45;&gt;Node31</title>
<path fill="none" stroke="midnightblue" d="M1331.77,-242.372C1346.59,-231.502 1372.28,-212.66 1390.16,-199.547"/>
<polygon fill="midnightblue" stroke="midnightblue" points="1392.24,-202.367 1398.23,-193.63 1388.1,-196.722 1392.24,-202.367"/>
</g>
<!-- Node32&#45;&gt;Node6 -->
<g id="edge45" class="edge"><title>Node32&#45;&gt;Node6</title>
<path fill="none" stroke="midnightblue" d="M496.368,-440.876C511.772,-431.751 530.892,-418.831 545,-404 584.556,-362.417 615.403,-301.036 629.166,-270.952"/>
<polygon fill="midnightblue" stroke="midnightblue" points="632.416,-272.257 633.307,-261.7 626.027,-269.397 632.416,-272.257"/>
</g>
<!-- Node32&#45;&gt;Node24 -->
<g id="edge44" class="edge"><title>Node32&#45;&gt;Node24</title>
<path fill="none" stroke="midnightblue" d="M448.239,-440.913C408.467,-415.167 324.483,-360.801 284.732,-335.068"/>
<polygon fill="midnightblue" stroke="midnightblue" points="286.587,-332.099 276.29,-329.603 282.783,-337.976 286.587,-332.099"/>
</g>
<!-- Node32&#45;&gt;Node28 -->
<g id="edge46" class="edge"><title>Node32&#45;&gt;Node28</title>
<path fill="none" stroke="midnightblue" d="M534.082,-449.752C599.419,-443.083 694.797,-429.276 721,-404 738.219,-387.39 741.675,-358.728 741.879,-339.816"/>
<polygon fill="midnightblue" stroke="midnightblue" points="745.377,-339.667 741.691,-329.734 738.378,-339.798 745.377,-339.667"/>
</g>
<!-- Node33 -->
<g id="node33" class="node"><title>Node33</title>
<g id="a_node33"><a xlink:href="Adjacency_8hpp.html" target="_top" xlink:title="Core/Geometry/Adjacency\l/Adjacency.hpp">
<polygon fill="white" stroke="black" points="404,-373 404,-403 536,-403 536,-373 404,-373"/>
<text text-anchor="start" x="412" y="-391" font-family="Helvetica,sans-Serif" font-size="10.00">Core/Geometry/Adjacency</text>
<text text-anchor="middle" x="470" y="-380" font-family="Helvetica,sans-Serif" font-size="10.00">/Adjacency.hpp</text>
</a>
</g>
</g>
<!-- Node32&#45;&gt;Node33 -->
<g id="edge47" class="edge"><title>Node32&#45;&gt;Node33</title>
<path fill="none" stroke="midnightblue" d="M470,-440.679C470,-432.722 470,-422.605 470,-413.436"/>
<polygon fill="midnightblue" stroke="midnightblue" points="473.5,-413.293 470,-403.293 466.5,-413.293 473.5,-413.293"/>
</g>
<!-- Node33&#45;&gt;Node6 -->
<g id="edge50" class="edge"><title>Node33&#45;&gt;Node6</title>
<path fill="none" stroke="midnightblue" d="M493.933,-372.835C509.751,-363.119 530.682,-349.574 548,-336 575.294,-314.606 604.176,-286.525 621.389,-269.127"/>
<polygon fill="midnightblue" stroke="midnightblue" points="624.344,-271.113 628.843,-261.521 619.344,-266.213 624.344,-271.113"/>
</g>
<!-- Node33&#45;&gt;Node24 -->
<g id="edge49" class="edge"><title>Node33&#45;&gt;Node24</title>
<path fill="none" stroke="midnightblue" d="M425.847,-372.922C388.239,-360.931 334.841,-343.906 299.581,-332.664"/>
<polygon fill="midnightblue" stroke="midnightblue" points="300.293,-329.217 289.702,-329.514 298.166,-335.886 300.293,-329.217"/>
</g>
<!-- Node33&#45;&gt;Node25 -->
<g id="edge48" class="edge"><title>Node33&#45;&gt;Node25</title>
<path fill="none" stroke="midnightblue" d="M444.724,-372.835C428.661,-363.323 407.804,-350.006 391,-336 368.679,-317.395 346.281,-292.8 331.251,-275.222"/>
<polygon fill="midnightblue" stroke="midnightblue" points="333.619,-272.602 324.496,-267.214 328.268,-277.115 333.619,-272.602"/>
</g>
<!-- Node33&#45;&gt;Node28 -->
<g id="edge51" class="edge"><title>Node33&#45;&gt;Node28</title>
<path fill="none" stroke="midnightblue" d="M527.804,-372.922C578.096,-360.674 649.957,-343.173 696.047,-331.948"/>
<polygon fill="midnightblue" stroke="midnightblue" points="697.154,-335.281 706.042,-329.514 695.498,-328.479 697.154,-335.281"/>
</g>
<!-- Node34 -->
<g id="node34" class="node"><title>Node34</title>
<g id="a_node34"><a xlink:href="AdjacencyList_8hpp.html" target="_top" xlink:title="Core/Utils/Graph/Adjacency\lList.hpp">
<polygon fill="white" stroke="black" points="400.5,-305 400.5,-335 539.5,-335 539.5,-305 400.5,-305"/>
<text text-anchor="start" x="408.5" y="-323" font-family="Helvetica,sans-Serif" font-size="10.00">Core/Utils/Graph/Adjacency</text>
<text text-anchor="middle" x="470" y="-312" font-family="Helvetica,sans-Serif" font-size="10.00">List.hpp</text>
</a>
</g>
</g>
<!-- Node33&#45;&gt;Node34 -->
<g id="edge52" class="edge"><title>Node33&#45;&gt;Node34</title>
<path fill="none" stroke="midnightblue" d="M470,-372.679C470,-364.722 470,-354.605 470,-345.436"/>
<polygon fill="midnightblue" stroke="midnightblue" points="473.5,-345.293 470,-335.293 466.5,-345.293 473.5,-345.293"/>
</g>
<!-- Node34&#45;&gt;Node25 -->
<g id="edge53" class="edge"><title>Node34&#45;&gt;Node25</title>
<path fill="none" stroke="midnightblue" d="M436.32,-304.841C412.751,-294.933 381.076,-281.618 355.729,-270.963"/>
<polygon fill="midnightblue" stroke="midnightblue" points="356.93,-267.671 346.355,-267.022 354.217,-274.124 356.93,-267.671"/>
</g>
<!-- Node35 -->
<g id="node35" class="node"><title>Node35</title>
<g id="a_node35"><a xlink:href="AdjacencyList_8inl.html" target="_top" xlink:title="Core/Utils/Graph/Adjacency\lList.inl">
<polygon fill="white" stroke="black" points="400.5,-237 400.5,-267 539.5,-267 539.5,-237 400.5,-237"/>
<text text-anchor="start" x="408.5" y="-255" font-family="Helvetica,sans-Serif" font-size="10.00">Core/Utils/Graph/Adjacency</text>
<text text-anchor="middle" x="470" y="-244" font-family="Helvetica,sans-Serif" font-size="10.00">List.inl</text>
</a>
</g>
</g>
<!-- Node34&#45;&gt;Node35 -->
<g id="edge54" class="edge"><title>Node34&#45;&gt;Node35</title>
<path fill="none" stroke="midnightblue" d="M464.322,-304.679C463.294,-296.722 463.005,-286.605 463.456,-277.436"/>
<polygon fill="midnightblue" stroke="midnightblue" points="466.959,-277.555 464.325,-267.293 459.984,-276.958 466.959,-277.555"/>
</g>
<!-- Node35&#45;&gt;Node34 -->
<g id="edge55" class="edge"><title>Node35&#45;&gt;Node34</title>
<path fill="none" stroke="midnightblue" d="M475.675,-267.293C476.704,-275.245 476.995,-285.361 476.545,-294.532"/>
<polygon fill="midnightblue" stroke="midnightblue" points="473.042,-294.417 475.678,-304.679 480.017,-295.013 473.042,-294.417"/>
</g>
<!-- Node36 -->
<g id="node36" class="node"><title>Node36</title>
<polygon fill="white" stroke="#bfbfbf" points="387,-174.5 387,-193.5 417,-193.5 417,-174.5 387,-174.5"/>
<text text-anchor="middle" x="402" y="-181.5" font-family="Helvetica,sans-Serif" font-size="10.00">set</text>
</g>
<!-- Node35&#45;&gt;Node36 -->
<g id="edge56" class="edge"><title>Node35&#45;&gt;Node36</title>
<path fill="none" stroke="midnightblue" d="M455.245,-236.679C444.432,-226.184 429.748,-211.932 418.539,-201.052"/>
<polygon fill="midnightblue" stroke="midnightblue" points="420.709,-198.282 411.096,-193.828 415.834,-203.305 420.709,-198.282"/>
</g>
</g>
</svg>
