<?xml version="1.0" encoding="UTF-8" standalone="no"?>
<!DOCTYPE svg PUBLIC "-//W3C//DTD SVG 1.1//EN"
 "http://www.w3.org/Graphics/SVG/1.1/DTD/svg11.dtd">
<!-- Generated by graphviz version 2.36.0 (20140111.2315)
 -->
<!-- Title: Graphical Class Hierarchy Pages: 1 -->
<svg width="288pt" height="66pt"
 viewBox="0.00 0.00 288.00 66.00" xmlns="http://www.w3.org/2000/svg" xmlns:xlink="http://www.w3.org/1999/xlink">
<g id="graph0" class="graph" transform="scale(1 1) rotate(0) translate(4 62)">
<title>Graphical Class Hierarchy</title>
<polygon fill="white" stroke="none" points="-4,4 -4,-62 284,-62 284,4 -4,4"/>
<!-- Node1 -->
<g id="node1" class="node"><title>Node1</title>
<g id="a_node1"><a xlink:href="classRa_1_1Asset_1_1KeyFrame.html" target="_top" xlink:title="Ra::Asset::KeyFrame\l\&lt; Core::Vector3 \&gt;">
<polygon fill="white" stroke="black" points="0,-14 0,-44 112,-44 112,-14 0,-14"/>
<text text-anchor="start" x="8" y="-32" font-family="Helvetica,sans-Serif" font-size="10.00">Ra::Asset::KeyFrame</text>
<text text-anchor="middle" x="56" y="-21" font-family="Helvetica,sans-Serif" font-size="10.00">&lt; Core::Vector3 &gt;</text>
</a>
</g>
</g>
<!-- Node2 -->
<g id="node2" class="node"><title>Node2</title>
<g id="a_node2"><a xlink:href="classRa_1_1Asset_1_1KeyScaling.html" target="_top" xlink:title="Ra::Asset::KeyScaling">
<polygon fill="white" stroke="black" points="156,-38.5 156,-57.5 272,-57.5 272,-38.5 156,-38.5"/>
<text text-anchor="middle" x="214" y="-45.5" font-family="Helvetica,sans-Serif" font-size="10.00">Ra::Asset::KeyScaling</text>
</a>
</g>
</g>
<!-- Node1&#45;&gt;Node2 -->
<g id="edge1" class="edge"><title>Node1&#45;&gt;Node2</title>
<path fill="none" stroke="midnightblue" d="M122.504,-36.978C133.598,-38.3292 145.038,-39.7226 155.896,-41.045"/>
<polygon fill="midnightblue" stroke="midnightblue" points="122.789,-33.487 112.439,-35.7522 121.942,-40.4356 122.789,-33.487"/>
</g>
<!-- Node3 -->
<g id="node3" class="node"><title>Node3</title>
<g id="a_node3"><a xlink:href="classRa_1_1Asset_1_1KeyTranslation.html" target="_top" xlink:title="Ra::Asset::KeyTranslation">
<polygon fill="white" stroke="black" points="148,-0.5 148,-19.5 280,-19.5 280,-0.5 148,-0.5"/>
<text text-anchor="middle" x="214" y="-7.5" font-family="Helvetica,sans-Serif" font-size="10.00">Ra::Asset::KeyTranslation</text>
</a>
</g>
</g>
<!-- Node1&#45;&gt;Node3 -->
<g id="edge2" class="edge"><title>Node1&#45;&gt;Node3</title>
<path fill="none" stroke="midnightblue" d="M122.539,-21.0176C130.922,-19.9967 139.502,-18.9517 147.878,-17.9315"/>
<polygon fill="midnightblue" stroke="midnightblue" points="121.942,-17.5644 112.439,-22.2478 122.789,-24.513 121.942,-17.5644"/>
</g>
</g>
</svg>
