<?xml version="1.0" encoding="UTF-8" standalone="no"?>
<!DOCTYPE svg PUBLIC "-//W3C//DTD SVG 1.1//EN"
 "http://www.w3.org/Graphics/SVG/1.1/DTD/svg11.dtd">
<!-- Generated by graphviz version 2.36.0 (20140111.2315)
 -->
<!-- Title: Graphical Class Hierarchy Pages: 1 -->
<svg width="256pt" height="104pt"
 viewBox="0.00 0.00 256.00 104.00" xmlns="http://www.w3.org/2000/svg" xmlns:xlink="http://www.w3.org/1999/xlink">
<g id="graph0" class="graph" transform="scale(1 1) rotate(0) translate(4 100)">
<title>Graphical Class Hierarchy</title>
<polygon fill="white" stroke="none" points="-4,4 -4,-100 252,-100 252,4 -4,4"/>
<!-- Node1 -->
<g id="node1" class="node"><title>Node1</title>
<g id="a_node1"><a xlink:href="classRa_1_1Gui_1_1Gizmo.html" target="_top" xlink:title="Base class for gizmos, i.e. ">
<polygon fill="white" stroke="black" points="0.5,-38.5 0.5,-57.5 85.5,-57.5 85.5,-38.5 0.5,-38.5"/>
<text text-anchor="middle" x="43" y="-45.5" font-family="Helvetica,sans-Serif" font-size="10.00">Ra::Gui::Gizmo</text>
</a>
</g>
</g>
<!-- Node2 -->
<g id="node2" class="node"><title>Node2</title>
<g id="a_node2"><a xlink:href="classRa_1_1Gui_1_1RotateGizmo.html" target="_top" xlink:title="A RotateGizmo manipulates the rotational part of a transformation. ">
<polygon fill="white" stroke="black" points="128,-76.5 128,-95.5 242,-95.5 242,-76.5 128,-76.5"/>
<text text-anchor="middle" x="185" y="-83.5" font-family="Helvetica,sans-Serif" font-size="10.00">Ra::Gui::RotateGizmo</text>
</a>
</g>
</g>
<!-- Node1&#45;&gt;Node2 -->
<g id="edge1" class="edge"><title>Node1&#45;&gt;Node2</title>
<path fill="none" stroke="midnightblue" d="M89.1176,-60.2462C108.415,-65.484 130.612,-71.5091 148.683,-76.4141"/>
<polygon fill="midnightblue" stroke="midnightblue" points="89.8956,-56.8308 79.3279,-57.589 88.0619,-63.5864 89.8956,-56.8308"/>
</g>
<!-- Node3 -->
<g id="node3" class="node"><title>Node3</title>
<g id="a_node3"><a xlink:href="classRa_1_1Gui_1_1ScaleGizmo.html" target="_top" xlink:title="A ScaleGizmo manipulates the scaling part of a transformation. ">
<polygon fill="white" stroke="black" points="130,-38.5 130,-57.5 240,-57.5 240,-38.5 130,-38.5"/>
<text text-anchor="middle" x="185" y="-45.5" font-family="Helvetica,sans-Serif" font-size="10.00">Ra::Gui::ScaleGizmo</text>
</a>
</g>
</g>
<!-- Node1&#45;&gt;Node3 -->
<g id="edge2" class="edge"><title>Node1&#45;&gt;Node3</title>
<path fill="none" stroke="midnightblue" d="M95.6323,-48C106.772,-48 118.579,-48 129.813,-48"/>
<polygon fill="midnightblue" stroke="midnightblue" points="95.6256,-44.5001 85.6256,-48 95.6255,-51.5001 95.6256,-44.5001"/>
</g>
<!-- Node4 -->
<g id="node4" class="node"><title>Node4</title>
<g id="a_node4"><a xlink:href="classRa_1_1Gui_1_1TranslateGizmo.html" target="_top" xlink:title="A TranslateGizmo manipulates the translational part of a transformation. ">
<polygon fill="white" stroke="black" points="122.5,-0.5 122.5,-19.5 247.5,-19.5 247.5,-0.5 122.5,-0.5"/>
<text text-anchor="middle" x="185" y="-7.5" font-family="Helvetica,sans-Serif" font-size="10.00">Ra::Gui::TranslateGizmo</text>
</a>
</g>
</g>
<!-- Node1&#45;&gt;Node4 -->
<g id="edge3" class="edge"><title>Node1&#45;&gt;Node4</title>
<path fill="none" stroke="midnightblue" d="M89.1176,-35.7538C108.415,-30.516 130.612,-24.4909 148.683,-19.5859"/>
<polygon fill="midnightblue" stroke="midnightblue" points="88.0619,-32.4136 79.3279,-38.411 89.8956,-39.1692 88.0619,-32.4136"/>
</g>
</g>
</svg>
