<?xml version="1.0" encoding="UTF-8" standalone="no"?>
<!DOCTYPE svg PUBLIC "-//W3C//DTD SVG 1.1//EN"
 "http://www.w3.org/Graphics/SVG/1.1/DTD/svg11.dtd">
<!-- Generated by graphviz version 2.36.0 (20140111.2315)
 -->
<!-- Title: Graphical Class Hierarchy Pages: 1 -->
<svg width="470pt" height="66pt"
 viewBox="0.00 0.00 470.00 66.00" xmlns="http://www.w3.org/2000/svg" xmlns:xlink="http://www.w3.org/1999/xlink">
<g id="graph0" class="graph" transform="scale(1 1) rotate(0) translate(4 62)">
<title>Graphical Class Hierarchy</title>
<polygon fill="white" stroke="none" points="-4,4 -4,-62 466,-62 466,4 -4,4"/>
<!-- Node1 -->
<g id="node1" class="node"><title>Node1</title>
<g id="a_node1"><a xlink:href="classRa_1_1Core_1_1IndexedObject.html" target="_top" xlink:title="Ra::Core::IndexedObject">
<polygon fill="white" stroke="black" points="0.5,-19.5 0.5,-38.5 125.5,-38.5 125.5,-19.5 0.5,-19.5"/>
<text text-anchor="middle" x="63" y="-26.5" font-family="Helvetica,sans-Serif" font-size="10.00">Ra::Core::IndexedObject</text>
</a>
</g>
</g>
<!-- Node2 -->
<g id="node2" class="node"><title>Node2</title>
<g id="a_node2"><a xlink:href="classRa_1_1Engine_1_1Entity.html" target="_top" xlink:title="An entity is an scene element. It ties together components with a transform. ">
<polygon fill="white" stroke="black" points="179.5,-38.5 179.5,-57.5 276.5,-57.5 276.5,-38.5 179.5,-38.5"/>
<text text-anchor="middle" x="228" y="-45.5" font-family="Helvetica,sans-Serif" font-size="10.00">Ra::Engine::Entity</text>
</a>
</g>
</g>
<!-- Node1&#45;&gt;Node2 -->
<g id="edge1" class="edge"><title>Node1&#45;&gt;Node2</title>
<path fill="none" stroke="midnightblue" d="M135.731,-37.3613C150.465,-39.0788 165.632,-40.8466 179.266,-42.436"/>
<polygon fill="midnightblue" stroke="midnightblue" points="135.961,-33.8645 125.623,-36.1831 135.151,-40.8174 135.961,-33.8645"/>
</g>
<!-- Node4 -->
<g id="node4" class="node"><title>Node4</title>
<g id="a_node4"><a xlink:href="classRa_1_1Engine_1_1RenderObject.html" target="_top" xlink:title="Ra::Engine::RenderObject">
<polygon fill="white" stroke="black" points="162.5,-0.5 162.5,-19.5 293.5,-19.5 293.5,-0.5 162.5,-0.5"/>
<text text-anchor="middle" x="228" y="-7.5" font-family="Helvetica,sans-Serif" font-size="10.00">Ra::Engine::RenderObject</text>
</a>
</g>
</g>
<!-- Node1&#45;&gt;Node4 -->
<g id="edge3" class="edge"><title>Node1&#45;&gt;Node4</title>
<path fill="none" stroke="midnightblue" d="M135.573,-20.6571C144.467,-19.6204 153.52,-18.5651 162.302,-17.5415"/>
<polygon fill="midnightblue" stroke="midnightblue" points="135.151,-17.1826 125.623,-21.8169 135.961,-24.1355 135.151,-17.1826"/>
</g>
<!-- Node3 -->
<g id="node3" class="node"><title>Node3</title>
<g id="a_node3"><a xlink:href="classRa_1_1Engine_1_1SystemEntity.html" target="_top" xlink:title="This entity allows to add UI and debug drawables from everywhere in the code. ">
<polygon fill="white" stroke="black" points="330.5,-38.5 330.5,-57.5 461.5,-57.5 461.5,-38.5 330.5,-38.5"/>
<text text-anchor="middle" x="396" y="-45.5" font-family="Helvetica,sans-Serif" font-size="10.00">Ra::Engine::SystemEntity</text>
</a>
</g>
</g>
<!-- Node2&#45;&gt;Node3 -->
<g id="edge2" class="edge"><title>Node2&#45;&gt;Node3</title>
<path fill="none" stroke="midnightblue" d="M286.638,-48C300.766,-48 315.978,-48 330.409,-48"/>
<polygon fill="midnightblue" stroke="midnightblue" points="286.569,-44.5001 276.569,-48 286.569,-51.5001 286.569,-44.5001"/>
</g>
</g>
</svg>
