<?xml version="1.0" encoding="UTF-8" standalone="no"?>
<!DOCTYPE svg PUBLIC "-//W3C//DTD SVG 1.1//EN"
 "http://www.w3.org/Graphics/SVG/1.1/DTD/svg11.dtd">
<!-- Generated by graphviz version 2.36.0 (20140111.2315)
 -->
<!-- Title: Graphical Class Hierarchy Pages: 1 -->
<svg width="514pt" height="350pt"
 viewBox="0.00 0.00 514.00 350.00" xmlns="http://www.w3.org/2000/svg" xmlns:xlink="http://www.w3.org/1999/xlink">
<g id="graph0" class="graph" transform="scale(1 1) rotate(0) translate(4 346)">
<title>Graphical Class Hierarchy</title>
<polygon fill="white" stroke="none" points="-4,4 -4,-346 510,-346 510,4 -4,4"/>
<!-- Node1 -->
<g id="node1" class="node"><title>Node1</title>
<g id="a_node1"><a xlink:href="classQObject.html" target="_top" xlink:title="QObject">
<polygon fill="white" stroke="black" points="48.5,-144.5 48.5,-163.5 101.5,-163.5 101.5,-144.5 48.5,-144.5"/>
<text text-anchor="middle" x="75" y="-151.5" font-family="Helvetica,sans-Serif" font-size="10.00">QObject</text>
</a>
</g>
</g>
<!-- Node2 -->
<g id="node2" class="node"><title>Node2</title>
<g id="a_node2"><a xlink:href="classAnimationPlugin_1_1AnimationPluginC.html" target="_top" xlink:title="AnimationPlugin::Animation\lPluginC">
<polygon fill="white" stroke="black" points="193.5,-312 193.5,-342 330.5,-342 330.5,-312 193.5,-312"/>
<text text-anchor="start" x="201.5" y="-330" font-family="Helvetica,sans-Serif" font-size="10.00">AnimationPlugin::Animation</text>
<text text-anchor="middle" x="262" y="-319" font-family="Helvetica,sans-Serif" font-size="10.00">PluginC</text>
</a>
</g>
</g>
<!-- Node1&#45;&gt;Node2 -->
<g id="edge1" class="edge"><title>Node1&#45;&gt;Node2</title>
<path fill="none" stroke="midnightblue" d="M111.231,-163.38C124.975,-168.618 139.838,-176.483 150,-188 185.154,-227.841 148.729,-264.132 186,-302 189.851,-305.913 194.33,-309.213 199.146,-311.997"/>
<polygon fill="midnightblue" stroke="midnightblue" points="112.099,-159.977 101.504,-160.015 109.81,-166.592 112.099,-159.977"/>
</g>
<!-- Node3 -->
<g id="node3" class="node"><title>Node3</title>
<g id="a_node3"><a xlink:href="classCameraManipPlugin_1_1CameraManipPluginC.html" target="_top" xlink:title="The CameraManipPlugin allows to change the current camera used for display, create a copy of the curr...">
<polygon fill="white" stroke="black" points="206,-263 206,-293 318,-293 318,-263 206,-263"/>
<text text-anchor="start" x="214" y="-281" font-family="Helvetica,sans-Serif" font-size="10.00">CameraManipPlugin::</text>
<text text-anchor="middle" x="262" y="-270" font-family="Helvetica,sans-Serif" font-size="10.00">CameraManipPluginC</text>
</a>
</g>
</g>
<!-- Node1&#45;&gt;Node3 -->
<g id="edge2" class="edge"><title>Node1&#45;&gt;Node3</title>
<path fill="none" stroke="midnightblue" d="M111.046,-164.809C124.377,-170.196 138.99,-177.787 150,-188 174.211,-210.458 160.602,-231.893 186,-253 191.806,-257.825 198.579,-261.73 205.635,-264.889"/>
<polygon fill="midnightblue" stroke="midnightblue" points="112.228,-161.514 101.636,-161.27 109.764,-168.066 112.228,-161.514"/>
</g>
<!-- Node4 -->
<g id="node4" class="node"><title>Node4</title>
<g id="a_node4"><a xlink:href="classDummyPlugin_1_1DummyPlugin.html" target="_top" xlink:title="DummyPlugin::DummyPlugin">
<polygon fill="white" stroke="black" points="189,-224.5 189,-243.5 335,-243.5 335,-224.5 189,-224.5"/>
<text text-anchor="middle" x="262" y="-231.5" font-family="Helvetica,sans-Serif" font-size="10.00">DummyPlugin::DummyPlugin</text>
</a>
</g>
</g>
<!-- Node1&#45;&gt;Node4 -->
<g id="edge3" class="edge"><title>Node1&#45;&gt;Node4</title>
<path fill="none" stroke="midnightblue" d="M109.412,-167.694C122.371,-173.431 137.154,-180.506 150,-188 167.048,-197.945 168.169,-205.539 186,-214 194.888,-218.217 204.805,-221.656 214.442,-224.416"/>
<polygon fill="midnightblue" stroke="midnightblue" points="110.487,-164.346 99.9198,-163.584 107.706,-170.77 110.487,-164.346"/>
</g>
<!-- Node5 -->
<g id="node5" class="node"><title>Node5</title>
<g id="a_node5"><a xlink:href="classMeshFeatureTrackingPlugin_1_1MeshFeatureTrackingPluginC.html" target="_top" xlink:title="MeshFeatureTrackingPlugin\l::MeshFeatureTrackingPluginC">
<polygon fill="white" stroke="black" points="186,-175 186,-205 338,-205 338,-175 186,-175"/>
<text text-anchor="start" x="194" y="-193" font-family="Helvetica,sans-Serif" font-size="10.00">MeshFeatureTrackingPlugin</text>
<text text-anchor="middle" x="262" y="-182" font-family="Helvetica,sans-Serif" font-size="10.00">::MeshFeatureTrackingPluginC</text>
</a>
</g>
</g>
<!-- Node1&#45;&gt;Node5 -->
<g id="edge4" class="edge"><title>Node1&#45;&gt;Node5</title>
<path fill="none" stroke="midnightblue" d="M111.821,-160.971C132.901,-165.073 160.372,-170.418 185.987,-175.403"/>
<polygon fill="midnightblue" stroke="midnightblue" points="112.208,-157.48 101.723,-159.006 110.871,-164.351 112.208,-157.48"/>
</g>
<!-- Node6 -->
<g id="node6" class="node"><title>Node6</title>
<g id="a_node6"><a xlink:href="classMeshPaintPlugin_1_1MeshPaintPluginC.html" target="_top" xlink:title="MeshPaintPlugin::MeshPaint\lPluginC">
<polygon fill="white" stroke="black" points="190.5,-126 190.5,-156 333.5,-156 333.5,-126 190.5,-126"/>
<text text-anchor="start" x="198.5" y="-144" font-family="Helvetica,sans-Serif" font-size="10.00">MeshPaintPlugin::MeshPaint</text>
<text text-anchor="middle" x="262" y="-133" font-family="Helvetica,sans-Serif" font-size="10.00">PluginC</text>
</a>
</g>
</g>
<!-- Node1&#45;&gt;Node6 -->
<g id="edge5" class="edge"><title>Node1&#45;&gt;Node6</title>
<path fill="none" stroke="midnightblue" d="M111.749,-151.488C134.07,-149.919 163.576,-147.846 190.457,-145.957"/>
<polygon fill="midnightblue" stroke="midnightblue" points="111.453,-148 101.723,-152.192 111.944,-154.983 111.453,-148"/>
</g>
<!-- Node7 -->
<g id="node7" class="node"><title>Node7</title>
<g id="a_node7"><a xlink:href="classRa_1_1Gui_1_1CameraInterface.html" target="_top" xlink:title="The CameraInterface class is the generic class for camera manipulators. ">
<polygon fill="white" stroke="black" points="197.5,-38.5 197.5,-57.5 326.5,-57.5 326.5,-38.5 197.5,-38.5"/>
<text text-anchor="middle" x="262" y="-45.5" font-family="Helvetica,sans-Serif" font-size="10.00">Ra::Gui::CameraInterface</text>
</a>
</g>
</g>
<!-- Node1&#45;&gt;Node7 -->
<g id="edge6" class="edge"><title>Node1&#45;&gt;Node7</title>
<path fill="none" stroke="midnightblue" d="M92.5145,-137.172C112.77,-117.488 148.995,-85.2717 186,-67 193.708,-63.194 202.25,-60.1035 210.726,-57.6087"/>
<polygon fill="midnightblue" stroke="midnightblue" points="89.9721,-134.764 85.328,-144.287 94.8969,-139.739 89.9721,-134.764"/>
</g>
<!-- Node9 -->
<g id="node9" class="node"><title>Node9</title>
<g id="a_node9"><a xlink:href="classRa_1_1Gui_1_1GizmoManager.html" target="_top" xlink:title="This class interfaces the gizmos with the ui commands. ">
<polygon fill="white" stroke="black" points="201,-0.5 201,-19.5 323,-19.5 323,-0.5 201,-0.5"/>
<text text-anchor="middle" x="262" y="-7.5" font-family="Helvetica,sans-Serif" font-size="10.00">Ra::Gui::GizmoManager</text>
</a>
</g>
</g>
<!-- Node1&#45;&gt;Node9 -->
<g id="edge8" class="edge"><title>Node1&#45;&gt;Node9</title>
<path fill="none" stroke="midnightblue" d="M86.8685,-135.802C104.255,-108.316 140.99,-56.511 186,-29 192.303,-25.1472 199.36,-22.0729 206.556,-19.6204"/>
<polygon fill="midnightblue" stroke="midnightblue" points="83.8172,-134.082 81.5437,-144.43 89.7741,-137.758 83.8172,-134.082"/>
</g>
<!-- Node10 -->
<g id="node10" class="node"><title>Node10</title>
<g id="a_node10"><a xlink:href="classSkinningPlugin_1_1SkinningPluginC.html" target="_top" xlink:title="SkinningPlugin::Skinning\lPluginC">
<polygon fill="white" stroke="black" points="199.5,-77 199.5,-107 324.5,-107 324.5,-77 199.5,-77"/>
<text text-anchor="start" x="207.5" y="-95" font-family="Helvetica,sans-Serif" font-size="10.00">SkinningPlugin::Skinning</text>
<text text-anchor="middle" x="262" y="-84" font-family="Helvetica,sans-Serif" font-size="10.00">PluginC</text>
</a>
</g>
</g>
<!-- Node1&#45;&gt;Node10 -->
<g id="edge9" class="edge"><title>Node1&#45;&gt;Node10</title>
<path fill="none" stroke="midnightblue" d="M111.484,-142.037C133.031,-134.78 161.094,-125.34 186,-117 195.631,-113.775 205.961,-110.326 215.781,-107.051"/>
<polygon fill="midnightblue" stroke="midnightblue" points="110.134,-138.799 101.775,-145.308 112.369,-145.432 110.134,-138.799"/>
</g>
<!-- Node8 -->
<g id="node8" class="node"><title>Node8</title>
<g id="a_node8"><a xlink:href="classRa_1_1Gui_1_1TrackballCamera.html" target="_top" xlink:title="A Trackball manipulator for Cameras. ">
<polygon fill="white" stroke="black" points="374.5,-38.5 374.5,-57.5 505.5,-57.5 505.5,-38.5 374.5,-38.5"/>
<text text-anchor="middle" x="440" y="-45.5" font-family="Helvetica,sans-Serif" font-size="10.00">Ra::Gui::TrackballCamera</text>
</a>
</g>
</g>
<!-- Node7&#45;&gt;Node8 -->
<g id="edge7" class="edge"><title>Node7&#45;&gt;Node8</title>
<path fill="none" stroke="midnightblue" d="M336.886,-48C349.338,-48 362.176,-48 374.37,-48"/>
<polygon fill="midnightblue" stroke="midnightblue" points="336.54,-44.5001 326.54,-48 336.54,-51.5001 336.54,-44.5001"/>
</g>
<!-- Node11 -->
<g id="node11" class="node"><title>Node11</title>
<g id="a_node11"><a xlink:href="classRa_1_1Plugins_1_1RadiumPluginInterface.html" target="_top" xlink:title="Ra::Plugins::RadiumPlugin\lInterface">
<polygon fill="white" stroke="black" points="8,-197 8,-227 142,-227 142,-197 8,-197"/>
<text text-anchor="start" x="16" y="-215" font-family="Helvetica,sans-Serif" font-size="10.00">Ra::Plugins::RadiumPlugin</text>
<text text-anchor="middle" x="75" y="-204" font-family="Helvetica,sans-Serif" font-size="10.00">Interface</text>
</a>
</g>
</g>
<!-- Node11&#45;&gt;Node2 -->
<g id="edge10" class="edge"><title>Node11&#45;&gt;Node2</title>
<path fill="none" stroke="#8b1a1a" d="M98.1432,-234.284C119.17,-254.373 152.467,-283.518 186,-302 192.731,-305.71 200.107,-308.993 207.522,-311.859"/>
<polygon fill="#8b1a1a" stroke="#8b1a1a" points="100.324,-231.523 90.7105,-227.069 95.448,-236.545 100.324,-231.523"/>
</g>
<!-- Node11&#45;&gt;Node3 -->
<g id="edge11" class="edge"><title>Node11&#45;&gt;Node3</title>
<path fill="none" stroke="#8b1a1a" d="M124.714,-230.575C143.775,-237.733 165.86,-245.892 186,-253 195.319,-256.289 205.328,-259.705 214.903,-262.917"/>
<polygon fill="#8b1a1a" stroke="#8b1a1a" points="125.927,-227.292 115.335,-227.042 123.46,-233.842 125.927,-227.292"/>
</g>
<!-- Node11&#45;&gt;Node4 -->
<g id="edge12" class="edge"><title>Node11&#45;&gt;Node4</title>
<path fill="none" stroke="#8b1a1a" d="M152.078,-221.047C164.2,-222.489 176.71,-223.976 188.74,-225.407"/>
<polygon fill="#8b1a1a" stroke="#8b1a1a" points="152.349,-217.555 142.006,-219.849 151.522,-224.506 152.349,-217.555"/>
</g>
<!-- Node11&#45;&gt;Node5 -->
<g id="edge13" class="edge"><title>Node11&#45;&gt;Node5</title>
<path fill="none" stroke="#8b1a1a" d="M152.132,-202.946C163.281,-201.621 174.757,-200.256 185.884,-198.933"/>
<polygon fill="#8b1a1a" stroke="#8b1a1a" points="151.522,-199.494 142.006,-204.151 152.349,-206.445 151.522,-199.494"/>
</g>
<!-- Node11&#45;&gt;Node6 -->
<g id="edge14" class="edge"><title>Node11&#45;&gt;Node6</title>
<path fill="none" stroke="#8b1a1a" d="M119.619,-192.882C139.696,-184.309 163.915,-174.286 186,-166 194.995,-162.625 204.679,-159.227 214.002,-156.07"/>
<polygon fill="#8b1a1a" stroke="#8b1a1a" points="118.224,-189.672 110.416,-196.833 120.986,-196.104 118.224,-189.672"/>
</g>
<!-- Node11&#45;&gt;Node10 -->
<g id="edge15" class="edge"><title>Node11&#45;&gt;Node10</title>
<path fill="none" stroke="#8b1a1a" d="M122.322,-192.292C132.093,-186.894 141.888,-180.44 150,-173 171.805,-153 162.637,-135.155 186,-117 190.985,-113.126 196.601,-109.837 202.459,-107.048"/>
<polygon fill="#8b1a1a" stroke="#8b1a1a" points="120.646,-189.219 113.404,-196.952 123.888,-195.423 120.646,-189.219"/>
</g>
<!-- Node12 -->
<g id="node12" class="node"><title>Node12</title>
<g id="a_node12"><a xlink:href="classRa_1_1GuiBase_1_1TransformEditor.html" target="_top" xlink:title="Ra::GuiBase::TransformEditor">
<polygon fill="white" stroke="black" points="0.5,-0.5 0.5,-19.5 149.5,-19.5 149.5,-0.5 0.5,-0.5"/>
<text text-anchor="middle" x="75" y="-7.5" font-family="Helvetica,sans-Serif" font-size="10.00">Ra::GuiBase::TransformEditor</text>
</a>
</g>
</g>
<!-- Node12&#45;&gt;Node9 -->
<g id="edge16" class="edge"><title>Node12&#45;&gt;Node9</title>
<path fill="none" stroke="midnightblue" d="M159.71,-10C173.618,-10 187.793,-10 200.963,-10"/>
<polygon fill="midnightblue" stroke="midnightblue" points="159.649,-6.5001 149.648,-10 159.648,-13.5001 159.649,-6.5001"/>
</g>
</g>
</svg>
