<?xml version="1.0" encoding="UTF-8" standalone="no"?>
<!DOCTYPE svg PUBLIC "-//W3C//DTD SVG 1.1//EN"
 "http://www.w3.org/Graphics/SVG/1.1/DTD/svg11.dtd">
<!-- Generated by graphviz version 2.36.0 (20140111.2315)
 -->
<!-- Title: Graphical Class Hierarchy Pages: 1 -->
<svg width="848pt" height="290pt"
 viewBox="0.00 0.00 848.00 290.00" xmlns="http://www.w3.org/2000/svg" xmlns:xlink="http://www.w3.org/1999/xlink">
<g id="graph0" class="graph" transform="scale(1 1) rotate(0) translate(4 286)">
<title>Graphical Class Hierarchy</title>
<polygon fill="white" stroke="none" points="-4,4 -4,-286 844,-286 844,4 -4,4"/>
<!-- Node1 -->
<g id="node1" class="node"><title>Node1</title>
<g id="a_node1"><a xlink:href="classRa_1_1Engine_1_1System.html" target="_top" xlink:title="Systems are responsible of updating a specific subset of the components of each entity. ">
<polygon fill="white" stroke="black" points="0.5,-125.5 0.5,-144.5 105.5,-144.5 105.5,-125.5 0.5,-125.5"/>
<text text-anchor="middle" x="53" y="-132.5" font-family="Helvetica,sans-Serif" font-size="10.00">Ra::Engine::System</text>
</a>
</g>
</g>
<!-- Node2 -->
<g id="node2" class="node"><title>Node2</title>
<g id="a_node2"><a xlink:href="classDummyPlugin_1_1DummySystem.html" target="_top" xlink:title="DummyPlugin::DummySystem">
<polygon fill="white" stroke="black" points="142,-262.5 142,-281.5 294,-281.5 294,-262.5 142,-262.5"/>
<text text-anchor="middle" x="218" y="-269.5" font-family="Helvetica,sans-Serif" font-size="10.00">DummyPlugin::DummySystem</text>
</a>
</g>
</g>
<!-- Node1&#45;&gt;Node2 -->
<g id="edge1" class="edge"><title>Node1&#45;&gt;Node2</title>
<path fill="none" stroke="midnightblue" d="M63.0086,-153.778C76.4946,-179.85 104.42,-226.66 142,-252 148.48,-256.37 155.874,-259.786 163.435,-262.457"/>
<polygon fill="midnightblue" stroke="midnightblue" points="66.0166,-151.967 58.4125,-144.59 59.7562,-155.099 66.0166,-151.967"/>
</g>
<!-- Node3 -->
<g id="node3" class="node"><title>Node3</title>
<g id="a_node3"><a xlink:href="classMeshPaintPlugin_1_1MeshPaintSystem.html" target="_top" xlink:title="MeshPaintPlugin::MeshPaint\lSystem">
<polygon fill="white" stroke="black" points="146.5,-213 146.5,-243 289.5,-243 289.5,-213 146.5,-213"/>
<text text-anchor="start" x="154.5" y="-231" font-family="Helvetica,sans-Serif" font-size="10.00">MeshPaintPlugin::MeshPaint</text>
<text text-anchor="middle" x="218" y="-220" font-family="Helvetica,sans-Serif" font-size="10.00">System</text>
</a>
</g>
</g>
<!-- Node1&#45;&gt;Node3 -->
<g id="edge2" class="edge"><title>Node1&#45;&gt;Node3</title>
<path fill="none" stroke="midnightblue" d="M71.4942,-151.417C88.4181,-166.563 115.353,-188.793 142,-203 149.025,-206.745 156.716,-210.077 164.411,-212.99"/>
<polygon fill="midnightblue" stroke="midnightblue" points="73.7832,-148.768 64.0353,-144.617 69.0671,-153.94 73.7832,-148.768"/>
</g>
<!-- Node4 -->
<g id="node4" class="node"><title>Node4</title>
<g id="a_node4"><a xlink:href="classRa_1_1Engine_1_1AbstractTimedSystem.html" target="_top" xlink:title="Timed Systems are systems which can be disabled or paused, e.g. animation systems. ">
<polygon fill="white" stroke="black" points="150.5,-164 150.5,-194 285.5,-194 285.5,-164 150.5,-164"/>
<text text-anchor="start" x="158.5" y="-182" font-family="Helvetica,sans-Serif" font-size="10.00">Ra::Engine::AbstractTimed</text>
<text text-anchor="middle" x="218" y="-171" font-family="Helvetica,sans-Serif" font-size="10.00">System</text>
</a>
</g>
</g>
<!-- Node1&#45;&gt;Node4 -->
<g id="edge3" class="edge"><title>Node1&#45;&gt;Node4</title>
<path fill="none" stroke="midnightblue" d="M99.0796,-147.169C118.301,-152.357 140.926,-158.465 161.19,-163.935"/>
<polygon fill="midnightblue" stroke="midnightblue" points="99.9352,-143.774 89.3686,-144.547 98.1109,-150.533 99.9352,-143.774"/>
</g>
<!-- Node8 -->
<g id="node8" class="node"><title>Node8</title>
<g id="a_node8"><a xlink:href="classRa_1_1Engine_1_1CameraManager.html" target="_top" xlink:title="Interface providing functions to manage a group or type of Cameras in a specific way. ">
<polygon fill="white" stroke="black" points="146.5,-125.5 146.5,-144.5 289.5,-144.5 289.5,-125.5 146.5,-125.5"/>
<text text-anchor="middle" x="218" y="-132.5" font-family="Helvetica,sans-Serif" font-size="10.00">Ra::Engine::CameraManager</text>
</a>
</g>
</g>
<!-- Node1&#45;&gt;Node8 -->
<g id="edge7" class="edge"><title>Node1&#45;&gt;Node8</title>
<path fill="none" stroke="midnightblue" d="M115.808,-135C125.801,-135 136.213,-135 146.395,-135"/>
<polygon fill="midnightblue" stroke="midnightblue" points="115.574,-131.5 105.574,-135 115.574,-138.5 115.574,-131.5"/>
</g>
<!-- Node10 -->
<g id="node10" class="node"><title>Node10</title>
<g id="a_node10"><a xlink:href="classRa_1_1Engine_1_1GeometrySystem.html" target="_top" xlink:title="Ra::Engine::GeometrySystem">
<polygon fill="white" stroke="black" points="144,-87.5 144,-106.5 292,-106.5 292,-87.5 144,-87.5"/>
<text text-anchor="middle" x="218" y="-94.5" font-family="Helvetica,sans-Serif" font-size="10.00">Ra::Engine::GeometrySystem</text>
</a>
</g>
</g>
<!-- Node1&#45;&gt;Node10 -->
<g id="edge9" class="edge"><title>Node1&#45;&gt;Node10</title>
<path fill="none" stroke="midnightblue" d="M105.028,-123.104C127.939,-117.763 154.604,-111.546 176.164,-106.52"/>
<polygon fill="midnightblue" stroke="midnightblue" points="104.076,-119.732 95.1318,-125.411 105.665,-126.549 104.076,-119.732"/>
</g>
<!-- Node11 -->
<g id="node11" class="node"><title>Node11</title>
<g id="a_node11"><a xlink:href="classRa_1_1Engine_1_1LightManager.html" target="_top" xlink:title="Interface providing functions to manage a group or type of lights in a specific way. ">
<polygon fill="white" stroke="black" points="153,-49.5 153,-68.5 283,-68.5 283,-49.5 153,-49.5"/>
<text text-anchor="middle" x="218" y="-56.5" font-family="Helvetica,sans-Serif" font-size="10.00">Ra::Engine::LightManager</text>
</a>
</g>
</g>
<!-- Node1&#45;&gt;Node11 -->
<g id="edge10" class="edge"><title>Node1&#45;&gt;Node11</title>
<path fill="none" stroke="midnightblue" d="M74.2327,-119.142C91.4008,-106.382 117.138,-88.8487 142,-78 150.618,-74.2396 160.13,-71.1151 169.404,-68.5599"/>
<polygon fill="midnightblue" stroke="midnightblue" points="71.9402,-116.487 66.086,-125.318 76.1693,-122.066 71.9402,-116.487"/>
</g>
<!-- Node13 -->
<g id="node13" class="node"><title>Node13</title>
<g id="a_node13"><a xlink:href="classSkinningPlugin_1_1SkinningSystem.html" target="_top" xlink:title="SkinningPlugin::Skinning\lSystem">
<polygon fill="white" stroke="black" points="155.5,-0 155.5,-30 280.5,-30 280.5,-0 155.5,-0"/>
<text text-anchor="start" x="163.5" y="-18" font-family="Helvetica,sans-Serif" font-size="10.00">SkinningPlugin::Skinning</text>
<text text-anchor="middle" x="218" y="-7" font-family="Helvetica,sans-Serif" font-size="10.00">System</text>
</a>
</g>
</g>
<!-- Node1&#45;&gt;Node13 -->
<g id="edge12" class="edge"><title>Node1&#45;&gt;Node13</title>
<path fill="none" stroke="midnightblue" d="M66.2831,-117C81.658,-95.7516 109.905,-60.6941 142,-40 147.883,-36.2068 154.399,-32.9328 161.061,-30.1216"/>
<polygon fill="midnightblue" stroke="midnightblue" points="63.2372,-115.246 60.3323,-125.435 68.957,-119.282 63.2372,-115.246"/>
</g>
<!-- Node5 -->
<g id="node5" class="node"><title>Node5</title>
<g id="a_node5"><a xlink:href="classRa_1_1Engine_1_1BaseCouplingSystem.html" target="_top" xlink:title="Ra::Engine::BaseCoupling\lSystem\&lt; AbstractTimedSystem \&gt;">
<polygon fill="white" stroke="black" points="330,-166 330,-196 496,-196 496,-166 330,-166"/>
<text text-anchor="start" x="338" y="-184" font-family="Helvetica,sans-Serif" font-size="10.00">Ra::Engine::BaseCoupling</text>
<text text-anchor="middle" x="413" y="-173" font-family="Helvetica,sans-Serif" font-size="10.00">System&lt; AbstractTimedSystem &gt;</text>
</a>
</g>
</g>
<!-- Node4&#45;&gt;Node5 -->
<g id="edge4" class="edge"><title>Node4&#45;&gt;Node5</title>
<path fill="none" stroke="midnightblue" d="M295.866,-179.797C307.081,-179.913 318.664,-180.033 329.976,-180.15"/>
<polygon fill="midnightblue" stroke="midnightblue" points="295.726,-176.295 285.69,-179.691 295.653,-183.295 295.726,-176.295"/>
</g>
<!-- Node6 -->
<g id="node6" class="node"><title>Node6</title>
<g id="a_node6"><a xlink:href="classRa_1_1Engine_1_1CoupledTimedSystem.html" target="_top" xlink:title="Ra::Engine::CoupledTimed\lSystem">
<polygon fill="white" stroke="black" points="532,-166 532,-196 666,-196 666,-166 532,-166"/>
<text text-anchor="start" x="540" y="-184" font-family="Helvetica,sans-Serif" font-size="10.00">Ra::Engine::CoupledTimed</text>
<text text-anchor="middle" x="599" y="-173" font-family="Helvetica,sans-Serif" font-size="10.00">System</text>
</a>
</g>
</g>
<!-- Node5&#45;&gt;Node6 -->
<g id="edge5" class="edge"><title>Node5&#45;&gt;Node6</title>
<path fill="none" stroke="midnightblue" d="M506.188,-181C514.843,-181 523.496,-181 531.84,-181"/>
<polygon fill="midnightblue" stroke="midnightblue" points="506.045,-177.5 496.045,-181 506.045,-184.5 506.045,-177.5"/>
</g>
<!-- Node7 -->
<g id="node7" class="node"><title>Node7</title>
<g id="a_node7"><a xlink:href="classAnimationPlugin_1_1AnimationSystem.html" target="_top" xlink:title="The AnimationSystem is the main system for coupling TimedSystems. ">
<polygon fill="white" stroke="black" points="702.5,-166 702.5,-196 839.5,-196 839.5,-166 702.5,-166"/>
<text text-anchor="start" x="710.5" y="-184" font-family="Helvetica,sans-Serif" font-size="10.00">AnimationPlugin::Animation</text>
<text text-anchor="middle" x="771" y="-173" font-family="Helvetica,sans-Serif" font-size="10.00">System</text>
</a>
</g>
</g>
<!-- Node6&#45;&gt;Node7 -->
<g id="edge6" class="edge"><title>Node6&#45;&gt;Node7</title>
<path fill="none" stroke="midnightblue" d="M676.303,-181C684.964,-181 693.747,-181 702.287,-181"/>
<polygon fill="midnightblue" stroke="midnightblue" points="676.213,-177.5 666.213,-181 676.213,-184.5 676.213,-177.5"/>
</g>
<!-- Node9 -->
<g id="node9" class="node"><title>Node9</title>
<g id="a_node9"><a xlink:href="classRa_1_1Engine_1_1DefaultCameraManager.html" target="_top" xlink:title="DefaultCameraManager. ">
<polygon fill="white" stroke="black" points="344.5,-117 344.5,-147 481.5,-147 481.5,-117 344.5,-117"/>
<text text-anchor="start" x="352.5" y="-135" font-family="Helvetica,sans-Serif" font-size="10.00">Ra::Engine::DefaultCamera</text>
<text text-anchor="middle" x="413" y="-124" font-family="Helvetica,sans-Serif" font-size="10.00">Manager</text>
</a>
</g>
</g>
<!-- Node8&#45;&gt;Node9 -->
<g id="edge8" class="edge"><title>Node8&#45;&gt;Node9</title>
<path fill="none" stroke="midnightblue" d="M299.932,-133.742C314.751,-133.512 330.074,-133.273 344.451,-133.05"/>
<polygon fill="midnightblue" stroke="midnightblue" points="299.715,-130.245 289.77,-133.9 299.823,-137.244 299.715,-130.245"/>
</g>
<!-- Node12 -->
<g id="node12" class="node"><title>Node12</title>
<g id="a_node12"><a xlink:href="classRa_1_1Engine_1_1DefaultLightManager.html" target="_top" xlink:title="DefaultLightManager. ">
<polygon fill="white" stroke="black" points="351,-44 351,-74 475,-74 475,-44 351,-44"/>
<text text-anchor="start" x="359" y="-62" font-family="Helvetica,sans-Serif" font-size="10.00">Ra::Engine::DefaultLight</text>
<text text-anchor="middle" x="413" y="-51" font-family="Helvetica,sans-Serif" font-size="10.00">Manager</text>
</a>
</g>
</g>
<!-- Node11&#45;&gt;Node12 -->
<g id="edge11" class="edge"><title>Node11&#45;&gt;Node12</title>
<path fill="none" stroke="midnightblue" d="M293.394,-59C312.43,-59 332.679,-59 350.956,-59"/>
<polygon fill="midnightblue" stroke="midnightblue" points="293.266,-55.5001 283.266,-59 293.266,-62.5001 293.266,-55.5001"/>
</g>
</g>
</svg>
