<?xml version="1.0" encoding="UTF-8" standalone="no"?>
<!DOCTYPE svg PUBLIC "-//W3C//DTD SVG 1.1//EN"
 "http://www.w3.org/Graphics/SVG/1.1/DTD/svg11.dtd">
<!-- Generated by graphviz version 2.36.0 (20140111.2315)
 -->
<!-- Title: Graphical Class Hierarchy Pages: 1 -->
<svg width="496pt" height="949pt"
 viewBox="0.00 0.00 496.00 949.00" xmlns="http://www.w3.org/2000/svg" xmlns:xlink="http://www.w3.org/1999/xlink">
<g id="graph0" class="graph" transform="scale(1 1) rotate(0) translate(4 945)">
<title>Graphical Class Hierarchy</title>
<polygon fill="white" stroke="none" points="-4,4 -4,-945 492,-945 492,4 -4,4"/>
<!-- Node1 -->
<g id="node1" class="node"><title>Node1</title>
<g id="a_node1"><a xlink:title="STL class. ">
<polygon fill="white" stroke="#bfbfbf" points="0.5,-450.5 0.5,-469.5 87.5,-469.5 87.5,-450.5 0.5,-450.5"/>
<text text-anchor="middle" x="44" y="-457.5" font-family="Helvetica,sans-Serif" font-size="10.00">std::vector&lt; T &gt;</text>
</a>
</g>
</g>
<!-- Node2 -->
<g id="node2" class="node"><title>Node2</title>
<g id="a_node2"><a xlink:href="structRa_1_1Core_1_1AlignedStdVector.html" target="_top" xlink:title="Ra::Core::AlignedStdVector\l\&lt; ChildrenList \&gt;">
<polygon fill="white" stroke="black" points="149,-911 149,-941 287,-941 287,-911 149,-911"/>
<text text-anchor="start" x="157" y="-929" font-family="Helvetica,sans-Serif" font-size="10.00">Ra::Core::AlignedStdVector</text>
<text text-anchor="middle" x="218" y="-918" font-family="Helvetica,sans-Serif" font-size="10.00">&lt; ChildrenList &gt;</text>
</a>
</g>
</g>
<!-- Node1&#45;&gt;Node2 -->
<g id="edge1" class="edge"><title>Node1&#45;&gt;Node2</title>
<path fill="none" stroke="midnightblue" d="M45.805,-479.764C49.3525,-557.084 66.0849,-837.918 124,-901 130.784,-908.389 139.497,-913.688 148.862,-917.471"/>
<polygon fill="midnightblue" stroke="midnightblue" points="49.2909,-479.36 45.3592,-469.522 42.2975,-479.665 49.2909,-479.36"/>
</g>
<!-- Node3 -->
<g id="node3" class="node"><title>Node3</title>
<g id="a_node3"><a xlink:href="structRa_1_1Core_1_1AlignedStdVector.html" target="_top" xlink:title="Ra::Core::AlignedStdVector\l\&lt; Core::Color \&gt;">
<polygon fill="white" stroke="black" points="149,-862 149,-892 287,-892 287,-862 149,-862"/>
<text text-anchor="start" x="157" y="-880" font-family="Helvetica,sans-Serif" font-size="10.00">Ra::Core::AlignedStdVector</text>
<text text-anchor="middle" x="218" y="-869" font-family="Helvetica,sans-Serif" font-size="10.00">&lt; Core::Color &gt;</text>
</a>
</g>
</g>
<!-- Node1&#45;&gt;Node3 -->
<g id="edge2" class="edge"><title>Node1&#45;&gt;Node3</title>
<path fill="none" stroke="midnightblue" d="M46.2918,-479.827C51.3662,-551.645 72.2547,-796.847 124,-852 130.749,-859.194 139.327,-864.4 148.533,-868.152"/>
<polygon fill="midnightblue" stroke="midnightblue" points="49.7604,-479.246 45.5887,-469.507 42.7766,-479.722 49.7604,-479.246"/>
</g>
<!-- Node5 -->
<g id="node5" class="node"><title>Node5</title>
<g id="a_node5"><a xlink:href="structRa_1_1Core_1_1AlignedStdVector.html" target="_top" xlink:title="Ra::Core::AlignedStdVector\l\&lt; Core::Vector2i \&gt;">
<polygon fill="white" stroke="black" points="149,-813 149,-843 287,-843 287,-813 149,-813"/>
<text text-anchor="start" x="157" y="-831" font-family="Helvetica,sans-Serif" font-size="10.00">Ra::Core::AlignedStdVector</text>
<text text-anchor="middle" x="218" y="-820" font-family="Helvetica,sans-Serif" font-size="10.00">&lt; Core::Vector2i &gt;</text>
</a>
</g>
</g>
<!-- Node1&#45;&gt;Node5 -->
<g id="edge4" class="edge"><title>Node1&#45;&gt;Node5</title>
<path fill="none" stroke="midnightblue" d="M46.9129,-479.858C53.6519,-545.756 78.3806,-755.697 124,-803 130.848,-810.1 139.479,-815.256 148.707,-818.986"/>
<polygon fill="midnightblue" stroke="midnightblue" points="50.3664,-479.217 45.8929,-469.613 43.4009,-479.91 50.3664,-479.217"/>
</g>
<!-- Node6 -->
<g id="node6" class="node"><title>Node6</title>
<g id="a_node6"><a xlink:href="structRa_1_1Core_1_1AlignedStdVector.html" target="_top" xlink:title="Ra::Core::AlignedStdVector\l\&lt; Core::Vector2ui \&gt;">
<polygon fill="white" stroke="black" points="149,-764 149,-794 287,-794 287,-764 149,-764"/>
<text text-anchor="start" x="157" y="-782" font-family="Helvetica,sans-Serif" font-size="10.00">Ra::Core::AlignedStdVector</text>
<text text-anchor="middle" x="218" y="-771" font-family="Helvetica,sans-Serif" font-size="10.00">&lt; Core::Vector2ui &gt;</text>
</a>
</g>
</g>
<!-- Node1&#45;&gt;Node6 -->
<g id="edge5" class="edge"><title>Node1&#45;&gt;Node6</title>
<path fill="none" stroke="midnightblue" d="M47.7069,-479.687C56.2465,-539.013 84.4162,-714.412 124,-754 130.975,-760.975 139.674,-766.064 148.933,-769.764"/>
<polygon fill="midnightblue" stroke="midnightblue" points="51.165,-479.144 46.3026,-469.731 44.2336,-480.122 51.165,-479.144"/>
</g>
<!-- Node8 -->
<g id="node8" class="node"><title>Node8</title>
<g id="a_node8"><a xlink:href="structRa_1_1Core_1_1AlignedStdVector.html" target="_top" xlink:title="Ra::Core::AlignedStdVector\l\&lt; Core::Vector3 \&gt;">
<polygon fill="white" stroke="black" points="149,-715 149,-745 287,-745 287,-715 149,-715"/>
<text text-anchor="start" x="157" y="-733" font-family="Helvetica,sans-Serif" font-size="10.00">Ra::Core::AlignedStdVector</text>
<text text-anchor="middle" x="218" y="-722" font-family="Helvetica,sans-Serif" font-size="10.00">&lt; Core::Vector3 &gt;</text>
</a>
</g>
</g>
<!-- Node1&#45;&gt;Node8 -->
<g id="edge7" class="edge"><title>Node1&#45;&gt;Node8</title>
<path fill="none" stroke="midnightblue" d="M45.3369,-479.872C47.2392,-526.326 58.6459,-642.792 124,-705 131.024,-711.686 139.639,-716.625 148.763,-720.267"/>
<polygon fill="midnightblue" stroke="midnightblue" points="48.8286,-479.536 45.0311,-469.645 41.8317,-479.746 48.8286,-479.536"/>
</g>
<!-- Node10 -->
<g id="node10" class="node"><title>Node10</title>
<g id="a_node10"><a xlink:href="structRa_1_1Core_1_1AlignedStdVector.html" target="_top" xlink:title="Ra::Core::AlignedStdVector\l\&lt; Core::VectorNi \&gt;">
<polygon fill="white" stroke="black" points="149,-666 149,-696 287,-696 287,-666 149,-666"/>
<text text-anchor="start" x="157" y="-684" font-family="Helvetica,sans-Serif" font-size="10.00">Ra::Core::AlignedStdVector</text>
<text text-anchor="middle" x="218" y="-673" font-family="Helvetica,sans-Serif" font-size="10.00">&lt; Core::VectorNi &gt;</text>
</a>
</g>
</g>
<!-- Node1&#45;&gt;Node10 -->
<g id="edge9" class="edge"><title>Node1&#45;&gt;Node10</title>
<path fill="none" stroke="midnightblue" d="M47.1827,-479.883C52.6118,-519.491 70.405,-608.505 124,-656 131.132,-662.321 139.699,-667.066 148.708,-670.624"/>
<polygon fill="midnightblue" stroke="midnightblue" points="50.6473,-479.381 45.9367,-469.891 43.7011,-480.247 50.6473,-479.381"/>
</g>
<!-- Node11 -->
<g id="node11" class="node"><title>Node11</title>
<g id="a_node11"><a xlink:href="structRa_1_1Core_1_1AlignedStdVector.html" target="_top" xlink:title="Ra::Core::AlignedStdVector\l\&lt; Core::VectorNui \&gt;">
<polygon fill="white" stroke="black" points="149,-617 149,-647 287,-647 287,-617 149,-617"/>
<text text-anchor="start" x="157" y="-635" font-family="Helvetica,sans-Serif" font-size="10.00">Ra::Core::AlignedStdVector</text>
<text text-anchor="middle" x="218" y="-624" font-family="Helvetica,sans-Serif" font-size="10.00">&lt; Core::VectorNui &gt;</text>
</a>
</g>
</g>
<!-- Node1&#45;&gt;Node11 -->
<g id="edge10" class="edge"><title>Node1&#45;&gt;Node11</title>
<path fill="none" stroke="midnightblue" d="M50.0071,-479.423C59.184,-511.054 81.7508,-573.518 124,-607 131.338,-612.815 139.916,-617.282 148.84,-620.713"/>
<polygon fill="midnightblue" stroke="midnightblue" points="53.3369,-478.331 47.3092,-469.618 46.5878,-480.189 53.3369,-478.331"/>
</g>
<!-- Node13 -->
<g id="node13" class="node"><title>Node13</title>
<g id="a_node13"><a xlink:href="structRa_1_1Core_1_1AlignedStdVector.html" target="_top" xlink:title="Ra::Core::AlignedStdVector\l\&lt; Face \&gt;">
<polygon fill="white" stroke="black" points="149,-568 149,-598 287,-598 287,-568 149,-568"/>
<text text-anchor="start" x="157" y="-586" font-family="Helvetica,sans-Serif" font-size="10.00">Ra::Core::AlignedStdVector</text>
<text text-anchor="middle" x="218" y="-575" font-family="Helvetica,sans-Serif" font-size="10.00">&lt; Face &gt;</text>
</a>
</g>
</g>
<!-- Node1&#45;&gt;Node13 -->
<g id="edge12" class="edge"><title>Node1&#45;&gt;Node13</title>
<path fill="none" stroke="midnightblue" d="M55.0497,-478.594C68.0366,-500.842 92.7386,-537.631 124,-558 131.564,-562.929 140.075,-566.89 148.797,-570.074"/>
<polygon fill="midnightblue" stroke="midnightblue" points="58.0342,-476.761 50.0705,-469.773 51.9383,-480.202 58.0342,-476.761"/>
</g>
<!-- Node15 -->
<g id="node15" class="node"><title>Node15</title>
<g id="a_node15"><a xlink:href="structRa_1_1Core_1_1AlignedStdVector.html" target="_top" xlink:title="Ra::Core::AlignedStdVector\l\&lt; int \&gt;">
<polygon fill="white" stroke="black" points="149,-519 149,-549 287,-549 287,-519 149,-519"/>
<text text-anchor="start" x="157" y="-537" font-family="Helvetica,sans-Serif" font-size="10.00">Ra::Core::AlignedStdVector</text>
<text text-anchor="middle" x="218" y="-526" font-family="Helvetica,sans-Serif" font-size="10.00">&lt; int &gt;</text>
</a>
</g>
</g>
<!-- Node1&#45;&gt;Node15 -->
<g id="edge14" class="edge"><title>Node1&#45;&gt;Node15</title>
<path fill="none" stroke="midnightblue" d="M66.047,-475.431C81.4491,-486.118 103.203,-499.988 124,-509 132.591,-512.723 141.873,-516.013 151.134,-518.882"/>
<polygon fill="midnightblue" stroke="midnightblue" points="67.9514,-472.491 57.7678,-469.568 63.9058,-478.204 67.9514,-472.491"/>
</g>
<!-- Node16 -->
<g id="node16" class="node"><title>Node16</title>
<g id="a_node16"><a xlink:href="structRa_1_1Core_1_1AlignedStdVector.html" target="_top" xlink:title="Ra::Core::AlignedStdVector\l\&lt; Ra::Asset::HandleComponentData \&gt;">
<polygon fill="white" stroke="black" points="124.5,-470 124.5,-500 311.5,-500 311.5,-470 124.5,-470"/>
<text text-anchor="start" x="132.5" y="-488" font-family="Helvetica,sans-Serif" font-size="10.00">Ra::Core::AlignedStdVector</text>
<text text-anchor="middle" x="218" y="-477" font-family="Helvetica,sans-Serif" font-size="10.00">&lt; Ra::Asset::HandleComponentData &gt;</text>
</a>
</g>
</g>
<!-- Node1&#45;&gt;Node16 -->
<g id="edge15" class="edge"><title>Node1&#45;&gt;Node16</title>
<path fill="none" stroke="midnightblue" d="M97.6663,-467.655C106.222,-468.899 115.298,-470.218 124.474,-471.552"/>
<polygon fill="midnightblue" stroke="midnightblue" points="97.9163,-464.155 87.5169,-466.18 96.9094,-471.082 97.9163,-464.155"/>
</g>
<!-- Node17 -->
<g id="node17" class="node"><title>Node17</title>
<g id="a_node17"><a xlink:href="structRa_1_1Core_1_1AlignedStdVector.html" target="_top" xlink:title="Ra::Core::AlignedStdVector\l\&lt; Ra::Core::DualQuaternion \&gt;">
<polygon fill="white" stroke="black" points="144,-421 144,-451 292,-451 292,-421 144,-421"/>
<text text-anchor="start" x="152" y="-439" font-family="Helvetica,sans-Serif" font-size="10.00">Ra::Core::AlignedStdVector</text>
<text text-anchor="middle" x="218" y="-428" font-family="Helvetica,sans-Serif" font-size="10.00">&lt; Ra::Core::DualQuaternion &gt;</text>
</a>
</g>
</g>
<!-- Node1&#45;&gt;Node17 -->
<g id="edge16" class="edge"><title>Node1&#45;&gt;Node17</title>
<path fill="none" stroke="midnightblue" d="M97.8074,-452.632C112.343,-450.603 128.373,-448.367 143.836,-446.209"/>
<polygon fill="midnightblue" stroke="midnightblue" points="96.9372,-449.219 87.5169,-454.067 97.9046,-456.152 96.9372,-449.219"/>
</g>
<!-- Node18 -->
<g id="node18" class="node"><title>Node18</title>
<g id="a_node18"><a xlink:href="structRa_1_1Core_1_1AlignedStdVector.html" target="_top" xlink:title="Ra::Core::AlignedStdVector\l\&lt; Ra::Core::Triangle \&gt;">
<polygon fill="white" stroke="black" points="149,-372 149,-402 287,-402 287,-372 149,-372"/>
<text text-anchor="start" x="157" y="-390" font-family="Helvetica,sans-Serif" font-size="10.00">Ra::Core::AlignedStdVector</text>
<text text-anchor="middle" x="218" y="-379" font-family="Helvetica,sans-Serif" font-size="10.00">&lt; Ra::Core::Triangle &gt;</text>
</a>
</g>
</g>
<!-- Node1&#45;&gt;Node18 -->
<g id="edge17" class="edge"><title>Node1&#45;&gt;Node18</title>
<path fill="none" stroke="midnightblue" d="M66.0195,-444.505C81.4084,-433.788 103.158,-419.907 124,-411 131.82,-407.658 140.215,-404.695 148.646,-402.093"/>
<polygon fill="midnightblue" stroke="midnightblue" points="63.8689,-441.739 57.7487,-450.388 67.9263,-447.444 63.8689,-441.739"/>
</g>
<!-- Node20 -->
<g id="node20" class="node"><title>Node20</title>
<g id="a_node20"><a xlink:href="structRa_1_1Core_1_1AlignedStdVector.html" target="_top" xlink:title="Ra::Core::AlignedStdVector\l\&lt; Scalar \&gt;">
<polygon fill="white" stroke="black" points="149,-323 149,-353 287,-353 287,-323 149,-323"/>
<text text-anchor="start" x="157" y="-341" font-family="Helvetica,sans-Serif" font-size="10.00">Ra::Core::AlignedStdVector</text>
<text text-anchor="middle" x="218" y="-330" font-family="Helvetica,sans-Serif" font-size="10.00">&lt; Scalar &gt;</text>
</a>
</g>
</g>
<!-- Node1&#45;&gt;Node20 -->
<g id="edge19" class="edge"><title>Node1&#45;&gt;Node20</title>
<path fill="none" stroke="midnightblue" d="M54.8184,-441.694C67.7171,-419.43 92.4766,-382.314 124,-362 131.569,-357.122 140.083,-353.235 148.806,-350.136"/>
<polygon fill="midnightblue" stroke="midnightblue" points="51.7196,-440.064 49.8878,-450.499 57.8273,-443.484 51.7196,-440.064"/>
</g>
<!-- Node22 -->
<g id="node22" class="node"><title>Node22</title>
<g id="a_node22"><a xlink:href="structRa_1_1Core_1_1AlignedStdVector.html" target="_top" xlink:title="Ra::Core::AlignedStdVector\l\&lt; Transform \&gt;">
<polygon fill="white" stroke="black" points="149,-274 149,-304 287,-304 287,-274 149,-274"/>
<text text-anchor="start" x="157" y="-292" font-family="Helvetica,sans-Serif" font-size="10.00">Ra::Core::AlignedStdVector</text>
<text text-anchor="middle" x="218" y="-281" font-family="Helvetica,sans-Serif" font-size="10.00">&lt; Transform &gt;</text>
</a>
</g>
</g>
<!-- Node1&#45;&gt;Node22 -->
<g id="edge21" class="edge"><title>Node1&#45;&gt;Node22</title>
<path fill="none" stroke="midnightblue" d="M49.9695,-440.53C59.0923,-408.83 81.583,-346.269 124,-313 131.348,-307.237 139.931,-302.847 148.857,-299.505"/>
<polygon fill="midnightblue" stroke="midnightblue" points="46.544,-439.788 47.2894,-450.357 53.2974,-441.63 46.544,-439.788"/>
</g>
<!-- Node23 -->
<g id="node23" class="node"><title>Node23</title>
<g id="a_node23"><a xlink:href="structRa_1_1Core_1_1AlignedStdVector.html" target="_top" xlink:title="Ra::Core::AlignedStdVector\l\&lt; Triangle \&gt;">
<polygon fill="white" stroke="black" points="149,-225 149,-255 287,-255 287,-225 149,-225"/>
<text text-anchor="start" x="157" y="-243" font-family="Helvetica,sans-Serif" font-size="10.00">Ra::Core::AlignedStdVector</text>
<text text-anchor="middle" x="218" y="-232" font-family="Helvetica,sans-Serif" font-size="10.00">&lt; Triangle &gt;</text>
</a>
</g>
</g>
<!-- Node1&#45;&gt;Node23 -->
<g id="edge22" class="edge"><title>Node1&#45;&gt;Node23</title>
<path fill="none" stroke="midnightblue" d="M47.1424,-440.071C52.4986,-400.381 70.1669,-311.225 124,-264 131.145,-257.732 139.719,-253.065 148.731,-249.598"/>
<polygon fill="midnightblue" stroke="midnightblue" points="43.6576,-439.734 45.9156,-450.085 50.6057,-440.585 43.6576,-439.734"/>
</g>
<!-- Node25 -->
<g id="node25" class="node"><title>Node25</title>
<g id="a_node25"><a xlink:href="structRa_1_1Core_1_1AlignedStdVector.html" target="_top" xlink:title="Ra::Core::AlignedStdVector\l\&lt; uint8_t \&gt;">
<polygon fill="white" stroke="black" points="149,-176 149,-206 287,-206 287,-176 149,-176"/>
<text text-anchor="start" x="157" y="-194" font-family="Helvetica,sans-Serif" font-size="10.00">Ra::Core::AlignedStdVector</text>
<text text-anchor="middle" x="218" y="-183" font-family="Helvetica,sans-Serif" font-size="10.00">&lt; uint8_t &gt;</text>
</a>
</g>
</g>
<!-- Node1&#45;&gt;Node25 -->
<g id="edge24" class="edge"><title>Node1&#45;&gt;Node25</title>
<path fill="none" stroke="midnightblue" d="M45.2951,-440.084C47.1074,-393.535 58.334,-276.879 124,-215 131.039,-208.367 139.662,-203.508 148.79,-199.959"/>
<polygon fill="midnightblue" stroke="midnightblue" points="41.7896,-440.239 45.0098,-450.332 48.7869,-440.434 41.7896,-440.239"/>
</g>
<!-- Node26 -->
<g id="node26" class="node"><title>Node26</title>
<g id="a_node26"><a xlink:href="structRa_1_1Core_1_1AlignedStdVector.html" target="_top" xlink:title="Ra::Core::AlignedStdVector\&lt; V \&gt;">
<polygon fill="white" stroke="black" points="136.5,-137.5 136.5,-156.5 299.5,-156.5 299.5,-137.5 136.5,-137.5"/>
<text text-anchor="middle" x="218" y="-144.5" font-family="Helvetica,sans-Serif" font-size="10.00">Ra::Core::AlignedStdVector&lt; V &gt;</text>
</a>
</g>
</g>
<!-- Node1&#45;&gt;Node26 -->
<g id="edge25" class="edge"><title>Node1&#45;&gt;Node26</title>
<path fill="none" stroke="midnightblue" d="M47.6007,-440.203C55.8359,-380.563 83.2258,-204.361 124,-166 127.961,-162.274 132.446,-159.192 137.254,-156.651"/>
<polygon fill="midnightblue" stroke="midnightblue" points="44.1187,-439.835 46.2487,-450.214 51.0557,-440.772 44.1187,-439.835"/>
</g>
<!-- Node28 -->
<g id="node28" class="node"><title>Node28</title>
<g id="a_node28"><a xlink:href="structRa_1_1Core_1_1AlignedStdVector.html" target="_top" xlink:title="Ra::Core::AlignedStdVector\l\&lt; Vector \&gt;">
<polygon fill="white" stroke="black" points="149,-88 149,-118 287,-118 287,-88 149,-88"/>
<text text-anchor="start" x="157" y="-106" font-family="Helvetica,sans-Serif" font-size="10.00">Ra::Core::AlignedStdVector</text>
<text text-anchor="middle" x="218" y="-95" font-family="Helvetica,sans-Serif" font-size="10.00">&lt; Vector &gt;</text>
</a>
</g>
</g>
<!-- Node1&#45;&gt;Node28 -->
<g id="edge27" class="edge"><title>Node1&#45;&gt;Node28</title>
<path fill="none" stroke="midnightblue" d="M47.0531,-440.351C54.1549,-376.077 79.7005,-173.603 124,-128 130.873,-120.925 139.518,-115.783 148.753,-112.059"/>
<polygon fill="midnightblue" stroke="midnightblue" points="43.5651,-440.052 45.9733,-450.369 50.5248,-440.802 43.5651,-440.052"/>
</g>
<!-- Node30 -->
<g id="node30" class="node"><title>Node30</title>
<g id="a_node30"><a xlink:href="structRa_1_1Core_1_1AlignedStdVector.html" target="_top" xlink:title="Ra::Core::AlignedStdVector\l\&lt; Vector3 \&gt;">
<polygon fill="white" stroke="black" points="149,-39 149,-69 287,-69 287,-39 149,-39"/>
<text text-anchor="start" x="157" y="-57" font-family="Helvetica,sans-Serif" font-size="10.00">Ra::Core::AlignedStdVector</text>
<text text-anchor="middle" x="218" y="-46" font-family="Helvetica,sans-Serif" font-size="10.00">&lt; Vector3 &gt;</text>
</a>
</g>
</g>
<!-- Node1&#45;&gt;Node30 -->
<g id="edge29" class="edge"><title>Node1&#45;&gt;Node30</title>
<path fill="none" stroke="midnightblue" d="M46.3838,-440.198C51.7167,-369.557 73.2279,-131.303 124,-78 130.785,-70.8763 139.383,-65.7615 148.597,-62.1078"/>
<polygon fill="midnightblue" stroke="midnightblue" points="42.8782,-440.148 45.6413,-450.376 49.8597,-440.658 42.8782,-440.148"/>
</g>
<!-- Node32 -->
<g id="node32" class="node"><title>Node32</title>
<g id="a_node32"><a xlink:href="structRa_1_1Core_1_1AlignedStdVector.html" target="_top" xlink:title="Shortcut for the ubiquitous aligned std::vector Uses Eigen&#39;s aligned allocator, as stated in http://e...">
<polygon fill="white" stroke="black" points="137,-0.5 137,-19.5 299,-19.5 299,-0.5 137,-0.5"/>
<text text-anchor="middle" x="218" y="-7.5" font-family="Helvetica,sans-Serif" font-size="10.00">Ra::Core::AlignedStdVector&lt; T &gt;</text>
</a>
</g>
</g>
<!-- Node1&#45;&gt;Node32 -->
<g id="edge31" class="edge"><title>Node1&#45;&gt;Node32</title>
<path fill="none" stroke="midnightblue" d="M45.7858,-440.082C49.2253,-363.415 65.5055,-88.6909 124,-29 127.806,-25.1159 132.177,-21.9174 136.902,-19.2924"/>
<polygon fill="midnightblue" stroke="midnightblue" points="42.2808,-440.128 45.3536,-450.267 49.2745,-440.425 42.2808,-440.128"/>
</g>
<!-- Node4 -->
<g id="node4" class="node"><title>Node4</title>
<g id="a_node4"><a xlink:href="classRa_1_1Core_1_1VectorArray.html" target="_top" xlink:title="Ra::Core::VectorArray\l\&lt; Core::Color \&gt;">
<polygon fill="white" stroke="black" points="361,-862 361,-892 475,-892 475,-862 361,-862"/>
<text text-anchor="start" x="369" y="-880" font-family="Helvetica,sans-Serif" font-size="10.00">Ra::Core::VectorArray</text>
<text text-anchor="middle" x="418" y="-869" font-family="Helvetica,sans-Serif" font-size="10.00">&lt; Core::Color &gt;</text>
</a>
</g>
</g>
<!-- Node3&#45;&gt;Node4 -->
<g id="edge3" class="edge"><title>Node3&#45;&gt;Node4</title>
<path fill="none" stroke="midnightblue" d="M297.429,-877C318.639,-877 341.168,-877 360.884,-877"/>
<polygon fill="midnightblue" stroke="midnightblue" points="297.14,-873.5 287.14,-877 297.14,-880.5 297.14,-873.5"/>
</g>
<!-- Node7 -->
<g id="node7" class="node"><title>Node7</title>
<g id="a_node7"><a xlink:href="classRa_1_1Core_1_1VectorArray.html" target="_top" xlink:title="Ra::Core::VectorArray\l\&lt; Core::Vector2ui \&gt;">
<polygon fill="white" stroke="black" points="361,-764 361,-794 475,-794 475,-764 361,-764"/>
<text text-anchor="start" x="369" y="-782" font-family="Helvetica,sans-Serif" font-size="10.00">Ra::Core::VectorArray</text>
<text text-anchor="middle" x="418" y="-771" font-family="Helvetica,sans-Serif" font-size="10.00">&lt; Core::Vector2ui &gt;</text>
</a>
</g>
</g>
<!-- Node6&#45;&gt;Node7 -->
<g id="edge6" class="edge"><title>Node6&#45;&gt;Node7</title>
<path fill="none" stroke="midnightblue" d="M297.429,-779C318.639,-779 341.168,-779 360.884,-779"/>
<polygon fill="midnightblue" stroke="midnightblue" points="297.14,-775.5 287.14,-779 297.14,-782.5 297.14,-775.5"/>
</g>
<!-- Node9 -->
<g id="node9" class="node"><title>Node9</title>
<g id="a_node9"><a xlink:href="classRa_1_1Core_1_1VectorArray.html" target="_top" xlink:title="Ra::Core::VectorArray\l\&lt; Core::Vector3 \&gt;">
<polygon fill="white" stroke="black" points="361,-715 361,-745 475,-745 475,-715 361,-715"/>
<text text-anchor="start" x="369" y="-733" font-family="Helvetica,sans-Serif" font-size="10.00">Ra::Core::VectorArray</text>
<text text-anchor="middle" x="418" y="-722" font-family="Helvetica,sans-Serif" font-size="10.00">&lt; Core::Vector3 &gt;</text>
</a>
</g>
</g>
<!-- Node8&#45;&gt;Node9 -->
<g id="edge8" class="edge"><title>Node8&#45;&gt;Node9</title>
<path fill="none" stroke="midnightblue" d="M297.429,-730C318.639,-730 341.168,-730 360.884,-730"/>
<polygon fill="midnightblue" stroke="midnightblue" points="297.14,-726.5 287.14,-730 297.14,-733.5 297.14,-726.5"/>
</g>
<!-- Node12 -->
<g id="node12" class="node"><title>Node12</title>
<g id="a_node12"><a xlink:href="classRa_1_1Core_1_1VectorArray.html" target="_top" xlink:title="Ra::Core::VectorArray\l\&lt; Core::VectorNui \&gt;">
<polygon fill="white" stroke="black" points="361,-617 361,-647 475,-647 475,-617 361,-617"/>
<text text-anchor="start" x="369" y="-635" font-family="Helvetica,sans-Serif" font-size="10.00">Ra::Core::VectorArray</text>
<text text-anchor="middle" x="418" y="-624" font-family="Helvetica,sans-Serif" font-size="10.00">&lt; Core::VectorNui &gt;</text>
</a>
</g>
</g>
<!-- Node11&#45;&gt;Node12 -->
<g id="edge11" class="edge"><title>Node11&#45;&gt;Node12</title>
<path fill="none" stroke="midnightblue" d="M297.429,-632C318.639,-632 341.168,-632 360.884,-632"/>
<polygon fill="midnightblue" stroke="midnightblue" points="297.14,-628.5 287.14,-632 297.14,-635.5 297.14,-628.5"/>
</g>
<!-- Node14 -->
<g id="node14" class="node"><title>Node14</title>
<g id="a_node14"><a xlink:href="classRa_1_1Core_1_1VectorArray.html" target="_top" xlink:title="Ra::Core::VectorArray\l\&lt; Face \&gt;">
<polygon fill="white" stroke="black" points="361,-568 361,-598 475,-598 475,-568 361,-568"/>
<text text-anchor="start" x="369" y="-586" font-family="Helvetica,sans-Serif" font-size="10.00">Ra::Core::VectorArray</text>
<text text-anchor="middle" x="418" y="-575" font-family="Helvetica,sans-Serif" font-size="10.00">&lt; Face &gt;</text>
</a>
</g>
</g>
<!-- Node13&#45;&gt;Node14 -->
<g id="edge13" class="edge"><title>Node13&#45;&gt;Node14</title>
<path fill="none" stroke="midnightblue" d="M297.429,-583C318.639,-583 341.168,-583 360.884,-583"/>
<polygon fill="midnightblue" stroke="midnightblue" points="297.14,-579.5 287.14,-583 297.14,-586.5 297.14,-579.5"/>
</g>
<!-- Node19 -->
<g id="node19" class="node"><title>Node19</title>
<g id="a_node19"><a xlink:href="classRa_1_1Core_1_1VectorArray.html" target="_top" xlink:title="Ra::Core::VectorArray\l\&lt; Ra::Core::Triangle \&gt;">
<polygon fill="white" stroke="black" points="360.5,-372 360.5,-402 475.5,-402 475.5,-372 360.5,-372"/>
<text text-anchor="start" x="368.5" y="-390" font-family="Helvetica,sans-Serif" font-size="10.00">Ra::Core::VectorArray</text>
<text text-anchor="middle" x="418" y="-379" font-family="Helvetica,sans-Serif" font-size="10.00">&lt; Ra::Core::Triangle &gt;</text>
</a>
</g>
</g>
<!-- Node18&#45;&gt;Node19 -->
<g id="edge18" class="edge"><title>Node18&#45;&gt;Node19</title>
<path fill="none" stroke="midnightblue" d="M297.332,-387C318.341,-387 340.65,-387 360.243,-387"/>
<polygon fill="midnightblue" stroke="midnightblue" points="297.14,-383.5 287.14,-387 297.14,-390.5 297.14,-383.5"/>
</g>
<!-- Node21 -->
<g id="node21" class="node"><title>Node21</title>
<g id="a_node21"><a xlink:href="classRa_1_1Core_1_1VectorArray_3_01Scalar_01_4.html" target="_top" xlink:title="This specialization stores an array of scalars which can be used as a dynamic Eigen column vector...">
<polygon fill="white" stroke="black" points="361,-323 361,-353 475,-353 475,-323 361,-323"/>
<text text-anchor="start" x="369" y="-341" font-family="Helvetica,sans-Serif" font-size="10.00">Ra::Core::VectorArray</text>
<text text-anchor="middle" x="418" y="-330" font-family="Helvetica,sans-Serif" font-size="10.00">&lt; Scalar &gt;</text>
</a>
</g>
</g>
<!-- Node20&#45;&gt;Node21 -->
<g id="edge20" class="edge"><title>Node20&#45;&gt;Node21</title>
<path fill="none" stroke="midnightblue" d="M297.429,-338C318.639,-338 341.168,-338 360.884,-338"/>
<polygon fill="midnightblue" stroke="midnightblue" points="297.14,-334.5 287.14,-338 297.14,-341.5 297.14,-334.5"/>
</g>
<!-- Node24 -->
<g id="node24" class="node"><title>Node24</title>
<g id="a_node24"><a xlink:href="classRa_1_1Core_1_1VectorArray.html" target="_top" xlink:title="Ra::Core::VectorArray\l\&lt; Triangle \&gt;">
<polygon fill="white" stroke="black" points="361,-225 361,-255 475,-255 475,-225 361,-225"/>
<text text-anchor="start" x="369" y="-243" font-family="Helvetica,sans-Serif" font-size="10.00">Ra::Core::VectorArray</text>
<text text-anchor="middle" x="418" y="-232" font-family="Helvetica,sans-Serif" font-size="10.00">&lt; Triangle &gt;</text>
</a>
</g>
</g>
<!-- Node23&#45;&gt;Node24 -->
<g id="edge23" class="edge"><title>Node23&#45;&gt;Node24</title>
<path fill="none" stroke="midnightblue" d="M297.429,-240C318.639,-240 341.168,-240 360.884,-240"/>
<polygon fill="midnightblue" stroke="midnightblue" points="297.14,-236.5 287.14,-240 297.14,-243.5 297.14,-236.5"/>
</g>
<!-- Node27 -->
<g id="node27" class="node"><title>Node27</title>
<g id="a_node27"><a xlink:href="classRa_1_1Core_1_1VectorArray.html" target="_top" xlink:title="This class is a wrapper around a std::vector of Core::Vectors. ">
<polygon fill="white" stroke="black" points="348.5,-137.5 348.5,-156.5 487.5,-156.5 487.5,-137.5 348.5,-137.5"/>
<text text-anchor="middle" x="418" y="-144.5" font-family="Helvetica,sans-Serif" font-size="10.00">Ra::Core::VectorArray&lt; V &gt;</text>
</a>
</g>
</g>
<!-- Node26&#45;&gt;Node27 -->
<g id="edge26" class="edge"><title>Node26&#45;&gt;Node27</title>
<path fill="none" stroke="midnightblue" d="M309.839,-147C322.759,-147 335.865,-147 348.27,-147"/>
<polygon fill="midnightblue" stroke="midnightblue" points="309.534,-143.5 299.534,-147 309.534,-150.5 309.534,-143.5"/>
</g>
<!-- Node29 -->
<g id="node29" class="node"><title>Node29</title>
<g id="a_node29"><a xlink:href="classRa_1_1Core_1_1VectorArray.html" target="_top" xlink:title="Ra::Core::VectorArray\l\&lt; Vector \&gt;">
<polygon fill="white" stroke="black" points="361,-88 361,-118 475,-118 475,-88 361,-88"/>
<text text-anchor="start" x="369" y="-106" font-family="Helvetica,sans-Serif" font-size="10.00">Ra::Core::VectorArray</text>
<text text-anchor="middle" x="418" y="-95" font-family="Helvetica,sans-Serif" font-size="10.00">&lt; Vector &gt;</text>
</a>
</g>
</g>
<!-- Node28&#45;&gt;Node29 -->
<g id="edge28" class="edge"><title>Node28&#45;&gt;Node29</title>
<path fill="none" stroke="midnightblue" d="M297.429,-103C318.639,-103 341.168,-103 360.884,-103"/>
<polygon fill="midnightblue" stroke="midnightblue" points="297.14,-99.5001 287.14,-103 297.14,-106.5 297.14,-99.5001"/>
</g>
<!-- Node31 -->
<g id="node31" class="node"><title>Node31</title>
<g id="a_node31"><a xlink:href="classRa_1_1Core_1_1VectorArray.html" target="_top" xlink:title="Ra::Core::VectorArray\l\&lt; Vector3 \&gt;">
<polygon fill="white" stroke="black" points="361,-39 361,-69 475,-69 475,-39 361,-39"/>
<text text-anchor="start" x="369" y="-57" font-family="Helvetica,sans-Serif" font-size="10.00">Ra::Core::VectorArray</text>
<text text-anchor="middle" x="418" y="-46" font-family="Helvetica,sans-Serif" font-size="10.00">&lt; Vector3 &gt;</text>
</a>
</g>
</g>
<!-- Node30&#45;&gt;Node31 -->
<g id="edge30" class="edge"><title>Node30&#45;&gt;Node31</title>
<path fill="none" stroke="midnightblue" d="M297.429,-54C318.639,-54 341.168,-54 360.884,-54"/>
<polygon fill="midnightblue" stroke="midnightblue" points="297.14,-50.5001 287.14,-54 297.14,-57.5001 297.14,-50.5001"/>
</g>
<!-- Node33 -->
<g id="node33" class="node"><title>Node33</title>
<g id="a_node33"><a xlink:href="classRa_1_1Core_1_1VectorArray.html" target="_top" xlink:title="Ra::Core::VectorArray\&lt; T \&gt;">
<polygon fill="white" stroke="black" points="349,-0.5 349,-19.5 487,-19.5 487,-0.5 349,-0.5"/>
<text text-anchor="middle" x="418" y="-7.5" font-family="Helvetica,sans-Serif" font-size="10.00">Ra::Core::VectorArray&lt; T &gt;</text>
</a>
</g>
</g>
<!-- Node32&#45;&gt;Node33 -->
<g id="edge32" class="edge"><title>Node32&#45;&gt;Node33</title>
<path fill="none" stroke="midnightblue" d="M309.316,-10C322.554,-10 336.001,-10 348.7,-10"/>
<polygon fill="midnightblue" stroke="midnightblue" points="309.249,-6.5001 299.249,-10 309.249,-13.5001 309.249,-6.5001"/>
</g>
</g>
</svg>
