<?xml version="1.0" encoding="UTF-8" standalone="no"?>
<!DOCTYPE svg PUBLIC "-//W3C//DTD SVG 1.1//EN"
 "http://www.w3.org/Graphics/SVG/1.1/DTD/svg11.dtd">
<!-- Generated by graphviz version 2.36.0 (20140111.2315)
 -->
<!-- Title: Graphical Class Hierarchy Pages: 1 -->
<svg width="278pt" height="66pt"
 viewBox="0.00 0.00 278.00 66.00" xmlns="http://www.w3.org/2000/svg" xmlns:xlink="http://www.w3.org/1999/xlink">
<g id="graph0" class="graph" transform="scale(1 1) rotate(0) translate(4 62)">
<title>Graphical Class Hierarchy</title>
<polygon fill="white" stroke="none" points="-4,4 -4,-62 274,-62 274,4 -4,4"/>
<!-- Node1 -->
<g id="node1" class="node"><title>Node1</title>
<polygon fill="white" stroke="#bfbfbf" points="0,-19.5 0,-38.5 68,-38.5 68,-19.5 0,-19.5"/>
<text text-anchor="middle" x="34" y="-26.5" font-family="Helvetica,sans-Serif" font-size="10.00">SubdividerT</text>
</g>
<!-- Node2 -->
<g id="node2" class="node"><title>Node2</title>
<g id="a_node2"><a xlink:href="classRa_1_1Core_1_1CatmullClarkSubdivider.html" target="_top" xlink:title="This class implements the Catmull&#45;Clark subdivision algorithm. ">
<polygon fill="white" stroke="black" points="104.5,-38.5 104.5,-57.5 269.5,-57.5 269.5,-38.5 104.5,-38.5"/>
<text text-anchor="middle" x="187" y="-45.5" font-family="Helvetica,sans-Serif" font-size="10.00">Ra::Core::CatmullClarkSubdivider</text>
</a>
</g>
</g>
<!-- Node1&#45;&gt;Node2 -->
<g id="edge1" class="edge"><title>Node1&#45;&gt;Node2</title>
<path fill="none" stroke="midnightblue" d="M78.2244,-34.4388C88.2672,-35.7025 99.2486,-37.0843 110.237,-38.4669"/>
<polygon fill="midnightblue" stroke="midnightblue" points="78.4963,-30.9455 68.1376,-33.1696 77.6224,-37.8908 78.4963,-30.9455"/>
</g>
<!-- Node3 -->
<g id="node3" class="node"><title>Node3</title>
<g id="a_node3"><a xlink:href="classRa_1_1Core_1_1LoopSubdivider.html" target="_top" xlink:title="This class implements the Loop subdivision algorithm. ">
<polygon fill="white" stroke="black" points="122.5,-0.5 122.5,-19.5 251.5,-19.5 251.5,-0.5 122.5,-0.5"/>
<text text-anchor="middle" x="187" y="-7.5" font-family="Helvetica,sans-Serif" font-size="10.00">Ra::Core::LoopSubdivider</text>
</a>
</g>
</g>
<!-- Node1&#45;&gt;Node3 -->
<g id="edge2" class="edge"><title>Node1&#45;&gt;Node3</title>
<path fill="none" stroke="midnightblue" d="M78.2377,-23.5595C91.9419,-21.8351 107.393,-19.891 122.225,-18.0247"/>
<polygon fill="midnightblue" stroke="midnightblue" points="77.6224,-20.1092 68.1376,-24.8304 78.4963,-27.0545 77.6224,-20.1092"/>
</g>
</g>
</svg>
