<?xml version="1.0" encoding="UTF-8" standalone="no"?>
<!DOCTYPE svg PUBLIC "-//W3C//DTD SVG 1.1//EN"
 "http://www.w3.org/Graphics/SVG/1.1/DTD/svg11.dtd">
<!-- Generated by graphviz version 2.36.0 (20140111.2315)
 -->
<!-- Title: Graphical Class Hierarchy Pages: 1 -->
<svg width="372pt" height="169pt"
 viewBox="0.00 0.00 372.00 169.00" xmlns="http://www.w3.org/2000/svg" xmlns:xlink="http://www.w3.org/1999/xlink">
<g id="graph0" class="graph" transform="scale(1 1) rotate(0) translate(4 165)">
<title>Graphical Class Hierarchy</title>
<polygon fill="white" stroke="none" points="-4,4 -4,-165 368,-165 368,4 -4,4"/>
<!-- Node1 -->
<g id="node1" class="node"><title>Node1</title>
<g id="a_node1"><a xlink:href="classRa_1_1Core_1_1Geometry_1_1VariationalShapeApproximationBase.html" target="_top" xlink:title="The VariationalShapeApproximationBase class. ">
<polygon fill="white" stroke="black" points="0,-59.5 0,-100.5 158,-100.5 158,-59.5 0,-59.5"/>
<text text-anchor="start" x="8" y="-88.5" font-family="Helvetica,sans-Serif" font-size="10.00">Ra::Core::Geometry</text>
<text text-anchor="start" x="8" y="-77.5" font-family="Helvetica,sans-Serif" font-size="10.00">::VariationalShapeApproximation</text>
<text text-anchor="middle" x="79" y="-66.5" font-family="Helvetica,sans-Serif" font-size="10.00">Base&lt; K_Region &gt;</text>
</a>
</g>
</g>
<!-- Node2 -->
<g id="node2" class="node"><title>Node2</title>
<g id="a_node2"><a xlink:href="classRa_1_1Core_1_1Geometry_1_1VariationalShapeApproximation.html" target="_top" xlink:title="The VariationalShapeApproximation class. ">
<polygon fill="white" stroke="black" points="200,-119.5 200,-160.5 358,-160.5 358,-119.5 200,-119.5"/>
<text text-anchor="start" x="208" y="-148.5" font-family="Helvetica,sans-Serif" font-size="10.00">Ra::Core::Geometry</text>
<text text-anchor="start" x="208" y="-137.5" font-family="Helvetica,sans-Serif" font-size="10.00">::VariationalShapeApproximation</text>
<text text-anchor="middle" x="279" y="-126.5" font-family="Helvetica,sans-Serif" font-size="10.00">&lt; K_Region, Type &gt;</text>
</a>
</g>
</g>
<!-- Node1&#45;&gt;Node2 -->
<g id="edge1" class="edge"><title>Node1&#45;&gt;Node2</title>
<path fill="none" stroke="midnightblue" d="M157.435,-103.465C174.863,-108.746 193.228,-114.312 210.225,-119.462"/>
<polygon fill="midnightblue" stroke="midnightblue" points="158.449,-100.115 147.863,-100.565 156.419,-106.814 158.449,-100.115"/>
</g>
<!-- Node3 -->
<g id="node3" class="node"><title>Node3</title>
<g id="a_node3"><a xlink:href="classRa_1_1Core_1_1Geometry_1_1VariationalShapeApproximation_3_01K__Region_00_01MetricType_1_1L21_01_4.html" target="_top" xlink:title="This is a specialized version of the VSA for the L21 metric. ">
<polygon fill="white" stroke="black" points="200,-59.5 200,-100.5 358,-100.5 358,-59.5 200,-59.5"/>
<text text-anchor="start" x="208" y="-88.5" font-family="Helvetica,sans-Serif" font-size="10.00">Ra::Core::Geometry</text>
<text text-anchor="start" x="208" y="-77.5" font-family="Helvetica,sans-Serif" font-size="10.00">::VariationalShapeApproximation</text>
<text text-anchor="middle" x="279" y="-66.5" font-family="Helvetica,sans-Serif" font-size="10.00">&lt; K_Region, MetricType::L21 &gt;</text>
</a>
</g>
</g>
<!-- Node1&#45;&gt;Node3 -->
<g id="edge2" class="edge"><title>Node1&#45;&gt;Node3</title>
<path fill="none" stroke="midnightblue" d="M168.311,-80C178.869,-80 189.591,-80 199.989,-80"/>
<polygon fill="midnightblue" stroke="midnightblue" points="168.255,-76.5001 158.255,-80 168.255,-83.5001 168.255,-76.5001"/>
</g>
<!-- Node4 -->
<g id="node4" class="node"><title>Node4</title>
<g id="a_node4"><a xlink:href="classRa_1_1Core_1_1Geometry_1_1VariationalShapeApproximation_3_01K__Region_00_01MetricType_1_1LLOYD_01_4.html" target="_top" xlink:title="This is a specialized version of the VSA for the L21 metric. ">
<polygon fill="white" stroke="black" points="194,0.5 194,-40.5 364,-40.5 364,0.5 194,0.5"/>
<text text-anchor="start" x="202" y="-28.5" font-family="Helvetica,sans-Serif" font-size="10.00">Ra::Core::Geometry</text>
<text text-anchor="start" x="202" y="-17.5" font-family="Helvetica,sans-Serif" font-size="10.00">::VariationalShapeApproximation</text>
<text text-anchor="middle" x="279" y="-6.5" font-family="Helvetica,sans-Serif" font-size="10.00">&lt; K_Region, MetricType::LLOYD &gt;</text>
</a>
</g>
</g>
<!-- Node1&#45;&gt;Node4 -->
<g id="edge3" class="edge"><title>Node1&#45;&gt;Node4</title>
<path fill="none" stroke="midnightblue" d="M157.435,-56.535C174.863,-51.2537 193.228,-45.6885 210.225,-40.5378"/>
<polygon fill="midnightblue" stroke="midnightblue" points="156.419,-53.1856 147.863,-59.4353 158.449,-59.8848 156.419,-53.1856"/>
</g>
</g>
</svg>
