<?xml version="1.0" encoding="UTF-8" standalone="no"?>
<!DOCTYPE svg PUBLIC "-//W3C//DTD SVG 1.1//EN"
 "http://www.w3.org/Graphics/SVG/1.1/DTD/svg11.dtd">
<!-- Generated by graphviz version 2.36.0 (20140111.2315)
 -->
<!-- Title: /home/travis/build/STORM&#45;IRIT/Radium&#45;Engine/src/Core/File/KeyFrame/KeyTransform.hpp Pages: 1 -->
<svg width="3077pt" height="488pt"
 viewBox="0.00 0.00 3077.00 488.00" xmlns="http://www.w3.org/2000/svg" xmlns:xlink="http://www.w3.org/1999/xlink">
<g id="graph0" class="graph" transform="scale(1 1) rotate(0) translate(4 484)">
<title>/home/travis/build/STORM&#45;IRIT/Radium&#45;Engine/src/Core/File/KeyFrame/KeyTransform.hpp</title>
<polygon fill="white" stroke="none" points="-4,4 -4,-484 3073,-484 3073,4 -4,4"/>
<!-- Node1 -->
<g id="node1" class="node"><title>Node1</title>
<polygon fill="#bfbfbf" stroke="black" points="2673,-427 2673,-479 2821,-479 2821,-427 2673,-427"/>
<text text-anchor="start" x="2681" y="-467" font-family="Helvetica,sans-Serif" font-size="10.00">/home/travis/build</text>
<text text-anchor="start" x="2681" y="-456" font-family="Helvetica,sans-Serif" font-size="10.00">/STORM&#45;IRIT/Radium&#45;Engine</text>
<text text-anchor="start" x="2681" y="-445" font-family="Helvetica,sans-Serif" font-size="10.00">/src/Core/File/KeyFrame</text>
<text text-anchor="middle" x="2747" y="-434" font-family="Helvetica,sans-Serif" font-size="10.00">/KeyTransform.hpp</text>
</g>
<!-- Node2 -->
<g id="node2" class="node"><title>Node2</title>
<g id="a_node2"><a xlink:href="AnimationData_8hpp.html" target="_top" xlink:title="/home/travis/build\l/STORM&#45;IRIT/Radium&#45;Engine\l/src/Core/File/AnimationData.hpp">
<polygon fill="white" stroke="black" points="2425,-348.5 2425,-389.5 2587,-389.5 2587,-348.5 2425,-348.5"/>
<text text-anchor="start" x="2433" y="-377.5" font-family="Helvetica,sans-Serif" font-size="10.00">/home/travis/build</text>
<text text-anchor="start" x="2433" y="-366.5" font-family="Helvetica,sans-Serif" font-size="10.00">/STORM&#45;IRIT/Radium&#45;Engine</text>
<text text-anchor="middle" x="2506" y="-355.5" font-family="Helvetica,sans-Serif" font-size="10.00">/src/Core/File/AnimationData.hpp</text>
</a>
</g>
</g>
<!-- Node1&#45;&gt;Node2 -->
<g id="edge1" class="edge"><title>Node1&#45;&gt;Node2</title>
<path fill="none" stroke="midnightblue" d="M2663.73,-423.666C2630.67,-412.419 2593.47,-399.761 2563.5,-389.565"/>
<polygon fill="midnightblue" stroke="midnightblue" points="2662.79,-427.044 2673.38,-426.952 2665.04,-420.417 2662.79,-427.044"/>
</g>
<!-- Node24 -->
<g id="node24" class="node"><title>Node24</title>
<g id="a_node24"><a xlink:href="AnimationComponent_8cpp.html" target="_top" xlink:title="/home/travis/build\l/STORM&#45;IRIT/Radium&#45;Engine\l/Plugins/Animation/src/Animation\lComponent.cpp">
<polygon fill="white" stroke="black" points="2908.5,-79 2908.5,-131 3069.5,-131 3069.5,-79 2908.5,-79"/>
<text text-anchor="start" x="2916.5" y="-119" font-family="Helvetica,sans-Serif" font-size="10.00">/home/travis/build</text>
<text text-anchor="start" x="2916.5" y="-108" font-family="Helvetica,sans-Serif" font-size="10.00">/STORM&#45;IRIT/Radium&#45;Engine</text>
<text text-anchor="start" x="2916.5" y="-97" font-family="Helvetica,sans-Serif" font-size="10.00">/Plugins/Animation/src/Animation</text>
<text text-anchor="middle" x="2989" y="-86" font-family="Helvetica,sans-Serif" font-size="10.00">Component.cpp</text>
</a>
</g>
</g>
<!-- Node1&#45;&gt;Node24 -->
<g id="edge30" class="edge"><title>Node1&#45;&gt;Node24</title>
<path fill="none" stroke="midnightblue" d="M2828.17,-422.763C2877.82,-400.407 2937.79,-364.411 2970,-312 3004.98,-255.086 2999.16,-172.129 2993.36,-131.018"/>
<polygon fill="midnightblue" stroke="midnightblue" points="2826.46,-419.691 2818.71,-426.916 2829.28,-426.101 2826.46,-419.691"/>
</g>
<!-- Node3 -->
<g id="node3" class="node"><title>Node3</title>
<g id="a_node3"><a xlink:href="AnimationData_8cpp.html" target="_top" xlink:title="/home/travis/build\l/STORM&#45;IRIT/Radium&#45;Engine\l/src/Core/File/AnimationData.cpp">
<polygon fill="white" stroke="black" points="2799,-264.5 2799,-305.5 2961,-305.5 2961,-264.5 2799,-264.5"/>
<text text-anchor="start" x="2807" y="-293.5" font-family="Helvetica,sans-Serif" font-size="10.00">/home/travis/build</text>
<text text-anchor="start" x="2807" y="-282.5" font-family="Helvetica,sans-Serif" font-size="10.00">/STORM&#45;IRIT/Radium&#45;Engine</text>
<text text-anchor="middle" x="2880" y="-271.5" font-family="Helvetica,sans-Serif" font-size="10.00">/src/Core/File/AnimationData.cpp</text>
</a>
</g>
</g>
<!-- Node2&#45;&gt;Node3 -->
<g id="edge2" class="edge"><title>Node2&#45;&gt;Node3</title>
<path fill="none" stroke="midnightblue" d="M2597.05,-351.969C2652.73,-341.673 2725.27,-327.381 2789,-312 2797.15,-310.034 2805.66,-307.819 2814.07,-305.533"/>
<polygon fill="midnightblue" stroke="midnightblue" points="2596.41,-348.528 2587.2,-353.78 2597.67,-355.412 2596.41,-348.528"/>
</g>
<!-- Node4 -->
<g id="node4" class="node"><title>Node4</title>
<g id="a_node4"><a xlink:href="AnimationData_8inl.html" target="_top" xlink:title="/home/travis/build\l/STORM&#45;IRIT/Radium&#45;Engine\l/src/Core/File/AnimationData.inl">
<polygon fill="white" stroke="black" points="2070,-264.5 2070,-305.5 2226,-305.5 2226,-264.5 2070,-264.5"/>
<text text-anchor="start" x="2078" y="-293.5" font-family="Helvetica,sans-Serif" font-size="10.00">/home/travis/build</text>
<text text-anchor="start" x="2078" y="-282.5" font-family="Helvetica,sans-Serif" font-size="10.00">/STORM&#45;IRIT/Radium&#45;Engine</text>
<text text-anchor="middle" x="2148" y="-271.5" font-family="Helvetica,sans-Serif" font-size="10.00">/src/Core/File/AnimationData.inl</text>
</a>
</g>
</g>
<!-- Node2&#45;&gt;Node4 -->
<g id="edge3" class="edge"><title>Node2&#45;&gt;Node4</title>
<path fill="none" stroke="midnightblue" d="M2414.74,-352.676C2359.66,-342.332 2288.38,-327.735 2226,-312 2218.2,-310.034 2210.06,-307.819 2202.09,-305.533"/>
<polygon fill="midnightblue" stroke="midnightblue" points="2414.35,-356.165 2424.83,-354.557 2415.64,-349.283 2414.35,-356.165"/>
</g>
<!-- Node5 -->
<g id="node5" class="node"><title>Node5</title>
<g id="a_node5"><a xlink:href="FileData_8inl.html" target="_top" xlink:title="/home/travis/build\l/STORM&#45;IRIT/Radium&#45;Engine\l/src/Core/File/FileData.inl">
<polygon fill="white" stroke="black" points="2244,-264.5 2244,-305.5 2392,-305.5 2392,-264.5 2244,-264.5"/>
<text text-anchor="start" x="2252" y="-293.5" font-family="Helvetica,sans-Serif" font-size="10.00">/home/travis/build</text>
<text text-anchor="start" x="2252" y="-282.5" font-family="Helvetica,sans-Serif" font-size="10.00">/STORM&#45;IRIT/Radium&#45;Engine</text>
<text text-anchor="middle" x="2318" y="-271.5" font-family="Helvetica,sans-Serif" font-size="10.00">/src/Core/File/FileData.inl</text>
</a>
</g>
</g>
<!-- Node2&#45;&gt;Node5 -->
<g id="edge5" class="edge"><title>Node2&#45;&gt;Node5</title>
<path fill="none" stroke="midnightblue" d="M2451.67,-344.304C2423.55,-332.038 2389.62,-317.241 2362.99,-305.623"/>
<polygon fill="midnightblue" stroke="midnightblue" points="2450.4,-347.569 2460.97,-348.359 2453.2,-341.153 2450.4,-347.569"/>
</g>
<!-- Node22 -->
<g id="node22" class="node"><title>Node22</title>
<g id="a_node22"><a xlink:href="AssimpAnimationDataLoader_8cpp.html" target="_top" xlink:title="/home/travis/build\l/STORM&#45;IRIT/Radium&#45;Engine\l/src/IO/AssimpLoader/AssimpAnimation\lDataLoader.cpp">
<polygon fill="white" stroke="black" points="2410.5,-259 2410.5,-311 2601.5,-311 2601.5,-259 2410.5,-259"/>
<text text-anchor="start" x="2418.5" y="-299" font-family="Helvetica,sans-Serif" font-size="10.00">/home/travis/build</text>
<text text-anchor="start" x="2418.5" y="-288" font-family="Helvetica,sans-Serif" font-size="10.00">/STORM&#45;IRIT/Radium&#45;Engine</text>
<text text-anchor="start" x="2418.5" y="-277" font-family="Helvetica,sans-Serif" font-size="10.00">/src/IO/AssimpLoader/AssimpAnimation</text>
<text text-anchor="middle" x="2506" y="-266" font-family="Helvetica,sans-Serif" font-size="10.00">DataLoader.cpp</text>
</a>
</g>
</g>
<!-- Node2&#45;&gt;Node22 -->
<g id="edge22" class="edge"><title>Node2&#45;&gt;Node22</title>
<path fill="none" stroke="midnightblue" d="M2506,-337.938C2506,-329.176 2506,-319.695 2506,-311.261"/>
<polygon fill="midnightblue" stroke="midnightblue" points="2502.5,-338.15 2506,-348.15 2509.5,-338.15 2502.5,-338.15"/>
</g>
<!-- Node23 -->
<g id="node23" class="node"><title>Node23</title>
<g id="a_node23"><a xlink:href="AnimationComponent_8hpp.html" target="_top" xlink:title="/home/travis/build\l/STORM&#45;IRIT/Radium&#45;Engine\l/Plugins/Animation/src/Animation\lComponent.hpp">
<polygon fill="white" stroke="black" points="2619.5,-259 2619.5,-311 2780.5,-311 2780.5,-259 2619.5,-259"/>
<text text-anchor="start" x="2627.5" y="-299" font-family="Helvetica,sans-Serif" font-size="10.00">/home/travis/build</text>
<text text-anchor="start" x="2627.5" y="-288" font-family="Helvetica,sans-Serif" font-size="10.00">/STORM&#45;IRIT/Radium&#45;Engine</text>
<text text-anchor="start" x="2627.5" y="-277" font-family="Helvetica,sans-Serif" font-size="10.00">/Plugins/Animation/src/Animation</text>
<text text-anchor="middle" x="2700" y="-266" font-family="Helvetica,sans-Serif" font-size="10.00">Component.hpp</text>
</a>
</g>
</g>
<!-- Node2&#45;&gt;Node23 -->
<g id="edge23" class="edge"><title>Node2&#45;&gt;Node23</title>
<path fill="none" stroke="midnightblue" d="M2561.71,-344.453C2586.43,-334.005 2615.54,-321.698 2640.67,-311.078"/>
<polygon fill="midnightblue" stroke="midnightblue" points="2560.32,-341.242 2552.47,-348.359 2563.04,-347.689 2560.32,-341.242"/>
</g>
<!-- Node4&#45;&gt;Node2 -->
<g id="edge4" class="edge"><title>Node4&#45;&gt;Node2</title>
<path fill="none" stroke="midnightblue" d="M2229.83,-308.272C2234.62,-309.577 2239.37,-310.832 2244,-312 2304.33,-327.217 2372.97,-341.368 2424.91,-351.639"/>
<polygon fill="midnightblue" stroke="midnightblue" points="2230.52,-304.832 2219.95,-305.533 2228.65,-311.578 2230.52,-304.832"/>
</g>
<!-- Node6 -->
<g id="node6" class="node"><title>Node6</title>
<g id="a_node6"><a xlink:href="FileData_8hpp.html" target="_top" xlink:title="/home/travis/build\l/STORM&#45;IRIT/Radium&#45;Engine\l/src/Core/File/FileData.hpp">
<polygon fill="white" stroke="black" points="1353,-174.5 1353,-215.5 1501,-215.5 1501,-174.5 1353,-174.5"/>
<text text-anchor="start" x="1361" y="-203.5" font-family="Helvetica,sans-Serif" font-size="10.00">/home/travis/build</text>
<text text-anchor="start" x="1361" y="-192.5" font-family="Helvetica,sans-Serif" font-size="10.00">/STORM&#45;IRIT/Radium&#45;Engine</text>
<text text-anchor="middle" x="1427" y="-181.5" font-family="Helvetica,sans-Serif" font-size="10.00">/src/Core/File/FileData.hpp</text>
</a>
</g>
</g>
<!-- Node5&#45;&gt;Node6 -->
<g id="edge6" class="edge"><title>Node5&#45;&gt;Node6</title>
<path fill="none" stroke="midnightblue" d="M2251.69,-261.775C2246.08,-260.34 2240.47,-259.052 2235,-258 1968.36,-206.698 1644.52,-197.511 1501.27,-196.096"/>
<polygon fill="midnightblue" stroke="midnightblue" points="2251.17,-265.261 2261.74,-264.497 2253,-258.504 2251.17,-265.261"/>
</g>
<!-- Node7 -->
<g id="node7" class="node"><title>Node7</title>
<g id="a_node7"><a xlink:href="FileData_8cpp.html" target="_top" xlink:title="/home/travis/build\l/STORM&#45;IRIT/Radium&#45;Engine\l/src/Core/File/FileData.cpp">
<polygon fill="white" stroke="black" points="1933,-84.5 1933,-125.5 2081,-125.5 2081,-84.5 1933,-84.5"/>
<text text-anchor="start" x="1941" y="-113.5" font-family="Helvetica,sans-Serif" font-size="10.00">/home/travis/build</text>
<text text-anchor="start" x="1941" y="-102.5" font-family="Helvetica,sans-Serif" font-size="10.00">/STORM&#45;IRIT/Radium&#45;Engine</text>
<text text-anchor="middle" x="2007" y="-91.5" font-family="Helvetica,sans-Serif" font-size="10.00">/src/Core/File/FileData.cpp</text>
</a>
</g>
</g>
<!-- Node6&#45;&gt;Node7 -->
<g id="edge7" class="edge"><title>Node6&#45;&gt;Node7</title>
<path fill="none" stroke="midnightblue" d="M1511.38,-188.114C1610.88,-180.108 1780.85,-163.086 1924,-132 1932.26,-130.206 1940.88,-127.952 1949.31,-125.526"/>
<polygon fill="midnightblue" stroke="midnightblue" points="1511.07,-184.627 1501.38,-188.907 1511.62,-191.605 1511.07,-184.627"/>
</g>
<!-- Node8 -->
<g id="node8" class="node"><title>Node8</title>
<g id="a_node8"><a xlink:href="GeometryComponent_8cpp.html" target="_top" xlink:title="/home/travis/build\l/STORM&#45;IRIT/Radium&#45;Engine\l/src/Engine/Component/GeometryComponent.cpp">
<polygon fill="white" stroke="black" points="2099,-84.5 2099,-125.5 2333,-125.5 2333,-84.5 2099,-84.5"/>
<text text-anchor="start" x="2107" y="-113.5" font-family="Helvetica,sans-Serif" font-size="10.00">/home/travis/build</text>
<text text-anchor="start" x="2107" y="-102.5" font-family="Helvetica,sans-Serif" font-size="10.00">/STORM&#45;IRIT/Radium&#45;Engine</text>
<text text-anchor="middle" x="2216" y="-91.5" font-family="Helvetica,sans-Serif" font-size="10.00">/src/Engine/Component/GeometryComponent.cpp</text>
</a>
</g>
</g>
<!-- Node6&#45;&gt;Node8 -->
<g id="edge8" class="edge"><title>Node6&#45;&gt;Node8</title>
<path fill="none" stroke="midnightblue" d="M1511.4,-189.099C1637.71,-181.088 1883.22,-162.907 2090,-132 2102.15,-130.184 2114.89,-127.948 2127.42,-125.557"/>
<polygon fill="midnightblue" stroke="midnightblue" points="1511.16,-185.607 1501.4,-189.727 1511.6,-192.593 1511.16,-185.607"/>
</g>
<!-- Node9 -->
<g id="node9" class="node"><title>Node9</title>
<g id="a_node9"><a xlink:href="CameraManager_8cpp.html" target="_top" xlink:title="/home/travis/build\l/STORM&#45;IRIT/Radium&#45;Engine\l/src/Engine/Managers/CameraManager\l/CameraManager.cpp">
<polygon fill="white" stroke="black" points="2351.5,-79 2351.5,-131 2538.5,-131 2538.5,-79 2351.5,-79"/>
<text text-anchor="start" x="2359.5" y="-119" font-family="Helvetica,sans-Serif" font-size="10.00">/home/travis/build</text>
<text text-anchor="start" x="2359.5" y="-108" font-family="Helvetica,sans-Serif" font-size="10.00">/STORM&#45;IRIT/Radium&#45;Engine</text>
<text text-anchor="start" x="2359.5" y="-97" font-family="Helvetica,sans-Serif" font-size="10.00">/src/Engine/Managers/CameraManager</text>
<text text-anchor="middle" x="2445" y="-86" font-family="Helvetica,sans-Serif" font-size="10.00">/CameraManager.cpp</text>
</a>
</g>
</g>
<!-- Node6&#45;&gt;Node9 -->
<g id="edge9" class="edge"><title>Node6&#45;&gt;Node9</title>
<path fill="none" stroke="midnightblue" d="M1511.41,-193.33C1673.44,-190.93 2038.88,-180.128 2342,-132 2345.1,-131.508 2348.24,-130.967 2351.4,-130.386"/>
<polygon fill="midnightblue" stroke="midnightblue" points="1510.99,-189.835 1501.04,-193.476 1511.09,-196.835 1510.99,-189.835"/>
</g>
<!-- Node10 -->
<g id="node10" class="node"><title>Node10</title>
<g id="a_node10"><a xlink:href="LightManager_8cpp.html" target="_top" xlink:title="/home/travis/build\l/STORM&#45;IRIT/Radium&#45;Engine\l/src/Engine/Managers/LightManager\l/LightManager.cpp">
<polygon fill="white" stroke="black" points="-0.5,-79 -0.5,-131 172.5,-131 172.5,-79 -0.5,-79"/>
<text text-anchor="start" x="7.5" y="-119" font-family="Helvetica,sans-Serif" font-size="10.00">/home/travis/build</text>
<text text-anchor="start" x="7.5" y="-108" font-family="Helvetica,sans-Serif" font-size="10.00">/STORM&#45;IRIT/Radium&#45;Engine</text>
<text text-anchor="start" x="7.5" y="-97" font-family="Helvetica,sans-Serif" font-size="10.00">/src/Engine/Managers/LightManager</text>
<text text-anchor="middle" x="86" y="-86" font-family="Helvetica,sans-Serif" font-size="10.00">/LightManager.cpp</text>
</a>
</g>
</g>
<!-- Node6&#45;&gt;Node10 -->
<g id="edge10" class="edge"><title>Node6&#45;&gt;Node10</title>
<path fill="none" stroke="midnightblue" d="M1342.54,-192.157C1100.33,-186.496 406.418,-167.554 182,-132 178.93,-131.514 175.817,-130.967 172.683,-130.371"/>
<polygon fill="midnightblue" stroke="midnightblue" points="1342.61,-195.659 1352.69,-192.392 1342.77,-188.661 1342.61,-195.659"/>
</g>
<!-- Node11 -->
<g id="node11" class="node"><title>Node11</title>
<g id="a_node11"><a xlink:href="RadiumEngine_8cpp.html" target="_top" xlink:title="/home/travis/build\l/STORM&#45;IRIT/Radium&#45;Engine\l/src/Engine/RadiumEngine.cpp">
<polygon fill="white" stroke="black" points="191,-84.5 191,-125.5 343,-125.5 343,-84.5 191,-84.5"/>
<text text-anchor="start" x="199" y="-113.5" font-family="Helvetica,sans-Serif" font-size="10.00">/home/travis/build</text>
<text text-anchor="start" x="199" y="-102.5" font-family="Helvetica,sans-Serif" font-size="10.00">/STORM&#45;IRIT/Radium&#45;Engine</text>
<text text-anchor="middle" x="267" y="-91.5" font-family="Helvetica,sans-Serif" font-size="10.00">/src/Engine/RadiumEngine.cpp</text>
</a>
</g>
</g>
<!-- Node6&#45;&gt;Node11 -->
<g id="edge11" class="edge"><title>Node6&#45;&gt;Node11</title>
<path fill="none" stroke="midnightblue" d="M1342.8,-191.745C1124.09,-185.473 541.856,-166.004 352,-132 342.886,-130.368 333.375,-128.072 324.154,-125.514"/>
<polygon fill="midnightblue" stroke="midnightblue" points="1342.84,-195.248 1352.94,-192.034 1343.04,-188.251 1342.84,-195.248"/>
</g>
<!-- Node12 -->
<g id="node12" class="node"><title>Node12</title>
<g id="a_node12"><a xlink:href="Renderer_8cpp.html" target="_top" xlink:title="/home/travis/build\l/STORM&#45;IRIT/Radium&#45;Engine\l/src/Engine/Renderer/Renderer.cpp">
<polygon fill="white" stroke="black" points="361,-84.5 361,-125.5 531,-125.5 531,-84.5 361,-84.5"/>
<text text-anchor="start" x="369" y="-113.5" font-family="Helvetica,sans-Serif" font-size="10.00">/home/travis/build</text>
<text text-anchor="start" x="369" y="-102.5" font-family="Helvetica,sans-Serif" font-size="10.00">/STORM&#45;IRIT/Radium&#45;Engine</text>
<text text-anchor="middle" x="446" y="-91.5" font-family="Helvetica,sans-Serif" font-size="10.00">/src/Engine/Renderer/Renderer.cpp</text>
</a>
</g>
</g>
<!-- Node6&#45;&gt;Node12 -->
<g id="edge12" class="edge"><title>Node6&#45;&gt;Node12</title>
<path fill="none" stroke="midnightblue" d="M1342.77,-193.616C1184.53,-191.678 832.542,-181.596 541,-132 531.138,-130.322 520.823,-128.054 510.776,-125.552"/>
<polygon fill="midnightblue" stroke="midnightblue" points="1342.87,-197.117 1352.9,-193.732 1342.95,-190.117 1342.87,-197.117"/>
</g>
<!-- Node13 -->
<g id="node13" class="node"><title>Node13</title>
<g id="a_node13"><a xlink:href="GeometrySystem_8cpp.html" target="_top" xlink:title="/home/travis/build\l/STORM&#45;IRIT/Radium&#45;Engine\l/src/Engine/System/GeometrySystem.cpp">
<polygon fill="white" stroke="black" points="549.5,-84.5 549.5,-125.5 750.5,-125.5 750.5,-84.5 549.5,-84.5"/>
<text text-anchor="start" x="557.5" y="-113.5" font-family="Helvetica,sans-Serif" font-size="10.00">/home/travis/build</text>
<text text-anchor="start" x="557.5" y="-102.5" font-family="Helvetica,sans-Serif" font-size="10.00">/STORM&#45;IRIT/Radium&#45;Engine</text>
<text text-anchor="middle" x="650" y="-91.5" font-family="Helvetica,sans-Serif" font-size="10.00">/src/Engine/System/GeometrySystem.cpp</text>
</a>
</g>
</g>
<!-- Node6&#45;&gt;Node13 -->
<g id="edge13" class="edge"><title>Node6&#45;&gt;Node13</title>
<path fill="none" stroke="midnightblue" d="M1342.49,-189.928C1215.41,-182.953 967.839,-166.052 760,-132 749.155,-130.223 737.792,-127.98 726.655,-125.559"/>
<polygon fill="midnightblue" stroke="midnightblue" points="1342.37,-193.427 1352.54,-190.473 1342.75,-186.437 1342.37,-193.427"/>
</g>
<!-- Node14 -->
<g id="node14" class="node"><title>Node14</title>
<g id="a_node14"><a xlink:href="Viewer_8cpp.html" target="_top" xlink:title="/home/travis/build\l/STORM&#45;IRIT/Radium&#45;Engine\l/src/GuiBase/Viewer/Viewer.cpp">
<polygon fill="white" stroke="black" points="769,-84.5 769,-125.5 927,-125.5 927,-84.5 769,-84.5"/>
<text text-anchor="start" x="777" y="-113.5" font-family="Helvetica,sans-Serif" font-size="10.00">/home/travis/build</text>
<text text-anchor="start" x="777" y="-102.5" font-family="Helvetica,sans-Serif" font-size="10.00">/STORM&#45;IRIT/Radium&#45;Engine</text>
<text text-anchor="middle" x="848" y="-91.5" font-family="Helvetica,sans-Serif" font-size="10.00">/src/GuiBase/Viewer/Viewer.cpp</text>
</a>
</g>
</g>
<!-- Node6&#45;&gt;Node14 -->
<g id="edge14" class="edge"><title>Node6&#45;&gt;Node14</title>
<path fill="none" stroke="midnightblue" d="M1342.58,-187.518C1244.21,-179.004 1077.12,-161.555 936,-132 927.424,-130.204 918.471,-127.98 909.699,-125.594"/>
<polygon fill="midnightblue" stroke="midnightblue" points="1342.5,-191.024 1352.76,-188.389 1343.1,-184.05 1342.5,-191.024"/>
</g>
<!-- Node15 -->
<g id="node15" class="node"><title>Node15</title>
<g id="a_node15"><a xlink:href="AssimpFileLoader_8cpp.html" target="_top" xlink:title="/home/travis/build\l/STORM&#45;IRIT/Radium&#45;Engine\l/src/IO/AssimpLoader/AssimpFile\lLoader.cpp">
<polygon fill="white" stroke="black" points="945,-79 945,-131 1109,-131 1109,-79 945,-79"/>
<text text-anchor="start" x="953" y="-119" font-family="Helvetica,sans-Serif" font-size="10.00">/home/travis/build</text>
<text text-anchor="start" x="953" y="-108" font-family="Helvetica,sans-Serif" font-size="10.00">/STORM&#45;IRIT/Radium&#45;Engine</text>
<text text-anchor="start" x="953" y="-97" font-family="Helvetica,sans-Serif" font-size="10.00">/src/IO/AssimpLoader/AssimpFile</text>
<text text-anchor="middle" x="1027" y="-86" font-family="Helvetica,sans-Serif" font-size="10.00">Loader.cpp</text>
</a>
</g>
</g>
<!-- Node6&#45;&gt;Node15 -->
<g id="edge15" class="edge"><title>Node6&#45;&gt;Node15</title>
<path fill="none" stroke="midnightblue" d="M1342.76,-178.85C1280.64,-167.239 1194.21,-150.169 1119,-132 1115.77,-131.22 1112.49,-130.404 1109.18,-129.561"/>
<polygon fill="midnightblue" stroke="midnightblue" points="1342.43,-182.349 1352.9,-180.737 1343.71,-175.467 1342.43,-182.349"/>
</g>
<!-- Node16 -->
<g id="node16" class="node"><title>Node16</title>
<g id="a_node16"><a xlink:href="CameraLoader_8cpp.html" target="_top" xlink:title="/home/travis/build\l/STORM&#45;IRIT/Radium&#45;Engine\l/src/IO/CameraLoader/CameraLoader.cpp">
<polygon fill="white" stroke="black" points="1127.5,-84.5 1127.5,-125.5 1326.5,-125.5 1326.5,-84.5 1127.5,-84.5"/>
<text text-anchor="start" x="1135.5" y="-113.5" font-family="Helvetica,sans-Serif" font-size="10.00">/home/travis/build</text>
<text text-anchor="start" x="1135.5" y="-102.5" font-family="Helvetica,sans-Serif" font-size="10.00">/STORM&#45;IRIT/Radium&#45;Engine</text>
<text text-anchor="middle" x="1227" y="-91.5" font-family="Helvetica,sans-Serif" font-size="10.00">/src/IO/CameraLoader/CameraLoader.cpp</text>
</a>
</g>
</g>
<!-- Node6&#45;&gt;Node16 -->
<g id="edge16" class="edge"><title>Node6&#45;&gt;Node16</title>
<path fill="none" stroke="midnightblue" d="M1373.44,-170.434C1341.61,-156.43 1301.72,-138.875 1271.61,-125.627"/>
<polygon fill="midnightblue" stroke="midnightblue" points="1372.05,-173.646 1382.61,-174.47 1374.87,-167.239 1372.05,-173.646"/>
</g>
<!-- Node17 -->
<g id="node17" class="node"><title>Node17</title>
<g id="a_node17"><a xlink:href="TinyPlyFileLoader_8cpp.html" target="_top" xlink:title="/home/travis/build\l/STORM&#45;IRIT/Radium&#45;Engine\l/src/IO/TinyPlyLoader/TinyPlyFile\lLoader.cpp">
<polygon fill="white" stroke="black" points="1345,-79 1345,-131 1509,-131 1509,-79 1345,-79"/>
<text text-anchor="start" x="1353" y="-119" font-family="Helvetica,sans-Serif" font-size="10.00">/home/travis/build</text>
<text text-anchor="start" x="1353" y="-108" font-family="Helvetica,sans-Serif" font-size="10.00">/STORM&#45;IRIT/Radium&#45;Engine</text>
<text text-anchor="start" x="1353" y="-97" font-family="Helvetica,sans-Serif" font-size="10.00">/src/IO/TinyPlyLoader/TinyPlyFile</text>
<text text-anchor="middle" x="1427" y="-86" font-family="Helvetica,sans-Serif" font-size="10.00">Loader.cpp</text>
</a>
</g>
</g>
<!-- Node6&#45;&gt;Node17 -->
<g id="edge17" class="edge"><title>Node6&#45;&gt;Node17</title>
<path fill="none" stroke="midnightblue" d="M1427,-164.255C1427,-153.506 1427,-141.484 1427,-131.166"/>
<polygon fill="midnightblue" stroke="midnightblue" points="1423.5,-164.47 1427,-174.47 1430.5,-164.47 1423.5,-164.47"/>
</g>
<!-- Node18 -->
<g id="node18" class="node"><title>Node18</title>
<g id="a_node18"><a xlink:href="AnimationSystem_8cpp.html" target="_top" xlink:title="/home/travis/build\l/STORM&#45;IRIT/Radium&#45;Engine\l/Plugins/Animation/src/Animation\lSystem.cpp">
<polygon fill="white" stroke="black" points="2556.5,-79 2556.5,-131 2717.5,-131 2717.5,-79 2556.5,-79"/>
<text text-anchor="start" x="2564.5" y="-119" font-family="Helvetica,sans-Serif" font-size="10.00">/home/travis/build</text>
<text text-anchor="start" x="2564.5" y="-108" font-family="Helvetica,sans-Serif" font-size="10.00">/STORM&#45;IRIT/Radium&#45;Engine</text>
<text text-anchor="start" x="2564.5" y="-97" font-family="Helvetica,sans-Serif" font-size="10.00">/Plugins/Animation/src/Animation</text>
<text text-anchor="middle" x="2637" y="-86" font-family="Helvetica,sans-Serif" font-size="10.00">System.cpp</text>
</a>
</g>
</g>
<!-- Node6&#45;&gt;Node18 -->
<g id="edge18" class="edge"><title>Node6&#45;&gt;Node18</title>
<path fill="none" stroke="midnightblue" d="M1511.12,-191.805C1736.07,-185.542 2347.87,-165.827 2547,-132 2550.05,-131.482 2553.14,-130.899 2556.25,-130.261"/>
<polygon fill="midnightblue" stroke="midnightblue" points="1510.93,-188.309 1501.03,-192.084 1511.12,-195.306 1510.93,-188.309"/>
</g>
<!-- Node19 -->
<g id="node19" class="node"><title>Node19</title>
<g id="a_node19"><a xlink:href="MeshPaintSystem_8cpp.html" target="_top" xlink:title="/home/travis/build\l/STORM&#45;IRIT/Radium&#45;Engine\l/Plugins/MeshPaint/src/MeshPaint\lSystem.cpp">
<polygon fill="white" stroke="black" points="1527.5,-79 1527.5,-131 1694.5,-131 1694.5,-79 1527.5,-79"/>
<text text-anchor="start" x="1535.5" y="-119" font-family="Helvetica,sans-Serif" font-size="10.00">/home/travis/build</text>
<text text-anchor="start" x="1535.5" y="-108" font-family="Helvetica,sans-Serif" font-size="10.00">/STORM&#45;IRIT/Radium&#45;Engine</text>
<text text-anchor="start" x="1535.5" y="-97" font-family="Helvetica,sans-Serif" font-size="10.00">/Plugins/MeshPaint/src/MeshPaint</text>
<text text-anchor="middle" x="1611" y="-86" font-family="Helvetica,sans-Serif" font-size="10.00">System.cpp</text>
</a>
</g>
</g>
<!-- Node6&#45;&gt;Node19 -->
<g id="edge19" class="edge"><title>Node6&#45;&gt;Node19</title>
<path fill="none" stroke="midnightblue" d="M1476.91,-170.13C1502.26,-158.006 1533.05,-143.282 1558.72,-131.002"/>
<polygon fill="midnightblue" stroke="midnightblue" points="1475.35,-166.998 1467.84,-174.47 1478.37,-173.313 1475.35,-166.998"/>
</g>
<!-- Node20 -->
<g id="node20" class="node"><title>Node20</title>
<g id="a_node20"><a xlink:href="SkinningSystem_8hpp.html" target="_top" xlink:title="/home/travis/build\l/STORM&#45;IRIT/Radium&#45;Engine\l/Plugins/Skinning/src/SkinningSystem.hpp">
<polygon fill="white" stroke="black" points="1713,-84.5 1713,-125.5 1915,-125.5 1915,-84.5 1713,-84.5"/>
<text text-anchor="start" x="1721" y="-113.5" font-family="Helvetica,sans-Serif" font-size="10.00">/home/travis/build</text>
<text text-anchor="start" x="1721" y="-102.5" font-family="Helvetica,sans-Serif" font-size="10.00">/STORM&#45;IRIT/Radium&#45;Engine</text>
<text text-anchor="middle" x="1814" y="-91.5" font-family="Helvetica,sans-Serif" font-size="10.00">/Plugins/Skinning/src/SkinningSystem.hpp</text>
</a>
</g>
</g>
<!-- Node6&#45;&gt;Node20 -->
<g id="edge20" class="edge"><title>Node6&#45;&gt;Node20</title>
<path fill="none" stroke="midnightblue" d="M1511.13,-175.31C1565.83,-163.107 1638.67,-146.759 1703,-132 1712.07,-129.92 1721.55,-127.727 1730.98,-125.533"/>
<polygon fill="midnightblue" stroke="midnightblue" points="1510.13,-171.946 1501.13,-177.539 1511.66,-178.778 1510.13,-171.946"/>
</g>
<!-- Node21 -->
<g id="node21" class="node"><title>Node21</title>
<g id="a_node21"><a xlink:href="SkinningPlugin_8cpp.html" target="_top" xlink:title="/home/travis/build\l/STORM&#45;IRIT/Radium&#45;Engine\l/Plugins/Skinning/src/SkinningPlugin.cpp">
<polygon fill="white" stroke="black" points="1716.5,-0.5 1716.5,-41.5 1911.5,-41.5 1911.5,-0.5 1716.5,-0.5"/>
<text text-anchor="start" x="1724.5" y="-29.5" font-family="Helvetica,sans-Serif" font-size="10.00">/home/travis/build</text>
<text text-anchor="start" x="1724.5" y="-18.5" font-family="Helvetica,sans-Serif" font-size="10.00">/STORM&#45;IRIT/Radium&#45;Engine</text>
<text text-anchor="middle" x="1814" y="-7.5" font-family="Helvetica,sans-Serif" font-size="10.00">/Plugins/Skinning/src/SkinningPlugin.cpp</text>
</a>
</g>
</g>
<!-- Node20&#45;&gt;Node21 -->
<g id="edge21" class="edge"><title>Node20&#45;&gt;Node21</title>
<path fill="none" stroke="midnightblue" d="M1814,-73.881C1814,-63.1328 1814,-51.309 1814,-41.6671"/>
<polygon fill="midnightblue" stroke="midnightblue" points="1810.5,-74.1501 1814,-84.1501 1817.5,-74.1501 1810.5,-74.1501"/>
</g>
<!-- Node23&#45;&gt;Node18 -->
<g id="edge25" class="edge"><title>Node23&#45;&gt;Node18</title>
<path fill="none" stroke="midnightblue" d="M2687.67,-249.164C2675.4,-214.501 2656.87,-162.149 2645.95,-131.285"/>
<polygon fill="midnightblue" stroke="midnightblue" points="2684.47,-250.615 2691.11,-258.874 2691.07,-248.28 2684.47,-250.615"/>
</g>
<!-- Node23&#45;&gt;Node24 -->
<g id="edge24" class="edge"><title>Node23&#45;&gt;Node24</title>
<path fill="none" stroke="midnightblue" d="M2790.71,-257.183C2827.17,-245.497 2864.27,-232.175 2880,-222 2917.82,-197.537 2951.67,-157.198 2971.27,-131.118"/>
<polygon fill="midnightblue" stroke="midnightblue" points="2789.45,-253.914 2780.97,-260.274 2791.56,-260.586 2789.45,-253.914"/>
</g>
<!-- Node25 -->
<g id="node25" class="node"><title>Node25</title>
<g id="a_node25"><a xlink:href="SkeletonBoneDrawable_8hpp.html" target="_top" xlink:title="/home/travis/build\l/STORM&#45;IRIT/Radium&#45;Engine\l/Plugins/Animation/src/Drawing\l/SkeletonBoneDrawable.hpp">
<polygon fill="white" stroke="black" points="2717,-169 2717,-221 2871,-221 2871,-169 2717,-169"/>
<text text-anchor="start" x="2725" y="-209" font-family="Helvetica,sans-Serif" font-size="10.00">/home/travis/build</text>
<text text-anchor="start" x="2725" y="-198" font-family="Helvetica,sans-Serif" font-size="10.00">/STORM&#45;IRIT/Radium&#45;Engine</text>
<text text-anchor="start" x="2725" y="-187" font-family="Helvetica,sans-Serif" font-size="10.00">/Plugins/Animation/src/Drawing</text>
<text text-anchor="middle" x="2794" y="-176" font-family="Helvetica,sans-Serif" font-size="10.00">/SkeletonBoneDrawable.hpp</text>
</a>
</g>
</g>
<!-- Node23&#45;&gt;Node25 -->
<g id="edge26" class="edge"><title>Node23&#45;&gt;Node25</title>
<path fill="none" stroke="midnightblue" d="M2734.55,-251.658C2745.27,-241.617 2756.93,-230.703 2767.06,-221.221"/>
<polygon fill="midnightblue" stroke="midnightblue" points="2731.84,-249.393 2726.94,-258.783 2736.63,-254.504 2731.84,-249.393"/>
</g>
<!-- Node25&#45;&gt;Node18 -->
<g id="edge28" class="edge"><title>Node25&#45;&gt;Node18</title>
<path fill="none" stroke="midnightblue" d="M2740.15,-163.815C2721.11,-153.145 2699.92,-141.268 2681.72,-131.069"/>
<polygon fill="midnightblue" stroke="midnightblue" points="2738.58,-166.946 2749.01,-168.783 2742,-160.84 2738.58,-166.946"/>
</g>
<!-- Node25&#45;&gt;Node24 -->
<g id="edge27" class="edge"><title>Node25&#45;&gt;Node24</title>
<path fill="none" stroke="midnightblue" d="M2859.03,-164.654C2883.1,-153.792 2910.14,-141.586 2933.31,-131.133"/>
<polygon fill="midnightblue" stroke="midnightblue" points="2857.29,-161.597 2849.62,-168.901 2860.17,-167.977 2857.29,-161.597"/>
</g>
<!-- Node26 -->
<g id="node26" class="node"><title>Node26</title>
<g id="a_node26"><a xlink:href="SkeletonBoneDrawable_8cpp.html" target="_top" xlink:title="/home/travis/build\l/STORM&#45;IRIT/Radium&#45;Engine\l/Plugins/Animation/src/Drawing\l/SkeletonBoneDrawable.cpp">
<polygon fill="white" stroke="black" points="2736,-79 2736,-131 2890,-131 2890,-79 2736,-79"/>
<text text-anchor="start" x="2744" y="-119" font-family="Helvetica,sans-Serif" font-size="10.00">/home/travis/build</text>
<text text-anchor="start" x="2744" y="-108" font-family="Helvetica,sans-Serif" font-size="10.00">/STORM&#45;IRIT/Radium&#45;Engine</text>
<text text-anchor="start" x="2744" y="-97" font-family="Helvetica,sans-Serif" font-size="10.00">/Plugins/Animation/src/Drawing</text>
<text text-anchor="middle" x="2813" y="-86" font-family="Helvetica,sans-Serif" font-size="10.00">/SkeletonBoneDrawable.cpp</text>
</a>
</g>
</g>
<!-- Node25&#45;&gt;Node26 -->
<g id="edge29" class="edge"><title>Node25&#45;&gt;Node26</title>
<path fill="none" stroke="midnightblue" d="M2801.67,-158.489C2803.65,-149.309 2805.74,-139.616 2807.58,-131.092"/>
<polygon fill="midnightblue" stroke="midnightblue" points="2798.18,-158.033 2799.5,-168.547 2805.03,-159.511 2798.18,-158.033"/>
</g>
</g>
</svg>
