<?xml version="1.0" encoding="UTF-8" standalone="no"?>
<!DOCTYPE svg PUBLIC "-//W3C//DTD SVG 1.1//EN"
 "http://www.w3.org/Graphics/SVG/1.1/DTD/svg11.dtd">
<!-- Generated by graphviz version 2.36.0 (20140111.2315)
 -->
<!-- Title: /home/travis/build/STORM&#45;IRIT/Radium&#45;Engine/src/Core/Algorithm/Smoothing/LaplacianSmoothing.hpp Pages: 1 -->
<svg width="1538pt" height="570pt"
 viewBox="0.00 0.00 1538.00 570.00" xmlns="http://www.w3.org/2000/svg" xmlns:xlink="http://www.w3.org/1999/xlink">
<g id="graph0" class="graph" transform="scale(1 1) rotate(0) translate(4 566)">
<title>/home/travis/build/STORM&#45;IRIT/Radium&#45;Engine/src/Core/Algorithm/Smoothing/LaplacianSmoothing.hpp</title>
<polygon fill="white" stroke="none" points="-4,4 -4,-566 1534,-566 1534,4 -4,4"/>
<!-- Node1 -->
<g id="node1" class="node"><title>Node1</title>
<polygon fill="#bfbfbf" stroke="black" points="377.5,-509 377.5,-561 528.5,-561 528.5,-509 377.5,-509"/>
<text text-anchor="start" x="385.5" y="-549" font-family="Helvetica,sans-Serif" font-size="10.00">/home/travis/build</text>
<text text-anchor="start" x="385.5" y="-538" font-family="Helvetica,sans-Serif" font-size="10.00">/STORM&#45;IRIT/Radium&#45;Engine</text>
<text text-anchor="start" x="385.5" y="-527" font-family="Helvetica,sans-Serif" font-size="10.00">/src/Core/Algorithm/Smoothing</text>
<text text-anchor="middle" x="453" y="-516" font-family="Helvetica,sans-Serif" font-size="10.00">/LaplacianSmoothing.hpp</text>
</g>
<!-- Node2 -->
<g id="node2" class="node"><title>Node2</title>
<g id="a_node2"><a xlink:href="Diffusion_8hpp.html" target="_top" xlink:title="Core/Algorithm/Diffusion\l/Diffusion.hpp">
<polygon fill="white" stroke="black" points="436,-441 436,-471 560,-471 560,-441 436,-441"/>
<text text-anchor="start" x="444" y="-459" font-family="Helvetica,sans-Serif" font-size="10.00">Core/Algorithm/Diffusion</text>
<text text-anchor="middle" x="498" y="-448" font-family="Helvetica,sans-Serif" font-size="10.00">/Diffusion.hpp</text>
</a>
</g>
</g>
<!-- Node1&#45;&gt;Node2 -->
<g id="edge1" class="edge"><title>Node1&#45;&gt;Node2</title>
<path fill="none" stroke="midnightblue" d="M467.735,-508.787C473.138,-499.542 479.221,-489.132 484.51,-480.083"/>
<polygon fill="midnightblue" stroke="midnightblue" points="487.647,-481.652 489.671,-471.252 481.603,-478.12 487.647,-481.652"/>
</g>
<!-- Node7 -->
<g id="node7" class="node"><title>Node7</title>
<g id="a_node7"><a xlink:href="RaCore_8hpp.html" target="_top" xlink:title="Core/RaCore.hpp">
<polygon fill="white" stroke="black" points="428.5,-112.5 428.5,-131.5 521.5,-131.5 521.5,-112.5 428.5,-112.5"/>
<text text-anchor="middle" x="475" y="-119.5" font-family="Helvetica,sans-Serif" font-size="10.00">Core/RaCore.hpp</text>
</a>
</g>
</g>
<!-- Node1&#45;&gt;Node7 -->
<g id="edge55" class="edge"><title>Node1&#45;&gt;Node7</title>
<path fill="none" stroke="midnightblue" d="M377.433,-525.602C248.548,-509.156 0,-467.293 0,-389 0,-389 0,-389 0,-251 0,-165.332 291.689,-135.326 417.912,-126.352"/>
<polygon fill="midnightblue" stroke="midnightblue" points="418.42,-129.826 428.155,-125.644 417.938,-122.842 418.42,-129.826"/>
</g>
<!-- Node27 -->
<g id="node27" class="node"><title>Node27</title>
<g id="a_node27"><a xlink:href="VectorArray_8hpp.html" target="_top" xlink:title="Core/Containers/VectorArray.hpp">
<polygon fill="white" stroke="black" points="417.5,-310.5 417.5,-329.5 578.5,-329.5 578.5,-310.5 417.5,-310.5"/>
<text text-anchor="middle" x="498" y="-317.5" font-family="Helvetica,sans-Serif" font-size="10.00">Core/Containers/VectorArray.hpp</text>
</a>
</g>
</g>
<!-- Node1&#45;&gt;Node27 -->
<g id="edge49" class="edge"><title>Node1&#45;&gt;Node27</title>
<path fill="none" stroke="midnightblue" d="M440.005,-508.93C424.753,-475.77 404.249,-416.354 427,-372 435.604,-355.226 452.575,-342.722 467.767,-334.294"/>
<polygon fill="midnightblue" stroke="midnightblue" points="469.629,-337.272 476.906,-329.572 466.416,-331.053 469.629,-337.272"/>
</g>
<!-- Node35 -->
<g id="node35" class="node"><title>Node35</title>
<g id="a_node35"><a xlink:href="Laplacian_8hpp.html" target="_top" xlink:title="Core/Geometry/Laplacian\l/Laplacian.hpp">
<polygon fill="white" stroke="black" points="578,-441 578,-471 706,-471 706,-441 578,-441"/>
<text text-anchor="start" x="586" y="-459" font-family="Helvetica,sans-Serif" font-size="10.00">Core/Geometry/Laplacian</text>
<text text-anchor="middle" x="642" y="-448" font-family="Helvetica,sans-Serif" font-size="10.00">/Laplacian.hpp</text>
</a>
</g>
</g>
<!-- Node1&#45;&gt;Node35 -->
<g id="edge50" class="edge"><title>Node1&#45;&gt;Node35</title>
<path fill="none" stroke="midnightblue" d="M514.624,-508.894C541.822,-497.813 573.171,-485.041 597.963,-474.941"/>
<polygon fill="midnightblue" stroke="midnightblue" points="599.524,-478.085 607.464,-471.07 596.883,-471.602 599.524,-478.085"/>
</g>
<!-- Node3 -->
<g id="node3" class="node"><title>Node3</title>
<g id="a_node3"><a xlink:href="Delta_8hpp.html" target="_top" xlink:title="Core/Algorithm/Delta\l/Delta.hpp">
<polygon fill="white" stroke="black" points="86,-305 86,-335 194,-335 194,-305 86,-305"/>
<text text-anchor="start" x="94" y="-323" font-family="Helvetica,sans-Serif" font-size="10.00">Core/Algorithm/Delta</text>
<text text-anchor="middle" x="140" y="-312" font-family="Helvetica,sans-Serif" font-size="10.00">/Delta.hpp</text>
</a>
</g>
</g>
<!-- Node2&#45;&gt;Node3 -->
<g id="edge2" class="edge"><title>Node2&#45;&gt;Node3</title>
<path fill="none" stroke="midnightblue" d="M460.364,-440.913C394.696,-416.333 259.337,-365.668 187.386,-338.737"/>
<polygon fill="midnightblue" stroke="midnightblue" points="188.261,-335.327 177.669,-335.099 185.807,-341.883 188.261,-335.327"/>
</g>
<!-- Node6 -->
<g id="node6" class="node"><title>Node6</title>
<g id="a_node6"><a xlink:href="LinearAlgebra_8hpp.html" target="_top" xlink:title="Core/Math/LinearAlgebra.hpp">
<polygon fill="white" stroke="black" points="607.5,-242.5 607.5,-261.5 750.5,-261.5 750.5,-242.5 607.5,-242.5"/>
<text text-anchor="middle" x="679" y="-249.5" font-family="Helvetica,sans-Serif" font-size="10.00">Core/Math/LinearAlgebra.hpp</text>
</a>
</g>
</g>
<!-- Node2&#45;&gt;Node6 -->
<g id="edge48" class="edge"><title>Node2&#45;&gt;Node6</title>
<path fill="none" stroke="midnightblue" d="M525.555,-440.889C541.703,-431.769 561.838,-418.849 577,-404 619.256,-362.616 654.193,-301.143 669.965,-270.995"/>
<polygon fill="midnightblue" stroke="midnightblue" points="673.272,-272.217 674.725,-261.722 667.044,-269.02 673.272,-272.217"/>
</g>
<!-- Node24 -->
<g id="node24" class="node"><title>Node24</title>
<g id="a_node24"><a xlink:href="Adjacency_8hpp.html" target="_top" xlink:title="Core/Geometry/Adjacency\l/Adjacency.hpp">
<polygon fill="white" stroke="black" points="436,-373 436,-403 568,-403 568,-373 436,-373"/>
<text text-anchor="start" x="444" y="-391" font-family="Helvetica,sans-Serif" font-size="10.00">Core/Geometry/Adjacency</text>
<text text-anchor="middle" x="502" y="-380" font-family="Helvetica,sans-Serif" font-size="10.00">/Adjacency.hpp</text>
</a>
</g>
</g>
<!-- Node2&#45;&gt;Node24 -->
<g id="edge26" class="edge"><title>Node2&#45;&gt;Node24</title>
<path fill="none" stroke="midnightblue" d="M498.868,-440.679C499.35,-432.722 499.963,-422.605 500.519,-413.436"/>
<polygon fill="midnightblue" stroke="midnightblue" points="504.022,-413.487 501.134,-403.293 497.035,-413.063 504.022,-413.487"/>
</g>
<!-- Node4 -->
<g id="node4" class="node"><title>Node4</title>
<polygon fill="white" stroke="#bfbfbf" points="28,-242.5 28,-261.5 74,-261.5 74,-242.5 28,-242.5"/>
<text text-anchor="middle" x="51" y="-249.5" font-family="Helvetica,sans-Serif" font-size="10.00">cstdint</text>
</g>
<!-- Node3&#45;&gt;Node4 -->
<g id="edge3" class="edge"><title>Node3&#45;&gt;Node4</title>
<path fill="none" stroke="midnightblue" d="M120.688,-304.679C105.901,-293.713 85.5819,-278.645 70.6994,-267.609"/>
<polygon fill="midnightblue" stroke="midnightblue" points="72.7653,-264.783 62.648,-261.638 68.5956,-270.406 72.7653,-264.783"/>
</g>
<!-- Node5 -->
<g id="node5" class="node"><title>Node5</title>
<polygon fill="white" stroke="#bfbfbf" points="297,-174.5 297,-193.5 341,-193.5 341,-174.5 297,-174.5"/>
<text text-anchor="middle" x="319" y="-181.5" font-family="Helvetica,sans-Serif" font-size="10.00">vector</text>
</g>
<!-- Node3&#45;&gt;Node5 -->
<g id="edge4" class="edge"><title>Node3&#45;&gt;Node5</title>
<path fill="none" stroke="midnightblue" d="M139.24,-304.735C139.068,-286.472 141.587,-254.931 159,-236 176.376,-217.108 245.542,-200.077 287.034,-191.285"/>
<polygon fill="midnightblue" stroke="midnightblue" points="287.858,-194.688 296.939,-189.231 286.436,-187.834 287.858,-194.688"/>
</g>
<!-- Node3&#45;&gt;Node6 -->
<g id="edge5" class="edge"><title>Node3&#45;&gt;Node6</title>
<path fill="none" stroke="midnightblue" d="M194.167,-306.976C199.836,-305.891 205.526,-304.874 211,-304 345.716,-282.484 503.719,-267.344 597.369,-259.413"/>
<polygon fill="midnightblue" stroke="midnightblue" points="597.674,-262.899 607.346,-258.574 597.088,-255.924 597.674,-262.899"/>
</g>
<!-- Node3&#45;&gt;Node7 -->
<g id="edge25" class="edge"><title>Node3&#45;&gt;Node7</title>
<path fill="none" stroke="midnightblue" d="M137.004,-304.926C134.054,-287.948 131.15,-258.842 140,-236 154.776,-197.864 166.058,-187.516 202,-168 238.338,-148.269 349.27,-134.724 418.031,-127.969"/>
<polygon fill="midnightblue" stroke="midnightblue" points="418.653,-131.426 428.271,-126.983 417.982,-124.458 418.653,-131.426"/>
</g>
<!-- Node6&#45;&gt;Node7 -->
<g id="edge6" class="edge"><title>Node6&#45;&gt;Node7</title>
<path fill="none" stroke="midnightblue" d="M632.907,-242.472C602.116,-235.075 561.93,-221.995 532,-200 510.601,-184.274 493.722,-158.213 484.049,-140.825"/>
<polygon fill="midnightblue" stroke="midnightblue" points="486.997,-138.914 479.207,-131.733 480.819,-142.205 486.997,-138.914"/>
</g>
<!-- Node14 -->
<g id="node14" class="node"><title>Node14</title>
<polygon fill="white" stroke="#bfbfbf" points="541.5,-174.5 541.5,-193.5 606.5,-193.5 606.5,-174.5 541.5,-174.5"/>
<text text-anchor="middle" x="574" y="-181.5" font-family="Helvetica,sans-Serif" font-size="10.00">Eigen/Core</text>
</g>
<!-- Node6&#45;&gt;Node14 -->
<g id="edge13" class="edge"><title>Node6&#45;&gt;Node14</title>
<path fill="none" stroke="midnightblue" d="M665.273,-242.372C647.744,-231.353 617.185,-212.145 596.295,-199.014"/>
<polygon fill="midnightblue" stroke="midnightblue" points="598.059,-195.989 587.73,-193.63 594.334,-201.915 598.059,-195.989"/>
</g>
<!-- Node15 -->
<g id="node15" class="node"><title>Node15</title>
<polygon fill="white" stroke="#bfbfbf" points="624.5,-174.5 624.5,-193.5 711.5,-193.5 711.5,-174.5 624.5,-174.5"/>
<text text-anchor="middle" x="668" y="-181.5" font-family="Helvetica,sans-Serif" font-size="10.00">Eigen/Geometry</text>
</g>
<!-- Node6&#45;&gt;Node15 -->
<g id="edge14" class="edge"><title>Node6&#45;&gt;Node15</title>
<path fill="none" stroke="midnightblue" d="M677.562,-242.372C675.94,-232.643 673.255,-216.528 671.142,-203.85"/>
<polygon fill="midnightblue" stroke="midnightblue" points="674.57,-203.13 669.474,-193.841 667.665,-204.28 674.57,-203.13"/>
</g>
<!-- Node16 -->
<g id="node16" class="node"><title>Node16</title>
<polygon fill="white" stroke="#bfbfbf" points="729.5,-174.5 729.5,-193.5 804.5,-193.5 804.5,-174.5 729.5,-174.5"/>
<text text-anchor="middle" x="767" y="-181.5" font-family="Helvetica,sans-Serif" font-size="10.00">Eigen/Sparse</text>
</g>
<!-- Node6&#45;&gt;Node16 -->
<g id="edge15" class="edge"><title>Node6&#45;&gt;Node16</title>
<path fill="none" stroke="midnightblue" d="M690.504,-242.372C704.866,-231.6 729.664,-213.002 747.125,-199.906"/>
<polygon fill="midnightblue" stroke="midnightblue" points="749.593,-202.431 755.493,-193.63 745.393,-196.83 749.593,-202.431"/>
</g>
<!-- Node17 -->
<g id="node17" class="node"><title>Node17</title>
<polygon fill="white" stroke="#bfbfbf" points="822.5,-174.5 822.5,-193.5 881.5,-193.5 881.5,-174.5 822.5,-174.5"/>
<text text-anchor="middle" x="852" y="-181.5" font-family="Helvetica,sans-Serif" font-size="10.00">functional</text>
</g>
<!-- Node6&#45;&gt;Node17 -->
<g id="edge16" class="edge"><title>Node6&#45;&gt;Node17</title>
<path fill="none" stroke="midnightblue" d="M701.771,-242.361C728.439,-232.238 773.943,-214.943 813,-200 815.371,-199.093 817.823,-198.153 820.289,-197.207"/>
<polygon fill="midnightblue" stroke="midnightblue" points="821.651,-200.433 829.731,-193.58 819.141,-193.899 821.651,-200.433"/>
</g>
<!-- Node18 -->
<g id="node18" class="node"><title>Node18</title>
<polygon fill="white" stroke="#bfbfbf" points="899.5,-169 899.5,-199 1032.5,-199 1032.5,-169 899.5,-169"/>
<text text-anchor="start" x="907.5" y="-187" font-family="Helvetica,sans-Serif" font-size="10.00">unsupported/Eigen/Aligned</text>
<text text-anchor="middle" x="966" y="-176" font-family="Helvetica,sans-Serif" font-size="10.00">Vector3</text>
</g>
<!-- Node6&#45;&gt;Node18 -->
<g id="edge17" class="edge"><title>Node6&#45;&gt;Node18</title>
<path fill="none" stroke="midnightblue" d="M716.226,-242.439C761.368,-232.058 838.43,-214.337 895.048,-201.317"/>
<polygon fill="midnightblue" stroke="midnightblue" points="896.052,-204.677 905.014,-199.025 894.484,-197.855 896.052,-204.677"/>
</g>
<!-- Node19 -->
<g id="node19" class="node"><title>Node19</title>
<g id="a_node19"><a xlink:href="Math_8hpp.html" target="_top" xlink:title="Core/Math/Math.hpp">
<polygon fill="white" stroke="black" points="1244,-174.5 1244,-193.5 1350,-193.5 1350,-174.5 1244,-174.5"/>
<text text-anchor="middle" x="1297" y="-181.5" font-family="Helvetica,sans-Serif" font-size="10.00">Core/Math/Math.hpp</text>
</a>
</g>
</g>
<!-- Node6&#45;&gt;Node19 -->
<g id="edge18" class="edge"><title>Node6&#45;&gt;Node19</title>
<path fill="none" stroke="midnightblue" d="M750.628,-245.054C850.54,-236.505 1037.34,-219.595 1196,-200 1208.29,-198.483 1221.38,-196.677 1233.94,-194.853"/>
<polygon fill="midnightblue" stroke="midnightblue" points="1234.48,-198.311 1243.86,-193.392 1233.46,-191.386 1234.48,-198.311"/>
</g>
<!-- Node23 -->
<g id="node23" class="node"><title>Node23</title>
<g id="a_node23"><a xlink:href="LinearAlgebra_8inl.html" target="_top" xlink:title="Core/Math/LinearAlgebra.inl">
<polygon fill="white" stroke="black" points="1050.5,-174.5 1050.5,-193.5 1187.5,-193.5 1187.5,-174.5 1050.5,-174.5"/>
<text text-anchor="middle" x="1119" y="-181.5" font-family="Helvetica,sans-Serif" font-size="10.00">Core/Math/LinearAlgebra.inl</text>
</a>
</g>
</g>
<!-- Node6&#45;&gt;Node23 -->
<g id="edge24" class="edge"><title>Node6&#45;&gt;Node23</title>
<path fill="none" stroke="midnightblue" d="M746.874,-242.468C819.732,-233.069 938.796,-217.016 1041,-200 1049.31,-198.616 1058.1,-197.039 1066.66,-195.439"/>
<polygon fill="midnightblue" stroke="midnightblue" points="1067.39,-198.862 1076.56,-193.56 1066.09,-191.985 1067.39,-198.862"/>
</g>
<!-- Node8 -->
<g id="node8" class="node"><title>Node8</title>
<g id="a_node8"><a xlink:href="CoreMacros_8hpp.html" target="_top" xlink:title="Core/CoreMacros.hpp">
<polygon fill="white" stroke="black" points="418.5,-56.5 418.5,-75.5 531.5,-75.5 531.5,-56.5 418.5,-56.5"/>
<text text-anchor="middle" x="475" y="-63.5" font-family="Helvetica,sans-Serif" font-size="10.00">Core/CoreMacros.hpp</text>
</a>
</g>
</g>
<!-- Node7&#45;&gt;Node8 -->
<g id="edge7" class="edge"><title>Node7&#45;&gt;Node8</title>
<path fill="none" stroke="midnightblue" d="M475,-112.083C475,-105.006 475,-94.8611 475,-85.9865"/>
<polygon fill="midnightblue" stroke="midnightblue" points="478.5,-85.751 475,-75.7511 471.5,-85.7511 478.5,-85.751"/>
</g>
<!-- Node9 -->
<g id="node9" class="node"><title>Node9</title>
<polygon fill="white" stroke="#bfbfbf" points="319.5,-0.5 319.5,-19.5 368.5,-19.5 368.5,-0.5 319.5,-0.5"/>
<text text-anchor="middle" x="344" y="-7.5" font-family="Helvetica,sans-Serif" font-size="10.00">cassert</text>
</g>
<!-- Node8&#45;&gt;Node9 -->
<g id="edge8" class="edge"><title>Node8&#45;&gt;Node9</title>
<path fill="none" stroke="midnightblue" d="M454.243,-56.4435C432.684,-47.5566 398.737,-33.5632 374.206,-23.4514"/>
<polygon fill="midnightblue" stroke="midnightblue" points="375.239,-20.0917 364.66,-19.5164 372.572,-26.5634 375.239,-20.0917"/>
</g>
<!-- Node10 -->
<g id="node10" class="node"><title>Node10</title>
<polygon fill="white" stroke="#bfbfbf" points="386.5,-0.5 386.5,-19.5 429.5,-19.5 429.5,-0.5 386.5,-0.5"/>
<text text-anchor="middle" x="408" y="-7.5" font-family="Helvetica,sans-Serif" font-size="10.00">cstdio</text>
</g>
<!-- Node8&#45;&gt;Node10 -->
<g id="edge9" class="edge"><title>Node8&#45;&gt;Node10</title>
<path fill="none" stroke="midnightblue" d="M464.235,-56.324C454.234,-48.2631 439.113,-36.0765 427.07,-26.3695"/>
<polygon fill="midnightblue" stroke="midnightblue" points="428.943,-23.3841 418.961,-19.8339 424.55,-28.8343 428.943,-23.3841"/>
</g>
<!-- Node11 -->
<g id="node11" class="node"><title>Node11</title>
<polygon fill="white" stroke="#bfbfbf" points="448,-0.5 448,-19.5 502,-19.5 502,-0.5 448,-0.5"/>
<text text-anchor="middle" x="475" y="-7.5" font-family="Helvetica,sans-Serif" font-size="10.00">iostream</text>
</g>
<!-- Node8&#45;&gt;Node11 -->
<g id="edge10" class="edge"><title>Node8&#45;&gt;Node11</title>
<path fill="none" stroke="midnightblue" d="M475,-56.083C475,-49.0059 475,-38.8611 475,-29.9865"/>
<polygon fill="midnightblue" stroke="midnightblue" points="478.5,-29.751 475,-19.7511 471.5,-29.7511 478.5,-29.751"/>
</g>
<!-- Node12 -->
<g id="node12" class="node"><title>Node12</title>
<polygon fill="white" stroke="#bfbfbf" points="520,-0.5 520,-19.5 572,-19.5 572,-0.5 520,-0.5"/>
<text text-anchor="middle" x="546" y="-7.5" font-family="Helvetica,sans-Serif" font-size="10.00">sstream</text>
</g>
<!-- Node8&#45;&gt;Node12 -->
<g id="edge11" class="edge"><title>Node8&#45;&gt;Node12</title>
<path fill="none" stroke="midnightblue" d="M486.407,-56.324C497.109,-48.1849 513.341,-35.8395 526.163,-26.0874"/>
<polygon fill="midnightblue" stroke="midnightblue" points="528.544,-28.6734 534.385,-19.8339 524.307,-23.1018 528.544,-28.6734"/>
</g>
<!-- Node13 -->
<g id="node13" class="node"><title>Node13</title>
<polygon fill="white" stroke="#bfbfbf" points="590,-0.5 590,-19.5 634,-19.5 634,-0.5 590,-0.5"/>
<text text-anchor="middle" x="612" y="-7.5" font-family="Helvetica,sans-Serif" font-size="10.00">thread</text>
</g>
<!-- Node8&#45;&gt;Node13 -->
<g id="edge12" class="edge"><title>Node8&#45;&gt;Node13</title>
<path fill="none" stroke="midnightblue" d="M496.708,-56.4435C519.355,-47.5171 555.072,-33.4387 580.752,-23.3168"/>
<polygon fill="midnightblue" stroke="midnightblue" points="582.374,-26.4397 590.394,-19.5164 579.807,-19.9273 582.374,-26.4397"/>
</g>
<!-- Node19&#45;&gt;Node7 -->
<g id="edge19" class="edge"><title>Node19&#45;&gt;Node7</title>
<path fill="none" stroke="midnightblue" d="M1263.8,-174.459C1253.08,-172 1241.1,-169.562 1230,-168 971.051,-131.537 658.08,-124.573 531.85,-123.277"/>
<polygon fill="midnightblue" stroke="midnightblue" points="531.684,-119.776 521.652,-123.181 531.618,-126.776 531.684,-119.776"/>
</g>
<!-- Node20 -->
<g id="node20" class="node"><title>Node20</title>
<polygon fill="white" stroke="#bfbfbf" points="1365,-112.5 1365,-131.5 1421,-131.5 1421,-112.5 1365,-112.5"/>
<text text-anchor="middle" x="1393" y="-119.5" font-family="Helvetica,sans-Serif" font-size="10.00">algorithm</text>
</g>
<!-- Node19&#45;&gt;Node20 -->
<g id="edge20" class="edge"><title>Node19&#45;&gt;Node20</title>
<path fill="none" stroke="midnightblue" d="M1310.75,-174.403C1326.37,-164.646 1352.06,-148.585 1370.58,-137.011"/>
<polygon fill="midnightblue" stroke="midnightblue" points="1372.65,-139.849 1379.27,-131.581 1368.94,-133.913 1372.65,-139.849"/>
</g>
<!-- Node21 -->
<g id="node21" class="node"><title>Node21</title>
<polygon fill="white" stroke="#bfbfbf" points="1185,-112.5 1185,-131.5 1229,-131.5 1229,-112.5 1185,-112.5"/>
<text text-anchor="middle" x="1207" y="-119.5" font-family="Helvetica,sans-Serif" font-size="10.00">cmath</text>
</g>
<!-- Node19&#45;&gt;Node21 -->
<g id="edge21" class="edge"><title>Node19&#45;&gt;Node21</title>
<path fill="none" stroke="midnightblue" d="M1284.11,-174.403C1269.54,-164.691 1245.6,-148.732 1228.25,-137.17"/>
<polygon fill="midnightblue" stroke="midnightblue" points="1230.13,-134.215 1219.87,-131.581 1226.25,-140.04 1230.13,-134.215"/>
</g>
<!-- Node22 -->
<g id="node22" class="node"><title>Node22</title>
<g id="a_node22"><a xlink:href="Math_8inl.html" target="_top" xlink:title="Core/Math/Math.inl">
<polygon fill="white" stroke="black" points="1247,-112.5 1247,-131.5 1347,-131.5 1347,-112.5 1247,-112.5"/>
<text text-anchor="middle" x="1297" y="-119.5" font-family="Helvetica,sans-Serif" font-size="10.00">Core/Math/Math.inl</text>
</a>
</g>
</g>
<!-- Node19&#45;&gt;Node22 -->
<g id="edge22" class="edge"><title>Node19&#45;&gt;Node22</title>
<path fill="none" stroke="midnightblue" d="M1292.1,-174.403C1290.27,-165.938 1289.8,-152.728 1290.69,-141.82"/>
<polygon fill="midnightblue" stroke="midnightblue" points="1294.2,-141.966 1292.1,-131.581 1287.26,-141.006 1294.2,-141.966"/>
</g>
<!-- Node22&#45;&gt;Node19 -->
<g id="edge23" class="edge"><title>Node22&#45;&gt;Node19</title>
<path fill="none" stroke="midnightblue" d="M1301.9,-131.581C1303.73,-140.04 1304.2,-153.248 1303.32,-164.16"/>
<polygon fill="midnightblue" stroke="midnightblue" points="1299.8,-164.018 1301.9,-174.403 1306.74,-164.977 1299.8,-164.018"/>
</g>
<!-- Node24&#45;&gt;Node6 -->
<g id="edge36" class="edge"><title>Node24&#45;&gt;Node6</title>
<path fill="none" stroke="midnightblue" d="M528.502,-372.854C545.71,-363.249 568.327,-349.823 587,-336 615.638,-314.801 645.731,-286.289 663.407,-268.801"/>
<polygon fill="midnightblue" stroke="midnightblue" points="666.006,-271.152 670.606,-261.608 661.058,-266.201 666.006,-271.152"/>
</g>
<!-- Node25 -->
<g id="node25" class="node"><title>Node25</title>
<g id="a_node25"><a xlink:href="AlignedStdVector_8hpp.html" target="_top" xlink:title="Core/Containers/AlignedStd\lVector.hpp">
<polygon fill="white" stroke="black" points="326,-237 326,-267 464,-267 464,-237 326,-237"/>
<text text-anchor="start" x="334" y="-255" font-family="Helvetica,sans-Serif" font-size="10.00">Core/Containers/AlignedStd</text>
<text text-anchor="middle" x="395" y="-244" font-family="Helvetica,sans-Serif" font-size="10.00">Vector.hpp</text>
</a>
</g>
</g>
<!-- Node24&#45;&gt;Node25 -->
<g id="edge27" class="edge"><title>Node24&#45;&gt;Node25</title>
<path fill="none" stroke="midnightblue" d="M457.614,-372.871C439.48,-364.876 419.99,-352.99 408,-336 395.952,-318.927 393.317,-294.969 393.334,-277.179"/>
<polygon fill="midnightblue" stroke="midnightblue" points="396.837,-277.112 393.626,-267.015 389.84,-276.911 396.837,-277.112"/>
</g>
<!-- Node24&#45;&gt;Node27 -->
<g id="edge31" class="edge"><title>Node24&#45;&gt;Node27</title>
<path fill="none" stroke="midnightblue" d="M501.132,-372.679C500.552,-363.101 499.781,-350.394 499.15,-339.977"/>
<polygon fill="midnightblue" stroke="midnightblue" points="502.634,-339.598 498.535,-329.828 495.647,-340.022 502.634,-339.598"/>
</g>
<!-- Node28 -->
<g id="node28" class="node"><title>Node28</title>
<g id="a_node28"><a xlink:href="MeshTypes_8hpp.html" target="_top" xlink:title="Core/Mesh/MeshTypes.hpp">
<polygon fill="white" stroke="black" points="711.5,-310.5 711.5,-329.5 848.5,-329.5 848.5,-310.5 711.5,-310.5"/>
<text text-anchor="middle" x="780" y="-317.5" font-family="Helvetica,sans-Serif" font-size="10.00">Core/Mesh/MeshTypes.hpp</text>
</a>
</g>
</g>
<!-- Node24&#45;&gt;Node28 -->
<g id="edge37" class="edge"><title>Node24&#45;&gt;Node28</title>
<path fill="none" stroke="midnightblue" d="M561.297,-372.922C612.997,-360.648 686.916,-343.099 734.184,-331.877"/>
<polygon fill="midnightblue" stroke="midnightblue" points="735.218,-335.229 744.139,-329.514 733.601,-328.418 735.218,-335.229"/>
</g>
<!-- Node32 -->
<g id="node32" class="node"><title>Node32</title>
<g id="a_node32"><a xlink:href="AdjacencyList_8hpp.html" target="_top" xlink:title="Core/Utils/Graph/Adjacency\lList.hpp">
<polygon fill="white" stroke="black" points="220.5,-305 220.5,-335 359.5,-335 359.5,-305 220.5,-305"/>
<text text-anchor="start" x="228.5" y="-323" font-family="Helvetica,sans-Serif" font-size="10.00">Core/Utils/Graph/Adjacency</text>
<text text-anchor="middle" x="290" y="-312" font-family="Helvetica,sans-Serif" font-size="10.00">List.hpp</text>
</a>
</g>
</g>
<!-- Node24&#45;&gt;Node32 -->
<g id="edge43" class="edge"><title>Node24&#45;&gt;Node32</title>
<path fill="none" stroke="midnightblue" d="M456.781,-372.922C424.13,-362.757 379.859,-348.975 345.134,-338.164"/>
<polygon fill="midnightblue" stroke="midnightblue" points="345.738,-334.687 335.15,-335.056 343.657,-341.37 345.738,-334.687"/>
</g>
<!-- Node25&#45;&gt;Node5 -->
<g id="edge30" class="edge"><title>Node25&#45;&gt;Node5</title>
<path fill="none" stroke="midnightblue" d="M378.509,-236.679C366.19,-225.981 349.373,-211.377 336.759,-200.422"/>
<polygon fill="midnightblue" stroke="midnightblue" points="339.011,-197.743 329.166,-193.828 334.421,-203.028 339.011,-197.743"/>
</g>
<!-- Node25&#45;&gt;Node7 -->
<g id="edge28" class="edge"><title>Node25&#45;&gt;Node7</title>
<path fill="none" stroke="midnightblue" d="M337.305,-236.995C318.277,-229.337 299.148,-217.663 288,-200 280.409,-187.973 279.198,-179.171 288,-168 304.014,-147.676 369.171,-135.467 418.102,-128.997"/>
<polygon fill="midnightblue" stroke="midnightblue" points="418.795,-132.437 428.274,-127.703 417.912,-125.493 418.795,-132.437"/>
</g>
<!-- Node26 -->
<g id="node26" class="node"><title>Node26</title>
<polygon fill="white" stroke="#bfbfbf" points="359,-174.5 359,-193.5 447,-193.5 447,-174.5 359,-174.5"/>
<text text-anchor="middle" x="403" y="-181.5" font-family="Helvetica,sans-Serif" font-size="10.00">Eigen/StdVector</text>
</g>
<!-- Node25&#45;&gt;Node26 -->
<g id="edge29" class="edge"><title>Node25&#45;&gt;Node26</title>
<path fill="none" stroke="midnightblue" d="M396.736,-236.679C397.897,-227.101 399.437,-214.394 400.7,-203.977"/>
<polygon fill="midnightblue" stroke="midnightblue" points="404.201,-204.177 401.93,-193.828 397.252,-203.334 404.201,-204.177"/>
</g>
<!-- Node27&#45;&gt;Node5 -->
<g id="edge35" class="edge"><title>Node27&#45;&gt;Node5</title>
<path fill="none" stroke="midnightblue" d="M497.958,-310.371C497.396,-293.626 493.725,-256.563 473,-236 432.566,-195.881 403.153,-220.475 350,-200 348.351,-199.365 346.669,-198.676 344.984,-197.955"/>
<polygon fill="midnightblue" stroke="midnightblue" points="346.057,-194.596 335.507,-193.614 343.141,-200.961 346.057,-194.596"/>
</g>
<!-- Node27&#45;&gt;Node6 -->
<g id="edge33" class="edge"><title>Node27&#45;&gt;Node6</title>
<path fill="none" stroke="midnightblue" d="M521.663,-310.372C553.458,-298.778 610.121,-278.116 646.067,-265.009"/>
<polygon fill="midnightblue" stroke="midnightblue" points="647.423,-268.24 655.618,-261.526 645.024,-261.663 647.423,-268.24"/>
</g>
<!-- Node27&#45;&gt;Node7 -->
<g id="edge34" class="edge"><title>Node27&#45;&gt;Node7</title>
<path fill="none" stroke="midnightblue" d="M498.247,-310.247C498.572,-295.081 498.811,-262.952 496,-236 492.494,-202.384 484.434,-163.783 479.381,-141.51"/>
<polygon fill="midnightblue" stroke="midnightblue" points="482.78,-140.674 477.114,-131.722 475.961,-142.253 482.78,-140.674"/>
</g>
<!-- Node27&#45;&gt;Node25 -->
<g id="edge32" class="edge"><title>Node27&#45;&gt;Node25</title>
<path fill="none" stroke="midnightblue" d="M484.535,-310.372C469.686,-300.857 445.307,-285.236 425.735,-272.694"/>
<polygon fill="midnightblue" stroke="midnightblue" points="427.44,-269.63 417.132,-267.181 423.663,-275.524 427.44,-269.63"/>
</g>
<!-- Node28&#45;&gt;Node6 -->
<g id="edge41" class="edge"><title>Node28&#45;&gt;Node6</title>
<path fill="none" stroke="midnightblue" d="M766.796,-310.372C750.01,-299.403 720.803,-280.317 700.717,-267.191"/>
<polygon fill="midnightblue" stroke="midnightblue" points="702.493,-264.171 692.207,-261.63 698.664,-270.031 702.493,-264.171"/>
</g>
<!-- Node28&#45;&gt;Node7 -->
<g id="edge42" class="edge"><title>Node28&#45;&gt;Node7</title>
<path fill="none" stroke="midnightblue" d="M848.527,-316.434C991.636,-308.828 1300.63,-279.361 1196,-168 1173.34,-143.883 697.873,-128.943 531.712,-124.443"/>
<polygon fill="midnightblue" stroke="midnightblue" points="531.78,-120.943 521.689,-124.174 531.592,-127.941 531.78,-120.943"/>
</g>
<!-- Node29 -->
<g id="node29" class="node"><title>Node29</title>
<g id="a_node29"><a xlink:href="Index_8hpp.html" target="_top" xlink:title="Core/Index/Index.hpp">
<polygon fill="white" stroke="black" points="1365,-242.5 1365,-261.5 1475,-261.5 1475,-242.5 1365,-242.5"/>
<text text-anchor="middle" x="1420" y="-249.5" font-family="Helvetica,sans-Serif" font-size="10.00">Core/Index/Index.hpp</text>
</a>
</g>
</g>
<!-- Node28&#45;&gt;Node29 -->
<g id="edge38" class="edge"><title>Node28&#45;&gt;Node29</title>
<path fill="none" stroke="midnightblue" d="M848.795,-311.906C972.864,-299.111 1232.49,-272.337 1354.28,-259.777"/>
<polygon fill="midnightblue" stroke="midnightblue" points="1354.98,-263.224 1364.57,-258.716 1354.26,-256.261 1354.98,-263.224"/>
</g>
<!-- Node30 -->
<g id="node30" class="node"><title>Node30</title>
<polygon fill="white" stroke="#bfbfbf" points="1490,-174.5 1490,-193.5 1530,-193.5 1530,-174.5 1490,-174.5"/>
<text text-anchor="middle" x="1510" y="-181.5" font-family="Helvetica,sans-Serif" font-size="10.00">limits</text>
</g>
<!-- Node29&#45;&gt;Node30 -->
<g id="edge39" class="edge"><title>Node29&#45;&gt;Node30</title>
<path fill="none" stroke="midnightblue" d="M1431.77,-242.372C1446.59,-231.502 1472.28,-212.66 1490.16,-199.547"/>
<polygon fill="midnightblue" stroke="midnightblue" points="1492.24,-202.367 1498.23,-193.63 1488.1,-196.722 1492.24,-202.367"/>
</g>
<!-- Node31 -->
<g id="node31" class="node"><title>Node31</title>
<g id="a_node31"><a xlink:href="Index_8inl.html" target="_top" xlink:title="Core/Index/Index.inl">
<polygon fill="white" stroke="black" points="1368,-174.5 1368,-193.5 1472,-193.5 1472,-174.5 1368,-174.5"/>
<text text-anchor="middle" x="1420" y="-181.5" font-family="Helvetica,sans-Serif" font-size="10.00">Core/Index/Index.inl</text>
</a>
</g>
</g>
<!-- Node29&#45;&gt;Node31 -->
<g id="edge40" class="edge"><title>Node29&#45;&gt;Node31</title>
<path fill="none" stroke="midnightblue" d="M1420,-242.372C1420,-232.643 1420,-216.528 1420,-203.85"/>
<polygon fill="midnightblue" stroke="midnightblue" points="1423.5,-203.841 1420,-193.841 1416.5,-203.841 1423.5,-203.841"/>
</g>
<!-- Node32&#45;&gt;Node25 -->
<g id="edge44" class="edge"><title>Node32&#45;&gt;Node25</title>
<path fill="none" stroke="midnightblue" d="M312.525,-304.841C327.473,-295.446 347.296,-282.985 363.762,-272.635"/>
<polygon fill="midnightblue" stroke="midnightblue" points="365.908,-275.42 372.512,-267.135 362.183,-269.494 365.908,-275.42"/>
</g>
<!-- Node33 -->
<g id="node33" class="node"><title>Node33</title>
<g id="a_node33"><a xlink:href="AdjacencyList_8inl.html" target="_top" xlink:title="Core/Utils/Graph/Adjacency\lList.inl">
<polygon fill="white" stroke="black" points="168.5,-237 168.5,-267 307.5,-267 307.5,-237 168.5,-237"/>
<text text-anchor="start" x="176.5" y="-255" font-family="Helvetica,sans-Serif" font-size="10.00">Core/Utils/Graph/Adjacency</text>
<text text-anchor="middle" x="238" y="-244" font-family="Helvetica,sans-Serif" font-size="10.00">List.inl</text>
</a>
</g>
</g>
<!-- Node32&#45;&gt;Node33 -->
<g id="edge45" class="edge"><title>Node32&#45;&gt;Node33</title>
<path fill="none" stroke="midnightblue" d="M273.038,-304.679C265.266,-296.203 256.401,-285.276 249.403,-275.655"/>
<polygon fill="midnightblue" stroke="midnightblue" points="252.17,-273.503 243.586,-267.293 246.424,-277.501 252.17,-273.503"/>
</g>
<!-- Node33&#45;&gt;Node32 -->
<g id="edge46" class="edge"><title>Node33&#45;&gt;Node32</title>
<path fill="none" stroke="midnightblue" d="M254.936,-267.293C262.706,-275.763 271.572,-286.689 278.574,-296.314"/>
<polygon fill="midnightblue" stroke="midnightblue" points="275.81,-298.47 284.395,-304.679 281.556,-294.472 275.81,-298.47"/>
</g>
<!-- Node34 -->
<g id="node34" class="node"><title>Node34</title>
<polygon fill="white" stroke="#bfbfbf" points="211,-174.5 211,-193.5 241,-193.5 241,-174.5 211,-174.5"/>
<text text-anchor="middle" x="226" y="-181.5" font-family="Helvetica,sans-Serif" font-size="10.00">set</text>
</g>
<!-- Node33&#45;&gt;Node34 -->
<g id="edge47" class="edge"><title>Node33&#45;&gt;Node34</title>
<path fill="none" stroke="midnightblue" d="M235.396,-236.679C233.655,-227.101 231.344,-214.394 229.45,-203.977"/>
<polygon fill="midnightblue" stroke="midnightblue" points="232.838,-203.041 227.605,-193.828 225.951,-204.293 232.838,-203.041"/>
</g>
<!-- Node35&#45;&gt;Node6 -->
<g id="edge52" class="edge"><title>Node35&#45;&gt;Node6</title>
<path fill="none" stroke="midnightblue" d="M647.499,-440.918C651.254,-430.791 656.063,-416.732 659,-404 669.814,-357.12 675.359,-300.609 677.662,-271.833"/>
<polygon fill="midnightblue" stroke="midnightblue" points="681.171,-271.852 678.435,-261.616 674.19,-271.324 681.171,-271.852"/>
</g>
<!-- Node35&#45;&gt;Node24 -->
<g id="edge54" class="edge"><title>Node35&#45;&gt;Node24</title>
<path fill="none" stroke="midnightblue" d="M611.966,-440.841C591.298,-431.098 563.638,-418.058 541.23,-407.494"/>
<polygon fill="midnightblue" stroke="midnightblue" points="542.522,-404.234 531.984,-403.135 539.537,-410.565 542.522,-404.234"/>
</g>
<!-- Node35&#45;&gt;Node27 -->
<g id="edge51" class="edge"><title>Node35&#45;&gt;Node27</title>
<path fill="none" stroke="midnightblue" d="M633.108,-440.911C621.6,-423.395 600.251,-393.223 577,-372 560.773,-357.188 539.773,-343.854 523.504,-334.538"/>
<polygon fill="midnightblue" stroke="midnightblue" points="524.981,-331.355 514.543,-329.537 521.569,-337.467 524.981,-331.355"/>
</g>
<!-- Node35&#45;&gt;Node28 -->
<g id="edge53" class="edge"><title>Node35&#45;&gt;Node28</title>
<path fill="none" stroke="midnightblue" d="M657.555,-440.865C668.65,-430.713 683.868,-416.646 697,-404 720.716,-381.162 747.555,-354.092 764.13,-337.228"/>
<polygon fill="midnightblue" stroke="midnightblue" points="766.88,-339.423 771.384,-329.832 761.883,-334.521 766.88,-339.423"/>
</g>
</g>
</svg>
