<?xml version="1.0" encoding="UTF-8" standalone="no"?>
<!DOCTYPE svg PUBLIC "-//W3C//DTD SVG 1.1//EN"
 "http://www.w3.org/Graphics/SVG/1.1/DTD/svg11.dtd">
<!-- Generated by graphviz version 2.36.0 (20140111.2315)
 -->
<!-- Title: /home/travis/build/STORM&#45;IRIT/Radium&#45;Engine/src/Core/File/LightData.inl Pages: 1 -->
<svg width="2726pt" height="464pt"
 viewBox="0.00 0.00 2726.00 464.00" xmlns="http://www.w3.org/2000/svg" xmlns:xlink="http://www.w3.org/1999/xlink">
<g id="graph0" class="graph" transform="scale(1 1) rotate(0) translate(4 460)">
<title>/home/travis/build/STORM&#45;IRIT/Radium&#45;Engine/src/Core/File/LightData.inl</title>
<polygon fill="white" stroke="none" points="-4,4 -4,-460 2722,-460 2722,4 -4,4"/>
<!-- Node1 -->
<g id="node1" class="node"><title>Node1</title>
<polygon fill="#bfbfbf" stroke="black" points="1465,-414.5 1465,-455.5 1613,-455.5 1613,-414.5 1465,-414.5"/>
<text text-anchor="start" x="1473" y="-443.5" font-family="Helvetica,sans-Serif" font-size="10.00">/home/travis/build</text>
<text text-anchor="start" x="1473" y="-432.5" font-family="Helvetica,sans-Serif" font-size="10.00">/STORM&#45;IRIT/Radium&#45;Engine</text>
<text text-anchor="middle" x="1539" y="-421.5" font-family="Helvetica,sans-Serif" font-size="10.00">/src/Core/File/LightData.inl</text>
</g>
<!-- Node2 -->
<g id="node2" class="node"><title>Node2</title>
<g id="a_node2"><a xlink:href="LightData_8hpp.html" target="_top" xlink:title="/home/travis/build\l/STORM&#45;IRIT/Radium&#45;Engine\l/src/Core/File/LightData.hpp">
<polygon fill="white" stroke="black" points="1465,-336.5 1465,-377.5 1613,-377.5 1613,-336.5 1465,-336.5"/>
<text text-anchor="start" x="1473" y="-365.5" font-family="Helvetica,sans-Serif" font-size="10.00">/home/travis/build</text>
<text text-anchor="start" x="1473" y="-354.5" font-family="Helvetica,sans-Serif" font-size="10.00">/STORM&#45;IRIT/Radium&#45;Engine</text>
<text text-anchor="middle" x="1539" y="-343.5" font-family="Helvetica,sans-Serif" font-size="10.00">/src/Core/File/LightData.hpp</text>
</a>
</g>
</g>
<!-- Node1&#45;&gt;Node2 -->
<g id="edge1" class="edge"><title>Node1&#45;&gt;Node2</title>
<path fill="none" stroke="midnightblue" d="M1532.4,-404.297C1532.08,-395.301 1532.28,-385.653 1533.02,-377.506"/>
<polygon fill="midnightblue" stroke="midnightblue" points="1528.91,-404.659 1533.01,-414.428 1535.9,-404.234 1528.91,-404.659"/>
</g>
<!-- Node2&#45;&gt;Node1 -->
<g id="edge20" class="edge"><title>Node2&#45;&gt;Node1</title>
<path fill="none" stroke="midnightblue" d="M1545.6,-387.63C1545.92,-396.622 1545.72,-406.272 1544.99,-414.428"/>
<polygon fill="midnightblue" stroke="midnightblue" points="1549.09,-387.273 1544.98,-377.506 1542.1,-387.701 1549.09,-387.273"/>
</g>
<!-- Node3 -->
<g id="node3" class="node"><title>Node3</title>
<g id="a_node3"><a xlink:href="FileData_8inl.html" target="_top" xlink:title="/home/travis/build\l/STORM&#45;IRIT/Radium&#45;Engine\l/src/Core/File/FileData.inl">
<polygon fill="white" stroke="black" points="1299,-252.5 1299,-293.5 1447,-293.5 1447,-252.5 1299,-252.5"/>
<text text-anchor="start" x="1307" y="-281.5" font-family="Helvetica,sans-Serif" font-size="10.00">/home/travis/build</text>
<text text-anchor="start" x="1307" y="-270.5" font-family="Helvetica,sans-Serif" font-size="10.00">/STORM&#45;IRIT/Radium&#45;Engine</text>
<text text-anchor="middle" x="1373" y="-259.5" font-family="Helvetica,sans-Serif" font-size="10.00">/src/Core/File/FileData.inl</text>
</a>
</g>
</g>
<!-- Node2&#45;&gt;Node3 -->
<g id="edge2" class="edge"><title>Node2&#45;&gt;Node3</title>
<path fill="none" stroke="midnightblue" d="M1490.06,-331.823C1465.42,-319.652 1435.94,-305.089 1412.72,-293.623"/>
<polygon fill="midnightblue" stroke="midnightblue" points="1488.72,-335.068 1499.24,-336.359 1491.82,-328.792 1488.72,-335.068"/>
</g>
<!-- Node20 -->
<g id="node20" class="node"><title>Node20</title>
<g id="a_node20"><a xlink:href="LightData_8cpp.html" target="_top" xlink:title="/home/travis/build\l/STORM&#45;IRIT/Radium&#45;Engine\l/src/Core/File/LightData.cpp">
<polygon fill="white" stroke="black" points="1465,-252.5 1465,-293.5 1613,-293.5 1613,-252.5 1465,-252.5"/>
<text text-anchor="start" x="1473" y="-281.5" font-family="Helvetica,sans-Serif" font-size="10.00">/home/travis/build</text>
<text text-anchor="start" x="1473" y="-270.5" font-family="Helvetica,sans-Serif" font-size="10.00">/STORM&#45;IRIT/Radium&#45;Engine</text>
<text text-anchor="middle" x="1539" y="-259.5" font-family="Helvetica,sans-Serif" font-size="10.00">/src/Core/File/LightData.cpp</text>
</a>
</g>
</g>
<!-- Node2&#45;&gt;Node20 -->
<g id="edge19" class="edge"><title>Node2&#45;&gt;Node20</title>
<path fill="none" stroke="midnightblue" d="M1539,-325.881C1539,-315.133 1539,-303.309 1539,-293.667"/>
<polygon fill="midnightblue" stroke="midnightblue" points="1535.5,-326.15 1539,-336.15 1542.5,-326.15 1535.5,-326.15"/>
</g>
<!-- Node21 -->
<g id="node21" class="node"><title>Node21</title>
<g id="a_node21"><a xlink:href="AssimpLightDataLoader_8cpp.html" target="_top" xlink:title="/home/travis/build\l/STORM&#45;IRIT/Radium&#45;Engine\l/src/IO/AssimpLoader/AssimpLight\lDataLoader.cpp">
<polygon fill="white" stroke="black" points="1631.5,-247 1631.5,-299 1800.5,-299 1800.5,-247 1631.5,-247"/>
<text text-anchor="start" x="1639.5" y="-287" font-family="Helvetica,sans-Serif" font-size="10.00">/home/travis/build</text>
<text text-anchor="start" x="1639.5" y="-276" font-family="Helvetica,sans-Serif" font-size="10.00">/STORM&#45;IRIT/Radium&#45;Engine</text>
<text text-anchor="start" x="1639.5" y="-265" font-family="Helvetica,sans-Serif" font-size="10.00">/src/IO/AssimpLoader/AssimpLight</text>
<text text-anchor="middle" x="1716" y="-254" font-family="Helvetica,sans-Serif" font-size="10.00">DataLoader.cpp</text>
</a>
</g>
</g>
<!-- Node2&#45;&gt;Node21 -->
<g id="edge21" class="edge"><title>Node2&#45;&gt;Node21</title>
<path fill="none" stroke="midnightblue" d="M1590.72,-332.038C1613.08,-321.68 1639.25,-309.557 1661.87,-299.078"/>
<polygon fill="midnightblue" stroke="midnightblue" points="1589,-328.98 1581.4,-336.359 1591.94,-335.331 1589,-328.98"/>
</g>
<!-- Node4 -->
<g id="node4" class="node"><title>Node4</title>
<g id="a_node4"><a xlink:href="FileData_8hpp.html" target="_top" xlink:title="/home/travis/build\l/STORM&#45;IRIT/Radium&#45;Engine\l/src/Core/File/FileData.hpp">
<polygon fill="white" stroke="black" points="1299,-168.5 1299,-209.5 1447,-209.5 1447,-168.5 1299,-168.5"/>
<text text-anchor="start" x="1307" y="-197.5" font-family="Helvetica,sans-Serif" font-size="10.00">/home/travis/build</text>
<text text-anchor="start" x="1307" y="-186.5" font-family="Helvetica,sans-Serif" font-size="10.00">/STORM&#45;IRIT/Radium&#45;Engine</text>
<text text-anchor="middle" x="1373" y="-175.5" font-family="Helvetica,sans-Serif" font-size="10.00">/src/Core/File/FileData.hpp</text>
</a>
</g>
</g>
<!-- Node3&#45;&gt;Node4 -->
<g id="edge3" class="edge"><title>Node3&#45;&gt;Node4</title>
<path fill="none" stroke="midnightblue" d="M1373,-241.881C1373,-231.133 1373,-219.309 1373,-209.667"/>
<polygon fill="midnightblue" stroke="midnightblue" points="1369.5,-242.15 1373,-252.15 1376.5,-242.15 1369.5,-242.15"/>
</g>
<!-- Node5 -->
<g id="node5" class="node"><title>Node5</title>
<g id="a_node5"><a xlink:href="FileData_8cpp.html" target="_top" xlink:title="/home/travis/build\l/STORM&#45;IRIT/Radium&#45;Engine\l/src/Core/File/FileData.cpp">
<polygon fill="white" stroke="black" points="0,-84.5 0,-125.5 148,-125.5 148,-84.5 0,-84.5"/>
<text text-anchor="start" x="8" y="-113.5" font-family="Helvetica,sans-Serif" font-size="10.00">/home/travis/build</text>
<text text-anchor="start" x="8" y="-102.5" font-family="Helvetica,sans-Serif" font-size="10.00">/STORM&#45;IRIT/Radium&#45;Engine</text>
<text text-anchor="middle" x="74" y="-91.5" font-family="Helvetica,sans-Serif" font-size="10.00">/src/Core/File/FileData.cpp</text>
</a>
</g>
</g>
<!-- Node4&#45;&gt;Node5 -->
<g id="edge4" class="edge"><title>Node4&#45;&gt;Node5</title>
<path fill="none" stroke="midnightblue" d="M1288.41,-186.933C1049.84,-183.476 374.883,-170.478 157,-132 148.078,-130.424 138.779,-128.159 129.769,-125.614"/>
<polygon fill="midnightblue" stroke="midnightblue" points="1288.71,-190.438 1298.76,-187.081 1288.81,-183.439 1288.71,-190.438"/>
</g>
<!-- Node6 -->
<g id="node6" class="node"><title>Node6</title>
<g id="a_node6"><a xlink:href="GeometryComponent_8cpp.html" target="_top" xlink:title="/home/travis/build\l/STORM&#45;IRIT/Radium&#45;Engine\l/src/Engine/Component/GeometryComponent.cpp">
<polygon fill="white" stroke="black" points="166,-84.5 166,-125.5 400,-125.5 400,-84.5 166,-84.5"/>
<text text-anchor="start" x="174" y="-113.5" font-family="Helvetica,sans-Serif" font-size="10.00">/home/travis/build</text>
<text text-anchor="start" x="174" y="-102.5" font-family="Helvetica,sans-Serif" font-size="10.00">/STORM&#45;IRIT/Radium&#45;Engine</text>
<text text-anchor="middle" x="283" y="-91.5" font-family="Helvetica,sans-Serif" font-size="10.00">/src/Engine/Component/GeometryComponent.cpp</text>
</a>
</g>
</g>
<!-- Node4&#45;&gt;Node6 -->
<g id="edge5" class="edge"><title>Node4&#45;&gt;Node6</title>
<path fill="none" stroke="midnightblue" d="M1288.96,-187.17C1121.17,-184.618 733.023,-174.235 410,-132 397.057,-130.308 383.459,-128.048 370.169,-125.564"/>
<polygon fill="midnightblue" stroke="midnightblue" points="1288.91,-190.669 1298.96,-187.316 1289.02,-183.67 1288.91,-190.669"/>
</g>
<!-- Node7 -->
<g id="node7" class="node"><title>Node7</title>
<g id="a_node7"><a xlink:href="CameraManager_8cpp.html" target="_top" xlink:title="/home/travis/build\l/STORM&#45;IRIT/Radium&#45;Engine\l/src/Engine/Managers/CameraManager\l/CameraManager.cpp">
<polygon fill="white" stroke="black" points="418.5,-79 418.5,-131 605.5,-131 605.5,-79 418.5,-79"/>
<text text-anchor="start" x="426.5" y="-119" font-family="Helvetica,sans-Serif" font-size="10.00">/home/travis/build</text>
<text text-anchor="start" x="426.5" y="-108" font-family="Helvetica,sans-Serif" font-size="10.00">/STORM&#45;IRIT/Radium&#45;Engine</text>
<text text-anchor="start" x="426.5" y="-97" font-family="Helvetica,sans-Serif" font-size="10.00">/src/Engine/Managers/CameraManager</text>
<text text-anchor="middle" x="512" y="-86" font-family="Helvetica,sans-Serif" font-size="10.00">/CameraManager.cpp</text>
</a>
</g>
</g>
<!-- Node4&#45;&gt;Node7 -->
<g id="edge6" class="edge"><title>Node4&#45;&gt;Node7</title>
<path fill="none" stroke="midnightblue" d="M1288.53,-186.532C1147.93,-183.025 857.404,-171.244 615,-132 611.905,-131.499 608.767,-130.95 605.605,-130.361"/>
<polygon fill="midnightblue" stroke="midnightblue" points="1288.72,-190.038 1298.8,-186.78 1288.89,-183.04 1288.72,-190.038"/>
</g>
<!-- Node8 -->
<g id="node8" class="node"><title>Node8</title>
<g id="a_node8"><a xlink:href="LightManager_8cpp.html" target="_top" xlink:title="/home/travis/build\l/STORM&#45;IRIT/Radium&#45;Engine\l/src/Engine/Managers/LightManager\l/LightManager.cpp">
<polygon fill="white" stroke="black" points="623.5,-79 623.5,-131 796.5,-131 796.5,-79 623.5,-79"/>
<text text-anchor="start" x="631.5" y="-119" font-family="Helvetica,sans-Serif" font-size="10.00">/home/travis/build</text>
<text text-anchor="start" x="631.5" y="-108" font-family="Helvetica,sans-Serif" font-size="10.00">/STORM&#45;IRIT/Radium&#45;Engine</text>
<text text-anchor="start" x="631.5" y="-97" font-family="Helvetica,sans-Serif" font-size="10.00">/src/Engine/Managers/LightManager</text>
<text text-anchor="middle" x="710" y="-86" font-family="Helvetica,sans-Serif" font-size="10.00">/LightManager.cpp</text>
</a>
</g>
</g>
<!-- Node4&#45;&gt;Node8 -->
<g id="edge7" class="edge"><title>Node4&#45;&gt;Node8</title>
<path fill="none" stroke="midnightblue" d="M1288.44,-184.038C1177.1,-177.822 975.588,-163.117 806,-132 802.943,-131.439 799.841,-130.828 796.716,-130.178"/>
<polygon fill="midnightblue" stroke="midnightblue" points="1288.43,-187.542 1298.6,-184.596 1288.81,-180.553 1288.43,-187.542"/>
</g>
<!-- Node9 -->
<g id="node9" class="node"><title>Node9</title>
<g id="a_node9"><a xlink:href="RadiumEngine_8cpp.html" target="_top" xlink:title="/home/travis/build\l/STORM&#45;IRIT/Radium&#45;Engine\l/src/Engine/RadiumEngine.cpp">
<polygon fill="white" stroke="black" points="815,-84.5 815,-125.5 967,-125.5 967,-84.5 815,-84.5"/>
<text text-anchor="start" x="823" y="-113.5" font-family="Helvetica,sans-Serif" font-size="10.00">/home/travis/build</text>
<text text-anchor="start" x="823" y="-102.5" font-family="Helvetica,sans-Serif" font-size="10.00">/STORM&#45;IRIT/Radium&#45;Engine</text>
<text text-anchor="middle" x="891" y="-91.5" font-family="Helvetica,sans-Serif" font-size="10.00">/src/Engine/RadiumEngine.cpp</text>
</a>
</g>
</g>
<!-- Node4&#45;&gt;Node9 -->
<g id="edge8" class="edge"><title>Node4&#45;&gt;Node9</title>
<path fill="none" stroke="midnightblue" d="M1288.72,-179.986C1207.88,-171.39 1082.71,-155.692 976,-132 967.714,-130.16 959.065,-127.911 950.592,-125.513"/>
<polygon fill="midnightblue" stroke="midnightblue" points="1288.53,-183.485 1298.84,-181.05 1289.27,-176.524 1288.53,-183.485"/>
</g>
<!-- Node10 -->
<g id="node10" class="node"><title>Node10</title>
<g id="a_node10"><a xlink:href="Renderer_8cpp.html" target="_top" xlink:title="/home/travis/build\l/STORM&#45;IRIT/Radium&#45;Engine\l/src/Engine/Renderer/Renderer.cpp">
<polygon fill="white" stroke="black" points="985,-84.5 985,-125.5 1155,-125.5 1155,-84.5 985,-84.5"/>
<text text-anchor="start" x="993" y="-113.5" font-family="Helvetica,sans-Serif" font-size="10.00">/home/travis/build</text>
<text text-anchor="start" x="993" y="-102.5" font-family="Helvetica,sans-Serif" font-size="10.00">/STORM&#45;IRIT/Radium&#45;Engine</text>
<text text-anchor="middle" x="1070" y="-91.5" font-family="Helvetica,sans-Serif" font-size="10.00">/src/Engine/Renderer/Renderer.cpp</text>
</a>
</g>
</g>
<!-- Node4&#45;&gt;Node10 -->
<g id="edge9" class="edge"><title>Node4&#45;&gt;Node10</title>
<path fill="none" stroke="midnightblue" d="M1289.81,-165.687C1251.75,-155.458 1206.08,-143.152 1165,-132 1157.33,-129.917 1149.31,-127.733 1141.32,-125.553"/>
<polygon fill="midnightblue" stroke="midnightblue" points="1289.26,-169.163 1299.82,-168.378 1291.07,-162.402 1289.26,-169.163"/>
</g>
<!-- Node11 -->
<g id="node11" class="node"><title>Node11</title>
<g id="a_node11"><a xlink:href="GeometrySystem_8cpp.html" target="_top" xlink:title="/home/travis/build\l/STORM&#45;IRIT/Radium&#45;Engine\l/src/Engine/System/GeometrySystem.cpp">
<polygon fill="white" stroke="black" points="1173.5,-84.5 1173.5,-125.5 1374.5,-125.5 1374.5,-84.5 1173.5,-84.5"/>
<text text-anchor="start" x="1181.5" y="-113.5" font-family="Helvetica,sans-Serif" font-size="10.00">/home/travis/build</text>
<text text-anchor="start" x="1181.5" y="-102.5" font-family="Helvetica,sans-Serif" font-size="10.00">/STORM&#45;IRIT/Radium&#45;Engine</text>
<text text-anchor="middle" x="1274" y="-91.5" font-family="Helvetica,sans-Serif" font-size="10.00">/src/Engine/System/GeometrySystem.cpp</text>
</a>
</g>
</g>
<!-- Node4&#45;&gt;Node11 -->
<g id="edge10" class="edge"><title>Node4&#45;&gt;Node11</title>
<path fill="none" stroke="midnightblue" d="M1341.29,-161.735C1327.2,-150.065 1310.89,-136.559 1297.86,-125.765"/>
<polygon fill="midnightblue" stroke="midnightblue" points="1339.35,-164.676 1349.29,-168.359 1343.82,-159.285 1339.35,-164.676"/>
</g>
<!-- Node12 -->
<g id="node12" class="node"><title>Node12</title>
<g id="a_node12"><a xlink:href="Viewer_8cpp.html" target="_top" xlink:title="/home/travis/build\l/STORM&#45;IRIT/Radium&#45;Engine\l/src/GuiBase/Viewer/Viewer.cpp">
<polygon fill="white" stroke="black" points="1393,-84.5 1393,-125.5 1551,-125.5 1551,-84.5 1393,-84.5"/>
<text text-anchor="start" x="1401" y="-113.5" font-family="Helvetica,sans-Serif" font-size="10.00">/home/travis/build</text>
<text text-anchor="start" x="1401" y="-102.5" font-family="Helvetica,sans-Serif" font-size="10.00">/STORM&#45;IRIT/Radium&#45;Engine</text>
<text text-anchor="middle" x="1472" y="-91.5" font-family="Helvetica,sans-Serif" font-size="10.00">/src/GuiBase/Viewer/Viewer.cpp</text>
</a>
</g>
</g>
<!-- Node4&#45;&gt;Node12 -->
<g id="edge11" class="edge"><title>Node4&#45;&gt;Node12</title>
<path fill="none" stroke="midnightblue" d="M1404.71,-161.735C1418.8,-150.065 1435.11,-136.559 1448.14,-125.765"/>
<polygon fill="midnightblue" stroke="midnightblue" points="1402.18,-159.285 1396.71,-168.359 1406.65,-164.676 1402.18,-159.285"/>
</g>
<!-- Node13 -->
<g id="node13" class="node"><title>Node13</title>
<g id="a_node13"><a xlink:href="AssimpFileLoader_8cpp.html" target="_top" xlink:title="/home/travis/build\l/STORM&#45;IRIT/Radium&#45;Engine\l/src/IO/AssimpLoader/AssimpFile\lLoader.cpp">
<polygon fill="white" stroke="black" points="1569,-79 1569,-131 1733,-131 1733,-79 1569,-79"/>
<text text-anchor="start" x="1577" y="-119" font-family="Helvetica,sans-Serif" font-size="10.00">/home/travis/build</text>
<text text-anchor="start" x="1577" y="-108" font-family="Helvetica,sans-Serif" font-size="10.00">/STORM&#45;IRIT/Radium&#45;Engine</text>
<text text-anchor="start" x="1577" y="-97" font-family="Helvetica,sans-Serif" font-size="10.00">/src/IO/AssimpLoader/AssimpFile</text>
<text text-anchor="middle" x="1651" y="-86" font-family="Helvetica,sans-Serif" font-size="10.00">Loader.cpp</text>
</a>
</g>
</g>
<!-- Node4&#45;&gt;Node13 -->
<g id="edge12" class="edge"><title>Node4&#45;&gt;Node13</title>
<path fill="none" stroke="midnightblue" d="M1449,-165.582C1486.16,-154.623 1530.92,-141.418 1568.86,-130.227"/>
<polygon fill="midnightblue" stroke="midnightblue" points="1447.84,-162.277 1439.23,-168.463 1449.82,-168.991 1447.84,-162.277"/>
</g>
<!-- Node14 -->
<g id="node14" class="node"><title>Node14</title>
<g id="a_node14"><a xlink:href="CameraLoader_8cpp.html" target="_top" xlink:title="/home/travis/build\l/STORM&#45;IRIT/Radium&#45;Engine\l/src/IO/CameraLoader/CameraLoader.cpp">
<polygon fill="white" stroke="black" points="1751.5,-84.5 1751.5,-125.5 1950.5,-125.5 1950.5,-84.5 1751.5,-84.5"/>
<text text-anchor="start" x="1759.5" y="-113.5" font-family="Helvetica,sans-Serif" font-size="10.00">/home/travis/build</text>
<text text-anchor="start" x="1759.5" y="-102.5" font-family="Helvetica,sans-Serif" font-size="10.00">/STORM&#45;IRIT/Radium&#45;Engine</text>
<text text-anchor="middle" x="1851" y="-91.5" font-family="Helvetica,sans-Serif" font-size="10.00">/src/IO/CameraLoader/CameraLoader.cpp</text>
</a>
</g>
</g>
<!-- Node4&#45;&gt;Node14 -->
<g id="edge13" class="edge"><title>Node4&#45;&gt;Node14</title>
<path fill="none" stroke="midnightblue" d="M1457.51,-177.22C1532.52,-167.165 1644.96,-150.902 1742,-132 1751.93,-130.066 1762.32,-127.845 1772.58,-125.533"/>
<polygon fill="midnightblue" stroke="midnightblue" points="1456.62,-173.807 1447.17,-178.597 1457.55,-180.745 1456.62,-173.807"/>
</g>
<!-- Node15 -->
<g id="node15" class="node"><title>Node15</title>
<g id="a_node15"><a xlink:href="TinyPlyFileLoader_8cpp.html" target="_top" xlink:title="/home/travis/build\l/STORM&#45;IRIT/Radium&#45;Engine\l/src/IO/TinyPlyLoader/TinyPlyFile\lLoader.cpp">
<polygon fill="white" stroke="black" points="1969,-79 1969,-131 2133,-131 2133,-79 1969,-79"/>
<text text-anchor="start" x="1977" y="-119" font-family="Helvetica,sans-Serif" font-size="10.00">/home/travis/build</text>
<text text-anchor="start" x="1977" y="-108" font-family="Helvetica,sans-Serif" font-size="10.00">/STORM&#45;IRIT/Radium&#45;Engine</text>
<text text-anchor="start" x="1977" y="-97" font-family="Helvetica,sans-Serif" font-size="10.00">/src/IO/TinyPlyLoader/TinyPlyFile</text>
<text text-anchor="middle" x="2051" y="-86" font-family="Helvetica,sans-Serif" font-size="10.00">Loader.cpp</text>
</a>
</g>
</g>
<!-- Node4&#45;&gt;Node15 -->
<g id="edge14" class="edge"><title>Node4&#45;&gt;Node15</title>
<path fill="none" stroke="midnightblue" d="M1457.24,-184.718C1571.67,-179.177 1782.27,-165.137 1959,-132 1962.26,-131.388 1965.58,-130.713 1968.92,-129.989"/>
<polygon fill="midnightblue" stroke="midnightblue" points="1456.96,-181.226 1447.14,-185.196 1457.3,-188.219 1456.96,-181.226"/>
</g>
<!-- Node16 -->
<g id="node16" class="node"><title>Node16</title>
<g id="a_node16"><a xlink:href="AnimationSystem_8cpp.html" target="_top" xlink:title="/home/travis/build\l/STORM&#45;IRIT/Radium&#45;Engine\l/Plugins/Animation/src/Animation\lSystem.cpp">
<polygon fill="white" stroke="black" points="2151.5,-79 2151.5,-131 2312.5,-131 2312.5,-79 2151.5,-79"/>
<text text-anchor="start" x="2159.5" y="-119" font-family="Helvetica,sans-Serif" font-size="10.00">/home/travis/build</text>
<text text-anchor="start" x="2159.5" y="-108" font-family="Helvetica,sans-Serif" font-size="10.00">/STORM&#45;IRIT/Radium&#45;Engine</text>
<text text-anchor="start" x="2159.5" y="-97" font-family="Helvetica,sans-Serif" font-size="10.00">/Plugins/Animation/src/Animation</text>
<text text-anchor="middle" x="2232" y="-86" font-family="Helvetica,sans-Serif" font-size="10.00">System.cpp</text>
</a>
</g>
</g>
<!-- Node4&#45;&gt;Node16 -->
<g id="edge15" class="edge"><title>Node4&#45;&gt;Node16</title>
<path fill="none" stroke="midnightblue" d="M1457.46,-187.583C1599.79,-185.605 1895.98,-175.996 2142,-132 2145.04,-131.456 2148.13,-130.85 2151.24,-130.193"/>
<polygon fill="midnightblue" stroke="midnightblue" points="1457.02,-184.088 1447.06,-187.717 1457.11,-191.088 1457.02,-184.088"/>
</g>
<!-- Node17 -->
<g id="node17" class="node"><title>Node17</title>
<g id="a_node17"><a xlink:href="MeshPaintSystem_8cpp.html" target="_top" xlink:title="/home/travis/build\l/STORM&#45;IRIT/Radium&#45;Engine\l/Plugins/MeshPaint/src/MeshPaint\lSystem.cpp">
<polygon fill="white" stroke="black" points="2330.5,-79 2330.5,-131 2497.5,-131 2497.5,-79 2330.5,-79"/>
<text text-anchor="start" x="2338.5" y="-119" font-family="Helvetica,sans-Serif" font-size="10.00">/home/travis/build</text>
<text text-anchor="start" x="2338.5" y="-108" font-family="Helvetica,sans-Serif" font-size="10.00">/STORM&#45;IRIT/Radium&#45;Engine</text>
<text text-anchor="start" x="2338.5" y="-97" font-family="Helvetica,sans-Serif" font-size="10.00">/Plugins/MeshPaint/src/MeshPaint</text>
<text text-anchor="middle" x="2414" y="-86" font-family="Helvetica,sans-Serif" font-size="10.00">System.cpp</text>
</a>
</g>
</g>
<!-- Node4&#45;&gt;Node17 -->
<g id="edge16" class="edge"><title>Node4&#45;&gt;Node17</title>
<path fill="none" stroke="midnightblue" d="M1457.3,-185.329C1657.31,-178.621 2156.08,-159.599 2321,-132 2324.06,-131.488 2327.16,-130.914 2330.29,-130.291"/>
<polygon fill="midnightblue" stroke="midnightblue" points="1457.02,-181.837 1447.14,-185.668 1457.25,-188.833 1457.02,-181.837"/>
</g>
<!-- Node18 -->
<g id="node18" class="node"><title>Node18</title>
<g id="a_node18"><a xlink:href="SkinningSystem_8hpp.html" target="_top" xlink:title="/home/travis/build\l/STORM&#45;IRIT/Radium&#45;Engine\l/Plugins/Skinning/src/SkinningSystem.hpp">
<polygon fill="white" stroke="black" points="2516,-84.5 2516,-125.5 2718,-125.5 2718,-84.5 2516,-84.5"/>
<text text-anchor="start" x="2524" y="-113.5" font-family="Helvetica,sans-Serif" font-size="10.00">/home/travis/build</text>
<text text-anchor="start" x="2524" y="-102.5" font-family="Helvetica,sans-Serif" font-size="10.00">/STORM&#45;IRIT/Radium&#45;Engine</text>
<text text-anchor="middle" x="2617" y="-91.5" font-family="Helvetica,sans-Serif" font-size="10.00">/Plugins/Skinning/src/SkinningSystem.hpp</text>
</a>
</g>
</g>
<!-- Node4&#45;&gt;Node18 -->
<g id="edge17" class="edge"><title>Node4&#45;&gt;Node18</title>
<path fill="none" stroke="midnightblue" d="M1457.2,-185.812C1683.88,-179.608 2303.49,-160.484 2506,-132 2517.66,-130.36 2529.9,-128.077 2541.81,-125.54"/>
<polygon fill="midnightblue" stroke="midnightblue" points="1456.93,-182.318 1447.03,-186.089 1457.12,-189.316 1456.93,-182.318"/>
</g>
<!-- Node19 -->
<g id="node19" class="node"><title>Node19</title>
<g id="a_node19"><a xlink:href="SkinningPlugin_8cpp.html" target="_top" xlink:title="/home/travis/build\l/STORM&#45;IRIT/Radium&#45;Engine\l/Plugins/Skinning/src/SkinningPlugin.cpp">
<polygon fill="white" stroke="black" points="2519.5,-0.5 2519.5,-41.5 2714.5,-41.5 2714.5,-0.5 2519.5,-0.5"/>
<text text-anchor="start" x="2527.5" y="-29.5" font-family="Helvetica,sans-Serif" font-size="10.00">/home/travis/build</text>
<text text-anchor="start" x="2527.5" y="-18.5" font-family="Helvetica,sans-Serif" font-size="10.00">/STORM&#45;IRIT/Radium&#45;Engine</text>
<text text-anchor="middle" x="2617" y="-7.5" font-family="Helvetica,sans-Serif" font-size="10.00">/Plugins/Skinning/src/SkinningPlugin.cpp</text>
</a>
</g>
</g>
<!-- Node18&#45;&gt;Node19 -->
<g id="edge18" class="edge"><title>Node18&#45;&gt;Node19</title>
<path fill="none" stroke="midnightblue" d="M2617,-73.881C2617,-63.1328 2617,-51.309 2617,-41.6671"/>
<polygon fill="midnightblue" stroke="midnightblue" points="2613.5,-74.1501 2617,-84.1501 2620.5,-74.1501 2613.5,-74.1501"/>
</g>
</g>
</svg>
