<?xml version="1.0" encoding="UTF-8" standalone="no"?>
<!DOCTYPE svg PUBLIC "-//W3C//DTD SVG 1.1//EN"
 "http://www.w3.org/Graphics/SVG/1.1/DTD/svg11.dtd">
<!-- Generated by graphviz version 2.36.0 (20140111.2315)
 -->
<!-- Title: /home/travis/build/STORM&#45;IRIT/Radium&#45;Engine/src/Engine/Renderer/Light/Light.hpp Pages: 1 -->
<svg width="1593pt" height="422pt"
 viewBox="0.00 0.00 1593.00 422.00" xmlns="http://www.w3.org/2000/svg" xmlns:xlink="http://www.w3.org/1999/xlink">
<g id="graph0" class="graph" transform="scale(1 1) rotate(0) translate(4 418)">
<title>/home/travis/build/STORM&#45;IRIT/Radium&#45;Engine/src/Engine/Renderer/Light/Light.hpp</title>
<polygon fill="white" stroke="none" points="-4,4 -4,-418 1589,-418 1589,4 -4,4"/>
<!-- Node1 -->
<g id="node1" class="node"><title>Node1</title>
<polygon fill="#bfbfbf" stroke="black" points="844,-361 844,-413 992,-413 992,-361 844,-361"/>
<text text-anchor="start" x="852" y="-401" font-family="Helvetica,sans-Serif" font-size="10.00">/home/travis/build</text>
<text text-anchor="start" x="852" y="-390" font-family="Helvetica,sans-Serif" font-size="10.00">/STORM&#45;IRIT/Radium&#45;Engine</text>
<text text-anchor="start" x="852" y="-379" font-family="Helvetica,sans-Serif" font-size="10.00">/src/Engine/Renderer/Light</text>
<text text-anchor="middle" x="918" y="-368" font-family="Helvetica,sans-Serif" font-size="10.00">/Light.hpp</text>
</g>
<!-- Node2 -->
<g id="node2" class="node"><title>Node2</title>
<g id="a_node2"><a xlink:href="LightStorage_8hpp.html" target="_top" xlink:title="/home/travis/build\l/STORM&#45;IRIT/Radium&#45;Engine\l/src/Engine/Managers/LightManager\l/LightStorage.hpp">
<polygon fill="white" stroke="black" points="258.5,-271 258.5,-323 431.5,-323 431.5,-271 258.5,-271"/>
<text text-anchor="start" x="266.5" y="-311" font-family="Helvetica,sans-Serif" font-size="10.00">/home/travis/build</text>
<text text-anchor="start" x="266.5" y="-300" font-family="Helvetica,sans-Serif" font-size="10.00">/STORM&#45;IRIT/Radium&#45;Engine</text>
<text text-anchor="start" x="266.5" y="-289" font-family="Helvetica,sans-Serif" font-size="10.00">/src/Engine/Managers/LightManager</text>
<text text-anchor="middle" x="345" y="-278" font-family="Helvetica,sans-Serif" font-size="10.00">/LightStorage.hpp</text>
</a>
</g>
</g>
<!-- Node1&#45;&gt;Node2 -->
<g id="edge1" class="edge"><title>Node1&#45;&gt;Node2</title>
<path fill="none" stroke="midnightblue" d="M833.805,-373.07C726.196,-356.543 540.836,-328.076 431.929,-311.35"/>
<polygon fill="midnightblue" stroke="midnightblue" points="833.555,-376.572 843.971,-374.631 834.618,-369.653 833.555,-376.572"/>
</g>
<!-- Node6 -->
<g id="node6" class="node"><title>Node6</title>
<g id="a_node6"><a xlink:href="ForwardRenderer_8cpp.html" target="_top" xlink:title="/home/travis/build\l/STORM&#45;IRIT/Radium&#45;Engine\l/src/Engine/Renderer/Renderers\l/ForwardRenderer.cpp">
<polygon fill="white" stroke="black" points="487.5,-1 487.5,-53 644.5,-53 644.5,-1 487.5,-1"/>
<text text-anchor="start" x="495.5" y="-41" font-family="Helvetica,sans-Serif" font-size="10.00">/home/travis/build</text>
<text text-anchor="start" x="495.5" y="-30" font-family="Helvetica,sans-Serif" font-size="10.00">/STORM&#45;IRIT/Radium&#45;Engine</text>
<text text-anchor="start" x="495.5" y="-19" font-family="Helvetica,sans-Serif" font-size="10.00">/src/Engine/Renderer/Renderers</text>
<text text-anchor="middle" x="566" y="-8" font-family="Helvetica,sans-Serif" font-size="10.00">/ForwardRenderer.cpp</text>
</a>
</g>
</g>
<!-- Node1&#45;&gt;Node6 -->
<g id="edge21" class="edge"><title>Node1&#45;&gt;Node6</title>
<path fill="none" stroke="midnightblue" d="M939.187,-352.026C943.641,-343.218 947.688,-333.522 950,-324 964.668,-263.6 979.209,-131.923 942,-90 903.737,-46.8897 743.361,-33.7419 644.834,-29.7409"/>
<polygon fill="midnightblue" stroke="midnightblue" points="936.102,-350.374 934.454,-360.84 942.269,-353.686 936.102,-350.374"/>
</g>
<!-- Node9 -->
<g id="node9" class="node"><title>Node9</title>
<g id="a_node9"><a xlink:href="DirLight_8hpp.html" target="_top" xlink:title="/home/travis/build\l/STORM&#45;IRIT/Radium&#45;Engine\l/src/Engine/Renderer/Light\l/DirLight.hpp">
<polygon fill="white" stroke="black" points="385,-181 385,-233 533,-233 533,-181 385,-181"/>
<text text-anchor="start" x="393" y="-221" font-family="Helvetica,sans-Serif" font-size="10.00">/home/travis/build</text>
<text text-anchor="start" x="393" y="-210" font-family="Helvetica,sans-Serif" font-size="10.00">/STORM&#45;IRIT/Radium&#45;Engine</text>
<text text-anchor="start" x="393" y="-199" font-family="Helvetica,sans-Serif" font-size="10.00">/src/Engine/Renderer/Light</text>
<text text-anchor="middle" x="459" y="-188" font-family="Helvetica,sans-Serif" font-size="10.00">/DirLight.hpp</text>
</a>
</g>
</g>
<!-- Node1&#45;&gt;Node9 -->
<g id="edge8" class="edge"><title>Node1&#45;&gt;Node9</title>
<path fill="none" stroke="midnightblue" d="M833.706,-378.279C771.907,-370.341 687.092,-354.61 618,-324 566.609,-301.232 515.611,-259.827 485.721,-233.138"/>
<polygon fill="midnightblue" stroke="midnightblue" points="833.451,-381.775 843.806,-379.534 834.314,-374.828 833.451,-381.775"/>
</g>
<!-- Node12 -->
<g id="node12" class="node"><title>Node12</title>
<g id="a_node12"><a xlink:href="Light_8cpp.html" target="_top" xlink:title="/home/travis/build\l/STORM&#45;IRIT/Radium&#45;Engine\l/src/Engine/Renderer/Light\l/Light.cpp">
<polygon fill="white" stroke="black" points="997,-271 997,-323 1145,-323 1145,-271 997,-271"/>
<text text-anchor="start" x="1005" y="-311" font-family="Helvetica,sans-Serif" font-size="10.00">/home/travis/build</text>
<text text-anchor="start" x="1005" y="-300" font-family="Helvetica,sans-Serif" font-size="10.00">/STORM&#45;IRIT/Radium&#45;Engine</text>
<text text-anchor="start" x="1005" y="-289" font-family="Helvetica,sans-Serif" font-size="10.00">/src/Engine/Renderer/Light</text>
<text text-anchor="middle" x="1071" y="-278" font-family="Helvetica,sans-Serif" font-size="10.00">/Light.cpp</text>
</a>
</g>
</g>
<!-- Node1&#45;&gt;Node12 -->
<g id="edge14" class="edge"><title>Node1&#45;&gt;Node12</title>
<path fill="none" stroke="midnightblue" d="M970.732,-355.67C989.219,-345.038 1009.76,-333.222 1027.41,-323.069"/>
<polygon fill="midnightblue" stroke="midnightblue" points="968.767,-352.763 961.844,-360.783 972.257,-358.831 968.767,-352.763"/>
</g>
<!-- Node13 -->
<g id="node13" class="node"><title>Node13</title>
<g id="a_node13"><a xlink:href="PointLight_8hpp.html" target="_top" xlink:title="/home/travis/build\l/STORM&#45;IRIT/Radium&#45;Engine\l/src/Engine/Renderer/Light\l/PointLight.hpp">
<polygon fill="white" stroke="black" points="627,-271 627,-323 775,-323 775,-271 627,-271"/>
<text text-anchor="start" x="635" y="-311" font-family="Helvetica,sans-Serif" font-size="10.00">/home/travis/build</text>
<text text-anchor="start" x="635" y="-300" font-family="Helvetica,sans-Serif" font-size="10.00">/STORM&#45;IRIT/Radium&#45;Engine</text>
<text text-anchor="start" x="635" y="-289" font-family="Helvetica,sans-Serif" font-size="10.00">/src/Engine/Renderer/Light</text>
<text text-anchor="middle" x="701" y="-278" font-family="Helvetica,sans-Serif" font-size="10.00">/PointLight.hpp</text>
</a>
</g>
</g>
<!-- Node1&#45;&gt;Node13 -->
<g id="edge15" class="edge"><title>Node1&#45;&gt;Node13</title>
<path fill="none" stroke="midnightblue" d="M846.699,-357.085C819.651,-346.117 789.095,-333.725 762.975,-323.133"/>
<polygon fill="midnightblue" stroke="midnightblue" points="845.525,-360.386 856.107,-360.901 848.155,-353.899 845.525,-360.386"/>
</g>
<!-- Node15 -->
<g id="node15" class="node"><title>Node15</title>
<g id="a_node15"><a xlink:href="SpotLight_8hpp.html" target="_top" xlink:title="/home/travis/build\l/STORM&#45;IRIT/Radium&#45;Engine\l/src/Engine/Renderer/Light\l/SpotLight.hpp">
<polygon fill="white" stroke="black" points="793,-271 793,-323 941,-323 941,-271 793,-271"/>
<text text-anchor="start" x="801" y="-311" font-family="Helvetica,sans-Serif" font-size="10.00">/home/travis/build</text>
<text text-anchor="start" x="801" y="-300" font-family="Helvetica,sans-Serif" font-size="10.00">/STORM&#45;IRIT/Radium&#45;Engine</text>
<text text-anchor="start" x="801" y="-289" font-family="Helvetica,sans-Serif" font-size="10.00">/src/Engine/Renderer/Light</text>
<text text-anchor="middle" x="867" y="-278" font-family="Helvetica,sans-Serif" font-size="10.00">/SpotLight.hpp</text>
</a>
</g>
</g>
<!-- Node1&#45;&gt;Node15 -->
<g id="edge18" class="edge"><title>Node1&#45;&gt;Node15</title>
<path fill="none" stroke="midnightblue" d="M898.105,-351.671C892.584,-342.145 886.694,-331.983 881.542,-323.092"/>
<polygon fill="midnightblue" stroke="midnightblue" points="895.206,-353.65 903.249,-360.547 901.263,-350.14 895.206,-353.65"/>
</g>
<!-- Node17 -->
<g id="node17" class="node"><title>Node17</title>
<g id="a_node17"><a xlink:href="CameraInterface_8cpp.html" target="_top" xlink:title="/home/travis/build\l/STORM&#45;IRIT/Radium&#45;Engine\l/src/GuiBase/Viewer/CameraInterface.cpp">
<polygon fill="white" stroke="black" points="1163.5,-276.5 1163.5,-317.5 1364.5,-317.5 1364.5,-276.5 1163.5,-276.5"/>
<text text-anchor="start" x="1171.5" y="-305.5" font-family="Helvetica,sans-Serif" font-size="10.00">/home/travis/build</text>
<text text-anchor="start" x="1171.5" y="-294.5" font-family="Helvetica,sans-Serif" font-size="10.00">/STORM&#45;IRIT/Radium&#45;Engine</text>
<text text-anchor="middle" x="1264" y="-283.5" font-family="Helvetica,sans-Serif" font-size="10.00">/src/GuiBase/Viewer/CameraInterface.cpp</text>
</a>
</g>
</g>
<!-- Node1&#45;&gt;Node17 -->
<g id="edge22" class="edge"><title>Node1&#45;&gt;Node17</title>
<path fill="none" stroke="midnightblue" d="M1002.2,-364.586C1058.63,-350.232 1132.37,-331.478 1187.2,-317.532"/>
<polygon fill="midnightblue" stroke="midnightblue" points="1001.05,-361.265 992.226,-367.122 1002.78,-368.049 1001.05,-361.265"/>
</g>
<!-- Node18 -->
<g id="node18" class="node"><title>Node18</title>
<g id="a_node18"><a xlink:href="TrackballCamera_8cpp.html" target="_top" xlink:title="/home/travis/build\l/STORM&#45;IRIT/Radium&#45;Engine\l/src/GuiBase/Viewer/TrackballCamera.cpp">
<polygon fill="white" stroke="black" points="1382.5,-276.5 1382.5,-317.5 1585.5,-317.5 1585.5,-276.5 1382.5,-276.5"/>
<text text-anchor="start" x="1390.5" y="-305.5" font-family="Helvetica,sans-Serif" font-size="10.00">/home/travis/build</text>
<text text-anchor="start" x="1390.5" y="-294.5" font-family="Helvetica,sans-Serif" font-size="10.00">/STORM&#45;IRIT/Radium&#45;Engine</text>
<text text-anchor="middle" x="1484" y="-283.5" font-family="Helvetica,sans-Serif" font-size="10.00">/src/GuiBase/Viewer/TrackballCamera.cpp</text>
</a>
</g>
</g>
<!-- Node1&#45;&gt;Node18 -->
<g id="edge23" class="edge"><title>Node1&#45;&gt;Node18</title>
<path fill="none" stroke="midnightblue" d="M1002.08,-376.959C1093.68,-366.546 1244.35,-347.776 1373,-324 1383.32,-322.094 1394.12,-319.862 1404.76,-317.522"/>
<polygon fill="midnightblue" stroke="midnightblue" points="1001.57,-373.493 992.027,-378.094 1002.36,-380.449 1001.57,-373.493"/>
</g>
<!-- Node3 -->
<g id="node3" class="node"><title>Node3</title>
<g id="a_node3"><a xlink:href="LightManager_8hpp.html" target="_top" xlink:title="/home/travis/build\l/STORM&#45;IRIT/Radium&#45;Engine\l/src/Engine/Managers/LightManager\l/LightManager.hpp">
<polygon fill="white" stroke="black" points="190.5,-181 190.5,-233 363.5,-233 363.5,-181 190.5,-181"/>
<text text-anchor="start" x="198.5" y="-221" font-family="Helvetica,sans-Serif" font-size="10.00">/home/travis/build</text>
<text text-anchor="start" x="198.5" y="-210" font-family="Helvetica,sans-Serif" font-size="10.00">/STORM&#45;IRIT/Radium&#45;Engine</text>
<text text-anchor="start" x="198.5" y="-199" font-family="Helvetica,sans-Serif" font-size="10.00">/src/Engine/Managers/LightManager</text>
<text text-anchor="middle" x="277" y="-188" font-family="Helvetica,sans-Serif" font-size="10.00">/LightManager.hpp</text>
</a>
</g>
</g>
<!-- Node2&#45;&gt;Node3 -->
<g id="edge2" class="edge"><title>Node2&#45;&gt;Node3</title>
<path fill="none" stroke="midnightblue" d="M319.154,-262.553C311.599,-252.775 303.472,-242.258 296.389,-233.092"/>
<polygon fill="midnightblue" stroke="midnightblue" points="316.448,-264.774 325.332,-270.547 321.987,-260.494 316.448,-264.774"/>
</g>
<!-- Node4 -->
<g id="node4" class="node"><title>Node4</title>
<g id="a_node4"><a xlink:href="DefaultLightManager_8hpp.html" target="_top" xlink:title="/home/travis/build\l/STORM&#45;IRIT/Radium&#45;Engine\l/src/Engine/Managers/LightManager\l/DefaultLightManager.hpp">
<polygon fill="white" stroke="black" points="188.5,-91 188.5,-143 361.5,-143 361.5,-91 188.5,-91"/>
<text text-anchor="start" x="196.5" y="-131" font-family="Helvetica,sans-Serif" font-size="10.00">/home/travis/build</text>
<text text-anchor="start" x="196.5" y="-120" font-family="Helvetica,sans-Serif" font-size="10.00">/STORM&#45;IRIT/Radium&#45;Engine</text>
<text text-anchor="start" x="196.5" y="-109" font-family="Helvetica,sans-Serif" font-size="10.00">/src/Engine/Managers/LightManager</text>
<text text-anchor="middle" x="275" y="-98" font-family="Helvetica,sans-Serif" font-size="10.00">/DefaultLightManager.hpp</text>
</a>
</g>
</g>
<!-- Node3&#45;&gt;Node4 -->
<g id="edge3" class="edge"><title>Node3&#45;&gt;Node4</title>
<path fill="none" stroke="midnightblue" d="M276.193,-170.489C275.984,-161.309 275.764,-151.616 275.57,-143.092"/>
<polygon fill="midnightblue" stroke="midnightblue" points="272.695,-170.629 276.422,-180.547 279.693,-170.47 272.695,-170.629"/>
</g>
<!-- Node7 -->
<g id="node7" class="node"><title>Node7</title>
<g id="a_node7"><a xlink:href="LightManager_8cpp.html" target="_top" xlink:title="/home/travis/build\l/STORM&#45;IRIT/Radium&#45;Engine\l/src/Engine/Managers/LightManager\l/LightManager.cpp">
<polygon fill="white" stroke="black" points="760.5,-91 760.5,-143 933.5,-143 933.5,-91 760.5,-91"/>
<text text-anchor="start" x="768.5" y="-131" font-family="Helvetica,sans-Serif" font-size="10.00">/home/travis/build</text>
<text text-anchor="start" x="768.5" y="-120" font-family="Helvetica,sans-Serif" font-size="10.00">/STORM&#45;IRIT/Radium&#45;Engine</text>
<text text-anchor="start" x="768.5" y="-109" font-family="Helvetica,sans-Serif" font-size="10.00">/src/Engine/Managers/LightManager</text>
<text text-anchor="middle" x="847" y="-98" font-family="Helvetica,sans-Serif" font-size="10.00">/LightManager.cpp</text>
</a>
</g>
</g>
<!-- Node3&#45;&gt;Node7 -->
<g id="edge6" class="edge"><title>Node3&#45;&gt;Node7</title>
<path fill="none" stroke="midnightblue" d="M373.729,-180.412C374.488,-180.272 375.246,-180.134 376,-180 540.839,-150.64 586.275,-173.992 751,-144 754.058,-143.443 757.16,-142.836 760.286,-142.189"/>
<polygon fill="midnightblue" stroke="midnightblue" points="372.884,-177.011 363.746,-182.373 374.234,-183.879 372.884,-177.011"/>
</g>
<!-- Node8 -->
<g id="node8" class="node"><title>Node8</title>
<g id="a_node8"><a xlink:href="Renderer_8cpp.html" target="_top" xlink:title="/home/travis/build\l/STORM&#45;IRIT/Radium&#45;Engine\l/src/Engine/Renderer/Renderer.cpp">
<polygon fill="white" stroke="black" points="0,-96.5 0,-137.5 170,-137.5 170,-96.5 0,-96.5"/>
<text text-anchor="start" x="8" y="-125.5" font-family="Helvetica,sans-Serif" font-size="10.00">/home/travis/build</text>
<text text-anchor="start" x="8" y="-114.5" font-family="Helvetica,sans-Serif" font-size="10.00">/STORM&#45;IRIT/Radium&#45;Engine</text>
<text text-anchor="middle" x="85" y="-103.5" font-family="Helvetica,sans-Serif" font-size="10.00">/src/Engine/Renderer/Renderer.cpp</text>
</a>
</g>
</g>
<!-- Node3&#45;&gt;Node8 -->
<g id="edge7" class="edge"><title>Node3&#45;&gt;Node8</title>
<path fill="none" stroke="midnightblue" d="M212.896,-176.619C184.838,-163.759 152.68,-149.02 127.629,-137.538"/>
<polygon fill="midnightblue" stroke="midnightblue" points="211.688,-179.916 222.237,-180.901 214.605,-173.552 211.688,-179.916"/>
</g>
<!-- Node5 -->
<g id="node5" class="node"><title>Node5</title>
<g id="a_node5"><a xlink:href="DefaultLightManager_8cpp.html" target="_top" xlink:title="/home/travis/build\l/STORM&#45;IRIT/Radium&#45;Engine\l/src/Engine/Managers/LightManager\l/DefaultLightManager.cpp">
<polygon fill="white" stroke="black" points="188.5,-1 188.5,-53 361.5,-53 361.5,-1 188.5,-1"/>
<text text-anchor="start" x="196.5" y="-41" font-family="Helvetica,sans-Serif" font-size="10.00">/home/travis/build</text>
<text text-anchor="start" x="196.5" y="-30" font-family="Helvetica,sans-Serif" font-size="10.00">/STORM&#45;IRIT/Radium&#45;Engine</text>
<text text-anchor="start" x="196.5" y="-19" font-family="Helvetica,sans-Serif" font-size="10.00">/src/Engine/Managers/LightManager</text>
<text text-anchor="middle" x="275" y="-8" font-family="Helvetica,sans-Serif" font-size="10.00">/DefaultLightManager.cpp</text>
</a>
</g>
</g>
<!-- Node4&#45;&gt;Node5 -->
<g id="edge4" class="edge"><title>Node4&#45;&gt;Node5</title>
<path fill="none" stroke="midnightblue" d="M275,-80.4892C275,-71.3088 275,-61.616 275,-53.0921"/>
<polygon fill="midnightblue" stroke="midnightblue" points="271.5,-80.5467 275,-90.5468 278.5,-80.5468 271.5,-80.5467"/>
</g>
<!-- Node4&#45;&gt;Node6 -->
<g id="edge5" class="edge"><title>Node4&#45;&gt;Node6</title>
<path fill="none" stroke="midnightblue" d="M367.667,-87.977C406.209,-76.3218 450.474,-62.9358 487.394,-51.771"/>
<polygon fill="midnightblue" stroke="midnightblue" points="366.558,-84.6557 357.999,-90.9005 368.585,-91.356 366.558,-84.6557"/>
</g>
<!-- Node9&#45;&gt;Node4 -->
<g id="edge9" class="edge"><title>Node9&#45;&gt;Node4</title>
<path fill="none" stroke="midnightblue" d="M397.096,-176.394C374.476,-165.576 349.129,-153.453 327.416,-143.069"/>
<polygon fill="midnightblue" stroke="midnightblue" points="395.742,-179.626 406.273,-180.783 398.762,-173.311 395.742,-179.626"/>
</g>
<!-- Node9&#45;&gt;Node6 -->
<g id="edge12" class="edge"><title>Node9&#45;&gt;Node6</title>
<path fill="none" stroke="midnightblue" d="M516.224,-174.999C527.657,-166.367 538.454,-156.004 546,-144 563.401,-116.317 566.864,-77.9255 567.013,-53.0245"/>
<polygon fill="midnightblue" stroke="midnightblue" points="513.941,-172.328 507.823,-180.978 518,-178.031 513.941,-172.328"/>
</g>
<!-- Node9&#45;&gt;Node7 -->
<g id="edge10" class="edge"><title>Node9&#45;&gt;Node7</title>
<path fill="none" stroke="midnightblue" d="M542.847,-179.93C635.377,-158.264 662.02,-163.667 751,-144 754.119,-143.311 757.289,-142.585 760.485,-141.832"/>
<polygon fill="midnightblue" stroke="midnightblue" points="541.99,-176.535 533.075,-182.26 543.614,-183.345 541.99,-176.535"/>
</g>
<!-- Node10 -->
<g id="node10" class="node"><title>Node10</title>
<g id="a_node10"><a xlink:href="DirLight_8cpp.html" target="_top" xlink:title="/home/travis/build\l/STORM&#45;IRIT/Radium&#45;Engine\l/src/Engine/Renderer/Light\l/DirLight.cpp">
<polygon fill="white" stroke="black" points="594,-91 594,-143 742,-143 742,-91 594,-91"/>
<text text-anchor="start" x="602" y="-131" font-family="Helvetica,sans-Serif" font-size="10.00">/home/travis/build</text>
<text text-anchor="start" x="602" y="-120" font-family="Helvetica,sans-Serif" font-size="10.00">/STORM&#45;IRIT/Radium&#45;Engine</text>
<text text-anchor="start" x="602" y="-109" font-family="Helvetica,sans-Serif" font-size="10.00">/src/Engine/Renderer/Light</text>
<text text-anchor="middle" x="668" y="-98" font-family="Helvetica,sans-Serif" font-size="10.00">/DirLight.cpp</text>
</a>
</g>
</g>
<!-- Node9&#45;&gt;Node10 -->
<g id="edge11" class="edge"><title>Node9&#45;&gt;Node10</title>
<path fill="none" stroke="midnightblue" d="M528.014,-176.942C553.98,-166.008 583.263,-153.679 608.31,-143.133"/>
<polygon fill="midnightblue" stroke="midnightblue" points="526.469,-173.794 518.611,-180.901 529.186,-180.246 526.469,-173.794"/>
</g>
<!-- Node11 -->
<g id="node11" class="node"><title>Node11</title>
<g id="a_node11"><a xlink:href="Viewer_8cpp.html" target="_top" xlink:title="/home/travis/build\l/STORM&#45;IRIT/Radium&#45;Engine\l/src/GuiBase/Viewer/Viewer.cpp">
<polygon fill="white" stroke="black" points="380,-96.5 380,-137.5 538,-137.5 538,-96.5 380,-96.5"/>
<text text-anchor="start" x="388" y="-125.5" font-family="Helvetica,sans-Serif" font-size="10.00">/home/travis/build</text>
<text text-anchor="start" x="388" y="-114.5" font-family="Helvetica,sans-Serif" font-size="10.00">/STORM&#45;IRIT/Radium&#45;Engine</text>
<text text-anchor="middle" x="459" y="-103.5" font-family="Helvetica,sans-Serif" font-size="10.00">/src/GuiBase/Viewer/Viewer.cpp</text>
</a>
</g>
</g>
<!-- Node9&#45;&gt;Node11 -->
<g id="edge13" class="edge"><title>Node9&#45;&gt;Node11</title>
<path fill="none" stroke="midnightblue" d="M459,-170.515C459,-159.257 459,-147.227 459,-137.525"/>
<polygon fill="midnightblue" stroke="midnightblue" points="455.5,-170.547 459,-180.547 462.5,-170.547 455.5,-170.547"/>
</g>
<!-- Node13&#45;&gt;Node7 -->
<g id="edge16" class="edge"><title>Node13&#45;&gt;Node7</title>
<path fill="none" stroke="midnightblue" d="M708.204,-261.231C714.739,-236.439 726.422,-203.474 746,-180 758.453,-165.068 775.476,-152.712 791.996,-143.064"/>
<polygon fill="midnightblue" stroke="midnightblue" points="704.8,-260.418 705.789,-270.967 711.594,-262.103 704.8,-260.418"/>
</g>
<!-- Node14 -->
<g id="node14" class="node"><title>Node14</title>
<g id="a_node14"><a xlink:href="PointLight_8cpp.html" target="_top" xlink:title="/home/travis/build\l/STORM&#45;IRIT/Radium&#45;Engine\l/src/Engine/Renderer/Light\l/PointLight.cpp">
<polygon fill="white" stroke="black" points="551,-181 551,-233 699,-233 699,-181 551,-181"/>
<text text-anchor="start" x="559" y="-221" font-family="Helvetica,sans-Serif" font-size="10.00">/home/travis/build</text>
<text text-anchor="start" x="559" y="-210" font-family="Helvetica,sans-Serif" font-size="10.00">/STORM&#45;IRIT/Radium&#45;Engine</text>
<text text-anchor="start" x="559" y="-199" font-family="Helvetica,sans-Serif" font-size="10.00">/src/Engine/Renderer/Light</text>
<text text-anchor="middle" x="625" y="-188" font-family="Helvetica,sans-Serif" font-size="10.00">/PointLight.cpp</text>
</a>
</g>
</g>
<!-- Node13&#45;&gt;Node14 -->
<g id="edge17" class="edge"><title>Node13&#45;&gt;Node14</title>
<path fill="none" stroke="midnightblue" d="M672.367,-262.846C663.851,-252.985 654.665,-242.349 646.67,-233.092"/>
<polygon fill="midnightblue" stroke="midnightblue" points="669.833,-265.266 679.018,-270.547 675.13,-260.691 669.833,-265.266"/>
</g>
<!-- Node15&#45;&gt;Node7 -->
<g id="edge19" class="edge"><title>Node15&#45;&gt;Node7</title>
<path fill="none" stroke="midnightblue" d="M896.828,-262.838C903.042,-254.051 908.701,-244.162 912,-234 919.411,-211.173 921.446,-202.063 912,-180 905.862,-165.664 894.601,-153.067 883.156,-143.039"/>
<polygon fill="midnightblue" stroke="midnightblue" points="893.979,-260.804 890.76,-270.898 899.571,-265.014 893.979,-260.804"/>
</g>
<!-- Node16 -->
<g id="node16" class="node"><title>Node16</title>
<g id="a_node16"><a xlink:href="SpotLight_8cpp.html" target="_top" xlink:title="/home/travis/build\l/STORM&#45;IRIT/Radium&#45;Engine\l/src/Engine/Renderer/Light\l/SpotLight.cpp">
<polygon fill="white" stroke="black" points="755,-181 755,-233 903,-233 903,-181 755,-181"/>
<text text-anchor="start" x="763" y="-221" font-family="Helvetica,sans-Serif" font-size="10.00">/home/travis/build</text>
<text text-anchor="start" x="763" y="-210" font-family="Helvetica,sans-Serif" font-size="10.00">/STORM&#45;IRIT/Radium&#45;Engine</text>
<text text-anchor="start" x="763" y="-199" font-family="Helvetica,sans-Serif" font-size="10.00">/src/Engine/Renderer/Light</text>
<text text-anchor="middle" x="829" y="-188" font-family="Helvetica,sans-Serif" font-size="10.00">/SpotLight.cpp</text>
</a>
</g>
</g>
<!-- Node15&#45;&gt;Node16 -->
<g id="edge20" class="edge"><title>Node15&#45;&gt;Node16</title>
<path fill="none" stroke="midnightblue" d="M851.921,-261.081C847.882,-251.726 843.595,-241.799 839.835,-233.092"/>
<polygon fill="midnightblue" stroke="midnightblue" points="848.831,-262.754 856.009,-270.547 855.258,-259.979 848.831,-262.754"/>
</g>
</g>
</svg>
