<?xml version="1.0" encoding="UTF-8" standalone="no"?>
<!DOCTYPE svg PUBLIC "-//W3C//DTD SVG 1.1//EN"
 "http://www.w3.org/Graphics/SVG/1.1/DTD/svg11.dtd">
<!-- Generated by graphviz version 2.36.0 (20140111.2315)
 -->
<!-- Title: /home/travis/build/STORM&#45;IRIT/Radium&#45;Engine/src/Core/Math/LinearAlgebra.hpp Pages: 1 -->
<svg width="797pt" height="286pt"
 viewBox="0.00 0.00 796.68 286.00" xmlns="http://www.w3.org/2000/svg" xmlns:xlink="http://www.w3.org/1999/xlink">
<g id="graph0" class="graph" transform="scale(1 1) rotate(0) translate(4 282)">
<title>/home/travis/build/STORM&#45;IRIT/Radium&#45;Engine/src/Core/Math/LinearAlgebra.hpp</title>
<polygon fill="white" stroke="none" points="-4,4 -4,-282 792.678,-282 792.678,4 -4,4"/>
<!-- Node1 -->
<g id="node1" class="node"><title>Node1</title>
<polygon fill="#bfbfbf" stroke="black" points="204.178,-236.5 204.178,-277.5 367.178,-277.5 367.178,-236.5 204.178,-236.5"/>
<text text-anchor="start" x="212.178" y="-265.5" font-family="Helvetica,sans-Serif" font-size="10.00">/home/travis/build</text>
<text text-anchor="start" x="212.178" y="-254.5" font-family="Helvetica,sans-Serif" font-size="10.00">/STORM&#45;IRIT/Radium&#45;Engine</text>
<text text-anchor="middle" x="285.678" y="-243.5" font-family="Helvetica,sans-Serif" font-size="10.00">/src/Core/Math/LinearAlgebra.hpp</text>
</g>
<!-- Node2 -->
<g id="node2" class="node"><title>Node2</title>
<g id="a_node2"><a xlink:href="RaCore_8hpp.html" target="_top" xlink:title="Core/RaCore.hpp">
<polygon fill="white" stroke="black" points="136.178,-112.5 136.178,-131.5 229.178,-131.5 229.178,-112.5 136.178,-112.5"/>
<text text-anchor="middle" x="182.678" y="-119.5" font-family="Helvetica,sans-Serif" font-size="10.00">Core/RaCore.hpp</text>
</a>
</g>
</g>
<!-- Node1&#45;&gt;Node2 -->
<g id="edge1" class="edge"><title>Node1&#45;&gt;Node2</title>
<path fill="none" stroke="midnightblue" d="M204.035,-250.696C131.409,-244.073 33.0255,-229.763 8.67756,-200 -27.1101,-156.253 62.6629,-136.588 126.146,-128.355"/>
<polygon fill="midnightblue" stroke="midnightblue" points="126.589,-131.827 136.086,-127.13 125.733,-124.88 126.589,-131.827"/>
</g>
<!-- Node9 -->
<g id="node9" class="node"><title>Node9</title>
<polygon fill="white" stroke="#bfbfbf" points="18.1776,-174.5 18.1776,-193.5 83.1776,-193.5 83.1776,-174.5 18.1776,-174.5"/>
<text text-anchor="middle" x="50.6776" y="-181.5" font-family="Helvetica,sans-Serif" font-size="10.00">Eigen/Core</text>
</g>
<!-- Node1&#45;&gt;Node9 -->
<g id="edge8" class="edge"><title>Node1&#45;&gt;Node9</title>
<path fill="none" stroke="midnightblue" d="M213.451,-236.443C176.789,-226.189 131.663,-213.068 91.6776,-200 88.7462,-199.042 85.711,-198.01 82.679,-196.951"/>
<polygon fill="midnightblue" stroke="midnightblue" points="83.7305,-193.61 73.1359,-193.536 81.3724,-200.201 83.7305,-193.61"/>
</g>
<!-- Node10 -->
<g id="node10" class="node"><title>Node10</title>
<polygon fill="white" stroke="#bfbfbf" points="101.178,-174.5 101.178,-193.5 188.178,-193.5 188.178,-174.5 101.178,-174.5"/>
<text text-anchor="middle" x="144.678" y="-181.5" font-family="Helvetica,sans-Serif" font-size="10.00">Eigen/Geometry</text>
</g>
<!-- Node1&#45;&gt;Node10 -->
<g id="edge9" class="edge"><title>Node1&#45;&gt;Node10</title>
<path fill="none" stroke="midnightblue" d="M246.775,-236.411C222.6,-224.238 192.175,-208.917 170.852,-198.18"/>
<polygon fill="midnightblue" stroke="midnightblue" points="172.256,-194.968 161.75,-193.597 169.108,-201.22 172.256,-194.968"/>
</g>
<!-- Node11 -->
<g id="node11" class="node"><title>Node11</title>
<polygon fill="white" stroke="#bfbfbf" points="206.178,-174.5 206.178,-193.5 281.178,-193.5 281.178,-174.5 206.178,-174.5"/>
<text text-anchor="middle" x="243.678" y="-181.5" font-family="Helvetica,sans-Serif" font-size="10.00">Eigen/Sparse</text>
</g>
<!-- Node1&#45;&gt;Node11 -->
<g id="edge10" class="edge"><title>Node1&#45;&gt;Node11</title>
<path fill="none" stroke="midnightblue" d="M273.978,-236.223C267.724,-225.65 260.091,-212.747 254.051,-202.536"/>
<polygon fill="midnightblue" stroke="midnightblue" points="256.949,-200.56 248.845,-193.735 250.924,-204.124 256.949,-200.56"/>
</g>
<!-- Node12 -->
<g id="node12" class="node"><title>Node12</title>
<polygon fill="white" stroke="#bfbfbf" points="299.178,-174.5 299.178,-193.5 358.178,-193.5 358.178,-174.5 299.178,-174.5"/>
<text text-anchor="middle" x="328.678" y="-181.5" font-family="Helvetica,sans-Serif" font-size="10.00">functional</text>
</g>
<!-- Node1&#45;&gt;Node12 -->
<g id="edge11" class="edge"><title>Node1&#45;&gt;Node12</title>
<path fill="none" stroke="midnightblue" d="M297.655,-236.223C304.058,-225.65 311.873,-212.747 318.057,-202.536"/>
<polygon fill="midnightblue" stroke="midnightblue" points="321.201,-204.102 323.387,-193.735 315.213,-200.475 321.201,-204.102"/>
</g>
<!-- Node13 -->
<g id="node13" class="node"><title>Node13</title>
<polygon fill="white" stroke="#bfbfbf" points="376.178,-169 376.178,-199 509.178,-199 509.178,-169 376.178,-169"/>
<text text-anchor="start" x="384.178" y="-187" font-family="Helvetica,sans-Serif" font-size="10.00">unsupported/Eigen/Aligned</text>
<text text-anchor="middle" x="442.678" y="-176" font-family="Helvetica,sans-Serif" font-size="10.00">Vector3</text>
</g>
<!-- Node1&#45;&gt;Node13 -->
<g id="edge12" class="edge"><title>Node1&#45;&gt;Node13</title>
<path fill="none" stroke="midnightblue" d="M328.994,-236.411C351.867,-226.067 379.764,-213.452 402.198,-203.306"/>
<polygon fill="midnightblue" stroke="midnightblue" points="403.779,-206.432 411.448,-199.123 400.894,-200.054 403.779,-206.432"/>
</g>
<!-- Node14 -->
<g id="node14" class="node"><title>Node14</title>
<g id="a_node14"><a xlink:href="Math_8hpp.html" target="_top" xlink:title="Core/Math/Math.hpp">
<polygon fill="white" stroke="black" points="527.678,-174.5 527.678,-193.5 633.678,-193.5 633.678,-174.5 527.678,-174.5"/>
<text text-anchor="middle" x="580.678" y="-181.5" font-family="Helvetica,sans-Serif" font-size="10.00">Core/Math/Math.hpp</text>
</a>
</g>
</g>
<!-- Node1&#45;&gt;Node14 -->
<g id="edge13" class="edge"><title>Node1&#45;&gt;Node14</title>
<path fill="none" stroke="midnightblue" d="M367.069,-236.411C421.338,-223.35 490.661,-206.665 535.363,-195.906"/>
<polygon fill="midnightblue" stroke="midnightblue" points="536.439,-199.247 545.342,-193.504 534.801,-192.442 536.439,-199.247"/>
</g>
<!-- Node18 -->
<g id="node18" class="node"><title>Node18</title>
<g id="a_node18"><a xlink:href="LinearAlgebra_8inl.html" target="_top" xlink:title="Core/Math/LinearAlgebra.inl">
<polygon fill="white" stroke="black" points="652.178,-174.5 652.178,-193.5 789.178,-193.5 789.178,-174.5 652.178,-174.5"/>
<text text-anchor="middle" x="720.678" y="-181.5" font-family="Helvetica,sans-Serif" font-size="10.00">Core/Math/LinearAlgebra.inl</text>
</a>
</g>
</g>
<!-- Node1&#45;&gt;Node18 -->
<g id="edge19" class="edge"><title>Node1&#45;&gt;Node18</title>
<path fill="none" stroke="midnightblue" d="M367.454,-243.887C439.688,-233.009 547.824,-216.288 641.678,-200 649.794,-198.591 658.366,-197.035 666.752,-195.474"/>
<polygon fill="midnightblue" stroke="midnightblue" points="667.665,-198.864 676.847,-193.578 666.372,-191.985 667.665,-198.864"/>
</g>
<!-- Node3 -->
<g id="node3" class="node"><title>Node3</title>
<g id="a_node3"><a xlink:href="CoreMacros_8hpp.html" target="_top" xlink:title="Core/CoreMacros.hpp">
<polygon fill="white" stroke="black" points="126.178,-56.5 126.178,-75.5 239.178,-75.5 239.178,-56.5 126.178,-56.5"/>
<text text-anchor="middle" x="182.678" y="-63.5" font-family="Helvetica,sans-Serif" font-size="10.00">Core/CoreMacros.hpp</text>
</a>
</g>
</g>
<!-- Node2&#45;&gt;Node3 -->
<g id="edge2" class="edge"><title>Node2&#45;&gt;Node3</title>
<path fill="none" stroke="midnightblue" d="M182.678,-112.083C182.678,-105.006 182.678,-94.8611 182.678,-85.9865"/>
<polygon fill="midnightblue" stroke="midnightblue" points="186.178,-85.751 182.678,-75.7511 179.178,-85.7511 186.178,-85.751"/>
</g>
<!-- Node4 -->
<g id="node4" class="node"><title>Node4</title>
<polygon fill="white" stroke="#bfbfbf" points="27.1776,-0.5 27.1776,-19.5 76.1776,-19.5 76.1776,-0.5 27.1776,-0.5"/>
<text text-anchor="middle" x="51.6776" y="-7.5" font-family="Helvetica,sans-Serif" font-size="10.00">cassert</text>
</g>
<!-- Node3&#45;&gt;Node4 -->
<g id="edge3" class="edge"><title>Node3&#45;&gt;Node4</title>
<path fill="none" stroke="midnightblue" d="M161.92,-56.4435C140.361,-47.5566 106.414,-33.5632 81.8838,-23.4514"/>
<polygon fill="midnightblue" stroke="midnightblue" points="82.917,-20.0917 72.3378,-19.5164 80.2492,-26.5634 82.917,-20.0917"/>
</g>
<!-- Node5 -->
<g id="node5" class="node"><title>Node5</title>
<polygon fill="white" stroke="#bfbfbf" points="94.1776,-0.5 94.1776,-19.5 137.178,-19.5 137.178,-0.5 94.1776,-0.5"/>
<text text-anchor="middle" x="115.678" y="-7.5" font-family="Helvetica,sans-Serif" font-size="10.00">cstdio</text>
</g>
<!-- Node3&#45;&gt;Node5 -->
<g id="edge4" class="edge"><title>Node3&#45;&gt;Node5</title>
<path fill="none" stroke="midnightblue" d="M171.913,-56.324C161.911,-48.2631 146.791,-36.0765 134.747,-26.3695"/>
<polygon fill="midnightblue" stroke="midnightblue" points="136.62,-23.3841 126.638,-19.8339 132.228,-28.8343 136.62,-23.3841"/>
</g>
<!-- Node6 -->
<g id="node6" class="node"><title>Node6</title>
<polygon fill="white" stroke="#bfbfbf" points="155.678,-0.5 155.678,-19.5 209.678,-19.5 209.678,-0.5 155.678,-0.5"/>
<text text-anchor="middle" x="182.678" y="-7.5" font-family="Helvetica,sans-Serif" font-size="10.00">iostream</text>
</g>
<!-- Node3&#45;&gt;Node6 -->
<g id="edge5" class="edge"><title>Node3&#45;&gt;Node6</title>
<path fill="none" stroke="midnightblue" d="M182.678,-56.083C182.678,-49.0059 182.678,-38.8611 182.678,-29.9865"/>
<polygon fill="midnightblue" stroke="midnightblue" points="186.178,-29.751 182.678,-19.7511 179.178,-29.7511 186.178,-29.751"/>
</g>
<!-- Node7 -->
<g id="node7" class="node"><title>Node7</title>
<polygon fill="white" stroke="#bfbfbf" points="227.678,-0.5 227.678,-19.5 279.678,-19.5 279.678,-0.5 227.678,-0.5"/>
<text text-anchor="middle" x="253.678" y="-7.5" font-family="Helvetica,sans-Serif" font-size="10.00">sstream</text>
</g>
<!-- Node3&#45;&gt;Node7 -->
<g id="edge6" class="edge"><title>Node3&#45;&gt;Node7</title>
<path fill="none" stroke="midnightblue" d="M194.085,-56.324C204.786,-48.1849 221.018,-35.8395 233.84,-26.0874"/>
<polygon fill="midnightblue" stroke="midnightblue" points="236.222,-28.6734 242.063,-19.8339 231.984,-23.1018 236.222,-28.6734"/>
</g>
<!-- Node8 -->
<g id="node8" class="node"><title>Node8</title>
<polygon fill="white" stroke="#bfbfbf" points="297.678,-0.5 297.678,-19.5 341.678,-19.5 341.678,-0.5 297.678,-0.5"/>
<text text-anchor="middle" x="319.678" y="-7.5" font-family="Helvetica,sans-Serif" font-size="10.00">thread</text>
</g>
<!-- Node3&#45;&gt;Node8 -->
<g id="edge7" class="edge"><title>Node3&#45;&gt;Node8</title>
<path fill="none" stroke="midnightblue" d="M204.386,-56.4435C227.032,-47.5171 262.75,-33.4387 288.429,-23.3168"/>
<polygon fill="midnightblue" stroke="midnightblue" points="290.051,-26.4397 298.071,-19.5164 287.484,-19.9273 290.051,-26.4397"/>
</g>
<!-- Node14&#45;&gt;Node2 -->
<g id="edge14" class="edge"><title>Node14&#45;&gt;Node2</title>
<path fill="none" stroke="midnightblue" d="M547.461,-174.433C537.89,-172.144 527.405,-169.807 517.678,-168 420.606,-149.971 306.429,-136.203 239.56,-128.882"/>
<polygon fill="midnightblue" stroke="midnightblue" points="239.563,-125.362 229.244,-127.763 238.808,-132.321 239.563,-125.362"/>
</g>
<!-- Node15 -->
<g id="node15" class="node"><title>Node15</title>
<polygon fill="white" stroke="#bfbfbf" points="439.678,-112.5 439.678,-131.5 495.678,-131.5 495.678,-112.5 439.678,-112.5"/>
<text text-anchor="middle" x="467.678" y="-119.5" font-family="Helvetica,sans-Serif" font-size="10.00">algorithm</text>
</g>
<!-- Node14&#45;&gt;Node15 -->
<g id="edge15" class="edge"><title>Node14&#45;&gt;Node15</title>
<path fill="none" stroke="midnightblue" d="M564.487,-174.403C545.775,-164.468 514.754,-147.997 492.879,-136.381"/>
<polygon fill="midnightblue" stroke="midnightblue" points="494.311,-133.179 483.838,-131.581 491.028,-139.362 494.311,-133.179"/>
</g>
<!-- Node16 -->
<g id="node16" class="node"><title>Node16</title>
<polygon fill="white" stroke="#bfbfbf" points="513.678,-112.5 513.678,-131.5 557.678,-131.5 557.678,-112.5 513.678,-112.5"/>
<text text-anchor="middle" x="535.678" y="-119.5" font-family="Helvetica,sans-Serif" font-size="10.00">cmath</text>
</g>
<!-- Node14&#45;&gt;Node16 -->
<g id="edge16" class="edge"><title>Node14&#45;&gt;Node16</title>
<path fill="none" stroke="midnightblue" d="M574.23,-174.403C567.48,-165.403 556.708,-151.041 548.264,-139.782"/>
<polygon fill="midnightblue" stroke="midnightblue" points="550.913,-137.481 542.113,-131.581 545.313,-141.681 550.913,-137.481"/>
</g>
<!-- Node17 -->
<g id="node17" class="node"><title>Node17</title>
<g id="a_node17"><a xlink:href="Math_8inl.html" target="_top" xlink:title="Core/Math/Math.inl">
<polygon fill="white" stroke="black" points="575.678,-112.5 575.678,-131.5 675.678,-131.5 675.678,-112.5 575.678,-112.5"/>
<text text-anchor="middle" x="625.678" y="-119.5" font-family="Helvetica,sans-Serif" font-size="10.00">Core/Math/Math.inl</text>
</a>
</g>
</g>
<!-- Node14&#45;&gt;Node17 -->
<g id="edge17" class="edge"><title>Node14&#45;&gt;Node17</title>
<path fill="none" stroke="midnightblue" d="M582.224,-174.403C587.123,-165.225 597.802,-150.47 607.528,-139.117"/>
<polygon fill="midnightblue" stroke="midnightblue" points="610.233,-141.345 614.345,-131.581 605.041,-136.649 610.233,-141.345"/>
</g>
<!-- Node17&#45;&gt;Node14 -->
<g id="edge18" class="edge"><title>Node17&#45;&gt;Node14</title>
<path fill="none" stroke="midnightblue" d="M624.139,-131.581C619.247,-140.752 608.571,-155.506 598.844,-166.863"/>
<polygon fill="midnightblue" stroke="midnightblue" points="596.137,-164.639 592.026,-174.403 601.329,-169.334 596.137,-164.639"/>
</g>
</g>
</svg>
