<?xml version="1.0" encoding="UTF-8" standalone="no"?>
<!DOCTYPE svg PUBLIC "-//W3C//DTD SVG 1.1//EN"
 "http://www.w3.org/Graphics/SVG/1.1/DTD/svg11.dtd">
<!-- Generated by graphviz version 2.36.0 (20140111.2315)
 -->
<!-- Title: /home/travis/build/STORM&#45;IRIT/Radium&#45;Engine/src/Core/Animation/Skinning/LinearBlendSkinning.hpp Pages: 1 -->
<svg width="558pt" height="152pt"
 viewBox="0.00 0.00 558.00 152.00" xmlns="http://www.w3.org/2000/svg" xmlns:xlink="http://www.w3.org/1999/xlink">
<g id="graph0" class="graph" transform="scale(1 1) rotate(0) translate(4 148)">
<title>/home/travis/build/STORM&#45;IRIT/Radium&#45;Engine/src/Core/Animation/Skinning/LinearBlendSkinning.hpp</title>
<polygon fill="white" stroke="none" points="-4,4 -4,-148 554,-148 554,4 -4,4"/>
<!-- Node1 -->
<g id="node1" class="node"><title>Node1</title>
<polygon fill="#bfbfbf" stroke="black" points="166,-91 166,-143 314,-143 314,-91 166,-91"/>
<text text-anchor="start" x="174" y="-131" font-family="Helvetica,sans-Serif" font-size="10.00">/home/travis/build</text>
<text text-anchor="start" x="174" y="-120" font-family="Helvetica,sans-Serif" font-size="10.00">/STORM&#45;IRIT/Radium&#45;Engine</text>
<text text-anchor="start" x="174" y="-109" font-family="Helvetica,sans-Serif" font-size="10.00">/src/Core/Animation/Skinning</text>
<text text-anchor="middle" x="240" y="-98" font-family="Helvetica,sans-Serif" font-size="10.00">/LinearBlendSkinning.hpp</text>
</g>
<!-- Node2 -->
<g id="node2" class="node"><title>Node2</title>
<g id="a_node2"><a xlink:href="LinearBlendSkinning_8cpp.html" target="_top" xlink:title="/home/travis/build\l/STORM&#45;IRIT/Radium&#45;Engine\l/src/Core/Animation/Skinning\l/LinearBlendSkinning.cpp">
<polygon fill="white" stroke="black" points="0,-1 0,-53 148,-53 148,-1 0,-1"/>
<text text-anchor="start" x="8" y="-41" font-family="Helvetica,sans-Serif" font-size="10.00">/home/travis/build</text>
<text text-anchor="start" x="8" y="-30" font-family="Helvetica,sans-Serif" font-size="10.00">/STORM&#45;IRIT/Radium&#45;Engine</text>
<text text-anchor="start" x="8" y="-19" font-family="Helvetica,sans-Serif" font-size="10.00">/src/Core/Animation/Skinning</text>
<text text-anchor="middle" x="74" y="-8" font-family="Helvetica,sans-Serif" font-size="10.00">/LinearBlendSkinning.cpp</text>
</a>
</g>
</g>
<!-- Node1&#45;&gt;Node2 -->
<g id="edge1" class="edge"><title>Node1&#45;&gt;Node2</title>
<path fill="none" stroke="midnightblue" d="M183.334,-85.9601C163.136,-75.2526 140.616,-63.3145 121.289,-53.0687"/>
<polygon fill="midnightblue" stroke="midnightblue" points="181.956,-89.1913 192.431,-90.7827 185.235,-83.0066 181.956,-89.1913"/>
</g>
<!-- Node3 -->
<g id="node3" class="node"><title>Node3</title>
<g id="a_node3"><a xlink:href="RotationCenterSkinning_8cpp.html" target="_top" xlink:title="/home/travis/build\l/STORM&#45;IRIT/Radium&#45;Engine\l/src/Core/Animation/Skinning\l/RotationCenterSkinning.cpp">
<polygon fill="white" stroke="black" points="166,-1 166,-53 314,-53 314,-1 166,-1"/>
<text text-anchor="start" x="174" y="-41" font-family="Helvetica,sans-Serif" font-size="10.00">/home/travis/build</text>
<text text-anchor="start" x="174" y="-30" font-family="Helvetica,sans-Serif" font-size="10.00">/STORM&#45;IRIT/Radium&#45;Engine</text>
<text text-anchor="start" x="174" y="-19" font-family="Helvetica,sans-Serif" font-size="10.00">/src/Core/Animation/Skinning</text>
<text text-anchor="middle" x="240" y="-8" font-family="Helvetica,sans-Serif" font-size="10.00">/RotationCenterSkinning.cpp</text>
</a>
</g>
</g>
<!-- Node1&#45;&gt;Node3 -->
<g id="edge2" class="edge"><title>Node1&#45;&gt;Node3</title>
<path fill="none" stroke="midnightblue" d="M240,-80.4892C240,-71.3088 240,-61.616 240,-53.0921"/>
<polygon fill="midnightblue" stroke="midnightblue" points="236.5,-80.5467 240,-90.5468 243.5,-80.5468 236.5,-80.5467"/>
</g>
<!-- Node4 -->
<g id="node4" class="node"><title>Node4</title>
<g id="a_node4"><a xlink:href="SkinningComponent_8cpp.html" target="_top" xlink:title="/home/travis/build\l/STORM&#45;IRIT/Radium&#45;Engine\l/Plugins/Skinning/src/SkinningComponent.cpp">
<polygon fill="white" stroke="black" points="332,-6.5 332,-47.5 550,-47.5 550,-6.5 332,-6.5"/>
<text text-anchor="start" x="340" y="-35.5" font-family="Helvetica,sans-Serif" font-size="10.00">/home/travis/build</text>
<text text-anchor="start" x="340" y="-24.5" font-family="Helvetica,sans-Serif" font-size="10.00">/STORM&#45;IRIT/Radium&#45;Engine</text>
<text text-anchor="middle" x="441" y="-13.5" font-family="Helvetica,sans-Serif" font-size="10.00">/Plugins/Skinning/src/SkinningComponent.cpp</text>
</a>
</g>
</g>
<!-- Node1&#45;&gt;Node4 -->
<g id="edge3" class="edge"><title>Node1&#45;&gt;Node4</title>
<path fill="none" stroke="midnightblue" d="M306.726,-86.7865C336.189,-73.8875 370.033,-59.07 396.373,-47.5384"/>
<polygon fill="midnightblue" stroke="midnightblue" points="305.086,-83.6837 297.33,-90.9005 307.894,-90.0961 305.086,-83.6837"/>
</g>
</g>
</svg>
