<?xml version="1.0" encoding="UTF-8" standalone="no"?>
<!DOCTYPE svg PUBLIC "-//W3C//DTD SVG 1.1//EN"
 "http://www.w3.org/Graphics/SVG/1.1/DTD/svg11.dtd">
<!-- Generated by graphviz version 2.36.0 (20140111.2315)
 -->
<!-- Title: /home/travis/build/STORM&#45;IRIT/Radium&#45;Engine/src/Core/File/deprecated/MAPFileManager.cpp Pages: 1 -->
<svg width="1359pt" height="502pt"
 viewBox="0.00 0.00 1359.00 502.00" xmlns="http://www.w3.org/2000/svg" xmlns:xlink="http://www.w3.org/1999/xlink">
<g id="graph0" class="graph" transform="scale(1 1) rotate(0) translate(4 498)">
<title>/home/travis/build/STORM&#45;IRIT/Radium&#45;Engine/src/Core/File/deprecated/MAPFileManager.cpp</title>
<polygon fill="white" stroke="none" points="-4,4 -4,-498 1355,-498 1355,4 -4,4"/>
<!-- Node1 -->
<g id="node1" class="node"><title>Node1</title>
<polygon fill="#bfbfbf" stroke="black" points="311,-441 311,-493 459,-493 459,-441 311,-441"/>
<text text-anchor="start" x="319" y="-481" font-family="Helvetica,sans-Serif" font-size="10.00">/home/travis/build</text>
<text text-anchor="start" x="319" y="-470" font-family="Helvetica,sans-Serif" font-size="10.00">/STORM&#45;IRIT/Radium&#45;Engine</text>
<text text-anchor="start" x="319" y="-459" font-family="Helvetica,sans-Serif" font-size="10.00">/src/Core/File/deprecated</text>
<text text-anchor="middle" x="385" y="-448" font-family="Helvetica,sans-Serif" font-size="10.00">/MAPFileManager.cpp</text>
</g>
<!-- Node2 -->
<g id="node2" class="node"><title>Node2</title>
<g id="a_node2"><a xlink:href="MAPFileManager_8hpp.html" target="_top" xlink:title="Core/File/deprecated\l/MAPFileManager.hpp">
<polygon fill="white" stroke="black" points="328.5,-373 328.5,-403 441.5,-403 441.5,-373 328.5,-373"/>
<text text-anchor="start" x="336.5" y="-391" font-family="Helvetica,sans-Serif" font-size="10.00">Core/File/deprecated</text>
<text text-anchor="middle" x="385" y="-380" font-family="Helvetica,sans-Serif" font-size="10.00">/MAPFileManager.hpp</text>
</a>
</g>
</g>
<!-- Node1&#45;&gt;Node2 -->
<g id="edge1" class="edge"><title>Node1&#45;&gt;Node2</title>
<path fill="none" stroke="midnightblue" d="M385,-440.787C385,-432.029 385,-422.225 385,-413.523"/>
<polygon fill="midnightblue" stroke="midnightblue" points="388.5,-413.252 385,-403.252 381.5,-413.252 388.5,-413.252"/>
</g>
<!-- Node3 -->
<g id="node3" class="node"><title>Node3</title>
<g id="a_node3"><a xlink:href="FileManager_8hpp.html" target="_top" xlink:title="Core/File/deprecated\l/FileManager.hpp">
<polygon fill="white" stroke="black" points="127.5,-305 127.5,-335 234.5,-335 234.5,-305 127.5,-305"/>
<text text-anchor="start" x="135.5" y="-323" font-family="Helvetica,sans-Serif" font-size="10.00">Core/File/deprecated</text>
<text text-anchor="middle" x="181" y="-312" font-family="Helvetica,sans-Serif" font-size="10.00">/FileManager.hpp</text>
</a>
</g>
</g>
<!-- Node2&#45;&gt;Node3 -->
<g id="edge2" class="edge"><title>Node2&#45;&gt;Node3</title>
<path fill="none" stroke="midnightblue" d="M341.487,-372.922C310.069,-362.757 267.468,-348.975 234.053,-338.164"/>
<polygon fill="midnightblue" stroke="midnightblue" points="235.038,-334.804 224.446,-335.056 232.883,-341.464 235.038,-334.804"/>
</g>
<!-- Node7 -->
<g id="node7" class="node"><title>Node7</title>
<g id="a_node7"><a xlink:href="Mapping_8hpp.html" target="_top" xlink:title="Core/Geometry/Mapping\l/Mapping.hpp">
<polygon fill="white" stroke="black" points="527.5,-305 527.5,-335 650.5,-335 650.5,-305 527.5,-305"/>
<text text-anchor="start" x="535.5" y="-323" font-family="Helvetica,sans-Serif" font-size="10.00">Core/Geometry/Mapping</text>
<text text-anchor="middle" x="589" y="-312" font-family="Helvetica,sans-Serif" font-size="10.00">/Mapping.hpp</text>
</a>
</g>
</g>
<!-- Node2&#45;&gt;Node7 -->
<g id="edge7" class="edge"><title>Node2&#45;&gt;Node7</title>
<path fill="none" stroke="midnightblue" d="M428.513,-372.922C459.931,-362.757 502.532,-348.975 535.947,-338.164"/>
<polygon fill="midnightblue" stroke="midnightblue" points="537.117,-341.464 545.554,-335.056 534.962,-334.804 537.117,-341.464"/>
</g>
<!-- Node4 -->
<g id="node4" class="node"><title>Node4</title>
<polygon fill="white" stroke="#bfbfbf" points="0,-242.5 0,-261.5 50,-261.5 50,-242.5 0,-242.5"/>
<text text-anchor="middle" x="25" y="-249.5" font-family="Helvetica,sans-Serif" font-size="10.00">fstream</text>
</g>
<!-- Node3&#45;&gt;Node4 -->
<g id="edge3" class="edge"><title>Node3&#45;&gt;Node4</title>
<path fill="none" stroke="midnightblue" d="M147.005,-304.997C122.49,-294.849 88.6357,-280.73 59,-268 57.2216,-267.236 55.3931,-266.445 53.5507,-265.644"/>
<polygon fill="midnightblue" stroke="midnightblue" points="54.9539,-262.438 44.3898,-261.632 52.1459,-268.85 54.9539,-262.438"/>
</g>
<!-- Node5 -->
<g id="node5" class="node"><title>Node5</title>
<polygon fill="white" stroke="#bfbfbf" points="68.5,-242.5 68.5,-261.5 109.5,-261.5 109.5,-242.5 68.5,-242.5"/>
<text text-anchor="middle" x="89" y="-249.5" font-family="Helvetica,sans-Serif" font-size="10.00">string</text>
</g>
<!-- Node3&#45;&gt;Node5 -->
<g id="edge4" class="edge"><title>Node3&#45;&gt;Node5</title>
<path fill="none" stroke="midnightblue" d="M161.037,-304.679C145.752,-293.713 124.748,-278.645 109.363,-267.609"/>
<polygon fill="midnightblue" stroke="midnightblue" points="111.206,-264.623 101.041,-261.638 107.126,-270.311 111.206,-264.623"/>
</g>
<!-- Node6 -->
<g id="node6" class="node"><title>Node6</title>
<g id="a_node6"><a xlink:href="FileManager_8inl.html" target="_top" xlink:title="Core/File/deprecated\l/FileManager.inl">
<polygon fill="white" stroke="black" points="127.5,-237 127.5,-267 234.5,-267 234.5,-237 127.5,-237"/>
<text text-anchor="start" x="135.5" y="-255" font-family="Helvetica,sans-Serif" font-size="10.00">Core/File/deprecated</text>
<text text-anchor="middle" x="181" y="-244" font-family="Helvetica,sans-Serif" font-size="10.00">/FileManager.inl</text>
</a>
</g>
</g>
<!-- Node3&#45;&gt;Node6 -->
<g id="edge5" class="edge"><title>Node3&#45;&gt;Node6</title>
<path fill="none" stroke="midnightblue" d="M175.322,-304.679C174.294,-296.722 174.005,-286.605 174.456,-277.436"/>
<polygon fill="midnightblue" stroke="midnightblue" points="177.959,-277.555 175.325,-267.293 170.984,-276.958 177.959,-277.555"/>
</g>
<!-- Node6&#45;&gt;Node3 -->
<g id="edge6" class="edge"><title>Node6&#45;&gt;Node3</title>
<path fill="none" stroke="midnightblue" d="M186.675,-267.293C187.704,-275.245 187.995,-285.361 187.545,-294.532"/>
<polygon fill="midnightblue" stroke="midnightblue" points="184.042,-294.417 186.678,-304.679 191.017,-295.013 184.042,-294.417"/>
</g>
<!-- Node8 -->
<g id="node8" class="node"><title>Node8</title>
<g id="a_node8"><a xlink:href="AlignedStdVector_8hpp.html" target="_top" xlink:title="Core/Containers/AlignedStd\lVector.hpp">
<polygon fill="white" stroke="black" points="253,-237 253,-267 391,-267 391,-237 253,-237"/>
<text text-anchor="start" x="261" y="-255" font-family="Helvetica,sans-Serif" font-size="10.00">Core/Containers/AlignedStd</text>
<text text-anchor="middle" x="322" y="-244" font-family="Helvetica,sans-Serif" font-size="10.00">Vector.hpp</text>
</a>
</g>
</g>
<!-- Node7&#45;&gt;Node8 -->
<g id="edge8" class="edge"><title>Node7&#45;&gt;Node8</title>
<path fill="none" stroke="midnightblue" d="M532.049,-304.922C490.046,-294.539 432.771,-280.382 388.639,-269.472"/>
<polygon fill="midnightblue" stroke="midnightblue" points="389.411,-266.058 378.863,-267.056 387.731,-272.854 389.411,-266.058"/>
</g>
<!-- Node18 -->
<g id="node18" class="node"><title>Node18</title>
<g id="a_node18"><a xlink:href="Index_8hpp.html" target="_top" xlink:title="Core/Index/Index.hpp">
<polygon fill="white" stroke="black" points="417,-242.5 417,-261.5 527,-261.5 527,-242.5 417,-242.5"/>
<text text-anchor="middle" x="472" y="-249.5" font-family="Helvetica,sans-Serif" font-size="10.00">Core/Index/Index.hpp</text>
</a>
</g>
</g>
<!-- Node7&#45;&gt;Node18 -->
<g id="edge18" class="edge"><title>Node7&#45;&gt;Node18</title>
<path fill="none" stroke="midnightblue" d="M563.901,-304.841C543.845,-293.528 515.912,-277.771 496.119,-266.605"/>
<polygon fill="midnightblue" stroke="midnightblue" points="497.82,-263.547 487.391,-261.682 494.381,-269.644 497.82,-263.547"/>
</g>
<!-- Node21 -->
<g id="node21" class="node"><title>Node21</title>
<g id="a_node21"><a xlink:href="LinearAlgebra_8hpp.html" target="_top" xlink:title="Core/Math/LinearAlgebra.hpp">
<polygon fill="white" stroke="black" points="635.5,-242.5 635.5,-261.5 778.5,-261.5 778.5,-242.5 635.5,-242.5"/>
<text text-anchor="middle" x="707" y="-249.5" font-family="Helvetica,sans-Serif" font-size="10.00">Core/Math/LinearAlgebra.hpp</text>
</a>
</g>
</g>
<!-- Node7&#45;&gt;Node21 -->
<g id="edge21" class="edge"><title>Node7&#45;&gt;Node21</title>
<path fill="none" stroke="midnightblue" d="M614.314,-304.841C634.541,-293.528 662.713,-277.771 682.675,-266.605"/>
<polygon fill="midnightblue" stroke="midnightblue" points="684.459,-269.618 691.478,-261.682 681.042,-263.509 684.459,-269.618"/>
</g>
<!-- Node32 -->
<g id="node32" class="node"><title>Node32</title>
<g id="a_node32"><a xlink:href="Mapping_8inl.html" target="_top" xlink:title="Core/Geometry/Mapping\l/Mapping.inl">
<polygon fill="white" stroke="black" points="796.5,-237 796.5,-267 919.5,-267 919.5,-237 796.5,-237"/>
<text text-anchor="start" x="804.5" y="-255" font-family="Helvetica,sans-Serif" font-size="10.00">Core/Geometry/Mapping</text>
<text text-anchor="middle" x="858" y="-244" font-family="Helvetica,sans-Serif" font-size="10.00">/Mapping.inl</text>
</a>
</g>
</g>
<!-- Node7&#45;&gt;Node32 -->
<g id="edge35" class="edge"><title>Node7&#45;&gt;Node32</title>
<path fill="none" stroke="midnightblue" d="M640.731,-304.922C682.184,-294.412 740.707,-280.033 786.607,-269.072"/>
<polygon fill="midnightblue" stroke="midnightblue" points="787.578,-272.438 796.495,-266.717 785.956,-265.629 787.578,-272.438"/>
</g>
<!-- Node9 -->
<g id="node9" class="node"><title>Node9</title>
<g id="a_node9"><a xlink:href="RaCore_8hpp.html" target="_top" xlink:title="Core/RaCore.hpp">
<polygon fill="white" stroke="black" points="505.5,-112.5 505.5,-131.5 598.5,-131.5 598.5,-112.5 505.5,-112.5"/>
<text text-anchor="middle" x="552" y="-119.5" font-family="Helvetica,sans-Serif" font-size="10.00">Core/RaCore.hpp</text>
</a>
</g>
</g>
<!-- Node8&#45;&gt;Node9 -->
<g id="edge9" class="edge"><title>Node8&#45;&gt;Node9</title>
<path fill="none" stroke="midnightblue" d="M259.62,-236.978C211.247,-223.288 156.804,-199.864 185,-168 205.209,-145.162 397.629,-131.434 495.465,-125.875"/>
<polygon fill="midnightblue" stroke="midnightblue" points="495.696,-129.368 505.485,-125.316 495.306,-122.379 495.696,-129.368"/>
</g>
<!-- Node16 -->
<g id="node16" class="node"><title>Node16</title>
<polygon fill="white" stroke="#bfbfbf" points="194,-174.5 194,-193.5 282,-193.5 282,-174.5 194,-174.5"/>
<text text-anchor="middle" x="238" y="-181.5" font-family="Helvetica,sans-Serif" font-size="10.00">Eigen/StdVector</text>
</g>
<!-- Node8&#45;&gt;Node16 -->
<g id="edge16" class="edge"><title>Node8&#45;&gt;Node16</title>
<path fill="none" stroke="midnightblue" d="M303.773,-236.679C290.027,-225.879 271.216,-211.098 257.231,-200.11"/>
<polygon fill="midnightblue" stroke="midnightblue" points="259.262,-197.254 249.236,-193.828 254.937,-202.759 259.262,-197.254"/>
</g>
<!-- Node17 -->
<g id="node17" class="node"><title>Node17</title>
<polygon fill="white" stroke="#bfbfbf" points="300,-174.5 300,-193.5 344,-193.5 344,-174.5 300,-174.5"/>
<text text-anchor="middle" x="322" y="-181.5" font-family="Helvetica,sans-Serif" font-size="10.00">vector</text>
</g>
<!-- Node8&#45;&gt;Node17 -->
<g id="edge17" class="edge"><title>Node8&#45;&gt;Node17</title>
<path fill="none" stroke="midnightblue" d="M322,-236.679C322,-227.101 322,-214.394 322,-203.977"/>
<polygon fill="midnightblue" stroke="midnightblue" points="325.5,-203.828 322,-193.828 318.5,-203.828 325.5,-203.828"/>
</g>
<!-- Node10 -->
<g id="node10" class="node"><title>Node10</title>
<g id="a_node10"><a xlink:href="CoreMacros_8hpp.html" target="_top" xlink:title="Core/CoreMacros.hpp">
<polygon fill="white" stroke="black" points="495.5,-56.5 495.5,-75.5 608.5,-75.5 608.5,-56.5 495.5,-56.5"/>
<text text-anchor="middle" x="552" y="-63.5" font-family="Helvetica,sans-Serif" font-size="10.00">Core/CoreMacros.hpp</text>
</a>
</g>
</g>
<!-- Node9&#45;&gt;Node10 -->
<g id="edge10" class="edge"><title>Node9&#45;&gt;Node10</title>
<path fill="none" stroke="midnightblue" d="M552,-112.083C552,-105.006 552,-94.8611 552,-85.9865"/>
<polygon fill="midnightblue" stroke="midnightblue" points="555.5,-85.751 552,-75.7511 548.5,-85.7511 555.5,-85.751"/>
</g>
<!-- Node11 -->
<g id="node11" class="node"><title>Node11</title>
<polygon fill="white" stroke="#bfbfbf" points="396.5,-0.5 396.5,-19.5 445.5,-19.5 445.5,-0.5 396.5,-0.5"/>
<text text-anchor="middle" x="421" y="-7.5" font-family="Helvetica,sans-Serif" font-size="10.00">cassert</text>
</g>
<!-- Node10&#45;&gt;Node11 -->
<g id="edge11" class="edge"><title>Node10&#45;&gt;Node11</title>
<path fill="none" stroke="midnightblue" d="M531.243,-56.4435C509.684,-47.5566 475.737,-33.5632 451.206,-23.4514"/>
<polygon fill="midnightblue" stroke="midnightblue" points="452.239,-20.0917 441.66,-19.5164 449.572,-26.5634 452.239,-20.0917"/>
</g>
<!-- Node12 -->
<g id="node12" class="node"><title>Node12</title>
<polygon fill="white" stroke="#bfbfbf" points="463.5,-0.5 463.5,-19.5 506.5,-19.5 506.5,-0.5 463.5,-0.5"/>
<text text-anchor="middle" x="485" y="-7.5" font-family="Helvetica,sans-Serif" font-size="10.00">cstdio</text>
</g>
<!-- Node10&#45;&gt;Node12 -->
<g id="edge12" class="edge"><title>Node10&#45;&gt;Node12</title>
<path fill="none" stroke="midnightblue" d="M541.235,-56.324C531.234,-48.2631 516.113,-36.0765 504.07,-26.3695"/>
<polygon fill="midnightblue" stroke="midnightblue" points="505.943,-23.3841 495.961,-19.8339 501.55,-28.8343 505.943,-23.3841"/>
</g>
<!-- Node13 -->
<g id="node13" class="node"><title>Node13</title>
<polygon fill="white" stroke="#bfbfbf" points="525,-0.5 525,-19.5 579,-19.5 579,-0.5 525,-0.5"/>
<text text-anchor="middle" x="552" y="-7.5" font-family="Helvetica,sans-Serif" font-size="10.00">iostream</text>
</g>
<!-- Node10&#45;&gt;Node13 -->
<g id="edge13" class="edge"><title>Node10&#45;&gt;Node13</title>
<path fill="none" stroke="midnightblue" d="M552,-56.083C552,-49.0059 552,-38.8611 552,-29.9865"/>
<polygon fill="midnightblue" stroke="midnightblue" points="555.5,-29.751 552,-19.7511 548.5,-29.7511 555.5,-29.751"/>
</g>
<!-- Node14 -->
<g id="node14" class="node"><title>Node14</title>
<polygon fill="white" stroke="#bfbfbf" points="597,-0.5 597,-19.5 649,-19.5 649,-0.5 597,-0.5"/>
<text text-anchor="middle" x="623" y="-7.5" font-family="Helvetica,sans-Serif" font-size="10.00">sstream</text>
</g>
<!-- Node10&#45;&gt;Node14 -->
<g id="edge14" class="edge"><title>Node10&#45;&gt;Node14</title>
<path fill="none" stroke="midnightblue" d="M563.407,-56.324C574.109,-48.1849 590.341,-35.8395 603.163,-26.0874"/>
<polygon fill="midnightblue" stroke="midnightblue" points="605.544,-28.6734 611.385,-19.8339 601.307,-23.1018 605.544,-28.6734"/>
</g>
<!-- Node15 -->
<g id="node15" class="node"><title>Node15</title>
<polygon fill="white" stroke="#bfbfbf" points="667,-0.5 667,-19.5 711,-19.5 711,-0.5 667,-0.5"/>
<text text-anchor="middle" x="689" y="-7.5" font-family="Helvetica,sans-Serif" font-size="10.00">thread</text>
</g>
<!-- Node10&#45;&gt;Node15 -->
<g id="edge15" class="edge"><title>Node10&#45;&gt;Node15</title>
<path fill="none" stroke="midnightblue" d="M573.708,-56.4435C596.355,-47.5171 632.072,-33.4387 657.752,-23.3168"/>
<polygon fill="midnightblue" stroke="midnightblue" points="659.374,-26.4397 667.394,-19.5164 656.807,-19.9273 659.374,-26.4397"/>
</g>
<!-- Node19 -->
<g id="node19" class="node"><title>Node19</title>
<polygon fill="white" stroke="#bfbfbf" points="362,-174.5 362,-193.5 402,-193.5 402,-174.5 362,-174.5"/>
<text text-anchor="middle" x="382" y="-181.5" font-family="Helvetica,sans-Serif" font-size="10.00">limits</text>
</g>
<!-- Node18&#45;&gt;Node19 -->
<g id="edge19" class="edge"><title>Node18&#45;&gt;Node19</title>
<path fill="none" stroke="midnightblue" d="M460.234,-242.372C445.411,-231.502 419.718,-212.66 401.837,-199.547"/>
<polygon fill="midnightblue" stroke="midnightblue" points="403.903,-196.722 393.769,-193.63 399.763,-202.367 403.903,-196.722"/>
</g>
<!-- Node20 -->
<g id="node20" class="node"><title>Node20</title>
<g id="a_node20"><a xlink:href="Index_8inl.html" target="_top" xlink:title="Core/Index/Index.inl">
<polygon fill="white" stroke="black" points="420,-174.5 420,-193.5 524,-193.5 524,-174.5 420,-174.5"/>
<text text-anchor="middle" x="472" y="-181.5" font-family="Helvetica,sans-Serif" font-size="10.00">Core/Index/Index.inl</text>
</a>
</g>
</g>
<!-- Node18&#45;&gt;Node20 -->
<g id="edge20" class="edge"><title>Node18&#45;&gt;Node20</title>
<path fill="none" stroke="midnightblue" d="M472,-242.372C472,-232.643 472,-216.528 472,-203.85"/>
<polygon fill="midnightblue" stroke="midnightblue" points="475.5,-203.841 472,-193.841 468.5,-203.841 475.5,-203.841"/>
</g>
<!-- Node21&#45;&gt;Node9 -->
<g id="edge22" class="edge"><title>Node21&#45;&gt;Node9</title>
<path fill="none" stroke="midnightblue" d="M650.345,-242.43C622.771,-235.439 591.279,-222.798 571,-200 556.799,-184.034 552.833,-159.129 551.912,-141.99"/>
<polygon fill="midnightblue" stroke="midnightblue" points="555.401,-141.488 551.672,-131.571 548.403,-141.649 555.401,-141.488"/>
</g>
<!-- Node22 -->
<g id="node22" class="node"><title>Node22</title>
<polygon fill="white" stroke="#bfbfbf" points="580.5,-174.5 580.5,-193.5 645.5,-193.5 645.5,-174.5 580.5,-174.5"/>
<text text-anchor="middle" x="613" y="-181.5" font-family="Helvetica,sans-Serif" font-size="10.00">Eigen/Core</text>
</g>
<!-- Node21&#45;&gt;Node22 -->
<g id="edge23" class="edge"><title>Node21&#45;&gt;Node22</title>
<path fill="none" stroke="midnightblue" d="M694.711,-242.372C679.229,-231.502 652.395,-212.66 633.719,-199.547"/>
<polygon fill="midnightblue" stroke="midnightblue" points="635.487,-196.512 625.292,-193.63 631.465,-202.241 635.487,-196.512"/>
</g>
<!-- Node23 -->
<g id="node23" class="node"><title>Node23</title>
<polygon fill="white" stroke="#bfbfbf" points="663.5,-174.5 663.5,-193.5 750.5,-193.5 750.5,-174.5 663.5,-174.5"/>
<text text-anchor="middle" x="707" y="-181.5" font-family="Helvetica,sans-Serif" font-size="10.00">Eigen/Geometry</text>
</g>
<!-- Node21&#45;&gt;Node23 -->
<g id="edge24" class="edge"><title>Node21&#45;&gt;Node23</title>
<path fill="none" stroke="midnightblue" d="M707,-242.372C707,-232.643 707,-216.528 707,-203.85"/>
<polygon fill="midnightblue" stroke="midnightblue" points="710.5,-203.841 707,-193.841 703.5,-203.841 710.5,-203.841"/>
</g>
<!-- Node24 -->
<g id="node24" class="node"><title>Node24</title>
<polygon fill="white" stroke="#bfbfbf" points="768.5,-174.5 768.5,-193.5 843.5,-193.5 843.5,-174.5 768.5,-174.5"/>
<text text-anchor="middle" x="806" y="-181.5" font-family="Helvetica,sans-Serif" font-size="10.00">Eigen/Sparse</text>
</g>
<!-- Node21&#45;&gt;Node24 -->
<g id="edge25" class="edge"><title>Node21&#45;&gt;Node24</title>
<path fill="none" stroke="midnightblue" d="M719.943,-242.372C736.396,-231.403 765.025,-212.317 784.713,-199.191"/>
<polygon fill="midnightblue" stroke="midnightblue" points="786.675,-202.09 793.054,-193.63 782.792,-196.265 786.675,-202.09"/>
</g>
<!-- Node25 -->
<g id="node25" class="node"><title>Node25</title>
<polygon fill="white" stroke="#bfbfbf" points="861.5,-174.5 861.5,-193.5 920.5,-193.5 920.5,-174.5 861.5,-174.5"/>
<text text-anchor="middle" x="891" y="-181.5" font-family="Helvetica,sans-Serif" font-size="10.00">functional</text>
</g>
<!-- Node21&#45;&gt;Node25 -->
<g id="edge26" class="edge"><title>Node21&#45;&gt;Node25</title>
<path fill="none" stroke="midnightblue" d="M731.967,-242.465C760.923,-232.508 810.053,-215.44 852,-200 854.53,-199.069 857.146,-198.092 859.772,-197.103"/>
<polygon fill="midnightblue" stroke="midnightblue" points="861.078,-200.351 869.178,-193.521 858.587,-193.809 861.078,-200.351"/>
</g>
<!-- Node26 -->
<g id="node26" class="node"><title>Node26</title>
<polygon fill="white" stroke="#bfbfbf" points="938.5,-169 938.5,-199 1071.5,-199 1071.5,-169 938.5,-169"/>
<text text-anchor="start" x="946.5" y="-187" font-family="Helvetica,sans-Serif" font-size="10.00">unsupported/Eigen/Aligned</text>
<text text-anchor="middle" x="1005" y="-176" font-family="Helvetica,sans-Serif" font-size="10.00">Vector3</text>
</g>
<!-- Node21&#45;&gt;Node26 -->
<g id="edge27" class="edge"><title>Node21&#45;&gt;Node26</title>
<path fill="none" stroke="midnightblue" d="M745.653,-242.439C792.622,-232.037 872.872,-214.263 931.693,-201.236"/>
<polygon fill="midnightblue" stroke="midnightblue" points="932.67,-204.604 941.676,-199.025 931.156,-197.77 932.67,-204.604"/>
</g>
<!-- Node27 -->
<g id="node27" class="node"><title>Node27</title>
<g id="a_node27"><a xlink:href="Math_8hpp.html" target="_top" xlink:title="Core/Math/Math.hpp">
<polygon fill="white" stroke="black" points="1090,-174.5 1090,-193.5 1196,-193.5 1196,-174.5 1090,-174.5"/>
<text text-anchor="middle" x="1143" y="-181.5" font-family="Helvetica,sans-Serif" font-size="10.00">Core/Math/Math.hpp</text>
</a>
</g>
</g>
<!-- Node21&#45;&gt;Node27 -->
<g id="edge28" class="edge"><title>Node21&#45;&gt;Node27</title>
<path fill="none" stroke="midnightblue" d="M749.678,-242.482C761.72,-240.219 774.851,-237.883 787,-236 916.653,-215.901 950.872,-223.231 1080,-200 1086.62,-198.81 1093.58,-197.357 1100.37,-195.829"/>
<polygon fill="midnightblue" stroke="midnightblue" points="1101.18,-199.235 1110.12,-193.56 1099.59,-192.417 1101.18,-199.235"/>
</g>
<!-- Node31 -->
<g id="node31" class="node"><title>Node31</title>
<g id="a_node31"><a xlink:href="LinearAlgebra_8inl.html" target="_top" xlink:title="Core/Math/LinearAlgebra.inl">
<polygon fill="white" stroke="black" points="1214.5,-174.5 1214.5,-193.5 1351.5,-193.5 1351.5,-174.5 1214.5,-174.5"/>
<text text-anchor="middle" x="1283" y="-181.5" font-family="Helvetica,sans-Serif" font-size="10.00">Core/Math/LinearAlgebra.inl</text>
</a>
</g>
</g>
<!-- Node21&#45;&gt;Node31 -->
<g id="edge34" class="edge"><title>Node21&#45;&gt;Node31</title>
<path fill="none" stroke="midnightblue" d="M748.394,-242.429C760.771,-240.086 774.399,-237.721 787,-236 971.312,-210.828 1019.72,-225.383 1204,-200 1213.24,-198.727 1223.04,-197.096 1232.48,-195.382"/>
<polygon fill="midnightblue" stroke="midnightblue" points="1233.35,-198.78 1242.53,-193.501 1232.06,-191.899 1233.35,-198.78"/>
</g>
<!-- Node27&#45;&gt;Node9 -->
<g id="edge29" class="edge"><title>Node27&#45;&gt;Node9</title>
<path fill="none" stroke="midnightblue" d="M1111.14,-174.441C1101.22,-172.041 1090.21,-169.642 1080,-168 909.76,-140.635 705.788,-129.219 608.721,-125.066"/>
<polygon fill="midnightblue" stroke="midnightblue" points="608.681,-121.562 598.543,-124.641 608.388,-128.556 608.681,-121.562"/>
</g>
<!-- Node28 -->
<g id="node28" class="node"><title>Node28</title>
<polygon fill="white" stroke="#bfbfbf" points="1002,-112.5 1002,-131.5 1058,-131.5 1058,-112.5 1002,-112.5"/>
<text text-anchor="middle" x="1030" y="-119.5" font-family="Helvetica,sans-Serif" font-size="10.00">algorithm</text>
</g>
<!-- Node27&#45;&gt;Node28 -->
<g id="edge30" class="edge"><title>Node27&#45;&gt;Node28</title>
<path fill="none" stroke="midnightblue" d="M1126.81,-174.403C1108.1,-164.468 1077.08,-147.997 1055.2,-136.381"/>
<polygon fill="midnightblue" stroke="midnightblue" points="1056.63,-133.179 1046.16,-131.581 1053.35,-139.362 1056.63,-133.179"/>
</g>
<!-- Node29 -->
<g id="node29" class="node"><title>Node29</title>
<polygon fill="white" stroke="#bfbfbf" points="1076,-112.5 1076,-131.5 1120,-131.5 1120,-112.5 1076,-112.5"/>
<text text-anchor="middle" x="1098" y="-119.5" font-family="Helvetica,sans-Serif" font-size="10.00">cmath</text>
</g>
<!-- Node27&#45;&gt;Node29 -->
<g id="edge31" class="edge"><title>Node27&#45;&gt;Node29</title>
<path fill="none" stroke="midnightblue" d="M1136.55,-174.403C1129.8,-165.403 1119.03,-151.041 1110.59,-139.782"/>
<polygon fill="midnightblue" stroke="midnightblue" points="1113.24,-137.481 1104.44,-131.581 1107.64,-141.681 1113.24,-137.481"/>
</g>
<!-- Node30 -->
<g id="node30" class="node"><title>Node30</title>
<g id="a_node30"><a xlink:href="Math_8inl.html" target="_top" xlink:title="Core/Math/Math.inl">
<polygon fill="white" stroke="black" points="1138,-112.5 1138,-131.5 1238,-131.5 1238,-112.5 1138,-112.5"/>
<text text-anchor="middle" x="1188" y="-119.5" font-family="Helvetica,sans-Serif" font-size="10.00">Core/Math/Math.inl</text>
</a>
</g>
</g>
<!-- Node27&#45;&gt;Node30 -->
<g id="edge32" class="edge"><title>Node27&#45;&gt;Node30</title>
<path fill="none" stroke="midnightblue" d="M1144.55,-174.403C1149.45,-165.225 1160.12,-150.47 1169.85,-139.117"/>
<polygon fill="midnightblue" stroke="midnightblue" points="1172.56,-141.345 1176.67,-131.581 1167.36,-136.649 1172.56,-141.345"/>
</g>
<!-- Node30&#45;&gt;Node27 -->
<g id="edge33" class="edge"><title>Node30&#45;&gt;Node27</title>
<path fill="none" stroke="midnightblue" d="M1186.46,-131.581C1181.57,-140.752 1170.89,-155.506 1161.17,-166.863"/>
<polygon fill="midnightblue" stroke="midnightblue" points="1158.46,-164.639 1154.35,-174.403 1163.65,-169.334 1158.46,-164.639"/>
</g>
<!-- Node32&#45;&gt;Node7 -->
<g id="edge36" class="edge"><title>Node32&#45;&gt;Node7</title>
<path fill="none" stroke="midnightblue" d="M806.264,-267.079C764.859,-277.577 706.425,-291.934 660.551,-302.891"/>
<polygon fill="midnightblue" stroke="midnightblue" points="659.584,-299.523 650.667,-305.245 661.206,-306.332 659.584,-299.523"/>
</g>
</g>
</svg>
