<?xml version="1.0" encoding="UTF-8" standalone="no"?>
<!DOCTYPE svg PUBLIC "-//W3C//DTD SVG 1.1//EN"
 "http://www.w3.org/Graphics/SVG/1.1/DTD/svg11.dtd">
<!-- Generated by graphviz version 2.36.0 (20140111.2315)
 -->
<!-- Title: /home/travis/build/STORM&#45;IRIT/Radium&#45;Engine/src/Core/Geometry/Mapping/MappingOperation.hpp Pages: 1 -->
<svg width="2009pt" height="546pt"
 viewBox="0.00 0.00 2009.22 546.00" xmlns="http://www.w3.org/2000/svg" xmlns:xlink="http://www.w3.org/1999/xlink">
<g id="graph0" class="graph" transform="scale(1 1) rotate(0) translate(4 542)">
<title>/home/travis/build/STORM&#45;IRIT/Radium&#45;Engine/src/Core/Geometry/Mapping/MappingOperation.hpp</title>
<polygon fill="white" stroke="none" points="-4,4 -4,-542 2005.22,-542 2005.22,4 -4,4"/>
<!-- Node1 -->
<g id="node1" class="node"><title>Node1</title>
<polygon fill="#bfbfbf" stroke="black" points="974,-485 974,-537 1122,-537 1122,-485 974,-485"/>
<text text-anchor="start" x="982" y="-525" font-family="Helvetica,sans-Serif" font-size="10.00">/home/travis/build</text>
<text text-anchor="start" x="982" y="-514" font-family="Helvetica,sans-Serif" font-size="10.00">/STORM&#45;IRIT/Radium&#45;Engine</text>
<text text-anchor="start" x="982" y="-503" font-family="Helvetica,sans-Serif" font-size="10.00">/src/Core/Geometry/Mapping</text>
<text text-anchor="middle" x="1048" y="-492" font-family="Helvetica,sans-Serif" font-size="10.00">/MappingOperation.hpp</text>
</g>
<!-- Node2 -->
<g id="node2" class="node"><title>Node2</title>
<g id="a_node2"><a xlink:href="Mapping_8hpp.html" target="_top" xlink:title="Core/Geometry/Mapping\l/Mapping.hpp">
<polygon fill="white" stroke="black" points="711.5,-305 711.5,-335 834.5,-335 834.5,-305 711.5,-305"/>
<text text-anchor="start" x="719.5" y="-323" font-family="Helvetica,sans-Serif" font-size="10.00">Core/Geometry/Mapping</text>
<text text-anchor="middle" x="773" y="-312" font-family="Helvetica,sans-Serif" font-size="10.00">/Mapping.hpp</text>
</a>
</g>
</g>
<!-- Node1&#45;&gt;Node2 -->
<g id="edge1" class="edge"><title>Node1&#45;&gt;Node2</title>
<path fill="none" stroke="midnightblue" d="M1011.48,-484.902C956.213,-446.917 852.43,-375.59 801.992,-340.925"/>
<polygon fill="midnightblue" stroke="midnightblue" points="803.729,-337.872 793.505,-335.093 799.764,-343.641 803.729,-337.872"/>
</g>
<!-- Node28 -->
<g id="node28" class="node"><title>Node28</title>
<g id="a_node28"><a xlink:href="TriangleMesh_8hpp.html" target="_top" xlink:title="Core/Mesh/TriangleMesh.hpp">
<polygon fill="white" stroke="black" points="1192.5,-428.5 1192.5,-447.5 1337.5,-447.5 1337.5,-428.5 1192.5,-428.5"/>
<text text-anchor="middle" x="1265" y="-435.5" font-family="Helvetica,sans-Serif" font-size="10.00">Core/Mesh/TriangleMesh.hpp</text>
</a>
</g>
</g>
<!-- Node1&#45;&gt;Node28 -->
<g id="edge31" class="edge"><title>Node1&#45;&gt;Node28</title>
<path fill="none" stroke="midnightblue" d="M1122.07,-485.764C1158.32,-473.906 1200.28,-460.176 1229.32,-450.675"/>
<polygon fill="midnightblue" stroke="midnightblue" points="1230.6,-453.937 1239.02,-447.501 1228.43,-447.284 1230.6,-453.937"/>
</g>
<!-- Node3 -->
<g id="node3" class="node"><title>Node3</title>
<g id="a_node3"><a xlink:href="AlignedStdVector_8hpp.html" target="_top" xlink:title="Core/Containers/AlignedStd\lVector.hpp">
<polygon fill="white" stroke="black" points="849,-237 849,-267 987,-267 987,-237 849,-237"/>
<text text-anchor="start" x="857" y="-255" font-family="Helvetica,sans-Serif" font-size="10.00">Core/Containers/AlignedStd</text>
<text text-anchor="middle" x="918" y="-244" font-family="Helvetica,sans-Serif" font-size="10.00">Vector.hpp</text>
</a>
</g>
</g>
<!-- Node2&#45;&gt;Node3 -->
<g id="edge2" class="edge"><title>Node2&#45;&gt;Node3</title>
<path fill="none" stroke="midnightblue" d="M804.106,-304.841C825.682,-295.021 854.613,-281.852 877.917,-271.245"/>
<polygon fill="midnightblue" stroke="midnightblue" points="879.543,-274.35 887.194,-267.022 876.643,-267.979 879.543,-274.35"/>
</g>
<!-- Node13 -->
<g id="node13" class="node"><title>Node13</title>
<g id="a_node13"><a xlink:href="Index_8hpp.html" target="_top" xlink:title="Core/Index/Index.hpp">
<polygon fill="white" stroke="black" points="1005,-242.5 1005,-261.5 1115,-261.5 1115,-242.5 1005,-242.5"/>
<text text-anchor="middle" x="1060" y="-249.5" font-family="Helvetica,sans-Serif" font-size="10.00">Core/Index/Index.hpp</text>
</a>
</g>
</g>
<!-- Node2&#45;&gt;Node13 -->
<g id="edge12" class="edge"><title>Node2&#45;&gt;Node13</title>
<path fill="none" stroke="midnightblue" d="M834.545,-305.018C879.337,-294.82 941.445,-280.631 996,-268 1001.77,-266.664 1007.83,-265.254 1013.82,-263.854"/>
<polygon fill="midnightblue" stroke="midnightblue" points="1014.85,-267.208 1023.79,-261.522 1013.26,-260.392 1014.85,-267.208"/>
</g>
<!-- Node16 -->
<g id="node16" class="node"><title>Node16</title>
<g id="a_node16"><a xlink:href="LinearAlgebra_8hpp.html" target="_top" xlink:title="Core/Math/LinearAlgebra.hpp">
<polygon fill="white" stroke="black" points="673.5,-242.5 673.5,-261.5 816.5,-261.5 816.5,-242.5 673.5,-242.5"/>
<text text-anchor="middle" x="745" y="-249.5" font-family="Helvetica,sans-Serif" font-size="10.00">Core/Math/LinearAlgebra.hpp</text>
</a>
</g>
</g>
<!-- Node2&#45;&gt;Node16 -->
<g id="edge15" class="edge"><title>Node2&#45;&gt;Node16</title>
<path fill="none" stroke="midnightblue" d="M766.924,-304.679C762.775,-294.898 757.24,-281.852 752.77,-271.315"/>
<polygon fill="midnightblue" stroke="midnightblue" points="755.873,-269.667 748.745,-261.828 749.429,-272.401 755.873,-269.667"/>
</g>
<!-- Node27 -->
<g id="node27" class="node"><title>Node27</title>
<g id="a_node27"><a xlink:href="Mapping_8inl.html" target="_top" xlink:title="Core/Geometry/Mapping\l/Mapping.inl">
<polygon fill="white" stroke="black" points="532.5,-237 532.5,-267 655.5,-267 655.5,-237 532.5,-237"/>
<text text-anchor="start" x="540.5" y="-255" font-family="Helvetica,sans-Serif" font-size="10.00">Core/Geometry/Mapping</text>
<text text-anchor="middle" x="594" y="-244" font-family="Helvetica,sans-Serif" font-size="10.00">/Mapping.inl</text>
</a>
</g>
</g>
<!-- Node2&#45;&gt;Node27 -->
<g id="edge29" class="edge"><title>Node2&#45;&gt;Node27</title>
<path fill="none" stroke="midnightblue" d="M728.943,-304.841C700.526,-294.846 663.879,-281.383 635.898,-270.682"/>
<polygon fill="midnightblue" stroke="midnightblue" points="636.979,-267.348 626.39,-267.022 634.465,-273.88 636.979,-267.348"/>
</g>
<!-- Node4 -->
<g id="node4" class="node"><title>Node4</title>
<g id="a_node4"><a xlink:href="RaCore_8hpp.html" target="_top" xlink:title="Core/RaCore.hpp">
<polygon fill="white" stroke="black" points="1525.5,-112.5 1525.5,-131.5 1618.5,-131.5 1618.5,-112.5 1525.5,-112.5"/>
<text text-anchor="middle" x="1572" y="-119.5" font-family="Helvetica,sans-Serif" font-size="10.00">Core/RaCore.hpp</text>
</a>
</g>
</g>
<!-- Node3&#45;&gt;Node4 -->
<g id="edge3" class="edge"><title>Node3&#45;&gt;Node4</title>
<path fill="none" stroke="midnightblue" d="M921.079,-236.675C926.048,-217.419 937.83,-183.784 962,-168 1007.65,-138.191 1372.6,-127.249 1515.2,-124.087"/>
<polygon fill="midnightblue" stroke="midnightblue" points="1515.55,-127.58 1525.48,-123.864 1515.4,-120.581 1515.55,-127.58"/>
</g>
<!-- Node11 -->
<g id="node11" class="node"><title>Node11</title>
<polygon fill="white" stroke="#bfbfbf" points="827,-174.5 827,-193.5 915,-193.5 915,-174.5 827,-174.5"/>
<text text-anchor="middle" x="871" y="-181.5" font-family="Helvetica,sans-Serif" font-size="10.00">Eigen/StdVector</text>
</g>
<!-- Node3&#45;&gt;Node11 -->
<g id="edge10" class="edge"><title>Node3&#45;&gt;Node11</title>
<path fill="none" stroke="midnightblue" d="M907.802,-236.679C900.546,-226.49 890.768,-212.759 883.114,-202.011"/>
<polygon fill="midnightblue" stroke="midnightblue" points="885.939,-199.944 877.287,-193.828 880.237,-204.004 885.939,-199.944"/>
</g>
<!-- Node12 -->
<g id="node12" class="node"><title>Node12</title>
<polygon fill="white" stroke="#bfbfbf" points="1189,-174.5 1189,-193.5 1233,-193.5 1233,-174.5 1189,-174.5"/>
<text text-anchor="middle" x="1211" y="-181.5" font-family="Helvetica,sans-Serif" font-size="10.00">vector</text>
</g>
<!-- Node3&#45;&gt;Node12 -->
<g id="edge11" class="edge"><title>Node3&#45;&gt;Node12</title>
<path fill="none" stroke="midnightblue" d="M980.496,-236.922C1041.28,-223.231 1131.2,-202.976 1178.77,-192.261"/>
<polygon fill="midnightblue" stroke="midnightblue" points="1179.82,-195.612 1188.8,-190 1178.28,-188.783 1179.82,-195.612"/>
</g>
<!-- Node5 -->
<g id="node5" class="node"><title>Node5</title>
<g id="a_node5"><a xlink:href="CoreMacros_8hpp.html" target="_top" xlink:title="Core/CoreMacros.hpp">
<polygon fill="white" stroke="black" points="1605.5,-56.5 1605.5,-75.5 1718.5,-75.5 1718.5,-56.5 1605.5,-56.5"/>
<text text-anchor="middle" x="1662" y="-63.5" font-family="Helvetica,sans-Serif" font-size="10.00">Core/CoreMacros.hpp</text>
</a>
</g>
</g>
<!-- Node4&#45;&gt;Node5 -->
<g id="edge4" class="edge"><title>Node4&#45;&gt;Node5</title>
<path fill="none" stroke="midnightblue" d="M1586.46,-112.324C1600.5,-103.9 1622.05,-90.9709 1638.54,-81.0741"/>
<polygon fill="midnightblue" stroke="midnightblue" points="1640.8,-83.8007 1647.58,-75.6545 1637.2,-77.7983 1640.8,-83.8007"/>
</g>
<!-- Node6 -->
<g id="node6" class="node"><title>Node6</title>
<polygon fill="white" stroke="#bfbfbf" points="1736.5,-0.5 1736.5,-19.5 1785.5,-19.5 1785.5,-0.5 1736.5,-0.5"/>
<text text-anchor="middle" x="1761" y="-7.5" font-family="Helvetica,sans-Serif" font-size="10.00">cassert</text>
</g>
<!-- Node5&#45;&gt;Node6 -->
<g id="edge5" class="edge"><title>Node5&#45;&gt;Node6</title>
<path fill="none" stroke="midnightblue" d="M1677.91,-56.324C1693.64,-47.7428 1717.94,-34.486 1736.21,-24.5224"/>
<polygon fill="midnightblue" stroke="midnightblue" points="1738.03,-27.5157 1745.13,-19.6545 1734.68,-21.3704 1738.03,-27.5157"/>
</g>
<!-- Node7 -->
<g id="node7" class="node"><title>Node7</title>
<polygon fill="white" stroke="#bfbfbf" points="1540.5,-0.5 1540.5,-19.5 1583.5,-19.5 1583.5,-0.5 1540.5,-0.5"/>
<text text-anchor="middle" x="1562" y="-7.5" font-family="Helvetica,sans-Serif" font-size="10.00">cstdio</text>
</g>
<!-- Node5&#45;&gt;Node7 -->
<g id="edge6" class="edge"><title>Node5&#45;&gt;Node7</title>
<path fill="none" stroke="midnightblue" d="M1645.93,-56.324C1630.04,-47.7428 1605.49,-34.486 1587.04,-24.5224"/>
<polygon fill="midnightblue" stroke="midnightblue" points="1588.49,-21.3264 1578.03,-19.6545 1585.16,-27.4857 1588.49,-21.3264"/>
</g>
<!-- Node8 -->
<g id="node8" class="node"><title>Node8</title>
<polygon fill="white" stroke="#bfbfbf" points="1602,-0.5 1602,-19.5 1656,-19.5 1656,-0.5 1602,-0.5"/>
<text text-anchor="middle" x="1629" y="-7.5" font-family="Helvetica,sans-Serif" font-size="10.00">iostream</text>
</g>
<!-- Node5&#45;&gt;Node8 -->
<g id="edge7" class="edge"><title>Node5&#45;&gt;Node8</title>
<path fill="none" stroke="midnightblue" d="M1656.55,-56.083C1651.99,-48.6127 1645.33,-37.7244 1639.71,-28.5199"/>
<polygon fill="midnightblue" stroke="midnightblue" points="1642.55,-26.4588 1634.35,-19.7511 1636.58,-30.109 1642.55,-26.4588"/>
</g>
<!-- Node9 -->
<g id="node9" class="node"><title>Node9</title>
<polygon fill="white" stroke="#bfbfbf" points="1861,-0.5 1861,-19.5 1913,-19.5 1913,-0.5 1861,-0.5"/>
<text text-anchor="middle" x="1887" y="-7.5" font-family="Helvetica,sans-Serif" font-size="10.00">sstream</text>
</g>
<!-- Node5&#45;&gt;Node9 -->
<g id="edge8" class="edge"><title>Node5&#45;&gt;Node9</title>
<path fill="none" stroke="midnightblue" d="M1697.65,-56.4435C1739.66,-46.3606 1809.07,-29.7042 1851.16,-19.6016"/>
<polygon fill="midnightblue" stroke="midnightblue" points="1852.08,-22.9809 1860.98,-17.2437 1850.44,-16.1742 1852.08,-22.9809"/>
</g>
<!-- Node10 -->
<g id="node10" class="node"><title>Node10</title>
<polygon fill="white" stroke="#bfbfbf" points="1674,-0.5 1674,-19.5 1718,-19.5 1718,-0.5 1674,-0.5"/>
<text text-anchor="middle" x="1696" y="-7.5" font-family="Helvetica,sans-Serif" font-size="10.00">thread</text>
</g>
<!-- Node5&#45;&gt;Node10 -->
<g id="edge9" class="edge"><title>Node5&#45;&gt;Node10</title>
<path fill="none" stroke="midnightblue" d="M1667.61,-56.083C1672.37,-48.5341 1679.32,-37.4948 1685.15,-28.2298"/>
<polygon fill="midnightblue" stroke="midnightblue" points="1688.12,-30.0783 1690.49,-19.7511 1682.2,-26.3486 1688.12,-30.0783"/>
</g>
<!-- Node14 -->
<g id="node14" class="node"><title>Node14</title>
<polygon fill="white" stroke="#bfbfbf" points="1093,-174.5 1093,-193.5 1133,-193.5 1133,-174.5 1093,-174.5"/>
<text text-anchor="middle" x="1113" y="-181.5" font-family="Helvetica,sans-Serif" font-size="10.00">limits</text>
</g>
<!-- Node13&#45;&gt;Node14 -->
<g id="edge13" class="edge"><title>Node13&#45;&gt;Node14</title>
<path fill="none" stroke="midnightblue" d="M1066.93,-242.372C1075.14,-232.151 1089,-214.884 1099.38,-201.957"/>
<polygon fill="midnightblue" stroke="midnightblue" points="1102.37,-203.83 1105.9,-193.841 1096.91,-199.447 1102.37,-203.83"/>
</g>
<!-- Node15 -->
<g id="node15" class="node"><title>Node15</title>
<g id="a_node15"><a xlink:href="Index_8inl.html" target="_top" xlink:title="Core/Index/Index.inl">
<polygon fill="white" stroke="black" points="971,-174.5 971,-193.5 1075,-193.5 1075,-174.5 971,-174.5"/>
<text text-anchor="middle" x="1023" y="-181.5" font-family="Helvetica,sans-Serif" font-size="10.00">Core/Index/Index.inl</text>
</a>
</g>
</g>
<!-- Node13&#45;&gt;Node15 -->
<g id="edge14" class="edge"><title>Node13&#45;&gt;Node15</title>
<path fill="none" stroke="midnightblue" d="M1055.16,-242.372C1049.54,-232.348 1040.12,-215.546 1032.93,-202.708"/>
<polygon fill="midnightblue" stroke="midnightblue" points="1035.9,-200.852 1027.96,-193.841 1029.79,-204.275 1035.9,-200.852"/>
</g>
<!-- Node16&#45;&gt;Node4 -->
<g id="edge16" class="edge"><title>Node16&#45;&gt;Node4</title>
<path fill="none" stroke="midnightblue" d="M751.261,-242.325C765.552,-222.805 800.672,-176.467 818,-168 880.005,-137.702 1349.85,-126.805 1514.89,-123.888"/>
<polygon fill="midnightblue" stroke="midnightblue" points="1515.38,-127.38 1525.32,-123.707 1515.26,-120.381 1515.38,-127.38"/>
</g>
<!-- Node17 -->
<g id="node17" class="node"><title>Node17</title>
<polygon fill="white" stroke="#bfbfbf" points="600.5,-174.5 600.5,-193.5 665.5,-193.5 665.5,-174.5 600.5,-174.5"/>
<text text-anchor="middle" x="633" y="-181.5" font-family="Helvetica,sans-Serif" font-size="10.00">Eigen/Core</text>
</g>
<!-- Node16&#45;&gt;Node17 -->
<g id="edge17" class="edge"><title>Node16&#45;&gt;Node17</title>
<path fill="none" stroke="midnightblue" d="M730.358,-242.372C711.576,-231.304 678.771,-211.972 656.483,-198.838"/>
<polygon fill="midnightblue" stroke="midnightblue" points="658.038,-195.692 647.646,-193.63 654.484,-201.723 658.038,-195.692"/>
</g>
<!-- Node18 -->
<g id="node18" class="node"><title>Node18</title>
<polygon fill="white" stroke="#bfbfbf" points="683.5,-174.5 683.5,-193.5 770.5,-193.5 770.5,-174.5 683.5,-174.5"/>
<text text-anchor="middle" x="727" y="-181.5" font-family="Helvetica,sans-Serif" font-size="10.00">Eigen/Geometry</text>
</g>
<!-- Node16&#45;&gt;Node18 -->
<g id="edge18" class="edge"><title>Node16&#45;&gt;Node18</title>
<path fill="none" stroke="midnightblue" d="M742.647,-242.372C739.993,-232.643 735.599,-216.528 732.141,-203.85"/>
<polygon fill="midnightblue" stroke="midnightblue" points="735.419,-202.568 729.411,-193.841 728.666,-204.41 735.419,-202.568"/>
</g>
<!-- Node19 -->
<g id="node19" class="node"><title>Node19</title>
<polygon fill="white" stroke="#bfbfbf" points="-0.5,-174.5 -0.5,-193.5 74.5,-193.5 74.5,-174.5 -0.5,-174.5"/>
<text text-anchor="middle" x="37" y="-181.5" font-family="Helvetica,sans-Serif" font-size="10.00">Eigen/Sparse</text>
</g>
<!-- Node16&#45;&gt;Node19 -->
<g id="edge19" class="edge"><title>Node16&#45;&gt;Node19</title>
<path fill="none" stroke="midnightblue" d="M704.358,-242.477C691.5,-240.049 677.201,-237.625 664,-236 407.221,-204.387 337.132,-248.492 83,-200 78.516,-199.144 73.8629,-197.976 69.3145,-196.666"/>
<polygon fill="midnightblue" stroke="midnightblue" points="70.2196,-193.282 59.6308,-193.64 68.1314,-199.964 70.2196,-193.282"/>
</g>
<!-- Node20 -->
<g id="node20" class="node"><title>Node20</title>
<polygon fill="white" stroke="#bfbfbf" points="92.5,-174.5 92.5,-193.5 151.5,-193.5 151.5,-174.5 92.5,-174.5"/>
<text text-anchor="middle" x="122" y="-181.5" font-family="Helvetica,sans-Serif" font-size="10.00">functional</text>
</g>
<!-- Node16&#45;&gt;Node20 -->
<g id="edge20" class="edge"><title>Node16&#45;&gt;Node20</title>
<path fill="none" stroke="midnightblue" d="M703.933,-242.475C691.183,-240.076 677.051,-237.669 664,-236 441.244,-207.51 378.978,-249.804 160,-200 156.749,-199.261 153.412,-198.287 150.128,-197.191"/>
<polygon fill="midnightblue" stroke="midnightblue" points="151.175,-193.846 140.582,-193.642 148.736,-200.407 151.175,-193.846"/>
</g>
<!-- Node21 -->
<g id="node21" class="node"><title>Node21</title>
<polygon fill="white" stroke="#bfbfbf" points="169.5,-169 169.5,-199 302.5,-199 302.5,-169 169.5,-169"/>
<text text-anchor="start" x="177.5" y="-187" font-family="Helvetica,sans-Serif" font-size="10.00">unsupported/Eigen/Aligned</text>
<text text-anchor="middle" x="236" y="-176" font-family="Helvetica,sans-Serif" font-size="10.00">Vector3</text>
</g>
<!-- Node16&#45;&gt;Node21 -->
<g id="edge21" class="edge"><title>Node16&#45;&gt;Node21</title>
<path fill="none" stroke="midnightblue" d="M702.648,-242.486C690.228,-240.172 676.599,-237.808 664,-236 511.526,-214.122 469.254,-222.871 312.656,-200.001"/>
<polygon fill="midnightblue" stroke="midnightblue" points="313.072,-196.524 302.667,-198.522 312.047,-203.449 313.072,-196.524"/>
</g>
<!-- Node22 -->
<g id="node22" class="node"><title>Node22</title>
<g id="a_node22"><a xlink:href="Math_8hpp.html" target="_top" xlink:title="Core/Math/Math.hpp">
<polygon fill="white" stroke="black" points="321,-174.5 321,-193.5 427,-193.5 427,-174.5 321,-174.5"/>
<text text-anchor="middle" x="374" y="-181.5" font-family="Helvetica,sans-Serif" font-size="10.00">Core/Math/Math.hpp</text>
</a>
</g>
</g>
<!-- Node16&#45;&gt;Node22 -->
<g id="edge22" class="edge"><title>Node16&#45;&gt;Node22</title>
<path fill="none" stroke="midnightblue" d="M700.051,-242.457C688.327,-240.289 675.699,-238.007 664,-236 562.888,-218.658 536.605,-220.078 436,-200 429.799,-198.763 423.281,-197.331 416.894,-195.853"/>
<polygon fill="midnightblue" stroke="midnightblue" points="417.57,-192.417 407.032,-193.515 415.955,-199.228 417.57,-192.417"/>
</g>
<!-- Node26 -->
<g id="node26" class="node"><title>Node26</title>
<g id="a_node26"><a xlink:href="LinearAlgebra_8inl.html" target="_top" xlink:title="Core/Math/LinearAlgebra.inl">
<polygon fill="white" stroke="black" points="445.5,-174.5 445.5,-193.5 582.5,-193.5 582.5,-174.5 445.5,-174.5"/>
<text text-anchor="middle" x="514" y="-181.5" font-family="Helvetica,sans-Serif" font-size="10.00">Core/Math/LinearAlgebra.inl</text>
</a>
</g>
</g>
<!-- Node16&#45;&gt;Node26 -->
<g id="edge28" class="edge"><title>Node16&#45;&gt;Node26</title>
<path fill="none" stroke="midnightblue" d="M714.801,-242.372C673.529,-230.58 599.425,-209.407 553.701,-196.343"/>
<polygon fill="midnightblue" stroke="midnightblue" points="554.417,-192.908 543.841,-193.526 552.494,-199.638 554.417,-192.908"/>
</g>
<!-- Node22&#45;&gt;Node4 -->
<g id="edge23" class="edge"><title>Node22&#45;&gt;Node4</title>
<path fill="none" stroke="midnightblue" d="M404.043,-174.466C414.119,-171.944 425.47,-169.468 436,-168 647.856,-138.472 1315.31,-126.687 1515.01,-123.767"/>
<polygon fill="midnightblue" stroke="midnightblue" points="1515.32,-127.263 1525.27,-123.619 1515.22,-120.263 1515.32,-127.263"/>
</g>
<!-- Node23 -->
<g id="node23" class="node"><title>Node23</title>
<polygon fill="white" stroke="#bfbfbf" points="868,-112.5 868,-131.5 924,-131.5 924,-112.5 868,-112.5"/>
<text text-anchor="middle" x="896" y="-119.5" font-family="Helvetica,sans-Serif" font-size="10.00">algorithm</text>
</g>
<!-- Node22&#45;&gt;Node23 -->
<g id="edge24" class="edge"><title>Node22&#45;&gt;Node23</title>
<path fill="none" stroke="midnightblue" d="M405.683,-174.432C415.357,-172.06 426.063,-169.68 436,-168 591.227,-141.762 778.701,-129.311 857.826,-124.925"/>
<polygon fill="midnightblue" stroke="midnightblue" points="858.021,-128.419 867.816,-124.382 857.641,-121.43 858.021,-128.419"/>
</g>
<!-- Node24 -->
<g id="node24" class="node"><title>Node24</title>
<polygon fill="white" stroke="#bfbfbf" points="442,-112.5 442,-131.5 486,-131.5 486,-112.5 442,-112.5"/>
<text text-anchor="middle" x="464" y="-119.5" font-family="Helvetica,sans-Serif" font-size="10.00">cmath</text>
</g>
<!-- Node22&#45;&gt;Node24 -->
<g id="edge25" class="edge"><title>Node22&#45;&gt;Node24</title>
<path fill="none" stroke="midnightblue" d="M386.895,-174.403C401.464,-164.691 425.402,-148.732 442.745,-137.17"/>
<polygon fill="midnightblue" stroke="midnightblue" points="444.75,-140.04 451.129,-131.581 440.867,-134.215 444.75,-140.04"/>
</g>
<!-- Node25 -->
<g id="node25" class="node"><title>Node25</title>
<g id="a_node25"><a xlink:href="Math_8inl.html" target="_top" xlink:title="Core/Math/Math.inl">
<polygon fill="white" stroke="black" points="324,-112.5 324,-131.5 424,-131.5 424,-112.5 324,-112.5"/>
<text text-anchor="middle" x="374" y="-119.5" font-family="Helvetica,sans-Serif" font-size="10.00">Core/Math/Math.inl</text>
</a>
</g>
</g>
<!-- Node22&#45;&gt;Node25 -->
<g id="edge26" class="edge"><title>Node22&#45;&gt;Node25</title>
<path fill="none" stroke="midnightblue" d="M369.099,-174.403C367.268,-165.938 366.797,-152.728 367.685,-141.82"/>
<polygon fill="midnightblue" stroke="midnightblue" points="371.198,-141.966 369.103,-131.581 364.264,-141.006 371.198,-141.966"/>
</g>
<!-- Node25&#45;&gt;Node22 -->
<g id="edge27" class="edge"><title>Node25&#45;&gt;Node22</title>
<path fill="none" stroke="midnightblue" d="M378.897,-131.581C380.73,-140.04 381.203,-153.248 380.317,-164.16"/>
<polygon fill="midnightblue" stroke="midnightblue" points="376.803,-164.018 378.901,-174.403 383.737,-164.977 376.803,-164.018"/>
</g>
<!-- Node27&#45;&gt;Node2 -->
<g id="edge30" class="edge"><title>Node27&#45;&gt;Node2</title>
<path fill="none" stroke="midnightblue" d="M637.668,-267.022C666.009,-276.985 702.658,-290.445 730.718,-301.171"/>
<polygon fill="midnightblue" stroke="midnightblue" points="729.667,-304.517 740.257,-304.841 732.181,-297.984 729.667,-304.517"/>
</g>
<!-- Node28&#45;&gt;Node4 -->
<g id="edge42" class="edge"><title>Node28&#45;&gt;Node4</title>
<path fill="none" stroke="midnightblue" d="M1337.6,-430.956C1483.66,-417.931 1807.52,-384.424 1907,-336 1946.87,-316.594 1962.31,-308.658 1980,-268 1985.67,-254.959 1988.11,-247.685 1980,-236 1939.84,-178.13 1731.11,-143.572 1628.74,-129.858"/>
<polygon fill="midnightblue" stroke="midnightblue" points="1628.95,-126.356 1618.58,-128.519 1628.04,-133.296 1628.95,-126.356"/>
</g>
<!-- Node28&#45;&gt;Node16 -->
<g id="edge37" class="edge"><title>Node28&#45;&gt;Node16</title>
<path fill="none" stroke="midnightblue" d="M1240.42,-428.385C1190.79,-410.985 1075.1,-370.379 978,-336 906.874,-310.817 823.618,-281.102 778.391,-264.94"/>
<polygon fill="midnightblue" stroke="midnightblue" points="779.399,-261.583 768.804,-261.513 777.043,-268.175 779.399,-261.583"/>
</g>
<!-- Node29 -->
<g id="node29" class="node"><title>Node29</title>
<g id="a_node29"><a xlink:href="VectorArray_8hpp.html" target="_top" xlink:title="Core/Containers/VectorArray.hpp">
<polygon fill="white" stroke="black" points="1142.5,-310.5 1142.5,-329.5 1303.5,-329.5 1303.5,-310.5 1142.5,-310.5"/>
<text text-anchor="middle" x="1223" y="-317.5" font-family="Helvetica,sans-Serif" font-size="10.00">Core/Containers/VectorArray.hpp</text>
</a>
</g>
</g>
<!-- Node28&#45;&gt;Node29 -->
<g id="edge32" class="edge"><title>Node28&#45;&gt;Node29</title>
<path fill="none" stroke="midnightblue" d="M1259.85,-428.29C1254.76,-419.406 1247.04,-405.103 1242,-392 1235.36,-374.726 1230.15,-354.237 1226.87,-339.719"/>
<polygon fill="midnightblue" stroke="midnightblue" points="1230.29,-338.968 1224.76,-329.934 1223.45,-340.448 1230.29,-338.968"/>
</g>
<!-- Node30 -->
<g id="node30" class="node"><title>Node30</title>
<g id="a_node30"><a xlink:href="MeshTypes_8hpp.html" target="_top" xlink:title="Core/Mesh/MeshTypes.hpp">
<polygon fill="white" stroke="black" points="987.5,-310.5 987.5,-329.5 1124.5,-329.5 1124.5,-310.5 987.5,-310.5"/>
<text text-anchor="middle" x="1056" y="-317.5" font-family="Helvetica,sans-Serif" font-size="10.00">Core/Mesh/MeshTypes.hpp</text>
</a>
</g>
</g>
<!-- Node28&#45;&gt;Node30 -->
<g id="edge38" class="edge"><title>Node28&#45;&gt;Node30</title>
<path fill="none" stroke="midnightblue" d="M1249.63,-428.47C1213.62,-408.485 1123.57,-358.504 1080.15,-334.407"/>
<polygon fill="midnightblue" stroke="midnightblue" points="1081.83,-331.335 1071.39,-329.542 1078.44,-337.455 1081.83,-331.335"/>
</g>
<!-- Node31 -->
<g id="node31" class="node"><title>Node31</title>
<g id="a_node31"><a xlink:href="Attribs_8hpp.html" target="_top" xlink:title="Core/Utils/Attribs.hpp">
<polygon fill="white" stroke="black" points="1251.5,-372.5 1251.5,-391.5 1362.5,-391.5 1362.5,-372.5 1251.5,-372.5"/>
<text text-anchor="middle" x="1307" y="-379.5" font-family="Helvetica,sans-Serif" font-size="10.00">Core/Utils/Attribs.hpp</text>
</a>
</g>
</g>
<!-- Node28&#45;&gt;Node31 -->
<g id="edge43" class="edge"><title>Node28&#45;&gt;Node31</title>
<path fill="none" stroke="midnightblue" d="M1271.94,-428.083C1277.93,-420.377 1286.75,-409.033 1294.05,-399.653"/>
<polygon fill="midnightblue" stroke="midnightblue" points="1296.82,-401.793 1300.19,-391.751 1291.29,-397.496 1296.82,-401.793"/>
</g>
<!-- Node41 -->
<g id="node41" class="node"><title>Node41</title>
<g id="a_node41"><a xlink:href="TriangleMesh_8inl.html" target="_top" xlink:title="Core/Mesh/TriangleMesh.inl">
<polygon fill="white" stroke="black" points="1380.5,-372.5 1380.5,-391.5 1519.5,-391.5 1519.5,-372.5 1380.5,-372.5"/>
<text text-anchor="middle" x="1450" y="-379.5" font-family="Helvetica,sans-Serif" font-size="10.00">Core/Mesh/TriangleMesh.inl</text>
</a>
</g>
</g>
<!-- Node28&#45;&gt;Node41 -->
<g id="edge64" class="edge"><title>Node28&#45;&gt;Node41</title>
<path fill="none" stroke="midnightblue" d="M1289.23,-428.444C1318.86,-419.201 1369.28,-404.436 1405.83,-394.257"/>
<polygon fill="midnightblue" stroke="midnightblue" points="1407.04,-397.555 1415.74,-391.516 1405.17,-390.808 1407.04,-397.555"/>
</g>
<!-- Node29&#45;&gt;Node3 -->
<g id="edge33" class="edge"><title>Node29&#45;&gt;Node3</title>
<path fill="none" stroke="midnightblue" d="M1183.44,-310.439C1135.27,-300.015 1052.89,-282.19 992.656,-269.155"/>
<polygon fill="midnightblue" stroke="midnightblue" points="993.325,-265.719 982.811,-267.025 991.845,-272.561 993.325,-265.719"/>
</g>
<!-- Node29&#45;&gt;Node4 -->
<g id="edge35" class="edge"><title>Node29&#45;&gt;Node4</title>
<path fill="none" stroke="midnightblue" d="M1226.73,-310.455C1234.38,-293.854 1253.4,-257.036 1280,-236 1351.59,-179.386 1454.88,-148.426 1517.49,-133.822"/>
<polygon fill="midnightblue" stroke="midnightblue" points="1518.58,-137.163 1527.56,-131.534 1517.03,-130.338 1518.58,-137.163"/>
</g>
<!-- Node29&#45;&gt;Node12 -->
<g id="edge36" class="edge"><title>Node29&#45;&gt;Node12</title>
<path fill="none" stroke="midnightblue" d="M1219.9,-310.483C1216.45,-300.474 1211.06,-283.287 1209,-268 1206.06,-246.18 1207.34,-220.849 1208.85,-203.965"/>
<polygon fill="midnightblue" stroke="midnightblue" points="1212.36,-204.075 1209.89,-193.773 1205.39,-203.369 1212.36,-204.075"/>
</g>
<!-- Node29&#45;&gt;Node16 -->
<g id="edge34" class="edge"><title>Node29&#45;&gt;Node16</title>
<path fill="none" stroke="midnightblue" d="M1174.01,-310.444C1160.72,-308.23 1146.33,-305.928 1133,-304 1003.15,-285.211 969.928,-286.234 840,-268 829.366,-266.508 818.079,-264.818 807.139,-263.125"/>
<polygon fill="midnightblue" stroke="midnightblue" points="807.638,-259.661 797.217,-261.575 806.557,-266.577 807.638,-259.661"/>
</g>
<!-- Node30&#45;&gt;Node4 -->
<g id="edge41" class="edge"><title>Node30&#45;&gt;Node4</title>
<path fill="none" stroke="midnightblue" d="M1070.96,-310.359C1085.78,-301.248 1108.45,-285.768 1124,-268 1157.55,-229.667 1137.6,-196.226 1180,-168 1233.64,-132.292 1420.17,-124.764 1515.28,-123.282"/>
<polygon fill="midnightblue" stroke="midnightblue" points="1515.36,-126.782 1525.31,-123.143 1515.26,-119.783 1515.36,-126.782"/>
</g>
<!-- Node30&#45;&gt;Node13 -->
<g id="edge39" class="edge"><title>Node30&#45;&gt;Node13</title>
<path fill="none" stroke="midnightblue" d="M1056.52,-310.372C1057.11,-300.643 1058.09,-284.528 1058.86,-271.85"/>
<polygon fill="midnightblue" stroke="midnightblue" points="1062.35,-272.035 1059.46,-261.841 1055.37,-271.611 1062.35,-272.035"/>
</g>
<!-- Node30&#45;&gt;Node16 -->
<g id="edge40" class="edge"><title>Node30&#45;&gt;Node16</title>
<path fill="none" stroke="midnightblue" d="M1015.66,-310.439C959.147,-298.446 856.463,-276.654 795.114,-263.635"/>
<polygon fill="midnightblue" stroke="midnightblue" points="795.776,-260.198 785.268,-261.546 794.323,-267.045 795.776,-260.198"/>
</g>
<!-- Node31&#45;&gt;Node4 -->
<g id="edge63" class="edge"><title>Node31&#45;&gt;Node4</title>
<path fill="none" stroke="midnightblue" d="M1353.14,-372.466C1386.99,-365.249 1433.55,-353.295 1472,-336 1522.37,-313.347 1544.3,-313.221 1576,-268 1601.84,-231.144 1601.34,-212.029 1592,-168 1590,-158.591 1585.9,-148.762 1581.93,-140.698"/>
<polygon fill="midnightblue" stroke="midnightblue" points="1584.89,-138.81 1577.13,-131.593 1578.69,-142.072 1584.89,-138.81"/>
</g>
<!-- Node31&#45;&gt;Node29 -->
<g id="edge44" class="edge"><title>Node31&#45;&gt;Node29</title>
<path fill="none" stroke="midnightblue" d="M1294.96,-372.403C1281.49,-362.78 1259.43,-347.024 1243.28,-335.489"/>
<polygon fill="midnightblue" stroke="midnightblue" points="1245.18,-332.545 1235.01,-329.581 1241.12,-338.241 1245.18,-332.545"/>
</g>
<!-- Node32 -->
<g id="node32" class="node"><title>Node32</title>
<g id="a_node32"><a xlink:href="IndexMap_8hpp.html" target="_top" xlink:title="Core/Index/IndexMap.hpp">
<polygon fill="white" stroke="black" points="1334.5,-310.5 1334.5,-329.5 1463.5,-329.5 1463.5,-310.5 1334.5,-310.5"/>
<text text-anchor="middle" x="1399" y="-317.5" font-family="Helvetica,sans-Serif" font-size="10.00">Core/Index/IndexMap.hpp</text>
</a>
</g>
</g>
<!-- Node31&#45;&gt;Node32 -->
<g id="edge45" class="edge"><title>Node31&#45;&gt;Node32</title>
<path fill="none" stroke="midnightblue" d="M1320.18,-372.403C1335.07,-362.691 1359.54,-346.732 1377.27,-335.17"/>
<polygon fill="midnightblue" stroke="midnightblue" points="1379.38,-337.975 1385.84,-329.581 1375.56,-332.112 1379.38,-337.975"/>
</g>
<!-- Node36 -->
<g id="node36" class="node"><title>Node36</title>
<g id="a_node36"><a xlink:href="Log_8hpp.html" target="_top" xlink:title="Core/Log/Log.hpp">
<polygon fill="white" stroke="black" points="1804,-310.5 1804,-329.5 1898,-329.5 1898,-310.5 1804,-310.5"/>
<text text-anchor="middle" x="1851" y="-317.5" font-family="Helvetica,sans-Serif" font-size="10.00">Core/Log/Log.hpp</text>
</a>
</g>
</g>
<!-- Node31&#45;&gt;Node36 -->
<g id="edge53" class="edge"><title>Node31&#45;&gt;Node36</title>
<path fill="none" stroke="midnightblue" d="M1362.83,-373.035C1365.59,-372.677 1368.33,-372.33 1371,-372 1523.56,-353.174 1703.93,-335.143 1793.93,-326.433"/>
<polygon fill="midnightblue" stroke="midnightblue" points="1794.31,-329.912 1803.93,-325.468 1793.64,-322.945 1794.31,-329.912"/>
</g>
<!-- Node32&#45;&gt;Node4 -->
<g id="edge46" class="edge"><title>Node32&#45;&gt;Node4</title>
<path fill="none" stroke="midnightblue" d="M1463.81,-313.403C1495.41,-307.205 1531.2,-294.378 1553,-268 1582.97,-231.731 1579.51,-171.985 1575.31,-141.76"/>
<polygon fill="midnightblue" stroke="midnightblue" points="1578.74,-141.067 1573.73,-131.732 1571.83,-142.154 1578.74,-141.067"/>
</g>
<!-- Node32&#45;&gt;Node13 -->
<g id="edge50" class="edge"><title>Node32&#45;&gt;Node13</title>
<path fill="none" stroke="midnightblue" d="M1355.03,-310.439C1293.17,-298.396 1180.57,-276.475 1113.8,-263.475"/>
<polygon fill="midnightblue" stroke="midnightblue" points="1114.38,-260.021 1103.89,-261.546 1113.04,-266.892 1114.38,-260.021"/>
</g>
<!-- Node32&#45;&gt;Node23 -->
<g id="edge47" class="edge"><title>Node32&#45;&gt;Node23</title>
<path fill="none" stroke="midnightblue" d="M1359.36,-310.451C1333.75,-303.086 1301.33,-290.05 1280,-268 1246.83,-233.715 1278.56,-197.411 1241,-168 1194.01,-131.202 1013.97,-124.401 934.303,-123.212"/>
<polygon fill="midnightblue" stroke="midnightblue" points="934.244,-119.711 924.201,-123.084 934.155,-126.711 934.244,-119.711"/>
</g>
<!-- Node33 -->
<g id="node33" class="node"><title>Node33</title>
<polygon fill="white" stroke="#bfbfbf" points="1492,-242.5 1492,-261.5 1544,-261.5 1544,-242.5 1492,-242.5"/>
<text text-anchor="middle" x="1518" y="-249.5" font-family="Helvetica,sans-Serif" font-size="10.00">assert.h</text>
</g>
<!-- Node32&#45;&gt;Node33 -->
<g id="edge48" class="edge"><title>Node32&#45;&gt;Node33</title>
<path fill="none" stroke="midnightblue" d="M1414.56,-310.372C1434.69,-299.205 1469.99,-279.627 1493.68,-266.488"/>
<polygon fill="midnightblue" stroke="midnightblue" points="1495.39,-269.541 1502.44,-261.63 1492,-263.42 1495.39,-269.541"/>
</g>
<!-- Node34 -->
<g id="node34" class="node"><title>Node34</title>
<polygon fill="white" stroke="#bfbfbf" points="1289.5,-242.5 1289.5,-261.5 1332.5,-261.5 1332.5,-242.5 1289.5,-242.5"/>
<text text-anchor="middle" x="1311" y="-249.5" font-family="Helvetica,sans-Serif" font-size="10.00">deque</text>
</g>
<!-- Node32&#45;&gt;Node34 -->
<g id="edge49" class="edge"><title>Node32&#45;&gt;Node34</title>
<path fill="none" stroke="midnightblue" d="M1387.5,-310.372C1373.13,-299.6 1348.34,-281.002 1330.88,-267.906"/>
<polygon fill="midnightblue" stroke="midnightblue" points="1332.61,-264.83 1322.51,-261.63 1328.41,-270.431 1332.61,-264.83"/>
</g>
<!-- Node35 -->
<g id="node35" class="node"><title>Node35</title>
<g id="a_node35"><a xlink:href="IndexMap_8inl.html" target="_top" xlink:title="Core/Index/IndexMap.inl">
<polygon fill="white" stroke="black" points="1350.5,-242.5 1350.5,-261.5 1473.5,-261.5 1473.5,-242.5 1350.5,-242.5"/>
<text text-anchor="middle" x="1412" y="-249.5" font-family="Helvetica,sans-Serif" font-size="10.00">Core/Index/IndexMap.inl</text>
</a>
</g>
</g>
<!-- Node32&#45;&gt;Node35 -->
<g id="edge51" class="edge"><title>Node32&#45;&gt;Node35</title>
<path fill="none" stroke="midnightblue" d="M1395.97,-310.372C1395.81,-300.544 1398.57,-284.202 1402.23,-271.467"/>
<polygon fill="midnightblue" stroke="midnightblue" points="1405.6,-272.435 1405.48,-261.841 1398.97,-270.196 1405.6,-272.435"/>
</g>
<!-- Node35&#45;&gt;Node32 -->
<g id="edge52" class="edge"><title>Node35&#45;&gt;Node32</title>
<path fill="none" stroke="midnightblue" d="M1415.03,-261.841C1415.15,-271.762 1412.37,-288.124 1408.69,-300.807"/>
<polygon fill="midnightblue" stroke="midnightblue" points="1405.34,-299.777 1405.43,-310.372 1411.97,-302.034 1405.34,-299.777"/>
</g>
<!-- Node36&#45;&gt;Node4 -->
<g id="edge54" class="edge"><title>Node36&#45;&gt;Node4</title>
<path fill="none" stroke="midnightblue" d="M1803.77,-317.032C1763.09,-312.975 1705.09,-301.24 1667,-268 1630.55,-236.189 1652.57,-207.041 1624,-168 1615.52,-156.409 1603.52,-145.773 1593.19,-137.755"/>
<polygon fill="midnightblue" stroke="midnightblue" points="1595.13,-134.835 1585.02,-131.673 1590.95,-140.45 1595.13,-134.835"/>
</g>
<!-- Node36&#45;&gt;Node9 -->
<g id="edge55" class="edge"><title>Node36&#45;&gt;Node9</title>
<path fill="none" stroke="midnightblue" d="M1898.12,-311.507C1925.76,-304.708 1959.23,-291.905 1980,-268 2004.89,-239.358 2000,-222.945 2000,-185 2000,-185 2000,-185 2000,-121 2000,-74.4023 1950.05,-41.1433 1916.57,-24.0835"/>
<polygon fill="midnightblue" stroke="midnightblue" points="1917.72,-20.7511 1907.2,-19.5078 1914.65,-27.0411 1917.72,-20.7511"/>
</g>
<!-- Node37 -->
<g id="node37" class="node"><title>Node37</title>
<polygon fill="white" stroke="#bfbfbf" points="1828,-242.5 1828,-261.5 1874,-261.5 1874,-242.5 1828,-242.5"/>
<text text-anchor="middle" x="1851" y="-249.5" font-family="Helvetica,sans-Serif" font-size="10.00">stdio.h</text>
</g>
<!-- Node36&#45;&gt;Node37 -->
<g id="edge56" class="edge"><title>Node36&#45;&gt;Node37</title>
<path fill="none" stroke="midnightblue" d="M1851,-310.372C1851,-300.643 1851,-284.528 1851,-271.85"/>
<polygon fill="midnightblue" stroke="midnightblue" points="1854.5,-271.841 1851,-261.841 1847.5,-271.841 1854.5,-271.841"/>
</g>
<!-- Node38 -->
<g id="node38" class="node"><title>Node38</title>
<polygon fill="white" stroke="#bfbfbf" points="1748.5,-174.5 1748.5,-193.5 1789.5,-193.5 1789.5,-174.5 1748.5,-174.5"/>
<text text-anchor="middle" x="1769" y="-181.5" font-family="Helvetica,sans-Serif" font-size="10.00">string</text>
</g>
<!-- Node36&#45;&gt;Node38 -->
<g id="edge57" class="edge"><title>Node36&#45;&gt;Node38</title>
<path fill="none" stroke="midnightblue" d="M1859.24,-310.452C1873.33,-294.772 1899.04,-260.753 1883,-236 1864.78,-207.891 1827.03,-195.135 1799.96,-189.438"/>
<polygon fill="midnightblue" stroke="midnightblue" points="1800.29,-185.939 1789.82,-187.523 1799,-192.817 1800.29,-185.939"/>
</g>
<!-- Node39 -->
<g id="node39" class="node"><title>Node39</title>
<g id="a_node39"><a xlink:href="StringUtils_8hpp.html" target="_top" xlink:title="Core/String/StringUtils.hpp">
<polygon fill="white" stroke="black" points="1676,-242.5 1676,-261.5 1810,-261.5 1810,-242.5 1676,-242.5"/>
<text text-anchor="middle" x="1743" y="-249.5" font-family="Helvetica,sans-Serif" font-size="10.00">Core/String/StringUtils.hpp</text>
</a>
</g>
</g>
<!-- Node36&#45;&gt;Node39 -->
<g id="edge58" class="edge"><title>Node36&#45;&gt;Node39</title>
<path fill="none" stroke="midnightblue" d="M1836.88,-310.372C1818.85,-299.353 1787.42,-280.145 1765.93,-267.014"/>
<polygon fill="midnightblue" stroke="midnightblue" points="1767.48,-263.859 1757.12,-261.63 1763.83,-269.832 1767.48,-263.859"/>
</g>
<!-- Node40 -->
<g id="node40" class="node"><title>Node40</title>
<polygon fill="white" stroke="#bfbfbf" points="1930.5,-242.5 1930.5,-261.5 1971.5,-261.5 1971.5,-242.5 1930.5,-242.5"/>
<text text-anchor="middle" x="1951" y="-249.5" font-family="Helvetica,sans-Serif" font-size="10.00">ctime</text>
</g>
<!-- Node36&#45;&gt;Node40 -->
<g id="edge62" class="edge"><title>Node36&#45;&gt;Node40</title>
<path fill="none" stroke="midnightblue" d="M1864.07,-310.372C1880.69,-299.403 1909.61,-280.317 1929.5,-267.191"/>
<polygon fill="midnightblue" stroke="midnightblue" points="1931.51,-270.06 1937.92,-261.63 1927.65,-264.218 1931.51,-270.06"/>
</g>
<!-- Node39&#45;&gt;Node4 -->
<g id="edge59" class="edge"><title>Node39&#45;&gt;Node4</title>
<path fill="none" stroke="midnightblue" d="M1736.2,-242.305C1723.17,-226.085 1693.22,-190.795 1662,-168 1644.02,-154.876 1621.65,-143.67 1603.71,-135.722"/>
<polygon fill="midnightblue" stroke="midnightblue" points="1604.82,-132.391 1594.25,-131.651 1602.05,-138.82 1604.82,-132.391"/>
</g>
<!-- Node39&#45;&gt;Node12 -->
<g id="edge61" class="edge"><title>Node39&#45;&gt;Node12</title>
<path fill="none" stroke="midnightblue" d="M1675.89,-242.674C1560.44,-228.351 1328.43,-199.568 1243.28,-189.005"/>
<polygon fill="midnightblue" stroke="midnightblue" points="1243.54,-185.51 1233.19,-187.752 1242.68,-192.457 1243.54,-185.51"/>
</g>
<!-- Node39&#45;&gt;Node38 -->
<g id="edge60" class="edge"><title>Node39&#45;&gt;Node38</title>
<path fill="none" stroke="midnightblue" d="M1746.4,-242.372C1750.27,-232.544 1756.71,-216.202 1761.73,-203.467"/>
<polygon fill="midnightblue" stroke="midnightblue" points="1765.11,-204.428 1765.52,-193.841 1758.6,-201.862 1765.11,-204.428"/>
</g>
<!-- Node41&#45;&gt;Node28 -->
<g id="edge65" class="edge"><title>Node41&#45;&gt;Node28</title>
<path fill="none" stroke="midnightblue" d="M1425.9,-391.516C1396.33,-400.743 1345.92,-415.507 1309.33,-425.699"/>
<polygon fill="midnightblue" stroke="midnightblue" points="1308.11,-422.405 1299.4,-428.444 1309.97,-429.152 1308.11,-422.405"/>
</g>
</g>
</svg>
