<?xml version="1.0" encoding="UTF-8" standalone="no"?>
<!DOCTYPE svg PUBLIC "-//W3C//DTD SVG 1.1//EN"
 "http://www.w3.org/Graphics/SVG/1.1/DTD/svg11.dtd">
<!-- Generated by graphviz version 2.36.0 (20140111.2315)
 -->
<!-- Title: /home/travis/build/STORM&#45;IRIT/Radium&#45;Engine/src/Core/Geometry/Mapping/Mapping.inl Pages: 1 -->
<svg width="1180pt" height="434pt"
 viewBox="0.00 0.00 1180.40 434.00" xmlns="http://www.w3.org/2000/svg" xmlns:xlink="http://www.w3.org/1999/xlink">
<g id="graph0" class="graph" transform="scale(1 1) rotate(0) translate(4 430)">
<title>/home/travis/build/STORM&#45;IRIT/Radium&#45;Engine/src/Core/Geometry/Mapping/Mapping.inl</title>
<polygon fill="white" stroke="none" points="-4,4 -4,-430 1176.4,-430 1176.4,4 -4,4"/>
<!-- Node1 -->
<g id="node1" class="node"><title>Node1</title>
<polygon fill="#bfbfbf" stroke="black" points="170.405,-373 170.405,-425 318.405,-425 318.405,-373 170.405,-373"/>
<text text-anchor="start" x="178.405" y="-413" font-family="Helvetica,sans-Serif" font-size="10.00">/home/travis/build</text>
<text text-anchor="start" x="178.405" y="-402" font-family="Helvetica,sans-Serif" font-size="10.00">/STORM&#45;IRIT/Radium&#45;Engine</text>
<text text-anchor="start" x="178.405" y="-391" font-family="Helvetica,sans-Serif" font-size="10.00">/src/Core/Geometry/Mapping</text>
<text text-anchor="middle" x="244.405" y="-380" font-family="Helvetica,sans-Serif" font-size="10.00">/Mapping.inl</text>
</g>
<!-- Node2 -->
<g id="node2" class="node"><title>Node2</title>
<g id="a_node2"><a xlink:href="Mapping_8hpp.html" target="_top" xlink:title="Core/Geometry/Mapping\l/Mapping.hpp">
<polygon fill="white" stroke="black" points="182.905,-305 182.905,-335 305.905,-335 305.905,-305 182.905,-305"/>
<text text-anchor="start" x="190.905" y="-323" font-family="Helvetica,sans-Serif" font-size="10.00">Core/Geometry/Mapping</text>
<text text-anchor="middle" x="244.405" y="-312" font-family="Helvetica,sans-Serif" font-size="10.00">/Mapping.hpp</text>
</a>
</g>
</g>
<!-- Node1&#45;&gt;Node2 -->
<g id="edge1" class="edge"><title>Node1&#45;&gt;Node2</title>
<path fill="none" stroke="midnightblue" d="M238.026,-372.787C237.512,-363.932 237.532,-354.007 238.085,-345.234"/>
<polygon fill="midnightblue" stroke="midnightblue" points="241.572,-345.536 239.024,-335.252 234.602,-344.88 241.572,-345.536"/>
</g>
<!-- Node2&#45;&gt;Node1 -->
<g id="edge29" class="edge"><title>Node2&#45;&gt;Node1</title>
<path fill="none" stroke="midnightblue" d="M249.786,-335.252C250.805,-342.969 251.255,-352.877 251.136,-362.529"/>
<polygon fill="midnightblue" stroke="midnightblue" points="247.629,-362.673 250.784,-372.787 254.625,-362.913 247.629,-362.673"/>
</g>
<!-- Node3 -->
<g id="node3" class="node"><title>Node3</title>
<g id="a_node3"><a xlink:href="AlignedStdVector_8hpp.html" target="_top" xlink:title="Core/Containers/AlignedStd\lVector.hpp">
<polygon fill="white" stroke="black" points="32.4048,-237 32.4048,-267 170.405,-267 170.405,-237 32.4048,-237"/>
<text text-anchor="start" x="40.4048" y="-255" font-family="Helvetica,sans-Serif" font-size="10.00">Core/Containers/AlignedStd</text>
<text text-anchor="middle" x="101.405" y="-244" font-family="Helvetica,sans-Serif" font-size="10.00">Vector.hpp</text>
</a>
</g>
</g>
<!-- Node2&#45;&gt;Node3 -->
<g id="edge2" class="edge"><title>Node2&#45;&gt;Node3</title>
<path fill="none" stroke="midnightblue" d="M213.728,-304.841C192.522,-295.054 164.111,-281.941 141.169,-271.353"/>
<polygon fill="midnightblue" stroke="midnightblue" points="142.577,-268.148 132.031,-267.135 139.644,-274.504 142.577,-268.148"/>
</g>
<!-- Node13 -->
<g id="node13" class="node"><title>Node13</title>
<g id="a_node13"><a xlink:href="Index_8hpp.html" target="_top" xlink:title="Core/Index/Index.hpp">
<polygon fill="white" stroke="black" points="189.405,-242.5 189.405,-261.5 299.405,-261.5 299.405,-242.5 189.405,-242.5"/>
<text text-anchor="middle" x="244.405" y="-249.5" font-family="Helvetica,sans-Serif" font-size="10.00">Core/Index/Index.hpp</text>
</a>
</g>
</g>
<!-- Node2&#45;&gt;Node13 -->
<g id="edge12" class="edge"><title>Node2&#45;&gt;Node13</title>
<path fill="none" stroke="midnightblue" d="M244.405,-304.679C244.405,-295.101 244.405,-282.394 244.405,-271.977"/>
<polygon fill="midnightblue" stroke="midnightblue" points="247.905,-271.828 244.405,-261.828 240.905,-271.828 247.905,-271.828"/>
</g>
<!-- Node16 -->
<g id="node16" class="node"><title>Node16</title>
<g id="a_node16"><a xlink:href="LinearAlgebra_8hpp.html" target="_top" xlink:title="Core/Math/LinearAlgebra.hpp">
<polygon fill="white" stroke="black" points="555.905,-242.5 555.905,-261.5 698.905,-261.5 698.905,-242.5 555.905,-242.5"/>
<text text-anchor="middle" x="627.405" y="-249.5" font-family="Helvetica,sans-Serif" font-size="10.00">Core/Math/LinearAlgebra.hpp</text>
</a>
</g>
</g>
<!-- Node2&#45;&gt;Node16 -->
<g id="edge15" class="edge"><title>Node2&#45;&gt;Node16</title>
<path fill="none" stroke="midnightblue" d="M305.94,-308.396C377.992,-295.98 496.52,-275.555 567.751,-263.28"/>
<polygon fill="midnightblue" stroke="midnightblue" points="568.646,-266.677 577.906,-261.53 567.457,-259.779 568.646,-266.677"/>
</g>
<!-- Node4 -->
<g id="node4" class="node"><title>Node4</title>
<g id="a_node4"><a xlink:href="RaCore_8hpp.html" target="_top" xlink:title="Core/RaCore.hpp">
<polygon fill="white" stroke="black" points="326.905,-112.5 326.905,-131.5 419.905,-131.5 419.905,-112.5 326.905,-112.5"/>
<text text-anchor="middle" x="373.405" y="-119.5" font-family="Helvetica,sans-Serif" font-size="10.00">Core/RaCore.hpp</text>
</a>
</g>
</g>
<!-- Node3&#45;&gt;Node4 -->
<g id="edge3" class="edge"><title>Node3&#45;&gt;Node4</title>
<path fill="none" stroke="midnightblue" d="M53.2684,-236.969C35.3122,-229.138 16.7827,-217.35 6.4048,-200 -0.895829,-187.795 -3.02001,-178.651 6.4048,-168 26.6136,-145.162 219.034,-131.434 316.87,-125.875"/>
<polygon fill="midnightblue" stroke="midnightblue" points="317.101,-129.368 326.89,-125.316 316.71,-122.379 317.101,-129.368"/>
</g>
<!-- Node11 -->
<g id="node11" class="node"><title>Node11</title>
<polygon fill="white" stroke="#bfbfbf" points="15.4048,-174.5 15.4048,-193.5 103.405,-193.5 103.405,-174.5 15.4048,-174.5"/>
<text text-anchor="middle" x="59.4048" y="-181.5" font-family="Helvetica,sans-Serif" font-size="10.00">Eigen/StdVector</text>
</g>
<!-- Node3&#45;&gt;Node11 -->
<g id="edge10" class="edge"><title>Node3&#45;&gt;Node11</title>
<path fill="none" stroke="midnightblue" d="M92.2914,-236.679C85.8724,-226.592 77.244,-213.033 70.4359,-202.335"/>
<polygon fill="midnightblue" stroke="midnightblue" points="73.3444,-200.386 65.0228,-193.828 67.4388,-204.144 73.3444,-200.386"/>
</g>
<!-- Node12 -->
<g id="node12" class="node"><title>Node12</title>
<polygon fill="white" stroke="#bfbfbf" points="121.405,-174.5 121.405,-193.5 165.405,-193.5 165.405,-174.5 121.405,-174.5"/>
<text text-anchor="middle" x="143.405" y="-181.5" font-family="Helvetica,sans-Serif" font-size="10.00">vector</text>
</g>
<!-- Node3&#45;&gt;Node12 -->
<g id="edge11" class="edge"><title>Node3&#45;&gt;Node12</title>
<path fill="none" stroke="midnightblue" d="M110.518,-236.679C116.937,-226.592 125.566,-213.033 132.374,-202.335"/>
<polygon fill="midnightblue" stroke="midnightblue" points="135.371,-204.144 137.787,-193.828 129.465,-200.386 135.371,-204.144"/>
</g>
<!-- Node5 -->
<g id="node5" class="node"><title>Node5</title>
<g id="a_node5"><a xlink:href="CoreMacros_8hpp.html" target="_top" xlink:title="Core/CoreMacros.hpp">
<polygon fill="white" stroke="black" points="316.905,-56.5 316.905,-75.5 429.905,-75.5 429.905,-56.5 316.905,-56.5"/>
<text text-anchor="middle" x="373.405" y="-63.5" font-family="Helvetica,sans-Serif" font-size="10.00">Core/CoreMacros.hpp</text>
</a>
</g>
</g>
<!-- Node4&#45;&gt;Node5 -->
<g id="edge4" class="edge"><title>Node4&#45;&gt;Node5</title>
<path fill="none" stroke="midnightblue" d="M373.405,-112.083C373.405,-105.006 373.405,-94.8611 373.405,-85.9865"/>
<polygon fill="midnightblue" stroke="midnightblue" points="376.905,-85.751 373.405,-75.7511 369.905,-85.7511 376.905,-85.751"/>
</g>
<!-- Node6 -->
<g id="node6" class="node"><title>Node6</title>
<polygon fill="white" stroke="#bfbfbf" points="217.905,-0.5 217.905,-19.5 266.905,-19.5 266.905,-0.5 217.905,-0.5"/>
<text text-anchor="middle" x="242.405" y="-7.5" font-family="Helvetica,sans-Serif" font-size="10.00">cassert</text>
</g>
<!-- Node5&#45;&gt;Node6 -->
<g id="edge5" class="edge"><title>Node5&#45;&gt;Node6</title>
<path fill="none" stroke="midnightblue" d="M352.647,-56.4435C331.088,-47.5566 297.141,-33.5632 272.611,-23.4514"/>
<polygon fill="midnightblue" stroke="midnightblue" points="273.644,-20.0917 263.065,-19.5164 270.976,-26.5634 273.644,-20.0917"/>
</g>
<!-- Node7 -->
<g id="node7" class="node"><title>Node7</title>
<polygon fill="white" stroke="#bfbfbf" points="284.905,-0.5 284.905,-19.5 327.905,-19.5 327.905,-0.5 284.905,-0.5"/>
<text text-anchor="middle" x="306.405" y="-7.5" font-family="Helvetica,sans-Serif" font-size="10.00">cstdio</text>
</g>
<!-- Node5&#45;&gt;Node7 -->
<g id="edge6" class="edge"><title>Node5&#45;&gt;Node7</title>
<path fill="none" stroke="midnightblue" d="M362.64,-56.324C352.639,-48.2631 337.518,-36.0765 325.474,-26.3695"/>
<polygon fill="midnightblue" stroke="midnightblue" points="327.348,-23.3841 317.365,-19.8339 322.955,-28.8343 327.348,-23.3841"/>
</g>
<!-- Node8 -->
<g id="node8" class="node"><title>Node8</title>
<polygon fill="white" stroke="#bfbfbf" points="346.405,-0.5 346.405,-19.5 400.405,-19.5 400.405,-0.5 346.405,-0.5"/>
<text text-anchor="middle" x="373.405" y="-7.5" font-family="Helvetica,sans-Serif" font-size="10.00">iostream</text>
</g>
<!-- Node5&#45;&gt;Node8 -->
<g id="edge7" class="edge"><title>Node5&#45;&gt;Node8</title>
<path fill="none" stroke="midnightblue" d="M373.405,-56.083C373.405,-49.0059 373.405,-38.8611 373.405,-29.9865"/>
<polygon fill="midnightblue" stroke="midnightblue" points="376.905,-29.751 373.405,-19.7511 369.905,-29.7511 376.905,-29.751"/>
</g>
<!-- Node9 -->
<g id="node9" class="node"><title>Node9</title>
<polygon fill="white" stroke="#bfbfbf" points="418.405,-0.5 418.405,-19.5 470.405,-19.5 470.405,-0.5 418.405,-0.5"/>
<text text-anchor="middle" x="444.405" y="-7.5" font-family="Helvetica,sans-Serif" font-size="10.00">sstream</text>
</g>
<!-- Node5&#45;&gt;Node9 -->
<g id="edge8" class="edge"><title>Node5&#45;&gt;Node9</title>
<path fill="none" stroke="midnightblue" d="M384.812,-56.324C395.514,-48.1849 411.745,-35.8395 424.568,-26.0874"/>
<polygon fill="midnightblue" stroke="midnightblue" points="426.949,-28.6734 432.79,-19.8339 422.712,-23.1018 426.949,-28.6734"/>
</g>
<!-- Node10 -->
<g id="node10" class="node"><title>Node10</title>
<polygon fill="white" stroke="#bfbfbf" points="488.405,-0.5 488.405,-19.5 532.405,-19.5 532.405,-0.5 488.405,-0.5"/>
<text text-anchor="middle" x="510.405" y="-7.5" font-family="Helvetica,sans-Serif" font-size="10.00">thread</text>
</g>
<!-- Node5&#45;&gt;Node10 -->
<g id="edge9" class="edge"><title>Node5&#45;&gt;Node10</title>
<path fill="none" stroke="midnightblue" d="M395.113,-56.4435C417.76,-47.5171 453.477,-33.4387 479.157,-23.3168"/>
<polygon fill="midnightblue" stroke="midnightblue" points="480.778,-26.4397 488.798,-19.5164 478.211,-19.9273 480.778,-26.4397"/>
</g>
<!-- Node14 -->
<g id="node14" class="node"><title>Node14</title>
<polygon fill="white" stroke="#bfbfbf" points="183.405,-174.5 183.405,-193.5 223.405,-193.5 223.405,-174.5 183.405,-174.5"/>
<text text-anchor="middle" x="203.405" y="-181.5" font-family="Helvetica,sans-Serif" font-size="10.00">limits</text>
</g>
<!-- Node13&#45;&gt;Node14 -->
<g id="edge13" class="edge"><title>Node13&#45;&gt;Node14</title>
<path fill="none" stroke="midnightblue" d="M239.045,-242.372C232.818,-232.348 222.38,-215.546 214.405,-202.708"/>
<polygon fill="midnightblue" stroke="midnightblue" points="217.147,-200.489 208.897,-193.841 211.201,-204.182 217.147,-200.489"/>
</g>
<!-- Node15 -->
<g id="node15" class="node"><title>Node15</title>
<g id="a_node15"><a xlink:href="Index_8inl.html" target="_top" xlink:title="Core/Index/Index.inl">
<polygon fill="white" stroke="black" points="241.405,-174.5 241.405,-193.5 345.405,-193.5 345.405,-174.5 241.405,-174.5"/>
<text text-anchor="middle" x="293.405" y="-181.5" font-family="Helvetica,sans-Serif" font-size="10.00">Core/Index/Index.inl</text>
</a>
</g>
</g>
<!-- Node13&#45;&gt;Node15 -->
<g id="edge14" class="edge"><title>Node13&#45;&gt;Node15</title>
<path fill="none" stroke="midnightblue" d="M250.811,-242.372C258.399,-232.151 271.218,-214.884 280.815,-201.957"/>
<polygon fill="midnightblue" stroke="midnightblue" points="283.69,-203.957 286.841,-193.841 278.07,-199.784 283.69,-203.957"/>
</g>
<!-- Node16&#45;&gt;Node4 -->
<g id="edge16" class="edge"><title>Node16&#45;&gt;Node4</title>
<path fill="none" stroke="midnightblue" d="M555.676,-243.618C495.699,-236 416.374,-222.079 393.405,-200 377.722,-184.925 373.766,-159.254 373.044,-141.731"/>
<polygon fill="midnightblue" stroke="midnightblue" points="376.542,-141.551 372.945,-131.586 369.543,-141.619 376.542,-141.551"/>
</g>
<!-- Node17 -->
<g id="node17" class="node"><title>Node17</title>
<polygon fill="white" stroke="#bfbfbf" points="401.905,-174.5 401.905,-193.5 466.905,-193.5 466.905,-174.5 401.905,-174.5"/>
<text text-anchor="middle" x="434.405" y="-181.5" font-family="Helvetica,sans-Serif" font-size="10.00">Eigen/Core</text>
</g>
<!-- Node16&#45;&gt;Node17 -->
<g id="edge17" class="edge"><title>Node16&#45;&gt;Node17</title>
<path fill="none" stroke="midnightblue" d="M601.71,-242.472C571.624,-232.452 520.316,-215.256 476.405,-200 473.662,-199.047 470.822,-198.052 467.971,-197.046"/>
<polygon fill="midnightblue" stroke="midnightblue" points="468.962,-193.684 458.367,-193.639 466.621,-200.281 468.962,-193.684"/>
</g>
<!-- Node18 -->
<g id="node18" class="node"><title>Node18</title>
<polygon fill="white" stroke="#bfbfbf" points="484.905,-174.5 484.905,-193.5 571.905,-193.5 571.905,-174.5 484.905,-174.5"/>
<text text-anchor="middle" x="528.405" y="-181.5" font-family="Helvetica,sans-Serif" font-size="10.00">Eigen/Geometry</text>
</g>
<!-- Node16&#45;&gt;Node18 -->
<g id="edge18" class="edge"><title>Node16&#45;&gt;Node18</title>
<path fill="none" stroke="midnightblue" d="M614.462,-242.372C598.009,-231.403 569.38,-212.317 549.692,-199.191"/>
<polygon fill="midnightblue" stroke="midnightblue" points="551.612,-196.265 541.351,-193.63 547.73,-202.09 551.612,-196.265"/>
</g>
<!-- Node19 -->
<g id="node19" class="node"><title>Node19</title>
<polygon fill="white" stroke="#bfbfbf" points="589.905,-174.5 589.905,-193.5 664.905,-193.5 664.905,-174.5 589.905,-174.5"/>
<text text-anchor="middle" x="627.405" y="-181.5" font-family="Helvetica,sans-Serif" font-size="10.00">Eigen/Sparse</text>
</g>
<!-- Node16&#45;&gt;Node19 -->
<g id="edge19" class="edge"><title>Node16&#45;&gt;Node19</title>
<path fill="none" stroke="midnightblue" d="M627.405,-242.372C627.405,-232.643 627.405,-216.528 627.405,-203.85"/>
<polygon fill="midnightblue" stroke="midnightblue" points="630.905,-203.841 627.405,-193.841 623.905,-203.841 630.905,-203.841"/>
</g>
<!-- Node20 -->
<g id="node20" class="node"><title>Node20</title>
<polygon fill="white" stroke="#bfbfbf" points="682.905,-174.5 682.905,-193.5 741.905,-193.5 741.905,-174.5 682.905,-174.5"/>
<text text-anchor="middle" x="712.405" y="-181.5" font-family="Helvetica,sans-Serif" font-size="10.00">functional</text>
</g>
<!-- Node16&#45;&gt;Node20 -->
<g id="edge20" class="edge"><title>Node16&#45;&gt;Node20</title>
<path fill="none" stroke="midnightblue" d="M638.517,-242.372C652.389,-231.6 676.341,-213.002 693.207,-199.906"/>
<polygon fill="midnightblue" stroke="midnightblue" points="695.538,-202.528 701.29,-193.63 691.245,-196.999 695.538,-202.528"/>
</g>
<!-- Node21 -->
<g id="node21" class="node"><title>Node21</title>
<polygon fill="white" stroke="#bfbfbf" points="759.905,-169 759.905,-199 892.905,-199 892.905,-169 759.905,-169"/>
<text text-anchor="start" x="767.905" y="-187" font-family="Helvetica,sans-Serif" font-size="10.00">unsupported/Eigen/Aligned</text>
<text text-anchor="middle" x="826.405" y="-176" font-family="Helvetica,sans-Serif" font-size="10.00">Vector3</text>
</g>
<!-- Node16&#45;&gt;Node21 -->
<g id="edge21" class="edge"><title>Node16&#45;&gt;Node21</title>
<path fill="none" stroke="midnightblue" d="M653.421,-242.372C684.014,-232.225 735.55,-215.133 774.431,-202.237"/>
<polygon fill="midnightblue" stroke="midnightblue" points="775.633,-205.526 784.023,-199.056 773.43,-198.882 775.633,-205.526"/>
</g>
<!-- Node22 -->
<g id="node22" class="node"><title>Node22</title>
<g id="a_node22"><a xlink:href="Math_8hpp.html" target="_top" xlink:title="Core/Math/Math.hpp">
<polygon fill="white" stroke="black" points="911.405,-174.5 911.405,-193.5 1017.4,-193.5 1017.4,-174.5 911.405,-174.5"/>
<text text-anchor="middle" x="964.405" y="-181.5" font-family="Helvetica,sans-Serif" font-size="10.00">Core/Math/Math.hpp</text>
</a>
</g>
</g>
<!-- Node16&#45;&gt;Node22 -->
<g id="edge22" class="edge"><title>Node16&#45;&gt;Node22</title>
<path fill="none" stroke="midnightblue" d="M677.301,-242.481C732.33,-232.907 823.421,-216.531 901.405,-200 907.324,-198.745 913.538,-197.355 919.662,-195.942"/>
<polygon fill="midnightblue" stroke="midnightblue" points="920.877,-199.252 929.814,-193.563 919.279,-192.437 920.877,-199.252"/>
</g>
<!-- Node26 -->
<g id="node26" class="node"><title>Node26</title>
<g id="a_node26"><a xlink:href="LinearAlgebra_8inl.html" target="_top" xlink:title="Core/Math/LinearAlgebra.inl">
<polygon fill="white" stroke="black" points="1035.9,-174.5 1035.9,-193.5 1172.9,-193.5 1172.9,-174.5 1035.9,-174.5"/>
<text text-anchor="middle" x="1104.4" y="-181.5" font-family="Helvetica,sans-Serif" font-size="10.00">Core/Math/LinearAlgebra.inl</text>
</a>
</g>
</g>
<!-- Node16&#45;&gt;Node26 -->
<g id="edge28" class="edge"><title>Node16&#45;&gt;Node26</title>
<path fill="none" stroke="midnightblue" d="M699.128,-243.126C778.961,-234.056 911.714,-218.061 1025.4,-200 1034.02,-198.631 1043.14,-197.037 1051.99,-195.409"/>
<polygon fill="midnightblue" stroke="midnightblue" points="1052.66,-198.845 1061.85,-193.567 1051.37,-191.965 1052.66,-198.845"/>
</g>
<!-- Node22&#45;&gt;Node4 -->
<g id="edge23" class="edge"><title>Node22&#45;&gt;Node4</title>
<path fill="none" stroke="midnightblue" d="M932.54,-174.441C922.626,-172.041 911.617,-169.642 901.405,-168 731.165,-140.635 527.192,-129.219 430.126,-125.066"/>
<polygon fill="midnightblue" stroke="midnightblue" points="430.086,-121.562 419.948,-124.641 429.793,-128.556 430.086,-121.562"/>
</g>
<!-- Node23 -->
<g id="node23" class="node"><title>Node23</title>
<polygon fill="white" stroke="#bfbfbf" points="823.405,-112.5 823.405,-131.5 879.405,-131.5 879.405,-112.5 823.405,-112.5"/>
<text text-anchor="middle" x="851.405" y="-119.5" font-family="Helvetica,sans-Serif" font-size="10.00">algorithm</text>
</g>
<!-- Node22&#45;&gt;Node23 -->
<g id="edge24" class="edge"><title>Node22&#45;&gt;Node23</title>
<path fill="none" stroke="midnightblue" d="M948.215,-174.403C929.502,-164.468 898.482,-147.997 876.606,-136.381"/>
<polygon fill="midnightblue" stroke="midnightblue" points="878.038,-133.179 867.565,-131.581 874.756,-139.362 878.038,-133.179"/>
</g>
<!-- Node24 -->
<g id="node24" class="node"><title>Node24</title>
<polygon fill="white" stroke="#bfbfbf" points="897.405,-112.5 897.405,-131.5 941.405,-131.5 941.405,-112.5 897.405,-112.5"/>
<text text-anchor="middle" x="919.405" y="-119.5" font-family="Helvetica,sans-Serif" font-size="10.00">cmath</text>
</g>
<!-- Node22&#45;&gt;Node24 -->
<g id="edge25" class="edge"><title>Node22&#45;&gt;Node24</title>
<path fill="none" stroke="midnightblue" d="M957.957,-174.403C951.207,-165.403 940.435,-151.041 931.992,-139.782"/>
<polygon fill="midnightblue" stroke="midnightblue" points="934.64,-137.481 925.84,-131.581 929.04,-141.681 934.64,-137.481"/>
</g>
<!-- Node25 -->
<g id="node25" class="node"><title>Node25</title>
<g id="a_node25"><a xlink:href="Math_8inl.html" target="_top" xlink:title="Core/Math/Math.inl">
<polygon fill="white" stroke="black" points="959.405,-112.5 959.405,-131.5 1059.4,-131.5 1059.4,-112.5 959.405,-112.5"/>
<text text-anchor="middle" x="1009.4" y="-119.5" font-family="Helvetica,sans-Serif" font-size="10.00">Core/Math/Math.inl</text>
</a>
</g>
</g>
<!-- Node22&#45;&gt;Node25 -->
<g id="edge26" class="edge"><title>Node22&#45;&gt;Node25</title>
<path fill="none" stroke="midnightblue" d="M965.952,-174.403C970.85,-165.225 981.53,-150.47 991.255,-139.117"/>
<polygon fill="midnightblue" stroke="midnightblue" points="993.96,-141.345 998.072,-131.581 988.768,-136.649 993.96,-141.345"/>
</g>
<!-- Node25&#45;&gt;Node22 -->
<g id="edge27" class="edge"><title>Node25&#45;&gt;Node22</title>
<path fill="none" stroke="midnightblue" d="M1007.87,-131.581C1002.97,-140.752 992.298,-155.506 982.571,-166.863"/>
<polygon fill="midnightblue" stroke="midnightblue" points="979.864,-164.639 975.753,-174.403 985.056,-169.334 979.864,-164.639"/>
</g>
</g>
</svg>
