<?xml version="1.0" encoding="UTF-8" standalone="no"?>
<!DOCTYPE svg PUBLIC "-//W3C//DTD SVG 1.1//EN"
 "http://www.w3.org/Graphics/SVG/1.1/DTD/svg11.dtd">
<!-- Generated by graphviz version 2.36.0 (20140111.2315)
 -->
<!-- Title: /home/travis/build/STORM&#45;IRIT/Radium&#45;Engine/src/Engine/Renderer/Material/MaterialConverters.cpp Pages: 1 -->
<svg width="586pt" height="354pt"
 viewBox="0.00 0.00 586.00 354.00" xmlns="http://www.w3.org/2000/svg" xmlns:xlink="http://www.w3.org/1999/xlink">
<g id="graph0" class="graph" transform="scale(1 1) rotate(0) translate(4 350)">
<title>/home/travis/build/STORM&#45;IRIT/Radium&#45;Engine/src/Engine/Renderer/Material/MaterialConverters.cpp</title>
<polygon fill="white" stroke="none" points="-4,4 -4,-350 582,-350 582,4 -4,4"/>
<!-- Node1 -->
<g id="node1" class="node"><title>Node1</title>
<polygon fill="#bfbfbf" stroke="black" points="338,-293 338,-345 486,-345 486,-293 338,-293"/>
<text text-anchor="start" x="346" y="-333" font-family="Helvetica,sans-Serif" font-size="10.00">/home/travis/build</text>
<text text-anchor="start" x="346" y="-322" font-family="Helvetica,sans-Serif" font-size="10.00">/STORM&#45;IRIT/Radium&#45;Engine</text>
<text text-anchor="start" x="346" y="-311" font-family="Helvetica,sans-Serif" font-size="10.00">/src/Engine/Renderer/Material</text>
<text text-anchor="middle" x="412" y="-300" font-family="Helvetica,sans-Serif" font-size="10.00">/MaterialConverters.cpp</text>
</g>
<!-- Node2 -->
<g id="node2" class="node"><title>Node2</title>
<g id="a_node2"><a xlink:href="MaterialConverters_8hpp.html" target="_top" xlink:title="Engine/Renderer/Material\l/MaterialConverters.hpp">
<polygon fill="white" stroke="black" points="53.5,-169 53.5,-199 180.5,-199 180.5,-169 53.5,-169"/>
<text text-anchor="start" x="61.5" y="-187" font-family="Helvetica,sans-Serif" font-size="10.00">Engine/Renderer/Material</text>
<text text-anchor="middle" x="117" y="-176" font-family="Helvetica,sans-Serif" font-size="10.00">/MaterialConverters.hpp</text>
</a>
</g>
</g>
<!-- Node1&#45;&gt;Node2 -->
<g id="edge1" class="edge"><title>Node1&#45;&gt;Node2</title>
<path fill="none" stroke="midnightblue" d="M356.513,-292.984C298.534,-266.844 208.975,-226.467 157.378,-203.204"/>
<polygon fill="midnightblue" stroke="midnightblue" points="158.757,-199.987 148.202,-199.067 155.879,-206.368 158.757,-199.987"/>
</g>
<!-- Node12 -->
<g id="node12" class="node"><title>Node12</title>
<g id="a_node12"><a xlink:href="Log_8hpp.html" target="_top" xlink:title="Core/Log/Log.hpp">
<polygon fill="white" stroke="black" points="365,-236.5 365,-255.5 459,-255.5 459,-236.5 365,-236.5"/>
<text text-anchor="middle" x="412" y="-243.5" font-family="Helvetica,sans-Serif" font-size="10.00">Core/Log/Log.hpp</text>
</a>
</g>
</g>
<!-- Node1&#45;&gt;Node12 -->
<g id="edge11" class="edge"><title>Node1&#45;&gt;Node12</title>
<path fill="none" stroke="midnightblue" d="M412,-292.768C412,-283.89 412,-274.074 412,-265.816"/>
<polygon fill="midnightblue" stroke="midnightblue" points="415.5,-265.757 412,-255.757 408.5,-265.757 415.5,-265.757"/>
</g>
<!-- Node18 -->
<g id="node18" class="node"><title>Node18</title>
<polygon fill="white" stroke="#bfbfbf" points="477.5,-236.5 477.5,-255.5 512.5,-255.5 512.5,-236.5 477.5,-236.5"/>
<text text-anchor="middle" x="495" y="-243.5" font-family="Helvetica,sans-Serif" font-size="10.00">map</text>
</g>
<!-- Node1&#45;&gt;Node18 -->
<g id="edge22" class="edge"><title>Node1&#45;&gt;Node18</title>
<path fill="none" stroke="midnightblue" d="M441.496,-292.768C453.409,-282.578 466.765,-271.153 477.153,-262.267"/>
<polygon fill="midnightblue" stroke="midnightblue" points="479.439,-264.917 484.763,-255.757 474.889,-259.598 479.439,-264.917"/>
</g>
<!-- Node3 -->
<g id="node3" class="node"><title>Node3</title>
<g id="a_node3"><a xlink:href="RaEngine_8hpp.html" target="_top" xlink:title="Engine/RaEngine.hpp">
<polygon fill="white" stroke="black" points="-0.5,-112.5 -0.5,-131.5 110.5,-131.5 110.5,-112.5 -0.5,-112.5"/>
<text text-anchor="middle" x="55" y="-119.5" font-family="Helvetica,sans-Serif" font-size="10.00">Engine/RaEngine.hpp</text>
</a>
</g>
</g>
<!-- Node2&#45;&gt;Node3 -->
<g id="edge2" class="edge"><title>Node2&#45;&gt;Node3</title>
<path fill="none" stroke="midnightblue" d="M102.307,-168.781C93.0189,-159.792 81.0007,-148.162 71.4022,-138.873"/>
<polygon fill="midnightblue" stroke="midnightblue" points="73.6416,-136.17 64.0215,-131.731 68.7736,-141.2 73.6416,-136.17"/>
</g>
<!-- Node10 -->
<g id="node10" class="node"><title>Node10</title>
<polygon fill="white" stroke="#bfbfbf" points="128.5,-112.5 128.5,-131.5 187.5,-131.5 187.5,-112.5 128.5,-112.5"/>
<text text-anchor="middle" x="158" y="-119.5" font-family="Helvetica,sans-Serif" font-size="10.00">functional</text>
</g>
<!-- Node2&#45;&gt;Node10 -->
<g id="edge9" class="edge"><title>Node2&#45;&gt;Node10</title>
<path fill="none" stroke="midnightblue" d="M126.716,-168.781C132.613,-160.152 140.173,-149.088 146.384,-139.999"/>
<polygon fill="midnightblue" stroke="midnightblue" points="149.282,-141.962 152.034,-131.731 143.502,-138.012 149.282,-141.962"/>
</g>
<!-- Node11 -->
<g id="node11" class="node"><title>Node11</title>
<polygon fill="white" stroke="#bfbfbf" points="205.5,-112.5 205.5,-131.5 246.5,-131.5 246.5,-112.5 205.5,-112.5"/>
<text text-anchor="middle" x="226" y="-119.5" font-family="Helvetica,sans-Serif" font-size="10.00">string</text>
</g>
<!-- Node2&#45;&gt;Node11 -->
<g id="edge10" class="edge"><title>Node2&#45;&gt;Node11</title>
<path fill="none" stroke="midnightblue" d="M142.556,-168.933C160.288,-159.171 183.78,-146.24 201.32,-136.586"/>
<polygon fill="midnightblue" stroke="midnightblue" points="203.304,-139.489 210.377,-131.6 199.928,-133.356 203.304,-139.489"/>
</g>
<!-- Node4 -->
<g id="node4" class="node"><title>Node4</title>
<g id="a_node4"><a xlink:href="CoreMacros_8hpp.html" target="_top" xlink:title="Core/CoreMacros.hpp">
<polygon fill="white" stroke="black" points="351.5,-56.5 351.5,-75.5 464.5,-75.5 464.5,-56.5 351.5,-56.5"/>
<text text-anchor="middle" x="408" y="-63.5" font-family="Helvetica,sans-Serif" font-size="10.00">Core/CoreMacros.hpp</text>
</a>
</g>
</g>
<!-- Node3&#45;&gt;Node4 -->
<g id="edge3" class="edge"><title>Node3&#45;&gt;Node4</title>
<path fill="none" stroke="midnightblue" d="M110.545,-112.503C173.335,-102.898 275.479,-87.2724 342.21,-77.0642"/>
<polygon fill="midnightblue" stroke="midnightblue" points="342.841,-80.5084 352.197,-75.5364 341.783,-73.5889 342.841,-80.5084"/>
</g>
<!-- Node5 -->
<g id="node5" class="node"><title>Node5</title>
<polygon fill="white" stroke="#bfbfbf" points="453.5,-0.5 453.5,-19.5 502.5,-19.5 502.5,-0.5 453.5,-0.5"/>
<text text-anchor="middle" x="478" y="-7.5" font-family="Helvetica,sans-Serif" font-size="10.00">cassert</text>
</g>
<!-- Node4&#45;&gt;Node5 -->
<g id="edge4" class="edge"><title>Node4&#45;&gt;Node5</title>
<path fill="none" stroke="midnightblue" d="M419.247,-56.324C429.797,-48.1849 445.801,-35.8395 458.442,-26.0874"/>
<polygon fill="midnightblue" stroke="midnightblue" points="460.769,-28.7132 466.549,-19.8339 456.493,-23.1707 460.769,-28.7132"/>
</g>
<!-- Node6 -->
<g id="node6" class="node"><title>Node6</title>
<polygon fill="white" stroke="#bfbfbf" points="257.5,-0.5 257.5,-19.5 300.5,-19.5 300.5,-0.5 257.5,-0.5"/>
<text text-anchor="middle" x="279" y="-7.5" font-family="Helvetica,sans-Serif" font-size="10.00">cstdio</text>
</g>
<!-- Node4&#45;&gt;Node6 -->
<g id="edge5" class="edge"><title>Node4&#45;&gt;Node6</title>
<path fill="none" stroke="midnightblue" d="M387.56,-56.4435C366.33,-47.5566 332.901,-33.5632 308.745,-23.4514"/>
<polygon fill="midnightblue" stroke="midnightblue" points="309.921,-20.1493 299.345,-19.5164 307.218,-26.6064 309.921,-20.1493"/>
</g>
<!-- Node7 -->
<g id="node7" class="node"><title>Node7</title>
<polygon fill="white" stroke="#bfbfbf" points="319,-0.5 319,-19.5 373,-19.5 373,-0.5 319,-0.5"/>
<text text-anchor="middle" x="346" y="-7.5" font-family="Helvetica,sans-Serif" font-size="10.00">iostream</text>
</g>
<!-- Node4&#45;&gt;Node7 -->
<g id="edge6" class="edge"><title>Node4&#45;&gt;Node7</title>
<path fill="none" stroke="midnightblue" d="M398.039,-56.324C388.873,-48.3414 375.063,-36.3128 363.972,-26.6529"/>
<polygon fill="midnightblue" stroke="midnightblue" points="365.982,-23.7624 356.143,-19.8339 361.385,-29.041 365.982,-23.7624"/>
</g>
<!-- Node8 -->
<g id="node8" class="node"><title>Node8</title>
<polygon fill="white" stroke="#bfbfbf" points="526,-0.5 526,-19.5 578,-19.5 578,-0.5 526,-0.5"/>
<text text-anchor="middle" x="552" y="-7.5" font-family="Helvetica,sans-Serif" font-size="10.00">sstream</text>
</g>
<!-- Node4&#45;&gt;Node8 -->
<g id="edge7" class="edge"><title>Node4&#45;&gt;Node8</title>
<path fill="none" stroke="midnightblue" d="M430.817,-56.4435C454.832,-47.4381 492.829,-33.1891 519.869,-23.049"/>
<polygon fill="midnightblue" stroke="midnightblue" points="521.155,-26.3049 529.29,-19.5164 518.697,-19.7506 521.155,-26.3049"/>
</g>
<!-- Node9 -->
<g id="node9" class="node"><title>Node9</title>
<polygon fill="white" stroke="#bfbfbf" points="391,-0.5 391,-19.5 435,-19.5 435,-0.5 391,-0.5"/>
<text text-anchor="middle" x="413" y="-7.5" font-family="Helvetica,sans-Serif" font-size="10.00">thread</text>
</g>
<!-- Node4&#45;&gt;Node9 -->
<g id="edge8" class="edge"><title>Node4&#45;&gt;Node9</title>
<path fill="none" stroke="midnightblue" d="M408.826,-56.083C409.481,-49.0059 410.42,-38.8611 411.242,-29.9865"/>
<polygon fill="midnightblue" stroke="midnightblue" points="414.753,-30.0312 412.19,-19.7511 407.783,-29.3858 414.753,-30.0312"/>
</g>
<!-- Node12&#45;&gt;Node8 -->
<g id="edge14" class="edge"><title>Node12&#45;&gt;Node8</title>
<path fill="none" stroke="midnightblue" d="M457.478,-236.487C479.274,-230.075 503.867,-218.992 519,-200 559.269,-149.461 557.456,-66.9783 554.216,-29.9924"/>
<polygon fill="midnightblue" stroke="midnightblue" points="557.661,-29.2746 553.166,-19.6808 550.697,-29.9841 557.661,-29.2746"/>
</g>
<!-- Node12&#45;&gt;Node11 -->
<g id="edge16" class="edge"><title>Node12&#45;&gt;Node11</title>
<path fill="none" stroke="midnightblue" d="M364.791,-239.934C316.11,-233.634 244.975,-221.059 228,-200 214.92,-183.773 217.025,-158.764 220.674,-141.68"/>
<polygon fill="midnightblue" stroke="midnightblue" points="224.122,-142.321 223.151,-131.771 217.33,-140.624 224.122,-142.321"/>
</g>
<!-- Node13 -->
<g id="node13" class="node"><title>Node13</title>
<g id="a_node13"><a xlink:href="RaCore_8hpp.html" target="_top" xlink:title="Core/RaCore.hpp">
<polygon fill="white" stroke="black" points="361.5,-112.5 361.5,-131.5 454.5,-131.5 454.5,-112.5 361.5,-112.5"/>
<text text-anchor="middle" x="408" y="-119.5" font-family="Helvetica,sans-Serif" font-size="10.00">Core/RaCore.hpp</text>
</a>
</g>
</g>
<!-- Node12&#45;&gt;Node13 -->
<g id="edge12" class="edge"><title>Node12&#45;&gt;Node13</title>
<path fill="none" stroke="midnightblue" d="M449.968,-236.411C469.408,-229.883 491.376,-218.715 503,-200 510.504,-187.918 510.605,-180.018 503,-168 492.954,-152.126 475.627,-141.742 458.499,-134.999"/>
<polygon fill="midnightblue" stroke="midnightblue" points="459.646,-131.692 449.051,-131.617 457.286,-138.283 459.646,-131.692"/>
</g>
<!-- Node14 -->
<g id="node14" class="node"><title>Node14</title>
<polygon fill="white" stroke="#bfbfbf" points="389,-174.5 389,-193.5 435,-193.5 435,-174.5 389,-174.5"/>
<text text-anchor="middle" x="412" y="-181.5" font-family="Helvetica,sans-Serif" font-size="10.00">stdio.h</text>
</g>
<!-- Node12&#45;&gt;Node14 -->
<g id="edge15" class="edge"><title>Node12&#45;&gt;Node14</title>
<path fill="none" stroke="midnightblue" d="M412,-236.403C412,-227.938 412,-214.728 412,-203.82"/>
<polygon fill="midnightblue" stroke="midnightblue" points="415.5,-203.581 412,-193.581 408.5,-203.581 415.5,-203.581"/>
</g>
<!-- Node15 -->
<g id="node15" class="node"><title>Node15</title>
<g id="a_node15"><a xlink:href="StringUtils_8hpp.html" target="_top" xlink:title="Core/String/StringUtils.hpp">
<polygon fill="white" stroke="black" points="237,-174.5 237,-193.5 371,-193.5 371,-174.5 237,-174.5"/>
<text text-anchor="middle" x="304" y="-181.5" font-family="Helvetica,sans-Serif" font-size="10.00">Core/String/StringUtils.hpp</text>
</a>
</g>
</g>
<!-- Node12&#45;&gt;Node15 -->
<g id="edge17" class="edge"><title>Node12&#45;&gt;Node15</title>
<path fill="none" stroke="midnightblue" d="M396.526,-236.403C378.722,-226.512 349.259,-210.144 328.368,-198.538"/>
<polygon fill="midnightblue" stroke="midnightblue" points="329.886,-195.378 319.445,-193.581 326.487,-201.497 329.886,-195.378"/>
</g>
<!-- Node17 -->
<g id="node17" class="node"><title>Node17</title>
<polygon fill="white" stroke="#bfbfbf" points="453.5,-174.5 453.5,-193.5 494.5,-193.5 494.5,-174.5 453.5,-174.5"/>
<text text-anchor="middle" x="474" y="-181.5" font-family="Helvetica,sans-Serif" font-size="10.00">ctime</text>
</g>
<!-- Node12&#45;&gt;Node17 -->
<g id="edge21" class="edge"><title>Node12&#45;&gt;Node17</title>
<path fill="none" stroke="midnightblue" d="M420.883,-236.403C430.459,-227.136 445.911,-212.183 457.686,-200.788"/>
<polygon fill="midnightblue" stroke="midnightblue" points="460.381,-203.05 465.133,-193.581 455.513,-198.02 460.381,-203.05"/>
</g>
<!-- Node13&#45;&gt;Node4 -->
<g id="edge13" class="edge"><title>Node13&#45;&gt;Node4</title>
<path fill="none" stroke="midnightblue" d="M408,-112.083C408,-105.006 408,-94.8611 408,-85.9865"/>
<polygon fill="midnightblue" stroke="midnightblue" points="411.5,-85.751 408,-75.7511 404.5,-85.7511 411.5,-85.751"/>
</g>
<!-- Node15&#45;&gt;Node11 -->
<g id="edge19" class="edge"><title>Node15&#45;&gt;Node11</title>
<path fill="none" stroke="midnightblue" d="M292.825,-174.403C280.429,-164.869 260.21,-149.315 245.254,-137.811"/>
<polygon fill="midnightblue" stroke="midnightblue" points="247.215,-134.904 237.155,-131.581 242.947,-140.452 247.215,-134.904"/>
</g>
<!-- Node15&#45;&gt;Node13 -->
<g id="edge18" class="edge"><title>Node15&#45;&gt;Node13</title>
<path fill="none" stroke="midnightblue" d="M318.901,-174.403C335.968,-164.557 364.161,-148.291 384.262,-136.695"/>
<polygon fill="midnightblue" stroke="midnightblue" points="386.214,-139.61 393.127,-131.581 382.716,-133.546 386.214,-139.61"/>
</g>
<!-- Node16 -->
<g id="node16" class="node"><title>Node16</title>
<polygon fill="white" stroke="#bfbfbf" points="282,-112.5 282,-131.5 326,-131.5 326,-112.5 282,-112.5"/>
<text text-anchor="middle" x="304" y="-119.5" font-family="Helvetica,sans-Serif" font-size="10.00">vector</text>
</g>
<!-- Node15&#45;&gt;Node16 -->
<g id="edge20" class="edge"><title>Node15&#45;&gt;Node16</title>
<path fill="none" stroke="midnightblue" d="M304,-174.403C304,-165.938 304,-152.728 304,-141.82"/>
<polygon fill="midnightblue" stroke="midnightblue" points="307.5,-141.581 304,-131.581 300.5,-141.581 307.5,-141.581"/>
</g>
</g>
</svg>
