<?xml version="1.0" encoding="UTF-8" standalone="no"?>
<!DOCTYPE svg PUBLIC "-//W3C//DTD SVG 1.1//EN"
 "http://www.w3.org/Graphics/SVG/1.1/DTD/svg11.dtd">
<!-- Generated by graphviz version 2.36.0 (20140111.2315)
 -->
<!-- Title: /home/travis/build/STORM&#45;IRIT/Radium&#45;Engine/src/Core/File/MaterialData.inl Pages: 1 -->
<svg width="1763pt" height="466pt"
 viewBox="0.00 0.00 1763.00 466.00" xmlns="http://www.w3.org/2000/svg" xmlns:xlink="http://www.w3.org/1999/xlink">
<g id="graph0" class="graph" transform="scale(1 1) rotate(0) translate(4 462)">
<title>/home/travis/build/STORM&#45;IRIT/Radium&#45;Engine/src/Core/File/MaterialData.inl</title>
<polygon fill="white" stroke="none" points="-4,4 -4,-462 1759,-462 1759,4 -4,4"/>
<!-- Node1 -->
<g id="node1" class="node"><title>Node1</title>
<polygon fill="#bfbfbf" stroke="black" points="1430,-416.5 1430,-457.5 1578,-457.5 1578,-416.5 1430,-416.5"/>
<text text-anchor="start" x="1438" y="-445.5" font-family="Helvetica,sans-Serif" font-size="10.00">/home/travis/build</text>
<text text-anchor="start" x="1438" y="-434.5" font-family="Helvetica,sans-Serif" font-size="10.00">/STORM&#45;IRIT/Radium&#45;Engine</text>
<text text-anchor="middle" x="1504" y="-423.5" font-family="Helvetica,sans-Serif" font-size="10.00">/src/Core/File/MaterialData.inl</text>
</g>
<!-- Node2 -->
<g id="node2" class="node"><title>Node2</title>
<g id="a_node2"><a xlink:href="MaterialData_8hpp.html" target="_top" xlink:title="Core/File/MaterialData.hpp">
<polygon fill="white" stroke="black" points="1114,-360.5 1114,-379.5 1248,-379.5 1248,-360.5 1114,-360.5"/>
<text text-anchor="middle" x="1181" y="-367.5" font-family="Helvetica,sans-Serif" font-size="10.00">Core/File/MaterialData.hpp</text>
</a>
</g>
</g>
<!-- Node1&#45;&gt;Node2 -->
<g id="edge1" class="edge"><title>Node1&#45;&gt;Node2</title>
<path fill="none" stroke="midnightblue" d="M1429.86,-422.215C1368.04,-410.102 1281.86,-392.727 1228.79,-381.653"/>
<polygon fill="midnightblue" stroke="midnightblue" points="1229.46,-378.218 1218.95,-379.594 1228.02,-385.069 1229.46,-378.218"/>
</g>
<!-- Node22 -->
<g id="node22" class="node"><title>Node22</title>
<polygon fill="white" stroke="#bfbfbf" points="1372,-112.5 1372,-131.5 1428,-131.5 1428,-112.5 1372,-112.5"/>
<text text-anchor="middle" x="1400" y="-119.5" font-family="Helvetica,sans-Serif" font-size="10.00">algorithm</text>
</g>
<!-- Node1&#45;&gt;Node22 -->
<g id="edge47" class="edge"><title>Node1&#45;&gt;Node22</title>
<path fill="none" stroke="midnightblue" d="M1577.46,-416.496C1625.35,-398.832 1679,-367.358 1679,-315 1679,-315 1679,-315 1679,-251 1679,-146.278 1514.61,-126.906 1438.2,-123.558"/>
<polygon fill="midnightblue" stroke="midnightblue" points="1438.15,-120.054 1428.03,-123.185 1437.89,-127.05 1438.15,-120.054"/>
</g>
<!-- Node27 -->
<g id="node27" class="node"><title>Node27</title>
<g id="a_node27"><a xlink:href="Log_8hpp.html" target="_top" xlink:title="Core/Log/Log.hpp">
<polygon fill="white" stroke="black" points="1457,-304.5 1457,-323.5 1551,-323.5 1551,-304.5 1457,-304.5"/>
<text text-anchor="middle" x="1504" y="-311.5" font-family="Helvetica,sans-Serif" font-size="10.00">Core/Log/Log.hpp</text>
</a>
</g>
</g>
<!-- Node1&#45;&gt;Node27 -->
<g id="edge37" class="edge"><title>Node1&#45;&gt;Node27</title>
<path fill="none" stroke="midnightblue" d="M1504,-416.29C1504,-393.48 1504,-356.189 1504,-333.781"/>
<polygon fill="midnightblue" stroke="midnightblue" points="1507.5,-333.575 1504,-323.575 1500.5,-333.575 1507.5,-333.575"/>
</g>
<!-- Node31 -->
<g id="node31" class="node"><title>Node31</title>
<polygon fill="white" stroke="#bfbfbf" points="1707.5,-360.5 1707.5,-379.5 1754.5,-379.5 1754.5,-360.5 1707.5,-360.5"/>
<text text-anchor="middle" x="1731" y="-367.5" font-family="Helvetica,sans-Serif" font-size="10.00">iterator</text>
</g>
<!-- Node1&#45;&gt;Node31 -->
<g id="edge48" class="edge"><title>Node1&#45;&gt;Node31</title>
<path fill="none" stroke="midnightblue" d="M1572.11,-416.498C1613.47,-404.654 1664.46,-390.053 1697.34,-380.638"/>
<polygon fill="midnightblue" stroke="midnightblue" points="1698.69,-383.891 1707.34,-377.774 1696.77,-377.162 1698.69,-383.891"/>
</g>
<!-- Node2&#45;&gt;Node1 -->
<g id="edge36" class="edge"><title>Node2&#45;&gt;Node1</title>
<path fill="none" stroke="midnightblue" d="M1228,-379.506C1278.16,-389.18 1358.51,-405.256 1419.64,-417.79"/>
<polygon fill="midnightblue" stroke="midnightblue" points="1419.17,-421.265 1429.67,-419.849 1420.58,-414.408 1419.17,-421.265"/>
</g>
<!-- Node3 -->
<g id="node3" class="node"><title>Node3</title>
<polygon fill="white" stroke="#bfbfbf" points="1254.5,-174.5 1254.5,-193.5 1295.5,-193.5 1295.5,-174.5 1254.5,-174.5"/>
<text text-anchor="middle" x="1275" y="-181.5" font-family="Helvetica,sans-Serif" font-size="10.00">string</text>
</g>
<!-- Node2&#45;&gt;Node3 -->
<g id="edge2" class="edge"><title>Node2&#45;&gt;Node3</title>
<path fill="none" stroke="midnightblue" d="M1192.71,-360.184C1203.02,-351.868 1217.8,-338.536 1227,-324 1251.73,-284.946 1265.49,-231.606 1271.42,-203.723"/>
<polygon fill="midnightblue" stroke="midnightblue" points="1274.89,-204.246 1273.44,-193.751 1268.03,-202.859 1274.89,-204.246"/>
</g>
<!-- Node4 -->
<g id="node4" class="node"><title>Node4</title>
<polygon fill="white" stroke="#bfbfbf" points="1009,-174.5 1009,-193.5 1053,-193.5 1053,-174.5 1009,-174.5"/>
<text text-anchor="middle" x="1031" y="-181.5" font-family="Helvetica,sans-Serif" font-size="10.00">vector</text>
</g>
<!-- Node2&#45;&gt;Node4 -->
<g id="edge3" class="edge"><title>Node2&#45;&gt;Node4</title>
<path fill="none" stroke="midnightblue" d="M1162.97,-360.327C1134.3,-345.563 1078.65,-312.742 1050,-268 1037.45,-248.402 1033.15,-221.52 1031.7,-203.724"/>
<polygon fill="midnightblue" stroke="midnightblue" points="1035.19,-203.512 1031.11,-193.737 1028.21,-203.926 1035.19,-203.512"/>
</g>
<!-- Node5 -->
<g id="node5" class="node"><title>Node5</title>
<g id="a_node5"><a xlink:href="VectorArray_8hpp.html" target="_top" xlink:title="Core/Containers/VectorArray.hpp">
<polygon fill="white" stroke="black" points="841.5,-304.5 841.5,-323.5 1002.5,-323.5 1002.5,-304.5 841.5,-304.5"/>
<text text-anchor="middle" x="922" y="-311.5" font-family="Helvetica,sans-Serif" font-size="10.00">Core/Containers/VectorArray.hpp</text>
</a>
</g>
</g>
<!-- Node2&#45;&gt;Node5 -->
<g id="edge4" class="edge"><title>Node2&#45;&gt;Node5</title>
<path fill="none" stroke="midnightblue" d="M1139.96,-360.444C1094.68,-351.004 1021.77,-335.802 972.894,-325.611"/>
<polygon fill="midnightblue" stroke="midnightblue" points="973.351,-322.131 962.847,-323.516 971.922,-328.984 973.351,-322.131"/>
</g>
<!-- Node7 -->
<g id="node7" class="node"><title>Node7</title>
<g id="a_node7"><a xlink:href="RaCore_8hpp.html" target="_top" xlink:title="Core/RaCore.hpp">
<polygon fill="white" stroke="black" points="1075.5,-112.5 1075.5,-131.5 1168.5,-131.5 1168.5,-112.5 1075.5,-112.5"/>
<text text-anchor="middle" x="1122" y="-119.5" font-family="Helvetica,sans-Serif" font-size="10.00">Core/RaCore.hpp</text>
</a>
</g>
</g>
<!-- Node2&#45;&gt;Node7 -->
<g id="edge32" class="edge"><title>Node2&#45;&gt;Node7</title>
<path fill="none" stroke="midnightblue" d="M1183.9,-360.392C1190.7,-338.919 1206.09,-281.447 1193,-236 1182,-197.818 1153.87,-160.08 1136.5,-139.327"/>
<polygon fill="midnightblue" stroke="midnightblue" points="1138.97,-136.827 1129.8,-131.521 1133.66,-141.388 1138.97,-136.827"/>
</g>
<!-- Node15 -->
<g id="node15" class="node"><title>Node15</title>
<g id="a_node15"><a xlink:href="LinearAlgebra_8hpp.html" target="_top" xlink:title="Core/Math/LinearAlgebra.hpp">
<polygon fill="white" stroke="black" points="470.5,-242.5 470.5,-261.5 613.5,-261.5 613.5,-242.5 470.5,-242.5"/>
<text text-anchor="middle" x="542" y="-249.5" font-family="Helvetica,sans-Serif" font-size="10.00">Core/Math/LinearAlgebra.hpp</text>
</a>
</g>
</g>
<!-- Node2&#45;&gt;Node15 -->
<g id="edge31" class="edge"><title>Node2&#45;&gt;Node15</title>
<path fill="none" stroke="midnightblue" d="M1113.75,-362.585C1043.21,-355.33 929.295,-342.124 832,-324 741.813,-307.2 637.719,-279.694 582.052,-264.315"/>
<polygon fill="midnightblue" stroke="midnightblue" points="582.808,-260.893 572.236,-261.59 580.935,-267.637 582.808,-260.893"/>
</g>
<!-- Node26 -->
<g id="node26" class="node"><title>Node26</title>
<g id="a_node26"><a xlink:href="AssetData_8hpp.html" target="_top" xlink:title="Core/File/AssetData.hpp">
<polygon fill="white" stroke="black" points="1059.5,-242.5 1059.5,-261.5 1184.5,-261.5 1184.5,-242.5 1059.5,-242.5"/>
<text text-anchor="middle" x="1122" y="-249.5" font-family="Helvetica,sans-Serif" font-size="10.00">Core/File/AssetData.hpp</text>
</a>
</g>
</g>
<!-- Node2&#45;&gt;Node26 -->
<g id="edge33" class="edge"><title>Node2&#45;&gt;Node26</title>
<path fill="none" stroke="midnightblue" d="M1176.57,-360.281C1166.91,-341.294 1143.82,-295.892 1130.98,-270.662"/>
<polygon fill="midnightblue" stroke="midnightblue" points="1133.98,-268.831 1126.33,-261.505 1127.74,-272.005 1133.98,-268.831"/>
</g>
<!-- Node5&#45;&gt;Node4 -->
<g id="edge30" class="edge"><title>Node5&#45;&gt;Node4</title>
<path fill="none" stroke="midnightblue" d="M931.818,-304.473C941.658,-295.731 957.023,-281.537 969,-268 988.107,-246.405 1007.6,-219.308 1019.5,-202.068"/>
<polygon fill="midnightblue" stroke="midnightblue" points="1022.53,-203.835 1025.28,-193.602 1016.75,-199.888 1022.53,-203.835"/>
</g>
<!-- Node6 -->
<g id="node6" class="node"><title>Node6</title>
<g id="a_node6"><a xlink:href="AlignedStdVector_8hpp.html" target="_top" xlink:title="Core/Containers/AlignedStd\lVector.hpp">
<polygon fill="white" stroke="black" points="789,-237 789,-267 927,-267 927,-237 789,-237"/>
<text text-anchor="start" x="797" y="-255" font-family="Helvetica,sans-Serif" font-size="10.00">Core/Containers/AlignedStd</text>
<text text-anchor="middle" x="858" y="-244" font-family="Helvetica,sans-Serif" font-size="10.00">Vector.hpp</text>
</a>
</g>
</g>
<!-- Node5&#45;&gt;Node6 -->
<g id="edge5" class="edge"><title>Node5&#45;&gt;Node6</title>
<path fill="none" stroke="midnightblue" d="M912.83,-304.403C904.405,-296.505 891.575,-284.477 880.444,-274.041"/>
<polygon fill="midnightblue" stroke="midnightblue" points="882.773,-271.427 873.084,-267.141 877.985,-276.534 882.773,-271.427"/>
</g>
<!-- Node5&#45;&gt;Node7 -->
<g id="edge29" class="edge"><title>Node5&#45;&gt;Node7</title>
<path fill="none" stroke="midnightblue" d="M924.261,-304.451C931.228,-279.721 954.686,-207.37 1000,-168 1018.78,-151.684 1044,-141.077 1066.63,-134.287"/>
<polygon fill="midnightblue" stroke="midnightblue" points="1067.8,-137.594 1076.48,-131.517 1065.9,-130.855 1067.8,-137.594"/>
</g>
<!-- Node5&#45;&gt;Node15 -->
<g id="edge15" class="edge"><title>Node5&#45;&gt;Node15</title>
<path fill="none" stroke="midnightblue" d="M867.959,-304.467C798.877,-293.559 679.438,-274.701 605.915,-263.092"/>
<polygon fill="midnightblue" stroke="midnightblue" points="606.278,-259.606 595.855,-261.503 605.186,-266.52 606.278,-259.606"/>
</g>
<!-- Node6&#45;&gt;Node4 -->
<g id="edge14" class="edge"><title>Node6&#45;&gt;Node4</title>
<path fill="none" stroke="midnightblue" d="M895.113,-236.841C926.154,-224.999 969.957,-208.288 999.36,-197.071"/>
<polygon fill="midnightblue" stroke="midnightblue" points="1000.64,-200.327 1008.74,-193.492 998.149,-193.787 1000.64,-200.327"/>
</g>
<!-- Node6&#45;&gt;Node7 -->
<g id="edge6" class="edge"><title>Node6&#45;&gt;Node7</title>
<path fill="none" stroke="midnightblue" d="M875.777,-236.893C904.058,-214.536 957.122,-172.976 967,-168 998.364,-152.199 1036.17,-141.084 1066.59,-133.854"/>
<polygon fill="midnightblue" stroke="midnightblue" points="1067.64,-137.203 1076.6,-131.549 1066.07,-130.381 1067.64,-137.203"/>
</g>
<!-- Node14 -->
<g id="node14" class="node"><title>Node14</title>
<polygon fill="white" stroke="#bfbfbf" points="827,-174.5 827,-193.5 915,-193.5 915,-174.5 827,-174.5"/>
<text text-anchor="middle" x="871" y="-181.5" font-family="Helvetica,sans-Serif" font-size="10.00">Eigen/StdVector</text>
</g>
<!-- Node6&#45;&gt;Node14 -->
<g id="edge13" class="edge"><title>Node6&#45;&gt;Node14</title>
<path fill="none" stroke="midnightblue" d="M860.821,-236.679C862.727,-226.999 865.264,-214.123 867.328,-203.645"/>
<polygon fill="midnightblue" stroke="midnightblue" points="870.762,-204.316 869.261,-193.828 863.894,-202.963 870.762,-204.316"/>
</g>
<!-- Node8 -->
<g id="node8" class="node"><title>Node8</title>
<g id="a_node8"><a xlink:href="CoreMacros_8hpp.html" target="_top" xlink:title="Core/CoreMacros.hpp">
<polygon fill="white" stroke="black" points="1178.5,-56.5 1178.5,-75.5 1291.5,-75.5 1291.5,-56.5 1178.5,-56.5"/>
<text text-anchor="middle" x="1235" y="-63.5" font-family="Helvetica,sans-Serif" font-size="10.00">Core/CoreMacros.hpp</text>
</a>
</g>
</g>
<!-- Node7&#45;&gt;Node8 -->
<g id="edge7" class="edge"><title>Node7&#45;&gt;Node8</title>
<path fill="none" stroke="midnightblue" d="M1139.91,-112.444C1158.25,-103.675 1187.01,-89.9355 1208.09,-79.8579"/>
<polygon fill="midnightblue" stroke="midnightblue" points="1209.67,-82.9862 1217.18,-75.5164 1206.65,-76.6703 1209.67,-82.9862"/>
</g>
<!-- Node9 -->
<g id="node9" class="node"><title>Node9</title>
<polygon fill="white" stroke="#bfbfbf" points="1309.5,-0.5 1309.5,-19.5 1358.5,-19.5 1358.5,-0.5 1309.5,-0.5"/>
<text text-anchor="middle" x="1334" y="-7.5" font-family="Helvetica,sans-Serif" font-size="10.00">cassert</text>
</g>
<!-- Node8&#45;&gt;Node9 -->
<g id="edge8" class="edge"><title>Node8&#45;&gt;Node9</title>
<path fill="none" stroke="midnightblue" d="M1250.91,-56.324C1266.64,-47.7428 1290.94,-34.486 1309.21,-24.5224"/>
<polygon fill="midnightblue" stroke="midnightblue" points="1311.03,-27.5157 1318.13,-19.6545 1307.68,-21.3704 1311.03,-27.5157"/>
</g>
<!-- Node10 -->
<g id="node10" class="node"><title>Node10</title>
<polygon fill="white" stroke="#bfbfbf" points="1113.5,-0.5 1113.5,-19.5 1156.5,-19.5 1156.5,-0.5 1113.5,-0.5"/>
<text text-anchor="middle" x="1135" y="-7.5" font-family="Helvetica,sans-Serif" font-size="10.00">cstdio</text>
</g>
<!-- Node8&#45;&gt;Node10 -->
<g id="edge9" class="edge"><title>Node8&#45;&gt;Node10</title>
<path fill="none" stroke="midnightblue" d="M1218.93,-56.324C1203.04,-47.7428 1178.49,-34.486 1160.04,-24.5224"/>
<polygon fill="midnightblue" stroke="midnightblue" points="1161.49,-21.3264 1151.03,-19.6545 1158.16,-27.4857 1161.49,-21.3264"/>
</g>
<!-- Node11 -->
<g id="node11" class="node"><title>Node11</title>
<polygon fill="white" stroke="#bfbfbf" points="1175,-0.5 1175,-19.5 1229,-19.5 1229,-0.5 1175,-0.5"/>
<text text-anchor="middle" x="1202" y="-7.5" font-family="Helvetica,sans-Serif" font-size="10.00">iostream</text>
</g>
<!-- Node8&#45;&gt;Node11 -->
<g id="edge10" class="edge"><title>Node8&#45;&gt;Node11</title>
<path fill="none" stroke="midnightblue" d="M1229.55,-56.083C1224.99,-48.6127 1218.33,-37.7244 1212.71,-28.5199"/>
<polygon fill="midnightblue" stroke="midnightblue" points="1215.55,-26.4588 1207.35,-19.7511 1209.58,-30.109 1215.55,-26.4588"/>
</g>
<!-- Node12 -->
<g id="node12" class="node"><title>Node12</title>
<polygon fill="white" stroke="#bfbfbf" points="1456,-0.5 1456,-19.5 1508,-19.5 1508,-0.5 1456,-0.5"/>
<text text-anchor="middle" x="1482" y="-7.5" font-family="Helvetica,sans-Serif" font-size="10.00">sstream</text>
</g>
<!-- Node8&#45;&gt;Node12 -->
<g id="edge11" class="edge"><title>Node8&#45;&gt;Node12</title>
<path fill="none" stroke="midnightblue" d="M1274.14,-56.4435C1321.44,-46.1031 1400.36,-28.8492 1446.14,-18.8407"/>
<polygon fill="midnightblue" stroke="midnightblue" points="1446.9,-22.2554 1455.93,-16.7003 1445.41,-15.417 1446.9,-22.2554"/>
</g>
<!-- Node13 -->
<g id="node13" class="node"><title>Node13</title>
<polygon fill="white" stroke="#bfbfbf" points="1247,-0.5 1247,-19.5 1291,-19.5 1291,-0.5 1247,-0.5"/>
<text text-anchor="middle" x="1269" y="-7.5" font-family="Helvetica,sans-Serif" font-size="10.00">thread</text>
</g>
<!-- Node8&#45;&gt;Node13 -->
<g id="edge12" class="edge"><title>Node8&#45;&gt;Node13</title>
<path fill="none" stroke="midnightblue" d="M1240.61,-56.083C1245.37,-48.5341 1252.32,-37.4948 1258.15,-28.2298"/>
<polygon fill="midnightblue" stroke="midnightblue" points="1261.12,-30.0783 1263.49,-19.7511 1255.2,-26.3486 1261.12,-30.0783"/>
</g>
<!-- Node15&#45;&gt;Node7 -->
<g id="edge16" class="edge"><title>Node15&#45;&gt;Node7</title>
<path fill="none" stroke="midnightblue" d="M613.564,-244.534C662.141,-238.041 726.784,-225.194 779,-200 799.194,-190.257 797.5,-177.082 818,-168 898.748,-132.226 1002.18,-123.901 1065.19,-122.485"/>
<polygon fill="midnightblue" stroke="midnightblue" points="1065.39,-125.982 1075.33,-122.309 1065.27,-118.983 1065.39,-125.982"/>
</g>
<!-- Node16 -->
<g id="node16" class="node"><title>Node16</title>
<polygon fill="white" stroke="#bfbfbf" points="705.5,-174.5 705.5,-193.5 770.5,-193.5 770.5,-174.5 705.5,-174.5"/>
<text text-anchor="middle" x="738" y="-181.5" font-family="Helvetica,sans-Serif" font-size="10.00">Eigen/Core</text>
</g>
<!-- Node15&#45;&gt;Node16 -->
<g id="edge17" class="edge"><title>Node15&#45;&gt;Node16</title>
<path fill="none" stroke="midnightblue" d="M568.496,-242.432C599.23,-232.446 651.392,-215.35 696,-200 698.908,-198.999 701.925,-197.948 704.946,-196.886"/>
<polygon fill="midnightblue" stroke="midnightblue" points="706.23,-200.144 714.488,-193.506 703.893,-193.546 706.23,-200.144"/>
</g>
<!-- Node17 -->
<g id="node17" class="node"><title>Node17</title>
<polygon fill="white" stroke="#bfbfbf" points="124.5,-174.5 124.5,-193.5 211.5,-193.5 211.5,-174.5 124.5,-174.5"/>
<text text-anchor="middle" x="168" y="-181.5" font-family="Helvetica,sans-Serif" font-size="10.00">Eigen/Geometry</text>
</g>
<!-- Node15&#45;&gt;Node17 -->
<g id="edge18" class="edge"><title>Node15&#45;&gt;Node17</title>
<path fill="none" stroke="midnightblue" d="M472.124,-242.472C406.582,-233.875 306.049,-219.148 220,-200 215.153,-198.922 210.092,-197.649 205.111,-196.309"/>
<polygon fill="midnightblue" stroke="midnightblue" points="205.668,-192.83 195.094,-193.503 203.779,-199.571 205.668,-192.83"/>
</g>
<!-- Node18 -->
<g id="node18" class="node"><title>Node18</title>
<polygon fill="white" stroke="#bfbfbf" points="229.5,-174.5 229.5,-193.5 304.5,-193.5 304.5,-174.5 229.5,-174.5"/>
<text text-anchor="middle" x="267" y="-181.5" font-family="Helvetica,sans-Serif" font-size="10.00">Eigen/Sparse</text>
</g>
<!-- Node15&#45;&gt;Node18 -->
<g id="edge19" class="edge"><title>Node15&#45;&gt;Node18</title>
<path fill="none" stroke="midnightblue" d="M497.79,-242.467C451.441,-233.216 376.643,-217.42 313,-200 309.19,-198.957 305.227,-197.791 301.296,-196.582"/>
<polygon fill="midnightblue" stroke="midnightblue" points="302.287,-193.225 291.696,-193.536 300.169,-199.897 302.287,-193.225"/>
</g>
<!-- Node19 -->
<g id="node19" class="node"><title>Node19</title>
<polygon fill="white" stroke="#bfbfbf" points="322.5,-174.5 322.5,-193.5 381.5,-193.5 381.5,-174.5 322.5,-174.5"/>
<text text-anchor="middle" x="352" y="-181.5" font-family="Helvetica,sans-Serif" font-size="10.00">functional</text>
</g>
<!-- Node15&#45;&gt;Node19 -->
<g id="edge20" class="edge"><title>Node15&#45;&gt;Node19</title>
<path fill="none" stroke="midnightblue" d="M515.219,-242.483C484.739,-232.68 433.538,-215.885 390,-200 387.61,-199.128 385.143,-198.206 382.668,-197.264"/>
<polygon fill="midnightblue" stroke="midnightblue" points="383.818,-193.956 373.229,-193.606 381.289,-200.483 383.818,-193.956"/>
</g>
<!-- Node20 -->
<g id="node20" class="node"><title>Node20</title>
<polygon fill="white" stroke="#bfbfbf" points="399.5,-169 399.5,-199 532.5,-199 532.5,-169 399.5,-169"/>
<text text-anchor="start" x="407.5" y="-187" font-family="Helvetica,sans-Serif" font-size="10.00">unsupported/Eigen/Aligned</text>
<text text-anchor="middle" x="466" y="-176" font-family="Helvetica,sans-Serif" font-size="10.00">Vector3</text>
</g>
<!-- Node15&#45;&gt;Node20 -->
<g id="edge21" class="edge"><title>Node15&#45;&gt;Node20</title>
<path fill="none" stroke="midnightblue" d="M532.064,-242.372C521.503,-233.2 504.407,-218.354 490.253,-206.062"/>
<polygon fill="midnightblue" stroke="midnightblue" points="492.175,-203.096 482.33,-199.181 487.586,-208.381 492.175,-203.096"/>
</g>
<!-- Node21 -->
<g id="node21" class="node"><title>Node21</title>
<g id="a_node21"><a xlink:href="Math_8hpp.html" target="_top" xlink:title="Core/Math/Math.hpp">
<polygon fill="white" stroke="black" points="0,-174.5 0,-193.5 106,-193.5 106,-174.5 0,-174.5"/>
<text text-anchor="middle" x="53" y="-181.5" font-family="Helvetica,sans-Serif" font-size="10.00">Core/Math/Math.hpp</text>
</a>
</g>
</g>
<!-- Node15&#45;&gt;Node21 -->
<g id="edge22" class="edge"><title>Node15&#45;&gt;Node21</title>
<path fill="none" stroke="midnightblue" d="M470.219,-245.045C385.058,-237.377 238.993,-222.323 115,-200 108.563,-198.841 101.796,-197.418 95.1934,-195.916"/>
<polygon fill="midnightblue" stroke="midnightblue" points="95.5623,-192.406 85.0256,-193.514 93.9533,-199.219 95.5623,-192.406"/>
</g>
<!-- Node25 -->
<g id="node25" class="node"><title>Node25</title>
<g id="a_node25"><a xlink:href="LinearAlgebra_8inl.html" target="_top" xlink:title="Core/Math/LinearAlgebra.inl">
<polygon fill="white" stroke="black" points="550.5,-174.5 550.5,-193.5 687.5,-193.5 687.5,-174.5 550.5,-174.5"/>
<text text-anchor="middle" x="619" y="-181.5" font-family="Helvetica,sans-Serif" font-size="10.00">Core/Math/LinearAlgebra.inl</text>
</a>
</g>
</g>
<!-- Node15&#45;&gt;Node25 -->
<g id="edge28" class="edge"><title>Node15&#45;&gt;Node25</title>
<path fill="none" stroke="midnightblue" d="M552.066,-242.372C564.449,-231.758 585.697,-213.545 600.934,-200.485"/>
<polygon fill="midnightblue" stroke="midnightblue" points="603.371,-203.006 608.685,-193.841 598.815,-197.692 603.371,-203.006"/>
</g>
<!-- Node21&#45;&gt;Node7 -->
<g id="edge23" class="edge"><title>Node21&#45;&gt;Node7</title>
<path fill="none" stroke="midnightblue" d="M83.0477,-174.497C93.1238,-171.977 104.474,-169.494 115,-168 300.672,-141.642 881.265,-127.877 1065.38,-124.094"/>
<polygon fill="midnightblue" stroke="midnightblue" points="1065.47,-127.593 1075.4,-123.89 1065.33,-120.594 1065.47,-127.593"/>
</g>
<!-- Node21&#45;&gt;Node22 -->
<g id="edge24" class="edge"><title>Node21&#45;&gt;Node22</title>
<path fill="none" stroke="midnightblue" d="M83.0385,-174.431C93.114,-171.906 104.466,-169.438 115,-168 582.934,-104.142 705.054,-149.522 1177,-132 1241.88,-129.591 1317.37,-126.48 1361.78,-124.618"/>
<polygon fill="midnightblue" stroke="midnightblue" points="1362,-128.112 1371.84,-124.195 1361.7,-121.118 1362,-128.112"/>
</g>
<!-- Node23 -->
<g id="node23" class="node"><title>Node23</title>
<polygon fill="white" stroke="#bfbfbf" points="121,-112.5 121,-131.5 165,-131.5 165,-112.5 121,-112.5"/>
<text text-anchor="middle" x="143" y="-119.5" font-family="Helvetica,sans-Serif" font-size="10.00">cmath</text>
</g>
<!-- Node21&#45;&gt;Node23 -->
<g id="edge25" class="edge"><title>Node21&#45;&gt;Node23</title>
<path fill="none" stroke="midnightblue" d="M65.8948,-174.403C80.4642,-164.691 104.402,-148.732 121.745,-137.17"/>
<polygon fill="midnightblue" stroke="midnightblue" points="123.75,-140.04 130.129,-131.581 119.867,-134.215 123.75,-140.04"/>
</g>
<!-- Node24 -->
<g id="node24" class="node"><title>Node24</title>
<g id="a_node24"><a xlink:href="Math_8inl.html" target="_top" xlink:title="Core/Math/Math.inl">
<polygon fill="white" stroke="black" points="3,-112.5 3,-131.5 103,-131.5 103,-112.5 3,-112.5"/>
<text text-anchor="middle" x="53" y="-119.5" font-family="Helvetica,sans-Serif" font-size="10.00">Core/Math/Math.inl</text>
</a>
</g>
</g>
<!-- Node21&#45;&gt;Node24 -->
<g id="edge26" class="edge"><title>Node21&#45;&gt;Node24</title>
<path fill="none" stroke="midnightblue" d="M48.0994,-174.403C46.2684,-165.938 45.797,-152.728 46.6851,-141.82"/>
<polygon fill="midnightblue" stroke="midnightblue" points="50.1982,-141.966 48.1029,-131.581 43.2644,-141.006 50.1982,-141.966"/>
</g>
<!-- Node24&#45;&gt;Node21 -->
<g id="edge27" class="edge"><title>Node24&#45;&gt;Node21</title>
<path fill="none" stroke="midnightblue" d="M57.8971,-131.581C59.7298,-140.04 60.203,-153.248 59.3165,-164.16"/>
<polygon fill="midnightblue" stroke="midnightblue" points="55.8028,-164.018 57.9006,-174.403 62.7369,-164.977 55.8028,-164.018"/>
</g>
<!-- Node26&#45;&gt;Node3 -->
<g id="edge35" class="edge"><title>Node26&#45;&gt;Node3</title>
<path fill="none" stroke="midnightblue" d="M1142,-242.372C1168.46,-230.958 1215.29,-210.756 1245.73,-197.625"/>
<polygon fill="midnightblue" stroke="midnightblue" points="1247.2,-200.805 1254.99,-193.63 1244.42,-194.378 1247.2,-200.805"/>
</g>
<!-- Node26&#45;&gt;Node7 -->
<g id="edge34" class="edge"><title>Node26&#45;&gt;Node7</title>
<path fill="none" stroke="midnightblue" d="M1122,-242.202C1122,-221.551 1122,-169.606 1122,-141.594"/>
<polygon fill="midnightblue" stroke="midnightblue" points="1125.5,-141.522 1122,-131.522 1118.5,-141.522 1125.5,-141.522"/>
</g>
<!-- Node27&#45;&gt;Node3 -->
<g id="edge41" class="edge"><title>Node27&#45;&gt;Node3</title>
<path fill="none" stroke="midnightblue" d="M1456.97,-307.284C1406.33,-300.267 1330.06,-286.924 1308,-268 1288.9,-251.619 1280.76,-222.663 1277.35,-203.651"/>
<polygon fill="midnightblue" stroke="midnightblue" points="1280.78,-202.9 1275.82,-193.538 1273.86,-203.95 1280.78,-202.9"/>
</g>
<!-- Node27&#45;&gt;Node7 -->
<g id="edge38" class="edge"><title>Node27&#45;&gt;Node7</title>
<path fill="none" stroke="midnightblue" d="M1500.88,-304.388C1494.96,-289.024 1480.8,-256.575 1460,-236 1382.92,-159.733 1252.96,-134.93 1178.66,-126.872"/>
<polygon fill="midnightblue" stroke="midnightblue" points="1178.86,-123.374 1168.55,-125.842 1178.15,-130.338 1178.86,-123.374"/>
</g>
<!-- Node27&#45;&gt;Node12 -->
<g id="edge39" class="edge"><title>Node27&#45;&gt;Node12</title>
<path fill="none" stroke="midnightblue" d="M1551.05,-305.627C1575.2,-299.48 1603.2,-288.288 1621,-268 1646.02,-239.474 1641,-222.945 1641,-185 1641,-185 1641,-185 1641,-121 1641,-61.5838 1564.98,-31.7428 1518.07,-18.9847"/>
<polygon fill="midnightblue" stroke="midnightblue" points="1518.81,-15.5618 1508.26,-16.4472 1517.06,-22.3389 1518.81,-15.5618"/>
</g>
<!-- Node28 -->
<g id="node28" class="node"><title>Node28</title>
<polygon fill="white" stroke="#bfbfbf" points="1507,-242.5 1507,-261.5 1553,-261.5 1553,-242.5 1507,-242.5"/>
<text text-anchor="middle" x="1530" y="-249.5" font-family="Helvetica,sans-Serif" font-size="10.00">stdio.h</text>
</g>
<!-- Node27&#45;&gt;Node28 -->
<g id="edge40" class="edge"><title>Node27&#45;&gt;Node28</title>
<path fill="none" stroke="midnightblue" d="M1507.73,-304.403C1511.51,-295.671 1517.48,-281.889 1522.29,-270.794"/>
<polygon fill="midnightblue" stroke="midnightblue" points="1525.52,-272.148 1526.28,-261.581 1519.09,-269.365 1525.52,-272.148"/>
</g>
<!-- Node29 -->
<g id="node29" class="node"><title>Node29</title>
<g id="a_node29"><a xlink:href="StringUtils_8hpp.html" target="_top" xlink:title="Core/String/StringUtils.hpp">
<polygon fill="white" stroke="black" points="1317,-242.5 1317,-261.5 1451,-261.5 1451,-242.5 1317,-242.5"/>
<text text-anchor="middle" x="1384" y="-249.5" font-family="Helvetica,sans-Serif" font-size="10.00">Core/String/StringUtils.hpp</text>
</a>
</g>
</g>
<!-- Node27&#45;&gt;Node29 -->
<g id="edge42" class="edge"><title>Node27&#45;&gt;Node29</title>
<path fill="none" stroke="midnightblue" d="M1486.81,-304.403C1466.76,-294.379 1433.4,-277.701 1410.14,-266.07"/>
<polygon fill="midnightblue" stroke="midnightblue" points="1411.67,-262.922 1401.16,-261.581 1408.54,-269.183 1411.67,-262.922"/>
</g>
<!-- Node30 -->
<g id="node30" class="node"><title>Node30</title>
<polygon fill="white" stroke="#bfbfbf" points="1571.5,-242.5 1571.5,-261.5 1612.5,-261.5 1612.5,-242.5 1571.5,-242.5"/>
<text text-anchor="middle" x="1592" y="-249.5" font-family="Helvetica,sans-Serif" font-size="10.00">ctime</text>
</g>
<!-- Node27&#45;&gt;Node30 -->
<g id="edge46" class="edge"><title>Node27&#45;&gt;Node30</title>
<path fill="none" stroke="midnightblue" d="M1516.61,-304.403C1530.72,-294.78 1553.83,-279.024 1570.75,-267.489"/>
<polygon fill="midnightblue" stroke="midnightblue" points="1573.12,-270.106 1579.42,-261.581 1569.18,-264.322 1573.12,-270.106"/>
</g>
<!-- Node29&#45;&gt;Node3 -->
<g id="edge44" class="edge"><title>Node29&#45;&gt;Node3</title>
<path fill="none" stroke="midnightblue" d="M1369.75,-242.372C1351.47,-231.304 1319.55,-211.972 1297.85,-198.838"/>
<polygon fill="midnightblue" stroke="midnightblue" points="1299.62,-195.816 1289.25,-193.63 1295.99,-201.804 1299.62,-195.816"/>
</g>
<!-- Node29&#45;&gt;Node4 -->
<g id="edge45" class="edge"><title>Node29&#45;&gt;Node4</title>
<path fill="none" stroke="midnightblue" d="M1338.21,-242.439C1265.73,-228.888 1126.35,-202.828 1063.34,-191.046"/>
<polygon fill="midnightblue" stroke="midnightblue" points="1063.67,-187.548 1053.2,-189.15 1062.38,-194.428 1063.67,-187.548"/>
</g>
<!-- Node29&#45;&gt;Node7 -->
<g id="edge43" class="edge"><title>Node29&#45;&gt;Node7</title>
<path fill="none" stroke="midnightblue" d="M1378.3,-242.429C1366.53,-225.449 1337.81,-187.496 1304,-168 1265.6,-145.854 1216.54,-134.536 1179.04,-128.792"/>
<polygon fill="midnightblue" stroke="midnightblue" points="1179.18,-125.276 1168.79,-127.315 1178.19,-132.205 1179.18,-125.276"/>
</g>
</g>
</svg>
