<?xml version="1.0" encoding="UTF-8" standalone="no"?>
<!DOCTYPE svg PUBLIC "-//W3C//DTD SVG 1.1//EN"
 "http://www.w3.org/Graphics/SVG/1.1/DTD/svg11.dtd">
<!-- Generated by graphviz version 2.36.0 (20140111.2315)
 -->
<!-- Title: /home/travis/build/STORM&#45;IRIT/Radium&#45;Engine/Plugins/MeshPaint/src/UI/MeshPaintUI.h Pages: 1 -->
<svg width="397pt" height="242pt"
 viewBox="0.00 0.00 397.00 242.00" xmlns="http://www.w3.org/2000/svg" xmlns:xlink="http://www.w3.org/1999/xlink">
<g id="graph0" class="graph" transform="scale(1 1) rotate(0) translate(4 238)">
<title>/home/travis/build/STORM&#45;IRIT/Radium&#45;Engine/Plugins/MeshPaint/src/UI/MeshPaintUI.h</title>
<polygon fill="white" stroke="none" points="-4,4 -4,-238 393,-238 393,4 -4,4"/>
<!-- Node1 -->
<g id="node1" class="node"><title>Node1</title>
<polygon fill="#bfbfbf" stroke="black" points="65,-181 65,-233 213,-233 213,-181 65,-181"/>
<text text-anchor="start" x="73" y="-221" font-family="Helvetica,sans-Serif" font-size="10.00">/home/travis/build</text>
<text text-anchor="start" x="73" y="-210" font-family="Helvetica,sans-Serif" font-size="10.00">/STORM&#45;IRIT/Radium&#45;Engine</text>
<text text-anchor="start" x="73" y="-199" font-family="Helvetica,sans-Serif" font-size="10.00">/Plugins/MeshPaint/src/UI</text>
<text text-anchor="middle" x="139" y="-188" font-family="Helvetica,sans-Serif" font-size="10.00">/MeshPaintUI.h</text>
</g>
<!-- Node2 -->
<g id="node2" class="node"><title>Node2</title>
<g id="a_node2"><a xlink:href="MeshPaintPlugin_8cpp.html" target="_top" xlink:title="/home/travis/build\l/STORM&#45;IRIT/Radium&#45;Engine\l/Plugins/MeshPaint/src/MeshPaint\lPlugin.cpp">
<polygon fill="white" stroke="black" points="-0.5,-1 -0.5,-53 166.5,-53 166.5,-1 -0.5,-1"/>
<text text-anchor="start" x="7.5" y="-41" font-family="Helvetica,sans-Serif" font-size="10.00">/home/travis/build</text>
<text text-anchor="start" x="7.5" y="-30" font-family="Helvetica,sans-Serif" font-size="10.00">/STORM&#45;IRIT/Radium&#45;Engine</text>
<text text-anchor="start" x="7.5" y="-19" font-family="Helvetica,sans-Serif" font-size="10.00">/Plugins/MeshPaint/src/MeshPaint</text>
<text text-anchor="middle" x="83" y="-8" font-family="Helvetica,sans-Serif" font-size="10.00">Plugin.cpp</text>
</a>
</g>
</g>
<!-- Node1&#45;&gt;Node2 -->
<g id="edge1" class="edge"><title>Node1&#45;&gt;Node2</title>
<path fill="none" stroke="midnightblue" d="M75.0292,-175.077C63.7586,-166.624 53.5511,-156.315 47,-144 31.3528,-114.586 48.7333,-77.2935 64.3332,-53.0515"/>
<polygon fill="midnightblue" stroke="midnightblue" points="73.1825,-178.056 83.3869,-180.905 77.1868,-172.314 73.1825,-178.056"/>
</g>
<!-- Node3 -->
<g id="node3" class="node"><title>Node3</title>
<g id="a_node3"><a xlink:href="MeshPaintPlugin_8hpp.html" target="_top" xlink:title="/home/travis/build\l/STORM&#45;IRIT/Radium&#45;Engine\l/Plugins/MeshPaint/src/MeshPaint\lPlugin.hpp">
<polygon fill="white" stroke="black" points="55.5,-91 55.5,-143 222.5,-143 222.5,-91 55.5,-91"/>
<text text-anchor="start" x="63.5" y="-131" font-family="Helvetica,sans-Serif" font-size="10.00">/home/travis/build</text>
<text text-anchor="start" x="63.5" y="-120" font-family="Helvetica,sans-Serif" font-size="10.00">/STORM&#45;IRIT/Radium&#45;Engine</text>
<text text-anchor="start" x="63.5" y="-109" font-family="Helvetica,sans-Serif" font-size="10.00">/Plugins/MeshPaint/src/MeshPaint</text>
<text text-anchor="middle" x="139" y="-98" font-family="Helvetica,sans-Serif" font-size="10.00">Plugin.hpp</text>
</a>
</g>
</g>
<!-- Node1&#45;&gt;Node3 -->
<g id="edge2" class="edge"><title>Node1&#45;&gt;Node3</title>
<path fill="none" stroke="midnightblue" d="M139,-170.489C139,-161.309 139,-151.616 139,-143.092"/>
<polygon fill="midnightblue" stroke="midnightblue" points="135.5,-170.547 139,-180.547 142.5,-170.547 135.5,-170.547"/>
</g>
<!-- Node4 -->
<g id="node4" class="node"><title>Node4</title>
<g id="a_node4"><a xlink:href="MeshPaintUI_8cpp.html" target="_top" xlink:title="/home/travis/build\l/STORM&#45;IRIT/Radium&#45;Engine\l/Plugins/MeshPaint/src/UI\l/MeshPaintUI.cpp">
<polygon fill="white" stroke="black" points="241,-91 241,-143 389,-143 389,-91 241,-91"/>
<text text-anchor="start" x="249" y="-131" font-family="Helvetica,sans-Serif" font-size="10.00">/home/travis/build</text>
<text text-anchor="start" x="249" y="-120" font-family="Helvetica,sans-Serif" font-size="10.00">/STORM&#45;IRIT/Radium&#45;Engine</text>
<text text-anchor="start" x="249" y="-109" font-family="Helvetica,sans-Serif" font-size="10.00">/Plugins/MeshPaint/src/UI</text>
<text text-anchor="middle" x="315" y="-98" font-family="Helvetica,sans-Serif" font-size="10.00">/MeshPaintUI.cpp</text>
</a>
</g>
</g>
<!-- Node1&#45;&gt;Node4 -->
<g id="edge4" class="edge"><title>Node1&#45;&gt;Node4</title>
<path fill="none" stroke="midnightblue" d="M198.502,-176.249C220.064,-165.468 244.186,-153.407 264.863,-143.069"/>
<polygon fill="midnightblue" stroke="midnightblue" points="196.814,-173.18 189.435,-180.783 199.944,-179.441 196.814,-173.18"/>
</g>
<!-- Node3&#45;&gt;Node2 -->
<g id="edge3" class="edge"><title>Node3&#45;&gt;Node2</title>
<path fill="none" stroke="midnightblue" d="M117.342,-81.9652C111.226,-72.3545 104.684,-62.0742 98.9677,-53.0921"/>
<polygon fill="midnightblue" stroke="midnightblue" points="114.481,-83.9892 122.802,-90.5468 120.386,-80.231 114.481,-83.9892"/>
</g>
</g>
</svg>
