<?xml version="1.0" encoding="UTF-8" standalone="no"?>
<!DOCTYPE svg PUBLIC "-//W3C//DTD SVG 1.1//EN"
 "http://www.w3.org/Graphics/SVG/1.1/DTD/svg11.dtd">
<!-- Generated by graphviz version 2.36.0 (20140111.2315)
 -->
<!-- Title: /home/travis/build/STORM&#45;IRIT/Radium&#45;Engine/src/Core/Mesh/MeshPrimitives.inl Pages: 1 -->
<svg width="1451pt" height="218pt"
 viewBox="0.00 0.00 1451.00 218.00" xmlns="http://www.w3.org/2000/svg" xmlns:xlink="http://www.w3.org/1999/xlink">
<g id="graph0" class="graph" transform="scale(1 1) rotate(0) translate(4 214)">
<title>/home/travis/build/STORM&#45;IRIT/Radium&#45;Engine/src/Core/Mesh/MeshPrimitives.inl</title>
<polygon fill="white" stroke="none" points="-4,4 -4,-214 1447,-214 1447,4 -4,4"/>
<!-- Node1 -->
<g id="node1" class="node"><title>Node1</title>
<polygon fill="#bfbfbf" stroke="black" points="646.5,-168.5 646.5,-209.5 813.5,-209.5 813.5,-168.5 646.5,-168.5"/>
<text text-anchor="start" x="654.5" y="-197.5" font-family="Helvetica,sans-Serif" font-size="10.00">/home/travis/build</text>
<text text-anchor="start" x="654.5" y="-186.5" font-family="Helvetica,sans-Serif" font-size="10.00">/STORM&#45;IRIT/Radium&#45;Engine</text>
<text text-anchor="middle" x="730" y="-175.5" font-family="Helvetica,sans-Serif" font-size="10.00">/src/Core/Mesh/MeshPrimitives.inl</text>
</g>
<!-- Node2 -->
<g id="node2" class="node"><title>Node2</title>
<g id="a_node2"><a xlink:href="MeshPrimitives_8hpp.html" target="_top" xlink:title="/home/travis/build\l/STORM&#45;IRIT/Radium&#45;Engine\l/src/Core/Mesh/MeshPrimitives.hpp">
<polygon fill="white" stroke="black" points="643.5,-90.5 643.5,-131.5 816.5,-131.5 816.5,-90.5 643.5,-90.5"/>
<text text-anchor="start" x="651.5" y="-119.5" font-family="Helvetica,sans-Serif" font-size="10.00">/home/travis/build</text>
<text text-anchor="start" x="651.5" y="-108.5" font-family="Helvetica,sans-Serif" font-size="10.00">/STORM&#45;IRIT/Radium&#45;Engine</text>
<text text-anchor="middle" x="730" y="-97.5" font-family="Helvetica,sans-Serif" font-size="10.00">/src/Core/Mesh/MeshPrimitives.hpp</text>
</a>
</g>
</g>
<!-- Node1&#45;&gt;Node2 -->
<g id="edge1" class="edge"><title>Node1&#45;&gt;Node2</title>
<path fill="none" stroke="midnightblue" d="M723.395,-158.297C723.076,-149.301 723.283,-139.653 724.018,-131.506"/>
<polygon fill="midnightblue" stroke="midnightblue" points="719.911,-158.659 724.012,-168.428 726.898,-158.234 719.911,-158.659"/>
</g>
<!-- Node2&#45;&gt;Node1 -->
<g id="edge3" class="edge"><title>Node2&#45;&gt;Node1</title>
<path fill="none" stroke="midnightblue" d="M736.602,-141.63C736.924,-150.622 736.72,-160.272 735.988,-168.428"/>
<polygon fill="midnightblue" stroke="midnightblue" points="740.087,-141.273 735.982,-131.506 733.1,-141.701 740.087,-141.273"/>
</g>
<!-- Node3 -->
<g id="node3" class="node"><title>Node3</title>
<g id="a_node3"><a xlink:href="MeshPrimitives_8cpp.html" target="_top" xlink:title="/home/travis/build\l/STORM&#45;IRIT/Radium&#45;Engine\l/src/Core/Mesh/MeshPrimitives.cpp">
<polygon fill="white" stroke="black" points="-0.5,-6.5 -0.5,-47.5 172.5,-47.5 172.5,-6.5 -0.5,-6.5"/>
<text text-anchor="start" x="7.5" y="-35.5" font-family="Helvetica,sans-Serif" font-size="10.00">/home/travis/build</text>
<text text-anchor="start" x="7.5" y="-24.5" font-family="Helvetica,sans-Serif" font-size="10.00">/STORM&#45;IRIT/Radium&#45;Engine</text>
<text text-anchor="middle" x="86" y="-13.5" font-family="Helvetica,sans-Serif" font-size="10.00">/src/Core/Mesh/MeshPrimitives.cpp</text>
</a>
</g>
</g>
<!-- Node2&#45;&gt;Node3 -->
<g id="edge2" class="edge"><title>Node2&#45;&gt;Node3</title>
<path fill="none" stroke="midnightblue" d="M633.404,-104.893C523.396,-97.9765 338.615,-83.0112 182,-54 172.407,-52.2231 162.373,-49.964 152.559,-47.5222"/>
<polygon fill="midnightblue" stroke="midnightblue" points="633.287,-108.392 643.485,-105.517 633.72,-101.406 633.287,-108.392"/>
</g>
<!-- Node4 -->
<g id="node4" class="node"><title>Node4</title>
<g id="a_node4"><a xlink:href="Renderer_8cpp.html" target="_top" xlink:title="/home/travis/build\l/STORM&#45;IRIT/Radium&#45;Engine\l/src/Engine/Renderer/Renderer.cpp">
<polygon fill="white" stroke="black" points="191,-6.5 191,-47.5 361,-47.5 361,-6.5 191,-6.5"/>
<text text-anchor="start" x="199" y="-35.5" font-family="Helvetica,sans-Serif" font-size="10.00">/home/travis/build</text>
<text text-anchor="start" x="199" y="-24.5" font-family="Helvetica,sans-Serif" font-size="10.00">/STORM&#45;IRIT/Radium&#45;Engine</text>
<text text-anchor="middle" x="276" y="-13.5" font-family="Helvetica,sans-Serif" font-size="10.00">/src/Engine/Renderer/Renderer.cpp</text>
</a>
</g>
</g>
<!-- Node2&#45;&gt;Node4 -->
<g id="edge4" class="edge"><title>Node2&#45;&gt;Node4</title>
<path fill="none" stroke="midnightblue" d="M633.216,-98.033C560.424,-88.2867 458.437,-73.0425 370,-54 361.227,-52.111 352.058,-49.8897 343.032,-47.5548"/>
<polygon fill="midnightblue" stroke="midnightblue" points="632.915,-101.524 643.289,-99.3715 633.837,-94.5847 632.915,-101.524"/>
</g>
<!-- Node5 -->
<g id="node5" class="node"><title>Node5</title>
<g id="a_node5"><a xlink:href="DebugRender_8cpp.html" target="_top" xlink:title="/home/travis/build\l/STORM&#45;IRIT/Radium&#45;Engine\l/src/Engine/Renderer/Renderers\l/DebugRender.cpp">
<polygon fill="white" stroke="black" points="379.5,-1 379.5,-53 536.5,-53 536.5,-1 379.5,-1"/>
<text text-anchor="start" x="387.5" y="-41" font-family="Helvetica,sans-Serif" font-size="10.00">/home/travis/build</text>
<text text-anchor="start" x="387.5" y="-30" font-family="Helvetica,sans-Serif" font-size="10.00">/STORM&#45;IRIT/Radium&#45;Engine</text>
<text text-anchor="start" x="387.5" y="-19" font-family="Helvetica,sans-Serif" font-size="10.00">/src/Engine/Renderer/Renderers</text>
<text text-anchor="middle" x="458" y="-8" font-family="Helvetica,sans-Serif" font-size="10.00">/DebugRender.cpp</text>
</a>
</g>
</g>
<!-- Node2&#45;&gt;Node5 -->
<g id="edge5" class="edge"><title>Node2&#45;&gt;Node5</title>
<path fill="none" stroke="midnightblue" d="M655.517,-87.5457C618.699,-76.4459 574.258,-63.0485 536.863,-51.7748"/>
<polygon fill="midnightblue" stroke="midnightblue" points="654.61,-90.9277 665.195,-90.4631 656.631,-84.2256 654.61,-90.9277"/>
</g>
<!-- Node6 -->
<g id="node6" class="node"><title>Node6</title>
<g id="a_node6"><a xlink:href="DrawPrimitives_8cpp.html" target="_top" xlink:title="/home/travis/build\l/STORM&#45;IRIT/Radium&#45;Engine\l/src/Engine/Renderer/RenderObject\l/Primitives/DrawPrimitives.cpp">
<polygon fill="white" stroke="black" points="555,-1 555,-53 727,-53 727,-1 555,-1"/>
<text text-anchor="start" x="563" y="-41" font-family="Helvetica,sans-Serif" font-size="10.00">/home/travis/build</text>
<text text-anchor="start" x="563" y="-30" font-family="Helvetica,sans-Serif" font-size="10.00">/STORM&#45;IRIT/Radium&#45;Engine</text>
<text text-anchor="start" x="563" y="-19" font-family="Helvetica,sans-Serif" font-size="10.00">/src/Engine/Renderer/RenderObject</text>
<text text-anchor="middle" x="641" y="-8" font-family="Helvetica,sans-Serif" font-size="10.00">/Primitives/DrawPrimitives.cpp</text>
</a>
</g>
</g>
<!-- Node2&#45;&gt;Node6 -->
<g id="edge6" class="edge"><title>Node2&#45;&gt;Node6</title>
<path fill="none" stroke="midnightblue" d="M701.089,-83.3625C690.595,-73.6945 678.778,-62.807 668.418,-53.2613"/>
<polygon fill="midnightblue" stroke="midnightblue" points="698.73,-85.9482 708.456,-90.1501 703.473,-80.8001 698.73,-85.9482"/>
</g>
<!-- Node7 -->
<g id="node7" class="node"><title>Node7</title>
<g id="a_node7"><a xlink:href="RotateGizmo_8cpp.html" target="_top" xlink:title="/home/travis/build\l/STORM&#45;IRIT/Radium&#45;Engine\l/src/GuiBase/Viewer/Gizmo\l/RotateGizmo.cpp">
<polygon fill="white" stroke="black" points="745,-1 745,-53 893,-53 893,-1 745,-1"/>
<text text-anchor="start" x="753" y="-41" font-family="Helvetica,sans-Serif" font-size="10.00">/home/travis/build</text>
<text text-anchor="start" x="753" y="-30" font-family="Helvetica,sans-Serif" font-size="10.00">/STORM&#45;IRIT/Radium&#45;Engine</text>
<text text-anchor="start" x="753" y="-19" font-family="Helvetica,sans-Serif" font-size="10.00">/src/GuiBase/Viewer/Gizmo</text>
<text text-anchor="middle" x="819" y="-8" font-family="Helvetica,sans-Serif" font-size="10.00">/RotateGizmo.cpp</text>
</a>
</g>
</g>
<!-- Node2&#45;&gt;Node7 -->
<g id="edge7" class="edge"><title>Node2&#45;&gt;Node7</title>
<path fill="none" stroke="midnightblue" d="M758.911,-83.3625C769.405,-73.6945 781.222,-62.807 791.582,-53.2613"/>
<polygon fill="midnightblue" stroke="midnightblue" points="756.527,-80.8001 751.544,-90.1501 761.27,-85.9482 756.527,-80.8001"/>
</g>
<!-- Node8 -->
<g id="node8" class="node"><title>Node8</title>
<g id="a_node8"><a xlink:href="ScaleGizmo_8cpp.html" target="_top" xlink:title="/home/travis/build\l/STORM&#45;IRIT/Radium&#45;Engine\l/src/GuiBase/Viewer/Gizmo\l/ScaleGizmo.cpp">
<polygon fill="white" stroke="black" points="911,-1 911,-53 1059,-53 1059,-1 911,-1"/>
<text text-anchor="start" x="919" y="-41" font-family="Helvetica,sans-Serif" font-size="10.00">/home/travis/build</text>
<text text-anchor="start" x="919" y="-30" font-family="Helvetica,sans-Serif" font-size="10.00">/STORM&#45;IRIT/Radium&#45;Engine</text>
<text text-anchor="start" x="919" y="-19" font-family="Helvetica,sans-Serif" font-size="10.00">/src/GuiBase/Viewer/Gizmo</text>
<text text-anchor="middle" x="985" y="-8" font-family="Helvetica,sans-Serif" font-size="10.00">/ScaleGizmo.cpp</text>
</a>
</g>
</g>
<!-- Node2&#45;&gt;Node8 -->
<g id="edge8" class="edge"><title>Node2&#45;&gt;Node8</title>
<path fill="none" stroke="midnightblue" d="M800.669,-87.2751C834.867,-76.2782 875.922,-63.076 910.598,-51.9253"/>
<polygon fill="midnightblue" stroke="midnightblue" points="799.203,-84.0698 790.755,-90.4631 801.346,-90.7337 799.203,-84.0698"/>
</g>
<!-- Node9 -->
<g id="node9" class="node"><title>Node9</title>
<g id="a_node9"><a xlink:href="TranslateGizmo_8cpp.html" target="_top" xlink:title="/home/travis/build\l/STORM&#45;IRIT/Radium&#45;Engine\l/src/GuiBase/Viewer/Gizmo\l/TranslateGizmo.cpp">
<polygon fill="white" stroke="black" points="1077,-1 1077,-53 1225,-53 1225,-1 1077,-1"/>
<text text-anchor="start" x="1085" y="-41" font-family="Helvetica,sans-Serif" font-size="10.00">/home/travis/build</text>
<text text-anchor="start" x="1085" y="-30" font-family="Helvetica,sans-Serif" font-size="10.00">/STORM&#45;IRIT/Radium&#45;Engine</text>
<text text-anchor="start" x="1085" y="-19" font-family="Helvetica,sans-Serif" font-size="10.00">/src/GuiBase/Viewer/Gizmo</text>
<text text-anchor="middle" x="1151" y="-8" font-family="Helvetica,sans-Serif" font-size="10.00">/TranslateGizmo.cpp</text>
</a>
</g>
</g>
<!-- Node2&#45;&gt;Node9 -->
<g id="edge9" class="edge"><title>Node2&#45;&gt;Node9</title>
<path fill="none" stroke="midnightblue" d="M827.059,-97.5807C895.009,-87.9963 987.648,-73.1431 1068,-54 1070.94,-53.3001 1073.92,-52.5509 1076.93,-51.7643"/>
<polygon fill="midnightblue" stroke="midnightblue" points="826.215,-94.1646 816.795,-99.0149 827.183,-101.097 826.215,-94.1646"/>
</g>
<!-- Node10 -->
<g id="node10" class="node"><title>Node10</title>
<g id="a_node10"><a xlink:href="MeshFeatureTrackingComponent_8cpp.html" target="_top" xlink:title="/home/travis/build\l/STORM&#45;IRIT/Radium&#45;Engine\l/Plugins/MeshFeatureTracking\l/src/MeshFeatureTrackingComponent.cpp">
<polygon fill="white" stroke="black" points="1243,-1 1243,-53 1443,-53 1443,-1 1243,-1"/>
<text text-anchor="start" x="1251" y="-41" font-family="Helvetica,sans-Serif" font-size="10.00">/home/travis/build</text>
<text text-anchor="start" x="1251" y="-30" font-family="Helvetica,sans-Serif" font-size="10.00">/STORM&#45;IRIT/Radium&#45;Engine</text>
<text text-anchor="start" x="1251" y="-19" font-family="Helvetica,sans-Serif" font-size="10.00">/Plugins/MeshFeatureTracking</text>
<text text-anchor="middle" x="1343" y="-8" font-family="Helvetica,sans-Serif" font-size="10.00">/src/MeshFeatureTrackingComponent.cpp</text>
</a>
</g>
</g>
<!-- Node2&#45;&gt;Node10 -->
<g id="edge10" class="edge"><title>Node2&#45;&gt;Node10</title>
<path fill="none" stroke="midnightblue" d="M826.783,-102.818C928.621,-94.429 1093.34,-78.4946 1234,-54 1236.87,-53.4994 1239.79,-52.9682 1242.72,-52.4116"/>
<polygon fill="midnightblue" stroke="midnightblue" points="826.199,-99.3544 816.517,-103.656 826.768,-106.331 826.199,-99.3544"/>
</g>
</g>
</svg>
