<?xml version="1.0" encoding="UTF-8" standalone="no"?>
<!DOCTYPE svg PUBLIC "-//W3C//DTD SVG 1.1//EN"
 "http://www.w3.org/Graphics/SVG/1.1/DTD/svg11.dtd">
<!-- Generated by graphviz version 2.36.0 (20140111.2315)
 -->
<!-- Title: /home/travis/build/STORM&#45;IRIT/Radium&#45;Engine/src/Engine/Renderer/Mesh/Mesh.hpp Pages: 1 -->
<svg width="1986pt" height="546pt"
 viewBox="0.00 0.00 1985.64 546.00" xmlns="http://www.w3.org/2000/svg" xmlns:xlink="http://www.w3.org/1999/xlink">
<g id="graph0" class="graph" transform="scale(1 1) rotate(0) translate(4 542)">
<title>/home/travis/build/STORM&#45;IRIT/Radium&#45;Engine/src/Engine/Renderer/Mesh/Mesh.hpp</title>
<polygon fill="white" stroke="none" points="-4,4 -4,-542 1981.64,-542 1981.64,4 -4,4"/>
<!-- Node1 -->
<g id="node1" class="node"><title>Node1</title>
<polygon fill="#bfbfbf" stroke="black" points="769,-485 769,-537 917,-537 917,-485 769,-485"/>
<text text-anchor="start" x="777" y="-525" font-family="Helvetica,sans-Serif" font-size="10.00">/home/travis/build</text>
<text text-anchor="start" x="777" y="-514" font-family="Helvetica,sans-Serif" font-size="10.00">/STORM&#45;IRIT/Radium&#45;Engine</text>
<text text-anchor="start" x="777" y="-503" font-family="Helvetica,sans-Serif" font-size="10.00">/src/Engine/Renderer/Mesh</text>
<text text-anchor="middle" x="843" y="-492" font-family="Helvetica,sans-Serif" font-size="10.00">/Mesh.hpp</text>
</g>
<!-- Node2 -->
<g id="node2" class="node"><title>Node2</title>
<g id="a_node2"><a xlink:href="RaEngine_8hpp.html" target="_top" xlink:title="Engine/RaEngine.hpp">
<polygon fill="white" stroke="black" points="1578.5,-360.5 1578.5,-379.5 1689.5,-379.5 1689.5,-360.5 1578.5,-360.5"/>
<text text-anchor="middle" x="1634" y="-367.5" font-family="Helvetica,sans-Serif" font-size="10.00">Engine/RaEngine.hpp</text>
</a>
</g>
</g>
<!-- Node1&#45;&gt;Node2 -->
<g id="edge1" class="edge"><title>Node1&#45;&gt;Node2</title>
<path fill="none" stroke="midnightblue" d="M917.409,-489.923C949.469,-479.702 986.701,-465.664 1018,-448 1037.53,-436.98 1036.2,-424.368 1057,-416 1148.1,-379.351 1436.44,-372.433 1567.73,-371.211"/>
<polygon fill="midnightblue" stroke="midnightblue" points="1568.08,-374.708 1578.05,-371.124 1568.02,-367.708 1568.08,-374.708"/>
</g>
<!-- Node9 -->
<g id="node9" class="node"><title>Node9</title>
<polygon fill="white" stroke="#bfbfbf" points="630,-422.5 630,-441.5 668,-441.5 668,-422.5 630,-422.5"/>
<text text-anchor="middle" x="649" y="-429.5" font-family="Helvetica,sans-Serif" font-size="10.00">array</text>
</g>
<!-- Node1&#45;&gt;Node9 -->
<g id="edge8" class="edge"><title>Node1&#45;&gt;Node9</title>
<path fill="none" stroke="midnightblue" d="M769.417,-484.924C740.281,-474.374 706.714,-461.435 677,-448 675.813,-447.463 674.606,-446.898 673.394,-446.314"/>
<polygon fill="midnightblue" stroke="midnightblue" points="674.716,-443.059 664.218,-441.63 671.534,-449.294 674.716,-443.059"/>
</g>
<!-- Node10 -->
<g id="node10" class="node"><title>Node10</title>
<polygon fill="white" stroke="#bfbfbf" points="686.5,-422.5 686.5,-441.5 721.5,-441.5 721.5,-422.5 686.5,-422.5"/>
<text text-anchor="middle" x="704" y="-429.5" font-family="Helvetica,sans-Serif" font-size="10.00">map</text>
</g>
<!-- Node1&#45;&gt;Node10 -->
<g id="edge9" class="edge"><title>Node1&#45;&gt;Node10</title>
<path fill="none" stroke="midnightblue" d="M797.486,-484.787C774.457,-472.03 747.423,-457.054 728.366,-446.498"/>
<polygon fill="midnightblue" stroke="midnightblue" points="729.892,-443.342 719.448,-441.558 726.5,-449.465 729.892,-443.342"/>
</g>
<!-- Node11 -->
<g id="node11" class="node"><title>Node11</title>
<polygon fill="white" stroke="#bfbfbf" points="387,-174.5 387,-193.5 431,-193.5 431,-174.5 387,-174.5"/>
<text text-anchor="middle" x="409" y="-181.5" font-family="Helvetica,sans-Serif" font-size="10.00">vector</text>
</g>
<!-- Node1&#45;&gt;Node11 -->
<g id="edge10" class="edge"><title>Node1&#45;&gt;Node11</title>
<path fill="none" stroke="midnightblue" d="M768.957,-502.718C640.518,-488.017 390,-449.306 390,-371 390,-371 390,-371 390,-313 390,-273.646 398.896,-228.217 404.514,-203.453"/>
<polygon fill="midnightblue" stroke="midnightblue" points="407.943,-204.161 406.82,-193.626 401.128,-202.561 407.943,-204.161"/>
</g>
<!-- Node12 -->
<g id="node12" class="node"><title>Node12</title>
<g id="a_node12"><a xlink:href="VectorArray_8hpp.html" target="_top" xlink:title="Core/Containers/VectorArray.hpp">
<polygon fill="white" stroke="black" points="634.5,-304.5 634.5,-323.5 795.5,-323.5 795.5,-304.5 634.5,-304.5"/>
<text text-anchor="middle" x="715" y="-311.5" font-family="Helvetica,sans-Serif" font-size="10.00">Core/Containers/VectorArray.hpp</text>
</a>
</g>
</g>
<!-- Node1&#45;&gt;Node12 -->
<g id="edge11" class="edge"><title>Node1&#45;&gt;Node12</title>
<path fill="none" stroke="midnightblue" d="M826.528,-484.906C800.113,-444.664 748.95,-366.721 726.281,-332.186"/>
<polygon fill="midnightblue" stroke="midnightblue" points="729.101,-330.103 720.687,-323.664 723.249,-333.945 729.101,-330.103"/>
</g>
<!-- Node27 -->
<g id="node27" class="node"><title>Node27</title>
<g id="a_node27"><a xlink:href="TriangleMesh_8hpp.html" target="_top" xlink:title="Core/Mesh/TriangleMesh.hpp">
<polygon fill="white" stroke="black" points="864.5,-422.5 864.5,-441.5 1009.5,-441.5 1009.5,-422.5 864.5,-422.5"/>
<text text-anchor="middle" x="937" y="-429.5" font-family="Helvetica,sans-Serif" font-size="10.00">Core/Mesh/TriangleMesh.hpp</text>
</a>
</g>
</g>
<!-- Node1&#45;&gt;Node27 -->
<g id="edge33" class="edge"><title>Node1&#45;&gt;Node27</title>
<path fill="none" stroke="midnightblue" d="M873.779,-484.787C888.571,-472.671 905.805,-458.553 918.54,-448.121"/>
<polygon fill="midnightblue" stroke="midnightblue" points="921.035,-450.602 926.553,-441.558 916.599,-445.187 921.035,-450.602"/>
</g>
<!-- Node43 -->
<g id="node43" class="node"><title>Node43</title>
<g id="a_node43"><a xlink:href="Mesh_8inl.html" target="_top" xlink:title="Engine/Renderer/Mesh\l/Mesh.inl">
<polygon fill="white" stroke="black" points="1066,-417 1066,-447 1182,-447 1182,-417 1066,-417"/>
<text text-anchor="start" x="1074" y="-435" font-family="Helvetica,sans-Serif" font-size="10.00">Engine/Renderer/Mesh</text>
<text text-anchor="middle" x="1124" y="-424" font-family="Helvetica,sans-Serif" font-size="10.00">/Mesh.inl</text>
</a>
</g>
</g>
<!-- Node1&#45;&gt;Node43 -->
<g id="edge66" class="edge"><title>Node1&#45;&gt;Node43</title>
<path fill="none" stroke="midnightblue" d="M917.353,-487.935C960.882,-475.757 1015.35,-460.878 1057.46,-449.678"/>
<polygon fill="midnightblue" stroke="midnightblue" points="1058.57,-453.005 1067.34,-447.059 1056.78,-446.239 1058.57,-453.005"/>
</g>
<!-- Node3 -->
<g id="node3" class="node"><title>Node3</title>
<g id="a_node3"><a xlink:href="CoreMacros_8hpp.html" target="_top" xlink:title="Core/CoreMacros.hpp">
<polygon fill="white" stroke="black" points="584.5,-56.5 584.5,-75.5 697.5,-75.5 697.5,-56.5 584.5,-56.5"/>
<text text-anchor="middle" x="641" y="-63.5" font-family="Helvetica,sans-Serif" font-size="10.00">Core/CoreMacros.hpp</text>
</a>
</g>
</g>
<!-- Node2&#45;&gt;Node3 -->
<g id="edge2" class="edge"><title>Node2&#45;&gt;Node3</title>
<path fill="none" stroke="midnightblue" d="M1689.71,-361.833C1786.62,-347.794 1976,-312.719 1976,-253 1976,-253 1976,-253 1976,-183 1976,-150.334 1982.57,-132.33 1957,-112 1907.72,-72.82 968.647,-67.7481 707.741,-67.0955"/>
<polygon fill="midnightblue" stroke="midnightblue" points="707.659,-63.5954 697.651,-67.0716 707.642,-70.5954 707.659,-63.5954"/>
</g>
<!-- Node4 -->
<g id="node4" class="node"><title>Node4</title>
<polygon fill="white" stroke="#bfbfbf" points="714.5,-0.5 714.5,-19.5 763.5,-19.5 763.5,-0.5 714.5,-0.5"/>
<text text-anchor="middle" x="739" y="-7.5" font-family="Helvetica,sans-Serif" font-size="10.00">cassert</text>
</g>
<!-- Node3&#45;&gt;Node4 -->
<g id="edge3" class="edge"><title>Node3&#45;&gt;Node4</title>
<path fill="none" stroke="midnightblue" d="M656.745,-56.324C672.319,-47.7428 696.377,-34.486 714.459,-24.5224"/>
<polygon fill="midnightblue" stroke="midnightblue" points="716.224,-27.546 723.294,-19.6545 712.846,-21.4152 716.224,-27.546"/>
</g>
<!-- Node5 -->
<g id="node5" class="node"><title>Node5</title>
<polygon fill="white" stroke="#bfbfbf" points="518.5,-0.5 518.5,-19.5 561.5,-19.5 561.5,-0.5 518.5,-0.5"/>
<text text-anchor="middle" x="540" y="-7.5" font-family="Helvetica,sans-Serif" font-size="10.00">cstdio</text>
</g>
<!-- Node3&#45;&gt;Node5 -->
<g id="edge4" class="edge"><title>Node3&#45;&gt;Node5</title>
<path fill="none" stroke="midnightblue" d="M624.773,-56.324C608.649,-47.7034 583.7,-34.3643 565.036,-24.3855"/>
<polygon fill="midnightblue" stroke="midnightblue" points="566.656,-21.283 556.187,-19.6545 563.356,-27.456 566.656,-21.283"/>
</g>
<!-- Node6 -->
<g id="node6" class="node"><title>Node6</title>
<polygon fill="white" stroke="#bfbfbf" points="580,-0.5 580,-19.5 634,-19.5 634,-0.5 580,-0.5"/>
<text text-anchor="middle" x="607" y="-7.5" font-family="Helvetica,sans-Serif" font-size="10.00">iostream</text>
</g>
<!-- Node3&#45;&gt;Node6 -->
<g id="edge5" class="edge"><title>Node3&#45;&gt;Node6</title>
<path fill="none" stroke="midnightblue" d="M635.386,-56.083C630.633,-48.5341 623.682,-37.4948 617.848,-28.2298"/>
<polygon fill="midnightblue" stroke="midnightblue" points="620.8,-26.3486 612.51,-19.7511 614.876,-30.0783 620.8,-26.3486"/>
</g>
<!-- Node7 -->
<g id="node7" class="node"><title>Node7</title>
<polygon fill="white" stroke="#bfbfbf" points="211,-0.5 211,-19.5 263,-19.5 263,-0.5 211,-0.5"/>
<text text-anchor="middle" x="237" y="-7.5" font-family="Helvetica,sans-Serif" font-size="10.00">sstream</text>
</g>
<!-- Node3&#45;&gt;Node7 -->
<g id="edge6" class="edge"><title>Node3&#45;&gt;Node7</title>
<path fill="none" stroke="midnightblue" d="M584.4,-57.4347C500.125,-46.1701 344.02,-25.3046 273.391,-15.8641"/>
<polygon fill="midnightblue" stroke="midnightblue" points="273.586,-12.3592 263.211,-14.5034 272.659,-19.2975 273.586,-12.3592"/>
</g>
<!-- Node8 -->
<g id="node8" class="node"><title>Node8</title>
<polygon fill="white" stroke="#bfbfbf" points="652,-0.5 652,-19.5 696,-19.5 696,-0.5 652,-0.5"/>
<text text-anchor="middle" x="674" y="-7.5" font-family="Helvetica,sans-Serif" font-size="10.00">thread</text>
</g>
<!-- Node3&#45;&gt;Node8 -->
<g id="edge7" class="edge"><title>Node3&#45;&gt;Node8</title>
<path fill="none" stroke="midnightblue" d="M646.449,-56.083C651.014,-48.6127 657.668,-37.7244 663.293,-28.5199"/>
<polygon fill="midnightblue" stroke="midnightblue" points="666.424,-30.109 668.652,-19.7511 660.451,-26.4588 666.424,-30.109"/>
</g>
<!-- Node12&#45;&gt;Node11 -->
<g id="edge32" class="edge"><title>Node12&#45;&gt;Node11</title>
<path fill="none" stroke="midnightblue" d="M634.451,-307.07C568.1,-300.782 480.47,-288.808 452,-268 430.542,-252.318 418.941,-222.733 413.367,-203.45"/>
<polygon fill="midnightblue" stroke="midnightblue" points="416.734,-202.494 410.809,-193.711 409.964,-204.272 416.734,-202.494"/>
</g>
<!-- Node13 -->
<g id="node13" class="node"><title>Node13</title>
<g id="a_node13"><a xlink:href="AlignedStdVector_8hpp.html" target="_top" xlink:title="Core/Containers/AlignedStd\lVector.hpp">
<polygon fill="white" stroke="black" points="494,-237 494,-267 632,-267 632,-237 494,-237"/>
<text text-anchor="start" x="502" y="-255" font-family="Helvetica,sans-Serif" font-size="10.00">Core/Containers/AlignedStd</text>
<text text-anchor="middle" x="563" y="-244" font-family="Helvetica,sans-Serif" font-size="10.00">Vector.hpp</text>
</a>
</g>
</g>
<!-- Node12&#45;&gt;Node13 -->
<g id="edge12" class="edge"><title>Node12&#45;&gt;Node13</title>
<path fill="none" stroke="midnightblue" d="M693.222,-304.403C671.119,-295.679 636.25,-281.914 608.154,-270.824"/>
<polygon fill="midnightblue" stroke="midnightblue" points="609.117,-267.441 598.531,-267.025 606.547,-273.953 609.117,-267.441"/>
</g>
<!-- Node14 -->
<g id="node14" class="node"><title>Node14</title>
<g id="a_node14"><a xlink:href="RaCore_8hpp.html" target="_top" xlink:title="Core/RaCore.hpp">
<polygon fill="white" stroke="black" points="594.5,-112.5 594.5,-131.5 687.5,-131.5 687.5,-112.5 594.5,-112.5"/>
<text text-anchor="middle" x="641" y="-119.5" font-family="Helvetica,sans-Serif" font-size="10.00">Core/RaCore.hpp</text>
</a>
</g>
</g>
<!-- Node12&#45;&gt;Node14 -->
<g id="edge31" class="edge"><title>Node12&#45;&gt;Node14</title>
<path fill="none" stroke="midnightblue" d="M634.254,-307.887C575.786,-302.303 503.846,-290.891 485,-268 470.295,-250.14 483.741,-183.078 497,-168 518.833,-143.172 554.146,-131.887 584.338,-126.827"/>
<polygon fill="midnightblue" stroke="midnightblue" points="584.976,-130.27 594.353,-125.339 583.947,-123.346 584.976,-130.27"/>
</g>
<!-- Node16 -->
<g id="node16" class="node"><title>Node16</title>
<g id="a_node16"><a xlink:href="LinearAlgebra_8hpp.html" target="_top" xlink:title="Core/Math/LinearAlgebra.hpp">
<polygon fill="white" stroke="black" points="1194.5,-242.5 1194.5,-261.5 1337.5,-261.5 1337.5,-242.5 1194.5,-242.5"/>
<text text-anchor="middle" x="1266" y="-249.5" font-family="Helvetica,sans-Serif" font-size="10.00">Core/Math/LinearAlgebra.hpp</text>
</a>
</g>
</g>
<!-- Node12&#45;&gt;Node16 -->
<g id="edge17" class="edge"><title>Node12&#45;&gt;Node16</title>
<path fill="none" stroke="midnightblue" d="M793.068,-304.499C896.749,-293.209 1079.02,-273.36 1184.44,-261.882"/>
<polygon fill="midnightblue" stroke="midnightblue" points="1184.83,-265.36 1194.39,-260.797 1184.07,-258.401 1184.83,-265.36"/>
</g>
<!-- Node13&#45;&gt;Node11 -->
<g id="edge16" class="edge"><title>Node13&#45;&gt;Node11</title>
<path fill="none" stroke="midnightblue" d="M529.963,-236.841C502.848,-225.221 464.794,-208.912 438.648,-197.706"/>
<polygon fill="midnightblue" stroke="midnightblue" points="439.828,-194.404 429.258,-193.682 437.07,-200.838 439.828,-194.404"/>
</g>
<!-- Node13&#45;&gt;Node14 -->
<g id="edge13" class="edge"><title>Node13&#45;&gt;Node14</title>
<path fill="none" stroke="midnightblue" d="M575.005,-236.785C583.125,-226.828 593.818,-213.026 602,-200 614.161,-180.639 625.68,-157.004 633.002,-141.068"/>
<polygon fill="midnightblue" stroke="midnightblue" points="636.248,-142.383 637.172,-131.829 629.868,-139.503 636.248,-142.383"/>
</g>
<!-- Node15 -->
<g id="node15" class="node"><title>Node15</title>
<polygon fill="white" stroke="#bfbfbf" points="506,-174.5 506,-193.5 594,-193.5 594,-174.5 506,-174.5"/>
<text text-anchor="middle" x="550" y="-181.5" font-family="Helvetica,sans-Serif" font-size="10.00">Eigen/StdVector</text>
</g>
<!-- Node13&#45;&gt;Node15 -->
<g id="edge15" class="edge"><title>Node13&#45;&gt;Node15</title>
<path fill="none" stroke="midnightblue" d="M560.179,-236.679C558.273,-226.999 555.736,-214.123 553.672,-203.645"/>
<polygon fill="midnightblue" stroke="midnightblue" points="557.106,-202.963 551.739,-193.828 550.238,-204.316 557.106,-202.963"/>
</g>
<!-- Node14&#45;&gt;Node3 -->
<g id="edge14" class="edge"><title>Node14&#45;&gt;Node3</title>
<path fill="none" stroke="midnightblue" d="M641,-112.083C641,-105.006 641,-94.8611 641,-85.9865"/>
<polygon fill="midnightblue" stroke="midnightblue" points="644.5,-85.751 641,-75.7511 637.5,-85.7511 644.5,-85.751"/>
</g>
<!-- Node16&#45;&gt;Node14 -->
<g id="edge18" class="edge"><title>Node16&#45;&gt;Node14</title>
<path fill="none" stroke="midnightblue" d="M1236.04,-242.439C1207.76,-233.748 1164.65,-218.895 1130,-200 1109.09,-188.594 1109.21,-176.618 1087,-168 1017.47,-141.019 802.048,-129.214 698.168,-124.985"/>
<polygon fill="midnightblue" stroke="midnightblue" points="698.001,-121.476 687.87,-124.576 697.723,-128.471 698.001,-121.476"/>
</g>
<!-- Node17 -->
<g id="node17" class="node"><title>Node17</title>
<polygon fill="white" stroke="#bfbfbf" points="1139.5,-174.5 1139.5,-193.5 1204.5,-193.5 1204.5,-174.5 1139.5,-174.5"/>
<text text-anchor="middle" x="1172" y="-181.5" font-family="Helvetica,sans-Serif" font-size="10.00">Eigen/Core</text>
</g>
<!-- Node16&#45;&gt;Node17 -->
<g id="edge19" class="edge"><title>Node16&#45;&gt;Node17</title>
<path fill="none" stroke="midnightblue" d="M1253.71,-242.372C1238.23,-231.502 1211.39,-212.66 1192.72,-199.547"/>
<polygon fill="midnightblue" stroke="midnightblue" points="1194.49,-196.512 1184.29,-193.63 1190.46,-202.241 1194.49,-196.512"/>
</g>
<!-- Node18 -->
<g id="node18" class="node"><title>Node18</title>
<polygon fill="white" stroke="#bfbfbf" points="1222.5,-174.5 1222.5,-193.5 1309.5,-193.5 1309.5,-174.5 1222.5,-174.5"/>
<text text-anchor="middle" x="1266" y="-181.5" font-family="Helvetica,sans-Serif" font-size="10.00">Eigen/Geometry</text>
</g>
<!-- Node16&#45;&gt;Node18 -->
<g id="edge20" class="edge"><title>Node16&#45;&gt;Node18</title>
<path fill="none" stroke="midnightblue" d="M1266,-242.372C1266,-232.643 1266,-216.528 1266,-203.85"/>
<polygon fill="midnightblue" stroke="midnightblue" points="1269.5,-203.841 1266,-193.841 1262.5,-203.841 1269.5,-203.841"/>
</g>
<!-- Node19 -->
<g id="node19" class="node"><title>Node19</title>
<polygon fill="white" stroke="#bfbfbf" points="1327.5,-174.5 1327.5,-193.5 1402.5,-193.5 1402.5,-174.5 1327.5,-174.5"/>
<text text-anchor="middle" x="1365" y="-181.5" font-family="Helvetica,sans-Serif" font-size="10.00">Eigen/Sparse</text>
</g>
<!-- Node16&#45;&gt;Node19 -->
<g id="edge21" class="edge"><title>Node16&#45;&gt;Node19</title>
<path fill="none" stroke="midnightblue" d="M1278.94,-242.372C1295.4,-231.403 1324.02,-212.317 1343.71,-199.191"/>
<polygon fill="midnightblue" stroke="midnightblue" points="1345.68,-202.09 1352.05,-193.63 1341.79,-196.265 1345.68,-202.09"/>
</g>
<!-- Node20 -->
<g id="node20" class="node"><title>Node20</title>
<polygon fill="white" stroke="#bfbfbf" points="1420.5,-174.5 1420.5,-193.5 1479.5,-193.5 1479.5,-174.5 1420.5,-174.5"/>
<text text-anchor="middle" x="1450" y="-181.5" font-family="Helvetica,sans-Serif" font-size="10.00">functional</text>
</g>
<!-- Node16&#45;&gt;Node20 -->
<g id="edge22" class="edge"><title>Node16&#45;&gt;Node20</title>
<path fill="none" stroke="midnightblue" d="M1290.97,-242.465C1319.92,-232.508 1369.05,-215.44 1411,-200 1413.53,-199.069 1416.15,-198.092 1418.77,-197.103"/>
<polygon fill="midnightblue" stroke="midnightblue" points="1420.08,-200.351 1428.18,-193.521 1417.59,-193.809 1420.08,-200.351"/>
</g>
<!-- Node21 -->
<g id="node21" class="node"><title>Node21</title>
<polygon fill="white" stroke="#bfbfbf" points="1497.5,-169 1497.5,-199 1630.5,-199 1630.5,-169 1497.5,-169"/>
<text text-anchor="start" x="1505.5" y="-187" font-family="Helvetica,sans-Serif" font-size="10.00">unsupported/Eigen/Aligned</text>
<text text-anchor="middle" x="1564" y="-176" font-family="Helvetica,sans-Serif" font-size="10.00">Vector3</text>
</g>
<!-- Node16&#45;&gt;Node21 -->
<g id="edge23" class="edge"><title>Node16&#45;&gt;Node21</title>
<path fill="none" stroke="midnightblue" d="M1304.65,-242.439C1351.62,-232.037 1431.87,-214.263 1490.69,-201.236"/>
<polygon fill="midnightblue" stroke="midnightblue" points="1491.67,-204.604 1500.68,-199.025 1490.16,-197.77 1491.67,-204.604"/>
</g>
<!-- Node22 -->
<g id="node22" class="node"><title>Node22</title>
<g id="a_node22"><a xlink:href="Math_8hpp.html" target="_top" xlink:title="Core/Math/Math.hpp">
<polygon fill="white" stroke="black" points="1842,-174.5 1842,-193.5 1948,-193.5 1948,-174.5 1842,-174.5"/>
<text text-anchor="middle" x="1895" y="-181.5" font-family="Helvetica,sans-Serif" font-size="10.00">Core/Math/Math.hpp</text>
</a>
</g>
</g>
<!-- Node16&#45;&gt;Node22 -->
<g id="edge24" class="edge"><title>Node16&#45;&gt;Node22</title>
<path fill="none" stroke="midnightblue" d="M1337.86,-245.231C1439.58,-236.8 1631.29,-219.927 1794,-200 1806.29,-198.495 1819.39,-196.695 1831.94,-194.873"/>
<polygon fill="midnightblue" stroke="midnightblue" points="1832.48,-198.331 1841.87,-193.412 1831.46,-191.406 1832.48,-198.331"/>
</g>
<!-- Node26 -->
<g id="node26" class="node"><title>Node26</title>
<g id="a_node26"><a xlink:href="LinearAlgebra_8inl.html" target="_top" xlink:title="Core/Math/LinearAlgebra.inl">
<polygon fill="white" stroke="black" points="1648.5,-174.5 1648.5,-193.5 1785.5,-193.5 1785.5,-174.5 1648.5,-174.5"/>
<text text-anchor="middle" x="1717" y="-181.5" font-family="Helvetica,sans-Serif" font-size="10.00">Core/Math/LinearAlgebra.inl</text>
</a>
</g>
</g>
<!-- Node16&#45;&gt;Node26 -->
<g id="edge30" class="edge"><title>Node16&#45;&gt;Node26</title>
<path fill="none" stroke="midnightblue" d="M1336.64,-242.498C1411.78,-233.183 1534.04,-217.255 1639,-200 1647.41,-198.617 1656.31,-197.028 1664.97,-195.412"/>
<polygon fill="midnightblue" stroke="midnightblue" points="1665.8,-198.816 1674.97,-193.514 1664.5,-191.938 1665.8,-198.816"/>
</g>
<!-- Node22&#45;&gt;Node14 -->
<g id="edge25" class="edge"><title>Node22&#45;&gt;Node14</title>
<path fill="none" stroke="midnightblue" d="M1845.04,-174.485C1828.81,-172.012 1810.68,-169.559 1794,-168 1374.21,-128.752 865.34,-123.623 697.607,-123.039"/>
<polygon fill="midnightblue" stroke="midnightblue" points="697.535,-119.539 687.524,-123.009 697.514,-126.539 697.535,-119.539"/>
</g>
<!-- Node23 -->
<g id="node23" class="node"><title>Node23</title>
<polygon fill="white" stroke="#bfbfbf" points="1712,-112.5 1712,-131.5 1768,-131.5 1768,-112.5 1712,-112.5"/>
<text text-anchor="middle" x="1740" y="-119.5" font-family="Helvetica,sans-Serif" font-size="10.00">algorithm</text>
</g>
<!-- Node22&#45;&gt;Node23 -->
<g id="edge26" class="edge"><title>Node22&#45;&gt;Node23</title>
<path fill="none" stroke="midnightblue" d="M1872.79,-174.403C1846.32,-164.156 1801.89,-146.956 1771.78,-135.302"/>
<polygon fill="midnightblue" stroke="midnightblue" points="1772.76,-131.927 1762.17,-131.581 1770.23,-138.455 1772.76,-131.927"/>
</g>
<!-- Node24 -->
<g id="node24" class="node"><title>Node24</title>
<polygon fill="white" stroke="#bfbfbf" points="1786,-112.5 1786,-131.5 1830,-131.5 1830,-112.5 1786,-112.5"/>
<text text-anchor="middle" x="1808" y="-119.5" font-family="Helvetica,sans-Serif" font-size="10.00">cmath</text>
</g>
<!-- Node22&#45;&gt;Node24 -->
<g id="edge27" class="edge"><title>Node22&#45;&gt;Node24</title>
<path fill="none" stroke="midnightblue" d="M1882.54,-174.403C1868.58,-164.78 1845.74,-149.024 1829.01,-137.489"/>
<polygon fill="midnightblue" stroke="midnightblue" points="1830.66,-134.377 1820.44,-131.581 1826.69,-140.139 1830.66,-134.377"/>
</g>
<!-- Node25 -->
<g id="node25" class="node"><title>Node25</title>
<g id="a_node25"><a xlink:href="Math_8inl.html" target="_top" xlink:title="Core/Math/Math.inl">
<polygon fill="white" stroke="black" points="1848,-112.5 1848,-131.5 1948,-131.5 1948,-112.5 1848,-112.5"/>
<text text-anchor="middle" x="1898" y="-119.5" font-family="Helvetica,sans-Serif" font-size="10.00">Core/Math/Math.inl</text>
</a>
</g>
</g>
<!-- Node22&#45;&gt;Node25 -->
<g id="edge28" class="edge"><title>Node22&#45;&gt;Node25</title>
<path fill="none" stroke="midnightblue" d="M1890.53,-174.403C1889.11,-165.849 1889.31,-152.45 1890.79,-141.476"/>
<polygon fill="midnightblue" stroke="midnightblue" points="1894.24,-142.059 1892.67,-131.581 1887.37,-140.75 1894.24,-142.059"/>
</g>
<!-- Node25&#45;&gt;Node22 -->
<g id="edge29" class="edge"><title>Node25&#45;&gt;Node22</title>
<path fill="none" stroke="midnightblue" d="M1902.47,-131.581C1903.89,-140.129 1903.69,-153.527 1902.21,-164.503"/>
<polygon fill="midnightblue" stroke="midnightblue" points="1898.76,-163.926 1900.33,-174.403 1905.64,-165.233 1898.76,-163.926"/>
</g>
<!-- Node27&#45;&gt;Node12 -->
<g id="edge34" class="edge"><title>Node27&#45;&gt;Node12</title>
<path fill="none" stroke="midnightblue" d="M934.646,-422.041C930.174,-406.845 918.971,-376.102 898,-360 879.484,-345.783 824.744,-333.433 779.92,-325.286"/>
<polygon fill="midnightblue" stroke="midnightblue" points="780.399,-321.816 769.94,-323.511 779.173,-328.708 780.399,-321.816"/>
</g>
<!-- Node27&#45;&gt;Node14 -->
<g id="edge42" class="edge"><title>Node27&#45;&gt;Node14</title>
<path fill="none" stroke="midnightblue" d="M941.182,-422.197C954.528,-392.691 992.842,-295.787 951,-236 942.742,-224.2 756.076,-161.18 676.461,-134.715"/>
<polygon fill="midnightblue" stroke="midnightblue" points="677.449,-131.356 666.855,-131.527 675.244,-137.999 677.449,-131.356"/>
</g>
<!-- Node27&#45;&gt;Node16 -->
<g id="edge35" class="edge"><title>Node27&#45;&gt;Node16</title>
<path fill="none" stroke="midnightblue" d="M977.386,-422.473C1035.02,-410.138 1135.64,-387.925 1151,-380 1200.18,-354.621 1238.62,-299.046 1255.95,-270.574"/>
<polygon fill="midnightblue" stroke="midnightblue" points="1259.11,-272.117 1261.19,-261.728 1253.08,-268.553 1259.11,-272.117"/>
</g>
<!-- Node28 -->
<g id="node28" class="node"><title>Node28</title>
<g id="a_node28"><a xlink:href="MeshTypes_8hpp.html" target="_top" xlink:title="Core/Mesh/MeshTypes.hpp">
<polygon fill="white" stroke="black" points="1069.5,-304.5 1069.5,-323.5 1206.5,-323.5 1206.5,-304.5 1069.5,-304.5"/>
<text text-anchor="middle" x="1138" y="-311.5" font-family="Helvetica,sans-Serif" font-size="10.00">Core/Mesh/MeshTypes.hpp</text>
</a>
</g>
</g>
<!-- Node27&#45;&gt;Node28 -->
<g id="edge36" class="edge"><title>Node27&#45;&gt;Node28</title>
<path fill="none" stroke="midnightblue" d="M980.238,-422.42C1034.61,-411.22 1122.1,-391.674 1132,-380 1142.64,-367.453 1143.14,-348.231 1141.58,-333.941"/>
<polygon fill="midnightblue" stroke="midnightblue" points="1145,-333.124 1140.04,-323.759 1138.08,-334.17 1145,-333.124"/>
</g>
<!-- Node32 -->
<g id="node32" class="node"><title>Node32</title>
<g id="a_node32"><a xlink:href="Attribs_8hpp.html" target="_top" xlink:title="Core/Utils/Attribs.hpp">
<polygon fill="white" stroke="black" points="778.5,-360.5 778.5,-379.5 889.5,-379.5 889.5,-360.5 778.5,-360.5"/>
<text text-anchor="middle" x="834" y="-367.5" font-family="Helvetica,sans-Serif" font-size="10.00">Core/Utils/Attribs.hpp</text>
</a>
</g>
</g>
<!-- Node27&#45;&gt;Node32 -->
<g id="edge43" class="edge"><title>Node27&#45;&gt;Node32</title>
<path fill="none" stroke="midnightblue" d="M922.243,-422.403C905.339,-412.557 877.417,-396.291 857.51,-384.695"/>
<polygon fill="midnightblue" stroke="midnightblue" points="859.133,-381.59 848.73,-379.581 855.609,-387.638 859.133,-381.59"/>
</g>
<!-- Node42 -->
<g id="node42" class="node"><title>Node42</title>
<g id="a_node42"><a xlink:href="TriangleMesh_8inl.html" target="_top" xlink:title="Core/Mesh/TriangleMesh.inl">
<polygon fill="white" stroke="black" points="984.5,-360.5 984.5,-379.5 1123.5,-379.5 1123.5,-360.5 984.5,-360.5"/>
<text text-anchor="middle" x="1054" y="-367.5" font-family="Helvetica,sans-Serif" font-size="10.00">Core/Mesh/TriangleMesh.inl</text>
</a>
</g>
</g>
<!-- Node27&#45;&gt;Node42 -->
<g id="edge64" class="edge"><title>Node27&#45;&gt;Node42</title>
<path fill="none" stroke="midnightblue" d="M948.863,-422.403C966.32,-412.334 998.79,-395.552 1023.15,-383.915"/>
<polygon fill="midnightblue" stroke="midnightblue" points="1024.81,-387.003 1032.37,-379.581 1021.83,-380.668 1024.81,-387.003"/>
</g>
<!-- Node28&#45;&gt;Node14 -->
<g id="edge41" class="edge"><title>Node28&#45;&gt;Node14</title>
<path fill="none" stroke="midnightblue" d="M1137.17,-304.399C1135.46,-289.602 1130.55,-258.73 1118,-236 1115.49,-231.459 1058.64,-170.313 1054,-168 992.815,-137.525 795.83,-127.509 697.678,-124.362"/>
<polygon fill="midnightblue" stroke="midnightblue" points="697.742,-120.862 687.639,-124.053 697.527,-127.859 697.742,-120.862"/>
</g>
<!-- Node28&#45;&gt;Node16 -->
<g id="edge40" class="edge"><title>Node28&#45;&gt;Node16</title>
<path fill="none" stroke="midnightblue" d="M1156.34,-304.403C1177.82,-294.334 1213.62,-277.552 1238.45,-265.915"/>
<polygon fill="midnightblue" stroke="midnightblue" points="1240.13,-268.994 1247.69,-261.581 1237.15,-262.656 1240.13,-268.994"/>
</g>
<!-- Node29 -->
<g id="node29" class="node"><title>Node29</title>
<g id="a_node29"><a xlink:href="Index_8hpp.html" target="_top" xlink:title="Core/Index/Index.hpp">
<polygon fill="white" stroke="black" points="999,-242.5 999,-261.5 1109,-261.5 1109,-242.5 999,-242.5"/>
<text text-anchor="middle" x="1054" y="-249.5" font-family="Helvetica,sans-Serif" font-size="10.00">Core/Index/Index.hpp</text>
</a>
</g>
</g>
<!-- Node28&#45;&gt;Node29 -->
<g id="edge37" class="edge"><title>Node28&#45;&gt;Node29</title>
<path fill="none" stroke="midnightblue" d="M1125.96,-304.403C1112.49,-294.78 1090.43,-279.024 1074.28,-267.489"/>
<polygon fill="midnightblue" stroke="midnightblue" points="1076.18,-264.545 1066.01,-261.581 1072.12,-270.241 1076.18,-264.545"/>
</g>
<!-- Node30 -->
<g id="node30" class="node"><title>Node30</title>
<polygon fill="white" stroke="#bfbfbf" points="1005,-174.5 1005,-193.5 1045,-193.5 1045,-174.5 1005,-174.5"/>
<text text-anchor="middle" x="1025" y="-181.5" font-family="Helvetica,sans-Serif" font-size="10.00">limits</text>
</g>
<!-- Node29&#45;&gt;Node30 -->
<g id="edge38" class="edge"><title>Node29&#45;&gt;Node30</title>
<path fill="none" stroke="midnightblue" d="M1050.21,-242.372C1045.85,-232.446 1038.57,-215.874 1032.95,-203.086"/>
<polygon fill="midnightblue" stroke="midnightblue" points="1036.11,-201.588 1028.88,-193.841 1029.7,-204.404 1036.11,-201.588"/>
</g>
<!-- Node31 -->
<g id="node31" class="node"><title>Node31</title>
<g id="a_node31"><a xlink:href="Index_8inl.html" target="_top" xlink:title="Core/Index/Index.inl">
<polygon fill="white" stroke="black" points="883,-174.5 883,-193.5 987,-193.5 987,-174.5 883,-174.5"/>
<text text-anchor="middle" x="935" y="-181.5" font-family="Helvetica,sans-Serif" font-size="10.00">Core/Index/Index.inl</text>
</a>
</g>
</g>
<!-- Node29&#45;&gt;Node31 -->
<g id="edge39" class="edge"><title>Node29&#45;&gt;Node31</title>
<path fill="none" stroke="midnightblue" d="M1038.44,-242.372C1018.31,-231.205 983.009,-211.627 959.319,-198.488"/>
<polygon fill="midnightblue" stroke="midnightblue" points="961.004,-195.42 950.561,-193.63 957.608,-201.541 961.004,-195.42"/>
</g>
<!-- Node32&#45;&gt;Node12 -->
<g id="edge44" class="edge"><title>Node32&#45;&gt;Node12</title>
<path fill="none" stroke="midnightblue" d="M815.144,-360.444C795.734,-351.636 765.27,-337.812 743.035,-327.722"/>
<polygon fill="midnightblue" stroke="midnightblue" points="744.32,-324.462 733.768,-323.516 741.428,-330.836 744.32,-324.462"/>
</g>
<!-- Node32&#45;&gt;Node14 -->
<g id="edge63" class="edge"><title>Node32&#45;&gt;Node14</title>
<path fill="none" stroke="midnightblue" d="M778.255,-367.461C642.088,-363.329 295.484,-350.47 183,-324 119.77,-309.121 84.0745,-322.019 48,-268 26.8351,-236.307 79.016,-168.681 80,-168 120.764,-139.782 449.517,-128.022 583.988,-124.361"/>
<polygon fill="midnightblue" stroke="midnightblue" points="584.19,-127.857 594.093,-124.091 584.003,-120.859 584.19,-127.857"/>
</g>
<!-- Node33 -->
<g id="node33" class="node"><title>Node33</title>
<g id="a_node33"><a xlink:href="IndexMap_8hpp.html" target="_top" xlink:title="Core/Index/IndexMap.hpp">
<polygon fill="white" stroke="black" points="813.5,-304.5 813.5,-323.5 942.5,-323.5 942.5,-304.5 813.5,-304.5"/>
<text text-anchor="middle" x="878" y="-311.5" font-family="Helvetica,sans-Serif" font-size="10.00">Core/Index/IndexMap.hpp</text>
</a>
</g>
</g>
<!-- Node32&#45;&gt;Node33 -->
<g id="edge45" class="edge"><title>Node32&#45;&gt;Node33</title>
<path fill="none" stroke="midnightblue" d="M841.266,-360.083C847.545,-352.377 856.788,-341.033 864.431,-331.653"/>
<polygon fill="midnightblue" stroke="midnightblue" points="867.266,-333.714 870.869,-323.751 861.839,-329.293 867.266,-333.714"/>
</g>
<!-- Node37 -->
<g id="node37" class="node"><title>Node37</title>
<g id="a_node37"><a xlink:href="Log_8hpp.html" target="_top" xlink:title="Core/Log/Log.hpp">
<polygon fill="white" stroke="black" points="192,-304.5 192,-323.5 286,-323.5 286,-304.5 192,-304.5"/>
<text text-anchor="middle" x="239" y="-311.5" font-family="Helvetica,sans-Serif" font-size="10.00">Core/Log/Log.hpp</text>
</a>
</g>
</g>
<!-- Node32&#45;&gt;Node37 -->
<g id="edge53" class="edge"><title>Node32&#45;&gt;Node37</title>
<path fill="none" stroke="midnightblue" d="M778.291,-363.944C665.392,-353.698 410.651,-330.578 296.373,-320.207"/>
<polygon fill="midnightblue" stroke="midnightblue" points="296.365,-316.692 286.089,-319.274 295.732,-323.663 296.365,-316.692"/>
</g>
<!-- Node33&#45;&gt;Node14 -->
<g id="edge46" class="edge"><title>Node33&#45;&gt;Node14</title>
<path fill="none" stroke="midnightblue" d="M827.908,-304.457C772.547,-294.585 689.728,-278.37 679,-268 644.158,-234.32 639.898,-172.919 640.164,-141.944"/>
<polygon fill="midnightblue" stroke="midnightblue" points="643.67,-141.772 640.434,-131.684 636.672,-141.588 643.67,-141.772"/>
</g>
<!-- Node33&#45;&gt;Node23 -->
<g id="edge47" class="edge"><title>Node33&#45;&gt;Node23</title>
<path fill="none" stroke="midnightblue" d="M942.843,-309.948C1142.59,-299.88 1738.44,-264.626 1794,-200 1803.27,-189.215 1800.03,-180.879 1794,-168 1787.96,-155.094 1776.19,-144.599 1765.18,-137"/>
<polygon fill="midnightblue" stroke="midnightblue" points="1766.94,-133.975 1756.63,-131.536 1763.17,-139.872 1766.94,-133.975"/>
</g>
<!-- Node33&#45;&gt;Node29 -->
<g id="edge50" class="edge"><title>Node33&#45;&gt;Node29</title>
<path fill="none" stroke="midnightblue" d="M903.217,-304.403C933.668,-294.022 985.049,-276.506 1019.24,-264.849"/>
<polygon fill="midnightblue" stroke="midnightblue" points="1020.49,-268.12 1028.83,-261.581 1018.24,-261.495 1020.49,-268.12"/>
</g>
<!-- Node34 -->
<g id="node34" class="node"><title>Node34</title>
<polygon fill="white" stroke="#bfbfbf" points="688,-242.5 688,-261.5 740,-261.5 740,-242.5 688,-242.5"/>
<text text-anchor="middle" x="714" y="-249.5" font-family="Helvetica,sans-Serif" font-size="10.00">assert.h</text>
</g>
<!-- Node33&#45;&gt;Node34 -->
<g id="edge48" class="edge"><title>Node33&#45;&gt;Node34</title>
<path fill="none" stroke="midnightblue" d="M851.616,-304.392C825.406,-295.701 784.158,-281.647 749,-268 747.105,-267.264 745.16,-266.489 743.205,-265.694"/>
<polygon fill="midnightblue" stroke="midnightblue" points="744.1,-262.275 733.524,-261.65 741.402,-268.734 744.1,-262.275"/>
</g>
<!-- Node35 -->
<g id="node35" class="node"><title>Node35</title>
<polygon fill="white" stroke="#bfbfbf" points="758.5,-242.5 758.5,-261.5 801.5,-261.5 801.5,-242.5 758.5,-242.5"/>
<text text-anchor="middle" x="780" y="-249.5" font-family="Helvetica,sans-Serif" font-size="10.00">deque</text>
</g>
<!-- Node33&#45;&gt;Node35 -->
<g id="edge49" class="edge"><title>Node33&#45;&gt;Node35</title>
<path fill="none" stroke="midnightblue" d="M863.959,-304.403C847.949,-294.601 821.55,-278.439 802.626,-266.853"/>
<polygon fill="midnightblue" stroke="midnightblue" points="804.371,-263.817 794.015,-261.581 800.716,-269.787 804.371,-263.817"/>
</g>
<!-- Node36 -->
<g id="node36" class="node"><title>Node36</title>
<g id="a_node36"><a xlink:href="IndexMap_8inl.html" target="_top" xlink:title="Core/Index/IndexMap.inl">
<polygon fill="white" stroke="black" points="819.5,-242.5 819.5,-261.5 942.5,-261.5 942.5,-242.5 819.5,-242.5"/>
<text text-anchor="middle" x="881" y="-249.5" font-family="Helvetica,sans-Serif" font-size="10.00">Core/Index/IndexMap.inl</text>
</a>
</g>
</g>
<!-- Node33&#45;&gt;Node36 -->
<g id="edge51" class="edge"><title>Node33&#45;&gt;Node36</title>
<path fill="none" stroke="midnightblue" d="M873.529,-304.403C872.107,-295.849 872.315,-282.45 873.79,-271.476"/>
<polygon fill="midnightblue" stroke="midnightblue" points="877.242,-272.059 875.674,-261.581 870.365,-270.75 877.242,-272.059"/>
</g>
<!-- Node36&#45;&gt;Node33 -->
<g id="edge52" class="edge"><title>Node36&#45;&gt;Node33</title>
<path fill="none" stroke="midnightblue" d="M885.468,-261.581C886.893,-270.129 886.686,-283.527 885.213,-294.503"/>
<polygon fill="midnightblue" stroke="midnightblue" points="881.76,-293.926 883.33,-304.403 888.637,-295.233 881.76,-293.926"/>
</g>
<!-- Node37&#45;&gt;Node7 -->
<g id="edge55" class="edge"><title>Node37&#45;&gt;Node7</title>
<path fill="none" stroke="midnightblue" d="M191.849,-312.133C150.286,-309.151 89.978,-299.185 48,-268 13.7927,-242.588 0,-227.613 0,-185 0,-185 0,-185 0,-121 0,-33.5919 134.274,-15.4467 200.686,-11.8177"/>
<polygon fill="midnightblue" stroke="midnightblue" points="200.904,-15.3114 210.731,-11.3515 200.58,-8.31893 200.904,-15.3114"/>
</g>
<!-- Node37&#45;&gt;Node14 -->
<g id="edge54" class="edge"><title>Node37&#45;&gt;Node14</title>
<path fill="none" stroke="midnightblue" d="M269.824,-304.365C289.978,-297.374 315.681,-285.733 333,-268 367.053,-233.133 339.459,-197.832 378,-168 409.446,-143.66 517.003,-131.727 584.441,-126.508"/>
<polygon fill="midnightblue" stroke="midnightblue" points="584.782,-129.992 594.493,-125.756 584.26,-123.012 584.782,-129.992"/>
</g>
<!-- Node38 -->
<g id="node38" class="node"><title>Node38</title>
<polygon fill="white" stroke="#bfbfbf" points="278,-242.5 278,-261.5 324,-261.5 324,-242.5 278,-242.5"/>
<text text-anchor="middle" x="301" y="-249.5" font-family="Helvetica,sans-Serif" font-size="10.00">stdio.h</text>
</g>
<!-- Node37&#45;&gt;Node38 -->
<g id="edge56" class="edge"><title>Node37&#45;&gt;Node38</title>
<path fill="none" stroke="midnightblue" d="M247.883,-304.403C257.459,-295.136 272.911,-280.183 284.686,-268.788"/>
<polygon fill="midnightblue" stroke="midnightblue" points="287.381,-271.05 292.133,-261.581 282.513,-266.02 287.381,-271.05"/>
</g>
<!-- Node39 -->
<g id="node39" class="node"><title>Node39</title>
<polygon fill="white" stroke="#bfbfbf" points="89.5,-174.5 89.5,-193.5 130.5,-193.5 130.5,-174.5 89.5,-174.5"/>
<text text-anchor="middle" x="110" y="-181.5" font-family="Helvetica,sans-Serif" font-size="10.00">string</text>
</g>
<!-- Node37&#45;&gt;Node39 -->
<g id="edge57" class="edge"><title>Node37&#45;&gt;Node39</title>
<path fill="none" stroke="midnightblue" d="M191.753,-307.885C143.518,-301.573 73.4525,-289.016 57,-268 39.3223,-245.419 67.563,-216.797 89.1385,-199.744"/>
<polygon fill="midnightblue" stroke="midnightblue" points="91.3904,-202.429 97.2552,-193.605 87.168,-196.846 91.3904,-202.429"/>
</g>
<!-- Node40 -->
<g id="node40" class="node"><title>Node40</title>
<g id="a_node40"><a xlink:href="StringUtils_8hpp.html" target="_top" xlink:title="Core/String/StringUtils.hpp">
<polygon fill="white" stroke="black" points="66,-242.5 66,-261.5 200,-261.5 200,-242.5 66,-242.5"/>
<text text-anchor="middle" x="133" y="-249.5" font-family="Helvetica,sans-Serif" font-size="10.00">Core/String/StringUtils.hpp</text>
</a>
</g>
</g>
<!-- Node37&#45;&gt;Node40 -->
<g id="edge58" class="edge"><title>Node37&#45;&gt;Node40</title>
<path fill="none" stroke="midnightblue" d="M223.813,-304.403C206.338,-294.512 177.421,-278.144 156.917,-266.538"/>
<polygon fill="midnightblue" stroke="midnightblue" points="158.586,-263.461 148.159,-261.581 155.138,-269.553 158.586,-263.461"/>
</g>
<!-- Node41 -->
<g id="node41" class="node"><title>Node41</title>
<polygon fill="white" stroke="#bfbfbf" points="218.5,-242.5 218.5,-261.5 259.5,-261.5 259.5,-242.5 218.5,-242.5"/>
<text text-anchor="middle" x="239" y="-249.5" font-family="Helvetica,sans-Serif" font-size="10.00">ctime</text>
</g>
<!-- Node37&#45;&gt;Node41 -->
<g id="edge62" class="edge"><title>Node37&#45;&gt;Node41</title>
<path fill="none" stroke="midnightblue" d="M239,-304.403C239,-295.938 239,-282.728 239,-271.82"/>
<polygon fill="midnightblue" stroke="midnightblue" points="242.5,-271.581 239,-261.581 235.5,-271.581 242.5,-271.581"/>
</g>
<!-- Node40&#45;&gt;Node11 -->
<g id="edge61" class="edge"><title>Node40&#45;&gt;Node11</title>
<path fill="none" stroke="midnightblue" d="M168.799,-242.439C222.972,-229.485 324.949,-205.099 376.868,-192.684"/>
<polygon fill="midnightblue" stroke="midnightblue" points="377.942,-196.026 386.854,-190.296 376.314,-189.218 377.942,-196.026"/>
</g>
<!-- Node40&#45;&gt;Node14 -->
<g id="edge59" class="edge"><title>Node40&#45;&gt;Node14</title>
<path fill="none" stroke="midnightblue" d="M150.067,-242.462C184.629,-225.54 265.761,-187.687 338,-168 422.033,-145.098 522.557,-133.082 584.079,-127.396"/>
<polygon fill="midnightblue" stroke="midnightblue" points="584.708,-130.854 594.354,-126.472 584.081,-123.882 584.708,-130.854"/>
</g>
<!-- Node40&#45;&gt;Node39 -->
<g id="edge60" class="edge"><title>Node40&#45;&gt;Node39</title>
<path fill="none" stroke="midnightblue" d="M129.993,-242.372C126.568,-232.544 120.873,-216.202 116.436,-203.467"/>
<polygon fill="midnightblue" stroke="midnightblue" points="119.677,-202.132 113.081,-193.841 113.067,-204.436 119.677,-202.132"/>
</g>
<!-- Node42&#45;&gt;Node27 -->
<g id="edge65" class="edge"><title>Node42&#45;&gt;Node27</title>
<path fill="none" stroke="midnightblue" d="M1042.16,-379.581C1024.72,-389.643 992.257,-406.424 967.887,-418.066"/>
<polygon fill="midnightblue" stroke="midnightblue" points="966.224,-414.981 958.664,-422.403 969.203,-421.315 966.224,-414.981"/>
</g>
<!-- Node43&#45;&gt;Node1 -->
<g id="edge67" class="edge"><title>Node43&#45;&gt;Node1</title>
<path fill="none" stroke="midnightblue" d="M1077.94,-447.09C1037.07,-458.715 976.454,-475.394 927.001,-488.657"/>
<polygon fill="midnightblue" stroke="midnightblue" points="926.024,-485.296 917.269,-491.262 927.834,-492.058 926.024,-485.296"/>
</g>
</g>
</svg>
