<?xml version="1.0" encoding="UTF-8" standalone="no"?>
<!DOCTYPE svg PUBLIC "-//W3C//DTD SVG 1.1//EN"
 "http://www.w3.org/Graphics/SVG/1.1/DTD/svg11.dtd">
<!-- Generated by graphviz version 2.36.0 (20140111.2315)
 -->
<!-- Title: /home/travis/build/STORM&#45;IRIT/Radium&#45;Engine/Plugins/MeshPaint/src/UI/MeshPaintUI.h Pages: 1 -->
<svg width="1173pt" height="466pt"
 viewBox="0.00 0.00 1172.59 466.00" xmlns="http://www.w3.org/2000/svg" xmlns:xlink="http://www.w3.org/1999/xlink">
<g id="graph0" class="graph" transform="scale(1 1) rotate(0) translate(4 462)">
<title>/home/travis/build/STORM&#45;IRIT/Radium&#45;Engine/Plugins/MeshPaint/src/UI/MeshPaintUI.h</title>
<polygon fill="white" stroke="none" points="-4,4 -4,-462 1168.59,-462 1168.59,4 -4,4"/>
<!-- Node1 -->
<g id="node1" class="node"><title>Node1</title>
<polygon fill="#bfbfbf" stroke="black" points="718.843,-405 718.843,-457 866.843,-457 866.843,-405 718.843,-405"/>
<text text-anchor="start" x="726.843" y="-445" font-family="Helvetica,sans-Serif" font-size="10.00">/home/travis/build</text>
<text text-anchor="start" x="726.843" y="-434" font-family="Helvetica,sans-Serif" font-size="10.00">/STORM&#45;IRIT/Radium&#45;Engine</text>
<text text-anchor="start" x="726.843" y="-423" font-family="Helvetica,sans-Serif" font-size="10.00">/Plugins/MeshPaint/src/UI</text>
<text text-anchor="middle" x="792.843" y="-412" font-family="Helvetica,sans-Serif" font-size="10.00">/MeshPaintUI.h</text>
</g>
<!-- Node2 -->
<g id="node2" class="node"><title>Node2</title>
<polygon fill="white" stroke="#bfbfbf" points="698.843,-348.5 698.843,-367.5 750.843,-367.5 750.843,-348.5 698.843,-348.5"/>
<text text-anchor="middle" x="724.843" y="-355.5" font-family="Helvetica,sans-Serif" font-size="10.00">QFrame</text>
</g>
<!-- Node1&#45;&gt;Node2 -->
<g id="edge1" class="edge"><title>Node1&#45;&gt;Node2</title>
<path fill="none" stroke="midnightblue" d="M768.677,-404.768C759.207,-394.881 748.624,-383.831 740.229,-375.066"/>
<polygon fill="midnightblue" stroke="midnightblue" points="742.674,-372.558 733.23,-367.757 737.619,-377.4 742.674,-372.558"/>
</g>
<!-- Node3 -->
<g id="node3" class="node"><title>Node3</title>
<polygon fill="white" stroke="#bfbfbf" points="769.343,-348.5 769.343,-367.5 816.343,-367.5 816.343,-348.5 769.343,-348.5"/>
<text text-anchor="middle" x="792.843" y="-355.5" font-family="Helvetica,sans-Serif" font-size="10.00">QColor</text>
</g>
<!-- Node1&#45;&gt;Node3 -->
<g id="edge2" class="edge"><title>Node1&#45;&gt;Node3</title>
<path fill="none" stroke="midnightblue" d="M792.843,-404.768C792.843,-395.89 792.843,-386.074 792.843,-377.816"/>
<polygon fill="midnightblue" stroke="midnightblue" points="796.343,-377.757 792.843,-367.757 789.343,-377.757 796.343,-377.757"/>
</g>
<!-- Node4 -->
<g id="node4" class="node"><title>Node4</title>
<g id="a_node4"><a xlink:href="PickingManager_8hpp.html" target="_top" xlink:title="GuiBase/Utils/PickingManager.hpp">
<polygon fill="white" stroke="black" points="834.343,-348.5 834.343,-367.5 1003.34,-367.5 1003.34,-348.5 834.343,-348.5"/>
<text text-anchor="middle" x="918.843" y="-355.5" font-family="Helvetica,sans-Serif" font-size="10.00">GuiBase/Utils/PickingManager.hpp</text>
</a>
</g>
</g>
<!-- Node1&#45;&gt;Node4 -->
<g id="edge3" class="edge"><title>Node1&#45;&gt;Node4</title>
<path fill="none" stroke="midnightblue" d="M837.266,-404.968C856.574,-394.088 878.439,-381.767 894.669,-372.622"/>
<polygon fill="midnightblue" stroke="midnightblue" points="896.518,-375.597 903.512,-367.639 893.081,-369.499 896.518,-375.597"/>
</g>
<!-- Node5 -->
<g id="node5" class="node"><title>Node5</title>
<g id="a_node5"><a xlink:href="RaGuiBase_8hpp.html" target="_top" xlink:title="GuiBase/RaGuiBase.hpp">
<polygon fill="white" stroke="black" points="323.843,-292.5 323.843,-311.5 449.843,-311.5 449.843,-292.5 323.843,-292.5"/>
<text text-anchor="middle" x="386.843" y="-299.5" font-family="Helvetica,sans-Serif" font-size="10.00">GuiBase/RaGuiBase.hpp</text>
</a>
</g>
</g>
<!-- Node4&#45;&gt;Node5 -->
<g id="edge4" class="edge"><title>Node4&#45;&gt;Node5</title>
<path fill="none" stroke="midnightblue" d="M834.839,-348.473C731.62,-337.996 558.159,-320.389 460.115,-310.437"/>
<polygon fill="midnightblue" stroke="midnightblue" points="460.298,-306.938 449.996,-309.41 459.591,-313.902 460.298,-306.938"/>
</g>
<!-- Node12 -->
<g id="node12" class="node"><title>Node12</title>
<g id="a_node12"><a xlink:href="Renderer_8hpp.html" target="_top" xlink:title="Engine/Renderer/Renderer.hpp">
<polygon fill="white" stroke="black" points="843.343,-292.5 843.343,-311.5 994.343,-311.5 994.343,-292.5 843.343,-292.5"/>
<text text-anchor="middle" x="918.843" y="-299.5" font-family="Helvetica,sans-Serif" font-size="10.00">Engine/Renderer/Renderer.hpp</text>
</a>
</g>
</g>
<!-- Node4&#45;&gt;Node12 -->
<g id="edge11" class="edge"><title>Node4&#45;&gt;Node12</title>
<path fill="none" stroke="midnightblue" d="M918.843,-348.083C918.843,-341.006 918.843,-330.861 918.843,-321.986"/>
<polygon fill="midnightblue" stroke="midnightblue" points="922.343,-321.751 918.843,-311.751 915.343,-321.751 922.343,-321.751"/>
</g>
<!-- Node33 -->
<g id="node33" class="node"><title>Node33</title>
<polygon fill="white" stroke="#bfbfbf" points="1012.34,-292.5 1012.34,-311.5 1065.34,-311.5 1065.34,-292.5 1012.34,-292.5"/>
<text text-anchor="middle" x="1038.84" y="-299.5" font-family="Helvetica,sans-Serif" font-size="10.00">QObject</text>
</g>
<!-- Node4&#45;&gt;Node33 -->
<g id="edge39" class="edge"><title>Node4&#45;&gt;Node33</title>
<path fill="none" stroke="midnightblue" d="M937.857,-348.444C957.43,-339.636 988.15,-325.812 1010.57,-315.722"/>
<polygon fill="midnightblue" stroke="midnightblue" points="1012.23,-318.812 1019.92,-311.516 1009.36,-312.428 1012.23,-318.812"/>
</g>
<!-- Node6 -->
<g id="node6" class="node"><title>Node6</title>
<g id="a_node6"><a xlink:href="CoreMacros_8hpp.html" target="_top" xlink:title="Core/CoreMacros.hpp">
<polygon fill="white" stroke="black" points="736.343,-56.5 736.343,-75.5 849.343,-75.5 849.343,-56.5 736.343,-56.5"/>
<text text-anchor="middle" x="792.843" y="-63.5" font-family="Helvetica,sans-Serif" font-size="10.00">Core/CoreMacros.hpp</text>
</a>
</g>
</g>
<!-- Node5&#45;&gt;Node6 -->
<g id="edge5" class="edge"><title>Node5&#45;&gt;Node6</title>
<path fill="none" stroke="midnightblue" d="M323.456,-293.447C225.661,-280.346 45.2281,-249.921 6.84262,-200 -0.727117,-190.155 -3.81927,-124.131 7.84262,-112 32.5785,-86.2696 540.964,-72.5441 726.132,-68.3835"/>
<polygon fill="midnightblue" stroke="midnightblue" points="726.362,-71.8794 736.282,-68.1578 726.207,-64.8811 726.362,-71.8794"/>
</g>
<!-- Node7 -->
<g id="node7" class="node"><title>Node7</title>
<polygon fill="white" stroke="#bfbfbf" points="637.343,-0.5 637.343,-19.5 686.343,-19.5 686.343,-0.5 637.343,-0.5"/>
<text text-anchor="middle" x="661.843" y="-7.5" font-family="Helvetica,sans-Serif" font-size="10.00">cassert</text>
</g>
<!-- Node6&#45;&gt;Node7 -->
<g id="edge6" class="edge"><title>Node6&#45;&gt;Node7</title>
<path fill="none" stroke="midnightblue" d="M772.085,-56.4435C750.526,-47.5566 716.579,-33.5632 692.049,-23.4514"/>
<polygon fill="midnightblue" stroke="midnightblue" points="693.082,-20.0917 682.503,-19.5164 690.414,-26.5634 693.082,-20.0917"/>
</g>
<!-- Node8 -->
<g id="node8" class="node"><title>Node8</title>
<polygon fill="white" stroke="#bfbfbf" points="704.343,-0.5 704.343,-19.5 747.343,-19.5 747.343,-0.5 704.343,-0.5"/>
<text text-anchor="middle" x="725.843" y="-7.5" font-family="Helvetica,sans-Serif" font-size="10.00">cstdio</text>
</g>
<!-- Node6&#45;&gt;Node8 -->
<g id="edge7" class="edge"><title>Node6&#45;&gt;Node8</title>
<path fill="none" stroke="midnightblue" d="M782.078,-56.324C772.076,-48.2631 756.956,-36.0765 744.912,-26.3695"/>
<polygon fill="midnightblue" stroke="midnightblue" points="746.786,-23.3841 736.803,-19.8339 742.393,-28.8343 746.786,-23.3841"/>
</g>
<!-- Node9 -->
<g id="node9" class="node"><title>Node9</title>
<polygon fill="white" stroke="#bfbfbf" points="765.843,-0.5 765.843,-19.5 819.843,-19.5 819.843,-0.5 765.843,-0.5"/>
<text text-anchor="middle" x="792.843" y="-7.5" font-family="Helvetica,sans-Serif" font-size="10.00">iostream</text>
</g>
<!-- Node6&#45;&gt;Node9 -->
<g id="edge8" class="edge"><title>Node6&#45;&gt;Node9</title>
<path fill="none" stroke="midnightblue" d="M792.843,-56.083C792.843,-49.0059 792.843,-38.8611 792.843,-29.9865"/>
<polygon fill="midnightblue" stroke="midnightblue" points="796.343,-29.751 792.843,-19.7511 789.343,-29.7511 796.343,-29.751"/>
</g>
<!-- Node10 -->
<g id="node10" class="node"><title>Node10</title>
<polygon fill="white" stroke="#bfbfbf" points="837.843,-0.5 837.843,-19.5 889.843,-19.5 889.843,-0.5 837.843,-0.5"/>
<text text-anchor="middle" x="863.843" y="-7.5" font-family="Helvetica,sans-Serif" font-size="10.00">sstream</text>
</g>
<!-- Node6&#45;&gt;Node10 -->
<g id="edge9" class="edge"><title>Node6&#45;&gt;Node10</title>
<path fill="none" stroke="midnightblue" d="M804.25,-56.324C814.951,-48.1849 831.183,-35.8395 844.005,-26.0874"/>
<polygon fill="midnightblue" stroke="midnightblue" points="846.387,-28.6734 852.228,-19.8339 842.149,-23.1018 846.387,-28.6734"/>
</g>
<!-- Node11 -->
<g id="node11" class="node"><title>Node11</title>
<polygon fill="white" stroke="#bfbfbf" points="907.843,-0.5 907.843,-19.5 951.843,-19.5 951.843,-0.5 907.843,-0.5"/>
<text text-anchor="middle" x="929.843" y="-7.5" font-family="Helvetica,sans-Serif" font-size="10.00">thread</text>
</g>
<!-- Node6&#45;&gt;Node11 -->
<g id="edge10" class="edge"><title>Node6&#45;&gt;Node11</title>
<path fill="none" stroke="midnightblue" d="M814.551,-56.4435C837.197,-47.5171 872.915,-33.4387 898.594,-23.3168"/>
<polygon fill="midnightblue" stroke="midnightblue" points="900.216,-26.4397 908.236,-19.5164 897.649,-19.9273 900.216,-26.4397"/>
</g>
<!-- Node13 -->
<g id="node13" class="node"><title>Node13</title>
<g id="a_node13"><a xlink:href="RaEngine_8hpp.html" target="_top" xlink:title="Engine/RaEngine.hpp">
<polygon fill="white" stroke="black" points="1018.34,-112.5 1018.34,-131.5 1129.34,-131.5 1129.34,-112.5 1018.34,-112.5"/>
<text text-anchor="middle" x="1073.84" y="-119.5" font-family="Helvetica,sans-Serif" font-size="10.00">Engine/RaEngine.hpp</text>
</a>
</g>
</g>
<!-- Node12&#45;&gt;Node13 -->
<g id="edge12" class="edge"><title>Node12&#45;&gt;Node13</title>
<path fill="none" stroke="midnightblue" d="M986.882,-292.477C1052.71,-283.534 1144.09,-268.996 1154.84,-256 1187.27,-216.8 1128.26,-163.364 1094.71,-137.803"/>
<polygon fill="midnightblue" stroke="midnightblue" points="1096.53,-134.794 1086.41,-131.648 1092.36,-140.416 1096.53,-134.794"/>
</g>
<!-- Node14 -->
<g id="node14" class="node"><title>Node14</title>
<polygon fill="white" stroke="#bfbfbf" points="876.843,-236.5 876.843,-255.5 914.843,-255.5 914.843,-236.5 876.843,-236.5"/>
<text text-anchor="middle" x="895.843" y="-243.5" font-family="Helvetica,sans-Serif" font-size="10.00">array</text>
</g>
<!-- Node12&#45;&gt;Node14 -->
<g id="edge14" class="edge"><title>Node12&#45;&gt;Node14</title>
<path fill="none" stroke="midnightblue" d="M915.045,-292.083C911.93,-284.77 907.42,-274.181 903.553,-265.103"/>
<polygon fill="midnightblue" stroke="midnightblue" points="906.709,-263.58 899.57,-255.751 900.269,-266.323 906.709,-263.58"/>
</g>
<!-- Node15 -->
<g id="node15" class="node"><title>Node15</title>
<polygon fill="white" stroke="#bfbfbf" points="919.843,-174.5 919.843,-193.5 965.843,-193.5 965.843,-174.5 919.843,-174.5"/>
<text text-anchor="middle" x="942.843" y="-181.5" font-family="Helvetica,sans-Serif" font-size="10.00">chrono</text>
</g>
<!-- Node12&#45;&gt;Node15 -->
<g id="edge15" class="edge"><title>Node12&#45;&gt;Node15</title>
<path fill="none" stroke="midnightblue" d="M920.647,-292.281C924.54,-273.463 933.802,-228.697 939.048,-203.34"/>
<polygon fill="midnightblue" stroke="midnightblue" points="942.484,-204.007 941.083,-193.505 935.629,-202.588 942.484,-204.007"/>
</g>
<!-- Node16 -->
<g id="node16" class="node"><title>Node16</title>
<polygon fill="white" stroke="#bfbfbf" points="970.843,-236.5 970.843,-255.5 1022.84,-255.5 1022.84,-236.5 970.843,-236.5"/>
<text text-anchor="middle" x="996.843" y="-243.5" font-family="Helvetica,sans-Serif" font-size="10.00">memory</text>
</g>
<!-- Node12&#45;&gt;Node16 -->
<g id="edge16" class="edge"><title>Node12&#45;&gt;Node16</title>
<path fill="none" stroke="midnightblue" d="M931.375,-292.324C943.429,-283.979 961.869,-271.212 976.111,-261.352"/>
<polygon fill="midnightblue" stroke="midnightblue" points="978.112,-264.224 984.342,-255.655 974.127,-258.469 978.112,-264.224"/>
</g>
<!-- Node17 -->
<g id="node17" class="node"><title>Node17</title>
<polygon fill="white" stroke="#bfbfbf" points="1040.84,-236.5 1040.84,-255.5 1084.84,-255.5 1084.84,-236.5 1040.84,-236.5"/>
<text text-anchor="middle" x="1062.84" y="-243.5" font-family="Helvetica,sans-Serif" font-size="10.00">mutex</text>
</g>
<!-- Node12&#45;&gt;Node17 -->
<g id="edge17" class="edge"><title>Node12&#45;&gt;Node17</title>
<path fill="none" stroke="midnightblue" d="M941.66,-292.444C965.816,-283.385 1004.12,-269.021 1031.19,-258.871"/>
<polygon fill="midnightblue" stroke="midnightblue" points="1032.47,-262.127 1040.61,-255.339 1030.01,-255.573 1032.47,-262.127"/>
</g>
<!-- Node18 -->
<g id="node18" class="node"><title>Node18</title>
<polygon fill="white" stroke="#bfbfbf" points="1102.84,-236.5 1102.84,-255.5 1146.84,-255.5 1146.84,-236.5 1102.84,-236.5"/>
<text text-anchor="middle" x="1124.84" y="-243.5" font-family="Helvetica,sans-Serif" font-size="10.00">vector</text>
</g>
<!-- Node12&#45;&gt;Node18 -->
<g id="edge18" class="edge"><title>Node12&#45;&gt;Node18</title>
<path fill="none" stroke="midnightblue" d="M952.58,-292.499C987.676,-283.604 1044.19,-269.131 1092.84,-256 1092.94,-255.973 1093.04,-255.945 1093.15,-255.918"/>
<polygon fill="midnightblue" stroke="midnightblue" points="1094.11,-259.283 1102.83,-253.258 1092.26,-252.533 1094.11,-259.283"/>
</g>
<!-- Node19 -->
<g id="node19" class="node"><title>Node19</title>
<g id="a_node19"><a xlink:href="EventEnums_8hpp.html" target="_top" xlink:title="Core/Event/EventEnums.hpp">
<polygon fill="white" stroke="black" points="586.843,-236.5 586.843,-255.5 730.843,-255.5 730.843,-236.5 586.843,-236.5"/>
<text text-anchor="middle" x="658.843" y="-243.5" font-family="Helvetica,sans-Serif" font-size="10.00">Core/Event/EventEnums.hpp</text>
</a>
</g>
</g>
<!-- Node12&#45;&gt;Node19 -->
<g id="edge19" class="edge"><title>Node12&#45;&gt;Node19</title>
<path fill="none" stroke="midnightblue" d="M877.645,-292.444C832.193,-283.004 759.001,-267.802 709.933,-257.611"/>
<polygon fill="midnightblue" stroke="midnightblue" points="710.35,-254.123 699.848,-255.516 708.927,-260.977 710.35,-254.123"/>
</g>
<!-- Node21 -->
<g id="node21" class="node"><title>Node21</title>
<g id="a_node21"><a xlink:href="LinearAlgebra_8hpp.html" target="_top" xlink:title="Core/Math/LinearAlgebra.hpp">
<polygon fill="white" stroke="black" points="410.343,-236.5 410.343,-255.5 553.343,-255.5 553.343,-236.5 410.343,-236.5"/>
<text text-anchor="middle" x="481.843" y="-243.5" font-family="Helvetica,sans-Serif" font-size="10.00">Core/Math/LinearAlgebra.hpp</text>
</a>
</g>
</g>
<!-- Node12&#45;&gt;Node21 -->
<g id="edge22" class="edge"><title>Node12&#45;&gt;Node21</title>
<path fill="none" stroke="midnightblue" d="M849.599,-292.444C771.048,-282.737 643.199,-266.939 560.826,-256.76"/>
<polygon fill="midnightblue" stroke="midnightblue" points="561.116,-253.269 550.763,-255.516 560.258,-260.216 561.116,-253.269"/>
</g>
<!-- Node32 -->
<g id="node32" class="node"><title>Node32</title>
<g id="a_node32"><a xlink:href="Timer_8hpp.html" target="_top" xlink:title="Core/Time/Timer.hpp">
<polygon fill="white" stroke="black" points="749.343,-236.5 749.343,-255.5 858.343,-255.5 858.343,-236.5 749.343,-236.5"/>
<text text-anchor="middle" x="803.843" y="-243.5" font-family="Helvetica,sans-Serif" font-size="10.00">Core/Time/Timer.hpp</text>
</a>
</g>
</g>
<!-- Node12&#45;&gt;Node32 -->
<g id="edge36" class="edge"><title>Node12&#45;&gt;Node32</title>
<path fill="none" stroke="midnightblue" d="M900.621,-292.444C881.947,-283.675 852.687,-269.935 831.225,-259.858"/>
<polygon fill="midnightblue" stroke="midnightblue" points="832.519,-256.599 821.979,-255.516 829.544,-262.935 832.519,-256.599"/>
</g>
<!-- Node13&#45;&gt;Node6 -->
<g id="edge13" class="edge"><title>Node13&#45;&gt;Node6</title>
<path fill="none" stroke="midnightblue" d="M1029.32,-112.444C979.887,-102.944 900.096,-87.611 847.064,-77.4198"/>
<polygon fill="midnightblue" stroke="midnightblue" points="847.64,-73.9666 837.16,-75.5164 846.319,-80.8408 847.64,-73.9666"/>
</g>
<!-- Node20 -->
<g id="node20" class="node"><title>Node20</title>
<g id="a_node20"><a xlink:href="RaCore_8hpp.html" target="_top" xlink:title="Core/RaCore.hpp">
<polygon fill="white" stroke="black" points="746.343,-112.5 746.343,-131.5 839.343,-131.5 839.343,-112.5 746.343,-112.5"/>
<text text-anchor="middle" x="792.843" y="-119.5" font-family="Helvetica,sans-Serif" font-size="10.00">Core/RaCore.hpp</text>
</a>
</g>
</g>
<!-- Node19&#45;&gt;Node20 -->
<g id="edge20" class="edge"><title>Node19&#45;&gt;Node20</title>
<path fill="none" stroke="midnightblue" d="M724.854,-236.497C768.579,-229.354 820.291,-217.478 833.843,-200 848.972,-180.487 828.203,-154.599 811.123,-138.369"/>
<polygon fill="midnightblue" stroke="midnightblue" points="813.446,-135.751 803.677,-131.65 808.756,-140.948 813.446,-135.751"/>
</g>
<!-- Node20&#45;&gt;Node6 -->
<g id="edge21" class="edge"><title>Node20&#45;&gt;Node6</title>
<path fill="none" stroke="midnightblue" d="M792.843,-112.083C792.843,-105.006 792.843,-94.8611 792.843,-85.9865"/>
<polygon fill="midnightblue" stroke="midnightblue" points="796.343,-85.751 792.843,-75.7511 789.343,-85.7511 796.343,-85.751"/>
</g>
<!-- Node21&#45;&gt;Node20 -->
<g id="edge23" class="edge"><title>Node21&#45;&gt;Node20</title>
<path fill="none" stroke="midnightblue" d="M546.525,-236.471C604.15,-228.129 683.598,-214.584 711.843,-200 726.843,-192.254 758.88,-159.458 777.859,-139.248"/>
<polygon fill="midnightblue" stroke="midnightblue" points="780.626,-141.412 784.882,-131.709 775.504,-136.641 780.626,-141.412"/>
</g>
<!-- Node22 -->
<g id="node22" class="node"><title>Node22</title>
<polygon fill="white" stroke="#bfbfbf" points="760.343,-174.5 760.343,-193.5 825.343,-193.5 825.343,-174.5 760.343,-174.5"/>
<text text-anchor="middle" x="792.843" y="-181.5" font-family="Helvetica,sans-Serif" font-size="10.00">Eigen/Core</text>
</g>
<!-- Node21&#45;&gt;Node22 -->
<g id="edge24" class="edge"><title>Node21&#45;&gt;Node22</title>
<path fill="none" stroke="midnightblue" d="M547.187,-236.463C600.932,-228.82 678.872,-216.309 745.843,-200 749.962,-198.997 754.246,-197.821 758.476,-196.576"/>
<polygon fill="midnightblue" stroke="midnightblue" points="759.621,-199.886 768.147,-193.597 757.56,-193.196 759.621,-199.886"/>
</g>
<!-- Node23 -->
<g id="node23" class="node"><title>Node23</title>
<polygon fill="white" stroke="#bfbfbf" points="140.343,-174.5 140.343,-193.5 227.343,-193.5 227.343,-174.5 140.343,-174.5"/>
<text text-anchor="middle" x="183.843" y="-181.5" font-family="Helvetica,sans-Serif" font-size="10.00">Eigen/Geometry</text>
</g>
<!-- Node21&#45;&gt;Node23 -->
<g id="edge25" class="edge"><title>Node21&#45;&gt;Node23</title>
<path fill="none" stroke="midnightblue" d="M427.046,-236.453C377.192,-228.318 301.707,-215.101 236.843,-200 232.031,-198.88 227.004,-197.601 222.043,-196.273"/>
<polygon fill="midnightblue" stroke="midnightblue" points="222.616,-192.801 212.046,-193.514 220.754,-199.548 222.616,-192.801"/>
</g>
<!-- Node24 -->
<g id="node24" class="node"><title>Node24</title>
<polygon fill="white" stroke="#bfbfbf" points="245.343,-174.5 245.343,-193.5 320.343,-193.5 320.343,-174.5 245.343,-174.5"/>
<text text-anchor="middle" x="282.843" y="-181.5" font-family="Helvetica,sans-Serif" font-size="10.00">Eigen/Sparse</text>
</g>
<!-- Node21&#45;&gt;Node24 -->
<g id="edge26" class="edge"><title>Node21&#45;&gt;Node24</title>
<path fill="none" stroke="midnightblue" d="M452.364,-236.473C421.7,-227.556 372.325,-213.066 329.843,-200 326.276,-198.903 322.563,-197.745 318.855,-196.579"/>
<polygon fill="midnightblue" stroke="midnightblue" points="319.751,-193.191 309.161,-193.507 317.637,-199.864 319.751,-193.191"/>
</g>
<!-- Node25 -->
<g id="node25" class="node"><title>Node25</title>
<polygon fill="white" stroke="#bfbfbf" points="338.343,-174.5 338.343,-193.5 397.343,-193.5 397.343,-174.5 338.343,-174.5"/>
<text text-anchor="middle" x="367.843" y="-181.5" font-family="Helvetica,sans-Serif" font-size="10.00">functional</text>
</g>
<!-- Node21&#45;&gt;Node25 -->
<g id="edge27" class="edge"><title>Node21&#45;&gt;Node25</title>
<path fill="none" stroke="midnightblue" d="M465.509,-236.403C446.631,-226.468 415.336,-209.997 393.267,-198.381"/>
<polygon fill="midnightblue" stroke="midnightblue" points="394.625,-195.141 384.146,-193.581 391.365,-201.335 394.625,-195.141"/>
</g>
<!-- Node26 -->
<g id="node26" class="node"><title>Node26</title>
<polygon fill="white" stroke="#bfbfbf" points="415.343,-169 415.343,-199 548.343,-199 548.343,-169 415.343,-169"/>
<text text-anchor="start" x="423.343" y="-187" font-family="Helvetica,sans-Serif" font-size="10.00">unsupported/Eigen/Aligned</text>
<text text-anchor="middle" x="481.843" y="-176" font-family="Helvetica,sans-Serif" font-size="10.00">Vector3</text>
</g>
<!-- Node21&#45;&gt;Node26 -->
<g id="edge28" class="edge"><title>Node21&#45;&gt;Node26</title>
<path fill="none" stroke="midnightblue" d="M481.843,-236.403C481.843,-229.341 481.843,-218.975 481.843,-209.399"/>
<polygon fill="midnightblue" stroke="midnightblue" points="485.343,-209.141 481.843,-199.141 478.343,-209.141 485.343,-209.141"/>
</g>
<!-- Node27 -->
<g id="node27" class="node"><title>Node27</title>
<g id="a_node27"><a xlink:href="Math_8hpp.html" target="_top" xlink:title="Core/Math/Math.hpp">
<polygon fill="white" stroke="black" points="15.8426,-174.5 15.8426,-193.5 121.843,-193.5 121.843,-174.5 15.8426,-174.5"/>
<text text-anchor="middle" x="68.8426" y="-181.5" font-family="Helvetica,sans-Serif" font-size="10.00">Core/Math/Math.hpp</text>
</a>
</g>
</g>
<!-- Node21&#45;&gt;Node27 -->
<g id="edge29" class="edge"><title>Node21&#45;&gt;Node27</title>
<path fill="none" stroke="midnightblue" d="M410.11,-238.023C339.121,-230.592 227.514,-217.489 131.843,-200 125.229,-198.791 118.268,-197.328 111.482,-195.797"/>
<polygon fill="midnightblue" stroke="midnightblue" points="112.26,-192.384 101.727,-193.524 110.672,-199.202 112.26,-192.384"/>
</g>
<!-- Node31 -->
<g id="node31" class="node"><title>Node31</title>
<g id="a_node31"><a xlink:href="LinearAlgebra_8inl.html" target="_top" xlink:title="Core/Math/LinearAlgebra.inl">
<polygon fill="white" stroke="black" points="566.343,-174.5 566.343,-193.5 703.343,-193.5 703.343,-174.5 566.343,-174.5"/>
<text text-anchor="middle" x="634.843" y="-181.5" font-family="Helvetica,sans-Serif" font-size="10.00">Core/Math/LinearAlgebra.inl</text>
</a>
</g>
</g>
<!-- Node21&#45;&gt;Node31 -->
<g id="edge35" class="edge"><title>Node21&#45;&gt;Node31</title>
<path fill="none" stroke="midnightblue" d="M503.764,-236.403C529.895,-226.156 573.755,-208.956 603.472,-197.302"/>
<polygon fill="midnightblue" stroke="midnightblue" points="604.93,-200.49 612.962,-193.581 602.375,-193.973 604.93,-200.49"/>
</g>
<!-- Node27&#45;&gt;Node20 -->
<g id="edge30" class="edge"><title>Node27&#45;&gt;Node20</title>
<path fill="none" stroke="midnightblue" d="M100.046,-174.49C110.125,-172.033 121.394,-169.588 131.843,-168 353.493,-134.306 620.808,-125.833 735.758,-123.708"/>
<polygon fill="midnightblue" stroke="midnightblue" points="736.135,-127.203 746.072,-123.527 736.012,-120.204 736.135,-127.203"/>
</g>
<!-- Node28 -->
<g id="node28" class="node"><title>Node28</title>
<polygon fill="white" stroke="#bfbfbf" points="134.843,-112.5 134.843,-131.5 190.843,-131.5 190.843,-112.5 134.843,-112.5"/>
<text text-anchor="middle" x="162.843" y="-119.5" font-family="Helvetica,sans-Serif" font-size="10.00">algorithm</text>
</g>
<!-- Node27&#45;&gt;Node28 -->
<g id="edge31" class="edge"><title>Node27&#45;&gt;Node28</title>
<path fill="none" stroke="midnightblue" d="M82.3105,-174.403C97.5274,-164.691 122.529,-148.732 140.643,-137.17"/>
<polygon fill="midnightblue" stroke="midnightblue" points="142.854,-139.911 149.4,-131.581 139.087,-134.011 142.854,-139.911"/>
</g>
<!-- Node29 -->
<g id="node29" class="node"><title>Node29</title>
<polygon fill="white" stroke="#bfbfbf" points="208.843,-112.5 208.843,-131.5 252.843,-131.5 252.843,-112.5 208.843,-112.5"/>
<text text-anchor="middle" x="230.843" y="-119.5" font-family="Helvetica,sans-Serif" font-size="10.00">cmath</text>
</g>
<!-- Node27&#45;&gt;Node29 -->
<g id="edge32" class="edge"><title>Node27&#45;&gt;Node29</title>
<path fill="none" stroke="midnightblue" d="M92.0533,-174.403C120.158,-163.994 167.63,-146.412 199.103,-134.755"/>
<polygon fill="midnightblue" stroke="midnightblue" points="200.553,-137.951 208.715,-131.195 198.122,-131.386 200.553,-137.951"/>
</g>
<!-- Node30 -->
<g id="node30" class="node"><title>Node30</title>
<g id="a_node30"><a xlink:href="Math_8inl.html" target="_top" xlink:title="Core/Math/Math.inl">
<polygon fill="white" stroke="black" points="16.8426,-112.5 16.8426,-131.5 116.843,-131.5 116.843,-112.5 16.8426,-112.5"/>
<text text-anchor="middle" x="66.8426" y="-119.5" font-family="Helvetica,sans-Serif" font-size="10.00">Core/Math/Math.inl</text>
</a>
</g>
</g>
<!-- Node27&#45;&gt;Node30 -->
<g id="edge33" class="edge"><title>Node27&#45;&gt;Node30</title>
<path fill="none" stroke="midnightblue" d="M63.6555,-174.403C61.5423,-165.938 60.6306,-152.728 61.1551,-141.82"/>
<polygon fill="midnightblue" stroke="midnightblue" points="64.6668,-141.892 62.2315,-131.581 57.7051,-141.16 64.6668,-141.892"/>
</g>
<!-- Node30&#45;&gt;Node27 -->
<g id="edge34" class="edge"><title>Node30&#45;&gt;Node27</title>
<path fill="none" stroke="midnightblue" d="M72.0258,-131.581C74.1405,-140.04 75.0539,-153.248 74.5311,-164.16"/>
<polygon fill="midnightblue" stroke="midnightblue" points="71.019,-164.093 73.4567,-174.403 77.9808,-164.823 71.019,-164.093"/>
</g>
<!-- Node32&#45;&gt;Node15 -->
<g id="edge38" class="edge"><title>Node32&#45;&gt;Node15</title>
<path fill="none" stroke="midnightblue" d="M823.758,-236.403C847.292,-226.245 886.653,-209.255 913.635,-197.607"/>
<polygon fill="midnightblue" stroke="midnightblue" points="915.17,-200.757 922.964,-193.581 912.396,-194.33 915.17,-200.757"/>
</g>
<!-- Node32&#45;&gt;Node20 -->
<g id="edge37" class="edge"><title>Node32&#45;&gt;Node20</title>
<path fill="none" stroke="midnightblue" d="M825.325,-236.36C840.234,-229.09 858.953,-217.117 867.843,-200 874.397,-187.378 874.85,-180.376 867.843,-168 859.496,-153.258 844.181,-142.819 829.555,-135.732"/>
<polygon fill="midnightblue" stroke="midnightblue" points="830.685,-132.404 820.125,-131.547 827.846,-138.803 830.685,-132.404"/>
</g>
</g>
</svg>
