<?xml version="1.0" encoding="UTF-8" standalone="no"?>
<!DOCTYPE svg PUBLIC "-//W3C//DTD SVG 1.1//EN"
 "http://www.w3.org/Graphics/SVG/1.1/DTD/svg11.dtd">
<!-- Generated by graphviz version 2.36.0 (20140111.2315)
 -->
<!-- Title: Ra::Core::Geometry::print Pages: 1 -->
<svg width="548pt" height="209pt"
 viewBox="0.00 0.00 548.00 209.00" xmlns="http://www.w3.org/2000/svg" xmlns:xlink="http://www.w3.org/1999/xlink">
<g id="graph0" class="graph" transform="scale(1 1) rotate(0) translate(4 205)">
<title>Ra::Core::Geometry::print</title>
<polygon fill="white" stroke="none" points="-4,4 -4,-205 544,-205 544,4 -4,4"/>
<!-- Node1 -->
<g id="node1" class="node"><title>Node1</title>
<polygon fill="#bfbfbf" stroke="black" points="0.5,-93 0.5,-123 105.5,-123 105.5,-93 0.5,-93"/>
<text text-anchor="start" x="8.5" y="-111" font-family="Helvetica,sans-Serif" font-size="10.00">Ra::Core::Geometry</text>
<text text-anchor="middle" x="53" y="-100" font-family="Helvetica,sans-Serif" font-size="10.00">::print</text>
</g>
<!-- Node2 -->
<g id="node2" class="node"><title>Node2</title>
<g id="a_node2"><a xlink:href="namespaceRa_1_1Core_1_1Geometry.html#a5cb3feb0eb10cad8141ea9214efaf1fb" target="_top" xlink:title="Ra::Core::Geometry\l::print">
<polygon fill="white" stroke="black" points="142.5,-93 142.5,-123 247.5,-123 247.5,-93 142.5,-93"/>
<text text-anchor="start" x="150.5" y="-111" font-family="Helvetica,sans-Serif" font-size="10.00">Ra::Core::Geometry</text>
<text text-anchor="middle" x="195" y="-100" font-family="Helvetica,sans-Serif" font-size="10.00">::print</text>
</a>
</g>
</g>
<!-- Node1&#45;&gt;Node2 -->
<g id="edge1" class="edge"><title>Node1&#45;&gt;Node2</title>
<path fill="none" stroke="midnightblue" d="M105.733,-108C114.355,-108 123.374,-108 132.216,-108"/>
<polygon fill="midnightblue" stroke="midnightblue" points="132.48,-111.5 142.48,-108 132.48,-104.5 132.48,-111.5"/>
</g>
<!-- Node3 -->
<g id="node3" class="node"><title>Node3</title>
<g id="a_node3"><a xlink:href="classRa_1_1Core_1_1Geometry_1_1Mapping.html#a763871f983029ce49872c463a7e9a6d4" target="_top" xlink:title="BARYCENTRIC COORDINATE. ">
<polygon fill="white" stroke="black" points="434.5,-171 434.5,-201 539.5,-201 539.5,-171 434.5,-171"/>
<text text-anchor="start" x="442.5" y="-189" font-family="Helvetica,sans-Serif" font-size="10.00">Ra::Core::Geometry</text>
<text text-anchor="middle" x="487" y="-178" font-family="Helvetica,sans-Serif" font-size="10.00">::Mapping::getAlpha</text>
</a>
</g>
</g>
<!-- Node2&#45;&gt;Node3 -->
<g id="edge2" class="edge"><title>Node2&#45;&gt;Node3</title>
<path fill="none" stroke="midnightblue" d="M209.833,-123.188C225.858,-139.603 253.933,-164.899 284,-176 328.79,-192.536 382.988,-194.327 423.965,-192.371"/>
<polygon fill="midnightblue" stroke="midnightblue" points="424.297,-195.858 434.084,-191.8 423.902,-188.869 424.297,-195.858"/>
</g>
<!-- Node4 -->
<g id="node4" class="node"><title>Node4</title>
<g id="a_node4"><a xlink:href="classRa_1_1Core_1_1Geometry_1_1Mapping.html#a8d49ef820cb4bc114f9d044b634e546e" target="_top" xlink:title="Ra::Core::Geometry\l::Mapping::getBeta">
<polygon fill="white" stroke="black" points="434.5,-112 434.5,-142 539.5,-142 539.5,-112 434.5,-112"/>
<text text-anchor="start" x="442.5" y="-130" font-family="Helvetica,sans-Serif" font-size="10.00">Ra::Core::Geometry</text>
<text text-anchor="middle" x="487" y="-119" font-family="Helvetica,sans-Serif" font-size="10.00">::Mapping::getBeta</text>
</a>
</g>
</g>
<!-- Node2&#45;&gt;Node4 -->
<g id="edge3" class="edge"><title>Node2&#45;&gt;Node4</title>
<path fill="none" stroke="midnightblue" d="M247.512,-111.375C296.951,-114.614 371.668,-119.509 424.269,-122.956"/>
<polygon fill="midnightblue" stroke="midnightblue" points="424.273,-126.463 434.48,-123.625 424.73,-119.478 424.273,-126.463"/>
</g>
<!-- Node5 -->
<g id="node5" class="node"><title>Node5</title>
<g id="a_node5"><a xlink:href="classRa_1_1Core_1_1Geometry_1_1Mapping.html#aec7531b8e9481ce1814af6578687e725" target="_top" xlink:title="Ra::Core::Geometry\l::Mapping::getGamma">
<polygon fill="white" stroke="black" points="284.5,-137 284.5,-167 397.5,-167 397.5,-137 284.5,-137"/>
<text text-anchor="start" x="292.5" y="-155" font-family="Helvetica,sans-Serif" font-size="10.00">Ra::Core::Geometry</text>
<text text-anchor="middle" x="341" y="-144" font-family="Helvetica,sans-Serif" font-size="10.00">::Mapping::getGamma</text>
</a>
</g>
</g>
<!-- Node2&#45;&gt;Node5 -->
<g id="edge4" class="edge"><title>Node2&#45;&gt;Node5</title>
<path fill="none" stroke="midnightblue" d="M245.154,-123.019C256.611,-126.52 268.93,-130.284 280.772,-133.903"/>
<polygon fill="midnightblue" stroke="midnightblue" points="279.992,-137.324 290.579,-136.899 282.038,-130.63 279.992,-137.324"/>
</g>
<!-- Node6 -->
<g id="node6" class="node"><title>Node6</title>
<g id="a_node6"><a xlink:href="classRa_1_1Core_1_1Geometry_1_1Mapping.html#a77e6d8203213675dd143a7e48866cca2" target="_top" xlink:title="DELTA. ">
<polygon fill="white" stroke="black" points="288.5,-49 288.5,-79 393.5,-79 393.5,-49 288.5,-49"/>
<text text-anchor="start" x="296.5" y="-67" font-family="Helvetica,sans-Serif" font-size="10.00">Ra::Core::Geometry</text>
<text text-anchor="middle" x="341" y="-56" font-family="Helvetica,sans-Serif" font-size="10.00">::Mapping::getDelta</text>
</a>
</g>
</g>
<!-- Node2&#45;&gt;Node6 -->
<g id="edge7" class="edge"><title>Node2&#45;&gt;Node6</title>
<path fill="none" stroke="midnightblue" d="M245.154,-92.9808C256.611,-89.4798 268.93,-85.7158 280.772,-82.0973"/>
<polygon fill="midnightblue" stroke="midnightblue" points="282.038,-85.3704 290.579,-79.1009 279.992,-78.676 282.038,-85.3704"/>
</g>
<!-- Node7 -->
<g id="node7" class="node"><title>Node7</title>
<g id="a_node7"><a xlink:href="classRa_1_1Core_1_1Geometry_1_1Mapping.html#a4f14c58a7a6f13376064743c9284019c" target="_top" xlink:title="ID. ">
<polygon fill="white" stroke="black" points="288.5,-0 288.5,-30 393.5,-30 393.5,-0 288.5,-0"/>
<text text-anchor="start" x="296.5" y="-18" font-family="Helvetica,sans-Serif" font-size="10.00">Ra::Core::Geometry</text>
<text text-anchor="middle" x="341" y="-7" font-family="Helvetica,sans-Serif" font-size="10.00">::Mapping::getID</text>
</a>
</g>
</g>
<!-- Node2&#45;&gt;Node7 -->
<g id="edge8" class="edge"><title>Node2&#45;&gt;Node7</title>
<path fill="none" stroke="midnightblue" d="M212.98,-92.8955C230.086,-78.1701 257.652,-55.7541 284,-40 287.156,-38.1133 290.479,-36.2807 293.867,-34.5219"/>
<polygon fill="midnightblue" stroke="midnightblue" points="295.5,-37.6188 302.917,-30.0524 292.401,-31.3425 295.5,-37.6188"/>
</g>
<!-- Node5&#45;&gt;Node3 -->
<g id="edge5" class="edge"><title>Node5&#45;&gt;Node3</title>
<path fill="none" stroke="midnightblue" d="M397.674,-165.145C406.415,-167.209 415.494,-169.353 424.359,-171.446"/>
<polygon fill="midnightblue" stroke="midnightblue" points="423.711,-174.889 434.248,-173.781 425.32,-168.076 423.711,-174.889"/>
</g>
<!-- Node5&#45;&gt;Node4 -->
<g id="edge6" class="edge"><title>Node5&#45;&gt;Node4</title>
<path fill="none" stroke="midnightblue" d="M397.674,-142.334C406.415,-140.817 415.494,-139.241 424.359,-137.702"/>
<polygon fill="midnightblue" stroke="midnightblue" points="424.994,-141.144 434.248,-135.985 423.797,-134.247 424.994,-141.144"/>
</g>
</g>
</svg>
