<?xml version="1.0" encoding="UTF-8" standalone="no"?>
<!DOCTYPE svg PUBLIC "-//W3C//DTD SVG 1.1//EN"
 "http://www.w3.org/Graphics/SVG/1.1/DTD/svg11.dtd">
<!-- Generated by graphviz version 2.36.0 (20140111.2315)
 -->
<!-- Title: Ra::Core::Geometry::areaWeightedNormal Pages: 1 -->
<svg width="402pt" height="126pt"
 viewBox="0.00 0.00 402.00 126.00" xmlns="http://www.w3.org/2000/svg" xmlns:xlink="http://www.w3.org/1999/xlink">
<g id="graph0" class="graph" transform="scale(1 1) rotate(0) translate(4 122)">
<title>Ra::Core::Geometry::areaWeightedNormal</title>
<polygon fill="white" stroke="none" points="-4,4 -4,-122 398,-122 398,4 -4,4"/>
<!-- Node1 -->
<g id="node1" class="node"><title>Node1</title>
<polygon fill="#bfbfbf" stroke="black" points="0,-49 0,-79 114,-79 114,-49 0,-49"/>
<text text-anchor="start" x="8" y="-67" font-family="Helvetica,sans-Serif" font-size="10.00">Ra::Core::Geometry</text>
<text text-anchor="middle" x="57" y="-56" font-family="Helvetica,sans-Serif" font-size="10.00">::areaWeightedNormal</text>
</g>
<!-- Node2 -->
<g id="node2" class="node"><title>Node2</title>
<g id="a_node2"><a xlink:href="namespaceRa_1_1Core_1_1Algorithm.html#aea294cdb6f4f0d85955bdcccb22886ec" target="_top" xlink:title="Ra::Core::Algorithm::t">
<polygon fill="white" stroke="black" points="150.5,-98.5 150.5,-117.5 263.5,-117.5 263.5,-98.5 150.5,-98.5"/>
<text text-anchor="middle" x="207" y="-105.5" font-family="Helvetica,sans-Serif" font-size="10.00">Ra::Core::Algorithm::t</text>
</a>
</g>
</g>
<!-- Node1&#45;&gt;Node2 -->
<g id="edge1" class="edge"><title>Node1&#45;&gt;Node2</title>
<path fill="none" stroke="midnightblue" d="M108.519,-79.0192C126.579,-84.3885 146.721,-90.3766 163.987,-95.5095"/>
<polygon fill="midnightblue" stroke="midnightblue" points="163.199,-98.9268 173.782,-98.4217 165.194,-92.2171 163.199,-98.9268"/>
</g>
<!-- Node3 -->
<g id="node3" class="node"><title>Node3</title>
<g id="a_node3"><a xlink:href="namespaceRa_1_1Core_1_1Geometry.html#a178f2b7309fe2ea5bc31a3abcb25368e" target="_top" xlink:title="Ra::Core::Geometry\l::triangleArea">
<polygon fill="white" stroke="black" points="154.5,-0 154.5,-30 259.5,-30 259.5,-0 154.5,-0"/>
<text text-anchor="start" x="162.5" y="-18" font-family="Helvetica,sans-Serif" font-size="10.00">Ra::Core::Geometry</text>
<text text-anchor="middle" x="207" y="-7" font-family="Helvetica,sans-Serif" font-size="10.00">::triangleArea</text>
</a>
</g>
</g>
<!-- Node1&#45;&gt;Node3 -->
<g id="edge2" class="edge"><title>Node1&#45;&gt;Node3</title>
<path fill="none" stroke="midnightblue" d="M103.613,-48.8986C118.594,-43.9385 135.405,-38.3726 151.007,-33.2071"/>
<polygon fill="midnightblue" stroke="midnightblue" points="152.145,-36.5173 160.538,-30.0516 149.945,-29.872 152.145,-36.5173"/>
</g>
<!-- Node6 -->
<g id="node6" class="node"><title>Node6</title>
<g id="a_node6"><a xlink:href="namespaceRa_1_1Core_1_1Geometry.html#a2ce97206423345716bf1b55f60c1c227" target="_top" xlink:title="Ra::Core::Geometry\l::triangleNormal">
<polygon fill="white" stroke="black" points="154.5,-49 154.5,-79 259.5,-79 259.5,-49 154.5,-49"/>
<text text-anchor="start" x="162.5" y="-67" font-family="Helvetica,sans-Serif" font-size="10.00">Ra::Core::Geometry</text>
<text text-anchor="middle" x="207" y="-56" font-family="Helvetica,sans-Serif" font-size="10.00">::triangleNormal</text>
</a>
</g>
</g>
<!-- Node1&#45;&gt;Node6 -->
<g id="edge5" class="edge"><title>Node1&#45;&gt;Node6</title>
<path fill="none" stroke="midnightblue" d="M114.375,-64C124.075,-64 134.205,-64 144.043,-64"/>
<polygon fill="midnightblue" stroke="midnightblue" points="144.159,-67.5001 154.159,-64 144.159,-60.5001 144.159,-67.5001"/>
</g>
<!-- Node4 -->
<g id="node4" class="node"><title>Node4</title>
<g id="a_node4"><a xlink:href="namespaceOpenMesh.html#a71e7f1dd3eac016d2b8245ac408a291c" target="_top" xlink:title="OpenMesh::cross">
<polygon fill="white" stroke="black" points="300,-48.5 300,-67.5 394,-67.5 394,-48.5 300,-48.5"/>
<text text-anchor="middle" x="347" y="-55.5" font-family="Helvetica,sans-Serif" font-size="10.00">OpenMesh::cross</text>
</a>
</g>
</g>
<!-- Node3&#45;&gt;Node4 -->
<g id="edge3" class="edge"><title>Node3&#45;&gt;Node4</title>
<path fill="none" stroke="midnightblue" d="M256.266,-30.0393C272.333,-35.0458 290.054,-40.5675 305.474,-45.3722"/>
<polygon fill="midnightblue" stroke="midnightblue" points="304.646,-48.7801 315.234,-48.4135 306.728,-42.097 304.646,-48.7801"/>
</g>
<!-- Node5 -->
<g id="node5" class="node"><title>Node5</title>
<g id="a_node5"><a xlink:href="namespaceOpenMesh.html#a8205f789ce08919bc11c58383574596c" target="_top" xlink:title="OpenMesh::norm">
<polygon fill="white" stroke="black" points="301,-5.5 301,-24.5 393,-24.5 393,-5.5 301,-5.5"/>
<text text-anchor="middle" x="347" y="-12.5" font-family="Helvetica,sans-Serif" font-size="10.00">OpenMesh::norm</text>
</a>
</g>
</g>
<!-- Node3&#45;&gt;Node5 -->
<g id="edge4" class="edge"><title>Node3&#45;&gt;Node5</title>
<path fill="none" stroke="midnightblue" d="M259.779,-15C269.874,-15 280.495,-15 290.699,-15"/>
<polygon fill="midnightblue" stroke="midnightblue" points="290.73,-18.5001 300.73,-15 290.73,-11.5001 290.73,-18.5001"/>
</g>
<!-- Node6&#45;&gt;Node4 -->
<g id="edge6" class="edge"><title>Node6&#45;&gt;Node4</title>
<path fill="none" stroke="midnightblue" d="M259.779,-61.7488C269.542,-61.3243 279.797,-60.8784 289.691,-60.4482"/>
<polygon fill="midnightblue" stroke="midnightblue" points="289.997,-63.9383 299.835,-60.0072 289.693,-56.9449 289.997,-63.9383"/>
</g>
</g>
</svg>
