<?xml version="1.0" encoding="UTF-8" standalone="no"?>
<!DOCTYPE svg PUBLIC "-//W3C//DTD SVG 1.1//EN"
 "http://www.w3.org/Graphics/SVG/1.1/DTD/svg11.dtd">
<!-- Generated by graphviz version 2.36.0 (20140111.2315)
 -->
<!-- Title: Ra::Core::RayCast::vsSphere Pages: 1 -->
<svg width="266pt" height="77pt"
 viewBox="0.00 0.00 266.00 77.00" xmlns="http://www.w3.org/2000/svg" xmlns:xlink="http://www.w3.org/1999/xlink">
<g id="graph0" class="graph" transform="scale(1 1) rotate(0) translate(4 73)">
<title>Ra::Core::RayCast::vsSphere</title>
<polygon fill="white" stroke="none" points="-4,4 -4,-73 262,-73 262,4 -4,4"/>
<!-- Node1 -->
<g id="node1" class="node"><title>Node1</title>
<polygon fill="#bfbfbf" stroke="black" points="0.5,-17 0.5,-47 107.5,-47 107.5,-17 0.5,-17"/>
<text text-anchor="start" x="8.5" y="-35" font-family="Helvetica,sans-Serif" font-size="10.00">Ra::Core::RayCast::</text>
<text text-anchor="middle" x="54" y="-24" font-family="Helvetica,sans-Serif" font-size="10.00">vsSphere</text>
</g>
<!-- Node2 -->
<g id="node2" class="node"><title>Node2</title>
<g id="a_node2"><a xlink:href="namespaceRa_1_1Core_1_1Algorithm.html#abebfe08bb2303204bea2baea8195439d" target="_top" xlink:title="Ra::Core::Algorithm\l::delta">
<polygon fill="white" stroke="black" points="149,-39 149,-69 253,-69 253,-39 149,-39"/>
<text text-anchor="start" x="157" y="-57" font-family="Helvetica,sans-Serif" font-size="10.00">Ra::Core::Algorithm</text>
<text text-anchor="middle" x="201" y="-46" font-family="Helvetica,sans-Serif" font-size="10.00">::delta</text>
</a>
</g>
</g>
<!-- Node1&#45;&gt;Node2 -->
<g id="edge1" class="edge"><title>Node1&#45;&gt;Node2</title>
<path fill="none" stroke="midnightblue" d="M107.759,-40.0047C117.84,-41.5343 128.473,-43.1476 138.792,-44.7133"/>
<polygon fill="midnightblue" stroke="midnightblue" points="138.564,-48.2186 148.976,-46.2584 139.614,-41.2978 138.564,-48.2186"/>
</g>
<!-- Node3 -->
<g id="node3" class="node"><title>Node3</title>
<g id="a_node3"><a xlink:href="namespaceRa_1_1Core_1_1Algorithm.html#aea294cdb6f4f0d85955bdcccb22886ec" target="_top" xlink:title="Ra::Core::Algorithm::t">
<polygon fill="white" stroke="black" points="144.5,-0.5 144.5,-19.5 257.5,-19.5 257.5,-0.5 144.5,-0.5"/>
<text text-anchor="middle" x="201" y="-7.5" font-family="Helvetica,sans-Serif" font-size="10.00">Ra::Core::Algorithm::t</text>
</a>
</g>
</g>
<!-- Node1&#45;&gt;Node3 -->
<g id="edge2" class="edge"><title>Node1&#45;&gt;Node3</title>
<path fill="none" stroke="midnightblue" d="M107.759,-23.9953C116.348,-22.692 125.338,-21.328 134.194,-19.9844"/>
<polygon fill="midnightblue" stroke="midnightblue" points="134.744,-23.441 144.106,-18.4805 133.694,-16.5202 134.744,-23.441"/>
</g>
</g>
</svg>
