<?xml version="1.0" encoding="UTF-8" standalone="no"?>
<!DOCTYPE svg PUBLIC "-//W3C//DTD SVG 1.1//EN"
 "http://www.w3.org/Graphics/SVG/1.1/DTD/svg11.dtd">
<!-- Generated by graphviz version 2.36.0 (20140111.2315)
 -->
<!-- Title: Ra::Core::DistanceQueries::triangleToTriSq Pages: 1 -->
<svg width="660pt" height="104pt"
 viewBox="0.00 0.00 660.00 104.00" xmlns="http://www.w3.org/2000/svg" xmlns:xlink="http://www.w3.org/1999/xlink">
<g id="graph0" class="graph" transform="scale(1 1) rotate(0) translate(4 100)">
<title>Ra::Core::DistanceQueries::triangleToTriSq</title>
<polygon fill="white" stroke="none" points="-4,4 -4,-100 656,-100 656,4 -4,4"/>
<!-- Node1 -->
<g id="node1" class="node"><title>Node1</title>
<polygon fill="#bfbfbf" stroke="black" points="0.5,-24 0.5,-54 135.5,-54 135.5,-24 0.5,-24"/>
<text text-anchor="start" x="8.5" y="-42" font-family="Helvetica,sans-Serif" font-size="10.00">Ra::Core::DistanceQueries</text>
<text text-anchor="middle" x="68" y="-31" font-family="Helvetica,sans-Serif" font-size="10.00">::triangleToTriSq</text>
</g>
<!-- Node2 -->
<g id="node2" class="node"><title>Node2</title>
<g id="a_node2"><a xlink:href="namespaceRa_1_1Core_1_1DistanceQueries.html#ac80249cc4426604d1febb5b186e8175e" target="_top" xlink:title="Computes the squared distance from a query segment to the triangle v. ">
<polygon fill="white" stroke="black" points="172.5,-24 172.5,-54 307.5,-54 307.5,-24 172.5,-24"/>
<text text-anchor="start" x="180.5" y="-42" font-family="Helvetica,sans-Serif" font-size="10.00">Ra::Core::DistanceQueries</text>
<text text-anchor="middle" x="240" y="-31" font-family="Helvetica,sans-Serif" font-size="10.00">::segmentToTriSq</text>
</a>
</g>
</g>
<!-- Node1&#45;&gt;Node2 -->
<g id="edge1" class="edge"><title>Node1&#45;&gt;Node2</title>
<path fill="none" stroke="midnightblue" d="M135.701,-39C144.487,-39 153.547,-39 162.48,-39"/>
<polygon fill="midnightblue" stroke="midnightblue" points="162.492,-42.5001 172.492,-39 162.492,-35.5001 162.492,-42.5001"/>
</g>
<!-- Node3 -->
<g id="node3" class="node"><title>Node3</title>
<g id="a_node3"><a xlink:href="namespaceRa_1_1Core_1_1DistanceQueries.html#a69de99ca80dd56c39c37e8f604da3ddb" target="_top" xlink:title="Computes the squared distance from a query line to the triangle v. ">
<polygon fill="white" stroke="black" points="344.5,-49 344.5,-79 479.5,-79 479.5,-49 344.5,-49"/>
<text text-anchor="start" x="352.5" y="-67" font-family="Helvetica,sans-Serif" font-size="10.00">Ra::Core::DistanceQueries</text>
<text text-anchor="middle" x="412" y="-56" font-family="Helvetica,sans-Serif" font-size="10.00">::lineToTriSq</text>
</a>
</g>
</g>
<!-- Node2&#45;&gt;Node3 -->
<g id="edge2" class="edge"><title>Node2&#45;&gt;Node3</title>
<path fill="none" stroke="midnightblue" d="M307.701,-48.8089C316.487,-50.101 325.547,-51.4333 334.48,-52.7471"/>
<polygon fill="midnightblue" stroke="midnightblue" points="334.089,-56.2271 344.492,-54.2194 335.107,-49.3016 334.089,-56.2271"/>
</g>
<!-- Node6 -->
<g id="node6" class="node"><title>Node6</title>
<g id="a_node6"><a xlink:href="namespaceRa_1_1Core_1_1DistanceQueries.html#afc2a145fc94c30b5945a7e1d12305c79" target="_top" xlink:title="Computes the squared distance from a query point Q to the triangle ABC. ">
<polygon fill="white" stroke="black" points="344.5,-0 344.5,-30 479.5,-30 479.5,-0 344.5,-0"/>
<text text-anchor="start" x="352.5" y="-18" font-family="Helvetica,sans-Serif" font-size="10.00">Ra::Core::DistanceQueries</text>
<text text-anchor="middle" x="412" y="-7" font-family="Helvetica,sans-Serif" font-size="10.00">::pointToTriSq</text>
</a>
</g>
</g>
<!-- Node2&#45;&gt;Node6 -->
<g id="edge5" class="edge"><title>Node2&#45;&gt;Node6</title>
<path fill="none" stroke="midnightblue" d="M307.701,-29.5834C316.487,-28.3431 325.547,-27.064 334.48,-25.8028"/>
<polygon fill="midnightblue" stroke="midnightblue" points="335.079,-29.253 344.492,-24.3894 334.101,-22.3218 335.079,-29.253"/>
</g>
<!-- Node4 -->
<g id="node4" class="node"><title>Node4</title>
<g id="a_node4"><a xlink:href="namespaceOpenMesh.html#a575b338f0fc9ecb5393d23e977e6ac38" target="_top" xlink:title="OpenMesh::dot">
<polygon fill="white" stroke="black" points="542.5,-76.5 542.5,-95.5 625.5,-95.5 625.5,-76.5 542.5,-76.5"/>
<text text-anchor="middle" x="584" y="-83.5" font-family="Helvetica,sans-Serif" font-size="10.00">OpenMesh::dot</text>
</a>
</g>
</g>
<!-- Node3&#45;&gt;Node4 -->
<g id="edge3" class="edge"><title>Node3&#45;&gt;Node4</title>
<path fill="none" stroke="midnightblue" d="M479.701,-72.6318C497.264,-74.9048 515.922,-77.3193 532.478,-79.4619"/>
<polygon fill="midnightblue" stroke="midnightblue" points="532.12,-82.9446 542.487,-80.7571 533.019,-76.0025 532.12,-82.9446"/>
</g>
<!-- Node5 -->
<g id="node5" class="node"><title>Node5</title>
<g id="a_node5"><a xlink:href="namespaceRa_1_1Core_1_1DistanceQueries.html#aac62676101f136df40b1f238e3db48be" target="_top" xlink:title="Computes the squared distance from a query line to a segment. ">
<polygon fill="white" stroke="black" points="516.5,-27 516.5,-57 651.5,-57 651.5,-27 516.5,-27"/>
<text text-anchor="start" x="524.5" y="-45" font-family="Helvetica,sans-Serif" font-size="10.00">Ra::Core::DistanceQueries</text>
<text text-anchor="middle" x="584" y="-34" font-family="Helvetica,sans-Serif" font-size="10.00">::lineToSegSq</text>
</a>
</g>
</g>
<!-- Node3&#45;&gt;Node5 -->
<g id="edge4" class="edge"><title>Node3&#45;&gt;Node5</title>
<path fill="none" stroke="midnightblue" d="M479.701,-55.3682C488.487,-54.2311 497.547,-53.0587 506.48,-51.9026"/>
<polygon fill="midnightblue" stroke="midnightblue" points="507.024,-55.3615 516.492,-50.6069 506.125,-48.4194 507.024,-55.3615"/>
</g>
</g>
</svg>
