<?xml version="1.0" encoding="UTF-8" standalone="no"?>
<!DOCTYPE svg PUBLIC "-//W3C//DTD SVG 1.1//EN"
 "http://www.w3.org/Graphics/SVG/1.1/DTD/svg11.dtd">
<!-- Generated by graphviz version 2.36.0 (20140111.2315)
 -->
<!-- Title: Ra::Core::MeshUtils::checkConsistency Pages: 1 -->
<svg width="742pt" height="158pt"
 viewBox="0.00 0.00 742.00 158.00" xmlns="http://www.w3.org/2000/svg" xmlns:xlink="http://www.w3.org/1999/xlink">
<g id="graph0" class="graph" transform="scale(1 1) rotate(0) translate(4 154)">
<title>Ra::Core::MeshUtils::checkConsistency</title>
<polygon fill="white" stroke="none" points="-4,4 -4,-154 738,-154 738,4 -4,4"/>
<!-- Node1 -->
<g id="node1" class="node"><title>Node1</title>
<polygon fill="#bfbfbf" stroke="black" points="0.5,-76 0.5,-106 107.5,-106 107.5,-76 0.5,-76"/>
<text text-anchor="start" x="8.5" y="-94" font-family="Helvetica,sans-Serif" font-size="10.00">Ra::Core::MeshUtils</text>
<text text-anchor="middle" x="54" y="-83" font-family="Helvetica,sans-Serif" font-size="10.00">::checkConsistency</text>
</g>
<!-- Node2 -->
<g id="node2" class="node"><title>Node2</title>
<g id="a_node2"><a xlink:href="classRa_1_1Core_1_1TriangleMesh.html#a495116f40cfec8bb6504698d786d4b8c" target="_top" xlink:title="Access the vertices positions. ">
<polygon fill="white" stroke="black" points="452.5,-120 452.5,-150 573.5,-150 573.5,-120 452.5,-120"/>
<text text-anchor="start" x="460.5" y="-138" font-family="Helvetica,sans-Serif" font-size="10.00">Ra::Core::TriangleMesh</text>
<text text-anchor="middle" x="513" y="-127" font-family="Helvetica,sans-Serif" font-size="10.00">::vertices</text>
</a>
</g>
</g>
<!-- Node1&#45;&gt;Node2 -->
<g id="edge1" class="edge"><title>Node1&#45;&gt;Node2</title>
<path fill="none" stroke="midnightblue" d="M80.4928,-106.066C97.775,-115.431 121.486,-126.669 144,-132 245.538,-156.043 367.296,-150.63 442.149,-143.559"/>
<polygon fill="midnightblue" stroke="midnightblue" points="442.782,-147.014 452.392,-142.553 442.098,-140.047 442.782,-147.014"/>
</g>
<!-- Node4 -->
<g id="node4" class="node"><title>Node4</title>
<g id="a_node4"><a xlink:href="namespaceRa_1_1Core_1_1Algorithm.html#aea294cdb6f4f0d85955bdcccb22886ec" target="_top" xlink:title="Ra::Core::Algorithm::t">
<polygon fill="white" stroke="black" points="144.5,-103.5 144.5,-122.5 257.5,-122.5 257.5,-103.5 144.5,-103.5"/>
<text text-anchor="middle" x="201" y="-110.5" font-family="Helvetica,sans-Serif" font-size="10.00">Ra::Core::Algorithm::t</text>
</a>
</g>
</g>
<!-- Node1&#45;&gt;Node4 -->
<g id="edge3" class="edge"><title>Node1&#45;&gt;Node4</title>
<path fill="none" stroke="midnightblue" d="M107.759,-99.0047C116.348,-100.308 125.338,-101.672 134.194,-103.016"/>
<polygon fill="midnightblue" stroke="midnightblue" points="133.694,-106.48 144.106,-104.52 134.744,-99.559 133.694,-106.48"/>
</g>
<!-- Node5 -->
<g id="node5" class="node"><title>Node5</title>
<g id="a_node5"><a xlink:href="namespaceRa_1_1Core_1_1MeshUtils.html#a746199d436bb1dc31c4bccb3953743b9" target="_top" xlink:title="Returns the area of a given triangle. ">
<polygon fill="white" stroke="black" points="147.5,-54 147.5,-84 254.5,-84 254.5,-54 147.5,-54"/>
<text text-anchor="start" x="155.5" y="-72" font-family="Helvetica,sans-Serif" font-size="10.00">Ra::Core::MeshUtils</text>
<text text-anchor="middle" x="201" y="-61" font-family="Helvetica,sans-Serif" font-size="10.00">::getTriangleArea</text>
</a>
</g>
</g>
<!-- Node1&#45;&gt;Node5 -->
<g id="edge4" class="edge"><title>Node1&#45;&gt;Node5</title>
<path fill="none" stroke="midnightblue" d="M107.759,-82.9953C117.254,-81.5546 127.239,-80.0396 136.99,-78.5601"/>
<polygon fill="midnightblue" stroke="midnightblue" points="137.676,-81.9962 147.038,-77.0356 136.626,-75.0754 137.676,-81.9962"/>
</g>
<!-- Node10 -->
<g id="node10" class="node"><title>Node10</title>
<g id="a_node10"><a xlink:href="classRa_1_1Core_1_1TriangleMesh.html#a40d31b7b2943947d6eac5d906f0182fd" target="_top" xlink:title="Access the vertices normals. ">
<polygon fill="white" stroke="black" points="294.5,-0 294.5,-30 415.5,-30 415.5,-0 294.5,-0"/>
<text text-anchor="start" x="302.5" y="-18" font-family="Helvetica,sans-Serif" font-size="10.00">Ra::Core::TriangleMesh</text>
<text text-anchor="middle" x="355" y="-7" font-family="Helvetica,sans-Serif" font-size="10.00">::normals</text>
</a>
</g>
</g>
<!-- Node1&#45;&gt;Node10 -->
<g id="edge10" class="edge"><title>Node1&#45;&gt;Node10</title>
<path fill="none" stroke="midnightblue" d="M78.1777,-75.8649C95.5818,-65.2348 120.382,-51.6058 144,-44 189.472,-29.3566 242.818,-22.1072 284.364,-18.5183"/>
<polygon fill="midnightblue" stroke="midnightblue" points="284.706,-22.0022 294.39,-17.7032 284.139,-15.0252 284.706,-22.0022"/>
</g>
<!-- Node3 -->
<g id="node3" class="node"><title>Node3</title>
<g id="a_node3"><a xlink:href="classRa_1_1Core_1_1AttribManager.html#aaa6088620425c1e1d74b50f1b50eb596" target="_top" xlink:title="Get attribute by handle. ">
<polygon fill="white" stroke="black" points="610.5,-60 610.5,-90 733.5,-90 733.5,-60 610.5,-60"/>
<text text-anchor="start" x="618.5" y="-78" font-family="Helvetica,sans-Serif" font-size="10.00">Ra::Core::AttribManager</text>
<text text-anchor="middle" x="672" y="-67" font-family="Helvetica,sans-Serif" font-size="10.00">::getAttrib</text>
</a>
</g>
</g>
<!-- Node2&#45;&gt;Node3 -->
<g id="edge2" class="edge"><title>Node2&#45;&gt;Node3</title>
<path fill="none" stroke="midnightblue" d="M553.618,-119.859C574.429,-111.906 600.118,-102.089 622.153,-93.6678"/>
<polygon fill="midnightblue" stroke="midnightblue" points="623.576,-96.871 631.667,-90.0317 621.077,-90.3322 623.576,-96.871"/>
</g>
<!-- Node6 -->
<g id="node6" class="node"><title>Node6</title>
<g id="a_node6"><a xlink:href="namespaceRa_1_1Core_1_1MeshUtils.html#afbee0fe3203a295fb1f93b33dfb33f81" target="_top" xlink:title="Fills the given array with the vertices of a given triangle. ">
<polygon fill="white" stroke="black" points="301.5,-98 301.5,-128 408.5,-128 408.5,-98 301.5,-98"/>
<text text-anchor="start" x="309.5" y="-116" font-family="Helvetica,sans-Serif" font-size="10.00">Ra::Core::MeshUtils</text>
<text text-anchor="middle" x="355" y="-105" font-family="Helvetica,sans-Serif" font-size="10.00">::getTriangleVertices</text>
</a>
</g>
</g>
<!-- Node5&#45;&gt;Node6 -->
<g id="edge5" class="edge"><title>Node5&#45;&gt;Node6</title>
<path fill="none" stroke="midnightblue" d="M253.885,-84.0192C266.289,-87.61 279.65,-91.4776 292.444,-95.181"/>
<polygon fill="midnightblue" stroke="midnightblue" points="291.512,-98.5551 302.091,-97.9738 293.459,-91.8312 291.512,-98.5551"/>
</g>
<!-- Node7 -->
<g id="node7" class="node"><title>Node7</title>
<g id="a_node7"><a xlink:href="namespaceRa_1_1Core_1_1Geometry.html#a178f2b7309fe2ea5bc31a3abcb25368e" target="_top" xlink:title="Ra::Core::Geometry\l::triangleArea">
<polygon fill="white" stroke="black" points="302.5,-49 302.5,-79 407.5,-79 407.5,-49 302.5,-49"/>
<text text-anchor="start" x="310.5" y="-67" font-family="Helvetica,sans-Serif" font-size="10.00">Ra::Core::Geometry</text>
<text text-anchor="middle" x="355" y="-56" font-family="Helvetica,sans-Serif" font-size="10.00">::triangleArea</text>
</a>
</g>
</g>
<!-- Node5&#45;&gt;Node7 -->
<g id="edge7" class="edge"><title>Node5&#45;&gt;Node7</title>
<path fill="none" stroke="midnightblue" d="M254.736,-67.2653C266.793,-66.8686 279.716,-66.4436 292.119,-66.0356"/>
<polygon fill="midnightblue" stroke="midnightblue" points="292.505,-69.5249 302.384,-65.6979 292.274,-62.5287 292.505,-69.5249"/>
</g>
<!-- Node6&#45;&gt;Node2 -->
<g id="edge6" class="edge"><title>Node6&#45;&gt;Node2</title>
<path fill="none" stroke="midnightblue" d="M408.814,-120.448C419.507,-121.956 430.907,-123.564 442.084,-125.14"/>
<polygon fill="midnightblue" stroke="midnightblue" points="441.867,-128.644 452.258,-126.575 442.845,-121.713 441.867,-128.644"/>
</g>
<!-- Node8 -->
<g id="node8" class="node"><title>Node8</title>
<g id="a_node8"><a xlink:href="namespaceOpenMesh.html#a71e7f1dd3eac016d2b8245ac408a291c" target="_top" xlink:title="OpenMesh::cross">
<polygon fill="white" stroke="black" points="466,-81.5 466,-100.5 560,-100.5 560,-81.5 466,-81.5"/>
<text text-anchor="middle" x="513" y="-88.5" font-family="Helvetica,sans-Serif" font-size="10.00">OpenMesh::cross</text>
</a>
</g>
</g>
<!-- Node7&#45;&gt;Node8 -->
<g id="edge8" class="edge"><title>Node7&#45;&gt;Node8</title>
<path fill="none" stroke="midnightblue" d="M407.513,-72.9156C422.947,-75.5869 439.951,-78.5299 455.677,-81.2519"/>
<polygon fill="midnightblue" stroke="midnightblue" points="455.348,-84.7468 465.798,-83.0036 456.542,-77.8493 455.348,-84.7468"/>
</g>
<!-- Node9 -->
<g id="node9" class="node"><title>Node9</title>
<g id="a_node9"><a xlink:href="namespaceOpenMesh.html#a8205f789ce08919bc11c58383574596c" target="_top" xlink:title="OpenMesh::norm">
<polygon fill="white" stroke="black" points="467,-43.5 467,-62.5 559,-62.5 559,-43.5 467,-43.5"/>
<text text-anchor="middle" x="513" y="-50.5" font-family="Helvetica,sans-Serif" font-size="10.00">OpenMesh::norm</text>
</a>
</g>
</g>
<!-- Node7&#45;&gt;Node9 -->
<g id="edge9" class="edge"><title>Node7&#45;&gt;Node9</title>
<path fill="none" stroke="midnightblue" d="M407.513,-60.3677C423.238,-59.2589 440.593,-58.0351 456.566,-56.9088"/>
<polygon fill="midnightblue" stroke="midnightblue" points="457.104,-60.3797 466.833,-56.1849 456.611,-53.397 457.104,-60.3797"/>
</g>
<!-- Node10&#45;&gt;Node3 -->
<g id="edge11" class="edge"><title>Node10&#45;&gt;Node3</title>
<path fill="none" stroke="midnightblue" d="M415.574,-15.1981C459.864,-16.5428 521.459,-20.9518 574,-34 594.062,-38.9822 615.323,-47.5609 632.812,-55.5875"/>
<polygon fill="midnightblue" stroke="midnightblue" points="631.569,-58.871 642.108,-59.9635 634.551,-52.5377 631.569,-58.871"/>
</g>
</g>
</svg>
