<?xml version="1.0" encoding="UTF-8" standalone="no"?>
<!DOCTYPE svg PUBLIC "-//W3C//DTD SVG 1.1//EN"
 "http://www.w3.org/Graphics/SVG/1.1/DTD/svg11.dtd">
<!-- Generated by graphviz version 2.36.0 (20140111.2315)
 -->
<!-- Title: Ra::Core::DistanceQueries::lineToTriSq Pages: 1 -->
<svg width="316pt" height="77pt"
 viewBox="0.00 0.00 316.00 77.00" xmlns="http://www.w3.org/2000/svg" xmlns:xlink="http://www.w3.org/1999/xlink">
<g id="graph0" class="graph" transform="scale(1 1) rotate(0) translate(4 73)">
<title>Ra::Core::DistanceQueries::lineToTriSq</title>
<polygon fill="white" stroke="none" points="-4,4 -4,-73 312,-73 312,4 -4,4"/>
<!-- Node1 -->
<g id="node1" class="node"><title>Node1</title>
<polygon fill="#bfbfbf" stroke="black" points="0.5,-22 0.5,-52 135.5,-52 135.5,-22 0.5,-22"/>
<text text-anchor="start" x="8.5" y="-40" font-family="Helvetica,sans-Serif" font-size="10.00">Ra::Core::DistanceQueries</text>
<text text-anchor="middle" x="68" y="-29" font-family="Helvetica,sans-Serif" font-size="10.00">::lineToTriSq</text>
</g>
<!-- Node2 -->
<g id="node2" class="node"><title>Node2</title>
<g id="a_node2"><a xlink:href="namespaceOpenMesh.html#a575b338f0fc9ecb5393d23e977e6ac38" target="_top" xlink:title="OpenMesh::dot">
<polygon fill="white" stroke="black" points="198.5,-49.5 198.5,-68.5 281.5,-68.5 281.5,-49.5 198.5,-49.5"/>
<text text-anchor="middle" x="240" y="-56.5" font-family="Helvetica,sans-Serif" font-size="10.00">OpenMesh::dot</text>
</a>
</g>
</g>
<!-- Node1&#45;&gt;Node2 -->
<g id="edge1" class="edge"><title>Node1&#45;&gt;Node2</title>
<path fill="none" stroke="midnightblue" d="M135.701,-45.6318C153.264,-47.9048 171.922,-50.3193 188.478,-52.4619"/>
<polygon fill="midnightblue" stroke="midnightblue" points="188.12,-55.9446 198.487,-53.7571 189.019,-49.0025 188.12,-55.9446"/>
</g>
<!-- Node3 -->
<g id="node3" class="node"><title>Node3</title>
<g id="a_node3"><a xlink:href="namespaceRa_1_1Core_1_1DistanceQueries.html#aac62676101f136df40b1f238e3db48be" target="_top" xlink:title="Computes the squared distance from a query line to a segment. ">
<polygon fill="white" stroke="black" points="172.5,-0 172.5,-30 307.5,-30 307.5,-0 172.5,-0"/>
<text text-anchor="start" x="180.5" y="-18" font-family="Helvetica,sans-Serif" font-size="10.00">Ra::Core::DistanceQueries</text>
<text text-anchor="middle" x="240" y="-7" font-family="Helvetica,sans-Serif" font-size="10.00">::lineToSegSq</text>
</a>
</g>
</g>
<!-- Node1&#45;&gt;Node3 -->
<g id="edge2" class="edge"><title>Node1&#45;&gt;Node3</title>
<path fill="none" stroke="midnightblue" d="M135.701,-28.3682C144.487,-27.2311 153.547,-26.0587 162.48,-24.9026"/>
<polygon fill="midnightblue" stroke="midnightblue" points="163.024,-28.3615 172.492,-23.6069 162.125,-21.4194 163.024,-28.3615"/>
</g>
</g>
</svg>
