<?xml version="1.0" encoding="UTF-8" standalone="no"?>
<!DOCTYPE svg PUBLIC "-//W3C//DTD SVG 1.1//EN"
 "http://www.w3.org/Graphics/SVG/1.1/DTD/svg11.dtd">
<!-- Generated by graphviz version 2.36.0 (20140111.2315)
 -->
<!-- Title: Ra::Core::MeshUtils::getTriangleNormal Pages: 1 -->
<svg width="578pt" height="87pt"
 viewBox="0.00 0.00 578.00 87.00" xmlns="http://www.w3.org/2000/svg" xmlns:xlink="http://www.w3.org/1999/xlink">
<g id="graph0" class="graph" transform="scale(1 1) rotate(0) translate(4 83)">
<title>Ra::Core::MeshUtils::getTriangleNormal</title>
<polygon fill="white" stroke="none" points="-4,4 -4,-83 574,-83 574,4 -4,4"/>
<!-- Node1 -->
<g id="node1" class="node"><title>Node1</title>
<polygon fill="#bfbfbf" stroke="black" points="0.5,-24 0.5,-54 107.5,-54 107.5,-24 0.5,-24"/>
<text text-anchor="start" x="8.5" y="-42" font-family="Helvetica,sans-Serif" font-size="10.00">Ra::Core::MeshUtils</text>
<text text-anchor="middle" x="54" y="-31" font-family="Helvetica,sans-Serif" font-size="10.00">::getTriangleNormal</text>
</g>
<!-- Node2 -->
<g id="node2" class="node"><title>Node2</title>
<g id="a_node2"><a xlink:href="namespaceRa_1_1Core_1_1MeshUtils.html#afbee0fe3203a295fb1f93b33dfb33f81" target="_top" xlink:title="Fills the given array with the vertices of a given triangle. ">
<polygon fill="white" stroke="black" points="144.5,-49 144.5,-79 251.5,-79 251.5,-49 144.5,-49"/>
<text text-anchor="start" x="152.5" y="-67" font-family="Helvetica,sans-Serif" font-size="10.00">Ra::Core::MeshUtils</text>
<text text-anchor="middle" x="198" y="-56" font-family="Helvetica,sans-Serif" font-size="10.00">::getTriangleVertices</text>
</a>
</g>
</g>
<!-- Node1&#45;&gt;Node2 -->
<g id="edge1" class="edge"><title>Node1&#45;&gt;Node2</title>
<path fill="none" stroke="midnightblue" d="M107.876,-48.3091C116.377,-49.8058 125.25,-51.3679 133.961,-52.9015"/>
<polygon fill="midnightblue" stroke="midnightblue" points="133.625,-56.3962 144.08,-54.6831 134.839,-49.5022 133.625,-56.3962"/>
</g>
<!-- Node5 -->
<g id="node5" class="node"><title>Node5</title>
<g id="a_node5"><a xlink:href="namespaceRa_1_1Core_1_1Geometry.html#a2ce97206423345716bf1b55f60c1c227" target="_top" xlink:title="Ra::Core::Geometry\l::triangleNormal">
<polygon fill="white" stroke="black" points="145.5,-0 145.5,-30 250.5,-30 250.5,-0 145.5,-0"/>
<text text-anchor="start" x="153.5" y="-18" font-family="Helvetica,sans-Serif" font-size="10.00">Ra::Core::Geometry</text>
<text text-anchor="middle" x="198" y="-7" font-family="Helvetica,sans-Serif" font-size="10.00">::triangleNormal</text>
</a>
</g>
</g>
<!-- Node1&#45;&gt;Node5 -->
<g id="edge4" class="edge"><title>Node1&#45;&gt;Node5</title>
<path fill="none" stroke="midnightblue" d="M107.876,-30.0633C116.909,-28.5365 126.362,-26.9388 135.595,-25.3783"/>
<polygon fill="midnightblue" stroke="midnightblue" points="136.219,-28.8225 145.496,-23.7048 135.053,-21.9204 136.219,-28.8225"/>
</g>
<!-- Node3 -->
<g id="node3" class="node"><title>Node3</title>
<g id="a_node3"><a xlink:href="classRa_1_1Core_1_1TriangleMesh.html#a495116f40cfec8bb6504698d786d4b8c" target="_top" xlink:title="Access the vertices positions. ">
<polygon fill="white" stroke="black" points="288.5,-49 288.5,-79 409.5,-79 409.5,-49 288.5,-49"/>
<text text-anchor="start" x="296.5" y="-67" font-family="Helvetica,sans-Serif" font-size="10.00">Ra::Core::TriangleMesh</text>
<text text-anchor="middle" x="349" y="-56" font-family="Helvetica,sans-Serif" font-size="10.00">::vertices</text>
</a>
</g>
</g>
<!-- Node2&#45;&gt;Node3 -->
<g id="edge2" class="edge"><title>Node2&#45;&gt;Node3</title>
<path fill="none" stroke="midnightblue" d="M251.532,-64C260.176,-64 269.254,-64 278.239,-64"/>
<polygon fill="midnightblue" stroke="midnightblue" points="278.317,-67.5001 288.317,-64 278.316,-60.5001 278.317,-67.5001"/>
</g>
<!-- Node4 -->
<g id="node4" class="node"><title>Node4</title>
<g id="a_node4"><a xlink:href="classRa_1_1Core_1_1AttribManager.html#aaa6088620425c1e1d74b50f1b50eb596" target="_top" xlink:title="Get attribute by handle. ">
<polygon fill="white" stroke="black" points="446.5,-49 446.5,-79 569.5,-79 569.5,-49 446.5,-49"/>
<text text-anchor="start" x="454.5" y="-67" font-family="Helvetica,sans-Serif" font-size="10.00">Ra::Core::AttribManager</text>
<text text-anchor="middle" x="508" y="-56" font-family="Helvetica,sans-Serif" font-size="10.00">::getAttrib</text>
</a>
</g>
</g>
<!-- Node3&#45;&gt;Node4 -->
<g id="edge3" class="edge"><title>Node3&#45;&gt;Node4</title>
<path fill="none" stroke="midnightblue" d="M409.803,-64C418.398,-64 427.311,-64 436.096,-64"/>
<polygon fill="midnightblue" stroke="midnightblue" points="436.323,-67.5001 446.323,-64 436.322,-60.5001 436.323,-67.5001"/>
</g>
<!-- Node6 -->
<g id="node6" class="node"><title>Node6</title>
<g id="a_node6"><a xlink:href="namespaceOpenMesh.html#a71e7f1dd3eac016d2b8245ac408a291c" target="_top" xlink:title="OpenMesh::cross">
<polygon fill="white" stroke="black" points="302,-5.5 302,-24.5 396,-24.5 396,-5.5 302,-5.5"/>
<text text-anchor="middle" x="349" y="-12.5" font-family="Helvetica,sans-Serif" font-size="10.00">OpenMesh::cross</text>
</a>
</g>
</g>
<!-- Node5&#45;&gt;Node6 -->
<g id="edge5" class="edge"><title>Node5&#45;&gt;Node6</title>
<path fill="none" stroke="midnightblue" d="M250.695,-15C263.957,-15 278.286,-15 291.764,-15"/>
<polygon fill="midnightblue" stroke="midnightblue" points="291.874,-18.5001 301.874,-15 291.874,-11.5001 291.874,-18.5001"/>
</g>
</g>
</svg>
