<?xml version="1.0" encoding="UTF-8" standalone="no"?>
<!DOCTYPE svg PUBLIC "-//W3C//DTD SVG 1.1//EN"
 "http://www.w3.org/Graphics/SVG/1.1/DTD/svg11.dtd">
<!-- Generated by graphviz version 2.36.0 (20140111.2315)
 -->
<!-- Title: Ra::Core::RayCast::vsCylinder Pages: 1 -->
<svg width="386pt" height="115pt"
 viewBox="0.00 0.00 386.00 115.00" xmlns="http://www.w3.org/2000/svg" xmlns:xlink="http://www.w3.org/1999/xlink">
<g id="graph0" class="graph" transform="scale(1 1) rotate(0) translate(4 111)">
<title>Ra::Core::RayCast::vsCylinder</title>
<polygon fill="white" stroke="none" points="-4,4 -4,-111 382,-111 382,4 -4,4"/>
<!-- Node1 -->
<g id="node1" class="node"><title>Node1</title>
<polygon fill="#bfbfbf" stroke="black" points="0.5,-33 0.5,-63 107.5,-63 107.5,-33 0.5,-33"/>
<text text-anchor="start" x="8.5" y="-51" font-family="Helvetica,sans-Serif" font-size="10.00">Ra::Core::RayCast::</text>
<text text-anchor="middle" x="54" y="-40" font-family="Helvetica,sans-Serif" font-size="10.00">vsCylinder</text>
</g>
<!-- Node2 -->
<g id="node2" class="node"><title>Node2</title>
<g id="a_node2"><a xlink:href="namespaceRa_1_1Core_1_1RayCast.html#a3aa002fc151cea24ec8d9b3f5f5dfb76" target="_top" xlink:title="Intersect a ray with an infinite plane defined by point A and normal. ">
<polygon fill="white" stroke="black" points="147.5,-77 147.5,-107 254.5,-107 254.5,-77 147.5,-77"/>
<text text-anchor="start" x="155.5" y="-95" font-family="Helvetica,sans-Serif" font-size="10.00">Ra::Core::RayCast::</text>
<text text-anchor="middle" x="201" y="-84" font-family="Helvetica,sans-Serif" font-size="10.00">vsPlane</text>
</a>
</g>
</g>
<!-- Node1&#45;&gt;Node2 -->
<g id="edge1" class="edge"><title>Node1&#45;&gt;Node2</title>
<path fill="none" stroke="midnightblue" d="M104.495,-63.0192C116.032,-66.5202 128.437,-70.2842 140.361,-73.9027"/>
<polygon fill="midnightblue" stroke="midnightblue" points="139.65,-77.3445 150.236,-76.8991 141.683,-70.6461 139.65,-77.3445"/>
</g>
<!-- Node3 -->
<g id="node3" class="node"><title>Node3</title>
<g id="a_node3"><a xlink:href="namespaceOpenMesh.html#a575b338f0fc9ecb5393d23e977e6ac38" target="_top" xlink:title="OpenMesh::dot">
<polygon fill="white" stroke="black" points="294.5,-60.5 294.5,-79.5 377.5,-79.5 377.5,-60.5 294.5,-60.5"/>
<text text-anchor="middle" x="336" y="-67.5" font-family="Helvetica,sans-Serif" font-size="10.00">OpenMesh::dot</text>
</a>
</g>
</g>
<!-- Node1&#45;&gt;Node3 -->
<g id="edge4" class="edge"><title>Node1&#45;&gt;Node3</title>
<path fill="none" stroke="midnightblue" d="M107.666,-52.138C158.246,-56.1122 234.15,-62.0761 284.123,-66.0025"/>
<polygon fill="midnightblue" stroke="midnightblue" points="284.131,-69.5138 294.374,-66.808 284.679,-62.5354 284.131,-69.5138"/>
</g>
<!-- Node4 -->
<g id="node4" class="node"><title>Node4</title>
<g id="a_node4"><a xlink:href="namespaceRa_1_1Core_1_1Algorithm.html#aea294cdb6f4f0d85955bdcccb22886ec" target="_top" xlink:title="Ra::Core::Algorithm::t">
<polygon fill="white" stroke="black" points="144.5,-0.5 144.5,-19.5 257.5,-19.5 257.5,-0.5 144.5,-0.5"/>
<text text-anchor="middle" x="201" y="-7.5" font-family="Helvetica,sans-Serif" font-size="10.00">Ra::Core::Algorithm::t</text>
</a>
</g>
</g>
<!-- Node1&#45;&gt;Node4 -->
<g id="edge3" class="edge"><title>Node1&#45;&gt;Node4</title>
<path fill="none" stroke="midnightblue" d="M107.759,-34.1736C122.759,-30.2424 138.98,-25.9914 153.575,-22.1666"/>
<polygon fill="midnightblue" stroke="midnightblue" points="154.598,-25.5167 163.384,-19.5959 152.823,-18.7454 154.598,-25.5167"/>
</g>
<!-- Node2&#45;&gt;Node3 -->
<g id="edge2" class="edge"><title>Node2&#45;&gt;Node3</title>
<path fill="none" stroke="midnightblue" d="M254.565,-83.305C264.373,-81.6827 274.604,-79.9903 284.353,-78.3777"/>
<polygon fill="midnightblue" stroke="midnightblue" points="285.005,-81.8176 294.299,-76.7324 283.862,-74.9114 285.005,-81.8176"/>
</g>
</g>
</svg>
