<?xml version="1.0" encoding="UTF-8" standalone="no"?>
<!DOCTYPE svg PUBLIC "-//W3C//DTD SVG 1.1//EN"
 "http://www.w3.org/Graphics/SVG/1.1/DTD/svg11.dtd">
<!-- Generated by graphviz version 2.36.0 (20140111.2315)
 -->
<!-- Title: Ra::Core::QuaternionUtils::addQlerp Pages: 1 -->
<svg width="454pt" height="66pt"
 viewBox="0.00 0.00 454.00 66.00" xmlns="http://www.w3.org/2000/svg" xmlns:xlink="http://www.w3.org/1999/xlink">
<g id="graph0" class="graph" transform="scale(1 1) rotate(0) translate(4 62)">
<title>Ra::Core::QuaternionUtils::addQlerp</title>
<polygon fill="white" stroke="none" points="-4,4 -4,-62 450,-62 450,4 -4,4"/>
<!-- Node1 -->
<g id="node1" class="node"><title>Node1</title>
<polygon fill="#bfbfbf" stroke="black" points="0,-14 0,-44 130,-44 130,-14 0,-14"/>
<text text-anchor="start" x="8" y="-32" font-family="Helvetica,sans-Serif" font-size="10.00">Ra::Core::QuaternionUtils</text>
<text text-anchor="middle" x="65" y="-21" font-family="Helvetica,sans-Serif" font-size="10.00">::addQlerp</text>
</g>
<!-- Node2 -->
<g id="node2" class="node"><title>Node2</title>
<g id="a_node2"><a xlink:href="namespaceRa_1_1Core_1_1Math.html#a90f0fe9079f5bb86c721ea4b61738470" target="_top" xlink:title="Returns the sign of any numeric type as { &#45;1, 0, 1}. ">
<polygon fill="white" stroke="black" points="173,-38.5 173,-57.5 281,-57.5 281,-38.5 173,-38.5"/>
<text text-anchor="middle" x="227" y="-45.5" font-family="Helvetica,sans-Serif" font-size="10.00">Ra::Core::Math::sign</text>
</a>
</g>
</g>
<!-- Node1&#45;&gt;Node2 -->
<g id="edge1" class="edge"><title>Node1&#45;&gt;Node2</title>
<path fill="none" stroke="midnightblue" d="M130.156,-36.6185C140.895,-37.8938 152.031,-39.2162 162.747,-40.4888"/>
<polygon fill="midnightblue" stroke="midnightblue" points="162.523,-43.9867 172.866,-41.6904 163.349,-37.0355 162.523,-43.9867"/>
</g>
<!-- Node4 -->
<g id="node4" class="node"><title>Node4</title>
<g id="a_node4"><a xlink:href="namespaceRa_1_1Core_1_1Math.html#a810d6d50b61cc01cda1d54527de864d0" target="_top" xlink:title="Returns the sign of any numeric type as { &#45;1, 1} Note: signNZ(0) returns 1 for any integral type but ...">
<polygon fill="white" stroke="black" points="166,-0.5 166,-19.5 288,-19.5 288,-0.5 166,-0.5"/>
<text text-anchor="middle" x="227" y="-7.5" font-family="Helvetica,sans-Serif" font-size="10.00">Ra::Core::Math::signNZ</text>
</a>
</g>
</g>
<!-- Node1&#45;&gt;Node4 -->
<g id="edge3" class="edge"><title>Node1&#45;&gt;Node4</title>
<path fill="none" stroke="midnightblue" d="M130.156,-21.3815C138.655,-20.3723 147.401,-19.3336 155.992,-18.3134"/>
<polygon fill="midnightblue" stroke="midnightblue" points="156.463,-21.7821 165.981,-17.1273 155.638,-14.831 156.463,-21.7821"/>
</g>
<!-- Node3 -->
<g id="node3" class="node"><title>Node3</title>
<g id="a_node3"><a xlink:href="namespaceRa_1_1Core_1_1Math.html#ae4e681e0738fe7e5bfd028c6270b597a" target="_top" xlink:title="Ra::Core::Math::signum">
<polygon fill="white" stroke="black" points="324,-38.5 324,-57.5 446,-57.5 446,-38.5 324,-38.5"/>
<text text-anchor="middle" x="385" y="-45.5" font-family="Helvetica,sans-Serif" font-size="10.00">Ra::Core::Math::signum</text>
</a>
</g>
</g>
<!-- Node2&#45;&gt;Node3 -->
<g id="edge2" class="edge"><title>Node2&#45;&gt;Node3</title>
<path fill="none" stroke="midnightblue" d="M281.25,-48C291.618,-48 302.636,-48 313.462,-48"/>
<polygon fill="midnightblue" stroke="midnightblue" points="313.753,-51.5001 323.753,-48 313.753,-44.5001 313.753,-51.5001"/>
</g>
</g>
</svg>
