<?xml version="1.0" encoding="UTF-8" standalone="no"?>
<!DOCTYPE svg PUBLIC "-//W3C//DTD SVG 1.1//EN"
 "http://www.w3.org/Graphics/SVG/1.1/DTD/svg11.dtd">
<!-- Generated by graphviz version 2.36.0 (20140111.2315)
 -->
<!-- Title: Ra::Core::Algorithm::divergenceOfFieldX Pages: 1 -->
<svg width="274pt" height="66pt"
 viewBox="0.00 0.00 274.00 66.00" xmlns="http://www.w3.org/2000/svg" xmlns:xlink="http://www.w3.org/1999/xlink">
<g id="graph0" class="graph" transform="scale(1 1) rotate(0) translate(4 62)">
<title>Ra::Core::Algorithm::divergenceOfFieldX</title>
<polygon fill="white" stroke="none" points="-4,4 -4,-62 270,-62 270,4 -4,4"/>
<!-- Node1 -->
<g id="node1" class="node"><title>Node1</title>
<polygon fill="#bfbfbf" stroke="black" points="0,-14 0,-44 108,-44 108,-14 0,-14"/>
<text text-anchor="start" x="8" y="-32" font-family="Helvetica,sans-Serif" font-size="10.00">Ra::Core::Algorithm</text>
<text text-anchor="middle" x="54" y="-21" font-family="Helvetica,sans-Serif" font-size="10.00">::divergenceOfFieldX</text>
</g>
<!-- Node2 -->
<g id="node2" class="node"><title>Node2</title>
<g id="a_node2"><a xlink:href="namespaceRa_1_1Core_1_1Vector.html#aa91aaef62c026259378ace5b5b0e86da" target="_top" xlink:title="Get the cotangent of the angle between two vectors. ">
<polygon fill="white" stroke="black" points="144.5,-38.5 144.5,-57.5 265.5,-57.5 265.5,-38.5 144.5,-38.5"/>
<text text-anchor="middle" x="205" y="-45.5" font-family="Helvetica,sans-Serif" font-size="10.00">Ra::Core::Vector::cotan</text>
</a>
</g>
</g>
<!-- Node1&#45;&gt;Node2 -->
<g id="edge1" class="edge"><title>Node1&#45;&gt;Node2</title>
<path fill="none" stroke="midnightblue" d="M108.372,-35.8058C116.774,-36.8772 125.568,-37.9986 134.274,-39.1087"/>
<polygon fill="midnightblue" stroke="midnightblue" points="134.063,-42.6101 144.425,-40.4032 134.948,-35.6663 134.063,-42.6101"/>
</g>
<!-- Node3 -->
<g id="node3" class="node"><title>Node3</title>
<g id="a_node3"><a xlink:href="namespaceOpenMesh.html#a575b338f0fc9ecb5393d23e977e6ac38" target="_top" xlink:title="OpenMesh::dot">
<polygon fill="white" stroke="black" points="163.5,-0.5 163.5,-19.5 246.5,-19.5 246.5,-0.5 163.5,-0.5"/>
<text text-anchor="middle" x="205" y="-7.5" font-family="Helvetica,sans-Serif" font-size="10.00">OpenMesh::dot</text>
</a>
</g>
</g>
<!-- Node1&#45;&gt;Node3 -->
<g id="edge2" class="edge"><title>Node1&#45;&gt;Node3</title>
<path fill="none" stroke="midnightblue" d="M108.372,-22.1942C122.886,-20.3435 138.566,-18.3439 152.948,-16.51"/>
<polygon fill="midnightblue" stroke="midnightblue" points="153.679,-19.9452 163.156,-15.2083 152.793,-13.0014 153.679,-19.9452"/>
</g>
</g>
</svg>
