<?xml version="1.0" encoding="UTF-8" standalone="no"?>
<!DOCTYPE svg PUBLIC "-//W3C//DTD SVG 1.1//EN"
 "http://www.w3.org/Graphics/SVG/1.1/DTD/svg11.dtd">
<!-- Generated by graphviz version 2.36.0 (20140111.2315)
 -->
<!-- Title: Ra::Core::Geometry::oneRingArea Pages: 1 -->
<svg width="426pt" height="150pt"
 viewBox="0.00 0.00 426.00 150.00" xmlns="http://www.w3.org/2000/svg" xmlns:xlink="http://www.w3.org/1999/xlink">
<g id="graph0" class="graph" transform="scale(1 1) rotate(0) translate(4 146)">
<title>Ra::Core::Geometry::oneRingArea</title>
<polygon fill="white" stroke="none" points="-4,4 -4,-146 422,-146 422,4 -4,4"/>
<!-- Node1 -->
<g id="node1" class="node"><title>Node1</title>
<polygon fill="#bfbfbf" stroke="black" points="0.5,-63 0.5,-93 105.5,-93 105.5,-63 0.5,-63"/>
<text text-anchor="start" x="8.5" y="-81" font-family="Helvetica,sans-Serif" font-size="10.00">Ra::Core::Geometry</text>
<text text-anchor="middle" x="53" y="-70" font-family="Helvetica,sans-Serif" font-size="10.00">::oneRingArea</text>
</g>
<!-- Node2 -->
<g id="node2" class="node"><title>Node2</title>
<g id="a_node2"><a xlink:href="classRa_1_1Core_1_1CircularIndex.html#a209650affef46390ab727a90c8b51920" target="_top" xlink:title="Ra::Core::CircularIndex\l::setSize">
<polygon fill="white" stroke="black" points="142,-112 142,-142 262,-142 262,-112 142,-112"/>
<text text-anchor="start" x="150" y="-130" font-family="Helvetica,sans-Serif" font-size="10.00">Ra::Core::CircularIndex</text>
<text text-anchor="middle" x="202" y="-119" font-family="Helvetica,sans-Serif" font-size="10.00">::setSize</text>
</a>
</g>
</g>
<!-- Node1&#45;&gt;Node2 -->
<g id="edge1" class="edge"><title>Node1&#45;&gt;Node2</title>
<path fill="none" stroke="midnightblue" d="M99.3043,-93.1014C114.044,-98.0147 130.567,-103.522 145.94,-108.647"/>
<polygon fill="midnightblue" stroke="midnightblue" points="145.252,-112.106 155.845,-111.948 147.465,-105.466 145.252,-112.106"/>
</g>
<!-- Node4 -->
<g id="node4" class="node"><title>Node4</title>
<g id="a_node4"><a xlink:href="classRa_1_1Core_1_1CircularIndex.html#a748a857d5d9affc123a4ecc9c5ffc344" target="_top" xlink:title="Ra::Core::CircularIndex\l::setValue">
<polygon fill="white" stroke="black" points="142,-63 142,-93 262,-93 262,-63 142,-63"/>
<text text-anchor="start" x="150" y="-81" font-family="Helvetica,sans-Serif" font-size="10.00">Ra::Core::CircularIndex</text>
<text text-anchor="middle" x="202" y="-70" font-family="Helvetica,sans-Serif" font-size="10.00">::setValue</text>
</a>
</g>
</g>
<!-- Node1&#45;&gt;Node4 -->
<g id="edge3" class="edge"><title>Node1&#45;&gt;Node4</title>
<path fill="none" stroke="midnightblue" d="M105.827,-78C114.204,-78 122.993,-78 131.704,-78"/>
<polygon fill="midnightblue" stroke="midnightblue" points="131.864,-81.5001 141.864,-78 131.864,-74.5001 131.864,-81.5001"/>
</g>
<!-- Node5 -->
<g id="node5" class="node"><title>Node5</title>
<g id="a_node5"><a xlink:href="namespaceRa_1_1Core_1_1Geometry.html#a178f2b7309fe2ea5bc31a3abcb25368e" target="_top" xlink:title="Ra::Core::Geometry\l::triangleArea">
<polygon fill="white" stroke="black" points="149.5,-14 149.5,-44 254.5,-44 254.5,-14 149.5,-14"/>
<text text-anchor="start" x="157.5" y="-32" font-family="Helvetica,sans-Serif" font-size="10.00">Ra::Core::Geometry</text>
<text text-anchor="middle" x="202" y="-21" font-family="Helvetica,sans-Serif" font-size="10.00">::triangleArea</text>
</a>
</g>
</g>
<!-- Node1&#45;&gt;Node5 -->
<g id="edge4" class="edge"><title>Node1&#45;&gt;Node5</title>
<path fill="none" stroke="midnightblue" d="M99.3043,-62.8986C114.044,-57.9853 130.567,-52.4776 145.94,-47.3534"/>
<polygon fill="midnightblue" stroke="midnightblue" points="147.465,-50.5343 155.845,-44.0516 145.252,-43.8935 147.465,-50.5343"/>
</g>
<!-- Node3 -->
<g id="node3" class="node"><title>Node3</title>
<g id="a_node3"><a xlink:href="classRa_1_1Core_1_1CircularIndex.html#a49f32351ed0de532b6b5f125c81ad2ae" target="_top" xlink:title="DIMENSION. ">
<polygon fill="white" stroke="black" points="298,-112 298,-142 418,-142 418,-112 298,-112"/>
<text text-anchor="start" x="306" y="-130" font-family="Helvetica,sans-Serif" font-size="10.00">Ra::Core::CircularIndex</text>
<text text-anchor="middle" x="358" y="-119" font-family="Helvetica,sans-Serif" font-size="10.00">::size</text>
</a>
</g>
</g>
<!-- Node2&#45;&gt;Node3 -->
<g id="edge2" class="edge"><title>Node2&#45;&gt;Node3</title>
<path fill="none" stroke="midnightblue" d="M262.1,-127C270.422,-127 279.039,-127 287.533,-127"/>
<polygon fill="midnightblue" stroke="midnightblue" points="287.804,-130.5 297.804,-127 287.804,-123.5 287.804,-130.5"/>
</g>
<!-- Node6 -->
<g id="node6" class="node"><title>Node6</title>
<g id="a_node6"><a xlink:href="namespaceOpenMesh.html#a71e7f1dd3eac016d2b8245ac408a291c" target="_top" xlink:title="OpenMesh::cross">
<polygon fill="white" stroke="black" points="311,-38.5 311,-57.5 405,-57.5 405,-38.5 311,-38.5"/>
<text text-anchor="middle" x="358" y="-45.5" font-family="Helvetica,sans-Serif" font-size="10.00">OpenMesh::cross</text>
</a>
</g>
</g>
<!-- Node5&#45;&gt;Node6 -->
<g id="edge5" class="edge"><title>Node5&#45;&gt;Node6</title>
<path fill="none" stroke="midnightblue" d="M254.708,-35.3796C269.475,-37.2015 285.639,-39.1957 300.668,-41.0499"/>
<polygon fill="midnightblue" stroke="midnightblue" points="300.507,-44.5565 310.86,-42.3074 301.364,-37.6092 300.507,-44.5565"/>
</g>
<!-- Node7 -->
<g id="node7" class="node"><title>Node7</title>
<g id="a_node7"><a xlink:href="namespaceOpenMesh.html#a8205f789ce08919bc11c58383574596c" target="_top" xlink:title="OpenMesh::norm">
<polygon fill="white" stroke="black" points="312,-0.5 312,-19.5 404,-19.5 404,-0.5 312,-0.5"/>
<text text-anchor="middle" x="358" y="-7.5" font-family="Helvetica,sans-Serif" font-size="10.00">OpenMesh::norm</text>
</a>
</g>
</g>
<!-- Node5&#45;&gt;Node7 -->
<g id="edge6" class="edge"><title>Node5&#45;&gt;Node7</title>
<path fill="none" stroke="midnightblue" d="M254.708,-22.6204C269.759,-20.7634 286.261,-18.7275 301.534,-16.8433"/>
<polygon fill="midnightblue" stroke="midnightblue" points="302.381,-20.2653 311.878,-15.567 301.524,-13.318 302.381,-20.2653"/>
</g>
</g>
</svg>
