<?xml version="1.0" encoding="UTF-8" standalone="no"?>
<!DOCTYPE svg PUBLIC "-//W3C//DTD SVG 1.1//EN"
 "http://www.w3.org/Graphics/SVG/1.1/DTD/svg11.dtd">
<!-- Generated by graphviz version 2.36.0 (20140111.2315)
 -->
<!-- Title: Ra::Core::QuaternionUtils::checkInvalidNumbers Pages: 1 -->
<svg width="292pt" height="38pt"
 viewBox="0.00 0.00 292.00 38.00" xmlns="http://www.w3.org/2000/svg" xmlns:xlink="http://www.w3.org/1999/xlink">
<g id="graph0" class="graph" transform="scale(1 1) rotate(0) translate(4 34)">
<title>Ra::Core::QuaternionUtils::checkInvalidNumbers</title>
<polygon fill="white" stroke="none" points="-4,4 -4,-34 288,-34 288,4 -4,4"/>
<!-- Node1 -->
<g id="node1" class="node"><title>Node1</title>
<polygon fill="#bfbfbf" stroke="black" points="0,-0 0,-30 130,-30 130,-0 0,-0"/>
<text text-anchor="start" x="8" y="-18" font-family="Helvetica,sans-Serif" font-size="10.00">Ra::Core::QuaternionUtils</text>
<text text-anchor="middle" x="65" y="-7" font-family="Helvetica,sans-Serif" font-size="10.00">::checkInvalidNumbers</text>
</g>
<!-- Node2 -->
<g id="node2" class="node"><title>Node2</title>
<g id="a_node2"><a xlink:href="namespaceRa_1_1Core_1_1MatrixUtils.html#a3d8cdc418629d9b8ca96efe759e3bc17" target="_top" xlink:title="Call std::isnormal on matrix entry. ">
<polygon fill="white" stroke="black" points="166.5,-0 166.5,-30 283.5,-30 283.5,-0 166.5,-0"/>
<text text-anchor="start" x="174.5" y="-18" font-family="Helvetica,sans-Serif" font-size="10.00">Ra::Core::MatrixUtils</text>
<text text-anchor="middle" x="225" y="-7" font-family="Helvetica,sans-Serif" font-size="10.00">::checkInvalidNumbers</text>
</a>
</g>
</g>
<!-- Node1&#45;&gt;Node2 -->
<g id="edge1" class="edge"><title>Node1&#45;&gt;Node2</title>
<path fill="none" stroke="midnightblue" d="M130.265,-15C138.862,-15 147.7,-15 156.353,-15"/>
<polygon fill="midnightblue" stroke="midnightblue" points="156.4,-18.5001 166.4,-15 156.4,-11.5001 156.4,-18.5001"/>
</g>
</g>
</svg>
