<?xml version="1.0" encoding="UTF-8" standalone="no"?>
<!DOCTYPE svg PUBLIC "-//W3C//DTD SVG 1.1//EN"
 "http://www.w3.org/Graphics/SVG/1.1/DTD/svg11.dtd">
<!-- Generated by graphviz version 2.36.0 (20140111.2315)
 -->
<!-- Title: Ra::Core::Geometry::mixedArea Pages: 1 -->
<svg width="402pt" height="217pt"
 viewBox="0.00 0.00 402.00 217.00" xmlns="http://www.w3.org/2000/svg" xmlns:xlink="http://www.w3.org/1999/xlink">
<g id="graph0" class="graph" transform="scale(1 1) rotate(0) translate(4 213)">
<title>Ra::Core::Geometry::mixedArea</title>
<polygon fill="white" stroke="none" points="-4,4 -4,-213 398,-213 398,4 -4,4"/>
<!-- Node1 -->
<g id="node1" class="node"><title>Node1</title>
<polygon fill="#bfbfbf" stroke="black" points="0.5,-96 0.5,-126 105.5,-126 105.5,-96 0.5,-96"/>
<text text-anchor="start" x="8.5" y="-114" font-family="Helvetica,sans-Serif" font-size="10.00">Ra::Core::Geometry</text>
<text text-anchor="middle" x="53" y="-103" font-family="Helvetica,sans-Serif" font-size="10.00">::mixedArea</text>
</g>
<!-- Node2 -->
<g id="node2" class="node"><title>Node2</title>
<g id="a_node2"><a xlink:href="namespaceRa_1_1Core_1_1Algorithm.html#aea294cdb6f4f0d85955bdcccb22886ec" target="_top" xlink:title="Ra::Core::Algorithm::t">
<polygon fill="white" stroke="black" points="146.5,-189.5 146.5,-208.5 259.5,-208.5 259.5,-189.5 146.5,-189.5"/>
<text text-anchor="middle" x="203" y="-196.5" font-family="Helvetica,sans-Serif" font-size="10.00">Ra::Core::Algorithm::t</text>
</a>
</g>
</g>
<!-- Node1&#45;&gt;Node2 -->
<g id="edge1" class="edge"><title>Node1&#45;&gt;Node2</title>
<path fill="none" stroke="midnightblue" d="M70.0291,-126.101C86.8357,-141.25 114.57,-164.375 142,-179 146.845,-181.583 152.085,-183.92 157.383,-186.008"/>
<polygon fill="midnightblue" stroke="midnightblue" points="156.313,-189.344 166.907,-189.499 158.722,-182.771 156.313,-189.344"/>
</g>
<!-- Node3 -->
<g id="node3" class="node"><title>Node3</title>
<g id="a_node3"><a xlink:href="namespaceRa_1_1Core_1_1Geometry.html#a80e2472f741c08ef62e73b2b5ce8f371" target="_top" xlink:title="Ra::Core::Geometry\l::isTriangleObtuse">
<polygon fill="white" stroke="black" points="150.5,-140 150.5,-170 255.5,-170 255.5,-140 150.5,-140"/>
<text text-anchor="start" x="158.5" y="-158" font-family="Helvetica,sans-Serif" font-size="10.00">Ra::Core::Geometry</text>
<text text-anchor="middle" x="203" y="-147" font-family="Helvetica,sans-Serif" font-size="10.00">::isTriangleObtuse</text>
</a>
</g>
</g>
<!-- Node1&#45;&gt;Node3 -->
<g id="edge2" class="edge"><title>Node1&#45;&gt;Node3</title>
<path fill="none" stroke="midnightblue" d="M104.519,-126.019C116.479,-129.575 129.351,-133.402 141.697,-137.072"/>
<polygon fill="midnightblue" stroke="midnightblue" points="140.875,-140.479 151.457,-139.974 142.869,-133.769 140.875,-140.479"/>
</g>
<!-- Node4 -->
<g id="node4" class="node"><title>Node4</title>
<g id="a_node4"><a xlink:href="namespaceOpenMesh.html#a575b338f0fc9ecb5393d23e977e6ac38" target="_top" xlink:title="OpenMesh::dot">
<polygon fill="white" stroke="black" points="305.5,-123.5 305.5,-142.5 388.5,-142.5 388.5,-123.5 305.5,-123.5"/>
<text text-anchor="middle" x="347" y="-130.5" font-family="Helvetica,sans-Serif" font-size="10.00">OpenMesh::dot</text>
</a>
</g>
</g>
<!-- Node1&#45;&gt;Node4 -->
<g id="edge8" class="edge"><title>Node1&#45;&gt;Node4</title>
<path fill="none" stroke="midnightblue" d="M105.532,-114.883C158.947,-118.907 241.927,-125.159 295.106,-129.166"/>
<polygon fill="midnightblue" stroke="midnightblue" points="295.092,-132.674 305.327,-129.936 295.618,-125.694 295.092,-132.674"/>
</g>
<!-- Node5 -->
<g id="node5" class="node"><title>Node5</title>
<g id="a_node5"><a xlink:href="namespaceRa_1_1Core_1_1Vector.html#aa91aaef62c026259378ace5b5b0e86da" target="_top" xlink:title="Get the cotangent of the angle between two vectors. ">
<polygon fill="white" stroke="black" points="142.5,-63.5 142.5,-82.5 263.5,-82.5 263.5,-63.5 142.5,-63.5"/>
<text text-anchor="middle" x="203" y="-70.5" font-family="Helvetica,sans-Serif" font-size="10.00">Ra::Core::Vector::cotan</text>
</a>
</g>
</g>
<!-- Node1&#45;&gt;Node5 -->
<g id="edge4" class="edge"><title>Node1&#45;&gt;Node5</title>
<path fill="none" stroke="midnightblue" d="M105.763,-97.7094C121.764,-93.6012 139.294,-89.1003 154.957,-85.0786"/>
<polygon fill="midnightblue" stroke="midnightblue" points="156.13,-88.3909 164.946,-82.5139 154.389,-81.6109 156.13,-88.3909"/>
</g>
<!-- Node6 -->
<g id="node6" class="node"><title>Node6</title>
<g id="a_node6"><a xlink:href="namespaceRa_1_1Core_1_1Geometry.html#a178f2b7309fe2ea5bc31a3abcb25368e" target="_top" xlink:title="Ra::Core::Geometry\l::triangleArea">
<polygon fill="white" stroke="black" points="150.5,-14 150.5,-44 255.5,-44 255.5,-14 150.5,-14"/>
<text text-anchor="start" x="158.5" y="-32" font-family="Helvetica,sans-Serif" font-size="10.00">Ra::Core::Geometry</text>
<text text-anchor="middle" x="203" y="-21" font-family="Helvetica,sans-Serif" font-size="10.00">::triangleArea</text>
</a>
</g>
</g>
<!-- Node1&#45;&gt;Node6 -->
<g id="edge5" class="edge"><title>Node1&#45;&gt;Node6</title>
<path fill="none" stroke="midnightblue" d="M75.0446,-95.8286C92.4764,-83.6439 118.164,-66.5545 142,-54 145.707,-52.0476 149.6,-50.1358 153.548,-48.2937"/>
<polygon fill="midnightblue" stroke="midnightblue" points="155.112,-51.4284 162.797,-44.1361 152.242,-45.0438 155.112,-51.4284"/>
</g>
<!-- Node3&#45;&gt;Node4 -->
<g id="edge3" class="edge"><title>Node3&#45;&gt;Node4</title>
<path fill="none" stroke="midnightblue" d="M255.667,-146.995C268.557,-144.998 282.367,-142.859 295.214,-140.868"/>
<polygon fill="midnightblue" stroke="midnightblue" points="295.928,-144.299 305.274,-139.31 294.856,-137.382 295.928,-144.299"/>
</g>
<!-- Node7 -->
<g id="node7" class="node"><title>Node7</title>
<g id="a_node7"><a xlink:href="namespaceOpenMesh.html#a71e7f1dd3eac016d2b8245ac408a291c" target="_top" xlink:title="OpenMesh::cross">
<polygon fill="white" stroke="black" points="300,-38.5 300,-57.5 394,-57.5 394,-38.5 300,-38.5"/>
<text text-anchor="middle" x="347" y="-45.5" font-family="Helvetica,sans-Serif" font-size="10.00">OpenMesh::cross</text>
</a>
</g>
</g>
<!-- Node6&#45;&gt;Node7 -->
<g id="edge6" class="edge"><title>Node6&#45;&gt;Node7</title>
<path fill="none" stroke="midnightblue" d="M255.667,-35.9132C266.717,-37.3917 278.443,-38.9607 289.659,-40.4614"/>
<polygon fill="midnightblue" stroke="midnightblue" points="289.406,-43.9586 299.782,-41.8159 290.334,-37.0205 289.406,-43.9586"/>
</g>
<!-- Node8 -->
<g id="node8" class="node"><title>Node8</title>
<g id="a_node8"><a xlink:href="namespaceOpenMesh.html#a8205f789ce08919bc11c58383574596c" target="_top" xlink:title="OpenMesh::norm">
<polygon fill="white" stroke="black" points="301,-0.5 301,-19.5 393,-19.5 393,-0.5 301,-0.5"/>
<text text-anchor="middle" x="347" y="-7.5" font-family="Helvetica,sans-Serif" font-size="10.00">OpenMesh::norm</text>
</a>
</g>
</g>
<!-- Node6&#45;&gt;Node8 -->
<g id="edge7" class="edge"><title>Node6&#45;&gt;Node8</title>
<path fill="none" stroke="midnightblue" d="M255.667,-22.0868C267.075,-20.5604 279.204,-18.9375 290.748,-17.3929"/>
<polygon fill="midnightblue" stroke="midnightblue" points="291.261,-20.8555 300.709,-16.0601 290.333,-13.9173 291.261,-20.8555"/>
</g>
</g>
</svg>
