<?xml version="1.0" encoding="UTF-8" standalone="no"?>
<!DOCTYPE svg PUBLIC "-//W3C//DTD SVG 1.1//EN"
 "http://www.w3.org/Graphics/SVG/1.1/DTD/svg11.dtd">
<!-- Generated by graphviz version 2.36.0 (20140111.2315)
 -->
<!-- Title: Ra::Core::Geometry::findParametrization Pages: 1 -->
<svg width="460pt" height="469pt"
 viewBox="0.00 0.00 460.00 469.00" xmlns="http://www.w3.org/2000/svg" xmlns:xlink="http://www.w3.org/1999/xlink">
<g id="graph0" class="graph" transform="scale(1 1) rotate(0) translate(4 465)">
<title>Ra::Core::Geometry::findParametrization</title>
<polygon fill="white" stroke="none" points="-4,4 -4,-465 456,-465 456,4 -4,4"/>
<!-- Node1 -->
<g id="node1" class="node"><title>Node1</title>
<polygon fill="#bfbfbf" stroke="black" points="0.5,-220 0.5,-250 107.5,-250 107.5,-220 0.5,-220"/>
<text text-anchor="start" x="8.5" y="-238" font-family="Helvetica,sans-Serif" font-size="10.00">Ra::Core::Geometry</text>
<text text-anchor="middle" x="54" y="-227" font-family="Helvetica,sans-Serif" font-size="10.00">::findParametrization</text>
</g>
<!-- Node2 -->
<g id="node2" class="node"><title>Node2</title>
<g id="a_node2"><a xlink:href="classRa_1_1Core_1_1TriangleMesh.html#a495116f40cfec8bb6504698d786d4b8c" target="_top" xlink:title="Access the vertices positions. ">
<polygon fill="white" stroke="black" points="157.5,-431 157.5,-461 278.5,-461 278.5,-431 157.5,-431"/>
<text text-anchor="start" x="165.5" y="-449" font-family="Helvetica,sans-Serif" font-size="10.00">Ra::Core::TriangleMesh</text>
<text text-anchor="middle" x="218" y="-438" font-family="Helvetica,sans-Serif" font-size="10.00">::vertices</text>
</a>
</g>
</g>
<!-- Node1&#45;&gt;Node2 -->
<g id="edge1" class="edge"><title>Node1&#45;&gt;Node2</title>
<path fill="none" stroke="midnightblue" d="M58.057,-250.18C65.9176,-285.347 90.115,-373.046 144,-421 145.748,-422.556 147.598,-424.016 149.526,-425.385"/>
<polygon fill="midnightblue" stroke="midnightblue" points="148.068,-428.596 158.424,-430.832 151.723,-422.626 148.068,-428.596"/>
</g>
<!-- Node4 -->
<g id="node4" class="node"><title>Node4</title>
<g id="a_node4"><a xlink:href="namespaceRa_1_1Core_1_1Algorithm.html#aea294cdb6f4f0d85955bdcccb22886ec" target="_top" xlink:title="Ra::Core::Algorithm::t">
<polygon fill="white" stroke="black" points="161.5,-392.5 161.5,-411.5 274.5,-411.5 274.5,-392.5 161.5,-392.5"/>
<text text-anchor="middle" x="218" y="-399.5" font-family="Helvetica,sans-Serif" font-size="10.00">Ra::Core::Algorithm::t</text>
</a>
</g>
</g>
<!-- Node1&#45;&gt;Node4 -->
<g id="edge3" class="edge"><title>Node1&#45;&gt;Node4</title>
<path fill="none" stroke="midnightblue" d="M59.8443,-250.089C70.2379,-279.998 97.578,-346.937 144,-382 147.154,-384.382 150.574,-386.481 154.155,-388.329"/>
<polygon fill="midnightblue" stroke="midnightblue" points="152.769,-391.543 163.327,-392.429 155.625,-385.153 152.769,-391.543"/>
</g>
<!-- Node5 -->
<g id="node5" class="node"><title>Node5</title>
<g id="a_node5"><a xlink:href="namespaceRa_1_1Core_1_1Geometry.html#a2ce97206423345716bf1b55f60c1c227" target="_top" xlink:title="Ra::Core::Geometry\l::triangleNormal">
<polygon fill="white" stroke="black" points="165.5,-343 165.5,-373 270.5,-373 270.5,-343 165.5,-343"/>
<text text-anchor="start" x="173.5" y="-361" font-family="Helvetica,sans-Serif" font-size="10.00">Ra::Core::Geometry</text>
<text text-anchor="middle" x="218" y="-350" font-family="Helvetica,sans-Serif" font-size="10.00">::triangleNormal</text>
</a>
</g>
</g>
<!-- Node1&#45;&gt;Node5 -->
<g id="edge4" class="edge"><title>Node1&#45;&gt;Node5</title>
<path fill="none" stroke="midnightblue" d="M64.9826,-250.129C79.8098,-271.489 109.627,-310.395 144,-333 147.753,-335.468 151.775,-337.719 155.932,-339.766"/>
<polygon fill="midnightblue" stroke="midnightblue" points="154.638,-343.022 165.194,-343.93 157.508,-336.637 154.638,-343.022"/>
</g>
<!-- Node7 -->
<g id="node7" class="node"><title>Node7</title>
<g id="a_node7"><a xlink:href="namespaceRa_1_1Core_1_1Geometry.html#aecb62214bedc582489bc41417f946abd" target="_top" xlink:title="Ra::Core::Geometry\l::barycentricCoordinate">
<polygon fill="white" stroke="black" points="159,-294 159,-324 277,-324 277,-294 159,-294"/>
<text text-anchor="start" x="167" y="-312" font-family="Helvetica,sans-Serif" font-size="10.00">Ra::Core::Geometry</text>
<text text-anchor="middle" x="218" y="-301" font-family="Helvetica,sans-Serif" font-size="10.00">::barycentricCoordinate</text>
</a>
</g>
</g>
<!-- Node1&#45;&gt;Node7 -->
<g id="edge6" class="edge"><title>Node1&#45;&gt;Node7</title>
<path fill="none" stroke="midnightblue" d="M79.7285,-250.133C97.2679,-260.485 121.58,-274.079 144,-284 148.977,-286.202 154.212,-288.335 159.499,-290.365"/>
<polygon fill="midnightblue" stroke="midnightblue" points="158.433,-293.703 169.026,-293.901 160.869,-287.14 158.433,-293.703"/>
</g>
<!-- Node8 -->
<g id="node8" class="node"><title>Node8</title>
<g id="a_node8"><a xlink:href="classRa_1_1Core_1_1Geometry_1_1Mapping.html#a88b94043360f55730de9899181cbd31f" target="_top" xlink:title="Ra::Core::Geometry\l::Mapping::isBoundToElement">
<polygon fill="white" stroke="black" points="144,-245 144,-275 292,-275 292,-245 144,-245"/>
<text text-anchor="start" x="152" y="-263" font-family="Helvetica,sans-Serif" font-size="10.00">Ra::Core::Geometry</text>
<text text-anchor="middle" x="218" y="-252" font-family="Helvetica,sans-Serif" font-size="10.00">::Mapping::isBoundToElement</text>
</a>
</g>
</g>
<!-- Node1&#45;&gt;Node8 -->
<g id="edge7" class="edge"><title>Node1&#45;&gt;Node8</title>
<path fill="none" stroke="midnightblue" d="M107.597,-243.117C115.988,-244.412 124.844,-245.778 133.737,-247.151"/>
<polygon fill="midnightblue" stroke="midnightblue" points="133.353,-250.633 143.769,-248.699 134.42,-243.715 133.353,-250.633"/>
</g>
<!-- Node10 -->
<g id="node10" class="node"><title>Node10</title>
<g id="a_node10"><a xlink:href="classRa_1_1Core_1_1Geometry_1_1Mapping.html#a77e6d8203213675dd143a7e48866cca2" target="_top" xlink:title="DELTA. ">
<polygon fill="white" stroke="black" points="165.5,-196 165.5,-226 270.5,-226 270.5,-196 165.5,-196"/>
<text text-anchor="start" x="173.5" y="-214" font-family="Helvetica,sans-Serif" font-size="10.00">Ra::Core::Geometry</text>
<text text-anchor="middle" x="218" y="-203" font-family="Helvetica,sans-Serif" font-size="10.00">::Mapping::getDelta</text>
</a>
</g>
</g>
<!-- Node1&#45;&gt;Node10 -->
<g id="edge9" class="edge"><title>Node1&#45;&gt;Node10</title>
<path fill="none" stroke="midnightblue" d="M107.597,-227.208C122.83,-224.951 139.598,-222.467 155.332,-220.136"/>
<polygon fill="midnightblue" stroke="midnightblue" points="156.117,-223.558 165.496,-218.63 155.091,-216.634 156.117,-223.558"/>
</g>
<!-- Node11 -->
<g id="node11" class="node"><title>Node11</title>
<g id="a_node11"><a xlink:href="classRa_1_1Core_1_1Geometry_1_1Mapping.html#a02cc79d48245d002d8fb6587a7ab6df9" target="_top" xlink:title="Ra::Core::Geometry\l::Mapping::setID">
<polygon fill="white" stroke="black" points="165.5,-147 165.5,-177 270.5,-177 270.5,-147 165.5,-147"/>
<text text-anchor="start" x="173.5" y="-165" font-family="Helvetica,sans-Serif" font-size="10.00">Ra::Core::Geometry</text>
<text text-anchor="middle" x="218" y="-154" font-family="Helvetica,sans-Serif" font-size="10.00">::Mapping::setID</text>
</a>
</g>
</g>
<!-- Node1&#45;&gt;Node11 -->
<g id="edge10" class="edge"><title>Node1&#45;&gt;Node11</title>
<path fill="none" stroke="midnightblue" d="M80.148,-219.994C97.6753,-209.897 121.804,-196.707 144,-187 149.063,-184.786 154.39,-182.636 159.764,-180.587"/>
<polygon fill="midnightblue" stroke="midnightblue" points="161.271,-183.762 169.441,-177.017 158.848,-177.195 161.271,-183.762"/>
</g>
<!-- Node12 -->
<g id="node12" class="node"><title>Node12</title>
<g id="a_node12"><a xlink:href="classRa_1_1Core_1_1Geometry_1_1Mapping.html#a34a8b68d4ff74a12aa4019b515ca68f4" target="_top" xlink:title="Ra::Core::Geometry\l::Mapping::setDelta">
<polygon fill="white" stroke="black" points="165.5,-98 165.5,-128 270.5,-128 270.5,-98 165.5,-98"/>
<text text-anchor="start" x="173.5" y="-116" font-family="Helvetica,sans-Serif" font-size="10.00">Ra::Core::Geometry</text>
<text text-anchor="middle" x="218" y="-105" font-family="Helvetica,sans-Serif" font-size="10.00">::Mapping::setDelta</text>
</a>
</g>
</g>
<!-- Node1&#45;&gt;Node12 -->
<g id="edge11" class="edge"><title>Node1&#45;&gt;Node12</title>
<path fill="none" stroke="midnightblue" d="M65.2697,-219.674C80.2246,-198.464 109.953,-160.266 144,-138 147.759,-135.541 151.786,-133.298 155.946,-131.256"/>
<polygon fill="midnightblue" stroke="midnightblue" points="157.521,-134.385 165.213,-127.1 154.657,-127.998 157.521,-134.385"/>
</g>
<!-- Node14 -->
<g id="node14" class="node"><title>Node14</title>
<g id="a_node14"><a xlink:href="classRa_1_1Core_1_1Geometry_1_1Mapping.html#a2404a199905a44261da201539c62db97" target="_top" xlink:title="Ra::Core::Geometry\l::Mapping::setAlpha">
<polygon fill="white" stroke="black" points="165.5,-49 165.5,-79 270.5,-79 270.5,-49 165.5,-49"/>
<text text-anchor="start" x="173.5" y="-67" font-family="Helvetica,sans-Serif" font-size="10.00">Ra::Core::Geometry</text>
<text text-anchor="middle" x="218" y="-56" font-family="Helvetica,sans-Serif" font-size="10.00">::Mapping::setAlpha</text>
</a>
</g>
</g>
<!-- Node1&#45;&gt;Node14 -->
<g id="edge13" class="edge"><title>Node1&#45;&gt;Node14</title>
<path fill="none" stroke="midnightblue" d="M60.2312,-219.803C71.14,-190.312 99.0987,-125.062 144,-89 147.721,-86.0116 151.82,-83.3708 156.12,-81.0387"/>
<polygon fill="midnightblue" stroke="midnightblue" points="157.684,-84.1699 165.171,-76.6729 154.643,-77.865 157.684,-84.1699"/>
</g>
<!-- Node15 -->
<g id="node15" class="node"><title>Node15</title>
<g id="a_node15"><a xlink:href="classRa_1_1Core_1_1Geometry_1_1Mapping.html#a982c41a377dbe1cd10e67b463c3d57b2" target="_top" xlink:title="Ra::Core::Geometry\l::Mapping::setBeta">
<polygon fill="white" stroke="black" points="165.5,-0 165.5,-30 270.5,-30 270.5,-0 165.5,-0"/>
<text text-anchor="start" x="173.5" y="-18" font-family="Helvetica,sans-Serif" font-size="10.00">Ra::Core::Geometry</text>
<text text-anchor="middle" x="218" y="-7" font-family="Helvetica,sans-Serif" font-size="10.00">::Mapping::setBeta</text>
</a>
</g>
</g>
<!-- Node1&#45;&gt;Node15 -->
<g id="edge14" class="edge"><title>Node1&#45;&gt;Node15</title>
<path fill="none" stroke="midnightblue" d="M57.667,-219.91C64.8596,-183.622 88.0247,-90.7305 144,-40 147.654,-36.6883 151.767,-33.8121 156.131,-31.3146"/>
<polygon fill="midnightblue" stroke="midnightblue" points="157.989,-34.2988 165.374,-26.7019 154.864,-28.0353 157.989,-34.2988"/>
</g>
<!-- Node3 -->
<g id="node3" class="node"><title>Node3</title>
<g id="a_node3"><a xlink:href="classRa_1_1Core_1_1AttribManager.html#aaa6088620425c1e1d74b50f1b50eb596" target="_top" xlink:title="Get attribute by handle. ">
<polygon fill="white" stroke="black" points="328.5,-431 328.5,-461 451.5,-461 451.5,-431 328.5,-431"/>
<text text-anchor="start" x="336.5" y="-449" font-family="Helvetica,sans-Serif" font-size="10.00">Ra::Core::AttribManager</text>
<text text-anchor="middle" x="390" y="-438" font-family="Helvetica,sans-Serif" font-size="10.00">::getAttrib</text>
</a>
</g>
</g>
<!-- Node2&#45;&gt;Node3 -->
<g id="edge2" class="edge"><title>Node2&#45;&gt;Node3</title>
<path fill="none" stroke="midnightblue" d="M278.936,-446C291.608,-446 305.096,-446 318.129,-446"/>
<polygon fill="midnightblue" stroke="midnightblue" points="318.458,-449.5 328.458,-446 318.458,-442.5 318.458,-449.5"/>
</g>
<!-- Node6 -->
<g id="node6" class="node"><title>Node6</title>
<g id="a_node6"><a xlink:href="namespaceOpenMesh.html#a71e7f1dd3eac016d2b8245ac408a291c" target="_top" xlink:title="OpenMesh::cross">
<polygon fill="white" stroke="black" points="343,-348.5 343,-367.5 437,-367.5 437,-348.5 343,-348.5"/>
<text text-anchor="middle" x="390" y="-355.5" font-family="Helvetica,sans-Serif" font-size="10.00">OpenMesh::cross</text>
</a>
</g>
</g>
<!-- Node5&#45;&gt;Node6 -->
<g id="edge5" class="edge"><title>Node5&#45;&gt;Node6</title>
<path fill="none" stroke="midnightblue" d="M270.929,-358C290.47,-358 312.772,-358 332.693,-358"/>
<polygon fill="midnightblue" stroke="midnightblue" points="332.866,-361.5 342.866,-358 332.866,-354.5 332.866,-361.5"/>
</g>
<!-- Node9 -->
<g id="node9" class="node"><title>Node9</title>
<g id="a_node9"><a xlink:href="classRa_1_1Core_1_1Geometry_1_1Mapping.html#a4f14c58a7a6f13376064743c9284019c" target="_top" xlink:title="ID. ">
<polygon fill="white" stroke="black" points="337.5,-245 337.5,-275 442.5,-275 442.5,-245 337.5,-245"/>
<text text-anchor="start" x="345.5" y="-263" font-family="Helvetica,sans-Serif" font-size="10.00">Ra::Core::Geometry</text>
<text text-anchor="middle" x="390" y="-252" font-family="Helvetica,sans-Serif" font-size="10.00">::Mapping::getID</text>
</a>
</g>
</g>
<!-- Node8&#45;&gt;Node9 -->
<g id="edge8" class="edge"><title>Node8&#45;&gt;Node9</title>
<path fill="none" stroke="midnightblue" d="M292.082,-260C303.726,-260 315.675,-260 327.03,-260"/>
<polygon fill="midnightblue" stroke="midnightblue" points="327.266,-263.5 337.266,-260 327.266,-256.5 327.266,-263.5"/>
</g>
<!-- Node13 -->
<g id="node13" class="node"><title>Node13</title>
<g id="a_node13"><a xlink:href="namespaceRa_1_1Core_1_1Algorithm.html#abebfe08bb2303204bea2baea8195439d" target="_top" xlink:title="Ra::Core::Algorithm\l::delta">
<polygon fill="white" stroke="black" points="338,-98 338,-128 442,-128 442,-98 338,-98"/>
<text text-anchor="start" x="346" y="-116" font-family="Helvetica,sans-Serif" font-size="10.00">Ra::Core::Algorithm</text>
<text text-anchor="middle" x="390" y="-105" font-family="Helvetica,sans-Serif" font-size="10.00">::delta</text>
</a>
</g>
</g>
<!-- Node12&#45;&gt;Node13 -->
<g id="edge12" class="edge"><title>Node12&#45;&gt;Node13</title>
<path fill="none" stroke="midnightblue" d="M270.929,-113C288.89,-113 309.184,-113 327.817,-113"/>
<polygon fill="midnightblue" stroke="midnightblue" points="327.973,-116.5 337.973,-113 327.973,-109.5 327.973,-116.5"/>
</g>
</g>
</svg>
