<?xml version="1.0" encoding="UTF-8" standalone="no"?>
<!DOCTYPE svg PUBLIC "-//W3C//DTD SVG 1.1//EN"
 "http://www.w3.org/Graphics/SVG/1.1/DTD/svg11.dtd">
<!-- Generated by graphviz version 2.36.0 (20140111.2315)
 -->
<!-- Title: Ra::Core::MeshUtils::getAutoNormals Pages: 1 -->
<svg width="728pt" height="149pt"
 viewBox="0.00 0.00 728.00 149.24" xmlns="http://www.w3.org/2000/svg" xmlns:xlink="http://www.w3.org/1999/xlink">
<g id="graph0" class="graph" transform="scale(1 1) rotate(0) translate(4 145.237)">
<title>Ra::Core::MeshUtils::getAutoNormals</title>
<polygon fill="white" stroke="none" points="-4,4 -4,-145.237 724,-145.237 724,4 -4,4"/>
<!-- Node1 -->
<g id="node1" class="node"><title>Node1</title>
<polygon fill="#bfbfbf" stroke="black" points="0.5,-71 0.5,-101 107.5,-101 107.5,-71 0.5,-71"/>
<text text-anchor="start" x="8.5" y="-89" font-family="Helvetica,sans-Serif" font-size="10.00">Ra::Core::MeshUtils</text>
<text text-anchor="middle" x="54" y="-78" font-family="Helvetica,sans-Serif" font-size="10.00">::getAutoNormals</text>
</g>
<!-- Node2 -->
<g id="node2" class="node"><title>Node2</title>
<g id="a_node2"><a xlink:href="classRa_1_1Core_1_1TriangleMesh.html#a495116f40cfec8bb6504698d786d4b8c" target="_top" xlink:title="Access the vertices positions. ">
<polygon fill="white" stroke="black" points="438.5,-109 438.5,-139 559.5,-139 559.5,-109 438.5,-109"/>
<text text-anchor="start" x="446.5" y="-127" font-family="Helvetica,sans-Serif" font-size="10.00">Ra::Core::TriangleMesh</text>
<text text-anchor="middle" x="499" y="-116" font-family="Helvetica,sans-Serif" font-size="10.00">::vertices</text>
</a>
</g>
</g>
<!-- Node1&#45;&gt;Node2 -->
<g id="edge1" class="edge"><title>Node1&#45;&gt;Node2</title>
<path fill="none" stroke="midnightblue" d="M80.0567,-101.106C97.346,-110.617 121.234,-122.008 144,-127 240.702,-148.203 355.863,-141.536 427.969,-133.677"/>
<polygon fill="midnightblue" stroke="midnightblue" points="428.744,-137.112 438.288,-132.512 427.958,-130.156 428.744,-137.112"/>
</g>
<!-- Node4 -->
<g id="node4" class="node"><title>Node4</title>
<g id="a_node4"><a xlink:href="namespaceRa_1_1Core_1_1Algorithm.html#aea294cdb6f4f0d85955bdcccb22886ec" target="_top" xlink:title="Ra::Core::Algorithm::t">
<polygon fill="white" stroke="black" points="144.5,-98.5 144.5,-117.5 257.5,-117.5 257.5,-98.5 144.5,-98.5"/>
<text text-anchor="middle" x="201" y="-105.5" font-family="Helvetica,sans-Serif" font-size="10.00">Ra::Core::Algorithm::t</text>
</a>
</g>
</g>
<!-- Node1&#45;&gt;Node4 -->
<g id="edge3" class="edge"><title>Node1&#45;&gt;Node4</title>
<path fill="none" stroke="midnightblue" d="M107.759,-94.0047C116.348,-95.308 125.338,-96.672 134.194,-98.0156"/>
<polygon fill="midnightblue" stroke="midnightblue" points="133.694,-101.48 144.106,-99.5195 134.744,-94.559 133.694,-101.48"/>
</g>
<!-- Node5 -->
<g id="node5" class="node"><title>Node5</title>
<g id="a_node5"><a xlink:href="namespaceRa_1_1Core_1_1MeshUtils.html#a8e323c96eb7e1199b5f05fdbf393f219" target="_top" xlink:title="Computes the normal of a given triangle. ">
<polygon fill="white" stroke="black" points="147.5,-49 147.5,-79 254.5,-79 254.5,-49 147.5,-49"/>
<text text-anchor="start" x="155.5" y="-67" font-family="Helvetica,sans-Serif" font-size="10.00">Ra::Core::MeshUtils</text>
<text text-anchor="middle" x="201" y="-56" font-family="Helvetica,sans-Serif" font-size="10.00">::getTriangleNormal</text>
</a>
</g>
</g>
<!-- Node1&#45;&gt;Node5 -->
<g id="edge4" class="edge"><title>Node1&#45;&gt;Node5</title>
<path fill="none" stroke="midnightblue" d="M107.759,-77.9953C117.254,-76.5546 127.239,-75.0396 136.99,-73.5601"/>
<polygon fill="midnightblue" stroke="midnightblue" points="137.676,-76.9962 147.038,-72.0356 136.626,-70.0754 137.676,-76.9962"/>
</g>
<!-- Node9 -->
<g id="node9" class="node"><title>Node9</title>
<g id="a_node9"><a xlink:href="classRa_1_1Core_1_1VectorArray.html#a33438b558d38baf22e7975d26b5c61ca" target="_top" xlink:title="Returns the array as an Eigen Matrix Map. ">
<polygon fill="white" stroke="black" points="144,-0 144,-30 258,-30 258,-0 144,-0"/>
<text text-anchor="start" x="152" y="-18" font-family="Helvetica,sans-Serif" font-size="10.00">Ra::Core::VectorArray</text>
<text text-anchor="middle" x="201" y="-7" font-family="Helvetica,sans-Serif" font-size="10.00">::getMap</text>
</a>
</g>
</g>
<!-- Node1&#45;&gt;Node9 -->
<g id="edge9" class="edge"><title>Node1&#45;&gt;Node9</title>
<path fill="none" stroke="midnightblue" d="M83.2502,-70.8745C100.644,-61.693 123.468,-49.8791 144,-40 147.994,-38.0785 152.169,-36.1208 156.362,-34.1897"/>
<polygon fill="midnightblue" stroke="midnightblue" points="157.852,-37.357 165.503,-30.0286 154.952,-30.9859 157.852,-37.357"/>
</g>
<!-- Node3 -->
<g id="node3" class="node"><title>Node3</title>
<g id="a_node3"><a xlink:href="classRa_1_1Core_1_1AttribManager.html#aaa6088620425c1e1d74b50f1b50eb596" target="_top" xlink:title="Get attribute by handle. ">
<polygon fill="white" stroke="black" points="596.5,-109 596.5,-139 719.5,-139 719.5,-109 596.5,-109"/>
<text text-anchor="start" x="604.5" y="-127" font-family="Helvetica,sans-Serif" font-size="10.00">Ra::Core::AttribManager</text>
<text text-anchor="middle" x="658" y="-116" font-family="Helvetica,sans-Serif" font-size="10.00">::getAttrib</text>
</a>
</g>
</g>
<!-- Node2&#45;&gt;Node3 -->
<g id="edge2" class="edge"><title>Node2&#45;&gt;Node3</title>
<path fill="none" stroke="midnightblue" d="M559.803,-124C568.398,-124 577.311,-124 586.096,-124"/>
<polygon fill="midnightblue" stroke="midnightblue" points="586.323,-127.5 596.323,-124 586.322,-120.5 586.323,-127.5"/>
</g>
<!-- Node6 -->
<g id="node6" class="node"><title>Node6</title>
<g id="a_node6"><a xlink:href="namespaceRa_1_1Core_1_1MeshUtils.html#afbee0fe3203a295fb1f93b33dfb33f81" target="_top" xlink:title="Fills the given array with the vertices of a given triangle. ">
<polygon fill="white" stroke="black" points="294.5,-87 294.5,-117 401.5,-117 401.5,-87 294.5,-87"/>
<text text-anchor="start" x="302.5" y="-105" font-family="Helvetica,sans-Serif" font-size="10.00">Ra::Core::MeshUtils</text>
<text text-anchor="middle" x="348" y="-94" font-family="Helvetica,sans-Serif" font-size="10.00">::getTriangleVertices</text>
</a>
</g>
</g>
<!-- Node5&#45;&gt;Node6 -->
<g id="edge5" class="edge"><title>Node5&#45;&gt;Node6</title>
<path fill="none" stroke="midnightblue" d="M254.759,-77.8264C264.354,-80.3411 274.449,-82.9866 284.298,-85.5678"/>
<polygon fill="midnightblue" stroke="midnightblue" points="283.477,-88.9708 294.038,-88.1202 285.252,-82.1994 283.477,-88.9708"/>
</g>
<!-- Node7 -->
<g id="node7" class="node"><title>Node7</title>
<g id="a_node7"><a xlink:href="namespaceRa_1_1Core_1_1Geometry.html#a2ce97206423345716bf1b55f60c1c227" target="_top" xlink:title="Ra::Core::Geometry\l::triangleNormal">
<polygon fill="white" stroke="black" points="295.5,-38 295.5,-68 400.5,-68 400.5,-38 295.5,-38"/>
<text text-anchor="start" x="303.5" y="-56" font-family="Helvetica,sans-Serif" font-size="10.00">Ra::Core::Geometry</text>
<text text-anchor="middle" x="348" y="-45" font-family="Helvetica,sans-Serif" font-size="10.00">::triangleNormal</text>
</a>
</g>
</g>
<!-- Node5&#45;&gt;Node7 -->
<g id="edge7" class="edge"><title>Node5&#45;&gt;Node7</title>
<path fill="none" stroke="midnightblue" d="M254.759,-59.9976C264.718,-59.2421 275.216,-58.4457 285.419,-57.6717"/>
<polygon fill="midnightblue" stroke="midnightblue" points="285.786,-61.154 295.492,-56.9075 285.256,-54.174 285.786,-61.154"/>
</g>
<!-- Node6&#45;&gt;Node2 -->
<g id="edge6" class="edge"><title>Node6&#45;&gt;Node2</title>
<path fill="none" stroke="midnightblue" d="M401.532,-109.756C410.176,-111.033 419.254,-112.373 428.239,-113.7"/>
<polygon fill="midnightblue" stroke="midnightblue" points="427.912,-117.189 438.317,-115.188 428.935,-110.264 427.912,-117.189"/>
</g>
<!-- Node8 -->
<g id="node8" class="node"><title>Node8</title>
<g id="a_node8"><a xlink:href="namespaceOpenMesh.html#a71e7f1dd3eac016d2b8245ac408a291c" target="_top" xlink:title="OpenMesh::cross">
<polygon fill="white" stroke="black" points="452,-43.5 452,-62.5 546,-62.5 546,-43.5 452,-43.5"/>
<text text-anchor="middle" x="499" y="-50.5" font-family="Helvetica,sans-Serif" font-size="10.00">OpenMesh::cross</text>
</a>
</g>
</g>
<!-- Node7&#45;&gt;Node8 -->
<g id="edge8" class="edge"><title>Node7&#45;&gt;Node8</title>
<path fill="none" stroke="midnightblue" d="M400.695,-53C413.957,-53 428.286,-53 441.764,-53"/>
<polygon fill="midnightblue" stroke="midnightblue" points="441.874,-56.5001 451.874,-53 441.874,-49.5001 441.874,-56.5001"/>
</g>
</g>
</svg>
