<?xml version="1.0" encoding="UTF-8" standalone="no"?>
<!DOCTYPE svg PUBLIC "-//W3C//DTD SVG 1.1//EN"
 "http://www.w3.org/Graphics/SVG/1.1/DTD/svg11.dtd">
<!-- Generated by graphviz version 2.36.0 (20140111.2315)
 -->
<!-- Title: Ra::Core::Geometry::uniformNormal Pages: 1 -->
<svg width="426pt" height="136pt"
 viewBox="0.00 0.00 426.00 136.00" xmlns="http://www.w3.org/2000/svg" xmlns:xlink="http://www.w3.org/1999/xlink">
<g id="graph0" class="graph" transform="scale(1 1) rotate(0) translate(4 132)">
<title>Ra::Core::Geometry::uniformNormal</title>
<polygon fill="white" stroke="none" points="-4,4 -4,-132 422,-132 422,4 -4,4"/>
<!-- Node1 -->
<g id="node1" class="node"><title>Node1</title>
<polygon fill="#bfbfbf" stroke="black" points="0.5,-49 0.5,-79 105.5,-79 105.5,-49 0.5,-49"/>
<text text-anchor="start" x="8.5" y="-67" font-family="Helvetica,sans-Serif" font-size="10.00">Ra::Core::Geometry</text>
<text text-anchor="middle" x="53" y="-56" font-family="Helvetica,sans-Serif" font-size="10.00">::uniformNormal</text>
</g>
<!-- Node2 -->
<g id="node2" class="node"><title>Node2</title>
<g id="a_node2"><a xlink:href="classRa_1_1Core_1_1CircularIndex.html#a209650affef46390ab727a90c8b51920" target="_top" xlink:title="Ra::Core::CircularIndex\l::setSize">
<polygon fill="white" stroke="black" points="142,-98 142,-128 262,-128 262,-98 142,-98"/>
<text text-anchor="start" x="150" y="-116" font-family="Helvetica,sans-Serif" font-size="10.00">Ra::Core::CircularIndex</text>
<text text-anchor="middle" x="202" y="-105" font-family="Helvetica,sans-Serif" font-size="10.00">::setSize</text>
</a>
</g>
</g>
<!-- Node1&#45;&gt;Node2 -->
<g id="edge1" class="edge"><title>Node1&#45;&gt;Node2</title>
<path fill="none" stroke="midnightblue" d="M99.3043,-79.1014C114.044,-84.0147 130.567,-89.5224 145.94,-94.6466"/>
<polygon fill="midnightblue" stroke="midnightblue" points="145.252,-98.1065 155.845,-97.9484 147.465,-91.4657 145.252,-98.1065"/>
</g>
<!-- Node4 -->
<g id="node4" class="node"><title>Node4</title>
<g id="a_node4"><a xlink:href="classRa_1_1Core_1_1CircularIndex.html#a748a857d5d9affc123a4ecc9c5ffc344" target="_top" xlink:title="Ra::Core::CircularIndex\l::setValue">
<polygon fill="white" stroke="black" points="142,-49 142,-79 262,-79 262,-49 142,-49"/>
<text text-anchor="start" x="150" y="-67" font-family="Helvetica,sans-Serif" font-size="10.00">Ra::Core::CircularIndex</text>
<text text-anchor="middle" x="202" y="-56" font-family="Helvetica,sans-Serif" font-size="10.00">::setValue</text>
</a>
</g>
</g>
<!-- Node1&#45;&gt;Node4 -->
<g id="edge3" class="edge"><title>Node1&#45;&gt;Node4</title>
<path fill="none" stroke="midnightblue" d="M105.827,-64C114.204,-64 122.993,-64 131.704,-64"/>
<polygon fill="midnightblue" stroke="midnightblue" points="131.864,-67.5001 141.864,-64 131.864,-60.5001 131.864,-67.5001"/>
</g>
<!-- Node5 -->
<g id="node5" class="node"><title>Node5</title>
<g id="a_node5"><a xlink:href="namespaceRa_1_1Core_1_1Geometry.html#a2ce97206423345716bf1b55f60c1c227" target="_top" xlink:title="Ra::Core::Geometry\l::triangleNormal">
<polygon fill="white" stroke="black" points="149.5,-0 149.5,-30 254.5,-30 254.5,-0 149.5,-0"/>
<text text-anchor="start" x="157.5" y="-18" font-family="Helvetica,sans-Serif" font-size="10.00">Ra::Core::Geometry</text>
<text text-anchor="middle" x="202" y="-7" font-family="Helvetica,sans-Serif" font-size="10.00">::triangleNormal</text>
</a>
</g>
</g>
<!-- Node1&#45;&gt;Node5 -->
<g id="edge4" class="edge"><title>Node1&#45;&gt;Node5</title>
<path fill="none" stroke="midnightblue" d="M99.3043,-48.8986C114.044,-43.9853 130.567,-38.4776 145.94,-33.3534"/>
<polygon fill="midnightblue" stroke="midnightblue" points="147.465,-36.5343 155.845,-30.0516 145.252,-29.8935 147.465,-36.5343"/>
</g>
<!-- Node3 -->
<g id="node3" class="node"><title>Node3</title>
<g id="a_node3"><a xlink:href="classRa_1_1Core_1_1CircularIndex.html#a49f32351ed0de532b6b5f125c81ad2ae" target="_top" xlink:title="DIMENSION. ">
<polygon fill="white" stroke="black" points="298,-98 298,-128 418,-128 418,-98 298,-98"/>
<text text-anchor="start" x="306" y="-116" font-family="Helvetica,sans-Serif" font-size="10.00">Ra::Core::CircularIndex</text>
<text text-anchor="middle" x="358" y="-105" font-family="Helvetica,sans-Serif" font-size="10.00">::size</text>
</a>
</g>
</g>
<!-- Node2&#45;&gt;Node3 -->
<g id="edge2" class="edge"><title>Node2&#45;&gt;Node3</title>
<path fill="none" stroke="midnightblue" d="M262.1,-113C270.422,-113 279.039,-113 287.533,-113"/>
<polygon fill="midnightblue" stroke="midnightblue" points="287.804,-116.5 297.804,-113 287.804,-109.5 287.804,-116.5"/>
</g>
<!-- Node6 -->
<g id="node6" class="node"><title>Node6</title>
<g id="a_node6"><a xlink:href="namespaceOpenMesh.html#a71e7f1dd3eac016d2b8245ac408a291c" target="_top" xlink:title="OpenMesh::cross">
<polygon fill="white" stroke="black" points="311,-5.5 311,-24.5 405,-24.5 405,-5.5 311,-5.5"/>
<text text-anchor="middle" x="358" y="-12.5" font-family="Helvetica,sans-Serif" font-size="10.00">OpenMesh::cross</text>
</a>
</g>
</g>
<!-- Node5&#45;&gt;Node6 -->
<g id="edge5" class="edge"><title>Node5&#45;&gt;Node6</title>
<path fill="none" stroke="midnightblue" d="M254.708,-15C269.475,-15 285.639,-15 300.668,-15"/>
<polygon fill="midnightblue" stroke="midnightblue" points="300.86,-18.5001 310.86,-15 300.86,-11.5001 300.86,-18.5001"/>
</g>
</g>
</svg>
