<?xml version="1.0" encoding="UTF-8" standalone="no"?>
<!DOCTYPE svg PUBLIC "-//W3C//DTD SVG 1.1//EN"
 "http://www.w3.org/Graphics/SVG/1.1/DTD/svg11.dtd">
<!-- Generated by graphviz version 2.36.0 (20140111.2315)
 -->
<!-- Title: /home/travis/build/STORM&#45;IRIT/Radium&#45;Engine/src/Core/Geometry/Normal/Normal.cpp Pages: 1 -->
<svg width="1614pt" height="570pt"
 viewBox="0.00 0.00 1613.66 570.00" xmlns="http://www.w3.org/2000/svg" xmlns:xlink="http://www.w3.org/1999/xlink">
<g id="graph0" class="graph" transform="scale(1 1) rotate(0) translate(4 566)">
<title>/home/travis/build/STORM&#45;IRIT/Radium&#45;Engine/src/Core/Geometry/Normal/Normal.cpp</title>
<polygon fill="white" stroke="none" points="-4,4 -4,-566 1609.66,-566 1609.66,4 -4,4"/>
<!-- Node1 -->
<g id="node1" class="node"><title>Node1</title>
<polygon fill="#bfbfbf" stroke="black" points="1172,-509 1172,-561 1320,-561 1320,-509 1172,-509"/>
<text text-anchor="start" x="1180" y="-549" font-family="Helvetica,sans-Serif" font-size="10.00">/home/travis/build</text>
<text text-anchor="start" x="1180" y="-538" font-family="Helvetica,sans-Serif" font-size="10.00">/STORM&#45;IRIT/Radium&#45;Engine</text>
<text text-anchor="start" x="1180" y="-527" font-family="Helvetica,sans-Serif" font-size="10.00">/src/Core/Geometry/Normal</text>
<text text-anchor="middle" x="1246" y="-516" font-family="Helvetica,sans-Serif" font-size="10.00">/Normal.cpp</text>
</g>
<!-- Node2 -->
<g id="node2" class="node"><title>Node2</title>
<g id="a_node2"><a xlink:href="Normal_8hpp.html" target="_top" xlink:title="Core/Geometry/Normal\l/Normal.hpp">
<polygon fill="white" stroke="black" points="547,-441 547,-471 665,-471 665,-441 547,-441"/>
<text text-anchor="start" x="555" y="-459" font-family="Helvetica,sans-Serif" font-size="10.00">Core/Geometry/Normal</text>
<text text-anchor="middle" x="606" y="-448" font-family="Helvetica,sans-Serif" font-size="10.00">/Normal.hpp</text>
</a>
</g>
</g>
<!-- Node1&#45;&gt;Node2 -->
<g id="edge1" class="edge"><title>Node1&#45;&gt;Node2</title>
<path fill="none" stroke="midnightblue" d="M1171.96,-525.092C1047.14,-510.075 796.611,-479.933 675.161,-465.321"/>
<polygon fill="midnightblue" stroke="midnightblue" points="675.576,-461.846 665.23,-464.126 674.74,-468.796 675.576,-461.846"/>
</g>
<!-- Node33 -->
<g id="node33" class="node"><title>Node33</title>
<g id="a_node33"><a xlink:href="TriangleOperation_8hpp.html" target="_top" xlink:title="Core/Geometry/Triangle\l/TriangleOperation.hpp">
<polygon fill="white" stroke="black" points="966.5,-373 966.5,-403 1087.5,-403 1087.5,-373 966.5,-373"/>
<text text-anchor="start" x="974.5" y="-391" font-family="Helvetica,sans-Serif" font-size="10.00">Core/Geometry/Triangle</text>
<text text-anchor="middle" x="1027" y="-380" font-family="Helvetica,sans-Serif" font-size="10.00">/TriangleOperation.hpp</text>
</a>
</g>
</g>
<!-- Node1&#45;&gt;Node33 -->
<g id="edge46" class="edge"><title>Node1&#45;&gt;Node33</title>
<path fill="none" stroke="midnightblue" d="M1207.85,-508.743C1164.79,-480.229 1095.64,-434.446 1056.5,-408.533"/>
<polygon fill="midnightblue" stroke="midnightblue" points="1058.43,-405.613 1048.16,-403.01 1054.57,-411.449 1058.43,-405.613"/>
</g>
<!-- Node34 -->
<g id="node34" class="node"><title>Node34</title>
<g id="a_node34"><a xlink:href="CircularIndex_8hpp.html" target="_top" xlink:title="Core/Index/CircularIndex.hpp">
<polygon fill="white" stroke="black" points="1436,-446.5 1436,-465.5 1580,-465.5 1580,-446.5 1436,-446.5"/>
<text text-anchor="middle" x="1508" y="-453.5" font-family="Helvetica,sans-Serif" font-size="10.00">Core/Index/CircularIndex.hpp</text>
</a>
</g>
</g>
<!-- Node1&#45;&gt;Node34 -->
<g id="edge48" class="edge"><title>Node1&#45;&gt;Node34</title>
<path fill="none" stroke="midnightblue" d="M1320.03,-512.244C1368.61,-497.966 1430.18,-479.872 1469.34,-468.362"/>
<polygon fill="midnightblue" stroke="midnightblue" points="1470.43,-471.691 1479.03,-465.513 1468.45,-464.975 1470.43,-471.691"/>
</g>
<!-- Node36 -->
<g id="node36" class="node"><title>Node36</title>
<g id="a_node36"><a xlink:href="Timer_8hpp.html" target="_top" xlink:title="Core/Time/Timer.hpp">
<polygon fill="white" stroke="black" points="1292.5,-446.5 1292.5,-465.5 1401.5,-465.5 1401.5,-446.5 1292.5,-446.5"/>
<text text-anchor="middle" x="1347" y="-453.5" font-family="Helvetica,sans-Serif" font-size="10.00">Core/Time/Timer.hpp</text>
</a>
</g>
</g>
<!-- Node1&#45;&gt;Node36 -->
<g id="edge52" class="edge"><title>Node1&#45;&gt;Node36</title>
<path fill="none" stroke="midnightblue" d="M1279.07,-508.787C1295.12,-496.554 1313.84,-482.282 1327.56,-471.821"/>
<polygon fill="midnightblue" stroke="midnightblue" points="1329.94,-474.404 1335.77,-465.558 1325.7,-468.837 1329.94,-474.404"/>
</g>
<!-- Node3 -->
<g id="node3" class="node"><title>Node3</title>
<g id="a_node3"><a xlink:href="VectorArray_8hpp.html" target="_top" xlink:title="Core/Containers/VectorArray.hpp">
<polygon fill="white" stroke="black" points="309.5,-310.5 309.5,-329.5 470.5,-329.5 470.5,-310.5 309.5,-310.5"/>
<text text-anchor="middle" x="390" y="-317.5" font-family="Helvetica,sans-Serif" font-size="10.00">Core/Containers/VectorArray.hpp</text>
</a>
</g>
</g>
<!-- Node2&#45;&gt;Node3 -->
<g id="edge2" class="edge"><title>Node2&#45;&gt;Node3</title>
<path fill="none" stroke="midnightblue" d="M546.876,-453.356C505.544,-449.13 451.737,-437.011 417,-404 399.27,-387.151 393.164,-358.552 391.073,-339.719"/>
<polygon fill="midnightblue" stroke="midnightblue" points="394.555,-339.357 390.234,-329.684 387.579,-339.94 394.555,-339.357"/>
</g>
<!-- Node14 -->
<g id="node14" class="node"><title>Node14</title>
<g id="a_node14"><a xlink:href="LinearAlgebra_8hpp.html" target="_top" xlink:title="Core/Math/LinearAlgebra.hpp">
<polygon fill="white" stroke="black" points="651.5,-242.5 651.5,-261.5 794.5,-261.5 794.5,-242.5 651.5,-242.5"/>
<text text-anchor="middle" x="723" y="-249.5" font-family="Helvetica,sans-Serif" font-size="10.00">Core/Math/LinearAlgebra.hpp</text>
</a>
</g>
</g>
<!-- Node2&#45;&gt;Node14 -->
<g id="edge44" class="edge"><title>Node2&#45;&gt;Node14</title>
<path fill="none" stroke="midnightblue" d="M616.085,-440.707C631.404,-418.722 661.07,-375.049 683,-336 695.194,-314.286 707.35,-288.285 715.005,-271.243"/>
<polygon fill="midnightblue" stroke="midnightblue" points="718.291,-272.467 719.149,-261.907 711.893,-269.627 718.291,-272.467"/>
</g>
<!-- Node25 -->
<g id="node25" class="node"><title>Node25</title>
<g id="a_node25"><a xlink:href="Adjacency_8hpp.html" target="_top" xlink:title="Core/Geometry/Adjacency\l/Adjacency.hpp">
<polygon fill="white" stroke="black" points="426,-373 426,-403 558,-403 558,-373 426,-373"/>
<text text-anchor="start" x="434" y="-391" font-family="Helvetica,sans-Serif" font-size="10.00">Core/Geometry/Adjacency</text>
<text text-anchor="middle" x="492" y="-380" font-family="Helvetica,sans-Serif" font-size="10.00">/Adjacency.hpp</text>
</a>
</g>
</g>
<!-- Node2&#45;&gt;Node25 -->
<g id="edge29" class="edge"><title>Node2&#45;&gt;Node25</title>
<path fill="none" stroke="midnightblue" d="M581.544,-440.841C565.165,-431.359 543.393,-418.754 525.42,-408.348"/>
<polygon fill="midnightblue" stroke="midnightblue" points="526.823,-405.117 516.415,-403.135 523.316,-411.175 526.823,-405.117"/>
</g>
<!-- Node26 -->
<g id="node26" class="node"><title>Node26</title>
<g id="a_node26"><a xlink:href="MeshTypes_8hpp.html" target="_top" xlink:title="Core/Mesh/MeshTypes.hpp">
<polygon fill="white" stroke="black" points="537.5,-310.5 537.5,-329.5 674.5,-329.5 674.5,-310.5 537.5,-310.5"/>
<text text-anchor="middle" x="606" y="-317.5" font-family="Helvetica,sans-Serif" font-size="10.00">Core/Mesh/MeshTypes.hpp</text>
</a>
</g>
</g>
<!-- Node2&#45;&gt;Node26 -->
<g id="edge45" class="edge"><title>Node2&#45;&gt;Node26</title>
<path fill="none" stroke="midnightblue" d="M606,-440.66C606,-416.32 606,-366.933 606,-339.837"/>
<polygon fill="midnightblue" stroke="midnightblue" points="609.5,-339.727 606,-329.728 602.5,-339.728 609.5,-339.727"/>
</g>
<!-- Node4 -->
<g id="node4" class="node"><title>Node4</title>
<g id="a_node4"><a xlink:href="AlignedStdVector_8hpp.html" target="_top" xlink:title="Core/Containers/AlignedStd\lVector.hpp">
<polygon fill="white" stroke="black" points="184,-237 184,-267 322,-267 322,-237 184,-237"/>
<text text-anchor="start" x="192" y="-255" font-family="Helvetica,sans-Serif" font-size="10.00">Core/Containers/AlignedStd</text>
<text text-anchor="middle" x="253" y="-244" font-family="Helvetica,sans-Serif" font-size="10.00">Vector.hpp</text>
</a>
</g>
</g>
<!-- Node3&#45;&gt;Node4 -->
<g id="edge3" class="edge"><title>Node3&#45;&gt;Node4</title>
<path fill="none" stroke="midnightblue" d="M372.09,-310.372C351.742,-300.569 317.937,-284.283 291.532,-271.563"/>
<polygon fill="midnightblue" stroke="midnightblue" points="292.705,-268.243 282.177,-267.056 289.667,-274.55 292.705,-268.243"/>
</g>
<!-- Node5 -->
<g id="node5" class="node"><title>Node5</title>
<g id="a_node5"><a xlink:href="RaCore_8hpp.html" target="_top" xlink:title="Core/RaCore.hpp">
<polygon fill="white" stroke="black" points="1224.5,-112.5 1224.5,-131.5 1317.5,-131.5 1317.5,-112.5 1224.5,-112.5"/>
<text text-anchor="middle" x="1271" y="-119.5" font-family="Helvetica,sans-Serif" font-size="10.00">Core/RaCore.hpp</text>
</a>
</g>
</g>
<!-- Node3&#45;&gt;Node5 -->
<g id="edge27" class="edge"><title>Node3&#45;&gt;Node5</title>
<path fill="none" stroke="midnightblue" d="M387.635,-310.18C381.204,-283.996 366.475,-206.16 407,-168 436.396,-140.319 1026.15,-127.388 1214.03,-123.961"/>
<polygon fill="midnightblue" stroke="midnightblue" points="1214.31,-127.456 1224.25,-123.776 1214.19,-120.457 1214.31,-127.456"/>
</g>
<!-- Node13 -->
<g id="node13" class="node"><title>Node13</title>
<polygon fill="white" stroke="#bfbfbf" points="154,-174.5 154,-193.5 198,-193.5 198,-174.5 154,-174.5"/>
<text text-anchor="middle" x="176" y="-181.5" font-family="Helvetica,sans-Serif" font-size="10.00">vector</text>
</g>
<!-- Node3&#45;&gt;Node13 -->
<g id="edge28" class="edge"><title>Node3&#45;&gt;Node13</title>
<path fill="none" stroke="midnightblue" d="M386.214,-310.248C378.426,-293.287 358.96,-255.864 331,-236 284.217,-202.764 260.573,-220.57 207,-200 205.35,-199.366 203.668,-198.679 201.982,-197.959"/>
<polygon fill="midnightblue" stroke="midnightblue" points="203.054,-194.6 192.505,-193.621 200.141,-200.965 203.054,-194.6"/>
</g>
<!-- Node3&#45;&gt;Node14 -->
<g id="edge13" class="edge"><title>Node3&#45;&gt;Node14</title>
<path fill="none" stroke="midnightblue" d="M433.193,-310.439C493.829,-298.421 604.106,-276.565 669.747,-263.555"/>
<polygon fill="midnightblue" stroke="midnightblue" points="670.755,-266.923 679.884,-261.546 669.394,-260.057 670.755,-266.923"/>
</g>
<!-- Node4&#45;&gt;Node5 -->
<g id="edge4" class="edge"><title>Node4&#45;&gt;Node5</title>
<path fill="none" stroke="midnightblue" d="M274.744,-236.961C290.261,-226.855 311.561,-212.803 330,-200 349.862,-186.209 351.199,-176.052 374,-168 452.868,-140.149 1029.68,-127.372 1214.32,-123.966"/>
<polygon fill="midnightblue" stroke="midnightblue" points="1214.43,-127.465 1224.36,-123.783 1214.3,-120.466 1214.43,-127.465"/>
</g>
<!-- Node12 -->
<g id="node12" class="node"><title>Node12</title>
<polygon fill="white" stroke="#bfbfbf" points="48,-174.5 48,-193.5 136,-193.5 136,-174.5 48,-174.5"/>
<text text-anchor="middle" x="92" y="-181.5" font-family="Helvetica,sans-Serif" font-size="10.00">Eigen/StdVector</text>
</g>
<!-- Node4&#45;&gt;Node12 -->
<g id="edge11" class="edge"><title>Node4&#45;&gt;Node12</title>
<path fill="none" stroke="midnightblue" d="M218.461,-236.841C189.989,-225.169 149.98,-208.768 122.635,-197.558"/>
<polygon fill="midnightblue" stroke="midnightblue" points="123.759,-194.237 113.179,-193.682 121.104,-200.713 123.759,-194.237"/>
</g>
<!-- Node4&#45;&gt;Node13 -->
<g id="edge12" class="edge"><title>Node4&#45;&gt;Node13</title>
<path fill="none" stroke="midnightblue" d="M236.292,-236.679C223.811,-225.981 206.773,-211.377 193.993,-200.422"/>
<polygon fill="midnightblue" stroke="midnightblue" points="196.17,-197.679 186.3,-193.828 191.614,-202.994 196.17,-197.679"/>
</g>
<!-- Node6 -->
<g id="node6" class="node"><title>Node6</title>
<g id="a_node6"><a xlink:href="CoreMacros_8hpp.html" target="_top" xlink:title="Core/CoreMacros.hpp">
<polygon fill="white" stroke="black" points="1381.5,-56.5 1381.5,-75.5 1494.5,-75.5 1494.5,-56.5 1381.5,-56.5"/>
<text text-anchor="middle" x="1438" y="-63.5" font-family="Helvetica,sans-Serif" font-size="10.00">Core/CoreMacros.hpp</text>
</a>
</g>
</g>
<!-- Node5&#45;&gt;Node6 -->
<g id="edge5" class="edge"><title>Node5&#45;&gt;Node6</title>
<path fill="none" stroke="midnightblue" d="M1297.46,-112.444C1325.68,-103.32 1370.54,-88.8133 1401.97,-78.6509"/>
<polygon fill="midnightblue" stroke="midnightblue" points="1403.22,-81.9234 1411.66,-75.5164 1401.07,-75.263 1403.22,-81.9234"/>
</g>
<!-- Node7 -->
<g id="node7" class="node"><title>Node7</title>
<polygon fill="white" stroke="#bfbfbf" points="1282.5,-0.5 1282.5,-19.5 1331.5,-19.5 1331.5,-0.5 1282.5,-0.5"/>
<text text-anchor="middle" x="1307" y="-7.5" font-family="Helvetica,sans-Serif" font-size="10.00">cassert</text>
</g>
<!-- Node6&#45;&gt;Node7 -->
<g id="edge6" class="edge"><title>Node6&#45;&gt;Node7</title>
<path fill="none" stroke="midnightblue" d="M1417.24,-56.4435C1395.68,-47.5566 1361.74,-33.5632 1337.21,-23.4514"/>
<polygon fill="midnightblue" stroke="midnightblue" points="1338.24,-20.0917 1327.66,-19.5164 1335.57,-26.5634 1338.24,-20.0917"/>
</g>
<!-- Node8 -->
<g id="node8" class="node"><title>Node8</title>
<polygon fill="white" stroke="#bfbfbf" points="1349.5,-0.5 1349.5,-19.5 1392.5,-19.5 1392.5,-0.5 1349.5,-0.5"/>
<text text-anchor="middle" x="1371" y="-7.5" font-family="Helvetica,sans-Serif" font-size="10.00">cstdio</text>
</g>
<!-- Node6&#45;&gt;Node8 -->
<g id="edge7" class="edge"><title>Node6&#45;&gt;Node8</title>
<path fill="none" stroke="midnightblue" d="M1427.24,-56.324C1417.23,-48.2631 1402.11,-36.0765 1390.07,-26.3695"/>
<polygon fill="midnightblue" stroke="midnightblue" points="1391.94,-23.3841 1381.96,-19.8339 1387.55,-28.8343 1391.94,-23.3841"/>
</g>
<!-- Node9 -->
<g id="node9" class="node"><title>Node9</title>
<polygon fill="white" stroke="#bfbfbf" points="1411,-0.5 1411,-19.5 1465,-19.5 1465,-0.5 1411,-0.5"/>
<text text-anchor="middle" x="1438" y="-7.5" font-family="Helvetica,sans-Serif" font-size="10.00">iostream</text>
</g>
<!-- Node6&#45;&gt;Node9 -->
<g id="edge8" class="edge"><title>Node6&#45;&gt;Node9</title>
<path fill="none" stroke="midnightblue" d="M1438,-56.083C1438,-49.0059 1438,-38.8611 1438,-29.9865"/>
<polygon fill="midnightblue" stroke="midnightblue" points="1441.5,-29.751 1438,-19.7511 1434.5,-29.7511 1441.5,-29.751"/>
</g>
<!-- Node10 -->
<g id="node10" class="node"><title>Node10</title>
<polygon fill="white" stroke="#bfbfbf" points="1483,-0.5 1483,-19.5 1535,-19.5 1535,-0.5 1483,-0.5"/>
<text text-anchor="middle" x="1509" y="-7.5" font-family="Helvetica,sans-Serif" font-size="10.00">sstream</text>
</g>
<!-- Node6&#45;&gt;Node10 -->
<g id="edge9" class="edge"><title>Node6&#45;&gt;Node10</title>
<path fill="none" stroke="midnightblue" d="M1449.41,-56.324C1460.11,-48.1849 1476.34,-35.8395 1489.16,-26.0874"/>
<polygon fill="midnightblue" stroke="midnightblue" points="1491.54,-28.6734 1497.39,-19.8339 1487.31,-23.1018 1491.54,-28.6734"/>
</g>
<!-- Node11 -->
<g id="node11" class="node"><title>Node11</title>
<polygon fill="white" stroke="#bfbfbf" points="1553,-0.5 1553,-19.5 1597,-19.5 1597,-0.5 1553,-0.5"/>
<text text-anchor="middle" x="1575" y="-7.5" font-family="Helvetica,sans-Serif" font-size="10.00">thread</text>
</g>
<!-- Node6&#45;&gt;Node11 -->
<g id="edge10" class="edge"><title>Node6&#45;&gt;Node11</title>
<path fill="none" stroke="midnightblue" d="M1459.71,-56.4435C1482.35,-47.5171 1518.07,-33.4387 1543.75,-23.3168"/>
<polygon fill="midnightblue" stroke="midnightblue" points="1545.37,-26.4397 1553.39,-19.5164 1542.81,-19.9273 1545.37,-26.4397"/>
</g>
<!-- Node14&#45;&gt;Node5 -->
<g id="edge14" class="edge"><title>Node14&#45;&gt;Node5</title>
<path fill="none" stroke="midnightblue" d="M794.666,-248.587C930.956,-243.351 1217,-229.014 1251,-200 1267.63,-185.811 1271.34,-159.741 1271.75,-141.9"/>
<polygon fill="midnightblue" stroke="midnightblue" points="1275.25,-141.771 1271.66,-131.803 1268.25,-141.836 1275.25,-141.771"/>
</g>
<!-- Node15 -->
<g id="node15" class="node"><title>Node15</title>
<polygon fill="white" stroke="#bfbfbf" points="596.5,-174.5 596.5,-193.5 661.5,-193.5 661.5,-174.5 596.5,-174.5"/>
<text text-anchor="middle" x="629" y="-181.5" font-family="Helvetica,sans-Serif" font-size="10.00">Eigen/Core</text>
</g>
<!-- Node14&#45;&gt;Node15 -->
<g id="edge15" class="edge"><title>Node14&#45;&gt;Node15</title>
<path fill="none" stroke="midnightblue" d="M710.711,-242.372C695.229,-231.502 668.395,-212.66 649.719,-199.547"/>
<polygon fill="midnightblue" stroke="midnightblue" points="651.487,-196.512 641.292,-193.63 647.465,-202.241 651.487,-196.512"/>
</g>
<!-- Node16 -->
<g id="node16" class="node"><title>Node16</title>
<polygon fill="white" stroke="#bfbfbf" points="679.5,-174.5 679.5,-193.5 766.5,-193.5 766.5,-174.5 679.5,-174.5"/>
<text text-anchor="middle" x="723" y="-181.5" font-family="Helvetica,sans-Serif" font-size="10.00">Eigen/Geometry</text>
</g>
<!-- Node14&#45;&gt;Node16 -->
<g id="edge16" class="edge"><title>Node14&#45;&gt;Node16</title>
<path fill="none" stroke="midnightblue" d="M723,-242.372C723,-232.643 723,-216.528 723,-203.85"/>
<polygon fill="midnightblue" stroke="midnightblue" points="726.5,-203.841 723,-193.841 719.5,-203.841 726.5,-203.841"/>
</g>
<!-- Node17 -->
<g id="node17" class="node"><title>Node17</title>
<polygon fill="white" stroke="#bfbfbf" points="784.5,-174.5 784.5,-193.5 859.5,-193.5 859.5,-174.5 784.5,-174.5"/>
<text text-anchor="middle" x="822" y="-181.5" font-family="Helvetica,sans-Serif" font-size="10.00">Eigen/Sparse</text>
</g>
<!-- Node14&#45;&gt;Node17 -->
<g id="edge17" class="edge"><title>Node14&#45;&gt;Node17</title>
<path fill="none" stroke="midnightblue" d="M735.943,-242.372C752.396,-231.403 781.025,-212.317 800.713,-199.191"/>
<polygon fill="midnightblue" stroke="midnightblue" points="802.675,-202.09 809.054,-193.63 798.792,-196.265 802.675,-202.09"/>
</g>
<!-- Node18 -->
<g id="node18" class="node"><title>Node18</title>
<polygon fill="white" stroke="#bfbfbf" points="877.5,-174.5 877.5,-193.5 936.5,-193.5 936.5,-174.5 877.5,-174.5"/>
<text text-anchor="middle" x="907" y="-181.5" font-family="Helvetica,sans-Serif" font-size="10.00">functional</text>
</g>
<!-- Node14&#45;&gt;Node18 -->
<g id="edge18" class="edge"><title>Node14&#45;&gt;Node18</title>
<path fill="none" stroke="midnightblue" d="M747.967,-242.465C776.923,-232.508 826.053,-215.44 868,-200 870.53,-199.069 873.146,-198.092 875.772,-197.103"/>
<polygon fill="midnightblue" stroke="midnightblue" points="877.078,-200.351 885.178,-193.521 874.587,-193.809 877.078,-200.351"/>
</g>
<!-- Node19 -->
<g id="node19" class="node"><title>Node19</title>
<polygon fill="white" stroke="#bfbfbf" points="954.5,-169 954.5,-199 1087.5,-199 1087.5,-169 954.5,-169"/>
<text text-anchor="start" x="962.5" y="-187" font-family="Helvetica,sans-Serif" font-size="10.00">unsupported/Eigen/Aligned</text>
<text text-anchor="middle" x="1021" y="-176" font-family="Helvetica,sans-Serif" font-size="10.00">Vector3</text>
</g>
<!-- Node14&#45;&gt;Node19 -->
<g id="edge19" class="edge"><title>Node14&#45;&gt;Node19</title>
<path fill="none" stroke="midnightblue" d="M761.653,-242.439C808.622,-232.037 888.872,-214.263 947.693,-201.236"/>
<polygon fill="midnightblue" stroke="midnightblue" points="948.67,-204.604 957.676,-199.025 947.156,-197.77 948.67,-204.604"/>
</g>
<!-- Node20 -->
<g id="node20" class="node"><title>Node20</title>
<g id="a_node20"><a xlink:href="Math_8hpp.html" target="_top" xlink:title="Core/Math/Math.hpp">
<polygon fill="white" stroke="black" points="216,-174.5 216,-193.5 322,-193.5 322,-174.5 216,-174.5"/>
<text text-anchor="middle" x="269" y="-181.5" font-family="Helvetica,sans-Serif" font-size="10.00">Core/Math/Math.hpp</text>
</a>
</g>
</g>
<!-- Node14&#45;&gt;Node20 -->
<g id="edge20" class="edge"><title>Node14&#45;&gt;Node20</title>
<path fill="none" stroke="midnightblue" d="M664.113,-242.439C578.491,-229.992 420.272,-206.991 332.255,-194.196"/>
<polygon fill="midnightblue" stroke="midnightblue" points="332.539,-190.7 322.14,-192.725 331.532,-197.627 332.539,-190.7"/>
</g>
<!-- Node24 -->
<g id="node24" class="node"><title>Node24</title>
<g id="a_node24"><a xlink:href="LinearAlgebra_8inl.html" target="_top" xlink:title="Core/Math/LinearAlgebra.inl">
<polygon fill="white" stroke="black" points="1105.5,-174.5 1105.5,-193.5 1242.5,-193.5 1242.5,-174.5 1105.5,-174.5"/>
<text text-anchor="middle" x="1174" y="-181.5" font-family="Helvetica,sans-Serif" font-size="10.00">Core/Math/LinearAlgebra.inl</text>
</a>
</g>
</g>
<!-- Node14&#45;&gt;Node24 -->
<g id="edge26" class="edge"><title>Node14&#45;&gt;Node24</title>
<path fill="none" stroke="midnightblue" d="M793.637,-242.498C868.778,-233.183 991.036,-217.255 1096,-200 1104.41,-198.617 1113.31,-197.028 1121.97,-195.412"/>
<polygon fill="midnightblue" stroke="midnightblue" points="1122.8,-198.816 1131.97,-193.514 1121.5,-191.938 1122.8,-198.816"/>
</g>
<!-- Node20&#45;&gt;Node5 -->
<g id="edge21" class="edge"><title>Node20&#45;&gt;Node5</title>
<path fill="none" stroke="midnightblue" d="M301.852,-174.461C312.658,-171.971 324.778,-169.515 336,-168 666.286,-123.418 1067.42,-121.386 1213.94,-122.341"/>
<polygon fill="midnightblue" stroke="midnightblue" points="1214.02,-125.842 1224.04,-122.415 1214.07,-118.842 1214.02,-125.842"/>
</g>
<!-- Node21 -->
<g id="node21" class="node"><title>Node21</title>
<polygon fill="white" stroke="#bfbfbf" points="337,-112.5 337,-131.5 393,-131.5 393,-112.5 337,-112.5"/>
<text text-anchor="middle" x="365" y="-119.5" font-family="Helvetica,sans-Serif" font-size="10.00">algorithm</text>
</g>
<!-- Node20&#45;&gt;Node21 -->
<g id="edge22" class="edge"><title>Node20&#45;&gt;Node21</title>
<path fill="none" stroke="midnightblue" d="M282.754,-174.403C298.366,-164.646 324.063,-148.585 342.583,-137.011"/>
<polygon fill="midnightblue" stroke="midnightblue" points="344.646,-139.849 351.271,-131.581 340.936,-133.913 344.646,-139.849"/>
</g>
<!-- Node22 -->
<g id="node22" class="node"><title>Node22</title>
<polygon fill="white" stroke="#bfbfbf" points="157,-112.5 157,-131.5 201,-131.5 201,-112.5 157,-112.5"/>
<text text-anchor="middle" x="179" y="-119.5" font-family="Helvetica,sans-Serif" font-size="10.00">cmath</text>
</g>
<!-- Node20&#45;&gt;Node22 -->
<g id="edge23" class="edge"><title>Node20&#45;&gt;Node22</title>
<path fill="none" stroke="midnightblue" d="M256.105,-174.403C241.536,-164.691 217.598,-148.732 200.255,-137.17"/>
<polygon fill="midnightblue" stroke="midnightblue" points="202.133,-134.215 191.871,-131.581 198.25,-140.04 202.133,-134.215"/>
</g>
<!-- Node23 -->
<g id="node23" class="node"><title>Node23</title>
<g id="a_node23"><a xlink:href="Math_8inl.html" target="_top" xlink:title="Core/Math/Math.inl">
<polygon fill="white" stroke="black" points="219,-112.5 219,-131.5 319,-131.5 319,-112.5 219,-112.5"/>
<text text-anchor="middle" x="269" y="-119.5" font-family="Helvetica,sans-Serif" font-size="10.00">Core/Math/Math.inl</text>
</a>
</g>
</g>
<!-- Node20&#45;&gt;Node23 -->
<g id="edge24" class="edge"><title>Node20&#45;&gt;Node23</title>
<path fill="none" stroke="midnightblue" d="M264.099,-174.403C262.268,-165.938 261.797,-152.728 262.685,-141.82"/>
<polygon fill="midnightblue" stroke="midnightblue" points="266.198,-141.966 264.103,-131.581 259.264,-141.006 266.198,-141.966"/>
</g>
<!-- Node23&#45;&gt;Node20 -->
<g id="edge25" class="edge"><title>Node23&#45;&gt;Node20</title>
<path fill="none" stroke="midnightblue" d="M273.897,-131.581C275.73,-140.04 276.203,-153.248 275.317,-164.16"/>
<polygon fill="midnightblue" stroke="midnightblue" points="271.803,-164.018 273.901,-174.403 278.737,-164.977 271.803,-164.018"/>
</g>
<!-- Node25&#45;&gt;Node3 -->
<g id="edge31" class="edge"><title>Node25&#45;&gt;Node3</title>
<path fill="none" stroke="midnightblue" d="M470.118,-372.841C453.029,-361.784 429.38,-346.481 412.208,-335.37"/>
<polygon fill="midnightblue" stroke="midnightblue" points="413.715,-332.176 403.417,-329.682 409.912,-338.053 413.715,-332.176"/>
</g>
<!-- Node25&#45;&gt;Node4 -->
<g id="edge30" class="edge"><title>Node25&#45;&gt;Node4</title>
<path fill="none" stroke="midnightblue" d="M425.86,-382.28C385.953,-376.516 336.032,-363.826 300,-336 280.537,-320.97 267.839,-295.448 260.607,-276.664"/>
<polygon fill="midnightblue" stroke="midnightblue" points="263.82,-275.257 257.143,-267.032 257.233,-277.626 263.82,-275.257"/>
</g>
<!-- Node25&#45;&gt;Node14 -->
<g id="edge32" class="edge"><title>Node25&#45;&gt;Node14</title>
<path fill="none" stroke="midnightblue" d="M494.264,-372.703C497.971,-354.107 507.131,-321.889 528,-304 559.339,-277.135 603.199,-264.2 641.387,-258.061"/>
<polygon fill="midnightblue" stroke="midnightblue" points="642.094,-261.495 651.476,-256.573 641.072,-254.57 642.094,-261.495"/>
</g>
<!-- Node25&#45;&gt;Node26 -->
<g id="edge33" class="edge"><title>Node25&#45;&gt;Node26</title>
<path fill="none" stroke="midnightblue" d="M516.456,-372.841C535.909,-361.579 562.968,-345.913 582.238,-334.757"/>
<polygon fill="midnightblue" stroke="midnightblue" points="584.103,-337.721 591.004,-329.682 580.596,-331.663 584.103,-337.721"/>
</g>
<!-- Node30 -->
<g id="node30" class="node"><title>Node30</title>
<g id="a_node30"><a xlink:href="AdjacencyList_8hpp.html" target="_top" xlink:title="Core/Utils/Graph/Adjacency\lList.hpp">
<polygon fill="white" stroke="black" points="70.5,-305 70.5,-335 209.5,-335 209.5,-305 70.5,-305"/>
<text text-anchor="start" x="78.5" y="-323" font-family="Helvetica,sans-Serif" font-size="10.00">Core/Utils/Graph/Adjacency</text>
<text text-anchor="middle" x="140" y="-312" font-family="Helvetica,sans-Serif" font-size="10.00">List.hpp</text>
</a>
</g>
</g>
<!-- Node25&#45;&gt;Node30 -->
<g id="edge39" class="edge"><title>Node25&#45;&gt;Node30</title>
<path fill="none" stroke="midnightblue" d="M425.791,-374.586C367.31,-363.621 281.901,-347.606 219.69,-335.942"/>
<polygon fill="midnightblue" stroke="midnightblue" points="219.998,-332.439 209.524,-334.036 218.708,-339.319 219.998,-332.439"/>
</g>
<!-- Node26&#45;&gt;Node5 -->
<g id="edge38" class="edge"><title>Node26&#45;&gt;Node5</title>
<path fill="none" stroke="midnightblue" d="M674.623,-317.432C829.203,-312.305 1197.1,-290.635 1273,-200 1286.45,-183.936 1282.69,-158.693 1277.74,-141.523"/>
<polygon fill="midnightblue" stroke="midnightblue" points="1280.93,-140 1274.49,-131.584 1274.28,-142.177 1280.93,-140"/>
</g>
<!-- Node26&#45;&gt;Node14 -->
<g id="edge37" class="edge"><title>Node26&#45;&gt;Node14</title>
<path fill="none" stroke="midnightblue" d="M621.296,-310.372C641.003,-299.254 675.491,-279.8 698.78,-266.662"/>
<polygon fill="midnightblue" stroke="midnightblue" points="700.71,-269.592 707.701,-261.63 697.271,-263.495 700.71,-269.592"/>
</g>
<!-- Node27 -->
<g id="node27" class="node"><title>Node27</title>
<g id="a_node27"><a xlink:href="Index_8hpp.html" target="_top" xlink:title="Core/Index/Index.hpp">
<polygon fill="white" stroke="black" points="471,-242.5 471,-261.5 581,-261.5 581,-242.5 471,-242.5"/>
<text text-anchor="middle" x="526" y="-249.5" font-family="Helvetica,sans-Serif" font-size="10.00">Core/Index/Index.hpp</text>
</a>
</g>
</g>
<!-- Node26&#45;&gt;Node27 -->
<g id="edge34" class="edge"><title>Node26&#45;&gt;Node27</title>
<path fill="none" stroke="midnightblue" d="M595.541,-310.372C582.605,-299.699 560.355,-281.343 544.507,-268.268"/>
<polygon fill="midnightblue" stroke="midnightblue" points="546.402,-265.295 536.461,-261.63 541.948,-270.694 546.402,-265.295"/>
</g>
<!-- Node28 -->
<g id="node28" class="node"><title>Node28</title>
<polygon fill="white" stroke="#bfbfbf" points="416,-174.5 416,-193.5 456,-193.5 456,-174.5 416,-174.5"/>
<text text-anchor="middle" x="436" y="-181.5" font-family="Helvetica,sans-Serif" font-size="10.00">limits</text>
</g>
<!-- Node27&#45;&gt;Node28 -->
<g id="edge35" class="edge"><title>Node27&#45;&gt;Node28</title>
<path fill="none" stroke="midnightblue" d="M514.234,-242.372C499.411,-231.502 473.718,-212.66 455.837,-199.547"/>
<polygon fill="midnightblue" stroke="midnightblue" points="457.903,-196.722 447.769,-193.63 453.763,-202.367 457.903,-196.722"/>
</g>
<!-- Node29 -->
<g id="node29" class="node"><title>Node29</title>
<g id="a_node29"><a xlink:href="Index_8inl.html" target="_top" xlink:title="Core/Index/Index.inl">
<polygon fill="white" stroke="black" points="474,-174.5 474,-193.5 578,-193.5 578,-174.5 474,-174.5"/>
<text text-anchor="middle" x="526" y="-181.5" font-family="Helvetica,sans-Serif" font-size="10.00">Core/Index/Index.inl</text>
</a>
</g>
</g>
<!-- Node27&#45;&gt;Node29 -->
<g id="edge36" class="edge"><title>Node27&#45;&gt;Node29</title>
<path fill="none" stroke="midnightblue" d="M526,-242.372C526,-232.643 526,-216.528 526,-203.85"/>
<polygon fill="midnightblue" stroke="midnightblue" points="529.5,-203.841 526,-193.841 522.5,-203.841 529.5,-203.841"/>
</g>
<!-- Node30&#45;&gt;Node4 -->
<g id="edge40" class="edge"><title>Node30&#45;&gt;Node4</title>
<path fill="none" stroke="midnightblue" d="M164.241,-304.841C180.477,-295.359 202.057,-282.754 219.873,-272.348"/>
<polygon fill="midnightblue" stroke="midnightblue" points="221.929,-275.201 228.799,-267.135 218.398,-269.156 221.929,-275.201"/>
</g>
<!-- Node31 -->
<g id="node31" class="node"><title>Node31</title>
<g id="a_node31"><a xlink:href="AdjacencyList_8inl.html" target="_top" xlink:title="Core/Utils/Graph/Adjacency\lList.inl">
<polygon fill="white" stroke="black" points="26.5,-237 26.5,-267 165.5,-267 165.5,-237 26.5,-237"/>
<text text-anchor="start" x="34.5" y="-255" font-family="Helvetica,sans-Serif" font-size="10.00">Core/Utils/Graph/Adjacency</text>
<text text-anchor="middle" x="96" y="-244" font-family="Helvetica,sans-Serif" font-size="10.00">List.inl</text>
</a>
</g>
</g>
<!-- Node30&#45;&gt;Node31 -->
<g id="edge41" class="edge"><title>Node30&#45;&gt;Node31</title>
<path fill="none" stroke="midnightblue" d="M124.774,-304.679C118.167,-296.376 110.796,-285.721 105.016,-276.245"/>
<polygon fill="midnightblue" stroke="midnightblue" points="107.881,-274.208 99.8539,-267.293 101.817,-277.704 107.881,-274.208"/>
</g>
<!-- Node31&#45;&gt;Node30 -->
<g id="edge42" class="edge"><title>Node31&#45;&gt;Node30</title>
<path fill="none" stroke="midnightblue" d="M111.204,-267.293C117.809,-275.591 125.181,-286.244 130.964,-295.723"/>
<polygon fill="midnightblue" stroke="midnightblue" points="128.102,-297.766 136.131,-304.679 134.166,-294.268 128.102,-297.766"/>
</g>
<!-- Node32 -->
<g id="node32" class="node"><title>Node32</title>
<polygon fill="white" stroke="#bfbfbf" points="0,-174.5 0,-193.5 30,-193.5 30,-174.5 0,-174.5"/>
<text text-anchor="middle" x="15" y="-181.5" font-family="Helvetica,sans-Serif" font-size="10.00">set</text>
</g>
<!-- Node31&#45;&gt;Node32 -->
<g id="edge43" class="edge"><title>Node31&#45;&gt;Node32</title>
<path fill="none" stroke="midnightblue" d="M78.4242,-236.679C65.2944,-225.981 47.3715,-211.377 33.9273,-200.422"/>
<polygon fill="midnightblue" stroke="midnightblue" points="35.798,-197.432 25.8347,-193.828 31.3762,-202.858 35.798,-197.432"/>
</g>
<!-- Node33&#45;&gt;Node14 -->
<g id="edge47" class="edge"><title>Node33&#45;&gt;Node14</title>
<path fill="none" stroke="midnightblue" d="M995.041,-372.913C935.525,-346.679 808.597,-290.73 751.669,-265.637"/>
<polygon fill="midnightblue" stroke="midnightblue" points="753.08,-262.434 742.518,-261.603 750.257,-268.84 753.08,-262.434"/>
</g>
<!-- Node34&#45;&gt;Node6 -->
<g id="edge49" class="edge"><title>Node34&#45;&gt;Node6</title>
<path fill="none" stroke="midnightblue" d="M1529.55,-446.417C1547.41,-438.189 1572.04,-424.047 1586,-404 1607.63,-372.947 1605,-358.843 1605,-321 1605,-321 1605,-321 1605,-183 1605,-124.709 1535.52,-93.3542 1486.19,-78.4385"/>
<polygon fill="midnightblue" stroke="midnightblue" points="1486.89,-74.9975 1476.31,-75.5863 1484.95,-81.7229 1486.89,-74.9975"/>
</g>
<!-- Node35 -->
<g id="node35" class="node"><title>Node35</title>
<g id="a_node35"><a xlink:href="CircularIndex_8inl.html" target="_top" xlink:title="Core/Index/CircularIndex.inl">
<polygon fill="white" stroke="black" points="1439,-378.5 1439,-397.5 1577,-397.5 1577,-378.5 1439,-378.5"/>
<text text-anchor="middle" x="1508" y="-385.5" font-family="Helvetica,sans-Serif" font-size="10.00">Core/Index/CircularIndex.inl</text>
</a>
</g>
</g>
<!-- Node34&#45;&gt;Node35 -->
<g id="edge50" class="edge"><title>Node34&#45;&gt;Node35</title>
<path fill="none" stroke="midnightblue" d="M1503.27,-446.372C1501.2,-436.643 1500.72,-420.528 1501.83,-407.85"/>
<polygon fill="midnightblue" stroke="midnightblue" points="1505.32,-408.227 1503.22,-397.841 1498.38,-407.265 1505.32,-408.227"/>
</g>
<!-- Node35&#45;&gt;Node34 -->
<g id="edge51" class="edge"><title>Node35&#45;&gt;Node34</title>
<path fill="none" stroke="midnightblue" d="M1512.78,-397.841C1514.82,-407.662 1515.28,-423.798 1514.14,-436.425"/>
<polygon fill="midnightblue" stroke="midnightblue" points="1510.67,-435.979 1512.73,-446.372 1517.6,-436.962 1510.67,-435.979"/>
</g>
<!-- Node36&#45;&gt;Node5 -->
<g id="edge53" class="edge"><title>Node36&#45;&gt;Node5</title>
<path fill="none" stroke="midnightblue" d="M1347,-446.22C1347,-424.814 1347,-368.226 1347,-321 1347,-321 1347,-321 1347,-251 1347,-204.994 1310.25,-161.079 1287.86,-138.591"/>
<polygon fill="midnightblue" stroke="midnightblue" points="1290.24,-136.019 1280.63,-131.562 1285.36,-141.04 1290.24,-136.019"/>
</g>
<!-- Node37 -->
<g id="node37" class="node"><title>Node37</title>
<polygon fill="white" stroke="#bfbfbf" points="1375,-378.5 1375,-397.5 1421,-397.5 1421,-378.5 1375,-378.5"/>
<text text-anchor="middle" x="1398" y="-385.5" font-family="Helvetica,sans-Serif" font-size="10.00">chrono</text>
</g>
<!-- Node36&#45;&gt;Node37 -->
<g id="edge54" class="edge"><title>Node36&#45;&gt;Node37</title>
<path fill="none" stroke="midnightblue" d="M1353.67,-446.372C1361.56,-436.151 1374.91,-418.884 1384.9,-405.957"/>
<polygon fill="midnightblue" stroke="midnightblue" points="1387.82,-407.894 1391.17,-397.841 1382.28,-403.614 1387.82,-407.894"/>
</g>
</g>
</svg>
