<?xml version="1.0" encoding="UTF-8" standalone="no"?>
<!DOCTYPE svg PUBLIC "-//W3C//DTD SVG 1.1//EN"
 "http://www.w3.org/Graphics/SVG/1.1/DTD/svg11.dtd">
<!-- Generated by graphviz version 2.36.0 (20140111.2315)
 -->
<!-- Title: /home/travis/build/STORM&#45;IRIT/Radium&#45;Engine/src/Core/Math/Obb.hpp Pages: 1 -->
<svg width="962pt" height="342pt"
 viewBox="0.00 0.00 962.00 342.00" xmlns="http://www.w3.org/2000/svg" xmlns:xlink="http://www.w3.org/1999/xlink">
<g id="graph0" class="graph" transform="scale(1 1) rotate(0) translate(4 338)">
<title>/home/travis/build/STORM&#45;IRIT/Radium&#45;Engine/src/Core/Math/Obb.hpp</title>
<polygon fill="white" stroke="none" points="-4,4 -4,-338 958,-338 958,4 -4,4"/>
<!-- Node1 -->
<g id="node1" class="node"><title>Node1</title>
<polygon fill="#bfbfbf" stroke="black" points="404,-292.5 404,-333.5 552,-333.5 552,-292.5 404,-292.5"/>
<text text-anchor="start" x="412" y="-321.5" font-family="Helvetica,sans-Serif" font-size="10.00">/home/travis/build</text>
<text text-anchor="start" x="412" y="-310.5" font-family="Helvetica,sans-Serif" font-size="10.00">/STORM&#45;IRIT/Radium&#45;Engine</text>
<text text-anchor="middle" x="478" y="-299.5" font-family="Helvetica,sans-Serif" font-size="10.00">/src/Core/Math/Obb.hpp</text>
</g>
<!-- Node2 -->
<g id="node2" class="node"><title>Node2</title>
<g id="a_node2"><a xlink:href="RaCore_8hpp.html" target="_top" xlink:title="Core/RaCore.hpp">
<polygon fill="white" stroke="black" points="108.5,-112.5 108.5,-131.5 201.5,-131.5 201.5,-112.5 108.5,-112.5"/>
<text text-anchor="middle" x="155" y="-119.5" font-family="Helvetica,sans-Serif" font-size="10.00">Core/RaCore.hpp</text>
</a>
</g>
</g>
<!-- Node1&#45;&gt;Node2 -->
<g id="edge1" class="edge"><title>Node1&#45;&gt;Node2</title>
<path fill="none" stroke="midnightblue" d="M403.78,-309.741C326.961,-302.959 210.46,-279.255 154,-200 141.91,-183.029 144.912,-158.181 149.111,-141.338"/>
<polygon fill="midnightblue" stroke="midnightblue" points="152.514,-142.166 151.896,-131.59 145.784,-140.243 152.514,-142.166"/>
</g>
<!-- Node9 -->
<g id="node9" class="node"><title>Node9</title>
<g id="a_node9"><a xlink:href="LinearAlgebra_8hpp.html" target="_top" xlink:title="Core/Math/LinearAlgebra.hpp">
<polygon fill="white" stroke="black" points="337.5,-236.5 337.5,-255.5 480.5,-255.5 480.5,-236.5 337.5,-236.5"/>
<text text-anchor="middle" x="409" y="-243.5" font-family="Helvetica,sans-Serif" font-size="10.00">Core/Math/LinearAlgebra.hpp</text>
</a>
</g>
</g>
<!-- Node1&#45;&gt;Node9 -->
<g id="edge8" class="edge"><title>Node1&#45;&gt;Node9</title>
<path fill="none" stroke="midnightblue" d="M457.298,-292.498C447.126,-282.915 435.038,-271.528 425.499,-262.543"/>
<polygon fill="midnightblue" stroke="midnightblue" points="427.864,-259.962 418.185,-255.652 423.064,-265.057 427.864,-259.962"/>
</g>
<!-- Node20 -->
<g id="node20" class="node"><title>Node20</title>
<g id="a_node20"><a xlink:href="Obb_8inl.html" target="_top" xlink:title="Core/Math/Obb.inl">
<polygon fill="white" stroke="black" points="499,-236.5 499,-255.5 595,-255.5 595,-236.5 499,-236.5"/>
<text text-anchor="middle" x="547" y="-243.5" font-family="Helvetica,sans-Serif" font-size="10.00">Core/Math/Obb.inl</text>
</a>
</g>
</g>
<!-- Node1&#45;&gt;Node20 -->
<g id="edge22" class="edge"><title>Node1&#45;&gt;Node20</title>
<path fill="none" stroke="midnightblue" d="M492.457,-292.498C502.033,-282.724 514.553,-271.072 525.277,-262.007"/>
<polygon fill="midnightblue" stroke="midnightblue" points="527.523,-264.691 533.051,-255.652 523.093,-259.272 527.523,-264.691"/>
</g>
<!-- Node3 -->
<g id="node3" class="node"><title>Node3</title>
<g id="a_node3"><a xlink:href="CoreMacros_8hpp.html" target="_top" xlink:title="Core/CoreMacros.hpp">
<polygon fill="white" stroke="black" points="98.5,-56.5 98.5,-75.5 211.5,-75.5 211.5,-56.5 98.5,-56.5"/>
<text text-anchor="middle" x="155" y="-63.5" font-family="Helvetica,sans-Serif" font-size="10.00">Core/CoreMacros.hpp</text>
</a>
</g>
</g>
<!-- Node2&#45;&gt;Node3 -->
<g id="edge2" class="edge"><title>Node2&#45;&gt;Node3</title>
<path fill="none" stroke="midnightblue" d="M155,-112.083C155,-105.006 155,-94.8611 155,-85.9865"/>
<polygon fill="midnightblue" stroke="midnightblue" points="158.5,-85.751 155,-75.7511 151.5,-85.7511 158.5,-85.751"/>
</g>
<!-- Node4 -->
<g id="node4" class="node"><title>Node4</title>
<polygon fill="white" stroke="#bfbfbf" points="-0.5,-0.5 -0.5,-19.5 48.5,-19.5 48.5,-0.5 -0.5,-0.5"/>
<text text-anchor="middle" x="24" y="-7.5" font-family="Helvetica,sans-Serif" font-size="10.00">cassert</text>
</g>
<!-- Node3&#45;&gt;Node4 -->
<g id="edge3" class="edge"><title>Node3&#45;&gt;Node4</title>
<path fill="none" stroke="midnightblue" d="M134.243,-56.4435C112.684,-47.5566 78.7367,-33.5632 54.2062,-23.4514"/>
<polygon fill="midnightblue" stroke="midnightblue" points="55.2394,-20.0917 44.6602,-19.5164 52.5717,-26.5634 55.2394,-20.0917"/>
</g>
<!-- Node5 -->
<g id="node5" class="node"><title>Node5</title>
<polygon fill="white" stroke="#bfbfbf" points="66.5,-0.5 66.5,-19.5 109.5,-19.5 109.5,-0.5 66.5,-0.5"/>
<text text-anchor="middle" x="88" y="-7.5" font-family="Helvetica,sans-Serif" font-size="10.00">cstdio</text>
</g>
<!-- Node3&#45;&gt;Node5 -->
<g id="edge4" class="edge"><title>Node3&#45;&gt;Node5</title>
<path fill="none" stroke="midnightblue" d="M144.235,-56.324C134.234,-48.2631 119.113,-36.0765 107.07,-26.3695"/>
<polygon fill="midnightblue" stroke="midnightblue" points="108.943,-23.3841 98.9606,-19.8339 104.55,-28.8343 108.943,-23.3841"/>
</g>
<!-- Node6 -->
<g id="node6" class="node"><title>Node6</title>
<polygon fill="white" stroke="#bfbfbf" points="128,-0.5 128,-19.5 182,-19.5 182,-0.5 128,-0.5"/>
<text text-anchor="middle" x="155" y="-7.5" font-family="Helvetica,sans-Serif" font-size="10.00">iostream</text>
</g>
<!-- Node3&#45;&gt;Node6 -->
<g id="edge5" class="edge"><title>Node3&#45;&gt;Node6</title>
<path fill="none" stroke="midnightblue" d="M155,-56.083C155,-49.0059 155,-38.8611 155,-29.9865"/>
<polygon fill="midnightblue" stroke="midnightblue" points="158.5,-29.751 155,-19.7511 151.5,-29.7511 158.5,-29.751"/>
</g>
<!-- Node7 -->
<g id="node7" class="node"><title>Node7</title>
<polygon fill="white" stroke="#bfbfbf" points="200,-0.5 200,-19.5 252,-19.5 252,-0.5 200,-0.5"/>
<text text-anchor="middle" x="226" y="-7.5" font-family="Helvetica,sans-Serif" font-size="10.00">sstream</text>
</g>
<!-- Node3&#45;&gt;Node7 -->
<g id="edge6" class="edge"><title>Node3&#45;&gt;Node7</title>
<path fill="none" stroke="midnightblue" d="M166.407,-56.324C177.109,-48.1849 193.341,-35.8395 206.163,-26.0874"/>
<polygon fill="midnightblue" stroke="midnightblue" points="208.544,-28.6734 214.385,-19.8339 204.307,-23.1018 208.544,-28.6734"/>
</g>
<!-- Node8 -->
<g id="node8" class="node"><title>Node8</title>
<polygon fill="white" stroke="#bfbfbf" points="270,-0.5 270,-19.5 314,-19.5 314,-0.5 270,-0.5"/>
<text text-anchor="middle" x="292" y="-7.5" font-family="Helvetica,sans-Serif" font-size="10.00">thread</text>
</g>
<!-- Node3&#45;&gt;Node8 -->
<g id="edge7" class="edge"><title>Node3&#45;&gt;Node8</title>
<path fill="none" stroke="midnightblue" d="M176.708,-56.4435C199.355,-47.5171 235.072,-33.4387 260.752,-23.3168"/>
<polygon fill="midnightblue" stroke="midnightblue" points="262.374,-26.4397 270.394,-19.5164 259.807,-19.9273 262.374,-26.4397"/>
</g>
<!-- Node9&#45;&gt;Node2 -->
<g id="edge9" class="edge"><title>Node9&#45;&gt;Node2</title>
<path fill="none" stroke="midnightblue" d="M337.272,-239.687C277.012,-233.75 197.13,-221.942 174,-200 158.267,-185.075 154.701,-159.369 154.286,-141.797"/>
<polygon fill="midnightblue" stroke="midnightblue" points="157.788,-141.649 154.373,-131.62 150.788,-141.59 157.788,-141.649"/>
</g>
<!-- Node10 -->
<g id="node10" class="node"><title>Node10</title>
<polygon fill="white" stroke="#bfbfbf" points="183.5,-174.5 183.5,-193.5 248.5,-193.5 248.5,-174.5 183.5,-174.5"/>
<text text-anchor="middle" x="216" y="-181.5" font-family="Helvetica,sans-Serif" font-size="10.00">Eigen/Core</text>
</g>
<!-- Node9&#45;&gt;Node10 -->
<g id="edge10" class="edge"><title>Node9&#45;&gt;Node10</title>
<path fill="none" stroke="midnightblue" d="M377.964,-236.43C347.12,-227.768 298.547,-213.735 257,-200 254.072,-199.032 251.039,-197.993 248.008,-196.929"/>
<polygon fill="midnightblue" stroke="midnightblue" points="249.062,-193.589 238.468,-193.509 246.699,-200.178 249.062,-193.589"/>
</g>
<!-- Node11 -->
<g id="node11" class="node"><title>Node11</title>
<polygon fill="white" stroke="#bfbfbf" points="266.5,-174.5 266.5,-193.5 353.5,-193.5 353.5,-174.5 266.5,-174.5"/>
<text text-anchor="middle" x="310" y="-181.5" font-family="Helvetica,sans-Serif" font-size="10.00">Eigen/Geometry</text>
</g>
<!-- Node9&#45;&gt;Node11 -->
<g id="edge11" class="edge"><title>Node9&#45;&gt;Node11</title>
<path fill="none" stroke="midnightblue" d="M394.816,-236.403C378.642,-226.601 351.974,-210.439 332.857,-198.853"/>
<polygon fill="midnightblue" stroke="midnightblue" points="334.524,-195.77 324.158,-193.581 330.896,-201.757 334.524,-195.77"/>
</g>
<!-- Node12 -->
<g id="node12" class="node"><title>Node12</title>
<polygon fill="white" stroke="#bfbfbf" points="371.5,-174.5 371.5,-193.5 446.5,-193.5 446.5,-174.5 371.5,-174.5"/>
<text text-anchor="middle" x="409" y="-181.5" font-family="Helvetica,sans-Serif" font-size="10.00">Eigen/Sparse</text>
</g>
<!-- Node9&#45;&gt;Node12 -->
<g id="edge12" class="edge"><title>Node9&#45;&gt;Node12</title>
<path fill="none" stroke="midnightblue" d="M409,-236.403C409,-227.938 409,-214.728 409,-203.82"/>
<polygon fill="midnightblue" stroke="midnightblue" points="412.5,-203.581 409,-193.581 405.5,-203.581 412.5,-203.581"/>
</g>
<!-- Node13 -->
<g id="node13" class="node"><title>Node13</title>
<polygon fill="white" stroke="#bfbfbf" points="464.5,-174.5 464.5,-193.5 523.5,-193.5 523.5,-174.5 464.5,-174.5"/>
<text text-anchor="middle" x="494" y="-181.5" font-family="Helvetica,sans-Serif" font-size="10.00">functional</text>
</g>
<!-- Node9&#45;&gt;Node13 -->
<g id="edge13" class="edge"><title>Node9&#45;&gt;Node13</title>
<path fill="none" stroke="midnightblue" d="M421.178,-236.403C434.812,-226.78 457.132,-211.024 473.474,-199.489"/>
<polygon fill="midnightblue" stroke="midnightblue" points="475.693,-202.207 481.844,-193.581 471.656,-196.488 475.693,-202.207"/>
</g>
<!-- Node14 -->
<g id="node14" class="node"><title>Node14</title>
<polygon fill="white" stroke="#bfbfbf" points="541.5,-169 541.5,-199 674.5,-199 674.5,-169 541.5,-169"/>
<text text-anchor="start" x="549.5" y="-187" font-family="Helvetica,sans-Serif" font-size="10.00">unsupported/Eigen/Aligned</text>
<text text-anchor="middle" x="608" y="-176" font-family="Helvetica,sans-Serif" font-size="10.00">Vector3</text>
</g>
<!-- Node9&#45;&gt;Node14 -->
<g id="edge14" class="edge"><title>Node9&#45;&gt;Node14</title>
<path fill="none" stroke="midnightblue" d="M437.512,-236.403C467.207,-227.45 514.504,-213.19 551.756,-201.958"/>
<polygon fill="midnightblue" stroke="midnightblue" points="552.919,-205.263 561.483,-199.025 550.898,-198.561 552.919,-205.263"/>
</g>
<!-- Node15 -->
<g id="node15" class="node"><title>Node15</title>
<g id="a_node15"><a xlink:href="Math_8hpp.html" target="_top" xlink:title="Core/Math/Math.hpp">
<polygon fill="white" stroke="black" points="693,-174.5 693,-193.5 799,-193.5 799,-174.5 693,-174.5"/>
<text text-anchor="middle" x="746" y="-181.5" font-family="Helvetica,sans-Serif" font-size="10.00">Core/Math/Math.hpp</text>
</a>
</g>
</g>
<!-- Node9&#45;&gt;Node15 -->
<g id="edge15" class="edge"><title>Node9&#45;&gt;Node15</title>
<path fill="none" stroke="midnightblue" d="M468.549,-236.466C524.201,-228.196 609.507,-214.765 683,-200 689.221,-198.75 695.761,-197.322 702.177,-195.856"/>
<polygon fill="midnightblue" stroke="midnightblue" points="703.152,-199.222 712.094,-193.539 701.56,-192.406 703.152,-199.222"/>
</g>
<!-- Node19 -->
<g id="node19" class="node"><title>Node19</title>
<g id="a_node19"><a xlink:href="LinearAlgebra_8inl.html" target="_top" xlink:title="Core/Math/LinearAlgebra.inl">
<polygon fill="white" stroke="black" points="817.5,-174.5 817.5,-193.5 954.5,-193.5 954.5,-174.5 817.5,-174.5"/>
<text text-anchor="middle" x="886" y="-181.5" font-family="Helvetica,sans-Serif" font-size="10.00">Core/Math/LinearAlgebra.inl</text>
</a>
</g>
</g>
<!-- Node9&#45;&gt;Node19 -->
<g id="edge21" class="edge"><title>Node9&#45;&gt;Node19</title>
<path fill="none" stroke="midnightblue" d="M480.639,-237.041C590.875,-224.774 791.122,-202.402 807,-200 815.826,-198.665 825.17,-197.061 834.225,-195.406"/>
<polygon fill="midnightblue" stroke="midnightblue" points="835.094,-198.805 844.281,-193.527 833.808,-191.924 835.094,-198.805"/>
</g>
<!-- Node15&#45;&gt;Node2 -->
<g id="edge16" class="edge"><title>Node15&#45;&gt;Node2</title>
<path fill="none" stroke="midnightblue" d="M714.135,-174.441C704.221,-172.041 693.213,-169.642 683,-168 512.76,-140.635 308.788,-129.219 211.721,-125.066"/>
<polygon fill="midnightblue" stroke="midnightblue" points="211.681,-121.562 201.543,-124.641 211.388,-128.556 211.681,-121.562"/>
</g>
<!-- Node16 -->
<g id="node16" class="node"><title>Node16</title>
<polygon fill="white" stroke="#bfbfbf" points="605,-112.5 605,-131.5 661,-131.5 661,-112.5 605,-112.5"/>
<text text-anchor="middle" x="633" y="-119.5" font-family="Helvetica,sans-Serif" font-size="10.00">algorithm</text>
</g>
<!-- Node15&#45;&gt;Node16 -->
<g id="edge17" class="edge"><title>Node15&#45;&gt;Node16</title>
<path fill="none" stroke="midnightblue" d="M729.81,-174.403C711.098,-164.468 680.077,-147.997 658.201,-136.381"/>
<polygon fill="midnightblue" stroke="midnightblue" points="659.634,-133.179 649.16,-131.581 656.351,-139.362 659.634,-133.179"/>
</g>
<!-- Node17 -->
<g id="node17" class="node"><title>Node17</title>
<polygon fill="white" stroke="#bfbfbf" points="679,-112.5 679,-131.5 723,-131.5 723,-112.5 679,-112.5"/>
<text text-anchor="middle" x="701" y="-119.5" font-family="Helvetica,sans-Serif" font-size="10.00">cmath</text>
</g>
<!-- Node15&#45;&gt;Node17 -->
<g id="edge18" class="edge"><title>Node15&#45;&gt;Node17</title>
<path fill="none" stroke="midnightblue" d="M739.553,-174.403C732.803,-165.403 722.031,-151.041 713.587,-139.782"/>
<polygon fill="midnightblue" stroke="midnightblue" points="716.235,-137.481 707.435,-131.581 710.635,-141.681 716.235,-137.481"/>
</g>
<!-- Node18 -->
<g id="node18" class="node"><title>Node18</title>
<g id="a_node18"><a xlink:href="Math_8inl.html" target="_top" xlink:title="Core/Math/Math.inl">
<polygon fill="white" stroke="black" points="741,-112.5 741,-131.5 841,-131.5 841,-112.5 741,-112.5"/>
<text text-anchor="middle" x="791" y="-119.5" font-family="Helvetica,sans-Serif" font-size="10.00">Core/Math/Math.inl</text>
</a>
</g>
</g>
<!-- Node15&#45;&gt;Node18 -->
<g id="edge19" class="edge"><title>Node15&#45;&gt;Node18</title>
<path fill="none" stroke="midnightblue" d="M747.547,-174.403C752.445,-165.225 763.125,-150.47 772.85,-139.117"/>
<polygon fill="midnightblue" stroke="midnightblue" points="775.555,-141.345 779.667,-131.581 770.364,-136.649 775.555,-141.345"/>
</g>
<!-- Node18&#45;&gt;Node15 -->
<g id="edge20" class="edge"><title>Node18&#45;&gt;Node15</title>
<path fill="none" stroke="midnightblue" d="M789.462,-131.581C784.57,-140.752 773.893,-155.506 764.166,-166.863"/>
<polygon fill="midnightblue" stroke="midnightblue" points="761.459,-164.639 757.348,-174.403 766.651,-169.334 761.459,-164.639"/>
</g>
<!-- Node20&#45;&gt;Node1 -->
<g id="edge23" class="edge"><title>Node20&#45;&gt;Node1</title>
<path fill="none" stroke="midnightblue" d="M542.58,-255.652C536.065,-263.328 524.352,-274.951 512.612,-285.651"/>
<polygon fill="midnightblue" stroke="midnightblue" points="510.073,-283.225 504.948,-292.498 514.737,-288.446 510.073,-283.225"/>
</g>
</g>
</svg>
