<?xml version="1.0" encoding="UTF-8" standalone="no"?>
<!DOCTYPE svg PUBLIC "-//W3C//DTD SVG 1.1//EN"
 "http://www.w3.org/Graphics/SVG/1.1/DTD/svg11.dtd">
<!-- Generated by graphviz version 2.36.0 (20140111.2315)
 -->
<!-- Title: /home/travis/build/STORM&#45;IRIT/Radium&#45;Engine/src/Core/File/deprecated/OBJFileManager.hpp Pages: 1 -->
<svg width="2188pt" height="558pt"
 viewBox="0.00 0.00 2188.00 558.00" xmlns="http://www.w3.org/2000/svg" xmlns:xlink="http://www.w3.org/1999/xlink">
<g id="graph0" class="graph" transform="scale(1 1) rotate(0) translate(4 554)">
<title>/home/travis/build/STORM&#45;IRIT/Radium&#45;Engine/src/Core/File/deprecated/OBJFileManager.hpp</title>
<polygon fill="white" stroke="none" points="-4,4 -4,-554 2184,-554 2184,4 -4,4"/>
<!-- Node1 -->
<g id="node1" class="node"><title>Node1</title>
<polygon fill="#bfbfbf" stroke="black" points="1290,-497 1290,-549 1438,-549 1438,-497 1290,-497"/>
<text text-anchor="start" x="1298" y="-537" font-family="Helvetica,sans-Serif" font-size="10.00">/home/travis/build</text>
<text text-anchor="start" x="1298" y="-526" font-family="Helvetica,sans-Serif" font-size="10.00">/STORM&#45;IRIT/Radium&#45;Engine</text>
<text text-anchor="start" x="1298" y="-515" font-family="Helvetica,sans-Serif" font-size="10.00">/src/Core/File/deprecated</text>
<text text-anchor="middle" x="1364" y="-504" font-family="Helvetica,sans-Serif" font-size="10.00">/OBJFileManager.hpp</text>
</g>
<!-- Node2 -->
<g id="node2" class="node"><title>Node2</title>
<g id="a_node2"><a xlink:href="FileManager_8hpp.html" target="_top" xlink:title="Core/File/deprecated\l/FileManager.hpp">
<polygon fill="white" stroke="black" points="106.5,-429 106.5,-459 213.5,-459 213.5,-429 106.5,-429"/>
<text text-anchor="start" x="114.5" y="-447" font-family="Helvetica,sans-Serif" font-size="10.00">Core/File/deprecated</text>
<text text-anchor="middle" x="160" y="-436" font-family="Helvetica,sans-Serif" font-size="10.00">/FileManager.hpp</text>
</a>
</g>
</g>
<!-- Node1&#45;&gt;Node2 -->
<g id="edge1" class="edge"><title>Node1&#45;&gt;Node2</title>
<path fill="none" stroke="midnightblue" d="M1289.59,-517.241C1070.27,-503.215 428.906,-462.198 223.837,-449.083"/>
<polygon fill="midnightblue" stroke="midnightblue" points="224.031,-445.588 213.828,-448.443 223.584,-452.574 224.031,-445.588"/>
</g>
<!-- Node6 -->
<g id="node6" class="node"><title>Node6</title>
<g id="a_node6"><a xlink:href="TriangleMesh_8hpp.html" target="_top" xlink:title="Core/Mesh/TriangleMesh.hpp">
<polygon fill="white" stroke="black" points="1291.5,-434.5 1291.5,-453.5 1436.5,-453.5 1436.5,-434.5 1291.5,-434.5"/>
<text text-anchor="middle" x="1364" y="-441.5" font-family="Helvetica,sans-Serif" font-size="10.00">Core/Mesh/TriangleMesh.hpp</text>
</a>
</g>
</g>
<!-- Node1&#45;&gt;Node6 -->
<g id="edge6" class="edge"><title>Node1&#45;&gt;Node6</title>
<path fill="none" stroke="midnightblue" d="M1364,-496.787C1364,-486.069 1364,-473.785 1364,-463.871"/>
<polygon fill="midnightblue" stroke="midnightblue" points="1367.5,-463.558 1364,-453.558 1360.5,-463.558 1367.5,-463.558"/>
</g>
<!-- Node9 -->
<g id="node9" class="node"><title>Node9</title>
<g id="a_node9"><a xlink:href="RaCore_8hpp.html" target="_top" xlink:title="Core/RaCore.hpp">
<polygon fill="white" stroke="black" points="846.5,-112.5 846.5,-131.5 939.5,-131.5 939.5,-112.5 846.5,-112.5"/>
<text text-anchor="middle" x="893" y="-119.5" font-family="Helvetica,sans-Serif" font-size="10.00">Core/RaCore.hpp</text>
</a>
</g>
</g>
<!-- Node1&#45;&gt;Node9 -->
<g id="edge65" class="edge"><title>Node1&#45;&gt;Node9</title>
<path fill="none" stroke="midnightblue" d="M1438.28,-521.747C1615.04,-519.144 2046,-500.168 2046,-377 2046,-377 2046,-377 2046,-251 2046,-213.055 2055.34,-192.066 2026,-168 2004.98,-150.756 1176.04,-129.752 949.63,-124.328"/>
<polygon fill="midnightblue" stroke="midnightblue" points="949.704,-120.829 939.623,-124.089 949.536,-127.827 949.704,-120.829"/>
</g>
<!-- Node3 -->
<g id="node3" class="node"><title>Node3</title>
<polygon fill="white" stroke="#bfbfbf" points="0,-366.5 0,-385.5 50,-385.5 50,-366.5 0,-366.5"/>
<text text-anchor="middle" x="25" y="-373.5" font-family="Helvetica,sans-Serif" font-size="10.00">fstream</text>
</g>
<!-- Node2&#45;&gt;Node3 -->
<g id="edge2" class="edge"><title>Node2&#45;&gt;Node3</title>
<path fill="none" stroke="midnightblue" d="M131.039,-428.841C107.583,-417.374 74.7907,-401.342 51.9043,-390.153"/>
<polygon fill="midnightblue" stroke="midnightblue" points="53.2795,-386.93 42.7584,-385.682 50.205,-393.218 53.2795,-386.93"/>
</g>
<!-- Node4 -->
<g id="node4" class="node"><title>Node4</title>
<polygon fill="white" stroke="#bfbfbf" points="95.5,-174.5 95.5,-193.5 136.5,-193.5 136.5,-174.5 95.5,-174.5"/>
<text text-anchor="middle" x="116" y="-181.5" font-family="Helvetica,sans-Serif" font-size="10.00">string</text>
</g>
<!-- Node2&#45;&gt;Node4 -->
<g id="edge3" class="edge"><title>Node2&#45;&gt;Node4</title>
<path fill="none" stroke="midnightblue" d="M133.017,-428.867C119.529,-420.207 104.513,-407.749 97,-392 66.5926,-328.262 93.7729,-241.017 108.269,-203.444"/>
<polygon fill="midnightblue" stroke="midnightblue" points="111.647,-204.423 112.123,-193.839 105.151,-201.816 111.647,-204.423"/>
</g>
<!-- Node5 -->
<g id="node5" class="node"><title>Node5</title>
<g id="a_node5"><a xlink:href="FileManager_8inl.html" target="_top" xlink:title="Core/File/deprecated\l/FileManager.inl">
<polygon fill="white" stroke="black" points="106.5,-361 106.5,-391 213.5,-391 213.5,-361 106.5,-361"/>
<text text-anchor="start" x="114.5" y="-379" font-family="Helvetica,sans-Serif" font-size="10.00">Core/File/deprecated</text>
<text text-anchor="middle" x="160" y="-368" font-family="Helvetica,sans-Serif" font-size="10.00">/FileManager.inl</text>
</a>
</g>
</g>
<!-- Node2&#45;&gt;Node5 -->
<g id="edge4" class="edge"><title>Node2&#45;&gt;Node5</title>
<path fill="none" stroke="midnightblue" d="M154.322,-428.679C153.294,-420.722 153.005,-410.605 153.456,-401.436"/>
<polygon fill="midnightblue" stroke="midnightblue" points="156.959,-401.555 154.325,-391.293 149.984,-400.958 156.959,-401.555"/>
</g>
<!-- Node5&#45;&gt;Node2 -->
<g id="edge5" class="edge"><title>Node5&#45;&gt;Node2</title>
<path fill="none" stroke="midnightblue" d="M165.675,-391.293C166.704,-399.245 166.995,-409.361 166.545,-418.532"/>
<polygon fill="midnightblue" stroke="midnightblue" points="163.042,-418.417 165.678,-428.679 170.017,-419.013 163.042,-418.417"/>
</g>
<!-- Node7 -->
<g id="node7" class="node"><title>Node7</title>
<g id="a_node7"><a xlink:href="VectorArray_8hpp.html" target="_top" xlink:title="Core/Containers/VectorArray.hpp">
<polygon fill="white" stroke="black" points="877.5,-304.5 877.5,-323.5 1038.5,-323.5 1038.5,-304.5 877.5,-304.5"/>
<text text-anchor="middle" x="958" y="-311.5" font-family="Helvetica,sans-Serif" font-size="10.00">Core/Containers/VectorArray.hpp</text>
</a>
</g>
</g>
<!-- Node6&#45;&gt;Node7 -->
<g id="edge7" class="edge"><title>Node6&#45;&gt;Node7</title>
<path fill="none" stroke="midnightblue" d="M1336.73,-434.403C1265.8,-412.041 1075.47,-352.036 994.872,-326.625"/>
<polygon fill="midnightblue" stroke="midnightblue" points="995.74,-323.229 985.151,-323.56 993.635,-329.905 995.74,-323.229"/>
</g>
<!-- Node6&#45;&gt;Node9 -->
<g id="edge41" class="edge"><title>Node6&#45;&gt;Node9</title>
<path fill="none" stroke="midnightblue" d="M1350.92,-434.49C1324.44,-416.117 1267,-369.928 1267,-315 1267,-315 1267,-315 1267,-251 1267,-213.157 1276.05,-193.403 1248,-168 1205.37,-129.39 1038.68,-123.091 949.701,-122.561"/>
<polygon fill="midnightblue" stroke="midnightblue" points="949.523,-119.061 939.51,-122.524 949.497,-126.061 949.523,-119.061"/>
</g>
<!-- Node18 -->
<g id="node18" class="node"><title>Node18</title>
<g id="a_node18"><a xlink:href="LinearAlgebra_8hpp.html" target="_top" xlink:title="Core/Math/LinearAlgebra.hpp">
<polygon fill="white" stroke="black" points="1442.5,-242.5 1442.5,-261.5 1585.5,-261.5 1585.5,-242.5 1442.5,-242.5"/>
<text text-anchor="middle" x="1514" y="-249.5" font-family="Helvetica,sans-Serif" font-size="10.00">Core/Math/LinearAlgebra.hpp</text>
</a>
</g>
</g>
<!-- Node6&#45;&gt;Node18 -->
<g id="edge34" class="edge"><title>Node6&#45;&gt;Node18</title>
<path fill="none" stroke="midnightblue" d="M1370.83,-434.342C1393.97,-405.039 1469.61,-309.232 1500.59,-269.992"/>
<polygon fill="midnightblue" stroke="midnightblue" points="1503.68,-271.726 1507.12,-261.708 1498.18,-267.389 1503.68,-271.726"/>
</g>
<!-- Node29 -->
<g id="node29" class="node"><title>Node29</title>
<g id="a_node29"><a xlink:href="MeshTypes_8hpp.html" target="_top" xlink:title="Core/Mesh/MeshTypes.hpp">
<polygon fill="white" stroke="black" points="1295.5,-304.5 1295.5,-323.5 1432.5,-323.5 1432.5,-304.5 1295.5,-304.5"/>
<text text-anchor="middle" x="1364" y="-311.5" font-family="Helvetica,sans-Serif" font-size="10.00">Core/Mesh/MeshTypes.hpp</text>
</a>
</g>
</g>
<!-- Node6&#45;&gt;Node29 -->
<g id="edge35" class="edge"><title>Node6&#45;&gt;Node29</title>
<path fill="none" stroke="midnightblue" d="M1364,-434.202C1364,-413.551 1364,-361.606 1364,-333.594"/>
<polygon fill="midnightblue" stroke="midnightblue" points="1367.5,-333.522 1364,-323.522 1360.5,-333.522 1367.5,-333.522"/>
</g>
<!-- Node33 -->
<g id="node33" class="node"><title>Node33</title>
<g id="a_node33"><a xlink:href="Attribs_8hpp.html" target="_top" xlink:title="Core/Utils/Attribs.hpp">
<polygon fill="white" stroke="black" points="761.5,-366.5 761.5,-385.5 872.5,-385.5 872.5,-366.5 761.5,-366.5"/>
<text text-anchor="middle" x="817" y="-373.5" font-family="Helvetica,sans-Serif" font-size="10.00">Core/Utils/Attribs.hpp</text>
</a>
</g>
</g>
<!-- Node6&#45;&gt;Node33 -->
<g id="edge42" class="edge"><title>Node6&#45;&gt;Node33</title>
<path fill="none" stroke="midnightblue" d="M1293.33,-434.473C1186.7,-421.607 986.165,-397.411 882.602,-384.915"/>
<polygon fill="midnightblue" stroke="midnightblue" points="882.933,-381.43 872.586,-383.707 882.095,-388.38 882.933,-381.43"/>
</g>
<!-- Node42 -->
<g id="node42" class="node"><title>Node42</title>
<g id="a_node42"><a xlink:href="TriangleMesh_8inl.html" target="_top" xlink:title="Core/Mesh/TriangleMesh.inl">
<polygon fill="white" stroke="black" points="1489.5,-366.5 1489.5,-385.5 1628.5,-385.5 1628.5,-366.5 1489.5,-366.5"/>
<text text-anchor="middle" x="1559" y="-373.5" font-family="Helvetica,sans-Serif" font-size="10.00">Core/Mesh/TriangleMesh.inl</text>
</a>
</g>
</g>
<!-- Node6&#45;&gt;Node42 -->
<g id="edge63" class="edge"><title>Node6&#45;&gt;Node42</title>
<path fill="none" stroke="midnightblue" d="M1384.76,-434.372C1416.89,-422.654 1478.69,-401.674 1519.47,-388.591"/>
<polygon fill="midnightblue" stroke="midnightblue" points="1520.63,-391.894 1529.1,-385.526 1518.51,-385.224 1520.63,-391.894"/>
</g>
<!-- Node8 -->
<g id="node8" class="node"><title>Node8</title>
<g id="a_node8"><a xlink:href="AlignedStdVector_8hpp.html" target="_top" xlink:title="Core/Containers/AlignedStd\lVector.hpp">
<polygon fill="white" stroke="black" points="921,-237 921,-267 1059,-267 1059,-237 921,-237"/>
<text text-anchor="start" x="929" y="-255" font-family="Helvetica,sans-Serif" font-size="10.00">Core/Containers/AlignedStd</text>
<text text-anchor="middle" x="990" y="-244" font-family="Helvetica,sans-Serif" font-size="10.00">Vector.hpp</text>
</a>
</g>
</g>
<!-- Node7&#45;&gt;Node8 -->
<g id="edge8" class="edge"><title>Node7&#45;&gt;Node8</title>
<path fill="none" stroke="midnightblue" d="M962.585,-304.403C966.514,-297.037 972.359,-286.077 977.644,-276.168"/>
<polygon fill="midnightblue" stroke="midnightblue" points="980.841,-277.611 982.458,-267.141 974.664,-274.317 980.841,-277.611"/>
</g>
<!-- Node7&#45;&gt;Node9 -->
<g id="edge32" class="edge"><title>Node7&#45;&gt;Node9</title>
<path fill="none" stroke="midnightblue" d="M942.661,-304.454C929.292,-296.411 910.052,-283.331 897,-268 874.966,-242.118 870.003,-233.035 862,-200 858.652,-186.178 857.775,-181.58 862,-168 865.229,-157.622 871.776,-147.521 878.025,-139.527"/>
<polygon fill="midnightblue" stroke="midnightblue" points="880.785,-141.682 884.517,-131.766 875.416,-137.19 880.785,-141.682"/>
</g>
<!-- Node17 -->
<g id="node17" class="node"><title>Node17</title>
<polygon fill="white" stroke="#bfbfbf" points="871,-174.5 871,-193.5 915,-193.5 915,-174.5 871,-174.5"/>
<text text-anchor="middle" x="893" y="-181.5" font-family="Helvetica,sans-Serif" font-size="10.00">vector</text>
</g>
<!-- Node7&#45;&gt;Node17 -->
<g id="edge33" class="edge"><title>Node7&#45;&gt;Node17</title>
<path fill="none" stroke="midnightblue" d="M945.917,-304.41C935.348,-296.245 920.41,-283.009 912,-268 900.679,-247.794 896.098,-221.231 894.248,-203.662"/>
<polygon fill="midnightblue" stroke="midnightblue" points="897.725,-203.236 893.383,-193.571 890.75,-203.834 897.725,-203.236"/>
</g>
<!-- Node7&#45;&gt;Node18 -->
<g id="edge18" class="edge"><title>Node7&#45;&gt;Node18</title>
<path fill="none" stroke="midnightblue" d="M1036.78,-304.499C1141.54,-293.193 1325.84,-273.305 1432.14,-261.834"/>
<polygon fill="midnightblue" stroke="midnightblue" points="1432.61,-265.303 1442.18,-260.751 1431.86,-258.344 1432.61,-265.303"/>
</g>
<!-- Node8&#45;&gt;Node9 -->
<g id="edge9" class="edge"><title>Node8&#45;&gt;Node9</title>
<path fill="none" stroke="midnightblue" d="M979.249,-236.813C961.237,-213.044 925.047,-165.288 905.769,-139.85"/>
<polygon fill="midnightblue" stroke="midnightblue" points="908.327,-137.43 899.497,-131.574 902.748,-141.658 908.327,-137.43"/>
</g>
<!-- Node16 -->
<g id="node16" class="node"><title>Node16</title>
<polygon fill="white" stroke="#bfbfbf" points="971,-174.5 971,-193.5 1059,-193.5 1059,-174.5 971,-174.5"/>
<text text-anchor="middle" x="1015" y="-181.5" font-family="Helvetica,sans-Serif" font-size="10.00">Eigen/StdVector</text>
</g>
<!-- Node8&#45;&gt;Node16 -->
<g id="edge16" class="edge"><title>Node8&#45;&gt;Node16</title>
<path fill="none" stroke="midnightblue" d="M995.425,-236.679C999.13,-226.898 1004.07,-213.852 1008.06,-203.315"/>
<polygon fill="midnightblue" stroke="midnightblue" points="1011.39,-204.42 1011.66,-193.828 1004.84,-201.94 1011.39,-204.42"/>
</g>
<!-- Node8&#45;&gt;Node17 -->
<g id="edge17" class="edge"><title>Node8&#45;&gt;Node17</title>
<path fill="none" stroke="midnightblue" d="M968.952,-236.679C952.686,-225.611 930.276,-210.363 914.017,-199.3"/>
<polygon fill="midnightblue" stroke="midnightblue" points="915.932,-196.37 905.695,-193.638 911.994,-202.157 915.932,-196.37"/>
</g>
<!-- Node10 -->
<g id="node10" class="node"><title>Node10</title>
<g id="a_node10"><a xlink:href="CoreMacros_8hpp.html" target="_top" xlink:title="Core/CoreMacros.hpp">
<polygon fill="white" stroke="black" points="663.5,-56.5 663.5,-75.5 776.5,-75.5 776.5,-56.5 663.5,-56.5"/>
<text text-anchor="middle" x="720" y="-63.5" font-family="Helvetica,sans-Serif" font-size="10.00">Core/CoreMacros.hpp</text>
</a>
</g>
</g>
<!-- Node9&#45;&gt;Node10 -->
<g id="edge10" class="edge"><title>Node9&#45;&gt;Node10</title>
<path fill="none" stroke="midnightblue" d="M865.588,-112.444C836.231,-103.28 789.481,-88.6876 756.904,-78.5192"/>
<polygon fill="midnightblue" stroke="midnightblue" points="757.873,-75.1551 747.284,-75.5164 755.787,-81.8371 757.873,-75.1551"/>
</g>
<!-- Node11 -->
<g id="node11" class="node"><title>Node11</title>
<polygon fill="white" stroke="#bfbfbf" points="663.5,-0.5 663.5,-19.5 712.5,-19.5 712.5,-0.5 663.5,-0.5"/>
<text text-anchor="middle" x="688" y="-7.5" font-family="Helvetica,sans-Serif" font-size="10.00">cassert</text>
</g>
<!-- Node10&#45;&gt;Node11 -->
<g id="edge11" class="edge"><title>Node10&#45;&gt;Node11</title>
<path fill="none" stroke="midnightblue" d="M714.716,-56.083C710.289,-48.6127 703.837,-37.7244 698.382,-28.5199"/>
<polygon fill="midnightblue" stroke="midnightblue" points="701.295,-26.5697 693.186,-19.7511 695.273,-30.1383 701.295,-26.5697"/>
</g>
<!-- Node12 -->
<g id="node12" class="node"><title>Node12</title>
<polygon fill="white" stroke="#bfbfbf" points="730.5,-0.5 730.5,-19.5 773.5,-19.5 773.5,-0.5 730.5,-0.5"/>
<text text-anchor="middle" x="752" y="-7.5" font-family="Helvetica,sans-Serif" font-size="10.00">cstdio</text>
</g>
<!-- Node10&#45;&gt;Node12 -->
<g id="edge12" class="edge"><title>Node10&#45;&gt;Node12</title>
<path fill="none" stroke="midnightblue" d="M725.284,-56.083C729.711,-48.6127 736.163,-37.7244 741.618,-28.5199"/>
<polygon fill="midnightblue" stroke="midnightblue" points="744.727,-30.1383 746.814,-19.7511 738.705,-26.5697 744.727,-30.1383"/>
</g>
<!-- Node13 -->
<g id="node13" class="node"><title>Node13</title>
<polygon fill="white" stroke="#bfbfbf" points="792,-0.5 792,-19.5 846,-19.5 846,-0.5 792,-0.5"/>
<text text-anchor="middle" x="819" y="-7.5" font-family="Helvetica,sans-Serif" font-size="10.00">iostream</text>
</g>
<!-- Node10&#45;&gt;Node13 -->
<g id="edge13" class="edge"><title>Node10&#45;&gt;Node13</title>
<path fill="none" stroke="midnightblue" d="M735.906,-56.324C751.638,-47.7428 775.942,-34.486 794.209,-24.5224"/>
<polygon fill="midnightblue" stroke="midnightblue" points="796.03,-27.5157 803.133,-19.6545 792.678,-21.3704 796.03,-27.5157"/>
</g>
<!-- Node14 -->
<g id="node14" class="node"><title>Node14</title>
<polygon fill="white" stroke="#bfbfbf" points="359,-0.5 359,-19.5 411,-19.5 411,-0.5 359,-0.5"/>
<text text-anchor="middle" x="385" y="-7.5" font-family="Helvetica,sans-Serif" font-size="10.00">sstream</text>
</g>
<!-- Node10&#45;&gt;Node14 -->
<g id="edge14" class="edge"><title>Node10&#45;&gt;Node14</title>
<path fill="none" stroke="midnightblue" d="M666.918,-56.4435C598.171,-45.3619 480.166,-26.3401 421.015,-16.8054"/>
<polygon fill="midnightblue" stroke="midnightblue" points="421.45,-13.3304 411.02,-15.1943 420.336,-20.2412 421.45,-13.3304"/>
</g>
<!-- Node15 -->
<g id="node15" class="node"><title>Node15</title>
<polygon fill="white" stroke="#bfbfbf" points="601,-0.5 601,-19.5 645,-19.5 645,-0.5 601,-0.5"/>
<text text-anchor="middle" x="623" y="-7.5" font-family="Helvetica,sans-Serif" font-size="10.00">thread</text>
</g>
<!-- Node10&#45;&gt;Node15 -->
<g id="edge15" class="edge"><title>Node10&#45;&gt;Node15</title>
<path fill="none" stroke="midnightblue" d="M704.415,-56.324C689.001,-47.7428 665.188,-34.486 647.29,-24.5224"/>
<polygon fill="midnightblue" stroke="midnightblue" points="648.986,-21.4606 638.546,-19.6545 645.581,-27.5767 648.986,-21.4606"/>
</g>
<!-- Node18&#45;&gt;Node9 -->
<g id="edge19" class="edge"><title>Node18&#45;&gt;Node9</title>
<path fill="none" stroke="midnightblue" d="M1479.21,-242.485C1447.81,-234.053 1400.85,-219.574 1363,-200 1341.52,-188.893 1341.57,-176.677 1319,-168 1252.96,-142.612 1049.77,-130.105 949.775,-125.356"/>
<polygon fill="midnightblue" stroke="midnightblue" points="949.709,-121.849 939.557,-124.88 949.383,-128.841 949.709,-121.849"/>
</g>
<!-- Node19 -->
<g id="node19" class="node"><title>Node19</title>
<polygon fill="white" stroke="#bfbfbf" points="1952.5,-174.5 1952.5,-193.5 2017.5,-193.5 2017.5,-174.5 1952.5,-174.5"/>
<text text-anchor="middle" x="1985" y="-181.5" font-family="Helvetica,sans-Serif" font-size="10.00">Eigen/Core</text>
</g>
<!-- Node18&#45;&gt;Node19 -->
<g id="edge20" class="edge"><title>Node18&#45;&gt;Node19</title>
<path fill="none" stroke="midnightblue" d="M1585.83,-247.398C1671.73,-241.962 1819.42,-229.024 1943,-200 1946.68,-199.135 1950.49,-198.053 1954.24,-196.869"/>
<polygon fill="midnightblue" stroke="midnightblue" points="1955.57,-200.113 1963.91,-193.575 1953.32,-193.487 1955.57,-200.113"/>
</g>
<!-- Node20 -->
<g id="node20" class="node"><title>Node20</title>
<polygon fill="white" stroke="#bfbfbf" points="1371.5,-174.5 1371.5,-193.5 1458.5,-193.5 1458.5,-174.5 1371.5,-174.5"/>
<text text-anchor="middle" x="1415" y="-181.5" font-family="Helvetica,sans-Serif" font-size="10.00">Eigen/Geometry</text>
</g>
<!-- Node18&#45;&gt;Node20 -->
<g id="edge21" class="edge"><title>Node18&#45;&gt;Node20</title>
<path fill="none" stroke="midnightblue" d="M1501.06,-242.372C1484.6,-231.403 1455.98,-212.317 1436.29,-199.191"/>
<polygon fill="midnightblue" stroke="midnightblue" points="1438.21,-196.265 1427.95,-193.63 1434.32,-202.09 1438.21,-196.265"/>
</g>
<!-- Node21 -->
<g id="node21" class="node"><title>Node21</title>
<polygon fill="white" stroke="#bfbfbf" points="1476.5,-174.5 1476.5,-193.5 1551.5,-193.5 1551.5,-174.5 1476.5,-174.5"/>
<text text-anchor="middle" x="1514" y="-181.5" font-family="Helvetica,sans-Serif" font-size="10.00">Eigen/Sparse</text>
</g>
<!-- Node18&#45;&gt;Node21 -->
<g id="edge22" class="edge"><title>Node18&#45;&gt;Node21</title>
<path fill="none" stroke="midnightblue" d="M1514,-242.372C1514,-232.643 1514,-216.528 1514,-203.85"/>
<polygon fill="midnightblue" stroke="midnightblue" points="1517.5,-203.841 1514,-193.841 1510.5,-203.841 1517.5,-203.841"/>
</g>
<!-- Node22 -->
<g id="node22" class="node"><title>Node22</title>
<polygon fill="white" stroke="#bfbfbf" points="1569.5,-174.5 1569.5,-193.5 1628.5,-193.5 1628.5,-174.5 1569.5,-174.5"/>
<text text-anchor="middle" x="1599" y="-181.5" font-family="Helvetica,sans-Serif" font-size="10.00">functional</text>
</g>
<!-- Node18&#45;&gt;Node22 -->
<g id="edge23" class="edge"><title>Node18&#45;&gt;Node22</title>
<path fill="none" stroke="midnightblue" d="M1525.11,-242.372C1538.98,-231.6 1562.94,-213.002 1579.8,-199.906"/>
<polygon fill="midnightblue" stroke="midnightblue" points="1582.13,-202.528 1587.89,-193.63 1577.84,-196.999 1582.13,-202.528"/>
</g>
<!-- Node23 -->
<g id="node23" class="node"><title>Node23</title>
<polygon fill="white" stroke="#bfbfbf" points="1646.5,-169 1646.5,-199 1779.5,-199 1779.5,-169 1646.5,-169"/>
<text text-anchor="start" x="1654.5" y="-187" font-family="Helvetica,sans-Serif" font-size="10.00">unsupported/Eigen/Aligned</text>
<text text-anchor="middle" x="1713" y="-176" font-family="Helvetica,sans-Serif" font-size="10.00">Vector3</text>
</g>
<!-- Node18&#45;&gt;Node23 -->
<g id="edge24" class="edge"><title>Node18&#45;&gt;Node23</title>
<path fill="none" stroke="midnightblue" d="M1540.02,-242.372C1570.61,-232.225 1622.15,-215.133 1661.03,-202.237"/>
<polygon fill="midnightblue" stroke="midnightblue" points="1662.23,-205.526 1670.62,-199.056 1660.02,-198.882 1662.23,-205.526"/>
</g>
<!-- Node24 -->
<g id="node24" class="node"><title>Node24</title>
<g id="a_node24"><a xlink:href="Math_8hpp.html" target="_top" xlink:title="Core/Math/Math.hpp">
<polygon fill="white" stroke="black" points="2074,-174.5 2074,-193.5 2180,-193.5 2180,-174.5 2074,-174.5"/>
<text text-anchor="middle" x="2127" y="-181.5" font-family="Helvetica,sans-Serif" font-size="10.00">Core/Math/Math.hpp</text>
</a>
</g>
</g>
<!-- Node18&#45;&gt;Node24 -->
<g id="edge25" class="edge"><title>Node18&#45;&gt;Node24</title>
<path fill="none" stroke="midnightblue" d="M1585.77,-244.949C1684.92,-236.34 1869.31,-219.428 2026,-200 2038.29,-198.477 2051.38,-196.668 2063.94,-194.844"/>
<polygon fill="midnightblue" stroke="midnightblue" points="2064.48,-198.302 2073.86,-193.382 2063.46,-191.377 2064.48,-198.302"/>
</g>
<!-- Node28 -->
<g id="node28" class="node"><title>Node28</title>
<g id="a_node28"><a xlink:href="LinearAlgebra_8inl.html" target="_top" xlink:title="Core/Math/LinearAlgebra.inl">
<polygon fill="white" stroke="black" points="1797.5,-174.5 1797.5,-193.5 1934.5,-193.5 1934.5,-174.5 1797.5,-174.5"/>
<text text-anchor="middle" x="1866" y="-181.5" font-family="Helvetica,sans-Serif" font-size="10.00">Core/Math/LinearAlgebra.inl</text>
</a>
</g>
</g>
<!-- Node18&#45;&gt;Node28 -->
<g id="edge31" class="edge"><title>Node18&#45;&gt;Node28</title>
<path fill="none" stroke="midnightblue" d="M1560.56,-242.422C1615.09,-232.354 1708.13,-215.113 1788,-200 1795.72,-198.54 1803.86,-196.987 1811.86,-195.455"/>
<polygon fill="midnightblue" stroke="midnightblue" points="1812.71,-198.856 1821.87,-193.534 1811.39,-191.981 1812.71,-198.856"/>
</g>
<!-- Node24&#45;&gt;Node9 -->
<g id="edge26" class="edge"><title>Node24&#45;&gt;Node9</title>
<path fill="none" stroke="midnightblue" d="M2094.5,-174.476C2083.61,-171.955 2071.35,-169.477 2060,-168 1841.5,-139.569 1152.83,-126.978 949.839,-123.823"/>
<polygon fill="midnightblue" stroke="midnightblue" points="949.749,-120.322 939.697,-123.667 949.641,-127.321 949.749,-120.322"/>
</g>
<!-- Node25 -->
<g id="node25" class="node"><title>Node25</title>
<polygon fill="white" stroke="#bfbfbf" points="1474,-112.5 1474,-131.5 1530,-131.5 1530,-112.5 1474,-112.5"/>
<text text-anchor="middle" x="1502" y="-119.5" font-family="Helvetica,sans-Serif" font-size="10.00">algorithm</text>
</g>
<!-- Node24&#45;&gt;Node25 -->
<g id="edge27" class="edge"><title>Node24&#45;&gt;Node25</title>
<path fill="none" stroke="midnightblue" d="M2093.09,-174.442C2082.55,-172.042 2070.84,-169.643 2060,-168 1865.89,-138.592 1630.68,-127.575 1540.1,-124.236"/>
<polygon fill="midnightblue" stroke="midnightblue" points="1540.15,-120.736 1530.03,-123.875 1539.9,-127.732 1540.15,-120.736"/>
</g>
<!-- Node26 -->
<g id="node26" class="node"><title>Node26</title>
<polygon fill="white" stroke="#bfbfbf" points="2015,-112.5 2015,-131.5 2059,-131.5 2059,-112.5 2015,-112.5"/>
<text text-anchor="middle" x="2037" y="-119.5" font-family="Helvetica,sans-Serif" font-size="10.00">cmath</text>
</g>
<!-- Node24&#45;&gt;Node26 -->
<g id="edge28" class="edge"><title>Node24&#45;&gt;Node26</title>
<path fill="none" stroke="midnightblue" d="M2114.11,-174.403C2099.54,-164.691 2075.6,-148.732 2058.25,-137.17"/>
<polygon fill="midnightblue" stroke="midnightblue" points="2060.13,-134.215 2049.87,-131.581 2056.25,-140.04 2060.13,-134.215"/>
</g>
<!-- Node27 -->
<g id="node27" class="node"><title>Node27</title>
<g id="a_node27"><a xlink:href="Math_8inl.html" target="_top" xlink:title="Core/Math/Math.inl">
<polygon fill="white" stroke="black" points="2077,-112.5 2077,-131.5 2177,-131.5 2177,-112.5 2077,-112.5"/>
<text text-anchor="middle" x="2127" y="-119.5" font-family="Helvetica,sans-Serif" font-size="10.00">Core/Math/Math.inl</text>
</a>
</g>
</g>
<!-- Node24&#45;&gt;Node27 -->
<g id="edge29" class="edge"><title>Node24&#45;&gt;Node27</title>
<path fill="none" stroke="midnightblue" d="M2122.1,-174.403C2120.27,-165.938 2119.8,-152.728 2120.69,-141.82"/>
<polygon fill="midnightblue" stroke="midnightblue" points="2124.2,-141.966 2122.1,-131.581 2117.26,-141.006 2124.2,-141.966"/>
</g>
<!-- Node27&#45;&gt;Node24 -->
<g id="edge30" class="edge"><title>Node27&#45;&gt;Node24</title>
<path fill="none" stroke="midnightblue" d="M2131.9,-131.581C2133.73,-140.04 2134.2,-153.248 2133.32,-164.16"/>
<polygon fill="midnightblue" stroke="midnightblue" points="2129.8,-164.018 2131.9,-174.403 2136.74,-164.977 2129.8,-164.018"/>
</g>
<!-- Node29&#45;&gt;Node9 -->
<g id="edge40" class="edge"><title>Node29&#45;&gt;Node9</title>
<path fill="none" stroke="midnightblue" d="M1361.94,-304.258C1355.35,-278.353 1332.09,-201.703 1281,-168 1227.87,-132.951 1044.04,-125.107 949.754,-123.416"/>
<polygon fill="midnightblue" stroke="midnightblue" points="949.594,-119.913 939.539,-123.251 949.481,-126.912 949.594,-119.913"/>
</g>
<!-- Node29&#45;&gt;Node18 -->
<g id="edge39" class="edge"><title>Node29&#45;&gt;Node18</title>
<path fill="none" stroke="midnightblue" d="M1385.49,-304.403C1411.11,-294.156 1454.11,-276.956 1483.24,-265.302"/>
<polygon fill="midnightblue" stroke="midnightblue" points="1484.56,-268.544 1492.55,-261.581 1481.96,-262.045 1484.56,-268.544"/>
</g>
<!-- Node30 -->
<g id="node30" class="node"><title>Node30</title>
<g id="a_node30"><a xlink:href="Index_8hpp.html" target="_top" xlink:title="Core/Index/Index.hpp">
<polygon fill="white" stroke="black" points="1103,-242.5 1103,-261.5 1213,-261.5 1213,-242.5 1103,-242.5"/>
<text text-anchor="middle" x="1158" y="-249.5" font-family="Helvetica,sans-Serif" font-size="10.00">Core/Index/Index.hpp</text>
</a>
</g>
</g>
<!-- Node29&#45;&gt;Node30 -->
<g id="edge36" class="edge"><title>Node29&#45;&gt;Node30</title>
<path fill="none" stroke="midnightblue" d="M1334.49,-304.403C1298.38,-293.889 1237.15,-276.054 1197.15,-264.402"/>
<polygon fill="midnightblue" stroke="midnightblue" points="1198.04,-261.017 1187.46,-261.581 1196.08,-267.737 1198.04,-261.017"/>
</g>
<!-- Node31 -->
<g id="node31" class="node"><title>Node31</title>
<polygon fill="white" stroke="#bfbfbf" points="1077,-174.5 1077,-193.5 1117,-193.5 1117,-174.5 1077,-174.5"/>
<text text-anchor="middle" x="1097" y="-181.5" font-family="Helvetica,sans-Serif" font-size="10.00">limits</text>
</g>
<!-- Node30&#45;&gt;Node31 -->
<g id="edge37" class="edge"><title>Node30&#45;&gt;Node31</title>
<path fill="none" stroke="midnightblue" d="M1150.03,-242.372C1140.4,-231.955 1124,-214.217 1111.99,-201.216"/>
<polygon fill="midnightblue" stroke="midnightblue" points="1114.53,-198.809 1105.17,-193.841 1109.39,-203.561 1114.53,-198.809"/>
</g>
<!-- Node32 -->
<g id="node32" class="node"><title>Node32</title>
<g id="a_node32"><a xlink:href="Index_8inl.html" target="_top" xlink:title="Core/Index/Index.inl">
<polygon fill="white" stroke="black" points="1135,-174.5 1135,-193.5 1239,-193.5 1239,-174.5 1135,-174.5"/>
<text text-anchor="middle" x="1187" y="-181.5" font-family="Helvetica,sans-Serif" font-size="10.00">Core/Index/Index.inl</text>
</a>
</g>
</g>
<!-- Node30&#45;&gt;Node32 -->
<g id="edge38" class="edge"><title>Node30&#45;&gt;Node32</title>
<path fill="none" stroke="midnightblue" d="M1161.79,-242.372C1166.15,-232.446 1173.43,-215.874 1179.05,-203.086"/>
<polygon fill="midnightblue" stroke="midnightblue" points="1182.3,-204.404 1183.12,-193.841 1175.89,-201.588 1182.3,-204.404"/>
</g>
<!-- Node33&#45;&gt;Node7 -->
<g id="edge43" class="edge"><title>Node33&#45;&gt;Node7</title>
<path fill="none" stroke="midnightblue" d="M837.202,-366.403C861.074,-356.245 901.002,-339.255 928.373,-327.607"/>
<polygon fill="midnightblue" stroke="midnightblue" points="930.005,-330.717 937.836,-323.581 927.264,-324.276 930.005,-330.717"/>
</g>
<!-- Node33&#45;&gt;Node9 -->
<g id="edge62" class="edge"><title>Node33&#45;&gt;Node9</title>
<path fill="none" stroke="midnightblue" d="M817.119,-366.253C817.829,-336.821 822.711,-239.23 856,-168 861.01,-157.279 869.169,-146.959 876.552,-138.911"/>
<polygon fill="midnightblue" stroke="midnightblue" points="879.098,-141.314 883.532,-131.692 874.065,-136.449 879.098,-141.314"/>
</g>
<!-- Node34 -->
<g id="node34" class="node"><title>Node34</title>
<g id="a_node34"><a xlink:href="IndexMap_8hpp.html" target="_top" xlink:title="Core/Index/IndexMap.hpp">
<polygon fill="white" stroke="black" points="624.5,-304.5 624.5,-323.5 753.5,-323.5 753.5,-304.5 624.5,-304.5"/>
<text text-anchor="middle" x="689" y="-311.5" font-family="Helvetica,sans-Serif" font-size="10.00">Core/Index/IndexMap.hpp</text>
</a>
</g>
</g>
<!-- Node33&#45;&gt;Node34 -->
<g id="edge44" class="edge"><title>Node33&#45;&gt;Node34</title>
<path fill="none" stroke="midnightblue" d="M798.661,-366.403C777.179,-356.334 741.378,-339.552 716.552,-327.915"/>
<polygon fill="midnightblue" stroke="midnightblue" points="717.845,-324.656 707.305,-323.581 714.874,-330.994 717.845,-324.656"/>
</g>
<!-- Node38 -->
<g id="node38" class="node"><title>Node38</title>
<g id="a_node38"><a xlink:href="Log_8hpp.html" target="_top" xlink:title="Core/Log/Log.hpp">
<polygon fill="white" stroke="black" points="182,-304.5 182,-323.5 276,-323.5 276,-304.5 182,-304.5"/>
<text text-anchor="middle" x="229" y="-311.5" font-family="Helvetica,sans-Serif" font-size="10.00">Core/Log/Log.hpp</text>
</a>
</g>
</g>
<!-- Node33&#45;&gt;Node38 -->
<g id="edge52" class="edge"><title>Node33&#45;&gt;Node38</title>
<path fill="none" stroke="midnightblue" d="M761.418,-369.328C649.817,-357.941 399.511,-332.399 286.413,-320.858"/>
<polygon fill="midnightblue" stroke="midnightblue" points="286.534,-317.353 276.23,-319.819 285.823,-324.317 286.534,-317.353"/>
</g>
<!-- Node34&#45;&gt;Node9 -->
<g id="edge45" class="edge"><title>Node34&#45;&gt;Node9</title>
<path fill="none" stroke="midnightblue" d="M713.469,-304.438C729.567,-297.378 749.377,-285.626 759,-268 780.336,-228.92 726.772,-203.98 753,-168 772.051,-141.865 806.529,-130.576 836.502,-125.84"/>
<polygon fill="midnightblue" stroke="midnightblue" points="837.033,-129.3 846.465,-124.474 836.082,-122.365 837.033,-129.3"/>
</g>
<!-- Node34&#45;&gt;Node25 -->
<g id="edge46" class="edge"><title>Node34&#45;&gt;Node25</title>
<path fill="none" stroke="midnightblue" d="M624.342,-309.547C550.728,-303.225 445.686,-285.479 487,-236 493.785,-227.874 851.496,-169.318 862,-168 1089.13,-139.508 1364.04,-127.761 1463.64,-124.236"/>
<polygon fill="midnightblue" stroke="midnightblue" points="1463.95,-127.728 1473.82,-123.883 1463.71,-120.732 1463.95,-127.728"/>
</g>
<!-- Node34&#45;&gt;Node30 -->
<g id="edge49" class="edge"><title>Node34&#45;&gt;Node30</title>
<path fill="none" stroke="midnightblue" d="M753.835,-306.239C829.397,-298.142 957.961,-283.694 1068,-268 1078.22,-266.542 1089.07,-264.855 1099.57,-263.149"/>
<polygon fill="midnightblue" stroke="midnightblue" points="1100.19,-266.593 1109.49,-261.514 1099.05,-259.686 1100.19,-266.593"/>
</g>
<!-- Node35 -->
<g id="node35" class="node"><title>Node35</title>
<polygon fill="white" stroke="#bfbfbf" points="496,-242.5 496,-261.5 548,-261.5 548,-242.5 496,-242.5"/>
<text text-anchor="middle" x="522" y="-249.5" font-family="Helvetica,sans-Serif" font-size="10.00">assert.h</text>
</g>
<!-- Node34&#45;&gt;Node35 -->
<g id="edge47" class="edge"><title>Node34&#45;&gt;Node35</title>
<path fill="none" stroke="midnightblue" d="M661.986,-304.459C635.153,-295.819 592.937,-281.803 557,-268 554.894,-267.191 552.728,-266.331 550.554,-265.449"/>
<polygon fill="midnightblue" stroke="midnightblue" points="551.724,-262.144 541.148,-261.518 549.025,-268.603 551.724,-262.144"/>
</g>
<!-- Node36 -->
<g id="node36" class="node"><title>Node36</title>
<polygon fill="white" stroke="#bfbfbf" points="566.5,-242.5 566.5,-261.5 609.5,-261.5 609.5,-242.5 566.5,-242.5"/>
<text text-anchor="middle" x="588" y="-249.5" font-family="Helvetica,sans-Serif" font-size="10.00">deque</text>
</g>
<!-- Node34&#45;&gt;Node36 -->
<g id="edge48" class="edge"><title>Node34&#45;&gt;Node36</title>
<path fill="none" stroke="midnightblue" d="M674.529,-304.403C657.954,-294.557 630.574,-278.291 611.053,-266.695"/>
<polygon fill="midnightblue" stroke="midnightblue" points="612.829,-263.679 602.444,-261.581 609.254,-269.697 612.829,-263.679"/>
</g>
<!-- Node37 -->
<g id="node37" class="node"><title>Node37</title>
<g id="a_node37"><a xlink:href="IndexMap_8inl.html" target="_top" xlink:title="Core/Index/IndexMap.inl">
<polygon fill="white" stroke="black" points="627.5,-242.5 627.5,-261.5 750.5,-261.5 750.5,-242.5 627.5,-242.5"/>
<text text-anchor="middle" x="689" y="-249.5" font-family="Helvetica,sans-Serif" font-size="10.00">Core/Index/IndexMap.inl</text>
</a>
</g>
</g>
<!-- Node34&#45;&gt;Node37 -->
<g id="edge50" class="edge"><title>Node34&#45;&gt;Node37</title>
<path fill="none" stroke="midnightblue" d="M684.099,-304.403C682.268,-295.938 681.797,-282.728 682.685,-271.82"/>
<polygon fill="midnightblue" stroke="midnightblue" points="686.198,-271.966 684.103,-261.581 679.264,-271.006 686.198,-271.966"/>
</g>
<!-- Node37&#45;&gt;Node34 -->
<g id="edge51" class="edge"><title>Node37&#45;&gt;Node34</title>
<path fill="none" stroke="midnightblue" d="M693.897,-261.581C695.73,-270.04 696.203,-283.248 695.317,-294.16"/>
<polygon fill="midnightblue" stroke="midnightblue" points="691.803,-294.018 693.901,-304.403 698.737,-294.977 691.803,-294.018"/>
</g>
<!-- Node38&#45;&gt;Node4 -->
<g id="edge56" class="edge"><title>Node38&#45;&gt;Node4</title>
<path fill="none" stroke="midnightblue" d="M193.779,-304.376C173.703,-297.685 149.692,-286.368 135,-268 120.318,-249.645 116.545,-222.073 115.793,-203.813"/>
<polygon fill="midnightblue" stroke="midnightblue" points="119.292,-203.76 115.645,-193.813 112.293,-203.864 119.292,-203.76"/>
</g>
<!-- Node38&#45;&gt;Node9 -->
<g id="edge53" class="edge"><title>Node38&#45;&gt;Node9</title>
<path fill="none" stroke="midnightblue" d="M234.119,-304.272C244.069,-288.121 267.637,-253.617 297,-236 388.004,-181.399 705.119,-142.732 835.918,-128.753"/>
<polygon fill="midnightblue" stroke="midnightblue" points="836.55,-132.205 846.126,-127.671 835.813,-125.244 836.55,-132.205"/>
</g>
<!-- Node38&#45;&gt;Node14 -->
<g id="edge54" class="edge"><title>Node38&#45;&gt;Node14</title>
<path fill="none" stroke="midnightblue" d="M187.99,-304.479C132.403,-290.253 40,-255.937 40,-185 40,-185 40,-185 40,-121 40,-56.7379 260.023,-24.9618 348.652,-14.7687"/>
<polygon fill="midnightblue" stroke="midnightblue" points="349.238,-18.225 358.786,-13.6319 348.458,-11.2686 349.238,-18.225"/>
</g>
<!-- Node39 -->
<g id="node39" class="node"><title>Node39</title>
<polygon fill="white" stroke="#bfbfbf" points="144,-242.5 144,-261.5 190,-261.5 190,-242.5 144,-242.5"/>
<text text-anchor="middle" x="167" y="-249.5" font-family="Helvetica,sans-Serif" font-size="10.00">stdio.h</text>
</g>
<!-- Node38&#45;&gt;Node39 -->
<g id="edge55" class="edge"><title>Node38&#45;&gt;Node39</title>
<path fill="none" stroke="midnightblue" d="M220.117,-304.403C210.541,-295.136 195.089,-280.183 183.314,-268.788"/>
<polygon fill="midnightblue" stroke="midnightblue" points="185.487,-266.02 175.867,-261.581 180.619,-271.05 185.487,-266.02"/>
</g>
<!-- Node40 -->
<g id="node40" class="node"><title>Node40</title>
<g id="a_node40"><a xlink:href="StringUtils_8hpp.html" target="_top" xlink:title="Core/String/StringUtils.hpp">
<polygon fill="white" stroke="black" points="306,-242.5 306,-261.5 440,-261.5 440,-242.5 306,-242.5"/>
<text text-anchor="middle" x="373" y="-249.5" font-family="Helvetica,sans-Serif" font-size="10.00">Core/String/StringUtils.hpp</text>
</a>
</g>
</g>
<!-- Node38&#45;&gt;Node40 -->
<g id="edge57" class="edge"><title>Node38&#45;&gt;Node40</title>
<path fill="none" stroke="midnightblue" d="M249.632,-304.403C274.119,-294.2 315.147,-277.105 343.109,-265.454"/>
<polygon fill="midnightblue" stroke="midnightblue" points="344.522,-268.658 352.407,-261.581 341.83,-262.196 344.522,-268.658"/>
</g>
<!-- Node41 -->
<g id="node41" class="node"><title>Node41</title>
<polygon fill="white" stroke="#bfbfbf" points="208.5,-242.5 208.5,-261.5 249.5,-261.5 249.5,-242.5 208.5,-242.5"/>
<text text-anchor="middle" x="229" y="-249.5" font-family="Helvetica,sans-Serif" font-size="10.00">ctime</text>
</g>
<!-- Node38&#45;&gt;Node41 -->
<g id="edge61" class="edge"><title>Node38&#45;&gt;Node41</title>
<path fill="none" stroke="midnightblue" d="M229,-304.403C229,-295.938 229,-282.728 229,-271.82"/>
<polygon fill="midnightblue" stroke="midnightblue" points="232.5,-271.581 229,-261.581 225.5,-271.581 232.5,-271.581"/>
</g>
<!-- Node40&#45;&gt;Node4 -->
<g id="edge59" class="edge"><title>Node40&#45;&gt;Node4</title>
<path fill="none" stroke="midnightblue" d="M339.665,-242.439C289.432,-229.539 195.057,-205.302 146.528,-192.84"/>
<polygon fill="midnightblue" stroke="midnightblue" points="147.178,-189.393 136.622,-190.296 145.437,-196.173 147.178,-189.393"/>
</g>
<!-- Node40&#45;&gt;Node9 -->
<g id="edge58" class="edge"><title>Node40&#45;&gt;Node9</title>
<path fill="none" stroke="midnightblue" d="M407.926,-242.403C499.511,-219.859 746.524,-159.056 848.269,-134.011"/>
<polygon fill="midnightblue" stroke="midnightblue" points="849.352,-137.349 858.226,-131.56 847.679,-130.551 849.352,-137.349"/>
</g>
<!-- Node40&#45;&gt;Node17 -->
<g id="edge60" class="edge"><title>Node40&#45;&gt;Node17</title>
<path fill="none" stroke="midnightblue" d="M437.202,-242.485C453.447,-240.349 470.864,-238.075 487,-236 626.114,-218.11 792.141,-197.48 860.821,-188.977"/>
<polygon fill="midnightblue" stroke="midnightblue" points="861.495,-192.42 870.989,-187.719 860.635,-185.473 861.495,-192.42"/>
</g>
<!-- Node42&#45;&gt;Node6 -->
<g id="edge64" class="edge"><title>Node42&#45;&gt;Node6</title>
<path fill="none" stroke="midnightblue" d="M1538.52,-385.526C1506.57,-397.189 1444.79,-418.165 1403.89,-431.294"/>
<polygon fill="midnightblue" stroke="midnightblue" points="1402.69,-428.002 1394.22,-434.372 1404.81,-434.672 1402.69,-428.002"/>
</g>
</g>
</svg>
