<?xml version="1.0" encoding="UTF-8" standalone="no"?>
<!DOCTYPE svg PUBLIC "-//W3C//DTD SVG 1.1//EN"
 "http://www.w3.org/Graphics/SVG/1.1/DTD/svg11.dtd">
<!-- Generated by graphviz version 2.36.0 (20140111.2315)
 -->
<!-- Title: /home/travis/build/STORM&#45;IRIT/Radium&#45;Engine/src/Core/Mesh/TopologicalTriMesh/OpenMesh.h Pages: 1 -->
<svg width="944pt" height="332pt"
 viewBox="0.00 0.00 944.00 332.00" xmlns="http://www.w3.org/2000/svg" xmlns:xlink="http://www.w3.org/1999/xlink">
<g id="graph0" class="graph" transform="scale(1 1) rotate(0) translate(4 328)">
<title>/home/travis/build/STORM&#45;IRIT/Radium&#45;Engine/src/Core/Mesh/TopologicalTriMesh/OpenMesh.h</title>
<polygon fill="white" stroke="none" points="-4,4 -4,-328 940,-328 940,4 -4,4"/>
<!-- Node1 -->
<g id="node1" class="node"><title>Node1</title>
<polygon fill="#bfbfbf" stroke="black" points="384,-271 384,-323 556,-323 556,-271 384,-271"/>
<text text-anchor="start" x="392" y="-311" font-family="Helvetica,sans-Serif" font-size="10.00">/home/travis/build</text>
<text text-anchor="start" x="392" y="-300" font-family="Helvetica,sans-Serif" font-size="10.00">/STORM&#45;IRIT/Radium&#45;Engine</text>
<text text-anchor="start" x="392" y="-289" font-family="Helvetica,sans-Serif" font-size="10.00">/src/Core/Mesh/TopologicalTriMesh</text>
<text text-anchor="middle" x="470" y="-278" font-family="Helvetica,sans-Serif" font-size="10.00">/OpenMesh.h</text>
</g>
<!-- Node2 -->
<g id="node2" class="node"><title>Node2</title>
<g id="a_node2"><a xlink:href="TopologicalMesh_8hpp.html" target="_top" xlink:title="/home/travis/build\l/STORM&#45;IRIT/Radium&#45;Engine\l/src/Core/Mesh/TopologicalTriMesh\l/TopologicalMesh.hpp">
<polygon fill="white" stroke="black" points="384,-181 384,-233 556,-233 556,-181 384,-181"/>
<text text-anchor="start" x="392" y="-221" font-family="Helvetica,sans-Serif" font-size="10.00">/home/travis/build</text>
<text text-anchor="start" x="392" y="-210" font-family="Helvetica,sans-Serif" font-size="10.00">/STORM&#45;IRIT/Radium&#45;Engine</text>
<text text-anchor="start" x="392" y="-199" font-family="Helvetica,sans-Serif" font-size="10.00">/src/Core/Mesh/TopologicalTriMesh</text>
<text text-anchor="middle" x="470" y="-188" font-family="Helvetica,sans-Serif" font-size="10.00">/TopologicalMesh.hpp</text>
</a>
</g>
</g>
<!-- Node1&#45;&gt;Node2 -->
<g id="edge1" class="edge"><title>Node1&#45;&gt;Node2</title>
<path fill="none" stroke="midnightblue" d="M470,-260.489C470,-251.309 470,-241.616 470,-233.092"/>
<polygon fill="midnightblue" stroke="midnightblue" points="466.5,-260.547 470,-270.547 473.5,-260.547 466.5,-260.547"/>
</g>
<!-- Node3 -->
<g id="node3" class="node"><title>Node3</title>
<g id="a_node3"><a xlink:href="CatmullClarkSubdivider_8hpp.html" target="_top" xlink:title="/home/travis/build\l/STORM&#45;IRIT/Radium&#45;Engine\l/src/Core/Algorithm/Subdivision\l/CatmullClarkSubdivider.hpp">
<polygon fill="white" stroke="black" points="-0.5,-91 -0.5,-143 154.5,-143 154.5,-91 -0.5,-91"/>
<text text-anchor="start" x="7.5" y="-131" font-family="Helvetica,sans-Serif" font-size="10.00">/home/travis/build</text>
<text text-anchor="start" x="7.5" y="-120" font-family="Helvetica,sans-Serif" font-size="10.00">/STORM&#45;IRIT/Radium&#45;Engine</text>
<text text-anchor="start" x="7.5" y="-109" font-family="Helvetica,sans-Serif" font-size="10.00">/src/Core/Algorithm/Subdivision</text>
<text text-anchor="middle" x="77" y="-98" font-family="Helvetica,sans-Serif" font-size="10.00">/CatmullClarkSubdivider.hpp</text>
</a>
</g>
</g>
<!-- Node2&#45;&gt;Node3 -->
<g id="edge2" class="edge"><title>Node2&#45;&gt;Node3</title>
<path fill="none" stroke="midnightblue" d="M373.86,-188.996C313.081,-177.652 233.057,-161.622 163,-144 160.277,-143.315 157.512,-142.598 154.724,-141.857"/>
<polygon fill="midnightblue" stroke="midnightblue" points="373.356,-192.462 383.827,-190.846 374.634,-185.58 373.356,-192.462"/>
</g>
<!-- Node5 -->
<g id="node5" class="node"><title>Node5</title>
<g id="a_node5"><a xlink:href="LoopSubdivider_8hpp.html" target="_top" xlink:title="/home/travis/build\l/STORM&#45;IRIT/Radium&#45;Engine\l/src/Core/Algorithm/Subdivision\l/LoopSubdivider.hpp">
<polygon fill="white" stroke="black" points="172.5,-91 172.5,-143 327.5,-143 327.5,-91 172.5,-91"/>
<text text-anchor="start" x="180.5" y="-131" font-family="Helvetica,sans-Serif" font-size="10.00">/home/travis/build</text>
<text text-anchor="start" x="180.5" y="-120" font-family="Helvetica,sans-Serif" font-size="10.00">/STORM&#45;IRIT/Radium&#45;Engine</text>
<text text-anchor="start" x="180.5" y="-109" font-family="Helvetica,sans-Serif" font-size="10.00">/src/Core/Algorithm/Subdivision</text>
<text text-anchor="middle" x="250" y="-98" font-family="Helvetica,sans-Serif" font-size="10.00">/LoopSubdivider.hpp</text>
</a>
</g>
</g>
<!-- Node2&#45;&gt;Node5 -->
<g id="edge4" class="edge"><title>Node2&#45;&gt;Node5</title>
<path fill="none" stroke="midnightblue" d="M397.713,-177.085C370.292,-166.117 339.312,-153.725 312.832,-143.133"/>
<polygon fill="midnightblue" stroke="midnightblue" points="396.667,-180.436 407.251,-180.901 399.266,-173.937 396.667,-180.436"/>
</g>
<!-- Node7 -->
<g id="node7" class="node"><title>Node7</title>
<g id="a_node7"><a xlink:href="RotationCenterSkinning_8cpp.html" target="_top" xlink:title="/home/travis/build\l/STORM&#45;IRIT/Radium&#45;Engine\l/src/Core/Animation/Skinning\l/RotationCenterSkinning.cpp">
<polygon fill="white" stroke="black" points="346,-1 346,-53 494,-53 494,-1 346,-1"/>
<text text-anchor="start" x="354" y="-41" font-family="Helvetica,sans-Serif" font-size="10.00">/home/travis/build</text>
<text text-anchor="start" x="354" y="-30" font-family="Helvetica,sans-Serif" font-size="10.00">/STORM&#45;IRIT/Radium&#45;Engine</text>
<text text-anchor="start" x="354" y="-19" font-family="Helvetica,sans-Serif" font-size="10.00">/src/Core/Animation/Skinning</text>
<text text-anchor="middle" x="420" y="-8" font-family="Helvetica,sans-Serif" font-size="10.00">/RotationCenterSkinning.cpp</text>
</a>
</g>
</g>
<!-- Node2&#45;&gt;Node7 -->
<g id="edge6" class="edge"><title>Node2&#45;&gt;Node7</title>
<path fill="none" stroke="midnightblue" d="M403.597,-175.144C392.11,-166.719 381.716,-156.403 375,-144 363.572,-122.895 367.589,-112.827 375,-90 379.353,-76.5907 387.817,-63.6562 396.24,-53.1023"/>
<polygon fill="midnightblue" stroke="midnightblue" points="401.883,-178.212 412.118,-180.948 405.824,-172.426 401.883,-178.212"/>
</g>
<!-- Node8 -->
<g id="node8" class="node"><title>Node8</title>
<g id="a_node8"><a xlink:href="EdgeSplit_8hpp.html" target="_top" xlink:title="/home/travis/build\l/STORM&#45;IRIT/Radium&#45;Engine\l/src/Core/Mesh/TopologicalTriMesh\l/Operations/EdgeSplit.hpp">
<polygon fill="white" stroke="black" points="384,-91 384,-143 556,-143 556,-91 384,-91"/>
<text text-anchor="start" x="392" y="-131" font-family="Helvetica,sans-Serif" font-size="10.00">/home/travis/build</text>
<text text-anchor="start" x="392" y="-120" font-family="Helvetica,sans-Serif" font-size="10.00">/STORM&#45;IRIT/Radium&#45;Engine</text>
<text text-anchor="start" x="392" y="-109" font-family="Helvetica,sans-Serif" font-size="10.00">/src/Core/Mesh/TopologicalTriMesh</text>
<text text-anchor="middle" x="470" y="-98" font-family="Helvetica,sans-Serif" font-size="10.00">/Operations/EdgeSplit.hpp</text>
</a>
</g>
</g>
<!-- Node2&#45;&gt;Node8 -->
<g id="edge7" class="edge"><title>Node2&#45;&gt;Node8</title>
<path fill="none" stroke="midnightblue" d="M470,-170.489C470,-161.309 470,-151.616 470,-143.092"/>
<polygon fill="midnightblue" stroke="midnightblue" points="466.5,-170.547 470,-180.547 473.5,-170.547 466.5,-170.547"/>
</g>
<!-- Node10 -->
<g id="node10" class="node"><title>Node10</title>
<g id="a_node10"><a xlink:href="TopologicalMesh_8cpp.html" target="_top" xlink:title="/home/travis/build\l/STORM&#45;IRIT/Radium&#45;Engine\l/src/Core/Mesh/TopologicalTriMesh\l/TopologicalMesh.cpp">
<polygon fill="white" stroke="black" points="574,-91 574,-143 746,-143 746,-91 574,-91"/>
<text text-anchor="start" x="582" y="-131" font-family="Helvetica,sans-Serif" font-size="10.00">/home/travis/build</text>
<text text-anchor="start" x="582" y="-120" font-family="Helvetica,sans-Serif" font-size="10.00">/STORM&#45;IRIT/Radium&#45;Engine</text>
<text text-anchor="start" x="582" y="-109" font-family="Helvetica,sans-Serif" font-size="10.00">/src/Core/Mesh/TopologicalTriMesh</text>
<text text-anchor="middle" x="660" y="-98" font-family="Helvetica,sans-Serif" font-size="10.00">/TopologicalMesh.cpp</text>
</a>
</g>
</g>
<!-- Node2&#45;&gt;Node10 -->
<g id="edge10" class="edge"><title>Node2&#45;&gt;Node10</title>
<path fill="none" stroke="midnightblue" d="M533.362,-176.654C556.812,-165.792 583.166,-153.586 605.736,-143.133"/>
<polygon fill="midnightblue" stroke="midnightblue" points="531.795,-173.522 524.192,-180.901 534.737,-179.874 531.795,-173.522"/>
</g>
<!-- Node11 -->
<g id="node11" class="node"><title>Node11</title>
<g id="a_node11"><a xlink:href="TopologicalMesh_8inl.html" target="_top" xlink:title="/home/travis/build\l/STORM&#45;IRIT/Radium&#45;Engine\l/src/Core/Mesh/TopologicalTriMesh\l/TopologicalMesh.inl">
<polygon fill="white" stroke="black" points="764,-91 764,-143 936,-143 936,-91 764,-91"/>
<text text-anchor="start" x="772" y="-131" font-family="Helvetica,sans-Serif" font-size="10.00">/home/travis/build</text>
<text text-anchor="start" x="772" y="-120" font-family="Helvetica,sans-Serif" font-size="10.00">/STORM&#45;IRIT/Radium&#45;Engine</text>
<text text-anchor="start" x="772" y="-109" font-family="Helvetica,sans-Serif" font-size="10.00">/src/Core/Mesh/TopologicalTriMesh</text>
<text text-anchor="middle" x="850" y="-98" font-family="Helvetica,sans-Serif" font-size="10.00">/TopologicalMesh.inl</text>
</a>
</g>
</g>
<!-- Node2&#45;&gt;Node11 -->
<g id="edge11" class="edge"><title>Node2&#45;&gt;Node11</title>
<path fill="none" stroke="midnightblue" d="M566.236,-184.697C619.362,-173.3 686.403,-158.627 746,-144 751.812,-142.573 757.811,-141.051 763.86,-139.486"/>
<polygon fill="midnightblue" stroke="midnightblue" points="565.189,-181.342 556.143,-186.859 566.655,-188.187 565.189,-181.342"/>
</g>
<!-- Node4 -->
<g id="node4" class="node"><title>Node4</title>
<g id="a_node4"><a xlink:href="CatmullClarkSubdivider_8cpp.html" target="_top" xlink:title="/home/travis/build\l/STORM&#45;IRIT/Radium&#45;Engine\l/src/Core/Algorithm/Subdivision\l/CatmullClarkSubdivider.cpp">
<polygon fill="white" stroke="black" points="-0.5,-1 -0.5,-53 154.5,-53 154.5,-1 -0.5,-1"/>
<text text-anchor="start" x="7.5" y="-41" font-family="Helvetica,sans-Serif" font-size="10.00">/home/travis/build</text>
<text text-anchor="start" x="7.5" y="-30" font-family="Helvetica,sans-Serif" font-size="10.00">/STORM&#45;IRIT/Radium&#45;Engine</text>
<text text-anchor="start" x="7.5" y="-19" font-family="Helvetica,sans-Serif" font-size="10.00">/src/Core/Algorithm/Subdivision</text>
<text text-anchor="middle" x="77" y="-8" font-family="Helvetica,sans-Serif" font-size="10.00">/CatmullClarkSubdivider.cpp</text>
</a>
</g>
</g>
<!-- Node3&#45;&gt;Node4 -->
<g id="edge3" class="edge"><title>Node3&#45;&gt;Node4</title>
<path fill="none" stroke="midnightblue" d="M77,-80.4892C77,-71.3088 77,-61.616 77,-53.0921"/>
<polygon fill="midnightblue" stroke="midnightblue" points="73.5001,-80.5467 77,-90.5468 80.5001,-80.5468 73.5001,-80.5467"/>
</g>
<!-- Node6 -->
<g id="node6" class="node"><title>Node6</title>
<g id="a_node6"><a xlink:href="LoopSubdivider_8cpp.html" target="_top" xlink:title="/home/travis/build\l/STORM&#45;IRIT/Radium&#45;Engine\l/src/Core/Algorithm/Subdivision\l/LoopSubdivider.cpp">
<polygon fill="white" stroke="black" points="172.5,-1 172.5,-53 327.5,-53 327.5,-1 172.5,-1"/>
<text text-anchor="start" x="180.5" y="-41" font-family="Helvetica,sans-Serif" font-size="10.00">/home/travis/build</text>
<text text-anchor="start" x="180.5" y="-30" font-family="Helvetica,sans-Serif" font-size="10.00">/STORM&#45;IRIT/Radium&#45;Engine</text>
<text text-anchor="start" x="180.5" y="-19" font-family="Helvetica,sans-Serif" font-size="10.00">/src/Core/Algorithm/Subdivision</text>
<text text-anchor="middle" x="250" y="-8" font-family="Helvetica,sans-Serif" font-size="10.00">/LoopSubdivider.cpp</text>
</a>
</g>
</g>
<!-- Node5&#45;&gt;Node6 -->
<g id="edge5" class="edge"><title>Node5&#45;&gt;Node6</title>
<path fill="none" stroke="midnightblue" d="M250,-80.4892C250,-71.3088 250,-61.616 250,-53.0921"/>
<polygon fill="midnightblue" stroke="midnightblue" points="246.5,-80.5467 250,-90.5468 253.5,-80.5468 246.5,-80.5467"/>
</g>
<!-- Node8&#45;&gt;Node7 -->
<g id="edge8" class="edge"><title>Node8&#45;&gt;Node7</title>
<path fill="none" stroke="midnightblue" d="M450.495,-81.6708C445.082,-72.1448 439.308,-61.9826 434.257,-53.0921"/>
<polygon fill="midnightblue" stroke="midnightblue" points="447.555,-83.5812 455.538,-90.5468 453.641,-80.1231 447.555,-83.5812"/>
</g>
<!-- Node9 -->
<g id="node9" class="node"><title>Node9</title>
<g id="a_node9"><a xlink:href="EdgeSplit_8cpp.html" target="_top" xlink:title="/home/travis/build\l/STORM&#45;IRIT/Radium&#45;Engine\l/src/Core/Mesh/TopologicalTriMesh\l/Operations/EdgeSplit.cpp">
<polygon fill="white" stroke="black" points="512,-1 512,-53 684,-53 684,-1 512,-1"/>
<text text-anchor="start" x="520" y="-41" font-family="Helvetica,sans-Serif" font-size="10.00">/home/travis/build</text>
<text text-anchor="start" x="520" y="-30" font-family="Helvetica,sans-Serif" font-size="10.00">/STORM&#45;IRIT/Radium&#45;Engine</text>
<text text-anchor="start" x="520" y="-19" font-family="Helvetica,sans-Serif" font-size="10.00">/src/Core/Mesh/TopologicalTriMesh</text>
<text text-anchor="middle" x="598" y="-8" font-family="Helvetica,sans-Serif" font-size="10.00">/Operations/EdgeSplit.cpp</text>
</a>
</g>
</g>
<!-- Node8&#45;&gt;Node9 -->
<g id="edge9" class="edge"><title>Node8&#45;&gt;Node9</title>
<path fill="none" stroke="midnightblue" d="M514.925,-85.1143C530.102,-74.6802 546.853,-63.1632 561.315,-53.221"/>
<polygon fill="midnightblue" stroke="midnightblue" points="512.937,-82.2332 506.68,-90.7827 516.903,-88.0016 512.937,-82.2332"/>
</g>
<!-- Node11&#45;&gt;Node2 -->
<g id="edge12" class="edge"><title>Node11&#45;&gt;Node2</title>
<path fill="none" stroke="midnightblue" d="M758.076,-145.433C687.43,-162.575 612.318,-178.694 556.071,-190.072"/>
<polygon fill="midnightblue" stroke="midnightblue" points="759.128,-148.779 768.013,-143.007 757.468,-141.978 759.128,-148.779"/>
</g>
</g>
</svg>
