<?xml version="1.0" encoding="UTF-8" standalone="no"?>
<!DOCTYPE svg PUBLIC "-//W3C//DTD SVG 1.1//EN"
 "http://www.w3.org/Graphics/SVG/1.1/DTD/svg11.dtd">
<!-- Generated by graphviz version 2.36.0 (20140111.2315)
 -->
<!-- Title: /home/travis/build/STORM&#45;IRIT/Radium&#45;Engine/src/Engine/Renderer/OpenGL/OpenGL.hpp Pages: 1 -->
<svg width="247pt" height="118pt"
 viewBox="0.00 0.00 247.00 118.00" xmlns="http://www.w3.org/2000/svg" xmlns:xlink="http://www.w3.org/1999/xlink">
<g id="graph0" class="graph" transform="scale(1 1) rotate(0) translate(4 114)">
<title>/home/travis/build/STORM&#45;IRIT/Radium&#45;Engine/src/Engine/Renderer/OpenGL/OpenGL.hpp</title>
<polygon fill="white" stroke="none" points="-4,4 -4,-114 243,-114 243,4 -4,4"/>
<!-- Node1 -->
<g id="node1" class="node"><title>Node1</title>
<polygon fill="#bfbfbf" stroke="black" points="46,-57 46,-109 194,-109 194,-57 46,-57"/>
<text text-anchor="start" x="54" y="-97" font-family="Helvetica,sans-Serif" font-size="10.00">/home/travis/build</text>
<text text-anchor="start" x="54" y="-86" font-family="Helvetica,sans-Serif" font-size="10.00">/STORM&#45;IRIT/Radium&#45;Engine</text>
<text text-anchor="start" x="54" y="-75" font-family="Helvetica,sans-Serif" font-size="10.00">/src/Engine/Renderer/OpenGL</text>
<text text-anchor="middle" x="120" y="-64" font-family="Helvetica,sans-Serif" font-size="10.00">/OpenGL.hpp</text>
</g>
<!-- Node2 -->
<g id="node2" class="node"><title>Node2</title>
<polygon fill="white" stroke="#bfbfbf" points="-0.5,-0.5 -0.5,-19.5 112.5,-19.5 112.5,-0.5 -0.5,-0.5"/>
<text text-anchor="middle" x="56" y="-7.5" font-family="Helvetica,sans-Serif" font-size="10.00">glbinding/gl45core/gl.h</text>
</g>
<!-- Node1&#45;&gt;Node2 -->
<g id="edge1" class="edge"><title>Node1&#45;&gt;Node2</title>
<path fill="none" stroke="midnightblue" d="M97.2558,-56.7681C88.4342,-46.9817 78.5858,-36.0561 70.7241,-27.3346"/>
<polygon fill="midnightblue" stroke="midnightblue" points="73.1889,-24.8415 63.8938,-19.7572 67.9895,-29.5283 73.1889,-24.8415"/>
</g>
<!-- Node3 -->
<g id="node3" class="node"><title>Node3</title>
<polygon fill="white" stroke="#bfbfbf" points="131,-0.5 131,-19.5 239,-19.5 239,-0.5 131,-0.5"/>
<text text-anchor="middle" x="185" y="-7.5" font-family="Helvetica,sans-Serif" font-size="10.00">glbinding/gl45ext/gl.h</text>
</g>
<!-- Node1&#45;&gt;Node3 -->
<g id="edge2" class="edge"><title>Node1&#45;&gt;Node3</title>
<path fill="none" stroke="midnightblue" d="M143.1,-56.7681C152.059,-46.9817 162.061,-36.0561 170.046,-27.3346"/>
<polygon fill="midnightblue" stroke="midnightblue" points="172.812,-29.4964 176.983,-19.7572 167.649,-24.7696 172.812,-29.4964"/>
</g>
</g>
</svg>
