<?xml version="1.0" encoding="UTF-8" standalone="no"?>
<!DOCTYPE svg PUBLIC "-//W3C//DTD SVG 1.1//EN"
 "http://www.w3.org/Graphics/SVG/1.1/DTD/svg11.dtd">
<!-- Generated by graphviz version 2.36.0 (20140111.2315)
 -->
<!-- Title: /home/travis/build/STORM&#45;IRIT/Radium&#45;Engine/src/Core/Geometry/PointCloud/PointCloud.hpp Pages: 1 -->
<svg width="3207pt" height="578pt"
 viewBox="0.00 0.00 3207.00 578.00" xmlns="http://www.w3.org/2000/svg" xmlns:xlink="http://www.w3.org/1999/xlink">
<g id="graph0" class="graph" transform="scale(1 1) rotate(0) translate(4 574)">
<title>/home/travis/build/STORM&#45;IRIT/Radium&#45;Engine/src/Core/Geometry/PointCloud/PointCloud.hpp</title>
<polygon fill="white" stroke="none" points="-4,4 -4,-574 3203,-574 3203,4 -4,4"/>
<!-- Node1 -->
<g id="node1" class="node"><title>Node1</title>
<polygon fill="#bfbfbf" stroke="black" points="52,-517 52,-569 206,-569 206,-517 52,-517"/>
<text text-anchor="start" x="60" y="-557" font-family="Helvetica,sans-Serif" font-size="10.00">/home/travis/build</text>
<text text-anchor="start" x="60" y="-546" font-family="Helvetica,sans-Serif" font-size="10.00">/STORM&#45;IRIT/Radium&#45;Engine</text>
<text text-anchor="start" x="60" y="-535" font-family="Helvetica,sans-Serif" font-size="10.00">/src/Core/Geometry/PointCloud</text>
<text text-anchor="middle" x="129" y="-524" font-family="Helvetica,sans-Serif" font-size="10.00">/PointCloud.hpp</text>
</g>
<!-- Node2 -->
<g id="node2" class="node"><title>Node2</title>
<g id="a_node2"><a xlink:href="PointCloud_8inl.html" target="_top" xlink:title="/home/travis/build\l/STORM&#45;IRIT/Radium&#45;Engine\l/src/Core/Geometry/PointCloud\l/PointCloud.inl">
<polygon fill="white" stroke="black" points="0,-427 0,-479 154,-479 154,-427 0,-427"/>
<text text-anchor="start" x="8" y="-467" font-family="Helvetica,sans-Serif" font-size="10.00">/home/travis/build</text>
<text text-anchor="start" x="8" y="-456" font-family="Helvetica,sans-Serif" font-size="10.00">/STORM&#45;IRIT/Radium&#45;Engine</text>
<text text-anchor="start" x="8" y="-445" font-family="Helvetica,sans-Serif" font-size="10.00">/src/Core/Geometry/PointCloud</text>
<text text-anchor="middle" x="77" y="-434" font-family="Helvetica,sans-Serif" font-size="10.00">/PointCloud.inl</text>
</a>
</g>
</g>
<!-- Node1&#45;&gt;Node2 -->
<g id="edge1" class="edge"><title>Node1&#45;&gt;Node2</title>
<path fill="none" stroke="midnightblue" d="M102.295,-507.965C96.3095,-498.354 90.3786,-488.074 85.6648,-479.092"/>
<polygon fill="midnightblue" stroke="midnightblue" points="99.4423,-510.001 107.773,-516.547 105.342,-506.235 99.4423,-510.001"/>
</g>
<!-- Node3 -->
<g id="node3" class="node"><title>Node3</title>
<g id="a_node3"><a xlink:href="PolyLine_8inl.html" target="_top" xlink:title="/home/travis/build\l/STORM&#45;IRIT/Radium&#45;Engine\l/src/Core/Math/PolyLine.inl">
<polygon fill="white" stroke="black" points="41,-174.5 41,-215.5 189,-215.5 189,-174.5 41,-174.5"/>
<text text-anchor="start" x="49" y="-203.5" font-family="Helvetica,sans-Serif" font-size="10.00">/home/travis/build</text>
<text text-anchor="start" x="49" y="-192.5" font-family="Helvetica,sans-Serif" font-size="10.00">/STORM&#45;IRIT/Radium&#45;Engine</text>
<text text-anchor="middle" x="115" y="-181.5" font-family="Helvetica,sans-Serif" font-size="10.00">/src/Core/Math/PolyLine.inl</text>
</a>
</g>
</g>
<!-- Node1&#45;&gt;Node3 -->
<g id="edge3" class="edge"><title>Node1&#45;&gt;Node3</title>
<path fill="none" stroke="midnightblue" d="M151.501,-508.164C156.233,-499.352 160.535,-489.621 163,-480 188.069,-382.15 143.69,-261.896 123.852,-215.517"/>
<polygon fill="midnightblue" stroke="midnightblue" points="148.391,-506.551 146.472,-516.97 154.47,-510.022 148.391,-506.551"/>
</g>
<!-- Node6 -->
<g id="node6" class="node"><title>Node6</title>
<g id="a_node6"><a xlink:href="MeshUtils_8inl.html" target="_top" xlink:title="/home/travis/build\l/STORM&#45;IRIT/Radium&#45;Engine\l/src/Core/Mesh/MeshUtils.inl">
<polygon fill="white" stroke="black" points="1529,-432.5 1529,-473.5 1677,-473.5 1677,-432.5 1529,-432.5"/>
<text text-anchor="start" x="1537" y="-461.5" font-family="Helvetica,sans-Serif" font-size="10.00">/home/travis/build</text>
<text text-anchor="start" x="1537" y="-450.5" font-family="Helvetica,sans-Serif" font-size="10.00">/STORM&#45;IRIT/Radium&#45;Engine</text>
<text text-anchor="middle" x="1603" y="-439.5" font-family="Helvetica,sans-Serif" font-size="10.00">/src/Core/Mesh/MeshUtils.inl</text>
</a>
</g>
</g>
<!-- Node1&#45;&gt;Node6 -->
<g id="edge7" class="edge"><title>Node1&#45;&gt;Node6</title>
<path fill="none" stroke="midnightblue" d="M216.171,-536.796C482.257,-520.91 1280.91,-473.229 1528.79,-458.431"/>
<polygon fill="midnightblue" stroke="midnightblue" points="215.947,-533.303 206.173,-537.393 216.364,-540.29 215.947,-533.303"/>
</g>
<!-- Node2&#45;&gt;Node1 -->
<g id="edge2" class="edge"><title>Node2&#45;&gt;Node1</title>
<path fill="none" stroke="midnightblue" d="M103.465,-487.65C109.452,-497.242 115.399,-507.53 120.145,-516.547"/>
<polygon fill="midnightblue" stroke="midnightblue" points="106.327,-485.629 97.9896,-479.092 100.431,-489.402 106.327,-485.629"/>
</g>
<!-- Node4 -->
<g id="node4" class="node"><title>Node4</title>
<g id="a_node4"><a xlink:href="PolyLine_8hpp.html" target="_top" xlink:title="/home/travis/build\l/STORM&#45;IRIT/Radium&#45;Engine\l/src/Core/Math/PolyLine.hpp">
<polygon fill="white" stroke="black" points="41,-84.5 41,-125.5 189,-125.5 189,-84.5 41,-84.5"/>
<text text-anchor="start" x="49" y="-113.5" font-family="Helvetica,sans-Serif" font-size="10.00">/home/travis/build</text>
<text text-anchor="start" x="49" y="-102.5" font-family="Helvetica,sans-Serif" font-size="10.00">/STORM&#45;IRIT/Radium&#45;Engine</text>
<text text-anchor="middle" x="115" y="-91.5" font-family="Helvetica,sans-Serif" font-size="10.00">/src/Core/Math/PolyLine.hpp</text>
</a>
</g>
</g>
<!-- Node3&#45;&gt;Node4 -->
<g id="edge4" class="edge"><title>Node3&#45;&gt;Node4</title>
<path fill="none" stroke="midnightblue" d="M108.579,-164.33C107.976,-151.629 108.202,-137.14 109.257,-125.78"/>
<polygon fill="midnightblue" stroke="midnightblue" points="105.098,-164.735 109.28,-174.47 112.082,-164.252 105.098,-164.735"/>
</g>
<!-- Node4&#45;&gt;Node3 -->
<g id="edge6" class="edge"><title>Node4&#45;&gt;Node3</title>
<path fill="none" stroke="midnightblue" d="M121.434,-135.95C122.025,-148.677 121.787,-163.156 120.72,-174.47"/>
<polygon fill="midnightblue" stroke="midnightblue" points="124.913,-135.519 120.743,-125.78 117.929,-135.994 124.913,-135.519"/>
</g>
<!-- Node5 -->
<g id="node5" class="node"><title>Node5</title>
<g id="a_node5"><a xlink:href="PolyLine_8cpp.html" target="_top" xlink:title="/home/travis/build\l/STORM&#45;IRIT/Radium&#45;Engine\l/src/Core/Math/PolyLine.cpp">
<polygon fill="white" stroke="black" points="41,-0.5 41,-41.5 189,-41.5 189,-0.5 41,-0.5"/>
<text text-anchor="start" x="49" y="-29.5" font-family="Helvetica,sans-Serif" font-size="10.00">/home/travis/build</text>
<text text-anchor="start" x="49" y="-18.5" font-family="Helvetica,sans-Serif" font-size="10.00">/STORM&#45;IRIT/Radium&#45;Engine</text>
<text text-anchor="middle" x="115" y="-7.5" font-family="Helvetica,sans-Serif" font-size="10.00">/src/Core/Math/PolyLine.cpp</text>
</a>
</g>
</g>
<!-- Node4&#45;&gt;Node5 -->
<g id="edge5" class="edge"><title>Node4&#45;&gt;Node5</title>
<path fill="none" stroke="midnightblue" d="M115,-73.881C115,-63.1328 115,-51.309 115,-41.6671"/>
<polygon fill="midnightblue" stroke="midnightblue" points="111.5,-74.1501 115,-84.1501 118.5,-74.1501 111.5,-74.1501"/>
</g>
<!-- Node7 -->
<g id="node7" class="node"><title>Node7</title>
<g id="a_node7"><a xlink:href="MeshUtils_8hpp.html" target="_top" xlink:title="/home/travis/build\l/STORM&#45;IRIT/Radium&#45;Engine\l/src/Core/Mesh/MeshUtils.hpp">
<polygon fill="white" stroke="black" points="1528,-348.5 1528,-389.5 1678,-389.5 1678,-348.5 1528,-348.5"/>
<text text-anchor="start" x="1536" y="-377.5" font-family="Helvetica,sans-Serif" font-size="10.00">/home/travis/build</text>
<text text-anchor="start" x="1536" y="-366.5" font-family="Helvetica,sans-Serif" font-size="10.00">/STORM&#45;IRIT/Radium&#45;Engine</text>
<text text-anchor="middle" x="1603" y="-355.5" font-family="Helvetica,sans-Serif" font-size="10.00">/src/Core/Mesh/MeshUtils.hpp</text>
</a>
</g>
</g>
<!-- Node6&#45;&gt;Node7 -->
<g id="edge8" class="edge"><title>Node6&#45;&gt;Node7</title>
<path fill="none" stroke="midnightblue" d="M1596.47,-421.881C1596.03,-411.133 1596.25,-399.309 1597.14,-389.667"/>
<polygon fill="midnightblue" stroke="midnightblue" points="1592.99,-422.394 1597.12,-432.15 1599.98,-421.947 1592.99,-422.394"/>
</g>
<!-- Node7&#45;&gt;Node6 -->
<g id="edge27" class="edge"><title>Node7&#45;&gt;Node6</title>
<path fill="none" stroke="midnightblue" d="M1609.53,-399.916C1609.97,-410.65 1609.75,-422.481 1608.88,-432.15"/>
<polygon fill="midnightblue" stroke="midnightblue" points="1613,-399.42 1608.86,-389.667 1606.02,-399.873 1613,-399.42"/>
</g>
<!-- Node8 -->
<g id="node8" class="node"><title>Node8</title>
<g id="a_node8"><a xlink:href="RotationCenterSkinning_8cpp.html" target="_top" xlink:title="/home/travis/build\l/STORM&#45;IRIT/Radium&#45;Engine\l/src/Core/Animation/Skinning\l/RotationCenterSkinning.cpp">
<polygon fill="white" stroke="black" points="432,-259 432,-311 580,-311 580,-259 432,-259"/>
<text text-anchor="start" x="440" y="-299" font-family="Helvetica,sans-Serif" font-size="10.00">/home/travis/build</text>
<text text-anchor="start" x="440" y="-288" font-family="Helvetica,sans-Serif" font-size="10.00">/STORM&#45;IRIT/Radium&#45;Engine</text>
<text text-anchor="start" x="440" y="-277" font-family="Helvetica,sans-Serif" font-size="10.00">/src/Core/Animation/Skinning</text>
<text text-anchor="middle" x="506" y="-266" font-family="Helvetica,sans-Serif" font-size="10.00">/RotationCenterSkinning.cpp</text>
</a>
</g>
</g>
<!-- Node7&#45;&gt;Node8 -->
<g id="edge9" class="edge"><title>Node7&#45;&gt;Node8</title>
<path fill="none" stroke="midnightblue" d="M1517.64,-366.01C1306.91,-360.66 766.3,-344.148 589,-312 586.177,-311.488 583.316,-310.909 580.438,-310.275"/>
<polygon fill="midnightblue" stroke="midnightblue" points="1517.64,-369.511 1527.72,-366.264 1517.81,-362.513 1517.64,-369.511"/>
</g>
<!-- Node9 -->
<g id="node9" class="node"><title>Node9</title>
<g id="a_node9"><a xlink:href="DistanceQueries_8inl.html" target="_top" xlink:title="/home/travis/build\l/STORM&#45;IRIT/Radium&#45;Engine\l/src/Core/Geometry/Distance\l/DistanceQueries.inl">
<polygon fill="white" stroke="black" points="598,-259 598,-311 746,-311 746,-259 598,-259"/>
<text text-anchor="start" x="606" y="-299" font-family="Helvetica,sans-Serif" font-size="10.00">/home/travis/build</text>
<text text-anchor="start" x="606" y="-288" font-family="Helvetica,sans-Serif" font-size="10.00">/STORM&#45;IRIT/Radium&#45;Engine</text>
<text text-anchor="start" x="606" y="-277" font-family="Helvetica,sans-Serif" font-size="10.00">/src/Core/Geometry/Distance</text>
<text text-anchor="middle" x="672" y="-266" font-family="Helvetica,sans-Serif" font-size="10.00">/DistanceQueries.inl</text>
</a>
</g>
</g>
<!-- Node7&#45;&gt;Node9 -->
<g id="edge10" class="edge"><title>Node7&#45;&gt;Node9</title>
<path fill="none" stroke="midnightblue" d="M1517.77,-364.6C1374.22,-358.263 1075.24,-342.444 824,-312 798.485,-308.908 770.732,-304.479 746.006,-300.15"/>
<polygon fill="midnightblue" stroke="midnightblue" points="1517.69,-368.1 1527.84,-365.04 1518,-361.106 1517.69,-368.1"/>
</g>
<!-- Node12 -->
<g id="node12" class="node"><title>Node12</title>
<g id="a_node12"><a xlink:href="MeshPrimitives_8inl.html" target="_top" xlink:title="/home/travis/build\l/STORM&#45;IRIT/Radium&#45;Engine\l/src/Core/Mesh/MeshPrimitives.inl">
<polygon fill="white" stroke="black" points="833.5,-264.5 833.5,-305.5 1000.5,-305.5 1000.5,-264.5 833.5,-264.5"/>
<text text-anchor="start" x="841.5" y="-293.5" font-family="Helvetica,sans-Serif" font-size="10.00">/home/travis/build</text>
<text text-anchor="start" x="841.5" y="-282.5" font-family="Helvetica,sans-Serif" font-size="10.00">/STORM&#45;IRIT/Radium&#45;Engine</text>
<text text-anchor="middle" x="917" y="-271.5" font-family="Helvetica,sans-Serif" font-size="10.00">/src/Core/Mesh/MeshPrimitives.inl</text>
</a>
</g>
</g>
<!-- Node7&#45;&gt;Node12 -->
<g id="edge15" class="edge"><title>Node7&#45;&gt;Node12</title>
<path fill="none" stroke="midnightblue" d="M1517.76,-364.196C1403.01,-358.092 1192.84,-343.444 1016,-312 1006.11,-310.242 995.771,-307.994 985.652,-305.557"/>
<polygon fill="midnightblue" stroke="midnightblue" points="1517.71,-367.698 1527.88,-364.725 1518.08,-360.708 1517.71,-367.698"/>
</g>
<!-- Node17 -->
<g id="node17" class="node"><title>Node17</title>
<g id="a_node17"><a xlink:href="DrawPrimitives_8cpp.html" target="_top" xlink:title="/home/travis/build\l/STORM&#45;IRIT/Radium&#45;Engine\l/src/Engine/Renderer/RenderObject\l/Primitives/DrawPrimitives.cpp">
<polygon fill="white" stroke="black" points="1645,-79 1645,-131 1817,-131 1817,-79 1645,-79"/>
<text text-anchor="start" x="1653" y="-119" font-family="Helvetica,sans-Serif" font-size="10.00">/home/travis/build</text>
<text text-anchor="start" x="1653" y="-108" font-family="Helvetica,sans-Serif" font-size="10.00">/STORM&#45;IRIT/Radium&#45;Engine</text>
<text text-anchor="start" x="1653" y="-97" font-family="Helvetica,sans-Serif" font-size="10.00">/src/Engine/Renderer/RenderObject</text>
<text text-anchor="middle" x="1731" y="-86" font-family="Helvetica,sans-Serif" font-size="10.00">/Primitives/DrawPrimitives.cpp</text>
</a>
</g>
</g>
<!-- Node7&#45;&gt;Node17 -->
<g id="edge34" class="edge"><title>Node7&#45;&gt;Node17</title>
<path fill="none" stroke="midnightblue" d="M1517.52,-365.54C1369.87,-360.402 1079.78,-346.052 1049,-312 1032.91,-294.197 1036.67,-278.591 1049,-258 1092.51,-185.325 1135.8,-192.121 1217,-168 1396.17,-114.776 1451.99,-164.805 1636,-132 1638.95,-131.475 1641.93,-130.9 1644.94,-130.285"/>
<polygon fill="midnightblue" stroke="midnightblue" points="1517.79,-369.051 1527.9,-365.894 1518.03,-362.055 1517.79,-369.051"/>
</g>
<!-- Node22 -->
<g id="node22" class="node"><title>Node22</title>
<g id="a_node22"><a xlink:href="MeshUtils_8cpp.html" target="_top" xlink:title="/home/travis/build\l/STORM&#45;IRIT/Radium&#45;Engine\l/src/Core/Mesh/MeshUtils.cpp">
<polygon fill="white" stroke="black" points="1058,-264.5 1058,-305.5 1208,-305.5 1208,-264.5 1058,-264.5"/>
<text text-anchor="start" x="1066" y="-293.5" font-family="Helvetica,sans-Serif" font-size="10.00">/home/travis/build</text>
<text text-anchor="start" x="1066" y="-282.5" font-family="Helvetica,sans-Serif" font-size="10.00">/STORM&#45;IRIT/Radium&#45;Engine</text>
<text text-anchor="middle" x="1133" y="-271.5" font-family="Helvetica,sans-Serif" font-size="10.00">/src/Core/Mesh/MeshUtils.cpp</text>
</a>
</g>
</g>
<!-- Node7&#45;&gt;Node22 -->
<g id="edge26" class="edge"><title>Node7&#45;&gt;Node22</title>
<path fill="none" stroke="midnightblue" d="M1517.3,-359.451C1438.61,-350.685 1319.09,-335.057 1217,-312 1208.96,-310.184 1200.57,-307.977 1192.34,-305.625"/>
<polygon fill="midnightblue" stroke="midnightblue" points="1517.32,-362.974 1527.65,-360.59 1518.09,-356.016 1517.32,-362.974"/>
</g>
<!-- Node23 -->
<g id="node23" class="node"><title>Node23</title>
<g id="a_node23"><a xlink:href="BVH_8inl.html" target="_top" xlink:title="/home/travis/build\l/STORM&#45;IRIT/Radium&#45;Engine\l/src/Core/TreeStructures\l/BVH.inl">
<polygon fill="white" stroke="black" points="1226,-259 1226,-311 1374,-311 1374,-259 1226,-259"/>
<text text-anchor="start" x="1234" y="-299" font-family="Helvetica,sans-Serif" font-size="10.00">/home/travis/build</text>
<text text-anchor="start" x="1234" y="-288" font-family="Helvetica,sans-Serif" font-size="10.00">/STORM&#45;IRIT/Radium&#45;Engine</text>
<text text-anchor="start" x="1234" y="-277" font-family="Helvetica,sans-Serif" font-size="10.00">/src/Core/TreeStructures</text>
<text text-anchor="middle" x="1300" y="-266" font-family="Helvetica,sans-Serif" font-size="10.00">/BVH.inl</text>
</a>
</g>
</g>
<!-- Node7&#45;&gt;Node23 -->
<g id="edge28" class="edge"><title>Node7&#45;&gt;Node23</title>
<path fill="none" stroke="midnightblue" d="M1517.95,-347.494C1477.01,-337.333 1427.31,-324.57 1383,-312 1380.09,-311.176 1377.14,-310.322 1374.15,-309.447"/>
<polygon fill="midnightblue" stroke="midnightblue" points="1517.34,-350.949 1527.89,-349.953 1519.02,-344.154 1517.34,-350.949"/>
</g>
<!-- Node25 -->
<g id="node25" class="node"><title>Node25</title>
<g id="a_node25"><a xlink:href="Component_8cpp.html" target="_top" xlink:title="/home/travis/build\l/STORM&#45;IRIT/Radium&#45;Engine\l/src/Engine/Component/Component.cpp">
<polygon fill="white" stroke="black" points="1392.5,-264.5 1392.5,-305.5 1583.5,-305.5 1583.5,-264.5 1392.5,-264.5"/>
<text text-anchor="start" x="1400.5" y="-293.5" font-family="Helvetica,sans-Serif" font-size="10.00">/home/travis/build</text>
<text text-anchor="start" x="1400.5" y="-282.5" font-family="Helvetica,sans-Serif" font-size="10.00">/STORM&#45;IRIT/Radium&#45;Engine</text>
<text text-anchor="middle" x="1488" y="-271.5" font-family="Helvetica,sans-Serif" font-size="10.00">/src/Engine/Component/Component.cpp</text>
</a>
</g>
</g>
<!-- Node7&#45;&gt;Node25 -->
<g id="edge31" class="edge"><title>Node7&#45;&gt;Node25</title>
<path fill="none" stroke="midnightblue" d="M1567.08,-342.387C1550.51,-330.571 1531.14,-316.761 1515.72,-305.765"/>
<polygon fill="midnightblue" stroke="midnightblue" points="1565.28,-345.403 1575.45,-348.359 1569.34,-339.703 1565.28,-345.403"/>
</g>
<!-- Node26 -->
<g id="node26" class="node"><title>Node26</title>
<g id="a_node26"><a xlink:href="GeometryComponent_8cpp.html" target="_top" xlink:title="/home/travis/build\l/STORM&#45;IRIT/Radium&#45;Engine\l/src/Engine/Component/GeometryComponent.cpp">
<polygon fill="white" stroke="black" points="1602,-264.5 1602,-305.5 1836,-305.5 1836,-264.5 1602,-264.5"/>
<text text-anchor="start" x="1610" y="-293.5" font-family="Helvetica,sans-Serif" font-size="10.00">/home/travis/build</text>
<text text-anchor="start" x="1610" y="-282.5" font-family="Helvetica,sans-Serif" font-size="10.00">/STORM&#45;IRIT/Radium&#45;Engine</text>
<text text-anchor="middle" x="1719" y="-271.5" font-family="Helvetica,sans-Serif" font-size="10.00">/src/Engine/Component/GeometryComponent.cpp</text>
</a>
</g>
</g>
<!-- Node7&#45;&gt;Node26 -->
<g id="edge32" class="edge"><title>Node7&#45;&gt;Node26</title>
<path fill="none" stroke="midnightblue" d="M1639.23,-342.387C1655.95,-330.571 1675.48,-316.761 1691.04,-305.765"/>
<polygon fill="midnightblue" stroke="midnightblue" points="1636.93,-339.729 1630.78,-348.359 1640.97,-345.445 1636.93,-339.729"/>
</g>
<!-- Node27 -->
<g id="node27" class="node"><title>Node27</title>
<g id="a_node27"><a xlink:href="Mesh_8cpp.html" target="_top" xlink:title="/home/travis/build\l/STORM&#45;IRIT/Radium&#45;Engine\l/src/Engine/Renderer/Mesh\l/Mesh.cpp">
<polygon fill="white" stroke="black" points="1854,-259 1854,-311 2002,-311 2002,-259 1854,-259"/>
<text text-anchor="start" x="1862" y="-299" font-family="Helvetica,sans-Serif" font-size="10.00">/home/travis/build</text>
<text text-anchor="start" x="1862" y="-288" font-family="Helvetica,sans-Serif" font-size="10.00">/STORM&#45;IRIT/Radium&#45;Engine</text>
<text text-anchor="start" x="1862" y="-277" font-family="Helvetica,sans-Serif" font-size="10.00">/src/Engine/Renderer/Mesh</text>
<text text-anchor="middle" x="1928" y="-266" font-family="Helvetica,sans-Serif" font-size="10.00">/Mesh.cpp</text>
</a>
</g>
</g>
<!-- Node7&#45;&gt;Node27 -->
<g id="edge33" class="edge"><title>Node7&#45;&gt;Node27</title>
<path fill="none" stroke="midnightblue" d="M1688.09,-349.972C1734.66,-339.689 1793.24,-326.073 1845,-312 1847.91,-311.208 1850.88,-310.38 1853.87,-309.528"/>
<polygon fill="midnightblue" stroke="midnightblue" points="1687.06,-346.615 1678.04,-352.18 1688.56,-353.452 1687.06,-346.615"/>
</g>
<!-- Node28 -->
<g id="node28" class="node"><title>Node28</title>
<g id="a_node28"><a xlink:href="RenderObject_8cpp.html" target="_top" xlink:title="/home/travis/build\l/STORM&#45;IRIT/Radium&#45;Engine\l/src/Engine/Renderer/RenderObject\l/RenderObject.cpp">
<polygon fill="white" stroke="black" points="2020,-259 2020,-311 2192,-311 2192,-259 2020,-259"/>
<text text-anchor="start" x="2028" y="-299" font-family="Helvetica,sans-Serif" font-size="10.00">/home/travis/build</text>
<text text-anchor="start" x="2028" y="-288" font-family="Helvetica,sans-Serif" font-size="10.00">/STORM&#45;IRIT/Radium&#45;Engine</text>
<text text-anchor="start" x="2028" y="-277" font-family="Helvetica,sans-Serif" font-size="10.00">/src/Engine/Renderer/RenderObject</text>
<text text-anchor="middle" x="2106" y="-266" font-family="Helvetica,sans-Serif" font-size="10.00">/RenderObject.cpp</text>
</a>
</g>
</g>
<!-- Node7&#45;&gt;Node28 -->
<g id="edge35" class="edge"><title>Node7&#45;&gt;Node28</title>
<path fill="none" stroke="midnightblue" d="M1688.45,-359.561C1771.38,-350.598 1900.55,-334.592 2011,-312 2013.93,-311.4 2016.91,-310.761 2019.9,-310.091"/>
<polygon fill="midnightblue" stroke="midnightblue" points="1687.89,-356.101 1678.32,-360.646 1688.64,-363.061 1687.89,-356.101"/>
</g>
<!-- Node29 -->
<g id="node29" class="node"><title>Node29</title>
<g id="a_node29"><a xlink:href="BaseApplication_8cpp.html" target="_top" xlink:title="/home/travis/build\l/STORM&#45;IRIT/Radium&#45;Engine\l/src/GuiBase/BaseApplication.cpp">
<polygon fill="white" stroke="black" points="2210,-264.5 2210,-305.5 2376,-305.5 2376,-264.5 2210,-264.5"/>
<text text-anchor="start" x="2218" y="-293.5" font-family="Helvetica,sans-Serif" font-size="10.00">/home/travis/build</text>
<text text-anchor="start" x="2218" y="-282.5" font-family="Helvetica,sans-Serif" font-size="10.00">/STORM&#45;IRIT/Radium&#45;Engine</text>
<text text-anchor="middle" x="2293" y="-271.5" font-family="Helvetica,sans-Serif" font-size="10.00">/src/GuiBase/BaseApplication.cpp</text>
</a>
</g>
</g>
<!-- Node7&#45;&gt;Node29 -->
<g id="edge36" class="edge"><title>Node7&#45;&gt;Node29</title>
<path fill="none" stroke="midnightblue" d="M1688.48,-364.887C1805.15,-359.529 2020.4,-345.685 2201,-312 2210.3,-310.265 2220.02,-308.014 2229.51,-305.562"/>
<polygon fill="midnightblue" stroke="midnightblue" points="1688.02,-361.404 1678.19,-365.349 1688.33,-368.397 1688.02,-361.404"/>
</g>
<!-- Node30 -->
<g id="node30" class="node"><title>Node30</title>
<g id="a_node30"><a xlink:href="SkeletonBoneDrawable_8hpp.html" target="_top" xlink:title="/home/travis/build\l/STORM&#45;IRIT/Radium&#45;Engine\l/Plugins/Animation/src/Drawing\l/SkeletonBoneDrawable.hpp">
<polygon fill="white" stroke="black" points="2394,-259 2394,-311 2548,-311 2548,-259 2394,-259"/>
<text text-anchor="start" x="2402" y="-299" font-family="Helvetica,sans-Serif" font-size="10.00">/home/travis/build</text>
<text text-anchor="start" x="2402" y="-288" font-family="Helvetica,sans-Serif" font-size="10.00">/STORM&#45;IRIT/Radium&#45;Engine</text>
<text text-anchor="start" x="2402" y="-277" font-family="Helvetica,sans-Serif" font-size="10.00">/Plugins/Animation/src/Drawing</text>
<text text-anchor="middle" x="2471" y="-266" font-family="Helvetica,sans-Serif" font-size="10.00">/SkeletonBoneDrawable.hpp</text>
</a>
</g>
</g>
<!-- Node7&#45;&gt;Node30 -->
<g id="edge37" class="edge"><title>Node7&#45;&gt;Node30</title>
<path fill="none" stroke="midnightblue" d="M1688.23,-368.058C1832.77,-366.789 2134.68,-358.207 2385,-312 2387.91,-311.462 2390.87,-310.861 2393.84,-310.208"/>
<polygon fill="midnightblue" stroke="midnightblue" points="1688.07,-364.559 1678.1,-368.137 1688.12,-371.559 1688.07,-364.559"/>
</g>
<!-- Node34 -->
<g id="node34" class="node"><title>Node34</title>
<g id="a_node34"><a xlink:href="DummyComponent_8cpp.html" target="_top" xlink:title="/home/travis/build\l/STORM&#45;IRIT/Radium&#45;Engine\l/Plugins/Dummy/src/DummyComponent.cpp">
<polygon fill="white" stroke="black" points="2566,-264.5 2566,-305.5 2778,-305.5 2778,-264.5 2566,-264.5"/>
<text text-anchor="start" x="2574" y="-293.5" font-family="Helvetica,sans-Serif" font-size="10.00">/home/travis/build</text>
<text text-anchor="start" x="2574" y="-282.5" font-family="Helvetica,sans-Serif" font-size="10.00">/STORM&#45;IRIT/Radium&#45;Engine</text>
<text text-anchor="middle" x="2672" y="-271.5" font-family="Helvetica,sans-Serif" font-size="10.00">/Plugins/Dummy/src/DummyComponent.cpp</text>
</a>
</g>
</g>
<!-- Node7&#45;&gt;Node34 -->
<g id="edge41" class="edge"><title>Node7&#45;&gt;Node34</title>
<path fill="none" stroke="midnightblue" d="M1688.48,-367.66C1855.98,-365.963 2238.81,-357 2557,-312 2568.86,-310.323 2581.3,-308.055 2593.44,-305.553"/>
<polygon fill="midnightblue" stroke="midnightblue" points="1688.21,-364.162 1678.24,-367.757 1688.28,-371.162 1688.21,-364.162"/>
</g>
<!-- Node35 -->
<g id="node35" class="node"><title>Node35</title>
<g id="a_node35"><a xlink:href="MeshPaintComponent_8cpp.html" target="_top" xlink:title="/home/travis/build\l/STORM&#45;IRIT/Radium&#45;Engine\l/Plugins/MeshPaint/src/MeshPaint\lComponent.cpp">
<polygon fill="white" stroke="black" points="2795.5,-259 2795.5,-311 2962.5,-311 2962.5,-259 2795.5,-259"/>
<text text-anchor="start" x="2803.5" y="-299" font-family="Helvetica,sans-Serif" font-size="10.00">/home/travis/build</text>
<text text-anchor="start" x="2803.5" y="-288" font-family="Helvetica,sans-Serif" font-size="10.00">/STORM&#45;IRIT/Radium&#45;Engine</text>
<text text-anchor="start" x="2803.5" y="-277" font-family="Helvetica,sans-Serif" font-size="10.00">/Plugins/MeshPaint/src/MeshPaint</text>
<text text-anchor="middle" x="2879" y="-266" font-family="Helvetica,sans-Serif" font-size="10.00">Component.cpp</text>
</a>
</g>
</g>
<!-- Node7&#45;&gt;Node35 -->
<g id="edge42" class="edge"><title>Node7&#45;&gt;Node35</title>
<path fill="none" stroke="midnightblue" d="M1688.55,-366.451C1923.36,-361.801 2574.49,-346.125 2786,-312 2789.06,-311.506 2792.17,-310.948 2795.29,-310.337"/>
<polygon fill="midnightblue" stroke="midnightblue" points="1688.28,-362.956 1678.35,-366.651 1688.42,-369.954 1688.28,-362.956"/>
</g>
<!-- Node36 -->
<g id="node36" class="node"><title>Node36</title>
<g id="a_node36"><a xlink:href="SkinningComponent_8cpp.html" target="_top" xlink:title="/home/travis/build\l/STORM&#45;IRIT/Radium&#45;Engine\l/Plugins/Skinning/src/SkinningComponent.cpp">
<polygon fill="white" stroke="black" points="2981,-264.5 2981,-305.5 3199,-305.5 3199,-264.5 2981,-264.5"/>
<text text-anchor="start" x="2989" y="-293.5" font-family="Helvetica,sans-Serif" font-size="10.00">/home/travis/build</text>
<text text-anchor="start" x="2989" y="-282.5" font-family="Helvetica,sans-Serif" font-size="10.00">/STORM&#45;IRIT/Radium&#45;Engine</text>
<text text-anchor="middle" x="3090" y="-271.5" font-family="Helvetica,sans-Serif" font-size="10.00">/Plugins/Skinning/src/SkinningComponent.cpp</text>
</a>
</g>
</g>
<!-- Node7&#45;&gt;Node36 -->
<g id="edge43" class="edge"><title>Node7&#45;&gt;Node36</title>
<path fill="none" stroke="midnightblue" d="M1688.5,-366.451C1947.53,-361.448 2721.2,-344.153 2971,-312 2983.58,-310.38 2996.81,-308.091 3009.68,-305.536"/>
<polygon fill="midnightblue" stroke="midnightblue" points="1688.32,-362.953 1678.39,-366.645 1688.46,-369.952 1688.32,-362.953"/>
</g>
<!-- Node10 -->
<g id="node10" class="node"><title>Node10</title>
<g id="a_node10"><a xlink:href="DistanceQueries_8hpp.html" target="_top" xlink:title="/home/travis/build\l/STORM&#45;IRIT/Radium&#45;Engine\l/src/Core/Geometry/Distance\l/DistanceQueries.hpp">
<polygon fill="white" stroke="black" points="529,-169 529,-221 677,-221 677,-169 529,-169"/>
<text text-anchor="start" x="537" y="-209" font-family="Helvetica,sans-Serif" font-size="10.00">/home/travis/build</text>
<text text-anchor="start" x="537" y="-198" font-family="Helvetica,sans-Serif" font-size="10.00">/STORM&#45;IRIT/Radium&#45;Engine</text>
<text text-anchor="start" x="537" y="-187" font-family="Helvetica,sans-Serif" font-size="10.00">/src/Core/Geometry/Distance</text>
<text text-anchor="middle" x="603" y="-176" font-family="Helvetica,sans-Serif" font-size="10.00">/DistanceQueries.hpp</text>
</a>
</g>
</g>
<!-- Node9&#45;&gt;Node10 -->
<g id="edge11" class="edge"><title>Node9&#45;&gt;Node10</title>
<path fill="none" stroke="midnightblue" d="M639.44,-250.846C631.364,-240.985 623.159,-230.349 616.512,-221.092"/>
<polygon fill="midnightblue" stroke="midnightblue" points="636.766,-253.105 645.856,-258.547 642.144,-248.624 636.766,-253.105"/>
</g>
<!-- Node10&#45;&gt;Node4 -->
<g id="edge13" class="edge"><title>Node10&#45;&gt;Node4</title>
<path fill="none" stroke="midnightblue" d="M518.762,-184.883C436.348,-175.079 307.592,-157.399 198,-132 190.056,-130.159 181.771,-127.938 173.641,-125.579"/>
<polygon fill="midnightblue" stroke="midnightblue" points="518.487,-188.375 528.828,-186.069 519.306,-181.423 518.487,-188.375"/>
</g>
<!-- Node10&#45;&gt;Node9 -->
<g id="edge12" class="edge"><title>Node10&#45;&gt;Node9</title>
<path fill="none" stroke="midnightblue" d="M635.246,-228.771C643.318,-238.611 651.542,-249.254 658.228,-258.547"/>
<polygon fill="midnightblue" stroke="midnightblue" points="637.932,-226.527 628.837,-221.092 632.558,-231.012 637.932,-226.527"/>
</g>
<!-- Node11 -->
<g id="node11" class="node"><title>Node11</title>
<g id="a_node11"><a xlink:href="trianglekdtree_8hpp.html" target="_top" xlink:title="/home/travis/build\l/STORM&#45;IRIT/Radium&#45;Engine\l/src/Core/TreeStructures\l/trianglekdtree.hpp">
<polygon fill="white" stroke="black" points="207,-79 207,-131 355,-131 355,-79 207,-79"/>
<text text-anchor="start" x="215" y="-119" font-family="Helvetica,sans-Serif" font-size="10.00">/home/travis/build</text>
<text text-anchor="start" x="215" y="-108" font-family="Helvetica,sans-Serif" font-size="10.00">/STORM&#45;IRIT/Radium&#45;Engine</text>
<text text-anchor="start" x="215" y="-97" font-family="Helvetica,sans-Serif" font-size="10.00">/src/Core/TreeStructures</text>
<text text-anchor="middle" x="281" y="-86" font-family="Helvetica,sans-Serif" font-size="10.00">/trianglekdtree.hpp</text>
</a>
</g>
</g>
<!-- Node10&#45;&gt;Node11 -->
<g id="edge14" class="edge"><title>Node10&#45;&gt;Node11</title>
<path fill="none" stroke="midnightblue" d="M519.076,-173.315C473.122,-161.717 415.258,-146.667 364,-132 361.096,-131.169 358.14,-130.309 355.157,-129.431"/>
<polygon fill="midnightblue" stroke="midnightblue" points="518.44,-176.764 528.991,-175.811 520.148,-169.976 518.44,-176.764"/>
</g>
<!-- Node13 -->
<g id="node13" class="node"><title>Node13</title>
<g id="a_node13"><a xlink:href="MeshPrimitives_8hpp.html" target="_top" xlink:title="/home/travis/build\l/STORM&#45;IRIT/Radium&#45;Engine\l/src/Core/Mesh/MeshPrimitives.hpp">
<polygon fill="white" stroke="black" points="830.5,-174.5 830.5,-215.5 1003.5,-215.5 1003.5,-174.5 830.5,-174.5"/>
<text text-anchor="start" x="838.5" y="-203.5" font-family="Helvetica,sans-Serif" font-size="10.00">/home/travis/build</text>
<text text-anchor="start" x="838.5" y="-192.5" font-family="Helvetica,sans-Serif" font-size="10.00">/STORM&#45;IRIT/Radium&#45;Engine</text>
<text text-anchor="middle" x="917" y="-181.5" font-family="Helvetica,sans-Serif" font-size="10.00">/src/Core/Mesh/MeshPrimitives.hpp</text>
</a>
</g>
</g>
<!-- Node12&#45;&gt;Node13 -->
<g id="edge16" class="edge"><title>Node12&#45;&gt;Node13</title>
<path fill="none" stroke="midnightblue" d="M910.579,-254.33C909.976,-241.629 910.202,-227.14 911.257,-215.78"/>
<polygon fill="midnightblue" stroke="midnightblue" points="907.098,-254.735 911.28,-264.47 914.082,-254.252 907.098,-254.735"/>
</g>
<!-- Node13&#45;&gt;Node12 -->
<g id="edge18" class="edge"><title>Node13&#45;&gt;Node12</title>
<path fill="none" stroke="midnightblue" d="M923.434,-225.95C924.025,-238.677 923.787,-253.156 922.72,-264.47"/>
<polygon fill="midnightblue" stroke="midnightblue" points="926.913,-225.519 922.743,-215.78 919.929,-225.994 926.913,-225.519"/>
</g>
<!-- Node14 -->
<g id="node14" class="node"><title>Node14</title>
<g id="a_node14"><a xlink:href="MeshPrimitives_8cpp.html" target="_top" xlink:title="/home/travis/build\l/STORM&#45;IRIT/Radium&#45;Engine\l/src/Core/Mesh/MeshPrimitives.cpp">
<polygon fill="white" stroke="black" points="373.5,-84.5 373.5,-125.5 546.5,-125.5 546.5,-84.5 373.5,-84.5"/>
<text text-anchor="start" x="381.5" y="-113.5" font-family="Helvetica,sans-Serif" font-size="10.00">/home/travis/build</text>
<text text-anchor="start" x="381.5" y="-102.5" font-family="Helvetica,sans-Serif" font-size="10.00">/STORM&#45;IRIT/Radium&#45;Engine</text>
<text text-anchor="middle" x="460" y="-91.5" font-family="Helvetica,sans-Serif" font-size="10.00">/src/Core/Mesh/MeshPrimitives.cpp</text>
</a>
</g>
</g>
<!-- Node13&#45;&gt;Node14 -->
<g id="edge17" class="edge"><title>Node13&#45;&gt;Node14</title>
<path fill="none" stroke="midnightblue" d="M820.387,-179.945C747.407,-168.715 644.96,-151.64 556,-132 547.232,-130.064 538.065,-127.842 529.023,-125.53"/>
<polygon fill="midnightblue" stroke="midnightblue" points="820.07,-183.437 830.485,-181.49 821.13,-176.518 820.07,-183.437"/>
</g>
<!-- Node15 -->
<g id="node15" class="node"><title>Node15</title>
<g id="a_node15"><a xlink:href="Renderer_8cpp.html" target="_top" xlink:title="/home/travis/build\l/STORM&#45;IRIT/Radium&#45;Engine\l/src/Engine/Renderer/Renderer.cpp">
<polygon fill="white" stroke="black" points="565,-84.5 565,-125.5 735,-125.5 735,-84.5 565,-84.5"/>
<text text-anchor="start" x="573" y="-113.5" font-family="Helvetica,sans-Serif" font-size="10.00">/home/travis/build</text>
<text text-anchor="start" x="573" y="-102.5" font-family="Helvetica,sans-Serif" font-size="10.00">/STORM&#45;IRIT/Radium&#45;Engine</text>
<text text-anchor="middle" x="650" y="-91.5" font-family="Helvetica,sans-Serif" font-size="10.00">/src/Engine/Renderer/Renderer.cpp</text>
</a>
</g>
</g>
<!-- Node13&#45;&gt;Node15 -->
<g id="edge19" class="edge"><title>Node13&#45;&gt;Node15</title>
<path fill="none" stroke="midnightblue" d="M848.219,-171.331C805.301,-157.185 750.61,-139.16 709.551,-125.627"/>
<polygon fill="midnightblue" stroke="midnightblue" points="847.151,-174.664 857.744,-174.47 849.342,-168.016 847.151,-174.664"/>
</g>
<!-- Node16 -->
<g id="node16" class="node"><title>Node16</title>
<g id="a_node16"><a xlink:href="DebugRender_8cpp.html" target="_top" xlink:title="/home/travis/build\l/STORM&#45;IRIT/Radium&#45;Engine\l/src/Engine/Renderer/Renderers\l/DebugRender.cpp">
<polygon fill="white" stroke="black" points="753.5,-79 753.5,-131 910.5,-131 910.5,-79 753.5,-79"/>
<text text-anchor="start" x="761.5" y="-119" font-family="Helvetica,sans-Serif" font-size="10.00">/home/travis/build</text>
<text text-anchor="start" x="761.5" y="-108" font-family="Helvetica,sans-Serif" font-size="10.00">/STORM&#45;IRIT/Radium&#45;Engine</text>
<text text-anchor="start" x="761.5" y="-97" font-family="Helvetica,sans-Serif" font-size="10.00">/src/Engine/Renderer/Renderers</text>
<text text-anchor="middle" x="832" y="-86" font-family="Helvetica,sans-Serif" font-size="10.00">/DebugRender.cpp</text>
</a>
</g>
</g>
<!-- Node13&#45;&gt;Node16 -->
<g id="edge20" class="edge"><title>Node13&#45;&gt;Node16</title>
<path fill="none" stroke="midnightblue" d="M891.155,-167.242C880.078,-155.775 867.209,-142.451 856.308,-131.166"/>
<polygon fill="midnightblue" stroke="midnightblue" points="888.671,-169.709 898.136,-174.47 893.706,-164.846 888.671,-169.709"/>
</g>
<!-- Node13&#45;&gt;Node17 -->
<g id="edge21" class="edge"><title>Node13&#45;&gt;Node17</title>
<path fill="none" stroke="midnightblue" d="M995.525,-172.216C1003.08,-170.594 1010.66,-169.147 1018,-168 1289.83,-125.506 1364.5,-176.557 1636,-132 1638.95,-131.515 1641.95,-130.976 1644.96,-130.39"/>
<polygon fill="midnightblue" stroke="midnightblue" points="994.619,-168.832 985.628,-174.438 996.152,-175.662 994.619,-168.832"/>
</g>
<!-- Node18 -->
<g id="node18" class="node"><title>Node18</title>
<g id="a_node18"><a xlink:href="RotateGizmo_8cpp.html" target="_top" xlink:title="/home/travis/build\l/STORM&#45;IRIT/Radium&#45;Engine\l/src/GuiBase/Viewer/Gizmo\l/RotateGizmo.cpp">
<polygon fill="white" stroke="black" points="929,-79 929,-131 1077,-131 1077,-79 929,-79"/>
<text text-anchor="start" x="937" y="-119" font-family="Helvetica,sans-Serif" font-size="10.00">/home/travis/build</text>
<text text-anchor="start" x="937" y="-108" font-family="Helvetica,sans-Serif" font-size="10.00">/STORM&#45;IRIT/Radium&#45;Engine</text>
<text text-anchor="start" x="937" y="-97" font-family="Helvetica,sans-Serif" font-size="10.00">/src/GuiBase/Viewer/Gizmo</text>
<text text-anchor="middle" x="1003" y="-86" font-family="Helvetica,sans-Serif" font-size="10.00">/RotateGizmo.cpp</text>
</a>
</g>
</g>
<!-- Node13&#45;&gt;Node18 -->
<g id="edge22" class="edge"><title>Node13&#45;&gt;Node18</title>
<path fill="none" stroke="midnightblue" d="M943.15,-167.242C954.356,-155.775 967.377,-142.451 978.406,-131.166"/>
<polygon fill="midnightblue" stroke="midnightblue" points="940.572,-164.872 936.086,-174.47 945.579,-169.764 940.572,-164.872"/>
</g>
<!-- Node19 -->
<g id="node19" class="node"><title>Node19</title>
<g id="a_node19"><a xlink:href="ScaleGizmo_8cpp.html" target="_top" xlink:title="/home/travis/build\l/STORM&#45;IRIT/Radium&#45;Engine\l/src/GuiBase/Viewer/Gizmo\l/ScaleGizmo.cpp">
<polygon fill="white" stroke="black" points="1095,-79 1095,-131 1243,-131 1243,-79 1095,-79"/>
<text text-anchor="start" x="1103" y="-119" font-family="Helvetica,sans-Serif" font-size="10.00">/home/travis/build</text>
<text text-anchor="start" x="1103" y="-108" font-family="Helvetica,sans-Serif" font-size="10.00">/STORM&#45;IRIT/Radium&#45;Engine</text>
<text text-anchor="start" x="1103" y="-97" font-family="Helvetica,sans-Serif" font-size="10.00">/src/GuiBase/Viewer/Gizmo</text>
<text text-anchor="middle" x="1169" y="-86" font-family="Helvetica,sans-Serif" font-size="10.00">/ScaleGizmo.cpp</text>
</a>
</g>
</g>
<!-- Node13&#45;&gt;Node19 -->
<g id="edge23" class="edge"><title>Node13&#45;&gt;Node19</title>
<path fill="none" stroke="midnightblue" d="M982.629,-171.082C1017.85,-158.783 1061.31,-143.605 1097.4,-131.002"/>
<polygon fill="midnightblue" stroke="midnightblue" points="981.214,-167.869 972.927,-174.47 983.522,-174.477 981.214,-167.869"/>
</g>
<!-- Node20 -->
<g id="node20" class="node"><title>Node20</title>
<g id="a_node20"><a xlink:href="TranslateGizmo_8cpp.html" target="_top" xlink:title="/home/travis/build\l/STORM&#45;IRIT/Radium&#45;Engine\l/src/GuiBase/Viewer/Gizmo\l/TranslateGizmo.cpp">
<polygon fill="white" stroke="black" points="1261,-79 1261,-131 1409,-131 1409,-79 1261,-79"/>
<text text-anchor="start" x="1269" y="-119" font-family="Helvetica,sans-Serif" font-size="10.00">/home/travis/build</text>
<text text-anchor="start" x="1269" y="-108" font-family="Helvetica,sans-Serif" font-size="10.00">/STORM&#45;IRIT/Radium&#45;Engine</text>
<text text-anchor="start" x="1269" y="-97" font-family="Helvetica,sans-Serif" font-size="10.00">/src/GuiBase/Viewer/Gizmo</text>
<text text-anchor="middle" x="1335" y="-86" font-family="Helvetica,sans-Serif" font-size="10.00">/TranslateGizmo.cpp</text>
</a>
</g>
</g>
<!-- Node13&#45;&gt;Node20 -->
<g id="edge24" class="edge"><title>Node13&#45;&gt;Node20</title>
<path fill="none" stroke="midnightblue" d="M999.274,-172.102C1005.59,-170.64 1011.89,-169.253 1018,-168 1121.08,-146.858 1149.5,-155.795 1252,-132 1254.94,-131.317 1257.93,-130.582 1260.94,-129.808"/>
<polygon fill="midnightblue" stroke="midnightblue" points="998.271,-168.743 989.346,-174.453 999.884,-175.555 998.271,-168.743"/>
</g>
<!-- Node21 -->
<g id="node21" class="node"><title>Node21</title>
<g id="a_node21"><a xlink:href="MeshFeatureTrackingComponent_8cpp.html" target="_top" xlink:title="/home/travis/build\l/STORM&#45;IRIT/Radium&#45;Engine\l/Plugins/MeshFeatureTracking\l/src/MeshFeatureTrackingComponent.cpp">
<polygon fill="white" stroke="black" points="1427,-79 1427,-131 1627,-131 1627,-79 1427,-79"/>
<text text-anchor="start" x="1435" y="-119" font-family="Helvetica,sans-Serif" font-size="10.00">/home/travis/build</text>
<text text-anchor="start" x="1435" y="-108" font-family="Helvetica,sans-Serif" font-size="10.00">/STORM&#45;IRIT/Radium&#45;Engine</text>
<text text-anchor="start" x="1435" y="-97" font-family="Helvetica,sans-Serif" font-size="10.00">/Plugins/MeshFeatureTracking</text>
<text text-anchor="middle" x="1527" y="-86" font-family="Helvetica,sans-Serif" font-size="10.00">/src/MeshFeatureTrackingComponent.cpp</text>
</a>
</g>
</g>
<!-- Node13&#45;&gt;Node21 -->
<g id="edge25" class="edge"><title>Node13&#45;&gt;Node21</title>
<path fill="none" stroke="midnightblue" d="M996.579,-172.237C1003.79,-170.653 1011.01,-169.206 1018,-168 1193.9,-137.651 1241.84,-160.783 1418,-132 1420.88,-131.529 1423.8,-131.025 1426.74,-130.492"/>
<polygon fill="midnightblue" stroke="midnightblue" points="995.743,-168.838 986.772,-174.474 997.299,-175.663 995.743,-168.838"/>
</g>
<!-- Node24 -->
<g id="node24" class="node"><title>Node24</title>
<g id="a_node24"><a xlink:href="BVH_8hpp.html" target="_top" xlink:title="/home/travis/build\l/STORM&#45;IRIT/Radium&#45;Engine\l/src/Core/TreeStructures\l/BVH.hpp">
<polygon fill="white" stroke="black" points="1226,-169 1226,-221 1374,-221 1374,-169 1226,-169"/>
<text text-anchor="start" x="1234" y="-209" font-family="Helvetica,sans-Serif" font-size="10.00">/home/travis/build</text>
<text text-anchor="start" x="1234" y="-198" font-family="Helvetica,sans-Serif" font-size="10.00">/STORM&#45;IRIT/Radium&#45;Engine</text>
<text text-anchor="start" x="1234" y="-187" font-family="Helvetica,sans-Serif" font-size="10.00">/src/Core/TreeStructures</text>
<text text-anchor="middle" x="1300" y="-176" font-family="Helvetica,sans-Serif" font-size="10.00">/BVH.hpp</text>
</a>
</g>
</g>
<!-- Node23&#45;&gt;Node24 -->
<g id="edge29" class="edge"><title>Node23&#45;&gt;Node24</title>
<path fill="none" stroke="midnightblue" d="M1293.36,-248.489C1293.12,-239.309 1293.27,-229.616 1293.84,-221.092"/>
<polygon fill="midnightblue" stroke="midnightblue" points="1289.87,-248.714 1293.81,-258.547 1296.86,-248.4 1289.87,-248.714"/>
</g>
<!-- Node24&#45;&gt;Node23 -->
<g id="edge30" class="edge"><title>Node24&#45;&gt;Node23</title>
<path fill="none" stroke="midnightblue" d="M1306.63,-231.123C1306.88,-240.289 1306.74,-249.99 1306.19,-258.547"/>
<polygon fill="midnightblue" stroke="midnightblue" points="1310.12,-230.92 1306.16,-221.092 1303.13,-231.243 1310.12,-230.92"/>
</g>
<!-- Node31 -->
<g id="node31" class="node"><title>Node31</title>
<g id="a_node31"><a xlink:href="AnimationComponent_8cpp.html" target="_top" xlink:title="/home/travis/build\l/STORM&#45;IRIT/Radium&#45;Engine\l/Plugins/Animation/src/Animation\lComponent.cpp">
<polygon fill="white" stroke="black" points="2211.5,-169 2211.5,-221 2372.5,-221 2372.5,-169 2211.5,-169"/>
<text text-anchor="start" x="2219.5" y="-209" font-family="Helvetica,sans-Serif" font-size="10.00">/home/travis/build</text>
<text text-anchor="start" x="2219.5" y="-198" font-family="Helvetica,sans-Serif" font-size="10.00">/STORM&#45;IRIT/Radium&#45;Engine</text>
<text text-anchor="start" x="2219.5" y="-187" font-family="Helvetica,sans-Serif" font-size="10.00">/Plugins/Animation/src/Animation</text>
<text text-anchor="middle" x="2292" y="-176" font-family="Helvetica,sans-Serif" font-size="10.00">Component.cpp</text>
</a>
</g>
</g>
<!-- Node30&#45;&gt;Node31 -->
<g id="edge38" class="edge"><title>Node30&#45;&gt;Node31</title>
<path fill="none" stroke="midnightblue" d="M2410.48,-254.249C2388.55,-243.468 2364.02,-231.407 2342.99,-221.069"/>
<polygon fill="midnightblue" stroke="midnightblue" points="2409.19,-257.512 2419.71,-258.783 2412.28,-251.23 2409.19,-257.512"/>
</g>
<!-- Node32 -->
<g id="node32" class="node"><title>Node32</title>
<g id="a_node32"><a xlink:href="AnimationSystem_8cpp.html" target="_top" xlink:title="/home/travis/build\l/STORM&#45;IRIT/Radium&#45;Engine\l/Plugins/Animation/src/Animation\lSystem.cpp">
<polygon fill="white" stroke="black" points="2390.5,-169 2390.5,-221 2551.5,-221 2551.5,-169 2390.5,-169"/>
<text text-anchor="start" x="2398.5" y="-209" font-family="Helvetica,sans-Serif" font-size="10.00">/home/travis/build</text>
<text text-anchor="start" x="2398.5" y="-198" font-family="Helvetica,sans-Serif" font-size="10.00">/STORM&#45;IRIT/Radium&#45;Engine</text>
<text text-anchor="start" x="2398.5" y="-187" font-family="Helvetica,sans-Serif" font-size="10.00">/Plugins/Animation/src/Animation</text>
<text text-anchor="middle" x="2471" y="-176" font-family="Helvetica,sans-Serif" font-size="10.00">System.cpp</text>
</a>
</g>
</g>
<!-- Node30&#45;&gt;Node32 -->
<g id="edge39" class="edge"><title>Node30&#45;&gt;Node32</title>
<path fill="none" stroke="midnightblue" d="M2471,-248.489C2471,-239.309 2471,-229.616 2471,-221.092"/>
<polygon fill="midnightblue" stroke="midnightblue" points="2467.5,-248.547 2471,-258.547 2474.5,-248.547 2467.5,-248.547"/>
</g>
<!-- Node33 -->
<g id="node33" class="node"><title>Node33</title>
<g id="a_node33"><a xlink:href="SkeletonBoneDrawable_8cpp.html" target="_top" xlink:title="/home/travis/build\l/STORM&#45;IRIT/Radium&#45;Engine\l/Plugins/Animation/src/Drawing\l/SkeletonBoneDrawable.cpp">
<polygon fill="white" stroke="black" points="2570,-169 2570,-221 2724,-221 2724,-169 2570,-169"/>
<text text-anchor="start" x="2578" y="-209" font-family="Helvetica,sans-Serif" font-size="10.00">/home/travis/build</text>
<text text-anchor="start" x="2578" y="-198" font-family="Helvetica,sans-Serif" font-size="10.00">/STORM&#45;IRIT/Radium&#45;Engine</text>
<text text-anchor="start" x="2578" y="-187" font-family="Helvetica,sans-Serif" font-size="10.00">/Plugins/Animation/src/Drawing</text>
<text text-anchor="middle" x="2647" y="-176" font-family="Helvetica,sans-Serif" font-size="10.00">/SkeletonBoneDrawable.cpp</text>
</a>
</g>
</g>
<!-- Node30&#45;&gt;Node33 -->
<g id="edge40" class="edge"><title>Node30&#45;&gt;Node33</title>
<path fill="none" stroke="midnightblue" d="M2530.5,-254.249C2552.06,-243.468 2576.19,-231.407 2596.86,-221.069"/>
<polygon fill="midnightblue" stroke="midnightblue" points="2528.81,-251.18 2521.43,-258.783 2531.94,-257.441 2528.81,-251.18"/>
</g>
</g>
</svg>
