<?xml version="1.0" encoding="UTF-8" standalone="no"?>
<!DOCTYPE svg PUBLIC "-//W3C//DTD SVG 1.1//EN"
 "http://www.w3.org/Graphics/SVG/1.1/DTD/svg11.dtd">
<!-- Generated by graphviz version 2.36.0 (20140111.2315)
 -->
<!-- Title: /home/travis/build/STORM&#45;IRIT/Radium&#45;Engine/src/Core/Geometry/PointCloud/PointCloud.inl Pages: 1 -->
<svg width="1146pt" height="478pt"
 viewBox="0.00 0.00 1145.71 478.00" xmlns="http://www.w3.org/2000/svg" xmlns:xlink="http://www.w3.org/1999/xlink">
<g id="graph0" class="graph" transform="scale(1 1) rotate(0) translate(4 474)">
<title>/home/travis/build/STORM&#45;IRIT/Radium&#45;Engine/src/Core/Geometry/PointCloud/PointCloud.inl</title>
<polygon fill="white" stroke="none" points="-4,4 -4,-474 1141.71,-474 1141.71,4 -4,4"/>
<!-- Node1 -->
<g id="node1" class="node"><title>Node1</title>
<polygon fill="#bfbfbf" stroke="black" points="330.709,-417 330.709,-469 484.709,-469 484.709,-417 330.709,-417"/>
<text text-anchor="start" x="338.709" y="-457" font-family="Helvetica,sans-Serif" font-size="10.00">/home/travis/build</text>
<text text-anchor="start" x="338.709" y="-446" font-family="Helvetica,sans-Serif" font-size="10.00">/STORM&#45;IRIT/Radium&#45;Engine</text>
<text text-anchor="start" x="338.709" y="-435" font-family="Helvetica,sans-Serif" font-size="10.00">/src/Core/Geometry/PointCloud</text>
<text text-anchor="middle" x="407.709" y="-424" font-family="Helvetica,sans-Serif" font-size="10.00">/PointCloud.inl</text>
</g>
<!-- Node2 -->
<g id="node2" class="node"><title>Node2</title>
<g id="a_node2"><a xlink:href="PointCloud_8hpp.html" target="_top" xlink:title="PointCloud.hpp">
<polygon fill="white" stroke="black" points="366.209,-360.5 366.209,-379.5 449.209,-379.5 449.209,-360.5 366.209,-360.5"/>
<text text-anchor="middle" x="407.709" y="-367.5" font-family="Helvetica,sans-Serif" font-size="10.00">PointCloud.hpp</text>
</a>
</g>
</g>
<!-- Node1&#45;&gt;Node2 -->
<g id="edge1" class="edge"><title>Node1&#45;&gt;Node2</title>
<path fill="none" stroke="midnightblue" d="M401.216,-416.768C400.759,-407.89 400.911,-398.074 401.67,-389.816"/>
<polygon fill="midnightblue" stroke="midnightblue" points="405.158,-390.147 403.084,-379.757 398.226,-389.173 405.158,-390.147"/>
</g>
<!-- Node2&#45;&gt;Node1 -->
<g id="edge38" class="edge"><title>Node2&#45;&gt;Node1</title>
<path fill="none" stroke="midnightblue" d="M412.334,-379.757C413.751,-386.585 414.459,-396.551 414.459,-406.516"/>
<polygon fill="midnightblue" stroke="midnightblue" points="410.954,-406.683 414.201,-416.768 417.951,-406.859 410.954,-406.683"/>
</g>
<!-- Node3 -->
<g id="node3" class="node"><title>Node3</title>
<g id="a_node3"><a xlink:href="RaCore_8hpp.html" target="_top" xlink:title="Core/RaCore.hpp">
<polygon fill="white" stroke="black" points="451.209,-112.5 451.209,-131.5 544.209,-131.5 544.209,-112.5 451.209,-112.5"/>
<text text-anchor="middle" x="497.709" y="-119.5" font-family="Helvetica,sans-Serif" font-size="10.00">Core/RaCore.hpp</text>
</a>
</g>
</g>
<!-- Node2&#45;&gt;Node3 -->
<g id="edge2" class="edge"><title>Node2&#45;&gt;Node3</title>
<path fill="none" stroke="midnightblue" d="M366.194,-367.14C311.55,-363.585 213.231,-353.333 134.709,-324 53.771,-293.765 -39.4585,-231.888 18.7087,-168 46.6431,-137.318 319.807,-127.155 440.673,-124.143"/>
<polygon fill="midnightblue" stroke="midnightblue" points="440.93,-127.637 450.843,-123.897 440.761,-120.64 440.93,-127.637"/>
</g>
<!-- Node10 -->
<g id="node10" class="node"><title>Node10</title>
<polygon fill="white" stroke="#bfbfbf" points="143.709,-304.5 143.709,-323.5 241.709,-323.5 241.709,-304.5 143.709,-304.5"/>
<text text-anchor="middle" x="192.709" y="-311.5" font-family="Helvetica,sans-Serif" font-size="10.00">Eigen/Eigenvalues</text>
</g>
<!-- Node2&#45;&gt;Node10 -->
<g id="edge9" class="edge"><title>Node2&#45;&gt;Node10</title>
<path fill="none" stroke="midnightblue" d="M373.641,-360.444C336.528,-351.122 277.047,-336.183 236.494,-325.997"/>
<polygon fill="midnightblue" stroke="midnightblue" points="237.168,-322.558 226.617,-323.516 235.463,-329.347 237.168,-322.558"/>
</g>
<!-- Node11 -->
<g id="node11" class="node"><title>Node11</title>
<g id="a_node11"><a xlink:href="VectorArray_8hpp.html" target="_top" xlink:title="Core/Containers/VectorArray.hpp">
<polygon fill="white" stroke="black" points="260.209,-304.5 260.209,-323.5 421.209,-323.5 421.209,-304.5 260.209,-304.5"/>
<text text-anchor="middle" x="340.709" y="-311.5" font-family="Helvetica,sans-Serif" font-size="10.00">Core/Containers/VectorArray.hpp</text>
</a>
</g>
</g>
<!-- Node2&#45;&gt;Node11 -->
<g id="edge10" class="edge"><title>Node2&#45;&gt;Node11</title>
<path fill="none" stroke="midnightblue" d="M396.944,-360.324C386.943,-352.263 371.822,-340.077 359.778,-330.369"/>
<polygon fill="midnightblue" stroke="midnightblue" points="361.652,-327.384 351.669,-323.834 357.259,-332.834 361.652,-327.384"/>
</g>
<!-- Node15 -->
<g id="node15" class="node"><title>Node15</title>
<g id="a_node15"><a xlink:href="LinearAlgebra_8hpp.html" target="_top" xlink:title="Core/Math/LinearAlgebra.hpp">
<polygon fill="white" stroke="black" points="488.209,-242.5 488.209,-261.5 631.209,-261.5 631.209,-242.5 488.209,-242.5"/>
<text text-anchor="middle" x="559.709" y="-249.5" font-family="Helvetica,sans-Serif" font-size="10.00">Core/Math/LinearAlgebra.hpp</text>
</a>
</g>
</g>
<!-- Node2&#45;&gt;Node15 -->
<g id="edge31" class="edge"><title>Node2&#45;&gt;Node15</title>
<path fill="none" stroke="midnightblue" d="M419.133,-360.281C445.008,-340.535 508.32,-292.218 540.401,-267.735"/>
<polygon fill="midnightblue" stroke="midnightblue" points="542.738,-270.354 548.565,-261.505 538.492,-264.789 542.738,-270.354"/>
</g>
<!-- Node21 -->
<g id="node21" class="node"><title>Node21</title>
<g id="a_node21"><a xlink:href="Math_8hpp.html" target="_top" xlink:title="Core/Math/Math.hpp">
<polygon fill="white" stroke="black" points="989.709,-174.5 989.709,-193.5 1095.71,-193.5 1095.71,-174.5 989.709,-174.5"/>
<text text-anchor="middle" x="1042.71" y="-181.5" font-family="Helvetica,sans-Serif" font-size="10.00">Core/Math/Math.hpp</text>
</a>
</g>
</g>
<!-- Node2&#45;&gt;Node21 -->
<g id="edge32" class="edge"><title>Node2&#45;&gt;Node21</title>
<path fill="none" stroke="midnightblue" d="M449.401,-368.771C564.854,-367.661 886.662,-361.221 984.709,-324 1023.27,-309.362 1040.34,-304.93 1058.71,-268 1069.09,-247.13 1060.43,-220.208 1052.36,-202.777"/>
<polygon fill="midnightblue" stroke="midnightblue" points="1055.44,-201.1 1047.83,-193.728 1049.18,-204.236 1055.44,-201.1"/>
</g>
<!-- Node26 -->
<g id="node26" class="node"><title>Node26</title>
<g id="a_node26"><a xlink:href="Obb_8hpp.html" target="_top" xlink:title="Core/Math/Obb.hpp">
<polygon fill="white" stroke="black" points="874.709,-304.5 874.709,-323.5 976.709,-323.5 976.709,-304.5 874.709,-304.5"/>
<text text-anchor="middle" x="925.709" y="-311.5" font-family="Helvetica,sans-Serif" font-size="10.00">Core/Math/Obb.hpp</text>
</a>
</g>
</g>
<!-- Node2&#45;&gt;Node26 -->
<g id="edge33" class="edge"><title>Node2&#45;&gt;Node26</title>
<path fill="none" stroke="midnightblue" d="M449.223,-364.672C540.276,-355.18 757.888,-332.495 864.599,-321.37"/>
<polygon fill="midnightblue" stroke="midnightblue" points="864.989,-324.849 874.572,-320.331 864.263,-317.887 864.989,-324.849"/>
</g>
<!-- Node4 -->
<g id="node4" class="node"><title>Node4</title>
<g id="a_node4"><a xlink:href="CoreMacros_8hpp.html" target="_top" xlink:title="Core/CoreMacros.hpp">
<polygon fill="white" stroke="black" points="441.209,-56.5 441.209,-75.5 554.209,-75.5 554.209,-56.5 441.209,-56.5"/>
<text text-anchor="middle" x="497.709" y="-63.5" font-family="Helvetica,sans-Serif" font-size="10.00">Core/CoreMacros.hpp</text>
</a>
</g>
</g>
<!-- Node3&#45;&gt;Node4 -->
<g id="edge3" class="edge"><title>Node3&#45;&gt;Node4</title>
<path fill="none" stroke="midnightblue" d="M497.709,-112.083C497.709,-105.006 497.709,-94.8611 497.709,-85.9865"/>
<polygon fill="midnightblue" stroke="midnightblue" points="501.209,-85.751 497.709,-75.7511 494.209,-85.7511 501.209,-85.751"/>
</g>
<!-- Node5 -->
<g id="node5" class="node"><title>Node5</title>
<polygon fill="white" stroke="#bfbfbf" points="342.209,-0.5 342.209,-19.5 391.209,-19.5 391.209,-0.5 342.209,-0.5"/>
<text text-anchor="middle" x="366.709" y="-7.5" font-family="Helvetica,sans-Serif" font-size="10.00">cassert</text>
</g>
<!-- Node4&#45;&gt;Node5 -->
<g id="edge4" class="edge"><title>Node4&#45;&gt;Node5</title>
<path fill="none" stroke="midnightblue" d="M476.951,-56.4435C455.392,-47.5566 421.445,-33.5632 396.915,-23.4514"/>
<polygon fill="midnightblue" stroke="midnightblue" points="397.948,-20.0917 387.369,-19.5164 395.28,-26.5634 397.948,-20.0917"/>
</g>
<!-- Node6 -->
<g id="node6" class="node"><title>Node6</title>
<polygon fill="white" stroke="#bfbfbf" points="409.209,-0.5 409.209,-19.5 452.209,-19.5 452.209,-0.5 409.209,-0.5"/>
<text text-anchor="middle" x="430.709" y="-7.5" font-family="Helvetica,sans-Serif" font-size="10.00">cstdio</text>
</g>
<!-- Node4&#45;&gt;Node6 -->
<g id="edge5" class="edge"><title>Node4&#45;&gt;Node6</title>
<path fill="none" stroke="midnightblue" d="M486.944,-56.324C476.943,-48.2631 461.822,-36.0765 449.778,-26.3695"/>
<polygon fill="midnightblue" stroke="midnightblue" points="451.652,-23.3841 441.669,-19.8339 447.259,-28.8343 451.652,-23.3841"/>
</g>
<!-- Node7 -->
<g id="node7" class="node"><title>Node7</title>
<polygon fill="white" stroke="#bfbfbf" points="470.709,-0.5 470.709,-19.5 524.709,-19.5 524.709,-0.5 470.709,-0.5"/>
<text text-anchor="middle" x="497.709" y="-7.5" font-family="Helvetica,sans-Serif" font-size="10.00">iostream</text>
</g>
<!-- Node4&#45;&gt;Node7 -->
<g id="edge6" class="edge"><title>Node4&#45;&gt;Node7</title>
<path fill="none" stroke="midnightblue" d="M497.709,-56.083C497.709,-49.0059 497.709,-38.8611 497.709,-29.9865"/>
<polygon fill="midnightblue" stroke="midnightblue" points="501.209,-29.751 497.709,-19.7511 494.209,-29.7511 501.209,-29.751"/>
</g>
<!-- Node8 -->
<g id="node8" class="node"><title>Node8</title>
<polygon fill="white" stroke="#bfbfbf" points="542.709,-0.5 542.709,-19.5 594.709,-19.5 594.709,-0.5 542.709,-0.5"/>
<text text-anchor="middle" x="568.709" y="-7.5" font-family="Helvetica,sans-Serif" font-size="10.00">sstream</text>
</g>
<!-- Node4&#45;&gt;Node8 -->
<g id="edge7" class="edge"><title>Node4&#45;&gt;Node8</title>
<path fill="none" stroke="midnightblue" d="M509.116,-56.324C519.818,-48.1849 536.049,-35.8395 548.872,-26.0874"/>
<polygon fill="midnightblue" stroke="midnightblue" points="551.253,-28.6734 557.094,-19.8339 547.016,-23.1018 551.253,-28.6734"/>
</g>
<!-- Node9 -->
<g id="node9" class="node"><title>Node9</title>
<polygon fill="white" stroke="#bfbfbf" points="612.709,-0.5 612.709,-19.5 656.709,-19.5 656.709,-0.5 612.709,-0.5"/>
<text text-anchor="middle" x="634.709" y="-7.5" font-family="Helvetica,sans-Serif" font-size="10.00">thread</text>
</g>
<!-- Node4&#45;&gt;Node9 -->
<g id="edge8" class="edge"><title>Node4&#45;&gt;Node9</title>
<path fill="none" stroke="midnightblue" d="M519.417,-56.4435C542.064,-47.5171 577.781,-33.4387 603.461,-23.3168"/>
<polygon fill="midnightblue" stroke="midnightblue" points="605.082,-26.4397 613.102,-19.5164 602.515,-19.9273 605.082,-26.4397"/>
</g>
<!-- Node11&#45;&gt;Node3 -->
<g id="edge29" class="edge"><title>Node11&#45;&gt;Node3</title>
<path fill="none" stroke="midnightblue" d="M262.105,-304.483C200.667,-296.776 121.083,-284.164 92.7087,-268 47.8706,-242.457 -0.974572,-206.21 33.7087,-168 60.6051,-138.369 322.895,-127.663 440.804,-124.326"/>
<polygon fill="midnightblue" stroke="midnightblue" points="441.174,-127.817 451.074,-124.044 440.982,-120.82 441.174,-127.817"/>
</g>
<!-- Node12 -->
<g id="node12" class="node"><title>Node12</title>
<g id="a_node12"><a xlink:href="AlignedStdVector_8hpp.html" target="_top" xlink:title="Core/Containers/AlignedStd\lVector.hpp">
<polygon fill="white" stroke="black" points="101.709,-237 101.709,-267 239.709,-267 239.709,-237 101.709,-237"/>
<text text-anchor="start" x="109.709" y="-255" font-family="Helvetica,sans-Serif" font-size="10.00">Core/Containers/AlignedStd</text>
<text text-anchor="middle" x="170.709" y="-244" font-family="Helvetica,sans-Serif" font-size="10.00">Vector.hpp</text>
</a>
</g>
</g>
<!-- Node11&#45;&gt;Node12 -->
<g id="edge11" class="edge"><title>Node11&#45;&gt;Node12</title>
<path fill="none" stroke="midnightblue" d="M316.352,-304.403C291.308,-295.564 251.609,-281.553 219.979,-270.39"/>
<polygon fill="midnightblue" stroke="midnightblue" points="221.042,-267.053 210.447,-267.025 218.712,-273.654 221.042,-267.053"/>
</g>
<!-- Node14 -->
<g id="node14" class="node"><title>Node14</title>
<polygon fill="white" stroke="#bfbfbf" points="186.709,-174.5 186.709,-193.5 230.709,-193.5 230.709,-174.5 186.709,-174.5"/>
<text text-anchor="middle" x="208.709" y="-181.5" font-family="Helvetica,sans-Serif" font-size="10.00">vector</text>
</g>
<!-- Node11&#45;&gt;Node14 -->
<g id="edge30" class="edge"><title>Node11&#45;&gt;Node14</title>
<path fill="none" stroke="midnightblue" d="M331.636,-304.202C309.582,-282.817 252.922,-227.873 224.898,-200.699"/>
<polygon fill="midnightblue" stroke="midnightblue" points="227.113,-197.971 217.497,-193.522 222.24,-202.997 227.113,-197.971"/>
</g>
<!-- Node11&#45;&gt;Node15 -->
<g id="edge15" class="edge"><title>Node11&#45;&gt;Node15</title>
<path fill="none" stroke="midnightblue" d="M372.086,-304.403C410.628,-293.844 476.114,-275.903 518.632,-264.254"/>
<polygon fill="midnightblue" stroke="midnightblue" points="519.67,-267.599 528.39,-261.581 517.82,-260.847 519.67,-267.599"/>
</g>
<!-- Node12&#45;&gt;Node3 -->
<g id="edge12" class="edge"><title>Node12&#45;&gt;Node3</title>
<path fill="none" stroke="midnightblue" d="M167.145,-236.852C163.433,-218.42 160.318,-186.385 177.709,-168 212.647,-131.064 358.517,-123.873 440.726,-122.822"/>
<polygon fill="midnightblue" stroke="midnightblue" points="440.948,-126.32 450.912,-122.719 440.877,-119.32 440.948,-126.32"/>
</g>
<!-- Node13 -->
<g id="node13" class="node"><title>Node13</title>
<polygon fill="white" stroke="#bfbfbf" points="42.7087,-174.5 42.7087,-193.5 130.709,-193.5 130.709,-174.5 42.7087,-174.5"/>
<text text-anchor="middle" x="86.7087" y="-181.5" font-family="Helvetica,sans-Serif" font-size="10.00">Eigen/StdVector</text>
</g>
<!-- Node12&#45;&gt;Node13 -->
<g id="edge13" class="edge"><title>Node12&#45;&gt;Node13</title>
<path fill="none" stroke="midnightblue" d="M152.482,-236.679C138.736,-225.879 119.925,-211.098 105.94,-200.11"/>
<polygon fill="midnightblue" stroke="midnightblue" points="107.97,-197.254 97.9447,-193.828 103.646,-202.759 107.97,-197.254"/>
</g>
<!-- Node12&#45;&gt;Node14 -->
<g id="edge14" class="edge"><title>Node12&#45;&gt;Node14</title>
<path fill="none" stroke="midnightblue" d="M178.954,-236.679C184.703,-226.694 192.411,-213.307 198.541,-202.66"/>
<polygon fill="midnightblue" stroke="midnightblue" points="201.669,-204.241 203.626,-193.828 195.603,-200.748 201.669,-204.241"/>
</g>
<!-- Node15&#45;&gt;Node3 -->
<g id="edge16" class="edge"><title>Node15&#45;&gt;Node3</title>
<path fill="none" stroke="midnightblue" d="M631.255,-250.92C721.543,-249.119 869.251,-239.943 903.709,-200 912.999,-189.231 913.195,-178.596 903.709,-168 880.848,-142.465 661.004,-129.835 554.708,-125.18"/>
<polygon fill="midnightblue" stroke="midnightblue" points="554.619,-121.673 544.478,-124.741 554.319,-128.667 554.619,-121.673"/>
</g>
<!-- Node16 -->
<g id="node16" class="node"><title>Node16</title>
<polygon fill="white" stroke="#bfbfbf" points="249.209,-174.5 249.209,-193.5 314.209,-193.5 314.209,-174.5 249.209,-174.5"/>
<text text-anchor="middle" x="281.709" y="-181.5" font-family="Helvetica,sans-Serif" font-size="10.00">Eigen/Core</text>
</g>
<!-- Node15&#45;&gt;Node16 -->
<g id="edge17" class="edge"><title>Node15&#45;&gt;Node16</title>
<path fill="none" stroke="midnightblue" d="M510.192,-242.418C461.898,-233.563 386.593,-218.463 322.709,-200 319.505,-199.074 316.191,-198.023 312.9,-196.918"/>
<polygon fill="midnightblue" stroke="midnightblue" points="313.821,-193.532 303.227,-193.509 311.495,-200.134 313.821,-193.532"/>
</g>
<!-- Node17 -->
<g id="node17" class="node"><title>Node17</title>
<polygon fill="white" stroke="#bfbfbf" points="332.209,-174.5 332.209,-193.5 419.209,-193.5 419.209,-174.5 332.209,-174.5"/>
<text text-anchor="middle" x="375.709" y="-181.5" font-family="Helvetica,sans-Serif" font-size="10.00">Eigen/Geometry</text>
</g>
<!-- Node15&#45;&gt;Node17 -->
<g id="edge18" class="edge"><title>Node15&#45;&gt;Node17</title>
<path fill="none" stroke="midnightblue" d="M535.654,-242.372C503.332,-230.778 445.73,-210.116 409.188,-197.009"/>
<polygon fill="midnightblue" stroke="midnightblue" points="410.072,-193.608 399.478,-193.526 407.709,-200.197 410.072,-193.608"/>
</g>
<!-- Node18 -->
<g id="node18" class="node"><title>Node18</title>
<polygon fill="white" stroke="#bfbfbf" points="437.209,-174.5 437.209,-193.5 512.209,-193.5 512.209,-174.5 437.209,-174.5"/>
<text text-anchor="middle" x="474.709" y="-181.5" font-family="Helvetica,sans-Serif" font-size="10.00">Eigen/Sparse</text>
</g>
<!-- Node15&#45;&gt;Node18 -->
<g id="edge19" class="edge"><title>Node15&#45;&gt;Node18</title>
<path fill="none" stroke="midnightblue" d="M548.596,-242.372C534.724,-231.6 510.772,-213.002 493.906,-199.906"/>
<polygon fill="midnightblue" stroke="midnightblue" points="495.869,-196.999 485.824,-193.63 491.576,-202.528 495.869,-196.999"/>
</g>
<!-- Node19 -->
<g id="node19" class="node"><title>Node19</title>
<polygon fill="white" stroke="#bfbfbf" points="530.209,-174.5 530.209,-193.5 589.209,-193.5 589.209,-174.5 530.209,-174.5"/>
<text text-anchor="middle" x="559.709" y="-181.5" font-family="Helvetica,sans-Serif" font-size="10.00">functional</text>
</g>
<!-- Node15&#45;&gt;Node19 -->
<g id="edge20" class="edge"><title>Node15&#45;&gt;Node19</title>
<path fill="none" stroke="midnightblue" d="M559.709,-242.372C559.709,-232.643 559.709,-216.528 559.709,-203.85"/>
<polygon fill="midnightblue" stroke="midnightblue" points="563.209,-203.841 559.709,-193.841 556.209,-203.841 563.209,-203.841"/>
</g>
<!-- Node20 -->
<g id="node20" class="node"><title>Node20</title>
<polygon fill="white" stroke="#bfbfbf" points="607.209,-169 607.209,-199 740.209,-199 740.209,-169 607.209,-169"/>
<text text-anchor="start" x="615.209" y="-187" font-family="Helvetica,sans-Serif" font-size="10.00">unsupported/Eigen/Aligned</text>
<text text-anchor="middle" x="673.709" y="-176" font-family="Helvetica,sans-Serif" font-size="10.00">Vector3</text>
</g>
<!-- Node15&#45;&gt;Node20 -->
<g id="edge21" class="edge"><title>Node15&#45;&gt;Node20</title>
<path fill="none" stroke="midnightblue" d="M574.612,-242.372C591.194,-232.771 618.516,-216.954 640.276,-204.356"/>
<polygon fill="midnightblue" stroke="midnightblue" points="642.313,-207.221 649.213,-199.181 638.806,-201.163 642.313,-207.221"/>
</g>
<!-- Node15&#45;&gt;Node21 -->
<g id="edge22" class="edge"><title>Node15&#45;&gt;Node21</title>
<path fill="none" stroke="midnightblue" d="M623.937,-242.489C699.161,-232.485 827.517,-215.304 937.709,-200 951.285,-198.114 965.843,-196.057 979.664,-194.088"/>
<polygon fill="midnightblue" stroke="midnightblue" points="980.169,-197.551 989.573,-192.673 979.179,-190.622 980.169,-197.551"/>
</g>
<!-- Node25 -->
<g id="node25" class="node"><title>Node25</title>
<g id="a_node25"><a xlink:href="LinearAlgebra_8inl.html" target="_top" xlink:title="Core/Math/LinearAlgebra.inl">
<polygon fill="white" stroke="black" points="758.209,-174.5 758.209,-193.5 895.209,-193.5 895.209,-174.5 758.209,-174.5"/>
<text text-anchor="middle" x="826.709" y="-181.5" font-family="Helvetica,sans-Serif" font-size="10.00">Core/Math/LinearAlgebra.inl</text>
</a>
</g>
</g>
<!-- Node15&#45;&gt;Node25 -->
<g id="edge28" class="edge"><title>Node15&#45;&gt;Node25</title>
<path fill="none" stroke="midnightblue" d="M594.341,-242.439C642.459,-230.545 729.564,-209.013 782.374,-195.959"/>
<polygon fill="midnightblue" stroke="midnightblue" points="783.27,-199.343 792.138,-193.546 781.591,-192.548 783.27,-199.343"/>
</g>
<!-- Node21&#45;&gt;Node3 -->
<g id="edge23" class="edge"><title>Node21&#45;&gt;Node3</title>
<path fill="none" stroke="midnightblue" d="M1008.44,-174.453C997.985,-172.082 986.422,-169.697 975.709,-168 824.651,-144.078 644.575,-131.331 554.679,-126.028"/>
<polygon fill="midnightblue" stroke="midnightblue" points="554.619,-122.519 544.433,-125.433 554.213,-129.507 554.619,-122.519"/>
</g>
<!-- Node22 -->
<g id="node22" class="node"><title>Node22</title>
<polygon fill="white" stroke="#bfbfbf" points="901.709,-112.5 901.709,-131.5 957.709,-131.5 957.709,-112.5 901.709,-112.5"/>
<text text-anchor="middle" x="929.709" y="-119.5" font-family="Helvetica,sans-Serif" font-size="10.00">algorithm</text>
</g>
<!-- Node21&#45;&gt;Node22 -->
<g id="edge24" class="edge"><title>Node21&#45;&gt;Node22</title>
<path fill="none" stroke="midnightblue" d="M1026.52,-174.403C1007.81,-164.468 976.786,-147.997 954.91,-136.381"/>
<polygon fill="midnightblue" stroke="midnightblue" points="956.342,-133.179 945.869,-131.581 953.06,-139.362 956.342,-133.179"/>
</g>
<!-- Node23 -->
<g id="node23" class="node"><title>Node23</title>
<polygon fill="white" stroke="#bfbfbf" points="975.709,-112.5 975.709,-131.5 1019.71,-131.5 1019.71,-112.5 975.709,-112.5"/>
<text text-anchor="middle" x="997.709" y="-119.5" font-family="Helvetica,sans-Serif" font-size="10.00">cmath</text>
</g>
<!-- Node21&#45;&gt;Node23 -->
<g id="edge25" class="edge"><title>Node21&#45;&gt;Node23</title>
<path fill="none" stroke="midnightblue" d="M1036.26,-174.403C1029.51,-165.403 1018.74,-151.041 1010.3,-139.782"/>
<polygon fill="midnightblue" stroke="midnightblue" points="1012.94,-137.481 1004.14,-131.581 1007.34,-141.681 1012.94,-137.481"/>
</g>
<!-- Node24 -->
<g id="node24" class="node"><title>Node24</title>
<g id="a_node24"><a xlink:href="Math_8inl.html" target="_top" xlink:title="Core/Math/Math.inl">
<polygon fill="white" stroke="black" points="1037.71,-112.5 1037.71,-131.5 1137.71,-131.5 1137.71,-112.5 1037.71,-112.5"/>
<text text-anchor="middle" x="1087.71" y="-119.5" font-family="Helvetica,sans-Serif" font-size="10.00">Core/Math/Math.inl</text>
</a>
</g>
</g>
<!-- Node21&#45;&gt;Node24 -->
<g id="edge26" class="edge"><title>Node21&#45;&gt;Node24</title>
<path fill="none" stroke="midnightblue" d="M1044.26,-174.403C1049.15,-165.225 1059.83,-150.47 1069.56,-139.117"/>
<polygon fill="midnightblue" stroke="midnightblue" points="1072.26,-141.345 1076.38,-131.581 1067.07,-136.649 1072.26,-141.345"/>
</g>
<!-- Node24&#45;&gt;Node21 -->
<g id="edge27" class="edge"><title>Node24&#45;&gt;Node21</title>
<path fill="none" stroke="midnightblue" d="M1086.17,-131.581C1081.28,-140.752 1070.6,-155.506 1060.88,-166.863"/>
<polygon fill="midnightblue" stroke="midnightblue" points="1058.17,-164.639 1054.06,-174.403 1063.36,-169.334 1058.17,-164.639"/>
</g>
<!-- Node26&#45;&gt;Node3 -->
<g id="edge34" class="edge"><title>Node26&#45;&gt;Node3</title>
<path fill="none" stroke="midnightblue" d="M928.846,-304.398C937.304,-279.526 957.614,-206.828 921.709,-168 897.243,-141.543 664.693,-129.299 554.76,-124.953"/>
<polygon fill="midnightblue" stroke="midnightblue" points="554.643,-121.446 544.515,-124.557 554.372,-128.441 554.643,-121.446"/>
</g>
<!-- Node26&#45;&gt;Node15 -->
<g id="edge35" class="edge"><title>Node26&#45;&gt;Node15</title>
<path fill="none" stroke="midnightblue" d="M874.433,-304.594C808.24,-293.743 693.137,-274.873 621.988,-263.21"/>
<polygon fill="midnightblue" stroke="midnightblue" points="622.255,-259.707 611.82,-261.543 621.122,-266.615 622.255,-259.707"/>
</g>
<!-- Node27 -->
<g id="node27" class="node"><title>Node27</title>
<g id="a_node27"><a xlink:href="Obb_8inl.html" target="_top" xlink:title="Core/Math/Obb.inl">
<polygon fill="white" stroke="black" points="953.709,-242.5 953.709,-261.5 1049.71,-261.5 1049.71,-242.5 953.709,-242.5"/>
<text text-anchor="middle" x="1001.71" y="-249.5" font-family="Helvetica,sans-Serif" font-size="10.00">Core/Math/Obb.inl</text>
</a>
</g>
</g>
<!-- Node26&#45;&gt;Node27 -->
<g id="edge36" class="edge"><title>Node26&#45;&gt;Node27</title>
<path fill="none" stroke="midnightblue" d="M931.697,-304.403C941.806,-294.78 961.438,-279.024 977.482,-267.489"/>
<polygon fill="midnightblue" stroke="midnightblue" points="979.748,-270.176 985.943,-261.581 975.74,-264.437 979.748,-270.176"/>
</g>
<!-- Node27&#45;&gt;Node26 -->
<g id="edge37" class="edge"><title>Node27&#45;&gt;Node26</title>
<path fill="none" stroke="midnightblue" d="M995.737,-261.581C985.639,-271.198 966.01,-286.952 949.962,-298.492"/>
<polygon fill="midnightblue" stroke="midnightblue" points="947.692,-295.808 941.498,-304.403 951.701,-301.547 947.692,-295.808"/>
</g>
</g>
</svg>
