<?xml version="1.0" encoding="UTF-8" standalone="no"?>
<!DOCTYPE svg PUBLIC "-//W3C//DTD SVG 1.1//EN"
 "http://www.w3.org/Graphics/SVG/1.1/DTD/svg11.dtd">
<!-- Generated by graphviz version 2.36.0 (20140111.2315)
 -->
<!-- Title: /home/travis/build/STORM&#45;IRIT/Radium&#45;Engine/src/Engine/Renderer/Light/PointLight.hpp Pages: 1 -->
<svg width="1076pt" height="546pt"
 viewBox="0.00 0.00 1076.33 546.00" xmlns="http://www.w3.org/2000/svg" xmlns:xlink="http://www.w3.org/1999/xlink">
<g id="graph0" class="graph" transform="scale(1 1) rotate(0) translate(4 542)">
<title>/home/travis/build/STORM&#45;IRIT/Radium&#45;Engine/src/Engine/Renderer/Light/PointLight.hpp</title>
<polygon fill="white" stroke="none" points="-4,4 -4,-542 1072.33,-542 1072.33,4 -4,4"/>
<!-- Node1 -->
<g id="node1" class="node"><title>Node1</title>
<polygon fill="#bfbfbf" stroke="black" points="325.931,-485 325.931,-537 473.931,-537 473.931,-485 325.931,-485"/>
<text text-anchor="start" x="333.931" y="-525" font-family="Helvetica,sans-Serif" font-size="10.00">/home/travis/build</text>
<text text-anchor="start" x="333.931" y="-514" font-family="Helvetica,sans-Serif" font-size="10.00">/STORM&#45;IRIT/Radium&#45;Engine</text>
<text text-anchor="start" x="333.931" y="-503" font-family="Helvetica,sans-Serif" font-size="10.00">/src/Engine/Renderer/Light</text>
<text text-anchor="middle" x="399.931" y="-492" font-family="Helvetica,sans-Serif" font-size="10.00">/PointLight.hpp</text>
</g>
<!-- Node2 -->
<g id="node2" class="node"><title>Node2</title>
<g id="a_node2"><a xlink:href="RaEngine_8hpp.html" target="_top" xlink:title="Engine/RaEngine.hpp">
<polygon fill="white" stroke="black" points="240.431,-292.5 240.431,-311.5 351.431,-311.5 351.431,-292.5 240.431,-292.5"/>
<text text-anchor="middle" x="295.931" y="-299.5" font-family="Helvetica,sans-Serif" font-size="10.00">Engine/RaEngine.hpp</text>
</a>
</g>
</g>
<!-- Node1&#45;&gt;Node2 -->
<g id="edge1" class="edge"><title>Node1&#45;&gt;Node2</title>
<path fill="none" stroke="midnightblue" d="M367.11,-484.929C355.323,-474.564 342.773,-461.753 333.931,-448 308.088,-407.805 299.767,-350.67 297.128,-321.577"/>
<polygon fill="midnightblue" stroke="midnightblue" points="300.616,-321.277 296.35,-311.579 293.637,-321.821 300.616,-321.277"/>
</g>
<!-- Node9 -->
<g id="node9" class="node"><title>Node9</title>
<g id="a_node9"><a xlink:href="Light_8hpp.html" target="_top" xlink:title="Engine/Renderer/Light\l/Light.hpp">
<polygon fill="white" stroke="black" points="343.431,-417 343.431,-447 456.431,-447 456.431,-417 343.431,-417"/>
<text text-anchor="start" x="351.431" y="-435" font-family="Helvetica,sans-Serif" font-size="10.00">Engine/Renderer/Light</text>
<text text-anchor="middle" x="399.931" y="-424" font-family="Helvetica,sans-Serif" font-size="10.00">/Light.hpp</text>
</a>
</g>
</g>
<!-- Node1&#45;&gt;Node9 -->
<g id="edge8" class="edge"><title>Node1&#45;&gt;Node9</title>
<path fill="none" stroke="midnightblue" d="M399.931,-484.787C399.931,-476.029 399.931,-466.225 399.931,-457.523"/>
<polygon fill="midnightblue" stroke="midnightblue" points="403.431,-457.252 399.931,-447.252 396.431,-457.252 403.431,-457.252"/>
</g>
<!-- Node30 -->
<g id="node30" class="node"><title>Node30</title>
<g id="a_node30"><a xlink:href="PointLight_8inl.html" target="_top" xlink:title="Engine/Renderer/Light\l/PointLight.inl">
<polygon fill="white" stroke="black" points="474.431,-417 474.431,-447 587.431,-447 587.431,-417 474.431,-417"/>
<text text-anchor="start" x="482.431" y="-435" font-family="Helvetica,sans-Serif" font-size="10.00">Engine/Renderer/Light</text>
<text text-anchor="middle" x="530.931" y="-424" font-family="Helvetica,sans-Serif" font-size="10.00">/PointLight.inl</text>
</a>
</g>
</g>
<!-- Node1&#45;&gt;Node30 -->
<g id="edge40" class="edge"><title>Node1&#45;&gt;Node30</title>
<path fill="none" stroke="midnightblue" d="M442.825,-484.787C460.832,-474.203 481.436,-462.092 498.19,-452.245"/>
<polygon fill="midnightblue" stroke="midnightblue" points="500.213,-455.115 507.06,-447.031 496.666,-449.081 500.213,-455.115"/>
</g>
<!-- Node3 -->
<g id="node3" class="node"><title>Node3</title>
<g id="a_node3"><a xlink:href="CoreMacros_8hpp.html" target="_top" xlink:title="Core/CoreMacros.hpp">
<polygon fill="white" stroke="black" points="295.431,-56.5 295.431,-75.5 408.431,-75.5 408.431,-56.5 295.431,-56.5"/>
<text text-anchor="middle" x="351.931" y="-63.5" font-family="Helvetica,sans-Serif" font-size="10.00">Core/CoreMacros.hpp</text>
</a>
</g>
</g>
<!-- Node2&#45;&gt;Node3 -->
<g id="edge2" class="edge"><title>Node2&#45;&gt;Node3</title>
<path fill="none" stroke="midnightblue" d="M240.145,-296.932C142.269,-287.423 -45.0388,-257.301 9.93075,-168 38.9436,-120.867 194.257,-90.3041 285.296,-76.1567"/>
<polygon fill="midnightblue" stroke="midnightblue" points="285.897,-79.6056 295.253,-74.6349 284.839,-72.686 285.897,-79.6056"/>
</g>
<!-- Node4 -->
<g id="node4" class="node"><title>Node4</title>
<polygon fill="white" stroke="#bfbfbf" points="196.431,-0.5 196.431,-19.5 245.431,-19.5 245.431,-0.5 196.431,-0.5"/>
<text text-anchor="middle" x="220.931" y="-7.5" font-family="Helvetica,sans-Serif" font-size="10.00">cassert</text>
</g>
<!-- Node3&#45;&gt;Node4 -->
<g id="edge3" class="edge"><title>Node3&#45;&gt;Node4</title>
<path fill="none" stroke="midnightblue" d="M331.173,-56.4435C309.614,-47.5566 275.667,-33.5632 251.137,-23.4514"/>
<polygon fill="midnightblue" stroke="midnightblue" points="252.17,-20.0917 241.591,-19.5164 249.502,-26.5634 252.17,-20.0917"/>
</g>
<!-- Node5 -->
<g id="node5" class="node"><title>Node5</title>
<polygon fill="white" stroke="#bfbfbf" points="263.431,-0.5 263.431,-19.5 306.431,-19.5 306.431,-0.5 263.431,-0.5"/>
<text text-anchor="middle" x="284.931" y="-7.5" font-family="Helvetica,sans-Serif" font-size="10.00">cstdio</text>
</g>
<!-- Node3&#45;&gt;Node5 -->
<g id="edge4" class="edge"><title>Node3&#45;&gt;Node5</title>
<path fill="none" stroke="midnightblue" d="M341.166,-56.324C331.165,-48.2631 316.044,-36.0765 304,-26.3695"/>
<polygon fill="midnightblue" stroke="midnightblue" points="305.874,-23.3841 295.891,-19.8339 301.481,-28.8343 305.874,-23.3841"/>
</g>
<!-- Node6 -->
<g id="node6" class="node"><title>Node6</title>
<polygon fill="white" stroke="#bfbfbf" points="324.931,-0.5 324.931,-19.5 378.931,-19.5 378.931,-0.5 324.931,-0.5"/>
<text text-anchor="middle" x="351.931" y="-7.5" font-family="Helvetica,sans-Serif" font-size="10.00">iostream</text>
</g>
<!-- Node3&#45;&gt;Node6 -->
<g id="edge5" class="edge"><title>Node3&#45;&gt;Node6</title>
<path fill="none" stroke="midnightblue" d="M351.931,-56.083C351.931,-49.0059 351.931,-38.8611 351.931,-29.9865"/>
<polygon fill="midnightblue" stroke="midnightblue" points="355.431,-29.751 351.931,-19.7511 348.431,-29.7511 355.431,-29.751"/>
</g>
<!-- Node7 -->
<g id="node7" class="node"><title>Node7</title>
<polygon fill="white" stroke="#bfbfbf" points="396.931,-0.5 396.931,-19.5 448.931,-19.5 448.931,-0.5 396.931,-0.5"/>
<text text-anchor="middle" x="422.931" y="-7.5" font-family="Helvetica,sans-Serif" font-size="10.00">sstream</text>
</g>
<!-- Node3&#45;&gt;Node7 -->
<g id="edge6" class="edge"><title>Node3&#45;&gt;Node7</title>
<path fill="none" stroke="midnightblue" d="M363.338,-56.324C374.04,-48.1849 390.271,-35.8395 403.094,-26.0874"/>
<polygon fill="midnightblue" stroke="midnightblue" points="405.475,-28.6734 411.316,-19.8339 401.238,-23.1018 405.475,-28.6734"/>
</g>
<!-- Node8 -->
<g id="node8" class="node"><title>Node8</title>
<polygon fill="white" stroke="#bfbfbf" points="466.931,-0.5 466.931,-19.5 510.931,-19.5 510.931,-0.5 466.931,-0.5"/>
<text text-anchor="middle" x="488.931" y="-7.5" font-family="Helvetica,sans-Serif" font-size="10.00">thread</text>
</g>
<!-- Node3&#45;&gt;Node8 -->
<g id="edge7" class="edge"><title>Node3&#45;&gt;Node8</title>
<path fill="none" stroke="midnightblue" d="M373.639,-56.4435C396.286,-47.5171 432.003,-33.4387 457.683,-23.3168"/>
<polygon fill="midnightblue" stroke="midnightblue" points="459.304,-26.4397 467.324,-19.5164 456.737,-19.9273 459.304,-26.4397"/>
</g>
<!-- Node9&#45;&gt;Node2 -->
<g id="edge38" class="edge"><title>Node9&#45;&gt;Node2</title>
<path fill="none" stroke="midnightblue" d="M376.682,-416.898C362.943,-407.693 345.942,-394.682 333.931,-380 319.374,-362.206 308.565,-337.907 302.271,-321.398"/>
<polygon fill="midnightblue" stroke="midnightblue" points="305.497,-320.026 298.794,-311.821 298.917,-322.415 305.497,-320.026"/>
</g>
<!-- Node10 -->
<g id="node10" class="node"><title>Node10</title>
<g id="a_node10"><a xlink:href="LinearAlgebra_8hpp.html" target="_top" xlink:title="Core/Math/LinearAlgebra.hpp">
<polygon fill="white" stroke="black" points="433.431,-236.5 433.431,-255.5 576.431,-255.5 576.431,-236.5 433.431,-236.5"/>
<text text-anchor="middle" x="504.931" y="-243.5" font-family="Helvetica,sans-Serif" font-size="10.00">Core/Math/LinearAlgebra.hpp</text>
</a>
</g>
</g>
<!-- Node9&#45;&gt;Node10 -->
<g id="edge9" class="edge"><title>Node9&#45;&gt;Node10</title>
<path fill="none" stroke="midnightblue" d="M424.669,-416.874C438.332,-407.915 454.582,-395.165 464.931,-380 489.429,-344.101 499.259,-292.819 502.932,-265.614"/>
<polygon fill="midnightblue" stroke="midnightblue" points="506.423,-265.892 504.153,-255.544 499.474,-265.049 506.423,-265.892"/>
</g>
<!-- Node22 -->
<g id="node22" class="node"><title>Node22</title>
<g id="a_node22"><a xlink:href="Component_8hpp.html" target="_top" xlink:title="Engine/Component/Component.hpp">
<polygon fill="white" stroke="black" points="512.931,-354.5 512.931,-373.5 684.931,-373.5 684.931,-354.5 512.931,-354.5"/>
<text text-anchor="middle" x="598.931" y="-361.5" font-family="Helvetica,sans-Serif" font-size="10.00">Engine/Component/Component.hpp</text>
</a>
</g>
</g>
<!-- Node9&#45;&gt;Node22 -->
<g id="edge24" class="edge"><title>Node9&#45;&gt;Node22</title>
<path fill="none" stroke="midnightblue" d="M442.621,-416.841C478.535,-404.93 529.298,-388.094 563.122,-376.876"/>
<polygon fill="midnightblue" stroke="midnightblue" points="564.65,-380.057 573.04,-373.587 562.447,-373.413 564.65,-380.057"/>
</g>
<!-- Node29 -->
<g id="node29" class="node"><title>Node29</title>
<g id="a_node29"><a xlink:href="Light_8inl.html" target="_top" xlink:title="Engine/Renderer/Light\l/Light.inl">
<polygon fill="white" stroke="black" points="343.431,-349 343.431,-379 456.431,-379 456.431,-349 343.431,-349"/>
<text text-anchor="start" x="351.431" y="-367" font-family="Helvetica,sans-Serif" font-size="10.00">Engine/Renderer/Light</text>
<text text-anchor="middle" x="399.931" y="-356" font-family="Helvetica,sans-Serif" font-size="10.00">/Light.inl</text>
</a>
</g>
</g>
<!-- Node9&#45;&gt;Node29 -->
<g id="edge39" class="edge"><title>Node9&#45;&gt;Node29</title>
<path fill="none" stroke="midnightblue" d="M399.931,-416.679C399.931,-408.722 399.931,-398.605 399.931,-389.436"/>
<polygon fill="midnightblue" stroke="midnightblue" points="403.431,-389.293 399.931,-379.293 396.431,-389.293 403.431,-389.293"/>
</g>
<!-- Node11 -->
<g id="node11" class="node"><title>Node11</title>
<g id="a_node11"><a xlink:href="RaCore_8hpp.html" target="_top" xlink:title="Core/RaCore.hpp">
<polygon fill="white" stroke="black" points="667.431,-112.5 667.431,-131.5 760.431,-131.5 760.431,-112.5 667.431,-112.5"/>
<text text-anchor="middle" x="713.931" y="-119.5" font-family="Helvetica,sans-Serif" font-size="10.00">Core/RaCore.hpp</text>
</a>
</g>
</g>
<!-- Node10&#45;&gt;Node11 -->
<g id="edge10" class="edge"><title>Node10&#45;&gt;Node11</title>
<path fill="none" stroke="midnightblue" d="M571.844,-236.456C618.952,-229.11 676.584,-216.996 693.931,-200 709.469,-184.776 713.458,-159.139 714.227,-141.664"/>
<polygon fill="midnightblue" stroke="midnightblue" points="717.729,-141.596 714.357,-131.551 710.729,-141.506 717.729,-141.596"/>
</g>
<!-- Node12 -->
<g id="node12" class="node"><title>Node12</title>
<polygon fill="white" stroke="#bfbfbf" points="299.431,-174.5 299.431,-193.5 364.431,-193.5 364.431,-174.5 299.431,-174.5"/>
<text text-anchor="middle" x="331.931" y="-181.5" font-family="Helvetica,sans-Serif" font-size="10.00">Eigen/Core</text>
</g>
<!-- Node10&#45;&gt;Node12 -->
<g id="edge12" class="edge"><title>Node10&#45;&gt;Node12</title>
<path fill="none" stroke="midnightblue" d="M479.073,-236.373C452.418,-227.437 409.685,-212.986 372.931,-200 370.34,-199.085 367.661,-198.128 364.971,-197.159"/>
<polygon fill="midnightblue" stroke="midnightblue" points="365.909,-193.777 355.315,-193.657 363.522,-200.357 365.909,-193.777"/>
</g>
<!-- Node13 -->
<g id="node13" class="node"><title>Node13</title>
<polygon fill="white" stroke="#bfbfbf" points="742.431,-174.5 742.431,-193.5 829.431,-193.5 829.431,-174.5 742.431,-174.5"/>
<text text-anchor="middle" x="785.931" y="-181.5" font-family="Helvetica,sans-Serif" font-size="10.00">Eigen/Geometry</text>
</g>
<!-- Node10&#45;&gt;Node13 -->
<g id="edge13" class="edge"><title>Node10&#45;&gt;Node13</title>
<path fill="none" stroke="midnightblue" d="M550.784,-236.497C595.977,-227.94 666.923,-214.034 727.931,-200 733.252,-198.776 738.83,-197.423 744.336,-196.046"/>
<polygon fill="midnightblue" stroke="midnightblue" points="745.269,-199.42 754.097,-193.563 743.543,-192.636 745.269,-199.42"/>
</g>
<!-- Node14 -->
<g id="node14" class="node"><title>Node14</title>
<polygon fill="white" stroke="#bfbfbf" points="382.431,-174.5 382.431,-193.5 457.431,-193.5 457.431,-174.5 382.431,-174.5"/>
<text text-anchor="middle" x="419.931" y="-181.5" font-family="Helvetica,sans-Serif" font-size="10.00">Eigen/Sparse</text>
</g>
<!-- Node10&#45;&gt;Node14 -->
<g id="edge14" class="edge"><title>Node10&#45;&gt;Node14</title>
<path fill="none" stroke="midnightblue" d="M492.752,-236.403C479.119,-226.78 456.798,-211.024 440.457,-199.489"/>
<polygon fill="midnightblue" stroke="midnightblue" points="442.275,-196.488 432.087,-193.581 438.238,-202.207 442.275,-196.488"/>
</g>
<!-- Node15 -->
<g id="node15" class="node"><title>Node15</title>
<polygon fill="white" stroke="#bfbfbf" points="475.431,-174.5 475.431,-193.5 534.431,-193.5 534.431,-174.5 475.431,-174.5"/>
<text text-anchor="middle" x="504.931" y="-181.5" font-family="Helvetica,sans-Serif" font-size="10.00">functional</text>
</g>
<!-- Node10&#45;&gt;Node15 -->
<g id="edge15" class="edge"><title>Node10&#45;&gt;Node15</title>
<path fill="none" stroke="midnightblue" d="M504.931,-236.403C504.931,-227.938 504.931,-214.728 504.931,-203.82"/>
<polygon fill="midnightblue" stroke="midnightblue" points="508.431,-203.581 504.931,-193.581 501.431,-203.581 508.431,-203.581"/>
</g>
<!-- Node16 -->
<g id="node16" class="node"><title>Node16</title>
<polygon fill="white" stroke="#bfbfbf" points="552.431,-169 552.431,-199 685.431,-199 685.431,-169 552.431,-169"/>
<text text-anchor="start" x="560.431" y="-187" font-family="Helvetica,sans-Serif" font-size="10.00">unsupported/Eigen/Aligned</text>
<text text-anchor="middle" x="618.931" y="-176" font-family="Helvetica,sans-Serif" font-size="10.00">Vector3</text>
</g>
<!-- Node10&#45;&gt;Node16 -->
<g id="edge16" class="edge"><title>Node10&#45;&gt;Node16</title>
<path fill="none" stroke="midnightblue" d="M521.264,-236.403C537.353,-227.936 562.462,-214.72 583.192,-203.81"/>
<polygon fill="midnightblue" stroke="midnightblue" points="584.844,-206.896 592.063,-199.141 581.584,-200.701 584.844,-206.896"/>
</g>
<!-- Node17 -->
<g id="node17" class="node"><title>Node17</title>
<g id="a_node17"><a xlink:href="Math_8hpp.html" target="_top" xlink:title="Core/Math/Math.hpp">
<polygon fill="white" stroke="black" points="174.931,-174.5 174.931,-193.5 280.931,-193.5 280.931,-174.5 174.931,-174.5"/>
<text text-anchor="middle" x="227.931" y="-181.5" font-family="Helvetica,sans-Serif" font-size="10.00">Core/Math/Math.hpp</text>
</a>
</g>
</g>
<!-- Node10&#45;&gt;Node17 -->
<g id="edge17" class="edge"><title>Node10&#45;&gt;Node17</title>
<path fill="none" stroke="midnightblue" d="M462.014,-236.426C418.556,-227.647 349.452,-213.426 289.931,-200 284.187,-198.704 278.154,-197.3 272.2,-195.887"/>
<polygon fill="midnightblue" stroke="midnightblue" points="272.861,-192.447 262.32,-193.521 271.23,-199.254 272.861,-192.447"/>
</g>
<!-- Node21 -->
<g id="node21" class="node"><title>Node21</title>
<g id="a_node21"><a xlink:href="LinearAlgebra_8inl.html" target="_top" xlink:title="Core/Math/LinearAlgebra.inl">
<polygon fill="white" stroke="black" points="19.4307,-174.5 19.4307,-193.5 156.431,-193.5 156.431,-174.5 19.4307,-174.5"/>
<text text-anchor="middle" x="87.9307" y="-181.5" font-family="Helvetica,sans-Serif" font-size="10.00">Core/Math/LinearAlgebra.inl</text>
</a>
</g>
</g>
<!-- Node10&#45;&gt;Node21 -->
<g id="edge23" class="edge"><title>Node10&#45;&gt;Node21</title>
<path fill="none" stroke="midnightblue" d="M433.328,-236.719C364.595,-228.481 257.937,-214.94 165.931,-200 157.517,-198.634 148.619,-197.053 139.961,-195.44"/>
<polygon fill="midnightblue" stroke="midnightblue" points="140.428,-191.967 129.951,-193.544 139.125,-198.844 140.428,-191.967"/>
</g>
<!-- Node11&#45;&gt;Node3 -->
<g id="edge11" class="edge"><title>Node11&#45;&gt;Node3</title>
<path fill="none" stroke="midnightblue" d="M667.347,-114.051C604.061,-104.611 490.55,-87.6779 418.349,-76.9077"/>
<polygon fill="midnightblue" stroke="midnightblue" points="418.852,-73.4441 408.445,-75.4303 417.819,-80.3675 418.852,-73.4441"/>
</g>
<!-- Node17&#45;&gt;Node11 -->
<g id="edge18" class="edge"><title>Node17&#45;&gt;Node11</title>
<path fill="none" stroke="midnightblue" d="M259.623,-174.483C269.296,-172.113 280.001,-169.72 289.931,-168 420.381,-145.398 575.507,-132.413 657.159,-126.639"/>
<polygon fill="midnightblue" stroke="midnightblue" points="657.493,-130.125 667.225,-125.938 657.006,-123.142 657.493,-130.125"/>
</g>
<!-- Node18 -->
<g id="node18" class="node"><title>Node18</title>
<polygon fill="white" stroke="#bfbfbf" points="247.931,-112.5 247.931,-131.5 303.931,-131.5 303.931,-112.5 247.931,-112.5"/>
<text text-anchor="middle" x="275.931" y="-119.5" font-family="Helvetica,sans-Serif" font-size="10.00">algorithm</text>
</g>
<!-- Node17&#45;&gt;Node18 -->
<g id="edge19" class="edge"><title>Node17&#45;&gt;Node18</title>
<path fill="none" stroke="midnightblue" d="M234.808,-174.403C242.079,-165.314 253.726,-150.756 262.772,-139.449"/>
<polygon fill="midnightblue" stroke="midnightblue" points="265.552,-141.576 269.066,-131.581 260.086,-137.203 265.552,-141.576"/>
</g>
<!-- Node19 -->
<g id="node19" class="node"><title>Node19</title>
<polygon fill="white" stroke="#bfbfbf" points="321.931,-112.5 321.931,-131.5 365.931,-131.5 365.931,-112.5 321.931,-112.5"/>
<text text-anchor="middle" x="343.931" y="-119.5" font-family="Helvetica,sans-Serif" font-size="10.00">cmath</text>
</g>
<!-- Node17&#45;&gt;Node19 -->
<g id="edge20" class="edge"><title>Node17&#45;&gt;Node19</title>
<path fill="none" stroke="midnightblue" d="M244.551,-174.403C263.846,-164.423 295.89,-147.849 318.362,-136.225"/>
<polygon fill="midnightblue" stroke="midnightblue" points="320.067,-139.284 327.342,-131.581 316.851,-133.066 320.067,-139.284"/>
</g>
<!-- Node20 -->
<g id="node20" class="node"><title>Node20</title>
<g id="a_node20"><a xlink:href="Math_8inl.html" target="_top" xlink:title="Core/Math/Math.inl">
<polygon fill="white" stroke="black" points="129.931,-112.5 129.931,-131.5 229.931,-131.5 229.931,-112.5 129.931,-112.5"/>
<text text-anchor="middle" x="179.931" y="-119.5" font-family="Helvetica,sans-Serif" font-size="10.00">Core/Math/Math.inl</text>
</a>
</g>
</g>
<!-- Node17&#45;&gt;Node20 -->
<g id="edge21" class="edge"><title>Node17&#45;&gt;Node20</title>
<path fill="none" stroke="midnightblue" d="M216.153,-174.403C207.097,-165.493 195.342,-151.325 187.462,-140.118"/>
<polygon fill="midnightblue" stroke="midnightblue" points="190.29,-138.048 181.898,-131.581 184.426,-141.87 190.29,-138.048"/>
</g>
<!-- Node20&#45;&gt;Node17 -->
<g id="edge22" class="edge"><title>Node20&#45;&gt;Node17</title>
<path fill="none" stroke="midnightblue" d="M191.692,-131.581C200.745,-140.485 212.501,-154.652 220.386,-165.862"/>
<polygon fill="midnightblue" stroke="midnightblue" points="217.561,-167.938 225.954,-174.403 223.425,-164.115 217.561,-167.938"/>
</g>
<!-- Node22&#45;&gt;Node2 -->
<g id="edge25" class="edge"><title>Node22&#45;&gt;Node2</title>
<path fill="none" stroke="midnightblue" d="M555.84,-354.467C501.319,-343.671 407.463,-325.086 348.704,-313.45"/>
<polygon fill="midnightblue" stroke="midnightblue" points="349.362,-310.013 338.873,-311.503 348.002,-316.879 349.362,-310.013"/>
</g>
<!-- Node22&#45;&gt;Node10 -->
<g id="edge31" class="edge"><title>Node22&#45;&gt;Node10</title>
<path fill="none" stroke="midnightblue" d="M626.146,-354.452C659.562,-342.538 709.331,-319.301 687.931,-292 675.037,-275.552 629.436,-264.313 586.984,-257.181"/>
<polygon fill="midnightblue" stroke="midnightblue" points="587.283,-253.684 576.853,-255.544 586.167,-260.594 587.283,-253.684"/>
</g>
<!-- Node23 -->
<g id="node23" class="node"><title>Node23</title>
<g id="a_node23"><a xlink:href="IndexedObject_8hpp.html" target="_top" xlink:title="Core/Index/IndexedObject.hpp">
<polygon fill="white" stroke="black" points="892.431,-292.5 892.431,-311.5 1041.43,-311.5 1041.43,-292.5 892.431,-292.5"/>
<text text-anchor="middle" x="966.931" y="-299.5" font-family="Helvetica,sans-Serif" font-size="10.00">Core/Index/IndexedObject.hpp</text>
</a>
</g>
</g>
<!-- Node22&#45;&gt;Node23 -->
<g id="edge26" class="edge"><title>Node22&#45;&gt;Node23</title>
<path fill="none" stroke="midnightblue" d="M651.265,-354.467C718.029,-343.582 833.36,-324.778 904.597,-313.163"/>
<polygon fill="midnightblue" stroke="midnightblue" points="905.47,-316.567 914.777,-311.503 904.344,-309.658 905.47,-316.567"/>
</g>
<!-- Node27 -->
<g id="node27" class="node"><title>Node27</title>
<g id="a_node27"><a xlink:href="Ray_8hpp.html" target="_top" xlink:title="Core/Math/Ray.hpp">
<polygon fill="white" stroke="black" points="734.931,-292.5 734.931,-311.5 836.931,-311.5 836.931,-292.5 734.931,-292.5"/>
<text text-anchor="middle" x="785.931" y="-299.5" font-family="Helvetica,sans-Serif" font-size="10.00">Core/Math/Ray.hpp</text>
</a>
</g>
</g>
<!-- Node22&#45;&gt;Node27 -->
<g id="edge32" class="edge"><title>Node22&#45;&gt;Node27</title>
<path fill="none" stroke="midnightblue" d="M625.723,-354.403C658.217,-343.978 713.139,-326.356 749.468,-314.699"/>
<polygon fill="midnightblue" stroke="midnightblue" points="750.735,-317.968 759.188,-311.581 748.597,-311.303 750.735,-317.968"/>
</g>
<!-- Node28 -->
<g id="node28" class="node"><title>Node28</title>
<g id="a_node28"><a xlink:href="Component_8inl.html" target="_top" xlink:title="Engine/Component/Component.inl">
<polygon fill="white" stroke="black" points="512.931,-292.5 512.931,-311.5 678.931,-311.5 678.931,-292.5 512.931,-292.5"/>
<text text-anchor="middle" x="595.931" y="-299.5" font-family="Helvetica,sans-Serif" font-size="10.00">Engine/Component/Component.inl</text>
</a>
</g>
</g>
<!-- Node22&#45;&gt;Node28 -->
<g id="edge36" class="edge"><title>Node22&#45;&gt;Node28</title>
<path fill="none" stroke="midnightblue" d="M593.6,-354.403C591.346,-345.938 590.214,-332.728 590.557,-321.82"/>
<polygon fill="midnightblue" stroke="midnightblue" points="594.068,-321.85 591.463,-311.581 587.095,-321.233 594.068,-321.85"/>
</g>
<!-- Node23&#45;&gt;Node11 -->
<g id="edge30" class="edge"><title>Node23&#45;&gt;Node11</title>
<path fill="none" stroke="midnightblue" d="M983.759,-292.441C997.873,-284.564 1017.78,-271.735 1030.93,-256 1057.09,-224.711 1083.83,-198.656 1056.93,-168 1038.37,-146.841 863.047,-132.539 770.516,-126.399"/>
<polygon fill="midnightblue" stroke="midnightblue" points="770.678,-122.902 760.471,-125.743 770.222,-129.887 770.678,-122.902"/>
</g>
<!-- Node24 -->
<g id="node24" class="node"><title>Node24</title>
<g id="a_node24"><a xlink:href="Index_8hpp.html" target="_top" xlink:title="Core/Index/Index.hpp">
<polygon fill="white" stroke="black" points="911.931,-236.5 911.931,-255.5 1021.93,-255.5 1021.93,-236.5 911.931,-236.5"/>
<text text-anchor="middle" x="966.931" y="-243.5" font-family="Helvetica,sans-Serif" font-size="10.00">Core/Index/Index.hpp</text>
</a>
</g>
</g>
<!-- Node23&#45;&gt;Node24 -->
<g id="edge27" class="edge"><title>Node23&#45;&gt;Node24</title>
<path fill="none" stroke="midnightblue" d="M966.931,-292.083C966.931,-285.006 966.931,-274.861 966.931,-265.986"/>
<polygon fill="midnightblue" stroke="midnightblue" points="970.431,-265.751 966.931,-255.751 963.431,-265.751 970.431,-265.751"/>
</g>
<!-- Node25 -->
<g id="node25" class="node"><title>Node25</title>
<polygon fill="white" stroke="#bfbfbf" points="885.931,-174.5 885.931,-193.5 925.931,-193.5 925.931,-174.5 885.931,-174.5"/>
<text text-anchor="middle" x="905.931" y="-181.5" font-family="Helvetica,sans-Serif" font-size="10.00">limits</text>
</g>
<!-- Node24&#45;&gt;Node25 -->
<g id="edge28" class="edge"><title>Node24&#45;&gt;Node25</title>
<path fill="none" stroke="midnightblue" d="M958.191,-236.403C948.769,-227.136 933.567,-212.183 921.981,-200.788"/>
<polygon fill="midnightblue" stroke="midnightblue" points="924.238,-198.098 914.654,-193.581 919.329,-203.088 924.238,-198.098"/>
</g>
<!-- Node26 -->
<g id="node26" class="node"><title>Node26</title>
<g id="a_node26"><a xlink:href="Index_8inl.html" target="_top" xlink:title="Core/Index/Index.inl">
<polygon fill="white" stroke="black" points="943.931,-174.5 943.931,-193.5 1047.93,-193.5 1047.93,-174.5 943.931,-174.5"/>
<text text-anchor="middle" x="995.931" y="-181.5" font-family="Helvetica,sans-Serif" font-size="10.00">Core/Index/Index.inl</text>
</a>
</g>
</g>
<!-- Node24&#45;&gt;Node26 -->
<g id="edge29" class="edge"><title>Node24&#45;&gt;Node26</title>
<path fill="none" stroke="midnightblue" d="M971.086,-236.403C975.307,-227.671 981.968,-213.889 987.331,-202.794"/>
<polygon fill="midnightblue" stroke="midnightblue" points="990.583,-204.107 991.783,-193.581 984.28,-201.061 990.583,-204.107"/>
</g>
<!-- Node27&#45;&gt;Node10 -->
<g id="edge33" class="edge"><title>Node27&#45;&gt;Node10</title>
<path fill="none" stroke="midnightblue" d="M741.405,-292.444C691.975,-282.944 612.184,-267.611 559.153,-257.42"/>
<polygon fill="midnightblue" stroke="midnightblue" points="559.729,-253.967 549.248,-255.516 558.407,-260.841 559.729,-253.967"/>
</g>
<!-- Node27&#45;&gt;Node11 -->
<g id="edge34" class="edge"><title>Node27&#45;&gt;Node11</title>
<path fill="none" stroke="midnightblue" d="M794.773,-292.223C816.209,-269.869 867.102,-209.619 837.931,-168 822.555,-146.063 795.342,-134.778 770.319,-128.991"/>
<polygon fill="midnightblue" stroke="midnightblue" points="771.003,-125.559 760.502,-126.965 769.588,-132.414 771.003,-125.559"/>
</g>
<!-- Node27&#45;&gt;Node13 -->
<g id="edge35" class="edge"><title>Node27&#45;&gt;Node13</title>
<path fill="none" stroke="midnightblue" d="M785.931,-292.281C785.931,-273.547 785.931,-229.098 785.931,-203.682"/>
<polygon fill="midnightblue" stroke="midnightblue" points="789.431,-203.505 785.931,-193.505 782.431,-203.505 789.431,-203.505"/>
</g>
<!-- Node28&#45;&gt;Node22 -->
<g id="edge37" class="edge"><title>Node28&#45;&gt;Node22</title>
<path fill="none" stroke="midnightblue" d="M601.257,-311.581C603.513,-320.04 604.646,-333.248 604.305,-344.16"/>
<polygon fill="midnightblue" stroke="midnightblue" points="600.794,-344.135 603.402,-354.403 607.767,-344.75 600.794,-344.135"/>
</g>
</g>
</svg>
