<?xml version="1.0" encoding="UTF-8" standalone="no"?>
<!DOCTYPE svg PUBLIC "-//W3C//DTD SVG 1.1//EN"
 "http://www.w3.org/Graphics/SVG/1.1/DTD/svg11.dtd">
<!-- Generated by graphviz version 2.36.0 (20140111.2315)
 -->
<!-- Title: /home/travis/build/STORM&#45;IRIT/Radium&#45;Engine/src/Core/Animation/Pose/PoseOperation.hpp Pages: 1 -->
<svg width="579pt" height="152pt"
 viewBox="0.00 0.00 579.00 152.00" xmlns="http://www.w3.org/2000/svg" xmlns:xlink="http://www.w3.org/1999/xlink">
<g id="graph0" class="graph" transform="scale(1 1) rotate(0) translate(4 148)">
<title>/home/travis/build/STORM&#45;IRIT/Radium&#45;Engine/src/Core/Animation/Pose/PoseOperation.hpp</title>
<polygon fill="white" stroke="none" points="-4,4 -4,-148 575,-148 575,4 -4,4"/>
<!-- Node1 -->
<g id="node1" class="node"><title>Node1</title>
<polygon fill="#bfbfbf" stroke="black" points="187,-91 187,-143 335,-143 335,-91 187,-91"/>
<text text-anchor="start" x="195" y="-131" font-family="Helvetica,sans-Serif" font-size="10.00">/home/travis/build</text>
<text text-anchor="start" x="195" y="-120" font-family="Helvetica,sans-Serif" font-size="10.00">/STORM&#45;IRIT/Radium&#45;Engine</text>
<text text-anchor="start" x="195" y="-109" font-family="Helvetica,sans-Serif" font-size="10.00">/src/Core/Animation/Pose</text>
<text text-anchor="middle" x="261" y="-98" font-family="Helvetica,sans-Serif" font-size="10.00">/PoseOperation.hpp</text>
</g>
<!-- Node2 -->
<g id="node2" class="node"><title>Node2</title>
<g id="a_node2"><a xlink:href="Animation_8cpp.html" target="_top" xlink:title="/home/travis/build\l/STORM&#45;IRIT/Radium&#45;Engine\l/src/Core/Animation/Animation.cpp">
<polygon fill="white" stroke="black" points="-0.5,-6.5 -0.5,-47.5 168.5,-47.5 168.5,-6.5 -0.5,-6.5"/>
<text text-anchor="start" x="7.5" y="-35.5" font-family="Helvetica,sans-Serif" font-size="10.00">/home/travis/build</text>
<text text-anchor="start" x="7.5" y="-24.5" font-family="Helvetica,sans-Serif" font-size="10.00">/STORM&#45;IRIT/Radium&#45;Engine</text>
<text text-anchor="middle" x="84" y="-13.5" font-family="Helvetica,sans-Serif" font-size="10.00">/src/Core/Animation/Animation.cpp</text>
</a>
</g>
</g>
<!-- Node1&#45;&gt;Node2 -->
<g id="edge1" class="edge"><title>Node1&#45;&gt;Node2</title>
<path fill="none" stroke="midnightblue" d="M201.031,-86.1848C175.441,-73.4622 146.287,-58.9678 123.48,-47.6283"/>
<polygon fill="midnightblue" stroke="midnightblue" points="199.766,-89.4648 210.279,-90.7827 202.883,-83.1968 199.766,-89.4648"/>
</g>
<!-- Node3 -->
<g id="node3" class="node"><title>Node3</title>
<g id="a_node3"><a xlink:href="PoseOperation_8cpp.html" target="_top" xlink:title="/home/travis/build\l/STORM&#45;IRIT/Radium&#45;Engine\l/src/Core/Animation/Pose\l/PoseOperation.cpp">
<polygon fill="white" stroke="black" points="187,-1 187,-53 335,-53 335,-1 187,-1"/>
<text text-anchor="start" x="195" y="-41" font-family="Helvetica,sans-Serif" font-size="10.00">/home/travis/build</text>
<text text-anchor="start" x="195" y="-30" font-family="Helvetica,sans-Serif" font-size="10.00">/STORM&#45;IRIT/Radium&#45;Engine</text>
<text text-anchor="start" x="195" y="-19" font-family="Helvetica,sans-Serif" font-size="10.00">/src/Core/Animation/Pose</text>
<text text-anchor="middle" x="261" y="-8" font-family="Helvetica,sans-Serif" font-size="10.00">/PoseOperation.cpp</text>
</a>
</g>
</g>
<!-- Node1&#45;&gt;Node3 -->
<g id="edge2" class="edge"><title>Node1&#45;&gt;Node3</title>
<path fill="none" stroke="midnightblue" d="M261,-80.4892C261,-71.3088 261,-61.616 261,-53.0921"/>
<polygon fill="midnightblue" stroke="midnightblue" points="257.5,-80.5467 261,-90.5468 264.5,-80.5468 257.5,-80.5467"/>
</g>
<!-- Node4 -->
<g id="node4" class="node"><title>Node4</title>
<g id="a_node4"><a xlink:href="SkinningComponent_8cpp.html" target="_top" xlink:title="/home/travis/build\l/STORM&#45;IRIT/Radium&#45;Engine\l/Plugins/Skinning/src/SkinningComponent.cpp">
<polygon fill="white" stroke="black" points="353,-6.5 353,-47.5 571,-47.5 571,-6.5 353,-6.5"/>
<text text-anchor="start" x="361" y="-35.5" font-family="Helvetica,sans-Serif" font-size="10.00">/home/travis/build</text>
<text text-anchor="start" x="361" y="-24.5" font-family="Helvetica,sans-Serif" font-size="10.00">/STORM&#45;IRIT/Radium&#45;Engine</text>
<text text-anchor="middle" x="462" y="-13.5" font-family="Helvetica,sans-Serif" font-size="10.00">/Plugins/Skinning/src/SkinningComponent.cpp</text>
</a>
</g>
</g>
<!-- Node1&#45;&gt;Node4 -->
<g id="edge3" class="edge"><title>Node1&#45;&gt;Node4</title>
<path fill="none" stroke="midnightblue" d="M327.726,-86.7865C357.189,-73.8875 391.033,-59.07 417.373,-47.5384"/>
<polygon fill="midnightblue" stroke="midnightblue" points="326.086,-83.6837 318.33,-90.9005 328.894,-90.0961 326.086,-83.6837"/>
</g>
</g>
</svg>
