<?xml version="1.0" encoding="UTF-8" standalone="no"?>
<!DOCTYPE svg PUBLIC "-//W3C//DTD SVG 1.1//EN"
 "http://www.w3.org/Graphics/SVG/1.1/DTD/svg11.dtd">
<!-- Generated by graphviz version 2.36.0 (20140111.2315)
 -->
<!-- Title: /home/travis/build/STORM&#45;IRIT/Radium&#45;Engine/src/Core/Math/Ray.hpp Pages: 1 -->
<svg width="848pt" height="342pt"
 viewBox="0.00 0.00 848.00 342.00" xmlns="http://www.w3.org/2000/svg" xmlns:xlink="http://www.w3.org/1999/xlink">
<g id="graph0" class="graph" transform="scale(1 1) rotate(0) translate(4 338)">
<title>/home/travis/build/STORM&#45;IRIT/Radium&#45;Engine/src/Core/Math/Ray.hpp</title>
<polygon fill="white" stroke="none" points="-4,4 -4,-338 844,-338 844,4 -4,4"/>
<!-- Node1 -->
<g id="node1" class="node"><title>Node1</title>
<polygon fill="#bfbfbf" stroke="black" points="692,-292.5 692,-333.5 840,-333.5 840,-292.5 692,-292.5"/>
<text text-anchor="start" x="700" y="-321.5" font-family="Helvetica,sans-Serif" font-size="10.00">/home/travis/build</text>
<text text-anchor="start" x="700" y="-310.5" font-family="Helvetica,sans-Serif" font-size="10.00">/STORM&#45;IRIT/Radium&#45;Engine</text>
<text text-anchor="middle" x="766" y="-299.5" font-family="Helvetica,sans-Serif" font-size="10.00">/src/Core/Math/Ray.hpp</text>
</g>
<!-- Node2 -->
<g id="node2" class="node"><title>Node2</title>
<g id="a_node2"><a xlink:href="LinearAlgebra_8hpp.html" target="_top" xlink:title="Core/Math/LinearAlgebra.hpp">
<polygon fill="white" stroke="black" points="442.5,-236.5 442.5,-255.5 585.5,-255.5 585.5,-236.5 442.5,-236.5"/>
<text text-anchor="middle" x="514" y="-243.5" font-family="Helvetica,sans-Serif" font-size="10.00">Core/Math/LinearAlgebra.hpp</text>
</a>
</g>
</g>
<!-- Node1&#45;&gt;Node2 -->
<g id="edge1" class="edge"><title>Node1&#45;&gt;Node2</title>
<path fill="none" stroke="midnightblue" d="M691.755,-292.849C647.962,-281.554 594.073,-267.654 557.184,-258.139"/>
<polygon fill="midnightblue" stroke="midnightblue" points="557.81,-254.686 547.252,-255.577 556.061,-261.464 557.81,-254.686"/>
</g>
<!-- Node3 -->
<g id="node3" class="node"><title>Node3</title>
<g id="a_node3"><a xlink:href="RaCore_8hpp.html" target="_top" xlink:title="Core/RaCore.hpp">
<polygon fill="white" stroke="black" points="564.5,-112.5 564.5,-131.5 657.5,-131.5 657.5,-112.5 564.5,-112.5"/>
<text text-anchor="middle" x="611" y="-119.5" font-family="Helvetica,sans-Serif" font-size="10.00">Core/RaCore.hpp</text>
</a>
</g>
</g>
<!-- Node1&#45;&gt;Node3 -->
<g id="edge21" class="edge"><title>Node1&#45;&gt;Node3</title>
<path fill="none" stroke="midnightblue" d="M784.133,-292.301C809.268,-262.557 848.357,-205.665 818,-168 799.463,-145 722.677,-133.146 668.047,-127.506"/>
<polygon fill="midnightblue" stroke="midnightblue" points="668.077,-123.992 657.782,-126.491 667.389,-130.958 668.077,-123.992"/>
</g>
<!-- Node11 -->
<g id="node11" class="node"><title>Node11</title>
<polygon fill="white" stroke="#bfbfbf" points="722.5,-174.5 722.5,-193.5 809.5,-193.5 809.5,-174.5 722.5,-174.5"/>
<text text-anchor="middle" x="766" y="-181.5" font-family="Helvetica,sans-Serif" font-size="10.00">Eigen/Geometry</text>
</g>
<!-- Node1&#45;&gt;Node11 -->
<g id="edge22" class="edge"><title>Node1&#45;&gt;Node11</title>
<path fill="none" stroke="midnightblue" d="M766,-292.435C766,-268.278 766,-227.482 766,-203.721"/>
<polygon fill="midnightblue" stroke="midnightblue" points="769.5,-203.572 766,-193.572 762.5,-203.572 769.5,-203.572"/>
</g>
<!-- Node2&#45;&gt;Node3 -->
<g id="edge2" class="edge"><title>Node2&#45;&gt;Node3</title>
<path fill="none" stroke="midnightblue" d="M538.677,-236.453C555.802,-229.289 577.822,-217.406 591,-200 603.87,-183.001 608.491,-158.503 610.132,-141.732"/>
<polygon fill="midnightblue" stroke="midnightblue" points="613.638,-141.766 610.856,-131.543 606.655,-141.27 613.638,-141.766"/>
</g>
<!-- Node10 -->
<g id="node10" class="node"><title>Node10</title>
<polygon fill="white" stroke="#bfbfbf" points="639.5,-174.5 639.5,-193.5 704.5,-193.5 704.5,-174.5 639.5,-174.5"/>
<text text-anchor="middle" x="672" y="-181.5" font-family="Helvetica,sans-Serif" font-size="10.00">Eigen/Core</text>
</g>
<!-- Node2&#45;&gt;Node10 -->
<g id="edge9" class="edge"><title>Node2&#45;&gt;Node10</title>
<path fill="none" stroke="midnightblue" d="M536.638,-236.403C563.74,-226.111 609.31,-208.806 640.004,-197.15"/>
<polygon fill="midnightblue" stroke="midnightblue" points="641.298,-200.403 649.404,-193.581 638.813,-193.859 641.298,-200.403"/>
</g>
<!-- Node2&#45;&gt;Node11 -->
<g id="edge10" class="edge"><title>Node2&#45;&gt;Node11</title>
<path fill="none" stroke="midnightblue" d="M554.552,-236.494C594.872,-227.881 658.419,-213.884 713,-200 717.622,-198.824 722.455,-197.537 727.241,-196.227"/>
<polygon fill="midnightblue" stroke="midnightblue" points="728.222,-199.587 736.917,-193.533 726.344,-192.844 728.222,-199.587"/>
</g>
<!-- Node12 -->
<g id="node12" class="node"><title>Node12</title>
<polygon fill="white" stroke="#bfbfbf" points="-0.5,-174.5 -0.5,-193.5 74.5,-193.5 74.5,-174.5 -0.5,-174.5"/>
<text text-anchor="middle" x="37" y="-181.5" font-family="Helvetica,sans-Serif" font-size="10.00">Eigen/Sparse</text>
</g>
<!-- Node2&#45;&gt;Node12 -->
<g id="edge11" class="edge"><title>Node2&#45;&gt;Node12</title>
<path fill="none" stroke="midnightblue" d="M442.352,-242.148C356.235,-237.66 207.729,-226.536 83,-200 78.7482,-199.095 74.3356,-197.944 70.001,-196.681"/>
<polygon fill="midnightblue" stroke="midnightblue" points="70.7296,-193.242 60.1409,-193.601 68.642,-199.924 70.7296,-193.242"/>
</g>
<!-- Node13 -->
<g id="node13" class="node"><title>Node13</title>
<polygon fill="white" stroke="#bfbfbf" points="92.5,-174.5 92.5,-193.5 151.5,-193.5 151.5,-174.5 92.5,-174.5"/>
<text text-anchor="middle" x="122" y="-181.5" font-family="Helvetica,sans-Serif" font-size="10.00">functional</text>
</g>
<!-- Node2&#45;&gt;Node13 -->
<g id="edge12" class="edge"><title>Node2&#45;&gt;Node13</title>
<path fill="none" stroke="midnightblue" d="M442.498,-241.156C370.291,-236.057 256.014,-224.639 160,-200 156.939,-199.214 153.791,-198.248 150.681,-197.187"/>
<polygon fill="midnightblue" stroke="midnightblue" points="151.615,-193.8 141.023,-193.584 149.169,-200.358 151.615,-193.8"/>
</g>
<!-- Node14 -->
<g id="node14" class="node"><title>Node14</title>
<polygon fill="white" stroke="#bfbfbf" points="169.5,-169 169.5,-199 302.5,-199 302.5,-169 169.5,-169"/>
<text text-anchor="start" x="177.5" y="-187" font-family="Helvetica,sans-Serif" font-size="10.00">unsupported/Eigen/Aligned</text>
<text text-anchor="middle" x="236" y="-176" font-family="Helvetica,sans-Serif" font-size="10.00">Vector3</text>
</g>
<!-- Node2&#45;&gt;Node14 -->
<g id="edge13" class="edge"><title>Node2&#45;&gt;Node14</title>
<path fill="none" stroke="midnightblue" d="M474.465,-236.467C432.075,-227.318 363.77,-212.576 311.105,-201.21"/>
<polygon fill="midnightblue" stroke="midnightblue" points="311.642,-197.745 301.129,-199.057 310.165,-204.588 311.642,-197.745"/>
</g>
<!-- Node15 -->
<g id="node15" class="node"><title>Node15</title>
<g id="a_node15"><a xlink:href="Math_8hpp.html" target="_top" xlink:title="Core/Math/Math.hpp">
<polygon fill="white" stroke="black" points="321,-174.5 321,-193.5 427,-193.5 427,-174.5 321,-174.5"/>
<text text-anchor="middle" x="374" y="-181.5" font-family="Helvetica,sans-Serif" font-size="10.00">Core/Math/Math.hpp</text>
</a>
</g>
</g>
<!-- Node2&#45;&gt;Node15 -->
<g id="edge14" class="edge"><title>Node2&#45;&gt;Node15</title>
<path fill="none" stroke="midnightblue" d="M493.941,-236.403C470.238,-226.245 430.594,-209.255 403.417,-197.607"/>
<polygon fill="midnightblue" stroke="midnightblue" points="404.592,-194.303 394.021,-193.581 401.834,-200.737 404.592,-194.303"/>
</g>
<!-- Node19 -->
<g id="node19" class="node"><title>Node19</title>
<g id="a_node19"><a xlink:href="LinearAlgebra_8inl.html" target="_top" xlink:title="Core/Math/LinearAlgebra.inl">
<polygon fill="white" stroke="black" points="445.5,-174.5 445.5,-193.5 582.5,-193.5 582.5,-174.5 445.5,-174.5"/>
<text text-anchor="middle" x="514" y="-181.5" font-family="Helvetica,sans-Serif" font-size="10.00">Core/Math/LinearAlgebra.inl</text>
</a>
</g>
</g>
<!-- Node2&#45;&gt;Node19 -->
<g id="edge20" class="edge"><title>Node2&#45;&gt;Node19</title>
<path fill="none" stroke="midnightblue" d="M514,-236.403C514,-227.938 514,-214.728 514,-203.82"/>
<polygon fill="midnightblue" stroke="midnightblue" points="517.5,-203.581 514,-193.581 510.5,-203.581 517.5,-203.581"/>
</g>
<!-- Node4 -->
<g id="node4" class="node"><title>Node4</title>
<g id="a_node4"><a xlink:href="CoreMacros_8hpp.html" target="_top" xlink:title="Core/CoreMacros.hpp">
<polygon fill="white" stroke="black" points="554.5,-56.5 554.5,-75.5 667.5,-75.5 667.5,-56.5 554.5,-56.5"/>
<text text-anchor="middle" x="611" y="-63.5" font-family="Helvetica,sans-Serif" font-size="10.00">Core/CoreMacros.hpp</text>
</a>
</g>
</g>
<!-- Node3&#45;&gt;Node4 -->
<g id="edge3" class="edge"><title>Node3&#45;&gt;Node4</title>
<path fill="none" stroke="midnightblue" d="M611,-112.083C611,-105.006 611,-94.8611 611,-85.9865"/>
<polygon fill="midnightblue" stroke="midnightblue" points="614.5,-85.751 611,-75.7511 607.5,-85.7511 614.5,-85.751"/>
</g>
<!-- Node5 -->
<g id="node5" class="node"><title>Node5</title>
<polygon fill="white" stroke="#bfbfbf" points="455.5,-0.5 455.5,-19.5 504.5,-19.5 504.5,-0.5 455.5,-0.5"/>
<text text-anchor="middle" x="480" y="-7.5" font-family="Helvetica,sans-Serif" font-size="10.00">cassert</text>
</g>
<!-- Node4&#45;&gt;Node5 -->
<g id="edge4" class="edge"><title>Node4&#45;&gt;Node5</title>
<path fill="none" stroke="midnightblue" d="M590.243,-56.4435C568.684,-47.5566 534.737,-33.5632 510.206,-23.4514"/>
<polygon fill="midnightblue" stroke="midnightblue" points="511.239,-20.0917 500.66,-19.5164 508.572,-26.5634 511.239,-20.0917"/>
</g>
<!-- Node6 -->
<g id="node6" class="node"><title>Node6</title>
<polygon fill="white" stroke="#bfbfbf" points="522.5,-0.5 522.5,-19.5 565.5,-19.5 565.5,-0.5 522.5,-0.5"/>
<text text-anchor="middle" x="544" y="-7.5" font-family="Helvetica,sans-Serif" font-size="10.00">cstdio</text>
</g>
<!-- Node4&#45;&gt;Node6 -->
<g id="edge5" class="edge"><title>Node4&#45;&gt;Node6</title>
<path fill="none" stroke="midnightblue" d="M600.235,-56.324C590.234,-48.2631 575.113,-36.0765 563.07,-26.3695"/>
<polygon fill="midnightblue" stroke="midnightblue" points="564.943,-23.3841 554.961,-19.8339 560.55,-28.8343 564.943,-23.3841"/>
</g>
<!-- Node7 -->
<g id="node7" class="node"><title>Node7</title>
<polygon fill="white" stroke="#bfbfbf" points="584,-0.5 584,-19.5 638,-19.5 638,-0.5 584,-0.5"/>
<text text-anchor="middle" x="611" y="-7.5" font-family="Helvetica,sans-Serif" font-size="10.00">iostream</text>
</g>
<!-- Node4&#45;&gt;Node7 -->
<g id="edge6" class="edge"><title>Node4&#45;&gt;Node7</title>
<path fill="none" stroke="midnightblue" d="M611,-56.083C611,-49.0059 611,-38.8611 611,-29.9865"/>
<polygon fill="midnightblue" stroke="midnightblue" points="614.5,-29.751 611,-19.7511 607.5,-29.7511 614.5,-29.751"/>
</g>
<!-- Node8 -->
<g id="node8" class="node"><title>Node8</title>
<polygon fill="white" stroke="#bfbfbf" points="656,-0.5 656,-19.5 708,-19.5 708,-0.5 656,-0.5"/>
<text text-anchor="middle" x="682" y="-7.5" font-family="Helvetica,sans-Serif" font-size="10.00">sstream</text>
</g>
<!-- Node4&#45;&gt;Node8 -->
<g id="edge7" class="edge"><title>Node4&#45;&gt;Node8</title>
<path fill="none" stroke="midnightblue" d="M622.407,-56.324C633.109,-48.1849 649.341,-35.8395 662.163,-26.0874"/>
<polygon fill="midnightblue" stroke="midnightblue" points="664.544,-28.6734 670.385,-19.8339 660.307,-23.1018 664.544,-28.6734"/>
</g>
<!-- Node9 -->
<g id="node9" class="node"><title>Node9</title>
<polygon fill="white" stroke="#bfbfbf" points="726,-0.5 726,-19.5 770,-19.5 770,-0.5 726,-0.5"/>
<text text-anchor="middle" x="748" y="-7.5" font-family="Helvetica,sans-Serif" font-size="10.00">thread</text>
</g>
<!-- Node4&#45;&gt;Node9 -->
<g id="edge8" class="edge"><title>Node4&#45;&gt;Node9</title>
<path fill="none" stroke="midnightblue" d="M632.708,-56.4435C655.355,-47.5171 691.072,-33.4387 716.752,-23.3168"/>
<polygon fill="midnightblue" stroke="midnightblue" points="718.374,-26.4397 726.394,-19.5164 715.807,-19.9273 718.374,-26.4397"/>
</g>
<!-- Node15&#45;&gt;Node3 -->
<g id="edge15" class="edge"><title>Node15&#45;&gt;Node3</title>
<path fill="none" stroke="midnightblue" d="M407.705,-174.467C449.733,-163.827 521.645,-145.622 567.711,-133.959"/>
<polygon fill="midnightblue" stroke="midnightblue" points="568.576,-137.351 577.412,-131.503 566.858,-130.565 568.576,-137.351"/>
</g>
<!-- Node16 -->
<g id="node16" class="node"><title>Node16</title>
<polygon fill="white" stroke="#bfbfbf" points="233,-112.5 233,-131.5 289,-131.5 289,-112.5 233,-112.5"/>
<text text-anchor="middle" x="261" y="-119.5" font-family="Helvetica,sans-Serif" font-size="10.00">algorithm</text>
</g>
<!-- Node15&#45;&gt;Node16 -->
<g id="edge16" class="edge"><title>Node15&#45;&gt;Node16</title>
<path fill="none" stroke="midnightblue" d="M357.81,-174.403C339.098,-164.468 308.077,-147.997 286.201,-136.381"/>
<polygon fill="midnightblue" stroke="midnightblue" points="287.634,-133.179 277.16,-131.581 284.351,-139.362 287.634,-133.179"/>
</g>
<!-- Node17 -->
<g id="node17" class="node"><title>Node17</title>
<polygon fill="white" stroke="#bfbfbf" points="307,-112.5 307,-131.5 351,-131.5 351,-112.5 307,-112.5"/>
<text text-anchor="middle" x="329" y="-119.5" font-family="Helvetica,sans-Serif" font-size="10.00">cmath</text>
</g>
<!-- Node15&#45;&gt;Node17 -->
<g id="edge17" class="edge"><title>Node15&#45;&gt;Node17</title>
<path fill="none" stroke="midnightblue" d="M367.553,-174.403C360.803,-165.403 350.031,-151.041 341.587,-139.782"/>
<polygon fill="midnightblue" stroke="midnightblue" points="344.235,-137.481 335.435,-131.581 338.635,-141.681 344.235,-137.481"/>
</g>
<!-- Node18 -->
<g id="node18" class="node"><title>Node18</title>
<g id="a_node18"><a xlink:href="Math_8inl.html" target="_top" xlink:title="Core/Math/Math.inl">
<polygon fill="white" stroke="black" points="369,-112.5 369,-131.5 469,-131.5 469,-112.5 369,-112.5"/>
<text text-anchor="middle" x="419" y="-119.5" font-family="Helvetica,sans-Serif" font-size="10.00">Core/Math/Math.inl</text>
</a>
</g>
</g>
<!-- Node15&#45;&gt;Node18 -->
<g id="edge18" class="edge"><title>Node15&#45;&gt;Node18</title>
<path fill="none" stroke="midnightblue" d="M375.547,-174.403C380.445,-165.225 391.125,-150.47 400.85,-139.117"/>
<polygon fill="midnightblue" stroke="midnightblue" points="403.555,-141.345 407.667,-131.581 398.364,-136.649 403.555,-141.345"/>
</g>
<!-- Node18&#45;&gt;Node15 -->
<g id="edge19" class="edge"><title>Node18&#45;&gt;Node15</title>
<path fill="none" stroke="midnightblue" d="M417.462,-131.581C412.57,-140.752 401.893,-155.506 392.166,-166.863"/>
<polygon fill="midnightblue" stroke="midnightblue" points="389.459,-164.639 385.348,-174.403 394.651,-169.334 389.459,-164.639"/>
</g>
</g>
</svg>
