<?xml version="1.0" encoding="UTF-8" standalone="no"?>
<!DOCTYPE svg PUBLIC "-//W3C//DTD SVG 1.1//EN"
 "http://www.w3.org/Graphics/SVG/1.1/DTD/svg11.dtd">
<!-- Generated by graphviz version 2.36.0 (20140111.2315)
 -->
<!-- Title: /home/travis/build/STORM&#45;IRIT/Radium&#45;Engine/src/Core/Math/RayCast.hpp Pages: 1 -->
<svg width="988pt" height="140pt"
 viewBox="0.00 0.00 988.00 140.00" xmlns="http://www.w3.org/2000/svg" xmlns:xlink="http://www.w3.org/1999/xlink">
<g id="graph0" class="graph" transform="scale(1 1) rotate(0) translate(4 136)">
<title>/home/travis/build/STORM&#45;IRIT/Radium&#45;Engine/src/Core/Math/RayCast.hpp</title>
<polygon fill="white" stroke="none" points="-4,4 -4,-136 984,-136 984,4 -4,4"/>
<!-- Node1 -->
<g id="node1" class="node"><title>Node1</title>
<polygon fill="#bfbfbf" stroke="black" points="334,-90.5 334,-131.5 482,-131.5 482,-90.5 334,-90.5"/>
<text text-anchor="start" x="342" y="-119.5" font-family="Helvetica,sans-Serif" font-size="10.00">/home/travis/build</text>
<text text-anchor="start" x="342" y="-108.5" font-family="Helvetica,sans-Serif" font-size="10.00">/STORM&#45;IRIT/Radium&#45;Engine</text>
<text text-anchor="middle" x="408" y="-97.5" font-family="Helvetica,sans-Serif" font-size="10.00">/src/Core/Math/RayCast.hpp</text>
</g>
<!-- Node2 -->
<g id="node2" class="node"><title>Node2</title>
<g id="a_node2"><a xlink:href="RayCast_8inl.html" target="_top" xlink:title="/home/travis/build\l/STORM&#45;IRIT/Radium&#45;Engine\l/src/Core/Math/RayCast.inl">
<polygon fill="white" stroke="black" points="0,-6.5 0,-47.5 148,-47.5 148,-6.5 0,-6.5"/>
<text text-anchor="start" x="8" y="-35.5" font-family="Helvetica,sans-Serif" font-size="10.00">/home/travis/build</text>
<text text-anchor="start" x="8" y="-24.5" font-family="Helvetica,sans-Serif" font-size="10.00">/STORM&#45;IRIT/Radium&#45;Engine</text>
<text text-anchor="middle" x="74" y="-13.5" font-family="Helvetica,sans-Serif" font-size="10.00">/src/Core/Math/RayCast.inl</text>
</a>
</g>
</g>
<!-- Node1&#45;&gt;Node2 -->
<g id="edge1" class="edge"><title>Node1&#45;&gt;Node2</title>
<path fill="none" stroke="midnightblue" d="M323.86,-94.6856C272.61,-84.2549 206.124,-69.5581 148,-54 140.707,-52.0478 133.096,-49.8663 125.637,-47.6196"/>
<polygon fill="midnightblue" stroke="midnightblue" points="323.405,-98.1642 333.9,-96.7138 324.791,-91.3029 323.405,-98.1642"/>
</g>
<!-- Node3 -->
<g id="node3" class="node"><title>Node3</title>
<g id="a_node3"><a xlink:href="MeshUtils_8cpp.html" target="_top" xlink:title="/home/travis/build\l/STORM&#45;IRIT/Radium&#45;Engine\l/src/Core/Mesh/MeshUtils.cpp">
<polygon fill="white" stroke="black" points="166,-6.5 166,-47.5 316,-47.5 316,-6.5 166,-6.5"/>
<text text-anchor="start" x="174" y="-35.5" font-family="Helvetica,sans-Serif" font-size="10.00">/home/travis/build</text>
<text text-anchor="start" x="174" y="-24.5" font-family="Helvetica,sans-Serif" font-size="10.00">/STORM&#45;IRIT/Radium&#45;Engine</text>
<text text-anchor="middle" x="241" y="-13.5" font-family="Helvetica,sans-Serif" font-size="10.00">/src/Core/Mesh/MeshUtils.cpp</text>
</a>
</g>
</g>
<!-- Node1&#45;&gt;Node3 -->
<g id="edge3" class="edge"><title>Node1&#45;&gt;Node3</title>
<path fill="none" stroke="midnightblue" d="M358.762,-85.823C333.975,-73.6524 304.316,-59.0891 280.963,-47.6227"/>
<polygon fill="midnightblue" stroke="midnightblue" points="357.48,-89.0931 367.999,-90.359 360.566,-82.8097 357.48,-89.0931"/>
</g>
<!-- Node4 -->
<g id="node4" class="node"><title>Node4</title>
<g id="a_node4"><a xlink:href="Gizmo_8cpp.html" target="_top" xlink:title="/home/travis/build\l/STORM&#45;IRIT/Radium&#45;Engine\l/src/GuiBase/Viewer/Gizmo\l/Gizmo.cpp">
<polygon fill="white" stroke="black" points="334,-1 334,-53 482,-53 482,-1 334,-1"/>
<text text-anchor="start" x="342" y="-41" font-family="Helvetica,sans-Serif" font-size="10.00">/home/travis/build</text>
<text text-anchor="start" x="342" y="-30" font-family="Helvetica,sans-Serif" font-size="10.00">/STORM&#45;IRIT/Radium&#45;Engine</text>
<text text-anchor="start" x="342" y="-19" font-family="Helvetica,sans-Serif" font-size="10.00">/src/GuiBase/Viewer/Gizmo</text>
<text text-anchor="middle" x="408" y="-8" font-family="Helvetica,sans-Serif" font-size="10.00">/Gizmo.cpp</text>
</a>
</g>
</g>
<!-- Node1&#45;&gt;Node4 -->
<g id="edge4" class="edge"><title>Node1&#45;&gt;Node4</title>
<path fill="none" stroke="midnightblue" d="M408,-79.9378C408,-71.1758 408,-61.6949 408,-53.2613"/>
<polygon fill="midnightblue" stroke="midnightblue" points="404.5,-80.1501 408,-90.1501 411.5,-80.1501 404.5,-80.1501"/>
</g>
<!-- Node5 -->
<g id="node5" class="node"><title>Node5</title>
<g id="a_node5"><a xlink:href="RotateGizmo_8cpp.html" target="_top" xlink:title="/home/travis/build\l/STORM&#45;IRIT/Radium&#45;Engine\l/src/GuiBase/Viewer/Gizmo\l/RotateGizmo.cpp">
<polygon fill="white" stroke="black" points="500,-1 500,-53 648,-53 648,-1 500,-1"/>
<text text-anchor="start" x="508" y="-41" font-family="Helvetica,sans-Serif" font-size="10.00">/home/travis/build</text>
<text text-anchor="start" x="508" y="-30" font-family="Helvetica,sans-Serif" font-size="10.00">/STORM&#45;IRIT/Radium&#45;Engine</text>
<text text-anchor="start" x="508" y="-19" font-family="Helvetica,sans-Serif" font-size="10.00">/src/GuiBase/Viewer/Gizmo</text>
<text text-anchor="middle" x="574" y="-8" font-family="Helvetica,sans-Serif" font-size="10.00">/RotateGizmo.cpp</text>
</a>
</g>
</g>
<!-- Node1&#45;&gt;Node5 -->
<g id="edge5" class="edge"><title>Node1&#45;&gt;Node5</title>
<path fill="none" stroke="midnightblue" d="M456.79,-85.899C477.696,-75.5718 502.113,-63.5107 523.232,-53.0779"/>
<polygon fill="midnightblue" stroke="midnightblue" points="455.177,-82.792 447.761,-90.359 458.277,-89.0681 455.177,-82.792"/>
</g>
<!-- Node6 -->
<g id="node6" class="node"><title>Node6</title>
<g id="a_node6"><a xlink:href="ScaleGizmo_8cpp.html" target="_top" xlink:title="/home/travis/build\l/STORM&#45;IRIT/Radium&#45;Engine\l/src/GuiBase/Viewer/Gizmo\l/ScaleGizmo.cpp">
<polygon fill="white" stroke="black" points="666,-1 666,-53 814,-53 814,-1 666,-1"/>
<text text-anchor="start" x="674" y="-41" font-family="Helvetica,sans-Serif" font-size="10.00">/home/travis/build</text>
<text text-anchor="start" x="674" y="-30" font-family="Helvetica,sans-Serif" font-size="10.00">/STORM&#45;IRIT/Radium&#45;Engine</text>
<text text-anchor="start" x="674" y="-19" font-family="Helvetica,sans-Serif" font-size="10.00">/src/GuiBase/Viewer/Gizmo</text>
<text text-anchor="middle" x="740" y="-8" font-family="Helvetica,sans-Serif" font-size="10.00">/ScaleGizmo.cpp</text>
</a>
</g>
</g>
<!-- Node1&#45;&gt;Node6 -->
<g id="edge6" class="edge"><title>Node1&#45;&gt;Node6</title>
<path fill="none" stroke="midnightblue" d="M492.025,-92.9049C540.493,-82.5953 602.453,-68.6505 657,-54 659.917,-53.2166 662.884,-52.397 665.877,-51.5514"/>
<polygon fill="midnightblue" stroke="midnightblue" points="491.265,-89.4881 482.207,-94.983 492.715,-96.3364 491.265,-89.4881"/>
</g>
<!-- Node7 -->
<g id="node7" class="node"><title>Node7</title>
<g id="a_node7"><a xlink:href="TranslateGizmo_8cpp.html" target="_top" xlink:title="/home/travis/build\l/STORM&#45;IRIT/Radium&#45;Engine\l/src/GuiBase/Viewer/Gizmo\l/TranslateGizmo.cpp">
<polygon fill="white" stroke="black" points="832,-1 832,-53 980,-53 980,-1 832,-1"/>
<text text-anchor="start" x="840" y="-41" font-family="Helvetica,sans-Serif" font-size="10.00">/home/travis/build</text>
<text text-anchor="start" x="840" y="-30" font-family="Helvetica,sans-Serif" font-size="10.00">/STORM&#45;IRIT/Radium&#45;Engine</text>
<text text-anchor="start" x="840" y="-19" font-family="Helvetica,sans-Serif" font-size="10.00">/src/GuiBase/Viewer/Gizmo</text>
<text text-anchor="middle" x="906" y="-8" font-family="Helvetica,sans-Serif" font-size="10.00">/TranslateGizmo.cpp</text>
</a>
</g>
</g>
<!-- Node1&#45;&gt;Node7 -->
<g id="edge7" class="edge"><title>Node1&#45;&gt;Node7</title>
<path fill="none" stroke="midnightblue" d="M492.173,-102.862C576.539,-94.7216 709.796,-79.178 823,-54 825.948,-53.3443 828.942,-52.6324 831.957,-51.877"/>
<polygon fill="midnightblue" stroke="midnightblue" points="491.754,-99.3855 482.131,-103.818 492.418,-106.354 491.754,-99.3855"/>
</g>
<!-- Node2&#45;&gt;Node1 -->
<g id="edge2" class="edge"><title>Node2&#45;&gt;Node1</title>
<path fill="none" stroke="midnightblue" d="M153.451,-50.5172C157.695,-51.7312 161.898,-52.9019 166,-54 221.96,-68.9791 285.673,-83.1597 333.732,-93.5034"/>
<polygon fill="midnightblue" stroke="midnightblue" points="154.083,-47.056 143.503,-47.6196 152.126,-53.7767 154.083,-47.056"/>
</g>
</g>
</svg>
