<?xml version="1.0" encoding="UTF-8" standalone="no"?>
<!DOCTYPE svg PUBLIC "-//W3C//DTD SVG 1.1//EN"
 "http://www.w3.org/Graphics/SVG/1.1/DTD/svg11.dtd">
<!-- Generated by graphviz version 2.36.0 (20140111.2315)
 -->
<!-- Title: /home/travis/build/STORM&#45;IRIT/Radium&#45;Engine/src/Engine/Renderer/RenderTechnique/RenderParameters.inl Pages: 1 -->
<svg width="1478pt" height="434pt"
 viewBox="0.00 0.00 1478.00 434.00" xmlns="http://www.w3.org/2000/svg" xmlns:xlink="http://www.w3.org/1999/xlink">
<g id="graph0" class="graph" transform="scale(1 1) rotate(0) translate(4 430)">
<title>/home/travis/build/STORM&#45;IRIT/Radium&#45;Engine/src/Engine/Renderer/RenderTechnique/RenderParameters.inl</title>
<polygon fill="white" stroke="none" points="-4,4 -4,-430 1474,-430 1474,4 -4,4"/>
<!-- Node1 -->
<g id="node1" class="node"><title>Node1</title>
<polygon fill="#bfbfbf" stroke="black" points="983,-373 983,-425 1171,-425 1171,-373 983,-373"/>
<text text-anchor="start" x="991" y="-413" font-family="Helvetica,sans-Serif" font-size="10.00">/home/travis/build</text>
<text text-anchor="start" x="991" y="-402" font-family="Helvetica,sans-Serif" font-size="10.00">/STORM&#45;IRIT/Radium&#45;Engine</text>
<text text-anchor="start" x="991" y="-391" font-family="Helvetica,sans-Serif" font-size="10.00">/src/Engine/Renderer/RenderTechnique</text>
<text text-anchor="middle" x="1077" y="-380" font-family="Helvetica,sans-Serif" font-size="10.00">/RenderParameters.inl</text>
</g>
<!-- Node2 -->
<g id="node2" class="node"><title>Node2</title>
<g id="a_node2"><a xlink:href="ShaderProgram_8hpp.html" target="_top" xlink:title="Engine/Renderer/RenderTechnique\l/ShaderProgram.hpp">
<polygon fill="white" stroke="black" points="992.5,-305 992.5,-335 1161.5,-335 1161.5,-305 992.5,-305"/>
<text text-anchor="start" x="1000.5" y="-323" font-family="Helvetica,sans-Serif" font-size="10.00">Engine/Renderer/RenderTechnique</text>
<text text-anchor="middle" x="1077" y="-312" font-family="Helvetica,sans-Serif" font-size="10.00">/ShaderProgram.hpp</text>
</a>
</g>
</g>
<!-- Node1&#45;&gt;Node2 -->
<g id="edge1" class="edge"><title>Node1&#45;&gt;Node2</title>
<path fill="none" stroke="midnightblue" d="M1077,-372.787C1077,-364.029 1077,-354.225 1077,-345.523"/>
<polygon fill="midnightblue" stroke="midnightblue" points="1080.5,-345.252 1077,-335.252 1073.5,-345.252 1080.5,-345.252"/>
</g>
<!-- Node3 -->
<g id="node3" class="node"><title>Node3</title>
<g id="a_node3"><a xlink:href="RaEngine_8hpp.html" target="_top" xlink:title="Engine/RaEngine.hpp">
<polygon fill="white" stroke="black" points="827.5,-174.5 827.5,-193.5 938.5,-193.5 938.5,-174.5 827.5,-174.5"/>
<text text-anchor="middle" x="883" y="-181.5" font-family="Helvetica,sans-Serif" font-size="10.00">Engine/RaEngine.hpp</text>
</a>
</g>
</g>
<!-- Node2&#45;&gt;Node3 -->
<g id="edge2" class="edge"><title>Node2&#45;&gt;Node3</title>
<path fill="none" stroke="midnightblue" d="M1039.63,-304.917C1018.05,-295.933 990.924,-283.142 969,-268 940.828,-248.544 913.245,-219.688 897.196,-201.632"/>
<polygon fill="midnightblue" stroke="midnightblue" points="899.505,-198.954 890.291,-193.724 894.232,-203.558 899.505,-198.954"/>
</g>
<!-- Node10 -->
<g id="node10" class="node"><title>Node10</title>
<g id="a_node10"><a xlink:href="LinearAlgebra_8hpp.html" target="_top" xlink:title="Core/Math/LinearAlgebra.hpp">
<polygon fill="white" stroke="black" points="433.5,-242.5 433.5,-261.5 576.5,-261.5 576.5,-242.5 433.5,-242.5"/>
<text text-anchor="middle" x="505" y="-249.5" font-family="Helvetica,sans-Serif" font-size="10.00">Core/Math/LinearAlgebra.hpp</text>
</a>
</g>
</g>
<!-- Node2&#45;&gt;Node10 -->
<g id="edge9" class="edge"><title>Node2&#45;&gt;Node10</title>
<path fill="none" stroke="midnightblue" d="M992.292,-309.226C883.081,-296.625 694.443,-274.859 586.709,-262.428"/>
<polygon fill="midnightblue" stroke="midnightblue" points="586.877,-258.924 576.541,-261.255 586.074,-265.878 586.877,-258.924"/>
</g>
<!-- Node22 -->
<g id="node22" class="node"><title>Node22</title>
<g id="a_node22"><a xlink:href="OpenGL_8hpp.html" target="_top" xlink:title="Engine/Renderer/OpenGL\l/OpenGL.hpp">
<polygon fill="white" stroke="black" points="1222,-237 1222,-267 1350,-267 1350,-237 1222,-237"/>
<text text-anchor="start" x="1230" y="-255" font-family="Helvetica,sans-Serif" font-size="10.00">Engine/Renderer/OpenGL</text>
<text text-anchor="middle" x="1286" y="-244" font-family="Helvetica,sans-Serif" font-size="10.00">/OpenGL.hpp</text>
</a>
</g>
</g>
<!-- Node2&#45;&gt;Node22 -->
<g id="edge24" class="edge"><title>Node2&#45;&gt;Node22</title>
<path fill="none" stroke="midnightblue" d="M1121.58,-304.922C1153.77,-294.757 1197.41,-280.975 1231.65,-270.164"/>
<polygon fill="midnightblue" stroke="midnightblue" points="1233.01,-273.405 1241.49,-267.056 1230.9,-266.73 1233.01,-273.405"/>
</g>
<!-- Node25 -->
<g id="node25" class="node"><title>Node25</title>
<g id="a_node25"><a xlink:href="ShaderConfiguration_8hpp.html" target="_top" xlink:title="Engine/Renderer/RenderTechnique\l/ShaderConfiguration.hpp">
<polygon fill="white" stroke="black" points="992.5,-237 992.5,-267 1161.5,-267 1161.5,-237 992.5,-237"/>
<text text-anchor="start" x="1000.5" y="-255" font-family="Helvetica,sans-Serif" font-size="10.00">Engine/Renderer/RenderTechnique</text>
<text text-anchor="middle" x="1077" y="-244" font-family="Helvetica,sans-Serif" font-size="10.00">/ShaderConfiguration.hpp</text>
</a>
</g>
</g>
<!-- Node2&#45;&gt;Node25 -->
<g id="edge27" class="edge"><title>Node2&#45;&gt;Node25</title>
<path fill="none" stroke="midnightblue" d="M1077,-304.679C1077,-296.722 1077,-286.605 1077,-277.436"/>
<polygon fill="midnightblue" stroke="midnightblue" points="1080.5,-277.293 1077,-267.293 1073.5,-277.293 1080.5,-277.293"/>
</g>
<!-- Node26 -->
<g id="node26" class="node"><title>Node26</title>
<polygon fill="white" stroke="#bfbfbf" points="957,-174.5 957,-193.5 995,-193.5 995,-174.5 957,-174.5"/>
<text text-anchor="middle" x="976" y="-181.5" font-family="Helvetica,sans-Serif" font-size="10.00">array</text>
</g>
<!-- Node2&#45;&gt;Node26 -->
<g id="edge34" class="edge"><title>Node2&#45;&gt;Node26</title>
<path fill="none" stroke="midnightblue" d="M1031.05,-304.838C1013.1,-296.916 994.174,-285.095 983,-268 970.48,-248.844 970.764,-221.655 972.806,-203.684"/>
<polygon fill="midnightblue" stroke="midnightblue" points="976.296,-204.006 974.246,-193.611 969.366,-203.015 976.296,-204.006"/>
</g>
<!-- Node29 -->
<g id="node29" class="node"><title>Node29</title>
<polygon fill="white" stroke="#bfbfbf" points="1171.5,-174.5 1171.5,-193.5 1212.5,-193.5 1212.5,-174.5 1171.5,-174.5"/>
<text text-anchor="middle" x="1192" y="-181.5" font-family="Helvetica,sans-Serif" font-size="10.00">string</text>
</g>
<!-- Node2&#45;&gt;Node29 -->
<g id="edge36" class="edge"><title>Node2&#45;&gt;Node29</title>
<path fill="none" stroke="midnightblue" d="M1118.68,-304.804C1136.85,-296.66 1156.95,-284.675 1170,-268 1184.54,-249.424 1189.51,-222.097 1191.19,-203.937"/>
<polygon fill="midnightblue" stroke="midnightblue" points="1194.69,-203.955 1191.87,-193.743 1187.71,-203.486 1194.69,-203.955"/>
</g>
<!-- Node31 -->
<g id="node31" class="node"><title>Node31</title>
<polygon fill="white" stroke="#bfbfbf" points="1368,-242.5 1368,-261.5 1420,-261.5 1420,-242.5 1368,-242.5"/>
<text text-anchor="middle" x="1394" y="-249.5" font-family="Helvetica,sans-Serif" font-size="10.00">memory</text>
</g>
<!-- Node2&#45;&gt;Node31 -->
<g id="edge35" class="edge"><title>Node2&#45;&gt;Node31</title>
<path fill="none" stroke="midnightblue" d="M1161.77,-308.768C1218.38,-300.697 1294.08,-287.508 1359,-268 1361.49,-267.251 1364.05,-266.377 1366.58,-265.435"/>
<polygon fill="midnightblue" stroke="midnightblue" points="1368.16,-268.573 1376.12,-261.582 1365.54,-262.082 1368.16,-268.573"/>
</g>
<!-- Node4 -->
<g id="node4" class="node"><title>Node4</title>
<g id="a_node4"><a xlink:href="CoreMacros_8hpp.html" target="_top" xlink:title="Core/CoreMacros.hpp">
<polygon fill="white" stroke="black" points="781.5,-56.5 781.5,-75.5 894.5,-75.5 894.5,-56.5 781.5,-56.5"/>
<text text-anchor="middle" x="838" y="-63.5" font-family="Helvetica,sans-Serif" font-size="10.00">Core/CoreMacros.hpp</text>
</a>
</g>
</g>
<!-- Node3&#45;&gt;Node4 -->
<g id="edge3" class="edge"><title>Node3&#45;&gt;Node4</title>
<path fill="none" stroke="midnightblue" d="M879.618,-174.281C872.285,-155.379 854.795,-110.295 844.983,-85"/>
<polygon fill="midnightblue" stroke="midnightblue" points="848.179,-83.562 841.299,-75.5048 841.653,-86.0937 848.179,-83.562"/>
</g>
<!-- Node5 -->
<g id="node5" class="node"><title>Node5</title>
<polygon fill="white" stroke="#bfbfbf" points="682.5,-0.5 682.5,-19.5 731.5,-19.5 731.5,-0.5 682.5,-0.5"/>
<text text-anchor="middle" x="707" y="-7.5" font-family="Helvetica,sans-Serif" font-size="10.00">cassert</text>
</g>
<!-- Node4&#45;&gt;Node5 -->
<g id="edge4" class="edge"><title>Node4&#45;&gt;Node5</title>
<path fill="none" stroke="midnightblue" d="M817.243,-56.4435C795.684,-47.5566 761.737,-33.5632 737.206,-23.4514"/>
<polygon fill="midnightblue" stroke="midnightblue" points="738.239,-20.0917 727.66,-19.5164 735.572,-26.5634 738.239,-20.0917"/>
</g>
<!-- Node6 -->
<g id="node6" class="node"><title>Node6</title>
<polygon fill="white" stroke="#bfbfbf" points="749.5,-0.5 749.5,-19.5 792.5,-19.5 792.5,-0.5 749.5,-0.5"/>
<text text-anchor="middle" x="771" y="-7.5" font-family="Helvetica,sans-Serif" font-size="10.00">cstdio</text>
</g>
<!-- Node4&#45;&gt;Node6 -->
<g id="edge5" class="edge"><title>Node4&#45;&gt;Node6</title>
<path fill="none" stroke="midnightblue" d="M827.235,-56.324C817.234,-48.2631 802.113,-36.0765 790.07,-26.3695"/>
<polygon fill="midnightblue" stroke="midnightblue" points="791.943,-23.3841 781.961,-19.8339 787.55,-28.8343 791.943,-23.3841"/>
</g>
<!-- Node7 -->
<g id="node7" class="node"><title>Node7</title>
<polygon fill="white" stroke="#bfbfbf" points="811,-0.5 811,-19.5 865,-19.5 865,-0.5 811,-0.5"/>
<text text-anchor="middle" x="838" y="-7.5" font-family="Helvetica,sans-Serif" font-size="10.00">iostream</text>
</g>
<!-- Node4&#45;&gt;Node7 -->
<g id="edge6" class="edge"><title>Node4&#45;&gt;Node7</title>
<path fill="none" stroke="midnightblue" d="M838,-56.083C838,-49.0059 838,-38.8611 838,-29.9865"/>
<polygon fill="midnightblue" stroke="midnightblue" points="841.5,-29.751 838,-19.7511 834.5,-29.7511 841.5,-29.751"/>
</g>
<!-- Node8 -->
<g id="node8" class="node"><title>Node8</title>
<polygon fill="white" stroke="#bfbfbf" points="883,-0.5 883,-19.5 935,-19.5 935,-0.5 883,-0.5"/>
<text text-anchor="middle" x="909" y="-7.5" font-family="Helvetica,sans-Serif" font-size="10.00">sstream</text>
</g>
<!-- Node4&#45;&gt;Node8 -->
<g id="edge7" class="edge"><title>Node4&#45;&gt;Node8</title>
<path fill="none" stroke="midnightblue" d="M849.407,-56.324C860.109,-48.1849 876.341,-35.8395 889.163,-26.0874"/>
<polygon fill="midnightblue" stroke="midnightblue" points="891.544,-28.6734 897.385,-19.8339 887.307,-23.1018 891.544,-28.6734"/>
</g>
<!-- Node9 -->
<g id="node9" class="node"><title>Node9</title>
<polygon fill="white" stroke="#bfbfbf" points="953,-0.5 953,-19.5 997,-19.5 997,-0.5 953,-0.5"/>
<text text-anchor="middle" x="975" y="-7.5" font-family="Helvetica,sans-Serif" font-size="10.00">thread</text>
</g>
<!-- Node4&#45;&gt;Node9 -->
<g id="edge8" class="edge"><title>Node4&#45;&gt;Node9</title>
<path fill="none" stroke="midnightblue" d="M859.708,-56.4435C882.355,-47.5171 918.072,-33.4387 943.752,-23.3168"/>
<polygon fill="midnightblue" stroke="midnightblue" points="945.374,-26.4397 953.394,-19.5164 942.807,-19.9273 945.374,-26.4397"/>
</g>
<!-- Node11 -->
<g id="node11" class="node"><title>Node11</title>
<g id="a_node11"><a xlink:href="RaCore_8hpp.html" target="_top" xlink:title="Core/RaCore.hpp">
<polygon fill="white" stroke="black" points="752.5,-112.5 752.5,-131.5 845.5,-131.5 845.5,-112.5 752.5,-112.5"/>
<text text-anchor="middle" x="799" y="-119.5" font-family="Helvetica,sans-Serif" font-size="10.00">Core/RaCore.hpp</text>
</a>
</g>
</g>
<!-- Node10&#45;&gt;Node11 -->
<g id="edge10" class="edge"><title>Node10&#45;&gt;Node11</title>
<path fill="none" stroke="midnightblue" d="M576.773,-246.26C647.908,-240.091 750.288,-226.767 779,-200 794.911,-185.167 798.815,-159.44 799.463,-141.838"/>
<polygon fill="midnightblue" stroke="midnightblue" points="802.963,-141.658 799.512,-131.641 795.964,-141.624 802.963,-141.658"/>
</g>
<!-- Node12 -->
<g id="node12" class="node"><title>Node12</title>
<polygon fill="white" stroke="#bfbfbf" points="279.5,-174.5 279.5,-193.5 344.5,-193.5 344.5,-174.5 279.5,-174.5"/>
<text text-anchor="middle" x="312" y="-181.5" font-family="Helvetica,sans-Serif" font-size="10.00">Eigen/Core</text>
</g>
<!-- Node10&#45;&gt;Node12 -->
<g id="edge12" class="edge"><title>Node10&#45;&gt;Node12</title>
<path fill="none" stroke="midnightblue" d="M478.837,-242.46C448.492,-232.499 396.997,-215.426 353,-200 350.251,-199.036 347.403,-198.023 344.548,-196.998"/>
<polygon fill="midnightblue" stroke="midnightblue" points="345.541,-193.636 334.946,-193.519 343.156,-200.217 345.541,-193.636"/>
</g>
<!-- Node13 -->
<g id="node13" class="node"><title>Node13</title>
<polygon fill="white" stroke="#bfbfbf" points="362.5,-174.5 362.5,-193.5 449.5,-193.5 449.5,-174.5 362.5,-174.5"/>
<text text-anchor="middle" x="406" y="-181.5" font-family="Helvetica,sans-Serif" font-size="10.00">Eigen/Geometry</text>
</g>
<!-- Node10&#45;&gt;Node13 -->
<g id="edge13" class="edge"><title>Node10&#45;&gt;Node13</title>
<path fill="none" stroke="midnightblue" d="M492.057,-242.372C475.604,-231.403 446.975,-212.317 427.287,-199.191"/>
<polygon fill="midnightblue" stroke="midnightblue" points="429.208,-196.265 418.946,-193.63 425.325,-202.09 429.208,-196.265"/>
</g>
<!-- Node14 -->
<g id="node14" class="node"><title>Node14</title>
<polygon fill="white" stroke="#bfbfbf" points="467.5,-174.5 467.5,-193.5 542.5,-193.5 542.5,-174.5 467.5,-174.5"/>
<text text-anchor="middle" x="505" y="-181.5" font-family="Helvetica,sans-Serif" font-size="10.00">Eigen/Sparse</text>
</g>
<!-- Node10&#45;&gt;Node14 -->
<g id="edge14" class="edge"><title>Node10&#45;&gt;Node14</title>
<path fill="none" stroke="midnightblue" d="M505,-242.372C505,-232.643 505,-216.528 505,-203.85"/>
<polygon fill="midnightblue" stroke="midnightblue" points="508.5,-203.841 505,-193.841 501.5,-203.841 508.5,-203.841"/>
</g>
<!-- Node15 -->
<g id="node15" class="node"><title>Node15</title>
<polygon fill="white" stroke="#bfbfbf" points="560.5,-174.5 560.5,-193.5 619.5,-193.5 619.5,-174.5 560.5,-174.5"/>
<text text-anchor="middle" x="590" y="-181.5" font-family="Helvetica,sans-Serif" font-size="10.00">functional</text>
</g>
<!-- Node10&#45;&gt;Node15 -->
<g id="edge15" class="edge"><title>Node10&#45;&gt;Node15</title>
<path fill="none" stroke="midnightblue" d="M516.112,-242.372C529.984,-231.6 553.937,-213.002 570.802,-199.906"/>
<polygon fill="midnightblue" stroke="midnightblue" points="573.133,-202.528 578.885,-193.63 568.84,-196.999 573.133,-202.528"/>
</g>
<!-- Node16 -->
<g id="node16" class="node"><title>Node16</title>
<polygon fill="white" stroke="#bfbfbf" points="637.5,-169 637.5,-199 770.5,-199 770.5,-169 637.5,-169"/>
<text text-anchor="start" x="645.5" y="-187" font-family="Helvetica,sans-Serif" font-size="10.00">unsupported/Eigen/Aligned</text>
<text text-anchor="middle" x="704" y="-176" font-family="Helvetica,sans-Serif" font-size="10.00">Vector3</text>
</g>
<!-- Node10&#45;&gt;Node16 -->
<g id="edge16" class="edge"><title>Node10&#45;&gt;Node16</title>
<path fill="none" stroke="midnightblue" d="M531.016,-242.372C561.61,-232.225 613.145,-215.133 652.026,-202.237"/>
<polygon fill="midnightblue" stroke="midnightblue" points="653.229,-205.526 661.618,-199.056 651.025,-198.882 653.229,-205.526"/>
</g>
<!-- Node17 -->
<g id="node17" class="node"><title>Node17</title>
<g id="a_node17"><a xlink:href="Math_8hpp.html" target="_top" xlink:title="Core/Math/Math.hpp">
<polygon fill="white" stroke="black" points="155,-174.5 155,-193.5 261,-193.5 261,-174.5 155,-174.5"/>
<text text-anchor="middle" x="208" y="-181.5" font-family="Helvetica,sans-Serif" font-size="10.00">Core/Math/Math.hpp</text>
</a>
</g>
</g>
<!-- Node10&#45;&gt;Node17 -->
<g id="edge17" class="edge"><title>Node10&#45;&gt;Node17</title>
<path fill="none" stroke="midnightblue" d="M464.179,-242.447C417.254,-232.544 337.954,-215.592 270,-200 264.33,-198.699 258.376,-197.3 252.494,-195.899"/>
<polygon fill="midnightblue" stroke="midnightblue" points="253.265,-192.485 242.725,-193.554 251.632,-199.291 253.265,-192.485"/>
</g>
<!-- Node21 -->
<g id="node21" class="node"><title>Node21</title>
<g id="a_node21"><a xlink:href="LinearAlgebra_8inl.html" target="_top" xlink:title="Core/Math/LinearAlgebra.inl">
<polygon fill="white" stroke="black" points="-0.5,-174.5 -0.5,-193.5 136.5,-193.5 136.5,-174.5 -0.5,-174.5"/>
<text text-anchor="middle" x="68" y="-181.5" font-family="Helvetica,sans-Serif" font-size="10.00">Core/Math/LinearAlgebra.inl</text>
</a>
</g>
</g>
<!-- Node10&#45;&gt;Node21 -->
<g id="edge23" class="edge"><title>Node10&#45;&gt;Node21</title>
<path fill="none" stroke="midnightblue" d="M438.023,-242.48C365.8,-233.061 247.52,-216.962 146,-200 137.69,-198.612 128.905,-197.032 120.343,-195.431"/>
<polygon fill="midnightblue" stroke="midnightblue" points="120.915,-191.977 110.438,-193.552 119.61,-198.854 120.915,-191.977"/>
</g>
<!-- Node11&#45;&gt;Node4 -->
<g id="edge11" class="edge"><title>Node11&#45;&gt;Node4</title>
<path fill="none" stroke="midnightblue" d="M805.44,-112.083C810.949,-104.455 819.031,-93.2645 825.765,-83.9408"/>
<polygon fill="midnightblue" stroke="midnightblue" points="828.662,-85.9071 831.68,-75.7511 822.987,-81.8087 828.662,-85.9071"/>
</g>
<!-- Node17&#45;&gt;Node11 -->
<g id="edge18" class="edge"><title>Node17&#45;&gt;Node11</title>
<path fill="none" stroke="midnightblue" d="M239.352,-174.432C249.108,-172.031 259.943,-169.634 270,-168 440.512,-140.287 644.894,-129.033 742.161,-124.992"/>
<polygon fill="midnightblue" stroke="midnightblue" points="742.509,-128.48 752.359,-124.578 742.226,-121.486 742.509,-128.48"/>
</g>
<!-- Node18 -->
<g id="node18" class="node"><title>Node18</title>
<polygon fill="white" stroke="#bfbfbf" points="228,-112.5 228,-131.5 284,-131.5 284,-112.5 228,-112.5"/>
<text text-anchor="middle" x="256" y="-119.5" font-family="Helvetica,sans-Serif" font-size="10.00">algorithm</text>
</g>
<!-- Node17&#45;&gt;Node18 -->
<g id="edge19" class="edge"><title>Node17&#45;&gt;Node18</title>
<path fill="none" stroke="midnightblue" d="M214.877,-174.403C222.149,-165.314 233.795,-150.756 242.841,-139.449"/>
<polygon fill="midnightblue" stroke="midnightblue" points="245.622,-141.576 249.136,-131.581 240.155,-137.203 245.622,-141.576"/>
</g>
<!-- Node19 -->
<g id="node19" class="node"><title>Node19</title>
<polygon fill="white" stroke="#bfbfbf" points="302,-112.5 302,-131.5 346,-131.5 346,-112.5 302,-112.5"/>
<text text-anchor="middle" x="324" y="-119.5" font-family="Helvetica,sans-Serif" font-size="10.00">cmath</text>
</g>
<!-- Node17&#45;&gt;Node19 -->
<g id="edge20" class="edge"><title>Node17&#45;&gt;Node19</title>
<path fill="none" stroke="midnightblue" d="M224.62,-174.403C243.915,-164.423 275.959,-147.849 298.431,-136.225"/>
<polygon fill="midnightblue" stroke="midnightblue" points="300.137,-139.284 307.411,-131.581 296.921,-133.066 300.137,-139.284"/>
</g>
<!-- Node20 -->
<g id="node20" class="node"><title>Node20</title>
<g id="a_node20"><a xlink:href="Math_8inl.html" target="_top" xlink:title="Core/Math/Math.inl">
<polygon fill="white" stroke="black" points="110,-112.5 110,-131.5 210,-131.5 210,-112.5 110,-112.5"/>
<text text-anchor="middle" x="160" y="-119.5" font-family="Helvetica,sans-Serif" font-size="10.00">Core/Math/Math.inl</text>
</a>
</g>
</g>
<!-- Node17&#45;&gt;Node20 -->
<g id="edge21" class="edge"><title>Node17&#45;&gt;Node20</title>
<path fill="none" stroke="midnightblue" d="M196.222,-174.403C187.166,-165.493 175.411,-151.325 167.531,-140.118"/>
<polygon fill="midnightblue" stroke="midnightblue" points="170.359,-138.048 161.967,-131.581 164.495,-141.87 170.359,-138.048"/>
</g>
<!-- Node20&#45;&gt;Node17 -->
<g id="edge22" class="edge"><title>Node20&#45;&gt;Node17</title>
<path fill="none" stroke="midnightblue" d="M171.762,-131.581C180.814,-140.485 192.57,-154.652 200.455,-165.862"/>
<polygon fill="midnightblue" stroke="midnightblue" points="197.63,-167.938 206.023,-174.403 203.494,-164.115 197.63,-167.938"/>
</g>
<!-- Node23 -->
<g id="node23" class="node"><title>Node23</title>
<polygon fill="white" stroke="#bfbfbf" points="1230.5,-174.5 1230.5,-193.5 1343.5,-193.5 1343.5,-174.5 1230.5,-174.5"/>
<text text-anchor="middle" x="1287" y="-181.5" font-family="Helvetica,sans-Serif" font-size="10.00">glbinding/gl45core/gl.h</text>
</g>
<!-- Node22&#45;&gt;Node23 -->
<g id="edge25" class="edge"><title>Node22&#45;&gt;Node23</title>
<path fill="none" stroke="midnightblue" d="M1286.22,-236.679C1286.36,-227.101 1286.55,-214.394 1286.71,-203.977"/>
<polygon fill="midnightblue" stroke="midnightblue" points="1290.21,-203.88 1286.87,-193.828 1283.22,-203.774 1290.21,-203.88"/>
</g>
<!-- Node24 -->
<g id="node24" class="node"><title>Node24</title>
<polygon fill="white" stroke="#bfbfbf" points="1362,-174.5 1362,-193.5 1470,-193.5 1470,-174.5 1362,-174.5"/>
<text text-anchor="middle" x="1416" y="-181.5" font-family="Helvetica,sans-Serif" font-size="10.00">glbinding/gl45ext/gl.h</text>
</g>
<!-- Node22&#45;&gt;Node24 -->
<g id="edge26" class="edge"><title>Node22&#45;&gt;Node24</title>
<path fill="none" stroke="midnightblue" d="M1313.89,-236.841C1336.37,-225.425 1367.77,-209.485 1389.8,-198.303"/>
<polygon fill="midnightblue" stroke="midnightblue" points="1391.57,-201.33 1398.9,-193.682 1388.4,-195.088 1391.57,-201.33"/>
</g>
<!-- Node25&#45;&gt;Node3 -->
<g id="edge28" class="edge"><title>Node25&#45;&gt;Node3</title>
<path fill="none" stroke="midnightblue" d="M1035.38,-236.841C1000.37,-224.93 950.883,-208.094 917.909,-196.876"/>
<polygon fill="midnightblue" stroke="midnightblue" points="918.834,-193.494 908.24,-193.587 916.58,-200.121 918.834,-193.494"/>
</g>
<!-- Node25&#45;&gt;Node26 -->
<g id="edge29" class="edge"><title>Node25&#45;&gt;Node26</title>
<path fill="none" stroke="midnightblue" d="M1055.08,-236.679C1038.15,-225.611 1014.81,-210.363 997.884,-199.3"/>
<polygon fill="midnightblue" stroke="midnightblue" points="999.504,-196.178 989.219,-193.638 995.675,-202.038 999.504,-196.178"/>
</g>
<!-- Node27 -->
<g id="node27" class="node"><title>Node27</title>
<polygon fill="white" stroke="#bfbfbf" points="1013.5,-174.5 1013.5,-193.5 1042.5,-193.5 1042.5,-174.5 1013.5,-174.5"/>
<text text-anchor="middle" x="1028" y="-181.5" font-family="Helvetica,sans-Serif" font-size="10.00">list</text>
</g>
<!-- Node25&#45;&gt;Node27 -->
<g id="edge30" class="edge"><title>Node25&#45;&gt;Node27</title>
<path fill="none" stroke="midnightblue" d="M1066.37,-236.679C1058.8,-226.49 1048.61,-212.759 1040.63,-202.011"/>
<polygon fill="midnightblue" stroke="midnightblue" points="1043.33,-199.771 1034.55,-193.828 1037.71,-203.944 1043.33,-199.771"/>
</g>
<!-- Node28 -->
<g id="node28" class="node"><title>Node28</title>
<polygon fill="white" stroke="#bfbfbf" points="1061,-174.5 1061,-193.5 1091,-193.5 1091,-174.5 1061,-174.5"/>
<text text-anchor="middle" x="1076" y="-181.5" font-family="Helvetica,sans-Serif" font-size="10.00">set</text>
</g>
<!-- Node25&#45;&gt;Node28 -->
<g id="edge31" class="edge"><title>Node25&#45;&gt;Node28</title>
<path fill="none" stroke="midnightblue" d="M1076.78,-236.679C1076.64,-227.101 1076.45,-214.394 1076.29,-203.977"/>
<polygon fill="midnightblue" stroke="midnightblue" points="1079.78,-203.774 1076.13,-193.828 1072.79,-203.88 1079.78,-203.774"/>
</g>
<!-- Node25&#45;&gt;Node29 -->
<g id="edge32" class="edge"><title>Node25&#45;&gt;Node29</title>
<path fill="none" stroke="midnightblue" d="M1101.67,-236.841C1121.29,-225.579 1148.59,-209.913 1168.03,-198.757"/>
<polygon fill="midnightblue" stroke="midnightblue" points="1169.94,-201.695 1176.87,-193.682 1166.46,-195.624 1169.94,-201.695"/>
</g>
<!-- Node30 -->
<g id="node30" class="node"><title>Node30</title>
<polygon fill="white" stroke="#bfbfbf" points="1109,-174.5 1109,-193.5 1153,-193.5 1153,-174.5 1109,-174.5"/>
<text text-anchor="middle" x="1131" y="-181.5" font-family="Helvetica,sans-Serif" font-size="10.00">vector</text>
</g>
<!-- Node25&#45;&gt;Node30 -->
<g id="edge33" class="edge"><title>Node25&#45;&gt;Node30</title>
<path fill="none" stroke="midnightblue" d="M1088.72,-236.679C1097.14,-226.388 1108.51,-212.484 1117.34,-201.69"/>
<polygon fill="midnightblue" stroke="midnightblue" points="1120.15,-203.784 1123.78,-193.828 1114.74,-199.352 1120.15,-203.784"/>
</g>
</g>
</svg>
