<?xml version="1.0" encoding="UTF-8" standalone="no"?>
<!DOCTYPE svg PUBLIC "-//W3C//DTD SVG 1.1//EN"
 "http://www.w3.org/Graphics/SVG/1.1/DTD/svg11.dtd">
<!-- Generated by graphviz version 2.36.0 (20140111.2315)
 -->
<!-- Title: /home/travis/build/STORM&#45;IRIT/Radium&#45;Engine/src/Engine/Renderer/RenderObject/RenderObjectManager.hpp Pages: 1 -->
<svg width="1510pt" height="366pt"
 viewBox="0.00 0.00 1510.00 366.00" xmlns="http://www.w3.org/2000/svg" xmlns:xlink="http://www.w3.org/1999/xlink">
<g id="graph0" class="graph" transform="scale(1 1) rotate(0) translate(4 362)">
<title>/home/travis/build/STORM&#45;IRIT/Radium&#45;Engine/src/Engine/Renderer/RenderObject/RenderObjectManager.hpp</title>
<polygon fill="white" stroke="none" points="-4,4 -4,-362 1506,-362 1506,4 -4,4"/>
<!-- Node1 -->
<g id="node1" class="node"><title>Node1</title>
<polygon fill="#bfbfbf" stroke="black" points="196,-305 196,-357 368,-357 368,-305 196,-305"/>
<text text-anchor="start" x="204" y="-345" font-family="Helvetica,sans-Serif" font-size="10.00">/home/travis/build</text>
<text text-anchor="start" x="204" y="-334" font-family="Helvetica,sans-Serif" font-size="10.00">/STORM&#45;IRIT/Radium&#45;Engine</text>
<text text-anchor="start" x="204" y="-323" font-family="Helvetica,sans-Serif" font-size="10.00">/src/Engine/Renderer/RenderObject</text>
<text text-anchor="middle" x="282" y="-312" font-family="Helvetica,sans-Serif" font-size="10.00">/RenderObjectManager.hpp</text>
</g>
<!-- Node2 -->
<g id="node2" class="node"><title>Node2</title>
<g id="a_node2"><a xlink:href="RaEngine_8hpp.html" target="_top" xlink:title="Engine/RaEngine.hpp">
<polygon fill="white" stroke="black" points="-0.5,-112.5 -0.5,-131.5 110.5,-131.5 110.5,-112.5 -0.5,-112.5"/>
<text text-anchor="middle" x="55" y="-119.5" font-family="Helvetica,sans-Serif" font-size="10.00">Engine/RaEngine.hpp</text>
</a>
</g>
</g>
<!-- Node1&#45;&gt;Node2 -->
<g id="edge1" class="edge"><title>Node1&#45;&gt;Node2</title>
<path fill="none" stroke="midnightblue" d="M195.949,-318.85C135.401,-309.034 61.9191,-292.453 43,-268 14.1021,-230.649 33.8126,-170.519 46.5464,-140.801"/>
<polygon fill="midnightblue" stroke="midnightblue" points="49.7546,-142.201 50.6684,-131.646 43.3717,-139.327 49.7546,-142.201"/>
</g>
<!-- Node9 -->
<g id="node9" class="node"><title>Node9</title>
<polygon fill="white" stroke="#bfbfbf" points="52,-242.5 52,-261.5 90,-261.5 90,-242.5 52,-242.5"/>
<text text-anchor="middle" x="71" y="-249.5" font-family="Helvetica,sans-Serif" font-size="10.00">array</text>
</g>
<!-- Node1&#45;&gt;Node9 -->
<g id="edge8" class="edge"><title>Node1&#45;&gt;Node9</title>
<path fill="none" stroke="midnightblue" d="M198.459,-304.915C166.861,-294.593 130.852,-281.815 99,-268 97.6403,-267.41 96.2575,-266.779 94.8714,-266.122"/>
<polygon fill="midnightblue" stroke="midnightblue" points="96.3886,-262.967 85.8872,-261.562 93.2208,-269.209 96.3886,-262.967"/>
</g>
<!-- Node10 -->
<g id="node10" class="node"><title>Node10</title>
<polygon fill="white" stroke="#bfbfbf" points="108,-242.5 108,-261.5 160,-261.5 160,-242.5 108,-242.5"/>
<text text-anchor="middle" x="134" y="-249.5" font-family="Helvetica,sans-Serif" font-size="10.00">memory</text>
</g>
<!-- Node1&#45;&gt;Node10 -->
<g id="edge9" class="edge"><title>Node1&#45;&gt;Node10</title>
<path fill="none" stroke="midnightblue" d="M233.539,-304.787C208.795,-291.914 179.708,-276.781 159.39,-266.21"/>
<polygon fill="midnightblue" stroke="midnightblue" points="160.935,-263.068 150.449,-261.558 157.704,-269.278 160.935,-263.068"/>
</g>
<!-- Node11 -->
<g id="node11" class="node"><title>Node11</title>
<polygon fill="white" stroke="#bfbfbf" points="178,-242.5 178,-261.5 222,-261.5 222,-242.5 178,-242.5"/>
<text text-anchor="middle" x="200" y="-249.5" font-family="Helvetica,sans-Serif" font-size="10.00">mutex</text>
</g>
<!-- Node1&#45;&gt;Node11 -->
<g id="edge10" class="edge"><title>Node1&#45;&gt;Node11</title>
<path fill="none" stroke="midnightblue" d="M255.15,-304.787C242.371,-292.787 227.502,-278.825 216.425,-268.423"/>
<polygon fill="midnightblue" stroke="midnightblue" points="218.799,-265.852 209.113,-261.558 214.007,-270.955 218.799,-265.852"/>
</g>
<!-- Node12 -->
<g id="node12" class="node"><title>Node12</title>
<polygon fill="white" stroke="#bfbfbf" points="240,-242.5 240,-261.5 270,-261.5 270,-242.5 240,-242.5"/>
<text text-anchor="middle" x="255" y="-249.5" font-family="Helvetica,sans-Serif" font-size="10.00">set</text>
</g>
<!-- Node1&#45;&gt;Node12 -->
<g id="edge11" class="edge"><title>Node1&#45;&gt;Node12</title>
<path fill="none" stroke="midnightblue" d="M273.159,-304.787C269.319,-293.836 264.906,-281.25 261.392,-271.228"/>
<polygon fill="midnightblue" stroke="midnightblue" points="264.613,-269.836 258.001,-261.558 258.007,-272.153 264.613,-269.836"/>
</g>
<!-- Node13 -->
<g id="node13" class="node"><title>Node13</title>
<polygon fill="white" stroke="#bfbfbf" points="288,-242.5 288,-261.5 332,-261.5 332,-242.5 288,-242.5"/>
<text text-anchor="middle" x="310" y="-249.5" font-family="Helvetica,sans-Serif" font-size="10.00">vector</text>
</g>
<!-- Node1&#45;&gt;Node13 -->
<g id="edge12" class="edge"><title>Node1&#45;&gt;Node13</title>
<path fill="none" stroke="midnightblue" d="M291.168,-304.787C295.151,-293.836 299.727,-281.25 303.372,-271.228"/>
<polygon fill="midnightblue" stroke="midnightblue" points="306.76,-272.152 306.888,-261.558 300.181,-269.76 306.76,-272.152"/>
</g>
<!-- Node14 -->
<g id="node14" class="node"><title>Node14</title>
<g id="a_node14"><a xlink:href="Index_8hpp.html" target="_top" xlink:title="Core/Index/Index.hpp">
<polygon fill="white" stroke="black" points="157,-174.5 157,-193.5 267,-193.5 267,-174.5 157,-174.5"/>
<text text-anchor="middle" x="212" y="-181.5" font-family="Helvetica,sans-Serif" font-size="10.00">Core/Index/Index.hpp</text>
</a>
</g>
</g>
<!-- Node1&#45;&gt;Node14 -->
<g id="edge13" class="edge"><title>Node1&#45;&gt;Node14</title>
<path fill="none" stroke="midnightblue" d="M314.489,-304.891C335.208,-285.741 355.496,-258.855 340,-236 329.963,-221.197 287.98,-206.287 254.796,-196.445"/>
<polygon fill="midnightblue" stroke="midnightblue" points="255.403,-192.977 244.825,-193.559 253.457,-199.702 255.403,-192.977"/>
</g>
<!-- Node17 -->
<g id="node17" class="node"><title>Node17</title>
<g id="a_node17"><a xlink:href="IndexMap_8hpp.html" target="_top" xlink:title="Core/Index/IndexMap.hpp">
<polygon fill="white" stroke="black" points="388.5,-242.5 388.5,-261.5 517.5,-261.5 517.5,-242.5 388.5,-242.5"/>
<text text-anchor="middle" x="453" y="-249.5" font-family="Helvetica,sans-Serif" font-size="10.00">Core/Index/IndexMap.hpp</text>
</a>
</g>
</g>
<!-- Node1&#45;&gt;Node17 -->
<g id="edge16" class="edge"><title>Node1&#45;&gt;Node17</title>
<path fill="none" stroke="midnightblue" d="M337.992,-304.787C366.969,-291.739 401.102,-276.369 424.614,-265.782"/>
<polygon fill="midnightblue" stroke="midnightblue" points="426.314,-268.855 433.995,-261.558 423.44,-262.472 426.314,-268.855"/>
</g>
<!-- Node23 -->
<g id="node23" class="node"><title>Node23</title>
<g id="a_node23"><a xlink:href="LinearAlgebra_8hpp.html" target="_top" xlink:title="Core/Math/LinearAlgebra.hpp">
<polygon fill="white" stroke="black" points="835.5,-242.5 835.5,-261.5 978.5,-261.5 978.5,-242.5 835.5,-242.5"/>
<text text-anchor="middle" x="907" y="-249.5" font-family="Helvetica,sans-Serif" font-size="10.00">Core/Math/LinearAlgebra.hpp</text>
</a>
</g>
</g>
<!-- Node1&#45;&gt;Node23 -->
<g id="edge25" class="edge"><title>Node1&#45;&gt;Node23</title>
<path fill="none" stroke="midnightblue" d="M368.247,-319.374C489.942,-304.382 710.302,-277.233 827.956,-262.738"/>
<polygon fill="midnightblue" stroke="midnightblue" points="828.48,-266.2 837.977,-261.504 827.624,-259.253 828.48,-266.2"/>
</g>
<!-- Node33 -->
<g id="node33" class="node"><title>Node33</title>
<g id="a_node33"><a xlink:href="RenderObjectTypes_8hpp.html" target="_top" xlink:title="Engine/Renderer/RenderObject\l/RenderObjectTypes.hpp">
<polygon fill="white" stroke="black" points="997,-237 997,-267 1149,-267 1149,-237 997,-237"/>
<text text-anchor="start" x="1005" y="-255" font-family="Helvetica,sans-Serif" font-size="10.00">Engine/Renderer/RenderObject</text>
<text text-anchor="middle" x="1073" y="-244" font-family="Helvetica,sans-Serif" font-size="10.00">/RenderObjectTypes.hpp</text>
</a>
</g>
</g>
<!-- Node1&#45;&gt;Node33 -->
<g id="edge39" class="edge"><title>Node1&#45;&gt;Node33</title>
<path fill="none" stroke="midnightblue" d="M368.264,-324.784C499.451,-316.326 757.126,-297.65 986.413,-267.999"/>
<polygon fill="midnightblue" stroke="midnightblue" points="987.155,-271.432 996.619,-266.669 986.251,-264.49 987.155,-271.432"/>
</g>
<!-- Node3 -->
<g id="node3" class="node"><title>Node3</title>
<g id="a_node3"><a xlink:href="CoreMacros_8hpp.html" target="_top" xlink:title="Core/CoreMacros.hpp">
<polygon fill="white" stroke="black" points="258.5,-56.5 258.5,-75.5 371.5,-75.5 371.5,-56.5 258.5,-56.5"/>
<text text-anchor="middle" x="315" y="-63.5" font-family="Helvetica,sans-Serif" font-size="10.00">Core/CoreMacros.hpp</text>
</a>
</g>
</g>
<!-- Node2&#45;&gt;Node3 -->
<g id="edge2" class="edge"><title>Node2&#45;&gt;Node3</title>
<path fill="none" stroke="midnightblue" d="M96.1978,-112.444C141.649,-103.004 214.842,-87.802 263.909,-77.6111"/>
<polygon fill="midnightblue" stroke="midnightblue" points="264.916,-80.9769 273.995,-75.5164 263.492,-74.1232 264.916,-80.9769"/>
</g>
<!-- Node4 -->
<g id="node4" class="node"><title>Node4</title>
<polygon fill="white" stroke="#bfbfbf" points="159.5,-0.5 159.5,-19.5 208.5,-19.5 208.5,-0.5 159.5,-0.5"/>
<text text-anchor="middle" x="184" y="-7.5" font-family="Helvetica,sans-Serif" font-size="10.00">cassert</text>
</g>
<!-- Node3&#45;&gt;Node4 -->
<g id="edge3" class="edge"><title>Node3&#45;&gt;Node4</title>
<path fill="none" stroke="midnightblue" d="M294.243,-56.4435C272.684,-47.5566 238.737,-33.5632 214.206,-23.4514"/>
<polygon fill="midnightblue" stroke="midnightblue" points="215.239,-20.0917 204.66,-19.5164 212.572,-26.5634 215.239,-20.0917"/>
</g>
<!-- Node5 -->
<g id="node5" class="node"><title>Node5</title>
<polygon fill="white" stroke="#bfbfbf" points="226.5,-0.5 226.5,-19.5 269.5,-19.5 269.5,-0.5 226.5,-0.5"/>
<text text-anchor="middle" x="248" y="-7.5" font-family="Helvetica,sans-Serif" font-size="10.00">cstdio</text>
</g>
<!-- Node3&#45;&gt;Node5 -->
<g id="edge4" class="edge"><title>Node3&#45;&gt;Node5</title>
<path fill="none" stroke="midnightblue" d="M304.235,-56.324C294.234,-48.2631 279.113,-36.0765 267.07,-26.3695"/>
<polygon fill="midnightblue" stroke="midnightblue" points="268.943,-23.3841 258.961,-19.8339 264.55,-28.8343 268.943,-23.3841"/>
</g>
<!-- Node6 -->
<g id="node6" class="node"><title>Node6</title>
<polygon fill="white" stroke="#bfbfbf" points="288,-0.5 288,-19.5 342,-19.5 342,-0.5 288,-0.5"/>
<text text-anchor="middle" x="315" y="-7.5" font-family="Helvetica,sans-Serif" font-size="10.00">iostream</text>
</g>
<!-- Node3&#45;&gt;Node6 -->
<g id="edge5" class="edge"><title>Node3&#45;&gt;Node6</title>
<path fill="none" stroke="midnightblue" d="M315,-56.083C315,-49.0059 315,-38.8611 315,-29.9865"/>
<polygon fill="midnightblue" stroke="midnightblue" points="318.5,-29.751 315,-19.7511 311.5,-29.7511 318.5,-29.751"/>
</g>
<!-- Node7 -->
<g id="node7" class="node"><title>Node7</title>
<polygon fill="white" stroke="#bfbfbf" points="360,-0.5 360,-19.5 412,-19.5 412,-0.5 360,-0.5"/>
<text text-anchor="middle" x="386" y="-7.5" font-family="Helvetica,sans-Serif" font-size="10.00">sstream</text>
</g>
<!-- Node3&#45;&gt;Node7 -->
<g id="edge6" class="edge"><title>Node3&#45;&gt;Node7</title>
<path fill="none" stroke="midnightblue" d="M326.407,-56.324C337.109,-48.1849 353.341,-35.8395 366.163,-26.0874"/>
<polygon fill="midnightblue" stroke="midnightblue" points="368.544,-28.6734 374.385,-19.8339 364.307,-23.1018 368.544,-28.6734"/>
</g>
<!-- Node8 -->
<g id="node8" class="node"><title>Node8</title>
<polygon fill="white" stroke="#bfbfbf" points="430,-0.5 430,-19.5 474,-19.5 474,-0.5 430,-0.5"/>
<text text-anchor="middle" x="452" y="-7.5" font-family="Helvetica,sans-Serif" font-size="10.00">thread</text>
</g>
<!-- Node3&#45;&gt;Node8 -->
<g id="edge7" class="edge"><title>Node3&#45;&gt;Node8</title>
<path fill="none" stroke="midnightblue" d="M336.708,-56.4435C359.355,-47.5171 395.072,-33.4387 420.752,-23.3168"/>
<polygon fill="midnightblue" stroke="midnightblue" points="422.374,-26.4397 430.394,-19.5164 419.807,-19.9273 422.374,-26.4397"/>
</g>
<!-- Node15 -->
<g id="node15" class="node"><title>Node15</title>
<polygon fill="white" stroke="#bfbfbf" points="267,-112.5 267,-131.5 307,-131.5 307,-112.5 267,-112.5"/>
<text text-anchor="middle" x="287" y="-119.5" font-family="Helvetica,sans-Serif" font-size="10.00">limits</text>
</g>
<!-- Node14&#45;&gt;Node15 -->
<g id="edge14" class="edge"><title>Node14&#45;&gt;Node15</title>
<path fill="none" stroke="midnightblue" d="M222.746,-174.403C234.553,-164.958 253.743,-149.606 268.082,-138.134"/>
<polygon fill="midnightblue" stroke="midnightblue" points="270.652,-140.561 276.274,-131.581 266.279,-135.095 270.652,-140.561"/>
</g>
<!-- Node16 -->
<g id="node16" class="node"><title>Node16</title>
<g id="a_node16"><a xlink:href="Index_8inl.html" target="_top" xlink:title="Core/Index/Index.inl">
<polygon fill="white" stroke="black" points="145,-112.5 145,-131.5 249,-131.5 249,-112.5 145,-112.5"/>
<text text-anchor="middle" x="197" y="-119.5" font-family="Helvetica,sans-Serif" font-size="10.00">Core/Index/Index.inl</text>
</a>
</g>
</g>
<!-- Node14&#45;&gt;Node16 -->
<g id="edge15" class="edge"><title>Node14&#45;&gt;Node16</title>
<path fill="none" stroke="midnightblue" d="M209.851,-174.403C207.712,-165.849 204.362,-152.45 201.619,-141.476"/>
<polygon fill="midnightblue" stroke="midnightblue" points="204.966,-140.433 199.145,-131.581 198.175,-142.131 204.966,-140.433"/>
</g>
<!-- Node17&#45;&gt;Node14 -->
<g id="edge22" class="edge"><title>Node17&#45;&gt;Node14</title>
<path fill="none" stroke="midnightblue" d="M421.493,-242.372C378.254,-230.53 300.473,-209.229 252.82,-196.179"/>
<polygon fill="midnightblue" stroke="midnightblue" points="253.702,-192.792 243.132,-193.526 251.853,-199.543 253.702,-192.792"/>
</g>
<!-- Node18 -->
<g id="node18" class="node"><title>Node18</title>
<g id="a_node18"><a xlink:href="RaCore_8hpp.html" target="_top" xlink:title="Core/RaCore.hpp">
<polygon fill="white" stroke="black" points="529.5,-112.5 529.5,-131.5 622.5,-131.5 622.5,-112.5 529.5,-112.5"/>
<text text-anchor="middle" x="576" y="-119.5" font-family="Helvetica,sans-Serif" font-size="10.00">Core/RaCore.hpp</text>
</a>
</g>
</g>
<!-- Node17&#45;&gt;Node18 -->
<g id="edge17" class="edge"><title>Node17&#45;&gt;Node18</title>
<path fill="none" stroke="midnightblue" d="M412.419,-242.448C362.548,-230.134 288.108,-204.771 319,-168 344.047,-138.187 451.364,-128.121 519.152,-124.726"/>
<polygon fill="midnightblue" stroke="midnightblue" points="519.437,-128.217 529.263,-124.254 519.111,-121.224 519.437,-128.217"/>
</g>
<!-- Node19 -->
<g id="node19" class="node"><title>Node19</title>
<polygon fill="white" stroke="#bfbfbf" points="859,-112.5 859,-131.5 915,-131.5 915,-112.5 859,-112.5"/>
<text text-anchor="middle" x="887" y="-119.5" font-family="Helvetica,sans-Serif" font-size="10.00">algorithm</text>
</g>
<!-- Node17&#45;&gt;Node19 -->
<g id="edge19" class="edge"><title>Node17&#45;&gt;Node19</title>
<path fill="none" stroke="midnightblue" d="M427.132,-242.407C388.629,-228.33 323.659,-198.825 352,-168 368.821,-149.704 729.063,-130.655 848.736,-124.81"/>
<polygon fill="midnightblue" stroke="midnightblue" points="849.08,-128.298 858.899,-124.318 848.741,-121.306 849.08,-128.298"/>
</g>
<!-- Node20 -->
<g id="node20" class="node"><title>Node20</title>
<polygon fill="white" stroke="#bfbfbf" points="361,-174.5 361,-193.5 413,-193.5 413,-174.5 361,-174.5"/>
<text text-anchor="middle" x="387" y="-181.5" font-family="Helvetica,sans-Serif" font-size="10.00">assert.h</text>
</g>
<!-- Node17&#45;&gt;Node20 -->
<g id="edge20" class="edge"><title>Node17&#45;&gt;Node20</title>
<path fill="none" stroke="midnightblue" d="M444.372,-242.372C433.955,-231.955 416.217,-214.217 403.216,-201.216"/>
<polygon fill="midnightblue" stroke="midnightblue" points="405.387,-198.437 395.841,-193.841 400.437,-203.387 405.387,-198.437"/>
</g>
<!-- Node21 -->
<g id="node21" class="node"><title>Node21</title>
<polygon fill="white" stroke="#bfbfbf" points="431.5,-174.5 431.5,-193.5 474.5,-193.5 474.5,-174.5 431.5,-174.5"/>
<text text-anchor="middle" x="453" y="-181.5" font-family="Helvetica,sans-Serif" font-size="10.00">deque</text>
</g>
<!-- Node17&#45;&gt;Node21 -->
<g id="edge21" class="edge"><title>Node17&#45;&gt;Node21</title>
<path fill="none" stroke="midnightblue" d="M453,-242.372C453,-232.643 453,-216.528 453,-203.85"/>
<polygon fill="midnightblue" stroke="midnightblue" points="456.5,-203.841 453,-193.841 449.5,-203.841 456.5,-203.841"/>
</g>
<!-- Node22 -->
<g id="node22" class="node"><title>Node22</title>
<g id="a_node22"><a xlink:href="IndexMap_8inl.html" target="_top" xlink:title="Core/Index/IndexMap.inl">
<polygon fill="white" stroke="black" points="492.5,-174.5 492.5,-193.5 615.5,-193.5 615.5,-174.5 492.5,-174.5"/>
<text text-anchor="middle" x="554" y="-181.5" font-family="Helvetica,sans-Serif" font-size="10.00">Core/Index/IndexMap.inl</text>
</a>
</g>
</g>
<!-- Node17&#45;&gt;Node22 -->
<g id="edge23" class="edge"><title>Node17&#45;&gt;Node22</title>
<path fill="none" stroke="midnightblue" d="M461.473,-242.372C476.055,-231.304 505.343,-211.972 527.209,-198.838"/>
<polygon fill="midnightblue" stroke="midnightblue" points="529.217,-201.718 536.061,-193.63 525.667,-195.684 529.217,-201.718"/>
</g>
<!-- Node18&#45;&gt;Node3 -->
<g id="edge18" class="edge"><title>Node18&#45;&gt;Node3</title>
<path fill="none" stroke="midnightblue" d="M534.644,-112.444C488.922,-102.984 415.236,-87.7384 365.978,-77.5472"/>
<polygon fill="midnightblue" stroke="midnightblue" points="366.664,-74.1152 356.163,-75.5164 365.246,-80.97 366.664,-74.1152"/>
</g>
<!-- Node22&#45;&gt;Node17 -->
<g id="edge24" class="edge"><title>Node22&#45;&gt;Node17</title>
<path fill="none" stroke="midnightblue" d="M545.524,-193.63C530.941,-204.699 501.652,-224.031 479.787,-237.165"/>
<polygon fill="midnightblue" stroke="midnightblue" points="477.78,-234.284 470.935,-242.372 481.329,-240.318 477.78,-234.284"/>
</g>
<!-- Node23&#45;&gt;Node18 -->
<g id="edge26" class="edge"><title>Node23&#45;&gt;Node18</title>
<path fill="none" stroke="midnightblue" d="M890.094,-242.398C871.806,-232.848 842.043,-216.581 818,-200 799.542,-187.271 799.163,-177.806 779,-168 732.665,-145.467 674.893,-134.071 632.842,-128.399"/>
<polygon fill="midnightblue" stroke="midnightblue" points="633.14,-124.909 622.776,-127.11 632.251,-131.852 633.14,-124.909"/>
</g>
<!-- Node24 -->
<g id="node24" class="node"><title>Node24</title>
<polygon fill="white" stroke="#bfbfbf" points="827.5,-174.5 827.5,-193.5 892.5,-193.5 892.5,-174.5 827.5,-174.5"/>
<text text-anchor="middle" x="860" y="-181.5" font-family="Helvetica,sans-Serif" font-size="10.00">Eigen/Core</text>
</g>
<!-- Node23&#45;&gt;Node24 -->
<g id="edge27" class="edge"><title>Node23&#45;&gt;Node24</title>
<path fill="none" stroke="midnightblue" d="M900.856,-242.372C893.647,-232.25 881.517,-215.215 872.342,-202.331"/>
<polygon fill="midnightblue" stroke="midnightblue" points="874.948,-199.957 866.296,-193.841 869.246,-204.017 874.948,-199.957"/>
</g>
<!-- Node25 -->
<g id="node25" class="node"><title>Node25</title>
<polygon fill="white" stroke="#bfbfbf" points="910.5,-174.5 910.5,-193.5 997.5,-193.5 997.5,-174.5 910.5,-174.5"/>
<text text-anchor="middle" x="954" y="-181.5" font-family="Helvetica,sans-Serif" font-size="10.00">Eigen/Geometry</text>
</g>
<!-- Node23&#45;&gt;Node25 -->
<g id="edge28" class="edge"><title>Node23&#45;&gt;Node25</title>
<path fill="none" stroke="midnightblue" d="M913.144,-242.372C920.353,-232.25 932.483,-215.215 941.658,-202.331"/>
<polygon fill="midnightblue" stroke="midnightblue" points="944.754,-204.017 947.704,-193.841 939.052,-199.957 944.754,-204.017"/>
</g>
<!-- Node26 -->
<g id="node26" class="node"><title>Node26</title>
<polygon fill="white" stroke="#bfbfbf" points="1015.5,-174.5 1015.5,-193.5 1090.5,-193.5 1090.5,-174.5 1015.5,-174.5"/>
<text text-anchor="middle" x="1053" y="-181.5" font-family="Helvetica,sans-Serif" font-size="10.00">Eigen/Sparse</text>
</g>
<!-- Node23&#45;&gt;Node26 -->
<g id="edge29" class="edge"><title>Node23&#45;&gt;Node26</title>
<path fill="none" stroke="midnightblue" d="M926.087,-242.372C951.226,-231.007 995.638,-210.931 1024.69,-197.796"/>
<polygon fill="midnightblue" stroke="midnightblue" points="1026.24,-200.939 1033.91,-193.63 1023.35,-194.56 1026.24,-200.939"/>
</g>
<!-- Node27 -->
<g id="node27" class="node"><title>Node27</title>
<polygon fill="white" stroke="#bfbfbf" points="1108.5,-174.5 1108.5,-193.5 1167.5,-193.5 1167.5,-174.5 1108.5,-174.5"/>
<text text-anchor="middle" x="1138" y="-181.5" font-family="Helvetica,sans-Serif" font-size="10.00">functional</text>
</g>
<!-- Node23&#45;&gt;Node27 -->
<g id="edge30" class="edge"><title>Node23&#45;&gt;Node27</title>
<path fill="none" stroke="midnightblue" d="M943.791,-242.475C982.693,-233.171 1045.68,-217.278 1099,-200 1101.78,-199.098 1104.65,-198.109 1107.52,-197.081"/>
<polygon fill="midnightblue" stroke="midnightblue" points="1108.95,-200.285 1117.1,-193.514 1106.51,-193.725 1108.95,-200.285"/>
</g>
<!-- Node28 -->
<g id="node28" class="node"><title>Node28</title>
<polygon fill="white" stroke="#bfbfbf" points="1185.5,-169 1185.5,-199 1318.5,-199 1318.5,-169 1185.5,-169"/>
<text text-anchor="start" x="1193.5" y="-187" font-family="Helvetica,sans-Serif" font-size="10.00">unsupported/Eigen/Aligned</text>
<text text-anchor="middle" x="1252" y="-176" font-family="Helvetica,sans-Serif" font-size="10.00">Vector3</text>
</g>
<!-- Node23&#45;&gt;Node28 -->
<g id="edge31" class="edge"><title>Node23&#45;&gt;Node28</title>
<path fill="none" stroke="midnightblue" d="M952.713,-242.441C1004.21,-232.775 1090.69,-216.471 1175.25,-200.138"/>
<polygon fill="midnightblue" stroke="midnightblue" points="1176.12,-203.533 1185.28,-198.198 1174.79,-196.66 1176.12,-203.533"/>
</g>
<!-- Node29 -->
<g id="node29" class="node"><title>Node29</title>
<g id="a_node29"><a xlink:href="Math_8hpp.html" target="_top" xlink:title="Core/Math/Math.hpp">
<polygon fill="white" stroke="black" points="1337,-174.5 1337,-193.5 1443,-193.5 1443,-174.5 1337,-174.5"/>
<text text-anchor="middle" x="1390" y="-181.5" font-family="Helvetica,sans-Serif" font-size="10.00">Core/Math/Math.hpp</text>
</a>
</g>
</g>
<!-- Node23&#45;&gt;Node29 -->
<g id="edge32" class="edge"><title>Node23&#45;&gt;Node29</title>
<path fill="none" stroke="midnightblue" d="M949.776,-242.44C962.082,-240.15 975.546,-237.812 988,-236 1137.94,-214.189 1177.66,-225.599 1327,-200 1333.78,-198.839 1340.91,-197.376 1347.84,-195.823"/>
<polygon fill="midnightblue" stroke="midnightblue" points="1348.84,-199.183 1357.79,-193.507 1347.26,-192.366 1348.84,-199.183"/>
</g>
<!-- Node32 -->
<g id="node32" class="node"><title>Node32</title>
<g id="a_node32"><a xlink:href="LinearAlgebra_8inl.html" target="_top" xlink:title="Core/Math/LinearAlgebra.inl">
<polygon fill="white" stroke="black" points="633.5,-174.5 633.5,-193.5 770.5,-193.5 770.5,-174.5 633.5,-174.5"/>
<text text-anchor="middle" x="702" y="-181.5" font-family="Helvetica,sans-Serif" font-size="10.00">Core/Math/LinearAlgebra.inl</text>
</a>
</g>
</g>
<!-- Node23&#45;&gt;Node32 -->
<g id="edge38" class="edge"><title>Node23&#45;&gt;Node32</title>
<path fill="none" stroke="midnightblue" d="M880.2,-242.372C843.804,-230.654 778.638,-209.674 738.003,-196.591"/>
<polygon fill="midnightblue" stroke="midnightblue" points="739.073,-193.259 728.482,-193.526 736.928,-199.922 739.073,-193.259"/>
</g>
<!-- Node29&#45;&gt;Node18 -->
<g id="edge33" class="edge"><title>Node29&#45;&gt;Node18</title>
<path fill="none" stroke="midnightblue" d="M1358.8,-174.439C1348.73,-171.979 1337.45,-169.546 1327,-168 1193.11,-148.203 783.843,-130.969 632.788,-125.121"/>
<polygon fill="midnightblue" stroke="midnightblue" points="632.919,-121.624 622.792,-124.736 632.649,-128.619 632.919,-121.624"/>
</g>
<!-- Node29&#45;&gt;Node19 -->
<g id="edge34" class="edge"><title>Node29&#45;&gt;Node19</title>
<path fill="none" stroke="midnightblue" d="M1357.79,-174.469C1347.96,-172.098 1337.09,-169.709 1327,-168 1179.67,-143.039 1002.08,-130.024 925.37,-125.217"/>
<polygon fill="midnightblue" stroke="midnightblue" points="925.424,-121.714 915.228,-124.592 924.994,-128.7 925.424,-121.714"/>
</g>
<!-- Node30 -->
<g id="node30" class="node"><title>Node30</title>
<polygon fill="white" stroke="#bfbfbf" points="1458,-112.5 1458,-131.5 1502,-131.5 1502,-112.5 1458,-112.5"/>
<text text-anchor="middle" x="1480" y="-119.5" font-family="Helvetica,sans-Serif" font-size="10.00">cmath</text>
</g>
<!-- Node29&#45;&gt;Node30 -->
<g id="edge35" class="edge"><title>Node29&#45;&gt;Node30</title>
<path fill="none" stroke="midnightblue" d="M1402.89,-174.403C1417.46,-164.691 1441.4,-148.732 1458.75,-137.17"/>
<polygon fill="midnightblue" stroke="midnightblue" points="1460.75,-140.04 1467.13,-131.581 1456.87,-134.215 1460.75,-140.04"/>
</g>
<!-- Node31 -->
<g id="node31" class="node"><title>Node31</title>
<g id="a_node31"><a xlink:href="Math_8inl.html" target="_top" xlink:title="Core/Math/Math.inl">
<polygon fill="white" stroke="black" points="1340,-112.5 1340,-131.5 1440,-131.5 1440,-112.5 1340,-112.5"/>
<text text-anchor="middle" x="1390" y="-119.5" font-family="Helvetica,sans-Serif" font-size="10.00">Core/Math/Math.inl</text>
</a>
</g>
</g>
<!-- Node29&#45;&gt;Node31 -->
<g id="edge36" class="edge"><title>Node29&#45;&gt;Node31</title>
<path fill="none" stroke="midnightblue" d="M1385.1,-174.403C1383.27,-165.938 1382.8,-152.728 1383.69,-141.82"/>
<polygon fill="midnightblue" stroke="midnightblue" points="1387.2,-141.966 1385.1,-131.581 1380.26,-141.006 1387.2,-141.966"/>
</g>
<!-- Node31&#45;&gt;Node29 -->
<g id="edge37" class="edge"><title>Node31&#45;&gt;Node29</title>
<path fill="none" stroke="midnightblue" d="M1394.9,-131.581C1396.73,-140.04 1397.2,-153.248 1396.32,-164.16"/>
<polygon fill="midnightblue" stroke="midnightblue" points="1392.8,-164.018 1394.9,-174.403 1399.74,-164.977 1392.8,-164.018"/>
</g>
</g>
</svg>
