<?xml version="1.0" encoding="UTF-8" standalone="no"?>
<!DOCTYPE svg PUBLIC "-//W3C//DTD SVG 1.1//EN"
 "http://www.w3.org/Graphics/SVG/1.1/DTD/svg11.dtd">
<!-- Generated by graphviz version 2.36.0 (20140111.2315)
 -->
<!-- Title: /home/travis/build/STORM&#45;IRIT/Radium&#45;Engine/src/Engine/Renderer/RenderObject/RenderObjectManager.hpp Pages: 1 -->
<svg width="3221pt" height="332pt"
 viewBox="0.00 0.00 3221.00 332.00" xmlns="http://www.w3.org/2000/svg" xmlns:xlink="http://www.w3.org/1999/xlink">
<g id="graph0" class="graph" transform="scale(1 1) rotate(0) translate(4 328)">
<title>/home/travis/build/STORM&#45;IRIT/Radium&#45;Engine/src/Engine/Renderer/RenderObject/RenderObjectManager.hpp</title>
<polygon fill="white" stroke="none" points="-4,4 -4,-328 3217,-328 3217,4 -4,4"/>
<!-- Node1 -->
<g id="node1" class="node"><title>Node1</title>
<polygon fill="#bfbfbf" stroke="black" points="1769,-271 1769,-323 1941,-323 1941,-271 1769,-271"/>
<text text-anchor="start" x="1777" y="-311" font-family="Helvetica,sans-Serif" font-size="10.00">/home/travis/build</text>
<text text-anchor="start" x="1777" y="-300" font-family="Helvetica,sans-Serif" font-size="10.00">/STORM&#45;IRIT/Radium&#45;Engine</text>
<text text-anchor="start" x="1777" y="-289" font-family="Helvetica,sans-Serif" font-size="10.00">/src/Engine/Renderer/RenderObject</text>
<text text-anchor="middle" x="1855" y="-278" font-family="Helvetica,sans-Serif" font-size="10.00">/RenderObjectManager.hpp</text>
</g>
<!-- Node2 -->
<g id="node2" class="node"><title>Node2</title>
<g id="a_node2"><a xlink:href="Component_8cpp.html" target="_top" xlink:title="/home/travis/build\l/STORM&#45;IRIT/Radium&#45;Engine\l/src/Engine/Component/Component.cpp">
<polygon fill="white" stroke="black" points="-0.5,-186.5 -0.5,-227.5 190.5,-227.5 190.5,-186.5 -0.5,-186.5"/>
<text text-anchor="start" x="7.5" y="-215.5" font-family="Helvetica,sans-Serif" font-size="10.00">/home/travis/build</text>
<text text-anchor="start" x="7.5" y="-204.5" font-family="Helvetica,sans-Serif" font-size="10.00">/STORM&#45;IRIT/Radium&#45;Engine</text>
<text text-anchor="middle" x="95" y="-193.5" font-family="Helvetica,sans-Serif" font-size="10.00">/src/Engine/Component/Component.cpp</text>
</a>
</g>
</g>
<!-- Node1&#45;&gt;Node2 -->
<g id="edge1" class="edge"><title>Node1&#45;&gt;Node2</title>
<path fill="none" stroke="midnightblue" d="M1758.75,-294.988C1452.68,-291.363 504.035,-276.873 200,-234 188.75,-232.414 176.952,-230.125 165.495,-227.554"/>
<polygon fill="midnightblue" stroke="midnightblue" points="1758.89,-298.49 1768.93,-295.108 1758.97,-291.491 1758.89,-298.49"/>
</g>
<!-- Node3 -->
<g id="node3" class="node"><title>Node3</title>
<g id="a_node3"><a xlink:href="GeometryComponent_8cpp.html" target="_top" xlink:title="/home/travis/build\l/STORM&#45;IRIT/Radium&#45;Engine\l/src/Engine/Component/GeometryComponent.cpp">
<polygon fill="white" stroke="black" points="209,-186.5 209,-227.5 443,-227.5 443,-186.5 209,-186.5"/>
<text text-anchor="start" x="217" y="-215.5" font-family="Helvetica,sans-Serif" font-size="10.00">/home/travis/build</text>
<text text-anchor="start" x="217" y="-204.5" font-family="Helvetica,sans-Serif" font-size="10.00">/STORM&#45;IRIT/Radium&#45;Engine</text>
<text text-anchor="middle" x="326" y="-193.5" font-family="Helvetica,sans-Serif" font-size="10.00">/src/Engine/Component/GeometryComponent.cpp</text>
</a>
</g>
</g>
<!-- Node1&#45;&gt;Node3 -->
<g id="edge2" class="edge"><title>Node1&#45;&gt;Node3</title>
<path fill="none" stroke="midnightblue" d="M1758.32,-293.713C1484.36,-286.915 706.35,-265.337 453,-234 439.71,-232.356 425.738,-230.072 412.117,-227.534"/>
<polygon fill="midnightblue" stroke="midnightblue" points="1758.55,-297.219 1768.64,-293.968 1758.73,-290.222 1758.55,-297.219"/>
</g>
<!-- Node4 -->
<g id="node4" class="node"><title>Node4</title>
<g id="a_node4"><a xlink:href="ItemEntry_8cpp.html" target="_top" xlink:title="/home/travis/build\l/STORM&#45;IRIT/Radium&#45;Engine\l/src/Engine/ItemModel/ItemEntry.cpp">
<polygon fill="white" stroke="black" points="461.5,-186.5 461.5,-227.5 640.5,-227.5 640.5,-186.5 461.5,-186.5"/>
<text text-anchor="start" x="469.5" y="-215.5" font-family="Helvetica,sans-Serif" font-size="10.00">/home/travis/build</text>
<text text-anchor="start" x="469.5" y="-204.5" font-family="Helvetica,sans-Serif" font-size="10.00">/STORM&#45;IRIT/Radium&#45;Engine</text>
<text text-anchor="middle" x="551" y="-193.5" font-family="Helvetica,sans-Serif" font-size="10.00">/src/Engine/ItemModel/ItemEntry.cpp</text>
</a>
</g>
</g>
<!-- Node1&#45;&gt;Node4 -->
<g id="edge3" class="edge"><title>Node1&#45;&gt;Node4</title>
<path fill="none" stroke="midnightblue" d="M1758.64,-293.597C1512.11,-287.04 862.97,-267.085 650,-234 639.464,-232.363 628.429,-230.066 617.707,-227.507"/>
<polygon fill="midnightblue" stroke="midnightblue" points="1758.57,-297.096 1768.66,-293.862 1758.75,-290.099 1758.57,-297.096"/>
</g>
<!-- Node5 -->
<g id="node5" class="node"><title>Node5</title>
<g id="a_node5"><a xlink:href="SystemDisplay_8cpp.html" target="_top" xlink:title="/home/travis/build\l/STORM&#45;IRIT/Radium&#45;Engine\l/src/Engine/Managers/SystemDisplay\l/SystemDisplay.cpp">
<polygon fill="white" stroke="black" points="659,-181 659,-233 841,-233 841,-181 659,-181"/>
<text text-anchor="start" x="667" y="-221" font-family="Helvetica,sans-Serif" font-size="10.00">/home/travis/build</text>
<text text-anchor="start" x="667" y="-210" font-family="Helvetica,sans-Serif" font-size="10.00">/STORM&#45;IRIT/Radium&#45;Engine</text>
<text text-anchor="start" x="667" y="-199" font-family="Helvetica,sans-Serif" font-size="10.00">/src/Engine/Managers/SystemDisplay</text>
<text text-anchor="middle" x="750" y="-188" font-family="Helvetica,sans-Serif" font-size="10.00">/SystemDisplay.cpp</text>
</a>
</g>
</g>
<!-- Node1&#45;&gt;Node5 -->
<g id="edge4" class="edge"><title>Node1&#45;&gt;Node5</title>
<path fill="none" stroke="midnightblue" d="M1758.46,-296.205C1578.58,-295.226 1180.44,-286.645 850,-234 847.077,-233.534 844.115,-233.021 841.132,-232.467"/>
<polygon fill="midnightblue" stroke="midnightblue" points="1758.67,-299.706 1768.68,-296.254 1758.7,-292.706 1758.67,-299.706"/>
</g>
<!-- Node6 -->
<g id="node6" class="node"><title>Node6</title>
<g id="a_node6"><a xlink:href="RadiumEngine_8cpp.html" target="_top" xlink:title="/home/travis/build\l/STORM&#45;IRIT/Radium&#45;Engine\l/src/Engine/RadiumEngine.cpp">
<polygon fill="white" stroke="black" points="859,-186.5 859,-227.5 1011,-227.5 1011,-186.5 859,-186.5"/>
<text text-anchor="start" x="867" y="-215.5" font-family="Helvetica,sans-Serif" font-size="10.00">/home/travis/build</text>
<text text-anchor="start" x="867" y="-204.5" font-family="Helvetica,sans-Serif" font-size="10.00">/STORM&#45;IRIT/Radium&#45;Engine</text>
<text text-anchor="middle" x="935" y="-193.5" font-family="Helvetica,sans-Serif" font-size="10.00">/src/Engine/RadiumEngine.cpp</text>
</a>
</g>
</g>
<!-- Node1&#45;&gt;Node6 -->
<g id="edge5" class="edge"><title>Node1&#45;&gt;Node6</title>
<path fill="none" stroke="midnightblue" d="M1758.78,-295.781C1602.47,-293.881 1284.22,-283.578 1020,-234 1011.05,-232.321 1001.71,-230.035 992.639,-227.511"/>
<polygon fill="midnightblue" stroke="midnightblue" points="1758.8,-299.281 1768.84,-295.894 1758.88,-292.282 1758.8,-299.281"/>
</g>
<!-- Node7 -->
<g id="node7" class="node"><title>Node7</title>
<g id="a_node7"><a xlink:href="Renderer_8cpp.html" target="_top" xlink:title="/home/travis/build\l/STORM&#45;IRIT/Radium&#45;Engine\l/src/Engine/Renderer/Renderer.cpp">
<polygon fill="white" stroke="black" points="1029,-186.5 1029,-227.5 1199,-227.5 1199,-186.5 1029,-186.5"/>
<text text-anchor="start" x="1037" y="-215.5" font-family="Helvetica,sans-Serif" font-size="10.00">/home/travis/build</text>
<text text-anchor="start" x="1037" y="-204.5" font-family="Helvetica,sans-Serif" font-size="10.00">/STORM&#45;IRIT/Radium&#45;Engine</text>
<text text-anchor="middle" x="1114" y="-193.5" font-family="Helvetica,sans-Serif" font-size="10.00">/src/Engine/Renderer/Renderer.cpp</text>
</a>
</g>
</g>
<!-- Node1&#45;&gt;Node7 -->
<g id="edge6" class="edge"><title>Node1&#45;&gt;Node7</title>
<path fill="none" stroke="midnightblue" d="M1758.69,-292.016C1631.65,-285.567 1401.52,-269.754 1208,-234 1198.51,-232.247 1188.58,-229.985 1178.89,-227.528"/>
<polygon fill="midnightblue" stroke="midnightblue" points="1758.62,-295.517 1768.78,-292.519 1758.97,-288.525 1758.62,-295.517"/>
</g>
<!-- Node8 -->
<g id="node8" class="node"><title>Node8</title>
<g id="a_node8"><a xlink:href="RenderObject_8cpp.html" target="_top" xlink:title="/home/travis/build\l/STORM&#45;IRIT/Radium&#45;Engine\l/src/Engine/Renderer/RenderObject\l/RenderObject.cpp">
<polygon fill="white" stroke="black" points="1217,-181 1217,-233 1389,-233 1389,-181 1217,-181"/>
<text text-anchor="start" x="1225" y="-221" font-family="Helvetica,sans-Serif" font-size="10.00">/home/travis/build</text>
<text text-anchor="start" x="1225" y="-210" font-family="Helvetica,sans-Serif" font-size="10.00">/STORM&#45;IRIT/Radium&#45;Engine</text>
<text text-anchor="start" x="1225" y="-199" font-family="Helvetica,sans-Serif" font-size="10.00">/src/Engine/Renderer/RenderObject</text>
<text text-anchor="middle" x="1303" y="-188" font-family="Helvetica,sans-Serif" font-size="10.00">/RenderObject.cpp</text>
</a>
</g>
</g>
<!-- Node1&#45;&gt;Node8 -->
<g id="edge7" class="edge"><title>Node1&#45;&gt;Node8</title>
<path fill="none" stroke="midnightblue" d="M1758.99,-286.711C1666.09,-276.844 1521.58,-259.178 1398,-234 1395.07,-233.403 1392.09,-232.765 1389.09,-232.097"/>
<polygon fill="midnightblue" stroke="midnightblue" points="1758.63,-290.191 1768.94,-287.758 1759.36,-283.23 1758.63,-290.191"/>
</g>
<!-- Node9 -->
<g id="node9" class="node"><title>Node9</title>
<g id="a_node9"><a xlink:href="RenderObjectManager_8cpp.html" target="_top" xlink:title="/home/travis/build\l/STORM&#45;IRIT/Radium&#45;Engine\l/src/Engine/Renderer/RenderObject\l/RenderObjectManager.cpp">
<polygon fill="white" stroke="black" points="1407,-181 1407,-233 1579,-233 1579,-181 1407,-181"/>
<text text-anchor="start" x="1415" y="-221" font-family="Helvetica,sans-Serif" font-size="10.00">/home/travis/build</text>
<text text-anchor="start" x="1415" y="-210" font-family="Helvetica,sans-Serif" font-size="10.00">/STORM&#45;IRIT/Radium&#45;Engine</text>
<text text-anchor="start" x="1415" y="-199" font-family="Helvetica,sans-Serif" font-size="10.00">/src/Engine/Renderer/RenderObject</text>
<text text-anchor="middle" x="1493" y="-188" font-family="Helvetica,sans-Serif" font-size="10.00">/RenderObjectManager.cpp</text>
</a>
</g>
</g>
<!-- Node1&#45;&gt;Node9 -->
<g id="edge8" class="edge"><title>Node1&#45;&gt;Node9</title>
<path fill="none" stroke="midnightblue" d="M1758.81,-274.617C1707.92,-263.063 1644.44,-248.272 1588,-234 1585.1,-233.266 1582.15,-232.512 1579.17,-231.742"/>
<polygon fill="midnightblue" stroke="midnightblue" points="1758.29,-278.088 1768.82,-276.884 1759.84,-271.261 1758.29,-278.088"/>
</g>
<!-- Node10 -->
<g id="node10" class="node"><title>Node10</title>
<g id="a_node10"><a xlink:href="BaseApplication_8cpp.html" target="_top" xlink:title="/home/travis/build\l/STORM&#45;IRIT/Radium&#45;Engine\l/src/GuiBase/BaseApplication.cpp">
<polygon fill="white" stroke="black" points="1597,-186.5 1597,-227.5 1763,-227.5 1763,-186.5 1597,-186.5"/>
<text text-anchor="start" x="1605" y="-215.5" font-family="Helvetica,sans-Serif" font-size="10.00">/home/travis/build</text>
<text text-anchor="start" x="1605" y="-204.5" font-family="Helvetica,sans-Serif" font-size="10.00">/STORM&#45;IRIT/Radium&#45;Engine</text>
<text text-anchor="middle" x="1680" y="-193.5" font-family="Helvetica,sans-Serif" font-size="10.00">/src/GuiBase/BaseApplication.cpp</text>
</a>
</g>
</g>
<!-- Node1&#45;&gt;Node10 -->
<g id="edge9" class="edge"><title>Node1&#45;&gt;Node10</title>
<path fill="none" stroke="midnightblue" d="M1795.71,-266.185C1770.41,-253.462 1741.58,-238.968 1719.03,-227.628"/>
<polygon fill="midnightblue" stroke="midnightblue" points="1794.35,-269.417 1804.85,-270.783 1797.49,-263.163 1794.35,-269.417"/>
</g>
<!-- Node11 -->
<g id="node11" class="node"><title>Node11</title>
<g id="a_node11"><a xlink:href="Gizmo_8hpp.html" target="_top" xlink:title="/home/travis/build\l/STORM&#45;IRIT/Radium&#45;Engine\l/src/GuiBase/Viewer/Gizmo\l/Gizmo.hpp">
<polygon fill="white" stroke="black" points="1781,-181 1781,-233 1929,-233 1929,-181 1781,-181"/>
<text text-anchor="start" x="1789" y="-221" font-family="Helvetica,sans-Serif" font-size="10.00">/home/travis/build</text>
<text text-anchor="start" x="1789" y="-210" font-family="Helvetica,sans-Serif" font-size="10.00">/STORM&#45;IRIT/Radium&#45;Engine</text>
<text text-anchor="start" x="1789" y="-199" font-family="Helvetica,sans-Serif" font-size="10.00">/src/GuiBase/Viewer/Gizmo</text>
<text text-anchor="middle" x="1855" y="-188" font-family="Helvetica,sans-Serif" font-size="10.00">/Gizmo.hpp</text>
</a>
</g>
</g>
<!-- Node1&#45;&gt;Node11 -->
<g id="edge10" class="edge"><title>Node1&#45;&gt;Node11</title>
<path fill="none" stroke="midnightblue" d="M1855,-260.489C1855,-251.309 1855,-241.616 1855,-233.092"/>
<polygon fill="midnightblue" stroke="midnightblue" points="1851.5,-260.547 1855,-270.547 1858.5,-260.547 1851.5,-260.547"/>
</g>
<!-- Node17 -->
<g id="node17" class="node"><title>Node17</title>
<g id="a_node17"><a xlink:href="RotateGizmo_8cpp.html" target="_top" xlink:title="/home/travis/build\l/STORM&#45;IRIT/Radium&#45;Engine\l/src/GuiBase/Viewer/Gizmo\l/RotateGizmo.cpp">
<polygon fill="white" stroke="black" points="1625,-1 1625,-53 1773,-53 1773,-1 1625,-1"/>
<text text-anchor="start" x="1633" y="-41" font-family="Helvetica,sans-Serif" font-size="10.00">/home/travis/build</text>
<text text-anchor="start" x="1633" y="-30" font-family="Helvetica,sans-Serif" font-size="10.00">/STORM&#45;IRIT/Radium&#45;Engine</text>
<text text-anchor="start" x="1633" y="-19" font-family="Helvetica,sans-Serif" font-size="10.00">/src/GuiBase/Viewer/Gizmo</text>
<text text-anchor="middle" x="1699" y="-8" font-family="Helvetica,sans-Serif" font-size="10.00">/RotateGizmo.cpp</text>
</a>
</g>
</g>
<!-- Node1&#45;&gt;Node17 -->
<g id="edge24" class="edge"><title>Node1&#45;&gt;Node17</title>
<path fill="none" stroke="midnightblue" d="M1912.11,-264.626C1922.56,-256.129 1932.03,-245.916 1938,-234 1966.68,-176.784 1977.81,-140.113 1938,-90 1894.01,-34.6229 1851.27,-72.4677 1783,-54 1779.76,-53.123 1776.45,-52.2047 1773.12,-51.2587"/>
<polygon fill="midnightblue" stroke="midnightblue" points="1909.84,-261.96 1903.98,-270.79 1914.07,-267.539 1909.84,-261.96"/>
</g>
<!-- Node19 -->
<g id="node19" class="node"><title>Node19</title>
<g id="a_node19"><a xlink:href="ScaleGizmo_8cpp.html" target="_top" xlink:title="/home/travis/build\l/STORM&#45;IRIT/Radium&#45;Engine\l/src/GuiBase/Viewer/Gizmo\l/ScaleGizmo.cpp">
<polygon fill="white" stroke="black" points="1958,-1 1958,-53 2106,-53 2106,-1 1958,-1"/>
<text text-anchor="start" x="1966" y="-41" font-family="Helvetica,sans-Serif" font-size="10.00">/home/travis/build</text>
<text text-anchor="start" x="1966" y="-30" font-family="Helvetica,sans-Serif" font-size="10.00">/STORM&#45;IRIT/Radium&#45;Engine</text>
<text text-anchor="start" x="1966" y="-19" font-family="Helvetica,sans-Serif" font-size="10.00">/src/GuiBase/Viewer/Gizmo</text>
<text text-anchor="middle" x="2032" y="-8" font-family="Helvetica,sans-Serif" font-size="10.00">/ScaleGizmo.cpp</text>
</a>
</g>
</g>
<!-- Node1&#45;&gt;Node19 -->
<g id="edge25" class="edge"><title>Node1&#45;&gt;Node19</title>
<path fill="none" stroke="midnightblue" d="M1950.44,-269.424C1967.79,-260.674 1984.13,-249.145 1996,-234 2037.88,-180.565 2037.79,-95.2767 2034.69,-53.183"/>
<polygon fill="midnightblue" stroke="midnightblue" points="1948.83,-266.312 1941.29,-273.751 1951.82,-272.64 1948.83,-266.312"/>
</g>
<!-- Node21 -->
<g id="node21" class="node"><title>Node21</title>
<g id="a_node21"><a xlink:href="TranslateGizmo_8cpp.html" target="_top" xlink:title="/home/travis/build\l/STORM&#45;IRIT/Radium&#45;Engine\l/src/GuiBase/Viewer/Gizmo\l/TranslateGizmo.cpp">
<polygon fill="white" stroke="black" points="1792,-1 1792,-53 1940,-53 1940,-1 1792,-1"/>
<text text-anchor="start" x="1800" y="-41" font-family="Helvetica,sans-Serif" font-size="10.00">/home/travis/build</text>
<text text-anchor="start" x="1800" y="-30" font-family="Helvetica,sans-Serif" font-size="10.00">/STORM&#45;IRIT/Radium&#45;Engine</text>
<text text-anchor="start" x="1800" y="-19" font-family="Helvetica,sans-Serif" font-size="10.00">/src/GuiBase/Viewer/Gizmo</text>
<text text-anchor="middle" x="1866" y="-8" font-family="Helvetica,sans-Serif" font-size="10.00">/TranslateGizmo.cpp</text>
</a>
</g>
</g>
<!-- Node1&#45;&gt;Node21 -->
<g id="edge26" class="edge"><title>Node1&#45;&gt;Node21</title>
<path fill="none" stroke="midnightblue" d="M1938.78,-265.767C1951.63,-257.449 1963.2,-247.014 1971,-234 2003.9,-179.106 2002.73,-145.582 1971,-90 1962.08,-74.3725 1947.51,-62.2875 1932.02,-53.1154"/>
<polygon fill="midnightblue" stroke="midnightblue" points="1936.95,-262.785 1930.18,-270.934 1940.55,-268.787 1936.95,-262.785"/>
</g>
<!-- Node22 -->
<g id="node22" class="node"><title>Node22</title>
<g id="a_node22"><a xlink:href="AnimationComponent_8cpp.html" target="_top" xlink:title="/home/travis/build\l/STORM&#45;IRIT/Radium&#45;Engine\l/Plugins/Animation/src/Animation\lComponent.cpp">
<polygon fill="white" stroke="black" points="2061.5,-181 2061.5,-233 2222.5,-233 2222.5,-181 2061.5,-181"/>
<text text-anchor="start" x="2069.5" y="-221" font-family="Helvetica,sans-Serif" font-size="10.00">/home/travis/build</text>
<text text-anchor="start" x="2069.5" y="-210" font-family="Helvetica,sans-Serif" font-size="10.00">/STORM&#45;IRIT/Radium&#45;Engine</text>
<text text-anchor="start" x="2069.5" y="-199" font-family="Helvetica,sans-Serif" font-size="10.00">/Plugins/Animation/src/Animation</text>
<text text-anchor="middle" x="2142" y="-188" font-family="Helvetica,sans-Serif" font-size="10.00">Component.cpp</text>
</a>
</g>
</g>
<!-- Node1&#45;&gt;Node22 -->
<g id="edge27" class="edge"><title>Node1&#45;&gt;Node22</title>
<path fill="none" stroke="midnightblue" d="M1946.58,-267.919C1983.36,-256.643 2025.39,-243.755 2061.03,-232.828"/>
<polygon fill="midnightblue" stroke="midnightblue" points="1945.39,-264.623 1936.86,-270.901 1947.45,-271.315 1945.39,-264.623"/>
</g>
<!-- Node23 -->
<g id="node23" class="node"><title>Node23</title>
<g id="a_node23"><a xlink:href="SkeletonBoneDrawable_8cpp.html" target="_top" xlink:title="/home/travis/build\l/STORM&#45;IRIT/Radium&#45;Engine\l/Plugins/Animation/src/Drawing\l/SkeletonBoneDrawable.cpp">
<polygon fill="white" stroke="black" points="2241,-181 2241,-233 2395,-233 2395,-181 2241,-181"/>
<text text-anchor="start" x="2249" y="-221" font-family="Helvetica,sans-Serif" font-size="10.00">/home/travis/build</text>
<text text-anchor="start" x="2249" y="-210" font-family="Helvetica,sans-Serif" font-size="10.00">/STORM&#45;IRIT/Radium&#45;Engine</text>
<text text-anchor="start" x="2249" y="-199" font-family="Helvetica,sans-Serif" font-size="10.00">/Plugins/Animation/src/Drawing</text>
<text text-anchor="middle" x="2318" y="-188" font-family="Helvetica,sans-Serif" font-size="10.00">/SkeletonBoneDrawable.cpp</text>
</a>
</g>
</g>
<!-- Node1&#45;&gt;Node23 -->
<g id="edge28" class="edge"><title>Node1&#45;&gt;Node23</title>
<path fill="none" stroke="midnightblue" d="M1951.18,-283.573C2027.54,-272.884 2136.76,-255.758 2231,-234 2234.23,-233.255 2237.51,-232.458 2240.81,-231.621"/>
<polygon fill="midnightblue" stroke="midnightblue" points="1950.52,-280.131 1941.1,-284.974 1951.49,-287.065 1950.52,-280.131"/>
</g>
<!-- Node24 -->
<g id="node24" class="node"><title>Node24</title>
<g id="a_node24"><a xlink:href="DummyComponent_8cpp.html" target="_top" xlink:title="/home/travis/build\l/STORM&#45;IRIT/Radium&#45;Engine\l/Plugins/Dummy/src/DummyComponent.cpp">
<polygon fill="white" stroke="black" points="2413,-186.5 2413,-227.5 2625,-227.5 2625,-186.5 2413,-186.5"/>
<text text-anchor="start" x="2421" y="-215.5" font-family="Helvetica,sans-Serif" font-size="10.00">/home/travis/build</text>
<text text-anchor="start" x="2421" y="-204.5" font-family="Helvetica,sans-Serif" font-size="10.00">/STORM&#45;IRIT/Radium&#45;Engine</text>
<text text-anchor="middle" x="2519" y="-193.5" font-family="Helvetica,sans-Serif" font-size="10.00">/Plugins/Dummy/src/DummyComponent.cpp</text>
</a>
</g>
</g>
<!-- Node1&#45;&gt;Node24 -->
<g id="edge29" class="edge"><title>Node1&#45;&gt;Node24</title>
<path fill="none" stroke="midnightblue" d="M1951.55,-288.331C2061.55,-278.844 2246.48,-260.618 2404,-234 2415,-232.141 2426.53,-229.895 2437.86,-227.512"/>
<polygon fill="midnightblue" stroke="midnightblue" points="1951.13,-284.853 1941.47,-289.194 1951.73,-291.828 1951.13,-284.853"/>
</g>
<!-- Node25 -->
<g id="node25" class="node"><title>Node25</title>
<g id="a_node25"><a xlink:href="MeshFeatureTrackingComponent_8cpp.html" target="_top" xlink:title="/home/travis/build\l/STORM&#45;IRIT/Radium&#45;Engine\l/Plugins/MeshFeatureTracking\l/src/MeshFeatureTrackingComponent.cpp">
<polygon fill="white" stroke="black" points="2643,-181 2643,-233 2843,-233 2843,-181 2643,-181"/>
<text text-anchor="start" x="2651" y="-221" font-family="Helvetica,sans-Serif" font-size="10.00">/home/travis/build</text>
<text text-anchor="start" x="2651" y="-210" font-family="Helvetica,sans-Serif" font-size="10.00">/STORM&#45;IRIT/Radium&#45;Engine</text>
<text text-anchor="start" x="2651" y="-199" font-family="Helvetica,sans-Serif" font-size="10.00">/Plugins/MeshFeatureTracking</text>
<text text-anchor="middle" x="2743" y="-188" font-family="Helvetica,sans-Serif" font-size="10.00">/src/MeshFeatureTrackingComponent.cpp</text>
</a>
</g>
</g>
<!-- Node1&#45;&gt;Node25 -->
<g id="edge30" class="edge"><title>Node1&#45;&gt;Node25</title>
<path fill="none" stroke="midnightblue" d="M1951.65,-293.036C2099.3,-287.442 2389.54,-272.245 2633,-234 2636.2,-233.498 2639.44,-232.952 2642.71,-232.371"/>
<polygon fill="midnightblue" stroke="midnightblue" points="1951.13,-289.553 1941.27,-293.422 1951.39,-296.548 1951.13,-289.553"/>
</g>
<!-- Node26 -->
<g id="node26" class="node"><title>Node26</title>
<g id="a_node26"><a xlink:href="MeshPaintComponent_8cpp.html" target="_top" xlink:title="/home/travis/build\l/STORM&#45;IRIT/Radium&#45;Engine\l/Plugins/MeshPaint/src/MeshPaint\lComponent.cpp">
<polygon fill="white" stroke="black" points="2861.5,-181 2861.5,-233 3028.5,-233 3028.5,-181 2861.5,-181"/>
<text text-anchor="start" x="2869.5" y="-221" font-family="Helvetica,sans-Serif" font-size="10.00">/home/travis/build</text>
<text text-anchor="start" x="2869.5" y="-210" font-family="Helvetica,sans-Serif" font-size="10.00">/STORM&#45;IRIT/Radium&#45;Engine</text>
<text text-anchor="start" x="2869.5" y="-199" font-family="Helvetica,sans-Serif" font-size="10.00">/Plugins/MeshPaint/src/MeshPaint</text>
<text text-anchor="middle" x="2945" y="-188" font-family="Helvetica,sans-Serif" font-size="10.00">Component.cpp</text>
</a>
</g>
</g>
<!-- Node1&#45;&gt;Node26 -->
<g id="edge31" class="edge"><title>Node1&#45;&gt;Node26</title>
<path fill="none" stroke="midnightblue" d="M1951.21,-296.711C2129.97,-296.554 2524.9,-289.26 2852,-234 2855.06,-233.483 2858.16,-232.906 2861.28,-232.278"/>
<polygon fill="midnightblue" stroke="midnightblue" points="1951.05,-293.211 1941.05,-296.712 1951.05,-300.211 1951.05,-293.211"/>
</g>
<!-- Node27 -->
<g id="node27" class="node"><title>Node27</title>
<g id="a_node27"><a xlink:href="MeshPaintPlugin_8cpp.html" target="_top" xlink:title="/home/travis/build\l/STORM&#45;IRIT/Radium&#45;Engine\l/Plugins/MeshPaint/src/MeshPaint\lPlugin.cpp">
<polygon fill="white" stroke="black" points="3046.5,-181 3046.5,-233 3213.5,-233 3213.5,-181 3046.5,-181"/>
<text text-anchor="start" x="3054.5" y="-221" font-family="Helvetica,sans-Serif" font-size="10.00">/home/travis/build</text>
<text text-anchor="start" x="3054.5" y="-210" font-family="Helvetica,sans-Serif" font-size="10.00">/STORM&#45;IRIT/Radium&#45;Engine</text>
<text text-anchor="start" x="3054.5" y="-199" font-family="Helvetica,sans-Serif" font-size="10.00">/Plugins/MeshPaint/src/MeshPaint</text>
<text text-anchor="middle" x="3130" y="-188" font-family="Helvetica,sans-Serif" font-size="10.00">Plugin.cpp</text>
</a>
</g>
</g>
<!-- Node1&#45;&gt;Node27 -->
<g id="edge32" class="edge"><title>Node1&#45;&gt;Node27</title>
<path fill="none" stroke="midnightblue" d="M1951.66,-293.672C2195.13,-287.369 2828.97,-268.108 3037,-234 3040.06,-233.498 3043.16,-232.933 3046.29,-232.317"/>
<polygon fill="midnightblue" stroke="midnightblue" points="1951.32,-290.18 1941.41,-293.936 1951.5,-297.178 1951.32,-290.18"/>
</g>
<!-- Node12 -->
<g id="node12" class="node"><title>Node12</title>
<g id="a_node12"><a xlink:href="Gizmo_8cpp.html" target="_top" xlink:title="/home/travis/build\l/STORM&#45;IRIT/Radium&#45;Engine\l/src/GuiBase/Viewer/Gizmo\l/Gizmo.cpp">
<polygon fill="white" stroke="black" points="1117,-91 1117,-143 1265,-143 1265,-91 1117,-91"/>
<text text-anchor="start" x="1125" y="-131" font-family="Helvetica,sans-Serif" font-size="10.00">/home/travis/build</text>
<text text-anchor="start" x="1125" y="-120" font-family="Helvetica,sans-Serif" font-size="10.00">/STORM&#45;IRIT/Radium&#45;Engine</text>
<text text-anchor="start" x="1125" y="-109" font-family="Helvetica,sans-Serif" font-size="10.00">/src/GuiBase/Viewer/Gizmo</text>
<text text-anchor="middle" x="1191" y="-98" font-family="Helvetica,sans-Serif" font-size="10.00">/Gizmo.cpp</text>
</a>
</g>
</g>
<!-- Node11&#45;&gt;Node12 -->
<g id="edge11" class="edge"><title>Node11&#45;&gt;Node12</title>
<path fill="none" stroke="midnightblue" d="M1770.7,-179.944C1552.14,-139.91 1488.81,-184.838 1274,-144 1271.18,-143.464 1268.32,-142.865 1265.45,-142.214"/>
<polygon fill="midnightblue" stroke="midnightblue" points="1770.08,-183.388 1780.55,-181.786 1771.36,-176.507 1770.08,-183.388"/>
</g>
<!-- Node13 -->
<g id="node13" class="node"><title>Node13</title>
<g id="a_node13"><a xlink:href="GizmoManager_8hpp.html" target="_top" xlink:title="/home/travis/build\l/STORM&#45;IRIT/Radium&#45;Engine\l/src/GuiBase/Viewer/Gizmo\l/GizmoManager.hpp">
<polygon fill="white" stroke="black" points="1283,-91 1283,-143 1431,-143 1431,-91 1283,-91"/>
<text text-anchor="start" x="1291" y="-131" font-family="Helvetica,sans-Serif" font-size="10.00">/home/travis/build</text>
<text text-anchor="start" x="1291" y="-120" font-family="Helvetica,sans-Serif" font-size="10.00">/STORM&#45;IRIT/Radium&#45;Engine</text>
<text text-anchor="start" x="1291" y="-109" font-family="Helvetica,sans-Serif" font-size="10.00">/src/GuiBase/Viewer/Gizmo</text>
<text text-anchor="middle" x="1357" y="-98" font-family="Helvetica,sans-Serif" font-size="10.00">/GizmoManager.hpp</text>
</a>
</g>
</g>
<!-- Node11&#45;&gt;Node13 -->
<g id="edge12" class="edge"><title>Node11&#45;&gt;Node13</title>
<path fill="none" stroke="midnightblue" d="M1770.75,-179.93C1624.8,-150.751 1582.03,-173.647 1440,-144 1437.04,-143.383 1434.04,-142.703 1431.02,-141.975"/>
<polygon fill="midnightblue" stroke="midnightblue" points="1770.48,-183.446 1780.98,-182.025 1771.88,-176.589 1770.48,-183.446"/>
</g>
<!-- Node16 -->
<g id="node16" class="node"><title>Node16</title>
<g id="a_node16"><a xlink:href="RotateGizmo_8hpp.html" target="_top" xlink:title="/home/travis/build\l/STORM&#45;IRIT/Radium&#45;Engine\l/src/GuiBase/Viewer/Gizmo\l/RotateGizmo.hpp">
<polygon fill="white" stroke="black" points="1449,-91 1449,-143 1597,-143 1597,-91 1449,-91"/>
<text text-anchor="start" x="1457" y="-131" font-family="Helvetica,sans-Serif" font-size="10.00">/home/travis/build</text>
<text text-anchor="start" x="1457" y="-120" font-family="Helvetica,sans-Serif" font-size="10.00">/STORM&#45;IRIT/Radium&#45;Engine</text>
<text text-anchor="start" x="1457" y="-109" font-family="Helvetica,sans-Serif" font-size="10.00">/src/GuiBase/Viewer/Gizmo</text>
<text text-anchor="middle" x="1523" y="-98" font-family="Helvetica,sans-Serif" font-size="10.00">/RotateGizmo.hpp</text>
</a>
</g>
</g>
<!-- Node11&#45;&gt;Node16 -->
<g id="edge15" class="edge"><title>Node11&#45;&gt;Node16</title>
<path fill="none" stroke="midnightblue" d="M1771.12,-179.867C1697.28,-160.874 1675.99,-162.511 1606,-144 1603.08,-143.228 1600.11,-142.418 1597.12,-141.58"/>
<polygon fill="midnightblue" stroke="midnightblue" points="1770.32,-183.278 1780.88,-182.42 1772.09,-176.505 1770.32,-183.278"/>
</g>
<!-- Node18 -->
<g id="node18" class="node"><title>Node18</title>
<g id="a_node18"><a xlink:href="ScaleGizmo_8hpp.html" target="_top" xlink:title="/home/travis/build\l/STORM&#45;IRIT/Radium&#45;Engine\l/src/GuiBase/Viewer/Gizmo\l/ScaleGizmo.hpp">
<polygon fill="white" stroke="black" points="1781,-91 1781,-143 1929,-143 1929,-91 1781,-91"/>
<text text-anchor="start" x="1789" y="-131" font-family="Helvetica,sans-Serif" font-size="10.00">/home/travis/build</text>
<text text-anchor="start" x="1789" y="-120" font-family="Helvetica,sans-Serif" font-size="10.00">/STORM&#45;IRIT/Radium&#45;Engine</text>
<text text-anchor="start" x="1789" y="-109" font-family="Helvetica,sans-Serif" font-size="10.00">/src/GuiBase/Viewer/Gizmo</text>
<text text-anchor="middle" x="1855" y="-98" font-family="Helvetica,sans-Serif" font-size="10.00">/ScaleGizmo.hpp</text>
</a>
</g>
</g>
<!-- Node11&#45;&gt;Node18 -->
<g id="edge18" class="edge"><title>Node11&#45;&gt;Node18</title>
<path fill="none" stroke="midnightblue" d="M1855,-170.489C1855,-161.309 1855,-151.616 1855,-143.092"/>
<polygon fill="midnightblue" stroke="midnightblue" points="1851.5,-170.547 1855,-180.547 1858.5,-170.547 1851.5,-170.547"/>
</g>
<!-- Node20 -->
<g id="node20" class="node"><title>Node20</title>
<g id="a_node20"><a xlink:href="TranslateGizmo_8hpp.html" target="_top" xlink:title="/home/travis/build\l/STORM&#45;IRIT/Radium&#45;Engine\l/src/GuiBase/Viewer/Gizmo\l/TranslateGizmo.hpp">
<polygon fill="white" stroke="black" points="1615,-91 1615,-143 1763,-143 1763,-91 1615,-91"/>
<text text-anchor="start" x="1623" y="-131" font-family="Helvetica,sans-Serif" font-size="10.00">/home/travis/build</text>
<text text-anchor="start" x="1623" y="-120" font-family="Helvetica,sans-Serif" font-size="10.00">/STORM&#45;IRIT/Radium&#45;Engine</text>
<text text-anchor="start" x="1623" y="-109" font-family="Helvetica,sans-Serif" font-size="10.00">/src/GuiBase/Viewer/Gizmo</text>
<text text-anchor="middle" x="1689" y="-98" font-family="Helvetica,sans-Serif" font-size="10.00">/TranslateGizmo.hpp</text>
</a>
</g>
</g>
<!-- Node11&#45;&gt;Node20 -->
<g id="edge21" class="edge"><title>Node11&#45;&gt;Node20</title>
<path fill="none" stroke="midnightblue" d="M1798.33,-175.96C1778.14,-165.253 1755.62,-153.315 1736.29,-143.069"/>
<polygon fill="midnightblue" stroke="midnightblue" points="1796.96,-179.191 1807.43,-180.783 1800.24,-173.007 1796.96,-179.191"/>
</g>
<!-- Node14 -->
<g id="node14" class="node"><title>Node14</title>
<g id="a_node14"><a xlink:href="GizmoManager_8cpp.html" target="_top" xlink:title="/home/travis/build\l/STORM&#45;IRIT/Radium&#45;Engine\l/src/GuiBase/Viewer/Gizmo\l/GizmoManager.cpp">
<polygon fill="white" stroke="black" points="1457,-1 1457,-53 1605,-53 1605,-1 1457,-1"/>
<text text-anchor="start" x="1465" y="-41" font-family="Helvetica,sans-Serif" font-size="10.00">/home/travis/build</text>
<text text-anchor="start" x="1465" y="-30" font-family="Helvetica,sans-Serif" font-size="10.00">/STORM&#45;IRIT/Radium&#45;Engine</text>
<text text-anchor="start" x="1465" y="-19" font-family="Helvetica,sans-Serif" font-size="10.00">/src/GuiBase/Viewer/Gizmo</text>
<text text-anchor="middle" x="1531" y="-8" font-family="Helvetica,sans-Serif" font-size="10.00">/GizmoManager.cpp</text>
</a>
</g>
</g>
<!-- Node13&#45;&gt;Node14 -->
<g id="edge13" class="edge"><title>Node13&#45;&gt;Node14</title>
<path fill="none" stroke="midnightblue" d="M1415.83,-86.2492C1437.14,-75.4678 1460.99,-63.4068 1481.43,-53.0687"/>
<polygon fill="midnightblue" stroke="midnightblue" points="1414.21,-83.1463 1406.86,-90.7827 1417.36,-89.3928 1414.21,-83.1463"/>
</g>
<!-- Node15 -->
<g id="node15" class="node"><title>Node15</title>
<g id="a_node15"><a xlink:href="Viewer_8cpp.html" target="_top" xlink:title="/home/travis/build\l/STORM&#45;IRIT/Radium&#45;Engine\l/src/GuiBase/Viewer/Viewer.cpp">
<polygon fill="white" stroke="black" points="1278,-6.5 1278,-47.5 1436,-47.5 1436,-6.5 1278,-6.5"/>
<text text-anchor="start" x="1286" y="-35.5" font-family="Helvetica,sans-Serif" font-size="10.00">/home/travis/build</text>
<text text-anchor="start" x="1286" y="-24.5" font-family="Helvetica,sans-Serif" font-size="10.00">/STORM&#45;IRIT/Radium&#45;Engine</text>
<text text-anchor="middle" x="1357" y="-13.5" font-family="Helvetica,sans-Serif" font-size="10.00">/src/GuiBase/Viewer/Viewer.cpp</text>
</a>
</g>
</g>
<!-- Node13&#45;&gt;Node15 -->
<g id="edge14" class="edge"><title>Node13&#45;&gt;Node15</title>
<path fill="none" stroke="midnightblue" d="M1357,-80.5147C1357,-69.2575 1357,-57.227 1357,-47.5249"/>
<polygon fill="midnightblue" stroke="midnightblue" points="1353.5,-80.5467 1357,-90.5468 1360.5,-80.5468 1353.5,-80.5467"/>
</g>
<!-- Node16&#45;&gt;Node14 -->
<g id="edge16" class="edge"><title>Node16&#45;&gt;Node14</title>
<path fill="none" stroke="midnightblue" d="M1526.23,-80.4892C1527.06,-71.3088 1527.94,-61.616 1528.72,-53.0921"/>
<polygon fill="midnightblue" stroke="midnightblue" points="1522.73,-80.2709 1525.31,-90.5468 1529.71,-80.9047 1522.73,-80.2709"/>
</g>
<!-- Node16&#45;&gt;Node17 -->
<g id="edge17" class="edge"><title>Node16&#45;&gt;Node17</title>
<path fill="none" stroke="midnightblue" d="M1582.5,-86.2492C1604.06,-75.4678 1628.19,-63.4068 1648.86,-53.0687"/>
<polygon fill="midnightblue" stroke="midnightblue" points="1580.81,-83.18 1573.43,-90.7827 1583.94,-89.441 1580.81,-83.18"/>
</g>
<!-- Node18&#45;&gt;Node14 -->
<g id="edge19" class="edge"><title>Node18&#45;&gt;Node14</title>
<path fill="none" stroke="midnightblue" d="M1771.19,-89.8666C1701.64,-71.4067 1681.78,-71.6266 1616,-54 1612.42,-53.0413 1608.77,-52.0339 1605.08,-50.9953"/>
<polygon fill="midnightblue" stroke="midnightblue" points="1770.31,-93.252 1780.87,-92.4693 1772.12,-86.4922 1770.31,-93.252"/>
</g>
<!-- Node18&#45;&gt;Node19 -->
<g id="edge20" class="edge"><title>Node18&#45;&gt;Node19</title>
<path fill="none" stroke="midnightblue" d="M1914.84,-86.2492C1936.52,-75.4678 1960.78,-63.4068 1981.58,-53.0687"/>
<polygon fill="midnightblue" stroke="midnightblue" points="1913.12,-83.1968 1905.72,-90.7827 1916.23,-89.4648 1913.12,-83.1968"/>
</g>
<!-- Node20&#45;&gt;Node14 -->
<g id="edge22" class="edge"><title>Node20&#45;&gt;Node14</title>
<path fill="none" stroke="midnightblue" d="M1634.8,-85.8154C1615.65,-75.1451 1594.32,-63.2684 1576.01,-53.0687"/>
<polygon fill="midnightblue" stroke="midnightblue" points="1633.28,-88.9746 1643.72,-90.7827 1636.69,-82.8591 1633.28,-88.9746"/>
</g>
<!-- Node20&#45;&gt;Node21 -->
<g id="edge23" class="edge"><title>Node20&#45;&gt;Node21</title>
<path fill="none" stroke="midnightblue" d="M1748.84,-86.2492C1770.52,-75.4678 1794.78,-63.4068 1815.58,-53.0687"/>
<polygon fill="midnightblue" stroke="midnightblue" points="1747.12,-83.1968 1739.72,-90.7827 1750.23,-89.4648 1747.12,-83.1968"/>
</g>
</g>
</svg>
