<?xml version="1.0" encoding="UTF-8" standalone="no"?>
<!DOCTYPE svg PUBLIC "-//W3C//DTD SVG 1.1//EN"
 "http://www.w3.org/Graphics/SVG/1.1/DTD/svg11.dtd">
<!-- Generated by graphviz version 2.36.0 (20140111.2315)
 -->
<!-- Title: /home/travis/build/STORM&#45;IRIT/Radium&#45;Engine/src/Engine/Renderer/Renderer.hpp Pages: 1 -->
<svg width="1024pt" height="342pt"
 viewBox="0.00 0.00 1023.94 342.00" xmlns="http://www.w3.org/2000/svg" xmlns:xlink="http://www.w3.org/1999/xlink">
<g id="graph0" class="graph" transform="scale(1 1) rotate(0) translate(4 338)">
<title>/home/travis/build/STORM&#45;IRIT/Radium&#45;Engine/src/Engine/Renderer/Renderer.hpp</title>
<polygon fill="white" stroke="none" points="-4,4 -4,-338 1019.94,-338 1019.94,4 -4,4"/>
<!-- Node1 -->
<g id="node1" class="node"><title>Node1</title>
<polygon fill="#bfbfbf" stroke="black" points="205.923,-292.5 205.923,-333.5 375.923,-333.5 375.923,-292.5 205.923,-292.5"/>
<text text-anchor="start" x="213.923" y="-321.5" font-family="Helvetica,sans-Serif" font-size="10.00">/home/travis/build</text>
<text text-anchor="start" x="213.923" y="-310.5" font-family="Helvetica,sans-Serif" font-size="10.00">/STORM&#45;IRIT/Radium&#45;Engine</text>
<text text-anchor="middle" x="290.923" y="-299.5" font-family="Helvetica,sans-Serif" font-size="10.00">/src/Engine/Renderer/Renderer.hpp</text>
</g>
<!-- Node2 -->
<g id="node2" class="node"><title>Node2</title>
<g id="a_node2"><a xlink:href="RaEngine_8hpp.html" target="_top" xlink:title="Engine/RaEngine.hpp">
<polygon fill="white" stroke="black" points="891.423,-112.5 891.423,-131.5 1002.42,-131.5 1002.42,-112.5 891.423,-112.5"/>
<text text-anchor="middle" x="946.923" y="-119.5" font-family="Helvetica,sans-Serif" font-size="10.00">Engine/RaEngine.hpp</text>
</a>
</g>
</g>
<!-- Node1&#45;&gt;Node2 -->
<g id="edge1" class="edge"><title>Node1&#45;&gt;Node2</title>
<path fill="none" stroke="midnightblue" d="M376.193,-312.127C548.916,-310.357 930.481,-295.47 1009.92,-200 1019.02,-189.068 1016.43,-180.646 1009.92,-168 1002.85,-154.247 989.402,-143.766 976.745,-136.394"/>
<polygon fill="midnightblue" stroke="midnightblue" points="978.236,-133.222 967.77,-131.573 974.924,-139.389 978.236,-133.222"/>
</g>
<!-- Node9 -->
<g id="node9" class="node"><title>Node9</title>
<polygon fill="white" stroke="#bfbfbf" points="14.923,-236.5 14.923,-255.5 52.923,-255.5 52.923,-236.5 14.923,-236.5"/>
<text text-anchor="middle" x="33.923" y="-243.5" font-family="Helvetica,sans-Serif" font-size="10.00">array</text>
</g>
<!-- Node1&#45;&gt;Node9 -->
<g id="edge8" class="edge"><title>Node1&#45;&gt;Node9</title>
<path fill="none" stroke="midnightblue" d="M205.719,-292.687C164.992,-283.093 115.394,-270.886 62.9685,-256.158"/>
<polygon fill="midnightblue" stroke="midnightblue" points="63.7232,-252.734 53.148,-253.378 61.8169,-259.469 63.7232,-252.734"/>
</g>
<!-- Node10 -->
<g id="node10" class="node"><title>Node10</title>
<polygon fill="white" stroke="#bfbfbf" points="7.92301,-174.5 7.92301,-193.5 53.923,-193.5 53.923,-174.5 7.92301,-174.5"/>
<text text-anchor="middle" x="30.923" y="-181.5" font-family="Helvetica,sans-Serif" font-size="10.00">chrono</text>
</g>
<!-- Node1&#45;&gt;Node10 -->
<g id="edge9" class="edge"><title>Node1&#45;&gt;Node10</title>
<path fill="none" stroke="midnightblue" d="M205.873,-306.945C131.276,-300.525 30.9102,-286.375 5.92301,-256 -6.98552,-240.308 5.0084,-217.487 16.417,-201.984"/>
<polygon fill="midnightblue" stroke="midnightblue" points="19.4208,-203.828 22.8739,-193.812 13.9282,-199.489 19.4208,-203.828"/>
</g>
<!-- Node11 -->
<g id="node11" class="node"><title>Node11</title>
<polygon fill="white" stroke="#bfbfbf" points="198.923,-236.5 198.923,-255.5 250.923,-255.5 250.923,-236.5 198.923,-236.5"/>
<text text-anchor="middle" x="224.923" y="-243.5" font-family="Helvetica,sans-Serif" font-size="10.00">memory</text>
</g>
<!-- Node1&#45;&gt;Node11 -->
<g id="edge10" class="edge"><title>Node1&#45;&gt;Node11</title>
<path fill="none" stroke="midnightblue" d="M271.121,-292.498C261.488,-283.011 250.06,-271.756 240.979,-262.813"/>
<polygon fill="midnightblue" stroke="midnightblue" points="243.289,-260.176 233.709,-255.652 238.378,-265.163 243.289,-260.176"/>
</g>
<!-- Node12 -->
<g id="node12" class="node"><title>Node12</title>
<polygon fill="white" stroke="#bfbfbf" points="268.923,-236.5 268.923,-255.5 312.923,-255.5 312.923,-236.5 268.923,-236.5"/>
<text text-anchor="middle" x="290.923" y="-243.5" font-family="Helvetica,sans-Serif" font-size="10.00">mutex</text>
</g>
<!-- Node1&#45;&gt;Node12 -->
<g id="edge11" class="edge"><title>Node1&#45;&gt;Node12</title>
<path fill="none" stroke="midnightblue" d="M290.923,-292.498C290.923,-284.065 290.923,-274.235 290.923,-265.874"/>
<polygon fill="midnightblue" stroke="midnightblue" points="294.423,-265.652 290.923,-255.652 287.423,-265.653 294.423,-265.652"/>
</g>
<!-- Node13 -->
<g id="node13" class="node"><title>Node13</title>
<polygon fill="white" stroke="#bfbfbf" points="330.923,-236.5 330.923,-255.5 374.923,-255.5 374.923,-236.5 330.923,-236.5"/>
<text text-anchor="middle" x="352.923" y="-243.5" font-family="Helvetica,sans-Serif" font-size="10.00">vector</text>
</g>
<!-- Node1&#45;&gt;Node13 -->
<g id="edge12" class="edge"><title>Node1&#45;&gt;Node13</title>
<path fill="none" stroke="midnightblue" d="M309.525,-292.498C318.482,-283.107 329.093,-271.983 337.581,-263.085"/>
<polygon fill="midnightblue" stroke="midnightblue" points="340.3,-265.304 344.67,-255.652 335.235,-260.473 340.3,-265.304"/>
</g>
<!-- Node14 -->
<g id="node14" class="node"><title>Node14</title>
<g id="a_node14"><a xlink:href="EventEnums_8hpp.html" target="_top" xlink:title="Core/Event/EventEnums.hpp">
<polygon fill="white" stroke="black" points="392.923,-236.5 392.923,-255.5 536.923,-255.5 536.923,-236.5 392.923,-236.5"/>
<text text-anchor="middle" x="464.923" y="-243.5" font-family="Helvetica,sans-Serif" font-size="10.00">Core/Event/EventEnums.hpp</text>
</a>
</g>
</g>
<!-- Node1&#45;&gt;Node14 -->
<g id="edge13" class="edge"><title>Node1&#45;&gt;Node14</title>
<path fill="none" stroke="midnightblue" d="M343.129,-292.498C372.115,-281.67 407.27,-268.537 432.346,-259.17"/>
<polygon fill="midnightblue" stroke="midnightblue" points="433.618,-262.431 441.761,-255.652 431.168,-255.873 433.618,-262.431"/>
</g>
<!-- Node16 -->
<g id="node16" class="node"><title>Node16</title>
<g id="a_node16"><a xlink:href="LinearAlgebra_8hpp.html" target="_top" xlink:title="Core/Math/LinearAlgebra.hpp">
<polygon fill="white" stroke="black" points="555.423,-236.5 555.423,-255.5 698.423,-255.5 698.423,-236.5 555.423,-236.5"/>
<text text-anchor="middle" x="626.923" y="-243.5" font-family="Helvetica,sans-Serif" font-size="10.00">Core/Math/LinearAlgebra.hpp</text>
</a>
</g>
</g>
<!-- Node1&#45;&gt;Node16 -->
<g id="edge16" class="edge"><title>Node1&#45;&gt;Node16</title>
<path fill="none" stroke="midnightblue" d="M376.144,-295.514C438.062,-283.536 519.981,-267.688 573.061,-257.42"/>
<polygon fill="midnightblue" stroke="midnightblue" points="573.799,-260.842 582.952,-255.506 572.469,-253.969 573.799,-260.842"/>
</g>
<!-- Node27 -->
<g id="node27" class="node"><title>Node27</title>
<g id="a_node27"><a xlink:href="Timer_8hpp.html" target="_top" xlink:title="Core/Time/Timer.hpp">
<polygon fill="white" stroke="black" points="71.423,-236.5 71.423,-255.5 180.423,-255.5 180.423,-236.5 71.423,-236.5"/>
<text text-anchor="middle" x="125.923" y="-243.5" font-family="Helvetica,sans-Serif" font-size="10.00">Core/Time/Timer.hpp</text>
</a>
</g>
</g>
<!-- Node1&#45;&gt;Node27 -->
<g id="edge30" class="edge"><title>Node1&#45;&gt;Node27</title>
<path fill="none" stroke="midnightblue" d="M241.418,-292.498C214.174,-281.766 181.183,-268.769 157.449,-259.419"/>
<polygon fill="midnightblue" stroke="midnightblue" points="158.474,-256.061 147.887,-255.652 155.908,-262.574 158.474,-256.061"/>
</g>
<!-- Node3 -->
<g id="node3" class="node"><title>Node3</title>
<g id="a_node3"><a xlink:href="CoreMacros_8hpp.html" target="_top" xlink:title="Core/CoreMacros.hpp">
<polygon fill="white" stroke="black" points="517.423,-56.5 517.423,-75.5 630.423,-75.5 630.423,-56.5 517.423,-56.5"/>
<text text-anchor="middle" x="573.923" y="-63.5" font-family="Helvetica,sans-Serif" font-size="10.00">Core/CoreMacros.hpp</text>
</a>
</g>
</g>
<!-- Node2&#45;&gt;Node3 -->
<g id="edge2" class="edge"><title>Node2&#45;&gt;Node3</title>
<path fill="none" stroke="midnightblue" d="M891.081,-112.916C824.156,-103.227 712.12,-87.0071 640.687,-76.6656"/>
<polygon fill="midnightblue" stroke="midnightblue" points="640.851,-73.1529 630.453,-75.1839 639.848,-80.0807 640.851,-73.1529"/>
</g>
<!-- Node4 -->
<g id="node4" class="node"><title>Node4</title>
<polygon fill="white" stroke="#bfbfbf" points="418.423,-0.5 418.423,-19.5 467.423,-19.5 467.423,-0.5 418.423,-0.5"/>
<text text-anchor="middle" x="442.923" y="-7.5" font-family="Helvetica,sans-Serif" font-size="10.00">cassert</text>
</g>
<!-- Node3&#45;&gt;Node4 -->
<g id="edge3" class="edge"><title>Node3&#45;&gt;Node4</title>
<path fill="none" stroke="midnightblue" d="M553.166,-56.4435C531.607,-47.5566 497.66,-33.5632 473.129,-23.4514"/>
<polygon fill="midnightblue" stroke="midnightblue" points="474.162,-20.0917 463.583,-19.5164 471.495,-26.5634 474.162,-20.0917"/>
</g>
<!-- Node5 -->
<g id="node5" class="node"><title>Node5</title>
<polygon fill="white" stroke="#bfbfbf" points="485.423,-0.5 485.423,-19.5 528.423,-19.5 528.423,-0.5 485.423,-0.5"/>
<text text-anchor="middle" x="506.923" y="-7.5" font-family="Helvetica,sans-Serif" font-size="10.00">cstdio</text>
</g>
<!-- Node3&#45;&gt;Node5 -->
<g id="edge4" class="edge"><title>Node3&#45;&gt;Node5</title>
<path fill="none" stroke="midnightblue" d="M563.158,-56.324C553.157,-48.2631 538.036,-36.0765 525.993,-26.3695"/>
<polygon fill="midnightblue" stroke="midnightblue" points="527.866,-23.3841 517.884,-19.8339 523.473,-28.8343 527.866,-23.3841"/>
</g>
<!-- Node6 -->
<g id="node6" class="node"><title>Node6</title>
<polygon fill="white" stroke="#bfbfbf" points="546.923,-0.5 546.923,-19.5 600.923,-19.5 600.923,-0.5 546.923,-0.5"/>
<text text-anchor="middle" x="573.923" y="-7.5" font-family="Helvetica,sans-Serif" font-size="10.00">iostream</text>
</g>
<!-- Node3&#45;&gt;Node6 -->
<g id="edge5" class="edge"><title>Node3&#45;&gt;Node6</title>
<path fill="none" stroke="midnightblue" d="M573.923,-56.083C573.923,-49.0059 573.923,-38.8611 573.923,-29.9865"/>
<polygon fill="midnightblue" stroke="midnightblue" points="577.423,-29.751 573.923,-19.7511 570.423,-29.7511 577.423,-29.751"/>
</g>
<!-- Node7 -->
<g id="node7" class="node"><title>Node7</title>
<polygon fill="white" stroke="#bfbfbf" points="618.923,-0.5 618.923,-19.5 670.923,-19.5 670.923,-0.5 618.923,-0.5"/>
<text text-anchor="middle" x="644.923" y="-7.5" font-family="Helvetica,sans-Serif" font-size="10.00">sstream</text>
</g>
<!-- Node3&#45;&gt;Node7 -->
<g id="edge6" class="edge"><title>Node3&#45;&gt;Node7</title>
<path fill="none" stroke="midnightblue" d="M585.33,-56.324C596.032,-48.1849 612.264,-35.8395 625.086,-26.0874"/>
<polygon fill="midnightblue" stroke="midnightblue" points="627.467,-28.6734 633.308,-19.8339 623.23,-23.1018 627.467,-28.6734"/>
</g>
<!-- Node8 -->
<g id="node8" class="node"><title>Node8</title>
<polygon fill="white" stroke="#bfbfbf" points="688.923,-0.5 688.923,-19.5 732.923,-19.5 732.923,-0.5 688.923,-0.5"/>
<text text-anchor="middle" x="710.923" y="-7.5" font-family="Helvetica,sans-Serif" font-size="10.00">thread</text>
</g>
<!-- Node3&#45;&gt;Node8 -->
<g id="edge7" class="edge"><title>Node3&#45;&gt;Node8</title>
<path fill="none" stroke="midnightblue" d="M595.631,-56.4435C618.278,-47.5171 653.995,-33.4387 679.675,-23.3168"/>
<polygon fill="midnightblue" stroke="midnightblue" points="681.297,-26.4397 689.317,-19.5164 678.73,-19.9273 681.297,-26.4397"/>
</g>
<!-- Node15 -->
<g id="node15" class="node"><title>Node15</title>
<g id="a_node15"><a xlink:href="RaCore_8hpp.html" target="_top" xlink:title="Core/RaCore.hpp">
<polygon fill="white" stroke="black" points="155.423,-112.5 155.423,-131.5 248.423,-131.5 248.423,-112.5 155.423,-112.5"/>
<text text-anchor="middle" x="201.923" y="-119.5" font-family="Helvetica,sans-Serif" font-size="10.00">Core/RaCore.hpp</text>
</a>
</g>
</g>
<!-- Node14&#45;&gt;Node15 -->
<g id="edge14" class="edge"><title>Node14&#45;&gt;Node15</title>
<path fill="none" stroke="midnightblue" d="M399.294,-236.499C319.568,-225.857 194.769,-208.048 187.923,-200 173.94,-183.562 182.697,-157.882 191.359,-140.755"/>
<polygon fill="midnightblue" stroke="midnightblue" points="194.534,-142.245 196.276,-131.794 188.397,-138.878 194.534,-142.245"/>
</g>
<!-- Node15&#45;&gt;Node3 -->
<g id="edge15" class="edge"><title>Node15&#45;&gt;Node3</title>
<path fill="none" stroke="midnightblue" d="M248.66,-114.216C313.891,-104.747 432.592,-87.5158 507.138,-76.6947"/>
<polygon fill="midnightblue" stroke="midnightblue" points="507.96,-80.1121 517.353,-75.2118 506.954,-73.1847 507.96,-80.1121"/>
</g>
<!-- Node16&#45;&gt;Node15 -->
<g id="edge17" class="edge"><title>Node16&#45;&gt;Node15</title>
<path fill="none" stroke="midnightblue" d="M555.37,-237.048C552.177,-236.694 549.017,-236.343 545.923,-236 473.702,-227.988 275.571,-247.892 220.923,-200 204.536,-185.639 201.148,-159.609 200.95,-141.825"/>
<polygon fill="midnightblue" stroke="midnightblue" points="204.451,-141.836 201.164,-131.764 197.452,-141.688 204.451,-141.836"/>
</g>
<!-- Node17 -->
<g id="node17" class="node"><title>Node17</title>
<polygon fill="white" stroke="#bfbfbf" points="738.423,-174.5 738.423,-193.5 803.423,-193.5 803.423,-174.5 738.423,-174.5"/>
<text text-anchor="middle" x="770.923" y="-181.5" font-family="Helvetica,sans-Serif" font-size="10.00">Eigen/Core</text>
</g>
<!-- Node16&#45;&gt;Node17 -->
<g id="edge18" class="edge"><title>Node16&#45;&gt;Node17</title>
<path fill="none" stroke="midnightblue" d="M647.555,-236.403C672.042,-226.2 713.07,-209.105 741.032,-197.454"/>
<polygon fill="midnightblue" stroke="midnightblue" points="742.445,-200.658 750.33,-193.581 739.753,-194.196 742.445,-200.658"/>
</g>
<!-- Node18 -->
<g id="node18" class="node"><title>Node18</title>
<polygon fill="white" stroke="#bfbfbf" points="821.423,-174.5 821.423,-193.5 908.423,-193.5 908.423,-174.5 821.423,-174.5"/>
<text text-anchor="middle" x="864.923" y="-181.5" font-family="Helvetica,sans-Serif" font-size="10.00">Eigen/Geometry</text>
</g>
<!-- Node16&#45;&gt;Node18 -->
<g id="edge19" class="edge"><title>Node16&#45;&gt;Node18</title>
<path fill="none" stroke="midnightblue" d="M663.88,-236.437C701.297,-227.668 760.775,-213.454 811.923,-200 816.361,-198.833 820.997,-197.576 825.601,-196.304"/>
<polygon fill="midnightblue" stroke="midnightblue" points="826.852,-199.589 835.541,-193.526 824.968,-192.848 826.852,-199.589"/>
</g>
<!-- Node19 -->
<g id="node19" class="node"><title>Node19</title>
<polygon fill="white" stroke="#bfbfbf" points="926.423,-174.5 926.423,-193.5 1001.42,-193.5 1001.42,-174.5 926.423,-174.5"/>
<text text-anchor="middle" x="963.923" y="-181.5" font-family="Helvetica,sans-Serif" font-size="10.00">Eigen/Sparse</text>
</g>
<!-- Node16&#45;&gt;Node19 -->
<g id="edge20" class="edge"><title>Node16&#45;&gt;Node19</title>
<path fill="none" stroke="midnightblue" d="M698.429,-237.04C757.492,-229.717 843.28,-217.355 916.923,-200 921.144,-199.005 925.533,-197.818 929.859,-196.552"/>
<polygon fill="midnightblue" stroke="midnightblue" points="931.204,-199.8 939.73,-193.511 929.143,-193.11 931.204,-199.8"/>
</g>
<!-- Node20 -->
<g id="node20" class="node"><title>Node20</title>
<polygon fill="white" stroke="#bfbfbf" points="230.423,-174.5 230.423,-193.5 289.423,-193.5 289.423,-174.5 230.423,-174.5"/>
<text text-anchor="middle" x="259.923" y="-181.5" font-family="Helvetica,sans-Serif" font-size="10.00">functional</text>
</g>
<!-- Node16&#45;&gt;Node20 -->
<g id="edge21" class="edge"><title>Node16&#45;&gt;Node20</title>
<path fill="none" stroke="midnightblue" d="M558.185,-236.492C469.18,-225.337 322.497,-206.431 297.923,-200 294.865,-199.2 291.721,-198.224 288.612,-197.157"/>
<polygon fill="midnightblue" stroke="midnightblue" points="289.548,-193.77 278.955,-193.547 287.096,-200.327 289.548,-193.77"/>
</g>
<!-- Node21 -->
<g id="node21" class="node"><title>Node21</title>
<polygon fill="white" stroke="#bfbfbf" points="307.423,-169 307.423,-199 440.423,-199 440.423,-169 307.423,-169"/>
<text text-anchor="start" x="315.423" y="-187" font-family="Helvetica,sans-Serif" font-size="10.00">unsupported/Eigen/Aligned</text>
<text text-anchor="middle" x="373.923" y="-176" font-family="Helvetica,sans-Serif" font-size="10.00">Vector3</text>
</g>
<!-- Node16&#45;&gt;Node21 -->
<g id="edge22" class="edge"><title>Node16&#45;&gt;Node21</title>
<path fill="none" stroke="midnightblue" d="M590.943,-236.467C552.606,-227.376 490.977,-212.76 443.173,-201.423"/>
<polygon fill="midnightblue" stroke="midnightblue" points="443.732,-197.959 433.195,-199.057 442.117,-204.77 443.732,-197.959"/>
</g>
<!-- Node22 -->
<g id="node22" class="node"><title>Node22</title>
<g id="a_node22"><a xlink:href="Math_8hpp.html" target="_top" xlink:title="Core/Math/Math.hpp">
<polygon fill="white" stroke="black" points="613.923,-174.5 613.923,-193.5 719.923,-193.5 719.923,-174.5 613.923,-174.5"/>
<text text-anchor="middle" x="666.923" y="-181.5" font-family="Helvetica,sans-Serif" font-size="10.00">Core/Math/Math.hpp</text>
</a>
</g>
</g>
<!-- Node16&#45;&gt;Node22 -->
<g id="edge23" class="edge"><title>Node16&#45;&gt;Node22</title>
<path fill="none" stroke="midnightblue" d="M632.654,-236.403C638.595,-227.493 648.04,-213.325 655.511,-202.118"/>
<polygon fill="midnightblue" stroke="midnightblue" points="658.568,-203.843 661.203,-193.581 652.743,-199.96 658.568,-203.843"/>
</g>
<!-- Node26 -->
<g id="node26" class="node"><title>Node26</title>
<g id="a_node26"><a xlink:href="LinearAlgebra_8inl.html" target="_top" xlink:title="Core/Math/LinearAlgebra.inl">
<polygon fill="white" stroke="black" points="458.423,-174.5 458.423,-193.5 595.423,-193.5 595.423,-174.5 458.423,-174.5"/>
<text text-anchor="middle" x="526.923" y="-181.5" font-family="Helvetica,sans-Serif" font-size="10.00">Core/Math/LinearAlgebra.inl</text>
</a>
</g>
</g>
<!-- Node16&#45;&gt;Node26 -->
<g id="edge29" class="edge"><title>Node16&#45;&gt;Node26</title>
<path fill="none" stroke="midnightblue" d="M612.595,-236.403C596.259,-226.601 569.321,-210.439 550.011,-198.853"/>
<polygon fill="midnightblue" stroke="midnightblue" points="551.6,-195.724 541.224,-193.581 547.998,-201.727 551.6,-195.724"/>
</g>
<!-- Node22&#45;&gt;Node15 -->
<g id="edge24" class="edge"><title>Node22&#45;&gt;Node15</title>
<path fill="none" stroke="midnightblue" d="M634.382,-174.451C624.638,-172.108 613.892,-169.738 603.923,-168 481.763,-146.702 336.874,-133.376 258.725,-127.157"/>
<polygon fill="midnightblue" stroke="midnightblue" points="258.854,-123.656 248.611,-126.362 258.306,-130.635 258.854,-123.656"/>
</g>
<!-- Node23 -->
<g id="node23" class="node"><title>Node23</title>
<polygon fill="white" stroke="#bfbfbf" points="734.923,-112.5 734.923,-131.5 790.923,-131.5 790.923,-112.5 734.923,-112.5"/>
<text text-anchor="middle" x="762.923" y="-119.5" font-family="Helvetica,sans-Serif" font-size="10.00">algorithm</text>
</g>
<!-- Node22&#45;&gt;Node23 -->
<g id="edge25" class="edge"><title>Node22&#45;&gt;Node23</title>
<path fill="none" stroke="midnightblue" d="M680.677,-174.403C696.289,-164.646 721.986,-148.585 740.506,-137.011"/>
<polygon fill="midnightblue" stroke="midnightblue" points="742.569,-139.849 749.194,-131.581 738.859,-133.913 742.569,-139.849"/>
</g>
<!-- Node24 -->
<g id="node24" class="node"><title>Node24</title>
<polygon fill="white" stroke="#bfbfbf" points="554.923,-112.5 554.923,-131.5 598.923,-131.5 598.923,-112.5 554.923,-112.5"/>
<text text-anchor="middle" x="576.923" y="-119.5" font-family="Helvetica,sans-Serif" font-size="10.00">cmath</text>
</g>
<!-- Node22&#45;&gt;Node24 -->
<g id="edge26" class="edge"><title>Node22&#45;&gt;Node24</title>
<path fill="none" stroke="midnightblue" d="M654.028,-174.403C639.459,-164.691 615.521,-148.732 598.178,-137.17"/>
<polygon fill="midnightblue" stroke="midnightblue" points="600.056,-134.215 589.794,-131.581 596.173,-140.04 600.056,-134.215"/>
</g>
<!-- Node25 -->
<g id="node25" class="node"><title>Node25</title>
<g id="a_node25"><a xlink:href="Math_8inl.html" target="_top" xlink:title="Core/Math/Math.inl">
<polygon fill="white" stroke="black" points="616.923,-112.5 616.923,-131.5 716.923,-131.5 716.923,-112.5 616.923,-112.5"/>
<text text-anchor="middle" x="666.923" y="-119.5" font-family="Helvetica,sans-Serif" font-size="10.00">Core/Math/Math.inl</text>
</a>
</g>
</g>
<!-- Node22&#45;&gt;Node25 -->
<g id="edge27" class="edge"><title>Node22&#45;&gt;Node25</title>
<path fill="none" stroke="midnightblue" d="M662.022,-174.403C660.191,-165.938 659.72,-152.728 660.608,-141.82"/>
<polygon fill="midnightblue" stroke="midnightblue" points="664.121,-141.966 662.026,-131.581 657.187,-141.006 664.121,-141.966"/>
</g>
<!-- Node25&#45;&gt;Node22 -->
<g id="edge28" class="edge"><title>Node25&#45;&gt;Node22</title>
<path fill="none" stroke="midnightblue" d="M671.82,-131.581C673.653,-140.04 674.126,-153.248 673.24,-164.16"/>
<polygon fill="midnightblue" stroke="midnightblue" points="669.726,-164.018 671.824,-174.403 676.66,-164.977 669.726,-164.018"/>
</g>
<!-- Node27&#45;&gt;Node10 -->
<g id="edge32" class="edge"><title>Node27&#45;&gt;Node10</title>
<path fill="none" stroke="midnightblue" d="M112.312,-236.403C96.8625,-226.646 71.4331,-210.585 53.1069,-199.011"/>
<polygon fill="midnightblue" stroke="midnightblue" points="54.8328,-195.961 44.5089,-193.581 51.0949,-201.88 54.8328,-195.961"/>
</g>
<!-- Node27&#45;&gt;Node15 -->
<g id="edge31" class="edge"><title>Node27&#45;&gt;Node15</title>
<path fill="none" stroke="midnightblue" d="M127.051,-236.249C129.318,-221.226 135.501,-190.022 149.923,-168 157.69,-156.14 169.44,-145.6 179.807,-137.707"/>
<polygon fill="midnightblue" stroke="midnightblue" points="182.021,-140.426 188.072,-131.729 177.918,-134.754 182.021,-140.426"/>
</g>
</g>
</svg>
