<?xml version="1.0" encoding="UTF-8" standalone="no"?>
<!DOCTYPE svg PUBLIC "-//W3C//DTD SVG 1.1//EN"
 "http://www.w3.org/Graphics/SVG/1.1/DTD/svg11.dtd">
<!-- Generated by graphviz version 2.36.0 (20140111.2315)
 -->
<!-- Title: /home/travis/build/STORM&#45;IRIT/Radium&#45;Engine/src/Engine/Renderer/RenderTechnique/RenderTechnique.hpp Pages: 1 -->
<svg width="593pt" height="298pt"
 viewBox="0.00 0.00 593.00 298.00" xmlns="http://www.w3.org/2000/svg" xmlns:xlink="http://www.w3.org/1999/xlink">
<g id="graph0" class="graph" transform="scale(1 1) rotate(0) translate(4 294)">
<title>/home/travis/build/STORM&#45;IRIT/Radium&#45;Engine/src/Engine/Renderer/RenderTechnique/RenderTechnique.hpp</title>
<polygon fill="white" stroke="none" points="-4,4 -4,-294 589,-294 589,4 -4,4"/>
<!-- Node1 -->
<g id="node1" class="node"><title>Node1</title>
<polygon fill="#bfbfbf" stroke="black" points="338,-237 338,-289 526,-289 526,-237 338,-237"/>
<text text-anchor="start" x="346" y="-277" font-family="Helvetica,sans-Serif" font-size="10.00">/home/travis/build</text>
<text text-anchor="start" x="346" y="-266" font-family="Helvetica,sans-Serif" font-size="10.00">/STORM&#45;IRIT/Radium&#45;Engine</text>
<text text-anchor="start" x="346" y="-255" font-family="Helvetica,sans-Serif" font-size="10.00">/src/Engine/Renderer/RenderTechnique</text>
<text text-anchor="middle" x="432" y="-244" font-family="Helvetica,sans-Serif" font-size="10.00">/RenderTechnique.hpp</text>
</g>
<!-- Node2 -->
<g id="node2" class="node"><title>Node2</title>
<g id="a_node2"><a xlink:href="RaEngine_8hpp.html" target="_top" xlink:title="Engine/RaEngine.hpp">
<polygon fill="white" stroke="black" points="99.5,-112.5 99.5,-131.5 210.5,-131.5 210.5,-112.5 99.5,-112.5"/>
<text text-anchor="middle" x="155" y="-119.5" font-family="Helvetica,sans-Serif" font-size="10.00">Engine/RaEngine.hpp</text>
</a>
</g>
</g>
<!-- Node1&#45;&gt;Node2 -->
<g id="edge1" class="edge"><title>Node1&#45;&gt;Node2</title>
<path fill="none" stroke="midnightblue" d="M337.978,-251.254C294.952,-242.719 245.175,-227.418 207,-200 185.972,-184.897 170.871,-158.465 162.531,-140.847"/>
<polygon fill="midnightblue" stroke="midnightblue" points="165.691,-139.339 158.408,-131.644 159.303,-142.201 165.691,-139.339"/>
</g>
<!-- Node9 -->
<g id="node9" class="node"><title>Node9</title>
<g id="a_node9"><a xlink:href="ShaderConfiguration_8hpp.html" target="_top" xlink:title="Engine/Renderer/RenderTechnique\l/ShaderConfiguration.hpp">
<polygon fill="white" stroke="black" points="215.5,-169 215.5,-199 384.5,-199 384.5,-169 215.5,-169"/>
<text text-anchor="start" x="223.5" y="-187" font-family="Helvetica,sans-Serif" font-size="10.00">Engine/Renderer/RenderTechnique</text>
<text text-anchor="middle" x="300" y="-176" font-family="Helvetica,sans-Serif" font-size="10.00">/ShaderConfiguration.hpp</text>
</a>
</g>
</g>
<!-- Node1&#45;&gt;Node9 -->
<g id="edge8" class="edge"><title>Node1&#45;&gt;Node9</title>
<path fill="none" stroke="midnightblue" d="M388.778,-236.787C370.634,-226.203 349.872,-214.092 332.991,-204.245"/>
<polygon fill="midnightblue" stroke="midnightblue" points="334.454,-201.046 324.053,-199.031 330.927,-207.093 334.454,-201.046"/>
</g>
<!-- Node15 -->
<g id="node15" class="node"><title>Node15</title>
<polygon fill="white" stroke="#bfbfbf" points="402.5,-174.5 402.5,-193.5 461.5,-193.5 461.5,-174.5 402.5,-174.5"/>
<text text-anchor="middle" x="432" y="-181.5" font-family="Helvetica,sans-Serif" font-size="10.00">functional</text>
</g>
<!-- Node1&#45;&gt;Node15 -->
<g id="edge15" class="edge"><title>Node1&#45;&gt;Node15</title>
<path fill="none" stroke="midnightblue" d="M432,-236.787C432,-226.069 432,-213.785 432,-203.871"/>
<polygon fill="midnightblue" stroke="midnightblue" points="435.5,-203.558 432,-193.558 428.5,-203.558 435.5,-203.558"/>
</g>
<!-- Node16 -->
<g id="node16" class="node"><title>Node16</title>
<polygon fill="white" stroke="#bfbfbf" points="479.5,-174.5 479.5,-193.5 514.5,-193.5 514.5,-174.5 479.5,-174.5"/>
<text text-anchor="middle" x="497" y="-181.5" font-family="Helvetica,sans-Serif" font-size="10.00">map</text>
</g>
<!-- Node1&#45;&gt;Node16 -->
<g id="edge16" class="edge"><title>Node1&#45;&gt;Node16</title>
<path fill="none" stroke="midnightblue" d="M453.283,-236.787C463.118,-225.137 474.515,-211.636 483.206,-201.341"/>
<polygon fill="midnightblue" stroke="midnightblue" points="486,-203.457 489.776,-193.558 480.651,-198.941 486,-203.457"/>
</g>
<!-- Node17 -->
<g id="node17" class="node"><title>Node17</title>
<polygon fill="white" stroke="#bfbfbf" points="533,-174.5 533,-193.5 585,-193.5 585,-174.5 533,-174.5"/>
<text text-anchor="middle" x="559" y="-181.5" font-family="Helvetica,sans-Serif" font-size="10.00">memory</text>
</g>
<!-- Node1&#45;&gt;Node17 -->
<g id="edge17" class="edge"><title>Node1&#45;&gt;Node17</title>
<path fill="none" stroke="midnightblue" d="M473.585,-236.787C494.337,-224.205 518.65,-209.464 536.018,-198.934"/>
<polygon fill="midnightblue" stroke="midnightblue" points="538.149,-201.735 544.885,-193.558 534.52,-195.749 538.149,-201.735"/>
</g>
<!-- Node3 -->
<g id="node3" class="node"><title>Node3</title>
<g id="a_node3"><a xlink:href="CoreMacros_8hpp.html" target="_top" xlink:title="Core/CoreMacros.hpp">
<polygon fill="white" stroke="black" points="98.5,-56.5 98.5,-75.5 211.5,-75.5 211.5,-56.5 98.5,-56.5"/>
<text text-anchor="middle" x="155" y="-63.5" font-family="Helvetica,sans-Serif" font-size="10.00">Core/CoreMacros.hpp</text>
</a>
</g>
</g>
<!-- Node2&#45;&gt;Node3 -->
<g id="edge2" class="edge"><title>Node2&#45;&gt;Node3</title>
<path fill="none" stroke="midnightblue" d="M155,-112.083C155,-105.006 155,-94.8611 155,-85.9865"/>
<polygon fill="midnightblue" stroke="midnightblue" points="158.5,-85.751 155,-75.7511 151.5,-85.7511 158.5,-85.751"/>
</g>
<!-- Node4 -->
<g id="node4" class="node"><title>Node4</title>
<polygon fill="white" stroke="#bfbfbf" points="-0.5,-0.5 -0.5,-19.5 48.5,-19.5 48.5,-0.5 -0.5,-0.5"/>
<text text-anchor="middle" x="24" y="-7.5" font-family="Helvetica,sans-Serif" font-size="10.00">cassert</text>
</g>
<!-- Node3&#45;&gt;Node4 -->
<g id="edge3" class="edge"><title>Node3&#45;&gt;Node4</title>
<path fill="none" stroke="midnightblue" d="M134.243,-56.4435C112.684,-47.5566 78.7367,-33.5632 54.2062,-23.4514"/>
<polygon fill="midnightblue" stroke="midnightblue" points="55.2394,-20.0917 44.6602,-19.5164 52.5717,-26.5634 55.2394,-20.0917"/>
</g>
<!-- Node5 -->
<g id="node5" class="node"><title>Node5</title>
<polygon fill="white" stroke="#bfbfbf" points="66.5,-0.5 66.5,-19.5 109.5,-19.5 109.5,-0.5 66.5,-0.5"/>
<text text-anchor="middle" x="88" y="-7.5" font-family="Helvetica,sans-Serif" font-size="10.00">cstdio</text>
</g>
<!-- Node3&#45;&gt;Node5 -->
<g id="edge4" class="edge"><title>Node3&#45;&gt;Node5</title>
<path fill="none" stroke="midnightblue" d="M144.235,-56.324C134.234,-48.2631 119.113,-36.0765 107.07,-26.3695"/>
<polygon fill="midnightblue" stroke="midnightblue" points="108.943,-23.3841 98.9606,-19.8339 104.55,-28.8343 108.943,-23.3841"/>
</g>
<!-- Node6 -->
<g id="node6" class="node"><title>Node6</title>
<polygon fill="white" stroke="#bfbfbf" points="128,-0.5 128,-19.5 182,-19.5 182,-0.5 128,-0.5"/>
<text text-anchor="middle" x="155" y="-7.5" font-family="Helvetica,sans-Serif" font-size="10.00">iostream</text>
</g>
<!-- Node3&#45;&gt;Node6 -->
<g id="edge5" class="edge"><title>Node3&#45;&gt;Node6</title>
<path fill="none" stroke="midnightblue" d="M155,-56.083C155,-49.0059 155,-38.8611 155,-29.9865"/>
<polygon fill="midnightblue" stroke="midnightblue" points="158.5,-29.751 155,-19.7511 151.5,-29.7511 158.5,-29.751"/>
</g>
<!-- Node7 -->
<g id="node7" class="node"><title>Node7</title>
<polygon fill="white" stroke="#bfbfbf" points="200,-0.5 200,-19.5 252,-19.5 252,-0.5 200,-0.5"/>
<text text-anchor="middle" x="226" y="-7.5" font-family="Helvetica,sans-Serif" font-size="10.00">sstream</text>
</g>
<!-- Node3&#45;&gt;Node7 -->
<g id="edge6" class="edge"><title>Node3&#45;&gt;Node7</title>
<path fill="none" stroke="midnightblue" d="M166.407,-56.324C177.109,-48.1849 193.341,-35.8395 206.163,-26.0874"/>
<polygon fill="midnightblue" stroke="midnightblue" points="208.544,-28.6734 214.385,-19.8339 204.307,-23.1018 208.544,-28.6734"/>
</g>
<!-- Node8 -->
<g id="node8" class="node"><title>Node8</title>
<polygon fill="white" stroke="#bfbfbf" points="270,-0.5 270,-19.5 314,-19.5 314,-0.5 270,-0.5"/>
<text text-anchor="middle" x="292" y="-7.5" font-family="Helvetica,sans-Serif" font-size="10.00">thread</text>
</g>
<!-- Node3&#45;&gt;Node8 -->
<g id="edge7" class="edge"><title>Node3&#45;&gt;Node8</title>
<path fill="none" stroke="midnightblue" d="M176.708,-56.4435C199.355,-47.5171 235.072,-33.4387 260.752,-23.3168"/>
<polygon fill="midnightblue" stroke="midnightblue" points="262.374,-26.4397 270.394,-19.5164 259.807,-19.9273 262.374,-26.4397"/>
</g>
<!-- Node9&#45;&gt;Node2 -->
<g id="edge9" class="edge"><title>Node9&#45;&gt;Node2</title>
<path fill="none" stroke="midnightblue" d="M266.004,-168.933C241.541,-158.81 208.838,-145.278 185.273,-135.527"/>
<polygon fill="midnightblue" stroke="midnightblue" points="186.362,-132.19 175.783,-131.6 183.685,-138.658 186.362,-132.19"/>
</g>
<!-- Node10 -->
<g id="node10" class="node"><title>Node10</title>
<polygon fill="white" stroke="#bfbfbf" points="229,-112.5 229,-131.5 267,-131.5 267,-112.5 229,-112.5"/>
<text text-anchor="middle" x="248" y="-119.5" font-family="Helvetica,sans-Serif" font-size="10.00">array</text>
</g>
<!-- Node9&#45;&gt;Node10 -->
<g id="edge10" class="edge"><title>Node9&#45;&gt;Node10</title>
<path fill="none" stroke="midnightblue" d="M287.677,-168.781C280.043,-159.972 270.209,-148.626 262.242,-139.433"/>
<polygon fill="midnightblue" stroke="midnightblue" points="264.761,-136.995 255.566,-131.731 259.471,-141.58 264.761,-136.995"/>
</g>
<!-- Node11 -->
<g id="node11" class="node"><title>Node11</title>
<polygon fill="white" stroke="#bfbfbf" points="285.5,-112.5 285.5,-131.5 314.5,-131.5 314.5,-112.5 285.5,-112.5"/>
<text text-anchor="middle" x="300" y="-119.5" font-family="Helvetica,sans-Serif" font-size="10.00">list</text>
</g>
<!-- Node9&#45;&gt;Node11 -->
<g id="edge11" class="edge"><title>Node9&#45;&gt;Node11</title>
<path fill="none" stroke="midnightblue" d="M300,-168.781C300,-160.781 300,-150.689 300,-142.017"/>
<polygon fill="midnightblue" stroke="midnightblue" points="303.5,-141.73 300,-131.731 296.5,-141.731 303.5,-141.73"/>
</g>
<!-- Node12 -->
<g id="node12" class="node"><title>Node12</title>
<polygon fill="white" stroke="#bfbfbf" points="333,-112.5 333,-131.5 363,-131.5 363,-112.5 333,-112.5"/>
<text text-anchor="middle" x="348" y="-119.5" font-family="Helvetica,sans-Serif" font-size="10.00">set</text>
</g>
<!-- Node9&#45;&gt;Node12 -->
<g id="edge12" class="edge"><title>Node9&#45;&gt;Node12</title>
<path fill="none" stroke="midnightblue" d="M311.375,-168.781C318.35,-160.062 327.314,-148.857 334.628,-139.715"/>
<polygon fill="midnightblue" stroke="midnightblue" points="337.502,-141.726 341.016,-131.731 332.036,-137.353 337.502,-141.726"/>
</g>
<!-- Node13 -->
<g id="node13" class="node"><title>Node13</title>
<polygon fill="white" stroke="#bfbfbf" points="381.5,-112.5 381.5,-131.5 422.5,-131.5 422.5,-112.5 381.5,-112.5"/>
<text text-anchor="middle" x="402" y="-119.5" font-family="Helvetica,sans-Serif" font-size="10.00">string</text>
</g>
<!-- Node9&#45;&gt;Node13 -->
<g id="edge13" class="edge"><title>Node9&#45;&gt;Node13</title>
<path fill="none" stroke="midnightblue" d="M323.914,-168.933C340.355,-159.262 362.085,-146.479 378.447,-136.855"/>
<polygon fill="midnightblue" stroke="midnightblue" points="380.535,-139.687 387.38,-131.6 376.986,-133.654 380.535,-139.687"/>
</g>
<!-- Node14 -->
<g id="node14" class="node"><title>Node14</title>
<polygon fill="white" stroke="#bfbfbf" points="441,-112.5 441,-131.5 485,-131.5 485,-112.5 441,-112.5"/>
<text text-anchor="middle" x="463" y="-119.5" font-family="Helvetica,sans-Serif" font-size="10.00">vector</text>
</g>
<!-- Node9&#45;&gt;Node14 -->
<g id="edge14" class="edge"><title>Node9&#45;&gt;Node14</title>
<path fill="none" stroke="midnightblue" d="M338.216,-168.933C366.418,-158.552 404.361,-144.585 430.978,-134.787"/>
<polygon fill="midnightblue" stroke="midnightblue" points="432.405,-137.992 440.58,-131.253 429.987,-131.423 432.405,-137.992"/>
</g>
</g>
</svg>
