<?xml version="1.0" encoding="UTF-8" standalone="no"?>
<!DOCTYPE svg PUBLIC "-//W3C//DTD SVG 1.1//EN"
 "http://www.w3.org/Graphics/SVG/1.1/DTD/svg11.dtd">
<!-- Generated by graphviz version 2.36.0 (20140111.2315)
 -->
<!-- Title: /home/travis/build/STORM&#45;IRIT/Radium&#45;Engine/src/GuiBase/SelectionManager/SelectionManager.hpp Pages: 1 -->
<svg width="1847pt" height="590pt"
 viewBox="0.00 0.00 1847.00 590.00" xmlns="http://www.w3.org/2000/svg" xmlns:xlink="http://www.w3.org/1999/xlink">
<g id="graph0" class="graph" transform="scale(1 1) rotate(0) translate(4 586)">
<title>/home/travis/build/STORM&#45;IRIT/Radium&#45;Engine/src/GuiBase/SelectionManager/SelectionManager.hpp</title>
<polygon fill="white" stroke="none" points="-4,4 -4,-586 1843,-586 1843,4 -4,4"/>
<!-- Node1 -->
<g id="node1" class="node"><title>Node1</title>
<polygon fill="#bfbfbf" stroke="black" points="1547.5,-529 1547.5,-581 1702.5,-581 1702.5,-529 1547.5,-529"/>
<text text-anchor="start" x="1555.5" y="-569" font-family="Helvetica,sans-Serif" font-size="10.00">/home/travis/build</text>
<text text-anchor="start" x="1555.5" y="-558" font-family="Helvetica,sans-Serif" font-size="10.00">/STORM&#45;IRIT/Radium&#45;Engine</text>
<text text-anchor="start" x="1555.5" y="-547" font-family="Helvetica,sans-Serif" font-size="10.00">/src/GuiBase/SelectionManager</text>
<text text-anchor="middle" x="1625" y="-536" font-family="Helvetica,sans-Serif" font-size="10.00">/SelectionManager.hpp</text>
</g>
<!-- Node2 -->
<g id="node2" class="node"><title>Node2</title>
<g id="a_node2"><a xlink:href="RaGuiBase_8hpp.html" target="_top" xlink:title="GuiBase/RaGuiBase.hpp">
<polygon fill="white" stroke="black" points="1711,-292.5 1711,-311.5 1837,-311.5 1837,-292.5 1711,-292.5"/>
<text text-anchor="middle" x="1774" y="-299.5" font-family="Helvetica,sans-Serif" font-size="10.00">GuiBase/RaGuiBase.hpp</text>
</a>
</g>
</g>
<!-- Node1&#45;&gt;Node2 -->
<g id="edge1" class="edge"><title>Node1&#45;&gt;Node2</title>
<path fill="none" stroke="midnightblue" d="M1640.11,-528.551C1670.37,-477.569 1737.74,-364.077 1763.61,-320.503"/>
<polygon fill="midnightblue" stroke="midnightblue" points="1766.64,-322.259 1768.73,-311.873 1760.62,-318.686 1766.64,-322.259"/>
</g>
<!-- Node9 -->
<g id="node9" class="node"><title>Node9</title>
<g id="a_node9"><a xlink:href="ItemEntry_8hpp.html" target="_top" xlink:title="Engine/ItemModel/ItemEntry.hpp">
<polygon fill="white" stroke="black" points="1137,-404.5 1137,-423.5 1297,-423.5 1297,-404.5 1137,-404.5"/>
<text text-anchor="middle" x="1217" y="-411.5" font-family="Helvetica,sans-Serif" font-size="10.00">Engine/ItemModel/ItemEntry.hpp</text>
</a>
</g>
</g>
<!-- Node1&#45;&gt;Node9 -->
<g id="edge8" class="edge"><title>Node1&#45;&gt;Node9</title>
<path fill="none" stroke="midnightblue" d="M1551.59,-528.989C1462.99,-498.805 1317.7,-449.306 1251.64,-426.8"/>
<polygon fill="midnightblue" stroke="midnightblue" points="1252.7,-423.466 1242.11,-423.554 1250.44,-430.092 1252.7,-423.466"/>
</g>
<!-- Node38 -->
<g id="node38" class="node"><title>Node38</title>
<g id="a_node38"><a xlink:href="EntityTreeModel_8hpp.html" target="_top" xlink:title="GuiBase/TreeModel/Entity\lTreeModel.hpp">
<polygon fill="white" stroke="black" points="1484.5,-461 1484.5,-491 1615.5,-491 1615.5,-461 1484.5,-461"/>
<text text-anchor="start" x="1492.5" y="-479" font-family="Helvetica,sans-Serif" font-size="10.00">GuiBase/TreeModel/Entity</text>
<text text-anchor="middle" x="1550" y="-468" font-family="Helvetica,sans-Serif" font-size="10.00">TreeModel.hpp</text>
</a>
</g>
</g>
<!-- Node1&#45;&gt;Node38 -->
<g id="edge47" class="edge"><title>Node1&#45;&gt;Node38</title>
<path fill="none" stroke="midnightblue" d="M1600.44,-528.787C1590.96,-519.056 1580.23,-508.033 1571.1,-498.666"/>
<polygon fill="midnightblue" stroke="midnightblue" points="1573.37,-495.973 1563.88,-491.252 1568.35,-500.858 1573.37,-495.973"/>
</g>
<!-- Node45 -->
<g id="node45" class="node"><title>Node45</title>
<polygon fill="white" stroke="#bfbfbf" points="1729,-466.5 1729,-485.5 1839,-485.5 1839,-466.5 1729,-466.5"/>
<text text-anchor="middle" x="1784" y="-473.5" font-family="Helvetica,sans-Serif" font-size="10.00">QItemSelectionModel</text>
</g>
<!-- Node1&#45;&gt;Node45 -->
<g id="edge64" class="edge"><title>Node1&#45;&gt;Node45</title>
<path fill="none" stroke="midnightblue" d="M1677.06,-528.787C1703.89,-515.797 1735.46,-500.507 1757.31,-489.924"/>
<polygon fill="midnightblue" stroke="midnightblue" points="1758.85,-493.066 1766.33,-485.558 1755.8,-486.766 1758.85,-493.066"/>
</g>
<!-- Node3 -->
<g id="node3" class="node"><title>Node3</title>
<g id="a_node3"><a xlink:href="CoreMacros_8hpp.html" target="_top" xlink:title="Core/CoreMacros.hpp">
<polygon fill="white" stroke="black" points="1083.5,-56.5 1083.5,-75.5 1196.5,-75.5 1196.5,-56.5 1083.5,-56.5"/>
<text text-anchor="middle" x="1140" y="-63.5" font-family="Helvetica,sans-Serif" font-size="10.00">Core/CoreMacros.hpp</text>
</a>
</g>
</g>
<!-- Node2&#45;&gt;Node3 -->
<g id="edge2" class="edge"><title>Node2&#45;&gt;Node3</title>
<path fill="none" stroke="midnightblue" d="M1750.68,-292.394C1654.07,-256.737 1285.01,-120.519 1172.65,-79.0506"/>
<polygon fill="midnightblue" stroke="midnightblue" points="1173.79,-75.7393 1163.19,-75.5602 1171.36,-82.3063 1173.79,-75.7393"/>
</g>
<!-- Node4 -->
<g id="node4" class="node"><title>Node4</title>
<polygon fill="white" stroke="#bfbfbf" points="984.5,-0.5 984.5,-19.5 1033.5,-19.5 1033.5,-0.5 984.5,-0.5"/>
<text text-anchor="middle" x="1009" y="-7.5" font-family="Helvetica,sans-Serif" font-size="10.00">cassert</text>
</g>
<!-- Node3&#45;&gt;Node4 -->
<g id="edge3" class="edge"><title>Node3&#45;&gt;Node4</title>
<path fill="none" stroke="midnightblue" d="M1119.24,-56.4435C1097.68,-47.5566 1063.74,-33.5632 1039.21,-23.4514"/>
<polygon fill="midnightblue" stroke="midnightblue" points="1040.24,-20.0917 1029.66,-19.5164 1037.57,-26.5634 1040.24,-20.0917"/>
</g>
<!-- Node5 -->
<g id="node5" class="node"><title>Node5</title>
<polygon fill="white" stroke="#bfbfbf" points="1051.5,-0.5 1051.5,-19.5 1094.5,-19.5 1094.5,-0.5 1051.5,-0.5"/>
<text text-anchor="middle" x="1073" y="-7.5" font-family="Helvetica,sans-Serif" font-size="10.00">cstdio</text>
</g>
<!-- Node3&#45;&gt;Node5 -->
<g id="edge4" class="edge"><title>Node3&#45;&gt;Node5</title>
<path fill="none" stroke="midnightblue" d="M1129.24,-56.324C1119.23,-48.2631 1104.11,-36.0765 1092.07,-26.3695"/>
<polygon fill="midnightblue" stroke="midnightblue" points="1093.94,-23.3841 1083.96,-19.8339 1089.55,-28.8343 1093.94,-23.3841"/>
</g>
<!-- Node6 -->
<g id="node6" class="node"><title>Node6</title>
<polygon fill="white" stroke="#bfbfbf" points="1113,-0.5 1113,-19.5 1167,-19.5 1167,-0.5 1113,-0.5"/>
<text text-anchor="middle" x="1140" y="-7.5" font-family="Helvetica,sans-Serif" font-size="10.00">iostream</text>
</g>
<!-- Node3&#45;&gt;Node6 -->
<g id="edge5" class="edge"><title>Node3&#45;&gt;Node6</title>
<path fill="none" stroke="midnightblue" d="M1140,-56.083C1140,-49.0059 1140,-38.8611 1140,-29.9865"/>
<polygon fill="midnightblue" stroke="midnightblue" points="1143.5,-29.751 1140,-19.7511 1136.5,-29.7511 1143.5,-29.751"/>
</g>
<!-- Node7 -->
<g id="node7" class="node"><title>Node7</title>
<polygon fill="white" stroke="#bfbfbf" points="1185,-0.5 1185,-19.5 1237,-19.5 1237,-0.5 1185,-0.5"/>
<text text-anchor="middle" x="1211" y="-7.5" font-family="Helvetica,sans-Serif" font-size="10.00">sstream</text>
</g>
<!-- Node3&#45;&gt;Node7 -->
<g id="edge6" class="edge"><title>Node3&#45;&gt;Node7</title>
<path fill="none" stroke="midnightblue" d="M1151.41,-56.324C1162.11,-48.1849 1178.34,-35.8395 1191.16,-26.0874"/>
<polygon fill="midnightblue" stroke="midnightblue" points="1193.54,-28.6734 1199.39,-19.8339 1189.31,-23.1018 1193.54,-28.6734"/>
</g>
<!-- Node8 -->
<g id="node8" class="node"><title>Node8</title>
<polygon fill="white" stroke="#bfbfbf" points="1255,-0.5 1255,-19.5 1299,-19.5 1299,-0.5 1255,-0.5"/>
<text text-anchor="middle" x="1277" y="-7.5" font-family="Helvetica,sans-Serif" font-size="10.00">thread</text>
</g>
<!-- Node3&#45;&gt;Node8 -->
<g id="edge7" class="edge"><title>Node3&#45;&gt;Node8</title>
<path fill="none" stroke="midnightblue" d="M1161.71,-56.4435C1184.35,-47.5171 1220.07,-33.4387 1245.75,-23.3168"/>
<polygon fill="midnightblue" stroke="midnightblue" points="1247.37,-26.4397 1255.39,-19.5164 1244.81,-19.9273 1247.37,-26.4397"/>
</g>
<!-- Node10 -->
<g id="node10" class="node"><title>Node10</title>
<g id="a_node10"><a xlink:href="RaEngine_8hpp.html" target="_top" xlink:title="Engine/RaEngine.hpp">
<polygon fill="white" stroke="black" points="1084.5,-236.5 1084.5,-255.5 1195.5,-255.5 1195.5,-236.5 1084.5,-236.5"/>
<text text-anchor="middle" x="1140" y="-243.5" font-family="Helvetica,sans-Serif" font-size="10.00">Engine/RaEngine.hpp</text>
</a>
</g>
</g>
<!-- Node9&#45;&gt;Node10 -->
<g id="edge9" class="edge"><title>Node9&#45;&gt;Node10</title>
<path fill="none" stroke="midnightblue" d="M1136.98,-411.196C1064.06,-407.661 964.035,-397.413 939,-368 891.409,-312.085 1010.51,-274.918 1085.15,-257.822"/>
<polygon fill="midnightblue" stroke="midnightblue" points="1086.36,-261.137 1095.36,-255.543 1084.84,-254.305 1086.36,-261.137"/>
</g>
<!-- Node11 -->
<g id="node11" class="node"><title>Node11</title>
<g id="a_node11"><a xlink:href="Index_8hpp.html" target="_top" xlink:title="Core/Index/Index.hpp">
<polygon fill="white" stroke="black" points="1120,-348.5 1120,-367.5 1230,-367.5 1230,-348.5 1120,-348.5"/>
<text text-anchor="middle" x="1175" y="-355.5" font-family="Helvetica,sans-Serif" font-size="10.00">Core/Index/Index.hpp</text>
</a>
</g>
</g>
<!-- Node9&#45;&gt;Node11 -->
<g id="edge11" class="edge"><title>Node9&#45;&gt;Node11</title>
<path fill="none" stroke="midnightblue" d="M1210.06,-404.083C1204.07,-396.377 1195.25,-385.033 1187.95,-375.653"/>
<polygon fill="midnightblue" stroke="midnightblue" points="1190.71,-373.496 1181.81,-367.751 1185.18,-377.793 1190.71,-373.496"/>
</g>
<!-- Node14 -->
<g id="node14" class="node"><title>Node14</title>
<polygon fill="white" stroke="#bfbfbf" points="1275.5,-236.5 1275.5,-255.5 1316.5,-255.5 1316.5,-236.5 1275.5,-236.5"/>
<text text-anchor="middle" x="1296" y="-243.5" font-family="Helvetica,sans-Serif" font-size="10.00">string</text>
</g>
<!-- Node9&#45;&gt;Node14 -->
<g id="edge14" class="edge"><title>Node9&#45;&gt;Node14</title>
<path fill="none" stroke="midnightblue" d="M1225.95,-404.45C1234.44,-395.913 1247.06,-382.069 1255,-368 1274.1,-334.167 1286.26,-289.981 1292.03,-265.452"/>
<polygon fill="midnightblue" stroke="midnightblue" points="1295.45,-266.197 1294.24,-255.672 1288.62,-264.658 1295.45,-266.197"/>
</g>
<!-- Node15 -->
<g id="node15" class="node"><title>Node15</title>
<polygon fill="white" stroke="#bfbfbf" points="1213,-236.5 1213,-255.5 1257,-255.5 1257,-236.5 1213,-236.5"/>
<text text-anchor="middle" x="1235" y="-243.5" font-family="Helvetica,sans-Serif" font-size="10.00">vector</text>
</g>
<!-- Node9&#45;&gt;Node15 -->
<g id="edge15" class="edge"><title>Node9&#45;&gt;Node15</title>
<path fill="none" stroke="midnightblue" d="M1222.64,-404.481C1228.05,-395.745 1235.86,-381.556 1239,-368 1247.22,-332.468 1242.46,-289.513 1238.54,-265.522"/>
<polygon fill="midnightblue" stroke="midnightblue" points="1241.98,-264.893 1236.79,-255.656 1235.09,-266.113 1241.98,-264.893"/>
</g>
<!-- Node16 -->
<g id="node16" class="node"><title>Node16</title>
<g id="a_node16"><a xlink:href="PickingManager_8hpp.html" target="_top" xlink:title="GuiBase/Utils/PickingManager.hpp">
<polygon fill="white" stroke="black" points="723.5,-348.5 723.5,-367.5 892.5,-367.5 892.5,-348.5 723.5,-348.5"/>
<text text-anchor="middle" x="808" y="-355.5" font-family="Helvetica,sans-Serif" font-size="10.00">GuiBase/Utils/PickingManager.hpp</text>
</a>
</g>
</g>
<!-- Node9&#45;&gt;Node16 -->
<g id="edge16" class="edge"><title>Node9&#45;&gt;Node16</title>
<path fill="none" stroke="midnightblue" d="M1152.19,-404.444C1078.9,-394.767 959.748,-379.035 882.629,-368.853"/>
<polygon fill="midnightblue" stroke="midnightblue" points="882.876,-365.356 872.504,-367.516 881.96,-372.295 882.876,-365.356"/>
</g>
<!-- Node37 -->
<g id="node37" class="node"><title>Node37</title>
<g id="a_node37"><a xlink:href="ItemEntry_8inl.html" target="_top" xlink:title="Engine/ItemModel/ItemEntry.inl">
<polygon fill="white" stroke="black" points="948,-348.5 948,-367.5 1102,-367.5 1102,-348.5 948,-348.5"/>
<text text-anchor="middle" x="1025" y="-355.5" font-family="Helvetica,sans-Serif" font-size="10.00">Engine/ItemModel/ItemEntry.inl</text>
</a>
</g>
</g>
<!-- Node9&#45;&gt;Node37 -->
<g id="edge46" class="edge"><title>Node9&#45;&gt;Node37</title>
<path fill="none" stroke="midnightblue" d="M1186.58,-404.444C1153.72,-395.201 1101.22,-380.436 1065.03,-370.257"/>
<polygon fill="midnightblue" stroke="midnightblue" points="1065.85,-366.855 1055.28,-367.516 1063.96,-373.593 1065.85,-366.855"/>
</g>
<!-- Node10&#45;&gt;Node3 -->
<g id="edge10" class="edge"><title>Node10&#45;&gt;Node3</title>
<path fill="none" stroke="midnightblue" d="M1140,-236.415C1140,-209.227 1140,-124.563 1140,-86.2169"/>
<polygon fill="midnightblue" stroke="midnightblue" points="1143.5,-85.9184 1140,-75.9185 1136.5,-85.9185 1143.5,-85.9184"/>
</g>
<!-- Node12 -->
<g id="node12" class="node"><title>Node12</title>
<polygon fill="white" stroke="#bfbfbf" points="1030,-292.5 1030,-311.5 1070,-311.5 1070,-292.5 1030,-292.5"/>
<text text-anchor="middle" x="1050" y="-299.5" font-family="Helvetica,sans-Serif" font-size="10.00">limits</text>
</g>
<!-- Node11&#45;&gt;Node12 -->
<g id="edge12" class="edge"><title>Node11&#45;&gt;Node12</title>
<path fill="none" stroke="midnightblue" d="M1155.19,-348.444C1134.71,-339.596 1102.52,-325.687 1079.14,-315.586"/>
<polygon fill="midnightblue" stroke="midnightblue" points="1080.28,-312.269 1069.71,-311.516 1077.51,-318.695 1080.28,-312.269"/>
</g>
<!-- Node13 -->
<g id="node13" class="node"><title>Node13</title>
<g id="a_node13"><a xlink:href="Index_8inl.html" target="_top" xlink:title="Core/Index/Index.inl">
<polygon fill="white" stroke="black" points="1088,-292.5 1088,-311.5 1192,-311.5 1192,-292.5 1088,-292.5"/>
<text text-anchor="middle" x="1140" y="-299.5" font-family="Helvetica,sans-Serif" font-size="10.00">Core/Index/Index.inl</text>
</a>
</g>
</g>
<!-- Node11&#45;&gt;Node13 -->
<g id="edge13" class="edge"><title>Node11&#45;&gt;Node13</title>
<path fill="none" stroke="midnightblue" d="M1169.22,-348.083C1164.33,-340.534 1157.17,-329.495 1151.17,-320.23"/>
<polygon fill="midnightblue" stroke="midnightblue" points="1154.05,-318.239 1145.67,-311.751 1148.17,-322.046 1154.05,-318.239"/>
</g>
<!-- Node16&#45;&gt;Node2 -->
<g id="edge17" class="edge"><title>Node16&#45;&gt;Node2</title>
<path fill="none" stroke="midnightblue" d="M892.546,-350.925C907.997,-349.891 923.979,-348.871 939,-348 1274.17,-328.571 1361.48,-340.525 1700.61,-311.955"/>
<polygon fill="midnightblue" stroke="midnightblue" points="1701.05,-315.43 1710.72,-311.098 1700.46,-308.455 1701.05,-315.43"/>
</g>
<!-- Node17 -->
<g id="node17" class="node"><title>Node17</title>
<g id="a_node17"><a xlink:href="Renderer_8hpp.html" target="_top" xlink:title="Engine/Renderer/Renderer.hpp">
<polygon fill="white" stroke="black" points="767.5,-292.5 767.5,-311.5 918.5,-311.5 918.5,-292.5 767.5,-292.5"/>
<text text-anchor="middle" x="843" y="-299.5" font-family="Helvetica,sans-Serif" font-size="10.00">Engine/Renderer/Renderer.hpp</text>
</a>
</g>
</g>
<!-- Node16&#45;&gt;Node17 -->
<g id="edge18" class="edge"><title>Node16&#45;&gt;Node17</title>
<path fill="none" stroke="midnightblue" d="M813.78,-348.083C818.672,-340.534 825.827,-329.495 831.833,-320.23"/>
<polygon fill="midnightblue" stroke="midnightblue" points="834.826,-322.046 837.328,-311.751 828.952,-318.239 834.826,-322.046"/>
</g>
<!-- Node36 -->
<g id="node36" class="node"><title>Node36</title>
<polygon fill="white" stroke="#bfbfbf" points="696.5,-292.5 696.5,-311.5 749.5,-311.5 749.5,-292.5 696.5,-292.5"/>
<text text-anchor="middle" x="723" y="-299.5" font-family="Helvetica,sans-Serif" font-size="10.00">QObject</text>
</g>
<!-- Node16&#45;&gt;Node36 -->
<g id="edge45" class="edge"><title>Node16&#45;&gt;Node36</title>
<path fill="none" stroke="midnightblue" d="M794.343,-348.324C781.084,-339.9 760.732,-326.971 745.154,-317.074"/>
<polygon fill="midnightblue" stroke="midnightblue" points="746.94,-314.063 736.623,-311.655 743.187,-319.971 746.94,-314.063"/>
</g>
<!-- Node17&#45;&gt;Node10 -->
<g id="edge19" class="edge"><title>Node17&#45;&gt;Node10</title>
<path fill="none" stroke="midnightblue" d="M890.061,-292.444C942.415,-282.925 1026.99,-267.547 1083.04,-257.356"/>
<polygon fill="midnightblue" stroke="midnightblue" points="1083.95,-260.749 1093.16,-255.516 1082.69,-253.862 1083.95,-260.749"/>
</g>
<!-- Node17&#45;&gt;Node15 -->
<g id="edge24" class="edge"><title>Node17&#45;&gt;Node15</title>
<path fill="none" stroke="midnightblue" d="M918.586,-295.091C989.726,-288.732 1099.31,-276.885 1202.76,-255.969"/>
<polygon fill="midnightblue" stroke="midnightblue" points="1203.66,-259.357 1212.75,-253.916 1202.26,-252.5 1203.66,-259.357"/>
</g>
<!-- Node18 -->
<g id="node18" class="node"><title>Node18</title>
<polygon fill="white" stroke="#bfbfbf" points="801,-236.5 801,-255.5 839,-255.5 839,-236.5 801,-236.5"/>
<text text-anchor="middle" x="820" y="-243.5" font-family="Helvetica,sans-Serif" font-size="10.00">array</text>
</g>
<!-- Node17&#45;&gt;Node18 -->
<g id="edge20" class="edge"><title>Node17&#45;&gt;Node18</title>
<path fill="none" stroke="midnightblue" d="M839.202,-292.083C836.087,-284.77 831.577,-274.181 827.711,-265.103"/>
<polygon fill="midnightblue" stroke="midnightblue" points="830.866,-263.58 823.727,-255.751 824.426,-266.323 830.866,-263.58"/>
</g>
<!-- Node19 -->
<g id="node19" class="node"><title>Node19</title>
<polygon fill="white" stroke="#bfbfbf" points="989,-174.5 989,-193.5 1035,-193.5 1035,-174.5 989,-174.5"/>
<text text-anchor="middle" x="1012" y="-181.5" font-family="Helvetica,sans-Serif" font-size="10.00">chrono</text>
</g>
<!-- Node17&#45;&gt;Node19 -->
<g id="edge21" class="edge"><title>Node17&#45;&gt;Node19</title>
<path fill="none" stroke="midnightblue" d="M846.682,-292.164C852.862,-278.342 866.58,-251.578 886,-236 920.897,-208.007 938.83,-217.505 980,-200 981.592,-199.323 983.221,-198.614 984.86,-197.887"/>
<polygon fill="midnightblue" stroke="midnightblue" points="986.519,-200.977 994.163,-193.64 983.613,-194.609 986.519,-200.977"/>
</g>
<!-- Node20 -->
<g id="node20" class="node"><title>Node20</title>
<polygon fill="white" stroke="#bfbfbf" points="1335,-236.5 1335,-255.5 1387,-255.5 1387,-236.5 1335,-236.5"/>
<text text-anchor="middle" x="1361" y="-243.5" font-family="Helvetica,sans-Serif" font-size="10.00">memory</text>
</g>
<!-- Node17&#45;&gt;Node20 -->
<g id="edge22" class="edge"><title>Node17&#45;&gt;Node20</title>
<path fill="none" stroke="midnightblue" d="M918.603,-297.5C1011.76,-292.39 1174.97,-280.852 1324.47,-255.8"/>
<polygon fill="midnightblue" stroke="midnightblue" points="1325.48,-259.178 1334.75,-254.051 1324.31,-252.277 1325.48,-259.178"/>
</g>
<!-- Node21 -->
<g id="node21" class="node"><title>Node21</title>
<polygon fill="white" stroke="#bfbfbf" points="895,-236.5 895,-255.5 939,-255.5 939,-236.5 895,-236.5"/>
<text text-anchor="middle" x="917" y="-243.5" font-family="Helvetica,sans-Serif" font-size="10.00">mutex</text>
</g>
<!-- Node17&#45;&gt;Node21 -->
<g id="edge23" class="edge"><title>Node17&#45;&gt;Node21</title>
<path fill="none" stroke="midnightblue" d="M854.889,-292.324C866.15,-284.107 883.287,-271.602 896.709,-261.807"/>
<polygon fill="midnightblue" stroke="midnightblue" points="898.88,-264.556 904.894,-255.834 894.753,-258.901 898.88,-264.556"/>
</g>
<!-- Node22 -->
<g id="node22" class="node"><title>Node22</title>
<g id="a_node22"><a xlink:href="EventEnums_8hpp.html" target="_top" xlink:title="Core/Event/EventEnums.hpp">
<polygon fill="white" stroke="black" points="827,-174.5 827,-193.5 971,-193.5 971,-174.5 827,-174.5"/>
<text text-anchor="middle" x="899" y="-181.5" font-family="Helvetica,sans-Serif" font-size="10.00">Core/Event/EventEnums.hpp</text>
</a>
</g>
</g>
<!-- Node17&#45;&gt;Node22 -->
<g id="edge25" class="edge"><title>Node17&#45;&gt;Node22</title>
<path fill="none" stroke="midnightblue" d="M827.556,-292.384C808.017,-280.324 778.449,-257.47 792,-236 804.334,-216.457 826.438,-204.246 847.366,-196.695"/>
<polygon fill="midnightblue" stroke="midnightblue" points="848.471,-200.016 856.86,-193.544 846.266,-193.372 848.471,-200.016"/>
</g>
<!-- Node24 -->
<g id="node24" class="node"><title>Node24</title>
<g id="a_node24"><a xlink:href="LinearAlgebra_8hpp.html" target="_top" xlink:title="Core/Math/LinearAlgebra.hpp">
<polygon fill="white" stroke="black" points="407.5,-236.5 407.5,-255.5 550.5,-255.5 550.5,-236.5 407.5,-236.5"/>
<text text-anchor="middle" x="479" y="-243.5" font-family="Helvetica,sans-Serif" font-size="10.00">Core/Math/LinearAlgebra.hpp</text>
</a>
</g>
</g>
<!-- Node17&#45;&gt;Node24 -->
<g id="edge28" class="edge"><title>Node17&#45;&gt;Node24</title>
<path fill="none" stroke="midnightblue" d="M785.323,-292.444C720.493,-282.826 615.349,-267.228 546.683,-257.041"/>
<polygon fill="midnightblue" stroke="midnightblue" points="546.812,-253.522 536.407,-255.516 545.785,-260.446 546.812,-253.522"/>
</g>
<!-- Node35 -->
<g id="node35" class="node"><title>Node35</title>
<g id="a_node35"><a xlink:href="Timer_8hpp.html" target="_top" xlink:title="Core/Time/Timer.hpp">
<polygon fill="white" stroke="black" points="957.5,-236.5 957.5,-255.5 1066.5,-255.5 1066.5,-236.5 957.5,-236.5"/>
<text text-anchor="middle" x="1012" y="-243.5" font-family="Helvetica,sans-Serif" font-size="10.00">Core/Time/Timer.hpp</text>
</a>
</g>
</g>
<!-- Node17&#45;&gt;Node35 -->
<g id="edge42" class="edge"><title>Node17&#45;&gt;Node35</title>
<path fill="none" stroke="midnightblue" d="M869.779,-292.444C898.333,-283.32 943.733,-268.813 975.537,-258.651"/>
<polygon fill="midnightblue" stroke="midnightblue" points="976.886,-261.894 985.347,-255.516 974.756,-255.226 976.886,-261.894"/>
</g>
<!-- Node23 -->
<g id="node23" class="node"><title>Node23</title>
<g id="a_node23"><a xlink:href="RaCore_8hpp.html" target="_top" xlink:title="Core/RaCore.hpp">
<polygon fill="white" stroke="black" points="934.5,-112.5 934.5,-131.5 1027.5,-131.5 1027.5,-112.5 934.5,-112.5"/>
<text text-anchor="middle" x="981" y="-119.5" font-family="Helvetica,sans-Serif" font-size="10.00">Core/RaCore.hpp</text>
</a>
</g>
</g>
<!-- Node22&#45;&gt;Node23 -->
<g id="edge26" class="edge"><title>Node22&#45;&gt;Node23</title>
<path fill="none" stroke="midnightblue" d="M910.749,-174.403C923.901,-164.78 945.434,-149.024 961.198,-137.489"/>
<polygon fill="midnightblue" stroke="midnightblue" points="963.27,-140.31 969.273,-131.581 959.136,-134.661 963.27,-140.31"/>
</g>
<!-- Node23&#45;&gt;Node3 -->
<g id="edge27" class="edge"><title>Node23&#45;&gt;Node3</title>
<path fill="none" stroke="midnightblue" d="M1006.19,-112.444C1032.94,-103.359 1075.4,-88.9388 1105.31,-78.7831"/>
<polygon fill="midnightblue" stroke="midnightblue" points="1106.58,-82.0464 1114.92,-75.5164 1104.33,-75.4182 1106.58,-82.0464"/>
</g>
<!-- Node24&#45;&gt;Node23 -->
<g id="edge29" class="edge"><title>Node24&#45;&gt;Node23</title>
<path fill="none" stroke="midnightblue" d="M550.775,-244.856C613.493,-242.3 705.72,-232.55 779,-200 799.491,-190.898 798.094,-178.319 818,-168 851.278,-150.749 891.909,-139.512 924.279,-132.581"/>
<polygon fill="midnightblue" stroke="midnightblue" points="925.391,-135.926 934.479,-130.48 923.978,-129.07 925.391,-135.926"/>
</g>
<!-- Node25 -->
<g id="node25" class="node"><title>Node25</title>
<polygon fill="white" stroke="#bfbfbf" points="705.5,-174.5 705.5,-193.5 770.5,-193.5 770.5,-174.5 705.5,-174.5"/>
<text text-anchor="middle" x="738" y="-181.5" font-family="Helvetica,sans-Serif" font-size="10.00">Eigen/Core</text>
</g>
<!-- Node24&#45;&gt;Node25 -->
<g id="edge30" class="edge"><title>Node24&#45;&gt;Node25</title>
<path fill="none" stroke="midnightblue" d="M530.342,-236.426C574.619,-228.54 640.066,-215.706 696,-200 699.382,-199.05 702.885,-197.966 706.36,-196.825"/>
<polygon fill="midnightblue" stroke="midnightblue" points="707.637,-200.087 715.952,-193.521 705.357,-193.468 707.637,-200.087"/>
</g>
<!-- Node26 -->
<g id="node26" class="node"><title>Node26</title>
<polygon fill="white" stroke="#bfbfbf" points="-0.5,-174.5 -0.5,-193.5 86.5,-193.5 86.5,-174.5 -0.5,-174.5"/>
<text text-anchor="middle" x="43" y="-181.5" font-family="Helvetica,sans-Serif" font-size="10.00">Eigen/Geometry</text>
</g>
<!-- Node24&#45;&gt;Node26 -->
<g id="edge31" class="edge"><title>Node24&#45;&gt;Node26</title>
<path fill="none" stroke="midnightblue" d="M407.321,-240.135C329.769,-234.052 202.75,-221.701 95,-200 89.8923,-198.971 84.5574,-197.684 79.3335,-196.299"/>
<polygon fill="midnightblue" stroke="midnightblue" points="80.0862,-192.876 69.5134,-193.557 78.2037,-199.618 80.0862,-192.876"/>
</g>
<!-- Node27 -->
<g id="node27" class="node"><title>Node27</title>
<polygon fill="white" stroke="#bfbfbf" points="104.5,-174.5 104.5,-193.5 179.5,-193.5 179.5,-174.5 104.5,-174.5"/>
<text text-anchor="middle" x="142" y="-181.5" font-family="Helvetica,sans-Serif" font-size="10.00">Eigen/Sparse</text>
</g>
<!-- Node24&#45;&gt;Node27 -->
<g id="edge32" class="edge"><title>Node24&#45;&gt;Node27</title>
<path fill="none" stroke="midnightblue" d="M407.217,-237.183C347.933,-229.945 261.841,-217.626 188,-200 183.864,-199.013 179.564,-197.829 175.328,-196.566"/>
<polygon fill="midnightblue" stroke="midnightblue" points="176.255,-193.188 165.666,-193.528 174.155,-199.866 176.255,-193.188"/>
</g>
<!-- Node28 -->
<g id="node28" class="node"><title>Node28</title>
<polygon fill="white" stroke="#bfbfbf" points="197.5,-174.5 197.5,-193.5 256.5,-193.5 256.5,-174.5 197.5,-174.5"/>
<text text-anchor="middle" x="227" y="-181.5" font-family="Helvetica,sans-Serif" font-size="10.00">functional</text>
</g>
<!-- Node24&#45;&gt;Node28 -->
<g id="edge33" class="edge"><title>Node24&#45;&gt;Node28</title>
<path fill="none" stroke="midnightblue" d="M426.051,-236.433C382.359,-228.755 318.998,-216.209 265,-200 262.198,-199.159 259.312,-198.199 256.442,-197.181"/>
<polygon fill="midnightblue" stroke="midnightblue" points="257.485,-193.834 246.893,-193.583 255.016,-200.384 257.485,-193.834"/>
</g>
<!-- Node29 -->
<g id="node29" class="node"><title>Node29</title>
<polygon fill="white" stroke="#bfbfbf" points="274.5,-169 274.5,-199 407.5,-199 407.5,-169 274.5,-169"/>
<text text-anchor="start" x="282.5" y="-187" font-family="Helvetica,sans-Serif" font-size="10.00">unsupported/Eigen/Aligned</text>
<text text-anchor="middle" x="341" y="-176" font-family="Helvetica,sans-Serif" font-size="10.00">Vector3</text>
</g>
<!-- Node24&#45;&gt;Node29 -->
<g id="edge34" class="edge"><title>Node24&#45;&gt;Node29</title>
<path fill="none" stroke="midnightblue" d="M459.228,-236.403C439.336,-227.755 408.055,-214.155 382.665,-203.115"/>
<polygon fill="midnightblue" stroke="midnightblue" points="383.824,-199.803 373.258,-199.025 381.033,-206.222 383.824,-199.803"/>
</g>
<!-- Node30 -->
<g id="node30" class="node"><title>Node30</title>
<g id="a_node30"><a xlink:href="Math_8hpp.html" target="_top" xlink:title="Core/Math/Math.hpp">
<polygon fill="white" stroke="black" points="426,-174.5 426,-193.5 532,-193.5 532,-174.5 426,-174.5"/>
<text text-anchor="middle" x="479" y="-181.5" font-family="Helvetica,sans-Serif" font-size="10.00">Core/Math/Math.hpp</text>
</a>
</g>
</g>
<!-- Node24&#45;&gt;Node30 -->
<g id="edge35" class="edge"><title>Node24&#45;&gt;Node30</title>
<path fill="none" stroke="midnightblue" d="M479,-236.403C479,-227.938 479,-214.728 479,-203.82"/>
<polygon fill="midnightblue" stroke="midnightblue" points="482.5,-203.581 479,-193.581 475.5,-203.581 482.5,-203.581"/>
</g>
<!-- Node34 -->
<g id="node34" class="node"><title>Node34</title>
<g id="a_node34"><a xlink:href="LinearAlgebra_8inl.html" target="_top" xlink:title="Core/Math/LinearAlgebra.inl">
<polygon fill="white" stroke="black" points="550.5,-174.5 550.5,-193.5 687.5,-193.5 687.5,-174.5 550.5,-174.5"/>
<text text-anchor="middle" x="619" y="-181.5" font-family="Helvetica,sans-Serif" font-size="10.00">Core/Math/LinearAlgebra.inl</text>
</a>
</g>
</g>
<!-- Node24&#45;&gt;Node34 -->
<g id="edge41" class="edge"><title>Node24&#45;&gt;Node34</title>
<path fill="none" stroke="midnightblue" d="M499.059,-236.403C522.762,-226.245 562.406,-209.255 589.583,-197.607"/>
<polygon fill="midnightblue" stroke="midnightblue" points="591.166,-200.737 598.979,-193.581 588.408,-194.303 591.166,-200.737"/>
</g>
<!-- Node30&#45;&gt;Node23 -->
<g id="edge36" class="edge"><title>Node30&#45;&gt;Node23</title>
<path fill="none" stroke="midnightblue" d="M510.688,-174.459C520.361,-172.089 531.067,-169.701 541,-168 677.591,-144.603 840.27,-131.83 924.37,-126.33"/>
<polygon fill="midnightblue" stroke="midnightblue" points="924.721,-129.815 934.476,-125.679 924.272,-122.829 924.721,-129.815"/>
</g>
<!-- Node31 -->
<g id="node31" class="node"><title>Node31</title>
<polygon fill="white" stroke="#bfbfbf" points="338,-112.5 338,-131.5 394,-131.5 394,-112.5 338,-112.5"/>
<text text-anchor="middle" x="366" y="-119.5" font-family="Helvetica,sans-Serif" font-size="10.00">algorithm</text>
</g>
<!-- Node30&#45;&gt;Node31 -->
<g id="edge37" class="edge"><title>Node30&#45;&gt;Node31</title>
<path fill="none" stroke="midnightblue" d="M462.81,-174.403C444.098,-164.468 413.077,-147.997 391.201,-136.381"/>
<polygon fill="midnightblue" stroke="midnightblue" points="392.634,-133.179 382.16,-131.581 389.351,-139.362 392.634,-133.179"/>
</g>
<!-- Node32 -->
<g id="node32" class="node"><title>Node32</title>
<polygon fill="white" stroke="#bfbfbf" points="412,-112.5 412,-131.5 456,-131.5 456,-112.5 412,-112.5"/>
<text text-anchor="middle" x="434" y="-119.5" font-family="Helvetica,sans-Serif" font-size="10.00">cmath</text>
</g>
<!-- Node30&#45;&gt;Node32 -->
<g id="edge38" class="edge"><title>Node30&#45;&gt;Node32</title>
<path fill="none" stroke="midnightblue" d="M472.553,-174.403C465.803,-165.403 455.031,-151.041 446.587,-139.782"/>
<polygon fill="midnightblue" stroke="midnightblue" points="449.235,-137.481 440.435,-131.581 443.635,-141.681 449.235,-137.481"/>
</g>
<!-- Node33 -->
<g id="node33" class="node"><title>Node33</title>
<g id="a_node33"><a xlink:href="Math_8inl.html" target="_top" xlink:title="Core/Math/Math.inl">
<polygon fill="white" stroke="black" points="474,-112.5 474,-131.5 574,-131.5 574,-112.5 474,-112.5"/>
<text text-anchor="middle" x="524" y="-119.5" font-family="Helvetica,sans-Serif" font-size="10.00">Core/Math/Math.inl</text>
</a>
</g>
</g>
<!-- Node30&#45;&gt;Node33 -->
<g id="edge39" class="edge"><title>Node30&#45;&gt;Node33</title>
<path fill="none" stroke="midnightblue" d="M480.547,-174.403C485.445,-165.225 496.125,-150.47 505.85,-139.117"/>
<polygon fill="midnightblue" stroke="midnightblue" points="508.555,-141.345 512.667,-131.581 503.364,-136.649 508.555,-141.345"/>
</g>
<!-- Node33&#45;&gt;Node30 -->
<g id="edge40" class="edge"><title>Node33&#45;&gt;Node30</title>
<path fill="none" stroke="midnightblue" d="M522.462,-131.581C517.57,-140.752 506.893,-155.506 497.166,-166.863"/>
<polygon fill="midnightblue" stroke="midnightblue" points="494.459,-164.639 490.348,-174.403 499.651,-169.334 494.459,-164.639"/>
</g>
<!-- Node35&#45;&gt;Node19 -->
<g id="edge44" class="edge"><title>Node35&#45;&gt;Node19</title>
<path fill="none" stroke="midnightblue" d="M1012,-236.403C1012,-227.938 1012,-214.728 1012,-203.82"/>
<polygon fill="midnightblue" stroke="midnightblue" points="1015.5,-203.581 1012,-193.581 1008.5,-203.581 1015.5,-203.581"/>
</g>
<!-- Node35&#45;&gt;Node23 -->
<g id="edge43" class="edge"><title>Node35&#45;&gt;Node23</title>
<path fill="none" stroke="midnightblue" d="M1020.63,-236.247C1033.85,-221.741 1056.32,-191.942 1044,-168 1036.92,-154.247 1023.48,-143.766 1010.82,-136.394"/>
<polygon fill="midnightblue" stroke="midnightblue" points="1012.31,-133.222 1001.85,-131.573 1009,-139.389 1012.31,-133.222"/>
</g>
<!-- Node38&#45;&gt;Node2 -->
<g id="edge48" class="edge"><title>Node38&#45;&gt;Node2</title>
<path fill="none" stroke="midnightblue" d="M1562.93,-460.697C1586.07,-435.667 1636.84,-383.238 1687,-348 1705.08,-335.298 1727.22,-323.897 1744.64,-315.749"/>
<polygon fill="midnightblue" stroke="midnightblue" points="1746.14,-318.912 1753.78,-311.569 1743.23,-312.546 1746.14,-318.912"/>
</g>
<!-- Node38&#45;&gt;Node9 -->
<g id="edge49" class="edge"><title>Node38&#45;&gt;Node9</title>
<path fill="none" stroke="midnightblue" d="M1484.21,-463.146C1423.06,-452.128 1332.87,-435.878 1274.53,-425.365"/>
<polygon fill="midnightblue" stroke="midnightblue" points="1274.84,-421.865 1264.37,-423.536 1273.59,-428.754 1274.84,-421.865"/>
</g>
<!-- Node39 -->
<g id="node39" class="node"><title>Node39</title>
<g id="a_node39"><a xlink:href="RadiumEngine_8hpp.html" target="_top" xlink:title="Engine/RadiumEngine.hpp">
<polygon fill="white" stroke="black" points="1324,-292.5 1324,-311.5 1456,-311.5 1456,-292.5 1324,-292.5"/>
<text text-anchor="middle" x="1390" y="-299.5" font-family="Helvetica,sans-Serif" font-size="10.00">Engine/RadiumEngine.hpp</text>
</a>
</g>
</g>
<!-- Node38&#45;&gt;Node39 -->
<g id="edge50" class="edge"><title>Node38&#45;&gt;Node39</title>
<path fill="none" stroke="midnightblue" d="M1536.91,-460.925C1507.46,-429.268 1436.15,-352.616 1404.99,-319.118"/>
<polygon fill="midnightblue" stroke="midnightblue" points="1407.36,-316.523 1397.99,-311.585 1402.23,-321.29 1407.36,-316.523"/>
</g>
<!-- Node42 -->
<g id="node42" class="node"><title>Node42</title>
<g id="a_node42"><a xlink:href="TreeModel_8hpp.html" target="_top" xlink:title="GuiBase/TreeModel/TreeModel.hpp">
<polygon fill="white" stroke="black" points="1465,-348.5 1465,-367.5 1635,-367.5 1635,-348.5 1465,-348.5"/>
<text text-anchor="middle" x="1550" y="-355.5" font-family="Helvetica,sans-Serif" font-size="10.00">GuiBase/TreeModel/TreeModel.hpp</text>
</a>
</g>
</g>
<!-- Node38&#45;&gt;Node42 -->
<g id="edge58" class="edge"><title>Node38&#45;&gt;Node42</title>
<path fill="none" stroke="midnightblue" d="M1550,-460.776C1550,-439.971 1550,-401.198 1550,-377.981"/>
<polygon fill="midnightblue" stroke="midnightblue" points="1553.5,-377.707 1550,-367.707 1546.5,-377.707 1553.5,-377.707"/>
</g>
<!-- Node39&#45;&gt;Node10 -->
<g id="edge51" class="edge"><title>Node39&#45;&gt;Node10</title>
<path fill="none" stroke="midnightblue" d="M1350.39,-292.444C1306.77,-283.023 1236.6,-267.866 1189.42,-257.675"/>
<polygon fill="midnightblue" stroke="midnightblue" points="1189.94,-254.207 1179.43,-255.516 1188.46,-261.049 1189.94,-254.207"/>
</g>
<!-- Node39&#45;&gt;Node14 -->
<g id="edge56" class="edge"><title>Node39&#45;&gt;Node14</title>
<path fill="none" stroke="midnightblue" d="M1374.9,-292.324C1360.1,-283.822 1337.31,-270.729 1320.02,-260.797"/>
<polygon fill="midnightblue" stroke="midnightblue" points="1321.48,-257.601 1311.07,-255.655 1317.99,-263.671 1321.48,-257.601"/>
</g>
<!-- Node39&#45;&gt;Node15 -->
<g id="edge57" class="edge"><title>Node39&#45;&gt;Node15</title>
<path fill="none" stroke="midnightblue" d="M1365.44,-292.444C1338.87,-283.186 1296.39,-268.387 1267.17,-258.207"/>
<polygon fill="midnightblue" stroke="midnightblue" points="1268.03,-254.8 1257.43,-254.815 1265.72,-261.41 1268.03,-254.8"/>
</g>
<!-- Node39&#45;&gt;Node20 -->
<g id="edge55" class="edge"><title>Node39&#45;&gt;Node20</title>
<path fill="none" stroke="midnightblue" d="M1385.21,-292.083C1381.24,-284.691 1375.47,-273.953 1370.57,-264.811"/>
<polygon fill="midnightblue" stroke="midnightblue" points="1373.51,-262.905 1365.7,-255.751 1367.35,-266.217 1373.51,-262.905"/>
</g>
<!-- Node40 -->
<g id="node40" class="node"><title>Node40</title>
<g id="a_node40"><a xlink:href="Singleton_8hpp.html" target="_top" xlink:title="Core/Utils/Singleton.hpp">
<polygon fill="white" stroke="black" points="1260.5,-174.5 1260.5,-193.5 1383.5,-193.5 1383.5,-174.5 1260.5,-174.5"/>
<text text-anchor="middle" x="1322" y="-181.5" font-family="Helvetica,sans-Serif" font-size="10.00">Core/Utils/Singleton.hpp</text>
</a>
</g>
</g>
<!-- Node39&#45;&gt;Node40 -->
<g id="edge52" class="edge"><title>Node39&#45;&gt;Node40</title>
<path fill="none" stroke="midnightblue" d="M1393.62,-292.423C1398.51,-279.409 1405.59,-254.26 1396,-236 1387.02,-218.911 1369.44,-206.428 1353.66,-198.09"/>
<polygon fill="midnightblue" stroke="midnightblue" points="1355.18,-194.936 1344.66,-193.657 1352.09,-201.215 1355.18,-194.936"/>
</g>
<!-- Node41 -->
<g id="node41" class="node"><title>Node41</title>
<polygon fill="white" stroke="#bfbfbf" points="1443.5,-236.5 1443.5,-255.5 1478.5,-255.5 1478.5,-236.5 1443.5,-236.5"/>
<text text-anchor="middle" x="1461" y="-243.5" font-family="Helvetica,sans-Serif" font-size="10.00">map</text>
</g>
<!-- Node39&#45;&gt;Node41 -->
<g id="edge54" class="edge"><title>Node39&#45;&gt;Node41</title>
<path fill="none" stroke="midnightblue" d="M1401.41,-292.324C1412.11,-284.185 1428.34,-271.839 1441.16,-262.087"/>
<polygon fill="midnightblue" stroke="midnightblue" points="1443.54,-264.673 1449.39,-255.834 1439.31,-259.102 1443.54,-264.673"/>
</g>
<!-- Node40&#45;&gt;Node23 -->
<g id="edge53" class="edge"><title>Node40&#45;&gt;Node23</title>
<path fill="none" stroke="midnightblue" d="M1273.51,-174.467C1211.37,-163.534 1103.84,-144.614 1037.9,-133.011"/>
<polygon fill="midnightblue" stroke="midnightblue" points="1038.14,-129.5 1027.69,-131.214 1036.93,-136.395 1038.14,-129.5"/>
</g>
<!-- Node42&#45;&gt;Node2 -->
<g id="edge59" class="edge"><title>Node42&#45;&gt;Node2</title>
<path fill="none" stroke="midnightblue" d="M1585.49,-348.444C1624.32,-339.083 1686.66,-324.056 1728.92,-313.868"/>
<polygon fill="midnightblue" stroke="midnightblue" points="1729.77,-317.263 1738.67,-311.516 1728.13,-310.458 1729.77,-317.263"/>
</g>
<!-- Node42&#45;&gt;Node15 -->
<g id="edge61" class="edge"><title>Node42&#45;&gt;Node15</title>
<path fill="none" stroke="midnightblue" d="M1464.79,-350.857C1418.75,-345.07 1361.88,-333.83 1315,-312 1289.54,-300.146 1265.23,-278.398 1250.23,-263.341"/>
<polygon fill="midnightblue" stroke="midnightblue" points="1252.37,-260.524 1242.9,-255.771 1247.34,-265.391 1252.37,-260.524"/>
</g>
<!-- Node42&#45;&gt;Node20 -->
<g id="edge60" class="edge"><title>Node42&#45;&gt;Node20</title>
<path fill="none" stroke="midnightblue" d="M1540.36,-348.355C1525.16,-335.027 1494.32,-309.204 1465,-292 1442.59,-278.85 1415.62,-267.291 1394.76,-259.181"/>
<polygon fill="midnightblue" stroke="midnightblue" points="1395.94,-255.886 1385.35,-255.595 1393.45,-262.427 1395.94,-255.886"/>
</g>
<!-- Node43 -->
<g id="node43" class="node"><title>Node43</title>
<polygon fill="white" stroke="#bfbfbf" points="1512.5,-292.5 1512.5,-311.5 1619.5,-311.5 1619.5,-292.5 1512.5,-292.5"/>
<text text-anchor="middle" x="1566" y="-299.5" font-family="Helvetica,sans-Serif" font-size="10.00">QAbstractItemModel</text>
</g>
<!-- Node42&#45;&gt;Node43 -->
<g id="edge62" class="edge"><title>Node42&#45;&gt;Node43</title>
<path fill="none" stroke="midnightblue" d="M1552.64,-348.083C1554.79,-340.849 1557.88,-330.409 1560.55,-321.397"/>
<polygon fill="midnightblue" stroke="midnightblue" points="1563.92,-322.333 1563.41,-311.751 1557.21,-320.345 1563.92,-322.333"/>
</g>
<!-- Node44 -->
<g id="node44" class="node"><title>Node44</title>
<polygon fill="white" stroke="#bfbfbf" points="1637.5,-292.5 1637.5,-311.5 1692.5,-311.5 1692.5,-292.5 1637.5,-292.5"/>
<text text-anchor="middle" x="1665" y="-299.5" font-family="Helvetica,sans-Serif" font-size="10.00">QVariant</text>
</g>
<!-- Node42&#45;&gt;Node44 -->
<g id="edge63" class="edge"><title>Node42&#45;&gt;Node44</title>
<path fill="none" stroke="midnightblue" d="M1568.22,-348.444C1586.9,-339.675 1616.16,-325.935 1637.62,-315.858"/>
<polygon fill="midnightblue" stroke="midnightblue" points="1639.3,-318.935 1646.86,-311.516 1636.32,-312.599 1639.3,-318.935"/>
</g>
</g>
</svg>
