<?xml version="1.0" encoding="UTF-8" standalone="no"?>
<!DOCTYPE svg PUBLIC "-//W3C//DTD SVG 1.1//EN"
 "http://www.w3.org/Graphics/SVG/1.1/DTD/svg11.dtd">
<!-- Generated by graphviz version 2.36.0 (20140111.2315)
 -->
<!-- Title: /home/travis/build/STORM&#45;IRIT/Radium&#45;Engine/src/GuiBase/SelectionManager/SelectionManager.cpp Pages: 1 -->
<svg width="1688pt" height="658pt"
 viewBox="0.00 0.00 1688.32 658.00" xmlns="http://www.w3.org/2000/svg" xmlns:xlink="http://www.w3.org/1999/xlink">
<g id="graph0" class="graph" transform="scale(1 1) rotate(0) translate(4 654)">
<title>/home/travis/build/STORM&#45;IRIT/Radium&#45;Engine/src/GuiBase/SelectionManager/SelectionManager.cpp</title>
<polygon fill="white" stroke="none" points="-4,4 -4,-654 1684.32,-654 1684.32,4 -4,4"/>
<!-- Node1 -->
<g id="node1" class="node"><title>Node1</title>
<polygon fill="#bfbfbf" stroke="black" points="420.5,-597 420.5,-649 575.5,-649 575.5,-597 420.5,-597"/>
<text text-anchor="start" x="428.5" y="-637" font-family="Helvetica,sans-Serif" font-size="10.00">/home/travis/build</text>
<text text-anchor="start" x="428.5" y="-626" font-family="Helvetica,sans-Serif" font-size="10.00">/STORM&#45;IRIT/Radium&#45;Engine</text>
<text text-anchor="start" x="428.5" y="-615" font-family="Helvetica,sans-Serif" font-size="10.00">/src/GuiBase/SelectionManager</text>
<text text-anchor="middle" x="498" y="-604" font-family="Helvetica,sans-Serif" font-size="10.00">/SelectionManager.cpp</text>
</g>
<!-- Node2 -->
<g id="node2" class="node"><title>Node2</title>
<g id="a_node2"><a xlink:href="SelectionManager_8hpp.html" target="_top" xlink:title="GuiBase/SelectionManager\l/SelectionManager.hpp">
<polygon fill="white" stroke="black" points="430.5,-529 430.5,-559 565.5,-559 565.5,-529 430.5,-529"/>
<text text-anchor="start" x="438.5" y="-547" font-family="Helvetica,sans-Serif" font-size="10.00">GuiBase/SelectionManager</text>
<text text-anchor="middle" x="498" y="-536" font-family="Helvetica,sans-Serif" font-size="10.00">/SelectionManager.hpp</text>
</a>
</g>
</g>
<!-- Node1&#45;&gt;Node2 -->
<g id="edge1" class="edge"><title>Node1&#45;&gt;Node2</title>
<path fill="none" stroke="midnightblue" d="M498,-596.787C498,-588.029 498,-578.225 498,-569.523"/>
<polygon fill="midnightblue" stroke="midnightblue" points="501.5,-569.252 498,-559.252 494.5,-569.252 501.5,-569.252"/>
</g>
<!-- Node40 -->
<g id="node40" class="node"><title>Node40</title>
<g id="a_node40"><a xlink:href="RadiumEngine_8hpp.html" target="_top" xlink:title="Engine/RadiumEngine.hpp">
<polygon fill="white" stroke="black" points="236,-292.5 236,-311.5 368,-311.5 368,-292.5 236,-292.5"/>
<text text-anchor="middle" x="302" y="-299.5" font-family="Helvetica,sans-Serif" font-size="10.00">Engine/RadiumEngine.hpp</text>
</a>
</g>
</g>
<!-- Node1&#45;&gt;Node40 -->
<g id="edge76" class="edge"><title>Node1&#45;&gt;Node40</title>
<path fill="none" stroke="midnightblue" d="M420.3,-608.222C310.46,-586.498 123,-540.17 123,-477 123,-477 123,-477 123,-413 123,-382.902 120.609,-369.173 142,-348 164.202,-326.023 196.241,-314.587 225.825,-308.706"/>
<polygon fill="midnightblue" stroke="midnightblue" points="226.526,-312.136 235.746,-306.917 225.284,-305.247 226.526,-312.136"/>
</g>
<!-- Node47 -->
<g id="node47" class="node"><title>Node47</title>
<g id="a_node47"><a xlink:href="Log_8hpp.html" target="_top" xlink:title="Core/Log/Log.hpp">
<polygon fill="white" stroke="black" points="1471,-348.5 1471,-367.5 1565,-367.5 1565,-348.5 1471,-348.5"/>
<text text-anchor="middle" x="1518" y="-355.5" font-family="Helvetica,sans-Serif" font-size="10.00">Core/Log/Log.hpp</text>
</a>
</g>
</g>
<!-- Node1&#45;&gt;Node47 -->
<g id="edge66" class="edge"><title>Node1&#45;&gt;Node47</title>
<path fill="none" stroke="midnightblue" d="M575.503,-602.016C778.169,-549.76 1318.96,-410.32 1475.19,-370.039"/>
<polygon fill="midnightblue" stroke="midnightblue" points="1476.1,-373.417 1484.91,-367.531 1474.36,-366.639 1476.1,-373.417"/>
</g>
<!-- Node3 -->
<g id="node3" class="node"><title>Node3</title>
<g id="a_node3"><a xlink:href="RaGuiBase_8hpp.html" target="_top" xlink:title="GuiBase/RaGuiBase.hpp">
<polygon fill="white" stroke="black" points="424,-292.5 424,-311.5 550,-311.5 550,-292.5 424,-292.5"/>
<text text-anchor="middle" x="487" y="-299.5" font-family="Helvetica,sans-Serif" font-size="10.00">GuiBase/RaGuiBase.hpp</text>
</a>
</g>
</g>
<!-- Node2&#45;&gt;Node3 -->
<g id="edge2" class="edge"><title>Node2&#45;&gt;Node3</title>
<path fill="none" stroke="midnightblue" d="M506.359,-528.835C511.718,-518.9 518.182,-505.104 521,-492 534.409,-429.649 508.793,-354.947 494.988,-321.168"/>
<polygon fill="midnightblue" stroke="midnightblue" points="498.105,-319.553 490.985,-311.707 491.658,-322.28 498.105,-319.553"/>
</g>
<!-- Node10 -->
<g id="node10" class="node"><title>Node10</title>
<g id="a_node10"><a xlink:href="ItemEntry_8hpp.html" target="_top" xlink:title="Engine/ItemModel/ItemEntry.hpp">
<polygon fill="white" stroke="black" points="678,-404.5 678,-423.5 838,-423.5 838,-404.5 678,-404.5"/>
<text text-anchor="middle" x="758" y="-411.5" font-family="Helvetica,sans-Serif" font-size="10.00">Engine/ItemModel/ItemEntry.hpp</text>
</a>
</g>
</g>
<!-- Node2&#45;&gt;Node10 -->
<g id="edge9" class="edge"><title>Node2&#45;&gt;Node10</title>
<path fill="none" stroke="midnightblue" d="M526.818,-528.813C577.638,-503.794 682.448,-452.195 731.541,-428.026"/>
<polygon fill="midnightblue" stroke="midnightblue" points="733.159,-431.131 740.584,-423.574 730.067,-424.851 733.159,-431.131"/>
</g>
<!-- Node39 -->
<g id="node39" class="node"><title>Node39</title>
<g id="a_node39"><a xlink:href="EntityTreeModel_8hpp.html" target="_top" xlink:title="GuiBase/TreeModel/Entity\lTreeModel.hpp">
<polygon fill="white" stroke="black" points="252.5,-461 252.5,-491 383.5,-491 383.5,-461 252.5,-461"/>
<text text-anchor="start" x="260.5" y="-479" font-family="Helvetica,sans-Serif" font-size="10.00">GuiBase/TreeModel/Entity</text>
<text text-anchor="middle" x="318" y="-468" font-family="Helvetica,sans-Serif" font-size="10.00">TreeModel.hpp</text>
</a>
</g>
</g>
<!-- Node2&#45;&gt;Node39 -->
<g id="edge48" class="edge"><title>Node2&#45;&gt;Node39</title>
<path fill="none" stroke="midnightblue" d="M459.385,-528.841C432.007,-518.802 395.087,-505.265 365.841,-494.542"/>
<polygon fill="midnightblue" stroke="midnightblue" points="366.835,-491.178 356.241,-491.022 364.425,-497.751 366.835,-491.178"/>
</g>
<!-- Node46 -->
<g id="node46" class="node"><title>Node46</title>
<polygon fill="white" stroke="#bfbfbf" points="402,-466.5 402,-485.5 512,-485.5 512,-466.5 402,-466.5"/>
<text text-anchor="middle" x="457" y="-473.5" font-family="Helvetica,sans-Serif" font-size="10.00">QItemSelectionModel</text>
</g>
<!-- Node2&#45;&gt;Node46 -->
<g id="edge65" class="edge"><title>Node2&#45;&gt;Node46</title>
<path fill="none" stroke="midnightblue" d="M489.104,-528.679C482.837,-518.592 474.414,-505.033 467.768,-494.335"/>
<polygon fill="midnightblue" stroke="midnightblue" points="470.734,-492.476 462.484,-485.828 464.788,-496.17 470.734,-492.476"/>
</g>
<!-- Node4 -->
<g id="node4" class="node"><title>Node4</title>
<g id="a_node4"><a xlink:href="CoreMacros_8hpp.html" target="_top" xlink:title="Core/CoreMacros.hpp">
<polygon fill="white" stroke="black" points="487.5,-56.5 487.5,-75.5 600.5,-75.5 600.5,-56.5 487.5,-56.5"/>
<text text-anchor="middle" x="544" y="-63.5" font-family="Helvetica,sans-Serif" font-size="10.00">Core/CoreMacros.hpp</text>
</a>
</g>
</g>
<!-- Node3&#45;&gt;Node4 -->
<g id="edge3" class="edge"><title>Node3&#45;&gt;Node4</title>
<path fill="none" stroke="midnightblue" d="M462.108,-292.479C397.027,-270.087 226.32,-210.581 219,-200 211.629,-189.345 211.267,-122.788 221,-112 254.165,-75.2401 392.765,-67.7042 477.262,-66.6191"/>
<polygon fill="midnightblue" stroke="midnightblue" points="477.324,-70.1187 487.288,-66.5172 477.253,-63.1191 477.324,-70.1187"/>
</g>
<!-- Node5 -->
<g id="node5" class="node"><title>Node5</title>
<polygon fill="white" stroke="#bfbfbf" points="618.5,-0.5 618.5,-19.5 667.5,-19.5 667.5,-0.5 618.5,-0.5"/>
<text text-anchor="middle" x="643" y="-7.5" font-family="Helvetica,sans-Serif" font-size="10.00">cassert</text>
</g>
<!-- Node4&#45;&gt;Node5 -->
<g id="edge4" class="edge"><title>Node4&#45;&gt;Node5</title>
<path fill="none" stroke="midnightblue" d="M559.906,-56.324C575.638,-47.7428 599.942,-34.486 618.209,-24.5224"/>
<polygon fill="midnightblue" stroke="midnightblue" points="620.03,-27.5157 627.133,-19.6545 616.678,-21.3704 620.03,-27.5157"/>
</g>
<!-- Node6 -->
<g id="node6" class="node"><title>Node6</title>
<polygon fill="white" stroke="#bfbfbf" points="422.5,-0.5 422.5,-19.5 465.5,-19.5 465.5,-0.5 422.5,-0.5"/>
<text text-anchor="middle" x="444" y="-7.5" font-family="Helvetica,sans-Serif" font-size="10.00">cstdio</text>
</g>
<!-- Node4&#45;&gt;Node6 -->
<g id="edge5" class="edge"><title>Node4&#45;&gt;Node6</title>
<path fill="none" stroke="midnightblue" d="M527.933,-56.324C512.042,-47.7428 487.493,-34.486 469.042,-24.5224"/>
<polygon fill="midnightblue" stroke="midnightblue" points="470.489,-21.3264 460.027,-19.6545 467.163,-27.4857 470.489,-21.3264"/>
</g>
<!-- Node7 -->
<g id="node7" class="node"><title>Node7</title>
<polygon fill="white" stroke="#bfbfbf" points="484,-0.5 484,-19.5 538,-19.5 538,-0.5 484,-0.5"/>
<text text-anchor="middle" x="511" y="-7.5" font-family="Helvetica,sans-Serif" font-size="10.00">iostream</text>
</g>
<!-- Node4&#45;&gt;Node7 -->
<g id="edge6" class="edge"><title>Node4&#45;&gt;Node7</title>
<path fill="none" stroke="midnightblue" d="M538.551,-56.083C533.986,-48.6127 527.332,-37.7244 521.707,-28.5199"/>
<polygon fill="midnightblue" stroke="midnightblue" points="524.549,-26.4588 516.348,-19.7511 518.576,-30.109 524.549,-26.4588"/>
</g>
<!-- Node8 -->
<g id="node8" class="node"><title>Node8</title>
<polygon fill="white" stroke="#bfbfbf" points="1320,-0.5 1320,-19.5 1372,-19.5 1372,-0.5 1320,-0.5"/>
<text text-anchor="middle" x="1346" y="-7.5" font-family="Helvetica,sans-Serif" font-size="10.00">sstream</text>
</g>
<!-- Node4&#45;&gt;Node8 -->
<g id="edge7" class="edge"><title>Node4&#45;&gt;Node8</title>
<path fill="none" stroke="midnightblue" d="M600.715,-61.1813C755.672,-50.7478 1183.07,-21.9705 1310,-13.4238"/>
<polygon fill="midnightblue" stroke="midnightblue" points="1310.24,-16.9158 1319.98,-12.7518 1309.77,-9.93164 1310.24,-16.9158"/>
</g>
<!-- Node9 -->
<g id="node9" class="node"><title>Node9</title>
<polygon fill="white" stroke="#bfbfbf" points="556,-0.5 556,-19.5 600,-19.5 600,-0.5 556,-0.5"/>
<text text-anchor="middle" x="578" y="-7.5" font-family="Helvetica,sans-Serif" font-size="10.00">thread</text>
</g>
<!-- Node4&#45;&gt;Node9 -->
<g id="edge8" class="edge"><title>Node4&#45;&gt;Node9</title>
<path fill="none" stroke="midnightblue" d="M549.614,-56.083C554.367,-48.5341 561.318,-37.4948 567.152,-28.2298"/>
<polygon fill="midnightblue" stroke="midnightblue" points="570.124,-30.0783 572.49,-19.7511 564.2,-26.3486 570.124,-30.0783"/>
</g>
<!-- Node11 -->
<g id="node11" class="node"><title>Node11</title>
<g id="a_node11"><a xlink:href="RaEngine_8hpp.html" target="_top" xlink:title="Engine/RaEngine.hpp">
<polygon fill="white" stroke="black" points="463.5,-236.5 463.5,-255.5 574.5,-255.5 574.5,-236.5 463.5,-236.5"/>
<text text-anchor="middle" x="519" y="-243.5" font-family="Helvetica,sans-Serif" font-size="10.00">Engine/RaEngine.hpp</text>
</a>
</g>
</g>
<!-- Node10&#45;&gt;Node11 -->
<g id="edge10" class="edge"><title>Node10&#45;&gt;Node11</title>
<path fill="none" stroke="midnightblue" d="M679.336,-404.471C650.921,-398.132 620.17,-387.117 597,-368 567.87,-343.966 580.172,-323.272 559,-292 552.056,-281.743 542.97,-271.34 535.213,-263.123"/>
<polygon fill="midnightblue" stroke="midnightblue" points="537.504,-260.459 528.027,-255.722 532.482,-265.335 537.504,-260.459"/>
</g>
<!-- Node12 -->
<g id="node12" class="node"><title>Node12</title>
<g id="a_node12"><a xlink:href="Index_8hpp.html" target="_top" xlink:title="Core/Index/Index.hpp">
<polygon fill="white" stroke="black" points="778,-348.5 778,-367.5 888,-367.5 888,-348.5 778,-348.5"/>
<text text-anchor="middle" x="833" y="-355.5" font-family="Helvetica,sans-Serif" font-size="10.00">Core/Index/Index.hpp</text>
</a>
</g>
</g>
<!-- Node10&#45;&gt;Node12 -->
<g id="edge12" class="edge"><title>Node10&#45;&gt;Node12</title>
<path fill="none" stroke="midnightblue" d="M770.05,-404.324C781.463,-396.107 798.831,-383.602 812.435,-373.807"/>
<polygon fill="midnightblue" stroke="midnightblue" points="814.66,-376.517 820.731,-367.834 810.57,-370.837 814.66,-376.517"/>
</g>
<!-- Node15 -->
<g id="node15" class="node"><title>Node15</title>
<polygon fill="white" stroke="#bfbfbf" points="1355.5,-236.5 1355.5,-255.5 1396.5,-255.5 1396.5,-236.5 1355.5,-236.5"/>
<text text-anchor="middle" x="1376" y="-243.5" font-family="Helvetica,sans-Serif" font-size="10.00">string</text>
</g>
<!-- Node10&#45;&gt;Node15 -->
<g id="edge15" class="edge"><title>Node10&#45;&gt;Node15</title>
<path fill="none" stroke="midnightblue" d="M838.071,-410.397C912.623,-406.268 1026.19,-395.592 1121,-368 1211.52,-341.658 1310,-286.573 1353.35,-260.823"/>
<polygon fill="midnightblue" stroke="midnightblue" points="1355.2,-263.794 1361.98,-255.651 1351.61,-257.79 1355.2,-263.794"/>
</g>
<!-- Node16 -->
<g id="node16" class="node"><title>Node16</title>
<polygon fill="white" stroke="#bfbfbf" points="784,-236.5 784,-255.5 828,-255.5 828,-236.5 784,-236.5"/>
<text text-anchor="middle" x="806" y="-243.5" font-family="Helvetica,sans-Serif" font-size="10.00">vector</text>
</g>
<!-- Node10&#45;&gt;Node16 -->
<g id="edge16" class="edge"><title>Node10&#45;&gt;Node16</title>
<path fill="none" stroke="midnightblue" d="M838.055,-404.807C860.748,-398.352 883.05,-387.179 897,-368 910.279,-349.744 893.608,-309.549 880,-292 869.04,-277.867 852.29,-267.152 837.496,-259.731"/>
<polygon fill="midnightblue" stroke="midnightblue" points="838.675,-256.418 828.137,-255.326 835.695,-262.751 838.675,-256.418"/>
</g>
<!-- Node17 -->
<g id="node17" class="node"><title>Node17</title>
<g id="a_node17"><a xlink:href="PickingManager_8hpp.html" target="_top" xlink:title="GuiBase/Utils/PickingManager.hpp">
<polygon fill="white" stroke="black" points="943.5,-348.5 943.5,-367.5 1112.5,-367.5 1112.5,-348.5 943.5,-348.5"/>
<text text-anchor="middle" x="1028" y="-355.5" font-family="Helvetica,sans-Serif" font-size="10.00">GuiBase/Utils/PickingManager.hpp</text>
</a>
</g>
</g>
<!-- Node10&#45;&gt;Node17 -->
<g id="edge17" class="edge"><title>Node10&#45;&gt;Node17</title>
<path fill="none" stroke="midnightblue" d="M800.782,-404.444C848.179,-394.964 924.626,-379.675 975.583,-369.483"/>
<polygon fill="midnightblue" stroke="midnightblue" points="976.298,-372.91 985.418,-367.516 974.926,-366.046 976.298,-372.91"/>
</g>
<!-- Node38 -->
<g id="node38" class="node"><title>Node38</title>
<g id="a_node38"><a xlink:href="ItemEntry_8inl.html" target="_top" xlink:title="Engine/ItemModel/ItemEntry.inl">
<polygon fill="white" stroke="black" points="606,-348.5 606,-367.5 760,-367.5 760,-348.5 606,-348.5"/>
<text text-anchor="middle" x="683" y="-355.5" font-family="Helvetica,sans-Serif" font-size="10.00">Engine/ItemModel/ItemEntry.inl</text>
</a>
</g>
</g>
<!-- Node10&#45;&gt;Node38 -->
<g id="edge47" class="edge"><title>Node10&#45;&gt;Node38</title>
<path fill="none" stroke="midnightblue" d="M745.95,-404.324C734.537,-396.107 717.169,-383.602 703.565,-373.807"/>
<polygon fill="midnightblue" stroke="midnightblue" points="705.43,-370.837 695.269,-367.834 701.34,-376.517 705.43,-370.837"/>
</g>
<!-- Node11&#45;&gt;Node4 -->
<g id="edge11" class="edge"><title>Node11&#45;&gt;Node4</title>
<path fill="none" stroke="midnightblue" d="M463.493,-244.619C387.906,-242.786 258.586,-234.531 229,-200 220.741,-190.361 219.712,-124.566 231,-112 262.795,-76.6034 395.031,-68.51 477.115,-66.9738"/>
<polygon fill="midnightblue" stroke="midnightblue" points="477.417,-70.4696 487.36,-66.8111 477.306,-63.4704 477.417,-70.4696"/>
</g>
<!-- Node13 -->
<g id="node13" class="node"><title>Node13</title>
<polygon fill="white" stroke="#bfbfbf" points="831,-292.5 831,-311.5 871,-311.5 871,-292.5 831,-292.5"/>
<text text-anchor="middle" x="851" y="-299.5" font-family="Helvetica,sans-Serif" font-size="10.00">limits</text>
</g>
<!-- Node12&#45;&gt;Node13 -->
<g id="edge13" class="edge"><title>Node12&#45;&gt;Node13</title>
<path fill="none" stroke="midnightblue" d="M835.972,-348.083C838.384,-340.849 841.864,-330.409 844.868,-321.397"/>
<polygon fill="midnightblue" stroke="midnightblue" points="848.241,-322.345 848.083,-311.751 841.6,-320.131 848.241,-322.345"/>
</g>
<!-- Node14 -->
<g id="node14" class="node"><title>Node14</title>
<g id="a_node14"><a xlink:href="Index_8inl.html" target="_top" xlink:title="Core/Index/Index.inl">
<polygon fill="white" stroke="black" points="709,-292.5 709,-311.5 813,-311.5 813,-292.5 709,-292.5"/>
<text text-anchor="middle" x="761" y="-299.5" font-family="Helvetica,sans-Serif" font-size="10.00">Core/Index/Index.inl</text>
</a>
</g>
</g>
<!-- Node12&#45;&gt;Node14 -->
<g id="edge14" class="edge"><title>Node12&#45;&gt;Node14</title>
<path fill="none" stroke="midnightblue" d="M821.432,-348.324C810.58,-340.185 794.119,-327.839 781.117,-318.087"/>
<polygon fill="midnightblue" stroke="midnightblue" points="782.879,-315.034 772.779,-311.834 778.679,-320.634 782.879,-315.034"/>
</g>
<!-- Node17&#45;&gt;Node3 -->
<g id="edge18" class="edge"><title>Node17&#45;&gt;Node3</title>
<path fill="none" stroke="midnightblue" d="M943.469,-348.562C838.169,-338.052 659.995,-320.268 560.245,-310.311"/>
<polygon fill="midnightblue" stroke="midnightblue" points="560.549,-306.824 550.251,-309.313 559.854,-313.789 560.549,-306.824"/>
</g>
<!-- Node18 -->
<g id="node18" class="node"><title>Node18</title>
<g id="a_node18"><a xlink:href="Renderer_8hpp.html" target="_top" xlink:title="Engine/Renderer/Renderer.hpp">
<polygon fill="white" stroke="black" points="1015.5,-292.5 1015.5,-311.5 1166.5,-311.5 1166.5,-292.5 1015.5,-292.5"/>
<text text-anchor="middle" x="1091" y="-299.5" font-family="Helvetica,sans-Serif" font-size="10.00">Engine/Renderer/Renderer.hpp</text>
</a>
</g>
</g>
<!-- Node17&#45;&gt;Node18 -->
<g id="edge19" class="edge"><title>Node17&#45;&gt;Node18</title>
<path fill="none" stroke="midnightblue" d="M1038.12,-348.324C1047.53,-340.263 1061.74,-328.077 1073.07,-318.369"/>
<polygon fill="midnightblue" stroke="midnightblue" points="1075.38,-320.999 1080.69,-311.834 1070.82,-315.684 1075.38,-320.999"/>
</g>
<!-- Node37 -->
<g id="node37" class="node"><title>Node37</title>
<polygon fill="white" stroke="#bfbfbf" points="944.5,-292.5 944.5,-311.5 997.5,-311.5 997.5,-292.5 944.5,-292.5"/>
<text text-anchor="middle" x="971" y="-299.5" font-family="Helvetica,sans-Serif" font-size="10.00">QObject</text>
</g>
<!-- Node17&#45;&gt;Node37 -->
<g id="edge46" class="edge"><title>Node17&#45;&gt;Node37</title>
<path fill="none" stroke="midnightblue" d="M1018.84,-348.324C1010.5,-340.42 997.968,-328.548 987.823,-318.938"/>
<polygon fill="midnightblue" stroke="midnightblue" points="989.991,-316.171 980.325,-311.834 985.177,-321.252 989.991,-316.171"/>
</g>
<!-- Node18&#45;&gt;Node11 -->
<g id="edge20" class="edge"><title>Node18&#45;&gt;Node11</title>
<path fill="none" stroke="midnightblue" d="M1015.46,-292.949C1012.27,-292.625 1009.1,-292.307 1006,-292 855.333,-277.063 678.279,-261.102 584.697,-252.79"/>
<polygon fill="midnightblue" stroke="midnightblue" points="584.8,-249.286 574.53,-251.888 584.181,-256.258 584.8,-249.286"/>
</g>
<!-- Node18&#45;&gt;Node16 -->
<g id="edge25" class="edge"><title>Node18&#45;&gt;Node16</title>
<path fill="none" stroke="midnightblue" d="M1032.63,-292.482C983.24,-284.86 910.416,-272.658 838.426,-256.137"/>
<polygon fill="midnightblue" stroke="midnightblue" points="838.809,-252.632 828.276,-253.777 837.223,-259.451 838.809,-252.632"/>
</g>
<!-- Node19 -->
<g id="node19" class="node"><title>Node19</title>
<polygon fill="white" stroke="#bfbfbf" points="1072,-236.5 1072,-255.5 1110,-255.5 1110,-236.5 1072,-236.5"/>
<text text-anchor="middle" x="1091" y="-243.5" font-family="Helvetica,sans-Serif" font-size="10.00">array</text>
</g>
<!-- Node18&#45;&gt;Node19 -->
<g id="edge21" class="edge"><title>Node18&#45;&gt;Node19</title>
<path fill="none" stroke="midnightblue" d="M1091,-292.083C1091,-285.006 1091,-274.861 1091,-265.986"/>
<polygon fill="midnightblue" stroke="midnightblue" points="1094.5,-265.751 1091,-255.751 1087.5,-265.751 1094.5,-265.751"/>
</g>
<!-- Node20 -->
<g id="node20" class="node"><title>Node20</title>
<polygon fill="white" stroke="#bfbfbf" points="1368,-174.5 1368,-193.5 1414,-193.5 1414,-174.5 1368,-174.5"/>
<text text-anchor="middle" x="1391" y="-181.5" font-family="Helvetica,sans-Serif" font-size="10.00">chrono</text>
</g>
<!-- Node18&#45;&gt;Node20 -->
<g id="edge22" class="edge"><title>Node18&#45;&gt;Node20</title>
<path fill="none" stroke="midnightblue" d="M1108.08,-292.402C1126,-283.367 1155.01,-268.728 1180,-256 1197.36,-247.161 1200.79,-242.913 1219,-236 1279.07,-213.201 1298.54,-221.729 1359,-200 1360.91,-199.315 1362.85,-198.558 1364.8,-197.758"/>
<polygon fill="midnightblue" stroke="midnightblue" points="1366.58,-200.793 1374.31,-193.542 1363.75,-194.394 1366.58,-200.793"/>
</g>
<!-- Node21 -->
<g id="node21" class="node"><title>Node21</title>
<polygon fill="white" stroke="#bfbfbf" points="182,-236.5 182,-255.5 234,-255.5 234,-236.5 182,-236.5"/>
<text text-anchor="middle" x="208" y="-243.5" font-family="Helvetica,sans-Serif" font-size="10.00">memory</text>
</g>
<!-- Node18&#45;&gt;Node21 -->
<g id="edge23" class="edge"><title>Node18&#45;&gt;Node21</title>
<path fill="none" stroke="midnightblue" d="M1015.48,-292.772C1012.28,-292.497 1009.11,-292.238 1006,-292 670.805,-266.369 580.464,-305.754 244.273,-255.867"/>
<polygon fill="midnightblue" stroke="midnightblue" points="244.663,-252.387 234.255,-254.365 243.625,-259.31 244.663,-252.387"/>
</g>
<!-- Node22 -->
<g id="node22" class="node"><title>Node22</title>
<polygon fill="white" stroke="#bfbfbf" points="1128,-236.5 1128,-255.5 1172,-255.5 1172,-236.5 1128,-236.5"/>
<text text-anchor="middle" x="1150" y="-243.5" font-family="Helvetica,sans-Serif" font-size="10.00">mutex</text>
</g>
<!-- Node18&#45;&gt;Node22 -->
<g id="edge24" class="edge"><title>Node18&#45;&gt;Node22</title>
<path fill="none" stroke="midnightblue" d="M1100.48,-292.324C1109.2,-284.341 1122.34,-272.313 1132.9,-262.653"/>
<polygon fill="midnightblue" stroke="midnightblue" points="1135.33,-265.167 1140.35,-255.834 1130.61,-260.004 1135.33,-265.167"/>
</g>
<!-- Node23 -->
<g id="node23" class="node"><title>Node23</title>
<g id="a_node23"><a xlink:href="EventEnums_8hpp.html" target="_top" xlink:title="Core/Event/EventEnums.hpp">
<polygon fill="white" stroke="black" points="1206,-174.5 1206,-193.5 1350,-193.5 1350,-174.5 1206,-174.5"/>
<text text-anchor="middle" x="1278" y="-181.5" font-family="Helvetica,sans-Serif" font-size="10.00">Core/Event/EventEnums.hpp</text>
</a>
</g>
</g>
<!-- Node18&#45;&gt;Node23 -->
<g id="edge26" class="edge"><title>Node18&#45;&gt;Node23</title>
<path fill="none" stroke="midnightblue" d="M1081.86,-292.244C1069.13,-278.995 1049.13,-253.543 1063,-236 1072.73,-223.696 1157.77,-206.299 1217.93,-195.338"/>
<polygon fill="midnightblue" stroke="midnightblue" points="1218.88,-198.723 1228.1,-193.502 1217.64,-191.834 1218.88,-198.723"/>
</g>
<!-- Node25 -->
<g id="node25" class="node"><title>Node25</title>
<g id="a_node25"><a xlink:href="LinearAlgebra_8hpp.html" target="_top" xlink:title="Core/Math/LinearAlgebra.hpp">
<polygon fill="white" stroke="black" points="846.5,-236.5 846.5,-255.5 989.5,-255.5 989.5,-236.5 846.5,-236.5"/>
<text text-anchor="middle" x="918" y="-243.5" font-family="Helvetica,sans-Serif" font-size="10.00">Core/Math/LinearAlgebra.hpp</text>
</a>
</g>
</g>
<!-- Node18&#45;&gt;Node25 -->
<g id="edge29" class="edge"><title>Node18&#45;&gt;Node25</title>
<path fill="none" stroke="midnightblue" d="M1063.59,-292.444C1034.23,-283.28 987.481,-268.688 954.904,-258.519"/>
<polygon fill="midnightblue" stroke="midnightblue" points="955.873,-255.155 945.284,-255.516 953.787,-261.837 955.873,-255.155"/>
</g>
<!-- Node36 -->
<g id="node36" class="node"><title>Node36</title>
<g id="a_node36"><a xlink:href="Timer_8hpp.html" target="_top" xlink:title="Core/Time/Timer.hpp">
<polygon fill="white" stroke="black" points="1228.5,-236.5 1228.5,-255.5 1337.5,-255.5 1337.5,-236.5 1228.5,-236.5"/>
<text text-anchor="middle" x="1283" y="-243.5" font-family="Helvetica,sans-Serif" font-size="10.00">Core/Time/Timer.hpp</text>
</a>
</g>
</g>
<!-- Node18&#45;&gt;Node36 -->
<g id="edge43" class="edge"><title>Node18&#45;&gt;Node36</title>
<path fill="none" stroke="midnightblue" d="M1121.42,-292.444C1154.28,-283.201 1206.78,-268.436 1242.97,-258.257"/>
<polygon fill="midnightblue" stroke="midnightblue" points="1244.04,-261.593 1252.72,-255.516 1242.15,-254.855 1244.04,-261.593"/>
</g>
<!-- Node24 -->
<g id="node24" class="node"><title>Node24</title>
<g id="a_node24"><a xlink:href="RaCore_8hpp.html" target="_top" xlink:title="Core/RaCore.hpp">
<polygon fill="white" stroke="black" points="1181.5,-112.5 1181.5,-131.5 1274.5,-131.5 1274.5,-112.5 1181.5,-112.5"/>
<text text-anchor="middle" x="1228" y="-119.5" font-family="Helvetica,sans-Serif" font-size="10.00">Core/RaCore.hpp</text>
</a>
</g>
</g>
<!-- Node23&#45;&gt;Node24 -->
<g id="edge27" class="edge"><title>Node23&#45;&gt;Node24</title>
<path fill="none" stroke="midnightblue" d="M1270.84,-174.403C1263.26,-165.314 1251.13,-150.756 1241.71,-139.449"/>
<polygon fill="midnightblue" stroke="midnightblue" points="1244.24,-137.022 1235.15,-131.581 1238.86,-141.503 1244.24,-137.022"/>
</g>
<!-- Node24&#45;&gt;Node4 -->
<g id="edge28" class="edge"><title>Node24&#45;&gt;Node4</title>
<path fill="none" stroke="midnightblue" d="M1181.26,-117.31C1062.52,-107.936 748.958,-83.1809 610.886,-72.2804"/>
<polygon fill="midnightblue" stroke="midnightblue" points="611.1,-68.7865 600.855,-71.4886 610.549,-75.7648 611.1,-68.7865"/>
</g>
<!-- Node25&#45;&gt;Node24 -->
<g id="edge30" class="edge"><title>Node25&#45;&gt;Node24</title>
<path fill="none" stroke="midnightblue" d="M989.522,-243.454C1039.5,-239.638 1106.27,-228.878 1158,-200 1183.79,-185.601 1205.19,-158.186 1217.29,-140.255"/>
<polygon fill="midnightblue" stroke="midnightblue" points="1220.23,-142.154 1222.74,-131.861 1214.36,-138.34 1220.23,-142.154"/>
</g>
<!-- Node26 -->
<g id="node26" class="node"><title>Node26</title>
<polygon fill="white" stroke="#bfbfbf" points="979.5,-174.5 979.5,-193.5 1044.5,-193.5 1044.5,-174.5 979.5,-174.5"/>
<text text-anchor="middle" x="1012" y="-181.5" font-family="Helvetica,sans-Serif" font-size="10.00">Eigen/Core</text>
</g>
<!-- Node25&#45;&gt;Node26 -->
<g id="edge31" class="edge"><title>Node25&#45;&gt;Node26</title>
<path fill="none" stroke="midnightblue" d="M931.468,-236.403C946.685,-226.691 971.687,-210.732 989.801,-199.17"/>
<polygon fill="midnightblue" stroke="midnightblue" points="992.011,-201.911 998.557,-193.581 988.245,-196.011 992.011,-201.911"/>
</g>
<!-- Node27 -->
<g id="node27" class="node"><title>Node27</title>
<polygon fill="white" stroke="#bfbfbf" points="1062.5,-174.5 1062.5,-193.5 1149.5,-193.5 1149.5,-174.5 1062.5,-174.5"/>
<text text-anchor="middle" x="1106" y="-181.5" font-family="Helvetica,sans-Serif" font-size="10.00">Eigen/Geometry</text>
</g>
<!-- Node25&#45;&gt;Node27 -->
<g id="edge32" class="edge"><title>Node25&#45;&gt;Node27</title>
<path fill="none" stroke="midnightblue" d="M944.936,-236.403C977.603,-225.978 1032.82,-208.356 1069.34,-196.699"/>
<polygon fill="midnightblue" stroke="midnightblue" points="1070.65,-199.955 1079.11,-193.581 1068.52,-193.287 1070.65,-199.955"/>
</g>
<!-- Node28 -->
<g id="node28" class="node"><title>Node28</title>
<polygon fill="white" stroke="#bfbfbf" points="503.5,-174.5 503.5,-193.5 578.5,-193.5 578.5,-174.5 503.5,-174.5"/>
<text text-anchor="middle" x="541" y="-181.5" font-family="Helvetica,sans-Serif" font-size="10.00">Eigen/Sparse</text>
</g>
<!-- Node25&#45;&gt;Node28 -->
<g id="edge33" class="edge"><title>Node25&#45;&gt;Node28</title>
<path fill="none" stroke="midnightblue" d="M846.213,-236.775C764.101,-227.096 634.838,-210.958 587,-200 582.855,-199.051 578.55,-197.89 574.311,-196.639"/>
<polygon fill="midnightblue" stroke="midnightblue" points="575.235,-193.261 564.646,-193.613 573.143,-199.941 575.235,-193.261"/>
</g>
<!-- Node29 -->
<g id="node29" class="node"><title>Node29</title>
<polygon fill="white" stroke="#bfbfbf" points="596.5,-174.5 596.5,-193.5 655.5,-193.5 655.5,-174.5 596.5,-174.5"/>
<text text-anchor="middle" x="626" y="-181.5" font-family="Helvetica,sans-Serif" font-size="10.00">functional</text>
</g>
<!-- Node25&#45;&gt;Node29 -->
<g id="edge34" class="edge"><title>Node25&#45;&gt;Node29</title>
<path fill="none" stroke="midnightblue" d="M848.157,-236.474C796.65,-229.261 725.192,-217.309 664,-200 661.025,-199.158 657.961,-198.169 654.925,-197.105"/>
<polygon fill="midnightblue" stroke="midnightblue" points="656.056,-193.791 645.464,-193.55 653.594,-200.344 656.056,-193.791"/>
</g>
<!-- Node30 -->
<g id="node30" class="node"><title>Node30</title>
<polygon fill="white" stroke="#bfbfbf" points="673.5,-169 673.5,-199 806.5,-199 806.5,-169 673.5,-169"/>
<text text-anchor="start" x="681.5" y="-187" font-family="Helvetica,sans-Serif" font-size="10.00">unsupported/Eigen/Aligned</text>
<text text-anchor="middle" x="740" y="-176" font-family="Helvetica,sans-Serif" font-size="10.00">Vector3</text>
</g>
<!-- Node25&#45;&gt;Node30 -->
<g id="edge35" class="edge"><title>Node25&#45;&gt;Node30</title>
<path fill="none" stroke="midnightblue" d="M892.497,-236.403C866.161,-227.526 824.348,-213.432 791.161,-202.245"/>
<polygon fill="midnightblue" stroke="midnightblue" points="792.203,-198.903 781.608,-199.025 789.967,-205.536 792.203,-198.903"/>
</g>
<!-- Node31 -->
<g id="node31" class="node"><title>Node31</title>
<g id="a_node31"><a xlink:href="Math_8hpp.html" target="_top" xlink:title="Core/Math/Math.hpp">
<polygon fill="white" stroke="black" points="238,-174.5 238,-193.5 344,-193.5 344,-174.5 238,-174.5"/>
<text text-anchor="middle" x="291" y="-181.5" font-family="Helvetica,sans-Serif" font-size="10.00">Core/Math/Math.hpp</text>
</a>
</g>
</g>
<!-- Node25&#45;&gt;Node31 -->
<g id="edge36" class="edge"><title>Node25&#45;&gt;Node31</title>
<path fill="none" stroke="midnightblue" d="M846.46,-236.999C842.924,-236.651 839.423,-236.315 836,-236 621.645,-216.254 565.652,-233.42 353,-200 346.164,-198.926 338.972,-197.482 332.004,-195.914"/>
<polygon fill="midnightblue" stroke="midnightblue" points="332.561,-192.449 322.024,-193.555 330.95,-199.261 332.561,-192.449"/>
</g>
<!-- Node35 -->
<g id="node35" class="node"><title>Node35</title>
<g id="a_node35"><a xlink:href="LinearAlgebra_8inl.html" target="_top" xlink:title="Core/Math/LinearAlgebra.inl">
<polygon fill="white" stroke="black" points="824.5,-174.5 824.5,-193.5 961.5,-193.5 961.5,-174.5 824.5,-174.5"/>
<text text-anchor="middle" x="893" y="-181.5" font-family="Helvetica,sans-Serif" font-size="10.00">Core/Math/LinearAlgebra.inl</text>
</a>
</g>
</g>
<!-- Node25&#45;&gt;Node35 -->
<g id="edge42" class="edge"><title>Node25&#45;&gt;Node35</title>
<path fill="none" stroke="midnightblue" d="M914.418,-236.403C910.817,-227.76 905.154,-214.17 900.556,-203.134"/>
<polygon fill="midnightblue" stroke="midnightblue" points="903.652,-201.465 896.575,-193.581 897.191,-204.158 903.652,-201.465"/>
</g>
<!-- Node31&#45;&gt;Node24 -->
<g id="edge37" class="edge"><title>Node31&#45;&gt;Node24</title>
<path fill="none" stroke="midnightblue" d="M321.369,-174.46C331.367,-171.97 342.589,-169.514 353,-168 659.188,-123.483 1031.22,-121.299 1171.16,-122.281"/>
<polygon fill="midnightblue" stroke="midnightblue" points="1171.19,-125.781 1181.22,-122.36 1171.25,-118.781 1171.19,-125.781"/>
</g>
<!-- Node32 -->
<g id="node32" class="node"><title>Node32</title>
<polygon fill="white" stroke="#bfbfbf" points="358,-112.5 358,-131.5 414,-131.5 414,-112.5 358,-112.5"/>
<text text-anchor="middle" x="386" y="-119.5" font-family="Helvetica,sans-Serif" font-size="10.00">algorithm</text>
</g>
<!-- Node31&#45;&gt;Node32 -->
<g id="edge38" class="edge"><title>Node31&#45;&gt;Node32</title>
<path fill="none" stroke="midnightblue" d="M304.611,-174.403C320.061,-164.646 345.49,-148.585 363.816,-137.011"/>
<polygon fill="midnightblue" stroke="midnightblue" points="365.828,-139.88 372.414,-131.581 362.09,-133.961 365.828,-139.88"/>
</g>
<!-- Node33 -->
<g id="node33" class="node"><title>Node33</title>
<polygon fill="white" stroke="#bfbfbf" points="432,-112.5 432,-131.5 476,-131.5 476,-112.5 432,-112.5"/>
<text text-anchor="middle" x="454" y="-119.5" font-family="Helvetica,sans-Serif" font-size="10.00">cmath</text>
</g>
<!-- Node31&#45;&gt;Node33 -->
<g id="edge39" class="edge"><title>Node31&#45;&gt;Node33</title>
<path fill="none" stroke="midnightblue" d="M314.354,-174.403C342.711,-163.965 390.665,-146.313 422.331,-134.657"/>
<polygon fill="midnightblue" stroke="midnightblue" points="423.819,-137.839 431.995,-131.1 421.401,-131.27 423.819,-137.839"/>
</g>
<!-- Node34 -->
<g id="node34" class="node"><title>Node34</title>
<g id="a_node34"><a xlink:href="Math_8inl.html" target="_top" xlink:title="Core/Math/Math.inl">
<polygon fill="white" stroke="black" points="240,-112.5 240,-131.5 340,-131.5 340,-112.5 240,-112.5"/>
<text text-anchor="middle" x="290" y="-119.5" font-family="Helvetica,sans-Serif" font-size="10.00">Core/Math/Math.inl</text>
</a>
</g>
</g>
<!-- Node31&#45;&gt;Node34 -->
<g id="edge40" class="edge"><title>Node31&#45;&gt;Node34</title>
<path fill="none" stroke="midnightblue" d="M285.956,-174.403C283.984,-165.938 283.292,-152.728 283.999,-141.82"/>
<polygon fill="midnightblue" stroke="midnightblue" points="287.511,-141.93 285.246,-131.581 280.562,-141.084 287.511,-141.93"/>
</g>
<!-- Node34&#45;&gt;Node31 -->
<g id="edge41" class="edge"><title>Node34&#45;&gt;Node31</title>
<path fill="none" stroke="midnightblue" d="M295.04,-131.581C297.014,-140.04 297.707,-153.248 297.003,-164.16"/>
<polygon fill="midnightblue" stroke="midnightblue" points="293.49,-164.054 295.757,-174.403 300.438,-164.899 293.49,-164.054"/>
</g>
<!-- Node36&#45;&gt;Node20 -->
<g id="edge45" class="edge"><title>Node36&#45;&gt;Node20</title>
<path fill="none" stroke="midnightblue" d="M1298.47,-236.403C1316.28,-226.512 1345.74,-210.144 1366.63,-198.538"/>
<polygon fill="midnightblue" stroke="midnightblue" points="1368.51,-201.497 1375.55,-193.581 1365.11,-195.378 1368.51,-201.497"/>
</g>
<!-- Node36&#45;&gt;Node24 -->
<g id="edge44" class="edge"><title>Node36&#45;&gt;Node24</title>
<path fill="none" stroke="midnightblue" d="M1333.83,-236.405C1384.7,-225.583 1451.58,-203.927 1423,-168 1405.97,-146.588 1336.08,-134.49 1284.83,-128.35"/>
<polygon fill="midnightblue" stroke="midnightblue" points="1285.18,-124.867 1274.84,-127.2 1284.38,-131.821 1285.18,-124.867"/>
</g>
<!-- Node39&#45;&gt;Node3 -->
<g id="edge49" class="edge"><title>Node39&#45;&gt;Node3</title>
<path fill="none" stroke="midnightblue" d="M331.83,-460.925C362.934,-429.268 438.25,-352.616 471.163,-319.118"/>
<polygon fill="midnightblue" stroke="midnightblue" points="474.053,-321.171 478.565,-311.585 469.06,-316.265 474.053,-321.171"/>
</g>
<!-- Node39&#45;&gt;Node10 -->
<g id="edge50" class="edge"><title>Node39&#45;&gt;Node10</title>
<path fill="none" stroke="midnightblue" d="M383.8,-461.551C386.906,-461.007 389.985,-460.487 393,-460 486.16,-444.963 593.412,-432.289 667.432,-424.262"/>
<polygon fill="midnightblue" stroke="midnightblue" points="668.084,-427.713 677.651,-423.161 667.334,-420.753 668.084,-427.713"/>
</g>
<!-- Node39&#45;&gt;Node40 -->
<g id="edge51" class="edge"><title>Node39&#45;&gt;Node40</title>
<path fill="none" stroke="midnightblue" d="M322.625,-460.974C329.73,-437.231 341.377,-387.821 330,-348 327.098,-337.844 321.168,-327.747 315.51,-319.699"/>
<polygon fill="midnightblue" stroke="midnightblue" points="318.219,-317.479 309.412,-311.589 312.624,-321.685 318.219,-317.479"/>
</g>
<!-- Node43 -->
<g id="node43" class="node"><title>Node43</title>
<g id="a_node43"><a xlink:href="TreeModel_8hpp.html" target="_top" xlink:title="GuiBase/TreeModel/TreeModel.hpp">
<polygon fill="white" stroke="black" points="151,-348.5 151,-367.5 321,-367.5 321,-348.5 151,-348.5"/>
<text text-anchor="middle" x="236" y="-355.5" font-family="Helvetica,sans-Serif" font-size="10.00">GuiBase/TreeModel/TreeModel.hpp</text>
</a>
</g>
</g>
<!-- Node39&#45;&gt;Node43 -->
<g id="edge59" class="edge"><title>Node39&#45;&gt;Node43</title>
<path fill="none" stroke="midnightblue" d="M307.945,-460.776C292.835,-439.401 264.318,-399.06 248.094,-376.108"/>
<polygon fill="midnightblue" stroke="midnightblue" points="250.785,-373.852 242.155,-367.707 245.069,-377.893 250.785,-373.852"/>
</g>
<!-- Node40&#45;&gt;Node11 -->
<g id="edge52" class="edge"><title>Node40&#45;&gt;Node11</title>
<path fill="none" stroke="midnightblue" d="M336.384,-292.444C373.922,-283.102 434.131,-268.119 475.067,-257.933"/>
<polygon fill="midnightblue" stroke="midnightblue" points="475.918,-261.328 484.777,-255.516 474.227,-254.535 475.918,-261.328"/>
</g>
<!-- Node40&#45;&gt;Node15 -->
<g id="edge57" class="edge"><title>Node40&#45;&gt;Node15</title>
<path fill="none" stroke="midnightblue" d="M368.293,-295.265C383.622,-294.065 399.873,-292.895 415,-292 825.035,-267.754 935.762,-323.132 1345.14,-255.649"/>
<polygon fill="midnightblue" stroke="midnightblue" points="1345.89,-259.073 1355.18,-253.98 1344.74,-252.168 1345.89,-259.073"/>
</g>
<!-- Node40&#45;&gt;Node16 -->
<g id="edge58" class="edge"><title>Node40&#45;&gt;Node16</title>
<path fill="none" stroke="midnightblue" d="M368.351,-293.503C372.97,-292.991 377.554,-292.486 382,-292 528.286,-276.009 703.057,-257.717 773.86,-250.341"/>
<polygon fill="midnightblue" stroke="midnightblue" points="774.341,-253.81 783.925,-249.293 773.616,-246.848 774.341,-253.81"/>
</g>
<!-- Node40&#45;&gt;Node21 -->
<g id="edge56" class="edge"><title>Node40&#45;&gt;Node21</title>
<path fill="none" stroke="midnightblue" d="M286.897,-292.324C272.097,-283.822 249.306,-270.729 232.018,-260.797"/>
<polygon fill="midnightblue" stroke="midnightblue" points="233.48,-257.601 223.065,-255.655 229.993,-263.671 233.48,-257.601"/>
</g>
<!-- Node41 -->
<g id="node41" class="node"><title>Node41</title>
<g id="a_node41"><a xlink:href="Singleton_8hpp.html" target="_top" xlink:title="Core/Utils/Singleton.hpp">
<polygon fill="white" stroke="black" points="362.5,-174.5 362.5,-193.5 485.5,-193.5 485.5,-174.5 362.5,-174.5"/>
<text text-anchor="middle" x="424" y="-181.5" font-family="Helvetica,sans-Serif" font-size="10.00">Core/Utils/Singleton.hpp</text>
</a>
</g>
</g>
<!-- Node40&#45;&gt;Node41 -->
<g id="edge53" class="edge"><title>Node40&#45;&gt;Node41</title>
<path fill="none" stroke="midnightblue" d="M311.17,-292.281C331.671,-272.788 381.456,-225.452 407.501,-200.688"/>
<polygon fill="midnightblue" stroke="midnightblue" points="410.22,-202.932 415.055,-193.505 405.397,-197.859 410.22,-202.932"/>
</g>
<!-- Node42 -->
<g id="node42" class="node"><title>Node42</title>
<polygon fill="white" stroke="#bfbfbf" points="252.5,-236.5 252.5,-255.5 287.5,-255.5 287.5,-236.5 252.5,-236.5"/>
<text text-anchor="middle" x="270" y="-243.5" font-family="Helvetica,sans-Serif" font-size="10.00">map</text>
</g>
<!-- Node40&#45;&gt;Node42 -->
<g id="edge55" class="edge"><title>Node40&#45;&gt;Node42</title>
<path fill="none" stroke="midnightblue" d="M296.716,-292.083C292.289,-284.613 285.837,-273.724 280.382,-264.52"/>
<polygon fill="midnightblue" stroke="midnightblue" points="283.295,-262.57 275.186,-255.751 277.273,-266.138 283.295,-262.57"/>
</g>
<!-- Node41&#45;&gt;Node24 -->
<g id="edge54" class="edge"><title>Node41&#45;&gt;Node24</title>
<path fill="none" stroke="midnightblue" d="M458.712,-174.487C469.913,-172.03 482.425,-169.586 494,-168 744.728,-133.648 1047.25,-125.514 1171.03,-123.592"/>
<polygon fill="midnightblue" stroke="midnightblue" points="1171.44,-127.087 1181.39,-123.44 1171.34,-120.088 1171.44,-127.087"/>
</g>
<!-- Node43&#45;&gt;Node3 -->
<g id="edge60" class="edge"><title>Node43&#45;&gt;Node3</title>
<path fill="none" stroke="midnightblue" d="M275.772,-348.444C319.558,-339.023 390.014,-323.866 437.38,-313.675"/>
<polygon fill="midnightblue" stroke="midnightblue" points="438.374,-317.041 447.414,-311.516 436.902,-310.198 438.374,-317.041"/>
</g>
<!-- Node43&#45;&gt;Node16 -->
<g id="edge62" class="edge"><title>Node43&#45;&gt;Node16</title>
<path fill="none" stroke="midnightblue" d="M268.215,-348.464C297.174,-340.383 340.62,-327.24 377,-312 394.603,-304.626 396.765,-297.632 415,-292 543.592,-252.288 705.765,-247.046 773.724,-246.74"/>
<polygon fill="midnightblue" stroke="midnightblue" points="773.807,-250.24 783.803,-246.729 773.799,-243.24 773.807,-250.24"/>
</g>
<!-- Node43&#45;&gt;Node21 -->
<g id="edge61" class="edge"><title>Node43&#45;&gt;Node21</title>
<path fill="none" stroke="midnightblue" d="M233.803,-348.368C229.284,-330.617 218.861,-289.666 212.734,-265.597"/>
<polygon fill="midnightblue" stroke="midnightblue" points="216.046,-264.419 210.187,-255.591 209.262,-266.146 216.046,-264.419"/>
</g>
<!-- Node44 -->
<g id="node44" class="node"><title>Node44</title>
<polygon fill="white" stroke="#bfbfbf" points="-0.5,-292.5 -0.5,-311.5 106.5,-311.5 106.5,-292.5 -0.5,-292.5"/>
<text text-anchor="middle" x="53" y="-299.5" font-family="Helvetica,sans-Serif" font-size="10.00">QAbstractItemModel</text>
</g>
<!-- Node43&#45;&gt;Node44 -->
<g id="edge63" class="edge"><title>Node43&#45;&gt;Node44</title>
<path fill="none" stroke="midnightblue" d="M207.003,-348.444C175.815,-339.241 126.07,-324.562 91.5925,-314.388"/>
<polygon fill="midnightblue" stroke="midnightblue" points="92.443,-310.99 81.8612,-311.516 90.4618,-317.704 92.443,-310.99"/>
</g>
<!-- Node45 -->
<g id="node45" class="node"><title>Node45</title>
<polygon fill="white" stroke="#bfbfbf" points="124.5,-292.5 124.5,-311.5 179.5,-311.5 179.5,-292.5 124.5,-292.5"/>
<text text-anchor="middle" x="152" y="-299.5" font-family="Helvetica,sans-Serif" font-size="10.00">QVariant</text>
</g>
<!-- Node43&#45;&gt;Node45 -->
<g id="edge64" class="edge"><title>Node43&#45;&gt;Node45</title>
<path fill="none" stroke="midnightblue" d="M222.504,-348.324C209.4,-339.9 189.288,-326.971 173.893,-317.074"/>
<polygon fill="midnightblue" stroke="midnightblue" points="175.767,-314.118 165.463,-311.655 171.982,-320.006 175.767,-314.118"/>
</g>
<!-- Node47&#45;&gt;Node8 -->
<g id="edge68" class="edge"><title>Node47&#45;&gt;Node8</title>
<path fill="none" stroke="midnightblue" d="M1565.02,-353.231C1595.85,-348.357 1634.96,-337.249 1660,-312 1681.28,-290.538 1680,-277.225 1680,-247 1680,-247 1680,-247 1680,-121 1680,-58.8781 1468.92,-26.0089 1382.36,-15.1419"/>
<polygon fill="midnightblue" stroke="midnightblue" points="1382.56,-11.6397 1372.21,-13.8965 1381.71,-18.5877 1382.56,-11.6397"/>
</g>
<!-- Node47&#45;&gt;Node15 -->
<g id="edge70" class="edge"><title>Node47&#45;&gt;Node15</title>
<path fill="none" stroke="midnightblue" d="M1470.64,-351.031C1425.44,-344.245 1362.04,-331.511 1347,-312 1335.52,-297.111 1347.93,-276.961 1359.89,-263.063"/>
<polygon fill="midnightblue" stroke="midnightblue" points="1362.48,-265.412 1366.69,-255.689 1357.34,-260.665 1362.48,-265.412"/>
</g>
<!-- Node47&#45;&gt;Node24 -->
<g id="edge67" class="edge"><title>Node47&#45;&gt;Node24</title>
<path fill="none" stroke="midnightblue" d="M1518.34,-348.231C1519,-318.049 1516.82,-217.592 1462,-168 1436.52,-144.945 1345.55,-132.861 1284.84,-127.219"/>
<polygon fill="midnightblue" stroke="midnightblue" points="1284.89,-123.71 1274.62,-126.304 1284.27,-130.682 1284.89,-123.71"/>
</g>
<!-- Node48 -->
<g id="node48" class="node"><title>Node48</title>
<polygon fill="white" stroke="#bfbfbf" points="1546,-292.5 1546,-311.5 1592,-311.5 1592,-292.5 1546,-292.5"/>
<text text-anchor="middle" x="1569" y="-299.5" font-family="Helvetica,sans-Serif" font-size="10.00">stdio.h</text>
</g>
<!-- Node47&#45;&gt;Node48 -->
<g id="edge69" class="edge"><title>Node47&#45;&gt;Node48</title>
<path fill="none" stroke="midnightblue" d="M1526.42,-348.083C1533.85,-340.22 1544.85,-328.569 1553.81,-319.081"/>
<polygon fill="midnightblue" stroke="midnightblue" points="1556.41,-321.424 1560.74,-311.751 1551.32,-316.618 1556.41,-321.424"/>
</g>
<!-- Node49 -->
<g id="node49" class="node"><title>Node49</title>
<g id="a_node49"><a xlink:href="StringUtils_8hpp.html" target="_top" xlink:title="Core/String/StringUtils.hpp">
<polygon fill="white" stroke="black" points="1356,-292.5 1356,-311.5 1490,-311.5 1490,-292.5 1356,-292.5"/>
<text text-anchor="middle" x="1423" y="-299.5" font-family="Helvetica,sans-Serif" font-size="10.00">Core/String/StringUtils.hpp</text>
</a>
</g>
</g>
<!-- Node47&#45;&gt;Node49 -->
<g id="edge71" class="edge"><title>Node47&#45;&gt;Node49</title>
<path fill="none" stroke="midnightblue" d="M1502.74,-348.324C1487.78,-339.822 1464.75,-326.729 1447.27,-316.797"/>
<polygon fill="midnightblue" stroke="midnightblue" points="1448.65,-313.553 1438.23,-311.655 1445.19,-319.639 1448.65,-313.553"/>
</g>
<!-- Node50 -->
<g id="node50" class="node"><title>Node50</title>
<polygon fill="white" stroke="#bfbfbf" points="1610.5,-292.5 1610.5,-311.5 1651.5,-311.5 1651.5,-292.5 1610.5,-292.5"/>
<text text-anchor="middle" x="1631" y="-299.5" font-family="Helvetica,sans-Serif" font-size="10.00">ctime</text>
</g>
<!-- Node47&#45;&gt;Node50 -->
<g id="edge75" class="edge"><title>Node47&#45;&gt;Node50</title>
<path fill="none" stroke="midnightblue" d="M1535.91,-348.444C1554.25,-339.675 1583.01,-325.935 1604.09,-315.858"/>
<polygon fill="midnightblue" stroke="midnightblue" points="1605.67,-318.986 1613.18,-311.516 1602.65,-312.67 1605.67,-318.986"/>
</g>
<!-- Node49&#45;&gt;Node15 -->
<g id="edge73" class="edge"><title>Node49&#45;&gt;Node15</title>
<path fill="none" stroke="midnightblue" d="M1415.24,-292.083C1408.46,-284.298 1398.46,-272.801 1390.24,-263.367"/>
<polygon fill="midnightblue" stroke="midnightblue" points="1392.82,-260.996 1383.62,-255.751 1387.54,-265.592 1392.82,-260.996"/>
</g>
<!-- Node49&#45;&gt;Node16 -->
<g id="edge74" class="edge"><title>Node49&#45;&gt;Node16</title>
<path fill="none" stroke="midnightblue" d="M1355.97,-297.593C1228.02,-290.812 952.306,-274.792 838.405,-255.829"/>
<polygon fill="midnightblue" stroke="midnightblue" points="838.674,-252.323 828.22,-254.045 837.466,-259.218 838.674,-252.323"/>
</g>
<!-- Node49&#45;&gt;Node24 -->
<g id="edge72" class="edge"><title>Node49&#45;&gt;Node24</title>
<path fill="none" stroke="midnightblue" d="M1428.06,-292.365C1440.86,-269.301 1471.38,-205.465 1441,-168 1421.67,-144.162 1341.16,-132.46 1284.86,-127.088"/>
<polygon fill="midnightblue" stroke="midnightblue" points="1284.92,-123.58 1274.65,-126.158 1284.29,-130.551 1284.92,-123.58"/>
</g>
</g>
</svg>
