<?xml version="1.0" encoding="UTF-8" standalone="no"?>
<!DOCTYPE svg PUBLIC "-//W3C//DTD SVG 1.1//EN"
 "http://www.w3.org/Graphics/SVG/1.1/DTD/svg11.dtd">
<!-- Generated by graphviz version 2.36.0 (20140111.2315)
 -->
<!-- Title: /home/travis/build/STORM&#45;IRIT/Radium&#45;Engine/src/GuiBase/SelectionManager/SelectionManager.hpp Pages: 1 -->
<svg width="1099pt" height="152pt"
 viewBox="0.00 0.00 1099.00 152.00" xmlns="http://www.w3.org/2000/svg" xmlns:xlink="http://www.w3.org/1999/xlink">
<g id="graph0" class="graph" transform="scale(1 1) rotate(0) translate(4 148)">
<title>/home/travis/build/STORM&#45;IRIT/Radium&#45;Engine/src/GuiBase/SelectionManager/SelectionManager.hpp</title>
<polygon fill="white" stroke="none" points="-4,4 -4,-148 1095,-148 1095,4 -4,4"/>
<!-- Node1 -->
<g id="node1" class="node"><title>Node1</title>
<polygon fill="#bfbfbf" stroke="black" points="438.5,-91 438.5,-143 593.5,-143 593.5,-91 438.5,-91"/>
<text text-anchor="start" x="446.5" y="-131" font-family="Helvetica,sans-Serif" font-size="10.00">/home/travis/build</text>
<text text-anchor="start" x="446.5" y="-120" font-family="Helvetica,sans-Serif" font-size="10.00">/STORM&#45;IRIT/Radium&#45;Engine</text>
<text text-anchor="start" x="446.5" y="-109" font-family="Helvetica,sans-Serif" font-size="10.00">/src/GuiBase/SelectionManager</text>
<text text-anchor="middle" x="516" y="-98" font-family="Helvetica,sans-Serif" font-size="10.00">/SelectionManager.hpp</text>
</g>
<!-- Node2 -->
<g id="node2" class="node"><title>Node2</title>
<g id="a_node2"><a xlink:href="SelectionManager_8cpp.html" target="_top" xlink:title="/home/travis/build\l/STORM&#45;IRIT/Radium&#45;Engine\l/src/GuiBase/SelectionManager\l/SelectionManager.cpp">
<polygon fill="white" stroke="black" points="-0.5,-1 -0.5,-53 154.5,-53 154.5,-1 -0.5,-1"/>
<text text-anchor="start" x="7.5" y="-41" font-family="Helvetica,sans-Serif" font-size="10.00">/home/travis/build</text>
<text text-anchor="start" x="7.5" y="-30" font-family="Helvetica,sans-Serif" font-size="10.00">/STORM&#45;IRIT/Radium&#45;Engine</text>
<text text-anchor="start" x="7.5" y="-19" font-family="Helvetica,sans-Serif" font-size="10.00">/src/GuiBase/SelectionManager</text>
<text text-anchor="middle" x="77" y="-8" font-family="Helvetica,sans-Serif" font-size="10.00">/SelectionManager.cpp</text>
</a>
</g>
</g>
<!-- Node1&#45;&gt;Node2 -->
<g id="edge1" class="edge"><title>Node1&#45;&gt;Node2</title>
<path fill="none" stroke="midnightblue" d="M428.418,-103.603C356.623,-92.7267 252.608,-75.3337 163,-54 160.269,-53.3497 157.496,-52.6624 154.702,-51.9464"/>
<polygon fill="midnightblue" stroke="midnightblue" points="427.92,-107.067 438.329,-105.094 428.961,-100.145 427.92,-107.067"/>
</g>
<!-- Node3 -->
<g id="node3" class="node"><title>Node3</title>
<g id="a_node3"><a xlink:href="AnimationPlugin_8cpp.html" target="_top" xlink:title="/home/travis/build\l/STORM&#45;IRIT/Radium&#45;Engine\l/Plugins/Animation/src/Animation\lPlugin.cpp">
<polygon fill="white" stroke="black" points="172.5,-1 172.5,-53 333.5,-53 333.5,-1 172.5,-1"/>
<text text-anchor="start" x="180.5" y="-41" font-family="Helvetica,sans-Serif" font-size="10.00">/home/travis/build</text>
<text text-anchor="start" x="180.5" y="-30" font-family="Helvetica,sans-Serif" font-size="10.00">/STORM&#45;IRIT/Radium&#45;Engine</text>
<text text-anchor="start" x="180.5" y="-19" font-family="Helvetica,sans-Serif" font-size="10.00">/Plugins/Animation/src/Animation</text>
<text text-anchor="middle" x="253" y="-8" font-family="Helvetica,sans-Serif" font-size="10.00">Plugin.cpp</text>
</a>
</g>
</g>
<!-- Node1&#45;&gt;Node3 -->
<g id="edge2" class="edge"><title>Node1&#45;&gt;Node3</title>
<path fill="none" stroke="midnightblue" d="M431.299,-87.6588C398.099,-76.5501 360.322,-63.91 328.113,-53.1328"/>
<polygon fill="midnightblue" stroke="midnightblue" points="430.393,-91.0465 440.987,-90.9005 432.614,-84.4082 430.393,-91.0465"/>
</g>
<!-- Node4 -->
<g id="node4" class="node"><title>Node4</title>
<g id="a_node4"><a xlink:href="CameraManipPlugin_8cpp.html" target="_top" xlink:title="/home/travis/build\l/STORM&#45;IRIT/Radium&#45;Engine\l/Plugins/CameraManip/src\l/CameraManipPlugin.cpp">
<polygon fill="white" stroke="black" points="352,-1 352,-53 500,-53 500,-1 352,-1"/>
<text text-anchor="start" x="360" y="-41" font-family="Helvetica,sans-Serif" font-size="10.00">/home/travis/build</text>
<text text-anchor="start" x="360" y="-30" font-family="Helvetica,sans-Serif" font-size="10.00">/STORM&#45;IRIT/Radium&#45;Engine</text>
<text text-anchor="start" x="360" y="-19" font-family="Helvetica,sans-Serif" font-size="10.00">/Plugins/CameraManip/src</text>
<text text-anchor="middle" x="426" y="-8" font-family="Helvetica,sans-Serif" font-size="10.00">/CameraManipPlugin.cpp</text>
</a>
</g>
</g>
<!-- Node1&#45;&gt;Node4 -->
<g id="edge3" class="edge"><title>Node1&#45;&gt;Node4</title>
<path fill="none" stroke="midnightblue" d="M482.691,-83.4308C472.439,-73.4069 461.317,-62.5325 451.662,-53.0921"/>
<polygon fill="midnightblue" stroke="midnightblue" points="480.371,-86.0581 489.968,-90.5468 485.265,-81.053 480.371,-86.0581"/>
</g>
<!-- Node5 -->
<g id="node5" class="node"><title>Node5</title>
<g id="a_node5"><a xlink:href="MeshFeatureTrackingPlugin_8cpp.html" target="_top" xlink:title="/home/travis/build\l/STORM&#45;IRIT/Radium&#45;Engine\l/Plugins/MeshFeatureTracking\l/src/MeshFeatureTrackingPlugin.cpp">
<polygon fill="white" stroke="black" points="518,-1 518,-53 694,-53 694,-1 518,-1"/>
<text text-anchor="start" x="526" y="-41" font-family="Helvetica,sans-Serif" font-size="10.00">/home/travis/build</text>
<text text-anchor="start" x="526" y="-30" font-family="Helvetica,sans-Serif" font-size="10.00">/STORM&#45;IRIT/Radium&#45;Engine</text>
<text text-anchor="start" x="526" y="-19" font-family="Helvetica,sans-Serif" font-size="10.00">/Plugins/MeshFeatureTracking</text>
<text text-anchor="middle" x="606" y="-8" font-family="Helvetica,sans-Serif" font-size="10.00">/src/MeshFeatureTrackingPlugin.cpp</text>
</a>
</g>
</g>
<!-- Node1&#45;&gt;Node5 -->
<g id="edge4" class="edge"><title>Node1&#45;&gt;Node5</title>
<path fill="none" stroke="midnightblue" d="M549.309,-83.4308C559.561,-73.4069 570.683,-62.5325 580.338,-53.0921"/>
<polygon fill="midnightblue" stroke="midnightblue" points="546.735,-81.053 542.032,-90.5468 551.629,-86.0581 546.735,-81.053"/>
</g>
<!-- Node6 -->
<g id="node6" class="node"><title>Node6</title>
<g id="a_node6"><a xlink:href="MeshPaintPlugin_8cpp.html" target="_top" xlink:title="/home/travis/build\l/STORM&#45;IRIT/Radium&#45;Engine\l/Plugins/MeshPaint/src/MeshPaint\lPlugin.cpp">
<polygon fill="white" stroke="black" points="711.5,-1 711.5,-53 878.5,-53 878.5,-1 711.5,-1"/>
<text text-anchor="start" x="719.5" y="-41" font-family="Helvetica,sans-Serif" font-size="10.00">/home/travis/build</text>
<text text-anchor="start" x="719.5" y="-30" font-family="Helvetica,sans-Serif" font-size="10.00">/STORM&#45;IRIT/Radium&#45;Engine</text>
<text text-anchor="start" x="719.5" y="-19" font-family="Helvetica,sans-Serif" font-size="10.00">/Plugins/MeshPaint/src/MeshPaint</text>
<text text-anchor="middle" x="795" y="-8" font-family="Helvetica,sans-Serif" font-size="10.00">Plugin.cpp</text>
</a>
</g>
</g>
<!-- Node1&#45;&gt;Node6 -->
<g id="edge5" class="edge"><title>Node1&#45;&gt;Node6</title>
<path fill="none" stroke="midnightblue" d="M603.645,-88.3557C639.376,-77.0857 680.399,-64.1466 715.274,-53.1464"/>
<polygon fill="midnightblue" stroke="midnightblue" points="602.201,-85.1411 593.717,-91.4871 604.307,-91.8169 602.201,-85.1411"/>
</g>
<!-- Node7 -->
<g id="node7" class="node"><title>Node7</title>
<g id="a_node7"><a xlink:href="SkinningPlugin_8cpp.html" target="_top" xlink:title="/home/travis/build\l/STORM&#45;IRIT/Radium&#45;Engine\l/Plugins/Skinning/src/SkinningPlugin.cpp">
<polygon fill="white" stroke="black" points="896.5,-6.5 896.5,-47.5 1091.5,-47.5 1091.5,-6.5 896.5,-6.5"/>
<text text-anchor="start" x="904.5" y="-35.5" font-family="Helvetica,sans-Serif" font-size="10.00">/home/travis/build</text>
<text text-anchor="start" x="904.5" y="-24.5" font-family="Helvetica,sans-Serif" font-size="10.00">/STORM&#45;IRIT/Radium&#45;Engine</text>
<text text-anchor="middle" x="994" y="-13.5" font-family="Helvetica,sans-Serif" font-size="10.00">/Plugins/Skinning/src/SkinningPlugin.cpp</text>
</a>
</g>
</g>
<!-- Node1&#45;&gt;Node7 -->
<g id="edge6" class="edge"><title>Node1&#45;&gt;Node7</title>
<path fill="none" stroke="midnightblue" d="M603.687,-103.188C679.075,-91.7339 790.568,-73.7464 887,-54 896.551,-52.0441 906.544,-49.8357 916.422,-47.5529"/>
<polygon fill="midnightblue" stroke="midnightblue" points="603.12,-99.7339 593.756,-104.691 604.167,-106.655 603.12,-99.7339"/>
</g>
</g>
</svg>
