<?xml version="1.0" encoding="UTF-8" standalone="no"?>
<!DOCTYPE svg PUBLIC "-//W3C//DTD SVG 1.1//EN"
 "http://www.w3.org/Graphics/SVG/1.1/DTD/svg11.dtd">
<!-- Generated by graphviz version 2.36.0 (20140111.2315)
 -->
<!-- Title: /home/travis/build/STORM&#45;IRIT/Radium&#45;Engine/src/Engine/Managers/SignalManager/SignalManager.hpp Pages: 1 -->
<svg width="1185pt" height="522pt"
 viewBox="0.00 0.00 1185.00 522.00" xmlns="http://www.w3.org/2000/svg" xmlns:xlink="http://www.w3.org/1999/xlink">
<g id="graph0" class="graph" transform="scale(1 1) rotate(0) translate(4 518)">
<title>/home/travis/build/STORM&#45;IRIT/Radium&#45;Engine/src/Engine/Managers/SignalManager/SignalManager.hpp</title>
<polygon fill="white" stroke="none" points="-4,4 -4,-518 1181,-518 1181,4 -4,4"/>
<!-- Node1 -->
<g id="node1" class="node"><title>Node1</title>
<polygon fill="#bfbfbf" stroke="black" points="314.5,-461 314.5,-513 493.5,-513 493.5,-461 314.5,-461"/>
<text text-anchor="start" x="322.5" y="-501" font-family="Helvetica,sans-Serif" font-size="10.00">/home/travis/build</text>
<text text-anchor="start" x="322.5" y="-490" font-family="Helvetica,sans-Serif" font-size="10.00">/STORM&#45;IRIT/Radium&#45;Engine</text>
<text text-anchor="start" x="322.5" y="-479" font-family="Helvetica,sans-Serif" font-size="10.00">/src/Engine/Managers/SignalManager</text>
<text text-anchor="middle" x="404" y="-468" font-family="Helvetica,sans-Serif" font-size="10.00">/SignalManager.hpp</text>
</g>
<!-- Node2 -->
<g id="node2" class="node"><title>Node2</title>
<g id="a_node2"><a xlink:href="RaEngine_8hpp.html" target="_top" xlink:title="Engine/RaEngine.hpp">
<polygon fill="white" stroke="black" points="-0.5,-236.5 -0.5,-255.5 110.5,-255.5 110.5,-236.5 -0.5,-236.5"/>
<text text-anchor="middle" x="55" y="-243.5" font-family="Helvetica,sans-Serif" font-size="10.00">Engine/RaEngine.hpp</text>
</a>
</g>
</g>
<!-- Node1&#45;&gt;Node2 -->
<g id="edge1" class="edge"><title>Node1&#45;&gt;Node2</title>
<path fill="none" stroke="midnightblue" d="M314.37,-468.507C277.316,-458.854 234.942,-444.541 200,-424 138.22,-387.681 125.13,-370.686 84,-312 73.8152,-297.468 65.9312,-278.785 60.9716,-265.182"/>
<polygon fill="midnightblue" stroke="midnightblue" points="64.2118,-263.842 57.6331,-255.537 57.5969,-266.132 64.2118,-263.842"/>
</g>
<!-- Node9 -->
<g id="node9" class="node"><title>Node9</title>
<polygon fill="white" stroke="#bfbfbf" points="1118.5,-174.5 1118.5,-193.5 1177.5,-193.5 1177.5,-174.5 1118.5,-174.5"/>
<text text-anchor="middle" x="1148" y="-181.5" font-family="Helvetica,sans-Serif" font-size="10.00">functional</text>
</g>
<!-- Node1&#45;&gt;Node9 -->
<g id="edge8" class="edge"><title>Node1&#45;&gt;Node9</title>
<path fill="none" stroke="midnightblue" d="M493.643,-486.281C667.157,-484.394 1032,-467.524 1032,-359 1032,-359 1032,-359 1032,-301 1032,-251.797 1084.83,-216.175 1119.18,-198.212"/>
<polygon fill="midnightblue" stroke="midnightblue" points="1120.96,-201.235 1128.32,-193.617 1117.82,-194.981 1120.96,-201.235"/>
</g>
<!-- Node10 -->
<g id="node10" class="node"><title>Node10</title>
<polygon fill="white" stroke="#bfbfbf" points="128,-236.5 128,-255.5 172,-255.5 172,-236.5 128,-236.5"/>
<text text-anchor="middle" x="150" y="-243.5" font-family="Helvetica,sans-Serif" font-size="10.00">mutex</text>
</g>
<!-- Node1&#45;&gt;Node10 -->
<g id="edge9" class="edge"><title>Node1&#45;&gt;Node10</title>
<path fill="none" stroke="midnightblue" d="M314.466,-463.52C263.503,-445.999 203.027,-416.302 168,-368 145.944,-337.584 145.775,-291.423 147.777,-265.803"/>
<polygon fill="midnightblue" stroke="midnightblue" points="151.284,-265.902 148.778,-255.608 144.317,-265.218 151.284,-265.902"/>
</g>
<!-- Node11 -->
<g id="node11" class="node"><title>Node11</title>
<polygon fill="white" stroke="#bfbfbf" points="844,-236.5 844,-255.5 888,-255.5 888,-236.5 844,-236.5"/>
<text text-anchor="middle" x="866" y="-243.5" font-family="Helvetica,sans-Serif" font-size="10.00">vector</text>
</g>
<!-- Node1&#45;&gt;Node11 -->
<g id="edge10" class="edge"><title>Node1&#45;&gt;Node11</title>
<path fill="none" stroke="midnightblue" d="M493.753,-468.123C567.48,-450.615 672.501,-419.01 753,-368 797.328,-339.911 835.904,-290.341 854.386,-264.218"/>
<polygon fill="midnightblue" stroke="midnightblue" points="857.442,-265.952 860.259,-255.738 851.688,-261.966 857.442,-265.952"/>
</g>
<!-- Node12 -->
<g id="node12" class="node"><title>Node12</title>
<g id="a_node12"><a xlink:href="ItemEntry_8hpp.html" target="_top" xlink:title="Engine/ItemModel/ItemEntry.hpp">
<polygon fill="white" stroke="black" points="324,-404.5 324,-423.5 484,-423.5 484,-404.5 324,-404.5"/>
<text text-anchor="middle" x="404" y="-411.5" font-family="Helvetica,sans-Serif" font-size="10.00">Engine/ItemModel/ItemEntry.hpp</text>
</a>
</g>
</g>
<!-- Node1&#45;&gt;Node12 -->
<g id="edge11" class="edge"><title>Node1&#45;&gt;Node12</title>
<path fill="none" stroke="midnightblue" d="M404,-460.768C404,-451.89 404,-442.074 404,-433.816"/>
<polygon fill="midnightblue" stroke="midnightblue" points="407.5,-433.757 404,-423.757 400.5,-433.757 407.5,-433.757"/>
</g>
<!-- Node3 -->
<g id="node3" class="node"><title>Node3</title>
<g id="a_node3"><a xlink:href="CoreMacros_8hpp.html" target="_top" xlink:title="Core/CoreMacros.hpp">
<polygon fill="white" stroke="black" points="143.5,-56.5 143.5,-75.5 256.5,-75.5 256.5,-56.5 143.5,-56.5"/>
<text text-anchor="middle" x="200" y="-63.5" font-family="Helvetica,sans-Serif" font-size="10.00">Core/CoreMacros.hpp</text>
</a>
</g>
</g>
<!-- Node2&#45;&gt;Node3 -->
<g id="edge2" class="edge"><title>Node2&#45;&gt;Node3</title>
<path fill="none" stroke="midnightblue" d="M58.0016,-236.275C66.1738,-213.526 90.734,-151.438 128,-112 140.374,-98.9046 157.345,-88.0559 171.703,-80.2937"/>
<polygon fill="midnightblue" stroke="midnightblue" points="173.412,-83.3499 180.686,-75.646 170.196,-77.1327 173.412,-83.3499"/>
</g>
<!-- Node4 -->
<g id="node4" class="node"><title>Node4</title>
<polygon fill="white" stroke="#bfbfbf" points="44.5,-0.5 44.5,-19.5 93.5,-19.5 93.5,-0.5 44.5,-0.5"/>
<text text-anchor="middle" x="69" y="-7.5" font-family="Helvetica,sans-Serif" font-size="10.00">cassert</text>
</g>
<!-- Node3&#45;&gt;Node4 -->
<g id="edge3" class="edge"><title>Node3&#45;&gt;Node4</title>
<path fill="none" stroke="midnightblue" d="M179.243,-56.4435C157.684,-47.5566 123.737,-33.5632 99.2062,-23.4514"/>
<polygon fill="midnightblue" stroke="midnightblue" points="100.239,-20.0917 89.6602,-19.5164 97.5717,-26.5634 100.239,-20.0917"/>
</g>
<!-- Node5 -->
<g id="node5" class="node"><title>Node5</title>
<polygon fill="white" stroke="#bfbfbf" points="111.5,-0.5 111.5,-19.5 154.5,-19.5 154.5,-0.5 111.5,-0.5"/>
<text text-anchor="middle" x="133" y="-7.5" font-family="Helvetica,sans-Serif" font-size="10.00">cstdio</text>
</g>
<!-- Node3&#45;&gt;Node5 -->
<g id="edge4" class="edge"><title>Node3&#45;&gt;Node5</title>
<path fill="none" stroke="midnightblue" d="M189.235,-56.324C179.234,-48.2631 164.113,-36.0765 152.07,-26.3695"/>
<polygon fill="midnightblue" stroke="midnightblue" points="153.943,-23.3841 143.961,-19.8339 149.55,-28.8343 153.943,-23.3841"/>
</g>
<!-- Node6 -->
<g id="node6" class="node"><title>Node6</title>
<polygon fill="white" stroke="#bfbfbf" points="173,-0.5 173,-19.5 227,-19.5 227,-0.5 173,-0.5"/>
<text text-anchor="middle" x="200" y="-7.5" font-family="Helvetica,sans-Serif" font-size="10.00">iostream</text>
</g>
<!-- Node3&#45;&gt;Node6 -->
<g id="edge5" class="edge"><title>Node3&#45;&gt;Node6</title>
<path fill="none" stroke="midnightblue" d="M200,-56.083C200,-49.0059 200,-38.8611 200,-29.9865"/>
<polygon fill="midnightblue" stroke="midnightblue" points="203.5,-29.751 200,-19.7511 196.5,-29.7511 203.5,-29.751"/>
</g>
<!-- Node7 -->
<g id="node7" class="node"><title>Node7</title>
<polygon fill="white" stroke="#bfbfbf" points="245,-0.5 245,-19.5 297,-19.5 297,-0.5 245,-0.5"/>
<text text-anchor="middle" x="271" y="-7.5" font-family="Helvetica,sans-Serif" font-size="10.00">sstream</text>
</g>
<!-- Node3&#45;&gt;Node7 -->
<g id="edge6" class="edge"><title>Node3&#45;&gt;Node7</title>
<path fill="none" stroke="midnightblue" d="M211.407,-56.324C222.109,-48.1849 238.341,-35.8395 251.163,-26.0874"/>
<polygon fill="midnightblue" stroke="midnightblue" points="253.544,-28.6734 259.385,-19.8339 249.307,-23.1018 253.544,-28.6734"/>
</g>
<!-- Node8 -->
<g id="node8" class="node"><title>Node8</title>
<polygon fill="white" stroke="#bfbfbf" points="315,-0.5 315,-19.5 359,-19.5 359,-0.5 315,-0.5"/>
<text text-anchor="middle" x="337" y="-7.5" font-family="Helvetica,sans-Serif" font-size="10.00">thread</text>
</g>
<!-- Node3&#45;&gt;Node8 -->
<g id="edge7" class="edge"><title>Node3&#45;&gt;Node8</title>
<path fill="none" stroke="midnightblue" d="M221.708,-56.4435C244.355,-47.5171 280.072,-33.4387 305.752,-23.3168"/>
<polygon fill="midnightblue" stroke="midnightblue" points="307.374,-26.4397 315.394,-19.5164 304.807,-19.9273 307.374,-26.4397"/>
</g>
<!-- Node12&#45;&gt;Node2 -->
<g id="edge12" class="edge"><title>Node12&#45;&gt;Node2</title>
<path fill="none" stroke="midnightblue" d="M323.822,-410.112C276.06,-405.467 215.664,-394.287 168,-368 121.823,-342.533 83.7942,-291.421 65.9522,-264.502"/>
<polygon fill="midnightblue" stroke="midnightblue" points="68.6795,-262.274 60.3144,-255.772 62.799,-266.071 68.6795,-262.274"/>
</g>
<!-- Node12&#45;&gt;Node11 -->
<g id="edge17" class="edge"><title>Node12&#45;&gt;Node11</title>
<path fill="none" stroke="midnightblue" d="M484.25,-407.883C518.81,-402.212 557.878,-390.776 587,-368 617.067,-344.485 596.131,-314.452 627,-292 700.353,-238.647 740.845,-274.541 833.945,-255.906"/>
<polygon fill="midnightblue" stroke="midnightblue" points="834.694,-259.325 843.727,-253.788 833.212,-252.484 834.694,-259.325"/>
</g>
<!-- Node13 -->
<g id="node13" class="node"><title>Node13</title>
<g id="a_node13"><a xlink:href="Index_8hpp.html" target="_top" xlink:title="Core/Index/Index.hpp">
<polygon fill="white" stroke="black" points="634,-348.5 634,-367.5 744,-367.5 744,-348.5 634,-348.5"/>
<text text-anchor="middle" x="689" y="-355.5" font-family="Helvetica,sans-Serif" font-size="10.00">Core/Index/Index.hpp</text>
</a>
</g>
</g>
<!-- Node12&#45;&gt;Node13 -->
<g id="edge13" class="edge"><title>Node12&#45;&gt;Node13</title>
<path fill="none" stroke="midnightblue" d="M449.159,-404.444C499.294,-394.944 580.22,-379.611 634.006,-369.42"/>
<polygon fill="midnightblue" stroke="midnightblue" points="634.879,-372.817 644.052,-367.516 633.575,-365.939 634.879,-372.817"/>
</g>
<!-- Node16 -->
<g id="node16" class="node"><title>Node16</title>
<polygon fill="white" stroke="#bfbfbf" points="177.5,-348.5 177.5,-367.5 218.5,-367.5 218.5,-348.5 177.5,-348.5"/>
<text text-anchor="middle" x="198" y="-355.5" font-family="Helvetica,sans-Serif" font-size="10.00">string</text>
</g>
<!-- Node12&#45;&gt;Node16 -->
<g id="edge16" class="edge"><title>Node12&#45;&gt;Node16</title>
<path fill="none" stroke="midnightblue" d="M368.825,-404.458C335.233,-396.201 282.965,-383.094 228.462,-368.041"/>
<polygon fill="midnightblue" stroke="midnightblue" points="229.196,-364.612 218.624,-365.309 227.323,-371.357 229.196,-364.612"/>
</g>
<!-- Node17 -->
<g id="node17" class="node"><title>Node17</title>
<g id="a_node17"><a xlink:href="PickingManager_8hpp.html" target="_top" xlink:title="GuiBase/Utils/PickingManager.hpp">
<polygon fill="white" stroke="black" points="409.5,-348.5 409.5,-367.5 578.5,-367.5 578.5,-348.5 409.5,-348.5"/>
<text text-anchor="middle" x="494" y="-355.5" font-family="Helvetica,sans-Serif" font-size="10.00">GuiBase/Utils/PickingManager.hpp</text>
</a>
</g>
</g>
<!-- Node12&#45;&gt;Node17 -->
<g id="edge18" class="edge"><title>Node12&#45;&gt;Node17</title>
<path fill="none" stroke="midnightblue" d="M418.46,-404.324C432.5,-395.9 454.048,-382.971 470.543,-373.074"/>
<polygon fill="midnightblue" stroke="midnightblue" points="472.802,-375.801 479.576,-367.655 469.2,-369.798 472.802,-375.801"/>
</g>
<!-- Node37 -->
<g id="node37" class="node"><title>Node37</title>
<g id="a_node37"><a xlink:href="ItemEntry_8inl.html" target="_top" xlink:title="Engine/ItemModel/ItemEntry.inl">
<polygon fill="white" stroke="black" points="237,-348.5 237,-367.5 391,-367.5 391,-348.5 237,-348.5"/>
<text text-anchor="middle" x="314" y="-355.5" font-family="Helvetica,sans-Serif" font-size="10.00">Engine/ItemModel/ItemEntry.inl</text>
</a>
</g>
</g>
<!-- Node12&#45;&gt;Node37 -->
<g id="edge49" class="edge"><title>Node12&#45;&gt;Node37</title>
<path fill="none" stroke="midnightblue" d="M389.54,-404.324C375.5,-395.9 353.952,-382.971 337.457,-373.074"/>
<polygon fill="midnightblue" stroke="midnightblue" points="338.8,-369.798 328.424,-367.655 335.198,-375.801 338.8,-369.798"/>
</g>
<!-- Node14 -->
<g id="node14" class="node"><title>Node14</title>
<polygon fill="white" stroke="#bfbfbf" points="758,-292.5 758,-311.5 798,-311.5 798,-292.5 758,-292.5"/>
<text text-anchor="middle" x="778" y="-299.5" font-family="Helvetica,sans-Serif" font-size="10.00">limits</text>
</g>
<!-- Node13&#45;&gt;Node14 -->
<g id="edge14" class="edge"><title>Node13&#45;&gt;Node14</title>
<path fill="none" stroke="midnightblue" d="M703.299,-348.324C717.183,-339.9 738.492,-326.971 754.804,-317.074"/>
<polygon fill="midnightblue" stroke="midnightblue" points="757.002,-319.834 763.736,-311.655 753.371,-313.85 757.002,-319.834"/>
</g>
<!-- Node15 -->
<g id="node15" class="node"><title>Node15</title>
<g id="a_node15"><a xlink:href="Index_8inl.html" target="_top" xlink:title="Core/Index/Index.inl">
<polygon fill="white" stroke="black" points="636,-292.5 636,-311.5 740,-311.5 740,-292.5 636,-292.5"/>
<text text-anchor="middle" x="688" y="-299.5" font-family="Helvetica,sans-Serif" font-size="10.00">Core/Index/Index.inl</text>
</a>
</g>
</g>
<!-- Node13&#45;&gt;Node15 -->
<g id="edge15" class="edge"><title>Node13&#45;&gt;Node15</title>
<path fill="none" stroke="midnightblue" d="M688.835,-348.083C688.704,-341.006 688.516,-330.861 688.352,-321.986"/>
<polygon fill="midnightblue" stroke="midnightblue" points="691.847,-321.685 688.162,-311.751 684.848,-321.814 691.847,-321.685"/>
</g>
<!-- Node18 -->
<g id="node18" class="node"><title>Node18</title>
<g id="a_node18"><a xlink:href="RaGuiBase_8hpp.html" target="_top" xlink:title="GuiBase/RaGuiBase.hpp">
<polygon fill="white" stroke="black" points="137,-112.5 137,-131.5 263,-131.5 263,-112.5 137,-112.5"/>
<text text-anchor="middle" x="200" y="-119.5" font-family="Helvetica,sans-Serif" font-size="10.00">GuiBase/RaGuiBase.hpp</text>
</a>
</g>
</g>
<!-- Node17&#45;&gt;Node18 -->
<g id="edge19" class="edge"><title>Node17&#45;&gt;Node18</title>
<path fill="none" stroke="midnightblue" d="M435.09,-348.499C378.18,-337.196 293.529,-311.714 244,-256 214.601,-222.93 204.766,-169.691 201.536,-141.653"/>
<polygon fill="midnightblue" stroke="midnightblue" points="205.01,-141.224 200.543,-131.617 198.044,-141.913 205.01,-141.224"/>
</g>
<!-- Node19 -->
<g id="node19" class="node"><title>Node19</title>
<g id="a_node19"><a xlink:href="Renderer_8hpp.html" target="_top" xlink:title="Engine/Renderer/Renderer.hpp">
<polygon fill="white" stroke="black" points="418.5,-292.5 418.5,-311.5 569.5,-311.5 569.5,-292.5 418.5,-292.5"/>
<text text-anchor="middle" x="494" y="-299.5" font-family="Helvetica,sans-Serif" font-size="10.00">Engine/Renderer/Renderer.hpp</text>
</a>
</g>
</g>
<!-- Node17&#45;&gt;Node19 -->
<g id="edge21" class="edge"><title>Node17&#45;&gt;Node19</title>
<path fill="none" stroke="midnightblue" d="M494,-348.083C494,-341.006 494,-330.861 494,-321.986"/>
<polygon fill="midnightblue" stroke="midnightblue" points="497.5,-321.751 494,-311.751 490.5,-321.751 497.5,-321.751"/>
</g>
<!-- Node36 -->
<g id="node36" class="node"><title>Node36</title>
<polygon fill="white" stroke="#bfbfbf" points="347.5,-292.5 347.5,-311.5 400.5,-311.5 400.5,-292.5 347.5,-292.5"/>
<text text-anchor="middle" x="374" y="-299.5" font-family="Helvetica,sans-Serif" font-size="10.00">QObject</text>
</g>
<!-- Node17&#45;&gt;Node36 -->
<g id="edge48" class="edge"><title>Node17&#45;&gt;Node36</title>
<path fill="none" stroke="midnightblue" d="M474.986,-348.444C455.412,-339.636 424.692,-325.812 402.271,-315.722"/>
<polygon fill="midnightblue" stroke="midnightblue" points="403.481,-312.428 392.925,-311.516 400.608,-318.812 403.481,-312.428"/>
</g>
<!-- Node18&#45;&gt;Node3 -->
<g id="edge20" class="edge"><title>Node18&#45;&gt;Node3</title>
<path fill="none" stroke="midnightblue" d="M200,-112.083C200,-105.006 200,-94.8611 200,-85.9865"/>
<polygon fill="midnightblue" stroke="midnightblue" points="203.5,-85.751 200,-75.7511 196.5,-85.7511 203.5,-85.751"/>
</g>
<!-- Node19&#45;&gt;Node2 -->
<g id="edge22" class="edge"><title>Node19&#45;&gt;Node2</title>
<path fill="none" stroke="midnightblue" d="M419.237,-292.48C345.803,-284.009 230.288,-270.41 121.05,-256.248"/>
<polygon fill="midnightblue" stroke="midnightblue" points="121.206,-252.739 110.839,-254.92 120.304,-259.681 121.206,-252.739"/>
</g>
<!-- Node19&#45;&gt;Node10 -->
<g id="edge26" class="edge"><title>Node19&#45;&gt;Node10</title>
<path fill="none" stroke="midnightblue" d="M439.492,-292.444C367.082,-281.077 241.456,-261.356 182.417,-252.089"/>
<polygon fill="midnightblue" stroke="midnightblue" points="182.618,-248.578 172.196,-250.484 181.533,-255.493 182.618,-248.578"/>
</g>
<!-- Node19&#45;&gt;Node11 -->
<g id="edge27" class="edge"><title>Node19&#45;&gt;Node11</title>
<path fill="none" stroke="midnightblue" d="M568.647,-292.488C648.593,-283.148 771.344,-268.109 833.578,-255.972"/>
<polygon fill="midnightblue" stroke="midnightblue" points="834.652,-259.325 843.751,-253.897 833.253,-252.466 834.652,-259.325"/>
</g>
<!-- Node20 -->
<g id="node20" class="node"><title>Node20</title>
<polygon fill="white" stroke="#bfbfbf" points="788,-236.5 788,-255.5 826,-255.5 826,-236.5 788,-236.5"/>
<text text-anchor="middle" x="807" y="-243.5" font-family="Helvetica,sans-Serif" font-size="10.00">array</text>
</g>
<!-- Node19&#45;&gt;Node20 -->
<g id="edge23" class="edge"><title>Node19&#45;&gt;Node20</title>
<path fill="none" stroke="midnightblue" d="M566.041,-292.496C623.781,-284.983 706.654,-272.632 778,-256 778.099,-255.977 778.199,-255.953 778.299,-255.93"/>
<polygon fill="midnightblue" stroke="midnightblue" points="779.01,-259.363 787.763,-253.394 777.198,-252.602 779.01,-259.363"/>
</g>
<!-- Node21 -->
<g id="node21" class="node"><title>Node21</title>
<polygon fill="white" stroke="#bfbfbf" points="228,-174.5 228,-193.5 274,-193.5 274,-174.5 228,-174.5"/>
<text text-anchor="middle" x="251" y="-181.5" font-family="Helvetica,sans-Serif" font-size="10.00">chrono</text>
</g>
<!-- Node19&#45;&gt;Node21 -->
<g id="edge24" class="edge"><title>Node19&#45;&gt;Node21</title>
<path fill="none" stroke="midnightblue" d="M427.113,-292.475C361.101,-283.407 268.411,-268.656 257,-256 244.468,-242.101 244.652,-219.835 246.9,-203.945"/>
<polygon fill="midnightblue" stroke="midnightblue" points="250.415,-204.174 248.749,-193.711 243.526,-202.93 250.415,-204.174"/>
</g>
<!-- Node22 -->
<g id="node22" class="node"><title>Node22</title>
<polygon fill="white" stroke="#bfbfbf" points="266,-236.5 266,-255.5 318,-255.5 318,-236.5 266,-236.5"/>
<text text-anchor="middle" x="292" y="-243.5" font-family="Helvetica,sans-Serif" font-size="10.00">memory</text>
</g>
<!-- Node19&#45;&gt;Node22 -->
<g id="edge25" class="edge"><title>Node19&#45;&gt;Node22</title>
<path fill="none" stroke="midnightblue" d="M461.992,-292.444C425.589,-282.712 366.279,-266.857 328.213,-256.681"/>
<polygon fill="midnightblue" stroke="midnightblue" points="328.641,-253.172 318.077,-253.971 326.833,-259.935 328.641,-253.172"/>
</g>
<!-- Node23 -->
<g id="node23" class="node"><title>Node23</title>
<g id="a_node23"><a xlink:href="EventEnums_8hpp.html" target="_top" xlink:title="Core/Event/EventEnums.hpp">
<polygon fill="white" stroke="black" points="464,-236.5 464,-255.5 608,-255.5 608,-236.5 464,-236.5"/>
<text text-anchor="middle" x="536" y="-243.5" font-family="Helvetica,sans-Serif" font-size="10.00">Core/Event/EventEnums.hpp</text>
</a>
</g>
</g>
<!-- Node19&#45;&gt;Node23 -->
<g id="edge28" class="edge"><title>Node19&#45;&gt;Node23</title>
<path fill="none" stroke="midnightblue" d="M500.935,-292.083C506.929,-284.377 515.752,-273.033 523.048,-263.653"/>
<polygon fill="midnightblue" stroke="midnightblue" points="525.817,-265.793 529.194,-255.751 520.291,-261.496 525.817,-265.793"/>
</g>
<!-- Node25 -->
<g id="node25" class="node"><title>Node25</title>
<g id="a_node25"><a xlink:href="LinearAlgebra_8hpp.html" target="_top" xlink:title="Core/Math/LinearAlgebra.hpp">
<polygon fill="white" stroke="black" points="626.5,-236.5 626.5,-255.5 769.5,-255.5 769.5,-236.5 626.5,-236.5"/>
<text text-anchor="middle" x="698" y="-243.5" font-family="Helvetica,sans-Serif" font-size="10.00">Core/Math/LinearAlgebra.hpp</text>
</a>
</g>
</g>
<!-- Node19&#45;&gt;Node25 -->
<g id="edge31" class="edge"><title>Node19&#45;&gt;Node25</title>
<path fill="none" stroke="midnightblue" d="M526.324,-292.444C561.389,-283.162 617.498,-268.309 655.965,-258.127"/>
<polygon fill="midnightblue" stroke="midnightblue" points="657.055,-261.459 665.827,-255.516 655.264,-254.692 657.055,-261.459"/>
</g>
<!-- Node35 -->
<g id="node35" class="node"><title>Node35</title>
<g id="a_node35"><a xlink:href="Timer_8hpp.html" target="_top" xlink:title="Core/Time/Timer.hpp">
<polygon fill="white" stroke="black" points="336.5,-236.5 336.5,-255.5 445.5,-255.5 445.5,-236.5 336.5,-236.5"/>
<text text-anchor="middle" x="391" y="-243.5" font-family="Helvetica,sans-Serif" font-size="10.00">Core/Time/Timer.hpp</text>
</a>
</g>
</g>
<!-- Node19&#45;&gt;Node35 -->
<g id="edge45" class="edge"><title>Node19&#45;&gt;Node35</title>
<path fill="none" stroke="midnightblue" d="M477.451,-292.324C461.008,-283.703 435.565,-270.364 416.532,-260.386"/>
<polygon fill="midnightblue" stroke="midnightblue" points="417.989,-257.198 407.508,-255.655 414.739,-263.398 417.989,-257.198"/>
</g>
<!-- Node24 -->
<g id="node24" class="node"><title>Node24</title>
<g id="a_node24"><a xlink:href="RaCore_8hpp.html" target="_top" xlink:title="Core/RaCore.hpp">
<polygon fill="white" stroke="black" points="293.5,-112.5 293.5,-131.5 386.5,-131.5 386.5,-112.5 293.5,-112.5"/>
<text text-anchor="middle" x="340" y="-119.5" font-family="Helvetica,sans-Serif" font-size="10.00">Core/RaCore.hpp</text>
</a>
</g>
</g>
<!-- Node23&#45;&gt;Node24 -->
<g id="edge29" class="edge"><title>Node23&#45;&gt;Node24</title>
<path fill="none" stroke="midnightblue" d="M480.565,-236.466C436.917,-228.688 380.743,-215.986 364,-200 348.049,-184.77 342.641,-159.135 340.841,-141.662"/>
<polygon fill="midnightblue" stroke="midnightblue" points="344.322,-141.269 340.104,-131.55 337.34,-141.778 344.322,-141.269"/>
</g>
<!-- Node24&#45;&gt;Node3 -->
<g id="edge30" class="edge"><title>Node24&#45;&gt;Node3</title>
<path fill="none" stroke="midnightblue" d="M317.817,-112.444C294.572,-103.478 257.851,-89.314 231.585,-79.1827"/>
<polygon fill="midnightblue" stroke="midnightblue" points="232.669,-75.8497 222.08,-75.5164 230.15,-82.3807 232.669,-75.8497"/>
</g>
<!-- Node25&#45;&gt;Node9 -->
<g id="edge36" class="edge"><title>Node25&#45;&gt;Node9</title>
<path fill="none" stroke="midnightblue" d="M769.553,-237.042C772.745,-236.689 775.906,-236.341 779,-236 925.651,-219.854 965.619,-234.771 1109,-200 1112.24,-199.214 1115.58,-198.225 1118.87,-197.133"/>
<polygon fill="midnightblue" stroke="midnightblue" points="1120.27,-200.349 1128.48,-193.644 1117.88,-193.769 1120.27,-200.349"/>
</g>
<!-- Node25&#45;&gt;Node24 -->
<g id="edge32" class="edge"><title>Node25&#45;&gt;Node24</title>
<path fill="none" stroke="midnightblue" d="M632.199,-236.461C546.68,-225.173 407.007,-206.012 397,-200 374.01,-186.189 357.367,-159.226 348.197,-141.16"/>
<polygon fill="midnightblue" stroke="midnightblue" points="351.257,-139.448 343.774,-131.948 344.947,-142.477 351.257,-139.448"/>
</g>
<!-- Node26 -->
<g id="node26" class="node"><title>Node26</title>
<polygon fill="white" stroke="#bfbfbf" points="686.5,-174.5 686.5,-193.5 751.5,-193.5 751.5,-174.5 686.5,-174.5"/>
<text text-anchor="middle" x="719" y="-181.5" font-family="Helvetica,sans-Serif" font-size="10.00">Eigen/Core</text>
</g>
<!-- Node25&#45;&gt;Node26 -->
<g id="edge33" class="edge"><title>Node25&#45;&gt;Node26</title>
<path fill="none" stroke="midnightblue" d="M701.009,-236.403C704.034,-227.76 708.79,-214.17 712.653,-203.134"/>
<polygon fill="midnightblue" stroke="midnightblue" points="715.997,-204.175 715.997,-193.581 709.39,-201.863 715.997,-204.175"/>
</g>
<!-- Node27 -->
<g id="node27" class="node"><title>Node27</title>
<polygon fill="white" stroke="#bfbfbf" points="769.5,-174.5 769.5,-193.5 856.5,-193.5 856.5,-174.5 769.5,-174.5"/>
<text text-anchor="middle" x="813" y="-181.5" font-family="Helvetica,sans-Serif" font-size="10.00">Eigen/Geometry</text>
</g>
<!-- Node25&#45;&gt;Node27 -->
<g id="edge34" class="edge"><title>Node25&#45;&gt;Node27</title>
<path fill="none" stroke="midnightblue" d="M714.477,-236.403C733.605,-226.423 765.373,-209.849 787.652,-198.225"/>
<polygon fill="midnightblue" stroke="midnightblue" points="789.307,-201.309 796.554,-193.581 786.069,-195.103 789.307,-201.309"/>
</g>
<!-- Node28 -->
<g id="node28" class="node"><title>Node28</title>
<polygon fill="white" stroke="#bfbfbf" points="874.5,-174.5 874.5,-193.5 949.5,-193.5 949.5,-174.5 874.5,-174.5"/>
<text text-anchor="middle" x="912" y="-181.5" font-family="Helvetica,sans-Serif" font-size="10.00">Eigen/Sparse</text>
</g>
<!-- Node25&#45;&gt;Node28 -->
<g id="edge35" class="edge"><title>Node25&#45;&gt;Node28</title>
<path fill="none" stroke="midnightblue" d="M731.395,-236.481C765.197,-227.746 818.909,-213.557 865,-200 868.58,-198.947 872.302,-197.818 876.015,-196.67"/>
<polygon fill="midnightblue" stroke="midnightblue" points="877.224,-199.958 885.716,-193.622 875.126,-193.28 877.224,-199.958"/>
</g>
<!-- Node29 -->
<g id="node29" class="node"><title>Node29</title>
<polygon fill="white" stroke="#bfbfbf" points="967.5,-169 967.5,-199 1100.5,-199 1100.5,-169 967.5,-169"/>
<text text-anchor="start" x="975.5" y="-187" font-family="Helvetica,sans-Serif" font-size="10.00">unsupported/Eigen/Aligned</text>
<text text-anchor="middle" x="1034" y="-176" font-family="Helvetica,sans-Serif" font-size="10.00">Vector3</text>
</g>
<!-- Node25&#45;&gt;Node29 -->
<g id="edge37" class="edge"><title>Node25&#45;&gt;Node29</title>
<path fill="none" stroke="midnightblue" d="M749.369,-236.475C799.709,-228.038 878.879,-214.552 957.241,-200.116"/>
<polygon fill="midnightblue" stroke="midnightblue" points="958.092,-203.518 967.289,-198.259 956.819,-196.635 958.092,-203.518"/>
</g>
<!-- Node30 -->
<g id="node30" class="node"><title>Node30</title>
<g id="a_node30"><a xlink:href="Math_8hpp.html" target="_top" xlink:title="Core/Math/Math.hpp">
<polygon fill="white" stroke="black" points="562,-174.5 562,-193.5 668,-193.5 668,-174.5 562,-174.5"/>
<text text-anchor="middle" x="615" y="-181.5" font-family="Helvetica,sans-Serif" font-size="10.00">Core/Math/Math.hpp</text>
</a>
</g>
</g>
<!-- Node25&#45;&gt;Node30 -->
<g id="edge38" class="edge"><title>Node25&#45;&gt;Node30</title>
<path fill="none" stroke="midnightblue" d="M686.108,-236.403C672.795,-226.78 651,-211.024 635.043,-199.489"/>
<polygon fill="midnightblue" stroke="midnightblue" points="637.025,-196.603 626.87,-193.581 632.924,-202.276 637.025,-196.603"/>
</g>
<!-- Node34 -->
<g id="node34" class="node"><title>Node34</title>
<g id="a_node34"><a xlink:href="LinearAlgebra_8inl.html" target="_top" xlink:title="Core/Math/LinearAlgebra.inl">
<polygon fill="white" stroke="black" points="406.5,-174.5 406.5,-193.5 543.5,-193.5 543.5,-174.5 406.5,-174.5"/>
<text text-anchor="middle" x="475" y="-181.5" font-family="Helvetica,sans-Serif" font-size="10.00">Core/Math/LinearAlgebra.inl</text>
</a>
</g>
</g>
<!-- Node25&#45;&gt;Node34 -->
<g id="edge44" class="edge"><title>Node25&#45;&gt;Node34</title>
<path fill="none" stroke="midnightblue" d="M666.05,-236.403C626.721,-225.822 559.84,-207.827 516.553,-196.18"/>
<polygon fill="midnightblue" stroke="midnightblue" points="517.457,-192.799 506.891,-193.581 515.638,-199.559 517.457,-192.799"/>
</g>
<!-- Node30&#45;&gt;Node24 -->
<g id="edge39" class="edge"><title>Node30&#45;&gt;Node24</title>
<path fill="none" stroke="midnightblue" d="M579.716,-174.438C570.69,-172.292 560.994,-170.025 552,-168 497.458,-155.72 434.81,-142.535 391.841,-133.633"/>
<polygon fill="midnightblue" stroke="midnightblue" points="392.402,-130.175 381.9,-131.577 390.984,-137.03 392.402,-130.175"/>
</g>
<!-- Node31 -->
<g id="node31" class="node"><title>Node31</title>
<polygon fill="white" stroke="#bfbfbf" points="474,-112.5 474,-131.5 530,-131.5 530,-112.5 474,-112.5"/>
<text text-anchor="middle" x="502" y="-119.5" font-family="Helvetica,sans-Serif" font-size="10.00">algorithm</text>
</g>
<!-- Node30&#45;&gt;Node31 -->
<g id="edge40" class="edge"><title>Node30&#45;&gt;Node31</title>
<path fill="none" stroke="midnightblue" d="M598.81,-174.403C580.098,-164.468 549.077,-147.997 527.201,-136.381"/>
<polygon fill="midnightblue" stroke="midnightblue" points="528.634,-133.179 518.16,-131.581 525.351,-139.362 528.634,-133.179"/>
</g>
<!-- Node32 -->
<g id="node32" class="node"><title>Node32</title>
<polygon fill="white" stroke="#bfbfbf" points="548,-112.5 548,-131.5 592,-131.5 592,-112.5 548,-112.5"/>
<text text-anchor="middle" x="570" y="-119.5" font-family="Helvetica,sans-Serif" font-size="10.00">cmath</text>
</g>
<!-- Node30&#45;&gt;Node32 -->
<g id="edge41" class="edge"><title>Node30&#45;&gt;Node32</title>
<path fill="none" stroke="midnightblue" d="M608.553,-174.403C601.803,-165.403 591.031,-151.041 582.587,-139.782"/>
<polygon fill="midnightblue" stroke="midnightblue" points="585.235,-137.481 576.435,-131.581 579.635,-141.681 585.235,-137.481"/>
</g>
<!-- Node33 -->
<g id="node33" class="node"><title>Node33</title>
<g id="a_node33"><a xlink:href="Math_8inl.html" target="_top" xlink:title="Core/Math/Math.inl">
<polygon fill="white" stroke="black" points="610,-112.5 610,-131.5 710,-131.5 710,-112.5 610,-112.5"/>
<text text-anchor="middle" x="660" y="-119.5" font-family="Helvetica,sans-Serif" font-size="10.00">Core/Math/Math.inl</text>
</a>
</g>
</g>
<!-- Node30&#45;&gt;Node33 -->
<g id="edge42" class="edge"><title>Node30&#45;&gt;Node33</title>
<path fill="none" stroke="midnightblue" d="M616.547,-174.403C621.445,-165.225 632.125,-150.47 641.85,-139.117"/>
<polygon fill="midnightblue" stroke="midnightblue" points="644.555,-141.345 648.667,-131.581 639.364,-136.649 644.555,-141.345"/>
</g>
<!-- Node33&#45;&gt;Node30 -->
<g id="edge43" class="edge"><title>Node33&#45;&gt;Node30</title>
<path fill="none" stroke="midnightblue" d="M658.462,-131.581C653.57,-140.752 642.893,-155.506 633.166,-166.863"/>
<polygon fill="midnightblue" stroke="midnightblue" points="630.459,-164.639 626.348,-174.403 635.651,-169.334 630.459,-164.639"/>
</g>
<!-- Node35&#45;&gt;Node21 -->
<g id="edge47" class="edge"><title>Node35&#45;&gt;Node21</title>
<path fill="none" stroke="midnightblue" d="M370.941,-236.403C347.238,-226.245 307.594,-209.255 280.417,-197.607"/>
<polygon fill="midnightblue" stroke="midnightblue" points="281.592,-194.303 271.021,-193.581 278.834,-200.737 281.592,-194.303"/>
</g>
<!-- Node35&#45;&gt;Node24 -->
<g id="edge46" class="edge"><title>Node35&#45;&gt;Node24</title>
<path fill="none" stroke="midnightblue" d="M369.192,-236.447C354.055,-229.221 335.045,-217.264 326,-200 316.275,-181.439 323.348,-157.297 330.509,-141.035"/>
<polygon fill="midnightblue" stroke="midnightblue" points="333.857,-142.15 335.052,-131.623 327.553,-139.107 333.857,-142.15"/>
</g>
</g>
</svg>
