<?xml version="1.0" encoding="UTF-8" standalone="no"?>
<!DOCTYPE svg PUBLIC "-//W3C//DTD SVG 1.1//EN"
 "http://www.w3.org/Graphics/SVG/1.1/DTD/svg11.dtd">
<!-- Generated by graphviz version 2.36.0 (20140111.2315)
 -->
<!-- Title: /home/travis/build/STORM&#45;IRIT/Radium&#45;Engine/src/Core/Animation/Handle/Skeleton.cpp Pages: 1 -->
<svg width="1223pt" height="570pt"
 viewBox="0.00 0.00 1223.00 570.00" xmlns="http://www.w3.org/2000/svg" xmlns:xlink="http://www.w3.org/1999/xlink">
<g id="graph0" class="graph" transform="scale(1 1) rotate(0) translate(4 566)">
<title>/home/travis/build/STORM&#45;IRIT/Radium&#45;Engine/src/Core/Animation/Handle/Skeleton.cpp</title>
<polygon fill="white" stroke="none" points="-4,4 -4,-566 1219,-566 1219,4 -4,4"/>
<!-- Node1 -->
<g id="node1" class="node"><title>Node1</title>
<polygon fill="#bfbfbf" stroke="black" points="964,-509 964,-561 1112,-561 1112,-509 964,-509"/>
<text text-anchor="start" x="972" y="-549" font-family="Helvetica,sans-Serif" font-size="10.00">/home/travis/build</text>
<text text-anchor="start" x="972" y="-538" font-family="Helvetica,sans-Serif" font-size="10.00">/STORM&#45;IRIT/Radium&#45;Engine</text>
<text text-anchor="start" x="972" y="-527" font-family="Helvetica,sans-Serif" font-size="10.00">/src/Core/Animation/Handle</text>
<text text-anchor="middle" x="1038" y="-516" font-family="Helvetica,sans-Serif" font-size="10.00">/Skeleton.cpp</text>
</g>
<!-- Node2 -->
<g id="node2" class="node"><title>Node2</title>
<g id="a_node2"><a xlink:href="Skeleton_8hpp.html" target="_top" xlink:title="Core/Animation/Handle\l/Skeleton.hpp">
<polygon fill="white" stroke="black" points="930,-441 930,-471 1048,-471 1048,-441 930,-441"/>
<text text-anchor="start" x="938" y="-459" font-family="Helvetica,sans-Serif" font-size="10.00">Core/Animation/Handle</text>
<text text-anchor="middle" x="989" y="-448" font-family="Helvetica,sans-Serif" font-size="10.00">/Skeleton.hpp</text>
</a>
</g>
</g>
<!-- Node1&#45;&gt;Node2 -->
<g id="edge1" class="edge"><title>Node1&#45;&gt;Node2</title>
<path fill="none" stroke="midnightblue" d="M1021.96,-508.787C1016.01,-499.445 1009.31,-488.913 1003.51,-479.798"/>
<polygon fill="midnightblue" stroke="midnightblue" points="1006.39,-477.81 998.069,-471.252 1000.49,-481.568 1006.39,-477.81"/>
</g>
<!-- Node30 -->
<g id="node30" class="node"><title>Node30</title>
<polygon fill="white" stroke="#bfbfbf" points="1066.5,-446.5 1066.5,-465.5 1107.5,-465.5 1107.5,-446.5 1066.5,-446.5"/>
<text text-anchor="middle" x="1087" y="-453.5" font-family="Helvetica,sans-Serif" font-size="10.00">stack</text>
</g>
<!-- Node1&#45;&gt;Node30 -->
<g id="edge37" class="edge"><title>Node1&#45;&gt;Node30</title>
<path fill="none" stroke="midnightblue" d="M1054.04,-508.787C1061.24,-497.486 1069.54,-484.445 1076.01,-474.276"/>
<polygon fill="midnightblue" stroke="midnightblue" points="1079.14,-475.873 1081.55,-465.558 1073.23,-472.115 1079.14,-475.873"/>
</g>
<!-- Node3 -->
<g id="node3" class="node"><title>Node3</title>
<g id="a_node3"><a xlink:href="Handle_8hpp.html" target="_top" xlink:title="Core/Animation/Handle\l/Handle.hpp">
<polygon fill="white" stroke="black" points="779,-373 779,-403 897,-403 897,-373 779,-373"/>
<text text-anchor="start" x="787" y="-391" font-family="Helvetica,sans-Serif" font-size="10.00">Core/Animation/Handle</text>
<text text-anchor="middle" x="838" y="-380" font-family="Helvetica,sans-Serif" font-size="10.00">/Handle.hpp</text>
</a>
</g>
</g>
<!-- Node2&#45;&gt;Node3 -->
<g id="edge2" class="edge"><title>Node2&#45;&gt;Node3</title>
<path fill="none" stroke="midnightblue" d="M956.607,-440.841C934.038,-430.977 903.742,-417.735 879.419,-407.104"/>
<polygon fill="midnightblue" stroke="midnightblue" points="880.645,-403.82 870.08,-403.022 877.841,-410.234 880.645,-403.82"/>
</g>
<!-- Node27 -->
<g id="node27" class="node"><title>Node27</title>
<g id="a_node27"><a xlink:href="AdjacencyList_8hpp.html" target="_top" xlink:title="Core/Utils/Graph/Adjacency\lList.hpp">
<polygon fill="white" stroke="black" points="1027.5,-373 1027.5,-403 1166.5,-403 1166.5,-373 1027.5,-373"/>
<text text-anchor="start" x="1035.5" y="-391" font-family="Helvetica,sans-Serif" font-size="10.00">Core/Utils/Graph/Adjacency</text>
<text text-anchor="middle" x="1097" y="-380" font-family="Helvetica,sans-Serif" font-size="10.00">List.hpp</text>
</a>
</g>
</g>
<!-- Node2&#45;&gt;Node27 -->
<g id="edge32" class="edge"><title>Node2&#45;&gt;Node27</title>
<path fill="none" stroke="midnightblue" d="M1012.17,-440.841C1027.54,-431.446 1047.93,-418.985 1064.87,-408.635"/>
<polygon fill="midnightblue" stroke="midnightblue" points="1067.16,-411.336 1073.87,-403.135 1063.51,-405.363 1067.16,-411.336"/>
</g>
<!-- Node4 -->
<g id="node4" class="node"><title>Node4</title>
<g id="a_node4"><a xlink:href="Pose_8hpp.html" target="_top" xlink:title="Core/Animation/Pose\l/Pose.hpp">
<polygon fill="white" stroke="black" points="910,-305 910,-335 1020,-335 1020,-305 910,-305"/>
<text text-anchor="start" x="918" y="-323" font-family="Helvetica,sans-Serif" font-size="10.00">Core/Animation/Pose</text>
<text text-anchor="middle" x="965" y="-312" font-family="Helvetica,sans-Serif" font-size="10.00">/Pose.hpp</text>
</a>
</g>
</g>
<!-- Node3&#45;&gt;Node4 -->
<g id="edge3" class="edge"><title>Node3&#45;&gt;Node4</title>
<path fill="none" stroke="midnightblue" d="M865.245,-372.841C883.827,-363.185 908.638,-350.29 928.867,-339.778"/>
<polygon fill="midnightblue" stroke="midnightblue" points="930.541,-342.852 937.8,-335.135 927.313,-336.641 930.541,-342.852"/>
</g>
<!-- Node6 -->
<g id="node6" class="node"><title>Node6</title>
<g id="a_node6"><a xlink:href="RaCore_8hpp.html" target="_top" xlink:title="Core/RaCore.hpp">
<polygon fill="white" stroke="black" points="816.5,-112.5 816.5,-131.5 909.5,-131.5 909.5,-112.5 816.5,-112.5"/>
<text text-anchor="middle" x="863" y="-119.5" font-family="Helvetica,sans-Serif" font-size="10.00">Core/RaCore.hpp</text>
</a>
</g>
</g>
<!-- Node3&#45;&gt;Node6 -->
<g id="edge29" class="edge"><title>Node3&#45;&gt;Node6</title>
<path fill="none" stroke="midnightblue" d="M847.079,-372.931C852.901,-363.04 859.926,-349.256 863,-336 879.278,-265.811 870.777,-179.077 865.787,-141.643"/>
<polygon fill="midnightblue" stroke="midnightblue" points="869.244,-141.094 864.382,-131.681 862.313,-142.071 869.244,-141.094"/>
</g>
<!-- Node15 -->
<g id="node15" class="node"><title>Node15</title>
<g id="a_node15"><a xlink:href="LinearAlgebra_8hpp.html" target="_top" xlink:title="Core/Math/LinearAlgebra.hpp">
<polygon fill="white" stroke="black" points="465.5,-242.5 465.5,-261.5 608.5,-261.5 608.5,-242.5 465.5,-242.5"/>
<text text-anchor="middle" x="537" y="-249.5" font-family="Helvetica,sans-Serif" font-size="10.00">Core/Math/LinearAlgebra.hpp</text>
</a>
</g>
</g>
<!-- Node3&#45;&gt;Node15 -->
<g id="edge28" class="edge"><title>Node3&#45;&gt;Node15</title>
<path fill="none" stroke="midnightblue" d="M806.357,-372.913C747.55,-346.733 622.271,-290.961 565.736,-265.793"/>
<polygon fill="midnightblue" stroke="midnightblue" points="566.885,-262.473 556.325,-261.603 564.038,-268.868 566.885,-262.473"/>
</g>
<!-- Node26 -->
<g id="node26" class="node"><title>Node26</title>
<g id="a_node26"><a xlink:href="Handle_8inl.html" target="_top" xlink:title="Core/Animation/Handle\l/Handle.inl">
<polygon fill="white" stroke="black" points="736,-305 736,-335 854,-335 854,-305 736,-305"/>
<text text-anchor="start" x="744" y="-323" font-family="Helvetica,sans-Serif" font-size="10.00">Core/Animation/Handle</text>
<text text-anchor="middle" x="795" y="-312" font-family="Helvetica,sans-Serif" font-size="10.00">/Handle.inl</text>
</a>
</g>
</g>
<!-- Node3&#45;&gt;Node26 -->
<g id="edge30" class="edge"><title>Node3&#45;&gt;Node26</title>
<path fill="none" stroke="midnightblue" d="M822.991,-372.679C816.509,-364.376 809.3,-353.721 803.664,-344.245"/>
<polygon fill="midnightblue" stroke="midnightblue" points="806.585,-342.299 798.637,-335.293 800.481,-345.726 806.585,-342.299"/>
</g>
<!-- Node5 -->
<g id="node5" class="node"><title>Node5</title>
<g id="a_node5"><a xlink:href="AlignedStdVector_8hpp.html" target="_top" xlink:title="Core/Containers/AlignedStd\lVector.hpp">
<polygon fill="white" stroke="black" points="923,-237 923,-267 1061,-267 1061,-237 923,-237"/>
<text text-anchor="start" x="931" y="-255" font-family="Helvetica,sans-Serif" font-size="10.00">Core/Containers/AlignedStd</text>
<text text-anchor="middle" x="992" y="-244" font-family="Helvetica,sans-Serif" font-size="10.00">Vector.hpp</text>
</a>
</g>
</g>
<!-- Node4&#45;&gt;Node5 -->
<g id="edge4" class="edge"><title>Node4&#45;&gt;Node5</title>
<path fill="none" stroke="midnightblue" d="M970.859,-304.679C974.184,-296.549 978.433,-286.164 982.248,-276.839"/>
<polygon fill="midnightblue" stroke="midnightblue" points="985.606,-277.874 986.153,-267.293 979.127,-275.223 985.606,-277.874"/>
</g>
<!-- Node4&#45;&gt;Node15 -->
<g id="edge14" class="edge"><title>Node4&#45;&gt;Node15</title>
<path fill="none" stroke="midnightblue" d="M909.923,-310.507C831.06,-298.346 686.231,-276.012 602.149,-263.046"/>
<polygon fill="midnightblue" stroke="midnightblue" points="602.621,-259.578 592.204,-261.513 601.554,-266.496 602.621,-259.578"/>
</g>
<!-- Node5&#45;&gt;Node6 -->
<g id="edge5" class="edge"><title>Node5&#45;&gt;Node6</title>
<path fill="none" stroke="midnightblue" d="M977.051,-236.812C966.379,-226.636 951.721,-212.561 939,-200 917.83,-179.097 893.763,-154.584 878.488,-138.93"/>
<polygon fill="midnightblue" stroke="midnightblue" points="880.849,-136.337 871.363,-131.617 875.835,-141.222 880.849,-136.337"/>
</g>
<!-- Node13 -->
<g id="node13" class="node"><title>Node13</title>
<polygon fill="white" stroke="#bfbfbf" points="948,-174.5 948,-193.5 1036,-193.5 1036,-174.5 948,-174.5"/>
<text text-anchor="middle" x="992" y="-181.5" font-family="Helvetica,sans-Serif" font-size="10.00">Eigen/StdVector</text>
</g>
<!-- Node5&#45;&gt;Node13 -->
<g id="edge12" class="edge"><title>Node5&#45;&gt;Node13</title>
<path fill="none" stroke="midnightblue" d="M992,-236.679C992,-227.101 992,-214.394 992,-203.977"/>
<polygon fill="midnightblue" stroke="midnightblue" points="995.5,-203.828 992,-193.828 988.5,-203.828 995.5,-203.828"/>
</g>
<!-- Node14 -->
<g id="node14" class="node"><title>Node14</title>
<polygon fill="white" stroke="#bfbfbf" points="1054,-174.5 1054,-193.5 1098,-193.5 1098,-174.5 1054,-174.5"/>
<text text-anchor="middle" x="1076" y="-181.5" font-family="Helvetica,sans-Serif" font-size="10.00">vector</text>
</g>
<!-- Node5&#45;&gt;Node14 -->
<g id="edge13" class="edge"><title>Node5&#45;&gt;Node14</title>
<path fill="none" stroke="midnightblue" d="M1010.23,-236.679C1023.97,-225.879 1042.78,-211.098 1056.77,-200.11"/>
<polygon fill="midnightblue" stroke="midnightblue" points="1059.06,-202.759 1064.76,-193.828 1054.74,-197.254 1059.06,-202.759"/>
</g>
<!-- Node7 -->
<g id="node7" class="node"><title>Node7</title>
<g id="a_node7"><a xlink:href="CoreMacros_8hpp.html" target="_top" xlink:title="Core/CoreMacros.hpp">
<polygon fill="white" stroke="black" points="806.5,-56.5 806.5,-75.5 919.5,-75.5 919.5,-56.5 806.5,-56.5"/>
<text text-anchor="middle" x="863" y="-63.5" font-family="Helvetica,sans-Serif" font-size="10.00">Core/CoreMacros.hpp</text>
</a>
</g>
</g>
<!-- Node6&#45;&gt;Node7 -->
<g id="edge6" class="edge"><title>Node6&#45;&gt;Node7</title>
<path fill="none" stroke="midnightblue" d="M863,-112.083C863,-105.006 863,-94.8611 863,-85.9865"/>
<polygon fill="midnightblue" stroke="midnightblue" points="866.5,-85.751 863,-75.7511 859.5,-85.7511 866.5,-85.751"/>
</g>
<!-- Node8 -->
<g id="node8" class="node"><title>Node8</title>
<polygon fill="white" stroke="#bfbfbf" points="707.5,-0.5 707.5,-19.5 756.5,-19.5 756.5,-0.5 707.5,-0.5"/>
<text text-anchor="middle" x="732" y="-7.5" font-family="Helvetica,sans-Serif" font-size="10.00">cassert</text>
</g>
<!-- Node7&#45;&gt;Node8 -->
<g id="edge7" class="edge"><title>Node7&#45;&gt;Node8</title>
<path fill="none" stroke="midnightblue" d="M842.243,-56.4435C820.684,-47.5566 786.737,-33.5632 762.206,-23.4514"/>
<polygon fill="midnightblue" stroke="midnightblue" points="763.239,-20.0917 752.66,-19.5164 760.572,-26.5634 763.239,-20.0917"/>
</g>
<!-- Node9 -->
<g id="node9" class="node"><title>Node9</title>
<polygon fill="white" stroke="#bfbfbf" points="774.5,-0.5 774.5,-19.5 817.5,-19.5 817.5,-0.5 774.5,-0.5"/>
<text text-anchor="middle" x="796" y="-7.5" font-family="Helvetica,sans-Serif" font-size="10.00">cstdio</text>
</g>
<!-- Node7&#45;&gt;Node9 -->
<g id="edge8" class="edge"><title>Node7&#45;&gt;Node9</title>
<path fill="none" stroke="midnightblue" d="M852.235,-56.324C842.234,-48.2631 827.113,-36.0765 815.07,-26.3695"/>
<polygon fill="midnightblue" stroke="midnightblue" points="816.943,-23.3841 806.961,-19.8339 812.55,-28.8343 816.943,-23.3841"/>
</g>
<!-- Node10 -->
<g id="node10" class="node"><title>Node10</title>
<polygon fill="white" stroke="#bfbfbf" points="836,-0.5 836,-19.5 890,-19.5 890,-0.5 836,-0.5"/>
<text text-anchor="middle" x="863" y="-7.5" font-family="Helvetica,sans-Serif" font-size="10.00">iostream</text>
</g>
<!-- Node7&#45;&gt;Node10 -->
<g id="edge9" class="edge"><title>Node7&#45;&gt;Node10</title>
<path fill="none" stroke="midnightblue" d="M863,-56.083C863,-49.0059 863,-38.8611 863,-29.9865"/>
<polygon fill="midnightblue" stroke="midnightblue" points="866.5,-29.751 863,-19.7511 859.5,-29.7511 866.5,-29.751"/>
</g>
<!-- Node11 -->
<g id="node11" class="node"><title>Node11</title>
<polygon fill="white" stroke="#bfbfbf" points="908,-0.5 908,-19.5 960,-19.5 960,-0.5 908,-0.5"/>
<text text-anchor="middle" x="934" y="-7.5" font-family="Helvetica,sans-Serif" font-size="10.00">sstream</text>
</g>
<!-- Node7&#45;&gt;Node11 -->
<g id="edge10" class="edge"><title>Node7&#45;&gt;Node11</title>
<path fill="none" stroke="midnightblue" d="M874.407,-56.324C885.109,-48.1849 901.341,-35.8395 914.163,-26.0874"/>
<polygon fill="midnightblue" stroke="midnightblue" points="916.544,-28.6734 922.385,-19.8339 912.307,-23.1018 916.544,-28.6734"/>
</g>
<!-- Node12 -->
<g id="node12" class="node"><title>Node12</title>
<polygon fill="white" stroke="#bfbfbf" points="978,-0.5 978,-19.5 1022,-19.5 1022,-0.5 978,-0.5"/>
<text text-anchor="middle" x="1000" y="-7.5" font-family="Helvetica,sans-Serif" font-size="10.00">thread</text>
</g>
<!-- Node7&#45;&gt;Node12 -->
<g id="edge11" class="edge"><title>Node7&#45;&gt;Node12</title>
<path fill="none" stroke="midnightblue" d="M884.708,-56.4435C907.355,-47.5171 943.072,-33.4387 968.752,-23.3168"/>
<polygon fill="midnightblue" stroke="midnightblue" points="970.374,-26.4397 978.394,-19.5164 967.807,-19.9273 970.374,-26.4397"/>
</g>
<!-- Node15&#45;&gt;Node6 -->
<g id="edge15" class="edge"><title>Node15&#45;&gt;Node6</title>
<path fill="none" stroke="midnightblue" d="M608.65,-245.562C682.272,-238.717 790.688,-224.746 824,-200 843.126,-185.792 853.539,-159.53 858.683,-141.668"/>
<polygon fill="midnightblue" stroke="midnightblue" points="862.116,-142.373 861.237,-131.814 855.34,-140.617 862.116,-142.373"/>
</g>
<!-- Node16 -->
<g id="node16" class="node"><title>Node16</title>
<polygon fill="white" stroke="#bfbfbf" points="169.5,-174.5 169.5,-193.5 234.5,-193.5 234.5,-174.5 169.5,-174.5"/>
<text text-anchor="middle" x="202" y="-181.5" font-family="Helvetica,sans-Serif" font-size="10.00">Eigen/Core</text>
</g>
<!-- Node15&#45;&gt;Node16 -->
<g id="edge16" class="edge"><title>Node15&#45;&gt;Node16</title>
<path fill="none" stroke="midnightblue" d="M467.334,-242.496C407.278,-234.317 318.57,-220.204 243,-200 239.602,-199.092 236.089,-198.02 232.613,-196.873"/>
<polygon fill="midnightblue" stroke="midnightblue" points="233.643,-193.525 223.048,-193.519 231.327,-200.131 233.643,-193.525"/>
</g>
<!-- Node17 -->
<g id="node17" class="node"><title>Node17</title>
<polygon fill="white" stroke="#bfbfbf" points="252.5,-174.5 252.5,-193.5 339.5,-193.5 339.5,-174.5 252.5,-174.5"/>
<text text-anchor="middle" x="296" y="-181.5" font-family="Helvetica,sans-Serif" font-size="10.00">Eigen/Geometry</text>
</g>
<!-- Node15&#45;&gt;Node17 -->
<g id="edge17" class="edge"><title>Node15&#45;&gt;Node17</title>
<path fill="none" stroke="midnightblue" d="M504.513,-242.416C466.822,-232.415 402.831,-215.305 348,-200 343.877,-198.849 339.574,-197.633 335.286,-196.411"/>
<polygon fill="midnightblue" stroke="midnightblue" points="335.977,-192.968 325.4,-193.577 334.049,-199.697 335.977,-192.968"/>
</g>
<!-- Node18 -->
<g id="node18" class="node"><title>Node18</title>
<polygon fill="white" stroke="#bfbfbf" points="357.5,-174.5 357.5,-193.5 432.5,-193.5 432.5,-174.5 357.5,-174.5"/>
<text text-anchor="middle" x="395" y="-181.5" font-family="Helvetica,sans-Serif" font-size="10.00">Eigen/Sparse</text>
</g>
<!-- Node15&#45;&gt;Node18 -->
<g id="edge18" class="edge"><title>Node15&#45;&gt;Node18</title>
<path fill="none" stroke="midnightblue" d="M518.436,-242.372C494.092,-231.057 451.166,-211.105 422.901,-197.968"/>
<polygon fill="midnightblue" stroke="midnightblue" points="424.112,-194.671 413.569,-193.63 421.162,-201.019 424.112,-194.671"/>
</g>
<!-- Node19 -->
<g id="node19" class="node"><title>Node19</title>
<polygon fill="white" stroke="#bfbfbf" points="450.5,-174.5 450.5,-193.5 509.5,-193.5 509.5,-174.5 450.5,-174.5"/>
<text text-anchor="middle" x="480" y="-181.5" font-family="Helvetica,sans-Serif" font-size="10.00">functional</text>
</g>
<!-- Node15&#45;&gt;Node19 -->
<g id="edge19" class="edge"><title>Node15&#45;&gt;Node19</title>
<path fill="none" stroke="midnightblue" d="M529.548,-242.372C520.637,-232.053 505.522,-214.551 494.324,-201.585"/>
<polygon fill="midnightblue" stroke="midnightblue" points="496.821,-199.122 487.636,-193.841 491.523,-203.697 496.821,-199.122"/>
</g>
<!-- Node20 -->
<g id="node20" class="node"><title>Node20</title>
<polygon fill="white" stroke="#bfbfbf" points="527.5,-169 527.5,-199 660.5,-199 660.5,-169 527.5,-169"/>
<text text-anchor="start" x="535.5" y="-187" font-family="Helvetica,sans-Serif" font-size="10.00">unsupported/Eigen/Aligned</text>
<text text-anchor="middle" x="594" y="-176" font-family="Helvetica,sans-Serif" font-size="10.00">Vector3</text>
</g>
<!-- Node15&#45;&gt;Node20 -->
<g id="edge20" class="edge"><title>Node15&#45;&gt;Node20</title>
<path fill="none" stroke="midnightblue" d="M544.452,-242.372C552.225,-233.371 564.717,-218.907 575.213,-206.753"/>
<polygon fill="midnightblue" stroke="midnightblue" points="577.865,-209.037 581.752,-199.181 572.567,-204.462 577.865,-209.037"/>
</g>
<!-- Node21 -->
<g id="node21" class="node"><title>Node21</title>
<g id="a_node21"><a xlink:href="Math_8hpp.html" target="_top" xlink:title="Core/Math/Math.hpp">
<polygon fill="white" stroke="black" points="45,-174.5 45,-193.5 151,-193.5 151,-174.5 45,-174.5"/>
<text text-anchor="middle" x="98" y="-181.5" font-family="Helvetica,sans-Serif" font-size="10.00">Core/Math/Math.hpp</text>
</a>
</g>
</g>
<!-- Node15&#45;&gt;Node21 -->
<g id="edge21" class="edge"><title>Node15&#45;&gt;Node21</title>
<path fill="none" stroke="midnightblue" d="M465.426,-243.538C389.332,-235.088 265.64,-219.87 160,-200 153.715,-198.818 147.11,-197.406 140.65,-195.927"/>
<polygon fill="midnightblue" stroke="midnightblue" points="141.221,-192.466 130.684,-193.574 139.612,-199.279 141.221,-192.466"/>
</g>
<!-- Node25 -->
<g id="node25" class="node"><title>Node25</title>
<g id="a_node25"><a xlink:href="LinearAlgebra_8inl.html" target="_top" xlink:title="Core/Math/LinearAlgebra.inl">
<polygon fill="white" stroke="black" points="678.5,-174.5 678.5,-193.5 815.5,-193.5 815.5,-174.5 678.5,-174.5"/>
<text text-anchor="middle" x="747" y="-181.5" font-family="Helvetica,sans-Serif" font-size="10.00">Core/Math/LinearAlgebra.inl</text>
</a>
</g>
</g>
<!-- Node15&#45;&gt;Node25 -->
<g id="edge27" class="edge"><title>Node15&#45;&gt;Node25</title>
<path fill="none" stroke="midnightblue" d="M564.454,-242.372C601.737,-230.654 668.493,-209.674 710.119,-196.591"/>
<polygon fill="midnightblue" stroke="midnightblue" points="711.382,-199.863 719.872,-193.526 709.283,-193.185 711.382,-199.863"/>
</g>
<!-- Node21&#45;&gt;Node6 -->
<g id="edge22" class="edge"><title>Node21&#45;&gt;Node6</title>
<path fill="none" stroke="midnightblue" d="M128.697,-174.459C138.615,-172 149.708,-169.562 160,-168 398.209,-131.84 686.12,-124.685 806.161,-123.307"/>
<polygon fill="midnightblue" stroke="midnightblue" points="806.262,-126.806 816.224,-123.201 806.188,-119.807 806.262,-126.806"/>
</g>
<!-- Node22 -->
<g id="node22" class="node"><title>Node22</title>
<polygon fill="white" stroke="#bfbfbf" points="118,-112.5 118,-131.5 174,-131.5 174,-112.5 118,-112.5"/>
<text text-anchor="middle" x="146" y="-119.5" font-family="Helvetica,sans-Serif" font-size="10.00">algorithm</text>
</g>
<!-- Node21&#45;&gt;Node22 -->
<g id="edge23" class="edge"><title>Node21&#45;&gt;Node22</title>
<path fill="none" stroke="midnightblue" d="M104.877,-174.403C112.149,-165.314 123.795,-150.756 132.841,-139.449"/>
<polygon fill="midnightblue" stroke="midnightblue" points="135.622,-141.576 139.136,-131.581 130.155,-137.203 135.622,-141.576"/>
</g>
<!-- Node23 -->
<g id="node23" class="node"><title>Node23</title>
<polygon fill="white" stroke="#bfbfbf" points="192,-112.5 192,-131.5 236,-131.5 236,-112.5 192,-112.5"/>
<text text-anchor="middle" x="214" y="-119.5" font-family="Helvetica,sans-Serif" font-size="10.00">cmath</text>
</g>
<!-- Node21&#45;&gt;Node23 -->
<g id="edge24" class="edge"><title>Node21&#45;&gt;Node23</title>
<path fill="none" stroke="midnightblue" d="M114.62,-174.403C133.915,-164.423 165.959,-147.849 188.431,-136.225"/>
<polygon fill="midnightblue" stroke="midnightblue" points="190.137,-139.284 197.411,-131.581 186.921,-133.066 190.137,-139.284"/>
</g>
<!-- Node24 -->
<g id="node24" class="node"><title>Node24</title>
<g id="a_node24"><a xlink:href="Math_8inl.html" target="_top" xlink:title="Core/Math/Math.inl">
<polygon fill="white" stroke="black" points="0,-112.5 0,-131.5 100,-131.5 100,-112.5 0,-112.5"/>
<text text-anchor="middle" x="50" y="-119.5" font-family="Helvetica,sans-Serif" font-size="10.00">Core/Math/Math.inl</text>
</a>
</g>
</g>
<!-- Node21&#45;&gt;Node24 -->
<g id="edge25" class="edge"><title>Node21&#45;&gt;Node24</title>
<path fill="none" stroke="midnightblue" d="M86.2222,-174.403C77.1661,-165.493 65.4109,-151.325 57.5308,-140.118"/>
<polygon fill="midnightblue" stroke="midnightblue" points="60.3595,-138.048 51.9673,-131.581 54.4949,-141.87 60.3595,-138.048"/>
</g>
<!-- Node24&#45;&gt;Node21 -->
<g id="edge26" class="edge"><title>Node24&#45;&gt;Node21</title>
<path fill="none" stroke="midnightblue" d="M61.7616,-131.581C70.8145,-140.485 82.5704,-154.652 90.4551,-165.862"/>
<polygon fill="midnightblue" stroke="midnightblue" points="87.6301,-167.938 96.0234,-174.403 93.494,-164.115 87.6301,-167.938"/>
</g>
<!-- Node26&#45;&gt;Node3 -->
<g id="edge31" class="edge"><title>Node26&#45;&gt;Node3</title>
<path fill="none" stroke="midnightblue" d="M809.987,-335.293C816.467,-343.591 823.678,-354.244 829.317,-363.723"/>
<polygon fill="midnightblue" stroke="midnightblue" points="826.399,-365.674 834.348,-372.679 832.502,-362.246 826.399,-365.674"/>
</g>
<!-- Node27&#45;&gt;Node5 -->
<g id="edge33" class="edge"><title>Node27&#45;&gt;Node5</title>
<path fill="none" stroke="midnightblue" d="M1085.76,-372.66C1067.45,-349.286 1031.03,-302.815 1009.37,-275.167"/>
<polygon fill="midnightblue" stroke="midnightblue" points="1012.08,-272.95 1003.16,-267.237 1006.57,-277.267 1012.08,-272.95"/>
</g>
<!-- Node28 -->
<g id="node28" class="node"><title>Node28</title>
<g id="a_node28"><a xlink:href="AdjacencyList_8inl.html" target="_top" xlink:title="Core/Utils/Graph/Adjacency\lList.inl">
<polygon fill="white" stroke="black" points="1076.5,-305 1076.5,-335 1215.5,-335 1215.5,-305 1076.5,-305"/>
<text text-anchor="start" x="1084.5" y="-323" font-family="Helvetica,sans-Serif" font-size="10.00">Core/Utils/Graph/Adjacency</text>
<text text-anchor="middle" x="1146" y="-312" font-family="Helvetica,sans-Serif" font-size="10.00">List.inl</text>
</a>
</g>
</g>
<!-- Node27&#45;&gt;Node28 -->
<g id="edge34" class="edge"><title>Node27&#45;&gt;Node28</title>
<path fill="none" stroke="midnightblue" d="M1101.95,-372.679C1107.26,-364.03 1115.33,-352.829 1123.21,-343.067"/>
<polygon fill="midnightblue" stroke="midnightblue" points="1125.98,-345.208 1129.71,-335.293 1120.61,-340.715 1125.98,-345.208"/>
</g>
<!-- Node28&#45;&gt;Node27 -->
<g id="edge35" class="edge"><title>Node28&#45;&gt;Node27</title>
<path fill="none" stroke="midnightblue" d="M1141.06,-335.293C1135.77,-343.936 1127.7,-355.136 1119.82,-364.901"/>
<polygon fill="midnightblue" stroke="midnightblue" points="1117.04,-362.763 1113.31,-372.679 1122.41,-367.255 1117.04,-362.763"/>
</g>
<!-- Node29 -->
<g id="node29" class="node"><title>Node29</title>
<polygon fill="white" stroke="#bfbfbf" points="1131,-242.5 1131,-261.5 1161,-261.5 1161,-242.5 1131,-242.5"/>
<text text-anchor="middle" x="1146" y="-249.5" font-family="Helvetica,sans-Serif" font-size="10.00">set</text>
</g>
<!-- Node28&#45;&gt;Node29 -->
<g id="edge36" class="edge"><title>Node28&#45;&gt;Node29</title>
<path fill="none" stroke="midnightblue" d="M1146,-304.679C1146,-295.101 1146,-282.394 1146,-271.977"/>
<polygon fill="midnightblue" stroke="midnightblue" points="1149.5,-271.828 1146,-261.828 1142.5,-271.828 1149.5,-271.828"/>
</g>
</g>
</svg>
