<?xml version="1.0" encoding="UTF-8" standalone="no"?>
<!DOCTYPE svg PUBLIC "-//W3C//DTD SVG 1.1//EN"
 "http://www.w3.org/Graphics/SVG/1.1/DTD/svg11.dtd">
<!-- Generated by graphviz version 2.36.0 (20140111.2315)
 -->
<!-- Title: /home/travis/build/STORM&#45;IRIT/Radium&#45;Engine/src/Core/Math/Spline.inl Pages: 1 -->
<svg width="1154pt" height="466pt"
 viewBox="0.00 0.00 1153.61 466.00" xmlns="http://www.w3.org/2000/svg" xmlns:xlink="http://www.w3.org/1999/xlink">
<g id="graph0" class="graph" transform="scale(1 1) rotate(0) translate(4 462)">
<title>/home/travis/build/STORM&#45;IRIT/Radium&#45;Engine/src/Core/Math/Spline.inl</title>
<polygon fill="white" stroke="none" points="-4,4 -4,-462 1149.61,-462 1149.61,4 -4,4"/>
<!-- Node1 -->
<g id="node1" class="node"><title>Node1</title>
<polygon fill="#bfbfbf" stroke="black" points="466.608,-416.5 466.608,-457.5 614.608,-457.5 614.608,-416.5 466.608,-416.5"/>
<text text-anchor="start" x="474.608" y="-445.5" font-family="Helvetica,sans-Serif" font-size="10.00">/home/travis/build</text>
<text text-anchor="start" x="474.608" y="-434.5" font-family="Helvetica,sans-Serif" font-size="10.00">/STORM&#45;IRIT/Radium&#45;Engine</text>
<text text-anchor="middle" x="540.608" y="-423.5" font-family="Helvetica,sans-Serif" font-size="10.00">/src/Core/Math/Spline.inl</text>
</g>
<!-- Node2 -->
<g id="node2" class="node"><title>Node2</title>
<g id="a_node2"><a xlink:href="Spline_8hpp.html" target="_top" xlink:title="Spline.hpp">
<polygon fill="white" stroke="black" points="509.608,-360.5 509.608,-379.5 571.608,-379.5 571.608,-360.5 509.608,-360.5"/>
<text text-anchor="middle" x="540.608" y="-367.5" font-family="Helvetica,sans-Serif" font-size="10.00">Spline.hpp</text>
</a>
</g>
</g>
<!-- Node1&#45;&gt;Node2 -->
<g id="edge1" class="edge"><title>Node1&#45;&gt;Node2</title>
<path fill="none" stroke="midnightblue" d="M534.363,-416.498C533.665,-407.969 533.691,-398.011 534.441,-389.59"/>
<polygon fill="midnightblue" stroke="midnightblue" points="537.911,-390.044 535.844,-379.652 530.98,-389.065 537.911,-390.044"/>
</g>
<!-- Node20 -->
<g id="node20" class="node"><title>Node20</title>
<g id="a_node20"><a xlink:href="Math_8hpp.html" target="_top" xlink:title="Core/Math/Math.hpp">
<polygon fill="white" stroke="black" points="968.608,-174.5 968.608,-193.5 1074.61,-193.5 1074.61,-174.5 968.608,-174.5"/>
<text text-anchor="middle" x="1021.61" y="-181.5" font-family="Helvetica,sans-Serif" font-size="10.00">Core/Math/Math.hpp</text>
</a>
</g>
</g>
<!-- Node1&#45;&gt;Node20 -->
<g id="edge32" class="edge"><title>Node1&#45;&gt;Node20</title>
<path fill="none" stroke="midnightblue" d="M606.776,-416.476C688.211,-390.545 828.589,-339.54 933.608,-268 962.247,-248.491 990.525,-219.651 1007.01,-201.612"/>
<polygon fill="midnightblue" stroke="midnightblue" points="1010.03,-203.491 1014.11,-193.712 1004.82,-198.813 1010.03,-203.491"/>
</g>
<!-- Node2&#45;&gt;Node1 -->
<g id="edge31" class="edge"><title>Node2&#45;&gt;Node1</title>
<path fill="none" stroke="midnightblue" d="M545.373,-379.652C546.835,-386.524 547.489,-396.559 547.336,-406.263"/>
<polygon fill="midnightblue" stroke="midnightblue" points="543.829,-406.344 546.853,-416.498 550.821,-406.674 543.829,-406.344"/>
</g>
<!-- Node3 -->
<g id="node3" class="node"><title>Node3</title>
<g id="a_node3"><a xlink:href="VectorArray_8hpp.html" target="_top" xlink:title="Core/Containers/VectorArray.hpp">
<polygon fill="white" stroke="black" points="60.1081,-304.5 60.1081,-323.5 221.108,-323.5 221.108,-304.5 60.1081,-304.5"/>
<text text-anchor="middle" x="140.608" y="-311.5" font-family="Helvetica,sans-Serif" font-size="10.00">Core/Containers/VectorArray.hpp</text>
</a>
</g>
</g>
<!-- Node2&#45;&gt;Node3 -->
<g id="edge2" class="edge"><title>Node2&#45;&gt;Node3</title>
<path fill="none" stroke="midnightblue" d="M509.554,-364.808C446.543,-356.301 302.181,-336.812 213.875,-324.891"/>
<polygon fill="midnightblue" stroke="midnightblue" points="214.302,-321.417 203.923,-323.548 213.365,-328.354 214.302,-321.417"/>
</g>
<!-- Node5 -->
<g id="node5" class="node"><title>Node5</title>
<g id="a_node5"><a xlink:href="RaCore_8hpp.html" target="_top" xlink:title="Core/RaCore.hpp">
<polygon fill="white" stroke="black" points="191.108,-112.5 191.108,-131.5 284.108,-131.5 284.108,-112.5 191.108,-112.5"/>
<text text-anchor="middle" x="237.608" y="-119.5" font-family="Helvetica,sans-Serif" font-size="10.00">Core/RaCore.hpp</text>
</a>
</g>
</g>
<!-- Node2&#45;&gt;Node5 -->
<g id="edge29" class="edge"><title>Node2&#45;&gt;Node5</title>
<path fill="none" stroke="midnightblue" d="M571.709,-364.714C680.489,-348.587 1031.43,-286.359 920.608,-168 878.231,-122.739 451.003,-121.368 294.591,-122.406"/>
<polygon fill="midnightblue" stroke="midnightblue" points="294.221,-118.908 284.246,-122.481 294.271,-125.908 294.221,-118.908"/>
</g>
<!-- Node13 -->
<g id="node13" class="node"><title>Node13</title>
<polygon fill="white" stroke="#bfbfbf" points="21.6081,-174.5 21.6081,-193.5 65.6081,-193.5 65.6081,-174.5 21.6081,-174.5"/>
<text text-anchor="middle" x="43.6081" y="-181.5" font-family="Helvetica,sans-Serif" font-size="10.00">vector</text>
</g>
<!-- Node2&#45;&gt;Node13 -->
<g id="edge30" class="edge"><title>Node2&#45;&gt;Node13</title>
<path fill="none" stroke="midnightblue" d="M509.446,-368.386C406.702,-366.061 83.3216,-356.221 50.6081,-324 18.5649,-292.439 29.4188,-233.287 37.7288,-203.353"/>
<polygon fill="midnightblue" stroke="midnightblue" points="41.0882,-204.335 40.5911,-193.752 34.3799,-202.335 41.0882,-204.335"/>
</g>
<!-- Node4 -->
<g id="node4" class="node"><title>Node4</title>
<g id="a_node4"><a xlink:href="AlignedStdVector_8hpp.html" target="_top" xlink:title="Core/Containers/AlignedStd\lVector.hpp">
<polygon fill="white" stroke="black" points="71.6081,-237 71.6081,-267 209.608,-267 209.608,-237 71.6081,-237"/>
<text text-anchor="start" x="79.6081" y="-255" font-family="Helvetica,sans-Serif" font-size="10.00">Core/Containers/AlignedStd</text>
<text text-anchor="middle" x="140.608" y="-244" font-family="Helvetica,sans-Serif" font-size="10.00">Vector.hpp</text>
</a>
</g>
</g>
<!-- Node3&#45;&gt;Node4 -->
<g id="edge3" class="edge"><title>Node3&#45;&gt;Node4</title>
<path fill="none" stroke="midnightblue" d="M140.608,-304.403C140.608,-297.341 140.608,-286.975 140.608,-277.399"/>
<polygon fill="midnightblue" stroke="midnightblue" points="144.108,-277.141 140.608,-267.141 137.108,-277.141 144.108,-277.141"/>
</g>
<!-- Node3&#45;&gt;Node5 -->
<g id="edge27" class="edge"><title>Node3&#45;&gt;Node5</title>
<path fill="none" stroke="midnightblue" d="M109.23,-304.419C88.6918,-297.453 62.4529,-285.818 44.6081,-268 11.5864,-235.028 -16.9767,-204.088 12.6081,-168 33.4982,-142.518 121.347,-131.178 180.892,-126.344"/>
<polygon fill="midnightblue" stroke="midnightblue" points="181.223,-129.829 190.923,-125.568 180.683,-122.849 181.223,-129.829"/>
</g>
<!-- Node3&#45;&gt;Node13 -->
<g id="edge28" class="edge"><title>Node3&#45;&gt;Node13</title>
<path fill="none" stroke="midnightblue" d="M115.087,-304.498C97.7219,-297.412 75.6135,-285.604 62.6081,-268 48.7077,-249.185 44.7323,-221.915 43.7231,-203.833"/>
<polygon fill="midnightblue" stroke="midnightblue" points="47.2171,-203.577 43.4146,-193.688 40.2203,-203.79 47.2171,-203.577"/>
</g>
<!-- Node14 -->
<g id="node14" class="node"><title>Node14</title>
<g id="a_node14"><a xlink:href="LinearAlgebra_8hpp.html" target="_top" xlink:title="Core/Math/LinearAlgebra.hpp">
<polygon fill="white" stroke="black" points="533.108,-242.5 533.108,-261.5 676.108,-261.5 676.108,-242.5 533.108,-242.5"/>
<text text-anchor="middle" x="604.608" y="-249.5" font-family="Helvetica,sans-Serif" font-size="10.00">Core/Math/LinearAlgebra.hpp</text>
</a>
</g>
</g>
<!-- Node3&#45;&gt;Node14 -->
<g id="edge13" class="edge"><title>Node3&#45;&gt;Node14</title>
<path fill="none" stroke="midnightblue" d="M206.595,-304.467C291.638,-293.47 439.179,-274.392 528.757,-262.808"/>
<polygon fill="midnightblue" stroke="midnightblue" points="529.38,-266.257 538.849,-261.503 528.482,-259.315 529.38,-266.257"/>
</g>
<!-- Node4&#45;&gt;Node5 -->
<g id="edge4" class="edge"><title>Node4&#45;&gt;Node5</title>
<path fill="none" stroke="midnightblue" d="M151.563,-236.732C159.395,-226.518 170.174,-212.43 179.608,-200 195.34,-179.272 213.357,-155.318 225.081,-139.704"/>
<polygon fill="midnightblue" stroke="midnightblue" points="227.988,-141.66 231.191,-131.561 222.39,-137.459 227.988,-141.66"/>
</g>
<!-- Node12 -->
<g id="node12" class="node"><title>Node12</title>
<polygon fill="white" stroke="#bfbfbf" points="83.6081,-174.5 83.6081,-193.5 171.608,-193.5 171.608,-174.5 83.6081,-174.5"/>
<text text-anchor="middle" x="127.608" y="-181.5" font-family="Helvetica,sans-Serif" font-size="10.00">Eigen/StdVector</text>
</g>
<!-- Node4&#45;&gt;Node12 -->
<g id="edge11" class="edge"><title>Node4&#45;&gt;Node12</title>
<path fill="none" stroke="midnightblue" d="M137.787,-236.679C135.881,-226.999 133.344,-214.123 131.281,-203.645"/>
<polygon fill="midnightblue" stroke="midnightblue" points="134.714,-202.963 129.347,-193.828 127.846,-204.316 134.714,-202.963"/>
</g>
<!-- Node4&#45;&gt;Node13 -->
<g id="edge12" class="edge"><title>Node4&#45;&gt;Node13</title>
<path fill="none" stroke="midnightblue" d="M119.561,-236.679C103.294,-225.611 80.8839,-210.363 64.625,-199.3"/>
<polygon fill="midnightblue" stroke="midnightblue" points="66.5397,-196.37 56.3031,-193.638 62.6019,-202.157 66.5397,-196.37"/>
</g>
<!-- Node6 -->
<g id="node6" class="node"><title>Node6</title>
<g id="a_node6"><a xlink:href="CoreMacros_8hpp.html" target="_top" xlink:title="Core/CoreMacros.hpp">
<polygon fill="white" stroke="black" points="181.108,-56.5 181.108,-75.5 294.108,-75.5 294.108,-56.5 181.108,-56.5"/>
<text text-anchor="middle" x="237.608" y="-63.5" font-family="Helvetica,sans-Serif" font-size="10.00">Core/CoreMacros.hpp</text>
</a>
</g>
</g>
<!-- Node5&#45;&gt;Node6 -->
<g id="edge5" class="edge"><title>Node5&#45;&gt;Node6</title>
<path fill="none" stroke="midnightblue" d="M237.608,-112.083C237.608,-105.006 237.608,-94.8611 237.608,-85.9865"/>
<polygon fill="midnightblue" stroke="midnightblue" points="241.108,-85.751 237.608,-75.7511 234.108,-85.7511 241.108,-85.751"/>
</g>
<!-- Node7 -->
<g id="node7" class="node"><title>Node7</title>
<polygon fill="white" stroke="#bfbfbf" points="82.1081,-0.5 82.1081,-19.5 131.108,-19.5 131.108,-0.5 82.1081,-0.5"/>
<text text-anchor="middle" x="106.608" y="-7.5" font-family="Helvetica,sans-Serif" font-size="10.00">cassert</text>
</g>
<!-- Node6&#45;&gt;Node7 -->
<g id="edge6" class="edge"><title>Node6&#45;&gt;Node7</title>
<path fill="none" stroke="midnightblue" d="M216.851,-56.4435C195.292,-47.5566 161.345,-33.5632 136.814,-23.4514"/>
<polygon fill="midnightblue" stroke="midnightblue" points="137.848,-20.0917 127.268,-19.5164 135.18,-26.5634 137.848,-20.0917"/>
</g>
<!-- Node8 -->
<g id="node8" class="node"><title>Node8</title>
<polygon fill="white" stroke="#bfbfbf" points="149.108,-0.5 149.108,-19.5 192.108,-19.5 192.108,-0.5 149.108,-0.5"/>
<text text-anchor="middle" x="170.608" y="-7.5" font-family="Helvetica,sans-Serif" font-size="10.00">cstdio</text>
</g>
<!-- Node6&#45;&gt;Node8 -->
<g id="edge7" class="edge"><title>Node6&#45;&gt;Node8</title>
<path fill="none" stroke="midnightblue" d="M226.843,-56.324C216.842,-48.2631 201.722,-36.0765 189.678,-26.3695"/>
<polygon fill="midnightblue" stroke="midnightblue" points="191.551,-23.3841 181.569,-19.8339 187.158,-28.8343 191.551,-23.3841"/>
</g>
<!-- Node9 -->
<g id="node9" class="node"><title>Node9</title>
<polygon fill="white" stroke="#bfbfbf" points="210.608,-0.5 210.608,-19.5 264.608,-19.5 264.608,-0.5 210.608,-0.5"/>
<text text-anchor="middle" x="237.608" y="-7.5" font-family="Helvetica,sans-Serif" font-size="10.00">iostream</text>
</g>
<!-- Node6&#45;&gt;Node9 -->
<g id="edge8" class="edge"><title>Node6&#45;&gt;Node9</title>
<path fill="none" stroke="midnightblue" d="M237.608,-56.083C237.608,-49.0059 237.608,-38.8611 237.608,-29.9865"/>
<polygon fill="midnightblue" stroke="midnightblue" points="241.108,-29.751 237.608,-19.7511 234.108,-29.7511 241.108,-29.751"/>
</g>
<!-- Node10 -->
<g id="node10" class="node"><title>Node10</title>
<polygon fill="white" stroke="#bfbfbf" points="282.608,-0.5 282.608,-19.5 334.608,-19.5 334.608,-0.5 282.608,-0.5"/>
<text text-anchor="middle" x="308.608" y="-7.5" font-family="Helvetica,sans-Serif" font-size="10.00">sstream</text>
</g>
<!-- Node6&#45;&gt;Node10 -->
<g id="edge9" class="edge"><title>Node6&#45;&gt;Node10</title>
<path fill="none" stroke="midnightblue" d="M249.015,-56.324C259.717,-48.1849 275.949,-35.8395 288.771,-26.0874"/>
<polygon fill="midnightblue" stroke="midnightblue" points="291.152,-28.6734 296.993,-19.8339 286.915,-23.1018 291.152,-28.6734"/>
</g>
<!-- Node11 -->
<g id="node11" class="node"><title>Node11</title>
<polygon fill="white" stroke="#bfbfbf" points="352.608,-0.5 352.608,-19.5 396.608,-19.5 396.608,-0.5 352.608,-0.5"/>
<text text-anchor="middle" x="374.608" y="-7.5" font-family="Helvetica,sans-Serif" font-size="10.00">thread</text>
</g>
<!-- Node6&#45;&gt;Node11 -->
<g id="edge10" class="edge"><title>Node6&#45;&gt;Node11</title>
<path fill="none" stroke="midnightblue" d="M259.316,-56.4435C281.963,-47.5171 317.68,-33.4387 343.36,-23.3168"/>
<polygon fill="midnightblue" stroke="midnightblue" points="344.982,-26.4397 353.002,-19.5164 342.415,-19.9273 344.982,-26.4397"/>
</g>
<!-- Node14&#45;&gt;Node5 -->
<g id="edge14" class="edge"><title>Node14&#45;&gt;Node5</title>
<path fill="none" stroke="midnightblue" d="M532.86,-249.66C442.993,-246.469 295.995,-235.762 256.608,-200 240.476,-185.353 237.028,-159.391 236.747,-141.7"/>
<polygon fill="midnightblue" stroke="midnightblue" points="240.247,-141.754 236.907,-131.699 233.247,-141.642 240.247,-141.754"/>
</g>
<!-- Node15 -->
<g id="node15" class="node"><title>Node15</title>
<polygon fill="white" stroke="#bfbfbf" points="572.108,-174.5 572.108,-193.5 637.108,-193.5 637.108,-174.5 572.108,-174.5"/>
<text text-anchor="middle" x="604.608" y="-181.5" font-family="Helvetica,sans-Serif" font-size="10.00">Eigen/Core</text>
</g>
<!-- Node14&#45;&gt;Node15 -->
<g id="edge15" class="edge"><title>Node14&#45;&gt;Node15</title>
<path fill="none" stroke="midnightblue" d="M604.608,-242.372C604.608,-232.643 604.608,-216.528 604.608,-203.85"/>
<polygon fill="midnightblue" stroke="midnightblue" points="608.108,-203.841 604.608,-193.841 601.108,-203.841 608.108,-203.841"/>
</g>
<!-- Node16 -->
<g id="node16" class="node"><title>Node16</title>
<polygon fill="white" stroke="#bfbfbf" points="655.108,-174.5 655.108,-193.5 742.108,-193.5 742.108,-174.5 655.108,-174.5"/>
<text text-anchor="middle" x="698.608" y="-181.5" font-family="Helvetica,sans-Serif" font-size="10.00">Eigen/Geometry</text>
</g>
<!-- Node14&#45;&gt;Node16 -->
<g id="edge16" class="edge"><title>Node14&#45;&gt;Node16</title>
<path fill="none" stroke="midnightblue" d="M616.897,-242.372C632.379,-231.502 659.213,-212.66 677.889,-199.547"/>
<polygon fill="midnightblue" stroke="midnightblue" points="680.143,-202.241 686.316,-193.63 676.121,-196.512 680.143,-202.241"/>
</g>
<!-- Node17 -->
<g id="node17" class="node"><title>Node17</title>
<polygon fill="white" stroke="#bfbfbf" points="760.108,-174.5 760.108,-193.5 835.108,-193.5 835.108,-174.5 760.108,-174.5"/>
<text text-anchor="middle" x="797.608" y="-181.5" font-family="Helvetica,sans-Serif" font-size="10.00">Eigen/Sparse</text>
</g>
<!-- Node14&#45;&gt;Node17 -->
<g id="edge17" class="edge"><title>Node14&#45;&gt;Node17</title>
<path fill="none" stroke="midnightblue" d="M629.839,-242.372C663.887,-230.728 724.679,-209.939 762.982,-196.841"/>
<polygon fill="midnightblue" stroke="midnightblue" points="764.347,-200.073 772.676,-193.526 762.082,-193.45 764.347,-200.073"/>
</g>
<!-- Node18 -->
<g id="node18" class="node"><title>Node18</title>
<polygon fill="white" stroke="#bfbfbf" points="853.108,-174.5 853.108,-193.5 912.108,-193.5 912.108,-174.5 853.108,-174.5"/>
<text text-anchor="middle" x="882.608" y="-181.5" font-family="Helvetica,sans-Serif" font-size="10.00">functional</text>
</g>
<!-- Node14&#45;&gt;Node18 -->
<g id="edge18" class="edge"><title>Node14&#45;&gt;Node18</title>
<path fill="none" stroke="midnightblue" d="M656.01,-242.443C704.81,-233.755 779.957,-218.904 843.608,-200 846.572,-199.12 849.631,-198.117 852.669,-197.056"/>
<polygon fill="midnightblue" stroke="midnightblue" points="854,-200.296 862.172,-193.553 851.578,-193.728 854,-200.296"/>
</g>
<!-- Node19 -->
<g id="node19" class="node"><title>Node19</title>
<polygon fill="white" stroke="#bfbfbf" points="266.108,-169 266.108,-199 399.108,-199 399.108,-169 266.108,-169"/>
<text text-anchor="start" x="274.108" y="-187" font-family="Helvetica,sans-Serif" font-size="10.00">unsupported/Eigen/Aligned</text>
<text text-anchor="middle" x="332.608" y="-176" font-family="Helvetica,sans-Serif" font-size="10.00">Vector3</text>
</g>
<!-- Node14&#45;&gt;Node19 -->
<g id="edge19" class="edge"><title>Node14&#45;&gt;Node19</title>
<path fill="none" stroke="midnightblue" d="M569.328,-242.439C526.634,-232.08 453.813,-214.41 400.185,-201.397"/>
<polygon fill="midnightblue" stroke="midnightblue" points="400.95,-197.982 390.407,-199.025 399.3,-204.784 400.95,-197.982"/>
</g>
<!-- Node14&#45;&gt;Node20 -->
<g id="edge20" class="edge"><title>Node14&#45;&gt;Node20</title>
<path fill="none" stroke="midnightblue" d="M658.696,-242.439C735.805,-230.235 877.018,-207.885 958.702,-194.956"/>
<polygon fill="midnightblue" stroke="midnightblue" points="959.273,-198.41 968.603,-193.389 958.179,-191.496 959.273,-198.41"/>
</g>
<!-- Node24 -->
<g id="node24" class="node"><title>Node24</title>
<g id="a_node24"><a xlink:href="LinearAlgebra_8inl.html" target="_top" xlink:title="Core/Math/LinearAlgebra.inl">
<polygon fill="white" stroke="black" points="417.108,-174.5 417.108,-193.5 554.108,-193.5 554.108,-174.5 417.108,-174.5"/>
<text text-anchor="middle" x="485.608" y="-181.5" font-family="Helvetica,sans-Serif" font-size="10.00">Core/Math/LinearAlgebra.inl</text>
</a>
</g>
</g>
<!-- Node14&#45;&gt;Node24 -->
<g id="edge26" class="edge"><title>Node14&#45;&gt;Node24</title>
<path fill="none" stroke="midnightblue" d="M589.051,-242.372C568.917,-231.205 533.617,-211.627 509.927,-198.488"/>
<polygon fill="midnightblue" stroke="midnightblue" points="511.612,-195.42 501.169,-193.63 508.217,-201.541 511.612,-195.42"/>
</g>
<!-- Node20&#45;&gt;Node5 -->
<g id="edge21" class="edge"><title>Node20&#45;&gt;Node5</title>
<path fill="none" stroke="midnightblue" d="M988.401,-174.48C977.681,-172.022 965.701,-169.58 954.608,-168 710.746,-133.27 416.42,-125.344 294.627,-123.535"/>
<polygon fill="midnightblue" stroke="midnightblue" points="294.471,-120.033 284.423,-123.392 294.373,-127.032 294.471,-120.033"/>
</g>
<!-- Node21 -->
<g id="node21" class="node"><title>Node21</title>
<polygon fill="white" stroke="#bfbfbf" points="1089.61,-112.5 1089.61,-131.5 1145.61,-131.5 1145.61,-112.5 1089.61,-112.5"/>
<text text-anchor="middle" x="1117.61" y="-119.5" font-family="Helvetica,sans-Serif" font-size="10.00">algorithm</text>
</g>
<!-- Node20&#45;&gt;Node21 -->
<g id="edge22" class="edge"><title>Node20&#45;&gt;Node21</title>
<path fill="none" stroke="midnightblue" d="M1035.36,-174.403C1050.97,-164.646 1076.67,-148.585 1095.19,-137.011"/>
<polygon fill="midnightblue" stroke="midnightblue" points="1097.25,-139.849 1103.88,-131.581 1093.54,-133.913 1097.25,-139.849"/>
</g>
<!-- Node22 -->
<g id="node22" class="node"><title>Node22</title>
<polygon fill="white" stroke="#bfbfbf" points="909.608,-112.5 909.608,-131.5 953.608,-131.5 953.608,-112.5 909.608,-112.5"/>
<text text-anchor="middle" x="931.608" y="-119.5" font-family="Helvetica,sans-Serif" font-size="10.00">cmath</text>
</g>
<!-- Node20&#45;&gt;Node22 -->
<g id="edge23" class="edge"><title>Node20&#45;&gt;Node22</title>
<path fill="none" stroke="midnightblue" d="M1008.71,-174.403C994.144,-164.691 970.206,-148.732 952.863,-137.17"/>
<polygon fill="midnightblue" stroke="midnightblue" points="954.741,-134.215 944.479,-131.581 950.858,-140.04 954.741,-134.215"/>
</g>
<!-- Node23 -->
<g id="node23" class="node"><title>Node23</title>
<g id="a_node23"><a xlink:href="Math_8inl.html" target="_top" xlink:title="Core/Math/Math.inl">
<polygon fill="white" stroke="black" points="971.608,-112.5 971.608,-131.5 1071.61,-131.5 1071.61,-112.5 971.608,-112.5"/>
<text text-anchor="middle" x="1021.61" y="-119.5" font-family="Helvetica,sans-Serif" font-size="10.00">Core/Math/Math.inl</text>
</a>
</g>
</g>
<!-- Node20&#45;&gt;Node23 -->
<g id="edge24" class="edge"><title>Node20&#45;&gt;Node23</title>
<path fill="none" stroke="midnightblue" d="M1016.71,-174.403C1014.88,-165.938 1014.41,-152.728 1015.29,-141.82"/>
<polygon fill="midnightblue" stroke="midnightblue" points="1018.81,-141.966 1016.71,-131.581 1011.87,-141.006 1018.81,-141.966"/>
</g>
<!-- Node23&#45;&gt;Node20 -->
<g id="edge25" class="edge"><title>Node23&#45;&gt;Node20</title>
<path fill="none" stroke="midnightblue" d="M1026.51,-131.581C1028.34,-140.04 1028.81,-153.248 1027.92,-164.16"/>
<polygon fill="midnightblue" stroke="midnightblue" points="1024.41,-164.018 1026.51,-174.403 1031.34,-164.977 1024.41,-164.018"/>
</g>
</g>
</svg>
