<?xml version="1.0" encoding="UTF-8" standalone="no"?>
<!DOCTYPE svg PUBLIC "-//W3C//DTD SVG 1.1//EN"
 "http://www.w3.org/Graphics/SVG/1.1/DTD/svg11.dtd">
<!-- Generated by graphviz version 2.36.0 (20140111.2315)
 -->
<!-- Title: /home/travis/build/STORM&#45;IRIT/Radium&#45;Engine/src/Core/Math/Spline.inl Pages: 1 -->
<svg width="2281pt" height="398pt"
 viewBox="0.00 0.00 2281.00 398.00" xmlns="http://www.w3.org/2000/svg" xmlns:xlink="http://www.w3.org/1999/xlink">
<g id="graph0" class="graph" transform="scale(1 1) rotate(0) translate(4 394)">
<title>/home/travis/build/STORM&#45;IRIT/Radium&#45;Engine/src/Core/Math/Spline.inl</title>
<polygon fill="white" stroke="none" points="-4,4 -4,-394 2277,-394 2277,4 -4,4"/>
<!-- Node1 -->
<g id="node1" class="node"><title>Node1</title>
<polygon fill="#bfbfbf" stroke="black" points="578,-348.5 578,-389.5 726,-389.5 726,-348.5 578,-348.5"/>
<text text-anchor="start" x="586" y="-377.5" font-family="Helvetica,sans-Serif" font-size="10.00">/home/travis/build</text>
<text text-anchor="start" x="586" y="-366.5" font-family="Helvetica,sans-Serif" font-size="10.00">/STORM&#45;IRIT/Radium&#45;Engine</text>
<text text-anchor="middle" x="652" y="-355.5" font-family="Helvetica,sans-Serif" font-size="10.00">/src/Core/Math/Spline.inl</text>
</g>
<!-- Node2 -->
<g id="node2" class="node"><title>Node2</title>
<g id="a_node2"><a xlink:href="Spline_8hpp.html" target="_top" xlink:title="/home/travis/build\l/STORM&#45;IRIT/Radium&#45;Engine\l/src/Core/Math/Spline.hpp">
<polygon fill="white" stroke="black" points="578,-270.5 578,-311.5 726,-311.5 726,-270.5 578,-270.5"/>
<text text-anchor="start" x="586" y="-299.5" font-family="Helvetica,sans-Serif" font-size="10.00">/home/travis/build</text>
<text text-anchor="start" x="586" y="-288.5" font-family="Helvetica,sans-Serif" font-size="10.00">/STORM&#45;IRIT/Radium&#45;Engine</text>
<text text-anchor="middle" x="652" y="-277.5" font-family="Helvetica,sans-Serif" font-size="10.00">/src/Core/Math/Spline.hpp</text>
</a>
</g>
</g>
<!-- Node1&#45;&gt;Node2 -->
<g id="edge1" class="edge"><title>Node1&#45;&gt;Node2</title>
<path fill="none" stroke="midnightblue" d="M645.395,-338.297C645.076,-329.301 645.283,-319.653 646.018,-311.506"/>
<polygon fill="midnightblue" stroke="midnightblue" points="641.911,-338.659 646.012,-348.428 648.898,-338.234 641.911,-338.659"/>
</g>
<!-- Node2&#45;&gt;Node1 -->
<g id="edge5" class="edge"><title>Node2&#45;&gt;Node1</title>
<path fill="none" stroke="midnightblue" d="M658.602,-321.63C658.924,-330.622 658.72,-340.272 657.988,-348.428"/>
<polygon fill="midnightblue" stroke="midnightblue" points="662.087,-321.273 657.982,-311.506 655.1,-321.701 662.087,-321.273"/>
</g>
<!-- Node3 -->
<g id="node3" class="node"><title>Node3</title>
<g id="a_node3"><a xlink:href="Curve2D_8hpp.html" target="_top" xlink:title="/home/travis/build\l/STORM&#45;IRIT/Radium&#45;Engine\l/src/Core/Math/Curve2D.hpp">
<polygon fill="white" stroke="black" points="99,-186.5 99,-227.5 247,-227.5 247,-186.5 99,-186.5"/>
<text text-anchor="start" x="107" y="-215.5" font-family="Helvetica,sans-Serif" font-size="10.00">/home/travis/build</text>
<text text-anchor="start" x="107" y="-204.5" font-family="Helvetica,sans-Serif" font-size="10.00">/STORM&#45;IRIT/Radium&#45;Engine</text>
<text text-anchor="middle" x="173" y="-193.5" font-family="Helvetica,sans-Serif" font-size="10.00">/src/Core/Math/Curve2D.hpp</text>
</a>
</g>
</g>
<!-- Node2&#45;&gt;Node3 -->
<g id="edge2" class="edge"><title>Node2&#45;&gt;Node3</title>
<path fill="none" stroke="midnightblue" d="M567.962,-275.614C477.183,-260.073 333.933,-235.55 247.185,-220.7"/>
<polygon fill="midnightblue" stroke="midnightblue" points="567.497,-279.085 577.944,-277.322 568.678,-272.185 567.497,-279.085"/>
</g>
<!-- Node5 -->
<g id="node5" class="node"><title>Node5</title>
<g id="a_node5"><a xlink:href="DrawPrimitives_8hpp.html" target="_top" xlink:title="/home/travis/build\l/STORM&#45;IRIT/Radium&#45;Engine\l/src/Engine/Renderer/RenderObject\l/Primitives/DrawPrimitives.hpp">
<polygon fill="white" stroke="black" points="1046,-181 1046,-233 1218,-233 1218,-181 1046,-181"/>
<text text-anchor="start" x="1054" y="-221" font-family="Helvetica,sans-Serif" font-size="10.00">/home/travis/build</text>
<text text-anchor="start" x="1054" y="-210" font-family="Helvetica,sans-Serif" font-size="10.00">/STORM&#45;IRIT/Radium&#45;Engine</text>
<text text-anchor="start" x="1054" y="-199" font-family="Helvetica,sans-Serif" font-size="10.00">/src/Engine/Renderer/RenderObject</text>
<text text-anchor="middle" x="1132" y="-188" font-family="Helvetica,sans-Serif" font-size="10.00">/Primitives/DrawPrimitives.hpp</text>
</a>
</g>
</g>
<!-- Node2&#45;&gt;Node5 -->
<g id="edge6" class="edge"><title>Node2&#45;&gt;Node5</title>
<path fill="none" stroke="midnightblue" d="M736.31,-275.597C823.286,-260.739 958.254,-237.682 1045.89,-222.711"/>
<polygon fill="midnightblue" stroke="midnightblue" points="735.478,-272.188 726.211,-277.322 736.657,-279.088 735.478,-272.188"/>
</g>
<!-- Node4 -->
<g id="node4" class="node"><title>Node4</title>
<g id="a_node4"><a xlink:href="Curve2D_8inl.html" target="_top" xlink:title="/home/travis/build\l/STORM&#45;IRIT/Radium&#45;Engine\l/src/Core/Math/Curve2D.inl">
<polygon fill="white" stroke="black" points="99,-96.5 99,-137.5 247,-137.5 247,-96.5 99,-96.5"/>
<text text-anchor="start" x="107" y="-125.5" font-family="Helvetica,sans-Serif" font-size="10.00">/home/travis/build</text>
<text text-anchor="start" x="107" y="-114.5" font-family="Helvetica,sans-Serif" font-size="10.00">/STORM&#45;IRIT/Radium&#45;Engine</text>
<text text-anchor="middle" x="173" y="-103.5" font-family="Helvetica,sans-Serif" font-size="10.00">/src/Core/Math/Curve2D.inl</text>
</a>
</g>
</g>
<!-- Node3&#45;&gt;Node4 -->
<g id="edge3" class="edge"><title>Node3&#45;&gt;Node4</title>
<path fill="none" stroke="midnightblue" d="M166.579,-176.33C165.976,-163.629 166.202,-149.14 167.257,-137.78"/>
<polygon fill="midnightblue" stroke="midnightblue" points="163.098,-176.735 167.28,-186.47 170.082,-176.252 163.098,-176.735"/>
</g>
<!-- Node4&#45;&gt;Node3 -->
<g id="edge4" class="edge"><title>Node4&#45;&gt;Node3</title>
<path fill="none" stroke="midnightblue" d="M179.434,-147.95C180.025,-160.677 179.787,-175.156 178.72,-186.47"/>
<polygon fill="midnightblue" stroke="midnightblue" points="182.913,-147.519 178.743,-137.78 175.929,-147.994 182.913,-147.519"/>
</g>
<!-- Node6 -->
<g id="node6" class="node"><title>Node6</title>
<g id="a_node6"><a xlink:href="BVH_8inl.html" target="_top" xlink:title="/home/travis/build\l/STORM&#45;IRIT/Radium&#45;Engine\l/src/Core/TreeStructures\l/BVH.inl">
<polygon fill="white" stroke="black" points="265,-91 265,-143 413,-143 413,-91 265,-91"/>
<text text-anchor="start" x="273" y="-131" font-family="Helvetica,sans-Serif" font-size="10.00">/home/travis/build</text>
<text text-anchor="start" x="273" y="-120" font-family="Helvetica,sans-Serif" font-size="10.00">/STORM&#45;IRIT/Radium&#45;Engine</text>
<text text-anchor="start" x="273" y="-109" font-family="Helvetica,sans-Serif" font-size="10.00">/src/Core/TreeStructures</text>
<text text-anchor="middle" x="339" y="-98" font-family="Helvetica,sans-Serif" font-size="10.00">/BVH.inl</text>
</a>
</g>
</g>
<!-- Node5&#45;&gt;Node6 -->
<g id="edge7" class="edge"><title>Node5&#45;&gt;Node6</title>
<path fill="none" stroke="midnightblue" d="M1035.29,-195.268C874.831,-177.462 557.019,-142.194 413.009,-126.213"/>
<polygon fill="midnightblue" stroke="midnightblue" points="1035.3,-198.791 1045.63,-196.415 1036.07,-191.833 1035.3,-198.791"/>
</g>
<!-- Node8 -->
<g id="node8" class="node"><title>Node8</title>
<g id="a_node8"><a xlink:href="GeometryComponent_8cpp.html" target="_top" xlink:title="/home/travis/build\l/STORM&#45;IRIT/Radium&#45;Engine\l/src/Engine/Component/GeometryComponent.cpp">
<polygon fill="white" stroke="black" points="695,-96.5 695,-137.5 929,-137.5 929,-96.5 695,-96.5"/>
<text text-anchor="start" x="703" y="-125.5" font-family="Helvetica,sans-Serif" font-size="10.00">/home/travis/build</text>
<text text-anchor="start" x="703" y="-114.5" font-family="Helvetica,sans-Serif" font-size="10.00">/STORM&#45;IRIT/Radium&#45;Engine</text>
<text text-anchor="middle" x="812" y="-103.5" font-family="Helvetica,sans-Serif" font-size="10.00">/src/Engine/Component/GeometryComponent.cpp</text>
</a>
</g>
</g>
<!-- Node5&#45;&gt;Node8 -->
<g id="edge10" class="edge"><title>Node5&#45;&gt;Node8</title>
<path fill="none" stroke="midnightblue" d="M1036.12,-179.633C986.91,-166.1 928.005,-149.901 882.936,-137.507"/>
<polygon fill="midnightblue" stroke="midnightblue" points="1035.25,-183.025 1045.82,-182.302 1037.11,-176.275 1035.25,-183.025"/>
</g>
<!-- Node9 -->
<g id="node9" class="node"><title>Node9</title>
<g id="a_node9"><a xlink:href="SystemDisplay_8hpp.html" target="_top" xlink:title="/home/travis/build\l/STORM&#45;IRIT/Radium&#45;Engine\l/src/Engine/Managers/SystemDisplay\l/SystemDisplay.hpp">
<polygon fill="white" stroke="black" points="947,-91 947,-143 1129,-143 1129,-91 947,-91"/>
<text text-anchor="start" x="955" y="-131" font-family="Helvetica,sans-Serif" font-size="10.00">/home/travis/build</text>
<text text-anchor="start" x="955" y="-120" font-family="Helvetica,sans-Serif" font-size="10.00">/STORM&#45;IRIT/Radium&#45;Engine</text>
<text text-anchor="start" x="955" y="-109" font-family="Helvetica,sans-Serif" font-size="10.00">/src/Engine/Managers/SystemDisplay</text>
<text text-anchor="middle" x="1038" y="-98" font-family="Helvetica,sans-Serif" font-size="10.00">/SystemDisplay.hpp</text>
</a>
</g>
</g>
<!-- Node5&#45;&gt;Node9 -->
<g id="edge11" class="edge"><title>Node5&#45;&gt;Node9</title>
<path fill="none" stroke="midnightblue" d="M1097.45,-173.658C1086.73,-163.617 1075.07,-152.703 1064.94,-143.221"/>
<polygon fill="midnightblue" stroke="midnightblue" points="1095.37,-176.504 1105.06,-180.783 1100.16,-171.393 1095.37,-176.504"/>
</g>
<!-- Node21 -->
<g id="node21" class="node"><title>Node21</title>
<g id="a_node21"><a xlink:href="DebugRender_8cpp.html" target="_top" xlink:title="/home/travis/build\l/STORM&#45;IRIT/Radium&#45;Engine\l/src/Engine/Renderer/Renderers\l/DebugRender.cpp">
<polygon fill="white" stroke="black" points="1147.5,-91 1147.5,-143 1304.5,-143 1304.5,-91 1147.5,-91"/>
<text text-anchor="start" x="1155.5" y="-131" font-family="Helvetica,sans-Serif" font-size="10.00">/home/travis/build</text>
<text text-anchor="start" x="1155.5" y="-120" font-family="Helvetica,sans-Serif" font-size="10.00">/STORM&#45;IRIT/Radium&#45;Engine</text>
<text text-anchor="start" x="1155.5" y="-109" font-family="Helvetica,sans-Serif" font-size="10.00">/src/Engine/Renderer/Renderers</text>
<text text-anchor="middle" x="1226" y="-98" font-family="Helvetica,sans-Serif" font-size="10.00">/DebugRender.cpp</text>
</a>
</g>
</g>
<!-- Node5&#45;&gt;Node21 -->
<g id="edge23" class="edge"><title>Node5&#45;&gt;Node21</title>
<path fill="none" stroke="midnightblue" d="M1166.55,-173.658C1177.27,-163.617 1188.93,-152.703 1199.06,-143.221"/>
<polygon fill="midnightblue" stroke="midnightblue" points="1163.84,-171.393 1158.94,-180.783 1168.63,-176.504 1163.84,-171.393"/>
</g>
<!-- Node22 -->
<g id="node22" class="node"><title>Node22</title>
<g id="a_node22"><a xlink:href="DrawPrimitives_8cpp.html" target="_top" xlink:title="/home/travis/build\l/STORM&#45;IRIT/Radium&#45;Engine\l/src/Engine/Renderer/RenderObject\l/Primitives/DrawPrimitives.cpp">
<polygon fill="white" stroke="black" points="1323,-91 1323,-143 1495,-143 1495,-91 1323,-91"/>
<text text-anchor="start" x="1331" y="-131" font-family="Helvetica,sans-Serif" font-size="10.00">/home/travis/build</text>
<text text-anchor="start" x="1331" y="-120" font-family="Helvetica,sans-Serif" font-size="10.00">/STORM&#45;IRIT/Radium&#45;Engine</text>
<text text-anchor="start" x="1331" y="-109" font-family="Helvetica,sans-Serif" font-size="10.00">/src/Engine/Renderer/RenderObject</text>
<text text-anchor="middle" x="1409" y="-98" font-family="Helvetica,sans-Serif" font-size="10.00">/Primitives/DrawPrimitives.cpp</text>
</a>
</g>
</g>
<!-- Node5&#45;&gt;Node22 -->
<g id="edge24" class="edge"><title>Node5&#45;&gt;Node22</title>
<path fill="none" stroke="midnightblue" d="M1220.76,-177.802C1255.84,-166.659 1295.82,-153.956 1329.89,-143.133"/>
<polygon fill="midnightblue" stroke="midnightblue" points="1219.48,-174.537 1211.01,-180.901 1221.6,-181.208 1219.48,-174.537"/>
</g>
<!-- Node23 -->
<g id="node23" class="node"><title>Node23</title>
<g id="a_node23"><a xlink:href="SkeletonBoneDrawable_8cpp.html" target="_top" xlink:title="/home/travis/build\l/STORM&#45;IRIT/Radium&#45;Engine\l/Plugins/Animation/src/Drawing\l/SkeletonBoneDrawable.cpp">
<polygon fill="white" stroke="black" points="1513,-91 1513,-143 1667,-143 1667,-91 1513,-91"/>
<text text-anchor="start" x="1521" y="-131" font-family="Helvetica,sans-Serif" font-size="10.00">/home/travis/build</text>
<text text-anchor="start" x="1521" y="-120" font-family="Helvetica,sans-Serif" font-size="10.00">/STORM&#45;IRIT/Radium&#45;Engine</text>
<text text-anchor="start" x="1521" y="-109" font-family="Helvetica,sans-Serif" font-size="10.00">/Plugins/Animation/src/Drawing</text>
<text text-anchor="middle" x="1590" y="-98" font-family="Helvetica,sans-Serif" font-size="10.00">/SkeletonBoneDrawable.cpp</text>
</a>
</g>
</g>
<!-- Node5&#45;&gt;Node23 -->
<g id="edge25" class="edge"><title>Node5&#45;&gt;Node23</title>
<path fill="none" stroke="midnightblue" d="M1228.29,-193.417C1303.79,-182.719 1411.25,-165.655 1504,-144 1506.89,-143.326 1509.82,-142.609 1512.77,-141.859"/>
<polygon fill="midnightblue" stroke="midnightblue" points="1227.73,-189.961 1218.32,-194.82 1228.71,-196.893 1227.73,-189.961"/>
</g>
<!-- Node24 -->
<g id="node24" class="node"><title>Node24</title>
<g id="a_node24"><a xlink:href="DummyComponent_8cpp.html" target="_top" xlink:title="/home/travis/build\l/STORM&#45;IRIT/Radium&#45;Engine\l/Plugins/Dummy/src/DummyComponent.cpp">
<polygon fill="white" stroke="black" points="1685,-96.5 1685,-137.5 1897,-137.5 1897,-96.5 1685,-96.5"/>
<text text-anchor="start" x="1693" y="-125.5" font-family="Helvetica,sans-Serif" font-size="10.00">/home/travis/build</text>
<text text-anchor="start" x="1693" y="-114.5" font-family="Helvetica,sans-Serif" font-size="10.00">/STORM&#45;IRIT/Radium&#45;Engine</text>
<text text-anchor="middle" x="1791" y="-103.5" font-family="Helvetica,sans-Serif" font-size="10.00">/Plugins/Dummy/src/DummyComponent.cpp</text>
</a>
</g>
</g>
<!-- Node5&#45;&gt;Node24 -->
<g id="edge26" class="edge"><title>Node5&#45;&gt;Node24</title>
<path fill="none" stroke="midnightblue" d="M1228.14,-198.231C1337.2,-188.679 1520.14,-170.42 1676,-144 1687,-142.136 1698.53,-139.887 1709.86,-137.501"/>
<polygon fill="midnightblue" stroke="midnightblue" points="1227.81,-194.746 1218.15,-199.1 1228.41,-201.72 1227.81,-194.746"/>
</g>
<!-- Node7 -->
<g id="node7" class="node"><title>Node7</title>
<g id="a_node7"><a xlink:href="BVH_8hpp.html" target="_top" xlink:title="/home/travis/build\l/STORM&#45;IRIT/Radium&#45;Engine\l/src/Core/TreeStructures\l/BVH.hpp">
<polygon fill="white" stroke="black" points="0,-1 0,-53 148,-53 148,-1 0,-1"/>
<text text-anchor="start" x="8" y="-41" font-family="Helvetica,sans-Serif" font-size="10.00">/home/travis/build</text>
<text text-anchor="start" x="8" y="-30" font-family="Helvetica,sans-Serif" font-size="10.00">/STORM&#45;IRIT/Radium&#45;Engine</text>
<text text-anchor="start" x="8" y="-19" font-family="Helvetica,sans-Serif" font-size="10.00">/src/Core/TreeStructures</text>
<text text-anchor="middle" x="74" y="-8" font-family="Helvetica,sans-Serif" font-size="10.00">/BVH.hpp</text>
</a>
</g>
</g>
<!-- Node6&#45;&gt;Node7 -->
<g id="edge8" class="edge"><title>Node6&#45;&gt;Node7</title>
<path fill="none" stroke="midnightblue" d="M255.248,-90.2485C219.206,-78.526 177.595,-64.7031 143.318,-53.0646"/>
<polygon fill="midnightblue" stroke="midnightblue" points="254.176,-93.5802 264.768,-93.3378 256.336,-86.922 254.176,-93.5802"/>
</g>
<!-- Node7&#45;&gt;Node6 -->
<g id="edge9" class="edge"><title>Node7&#45;&gt;Node6</title>
<path fill="none" stroke="midnightblue" d="M158.391,-53.9594C194.249,-65.6255 235.524,-79.338 269.579,-90.9005"/>
<polygon fill="midnightblue" stroke="midnightblue" points="159.024,-50.485 148.432,-50.7268 156.863,-57.1431 159.024,-50.485"/>
</g>
<!-- Node10 -->
<g id="node10" class="node"><title>Node10</title>
<g id="a_node10"><a xlink:href="ItemEntry_8cpp.html" target="_top" xlink:title="/home/travis/build\l/STORM&#45;IRIT/Radium&#45;Engine\l/src/Engine/ItemModel/ItemEntry.cpp">
<polygon fill="white" stroke="black" points="166.5,-6.5 166.5,-47.5 345.5,-47.5 345.5,-6.5 166.5,-6.5"/>
<text text-anchor="start" x="174.5" y="-35.5" font-family="Helvetica,sans-Serif" font-size="10.00">/home/travis/build</text>
<text text-anchor="start" x="174.5" y="-24.5" font-family="Helvetica,sans-Serif" font-size="10.00">/STORM&#45;IRIT/Radium&#45;Engine</text>
<text text-anchor="middle" x="256" y="-13.5" font-family="Helvetica,sans-Serif" font-size="10.00">/src/Engine/ItemModel/ItemEntry.cpp</text>
</a>
</g>
</g>
<!-- Node9&#45;&gt;Node10 -->
<g id="edge12" class="edge"><title>Node9&#45;&gt;Node10</title>
<path fill="none" stroke="midnightblue" d="M936.859,-89.9612C679.815,-50.3023 608.066,-94.6446 355,-54 344.648,-52.3374 333.809,-50.0601 323.258,-47.5399"/>
<polygon fill="midnightblue" stroke="midnightblue" points="936.446,-93.4391 946.868,-91.5331 937.532,-86.5238 936.446,-93.4391"/>
</g>
<!-- Node11 -->
<g id="node11" class="node"><title>Node11</title>
<g id="a_node11"><a xlink:href="EntityManager_8cpp.html" target="_top" xlink:title="/home/travis/build\l/STORM&#45;IRIT/Radium&#45;Engine\l/src/Engine/Managers/EntityManager\l/EntityManager.cpp">
<polygon fill="white" stroke="black" points="364,-1 364,-53 542,-53 542,-1 364,-1"/>
<text text-anchor="start" x="372" y="-41" font-family="Helvetica,sans-Serif" font-size="10.00">/home/travis/build</text>
<text text-anchor="start" x="372" y="-30" font-family="Helvetica,sans-Serif" font-size="10.00">/STORM&#45;IRIT/Radium&#45;Engine</text>
<text text-anchor="start" x="372" y="-19" font-family="Helvetica,sans-Serif" font-size="10.00">/src/Engine/Managers/EntityManager</text>
<text text-anchor="middle" x="453" y="-8" font-family="Helvetica,sans-Serif" font-size="10.00">/EntityManager.cpp</text>
</a>
</g>
</g>
<!-- Node9&#45;&gt;Node11 -->
<g id="edge13" class="edge"><title>Node9&#45;&gt;Node11</title>
<path fill="none" stroke="midnightblue" d="M936.764,-89.9133C766.026,-61.0663 717.834,-83.6774 551,-54 548.054,-53.4759 545.067,-52.9068 542.057,-52.3009"/>
<polygon fill="midnightblue" stroke="midnightblue" points="936.398,-93.4018 946.848,-91.6522 937.588,-86.5036 936.398,-93.4018"/>
</g>
<!-- Node12 -->
<g id="node12" class="node"><title>Node12</title>
<g id="a_node12"><a xlink:href="LightManager_8cpp.html" target="_top" xlink:title="/home/travis/build\l/STORM&#45;IRIT/Radium&#45;Engine\l/src/Engine/Managers/LightManager\l/LightManager.cpp">
<polygon fill="white" stroke="black" points="560.5,-1 560.5,-53 733.5,-53 733.5,-1 560.5,-1"/>
<text text-anchor="start" x="568.5" y="-41" font-family="Helvetica,sans-Serif" font-size="10.00">/home/travis/build</text>
<text text-anchor="start" x="568.5" y="-30" font-family="Helvetica,sans-Serif" font-size="10.00">/STORM&#45;IRIT/Radium&#45;Engine</text>
<text text-anchor="start" x="568.5" y="-19" font-family="Helvetica,sans-Serif" font-size="10.00">/src/Engine/Managers/LightManager</text>
<text text-anchor="middle" x="647" y="-8" font-family="Helvetica,sans-Serif" font-size="10.00">/LightManager.cpp</text>
</a>
</g>
</g>
<!-- Node9&#45;&gt;Node12 -->
<g id="edge14" class="edge"><title>Node9&#45;&gt;Node12</title>
<path fill="none" stroke="midnightblue" d="M936.777,-89.7986C850.217,-71.0609 825.834,-72.8299 743,-54 739.885,-53.2919 736.719,-52.5504 733.525,-51.7839"/>
<polygon fill="midnightblue" stroke="midnightblue" points="936.262,-93.2688 946.78,-91.9945 937.763,-86.4316 936.262,-93.2688"/>
</g>
<!-- Node13 -->
<g id="node13" class="node"><title>Node13</title>
<g id="a_node13"><a xlink:href="SystemDisplay_8cpp.html" target="_top" xlink:title="/home/travis/build\l/STORM&#45;IRIT/Radium&#45;Engine\l/src/Engine/Managers/SystemDisplay\l/SystemDisplay.cpp">
<polygon fill="white" stroke="black" points="752,-1 752,-53 934,-53 934,-1 752,-1"/>
<text text-anchor="start" x="760" y="-41" font-family="Helvetica,sans-Serif" font-size="10.00">/home/travis/build</text>
<text text-anchor="start" x="760" y="-30" font-family="Helvetica,sans-Serif" font-size="10.00">/STORM&#45;IRIT/Radium&#45;Engine</text>
<text text-anchor="start" x="760" y="-19" font-family="Helvetica,sans-Serif" font-size="10.00">/src/Engine/Managers/SystemDisplay</text>
<text text-anchor="middle" x="843" y="-8" font-family="Helvetica,sans-Serif" font-size="10.00">/SystemDisplay.cpp</text>
</a>
</g>
</g>
<!-- Node9&#45;&gt;Node13 -->
<g id="edge15" class="edge"><title>Node9&#45;&gt;Node13</title>
<path fill="none" stroke="midnightblue" d="M972.971,-86.6536C948.903,-75.7923 921.856,-63.5862 898.692,-53.1328"/>
<polygon fill="midnightblue" stroke="midnightblue" points="971.827,-89.9773 982.382,-90.9005 974.707,-83.5969 971.827,-89.9773"/>
</g>
<!-- Node14 -->
<g id="node14" class="node"><title>Node14</title>
<g id="a_node14"><a xlink:href="RenderObjectManager_8cpp.html" target="_top" xlink:title="/home/travis/build\l/STORM&#45;IRIT/Radium&#45;Engine\l/src/Engine/Renderer/RenderObject\l/RenderObjectManager.cpp">
<polygon fill="white" stroke="black" points="952,-1 952,-53 1124,-53 1124,-1 952,-1"/>
<text text-anchor="start" x="960" y="-41" font-family="Helvetica,sans-Serif" font-size="10.00">/home/travis/build</text>
<text text-anchor="start" x="960" y="-30" font-family="Helvetica,sans-Serif" font-size="10.00">/STORM&#45;IRIT/Radium&#45;Engine</text>
<text text-anchor="start" x="960" y="-19" font-family="Helvetica,sans-Serif" font-size="10.00">/src/Engine/Renderer/RenderObject</text>
<text text-anchor="middle" x="1038" y="-8" font-family="Helvetica,sans-Serif" font-size="10.00">/RenderObjectManager.cpp</text>
</a>
</g>
</g>
<!-- Node9&#45;&gt;Node14 -->
<g id="edge16" class="edge"><title>Node9&#45;&gt;Node14</title>
<path fill="none" stroke="midnightblue" d="M1038,-80.4892C1038,-71.3088 1038,-61.616 1038,-53.0921"/>
<polygon fill="midnightblue" stroke="midnightblue" points="1034.5,-80.5467 1038,-90.5468 1041.5,-80.5468 1034.5,-80.5467"/>
</g>
<!-- Node15 -->
<g id="node15" class="node"><title>Node15</title>
<g id="a_node15"><a xlink:href="BaseApplication_8cpp.html" target="_top" xlink:title="/home/travis/build\l/STORM&#45;IRIT/Radium&#45;Engine\l/src/GuiBase/BaseApplication.cpp">
<polygon fill="white" stroke="black" points="1142,-6.5 1142,-47.5 1308,-47.5 1308,-6.5 1142,-6.5"/>
<text text-anchor="start" x="1150" y="-35.5" font-family="Helvetica,sans-Serif" font-size="10.00">/home/travis/build</text>
<text text-anchor="start" x="1150" y="-24.5" font-family="Helvetica,sans-Serif" font-size="10.00">/STORM&#45;IRIT/Radium&#45;Engine</text>
<text text-anchor="middle" x="1225" y="-13.5" font-family="Helvetica,sans-Serif" font-size="10.00">/src/GuiBase/BaseApplication.cpp</text>
</a>
</g>
</g>
<!-- Node9&#45;&gt;Node15 -->
<g id="edge17" class="edge"><title>Node9&#45;&gt;Node15</title>
<path fill="none" stroke="midnightblue" d="M1100.43,-86.6189C1127.76,-73.7593 1159.08,-59.0201 1183.48,-47.5384"/>
<polygon fill="midnightblue" stroke="midnightblue" points="1098.89,-83.4756 1091.34,-90.9005 1101.87,-89.8093 1098.89,-83.4756"/>
</g>
<!-- Node16 -->
<g id="node16" class="node"><title>Node16</title>
<g id="a_node16"><a xlink:href="CameraInterface_8cpp.html" target="_top" xlink:title="/home/travis/build\l/STORM&#45;IRIT/Radium&#45;Engine\l/src/GuiBase/Viewer/CameraInterface.cpp">
<polygon fill="white" stroke="black" points="1326.5,-6.5 1326.5,-47.5 1527.5,-47.5 1527.5,-6.5 1326.5,-6.5"/>
<text text-anchor="start" x="1334.5" y="-35.5" font-family="Helvetica,sans-Serif" font-size="10.00">/home/travis/build</text>
<text text-anchor="start" x="1334.5" y="-24.5" font-family="Helvetica,sans-Serif" font-size="10.00">/STORM&#45;IRIT/Radium&#45;Engine</text>
<text text-anchor="middle" x="1427" y="-13.5" font-family="Helvetica,sans-Serif" font-size="10.00">/src/GuiBase/Viewer/CameraInterface.cpp</text>
</a>
</g>
</g>
<!-- Node9&#45;&gt;Node16 -->
<g id="edge18" class="edge"><title>Node9&#45;&gt;Node16</title>
<path fill="none" stroke="midnightblue" d="M1138.69,-90.0704C1138.8,-90.0469 1138.9,-90.0234 1139,-90 1217.66,-71.933 1238.16,-71.2853 1317,-54 1326.3,-51.9618 1336.02,-49.7627 1345.67,-47.5367"/>
<polygon fill="midnightblue" stroke="midnightblue" points="1138,-86.6372 1129.06,-92.3238 1139.6,-93.4531 1138,-86.6372"/>
</g>
<!-- Node17 -->
<g id="node17" class="node"><title>Node17</title>
<g id="a_node17"><a xlink:href="GizmoManager_8cpp.html" target="_top" xlink:title="/home/travis/build\l/STORM&#45;IRIT/Radium&#45;Engine\l/src/GuiBase/Viewer/Gizmo\l/GizmoManager.cpp">
<polygon fill="white" stroke="black" points="1546,-1 1546,-53 1694,-53 1694,-1 1546,-1"/>
<text text-anchor="start" x="1554" y="-41" font-family="Helvetica,sans-Serif" font-size="10.00">/home/travis/build</text>
<text text-anchor="start" x="1554" y="-30" font-family="Helvetica,sans-Serif" font-size="10.00">/STORM&#45;IRIT/Radium&#45;Engine</text>
<text text-anchor="start" x="1554" y="-19" font-family="Helvetica,sans-Serif" font-size="10.00">/src/GuiBase/Viewer/Gizmo</text>
<text text-anchor="middle" x="1620" y="-8" font-family="Helvetica,sans-Serif" font-size="10.00">/GizmoManager.cpp</text>
</a>
</g>
</g>
<!-- Node9&#45;&gt;Node17 -->
<g id="edge19" class="edge"><title>Node9&#45;&gt;Node17</title>
<path fill="none" stroke="midnightblue" d="M1139.1,-90.132C1315.38,-60.8293 1365.34,-87.7606 1536,-54 1539.14,-53.3779 1542.34,-52.6828 1545.55,-51.9311"/>
<polygon fill="midnightblue" stroke="midnightblue" points="1138.52,-86.6815 1129.24,-91.8072 1139.69,-93.5826 1138.52,-86.6815"/>
</g>
<!-- Node18 -->
<g id="node18" class="node"><title>Node18</title>
<g id="a_node18"><a xlink:href="Viewer_8cpp.html" target="_top" xlink:title="/home/travis/build\l/STORM&#45;IRIT/Radium&#45;Engine\l/src/GuiBase/Viewer/Viewer.cpp">
<polygon fill="white" stroke="black" points="1712,-6.5 1712,-47.5 1870,-47.5 1870,-6.5 1712,-6.5"/>
<text text-anchor="start" x="1720" y="-35.5" font-family="Helvetica,sans-Serif" font-size="10.00">/home/travis/build</text>
<text text-anchor="start" x="1720" y="-24.5" font-family="Helvetica,sans-Serif" font-size="10.00">/STORM&#45;IRIT/Radium&#45;Engine</text>
<text text-anchor="middle" x="1791" y="-13.5" font-family="Helvetica,sans-Serif" font-size="10.00">/src/GuiBase/Viewer/Viewer.cpp</text>
</a>
</g>
</g>
<!-- Node9&#45;&gt;Node18 -->
<g id="edge20" class="edge"><title>Node9&#45;&gt;Node18</title>
<path fill="none" stroke="midnightblue" d="M1139.33,-90.113C1388.89,-51.7488 1458.94,-97.2804 1703,-54 1712.25,-52.3588 1721.92,-50.0931 1731.31,-47.5779"/>
<polygon fill="midnightblue" stroke="midnightblue" points="1138.56,-86.6897 1129.23,-91.696 1139.65,-93.6052 1138.56,-86.6897"/>
</g>
<!-- Node19 -->
<g id="node19" class="node"><title>Node19</title>
<g id="a_node19"><a xlink:href="MeshFeatureTrackingComponent_8cpp.html" target="_top" xlink:title="/home/travis/build\l/STORM&#45;IRIT/Radium&#45;Engine\l/Plugins/MeshFeatureTracking\l/src/MeshFeatureTrackingComponent.cpp">
<polygon fill="white" stroke="black" points="1888,-1 1888,-53 2088,-53 2088,-1 1888,-1"/>
<text text-anchor="start" x="1896" y="-41" font-family="Helvetica,sans-Serif" font-size="10.00">/home/travis/build</text>
<text text-anchor="start" x="1896" y="-30" font-family="Helvetica,sans-Serif" font-size="10.00">/STORM&#45;IRIT/Radium&#45;Engine</text>
<text text-anchor="start" x="1896" y="-19" font-family="Helvetica,sans-Serif" font-size="10.00">/Plugins/MeshFeatureTracking</text>
<text text-anchor="middle" x="1988" y="-8" font-family="Helvetica,sans-Serif" font-size="10.00">/src/MeshFeatureTrackingComponent.cpp</text>
</a>
</g>
</g>
<!-- Node9&#45;&gt;Node19 -->
<g id="edge21" class="edge"><title>Node9&#45;&gt;Node19</title>
<path fill="none" stroke="midnightblue" d="M1139.44,-90.1025C1465.96,-41.9612 1555.74,-99.5417 1878,-54 1881.21,-53.5469 1884.46,-53.0443 1887.73,-52.5002"/>
<polygon fill="midnightblue" stroke="midnightblue" points="1138.59,-86.6912 1129.22,-91.6331 1139.62,-93.6141 1138.59,-86.6912"/>
</g>
<!-- Node20 -->
<g id="node20" class="node"><title>Node20</title>
<g id="a_node20"><a xlink:href="MeshPaintPlugin_8cpp.html" target="_top" xlink:title="/home/travis/build\l/STORM&#45;IRIT/Radium&#45;Engine\l/Plugins/MeshPaint/src/MeshPaint\lPlugin.cpp">
<polygon fill="white" stroke="black" points="2106.5,-1 2106.5,-53 2273.5,-53 2273.5,-1 2106.5,-1"/>
<text text-anchor="start" x="2114.5" y="-41" font-family="Helvetica,sans-Serif" font-size="10.00">/home/travis/build</text>
<text text-anchor="start" x="2114.5" y="-30" font-family="Helvetica,sans-Serif" font-size="10.00">/STORM&#45;IRIT/Radium&#45;Engine</text>
<text text-anchor="start" x="2114.5" y="-19" font-family="Helvetica,sans-Serif" font-size="10.00">/Plugins/MeshPaint/src/MeshPaint</text>
<text text-anchor="middle" x="2190" y="-8" font-family="Helvetica,sans-Serif" font-size="10.00">Plugin.cpp</text>
</a>
</g>
</g>
<!-- Node9&#45;&gt;Node20 -->
<g id="edge22" class="edge"><title>Node9&#45;&gt;Node20</title>
<path fill="none" stroke="midnightblue" d="M1139.26,-90.137C1562.44,-29.9536 1679.32,-119.3 2097,-54 2100.06,-53.5209 2103.17,-52.9753 2106.3,-52.3753"/>
<polygon fill="midnightblue" stroke="midnightblue" points="1138.61,-86.6952 1129.21,-91.5866 1139.61,-93.6236 1138.61,-86.6952"/>
</g>
</g>
</svg>
