<?xml version="1.0" encoding="UTF-8" standalone="no"?>
<!DOCTYPE svg PUBLIC "-//W3C//DTD SVG 1.1//EN"
 "http://www.w3.org/Graphics/SVG/1.1/DTD/svg11.dtd">
<!-- Generated by graphviz version 2.36.0 (20140111.2315)
 -->
<!-- Title: /home/travis/build/STORM&#45;IRIT/Radium&#45;Engine/src/Engine/Renderer/Light/SpotLight.cpp Pages: 1 -->
<svg width="2329pt" height="638pt"
 viewBox="0.00 0.00 2328.78 638.00" xmlns="http://www.w3.org/2000/svg" xmlns:xlink="http://www.w3.org/1999/xlink">
<g id="graph0" class="graph" transform="scale(1 1) rotate(0) translate(4 634)">
<title>/home/travis/build/STORM&#45;IRIT/Radium&#45;Engine/src/Engine/Renderer/Light/SpotLight.cpp</title>
<polygon fill="white" stroke="none" points="-4,4 -4,-634 2324.78,-634 2324.78,4 -4,4"/>
<!-- Node1 -->
<g id="node1" class="node"><title>Node1</title>
<polygon fill="#bfbfbf" stroke="black" points="1246,-577 1246,-629 1394,-629 1394,-577 1246,-577"/>
<text text-anchor="start" x="1254" y="-617" font-family="Helvetica,sans-Serif" font-size="10.00">/home/travis/build</text>
<text text-anchor="start" x="1254" y="-606" font-family="Helvetica,sans-Serif" font-size="10.00">/STORM&#45;IRIT/Radium&#45;Engine</text>
<text text-anchor="start" x="1254" y="-595" font-family="Helvetica,sans-Serif" font-size="10.00">/src/Engine/Renderer/Light</text>
<text text-anchor="middle" x="1320" y="-584" font-family="Helvetica,sans-Serif" font-size="10.00">/SpotLight.cpp</text>
</g>
<!-- Node2 -->
<g id="node2" class="node"><title>Node2</title>
<g id="a_node2"><a xlink:href="SpotLight_8hpp.html" target="_top" xlink:title="Engine/Renderer/Light\l/SpotLight.hpp">
<polygon fill="white" stroke="black" points="1085.5,-509 1085.5,-539 1198.5,-539 1198.5,-509 1085.5,-509"/>
<text text-anchor="start" x="1093.5" y="-527" font-family="Helvetica,sans-Serif" font-size="10.00">Engine/Renderer/Light</text>
<text text-anchor="middle" x="1142" y="-516" font-family="Helvetica,sans-Serif" font-size="10.00">/SpotLight.hpp</text>
</a>
</g>
</g>
<!-- Node1&#45;&gt;Node2 -->
<g id="edge1" class="edge"><title>Node1&#45;&gt;Node2</title>
<path fill="none" stroke="midnightblue" d="M1261.72,-576.787C1236.23,-565.762 1206.91,-553.08 1183.67,-543.026"/>
<polygon fill="midnightblue" stroke="midnightblue" points="1185,-539.789 1174.43,-539.031 1182.22,-546.213 1185,-539.789"/>
</g>
<!-- Node30 -->
<g id="node30" class="node"><title>Node30</title>
<g id="a_node30"><a xlink:href="RenderParameters_8hpp.html" target="_top" xlink:title="Engine/Renderer/RenderTechnique\l/RenderParameters.hpp">
<polygon fill="white" stroke="black" points="1574.5,-441 1574.5,-471 1743.5,-471 1743.5,-441 1574.5,-441"/>
<text text-anchor="start" x="1582.5" y="-459" font-family="Helvetica,sans-Serif" font-size="10.00">Engine/Renderer/RenderTechnique</text>
<text text-anchor="middle" x="1659" y="-448" font-family="Helvetica,sans-Serif" font-size="10.00">/RenderParameters.hpp</text>
</a>
</g>
</g>
<!-- Node1&#45;&gt;Node30 -->
<g id="edge41" class="edge"><title>Node1&#45;&gt;Node30</title>
<path fill="none" stroke="midnightblue" d="M1378.66,-576.908C1446.52,-547.885 1556.57,-500.811 1616.62,-475.128"/>
<polygon fill="midnightblue" stroke="midnightblue" points="1618.35,-478.195 1626.16,-471.045 1615.59,-471.759 1618.35,-478.195"/>
</g>
<!-- Node3 -->
<g id="node3" class="node"><title>Node3</title>
<g id="a_node3"><a xlink:href="RaEngine_8hpp.html" target="_top" xlink:title="Engine/RaEngine.hpp">
<polygon fill="white" stroke="black" points="1670.5,-174.5 1670.5,-193.5 1781.5,-193.5 1781.5,-174.5 1670.5,-174.5"/>
<text text-anchor="middle" x="1726" y="-181.5" font-family="Helvetica,sans-Serif" font-size="10.00">Engine/RaEngine.hpp</text>
</a>
</g>
</g>
<!-- Node2&#45;&gt;Node3 -->
<g id="edge2" class="edge"><title>Node2&#45;&gt;Node3</title>
<path fill="none" stroke="midnightblue" d="M1198.72,-523.461C1307.46,-523.207 1552.19,-517.119 1752,-472 1853.94,-448.981 1972,-493.505 1972,-389 1972,-389 1972,-389 1972,-319 1972,-281.157 1979.81,-262.705 1953,-236 1946.79,-229.819 1844.77,-208.598 1779.63,-195.557"/>
<polygon fill="midnightblue" stroke="midnightblue" points="1780.01,-192.063 1769.51,-193.538 1778.64,-198.927 1780.01,-192.063"/>
</g>
<!-- Node10 -->
<g id="node10" class="node"><title>Node10</title>
<g id="a_node10"><a xlink:href="Math_8hpp.html" target="_top" xlink:title="Core/Math/Math.hpp">
<polygon fill="white" stroke="black" points="59,-174.5 59,-193.5 165,-193.5 165,-174.5 59,-174.5"/>
<text text-anchor="middle" x="112" y="-181.5" font-family="Helvetica,sans-Serif" font-size="10.00">Core/Math/Math.hpp</text>
</a>
</g>
</g>
<!-- Node2&#45;&gt;Node10 -->
<g id="edge9" class="edge"><title>Node2&#45;&gt;Node10</title>
<path fill="none" stroke="midnightblue" d="M1085.28,-521.48C872.524,-515.038 134,-485.711 134,-389 134,-389 134,-389 134,-319 134,-277.311 123.503,-229.279 117.011,-203.559"/>
<polygon fill="midnightblue" stroke="midnightblue" points="120.349,-202.491 114.438,-193.698 113.576,-204.258 120.349,-202.491"/>
</g>
<!-- Node15 -->
<g id="node15" class="node"><title>Node15</title>
<g id="a_node15"><a xlink:href="Light_8hpp.html" target="_top" xlink:title="Engine/Renderer/Light\l/Light.hpp">
<polygon fill="white" stroke="black" points="818.5,-441 818.5,-471 931.5,-471 931.5,-441 818.5,-441"/>
<text text-anchor="start" x="826.5" y="-459" font-family="Helvetica,sans-Serif" font-size="10.00">Engine/Renderer/Light</text>
<text text-anchor="middle" x="875" y="-448" font-family="Helvetica,sans-Serif" font-size="10.00">/Light.hpp</text>
</a>
</g>
</g>
<!-- Node2&#45;&gt;Node15 -->
<g id="edge16" class="edge"><title>Node2&#45;&gt;Node15</title>
<path fill="none" stroke="midnightblue" d="M1085.38,-509.003C1043.25,-498.59 985.635,-484.348 941.349,-473.401"/>
<polygon fill="midnightblue" stroke="midnightblue" points="942.09,-469.979 931.542,-470.977 940.41,-476.774 942.09,-469.979"/>
</g>
<!-- Node29 -->
<g id="node29" class="node"><title>Node29</title>
<g id="a_node29"><a xlink:href="SpotLight_8inl.html" target="_top" xlink:title="Engine/Renderer/Light\l/SpotLight.inl">
<polygon fill="white" stroke="black" points="1085.5,-441 1085.5,-471 1198.5,-471 1198.5,-441 1085.5,-441"/>
<text text-anchor="start" x="1093.5" y="-459" font-family="Helvetica,sans-Serif" font-size="10.00">Engine/Renderer/Light</text>
<text text-anchor="middle" x="1142" y="-448" font-family="Helvetica,sans-Serif" font-size="10.00">/SpotLight.inl</text>
</a>
</g>
</g>
<!-- Node2&#45;&gt;Node29 -->
<g id="edge40" class="edge"><title>Node2&#45;&gt;Node29</title>
<path fill="none" stroke="midnightblue" d="M1142,-508.679C1142,-500.722 1142,-490.605 1142,-481.436"/>
<polygon fill="midnightblue" stroke="midnightblue" points="1145.5,-481.293 1142,-471.293 1138.5,-481.293 1145.5,-481.293"/>
</g>
<!-- Node4 -->
<g id="node4" class="node"><title>Node4</title>
<g id="a_node4"><a xlink:href="CoreMacros_8hpp.html" target="_top" xlink:title="Core/CoreMacros.hpp">
<polygon fill="white" stroke="black" points="1669.5,-56.5 1669.5,-75.5 1782.5,-75.5 1782.5,-56.5 1669.5,-56.5"/>
<text text-anchor="middle" x="1726" y="-63.5" font-family="Helvetica,sans-Serif" font-size="10.00">Core/CoreMacros.hpp</text>
</a>
</g>
</g>
<!-- Node3&#45;&gt;Node4 -->
<g id="edge3" class="edge"><title>Node3&#45;&gt;Node4</title>
<path fill="none" stroke="midnightblue" d="M1726,-174.281C1726,-155.547 1726,-111.098 1726,-85.6822"/>
<polygon fill="midnightblue" stroke="midnightblue" points="1729.5,-85.5047 1726,-75.5048 1722.5,-85.5048 1729.5,-85.5047"/>
</g>
<!-- Node5 -->
<g id="node5" class="node"><title>Node5</title>
<polygon fill="white" stroke="#bfbfbf" points="1604.5,-0.5 1604.5,-19.5 1653.5,-19.5 1653.5,-0.5 1604.5,-0.5"/>
<text text-anchor="middle" x="1629" y="-7.5" font-family="Helvetica,sans-Serif" font-size="10.00">cassert</text>
</g>
<!-- Node4&#45;&gt;Node5 -->
<g id="edge4" class="edge"><title>Node4&#45;&gt;Node5</title>
<path fill="none" stroke="midnightblue" d="M1710.42,-56.324C1695,-47.7428 1671.19,-34.486 1653.29,-24.5224"/>
<polygon fill="midnightblue" stroke="midnightblue" points="1654.99,-21.4606 1644.55,-19.6545 1651.58,-27.5767 1654.99,-21.4606"/>
</g>
<!-- Node6 -->
<g id="node6" class="node"><title>Node6</title>
<polygon fill="white" stroke="#bfbfbf" points="1671.5,-0.5 1671.5,-19.5 1714.5,-19.5 1714.5,-0.5 1671.5,-0.5"/>
<text text-anchor="middle" x="1693" y="-7.5" font-family="Helvetica,sans-Serif" font-size="10.00">cstdio</text>
</g>
<!-- Node4&#45;&gt;Node6 -->
<g id="edge5" class="edge"><title>Node4&#45;&gt;Node6</title>
<path fill="none" stroke="midnightblue" d="M1720.55,-56.083C1715.99,-48.6127 1709.33,-37.7244 1703.71,-28.5199"/>
<polygon fill="midnightblue" stroke="midnightblue" points="1706.55,-26.4588 1698.35,-19.7511 1700.58,-30.109 1706.55,-26.4588"/>
</g>
<!-- Node7 -->
<g id="node7" class="node"><title>Node7</title>
<polygon fill="white" stroke="#bfbfbf" points="1733,-0.5 1733,-19.5 1787,-19.5 1787,-0.5 1733,-0.5"/>
<text text-anchor="middle" x="1760" y="-7.5" font-family="Helvetica,sans-Serif" font-size="10.00">iostream</text>
</g>
<!-- Node4&#45;&gt;Node7 -->
<g id="edge6" class="edge"><title>Node4&#45;&gt;Node7</title>
<path fill="none" stroke="midnightblue" d="M1731.61,-56.083C1736.37,-48.5341 1743.32,-37.4948 1749.15,-28.2298"/>
<polygon fill="midnightblue" stroke="midnightblue" points="1752.12,-30.0783 1754.49,-19.7511 1746.2,-26.3486 1752.12,-30.0783"/>
</g>
<!-- Node8 -->
<g id="node8" class="node"><title>Node8</title>
<polygon fill="white" stroke="#bfbfbf" points="1928,-0.5 1928,-19.5 1980,-19.5 1980,-0.5 1928,-0.5"/>
<text text-anchor="middle" x="1954" y="-7.5" font-family="Helvetica,sans-Serif" font-size="10.00">sstream</text>
</g>
<!-- Node4&#45;&gt;Node8 -->
<g id="edge7" class="edge"><title>Node4&#45;&gt;Node8</title>
<path fill="none" stroke="midnightblue" d="M1762.13,-56.4435C1804.82,-46.3331 1875.41,-29.6134 1918.03,-19.5192"/>
<polygon fill="midnightblue" stroke="midnightblue" points="1919.05,-22.8754 1927.97,-17.1649 1917.43,-16.0638 1919.05,-22.8754"/>
</g>
<!-- Node9 -->
<g id="node9" class="node"><title>Node9</title>
<polygon fill="white" stroke="#bfbfbf" points="1805,-0.5 1805,-19.5 1849,-19.5 1849,-0.5 1805,-0.5"/>
<text text-anchor="middle" x="1827" y="-7.5" font-family="Helvetica,sans-Serif" font-size="10.00">thread</text>
</g>
<!-- Node4&#45;&gt;Node9 -->
<g id="edge8" class="edge"><title>Node4&#45;&gt;Node9</title>
<path fill="none" stroke="midnightblue" d="M1742.23,-56.324C1758.35,-47.7034 1783.3,-34.3643 1801.96,-24.3855"/>
<polygon fill="midnightblue" stroke="midnightblue" points="1803.64,-27.456 1810.81,-19.6545 1800.34,-21.283 1803.64,-27.456"/>
</g>
<!-- Node11 -->
<g id="node11" class="node"><title>Node11</title>
<g id="a_node11"><a xlink:href="RaCore_8hpp.html" target="_top" xlink:title="Core/RaCore.hpp">
<polygon fill="white" stroke="black" points="1209.5,-112.5 1209.5,-131.5 1302.5,-131.5 1302.5,-112.5 1209.5,-112.5"/>
<text text-anchor="middle" x="1256" y="-119.5" font-family="Helvetica,sans-Serif" font-size="10.00">Core/RaCore.hpp</text>
</a>
</g>
</g>
<!-- Node10&#45;&gt;Node11 -->
<g id="edge10" class="edge"><title>Node10&#45;&gt;Node11</title>
<path fill="none" stroke="midnightblue" d="M144.506,-174.498C155.397,-171.978 167.655,-169.495 179,-168 379.064,-141.64 1006.36,-127.757 1199.1,-124.037"/>
<polygon fill="midnightblue" stroke="midnightblue" points="1199.36,-127.532 1209.29,-123.841 1199.22,-120.534 1199.36,-127.532"/>
</g>
<!-- Node12 -->
<g id="node12" class="node"><title>Node12</title>
<polygon fill="white" stroke="#bfbfbf" points="180,-112.5 180,-131.5 236,-131.5 236,-112.5 180,-112.5"/>
<text text-anchor="middle" x="208" y="-119.5" font-family="Helvetica,sans-Serif" font-size="10.00">algorithm</text>
</g>
<!-- Node10&#45;&gt;Node12 -->
<g id="edge12" class="edge"><title>Node10&#45;&gt;Node12</title>
<path fill="none" stroke="midnightblue" d="M125.754,-174.403C141.366,-164.646 167.063,-148.585 185.583,-137.011"/>
<polygon fill="midnightblue" stroke="midnightblue" points="187.646,-139.849 194.271,-131.581 183.936,-133.913 187.646,-139.849"/>
</g>
<!-- Node13 -->
<g id="node13" class="node"><title>Node13</title>
<polygon fill="white" stroke="#bfbfbf" points="0,-112.5 0,-131.5 44,-131.5 44,-112.5 0,-112.5"/>
<text text-anchor="middle" x="22" y="-119.5" font-family="Helvetica,sans-Serif" font-size="10.00">cmath</text>
</g>
<!-- Node10&#45;&gt;Node13 -->
<g id="edge13" class="edge"><title>Node10&#45;&gt;Node13</title>
<path fill="none" stroke="midnightblue" d="M99.1052,-174.403C84.5358,-164.691 60.5978,-148.732 43.2546,-137.17"/>
<polygon fill="midnightblue" stroke="midnightblue" points="45.1329,-134.215 34.8709,-131.581 41.2499,-140.04 45.1329,-134.215"/>
</g>
<!-- Node14 -->
<g id="node14" class="node"><title>Node14</title>
<g id="a_node14"><a xlink:href="Math_8inl.html" target="_top" xlink:title="Core/Math/Math.inl">
<polygon fill="white" stroke="black" points="62,-112.5 62,-131.5 162,-131.5 162,-112.5 62,-112.5"/>
<text text-anchor="middle" x="112" y="-119.5" font-family="Helvetica,sans-Serif" font-size="10.00">Core/Math/Math.inl</text>
</a>
</g>
</g>
<!-- Node10&#45;&gt;Node14 -->
<g id="edge14" class="edge"><title>Node10&#45;&gt;Node14</title>
<path fill="none" stroke="midnightblue" d="M107.099,-174.403C105.268,-165.938 104.797,-152.728 105.685,-141.82"/>
<polygon fill="midnightblue" stroke="midnightblue" points="109.198,-141.966 107.103,-131.581 102.264,-141.006 109.198,-141.966"/>
</g>
<!-- Node11&#45;&gt;Node4 -->
<g id="edge11" class="edge"><title>Node11&#45;&gt;Node4</title>
<path fill="none" stroke="midnightblue" d="M1302.78,-115.625C1386.65,-105.989 1562.83,-85.747 1659.33,-74.6605"/>
<polygon fill="midnightblue" stroke="midnightblue" points="1659.73,-78.1373 1669.26,-73.5187 1658.93,-71.1831 1659.73,-78.1373"/>
</g>
<!-- Node14&#45;&gt;Node10 -->
<g id="edge15" class="edge"><title>Node14&#45;&gt;Node10</title>
<path fill="none" stroke="midnightblue" d="M116.897,-131.581C118.73,-140.04 119.203,-153.248 118.317,-164.16"/>
<polygon fill="midnightblue" stroke="midnightblue" points="114.803,-164.018 116.901,-174.403 121.737,-164.977 114.803,-164.018"/>
</g>
<!-- Node15&#45;&gt;Node3 -->
<g id="edge38" class="edge"><title>Node15&#45;&gt;Node3</title>
<path fill="none" stroke="midnightblue" d="M931.855,-448.197C1047.78,-433.595 1319.26,-395.652 1541,-336 1626.4,-313.026 1677.26,-340.435 1728,-268 1741.21,-249.14 1737.15,-221.498 1732.24,-203.378"/>
<polygon fill="midnightblue" stroke="midnightblue" points="1735.56,-202.261 1729.29,-193.719 1728.86,-204.305 1735.56,-202.261"/>
</g>
<!-- Node16 -->
<g id="node16" class="node"><title>Node16</title>
<g id="a_node16"><a xlink:href="LinearAlgebra_8hpp.html" target="_top" xlink:title="Core/Math/LinearAlgebra.hpp">
<polygon fill="white" stroke="black" points="530.5,-242.5 530.5,-261.5 673.5,-261.5 673.5,-242.5 530.5,-242.5"/>
<text text-anchor="middle" x="602" y="-249.5" font-family="Helvetica,sans-Serif" font-size="10.00">Core/Math/LinearAlgebra.hpp</text>
</a>
</g>
</g>
<!-- Node15&#45;&gt;Node16 -->
<g id="edge17" class="edge"><title>Node15&#45;&gt;Node16</title>
<path fill="none" stroke="midnightblue" d="M818.332,-451.351C751.249,-445.779 645.293,-432.615 619,-404 585.457,-367.495 591.999,-303.217 597.851,-271.611"/>
<polygon fill="midnightblue" stroke="midnightblue" points="601.332,-272.055 599.9,-261.557 594.473,-270.657 601.332,-272.055"/>
</g>
<!-- Node23 -->
<g id="node23" class="node"><title>Node23</title>
<g id="a_node23"><a xlink:href="Component_8hpp.html" target="_top" xlink:title="Engine/Component/Component.hpp">
<polygon fill="white" stroke="black" points="628,-378.5 628,-397.5 800,-397.5 800,-378.5 628,-378.5"/>
<text text-anchor="middle" x="714" y="-385.5" font-family="Helvetica,sans-Serif" font-size="10.00">Engine/Component/Component.hpp</text>
</a>
</g>
</g>
<!-- Node15&#45;&gt;Node23 -->
<g id="edge26" class="edge"><title>Node15&#45;&gt;Node23</title>
<path fill="none" stroke="midnightblue" d="M840.461,-440.841C811.989,-429.169 771.98,-412.768 744.635,-401.558"/>
<polygon fill="midnightblue" stroke="midnightblue" points="745.759,-398.237 735.179,-397.682 743.104,-404.713 745.759,-398.237"/>
</g>
<!-- Node28 -->
<g id="node28" class="node"><title>Node28</title>
<g id="a_node28"><a xlink:href="Light_8inl.html" target="_top" xlink:title="Engine/Renderer/Light\l/Light.inl">
<polygon fill="white" stroke="black" points="818.5,-373 818.5,-403 931.5,-403 931.5,-373 818.5,-373"/>
<text text-anchor="start" x="826.5" y="-391" font-family="Helvetica,sans-Serif" font-size="10.00">Engine/Renderer/Light</text>
<text text-anchor="middle" x="875" y="-380" font-family="Helvetica,sans-Serif" font-size="10.00">/Light.inl</text>
</a>
</g>
</g>
<!-- Node15&#45;&gt;Node28 -->
<g id="edge39" class="edge"><title>Node15&#45;&gt;Node28</title>
<path fill="none" stroke="midnightblue" d="M875,-440.679C875,-432.722 875,-422.605 875,-413.436"/>
<polygon fill="midnightblue" stroke="midnightblue" points="878.5,-413.293 875,-403.293 871.5,-413.293 878.5,-413.293"/>
</g>
<!-- Node16&#45;&gt;Node10 -->
<g id="edge24" class="edge"><title>Node16&#45;&gt;Node10</title>
<path fill="none" stroke="midnightblue" d="M533.961,-242.497C456.092,-232.675 324.759,-215.828 212,-200 200.116,-198.332 187.448,-196.485 175.262,-194.674"/>
<polygon fill="midnightblue" stroke="midnightblue" points="175.575,-191.182 165.168,-193.166 174.541,-198.105 175.575,-191.182"/>
</g>
<!-- Node16&#45;&gt;Node11 -->
<g id="edge18" class="edge"><title>Node16&#45;&gt;Node11</title>
<path fill="none" stroke="midnightblue" d="M673.768,-246.37C730.567,-240.674 810.888,-228.022 876,-200 898.211,-190.441 897.553,-176.991 920,-168 1012.89,-130.794 1130.6,-123.159 1199.19,-122.228"/>
<polygon fill="midnightblue" stroke="midnightblue" points="1199.39,-125.726 1209.36,-122.134 1199.32,-118.727 1199.39,-125.726"/>
</g>
<!-- Node17 -->
<g id="node17" class="node"><title>Node17</title>
<polygon fill="white" stroke="#bfbfbf" points="481.5,-174.5 481.5,-193.5 546.5,-193.5 546.5,-174.5 481.5,-174.5"/>
<text text-anchor="middle" x="514" y="-181.5" font-family="Helvetica,sans-Serif" font-size="10.00">Eigen/Core</text>
</g>
<!-- Node16&#45;&gt;Node17 -->
<g id="edge19" class="edge"><title>Node16&#45;&gt;Node17</title>
<path fill="none" stroke="midnightblue" d="M590.496,-242.372C576.134,-231.6 551.336,-213.002 533.875,-199.906"/>
<polygon fill="midnightblue" stroke="midnightblue" points="535.607,-196.83 525.507,-193.63 531.407,-202.431 535.607,-196.83"/>
</g>
<!-- Node18 -->
<g id="node18" class="node"><title>Node18</title>
<polygon fill="white" stroke="#bfbfbf" points="221.5,-174.5 221.5,-193.5 308.5,-193.5 308.5,-174.5 221.5,-174.5"/>
<text text-anchor="middle" x="265" y="-181.5" font-family="Helvetica,sans-Serif" font-size="10.00">Eigen/Geometry</text>
</g>
<!-- Node16&#45;&gt;Node18 -->
<g id="edge20" class="edge"><title>Node16&#45;&gt;Node18</title>
<path fill="none" stroke="midnightblue" d="M544.325,-242.48C486.499,-233.516 395.081,-218.196 317,-200 312.273,-198.898 307.337,-197.631 302.467,-196.309"/>
<polygon fill="midnightblue" stroke="midnightblue" points="303.23,-192.888 292.656,-193.555 301.338,-199.627 303.23,-192.888"/>
</g>
<!-- Node19 -->
<g id="node19" class="node"><title>Node19</title>
<polygon fill="white" stroke="#bfbfbf" points="564.5,-174.5 564.5,-193.5 639.5,-193.5 639.5,-174.5 564.5,-174.5"/>
<text text-anchor="middle" x="602" y="-181.5" font-family="Helvetica,sans-Serif" font-size="10.00">Eigen/Sparse</text>
</g>
<!-- Node16&#45;&gt;Node19 -->
<g id="edge21" class="edge"><title>Node16&#45;&gt;Node19</title>
<path fill="none" stroke="midnightblue" d="M602,-242.372C602,-232.643 602,-216.528 602,-203.85"/>
<polygon fill="midnightblue" stroke="midnightblue" points="605.5,-203.841 602,-193.841 598.5,-203.841 605.5,-203.841"/>
</g>
<!-- Node20 -->
<g id="node20" class="node"><title>Node20</title>
<polygon fill="white" stroke="#bfbfbf" points="657.5,-174.5 657.5,-193.5 716.5,-193.5 716.5,-174.5 657.5,-174.5"/>
<text text-anchor="middle" x="687" y="-181.5" font-family="Helvetica,sans-Serif" font-size="10.00">functional</text>
</g>
<!-- Node16&#45;&gt;Node20 -->
<g id="edge22" class="edge"><title>Node16&#45;&gt;Node20</title>
<path fill="none" stroke="midnightblue" d="M613.112,-242.372C626.984,-231.6 650.937,-213.002 667.802,-199.906"/>
<polygon fill="midnightblue" stroke="midnightblue" points="670.133,-202.528 675.885,-193.63 665.84,-196.999 670.133,-202.528"/>
</g>
<!-- Node21 -->
<g id="node21" class="node"><title>Node21</title>
<polygon fill="white" stroke="#bfbfbf" points="734.5,-169 734.5,-199 867.5,-199 867.5,-169 734.5,-169"/>
<text text-anchor="start" x="742.5" y="-187" font-family="Helvetica,sans-Serif" font-size="10.00">unsupported/Eigen/Aligned</text>
<text text-anchor="middle" x="801" y="-176" font-family="Helvetica,sans-Serif" font-size="10.00">Vector3</text>
</g>
<!-- Node16&#45;&gt;Node21 -->
<g id="edge23" class="edge"><title>Node16&#45;&gt;Node21</title>
<path fill="none" stroke="midnightblue" d="M628.016,-242.372C658.61,-232.225 710.145,-215.133 749.026,-202.237"/>
<polygon fill="midnightblue" stroke="midnightblue" points="750.229,-205.526 758.618,-199.056 748.025,-198.882 750.229,-205.526"/>
</g>
<!-- Node22 -->
<g id="node22" class="node"><title>Node22</title>
<g id="a_node22"><a xlink:href="LinearAlgebra_8inl.html" target="_top" xlink:title="Core/Math/LinearAlgebra.inl">
<polygon fill="white" stroke="black" points="326.5,-174.5 326.5,-193.5 463.5,-193.5 463.5,-174.5 326.5,-174.5"/>
<text text-anchor="middle" x="395" y="-181.5" font-family="Helvetica,sans-Serif" font-size="10.00">Core/Math/LinearAlgebra.inl</text>
</a>
</g>
</g>
<!-- Node16&#45;&gt;Node22 -->
<g id="edge25" class="edge"><title>Node16&#45;&gt;Node22</title>
<path fill="none" stroke="midnightblue" d="M574.938,-242.372C538.188,-230.654 472.386,-209.674 431.354,-196.591"/>
<polygon fill="midnightblue" stroke="midnightblue" points="432.331,-193.229 421.74,-193.526 430.204,-199.898 432.331,-193.229"/>
</g>
<!-- Node23&#45;&gt;Node3 -->
<g id="edge27" class="edge"><title>Node23&#45;&gt;Node3</title>
<path fill="none" stroke="midnightblue" d="M762.209,-378.474C777.165,-376.076 793.729,-373.669 809,-372 1069.27,-343.55 1137.71,-372.334 1397,-336 1535.83,-316.546 1604.37,-365.602 1705,-268 1722.22,-251.296 1726.07,-222.659 1726.57,-203.778"/>
<polygon fill="midnightblue" stroke="midnightblue" points="1730.07,-203.705 1726.54,-193.714 1723.07,-203.724 1730.07,-203.705"/>
</g>
<!-- Node23&#45;&gt;Node16 -->
<g id="edge31" class="edge"><title>Node23&#45;&gt;Node16</title>
<path fill="none" stroke="midnightblue" d="M696.425,-378.435C680.014,-369.693 655.75,-354.762 640,-336 623.798,-316.7 613.063,-289.357 607.254,-271.406"/>
<polygon fill="midnightblue" stroke="midnightblue" points="610.53,-270.146 604.269,-261.599 603.833,-272.185 610.53,-270.146"/>
</g>
<!-- Node24 -->
<g id="node24" class="node"><title>Node24</title>
<g id="a_node24"><a xlink:href="IndexedObject_8hpp.html" target="_top" xlink:title="Core/Index/IndexedObject.hpp">
<polygon fill="white" stroke="black" points="889.5,-310.5 889.5,-329.5 1038.5,-329.5 1038.5,-310.5 889.5,-310.5"/>
<text text-anchor="middle" x="964" y="-317.5" font-family="Helvetica,sans-Serif" font-size="10.00">Core/Index/IndexedObject.hpp</text>
</a>
</g>
</g>
<!-- Node23&#45;&gt;Node24 -->
<g id="edge28" class="edge"><title>Node23&#45;&gt;Node24</title>
<path fill="none" stroke="midnightblue" d="M746.427,-378.439C791.294,-366.594 872.363,-345.192 921.87,-332.122"/>
<polygon fill="midnightblue" stroke="midnightblue" points="922.855,-335.482 931.631,-329.546 921.068,-328.714 922.855,-335.482"/>
</g>
<!-- Node26 -->
<g id="node26" class="node"><title>Node26</title>
<g id="a_node26"><a xlink:href="Ray_8hpp.html" target="_top" xlink:title="Core/Math/Ray.hpp">
<polygon fill="white" stroke="black" points="334,-310.5 334,-329.5 436,-329.5 436,-310.5 334,-310.5"/>
<text text-anchor="middle" x="385" y="-317.5" font-family="Helvetica,sans-Serif" font-size="10.00">Core/Math/Ray.hpp</text>
</a>
</g>
</g>
<!-- Node23&#45;&gt;Node26 -->
<g id="edge32" class="edge"><title>Node23&#45;&gt;Node26</title>
<path fill="none" stroke="midnightblue" d="M671.326,-378.439C611.418,-366.421 502.466,-344.565 437.614,-331.555"/>
<polygon fill="midnightblue" stroke="midnightblue" points="438.091,-328.081 427.598,-329.546 436.714,-334.944 438.091,-328.081"/>
</g>
<!-- Node27 -->
<g id="node27" class="node"><title>Node27</title>
<g id="a_node27"><a xlink:href="Component_8inl.html" target="_top" xlink:title="Engine/Component/Component.inl">
<polygon fill="white" stroke="black" points="649,-310.5 649,-329.5 815,-329.5 815,-310.5 649,-310.5"/>
<text text-anchor="middle" x="732" y="-317.5" font-family="Helvetica,sans-Serif" font-size="10.00">Engine/Component/Component.inl</text>
</a>
</g>
</g>
<!-- Node23&#45;&gt;Node27 -->
<g id="edge36" class="edge"><title>Node23&#45;&gt;Node27</title>
<path fill="none" stroke="midnightblue" d="M711.622,-378.372C712.217,-368.446 716.282,-351.874 720.972,-339.086"/>
<polygon fill="midnightblue" stroke="midnightblue" points="724.208,-340.419 724.813,-329.841 717.744,-337.733 724.208,-340.419"/>
</g>
<!-- Node24&#45;&gt;Node11 -->
<g id="edge30" class="edge"><title>Node24&#45;&gt;Node11</title>
<path fill="none" stroke="midnightblue" d="M956.642,-310.314C949.016,-300.691 937.583,-284.363 933,-268 920.776,-224.355 918.808,-197.753 953,-168 988.803,-136.845 1121.97,-127.259 1199.33,-124.31"/>
<polygon fill="midnightblue" stroke="midnightblue" points="1199.53,-127.805 1209.4,-123.951 1199.28,-120.809 1199.53,-127.805"/>
</g>
<!-- Node25 -->
<g id="node25" class="node"><title>Node25</title>
<g id="a_node25"><a xlink:href="Index_8hpp.html" target="_top" xlink:title="Core/Index/Index.hpp">
<polygon fill="white" stroke="red" points="776,-242.5 776,-261.5 886,-261.5 886,-242.5 776,-242.5"/>
<text text-anchor="middle" x="831" y="-249.5" font-family="Helvetica,sans-Serif" font-size="10.00">Core/Index/Index.hpp</text>
</a>
</g>
</g>
<!-- Node24&#45;&gt;Node25 -->
<g id="edge29" class="edge"><title>Node24&#45;&gt;Node25</title>
<path fill="none" stroke="midnightblue" d="M946.613,-310.372C923.911,-299.106 883.957,-279.279 857.48,-266.14"/>
<polygon fill="midnightblue" stroke="midnightblue" points="858.905,-262.94 848.392,-261.63 855.794,-269.211 858.905,-262.94"/>
</g>
<!-- Node26&#45;&gt;Node11 -->
<g id="edge34" class="edge"><title>Node26&#45;&gt;Node11</title>
<path fill="none" stroke="midnightblue" d="M360.407,-310.436C300.412,-288.345 155.469,-227.02 212,-168 246.359,-132.128 986.212,-124.698 1199.14,-123.3"/>
<polygon fill="midnightblue" stroke="midnightblue" points="1199.2,-126.8 1209.17,-123.236 1199.15,-119.8 1199.2,-126.8"/>
</g>
<!-- Node26&#45;&gt;Node16 -->
<g id="edge33" class="edge"><title>Node26&#45;&gt;Node16</title>
<path fill="none" stroke="midnightblue" d="M413.369,-310.372C451.977,-298.629 521.168,-277.585 564.162,-264.508"/>
<polygon fill="midnightblue" stroke="midnightblue" points="565.419,-267.784 573.968,-261.526 563.382,-261.087 565.419,-267.784"/>
</g>
<!-- Node26&#45;&gt;Node18 -->
<g id="edge35" class="edge"><title>Node26&#45;&gt;Node18</title>
<path fill="none" stroke="midnightblue" d="M377.126,-310.208C357.289,-288.056 305.024,-229.693 279.475,-201.163"/>
<polygon fill="midnightblue" stroke="midnightblue" points="282.025,-198.765 272.747,-193.65 276.81,-203.435 282.025,-198.765"/>
</g>
<!-- Node27&#45;&gt;Node23 -->
<g id="edge37" class="edge"><title>Node27&#45;&gt;Node23</title>
<path fill="none" stroke="midnightblue" d="M734.365,-329.841C733.727,-339.762 729.708,-356.124 725.068,-368.807"/>
<polygon fill="midnightblue" stroke="midnightblue" points="721.698,-367.795 721.084,-378.372 728.16,-370.486 721.698,-367.795"/>
</g>
<!-- Node30&#45;&gt;Node3 -->
<g id="edge42" class="edge"><title>Node30&#45;&gt;Node3</title>
<path fill="none" stroke="midnightblue" d="M1743.55,-451.891C1875.37,-446.244 2123.42,-432.188 2207,-404 2261.1,-385.752 2288.3,-385.929 2316,-336 2368.75,-240.911 1955.83,-201.143 1791.51,-189.186"/>
<polygon fill="midnightblue" stroke="midnightblue" points="1791.74,-185.694 1781.52,-188.471 1791.24,-192.676 1791.74,-185.694"/>
</g>
<!-- Node30&#45;&gt;Node16 -->
<g id="edge61" class="edge"><title>Node30&#45;&gt;Node16</title>
<path fill="none" stroke="midnightblue" d="M1574.3,-453.642C1461.36,-450.437 1255.71,-439.72 1084,-404 990.432,-384.535 967.247,-375.009 880,-336 853.831,-324.299 850.7,-314.432 824,-304 774.004,-284.466 714.615,-271.309 669.849,-263.258"/>
<polygon fill="midnightblue" stroke="midnightblue" points="670.408,-259.803 659.953,-261.518 669.196,-266.697 670.408,-259.803"/>
</g>
<!-- Node31 -->
<g id="node31" class="node"><title>Node31</title>
<polygon fill="white" stroke="#bfbfbf" points="1220,-174.5 1220,-193.5 1250,-193.5 1250,-174.5 1220,-174.5"/>
<text text-anchor="middle" x="1235" y="-181.5" font-family="Helvetica,sans-Serif" font-size="10.00">set</text>
</g>
<!-- Node30&#45;&gt;Node31 -->
<g id="edge43" class="edge"><title>Node30&#45;&gt;Node31</title>
<path fill="none" stroke="midnightblue" d="M1574.37,-446.298C1480.02,-433.595 1325.52,-403.639 1210,-336 1164.05,-309.093 1116.67,-281.705 1144,-236 1161.35,-206.986 1181.76,-216.967 1211,-200 1211.53,-199.692 1212.07,-199.378 1212.61,-199.059"/>
<polygon fill="midnightblue" stroke="midnightblue" points="1214.66,-201.908 1221.39,-193.723 1211.02,-195.926 1214.66,-201.908"/>
</g>
<!-- Node32 -->
<g id="node32" class="node"><title>Node32</title>
<polygon fill="white" stroke="#bfbfbf" points="1423,-174.5 1423,-193.5 1467,-193.5 1467,-174.5 1423,-174.5"/>
<text text-anchor="middle" x="1445" y="-181.5" font-family="Helvetica,sans-Serif" font-size="10.00">vector</text>
</g>
<!-- Node30&#45;&gt;Node32 -->
<g id="edge44" class="edge"><title>Node30&#45;&gt;Node32</title>
<path fill="none" stroke="midnightblue" d="M1673.36,-440.999C1688.89,-424.093 1709.7,-395.058 1696,-372 1646.63,-288.903 1577.56,-331.861 1505,-268 1483.38,-248.969 1465.09,-220.787 1454.58,-202.656"/>
<polygon fill="midnightblue" stroke="midnightblue" points="1457.52,-200.742 1449.57,-193.74 1451.42,-204.172 1457.52,-200.742"/>
</g>
<!-- Node33 -->
<g id="node33" class="node"><title>Node33</title>
<g id="a_node33"><a xlink:href="AlignedAllocator_8hpp.html" target="_top" xlink:title="Core/Containers/AlignedAllocator.hpp">
<polygon fill="white" stroke="black" points="2018,-378.5 2018,-397.5 2198,-397.5 2198,-378.5 2018,-378.5"/>
<text text-anchor="middle" x="2108" y="-385.5" font-family="Helvetica,sans-Serif" font-size="10.00">Core/Containers/AlignedAllocator.hpp</text>
</a>
</g>
</g>
<!-- Node30&#45;&gt;Node33 -->
<g id="edge45" class="edge"><title>Node30&#45;&gt;Node33</title>
<path fill="none" stroke="midnightblue" d="M1743.72,-442.547C1829.45,-429.945 1960.36,-410.703 2039.69,-399.042"/>
<polygon fill="midnightblue" stroke="midnightblue" points="2040.67,-402.435 2050.05,-397.518 2039.65,-395.51 2040.67,-402.435"/>
</g>
<!-- Node38 -->
<g id="node38" class="node"><title>Node38</title>
<g id="a_node38"><a xlink:href="Log_8hpp.html" target="_top" xlink:title="Core/Log/Log.hpp">
<polygon fill="white" stroke="black" points="1781,-310.5 1781,-329.5 1875,-329.5 1875,-310.5 1781,-310.5"/>
<text text-anchor="middle" x="1828" y="-317.5" font-family="Helvetica,sans-Serif" font-size="10.00">Core/Log/Log.hpp</text>
</a>
</g>
</g>
<!-- Node30&#45;&gt;Node38 -->
<g id="edge51" class="edge"><title>Node30&#45;&gt;Node38</title>
<path fill="none" stroke="midnightblue" d="M1679.18,-440.847C1693.31,-430.804 1712.54,-416.875 1729,-404 1758.09,-381.253 1790.71,-353.435 1810.29,-336.477"/>
<polygon fill="midnightblue" stroke="midnightblue" points="1812.82,-338.916 1818.07,-329.714 1808.22,-333.632 1812.82,-338.916"/>
</g>
<!-- Node43 -->
<g id="node43" class="node"><title>Node43</title>
<g id="a_node43"><a xlink:href="RenderParameters_8inl.html" target="_top" xlink:title="Engine/Renderer/RenderTechnique\l/RenderParameters.inl">
<polygon fill="white" stroke="black" points="1518.5,-373 1518.5,-403 1687.5,-403 1687.5,-373 1518.5,-373"/>
<text text-anchor="start" x="1526.5" y="-391" font-family="Helvetica,sans-Serif" font-size="10.00">Engine/Renderer/RenderTechnique</text>
<text text-anchor="middle" x="1603" y="-380" font-family="Helvetica,sans-Serif" font-size="10.00">/RenderParameters.inl</text>
</a>
</g>
</g>
<!-- Node30&#45;&gt;Node43 -->
<g id="edge62" class="edge"><title>Node30&#45;&gt;Node43</title>
<path fill="none" stroke="midnightblue" d="M1646.85,-440.679C1639.51,-432.03 1630.01,-420.829 1621.72,-411.067"/>
<polygon fill="midnightblue" stroke="midnightblue" points="1624.27,-408.654 1615.13,-403.293 1618.93,-413.183 1624.27,-408.654"/>
</g>
<!-- Node33&#45;&gt;Node11 -->
<g id="edge46" class="edge"><title>Node33&#45;&gt;Node11</title>
<path fill="none" stroke="midnightblue" d="M2088.44,-378.472C2070.85,-369.944 2045.34,-355.324 2029,-336 1997.77,-299.054 2020.75,-269.665 1986,-236 1926.67,-178.512 1893.49,-186.638 1813,-168 1633.67,-126.472 1414.2,-121.782 1312.6,-122.137"/>
<polygon fill="midnightblue" stroke="midnightblue" points="1312.53,-118.637 1302.55,-122.19 1312.57,-125.637 1312.53,-118.637"/>
</g>
<!-- Node34 -->
<g id="node34" class="node"><title>Node34</title>
<polygon fill="white" stroke="#bfbfbf" points="2165.5,-310.5 2165.5,-329.5 2240.5,-329.5 2240.5,-310.5 2165.5,-310.5"/>
<text text-anchor="middle" x="2203" y="-317.5" font-family="Helvetica,sans-Serif" font-size="10.00">mm_malloc.h</text>
</g>
<!-- Node33&#45;&gt;Node34 -->
<g id="edge47" class="edge"><title>Node33&#45;&gt;Node34</title>
<path fill="none" stroke="midnightblue" d="M2120.42,-378.372C2136.14,-367.452 2163.43,-348.489 2182.32,-335.369"/>
<polygon fill="midnightblue" stroke="midnightblue" points="2184.36,-338.21 2190.58,-329.63 2180.37,-332.462 2184.36,-338.21"/>
</g>
<!-- Node35 -->
<g id="node35" class="node"><title>Node35</title>
<polygon fill="white" stroke="#bfbfbf" points="2258.5,-310.5 2258.5,-329.5 2307.5,-329.5 2307.5,-310.5 2258.5,-310.5"/>
<text text-anchor="middle" x="2283" y="-317.5" font-family="Helvetica,sans-Serif" font-size="10.00">cstddef</text>
</g>
<!-- Node33&#45;&gt;Node35 -->
<g id="edge48" class="edge"><title>Node33&#45;&gt;Node35</title>
<path fill="none" stroke="midnightblue" d="M2133.16,-378.484C2161.51,-368.75 2208.89,-352.079 2249,-336 2250.84,-335.262 2252.73,-334.484 2254.63,-333.688"/>
<polygon fill="midnightblue" stroke="midnightblue" points="2256.23,-336.809 2264.04,-329.641 2253.47,-330.379 2256.23,-336.809"/>
</g>
<!-- Node36 -->
<g id="node36" class="node"><title>Node36</title>
<polygon fill="white" stroke="#bfbfbf" points="2038,-310.5 2038,-329.5 2084,-329.5 2084,-310.5 2038,-310.5"/>
<text text-anchor="middle" x="2061" y="-317.5" font-family="Helvetica,sans-Serif" font-size="10.00">cstdint</text>
</g>
<!-- Node33&#45;&gt;Node36 -->
<g id="edge49" class="edge"><title>Node33&#45;&gt;Node36</title>
<path fill="none" stroke="midnightblue" d="M2101.86,-378.372C2094.65,-368.25 2082.52,-351.215 2073.34,-338.331"/>
<polygon fill="midnightblue" stroke="midnightblue" points="2075.95,-335.957 2067.3,-329.841 2070.25,-340.017 2075.95,-335.957"/>
</g>
<!-- Node37 -->
<g id="node37" class="node"><title>Node37</title>
<polygon fill="white" stroke="#bfbfbf" points="2102.5,-310.5 2102.5,-329.5 2147.5,-329.5 2147.5,-310.5 2102.5,-310.5"/>
<text text-anchor="middle" x="2125" y="-317.5" font-family="Helvetica,sans-Serif" font-size="10.00">cstdlib</text>
</g>
<!-- Node33&#45;&gt;Node37 -->
<g id="edge50" class="edge"><title>Node33&#45;&gt;Node37</title>
<path fill="none" stroke="midnightblue" d="M2110.22,-378.372C2112.73,-368.643 2116.88,-352.528 2120.14,-339.85"/>
<polygon fill="midnightblue" stroke="midnightblue" points="2123.62,-340.398 2122.72,-329.841 2116.84,-338.652 2123.62,-340.398"/>
</g>
<!-- Node38&#45;&gt;Node8 -->
<g id="edge53" class="edge"><title>Node38&#45;&gt;Node8</title>
<path fill="none" stroke="midnightblue" d="M1875.2,-311.759C1939.84,-298.857 2048,-265.275 2048,-185 2048,-185 2048,-185 2048,-121 2048,-77.9325 2005.84,-43.2143 1977.99,-24.9784"/>
<polygon fill="midnightblue" stroke="midnightblue" points="1979.85,-22.0132 1969.52,-19.6471 1976.12,-27.9369 1979.85,-22.0132"/>
</g>
<!-- Node38&#45;&gt;Node11 -->
<g id="edge52" class="edge"><title>Node38&#45;&gt;Node11</title>
<path fill="none" stroke="midnightblue" d="M1827.14,-310.477C1824.01,-281.406 1812.25,-186.901 1790,-168 1754.23,-137.615 1443.08,-127.172 1312.89,-124.112"/>
<polygon fill="midnightblue" stroke="midnightblue" points="1312.8,-120.609 1302.72,-123.879 1312.64,-127.607 1312.8,-120.609"/>
</g>
<!-- Node39 -->
<g id="node39" class="node"><title>Node39</title>
<polygon fill="white" stroke="#bfbfbf" points="1898,-242.5 1898,-261.5 1944,-261.5 1944,-242.5 1898,-242.5"/>
<text text-anchor="middle" x="1921" y="-249.5" font-family="Helvetica,sans-Serif" font-size="10.00">stdio.h</text>
</g>
<!-- Node38&#45;&gt;Node39 -->
<g id="edge54" class="edge"><title>Node38&#45;&gt;Node39</title>
<path fill="none" stroke="midnightblue" d="M1840.16,-310.372C1855.48,-299.502 1882.02,-280.66 1900.5,-267.547"/>
<polygon fill="midnightblue" stroke="midnightblue" points="1902.71,-270.272 1908.84,-261.63 1898.66,-264.564 1902.71,-270.272"/>
</g>
<!-- Node40 -->
<g id="node40" class="node"><title>Node40</title>
<polygon fill="white" stroke="#bfbfbf" points="1485.5,-174.5 1485.5,-193.5 1526.5,-193.5 1526.5,-174.5 1485.5,-174.5"/>
<text text-anchor="middle" x="1506" y="-181.5" font-family="Helvetica,sans-Serif" font-size="10.00">string</text>
</g>
<!-- Node38&#45;&gt;Node40 -->
<g id="edge55" class="edge"><title>Node38&#45;&gt;Node40</title>
<path fill="none" stroke="midnightblue" d="M1780.87,-311.753C1696.89,-298.746 1529.64,-272.381 1525,-268 1507.55,-251.542 1504.59,-222.607 1504.76,-203.62"/>
<polygon fill="midnightblue" stroke="midnightblue" points="1508.26,-203.651 1505.15,-193.523 1501.27,-203.379 1508.26,-203.651"/>
</g>
<!-- Node41 -->
<g id="node41" class="node"><title>Node41</title>
<g id="a_node41"><a xlink:href="StringUtils_8hpp.html" target="_top" xlink:title="Core/String/StringUtils.hpp">
<polygon fill="white" stroke="black" points="1534,-242.5 1534,-261.5 1668,-261.5 1668,-242.5 1534,-242.5"/>
<text text-anchor="middle" x="1601" y="-249.5" font-family="Helvetica,sans-Serif" font-size="10.00">Core/String/StringUtils.hpp</text>
</a>
</g>
</g>
<!-- Node38&#45;&gt;Node41 -->
<g id="edge56" class="edge"><title>Node38&#45;&gt;Node41</title>
<path fill="none" stroke="midnightblue" d="M1798.32,-310.372C1757.77,-298.58 1684.95,-277.407 1640.01,-264.343"/>
<polygon fill="midnightblue" stroke="midnightblue" points="1640.9,-260.957 1630.32,-261.526 1638.95,-267.679 1640.9,-260.957"/>
</g>
<!-- Node42 -->
<g id="node42" class="node"><title>Node42</title>
<polygon fill="white" stroke="#bfbfbf" points="1838.5,-242.5 1838.5,-261.5 1879.5,-261.5 1879.5,-242.5 1838.5,-242.5"/>
<text text-anchor="middle" x="1859" y="-249.5" font-family="Helvetica,sans-Serif" font-size="10.00">ctime</text>
</g>
<!-- Node38&#45;&gt;Node42 -->
<g id="edge60" class="edge"><title>Node38&#45;&gt;Node42</title>
<path fill="none" stroke="midnightblue" d="M1832.05,-310.372C1836.71,-300.446 1844.5,-283.874 1850.5,-271.086"/>
<polygon fill="midnightblue" stroke="midnightblue" points="1853.76,-272.38 1854.85,-261.841 1847.43,-269.404 1853.76,-272.38"/>
</g>
<!-- Node41&#45;&gt;Node11 -->
<g id="edge57" class="edge"><title>Node41&#45;&gt;Node11</title>
<path fill="none" stroke="midnightblue" d="M1596.96,-242.463C1588.29,-225.196 1566.14,-186.225 1535,-168 1498.22,-146.477 1382.9,-133.444 1312.55,-127.289"/>
<polygon fill="midnightblue" stroke="midnightblue" points="1312.78,-123.795 1302.52,-126.43 1312.18,-130.77 1312.78,-123.795"/>
</g>
<!-- Node41&#45;&gt;Node32 -->
<g id="edge59" class="edge"><title>Node41&#45;&gt;Node32</title>
<path fill="none" stroke="midnightblue" d="M1578.69,-242.391C1553.55,-232.575 1511.54,-215.83 1476,-200 1474.6,-199.377 1473.17,-198.728 1471.73,-198.065"/>
<polygon fill="midnightblue" stroke="midnightblue" points="1472.83,-194.711 1462.29,-193.604 1469.84,-201.041 1472.83,-194.711"/>
</g>
<!-- Node41&#45;&gt;Node40 -->
<g id="edge58" class="edge"><title>Node41&#45;&gt;Node40</title>
<path fill="none" stroke="midnightblue" d="M1588.58,-242.372C1572.86,-231.452 1545.57,-212.489 1526.68,-199.369"/>
<polygon fill="midnightblue" stroke="midnightblue" points="1528.63,-196.462 1518.42,-193.63 1524.64,-202.21 1528.63,-196.462"/>
</g>
<!-- Node44 -->
<g id="node44" class="node"><title>Node44</title>
<g id="a_node44"><a xlink:href="ShaderProgram_8hpp.html" target="_top" xlink:title="Engine/Renderer/RenderTechnique\l/ShaderProgram.hpp">
<polygon fill="white" stroke="black" points="1219.5,-305 1219.5,-335 1388.5,-335 1388.5,-305 1219.5,-305"/>
<text text-anchor="start" x="1227.5" y="-323" font-family="Helvetica,sans-Serif" font-size="10.00">Engine/Renderer/RenderTechnique</text>
<text text-anchor="middle" x="1304" y="-312" font-family="Helvetica,sans-Serif" font-size="10.00">/ShaderProgram.hpp</text>
</a>
</g>
</g>
<!-- Node43&#45;&gt;Node44 -->
<g id="edge63" class="edge"><title>Node43&#45;&gt;Node44</title>
<path fill="none" stroke="midnightblue" d="M1539.22,-372.922C1491.89,-362.474 1427.24,-348.203 1377.69,-337.267"/>
<polygon fill="midnightblue" stroke="midnightblue" points="1378.2,-333.794 1367.68,-335.056 1376.69,-340.629 1378.2,-333.794"/>
</g>
<!-- Node44&#45;&gt;Node3 -->
<g id="edge64" class="edge"><title>Node44&#45;&gt;Node3</title>
<path fill="none" stroke="midnightblue" d="M1388.87,-315.883C1484.06,-310.934 1631.14,-298.485 1677,-268 1700.05,-252.68 1713.76,-222.517 1720.59,-203.08"/>
<polygon fill="midnightblue" stroke="midnightblue" points="1723.93,-204.141 1723.69,-193.549 1717.27,-201.977 1723.93,-204.141"/>
</g>
<!-- Node44&#45;&gt;Node16 -->
<g id="edge65" class="edge"><title>Node44&#45;&gt;Node16</title>
<path fill="none" stroke="midnightblue" d="M1219.32,-311.039C1083.38,-298.258 818.134,-273.32 683.945,-260.704"/>
<polygon fill="midnightblue" stroke="midnightblue" points="684.013,-257.195 673.729,-259.744 683.357,-264.165 684.013,-257.195"/>
</g>
<!-- Node44&#45;&gt;Node40 -->
<g id="edge77" class="edge"><title>Node44&#45;&gt;Node40</title>
<path fill="none" stroke="midnightblue" d="M1313.56,-304.759C1326.45,-286.521 1351.06,-255.008 1379,-236 1416.68,-210.369 1433.11,-217.943 1475,-200 1476.59,-199.32 1478.21,-198.603 1479.84,-197.865"/>
<polygon fill="midnightblue" stroke="midnightblue" points="1481.51,-200.951 1489.07,-193.537 1478.53,-194.613 1481.51,-200.951"/>
</g>
<!-- Node45 -->
<g id="node45" class="node"><title>Node45</title>
<g id="a_node45"><a xlink:href="OpenGL_8hpp.html" target="_top" xlink:title="Engine/Renderer/OpenGL\l/OpenGL.hpp">
<polygon fill="white" stroke="black" points="942,-237 942,-267 1070,-267 1070,-237 942,-237"/>
<text text-anchor="start" x="950" y="-255" font-family="Helvetica,sans-Serif" font-size="10.00">Engine/Renderer/OpenGL</text>
<text text-anchor="middle" x="1006" y="-244" font-family="Helvetica,sans-Serif" font-size="10.00">/OpenGL.hpp</text>
</a>
</g>
</g>
<!-- Node44&#45;&gt;Node45 -->
<g id="edge66" class="edge"><title>Node44&#45;&gt;Node45</title>
<path fill="none" stroke="midnightblue" d="M1240.44,-304.922C1193.26,-294.474 1128.83,-280.203 1079.45,-269.267"/>
<polygon fill="midnightblue" stroke="midnightblue" points="1079.99,-265.801 1069.47,-267.056 1078.47,-272.636 1079.99,-265.801"/>
</g>
<!-- Node48 -->
<g id="node48" class="node"><title>Node48</title>
<g id="a_node48"><a xlink:href="ShaderConfiguration_8hpp.html" target="_top" xlink:title="Engine/Renderer/RenderTechnique\l/ShaderConfiguration.hpp">
<polygon fill="white" stroke="red" points="1163.5,-237 1163.5,-267 1332.5,-267 1332.5,-237 1163.5,-237"/>
<text text-anchor="start" x="1171.5" y="-255" font-family="Helvetica,sans-Serif" font-size="10.00">Engine/Renderer/RenderTechnique</text>
<text text-anchor="middle" x="1248" y="-244" font-family="Helvetica,sans-Serif" font-size="10.00">/ShaderConfiguration.hpp</text>
</a>
</g>
</g>
<!-- Node44&#45;&gt;Node48 -->
<g id="edge69" class="edge"><title>Node44&#45;&gt;Node48</title>
<path fill="none" stroke="midnightblue" d="M1291.85,-304.679C1284.51,-296.03 1275.01,-284.829 1266.72,-275.067"/>
<polygon fill="midnightblue" stroke="midnightblue" points="1269.27,-272.654 1260.13,-267.293 1263.93,-277.183 1269.27,-272.654"/>
</g>
<!-- Node49 -->
<g id="node49" class="node"><title>Node49</title>
<polygon fill="white" stroke="#bfbfbf" points="1268,-174.5 1268,-193.5 1306,-193.5 1306,-174.5 1268,-174.5"/>
<text text-anchor="middle" x="1287" y="-181.5" font-family="Helvetica,sans-Serif" font-size="10.00">array</text>
</g>
<!-- Node44&#45;&gt;Node49 -->
<g id="edge75" class="edge"><title>Node44&#45;&gt;Node49</title>
<path fill="none" stroke="midnightblue" d="M1219.48,-309.294C1194.31,-302.006 1169.38,-289.467 1154,-268 1145.72,-256.437 1145.75,-247.585 1154,-236 1182.37,-196.156 1213.05,-219.286 1258,-200 1259.4,-199.399 1260.83,-198.76 1262.26,-198.095"/>
<polygon fill="midnightblue" stroke="midnightblue" points="1264.12,-201.077 1271.55,-193.516 1261.03,-194.798 1264.12,-201.077"/>
</g>
<!-- Node50 -->
<g id="node50" class="node"><title>Node50</title>
<polygon fill="white" stroke="#bfbfbf" points="1388,-242.5 1388,-261.5 1440,-261.5 1440,-242.5 1388,-242.5"/>
<text text-anchor="middle" x="1414" y="-249.5" font-family="Helvetica,sans-Serif" font-size="10.00">memory</text>
</g>
<!-- Node44&#45;&gt;Node50 -->
<g id="edge76" class="edge"><title>Node44&#45;&gt;Node50</title>
<path fill="none" stroke="midnightblue" d="M1327.6,-304.841C1346.28,-293.63 1372.24,-278.056 1390.82,-266.91"/>
<polygon fill="midnightblue" stroke="midnightblue" points="1392.76,-269.828 1399.53,-261.682 1389.15,-263.826 1392.76,-269.828"/>
</g>
<!-- Node46 -->
<g id="node46" class="node"><title>Node46</title>
<polygon fill="white" stroke="#bfbfbf" points="962.5,-174.5 962.5,-193.5 1075.5,-193.5 1075.5,-174.5 962.5,-174.5"/>
<text text-anchor="middle" x="1019" y="-181.5" font-family="Helvetica,sans-Serif" font-size="10.00">glbinding/gl45core/gl.h</text>
</g>
<!-- Node45&#45;&gt;Node46 -->
<g id="edge67" class="edge"><title>Node45&#45;&gt;Node46</title>
<path fill="none" stroke="midnightblue" d="M1008.82,-236.679C1010.73,-226.999 1013.26,-214.123 1015.33,-203.645"/>
<polygon fill="midnightblue" stroke="midnightblue" points="1018.76,-204.316 1017.26,-193.828 1011.89,-202.963 1018.76,-204.316"/>
</g>
<!-- Node47 -->
<g id="node47" class="node"><title>Node47</title>
<polygon fill="white" stroke="#bfbfbf" points="1094,-174.5 1094,-193.5 1202,-193.5 1202,-174.5 1094,-174.5"/>
<text text-anchor="middle" x="1148" y="-181.5" font-family="Helvetica,sans-Serif" font-size="10.00">glbinding/gl45ext/gl.h</text>
</g>
<!-- Node45&#45;&gt;Node47 -->
<g id="edge68" class="edge"><title>Node45&#45;&gt;Node47</title>
<path fill="none" stroke="midnightblue" d="M1036.46,-236.841C1061.24,-225.323 1095.94,-209.199 1120.02,-198.004"/>
<polygon fill="midnightblue" stroke="midnightblue" points="1121.73,-201.071 1129.32,-193.682 1118.78,-194.723 1121.73,-201.071"/>
</g>
<!-- Node48&#45;&gt;Node3 -->
<g id="edge70" class="edge"><title>Node48&#45;&gt;Node3</title>
<path fill="none" stroke="midnightblue" d="M1332.63,-239.315C1426.17,-226.4 1574.84,-205.872 1660.1,-194.099"/>
<polygon fill="midnightblue" stroke="midnightblue" points="1660.75,-197.543 1670.18,-192.708 1659.79,-190.608 1660.75,-197.543"/>
</g>
<!-- Node48&#45;&gt;Node31 -->
<g id="edge72" class="edge"><title>Node48&#45;&gt;Node31</title>
<path fill="none" stroke="midnightblue" d="M1245.18,-236.679C1243.27,-226.999 1240.74,-214.123 1238.67,-203.645"/>
<polygon fill="midnightblue" stroke="midnightblue" points="1242.11,-202.963 1236.74,-193.828 1235.24,-204.316 1242.11,-202.963"/>
</g>
<!-- Node48&#45;&gt;Node32 -->
<g id="edge74" class="edge"><title>Node48&#45;&gt;Node32</title>
<path fill="none" stroke="midnightblue" d="M1290.26,-236.841C1327.15,-224.484 1379.85,-206.826 1413.24,-195.64"/>
<polygon fill="midnightblue" stroke="midnightblue" points="1414.58,-198.884 1422.95,-192.389 1412.35,-192.247 1414.58,-198.884"/>
</g>
<!-- Node48&#45;&gt;Node40 -->
<g id="edge73" class="edge"><title>Node48&#45;&gt;Node40</title>
<path fill="none" stroke="midnightblue" d="M1331.77,-236.952C1375.18,-228.483 1428.67,-216.173 1475,-200 1476.91,-199.335 1478.85,-198.585 1480.78,-197.783"/>
<polygon fill="midnightblue" stroke="midnightblue" points="1482.55,-200.825 1490.21,-193.505 1479.66,-194.45 1482.55,-200.825"/>
</g>
<!-- Node48&#45;&gt;Node49 -->
<g id="edge71" class="edge"><title>Node48&#45;&gt;Node49</title>
<path fill="none" stroke="midnightblue" d="M1256.46,-236.679C1262.36,-226.694 1270.27,-213.307 1276.56,-202.66"/>
<polygon fill="midnightblue" stroke="midnightblue" points="1279.71,-204.218 1281.78,-193.828 1273.68,-200.657 1279.71,-204.218"/>
</g>
</g>
</svg>
