<?xml version="1.0" encoding="UTF-8" standalone="no"?>
<!DOCTYPE svg PUBLIC "-//W3C//DTD SVG 1.1//EN"
 "http://www.w3.org/Graphics/SVG/1.1/DTD/svg11.dtd">
<!-- Generated by graphviz version 2.36.0 (20140111.2315)
 -->
<!-- Title: Ra::Engine::ItemEntry::isValid Pages: 1 -->
<svg width="616pt" height="313pt"
 viewBox="0.00 0.00 616.00 312.59" xmlns="http://www.w3.org/2000/svg" xmlns:xlink="http://www.w3.org/1999/xlink">
<g id="graph0" class="graph" transform="scale(1 1) rotate(0) translate(4 308.591)">
<title>Ra::Engine::ItemEntry::isValid</title>
<polygon fill="white" stroke="none" points="-4,4 -4,-308.591 612,-308.591 612,4 -4,4"/>
<!-- Node1 -->
<g id="node1" class="node"><title>Node1</title>
<polygon fill="#bfbfbf" stroke="black" points="0,-147 0,-177 114,-177 114,-147 0,-147"/>
<text text-anchor="start" x="8" y="-165" font-family="Helvetica,sans-Serif" font-size="10.00">Ra::Engine::ItemEntry</text>
<text text-anchor="middle" x="57" y="-154" font-family="Helvetica,sans-Serif" font-size="10.00">::isValid</text>
</g>
<!-- Node2 -->
<g id="node2" class="node"><title>Node2</title>
<g id="a_node2"><a xlink:href="structRa_1_1Engine_1_1ItemEntry.html#a1fb9fdd74413a1fa5878f53c1cfcf8fd" target="_top" xlink:title="Debug checks. ">
<polygon fill="white" stroke="black" points="326,-133 326,-163 440,-163 440,-133 326,-133"/>
<text text-anchor="start" x="334" y="-151" font-family="Helvetica,sans-Serif" font-size="10.00">Ra::Engine::ItemEntry</text>
<text text-anchor="middle" x="383" y="-140" font-family="Helvetica,sans-Serif" font-size="10.00">::checkConsistency</text>
</a>
</g>
</g>
<!-- Node1&#45;&gt;Node2 -->
<g id="edge1" class="edge"><title>Node1&#45;&gt;Node2</title>
<path fill="none" stroke="midnightblue" d="M64.0107,-177.23C75.759,-204.611 104.651,-261.4 150,-284 204.098,-310.961 232.332,-311.808 286,-284 331.152,-260.604 359.588,-205.12 372.956,-172.711"/>
<polygon fill="midnightblue" stroke="midnightblue" points="376.346,-173.656 376.769,-163.069 369.837,-171.081 376.346,-173.656"/>
</g>
<!-- Node4 -->
<g id="node4" class="node"><title>Node4</title>
<g id="a_node4"><a xlink:href="classRa_1_1Engine_1_1RadiumEngine.html#a79f6626ce468268791bc5bdfe17b5586" target="_top" xlink:title="Ra::Engine::RadiumEngine\l::getEntityManager">
<polygon fill="white" stroke="black" points="150.5,-245 150.5,-275 285.5,-275 285.5,-245 150.5,-245"/>
<text text-anchor="start" x="158.5" y="-263" font-family="Helvetica,sans-Serif" font-size="10.00">Ra::Engine::RadiumEngine</text>
<text text-anchor="middle" x="218" y="-252" font-family="Helvetica,sans-Serif" font-size="10.00">::getEntityManager</text>
</a>
</g>
</g>
<!-- Node1&#45;&gt;Node4 -->
<g id="edge3" class="edge"><title>Node1&#45;&gt;Node4</title>
<path fill="none" stroke="midnightblue" d="M73.8233,-177.138C91.3139,-193.225 120.881,-218.561 150,-235 153.649,-237.06 157.5,-239.011 161.437,-240.847"/>
<polygon fill="midnightblue" stroke="midnightblue" points="160.159,-244.108 170.723,-244.916 162.969,-237.697 160.159,-244.108"/>
</g>
<!-- Node5 -->
<g id="node5" class="node"><title>Node5</title>
<g id="a_node5"><a xlink:href="classRa_1_1Engine_1_1EntityManager.html#a5115cccae6aaef614ad4bd08e64d8185" target="_top" xlink:title="Check wether an entity with a given name exists or not. ">
<polygon fill="white" stroke="black" points="151,-196 151,-226 285,-226 285,-196 151,-196"/>
<text text-anchor="start" x="159" y="-214" font-family="Helvetica,sans-Serif" font-size="10.00">Ra::Engine::EntityManager</text>
<text text-anchor="middle" x="218" y="-203" font-family="Helvetica,sans-Serif" font-size="10.00">::entityExists</text>
</a>
</g>
</g>
<!-- Node1&#45;&gt;Node5 -->
<g id="edge4" class="edge"><title>Node1&#45;&gt;Node5</title>
<path fill="none" stroke="midnightblue" d="M107.003,-177.101C123.249,-182.108 141.499,-187.732 158.394,-192.939"/>
<polygon fill="midnightblue" stroke="midnightblue" points="157.572,-196.348 168.159,-195.948 159.633,-189.659 157.572,-196.348"/>
</g>
<!-- Node6 -->
<g id="node6" class="node"><title>Node6</title>
<g id="a_node6"><a xlink:href="classRa_1_1Engine_1_1Entity.html#aaf256bea44bbc5bff6aa504aca05ca35" target="_top" xlink:title="Ra::Engine::Entity\l::getName">
<polygon fill="white" stroke="black" points="169.5,-147 169.5,-177 266.5,-177 266.5,-147 169.5,-147"/>
<text text-anchor="start" x="177.5" y="-165" font-family="Helvetica,sans-Serif" font-size="10.00">Ra::Engine::Entity</text>
<text text-anchor="middle" x="218" y="-154" font-family="Helvetica,sans-Serif" font-size="10.00">::getName</text>
</a>
</g>
</g>
<!-- Node1&#45;&gt;Node6 -->
<g id="edge5" class="edge"><title>Node1&#45;&gt;Node6</title>
<path fill="none" stroke="midnightblue" d="M114.057,-162C128.732,-162 144.576,-162 159.332,-162"/>
<polygon fill="midnightblue" stroke="midnightblue" points="159.347,-165.5 169.347,-162 159.347,-158.5 159.347,-165.5"/>
</g>
<!-- Node7 -->
<g id="node7" class="node"><title>Node7</title>
<g id="a_node7"><a xlink:href="structRa_1_1Engine_1_1ItemEntry.html#a898047549069e5b64d3a9a65c058af56" target="_top" xlink:title="Returns true if the item represents a render object. ">
<polygon fill="white" stroke="black" points="161,-98 161,-128 275,-128 275,-98 161,-98"/>
<text text-anchor="start" x="169" y="-116" font-family="Helvetica,sans-Serif" font-size="10.00">Ra::Engine::ItemEntry</text>
<text text-anchor="middle" x="218" y="-105" font-family="Helvetica,sans-Serif" font-size="10.00">::isRoNode</text>
</a>
</g>
</g>
<!-- Node1&#45;&gt;Node7 -->
<g id="edge6" class="edge"><title>Node1&#45;&gt;Node7</title>
<path fill="none" stroke="midnightblue" d="M107.003,-146.899C123.249,-141.892 141.499,-136.268 158.394,-131.061"/>
<polygon fill="midnightblue" stroke="midnightblue" points="159.633,-134.341 168.159,-128.052 157.572,-127.652 159.633,-134.341"/>
</g>
<!-- Node9 -->
<g id="node9" class="node"><title>Node9</title>
<g id="a_node9"><a xlink:href="classRa_1_1Engine_1_1RadiumEngine.html#a58b27bc600ea769f68b0e2938abc7862" target="_top" xlink:title="Manager getters. ">
<polygon fill="white" stroke="black" points="150.5,-49 150.5,-79 285.5,-79 285.5,-49 150.5,-49"/>
<text text-anchor="start" x="158.5" y="-67" font-family="Helvetica,sans-Serif" font-size="10.00">Ra::Engine::RadiumEngine</text>
<text text-anchor="middle" x="218" y="-56" font-family="Helvetica,sans-Serif" font-size="10.00">::getRenderObjectManager</text>
</a>
</g>
</g>
<!-- Node1&#45;&gt;Node9 -->
<g id="edge9" class="edge"><title>Node1&#45;&gt;Node9</title>
<path fill="none" stroke="midnightblue" d="M73.8233,-146.862C91.3139,-130.775 120.881,-105.439 150,-89 153.649,-86.9401 157.5,-84.9887 161.437,-83.1532"/>
<polygon fill="midnightblue" stroke="midnightblue" points="162.969,-86.3032 170.723,-79.0838 160.159,-79.8918 162.969,-86.3032"/>
</g>
<!-- Node10 -->
<g id="node10" class="node"><title>Node10</title>
<g id="a_node10"><a xlink:href="classRa_1_1Engine_1_1RenderObjectManager.html#a4077b9cf9e1e4d62fd5456386f2d72c8" target="_top" xlink:title="Returns true if the index points to a valid render object. ">
<polygon fill="white" stroke="black" points="152.5,-0 152.5,-30 283.5,-30 283.5,-0 152.5,-0"/>
<text text-anchor="start" x="160.5" y="-18" font-family="Helvetica,sans-Serif" font-size="10.00">Ra::Engine::RenderObject</text>
<text text-anchor="middle" x="218" y="-7" font-family="Helvetica,sans-Serif" font-size="10.00">Manager::exists</text>
</a>
</g>
</g>
<!-- Node1&#45;&gt;Node10 -->
<g id="edge10" class="edge"><title>Node1&#45;&gt;Node10</title>
<path fill="none" stroke="midnightblue" d="M65.4901,-146.881C78.9623,-121.161 109.677,-68.7898 150,-39 151.857,-37.628 153.8,-36.3284 155.807,-35.098"/>
<polygon fill="midnightblue" stroke="midnightblue" points="157.824,-37.985 164.941,-30.136 154.483,-31.834 157.824,-37.985"/>
</g>
<!-- Node3 -->
<g id="node3" class="node"><title>Node3</title>
<g id="a_node3"><a xlink:href="classRa_1_1Core_1_1Index.html#a7283e7fb9cc134e04ef3cde8877f8fe2" target="_top" xlink:title="INVALID. ">
<polygon fill="white" stroke="black" points="480,-138.5 480,-157.5 608,-157.5 608,-138.5 480,-138.5"/>
<text text-anchor="middle" x="544" y="-145.5" font-family="Helvetica,sans-Serif" font-size="10.00">Ra::Core::Index::isInvalid</text>
</a>
</g>
</g>
<!-- Node2&#45;&gt;Node3 -->
<g id="edge2" class="edge"><title>Node2&#45;&gt;Node3</title>
<path fill="none" stroke="midnightblue" d="M440.057,-148C449.613,-148 459.665,-148 469.589,-148"/>
<polygon fill="midnightblue" stroke="midnightblue" points="469.859,-151.5 479.859,-148 469.859,-144.5 469.859,-151.5"/>
</g>
<!-- Node7&#45;&gt;Node2 -->
<g id="edge7" class="edge"><title>Node7&#45;&gt;Node2</title>
<path fill="none" stroke="midnightblue" d="M275.095,-125.045C288.158,-127.85 302.188,-130.862 315.646,-133.752"/>
<polygon fill="midnightblue" stroke="midnightblue" points="315.289,-137.255 325.801,-135.933 316.759,-130.411 315.289,-137.255"/>
</g>
<!-- Node8 -->
<g id="node8" class="node"><title>Node8</title>
<g id="a_node8"><a xlink:href="classRa_1_1Core_1_1Index.html#a87c70243f30c65c1a24834d1829bda01" target="_top" xlink:title="DESTRUCTOR: Must not be defined, we need it trivial to be constexpr. ">
<polygon fill="white" stroke="black" points="322,-67.5 322,-86.5 444,-86.5 444,-67.5 322,-67.5"/>
<text text-anchor="middle" x="383" y="-74.5" font-family="Helvetica,sans-Serif" font-size="10.00">Ra::Core::Index::isValid</text>
</a>
</g>
</g>
<!-- Node7&#45;&gt;Node8 -->
<g id="edge8" class="edge"><title>Node7&#45;&gt;Node8</title>
<path fill="none" stroke="midnightblue" d="M275.095,-100.611C292.57,-96.7514 311.776,-92.5095 329.03,-88.6989"/>
<polygon fill="midnightblue" stroke="midnightblue" points="329.926,-92.0855 338.935,-86.5112 328.416,-85.2502 329.926,-92.0855"/>
</g>
<!-- Node10&#45;&gt;Node8 -->
<g id="edge11" class="edge"><title>Node10&#45;&gt;Node8</title>
<path fill="none" stroke="midnightblue" d="M261.609,-30.0253C269.725,-32.9544 278.138,-36.0368 286,-39 307.042,-46.9309 330.515,-56.2145 348.984,-63.6203"/>
<polygon fill="midnightblue" stroke="midnightblue" points="347.829,-66.9284 358.413,-67.4126 350.441,-60.4339 347.829,-66.9284"/>
</g>
</g>
</svg>
