<?xml version="1.0" encoding="UTF-8" standalone="no"?>
<!DOCTYPE svg PUBLIC "-//W3C//DTD SVG 1.1//EN"
 "http://www.w3.org/Graphics/SVG/1.1/DTD/svg11.dtd">
<!-- Generated by graphviz version 2.36.0 (20140111.2315)
 -->
<!-- Title: Ra::Core::TaskQueue::TimerData Pages: 1 -->
<svg width="240pt" height="302pt"
 viewBox="0.00 0.00 240.00 302.00" xmlns="http://www.w3.org/2000/svg" xmlns:xlink="http://www.w3.org/1999/xlink">
<g id="graph0" class="graph" transform="scale(1 1) rotate(0) translate(4 298)">
<title>Ra::Core::TaskQueue::TimerData</title>
<polygon fill="white" stroke="none" points="-4,4 -4,-298 236,-298 236,4 -4,4"/>
<!-- Node1 -->
<g id="node1" class="node"><title>Node1</title>
<polygon fill="#bfbfbf" stroke="black" points="25.5,-1 25.5,-69 138.5,-69 138.5,-1 25.5,-1"/>
<text text-anchor="start" x="33.5" y="-57" font-family="Helvetica,sans-Serif" font-size="10.00">Ra::Core::TaskQueue</text>
<text text-anchor="middle" x="82" y="-46" font-family="Helvetica,sans-Serif" font-size="10.00">::TimerData</text>
<polyline fill="none" stroke="black" points="25.5,-39 138.5,-39 "/>
<text text-anchor="middle" x="82" y="-27" font-family="Helvetica,sans-Serif" font-size="10.00"> </text>
<polyline fill="none" stroke="black" points="25.5,-20 138.5,-20 "/>
<text text-anchor="middle" x="82" y="-8" font-family="Helvetica,sans-Serif" font-size="10.00"> </text>
</g>
<!-- Node2 -->
<g id="node2" class="node"><title>Node2</title>
<polygon fill="white" stroke="#bfbfbf" points="-0.5,-128.5 -0.5,-185.5 28.5,-185.5 28.5,-128.5 -0.5,-128.5"/>
<text text-anchor="middle" x="14" y="-173.5" font-family="Helvetica,sans-Serif" font-size="10.00">int</text>
<polyline fill="none" stroke="#bfbfbf" points="-0.5,-166.5 28.5,-166.5 "/>
<text text-anchor="middle" x="14" y="-154.5" font-family="Helvetica,sans-Serif" font-size="10.00"> </text>
<polyline fill="none" stroke="#bfbfbf" points="-0.5,-147.5 28.5,-147.5 "/>
<text text-anchor="middle" x="14" y="-135.5" font-family="Helvetica,sans-Serif" font-size="10.00"> </text>
</g>
<!-- Node2&#45;&gt;Node1 -->
<g id="edge1" class="edge"><title>Node2&#45;&gt;Node1</title>
<path fill="none" stroke="#404040" d="M18.0319,-128.311C20.7095,-115.467 25.0562,-100.348 32,-88 33.7266,-84.9298 35.6773,-81.9065 37.782,-78.957"/>
<polygon fill="none" stroke="#404040" points="38.0026,-78.677 38.5743,-71.4886 45.4296,-69.2515 44.8579,-76.4399 38.0026,-78.677"/>
<text text-anchor="middle" x="54.5" y="-96.5" font-family="Helvetica,sans-Serif" font-size="10.00"> +threadId</text>
</g>
<!-- Node3 -->
<g id="node3" class="node"><title>Node3</title>
<g id="a_node3"><a xlink:title="STL class. ">
<polygon fill="white" stroke="#bfbfbf" points="49,-128.5 49,-185.5 109,-185.5 109,-128.5 49,-128.5"/>
<text text-anchor="middle" x="79" y="-173.5" font-family="Helvetica,sans-Serif" font-size="10.00">std::string</text>
<polyline fill="none" stroke="#bfbfbf" points="49,-166.5 109,-166.5 "/>
<text text-anchor="middle" x="79" y="-154.5" font-family="Helvetica,sans-Serif" font-size="10.00"> </text>
<polyline fill="none" stroke="#bfbfbf" points="49,-147.5 109,-147.5 "/>
<text text-anchor="middle" x="79" y="-135.5" font-family="Helvetica,sans-Serif" font-size="10.00"> </text>
</a>
</g>
</g>
<!-- Node3&#45;&gt;Node1 -->
<g id="edge2" class="edge"><title>Node3&#45;&gt;Node1</title>
<path fill="none" stroke="#404040" d="M79.6883,-128.47C80.035,-114.601 80.4645,-97.4211 80.8588,-81.647"/>
<polygon fill="none" stroke="#404040" points="80.8653,-81.3843 77.0165,-75.2862 81.1653,-69.3881 85.014,-75.4862 80.8653,-81.3843"/>
<text text-anchor="middle" x="108.5" y="-96.5" font-family="Helvetica,sans-Serif" font-size="10.00"> +taskName</text>
</g>
<!-- Node4 -->
<g id="node4" class="node"><title>Node4</title>
<g id="a_node4"><a xlink:title="STL class. ">
<polygon fill="white" stroke="#bfbfbf" points="31.5,-225 31.5,-293 126.5,-293 126.5,-225 31.5,-225"/>
<text text-anchor="start" x="39.5" y="-281" font-family="Helvetica,sans-Serif" font-size="10.00">std::basic_string&lt;</text>
<text text-anchor="middle" x="79" y="-270" font-family="Helvetica,sans-Serif" font-size="10.00"> char &gt;</text>
<polyline fill="none" stroke="#bfbfbf" points="31.5,-263 126.5,-263 "/>
<text text-anchor="middle" x="79" y="-251" font-family="Helvetica,sans-Serif" font-size="10.00"> </text>
<polyline fill="none" stroke="#bfbfbf" points="31.5,-244 126.5,-244 "/>
<text text-anchor="middle" x="79" y="-232" font-family="Helvetica,sans-Serif" font-size="10.00"> </text>
</a>
</g>
</g>
<!-- Node4&#45;&gt;Node3 -->
<g id="edge3" class="edge"><title>Node4&#45;&gt;Node3</title>
<path fill="none" stroke="midnightblue" d="M79,-214.857C79,-204.952 79,-194.682 79,-185.64"/>
<polygon fill="none" stroke="midnightblue" points="75.5001,-214.979 79,-224.979 82.5001,-214.979 75.5001,-214.979"/>
</g>
<!-- Node5 -->
<g id="node5" class="node"><title>Node5</title>
<polygon fill="white" stroke="#bfbfbf" points="127.5,-128.5 127.5,-185.5 232.5,-185.5 232.5,-128.5 127.5,-128.5"/>
<text text-anchor="middle" x="180" y="-173.5" font-family="Helvetica,sans-Serif" font-size="10.00">time_point&lt; Clock &gt;</text>
<polyline fill="none" stroke="#bfbfbf" points="127.5,-166.5 232.5,-166.5 "/>
<text text-anchor="middle" x="180" y="-154.5" font-family="Helvetica,sans-Serif" font-size="10.00"> </text>
<polyline fill="none" stroke="#bfbfbf" points="127.5,-147.5 232.5,-147.5 "/>
<text text-anchor="middle" x="180" y="-135.5" font-family="Helvetica,sans-Serif" font-size="10.00"> </text>
</g>
<!-- Node5&#45;&gt;Node1 -->
<g id="edge4" class="edge"><title>Node5&#45;&gt;Node1</title>
<path fill="none" stroke="#404040" d="M166.223,-128.265C159.218,-115.411 150.062,-100.296 140,-88 137.179,-84.5527 134.124,-81.1316 130.941,-77.7872"/>
<polygon fill="none" stroke="#404040" points="130.783,-77.6289 123.711,-76.218 122.294,-69.1476 129.365,-70.5584 130.783,-77.6289"/>
<text text-anchor="middle" x="170.5" y="-102" font-family="Helvetica,sans-Serif" font-size="10.00"> +start</text>
<text text-anchor="middle" x="170.5" y="-91" font-family="Helvetica,sans-Serif" font-size="10.00">+end</text>
</g>
</g>
</svg>
