<?xml version="1.0" encoding="UTF-8" standalone="no"?>
<!DOCTYPE svg PUBLIC "-//W3C//DTD SVG 1.1//EN"
 "http://www.w3.org/Graphics/SVG/1.1/DTD/svg11.dtd">
<!-- Generated by graphviz version 2.36.0 (20140111.2315)
 -->
<!-- Title: Ra::Engine::ItemEntry Pages: 1 -->
<svg width="601pt" height="1390pt"
 viewBox="0.00 0.00 601.00 1390.00" xmlns="http://www.w3.org/2000/svg" xmlns:xlink="http://www.w3.org/1999/xlink">
<g id="graph0" class="graph" transform="scale(1 1) rotate(0) translate(4 1386)">
<title>Ra::Engine::ItemEntry</title>
<polygon fill="white" stroke="none" points="-4,4 -4,-1386 597,-1386 597,4 -4,4"/>
<!-- Node1 -->
<g id="node1" class="node"><title>Node1</title>
<polygon fill="#bfbfbf" stroke="black" points="46,-0.5 46,-145.5 160,-145.5 160,-0.5 46,-0.5"/>
<text text-anchor="middle" x="103" y="-133.5" font-family="Helvetica,sans-Serif" font-size="10.00">Ra::Engine::ItemEntry</text>
<polyline fill="none" stroke="black" points="46,-126.5 160,-126.5 "/>
<text text-anchor="middle" x="103" y="-114.5" font-family="Helvetica,sans-Serif" font-size="10.00"> </text>
<polyline fill="none" stroke="black" points="46,-107.5 160,-107.5 "/>
<text text-anchor="start" x="54" y="-95.5" font-family="Helvetica,sans-Serif" font-size="10.00">+ ItemEntry()</text>
<text text-anchor="start" x="54" y="-84.5" font-family="Helvetica,sans-Serif" font-size="10.00">+ ItemEntry()</text>
<text text-anchor="start" x="54" y="-73.5" font-family="Helvetica,sans-Serif" font-size="10.00">+ operator==()</text>
<text text-anchor="start" x="54" y="-62.5" font-family="Helvetica,sans-Serif" font-size="10.00">+ isValid()</text>
<text text-anchor="start" x="54" y="-51.5" font-family="Helvetica,sans-Serif" font-size="10.00">+ isSelectable()</text>
<text text-anchor="start" x="54" y="-40.5" font-family="Helvetica,sans-Serif" font-size="10.00">+ isEntityNode()</text>
<text text-anchor="start" x="54" y="-29.5" font-family="Helvetica,sans-Serif" font-size="10.00">+ isComponentNode()</text>
<text text-anchor="start" x="54" y="-18.5" font-family="Helvetica,sans-Serif" font-size="10.00">+ isRoNode()</text>
<text text-anchor="start" x="54" y="-7.5" font-family="Helvetica,sans-Serif" font-size="10.00">+ checkConsistency()</text>
</g>
<!-- Node2 -->
<g id="node2" class="node"><title>Node2</title>
<g id="a_node2"><a xlink:href="classRa_1_1Engine_1_1Component.html" target="_top" xlink:title="A component is an element that can be updated by a system. ">
<polygon fill="white" stroke="black" points="168.5,-195 168.5,-417 317.5,-417 317.5,-195 168.5,-195"/>
<text text-anchor="middle" x="243" y="-405" font-family="Helvetica,sans-Serif" font-size="10.00">Ra::Engine::Component</text>
<polyline fill="none" stroke="black" points="168.5,-398 317.5,-398 "/>
<text text-anchor="middle" x="243" y="-386" font-family="Helvetica,sans-Serif" font-size="10.00"> </text>
<polyline fill="none" stroke="black" points="168.5,-379 317.5,-379 "/>
<text text-anchor="start" x="176.5" y="-367" font-family="Helvetica,sans-Serif" font-size="10.00">+ Component()</text>
<text text-anchor="start" x="176.5" y="-356" font-family="Helvetica,sans-Serif" font-size="10.00">+ ~Component()</text>
<text text-anchor="start" x="176.5" y="-345" font-family="Helvetica,sans-Serif" font-size="10.00">+ initialize()</text>
<text text-anchor="start" x="176.5" y="-334" font-family="Helvetica,sans-Serif" font-size="10.00">+ setEntity()</text>
<text text-anchor="start" x="176.5" y="-323" font-family="Helvetica,sans-Serif" font-size="10.00">+ getEntity()</text>
<text text-anchor="start" x="176.5" y="-312" font-family="Helvetica,sans-Serif" font-size="10.00">+ getName()</text>
<text text-anchor="start" x="176.5" y="-301" font-family="Helvetica,sans-Serif" font-size="10.00">+ setSystem()</text>
<text text-anchor="start" x="176.5" y="-290" font-family="Helvetica,sans-Serif" font-size="10.00">+ getSystem()</text>
<text text-anchor="start" x="176.5" y="-279" font-family="Helvetica,sans-Serif" font-size="10.00">+ addRenderObject()</text>
<text text-anchor="start" x="176.5" y="-268" font-family="Helvetica,sans-Serif" font-size="10.00">+ removeRenderObject()</text>
<text text-anchor="start" x="176.5" y="-257" font-family="Helvetica,sans-Serif" font-size="10.00">+ rayCastQuery()</text>
<text text-anchor="start" x="176.5" y="-246" font-family="Helvetica,sans-Serif" font-size="10.00">+ canEdit()</text>
<text text-anchor="start" x="176.5" y="-235" font-family="Helvetica,sans-Serif" font-size="10.00">+ getTransform()</text>
<text text-anchor="start" x="176.5" y="-224" font-family="Helvetica,sans-Serif" font-size="10.00">+ setTransform()</text>
<text text-anchor="start" x="176.5" y="-213" font-family="Helvetica,sans-Serif" font-size="10.00">+ notifyRenderObjectExpired()</text>
<text text-anchor="start" x="176.5" y="-202" font-family="Helvetica,sans-Serif" font-size="10.00"># getRoMgr()</text>
</a>
</g>
</g>
<!-- Node2&#45;&gt;Node1 -->
<g id="edge1" class="edge"><title>Node2&#45;&gt;Node1</title>
<path fill="none" stroke="#404040" d="M176.28,-194.912C168.357,-181.839 160.378,-168.674 152.75,-156.087"/>
<polygon fill="none" stroke="#404040" points="152.653,-155.928 146.123,-152.87 146.434,-145.666 152.964,-148.724 152.653,-155.928"/>
<text text-anchor="middle" x="200.5" y="-167.5" font-family="Helvetica,sans-Serif" font-size="10.00"> +m_component</text>
</g>
<!-- Node3 -->
<g id="node3" class="node"><title>Node3</title>
<polygon fill="white" stroke="#bfbfbf" points="191.5,-766 191.5,-834 290.5,-834 290.5,-766 191.5,-766"/>
<text text-anchor="start" x="199.5" y="-822" font-family="Helvetica,sans-Serif" font-size="10.00">std::vector&lt; Core::</text>
<text text-anchor="middle" x="241" y="-811" font-family="Helvetica,sans-Serif" font-size="10.00">Index &gt;</text>
<polyline fill="none" stroke="#bfbfbf" points="191.5,-804 290.5,-804 "/>
<text text-anchor="middle" x="241" y="-792" font-family="Helvetica,sans-Serif" font-size="10.00"> </text>
<polyline fill="none" stroke="#bfbfbf" points="191.5,-785 290.5,-785 "/>
<text text-anchor="middle" x="241" y="-773" font-family="Helvetica,sans-Serif" font-size="10.00"> </text>
</g>
<!-- Node3&#45;&gt;Node2 -->
<g id="edge2" class="edge"><title>Node3&#45;&gt;Node2</title>
<path fill="none" stroke="#404040" d="M241.134,-765.955C241.41,-698.238 242.05,-540.712 242.503,-429.155"/>
<polygon fill="none" stroke="#404040" points="242.503,-429.15 238.528,-423.134 242.552,-417.151 246.528,-423.167 242.503,-429.15"/>
<text text-anchor="middle" x="285" y="-586.5" font-family="Helvetica,sans-Serif" font-size="10.00"> +m_renderObjects</text>
</g>
<!-- Node4 -->
<g id="node4" class="node"><title>Node4</title>
<g id="a_node4"><a xlink:href="classRa_1_1Core_1_1Index.html" target="_top" xlink:title="{Ra::Core::Index\n||+ Index()\l+ Index()\l+ isValid()\l+ isInvalid()\l+ setInvalid()\l+ getValue()\l+ setValue()\l+ operator int()\l+ operator=()\l+ operator++()\l+ operator&#45;&#45;()\l+ operator+()\l+ operator+()\l+ operator&#45;()\l+ operator&#45;()\l+ operator==()\l+ operator==()\l+ operator!=()\l+ operator!=()\l+ operator\&lt;()\l+ operator\&lt;()\l+ operator\&lt;=()\l+ operator\&lt;=()\l+ operator\&gt;()\l+ operator\&gt;()\l+ operator\&gt;=()\l+ operator\&gt;=()\l+ Invalid()\l+ Max()\l}">
<polygon fill="white" stroke="black" points="128,-910.5 128,-1275.5 214,-1275.5 214,-910.5 128,-910.5"/>
<text text-anchor="middle" x="171" y="-1263.5" font-family="Helvetica,sans-Serif" font-size="10.00">Ra::Core::Index</text>
<polyline fill="none" stroke="black" points="128,-1256.5 214,-1256.5 "/>
<text text-anchor="middle" x="171" y="-1244.5" font-family="Helvetica,sans-Serif" font-size="10.00"> </text>
<polyline fill="none" stroke="black" points="128,-1237.5 214,-1237.5 "/>
<text text-anchor="start" x="136" y="-1225.5" font-family="Helvetica,sans-Serif" font-size="10.00">+ Index()</text>
<text text-anchor="start" x="136" y="-1214.5" font-family="Helvetica,sans-Serif" font-size="10.00">+ Index()</text>
<text text-anchor="start" x="136" y="-1203.5" font-family="Helvetica,sans-Serif" font-size="10.00">+ isValid()</text>
<text text-anchor="start" x="136" y="-1192.5" font-family="Helvetica,sans-Serif" font-size="10.00">+ isInvalid()</text>
<text text-anchor="start" x="136" y="-1181.5" font-family="Helvetica,sans-Serif" font-size="10.00">+ setInvalid()</text>
<text text-anchor="start" x="136" y="-1170.5" font-family="Helvetica,sans-Serif" font-size="10.00">+ getValue()</text>
<text text-anchor="start" x="136" y="-1159.5" font-family="Helvetica,sans-Serif" font-size="10.00">+ setValue()</text>
<text text-anchor="start" x="136" y="-1148.5" font-family="Helvetica,sans-Serif" font-size="10.00">+ operator int()</text>
<text text-anchor="start" x="136" y="-1137.5" font-family="Helvetica,sans-Serif" font-size="10.00">+ operator=()</text>
<text text-anchor="start" x="136" y="-1126.5" font-family="Helvetica,sans-Serif" font-size="10.00">+ operator++()</text>
<text text-anchor="start" x="136" y="-1115.5" font-family="Helvetica,sans-Serif" font-size="10.00">+ operator&#45;&#45;()</text>
<text text-anchor="start" x="136" y="-1104.5" font-family="Helvetica,sans-Serif" font-size="10.00">+ operator+()</text>
<text text-anchor="start" x="136" y="-1093.5" font-family="Helvetica,sans-Serif" font-size="10.00">+ operator+()</text>
<text text-anchor="start" x="136" y="-1082.5" font-family="Helvetica,sans-Serif" font-size="10.00">+ operator&#45;()</text>
<text text-anchor="start" x="136" y="-1071.5" font-family="Helvetica,sans-Serif" font-size="10.00">+ operator&#45;()</text>
<text text-anchor="start" x="136" y="-1060.5" font-family="Helvetica,sans-Serif" font-size="10.00">+ operator==()</text>
<text text-anchor="start" x="136" y="-1049.5" font-family="Helvetica,sans-Serif" font-size="10.00">+ operator==()</text>
<text text-anchor="start" x="136" y="-1038.5" font-family="Helvetica,sans-Serif" font-size="10.00">+ operator!=()</text>
<text text-anchor="start" x="136" y="-1027.5" font-family="Helvetica,sans-Serif" font-size="10.00">+ operator!=()</text>
<text text-anchor="start" x="136" y="-1016.5" font-family="Helvetica,sans-Serif" font-size="10.00">+ operator&lt;()</text>
<text text-anchor="start" x="136" y="-1005.5" font-family="Helvetica,sans-Serif" font-size="10.00">+ operator&lt;()</text>
<text text-anchor="start" x="136" y="-994.5" font-family="Helvetica,sans-Serif" font-size="10.00">+ operator&lt;=()</text>
<text text-anchor="start" x="136" y="-983.5" font-family="Helvetica,sans-Serif" font-size="10.00">+ operator&lt;=()</text>
<text text-anchor="start" x="136" y="-972.5" font-family="Helvetica,sans-Serif" font-size="10.00">+ operator&gt;()</text>
<text text-anchor="start" x="136" y="-961.5" font-family="Helvetica,sans-Serif" font-size="10.00">+ operator&gt;()</text>
<text text-anchor="start" x="136" y="-950.5" font-family="Helvetica,sans-Serif" font-size="10.00">+ operator&gt;=()</text>
<text text-anchor="start" x="136" y="-939.5" font-family="Helvetica,sans-Serif" font-size="10.00">+ operator&gt;=()</text>
<text text-anchor="start" x="136" y="-928.5" font-family="Helvetica,sans-Serif" font-size="10.00">+ Invalid()</text>
<text text-anchor="start" x="136" y="-917.5" font-family="Helvetica,sans-Serif" font-size="10.00">+ Max()</text>
</a>
</g>
</g>
<!-- Node4&#45;&gt;Node3 -->
<g id="edge3" class="edge"><title>Node4&#45;&gt;Node3</title>
<path fill="none" stroke="#404040" d="M171.879,-910.474C175.585,-892.328 180.802,-874.524 188,-858 190.153,-853.058 192.921,-848.272 196.061,-843.714"/>
<polygon fill="none" stroke="#404040" points="196.12,-843.638 196.607,-836.444 203.435,-834.126 202.948,-841.321 196.12,-843.638"/>
<text text-anchor="middle" x="212.5" y="-872.5" font-family="Helvetica,sans-Serif" font-size="10.00"> +elements</text>
</g>
<!-- Node5 -->
<g id="node5" class="node"><title>Node5</title>
<polygon fill="white" stroke="#bfbfbf" points="156.5,-1324.5 156.5,-1381.5 185.5,-1381.5 185.5,-1324.5 156.5,-1324.5"/>
<text text-anchor="middle" x="171" y="-1369.5" font-family="Helvetica,sans-Serif" font-size="10.00">int</text>
<polyline fill="none" stroke="#bfbfbf" points="156.5,-1362.5 185.5,-1362.5 "/>
<text text-anchor="middle" x="171" y="-1350.5" font-family="Helvetica,sans-Serif" font-size="10.00"> </text>
<polyline fill="none" stroke="#bfbfbf" points="156.5,-1343.5 185.5,-1343.5 "/>
<text text-anchor="middle" x="171" y="-1331.5" font-family="Helvetica,sans-Serif" font-size="10.00"> </text>
</g>
<!-- Node5&#45;&gt;Node4 -->
<g id="edge4" class="edge"><title>Node5&#45;&gt;Node4</title>
<path fill="none" stroke="#404040" d="M171,-1324.39C171,-1314.23 171,-1301.82 171,-1288.06"/>
<polygon fill="none" stroke="#404040" points="171,-1287.65 167,-1281.65 171,-1275.65 175,-1281.65 171,-1287.65"/>
<text text-anchor="middle" x="188.5" y="-1297.5" font-family="Helvetica,sans-Serif" font-size="10.00"> #m_idx</text>
</g>
<!-- Node6 -->
<g id="node6" class="node"><title>Node6</title>
<g id="a_node6"><a xlink:title="STL class. ">
<polygon fill="white" stroke="#bfbfbf" points="263.5,-1064.5 263.5,-1121.5 350.5,-1121.5 350.5,-1064.5 263.5,-1064.5"/>
<text text-anchor="middle" x="307" y="-1109.5" font-family="Helvetica,sans-Serif" font-size="10.00">std::vector&lt; T &gt;</text>
<polyline fill="none" stroke="#bfbfbf" points="263.5,-1102.5 350.5,-1102.5 "/>
<text text-anchor="middle" x="307" y="-1090.5" font-family="Helvetica,sans-Serif" font-size="10.00"> </text>
<polyline fill="none" stroke="#bfbfbf" points="263.5,-1083.5 350.5,-1083.5 "/>
<text text-anchor="middle" x="307" y="-1071.5" font-family="Helvetica,sans-Serif" font-size="10.00"> </text>
</a>
</g>
</g>
<!-- Node6&#45;&gt;Node3 -->
<g id="edge5" class="edge"><title>Node6&#45;&gt;Node3</title>
<path fill="none" stroke="orange" d="M291.97,-1054.94C276.714,-1015.35 253.966,-950.389 244,-892 240.755,-872.99 239.922,-851.432 239.938,-834.072"/>
<polygon fill="orange" stroke="orange" points="288.78,-1056.4 295.674,-1064.44 295.302,-1053.85 288.78,-1056.4"/>
<text text-anchor="middle" x="280.5" y="-872.5" font-family="Helvetica,sans-Serif" font-size="10.00"> &lt; Core::Index &gt;</text>
</g>
<!-- Node9 -->
<g id="node9" class="node"><title>Node9</title>
<polygon fill="white" stroke="#bfbfbf" points="320.5,-760.5 320.5,-839.5 479.5,-839.5 479.5,-760.5 320.5,-760.5"/>
<text text-anchor="start" x="328.5" y="-827.5" font-family="Helvetica,sans-Serif" font-size="10.00">std::vector&lt; std::pair</text>
<text text-anchor="start" x="328.5" y="-816.5" font-family="Helvetica,sans-Serif" font-size="10.00">&lt; const Ra::Engine::Entity</text>
<text text-anchor="middle" x="400" y="-805.5" font-family="Helvetica,sans-Serif" font-size="10.00"> *, Ra::Engine::Component * &gt; &gt;</text>
<polyline fill="none" stroke="#bfbfbf" points="320.5,-798.5 479.5,-798.5 "/>
<text text-anchor="middle" x="400" y="-786.5" font-family="Helvetica,sans-Serif" font-size="10.00"> </text>
<polyline fill="none" stroke="#bfbfbf" points="320.5,-779.5 479.5,-779.5 "/>
<text text-anchor="middle" x="400" y="-767.5" font-family="Helvetica,sans-Serif" font-size="10.00"> </text>
</g>
<!-- Node6&#45;&gt;Node9 -->
<g id="edge10" class="edge"><title>Node6&#45;&gt;Node9</title>
<path fill="none" stroke="orange" d="M304.915,-1054.29C303.846,-1006.06 307.45,-921.205 340,-858 343.355,-851.486 347.754,-845.304 352.649,-839.582"/>
<polygon fill="orange" stroke="orange" points="301.416,-1054.41 305.216,-1064.3 308.413,-1054.2 301.416,-1054.41"/>
<text text-anchor="start" x="340" y="-883.5" font-family="Helvetica,sans-Serif" font-size="10.00"> &lt; std::pair&lt; const</text>
<text text-anchor="start" x="340" y="-872.5" font-family="Helvetica,sans-Serif" font-size="10.00"> Ra::Engine::Entity</text>
<text text-anchor="middle" x="411.5" y="-861.5" font-family="Helvetica,sans-Serif" font-size="10.00"> *, Ra::Engine::Component * &gt; &gt;</text>
</g>
<!-- Node7 -->
<g id="node7" class="node"><title>Node7</title>
<polygon fill="white" stroke="#bfbfbf" points="292.5,-1324.5 292.5,-1381.5 321.5,-1381.5 321.5,-1324.5 292.5,-1324.5"/>
<text text-anchor="middle" x="307" y="-1369.5" font-family="Helvetica,sans-Serif" font-size="10.00">T</text>
<polyline fill="none" stroke="#bfbfbf" points="292.5,-1362.5 321.5,-1362.5 "/>
<text text-anchor="middle" x="307" y="-1350.5" font-family="Helvetica,sans-Serif" font-size="10.00"> </text>
<polyline fill="none" stroke="#bfbfbf" points="292.5,-1343.5 321.5,-1343.5 "/>
<text text-anchor="middle" x="307" y="-1331.5" font-family="Helvetica,sans-Serif" font-size="10.00"> </text>
</g>
<!-- Node7&#45;&gt;Node6 -->
<g id="edge6" class="edge"><title>Node7&#45;&gt;Node6</title>
<path fill="none" stroke="#404040" d="M307,-1324.39C307,-1278.63 307,-1186.91 307,-1134.04"/>
<polygon fill="none" stroke="#404040" points="307,-1133.8 303,-1127.8 307,-1121.8 311,-1127.8 307,-1133.8"/>
<text text-anchor="middle" x="331.5" y="-1297.5" font-family="Helvetica,sans-Serif" font-size="10.00"> +elements</text>
</g>
<!-- Node8 -->
<g id="node8" class="node"><title>Node8</title>
<g id="a_node8"><a xlink:href="classRa_1_1Engine_1_1System.html" target="_top" xlink:title="Systems are responsible of updating a specific subset of the components of each entity. ">
<polygon fill="white" stroke="black" points="343,-522 343,-656 483,-656 483,-522 343,-522"/>
<text text-anchor="middle" x="413" y="-644" font-family="Helvetica,sans-Serif" font-size="10.00">Ra::Engine::System</text>
<polyline fill="none" stroke="black" points="343,-637 483,-637 "/>
<text text-anchor="middle" x="413" y="-625" font-family="Helvetica,sans-Serif" font-size="10.00"> </text>
<polyline fill="none" stroke="black" points="343,-618 483,-618 "/>
<text text-anchor="start" x="351" y="-606" font-family="Helvetica,sans-Serif" font-size="10.00">+ System()</text>
<text text-anchor="start" x="351" y="-595" font-family="Helvetica,sans-Serif" font-size="10.00">+ ~System()</text>
<text text-anchor="start" x="351" y="-584" font-family="Helvetica,sans-Serif" font-size="10.00">+ handleAssetLoading()</text>
<text text-anchor="start" x="351" y="-573" font-family="Helvetica,sans-Serif" font-size="10.00">+ generateTasks()</text>
<text text-anchor="start" x="351" y="-562" font-family="Helvetica,sans-Serif" font-size="10.00">+ getEntityComponents()</text>
<text text-anchor="start" x="351" y="-551" font-family="Helvetica,sans-Serif" font-size="10.00"># registerComponent()</text>
<text text-anchor="start" x="351" y="-540" font-family="Helvetica,sans-Serif" font-size="10.00"># unregisterComponent()</text>
<text text-anchor="start" x="351" y="-529" font-family="Helvetica,sans-Serif" font-size="10.00"># unregisterAllComponents()</text>
</a>
</g>
</g>
<!-- Node8&#45;&gt;Node2 -->
<g id="edge7" class="edge"><title>Node8&#45;&gt;Node2</title>
<path fill="none" stroke="#404040" d="M372.928,-521.763C355.877,-493.578 335.441,-459.799 315.879,-427.465"/>
<polygon fill="none" stroke="#404040" points="315.776,-427.294 309.248,-424.231 309.564,-417.027 316.092,-420.09 315.776,-427.294"/>
<text text-anchor="middle" x="355.5" y="-439.5" font-family="Helvetica,sans-Serif" font-size="10.00"> #m_system</text>
</g>
<!-- Node9&#45;&gt;Node8 -->
<g id="edge8" class="edge"><title>Node9&#45;&gt;Node8</title>
<path fill="none" stroke="#404040" d="M402.415,-760.179C404.016,-734.437 406.173,-699.755 408.122,-668.416"/>
<polygon fill="none" stroke="#404040" points="408.141,-668.118 404.521,-661.881 408.886,-656.141 412.506,-662.378 408.141,-668.118"/>
<text text-anchor="middle" x="443" y="-733.5" font-family="Helvetica,sans-Serif" font-size="10.00"> #m_components</text>
</g>
<!-- Node10 -->
<g id="node10" class="node"><title>Node10</title>
<polygon fill="white" stroke="#bfbfbf" points="446.5,-1053.5 446.5,-1132.5 563.5,-1132.5 563.5,-1053.5 446.5,-1053.5"/>
<text text-anchor="start" x="454.5" y="-1120.5" font-family="Helvetica,sans-Serif" font-size="10.00">pair&lt; const Ra::Engine</text>
<text text-anchor="start" x="454.5" y="-1109.5" font-family="Helvetica,sans-Serif" font-size="10.00">::Entity *, Ra::Engine</text>
<text text-anchor="middle" x="505" y="-1098.5" font-family="Helvetica,sans-Serif" font-size="10.00">::Component * &gt;</text>
<polyline fill="none" stroke="#bfbfbf" points="446.5,-1091.5 563.5,-1091.5 "/>
<text text-anchor="middle" x="505" y="-1079.5" font-family="Helvetica,sans-Serif" font-size="10.00"> </text>
<polyline fill="none" stroke="#bfbfbf" points="446.5,-1072.5 563.5,-1072.5 "/>
<text text-anchor="middle" x="505" y="-1060.5" font-family="Helvetica,sans-Serif" font-size="10.00"> </text>
</g>
<!-- Node10&#45;&gt;Node9 -->
<g id="edge9" class="edge"><title>Node10&#45;&gt;Node9</title>
<path fill="none" stroke="#404040" d="M510.842,-1053.35C516.242,-1004.33 518.77,-918.857 483,-858 481.069,-854.715 478.866,-851.577 476.45,-848.583"/>
<polygon fill="none" stroke="#404040" points="476.221,-848.335 469.212,-846.637 468.084,-839.515 475.093,-841.213 476.221,-848.335"/>
<text text-anchor="middle" x="521.5" y="-872.5" font-family="Helvetica,sans-Serif" font-size="10.00"> +elements</text>
</g>
<!-- Node11 -->
<g id="node11" class="node"><title>Node11</title>
<g id="a_node11"><a xlink:href="classRa_1_1Engine_1_1Entity.html" target="_top" xlink:title="An entity is an scene element. It ties together components with a transform. ">
<polygon fill="white" stroke="black" points="73.5,-467 73.5,-711 204.5,-711 204.5,-467 73.5,-467"/>
<text text-anchor="middle" x="139" y="-699" font-family="Helvetica,sans-Serif" font-size="10.00">Ra::Engine::Entity</text>
<polyline fill="none" stroke="black" points="73.5,-692 204.5,-692 "/>
<text text-anchor="middle" x="139" y="-680" font-family="Helvetica,sans-Serif" font-size="10.00"> </text>
<polyline fill="none" stroke="black" points="73.5,-673 204.5,-673 "/>
<text text-anchor="start" x="81.5" y="-661" font-family="Helvetica,sans-Serif" font-size="10.00">+ Entity()</text>
<text text-anchor="start" x="81.5" y="-650" font-family="Helvetica,sans-Serif" font-size="10.00">+ Entity()</text>
<text text-anchor="start" x="81.5" y="-639" font-family="Helvetica,sans-Serif" font-size="10.00">+ operator=()</text>
<text text-anchor="start" x="81.5" y="-628" font-family="Helvetica,sans-Serif" font-size="10.00">+ ~Entity()</text>
<text text-anchor="start" x="81.5" y="-617" font-family="Helvetica,sans-Serif" font-size="10.00">+ getName()</text>
<text text-anchor="start" x="81.5" y="-606" font-family="Helvetica,sans-Serif" font-size="10.00">+ rename()</text>
<text text-anchor="start" x="81.5" y="-595" font-family="Helvetica,sans-Serif" font-size="10.00">+ setTransform()</text>
<text text-anchor="start" x="81.5" y="-584" font-family="Helvetica,sans-Serif" font-size="10.00">+ setTransform()</text>
<text text-anchor="start" x="81.5" y="-573" font-family="Helvetica,sans-Serif" font-size="10.00">+ getTransform()</text>
<text text-anchor="start" x="81.5" y="-562" font-family="Helvetica,sans-Serif" font-size="10.00">+ getTransformAsMatrix()</text>
<text text-anchor="start" x="81.5" y="-551" font-family="Helvetica,sans-Serif" font-size="10.00">+ swapTransformBuffers()</text>
<text text-anchor="start" x="81.5" y="-540" font-family="Helvetica,sans-Serif" font-size="10.00">+ addComponent()</text>
<text text-anchor="start" x="81.5" y="-529" font-family="Helvetica,sans-Serif" font-size="10.00">+ removeComponent()</text>
<text text-anchor="start" x="81.5" y="-518" font-family="Helvetica,sans-Serif" font-size="10.00">+ getComponent()</text>
<text text-anchor="start" x="81.5" y="-507" font-family="Helvetica,sans-Serif" font-size="10.00">+ getComponent()</text>
<text text-anchor="start" x="81.5" y="-496" font-family="Helvetica,sans-Serif" font-size="10.00">+ getComponents()</text>
<text text-anchor="start" x="81.5" y="-485" font-family="Helvetica,sans-Serif" font-size="10.00">+ getNumComponents()</text>
<text text-anchor="start" x="81.5" y="-474" font-family="Helvetica,sans-Serif" font-size="10.00">+ rayCastQuery()</text>
</a>
</g>
</g>
<!-- Node11&#45;&gt;Node1 -->
<g id="edge16" class="edge"><title>Node11&#45;&gt;Node1</title>
<path fill="none" stroke="#404040" d="M117.733,-466.594C115.461,-450.299 113.452,-433.772 112,-418 103.847,-329.469 102.132,-227.621 102.124,-157.855"/>
<polygon fill="none" stroke="#404040" points="102.124,-157.646 98.1325,-151.64 102.14,-145.646 106.132,-151.651 102.124,-157.646"/>
<text text-anchor="middle" x="135.5" y="-303.5" font-family="Helvetica,sans-Serif" font-size="10.00"> +m_entity</text>
</g>
<!-- Node11&#45;&gt;Node2 -->
<g id="edge11" class="edge"><title>Node11&#45;&gt;Node2</title>
<path fill="none" stroke="#404040" d="M170.421,-466.651C173.761,-456.208 177.299,-445.869 181,-436 181.939,-433.495 182.909,-430.973 183.906,-428.439"/>
<polygon fill="none" stroke="#404040" points="183.923,-428.396 182.47,-421.332 188.431,-417.274 189.884,-424.337 183.923,-428.396"/>
<text text-anchor="middle" x="204" y="-439.5" font-family="Helvetica,sans-Serif" font-size="10.00"> #m_entity</text>
</g>
<!-- Node12 -->
<g id="node12" class="node"><title>Node12</title>
<g id="a_node12"><a xlink:href="classRa_1_1Core_1_1IndexedObject.html" target="_top" xlink:title="{Ra::Core::IndexedObject\n||+ IndexedObject()\l+ IndexedObject()\l+ ~IndexedObject()\l}">
<polygon fill="white" stroke="black" points="39.5,-760.5 39.5,-839.5 164.5,-839.5 164.5,-760.5 39.5,-760.5"/>
<text text-anchor="middle" x="102" y="-827.5" font-family="Helvetica,sans-Serif" font-size="10.00">Ra::Core::IndexedObject</text>
<polyline fill="none" stroke="black" points="39.5,-820.5 164.5,-820.5 "/>
<text text-anchor="middle" x="102" y="-808.5" font-family="Helvetica,sans-Serif" font-size="10.00"> </text>
<polyline fill="none" stroke="black" points="39.5,-801.5 164.5,-801.5 "/>
<text text-anchor="start" x="47.5" y="-789.5" font-family="Helvetica,sans-Serif" font-size="10.00">+ IndexedObject()</text>
<text text-anchor="start" x="47.5" y="-778.5" font-family="Helvetica,sans-Serif" font-size="10.00">+ IndexedObject()</text>
<text text-anchor="start" x="47.5" y="-767.5" font-family="Helvetica,sans-Serif" font-size="10.00">+ ~IndexedObject()</text>
</a>
</g>
</g>
<!-- Node12&#45;&gt;Node11 -->
<g id="edge12" class="edge"><title>Node12&#45;&gt;Node11</title>
<path fill="none" stroke="midnightblue" d="M110.662,-750.07C112.774,-738.141 115.127,-724.849 117.55,-711.166"/>
<polygon fill="none" stroke="midnightblue" points="107.17,-749.721 108.873,-760.179 114.062,-750.942 107.17,-749.721"/>
</g>
<!-- Node13 -->
<g id="node13" class="node"><title>Node13</title>
<polygon fill="white" stroke="#bfbfbf" points="31,-1064.5 31,-1121.5 63,-1121.5 63,-1064.5 31,-1064.5"/>
<text text-anchor="middle" x="47" y="-1109.5" font-family="Helvetica,sans-Serif" font-size="10.00">uint</text>
<polyline fill="none" stroke="#bfbfbf" points="31,-1102.5 63,-1102.5 "/>
<text text-anchor="middle" x="47" y="-1090.5" font-family="Helvetica,sans-Serif" font-size="10.00"> </text>
<polyline fill="none" stroke="#bfbfbf" points="31,-1083.5 63,-1083.5 "/>
<text text-anchor="middle" x="47" y="-1071.5" font-family="Helvetica,sans-Serif" font-size="10.00"> </text>
</g>
<!-- Node13&#45;&gt;Node1 -->
<g id="edge17" class="edge"><title>Node13&#45;&gt;Node1</title>
<path fill="none" stroke="#404040" d="M39.4486,-1064.15C26.1628,-1012.62 0,-898.745 0,-801 0,-801 0,-801 0,-305 0,-252.478 22.4862,-198.606 46.4457,-156.112"/>
<polygon fill="none" stroke="#404040" points="46.542,-155.946 46.0877,-148.749 52.5561,-145.562 53.0105,-152.759 46.542,-155.946"/>
<text text-anchor="middle" x="27.5" y="-586.5" font-family="Helvetica,sans-Serif" font-size="10.00"> +m_roIndex</text>
</g>
<!-- Node13&#45;&gt;Node12 -->
<g id="edge13" class="edge"><title>Node13&#45;&gt;Node12</title>
<path fill="none" stroke="#404040" d="M52.2239,-1064.36C61.4304,-1015.65 80.6736,-913.836 92.3521,-852.046"/>
<polygon fill="none" stroke="#404040" points="92.4237,-851.667 89.6076,-845.029 94.6523,-839.876 97.4684,-846.514 92.4237,-851.667"/>
<text text-anchor="middle" x="102" y="-872.5" font-family="Helvetica,sans-Serif" font-size="10.00"> +idx</text>
</g>
<!-- Node14 -->
<g id="node14" class="node"><title>Node14</title>
<g id="a_node14"><a xlink:title="STL class. ">
<polygon fill="white" stroke="#bfbfbf" points="508,-560.5 508,-617.5 568,-617.5 568,-560.5 508,-560.5"/>
<text text-anchor="middle" x="538" y="-605.5" font-family="Helvetica,sans-Serif" font-size="10.00">std::string</text>
<polyline fill="none" stroke="#bfbfbf" points="508,-598.5 568,-598.5 "/>
<text text-anchor="middle" x="538" y="-586.5" font-family="Helvetica,sans-Serif" font-size="10.00"> </text>
<polyline fill="none" stroke="#bfbfbf" points="508,-579.5 568,-579.5 "/>
<text text-anchor="middle" x="538" y="-567.5" font-family="Helvetica,sans-Serif" font-size="10.00"> </text>
</a>
</g>
</g>
<!-- Node14&#45;&gt;Node2 -->
<g id="edge14" class="edge"><title>Node14&#45;&gt;Node2</title>
<path fill="none" stroke="#404040" d="M532.844,-560.264C526.773,-533.738 514.532,-493.775 492,-466 448.469,-412.338 381.797,-371.122 328.396,-344.114"/>
<polygon fill="none" stroke="#404040" points="328.308,-344.07 321.155,-344.985 317.559,-338.735 324.712,-337.82 328.308,-344.07"/>
<text text-anchor="middle" x="494" y="-439.5" font-family="Helvetica,sans-Serif" font-size="10.00"> #m_name</text>
</g>
<!-- Node15 -->
<g id="node15" class="node"><title>Node15</title>
<g id="a_node15"><a xlink:title="STL class. ">
<polygon fill="white" stroke="#bfbfbf" points="497.5,-766 497.5,-834 592.5,-834 592.5,-766 497.5,-766"/>
<text text-anchor="start" x="505.5" y="-822" font-family="Helvetica,sans-Serif" font-size="10.00">std::basic_string&lt;</text>
<text text-anchor="middle" x="545" y="-811" font-family="Helvetica,sans-Serif" font-size="10.00"> char &gt;</text>
<polyline fill="none" stroke="#bfbfbf" points="497.5,-804 592.5,-804 "/>
<text text-anchor="middle" x="545" y="-792" font-family="Helvetica,sans-Serif" font-size="10.00"> </text>
<polyline fill="none" stroke="#bfbfbf" points="497.5,-785 592.5,-785 "/>
<text text-anchor="middle" x="545" y="-773" font-family="Helvetica,sans-Serif" font-size="10.00"> </text>
</a>
</g>
</g>
<!-- Node15&#45;&gt;Node14 -->
<g id="edge15" class="edge"><title>Node15&#45;&gt;Node14</title>
<path fill="none" stroke="midnightblue" d="M543.553,-755.794C542.163,-714.309 540.106,-652.892 538.925,-617.622"/>
<polygon fill="none" stroke="midnightblue" points="540.058,-756.006 543.891,-765.883 547.054,-755.772 540.058,-756.006"/>
</g>
</g>
</svg>
