<?xml version="1.0" encoding="UTF-8" standalone="no"?>
<!DOCTYPE svg PUBLIC "-//W3C//DTD SVG 1.1//EN"
 "http://www.w3.org/Graphics/SVG/1.1/DTD/svg11.dtd">
<!-- Generated by graphviz version 2.36.0 (20140111.2315)
 -->
<!-- Title: Ra::Core::DistanceQueries::PointToTriangleOutput Pages: 1 -->
<svg width="307pt" height="228pt"
 viewBox="0.00 0.00 307.00 228.00" xmlns="http://www.w3.org/2000/svg" xmlns:xlink="http://www.w3.org/1999/xlink">
<g id="graph0" class="graph" transform="scale(1 1) rotate(0) translate(4 224)">
<title>Ra::Core::DistanceQueries::PointToTriangleOutput</title>
<polygon fill="white" stroke="none" points="-4,4 -4,-224 303,-224 303,4 -4,4"/>
<!-- Node1 -->
<g id="node1" class="node"><title>Node1</title>
<polygon fill="#bfbfbf" stroke="black" points="101.5,-1 101.5,-113 236.5,-113 236.5,-1 101.5,-1"/>
<text text-anchor="start" x="109.5" y="-101" font-family="Helvetica,sans-Serif" font-size="10.00">Ra::Core::DistanceQueries</text>
<text text-anchor="middle" x="169" y="-90" font-family="Helvetica,sans-Serif" font-size="10.00">::PointToTriangleOutput</text>
<polyline fill="none" stroke="black" points="101.5,-83 236.5,-83 "/>
<text text-anchor="middle" x="169" y="-71" font-family="Helvetica,sans-Serif" font-size="10.00"> </text>
<polyline fill="none" stroke="black" points="101.5,-64 236.5,-64 "/>
<text text-anchor="start" x="109.5" y="-52" font-family="Helvetica,sans-Serif" font-size="10.00">+ PointToTriangleOutput()</text>
<text text-anchor="start" x="109.5" y="-41" font-family="Helvetica,sans-Serif" font-size="10.00">+ distanceSquared()</text>
<text text-anchor="start" x="109.5" y="-30" font-family="Helvetica,sans-Serif" font-size="10.00">+ flags()</text>
<text text-anchor="start" x="109.5" y="-19" font-family="Helvetica,sans-Serif" font-size="10.00">+ getHitPrimitive()</text>
<text text-anchor="start" x="109.5" y="-8" font-family="Helvetica,sans-Serif" font-size="10.00">+ getHitIndex()</text>
</g>
<!-- Node2 -->
<g id="node2" class="node"><title>Node2</title>
<polygon fill="white" stroke="#bfbfbf" points="0,-162.5 0,-219.5 112,-219.5 112,-162.5 0,-162.5"/>
<text text-anchor="middle" x="56" y="-207.5" font-family="Helvetica,sans-Serif" font-size="10.00">Matrix&lt; Scalar, 3, 1 &gt;</text>
<polyline fill="none" stroke="#bfbfbf" points="0,-200.5 112,-200.5 "/>
<text text-anchor="middle" x="56" y="-188.5" font-family="Helvetica,sans-Serif" font-size="10.00"> </text>
<polyline fill="none" stroke="#bfbfbf" points="0,-181.5 112,-181.5 "/>
<text text-anchor="middle" x="56" y="-169.5" font-family="Helvetica,sans-Serif" font-size="10.00"> </text>
</g>
<!-- Node2&#45;&gt;Node1 -->
<g id="edge1" class="edge"><title>Node2&#45;&gt;Node1</title>
<path fill="none" stroke="#404040" d="M79.6885,-162.328C89.7222,-150.608 101.869,-136.419 113.928,-122.332"/>
<polygon fill="none" stroke="#404040" points="114.014,-122.232 114.877,-115.073 121.818,-113.116 120.954,-120.275 114.014,-122.232"/>
<text text-anchor="middle" x="131" y="-135.5" font-family="Helvetica,sans-Serif" font-size="10.00"> +meshPoint</text>
</g>
<!-- Node3 -->
<g id="node3" class="node"><title>Node3</title>
<polygon fill="white" stroke="#bfbfbf" points="130.5,-162.5 130.5,-219.5 207.5,-219.5 207.5,-162.5 130.5,-162.5"/>
<text text-anchor="middle" x="169" y="-207.5" font-family="Helvetica,sans-Serif" font-size="10.00">unsigned char</text>
<polyline fill="none" stroke="#bfbfbf" points="130.5,-200.5 207.5,-200.5 "/>
<text text-anchor="middle" x="169" y="-188.5" font-family="Helvetica,sans-Serif" font-size="10.00"> </text>
<polyline fill="none" stroke="#bfbfbf" points="130.5,-181.5 207.5,-181.5 "/>
<text text-anchor="middle" x="169" y="-169.5" font-family="Helvetica,sans-Serif" font-size="10.00"> </text>
</g>
<!-- Node3&#45;&gt;Node1 -->
<g id="edge2" class="edge"><title>Node3&#45;&gt;Node1</title>
<path fill="none" stroke="#404040" d="M169,-162.328C169,-151.389 169,-138.3 169,-125.15"/>
<polygon fill="none" stroke="#404040" points="169,-125.116 165,-119.116 169,-113.116 173,-119.116 169,-125.116"/>
<text text-anchor="middle" x="184.5" y="-135.5" font-family="Helvetica,sans-Serif" font-size="10.00"> +flags</text>
</g>
<!-- Node4 -->
<g id="node4" class="node"><title>Node4</title>
<polygon fill="white" stroke="#bfbfbf" points="225.5,-162.5 225.5,-219.5 260.5,-219.5 260.5,-162.5 225.5,-162.5"/>
<text text-anchor="middle" x="243" y="-207.5" font-family="Helvetica,sans-Serif" font-size="10.00">float</text>
<polyline fill="none" stroke="#bfbfbf" points="225.5,-200.5 260.5,-200.5 "/>
<text text-anchor="middle" x="243" y="-188.5" font-family="Helvetica,sans-Serif" font-size="10.00"> </text>
<polyline fill="none" stroke="#bfbfbf" points="225.5,-181.5 260.5,-181.5 "/>
<text text-anchor="middle" x="243" y="-169.5" font-family="Helvetica,sans-Serif" font-size="10.00"> </text>
</g>
<!-- Node4&#45;&gt;Node1 -->
<g id="edge3" class="edge"><title>Node4&#45;&gt;Node1</title>
<path fill="none" stroke="#404040" d="M227.487,-162.328C221.167,-151.054 213.566,-137.496 205.967,-123.942"/>
<polygon fill="none" stroke="#404040" points="205.766,-123.583 199.343,-120.306 199.898,-113.116 206.321,-116.393 205.766,-123.583"/>
<text text-anchor="middle" x="258" y="-135.5" font-family="Helvetica,sans-Serif" font-size="10.00"> +distanceSquared</text>
</g>
</g>
</svg>
