<?xml version="1.0" encoding="UTF-8" standalone="no"?>
<!DOCTYPE svg PUBLIC "-//W3C//DTD SVG 1.1//EN"
 "http://www.w3.org/Graphics/SVG/1.1/DTD/svg11.dtd">
<!-- Generated by graphviz version 2.36.0 (20140111.2315)
 -->
<!-- Title: Ra::Engine::TextureData Pages: 1 -->
<svg width="276pt" height="346pt"
 viewBox="0.00 0.00 276.00 346.00" xmlns="http://www.w3.org/2000/svg" xmlns:xlink="http://www.w3.org/1999/xlink">
<g id="graph0" class="graph" transform="scale(1 1) rotate(0) translate(4 342)">
<title>Ra::Engine::TextureData</title>
<polygon fill="white" stroke="none" points="-4,4 -4,-342 272,-342 272,4 -4,4"/>
<!-- Node1 -->
<g id="node1" class="node"><title>Node1</title>
<polygon fill="#bfbfbf" stroke="black" points="85.5,-0.5 85.5,-57.5 210.5,-57.5 210.5,-0.5 85.5,-0.5"/>
<text text-anchor="middle" x="148" y="-45.5" font-family="Helvetica,sans-Serif" font-size="10.00">Ra::Engine::TextureData</text>
<polyline fill="none" stroke="black" points="85.5,-38.5 210.5,-38.5 "/>
<text text-anchor="middle" x="148" y="-26.5" font-family="Helvetica,sans-Serif" font-size="10.00"> </text>
<polyline fill="none" stroke="black" points="85.5,-19.5 210.5,-19.5 "/>
<text text-anchor="middle" x="148" y="-7.5" font-family="Helvetica,sans-Serif" font-size="10.00"> </text>
</g>
<!-- Node2 -->
<g id="node2" class="node"><title>Node2</title>
<polygon fill="white" stroke="#bfbfbf" points="-0.5,-172.5 -0.5,-229.5 52.5,-229.5 52.5,-172.5 -0.5,-172.5"/>
<text text-anchor="middle" x="26" y="-217.5" font-family="Helvetica,sans-Serif" font-size="10.00">GLenum</text>
<polyline fill="none" stroke="#bfbfbf" points="-0.5,-210.5 52.5,-210.5 "/>
<text text-anchor="middle" x="26" y="-198.5" font-family="Helvetica,sans-Serif" font-size="10.00"> </text>
<polyline fill="none" stroke="#bfbfbf" points="-0.5,-191.5 52.5,-191.5 "/>
<text text-anchor="middle" x="26" y="-179.5" font-family="Helvetica,sans-Serif" font-size="10.00"> </text>
</g>
<!-- Node2&#45;&gt;Node1 -->
<g id="edge1" class="edge"><title>Node2&#45;&gt;Node1</title>
<path fill="none" stroke="#404040" d="M21.6932,-172.493C18.9998,-145.286 19.2913,-103.797 40,-76 48.7035,-64.3172 60.9674,-55.5721 74.1247,-49.0352"/>
<polygon fill="none" stroke="#404040" points="74.3657,-48.9279 78.2202,-42.8334 85.3284,-44.0474 81.4739,-50.1419 74.3657,-48.9279"/>
<text text-anchor="middle" x="74.5" y="-145.5" font-family="Helvetica,sans-Serif" font-size="10.00"> +type</text>
<text text-anchor="middle" x="74.5" y="-134.5" font-family="Helvetica,sans-Serif" font-size="10.00">+minFilter</text>
<text text-anchor="middle" x="74.5" y="-123.5" font-family="Helvetica,sans-Serif" font-size="10.00">+magFilter</text>
<text text-anchor="middle" x="74.5" y="-112.5" font-family="Helvetica,sans-Serif" font-size="10.00">+internalFormat</text>
<text text-anchor="middle" x="74.5" y="-101.5" font-family="Helvetica,sans-Serif" font-size="10.00">+wrapS</text>
<text text-anchor="middle" x="74.5" y="-90.5" font-family="Helvetica,sans-Serif" font-size="10.00">+wrapT</text>
<text text-anchor="middle" x="74.5" y="-79.5" font-family="Helvetica,sans-Serif" font-size="10.00">+format</text>
</g>
<!-- Node3 -->
<g id="node3" class="node"><title>Node3</title>
<polygon fill="white" stroke="#bfbfbf" points="102.5,-172.5 102.5,-229.5 131.5,-229.5 131.5,-172.5 102.5,-172.5"/>
<text text-anchor="middle" x="117" y="-217.5" font-family="Helvetica,sans-Serif" font-size="10.00">int</text>
<polyline fill="none" stroke="#bfbfbf" points="102.5,-210.5 131.5,-210.5 "/>
<text text-anchor="middle" x="117" y="-198.5" font-family="Helvetica,sans-Serif" font-size="10.00"> </text>
<polyline fill="none" stroke="#bfbfbf" points="102.5,-191.5 131.5,-191.5 "/>
<text text-anchor="middle" x="117" y="-179.5" font-family="Helvetica,sans-Serif" font-size="10.00"> </text>
</g>
<!-- Node3&#45;&gt;Node1 -->
<g id="edge2" class="edge"><title>Node3&#45;&gt;Node1</title>
<path fill="none" stroke="#404040" d="M113.643,-172.282C111.483,-146.729 110.6,-108.027 120,-76 120.749,-73.4489 121.677,-70.897 122.735,-68.3759"/>
<polygon fill="none" stroke="#404040" points="122.735,-68.3747 121.809,-61.2233 128.055,-57.6181 128.98,-64.7695 122.735,-68.3747"/>
<text text-anchor="middle" x="138" y="-118" font-family="Helvetica,sans-Serif" font-size="10.00"> +height</text>
<text text-anchor="middle" x="138" y="-107" font-family="Helvetica,sans-Serif" font-size="10.00">+width</text>
</g>
<!-- Node4 -->
<g id="node4" class="node"><title>Node4</title>
<g id="a_node4"><a xlink:title="STL class. ">
<polygon fill="white" stroke="#bfbfbf" points="149,-172.5 149,-229.5 209,-229.5 209,-172.5 149,-172.5"/>
<text text-anchor="middle" x="179" y="-217.5" font-family="Helvetica,sans-Serif" font-size="10.00">std::string</text>
<polyline fill="none" stroke="#bfbfbf" points="149,-210.5 209,-210.5 "/>
<text text-anchor="middle" x="179" y="-198.5" font-family="Helvetica,sans-Serif" font-size="10.00"> </text>
<polyline fill="none" stroke="#bfbfbf" points="149,-191.5 209,-191.5 "/>
<text text-anchor="middle" x="179" y="-179.5" font-family="Helvetica,sans-Serif" font-size="10.00"> </text>
</a>
</g>
</g>
<!-- Node4&#45;&gt;Node1 -->
<g id="edge3" class="edge"><title>Node4&#45;&gt;Node1</title>
<path fill="none" stroke="#404040" d="M173.95,-172.308C168.861,-144.4 160.959,-101.064 155.211,-69.544"/>
<polygon fill="none" stroke="#404040" points="155.2,-69.4853 150.189,-64.3002 153.048,-57.6799 158.059,-62.865 155.2,-69.4853"/>
<text text-anchor="middle" x="187" y="-112.5" font-family="Helvetica,sans-Serif" font-size="10.00"> +name</text>
</g>
<!-- Node5 -->
<g id="node5" class="node"><title>Node5</title>
<g id="a_node5"><a xlink:title="STL class. ">
<polygon fill="white" stroke="#bfbfbf" points="131.5,-269 131.5,-337 226.5,-337 226.5,-269 131.5,-269"/>
<text text-anchor="start" x="139.5" y="-325" font-family="Helvetica,sans-Serif" font-size="10.00">std::basic_string&lt;</text>
<text text-anchor="middle" x="179" y="-314" font-family="Helvetica,sans-Serif" font-size="10.00"> char &gt;</text>
<polyline fill="none" stroke="#bfbfbf" points="131.5,-307 226.5,-307 "/>
<text text-anchor="middle" x="179" y="-295" font-family="Helvetica,sans-Serif" font-size="10.00"> </text>
<polyline fill="none" stroke="#bfbfbf" points="131.5,-288 226.5,-288 "/>
<text text-anchor="middle" x="179" y="-276" font-family="Helvetica,sans-Serif" font-size="10.00"> </text>
</a>
</g>
</g>
<!-- Node5&#45;&gt;Node4 -->
<g id="edge4" class="edge"><title>Node5&#45;&gt;Node4</title>
<path fill="none" stroke="midnightblue" d="M179,-258.857C179,-248.952 179,-238.682 179,-229.64"/>
<polygon fill="none" stroke="midnightblue" points="175.5,-258.979 179,-268.979 182.5,-258.979 175.5,-258.979"/>
</g>
<!-- Node6 -->
<g id="node6" class="node"><title>Node6</title>
<polygon fill="white" stroke="#bfbfbf" points="227.5,-172.5 227.5,-229.5 268.5,-229.5 268.5,-172.5 227.5,-172.5"/>
<text text-anchor="middle" x="248" y="-217.5" font-family="Helvetica,sans-Serif" font-size="10.00">void *</text>
<polyline fill="none" stroke="#bfbfbf" points="227.5,-210.5 268.5,-210.5 "/>
<text text-anchor="middle" x="248" y="-198.5" font-family="Helvetica,sans-Serif" font-size="10.00"> </text>
<polyline fill="none" stroke="#bfbfbf" points="227.5,-191.5 268.5,-191.5 "/>
<text text-anchor="middle" x="248" y="-179.5" font-family="Helvetica,sans-Serif" font-size="10.00"> </text>
</g>
<!-- Node6&#45;&gt;Node1 -->
<g id="edge5" class="edge"><title>Node6&#45;&gt;Node1</title>
<path fill="none" stroke="#404040" d="M244.007,-172.489C239.076,-145.849 228.667,-105.297 208,-76 205.581,-72.5712 202.831,-69.2814 199.869,-66.1494"/>
<polygon fill="none" stroke="#404040" points="199.75,-66.0361 192.648,-64.7913 191.065,-57.756 198.168,-59.0008 199.75,-66.0361"/>
<text text-anchor="middle" x="254" y="-112.5" font-family="Helvetica,sans-Serif" font-size="10.00"> +data</text>
</g>
</g>
</svg>
