<?xml version="1.0" encoding="UTF-8" standalone="no"?>
<!DOCTYPE svg PUBLIC "-//W3C//DTD SVG 1.1//EN"
 "http://www.w3.org/Graphics/SVG/1.1/DTD/svg11.dtd">
<!-- Generated by graphviz version 2.36.0 (20140111.2315)
 -->
<!-- Title: Ra::Engine::ComponentMessenger::CallbackTypes&lt; T &gt; Pages: 1 -->
<svg width="554pt" height="216pt"
 viewBox="0.00 0.00 554.00 216.00" xmlns="http://www.w3.org/2000/svg" xmlns:xlink="http://www.w3.org/1999/xlink">
<g id="graph0" class="graph" transform="scale(1 1) rotate(0) translate(4 212)">
<title>Ra::Engine::ComponentMessenger::CallbackTypes&lt; T &gt;</title>
<polygon fill="white" stroke="none" points="-4,4 -4,-212 550,-212 550,4 -4,4"/>
<!-- Node1 -->
<g id="node1" class="node"><title>Node1</title>
<polygon fill="#bfbfbf" stroke="black" points="188,-139 188,-207 358,-207 358,-139 188,-139"/>
<text text-anchor="start" x="196" y="-195" font-family="Helvetica,sans-Serif" font-size="10.00">Ra::Engine::ComponentMessenger</text>
<text text-anchor="middle" x="273" y="-184" font-family="Helvetica,sans-Serif" font-size="10.00">::CallbackTypes&lt; T &gt;</text>
<polyline fill="none" stroke="black" points="188,-177 358,-177 "/>
<text text-anchor="middle" x="273" y="-165" font-family="Helvetica,sans-Serif" font-size="10.00"> </text>
<polyline fill="none" stroke="black" points="188,-158 358,-158 "/>
<text text-anchor="start" x="196" y="-146" font-family="Helvetica,sans-Serif" font-size="10.00">+ getHelper()</text>
</g>
<!-- Node2 -->
<g id="node2" class="node"><title>Node2</title>
<g id="a_node2"><a xlink:href="structRa_1_1Engine_1_1ComponentMessenger_1_1CallbackTypes.html" target="_top" xlink:title="{Ra::Engine::ComponentMessenger\l::CallbackTypes\&lt; Ra::Core\l::Index \&gt;\n||+ getHelper()\l}">
<polygon fill="white" stroke="black" points="0,-0.5 0,-79.5 170,-79.5 170,-0.5 0,-0.5"/>
<text text-anchor="start" x="8" y="-67.5" font-family="Helvetica,sans-Serif" font-size="10.00">Ra::Engine::ComponentMessenger</text>
<text text-anchor="start" x="8" y="-56.5" font-family="Helvetica,sans-Serif" font-size="10.00">::CallbackTypes&lt; Ra::Core</text>
<text text-anchor="middle" x="85" y="-45.5" font-family="Helvetica,sans-Serif" font-size="10.00">::Index &gt;</text>
<polyline fill="none" stroke="black" points="0,-38.5 170,-38.5 "/>
<text text-anchor="middle" x="85" y="-26.5" font-family="Helvetica,sans-Serif" font-size="10.00"> </text>
<polyline fill="none" stroke="black" points="0,-19.5 170,-19.5 "/>
<text text-anchor="start" x="8" y="-7.5" font-family="Helvetica,sans-Serif" font-size="10.00">+ getHelper()</text>
</a>
</g>
</g>
<!-- Node1&#45;&gt;Node2 -->
<g id="edge1" class="edge"><title>Node1&#45;&gt;Node2</title>
<path fill="none" stroke="orange" d="M199.58,-133.787C192.163,-129.344 184.848,-124.71 178,-120 160.545,-107.994 142.537,-93.3138 127.07,-79.8799"/>
<polygon fill="orange" stroke="orange" points="197.916,-136.869 208.312,-138.909 201.458,-130.831 197.916,-136.869"/>
<text text-anchor="middle" x="223.5" y="-106.5" font-family="Helvetica,sans-Serif" font-size="10.00"> &lt; Ra::Core::Index &gt;</text>
</g>
<!-- Node3 -->
<g id="node3" class="node"><title>Node3</title>
<g id="a_node3"><a xlink:href="structRa_1_1Engine_1_1ComponentMessenger_1_1CallbackTypes.html" target="_top" xlink:title="{Ra::Engine::ComponentMessenger\l::CallbackTypes\&lt; Ra::Core\l::Vector3Array \&gt;\n||+ getHelper()\l}">
<polygon fill="white" stroke="black" points="188,-0.5 188,-79.5 358,-79.5 358,-0.5 188,-0.5"/>
<text text-anchor="start" x="196" y="-67.5" font-family="Helvetica,sans-Serif" font-size="10.00">Ra::Engine::ComponentMessenger</text>
<text text-anchor="start" x="196" y="-56.5" font-family="Helvetica,sans-Serif" font-size="10.00">::CallbackTypes&lt; Ra::Core</text>
<text text-anchor="middle" x="273" y="-45.5" font-family="Helvetica,sans-Serif" font-size="10.00">::Vector3Array &gt;</text>
<polyline fill="none" stroke="black" points="188,-38.5 358,-38.5 "/>
<text text-anchor="middle" x="273" y="-26.5" font-family="Helvetica,sans-Serif" font-size="10.00"> </text>
<polyline fill="none" stroke="black" points="188,-19.5 358,-19.5 "/>
<text text-anchor="start" x="196" y="-7.5" font-family="Helvetica,sans-Serif" font-size="10.00">+ getHelper()</text>
</a>
</g>
</g>
<!-- Node1&#45;&gt;Node3 -->
<g id="edge2" class="edge"><title>Node1&#45;&gt;Node3</title>
<path fill="none" stroke="orange" d="M273,-128.84C273,-112.958 273,-95.0859 273,-79.6289"/>
<polygon fill="orange" stroke="orange" points="269.5,-128.943 273,-138.943 276.5,-128.943 269.5,-128.943"/>
<text text-anchor="middle" x="335" y="-106.5" font-family="Helvetica,sans-Serif" font-size="10.00"> &lt; Ra::Core::Vector3Array &gt;</text>
</g>
<!-- Node4 -->
<g id="node4" class="node"><title>Node4</title>
<g id="a_node4"><a xlink:href="structRa_1_1Engine_1_1ComponentMessenger_1_1CallbackTypes.html" target="_top" xlink:title="{Ra::Engine::ComponentMessenger\l::CallbackTypes\&lt; Ra::Core\l::Animation::Skeleton \&gt;\n||+ getHelper()\l}">
<polygon fill="white" stroke="black" points="376,-0.5 376,-79.5 546,-79.5 546,-0.5 376,-0.5"/>
<text text-anchor="start" x="384" y="-67.5" font-family="Helvetica,sans-Serif" font-size="10.00">Ra::Engine::ComponentMessenger</text>
<text text-anchor="start" x="384" y="-56.5" font-family="Helvetica,sans-Serif" font-size="10.00">::CallbackTypes&lt; Ra::Core</text>
<text text-anchor="middle" x="461" y="-45.5" font-family="Helvetica,sans-Serif" font-size="10.00">::Animation::Skeleton &gt;</text>
<polyline fill="none" stroke="black" points="376,-38.5 546,-38.5 "/>
<text text-anchor="middle" x="461" y="-26.5" font-family="Helvetica,sans-Serif" font-size="10.00"> </text>
<polyline fill="none" stroke="black" points="376,-19.5 546,-19.5 "/>
<text text-anchor="start" x="384" y="-7.5" font-family="Helvetica,sans-Serif" font-size="10.00">+ getHelper()</text>
</a>
</g>
</g>
<!-- Node1&#45;&gt;Node4 -->
<g id="edge3" class="edge"><title>Node1&#45;&gt;Node4</title>
<path fill="none" stroke="orange" d="M367.249,-140.606C379.167,-134.688 390.757,-127.845 401,-120 415.357,-109.005 428.03,-93.739 437.986,-79.5557"/>
<polygon fill="orange" stroke="orange" points="365.623,-137.503 358.088,-144.951 368.624,-143.827 365.623,-137.503"/>
<text text-anchor="start" x="422" y="-112" font-family="Helvetica,sans-Serif" font-size="10.00"> &lt; Ra::Core::Animation</text>
<text text-anchor="middle" x="473" y="-101" font-family="Helvetica,sans-Serif" font-size="10.00">::Skeleton &gt;</text>
</g>
</g>
</svg>
