<?xml version="1.0" encoding="UTF-8" standalone="no"?>
<!DOCTYPE svg PUBLIC "-//W3C//DTD SVG 1.1//EN"
 "http://www.w3.org/Graphics/SVG/1.1/DTD/svg11.dtd">
<!-- Generated by graphviz version 2.36.0 (20140111.2315)
 -->
<!-- Title: Ra::Engine::ItemEntry::isEntityNode Pages: 1 -->
<svg width="436pt" height="38pt"
 viewBox="0.00 0.00 436.00 38.00" xmlns="http://www.w3.org/2000/svg" xmlns:xlink="http://www.w3.org/1999/xlink">
<g id="graph0" class="graph" transform="scale(1 1) rotate(0) translate(4 34)">
<title>Ra::Engine::ItemEntry::isEntityNode</title>
<polygon fill="white" stroke="none" points="-4,4 -4,-34 432,-34 432,4 -4,4"/>
<!-- Node1 -->
<g id="node1" class="node"><title>Node1</title>
<polygon fill="#bfbfbf" stroke="black" points="0,-0 0,-30 114,-30 114,-0 0,-0"/>
<text text-anchor="start" x="8" y="-18" font-family="Helvetica,sans-Serif" font-size="10.00">Ra::Engine::ItemEntry</text>
<text text-anchor="middle" x="57" y="-7" font-family="Helvetica,sans-Serif" font-size="10.00">::isEntityNode</text>
</g>
<!-- Node2 -->
<g id="node2" class="node"><title>Node2</title>
<g id="a_node2"><a xlink:href="structRa_1_1Engine_1_1ItemEntry.html#a1fb9fdd74413a1fa5878f53c1cfcf8fd" target="_top" xlink:title="Debug checks. ">
<polygon fill="white" stroke="black" points="150,-0 150,-30 264,-30 264,-0 150,-0"/>
<text text-anchor="start" x="158" y="-18" font-family="Helvetica,sans-Serif" font-size="10.00">Ra::Engine::ItemEntry</text>
<text text-anchor="middle" x="207" y="-7" font-family="Helvetica,sans-Serif" font-size="10.00">::checkConsistency</text>
</a>
</g>
</g>
<!-- Node1&#45;&gt;Node2 -->
<g id="edge1" class="edge"><title>Node1&#45;&gt;Node2</title>
<path fill="none" stroke="midnightblue" d="M114.375,-15C122.621,-15 131.178,-15 139.602,-15"/>
<polygon fill="midnightblue" stroke="midnightblue" points="139.782,-18.5001 149.782,-15 139.782,-11.5001 139.782,-18.5001"/>
</g>
<!-- Node3 -->
<g id="node3" class="node"><title>Node3</title>
<g id="a_node3"><a xlink:href="classRa_1_1Core_1_1Index.html#a7283e7fb9cc134e04ef3cde8877f8fe2" target="_top" xlink:title="INVALID. ">
<polygon fill="white" stroke="black" points="300,-5.5 300,-24.5 428,-24.5 428,-5.5 300,-5.5"/>
<text text-anchor="middle" x="364" y="-12.5" font-family="Helvetica,sans-Serif" font-size="10.00">Ra::Core::Index::isInvalid</text>
</a>
</g>
</g>
<!-- Node2&#45;&gt;Node3 -->
<g id="edge2" class="edge"><title>Node2&#45;&gt;Node3</title>
<path fill="none" stroke="midnightblue" d="M264.397,-15C272.582,-15 281.106,-15 289.566,-15"/>
<polygon fill="midnightblue" stroke="midnightblue" points="289.825,-18.5001 299.825,-15 289.825,-11.5001 289.825,-18.5001"/>
</g>
</g>
</svg>
