<?xml version="1.0" encoding="UTF-8" standalone="no"?>
<!DOCTYPE svg PUBLIC "-//W3C//DTD SVG 1.1//EN"
 "http://www.w3.org/Graphics/SVG/1.1/DTD/svg11.dtd">
<!-- Generated by graphviz version 2.36.0 (20140111.2315)
 -->
<!-- Title: Ra::Core::DistanceQueries::LineToSegmentOutput Pages: 1 -->
<svg width="207pt" height="206pt"
 viewBox="0.00 0.00 207.00 206.00" xmlns="http://www.w3.org/2000/svg" xmlns:xlink="http://www.w3.org/1999/xlink">
<g id="graph0" class="graph" transform="scale(1 1) rotate(0) translate(4 202)">
<title>Ra::Core::DistanceQueries::LineToSegmentOutput</title>
<polygon fill="white" stroke="none" points="-4,4 -4,-202 203,-202 203,4 -4,4"/>
<!-- Node1 -->
<g id="node1" class="node"><title>Node1</title>
<polygon fill="#bfbfbf" stroke="black" points="34.5,-1 34.5,-69 169.5,-69 169.5,-1 34.5,-1"/>
<text text-anchor="start" x="42.5" y="-57" font-family="Helvetica,sans-Serif" font-size="10.00">Ra::Core::DistanceQueries</text>
<text text-anchor="middle" x="102" y="-46" font-family="Helvetica,sans-Serif" font-size="10.00">::LineToSegmentOutput</text>
<polyline fill="none" stroke="black" points="34.5,-39 169.5,-39 "/>
<text text-anchor="middle" x="102" y="-27" font-family="Helvetica,sans-Serif" font-size="10.00"> </text>
<polyline fill="none" stroke="black" points="34.5,-20 169.5,-20 "/>
<text text-anchor="middle" x="102" y="-8" font-family="Helvetica,sans-Serif" font-size="10.00"> </text>
</g>
<!-- Node2 -->
<g id="node2" class="node"><title>Node2</title>
<polygon fill="white" stroke="#bfbfbf" points="0,-140.5 0,-197.5 112,-197.5 112,-140.5 0,-140.5"/>
<text text-anchor="middle" x="56" y="-185.5" font-family="Helvetica,sans-Serif" font-size="10.00">Matrix&lt; Scalar, 3, 1 &gt;</text>
<polyline fill="none" stroke="#bfbfbf" points="0,-178.5 112,-178.5 "/>
<text text-anchor="middle" x="56" y="-166.5" font-family="Helvetica,sans-Serif" font-size="10.00"> </text>
<polyline fill="none" stroke="#bfbfbf" points="0,-159.5 112,-159.5 "/>
<text text-anchor="middle" x="56" y="-147.5" font-family="Helvetica,sans-Serif" font-size="10.00"> </text>
</g>
<!-- Node2&#45;&gt;Node1 -->
<g id="edge1" class="edge"><title>Node2&#45;&gt;Node1</title>
<path fill="none" stroke="#404040" d="M54.2238,-140.489C54.1318,-124.652 55.6318,-104.652 62,-88 63.0858,-85.1609 64.3799,-82.3486 65.8271,-79.5884"/>
<polygon fill="none" stroke="#404040" points="65.86,-79.5337 65.5289,-72.3302 72.0509,-69.254 72.3821,-76.4575 65.86,-79.5337"/>
<text text-anchor="middle" x="94" y="-102.5" font-family="Helvetica,sans-Serif" font-size="10.00"> +closestPoint</text>
</g>
<!-- Node3 -->
<g id="node3" class="node"><title>Node3</title>
<polygon fill="white" stroke="#bfbfbf" points="130.5,-140.5 130.5,-197.5 165.5,-197.5 165.5,-140.5 130.5,-140.5"/>
<text text-anchor="middle" x="148" y="-185.5" font-family="Helvetica,sans-Serif" font-size="10.00">float</text>
<polyline fill="none" stroke="#bfbfbf" points="130.5,-178.5 165.5,-178.5 "/>
<text text-anchor="middle" x="148" y="-166.5" font-family="Helvetica,sans-Serif" font-size="10.00"> </text>
<polyline fill="none" stroke="#bfbfbf" points="130.5,-159.5 165.5,-159.5 "/>
<text text-anchor="middle" x="148" y="-147.5" font-family="Helvetica,sans-Serif" font-size="10.00"> </text>
</g>
<!-- Node3&#45;&gt;Node1 -->
<g id="edge2" class="edge"><title>Node3&#45;&gt;Node1</title>
<path fill="none" stroke="#404040" d="M141.562,-140.25C137.657,-124.693 132.23,-105.047 126,-88 125.085,-85.496 124.098,-82.9462 123.065,-80.3875"/>
<polygon fill="none" stroke="#404040" points="123.015,-80.269 116.984,-76.3151 118.314,-69.2277 124.345,-73.1816 123.015,-80.269"/>
<text text-anchor="middle" x="168" y="-113.5" font-family="Helvetica,sans-Serif" font-size="10.00"> +sqrDistance</text>
<text text-anchor="middle" x="168" y="-102.5" font-family="Helvetica,sans-Serif" font-size="10.00">+distance</text>
<text text-anchor="middle" x="168" y="-91.5" font-family="Helvetica,sans-Serif" font-size="10.00">+parameter</text>
</g>
</g>
</svg>
