<?xml version="1.0" encoding="UTF-8" standalone="no"?>
<!DOCTYPE svg PUBLIC "-//W3C//DTD SVG 1.1//EN"
 "http://www.w3.org/Graphics/SVG/1.1/DTD/svg11.dtd">
<!-- Generated by graphviz version 2.36.0 (20140111.2315)
 -->
<!-- Title: DummyPlugin::DummyData Pages: 1 -->
<svg width="148pt" height="182pt"
 viewBox="0.00 0.00 148.00 182.00" xmlns="http://www.w3.org/2000/svg" xmlns:xlink="http://www.w3.org/1999/xlink">
<g id="graph0" class="graph" transform="scale(1 1) rotate(0) translate(4 178)">
<title>DummyPlugin::DummyData</title>
<polygon fill="white" stroke="none" points="-4,4 -4,-178 144,-178 144,4 -4,4"/>
<!-- Node1 -->
<g id="node1" class="node"><title>Node1</title>
<polygon fill="#bfbfbf" stroke="black" points="0,-0.5 0,-57.5 140,-57.5 140,-0.5 0,-0.5"/>
<text text-anchor="middle" x="70" y="-45.5" font-family="Helvetica,sans-Serif" font-size="10.00">DummyPlugin::DummyData</text>
<polyline fill="none" stroke="black" points="0,-38.5 140,-38.5 "/>
<text text-anchor="middle" x="70" y="-26.5" font-family="Helvetica,sans-Serif" font-size="10.00"> </text>
<polyline fill="none" stroke="black" points="0,-19.5 140,-19.5 "/>
<text text-anchor="middle" x="70" y="-7.5" font-family="Helvetica,sans-Serif" font-size="10.00"> </text>
</g>
<!-- Node2 -->
<g id="node2" class="node"><title>Node2</title>
<polygon fill="white" stroke="#bfbfbf" points="55.5,-116.5 55.5,-173.5 84.5,-173.5 84.5,-116.5 55.5,-116.5"/>
<text text-anchor="middle" x="70" y="-161.5" font-family="Helvetica,sans-Serif" font-size="10.00">int</text>
<polyline fill="none" stroke="#bfbfbf" points="55.5,-154.5 84.5,-154.5 "/>
<text text-anchor="middle" x="70" y="-142.5" font-family="Helvetica,sans-Serif" font-size="10.00"> </text>
<polyline fill="none" stroke="#bfbfbf" points="55.5,-135.5 84.5,-135.5 "/>
<text text-anchor="middle" x="70" y="-123.5" font-family="Helvetica,sans-Serif" font-size="10.00"> </text>
</g>
<!-- Node2&#45;&gt;Node1 -->
<g id="edge1" class="edge"><title>Node2&#45;&gt;Node1</title>
<path fill="none" stroke="#404040" d="M70,-116.404C70,-102.504 70,-85.3915 70,-70.073"/>
<polygon fill="none" stroke="#404040" points="70.0001,-69.7372 66,-63.7372 70,-57.7372 74,-63.7372 70.0001,-69.7372"/>
<text text-anchor="middle" x="81.5" y="-90" font-family="Helvetica,sans-Serif" font-size="10.00"> +bar</text>
<text text-anchor="middle" x="81.5" y="-79" font-family="Helvetica,sans-Serif" font-size="10.00">+foo</text>
</g>
</g>
</svg>
