<?xml version="1.0" encoding="UTF-8" standalone="no"?>
<!DOCTYPE svg PUBLIC "-//W3C//DTD SVG 1.1//EN"
 "http://www.w3.org/Graphics/SVG/1.1/DTD/svg11.dtd">
<!-- Generated by graphviz version 2.36.0 (20140111.2315)
 -->
<!-- Title: OpenMesh::vector_traits&lt; Ra::Core::Vector3 &gt; Pages: 1 -->
<svg width="130pt" height="184pt"
 viewBox="0.00 0.00 130.00 184.00" xmlns="http://www.w3.org/2000/svg" xmlns:xlink="http://www.w3.org/1999/xlink">
<g id="graph0" class="graph" transform="scale(1 1) rotate(0) translate(4 180)">
<title>OpenMesh::vector_traits&lt; Ra::Core::Vector3 &gt;</title>
<polygon fill="white" stroke="none" points="-4,4 -4,-180 126,-180 126,4 -4,4"/>
<!-- Node1 -->
<g id="node1" class="node"><title>Node1</title>
<polygon fill="#bfbfbf" stroke="black" points="-1,-1 -1,-69 123,-69 123,-1 -1,-1"/>
<text text-anchor="start" x="7" y="-57" font-family="Helvetica,sans-Serif" font-size="10.00">OpenMesh::vector_traits</text>
<text text-anchor="middle" x="61" y="-46" font-family="Helvetica,sans-Serif" font-size="10.00">&lt; Ra::Core::Vector3 &gt;</text>
<polyline fill="none" stroke="black" points="-1,-39 123,-39 "/>
<text text-anchor="middle" x="61" y="-27" font-family="Helvetica,sans-Serif" font-size="10.00"> </text>
<polyline fill="none" stroke="black" points="-1,-20 123,-20 "/>
<text text-anchor="start" x="7" y="-8" font-family="Helvetica,sans-Serif" font-size="10.00">+ size()</text>
</g>
<!-- Node2 -->
<g id="node2" class="node"><title>Node2</title>
<polygon fill="white" stroke="#bfbfbf" points="12.5,-118.5 12.5,-175.5 109.5,-175.5 109.5,-118.5 12.5,-118.5"/>
<text text-anchor="middle" x="61" y="-163.5" font-family="Helvetica,sans-Serif" font-size="10.00">static const size_t</text>
<polyline fill="none" stroke="#bfbfbf" points="12.5,-156.5 109.5,-156.5 "/>
<text text-anchor="middle" x="61" y="-144.5" font-family="Helvetica,sans-Serif" font-size="10.00"> </text>
<polyline fill="none" stroke="#bfbfbf" points="12.5,-137.5 109.5,-137.5 "/>
<text text-anchor="middle" x="61" y="-125.5" font-family="Helvetica,sans-Serif" font-size="10.00"> </text>
</g>
<!-- Node2&#45;&gt;Node1 -->
<g id="edge1" class="edge"><title>Node2&#45;&gt;Node1</title>
<path fill="none" stroke="#404040" d="M61,-118.242C61,-107.073 61,-93.8972 61,-81.4036"/>
<polygon fill="none" stroke="#404040" points="61.0001,-81.2368 57,-75.2368 61,-69.2368 65,-75.2367 61.0001,-81.2368"/>
<text text-anchor="middle" x="77.5" y="-91.5" font-family="Helvetica,sans-Serif" font-size="10.00"> +size_</text>
</g>
</g>
</svg>
