<?xml version="1.0" encoding="UTF-8" standalone="no"?>
<!DOCTYPE svg PUBLIC "-//W3C//DTD SVG 1.1//EN"
 "http://www.w3.org/Graphics/SVG/1.1/DTD/svg11.dtd">
<!-- Generated by graphviz version 2.36.0 (20140111.2315)
 -->
<!-- Title: Ra::Core::MeshUtils::RayCastResult Pages: 1 -->
<svg width="161pt" height="216pt"
 viewBox="0.00 0.00 161.00 216.00" xmlns="http://www.w3.org/2000/svg" xmlns:xlink="http://www.w3.org/1999/xlink">
<g id="graph0" class="graph" transform="scale(1 1) rotate(0) translate(4 212)">
<title>Ra::Core::MeshUtils::RayCastResult</title>
<polygon fill="white" stroke="none" points="-4,4 -4,-212 157,-212 157,4 -4,4"/>
<!-- Node1 -->
<g id="node1" class="node"><title>Node1</title>
<polygon fill="#bfbfbf" stroke="black" points="-0.5,-1 -0.5,-69 106.5,-69 106.5,-1 -0.5,-1"/>
<text text-anchor="start" x="7.5" y="-57" font-family="Helvetica,sans-Serif" font-size="10.00">Ra::Core::MeshUtils</text>
<text text-anchor="middle" x="53" y="-46" font-family="Helvetica,sans-Serif" font-size="10.00">::RayCastResult</text>
<polyline fill="none" stroke="black" points="-0.5,-39 106.5,-39 "/>
<text text-anchor="middle" x="53" y="-27" font-family="Helvetica,sans-Serif" font-size="10.00"> </text>
<polyline fill="none" stroke="black" points="-0.5,-20 106.5,-20 "/>
<text text-anchor="middle" x="53" y="-8" font-family="Helvetica,sans-Serif" font-size="10.00"> </text>
</g>
<!-- Node2 -->
<g id="node2" class="node"><title>Node2</title>
<polygon fill="white" stroke="#bfbfbf" points="10.5,-150.5 10.5,-207.5 45.5,-207.5 45.5,-150.5 10.5,-150.5"/>
<text text-anchor="middle" x="28" y="-195.5" font-family="Helvetica,sans-Serif" font-size="10.00">float</text>
<polyline fill="none" stroke="#bfbfbf" points="10.5,-188.5 45.5,-188.5 "/>
<text text-anchor="middle" x="28" y="-176.5" font-family="Helvetica,sans-Serif" font-size="10.00"> </text>
<polyline fill="none" stroke="#bfbfbf" points="10.5,-169.5 45.5,-169.5 "/>
<text text-anchor="middle" x="28" y="-157.5" font-family="Helvetica,sans-Serif" font-size="10.00"> </text>
</g>
<!-- Node2&#45;&gt;Node1 -->
<g id="edge1" class="edge"><title>Node2&#45;&gt;Node1</title>
<path fill="none" stroke="#404040" d="M25.8414,-150.49C25.1043,-132.496 25.4094,-108.594 30,-88 30.5453,-85.5536 31.2087,-83.081 31.9614,-80.6114"/>
<polygon fill="none" stroke="#404040" points="32.0037,-80.4924 30.2467,-73.4986 36.0267,-69.1868 37.7838,-76.1805 32.0037,-80.4924"/>
<text text-anchor="middle" x="43" y="-107.5" font-family="Helvetica,sans-Serif" font-size="10.00"> +m_t</text>
</g>
<!-- Node3 -->
<g id="node3" class="node"><title>Node3</title>
<polygon fill="white" stroke="#bfbfbf" points="63.5,-150.5 63.5,-207.5 92.5,-207.5 92.5,-150.5 63.5,-150.5"/>
<text text-anchor="middle" x="78" y="-195.5" font-family="Helvetica,sans-Serif" font-size="10.00">int</text>
<polyline fill="none" stroke="#bfbfbf" points="63.5,-188.5 92.5,-188.5 "/>
<text text-anchor="middle" x="78" y="-176.5" font-family="Helvetica,sans-Serif" font-size="10.00"> </text>
<polyline fill="none" stroke="#bfbfbf" points="63.5,-169.5 92.5,-169.5 "/>
<text text-anchor="middle" x="78" y="-157.5" font-family="Helvetica,sans-Serif" font-size="10.00"> </text>
</g>
<!-- Node3&#45;&gt;Node1 -->
<g id="edge2" class="edge"><title>Node3&#45;&gt;Node1</title>
<path fill="none" stroke="#404040" d="M73.1204,-150.284C69.6674,-130.671 64.9599,-103.932 60.9664,-81.2491"/>
<polygon fill="none" stroke="#404040" points="60.9145,-80.9541 55.9347,-75.7386 58.8338,-69.1359 63.8136,-74.3514 60.9145,-80.9541"/>
<text text-anchor="middle" x="111" y="-124" font-family="Helvetica,sans-Serif" font-size="10.00"> +m_nearestVertex</text>
<text text-anchor="middle" x="111" y="-113" font-family="Helvetica,sans-Serif" font-size="10.00">+m_edgeVertex0</text>
<text text-anchor="middle" x="111" y="-102" font-family="Helvetica,sans-Serif" font-size="10.00">+m_edgeVertex1</text>
<text text-anchor="middle" x="111" y="-91" font-family="Helvetica,sans-Serif" font-size="10.00">+m_hitTriangle</text>
</g>
</g>
</svg>
