<?xml version="1.0" encoding="UTF-8" standalone="no"?>
<!DOCTYPE svg PUBLIC "-//W3C//DTD SVG 1.1//EN"
 "http://www.w3.org/Graphics/SVG/1.1/DTD/svg11.dtd">
<!-- Generated by graphviz version 2.36.0 (20140111.2315)
 -->
<!-- Title: Super4PCS::TriangleKdTree&lt; _Index &gt;::QueryNode Pages: 1 -->
<svg width="148pt" height="194pt"
 viewBox="0.00 0.00 148.00 194.00" xmlns="http://www.w3.org/2000/svg" xmlns:xlink="http://www.w3.org/1999/xlink">
<g id="graph0" class="graph" transform="scale(1 1) rotate(0) translate(4 190)">
<title>Super4PCS::TriangleKdTree&lt; _Index &gt;::QueryNode</title>
<polygon fill="white" stroke="none" points="-4,4 -4,-190 144,-190 144,4 -4,4"/>
<!-- Node1 -->
<g id="node1" class="node"><title>Node1</title>
<polygon fill="#bfbfbf" stroke="black" points="0,-0.5 0,-79.5 140,-79.5 140,-0.5 0,-0.5"/>
<text text-anchor="start" x="8" y="-67.5" font-family="Helvetica,sans-Serif" font-size="10.00">Super4PCS::TriangleKdTree</text>
<text text-anchor="middle" x="70" y="-56.5" font-family="Helvetica,sans-Serif" font-size="10.00">&lt; _Index &gt;::QueryNode</text>
<polyline fill="none" stroke="black" points="0,-49.5 140,-49.5 "/>
<text text-anchor="middle" x="70" y="-37.5" font-family="Helvetica,sans-Serif" font-size="10.00"> </text>
<polyline fill="none" stroke="black" points="0,-30.5 140,-30.5 "/>
<text text-anchor="start" x="8" y="-18.5" font-family="Helvetica,sans-Serif" font-size="10.00">+ QueryNode()</text>
<text text-anchor="start" x="8" y="-7.5" font-family="Helvetica,sans-Serif" font-size="10.00">+ QueryNode()</text>
</g>
<!-- Node2 -->
<g id="node2" class="node"><title>Node2</title>
<polygon fill="white" stroke="#bfbfbf" points="27.5,-128.5 27.5,-185.5 62.5,-185.5 62.5,-128.5 27.5,-128.5"/>
<text text-anchor="middle" x="45" y="-173.5" font-family="Helvetica,sans-Serif" font-size="10.00">float</text>
<polyline fill="none" stroke="#bfbfbf" points="27.5,-166.5 62.5,-166.5 "/>
<text text-anchor="middle" x="45" y="-154.5" font-family="Helvetica,sans-Serif" font-size="10.00"> </text>
<polyline fill="none" stroke="#bfbfbf" points="27.5,-147.5 62.5,-147.5 "/>
<text text-anchor="middle" x="45" y="-135.5" font-family="Helvetica,sans-Serif" font-size="10.00"> </text>
</g>
<!-- Node2&#45;&gt;Node1 -->
<g id="edge1" class="edge"><title>Node2&#45;&gt;Node1</title>
<path fill="none" stroke="#404040" d="M47.9308,-128.41C49.1888,-118.737 50.8682,-107.835 53,-98 53.4638,-95.8601 53.9675,-93.6837 54.5011,-91.4915"/>
<polygon fill="none" stroke="#404040" points="54.5403,-91.3417 52.1939,-84.523 57.5856,-79.7345 59.932,-86.5532 54.5403,-91.3417"/>
<text text-anchor="middle" x="63" y="-101.5" font-family="Helvetica,sans-Serif" font-size="10.00"> +sq</text>
</g>
<!-- Node3 -->
<g id="node3" class="node"><title>Node3</title>
<polygon fill="white" stroke="#bfbfbf" points="80.5,-128.5 80.5,-185.5 109.5,-185.5 109.5,-128.5 80.5,-128.5"/>
<text text-anchor="middle" x="95" y="-173.5" font-family="Helvetica,sans-Serif" font-size="10.00">int</text>
<polyline fill="none" stroke="#bfbfbf" points="80.5,-166.5 109.5,-166.5 "/>
<text text-anchor="middle" x="95" y="-154.5" font-family="Helvetica,sans-Serif" font-size="10.00"> </text>
<polyline fill="none" stroke="#bfbfbf" points="80.5,-147.5 109.5,-147.5 "/>
<text text-anchor="middle" x="95" y="-135.5" font-family="Helvetica,sans-Serif" font-size="10.00"> </text>
</g>
<!-- Node3&#45;&gt;Node1 -->
<g id="edge2" class="edge"><title>Node3&#45;&gt;Node1</title>
<path fill="none" stroke="#404040" d="M89.0119,-128.455C86.6036,-117.376 83.7478,-104.24 80.9914,-91.5604"/>
<polygon fill="none" stroke="#404040" points="80.9461,-91.3519 75.7628,-86.3386 78.3969,-79.6258 83.5802,-84.6391 80.9461,-91.3519"/>
<text text-anchor="middle" x="103.5" y="-101.5" font-family="Helvetica,sans-Serif" font-size="10.00"> +nodeId</text>
</g>
</g>
</svg>
