<?xml version="1.0" encoding="UTF-8" standalone="no"?>
<!DOCTYPE svg PUBLIC "-//W3C//DTD SVG 1.1//EN"
 "http://www.w3.org/Graphics/SVG/1.1/DTD/svg11.dtd">
<!-- Generated by graphviz version 2.36.0 (20140111.2315)
 -->
<!-- Title: Ra::Engine::FrameInfo Pages: 1 -->
<svg width="149pt" height="172pt"
 viewBox="0.00 0.00 149.00 172.00" xmlns="http://www.w3.org/2000/svg" xmlns:xlink="http://www.w3.org/1999/xlink">
<g id="graph0" class="graph" transform="scale(1 1) rotate(0) translate(4 168)">
<title>Ra::Engine::FrameInfo</title>
<polygon fill="white" stroke="none" points="-4,4 -4,-168 145,-168 145,4 -4,4"/>
<!-- Node1 -->
<g id="node1" class="node"><title>Node1</title>
<polygon fill="#bfbfbf" stroke="black" points="-1,-0.5 -1,-57.5 115,-57.5 115,-0.5 -1,-0.5"/>
<text text-anchor="middle" x="57" y="-45.5" font-family="Helvetica,sans-Serif" font-size="10.00">Ra::Engine::FrameInfo</text>
<polyline fill="none" stroke="black" points="-1,-38.5 115,-38.5 "/>
<text text-anchor="middle" x="57" y="-26.5" font-family="Helvetica,sans-Serif" font-size="10.00"> </text>
<polyline fill="none" stroke="black" points="-1,-19.5 115,-19.5 "/>
<text text-anchor="middle" x="57" y="-7.5" font-family="Helvetica,sans-Serif" font-size="10.00"> </text>
</g>
<!-- Node2 -->
<g id="node2" class="node"><title>Node2</title>
<polygon fill="white" stroke="#bfbfbf" points="12.5,-106.5 12.5,-163.5 47.5,-163.5 47.5,-106.5 12.5,-106.5"/>
<text text-anchor="middle" x="30" y="-151.5" font-family="Helvetica,sans-Serif" font-size="10.00">float</text>
<polyline fill="none" stroke="#bfbfbf" points="12.5,-144.5 47.5,-144.5 "/>
<text text-anchor="middle" x="30" y="-132.5" font-family="Helvetica,sans-Serif" font-size="10.00"> </text>
<polyline fill="none" stroke="#bfbfbf" points="12.5,-125.5 47.5,-125.5 "/>
<text text-anchor="middle" x="30" y="-113.5" font-family="Helvetica,sans-Serif" font-size="10.00"> </text>
</g>
<!-- Node2&#45;&gt;Node1 -->
<g id="edge1" class="edge"><title>Node2&#45;&gt;Node1</title>
<path fill="none" stroke="#404040" d="M27.7139,-106.461C27.6227,-96.6929 28.3541,-85.7172 31,-76 31.659,-73.5797 32.4739,-71.1517 33.4038,-68.7452"/>
<polygon fill="none" stroke="#404040" points="33.4426,-68.6603 32.305,-61.5395 38.4406,-57.7506 39.5781,-64.8714 33.4426,-68.6603"/>
<text text-anchor="middle" x="46.5" y="-79.5" font-family="Helvetica,sans-Serif" font-size="10.00"> +m_dt</text>
</g>
<!-- Node3 -->
<g id="node3" class="node"><title>Node3</title>
<polygon fill="white" stroke="#bfbfbf" points="69.5,-106.5 69.5,-163.5 98.5,-163.5 98.5,-106.5 69.5,-106.5"/>
<text text-anchor="middle" x="84" y="-151.5" font-family="Helvetica,sans-Serif" font-size="10.00">int</text>
<polyline fill="none" stroke="#bfbfbf" points="69.5,-144.5 98.5,-144.5 "/>
<text text-anchor="middle" x="84" y="-132.5" font-family="Helvetica,sans-Serif" font-size="10.00"> </text>
<polyline fill="none" stroke="#bfbfbf" points="69.5,-125.5 98.5,-125.5 "/>
<text text-anchor="middle" x="84" y="-113.5" font-family="Helvetica,sans-Serif" font-size="10.00"> </text>
</g>
<!-- Node3&#45;&gt;Node1 -->
<g id="edge2" class="edge"><title>Node3&#45;&gt;Node1</title>
<path fill="none" stroke="#404040" d="M76.8354,-106.403C73.9061,-95.1198 70.4622,-81.8542 67.2734,-69.5714"/>
<polygon fill="none" stroke="#404040" points="67.2136,-69.341 61.8342,-64.5387 64.1981,-57.726 69.5775,-62.5283 67.2136,-69.341"/>
<text text-anchor="middle" x="106" y="-79.5" font-family="Helvetica,sans-Serif" font-size="10.00"> +m_numFrame</text>
</g>
</g>
</svg>
