<?xml version="1.0" encoding="UTF-8" standalone="no"?>
<!DOCTYPE svg PUBLIC "-//W3C//DTD SVG 1.1//EN"
 "http://www.w3.org/Graphics/SVG/1.1/DTD/svg11.dtd">
<!-- Generated by graphviz version 2.36.0 (20140111.2315)
 -->
<!-- Title: /home/travis/build/STORM&#45;IRIT/Radium&#45;Engine/src/Engine/Managers/SystemDisplay/SystemDisplay.hpp Pages: 1 -->
<svg width="1778pt" height="546pt"
 viewBox="0.00 0.00 1778.00 546.00" xmlns="http://www.w3.org/2000/svg" xmlns:xlink="http://www.w3.org/1999/xlink">
<g id="graph0" class="graph" transform="scale(1 1) rotate(0) translate(4 542)">
<title>/home/travis/build/STORM&#45;IRIT/Radium&#45;Engine/src/Engine/Managers/SystemDisplay/SystemDisplay.hpp</title>
<polygon fill="white" stroke="none" points="-4,4 -4,-542 1774,-542 1774,4 -4,4"/>
<!-- Node1 -->
<g id="node1" class="node"><title>Node1</title>
<polygon fill="#bfbfbf" stroke="black" points="594,-485 594,-537 776,-537 776,-485 594,-485"/>
<text text-anchor="start" x="602" y="-525" font-family="Helvetica,sans-Serif" font-size="10.00">/home/travis/build</text>
<text text-anchor="start" x="602" y="-514" font-family="Helvetica,sans-Serif" font-size="10.00">/STORM&#45;IRIT/Radium&#45;Engine</text>
<text text-anchor="start" x="602" y="-503" font-family="Helvetica,sans-Serif" font-size="10.00">/src/Engine/Managers/SystemDisplay</text>
<text text-anchor="middle" x="685" y="-492" font-family="Helvetica,sans-Serif" font-size="10.00">/SystemDisplay.hpp</text>
</g>
<!-- Node2 -->
<g id="node2" class="node"><title>Node2</title>
<g id="a_node2"><a xlink:href="RaEngine_8hpp.html" target="_top" xlink:title="Engine/RaEngine.hpp">
<polygon fill="white" stroke="black" points="184.5,-304.5 184.5,-323.5 295.5,-323.5 295.5,-304.5 184.5,-304.5"/>
<text text-anchor="middle" x="240" y="-311.5" font-family="Helvetica,sans-Serif" font-size="10.00">Engine/RaEngine.hpp</text>
</a>
</g>
</g>
<!-- Node1&#45;&gt;Node2 -->
<g id="edge1" class="edge"><title>Node1&#45;&gt;Node2</title>
<path fill="none" stroke="midnightblue" d="M594.091,-484.959C520.575,-462.773 415.731,-426.671 331,-380 304.256,-365.269 276.028,-344.107 258.233,-329.974"/>
<polygon fill="midnightblue" stroke="midnightblue" points="260.372,-327.203 250.387,-323.66 255.983,-332.657 260.372,-327.203"/>
</g>
<!-- Node9 -->
<g id="node9" class="node"><title>Node9</title>
<g id="a_node9"><a xlink:href="ColorPresets_8hpp.html" target="_top" xlink:title="Core/Math/ColorPresets.hpp">
<polygon fill="white" stroke="black" points="565.5,-422.5 565.5,-441.5 706.5,-441.5 706.5,-422.5 565.5,-422.5"/>
<text text-anchor="middle" x="636" y="-429.5" font-family="Helvetica,sans-Serif" font-size="10.00">Core/Math/ColorPresets.hpp</text>
</a>
</g>
</g>
<!-- Node1&#45;&gt;Node9 -->
<g id="edge8" class="edge"><title>Node1&#45;&gt;Node9</title>
<path fill="none" stroke="midnightblue" d="M668.956,-484.787C661.764,-473.486 653.465,-460.445 646.994,-450.276"/>
<polygon fill="midnightblue" stroke="midnightblue" points="649.767,-448.115 641.446,-441.558 643.862,-451.873 649.767,-448.115"/>
</g>
<!-- Node23 -->
<g id="node23" class="node"><title>Node23</title>
<g id="a_node23"><a xlink:href="Singleton_8hpp.html" target="_top" xlink:title="Core/Utils/Singleton.hpp">
<polygon fill="white" stroke="black" points="1323.5,-422.5 1323.5,-441.5 1446.5,-441.5 1446.5,-422.5 1323.5,-422.5"/>
<text text-anchor="middle" x="1385" y="-429.5" font-family="Helvetica,sans-Serif" font-size="10.00">Core/Utils/Singleton.hpp</text>
</a>
</g>
</g>
<!-- Node1&#45;&gt;Node23 -->
<g id="edge25" class="edge"><title>Node1&#45;&gt;Node23</title>
<path fill="none" stroke="midnightblue" d="M776.154,-499.973C917.108,-484.468 1185.05,-454.994 1313.22,-440.896"/>
<polygon fill="midnightblue" stroke="midnightblue" points="1313.76,-444.358 1323.32,-439.785 1312.99,-437.4 1313.76,-444.358"/>
</g>
<!-- Node24 -->
<g id="node24" class="node"><title>Node24</title>
<g id="a_node24"><a xlink:href="Component_8hpp.html" target="_top" xlink:title="Engine/Component/Component.hpp">
<polygon fill="white" stroke="black" points="340,-360.5 340,-379.5 512,-379.5 512,-360.5 340,-360.5"/>
<text text-anchor="middle" x="426" y="-367.5" font-family="Helvetica,sans-Serif" font-size="10.00">Engine/Component/Component.hpp</text>
</a>
</g>
</g>
<!-- Node1&#45;&gt;Node24 -->
<g id="edge27" class="edge"><title>Node1&#45;&gt;Node24</title>
<path fill="none" stroke="midnightblue" d="M630.183,-484.939C607.058,-474.037 579.989,-460.838 556,-448 517.482,-427.386 474.059,-401.004 448.417,-385.084"/>
<polygon fill="midnightblue" stroke="midnightblue" points="450.153,-382.042 439.816,-379.722 446.45,-387.982 450.153,-382.042"/>
</g>
<!-- Node31 -->
<g id="node31" class="node"><title>Node31</title>
<g id="a_node31"><a xlink:href="Entity_8hpp.html" target="_top" xlink:title="Engine/Entity/Entity.hpp">
<polygon fill="white" stroke="black" points="674,-360.5 674,-379.5 796,-379.5 796,-360.5 674,-360.5"/>
<text text-anchor="middle" x="735" y="-367.5" font-family="Helvetica,sans-Serif" font-size="10.00">Engine/Entity/Entity.hpp</text>
</a>
</g>
</g>
<!-- Node1&#45;&gt;Node31 -->
<g id="edge41" class="edge"><title>Node1&#45;&gt;Node31</title>
<path fill="none" stroke="midnightblue" d="M698.562,-484.85C704.17,-473.768 710.419,-460.457 715,-448 722.135,-428.598 727.763,-405.563 731.208,-389.775"/>
<polygon fill="midnightblue" stroke="midnightblue" points="734.691,-390.221 733.321,-379.715 727.84,-388.782 734.691,-390.221"/>
</g>
<!-- Node36 -->
<g id="node36" class="node"><title>Node36</title>
<g id="a_node36"><a xlink:href="DrawPrimitives_8hpp.html" target="_top" xlink:title="Engine/Renderer/RenderObject\l/Primitives/DrawPrimitives.hpp">
<polygon fill="white" stroke="black" points="942,-417 942,-447 1094,-447 1094,-417 942,-417"/>
<text text-anchor="start" x="950" y="-435" font-family="Helvetica,sans-Serif" font-size="10.00">Engine/Renderer/RenderObject</text>
<text text-anchor="middle" x="1018" y="-424" font-family="Helvetica,sans-Serif" font-size="10.00">/Primitives/DrawPrimitives.hpp</text>
</a>
</g>
</g>
<!-- Node1&#45;&gt;Node36 -->
<g id="edge52" class="edge"><title>Node1&#45;&gt;Node36</title>
<path fill="none" stroke="midnightblue" d="M776.434,-488.858C830.293,-476.404 897.407,-460.885 947.215,-449.368"/>
<polygon fill="midnightblue" stroke="midnightblue" points="948.299,-452.71 957.253,-447.047 946.722,-445.889 948.299,-452.71"/>
</g>
<!-- Node3 -->
<g id="node3" class="node"><title>Node3</title>
<g id="a_node3"><a xlink:href="CoreMacros_8hpp.html" target="_top" xlink:title="Core/CoreMacros.hpp">
<polygon fill="white" stroke="black" points="347.5,-56.5 347.5,-75.5 460.5,-75.5 460.5,-56.5 347.5,-56.5"/>
<text text-anchor="middle" x="404" y="-63.5" font-family="Helvetica,sans-Serif" font-size="10.00">Core/CoreMacros.hpp</text>
</a>
</g>
</g>
<!-- Node2&#45;&gt;Node3 -->
<g id="edge2" class="edge"><title>Node2&#45;&gt;Node3</title>
<path fill="none" stroke="midnightblue" d="M295.825,-310.252C326.914,-305.615 363.565,-294.395 385,-268 428.44,-214.508 416.366,-124.636 408.423,-85.8064"/>
<polygon fill="midnightblue" stroke="midnightblue" points="411.808,-84.9027 406.249,-75.8835 404.97,-86.4009 411.808,-84.9027"/>
</g>
<!-- Node4 -->
<g id="node4" class="node"><title>Node4</title>
<polygon fill="white" stroke="#bfbfbf" points="413.5,-0.5 413.5,-19.5 462.5,-19.5 462.5,-0.5 413.5,-0.5"/>
<text text-anchor="middle" x="438" y="-7.5" font-family="Helvetica,sans-Serif" font-size="10.00">cassert</text>
</g>
<!-- Node3&#45;&gt;Node4 -->
<g id="edge3" class="edge"><title>Node3&#45;&gt;Node4</title>
<path fill="none" stroke="midnightblue" d="M409.614,-56.083C414.367,-48.5341 421.318,-37.4948 427.152,-28.2298"/>
<polygon fill="midnightblue" stroke="midnightblue" points="430.124,-30.0783 432.49,-19.7511 424.2,-26.3486 430.124,-30.0783"/>
</g>
<!-- Node5 -->
<g id="node5" class="node"><title>Node5</title>
<polygon fill="white" stroke="#bfbfbf" points="480.5,-0.5 480.5,-19.5 523.5,-19.5 523.5,-0.5 480.5,-0.5"/>
<text text-anchor="middle" x="502" y="-7.5" font-family="Helvetica,sans-Serif" font-size="10.00">cstdio</text>
</g>
<!-- Node3&#45;&gt;Node5 -->
<g id="edge4" class="edge"><title>Node3&#45;&gt;Node5</title>
<path fill="none" stroke="midnightblue" d="M419.745,-56.324C435.319,-47.7428 459.377,-34.486 477.459,-24.5224"/>
<polygon fill="midnightblue" stroke="midnightblue" points="479.224,-27.546 486.294,-19.6545 475.846,-21.4152 479.224,-27.546"/>
</g>
<!-- Node6 -->
<g id="node6" class="node"><title>Node6</title>
<polygon fill="white" stroke="#bfbfbf" points="271,-0.5 271,-19.5 325,-19.5 325,-0.5 271,-0.5"/>
<text text-anchor="middle" x="298" y="-7.5" font-family="Helvetica,sans-Serif" font-size="10.00">iostream</text>
</g>
<!-- Node3&#45;&gt;Node6 -->
<g id="edge5" class="edge"><title>Node3&#45;&gt;Node6</title>
<path fill="none" stroke="midnightblue" d="M386.969,-56.324C369.97,-47.6641 343.624,-34.2424 324.007,-24.249"/>
<polygon fill="midnightblue" stroke="midnightblue" points="325.488,-21.0752 314.988,-19.6545 322.31,-27.3125 325.488,-21.0752"/>
</g>
<!-- Node7 -->
<g id="node7" class="node"><title>Node7</title>
<polygon fill="white" stroke="#bfbfbf" points="343,-0.5 343,-19.5 395,-19.5 395,-0.5 343,-0.5"/>
<text text-anchor="middle" x="369" y="-7.5" font-family="Helvetica,sans-Serif" font-size="10.00">sstream</text>
</g>
<!-- Node3&#45;&gt;Node7 -->
<g id="edge6" class="edge"><title>Node3&#45;&gt;Node7</title>
<path fill="none" stroke="midnightblue" d="M398.22,-56.083C393.328,-48.5341 386.173,-37.4948 380.167,-28.2298"/>
<polygon fill="midnightblue" stroke="midnightblue" points="383.048,-26.239 374.672,-19.7511 377.174,-30.0463 383.048,-26.239"/>
</g>
<!-- Node8 -->
<g id="node8" class="node"><title>Node8</title>
<polygon fill="white" stroke="#bfbfbf" points="187,-0.5 187,-19.5 231,-19.5 231,-0.5 187,-0.5"/>
<text text-anchor="middle" x="209" y="-7.5" font-family="Helvetica,sans-Serif" font-size="10.00">thread</text>
</g>
<!-- Node3&#45;&gt;Node8 -->
<g id="edge7" class="edge"><title>Node3&#45;&gt;Node8</title>
<path fill="none" stroke="midnightblue" d="M373.102,-56.4435C336.978,-46.44 277.489,-29.9661 240.928,-19.8415"/>
<polygon fill="midnightblue" stroke="midnightblue" points="241.834,-16.4607 231.262,-17.1649 239.965,-23.2068 241.834,-16.4607"/>
</g>
<!-- Node10 -->
<g id="node10" class="node"><title>Node10</title>
<g id="a_node10"><a xlink:href="LinearAlgebra_8hpp.html" target="_top" xlink:title="Core/Math/LinearAlgebra.hpp">
<polygon fill="white" stroke="black" points="861.5,-242.5 861.5,-261.5 1004.5,-261.5 1004.5,-242.5 861.5,-242.5"/>
<text text-anchor="middle" x="933" y="-249.5" font-family="Helvetica,sans-Serif" font-size="10.00">Core/Math/LinearAlgebra.hpp</text>
</a>
</g>
</g>
<!-- Node9&#45;&gt;Node10 -->
<g id="edge9" class="edge"><title>Node9&#45;&gt;Node10</title>
<path fill="none" stroke="midnightblue" d="M706.682,-430.489C783.682,-425.645 903.417,-404.606 960,-324 971.781,-307.218 959.291,-284.63 947.667,-269.48"/>
<polygon fill="midnightblue" stroke="midnightblue" points="950.171,-267.015 941.113,-261.519 944.767,-271.464 950.171,-267.015"/>
</g>
<!-- Node22 -->
<g id="node22" class="node"><title>Node22</title>
<polygon fill="white" stroke="#bfbfbf" points="530.5,-360.5 530.5,-379.5 579.5,-379.5 579.5,-360.5 530.5,-360.5"/>
<text text-anchor="middle" x="555" y="-367.5" font-family="Helvetica,sans-Serif" font-size="10.00">random</text>
</g>
<!-- Node9&#45;&gt;Node22 -->
<g id="edge24" class="edge"><title>Node9&#45;&gt;Node22</title>
<path fill="none" stroke="midnightblue" d="M624.395,-422.403C611.523,-412.869 590.526,-397.315 574.994,-385.811"/>
<polygon fill="midnightblue" stroke="midnightblue" points="576.703,-382.72 566.584,-379.581 572.536,-388.345 576.703,-382.72"/>
</g>
<!-- Node11 -->
<g id="node11" class="node"><title>Node11</title>
<g id="a_node11"><a xlink:href="RaCore_8hpp.html" target="_top" xlink:title="Core/RaCore.hpp">
<polygon fill="white" stroke="black" points="1224.5,-112.5 1224.5,-131.5 1317.5,-131.5 1317.5,-112.5 1224.5,-112.5"/>
<text text-anchor="middle" x="1271" y="-119.5" font-family="Helvetica,sans-Serif" font-size="10.00">Core/RaCore.hpp</text>
</a>
</g>
</g>
<!-- Node10&#45;&gt;Node11 -->
<g id="edge10" class="edge"><title>Node10&#45;&gt;Node11</title>
<path fill="none" stroke="midnightblue" d="M982.446,-242.483C1040.01,-232.141 1131.26,-214.308 1163,-200 1185.04,-190.063 1187.33,-182.066 1207,-168 1221.4,-157.7 1237.73,-146.222 1250.29,-137.435"/>
<polygon fill="midnightblue" stroke="midnightblue" points="1252.5,-140.165 1258.69,-131.569 1248.49,-134.427 1252.5,-140.165"/>
</g>
<!-- Node12 -->
<g id="node12" class="node"><title>Node12</title>
<polygon fill="white" stroke="#bfbfbf" points="613.5,-174.5 613.5,-193.5 678.5,-193.5 678.5,-174.5 613.5,-174.5"/>
<text text-anchor="middle" x="646" y="-181.5" font-family="Helvetica,sans-Serif" font-size="10.00">Eigen/Core</text>
</g>
<!-- Node10&#45;&gt;Node12 -->
<g id="edge12" class="edge"><title>Node10&#45;&gt;Node12</title>
<path fill="none" stroke="midnightblue" d="M880.632,-242.437C830.46,-233.695 752.857,-218.765 687,-200 683.793,-199.086 680.477,-198.043 677.184,-196.943"/>
<polygon fill="midnightblue" stroke="midnightblue" points="678.104,-193.556 667.509,-193.54 675.781,-200.16 678.104,-193.556"/>
</g>
<!-- Node13 -->
<g id="node13" class="node"><title>Node13</title>
<polygon fill="white" stroke="#bfbfbf" points="508.5,-174.5 508.5,-193.5 595.5,-193.5 595.5,-174.5 508.5,-174.5"/>
<text text-anchor="middle" x="552" y="-181.5" font-family="Helvetica,sans-Serif" font-size="10.00">Eigen/Geometry</text>
</g>
<!-- Node10&#45;&gt;Node13 -->
<g id="edge13" class="edge"><title>Node10&#45;&gt;Node13</title>
<path fill="none" stroke="midnightblue" d="M861.276,-242.551C794.298,-234.032 691.765,-219.379 604,-200 599.152,-198.929 594.089,-197.662 589.108,-196.324"/>
<polygon fill="midnightblue" stroke="midnightblue" points="589.664,-192.845 579.09,-193.52 587.777,-199.586 589.664,-192.845"/>
</g>
<!-- Node14 -->
<g id="node14" class="node"><title>Node14</title>
<polygon fill="white" stroke="#bfbfbf" points="696.5,-174.5 696.5,-193.5 771.5,-193.5 771.5,-174.5 696.5,-174.5"/>
<text text-anchor="middle" x="734" y="-181.5" font-family="Helvetica,sans-Serif" font-size="10.00">Eigen/Sparse</text>
</g>
<!-- Node10&#45;&gt;Node14 -->
<g id="edge14" class="edge"><title>Node10&#45;&gt;Node14</title>
<path fill="none" stroke="midnightblue" d="M906.984,-242.372C871.728,-230.679 808.662,-209.762 769.2,-196.674"/>
<polygon fill="midnightblue" stroke="midnightblue" points="770.3,-193.352 759.707,-193.526 768.097,-199.996 770.3,-193.352"/>
</g>
<!-- Node15 -->
<g id="node15" class="node"><title>Node15</title>
<polygon fill="white" stroke="#bfbfbf" points="789.5,-174.5 789.5,-193.5 848.5,-193.5 848.5,-174.5 789.5,-174.5"/>
<text text-anchor="middle" x="819" y="-181.5" font-family="Helvetica,sans-Serif" font-size="10.00">functional</text>
</g>
<!-- Node10&#45;&gt;Node15 -->
<g id="edge15" class="edge"><title>Node10&#45;&gt;Node15</title>
<path fill="none" stroke="midnightblue" d="M918.096,-242.372C898.894,-231.254 865.29,-211.8 842.599,-198.662"/>
<polygon fill="midnightblue" stroke="midnightblue" points="844.315,-195.612 833.907,-193.63 840.808,-201.67 844.315,-195.612"/>
</g>
<!-- Node16 -->
<g id="node16" class="node"><title>Node16</title>
<polygon fill="white" stroke="#bfbfbf" points="866.5,-169 866.5,-199 999.5,-199 999.5,-169 866.5,-169"/>
<text text-anchor="start" x="874.5" y="-187" font-family="Helvetica,sans-Serif" font-size="10.00">unsupported/Eigen/Aligned</text>
<text text-anchor="middle" x="933" y="-176" font-family="Helvetica,sans-Serif" font-size="10.00">Vector3</text>
</g>
<!-- Node10&#45;&gt;Node16 -->
<g id="edge16" class="edge"><title>Node10&#45;&gt;Node16</title>
<path fill="none" stroke="midnightblue" d="M933,-242.372C933,-233.971 933,-220.811 933,-209.213"/>
<polygon fill="midnightblue" stroke="midnightblue" points="936.5,-209.181 933,-199.181 929.5,-209.181 936.5,-209.181"/>
</g>
<!-- Node17 -->
<g id="node17" class="node"><title>Node17</title>
<g id="a_node17"><a xlink:href="Math_8hpp.html" target="_top" xlink:title="Core/Math/Math.hpp">
<polygon fill="white" stroke="black" points="1579,-174.5 1579,-193.5 1685,-193.5 1685,-174.5 1579,-174.5"/>
<text text-anchor="middle" x="1632" y="-181.5" font-family="Helvetica,sans-Serif" font-size="10.00">Core/Math/Math.hpp</text>
</a>
</g>
</g>
<!-- Node10&#45;&gt;Node17 -->
<g id="edge17" class="edge"><title>Node10&#45;&gt;Node17</title>
<path fill="none" stroke="midnightblue" d="M1004.52,-244.247C1141.39,-231.324 1438.31,-203.289 1568.57,-190.989"/>
<polygon fill="midnightblue" stroke="midnightblue" points="1569.16,-194.449 1578.78,-190.025 1568.5,-187.48 1569.16,-194.449"/>
</g>
<!-- Node21 -->
<g id="node21" class="node"><title>Node21</title>
<g id="a_node21"><a xlink:href="LinearAlgebra_8inl.html" target="_top" xlink:title="Core/Math/LinearAlgebra.inl">
<polygon fill="white" stroke="black" points="1017.5,-174.5 1017.5,-193.5 1154.5,-193.5 1154.5,-174.5 1017.5,-174.5"/>
<text text-anchor="middle" x="1086" y="-181.5" font-family="Helvetica,sans-Serif" font-size="10.00">Core/Math/LinearAlgebra.inl</text>
</a>
</g>
</g>
<!-- Node10&#45;&gt;Node21 -->
<g id="edge23" class="edge"><title>Node10&#45;&gt;Node21</title>
<path fill="none" stroke="midnightblue" d="M953.002,-242.372C979.461,-230.958 1026.29,-210.756 1056.73,-197.625"/>
<polygon fill="midnightblue" stroke="midnightblue" points="1058.2,-200.805 1065.99,-193.63 1055.42,-194.378 1058.2,-200.805"/>
</g>
<!-- Node11&#45;&gt;Node3 -->
<g id="edge11" class="edge"><title>Node11&#45;&gt;Node3</title>
<path fill="none" stroke="midnightblue" d="M1224.39,-118.097C1079.96,-109.101 639.543,-81.6705 470.78,-71.1593"/>
<polygon fill="midnightblue" stroke="midnightblue" points="470.98,-67.6651 460.782,-70.5366 470.545,-74.6515 470.98,-67.6651"/>
</g>
<!-- Node17&#45;&gt;Node11 -->
<g id="edge18" class="edge"><title>Node17&#45;&gt;Node11</title>
<path fill="none" stroke="midnightblue" d="M1595.93,-174.45C1585.94,-172.211 1575.07,-169.896 1565,-168 1482.73,-152.514 1386.75,-138.595 1327.42,-130.469"/>
<polygon fill="midnightblue" stroke="midnightblue" points="1327.88,-126.999 1317.5,-129.117 1326.94,-133.935 1327.88,-126.999"/>
</g>
<!-- Node18 -->
<g id="node18" class="node"><title>Node18</title>
<polygon fill="white" stroke="#bfbfbf" points="1652,-112.5 1652,-131.5 1708,-131.5 1708,-112.5 1652,-112.5"/>
<text text-anchor="middle" x="1680" y="-119.5" font-family="Helvetica,sans-Serif" font-size="10.00">algorithm</text>
</g>
<!-- Node17&#45;&gt;Node18 -->
<g id="edge19" class="edge"><title>Node17&#45;&gt;Node18</title>
<path fill="none" stroke="midnightblue" d="M1638.88,-174.403C1646.15,-165.314 1657.8,-150.756 1666.84,-139.449"/>
<polygon fill="midnightblue" stroke="midnightblue" points="1669.62,-141.576 1673.14,-131.581 1664.16,-137.203 1669.62,-141.576"/>
</g>
<!-- Node19 -->
<g id="node19" class="node"><title>Node19</title>
<polygon fill="white" stroke="#bfbfbf" points="1726,-112.5 1726,-131.5 1770,-131.5 1770,-112.5 1726,-112.5"/>
<text text-anchor="middle" x="1748" y="-119.5" font-family="Helvetica,sans-Serif" font-size="10.00">cmath</text>
</g>
<!-- Node17&#45;&gt;Node19 -->
<g id="edge20" class="edge"><title>Node17&#45;&gt;Node19</title>
<path fill="none" stroke="midnightblue" d="M1648.62,-174.403C1667.92,-164.423 1699.96,-147.849 1722.43,-136.225"/>
<polygon fill="midnightblue" stroke="midnightblue" points="1724.14,-139.284 1731.41,-131.581 1720.92,-133.066 1724.14,-139.284"/>
</g>
<!-- Node20 -->
<g id="node20" class="node"><title>Node20</title>
<g id="a_node20"><a xlink:href="Math_8inl.html" target="_top" xlink:title="Core/Math/Math.inl">
<polygon fill="white" stroke="black" points="1534,-112.5 1534,-131.5 1634,-131.5 1634,-112.5 1534,-112.5"/>
<text text-anchor="middle" x="1584" y="-119.5" font-family="Helvetica,sans-Serif" font-size="10.00">Core/Math/Math.inl</text>
</a>
</g>
</g>
<!-- Node17&#45;&gt;Node20 -->
<g id="edge21" class="edge"><title>Node17&#45;&gt;Node20</title>
<path fill="none" stroke="midnightblue" d="M1620.22,-174.403C1611.17,-165.493 1599.41,-151.325 1591.53,-140.118"/>
<polygon fill="midnightblue" stroke="midnightblue" points="1594.36,-138.048 1585.97,-131.581 1588.49,-141.87 1594.36,-138.048"/>
</g>
<!-- Node20&#45;&gt;Node17 -->
<g id="edge22" class="edge"><title>Node20&#45;&gt;Node17</title>
<path fill="none" stroke="midnightblue" d="M1595.76,-131.581C1604.81,-140.485 1616.57,-154.652 1624.46,-165.862"/>
<polygon fill="midnightblue" stroke="midnightblue" points="1621.63,-167.938 1630.02,-174.403 1627.49,-164.115 1621.63,-167.938"/>
</g>
<!-- Node23&#45;&gt;Node11 -->
<g id="edge26" class="edge"><title>Node23&#45;&gt;Node11</title>
<path fill="none" stroke="midnightblue" d="M1438.9,-422.459C1508.38,-408.483 1617.54,-374.867 1593,-304 1567.84,-231.323 1551.36,-208.543 1486,-168 1437.95,-138.19 1373.43,-127.816 1327.64,-124.363"/>
<polygon fill="midnightblue" stroke="midnightblue" points="1327.8,-120.866 1317.58,-123.693 1327.33,-127.851 1327.8,-120.866"/>
</g>
<!-- Node24&#45;&gt;Node2 -->
<g id="edge28" class="edge"><title>Node24&#45;&gt;Node2</title>
<path fill="none" stroke="midnightblue" d="M396.528,-360.444C364.829,-351.241 314.268,-336.562 279.225,-326.388"/>
<polygon fill="midnightblue" stroke="midnightblue" points="279.914,-322.943 269.334,-323.516 277.962,-329.666 279.914,-322.943"/>
</g>
<!-- Node24&#45;&gt;Node10 -->
<g id="edge34" class="edge"><title>Node24&#45;&gt;Node10</title>
<path fill="none" stroke="midnightblue" d="M467.965,-360.456C508.949,-351.922 573.006,-338.081 628,-324 658.931,-316.08 666.044,-311.821 697,-304 759.225,-288.279 831.437,-273.12 879.431,-263.474"/>
<polygon fill="midnightblue" stroke="midnightblue" points="880.174,-266.895 889.293,-261.501 878.8,-260.031 880.174,-266.895"/>
</g>
<!-- Node25 -->
<g id="node25" class="node"><title>Node25</title>
<g id="a_node25"><a xlink:href="IndexedObject_8hpp.html" target="_top" xlink:title="Core/Index/IndexedObject.hpp">
<polygon fill="white" stroke="black" points="351.5,-304.5 351.5,-323.5 500.5,-323.5 500.5,-304.5 351.5,-304.5"/>
<text text-anchor="middle" x="426" y="-311.5" font-family="Helvetica,sans-Serif" font-size="10.00">Core/Index/IndexedObject.hpp</text>
</a>
</g>
</g>
<!-- Node24&#45;&gt;Node25 -->
<g id="edge29" class="edge"><title>Node24&#45;&gt;Node25</title>
<path fill="none" stroke="midnightblue" d="M426,-360.083C426,-353.006 426,-342.861 426,-333.986"/>
<polygon fill="midnightblue" stroke="midnightblue" points="429.5,-333.751 426,-323.751 422.5,-333.751 429.5,-333.751"/>
</g>
<!-- Node29 -->
<g id="node29" class="node"><title>Node29</title>
<g id="a_node29"><a xlink:href="Ray_8hpp.html" target="_top" xlink:title="Core/Math/Ray.hpp">
<polygon fill="white" stroke="black" points="518,-304.5 518,-323.5 620,-323.5 620,-304.5 518,-304.5"/>
<text text-anchor="middle" x="569" y="-311.5" font-family="Helvetica,sans-Serif" font-size="10.00">Core/Math/Ray.hpp</text>
</a>
</g>
</g>
<!-- Node24&#45;&gt;Node29 -->
<g id="edge35" class="edge"><title>Node24&#45;&gt;Node29</title>
<path fill="none" stroke="midnightblue" d="M448.659,-360.444C472.402,-351.478 509.909,-337.314 536.738,-327.183"/>
<polygon fill="midnightblue" stroke="midnightblue" points="538.329,-330.324 546.447,-323.516 535.856,-323.775 538.329,-330.324"/>
</g>
<!-- Node30 -->
<g id="node30" class="node"><title>Node30</title>
<g id="a_node30"><a xlink:href="Component_8inl.html" target="_top" xlink:title="Engine/Component/Component.inl">
<polygon fill="white" stroke="black" points="0,-304.5 0,-323.5 166,-323.5 166,-304.5 0,-304.5"/>
<text text-anchor="middle" x="83" y="-311.5" font-family="Helvetica,sans-Serif" font-size="10.00">Engine/Component/Component.inl</text>
</a>
</g>
</g>
<!-- Node24&#45;&gt;Node30 -->
<g id="edge39" class="edge"><title>Node24&#45;&gt;Node30</title>
<path fill="none" stroke="midnightblue" d="M366.562,-360.444C303.622,-350.865 204.998,-335.356 142.164,-325.167"/>
<polygon fill="midnightblue" stroke="midnightblue" points="142.447,-321.667 132.015,-323.516 141.324,-328.576 142.447,-321.667"/>
</g>
<!-- Node25&#45;&gt;Node11 -->
<g id="edge33" class="edge"><title>Node25&#45;&gt;Node11</title>
<path fill="none" stroke="midnightblue" d="M426.442,-304.231C428.273,-278.25 437.563,-201.412 484,-168 542.855,-125.653 1043.58,-122.58 1214.27,-122.777"/>
<polygon fill="midnightblue" stroke="midnightblue" points="1214.31,-126.277 1224.31,-122.792 1214.32,-119.277 1214.31,-126.277"/>
</g>
<!-- Node26 -->
<g id="node26" class="node"><title>Node26</title>
<g id="a_node26"><a xlink:href="Index_8hpp.html" target="_top" xlink:title="Core/Index/Index.hpp">
<polygon fill="white" stroke="black" points="266,-242.5 266,-261.5 376,-261.5 376,-242.5 266,-242.5"/>
<text text-anchor="middle" x="321" y="-249.5" font-family="Helvetica,sans-Serif" font-size="10.00">Core/Index/Index.hpp</text>
</a>
</g>
</g>
<!-- Node25&#45;&gt;Node26 -->
<g id="edge30" class="edge"><title>Node25&#45;&gt;Node26</title>
<path fill="none" stroke="midnightblue" d="M410.956,-304.403C393.725,-294.557 365.26,-278.291 344.966,-266.695"/>
<polygon fill="midnightblue" stroke="midnightblue" points="346.435,-263.503 336.016,-261.581 342.962,-269.581 346.435,-263.503"/>
</g>
<!-- Node27 -->
<g id="node27" class="node"><title>Node27</title>
<polygon fill="white" stroke="#bfbfbf" points="214,-174.5 214,-193.5 254,-193.5 254,-174.5 214,-174.5"/>
<text text-anchor="middle" x="234" y="-181.5" font-family="Helvetica,sans-Serif" font-size="10.00">limits</text>
</g>
<!-- Node26&#45;&gt;Node27 -->
<g id="edge31" class="edge"><title>Node26&#45;&gt;Node27</title>
<path fill="none" stroke="midnightblue" d="M309.626,-242.372C295.428,-231.6 270.912,-213.002 253.649,-199.906"/>
<polygon fill="midnightblue" stroke="midnightblue" points="255.459,-196.886 245.377,-193.63 251.228,-202.463 255.459,-196.886"/>
</g>
<!-- Node28 -->
<g id="node28" class="node"><title>Node28</title>
<g id="a_node28"><a xlink:href="Index_8inl.html" target="_top" xlink:title="Core/Index/Index.inl">
<polygon fill="white" stroke="black" points="272,-174.5 272,-193.5 376,-193.5 376,-174.5 272,-174.5"/>
<text text-anchor="middle" x="324" y="-181.5" font-family="Helvetica,sans-Serif" font-size="10.00">Core/Index/Index.inl</text>
</a>
</g>
</g>
<!-- Node26&#45;&gt;Node28 -->
<g id="edge32" class="edge"><title>Node26&#45;&gt;Node28</title>
<path fill="none" stroke="midnightblue" d="M321.392,-242.372C321.834,-232.643 322.567,-216.528 323.143,-203.85"/>
<polygon fill="midnightblue" stroke="midnightblue" points="326.64,-203.99 323.598,-193.841 319.648,-203.672 326.64,-203.99"/>
</g>
<!-- Node29&#45;&gt;Node10 -->
<g id="edge36" class="edge"><title>Node29&#45;&gt;Node10</title>
<path fill="none" stroke="midnightblue" d="M620.38,-304.531C686.315,-293.662 800.591,-274.826 871.203,-263.186"/>
<polygon fill="midnightblue" stroke="midnightblue" points="871.995,-266.603 881.293,-261.523 870.857,-259.696 871.995,-266.603"/>
</g>
<!-- Node29&#45;&gt;Node11 -->
<g id="edge37" class="edge"><title>Node29&#45;&gt;Node11</title>
<path fill="none" stroke="midnightblue" d="M558.734,-304.429C530.935,-280.249 458.909,-210.496 499,-168 523.49,-142.041 1040,-128.158 1214.21,-124.201"/>
<polygon fill="midnightblue" stroke="midnightblue" points="1214.53,-127.694 1224.45,-123.971 1214.37,-120.696 1214.53,-127.694"/>
</g>
<!-- Node29&#45;&gt;Node13 -->
<g id="edge38" class="edge"><title>Node29&#45;&gt;Node13</title>
<path fill="none" stroke="midnightblue" d="M567.832,-304.202C565.089,-283.551 558.19,-231.606 554.469,-203.594"/>
<polygon fill="midnightblue" stroke="midnightblue" points="557.918,-202.975 553.132,-193.522 550.979,-203.896 557.918,-202.975"/>
</g>
<!-- Node30&#45;&gt;Node24 -->
<g id="edge40" class="edge"><title>Node30&#45;&gt;Node24</title>
<path fill="none" stroke="midnightblue" d="M142.175,-323.516C205.015,-333.078 303.64,-348.587 366.573,-358.791"/>
<polygon fill="midnightblue" stroke="midnightblue" points="366.307,-362.293 376.739,-360.444 367.431,-355.384 366.307,-362.293"/>
</g>
<!-- Node31&#45;&gt;Node2 -->
<g id="edge42" class="edge"><title>Node31&#45;&gt;Node2</title>
<path fill="none" stroke="midnightblue" d="M673.721,-362.946C591.076,-354.683 439.331,-339.159 310,-324 308.699,-323.848 307.385,-323.692 306.061,-323.534"/>
<polygon fill="midnightblue" stroke="midnightblue" points="306.12,-320.016 295.771,-322.285 305.276,-326.965 306.12,-320.016"/>
</g>
<!-- Node31&#45;&gt;Node8 -->
<g id="edge45" class="edge"><title>Node31&#45;&gt;Node8</title>
<path fill="none" stroke="midnightblue" d="M673.786,-363.568C571.118,-354.223 372.42,-335.045 342,-324 320.738,-316.28 273.547,-283.423 257,-268 229.169,-242.059 217.2,-236.037 205,-200 184.861,-140.51 197.066,-64.3481 204.513,-29.6825"/>
<polygon fill="midnightblue" stroke="midnightblue" points="208.001,-30.1281 206.802,-19.6013 201.174,-28.5779 208.001,-30.1281"/>
</g>
<!-- Node31&#45;&gt;Node10 -->
<g id="edge48" class="edge"><title>Node31&#45;&gt;Node10</title>
<path fill="none" stroke="midnightblue" d="M725.384,-360.272C711.987,-347.06 690.858,-321.655 705,-304 723.3,-281.154 793.441,-267.858 851.149,-260.605"/>
<polygon fill="midnightblue" stroke="midnightblue" points="851.889,-264.041 861.395,-259.363 851.046,-257.092 851.889,-264.041"/>
</g>
<!-- Node31&#45;&gt;Node25 -->
<g id="edge47" class="edge"><title>Node31&#45;&gt;Node25</title>
<path fill="none" stroke="midnightblue" d="M686.038,-360.444C631.456,-350.905 543.21,-335.483 484.899,-325.293"/>
<polygon fill="midnightblue" stroke="midnightblue" points="485.186,-321.79 474.733,-323.516 483.981,-328.686 485.186,-321.79"/>
</g>
<!-- Node31&#45;&gt;Node29 -->
<g id="edge49" class="edge"><title>Node31&#45;&gt;Node29</title>
<path fill="none" stroke="midnightblue" d="M708.697,-360.444C680.649,-351.32 636.056,-336.813 604.816,-326.651"/>
<polygon fill="midnightblue" stroke="midnightblue" points="605.772,-323.282 595.18,-323.516 603.607,-329.938 605.772,-323.282"/>
</g>
<!-- Node32 -->
<g id="node32" class="node"><title>Node32</title>
<polygon fill="white" stroke="#bfbfbf" points="908,-304.5 908,-323.5 952,-323.5 952,-304.5 908,-304.5"/>
<text text-anchor="middle" x="930" y="-311.5" font-family="Helvetica,sans-Serif" font-size="10.00">mutex</text>
</g>
<!-- Node31&#45;&gt;Node32 -->
<g id="edge43" class="edge"><title>Node31&#45;&gt;Node32</title>
<path fill="none" stroke="midnightblue" d="M766.261,-360.418C799.082,-351.396 852.187,-336.766 898,-324 898.101,-323.972 898.202,-323.944 898.303,-323.916"/>
<polygon fill="midnightblue" stroke="midnightblue" points="899.283,-327.276 907.97,-321.211 897.397,-320.535 899.283,-327.276"/>
</g>
<!-- Node33 -->
<g id="node33" class="node"><title>Node33</title>
<polygon fill="white" stroke="#bfbfbf" points="714.5,-304.5 714.5,-323.5 755.5,-323.5 755.5,-304.5 714.5,-304.5"/>
<text text-anchor="middle" x="735" y="-311.5" font-family="Helvetica,sans-Serif" font-size="10.00">string</text>
</g>
<!-- Node31&#45;&gt;Node33 -->
<g id="edge44" class="edge"><title>Node31&#45;&gt;Node33</title>
<path fill="none" stroke="midnightblue" d="M735,-360.083C735,-353.006 735,-342.861 735,-333.986"/>
<polygon fill="midnightblue" stroke="midnightblue" points="738.5,-333.751 735,-323.751 731.5,-333.751 738.5,-333.751"/>
</g>
<!-- Node34 -->
<g id="node34" class="node"><title>Node34</title>
<polygon fill="white" stroke="#bfbfbf" points="1249,-174.5 1249,-193.5 1293,-193.5 1293,-174.5 1249,-174.5"/>
<text text-anchor="middle" x="1271" y="-181.5" font-family="Helvetica,sans-Serif" font-size="10.00">vector</text>
</g>
<!-- Node31&#45;&gt;Node34 -->
<g id="edge46" class="edge"><title>Node31&#45;&gt;Node34</title>
<path fill="none" stroke="midnightblue" d="M796.42,-362.879C842.66,-356.817 906.932,-345.251 960,-324 1027.88,-296.818 1032.43,-266.236 1099,-236 1145.64,-214.815 1203.36,-199.799 1238.66,-191.771"/>
<polygon fill="midnightblue" stroke="midnightblue" points="1239.85,-195.09 1248.86,-189.504 1238.33,-188.257 1239.85,-195.09"/>
</g>
<!-- Node35 -->
<g id="node35" class="node"><title>Node35</title>
<g id="a_node35"><a xlink:href="Entity_8inl.html" target="_top" xlink:title="Engine/Entity/Entity.inl">
<polygon fill="white" stroke="black" points="774,-304.5 774,-323.5 890,-323.5 890,-304.5 774,-304.5"/>
<text text-anchor="middle" x="832" y="-311.5" font-family="Helvetica,sans-Serif" font-size="10.00">Engine/Entity/Entity.inl</text>
</a>
</g>
</g>
<!-- Node31&#45;&gt;Node35 -->
<g id="edge50" class="edge"><title>Node31&#45;&gt;Node35</title>
<path fill="none" stroke="midnightblue" d="M745.47,-360.324C759.151,-351.664 782.998,-338.242 802.298,-328.249"/>
<polygon fill="midnightblue" stroke="midnightblue" points="804.013,-331.304 811.344,-323.655 800.843,-325.063 804.013,-331.304"/>
</g>
<!-- Node35&#45;&gt;Node31 -->
<g id="edge51" class="edge"><title>Node35&#45;&gt;Node31</title>
<path fill="none" stroke="midnightblue" d="M821.564,-323.655C807.9,-332.307 784.058,-345.727 764.75,-355.726"/>
<polygon fill="midnightblue" stroke="midnightblue" points="763.03,-352.674 755.7,-360.324 766.2,-358.915 763.03,-352.674"/>
</g>
<!-- Node36&#45;&gt;Node2 -->
<g id="edge53" class="edge"><title>Node36&#45;&gt;Node2</title>
<path fill="none" stroke="midnightblue" d="M941.97,-429.324C861.467,-425.676 731.558,-414.404 625,-380 607.211,-374.257 605.79,-365.739 588,-360 587.164,-359.73 406.468,-336.436 305.821,-323.474"/>
<polygon fill="midnightblue" stroke="midnightblue" points="306.11,-319.982 295.745,-322.176 305.216,-326.925 306.11,-319.982"/>
</g>
<!-- Node36&#45;&gt;Node10 -->
<g id="edge54" class="edge"><title>Node36&#45;&gt;Node10</title>
<path fill="none" stroke="midnightblue" d="M1018.34,-416.973C1018.32,-392.369 1015.46,-340.578 994,-304 985.089,-288.813 969.913,-276.098 956.927,-267.162"/>
<polygon fill="midnightblue" stroke="midnightblue" points="958.68,-264.126 948.392,-261.596 954.856,-269.99 958.68,-264.126"/>
</g>
<!-- Node36&#45;&gt;Node29 -->
<g id="edge60" class="edge"><title>Node36&#45;&gt;Node29</title>
<path fill="none" stroke="midnightblue" d="M941.83,-429.796C868.604,-426.396 755.949,-415.206 665,-380 634.835,-368.323 604.712,-345.692 586.465,-330.462"/>
<polygon fill="midnightblue" stroke="midnightblue" points="588.387,-327.5 578.513,-323.659 583.837,-332.82 588.387,-327.5"/>
</g>
<!-- Node37 -->
<g id="node37" class="node"><title>Node37</title>
<g id="a_node37"><a xlink:href="Obb_8hpp.html" target="_top" xlink:title="Core/Math/Obb.hpp">
<polygon fill="white" stroke="black" points="1103,-304.5 1103,-323.5 1205,-323.5 1205,-304.5 1103,-304.5"/>
<text text-anchor="middle" x="1154" y="-311.5" font-family="Helvetica,sans-Serif" font-size="10.00">Core/Math/Obb.hpp</text>
</a>
</g>
</g>
<!-- Node36&#45;&gt;Node37 -->
<g id="edge55" class="edge"><title>Node36&#45;&gt;Node37</title>
<path fill="none" stroke="midnightblue" d="M1026.96,-416.879C1037.21,-401.526 1055.15,-376.923 1075,-360 1090.12,-347.109 1109.47,-336.015 1125.23,-328.068"/>
<polygon fill="midnightblue" stroke="midnightblue" points="1127.07,-331.069 1134.52,-323.538 1124,-324.778 1127.07,-331.069"/>
</g>
<!-- Node39 -->
<g id="node39" class="node"><title>Node39</title>
<g id="a_node39"><a xlink:href="Spline_8hpp.html" target="_top" xlink:title="Core/Math/Spline.hpp">
<polygon fill="white" stroke="black" points="1340.5,-360.5 1340.5,-379.5 1451.5,-379.5 1451.5,-360.5 1340.5,-360.5"/>
<text text-anchor="middle" x="1396" y="-367.5" font-family="Helvetica,sans-Serif" font-size="10.00">Core/Math/Spline.hpp</text>
</a>
</g>
</g>
<!-- Node36&#45;&gt;Node39 -->
<g id="edge61" class="edge"><title>Node36&#45;&gt;Node39</title>
<path fill="none" stroke="midnightblue" d="M1094.04,-418.93C1163.92,-407.837 1266.36,-391.578 1332.11,-381.141"/>
<polygon fill="midnightblue" stroke="midnightblue" points="1333.01,-384.542 1342.34,-379.518 1331.91,-377.629 1333.01,-384.542"/>
</g>
<!-- Node44 -->
<g id="node44" class="node"><title>Node44</title>
<polygon fill="white" stroke="#bfbfbf" points="1084,-360.5 1084,-379.5 1136,-379.5 1136,-360.5 1084,-360.5"/>
<text text-anchor="middle" x="1110" y="-367.5" font-family="Helvetica,sans-Serif" font-size="10.00">memory</text>
</g>
<!-- Node36&#45;&gt;Node44 -->
<g id="edge75" class="edge"><title>Node36&#45;&gt;Node44</title>
<path fill="none" stroke="midnightblue" d="M1039.8,-416.781C1054.5,-407.196 1073.8,-394.606 1088.45,-385.056"/>
<polygon fill="midnightblue" stroke="midnightblue" points="1090.42,-387.95 1096.88,-379.556 1086.59,-382.087 1090.42,-387.95"/>
</g>
<!-- Node37&#45;&gt;Node10 -->
<g id="edge57" class="edge"><title>Node37&#45;&gt;Node10</title>
<path fill="none" stroke="midnightblue" d="M1122.34,-304.403C1083.44,-293.844 1017.36,-275.903 974.452,-264.254"/>
<polygon fill="midnightblue" stroke="midnightblue" points="975.173,-260.823 964.605,-261.581 973.339,-267.578 975.173,-260.823"/>
</g>
<!-- Node37&#45;&gt;Node11 -->
<g id="edge56" class="edge"><title>Node37&#45;&gt;Node11</title>
<path fill="none" stroke="midnightblue" d="M1136.8,-304.386C1123.75,-296.794 1106.77,-284.389 1099,-268 1092.91,-255.148 1090.82,-247.636 1099,-236 1126.16,-197.354 1159.55,-225.976 1199,-200 1223.63,-183.781 1245.79,-157.468 1258.82,-140.197"/>
<polygon fill="midnightblue" stroke="midnightblue" points="1261.99,-141.789 1265.08,-131.654 1256.34,-137.651 1261.99,-141.789"/>
</g>
<!-- Node38 -->
<g id="node38" class="node"><title>Node38</title>
<g id="a_node38"><a xlink:href="Obb_8inl.html" target="_top" xlink:title="Core/Math/Obb.inl">
<polygon fill="white" stroke="black" points="1108,-242.5 1108,-261.5 1204,-261.5 1204,-242.5 1108,-242.5"/>
<text text-anchor="middle" x="1156" y="-249.5" font-family="Helvetica,sans-Serif" font-size="10.00">Core/Math/Obb.inl</text>
</a>
</g>
</g>
<!-- Node37&#45;&gt;Node38 -->
<g id="edge58" class="edge"><title>Node37&#45;&gt;Node38</title>
<path fill="none" stroke="midnightblue" d="M1149.39,-304.403C1147.82,-295.849 1147.81,-282.45 1149.1,-271.476"/>
<polygon fill="midnightblue" stroke="midnightblue" points="1152.55,-272.032 1150.82,-261.581 1145.66,-270.834 1152.55,-272.032"/>
</g>
<!-- Node38&#45;&gt;Node37 -->
<g id="edge59" class="edge"><title>Node38&#45;&gt;Node37</title>
<path fill="none" stroke="midnightblue" d="M1160.61,-261.581C1162.18,-270.129 1162.2,-283.527 1160.9,-294.503"/>
<polygon fill="midnightblue" stroke="midnightblue" points="1157.45,-293.952 1159.19,-304.403 1164.35,-295.149 1157.45,-293.952"/>
</g>
<!-- Node39&#45;&gt;Node11 -->
<g id="edge70" class="edge"><title>Node39&#45;&gt;Node11</title>
<path fill="none" stroke="midnightblue" d="M1404.08,-360.377C1431.05,-330.572 1513.47,-230.327 1464,-168 1447.24,-146.885 1378.68,-134.758 1328.02,-128.528"/>
<polygon fill="midnightblue" stroke="midnightblue" points="1328.17,-125.021 1317.83,-127.323 1327.35,-131.973 1328.17,-125.021"/>
</g>
<!-- Node39&#45;&gt;Node34 -->
<g id="edge71" class="edge"><title>Node39&#45;&gt;Node34</title>
<path fill="none" stroke="midnightblue" d="M1340.35,-366.965C1308.99,-362.609 1272.17,-351.434 1252,-324 1225.27,-287.647 1247.18,-231.12 1261.32,-202.652"/>
<polygon fill="midnightblue" stroke="midnightblue" points="1264.56,-204.008 1266.08,-193.523 1258.36,-200.774 1264.56,-204.008"/>
</g>
<!-- Node40 -->
<g id="node40" class="node"><title>Node40</title>
<g id="a_node40"><a xlink:href="VectorArray_8hpp.html" target="_top" xlink:title="Core/Containers/VectorArray.hpp">
<polygon fill="white" stroke="black" points="1261.5,-304.5 1261.5,-323.5 1422.5,-323.5 1422.5,-304.5 1261.5,-304.5"/>
<text text-anchor="middle" x="1342" y="-311.5" font-family="Helvetica,sans-Serif" font-size="10.00">Core/Containers/VectorArray.hpp</text>
</a>
</g>
</g>
<!-- Node39&#45;&gt;Node40 -->
<g id="edge62" class="edge"><title>Node39&#45;&gt;Node40</title>
<path fill="none" stroke="midnightblue" d="M1387.08,-360.083C1379.22,-352.22 1367.57,-340.569 1358.08,-331.081"/>
<polygon fill="midnightblue" stroke="midnightblue" points="1360.3,-328.347 1350.75,-323.751 1355.35,-333.297 1360.3,-328.347"/>
</g>
<!-- Node43 -->
<g id="node43" class="node"><title>Node43</title>
<g id="a_node43"><a xlink:href="Spline_8inl.html" target="_top" xlink:title="Core/Math/Spline.inl">
<polygon fill="white" stroke="black" points="1479.5,-304.5 1479.5,-323.5 1584.5,-323.5 1584.5,-304.5 1479.5,-304.5"/>
<text text-anchor="middle" x="1532" y="-311.5" font-family="Helvetica,sans-Serif" font-size="10.00">Core/Math/Spline.inl</text>
</a>
</g>
</g>
<!-- Node39&#45;&gt;Node43 -->
<g id="edge72" class="edge"><title>Node39&#45;&gt;Node43</title>
<path fill="none" stroke="midnightblue" d="M1412.46,-360.444C1433.17,-351.438 1468.84,-337.189 1495.92,-327.049"/>
<polygon fill="midnightblue" stroke="midnightblue" points="1497.31,-330.269 1505.47,-323.516 1494.88,-323.704 1497.31,-330.269"/>
</g>
<!-- Node40&#45;&gt;Node10 -->
<g id="edge67" class="edge"><title>Node40&#45;&gt;Node10</title>
<path fill="none" stroke="midnightblue" d="M1283.83,-304.467C1209.33,-293.537 1080.4,-274.624 1001.31,-263.021"/>
<polygon fill="midnightblue" stroke="midnightblue" points="1001.37,-259.492 990.965,-261.503 1000.35,-266.418 1001.37,-259.492"/>
</g>
<!-- Node40&#45;&gt;Node11 -->
<g id="edge68" class="edge"><title>Node40&#45;&gt;Node11</title>
<path fill="none" stroke="midnightblue" d="M1390.05,-304.458C1410.94,-298.101 1433.47,-287.074 1446,-268 1454.75,-254.674 1462.06,-189.704 1445,-168 1430.48,-149.528 1372.82,-137.215 1327.81,-130.208"/>
<polygon fill="midnightblue" stroke="midnightblue" points="1328.24,-126.735 1317.83,-128.709 1327.2,-133.657 1328.24,-126.735"/>
</g>
<!-- Node40&#45;&gt;Node34 -->
<g id="edge69" class="edge"><title>Node40&#45;&gt;Node34</title>
<path fill="none" stroke="midnightblue" d="M1327.86,-304.455C1315.93,-296.501 1299.35,-283.553 1290,-268 1278.07,-248.149 1273.62,-221.507 1271.97,-203.822"/>
<polygon fill="midnightblue" stroke="midnightblue" points="1275.45,-203.378 1271.24,-193.655 1268.47,-203.881 1275.45,-203.378"/>
</g>
<!-- Node41 -->
<g id="node41" class="node"><title>Node41</title>
<g id="a_node41"><a xlink:href="AlignedStdVector_8hpp.html" target="_top" xlink:title="Core/Containers/AlignedStd\lVector.hpp">
<polygon fill="white" stroke="black" points="1299,-237 1299,-267 1437,-267 1437,-237 1299,-237"/>
<text text-anchor="start" x="1307" y="-255" font-family="Helvetica,sans-Serif" font-size="10.00">Core/Containers/AlignedStd</text>
<text text-anchor="middle" x="1368" y="-244" font-family="Helvetica,sans-Serif" font-size="10.00">Vector.hpp</text>
</a>
</g>
</g>
<!-- Node40&#45;&gt;Node41 -->
<g id="edge63" class="edge"><title>Node40&#45;&gt;Node41</title>
<path fill="none" stroke="midnightblue" d="M1345.73,-304.403C1348.88,-297.113 1353.57,-286.303 1357.83,-276.475"/>
<polygon fill="midnightblue" stroke="midnightblue" points="1361.11,-277.708 1361.87,-267.141 1354.68,-274.925 1361.11,-277.708"/>
</g>
<!-- Node41&#45;&gt;Node11 -->
<g id="edge64" class="edge"><title>Node41&#45;&gt;Node11</title>
<path fill="none" stroke="midnightblue" d="M1357.25,-236.813C1339.24,-213.044 1303.05,-165.288 1283.77,-139.85"/>
<polygon fill="midnightblue" stroke="midnightblue" points="1286.33,-137.43 1277.5,-131.574 1280.75,-141.658 1286.33,-137.43"/>
</g>
<!-- Node41&#45;&gt;Node34 -->
<g id="edge66" class="edge"><title>Node41&#45;&gt;Node34</title>
<path fill="none" stroke="midnightblue" d="M1346.95,-236.679C1330.69,-225.611 1308.28,-210.363 1292.02,-199.3"/>
<polygon fill="midnightblue" stroke="midnightblue" points="1293.93,-196.37 1283.7,-193.638 1289.99,-202.157 1293.93,-196.37"/>
</g>
<!-- Node42 -->
<g id="node42" class="node"><title>Node42</title>
<polygon fill="white" stroke="#bfbfbf" points="1349,-174.5 1349,-193.5 1437,-193.5 1437,-174.5 1349,-174.5"/>
<text text-anchor="middle" x="1393" y="-181.5" font-family="Helvetica,sans-Serif" font-size="10.00">Eigen/StdVector</text>
</g>
<!-- Node41&#45;&gt;Node42 -->
<g id="edge65" class="edge"><title>Node41&#45;&gt;Node42</title>
<path fill="none" stroke="midnightblue" d="M1373.42,-236.679C1377.13,-226.898 1382.07,-213.852 1386.06,-203.315"/>
<polygon fill="midnightblue" stroke="midnightblue" points="1389.39,-204.42 1389.66,-193.828 1382.84,-201.94 1389.39,-204.42"/>
</g>
<!-- Node43&#45;&gt;Node17 -->
<g id="edge74" class="edge"><title>Node43&#45;&gt;Node17</title>
<path fill="none" stroke="midnightblue" d="M1538.87,-304.202C1555.44,-283 1597.77,-228.814 1619.18,-201.405"/>
<polygon fill="midnightblue" stroke="midnightblue" points="1621.94,-203.557 1625.34,-193.522 1616.43,-199.248 1621.94,-203.557"/>
</g>
<!-- Node43&#45;&gt;Node39 -->
<g id="edge73" class="edge"><title>Node43&#45;&gt;Node39</title>
<path fill="none" stroke="midnightblue" d="M1515.63,-323.516C1494.97,-332.506 1459.31,-346.754 1432.2,-356.906"/>
<polygon fill="midnightblue" stroke="midnightblue" points="1430.8,-353.69 1422.64,-360.444 1433.23,-360.255 1430.8,-353.69"/>
</g>
</g>
</svg>
