<?xml version="1.0" encoding="UTF-8" standalone="no"?>
<!DOCTYPE svg PUBLIC "-//W3C//DTD SVG 1.1//EN"
 "http://www.w3.org/Graphics/SVG/1.1/DTD/svg11.dtd">
<!-- Generated by graphviz version 2.36.0 (20140111.2315)
 -->
<!-- Title: /home/travis/build/STORM&#45;IRIT/Radium&#45;Engine/src/Core/Mesh/TriangleMesh.hpp Pages: 1 -->
<svg width="2024pt" height="454pt"
 viewBox="0.00 0.00 2024.00 454.00" xmlns="http://www.w3.org/2000/svg" xmlns:xlink="http://www.w3.org/1999/xlink">
<g id="graph0" class="graph" transform="scale(1 1) rotate(0) translate(4 450)">
<title>/home/travis/build/STORM&#45;IRIT/Radium&#45;Engine/src/Core/Mesh/TriangleMesh.hpp</title>
<polygon fill="white" stroke="none" points="-4,4 -4,-450 2020,-450 2020,4 -4,4"/>
<!-- Node1 -->
<g id="node1" class="node"><title>Node1</title>
<polygon fill="#bfbfbf" stroke="black" points="1236,-404.5 1236,-445.5 1400,-445.5 1400,-404.5 1236,-404.5"/>
<text text-anchor="start" x="1244" y="-433.5" font-family="Helvetica,sans-Serif" font-size="10.00">/home/travis/build</text>
<text text-anchor="start" x="1244" y="-422.5" font-family="Helvetica,sans-Serif" font-size="10.00">/STORM&#45;IRIT/Radium&#45;Engine</text>
<text text-anchor="middle" x="1318" y="-411.5" font-family="Helvetica,sans-Serif" font-size="10.00">/src/Core/Mesh/TriangleMesh.hpp</text>
</g>
<!-- Node2 -->
<g id="node2" class="node"><title>Node2</title>
<g id="a_node2"><a xlink:href="VectorArray_8hpp.html" target="_top" xlink:title="Core/Containers/VectorArray.hpp">
<polygon fill="white" stroke="black" points="879.5,-292.5 879.5,-311.5 1040.5,-311.5 1040.5,-292.5 879.5,-292.5"/>
<text text-anchor="middle" x="960" y="-299.5" font-family="Helvetica,sans-Serif" font-size="10.00">Core/Containers/VectorArray.hpp</text>
</a>
</g>
</g>
<!-- Node1&#45;&gt;Node2 -->
<g id="edge1" class="edge"><title>Node1&#45;&gt;Node2</title>
<path fill="none" stroke="midnightblue" d="M1260.08,-404.425C1185.1,-379.081 1056.75,-335.701 995.09,-314.86"/>
<polygon fill="midnightblue" stroke="midnightblue" points="996.027,-311.482 985.433,-311.596 993.785,-318.114 996.027,-311.482"/>
</g>
<!-- Node4 -->
<g id="node4" class="node"><title>Node4</title>
<g id="a_node4"><a xlink:href="RaCore_8hpp.html" target="_top" xlink:title="Core/RaCore.hpp">
<polygon fill="white" stroke="black" points="1118.5,-112.5 1118.5,-131.5 1211.5,-131.5 1211.5,-112.5 1118.5,-112.5"/>
<text text-anchor="middle" x="1165" y="-119.5" font-family="Helvetica,sans-Serif" font-size="10.00">Core/RaCore.hpp</text>
</a>
</g>
</g>
<!-- Node1&#45;&gt;Node4 -->
<g id="edge35" class="edge"><title>Node1&#45;&gt;Node4</title>
<path fill="none" stroke="midnightblue" d="M1400.1,-422.146C1549.14,-416.535 1849,-393.946 1849,-303 1849,-303 1849,-303 1849,-245 1849,-190.65 1804.5,-188.093 1754,-168 1658.3,-129.923 1350.2,-123.895 1221.9,-123.064"/>
<polygon fill="midnightblue" stroke="midnightblue" points="1221.53,-119.562 1211.51,-123.006 1221.49,-126.562 1221.53,-119.562"/>
</g>
<!-- Node13 -->
<g id="node13" class="node"><title>Node13</title>
<g id="a_node13"><a xlink:href="LinearAlgebra_8hpp.html" target="_top" xlink:title="Core/Math/LinearAlgebra.hpp">
<polygon fill="white" stroke="black" points="619.5,-236.5 619.5,-255.5 762.5,-255.5 762.5,-236.5 619.5,-236.5"/>
<text text-anchor="middle" x="691" y="-243.5" font-family="Helvetica,sans-Serif" font-size="10.00">Core/Math/LinearAlgebra.hpp</text>
</a>
</g>
</g>
<!-- Node1&#45;&gt;Node13 -->
<g id="edge28" class="edge"><title>Node1&#45;&gt;Node13</title>
<path fill="none" stroke="midnightblue" d="M1235.96,-406.197C1145.58,-385.959 996.293,-350.677 870,-312 817.346,-295.875 757.436,-273.218 722,-259.354"/>
<polygon fill="midnightblue" stroke="midnightblue" points="722.839,-255.923 712.252,-255.52 720.277,-262.437 722.839,-255.923"/>
</g>
<!-- Node24 -->
<g id="node24" class="node"><title>Node24</title>
<g id="a_node24"><a xlink:href="MeshTypes_8hpp.html" target="_top" xlink:title="Core/Mesh/MeshTypes.hpp">
<polygon fill="white" stroke="black" points="1058.5,-292.5 1058.5,-311.5 1195.5,-311.5 1195.5,-292.5 1058.5,-292.5"/>
<text text-anchor="middle" x="1127" y="-299.5" font-family="Helvetica,sans-Serif" font-size="10.00">Core/Mesh/MeshTypes.hpp</text>
</a>
</g>
</g>
<!-- Node1&#45;&gt;Node24 -->
<g id="edge29" class="edge"><title>Node1&#45;&gt;Node24</title>
<path fill="none" stroke="midnightblue" d="M1286.89,-404.29C1248.24,-379.805 1183.25,-338.637 1149.26,-317.099"/>
<polygon fill="midnightblue" stroke="midnightblue" points="1150.86,-313.97 1140.54,-311.575 1147.11,-319.883 1150.86,-313.97"/>
</g>
<!-- Node28 -->
<g id="node28" class="node"><title>Node28</title>
<g id="a_node28"><a xlink:href="Attribs_8hpp.html" target="_top" xlink:title="Core/Utils/Attribs.hpp">
<polygon fill="white" stroke="black" points="1262.5,-348.5 1262.5,-367.5 1373.5,-367.5 1373.5,-348.5 1262.5,-348.5"/>
<text text-anchor="middle" x="1318" y="-355.5" font-family="Helvetica,sans-Serif" font-size="10.00">Core/Utils/Attribs.hpp</text>
</a>
</g>
</g>
<!-- Node1&#45;&gt;Node28 -->
<g id="edge36" class="edge"><title>Node1&#45;&gt;Node28</title>
<path fill="none" stroke="midnightblue" d="M1318,-404.498C1318,-396.065 1318,-386.235 1318,-377.874"/>
<polygon fill="midnightblue" stroke="midnightblue" points="1321.5,-377.652 1318,-367.652 1314.5,-377.653 1321.5,-377.652"/>
</g>
<!-- Node38 -->
<g id="node38" class="node"><title>Node38</title>
<g id="a_node38"><a xlink:href="TriangleMesh_8inl.html" target="_top" xlink:title="Core/Mesh/TriangleMesh.inl">
<polygon fill="white" stroke="black" points="1877.5,-348.5 1877.5,-367.5 2016.5,-367.5 2016.5,-348.5 1877.5,-348.5"/>
<text text-anchor="middle" x="1947" y="-355.5" font-family="Helvetica,sans-Serif" font-size="10.00">Core/Mesh/TriangleMesh.inl</text>
</a>
</g>
</g>
<!-- Node1&#45;&gt;Node38 -->
<g id="edge57" class="edge"><title>Node1&#45;&gt;Node38</title>
<path fill="none" stroke="midnightblue" d="M1400.38,-415.001C1505.62,-404.034 1693.19,-384.877 1854,-368 1858.18,-367.561 1862.49,-367.107 1866.84,-366.648"/>
<polygon fill="midnightblue" stroke="midnightblue" points="1867.48,-370.1 1877.06,-365.569 1866.74,-363.138 1867.48,-370.1"/>
</g>
<!-- Node3 -->
<g id="node3" class="node"><title>Node3</title>
<g id="a_node3"><a xlink:href="AlignedStdVector_8hpp.html" target="_top" xlink:title="Core/Containers/AlignedStd\lVector.hpp">
<polygon fill="white" stroke="black" points="847,-169 847,-199 985,-199 985,-169 847,-169"/>
<text text-anchor="start" x="855" y="-187" font-family="Helvetica,sans-Serif" font-size="10.00">Core/Containers/AlignedStd</text>
<text text-anchor="middle" x="916" y="-176" font-family="Helvetica,sans-Serif" font-size="10.00">Vector.hpp</text>
</a>
</g>
</g>
<!-- Node2&#45;&gt;Node3 -->
<g id="edge2" class="edge"><title>Node2&#45;&gt;Node3</title>
<path fill="none" stroke="midnightblue" d="M956.693,-292.281C950.024,-274.698 934.762,-234.463 924.941,-208.572"/>
<polygon fill="midnightblue" stroke="midnightblue" points="928.17,-207.215 921.351,-199.106 921.625,-209.697 928.17,-207.215"/>
</g>
<!-- Node2&#45;&gt;Node4 -->
<g id="edge26" class="edge"><title>Node2&#45;&gt;Node4</title>
<path fill="none" stroke="midnightblue" d="M969.888,-292.415C1002.21,-264.348 1105.08,-175.029 1146.98,-138.647"/>
<polygon fill="midnightblue" stroke="midnightblue" points="1149.47,-141.118 1154.73,-131.918 1144.88,-135.832 1149.47,-141.118"/>
</g>
<!-- Node12 -->
<g id="node12" class="node"><title>Node12</title>
<polygon fill="white" stroke="#bfbfbf" points="1040,-112.5 1040,-131.5 1084,-131.5 1084,-112.5 1040,-112.5"/>
<text text-anchor="middle" x="1062" y="-119.5" font-family="Helvetica,sans-Serif" font-size="10.00">vector</text>
</g>
<!-- Node2&#45;&gt;Node12 -->
<g id="edge27" class="edge"><title>Node2&#45;&gt;Node12</title>
<path fill="none" stroke="midnightblue" d="M964.92,-292.415C980.701,-264.875 1030.27,-178.363 1051.83,-140.753"/>
<polygon fill="midnightblue" stroke="midnightblue" points="1054.95,-142.335 1056.89,-131.918 1048.88,-138.855 1054.95,-142.335"/>
</g>
<!-- Node2&#45;&gt;Node13 -->
<g id="edge12" class="edge"><title>Node2&#45;&gt;Node13</title>
<path fill="none" stroke="midnightblue" d="M917.376,-292.444C870.253,-282.984 794.308,-267.738 743.541,-257.547"/>
<polygon fill="midnightblue" stroke="midnightblue" points="743.918,-254.053 733.424,-255.516 742.54,-260.916 743.918,-254.053"/>
</g>
<!-- Node3&#45;&gt;Node4 -->
<g id="edge3" class="edge"><title>Node3&#45;&gt;Node4</title>
<path fill="none" stroke="midnightblue" d="M974.379,-168.933C1018.77,-158.236 1078.96,-143.732 1119.74,-133.905"/>
<polygon fill="midnightblue" stroke="midnightblue" points="1120.77,-137.258 1129.67,-131.513 1119.13,-130.453 1120.77,-137.258"/>
</g>
<!-- Node11 -->
<g id="node11" class="node"><title>Node11</title>
<polygon fill="white" stroke="#bfbfbf" points="860,-112.5 860,-131.5 948,-131.5 948,-112.5 860,-112.5"/>
<text text-anchor="middle" x="904" y="-119.5" font-family="Helvetica,sans-Serif" font-size="10.00">Eigen/StdVector</text>
</g>
<!-- Node3&#45;&gt;Node11 -->
<g id="edge10" class="edge"><title>Node3&#45;&gt;Node11</title>
<path fill="none" stroke="midnightblue" d="M913.156,-168.781C911.538,-160.691 909.492,-150.462 907.745,-141.725"/>
<polygon fill="midnightblue" stroke="midnightblue" points="911.139,-140.85 905.746,-131.731 904.275,-142.223 911.139,-140.85"/>
</g>
<!-- Node3&#45;&gt;Node12 -->
<g id="edge11" class="edge"><title>Node3&#45;&gt;Node12</title>
<path fill="none" stroke="midnightblue" d="M950.231,-168.933C974.862,-158.81 1007.79,-145.278 1031.52,-135.527"/>
<polygon fill="midnightblue" stroke="midnightblue" points="1033.15,-138.639 1041.07,-131.6 1030.49,-132.164 1033.15,-138.639"/>
</g>
<!-- Node5 -->
<g id="node5" class="node"><title>Node5</title>
<g id="a_node5"><a xlink:href="CoreMacros_8hpp.html" target="_top" xlink:title="Core/CoreMacros.hpp">
<polygon fill="white" stroke="black" points="1253.5,-56.5 1253.5,-75.5 1366.5,-75.5 1366.5,-56.5 1253.5,-56.5"/>
<text text-anchor="middle" x="1310" y="-63.5" font-family="Helvetica,sans-Serif" font-size="10.00">Core/CoreMacros.hpp</text>
</a>
</g>
</g>
<!-- Node4&#45;&gt;Node5 -->
<g id="edge4" class="edge"><title>Node4&#45;&gt;Node5</title>
<path fill="none" stroke="midnightblue" d="M1187.98,-112.444C1212.16,-103.438 1250.42,-89.1891 1277.65,-79.049"/>
<polygon fill="midnightblue" stroke="midnightblue" points="1278.98,-82.2864 1287.13,-75.5164 1276.54,-75.7265 1278.98,-82.2864"/>
</g>
<!-- Node6 -->
<g id="node6" class="node"><title>Node6</title>
<polygon fill="white" stroke="#bfbfbf" points="1318.5,-0.5 1318.5,-19.5 1367.5,-19.5 1367.5,-0.5 1318.5,-0.5"/>
<text text-anchor="middle" x="1343" y="-7.5" font-family="Helvetica,sans-Serif" font-size="10.00">cassert</text>
</g>
<!-- Node5&#45;&gt;Node6 -->
<g id="edge5" class="edge"><title>Node5&#45;&gt;Node6</title>
<path fill="none" stroke="midnightblue" d="M1315.45,-56.083C1320.01,-48.6127 1326.67,-37.7244 1332.29,-28.5199"/>
<polygon fill="midnightblue" stroke="midnightblue" points="1335.42,-30.109 1337.65,-19.7511 1329.45,-26.4588 1335.42,-30.109"/>
</g>
<!-- Node7 -->
<g id="node7" class="node"><title>Node7</title>
<polygon fill="white" stroke="#bfbfbf" points="1385.5,-0.5 1385.5,-19.5 1428.5,-19.5 1428.5,-0.5 1385.5,-0.5"/>
<text text-anchor="middle" x="1407" y="-7.5" font-family="Helvetica,sans-Serif" font-size="10.00">cstdio</text>
</g>
<!-- Node5&#45;&gt;Node7 -->
<g id="edge6" class="edge"><title>Node5&#45;&gt;Node7</title>
<path fill="none" stroke="midnightblue" d="M1325.58,-56.324C1341,-47.7428 1364.81,-34.486 1382.71,-24.5224"/>
<polygon fill="midnightblue" stroke="midnightblue" points="1384.42,-27.5767 1391.45,-19.6545 1381.01,-21.4606 1384.42,-27.5767"/>
</g>
<!-- Node8 -->
<g id="node8" class="node"><title>Node8</title>
<polygon fill="white" stroke="#bfbfbf" points="1184,-0.5 1184,-19.5 1238,-19.5 1238,-0.5 1184,-0.5"/>
<text text-anchor="middle" x="1211" y="-7.5" font-family="Helvetica,sans-Serif" font-size="10.00">iostream</text>
</g>
<!-- Node5&#45;&gt;Node8 -->
<g id="edge7" class="edge"><title>Node5&#45;&gt;Node8</title>
<path fill="none" stroke="midnightblue" d="M1294.09,-56.324C1278.36,-47.7428 1254.06,-34.486 1235.79,-24.5224"/>
<polygon fill="midnightblue" stroke="midnightblue" points="1237.32,-21.3704 1226.87,-19.6545 1233.97,-27.5157 1237.32,-21.3704"/>
</g>
<!-- Node9 -->
<g id="node9" class="node"><title>Node9</title>
<polygon fill="white" stroke="#bfbfbf" points="1560,-0.5 1560,-19.5 1612,-19.5 1612,-0.5 1560,-0.5"/>
<text text-anchor="middle" x="1586" y="-7.5" font-family="Helvetica,sans-Serif" font-size="10.00">sstream</text>
</g>
<!-- Node5&#45;&gt;Node9 -->
<g id="edge8" class="edge"><title>Node5&#45;&gt;Node9</title>
<path fill="none" stroke="midnightblue" d="M1353.73,-56.4435C1407.94,-45.8375 1499.32,-27.9584 1549.79,-18.0842"/>
<polygon fill="midnightblue" stroke="midnightblue" points="1550.77,-21.4592 1559.91,-16.1041 1549.43,-14.5894 1550.77,-21.4592"/>
</g>
<!-- Node10 -->
<g id="node10" class="node"><title>Node10</title>
<polygon fill="white" stroke="#bfbfbf" points="1256,-0.5 1256,-19.5 1300,-19.5 1300,-0.5 1256,-0.5"/>
<text text-anchor="middle" x="1278" y="-7.5" font-family="Helvetica,sans-Serif" font-size="10.00">thread</text>
</g>
<!-- Node5&#45;&gt;Node10 -->
<g id="edge9" class="edge"><title>Node5&#45;&gt;Node10</title>
<path fill="none" stroke="midnightblue" d="M1304.72,-56.083C1300.29,-48.6127 1293.84,-37.7244 1288.38,-28.5199"/>
<polygon fill="midnightblue" stroke="midnightblue" points="1291.29,-26.5697 1283.19,-19.7511 1285.27,-30.1383 1291.29,-26.5697"/>
</g>
<!-- Node13&#45;&gt;Node4 -->
<g id="edge13" class="edge"><title>Node13&#45;&gt;Node4</title>
<path fill="none" stroke="midnightblue" d="M762.599,-239.961C824.763,-234.271 916.687,-222.673 994,-200 1022.71,-191.581 1098.32,-155.571 1138.7,-135.921"/>
<polygon fill="midnightblue" stroke="midnightblue" points="1140.24,-139.064 1147.69,-131.532 1137.17,-132.773 1140.24,-139.064"/>
</g>
<!-- Node14 -->
<g id="node14" class="node"><title>Node14</title>
<polygon fill="white" stroke="#bfbfbf" points="658.5,-174.5 658.5,-193.5 723.5,-193.5 723.5,-174.5 658.5,-174.5"/>
<text text-anchor="middle" x="691" y="-181.5" font-family="Helvetica,sans-Serif" font-size="10.00">Eigen/Core</text>
</g>
<!-- Node13&#45;&gt;Node14 -->
<g id="edge14" class="edge"><title>Node13&#45;&gt;Node14</title>
<path fill="none" stroke="midnightblue" d="M691,-236.403C691,-227.938 691,-214.728 691,-203.82"/>
<polygon fill="midnightblue" stroke="midnightblue" points="694.5,-203.581 691,-193.581 687.5,-203.581 694.5,-203.581"/>
</g>
<!-- Node15 -->
<g id="node15" class="node"><title>Node15</title>
<polygon fill="white" stroke="#bfbfbf" points="741.5,-174.5 741.5,-193.5 828.5,-193.5 828.5,-174.5 741.5,-174.5"/>
<text text-anchor="middle" x="785" y="-181.5" font-family="Helvetica,sans-Serif" font-size="10.00">Eigen/Geometry</text>
</g>
<!-- Node13&#45;&gt;Node15 -->
<g id="edge15" class="edge"><title>Node13&#45;&gt;Node15</title>
<path fill="none" stroke="midnightblue" d="M704.468,-236.403C719.685,-226.691 744.687,-210.732 762.801,-199.17"/>
<polygon fill="midnightblue" stroke="midnightblue" points="765.011,-201.911 771.557,-193.581 761.245,-196.011 765.011,-201.911"/>
</g>
<!-- Node16 -->
<g id="node16" class="node"><title>Node16</title>
<polygon fill="white" stroke="#bfbfbf" points="182.5,-174.5 182.5,-193.5 257.5,-193.5 257.5,-174.5 182.5,-174.5"/>
<text text-anchor="middle" x="220" y="-181.5" font-family="Helvetica,sans-Serif" font-size="10.00">Eigen/Sparse</text>
</g>
<!-- Node13&#45;&gt;Node16 -->
<g id="edge16" class="edge"><title>Node13&#45;&gt;Node16</title>
<path fill="none" stroke="midnightblue" d="M619.219,-241.992C534.136,-237.374 388.448,-226.144 266,-200 261.749,-199.092 257.337,-197.939 253.002,-196.676"/>
<polygon fill="midnightblue" stroke="midnightblue" points="253.731,-193.236 243.142,-193.594 251.643,-199.918 253.731,-193.236"/>
</g>
<!-- Node17 -->
<g id="node17" class="node"><title>Node17</title>
<polygon fill="white" stroke="#bfbfbf" points="275.5,-174.5 275.5,-193.5 334.5,-193.5 334.5,-174.5 275.5,-174.5"/>
<text text-anchor="middle" x="305" y="-181.5" font-family="Helvetica,sans-Serif" font-size="10.00">functional</text>
</g>
<!-- Node13&#45;&gt;Node17 -->
<g id="edge17" class="edge"><title>Node13&#45;&gt;Node17</title>
<path fill="none" stroke="midnightblue" d="M619.374,-240.928C548.324,-235.681 436.796,-224.178 343,-200 339.939,-199.211 336.793,-198.242 333.683,-197.18"/>
<polygon fill="midnightblue" stroke="midnightblue" points="334.617,-193.793 324.025,-193.575 332.17,-200.351 334.617,-193.793"/>
</g>
<!-- Node18 -->
<g id="node18" class="node"><title>Node18</title>
<polygon fill="white" stroke="#bfbfbf" points="352.5,-169 352.5,-199 485.5,-199 485.5,-169 352.5,-169"/>
<text text-anchor="start" x="360.5" y="-187" font-family="Helvetica,sans-Serif" font-size="10.00">unsupported/Eigen/Aligned</text>
<text text-anchor="middle" x="419" y="-176" font-family="Helvetica,sans-Serif" font-size="10.00">Vector3</text>
</g>
<!-- Node13&#45;&gt;Node18 -->
<g id="edge18" class="edge"><title>Node13&#45;&gt;Node18</title>
<path fill="none" stroke="midnightblue" d="M652.318,-236.467C610.93,-227.337 544.29,-212.638 492.806,-201.281"/>
<polygon fill="midnightblue" stroke="midnightblue" points="493.242,-197.793 482.723,-199.057 491.734,-204.629 493.242,-197.793"/>
</g>
<!-- Node19 -->
<g id="node19" class="node"><title>Node19</title>
<g id="a_node19"><a xlink:href="Math_8hpp.html" target="_top" xlink:title="Core/Math/Math.hpp">
<polygon fill="white" stroke="black" points="59,-174.5 59,-193.5 165,-193.5 165,-174.5 59,-174.5"/>
<text text-anchor="middle" x="112" y="-181.5" font-family="Helvetica,sans-Serif" font-size="10.00">Core/Math/Math.hpp</text>
</a>
</g>
</g>
<!-- Node13&#45;&gt;Node19 -->
<g id="edge19" class="edge"><title>Node13&#45;&gt;Node19</title>
<path fill="none" stroke="midnightblue" d="M619.343,-242.275C518.975,-237.666 331.081,-226.142 173,-200 166.349,-198.9 159.354,-197.457 152.568,-195.9"/>
<polygon fill="midnightblue" stroke="midnightblue" points="153.381,-192.496 142.84,-193.565 151.747,-199.303 153.381,-192.496"/>
</g>
<!-- Node23 -->
<g id="node23" class="node"><title>Node23</title>
<g id="a_node23"><a xlink:href="LinearAlgebra_8inl.html" target="_top" xlink:title="Core/Math/LinearAlgebra.inl">
<polygon fill="white" stroke="black" points="503.5,-174.5 503.5,-193.5 640.5,-193.5 640.5,-174.5 503.5,-174.5"/>
<text text-anchor="middle" x="572" y="-181.5" font-family="Helvetica,sans-Serif" font-size="10.00">Core/Math/LinearAlgebra.inl</text>
</a>
</g>
</g>
<!-- Node13&#45;&gt;Node23 -->
<g id="edge25" class="edge"><title>Node13&#45;&gt;Node23</title>
<path fill="none" stroke="midnightblue" d="M673.95,-236.403C654.156,-226.423 621.283,-209.849 598.23,-198.225"/>
<polygon fill="midnightblue" stroke="midnightblue" points="599.523,-194.958 589.018,-193.581 596.372,-201.208 599.523,-194.958"/>
</g>
<!-- Node19&#45;&gt;Node4 -->
<g id="edge20" class="edge"><title>Node19&#45;&gt;Node4</title>
<path fill="none" stroke="midnightblue" d="M141.551,-174.46C151.463,-171.937 162.633,-169.462 173,-168 577.751,-110.906 684.58,-165.037 1092,-132 1097.2,-131.579 1102.59,-131.063 1107.99,-130.493"/>
<polygon fill="midnightblue" stroke="midnightblue" points="1108.78,-133.928 1118.33,-129.343 1108,-126.971 1108.78,-133.928"/>
</g>
<!-- Node20 -->
<g id="node20" class="node"><title>Node20</title>
<polygon fill="white" stroke="#bfbfbf" points="966,-112.5 966,-131.5 1022,-131.5 1022,-112.5 966,-112.5"/>
<text text-anchor="middle" x="994" y="-119.5" font-family="Helvetica,sans-Serif" font-size="10.00">algorithm</text>
</g>
<!-- Node19&#45;&gt;Node20 -->
<g id="edge21" class="edge"><title>Node19&#45;&gt;Node20</title>
<path fill="none" stroke="midnightblue" d="M141.867,-174.422C151.702,-171.93 162.746,-169.482 173,-168 517.785,-118.17 611.004,-180.354 956,-132 956.101,-131.986 956.202,-131.972 956.303,-131.957"/>
<polygon fill="midnightblue" stroke="midnightblue" points="956.645,-135.451 965.889,-130.275 955.435,-128.556 956.645,-135.451"/>
</g>
<!-- Node21 -->
<g id="node21" class="node"><title>Node21</title>
<polygon fill="white" stroke="#bfbfbf" points="0,-112.5 0,-131.5 44,-131.5 44,-112.5 0,-112.5"/>
<text text-anchor="middle" x="22" y="-119.5" font-family="Helvetica,sans-Serif" font-size="10.00">cmath</text>
</g>
<!-- Node19&#45;&gt;Node21 -->
<g id="edge22" class="edge"><title>Node19&#45;&gt;Node21</title>
<path fill="none" stroke="midnightblue" d="M99.1052,-174.403C84.5358,-164.691 60.5978,-148.732 43.2546,-137.17"/>
<polygon fill="midnightblue" stroke="midnightblue" points="45.1329,-134.215 34.8709,-131.581 41.2499,-140.04 45.1329,-134.215"/>
</g>
<!-- Node22 -->
<g id="node22" class="node"><title>Node22</title>
<g id="a_node22"><a xlink:href="Math_8inl.html" target="_top" xlink:title="Core/Math/Math.inl">
<polygon fill="white" stroke="black" points="62,-112.5 62,-131.5 162,-131.5 162,-112.5 62,-112.5"/>
<text text-anchor="middle" x="112" y="-119.5" font-family="Helvetica,sans-Serif" font-size="10.00">Core/Math/Math.inl</text>
</a>
</g>
</g>
<!-- Node19&#45;&gt;Node22 -->
<g id="edge23" class="edge"><title>Node19&#45;&gt;Node22</title>
<path fill="none" stroke="midnightblue" d="M107.099,-174.403C105.268,-165.938 104.797,-152.728 105.685,-141.82"/>
<polygon fill="midnightblue" stroke="midnightblue" points="109.198,-141.966 107.103,-131.581 102.264,-141.006 109.198,-141.966"/>
</g>
<!-- Node22&#45;&gt;Node19 -->
<g id="edge24" class="edge"><title>Node22&#45;&gt;Node19</title>
<path fill="none" stroke="midnightblue" d="M116.897,-131.581C118.73,-140.04 119.203,-153.248 118.317,-164.16"/>
<polygon fill="midnightblue" stroke="midnightblue" points="114.803,-164.018 116.901,-174.403 121.737,-164.977 114.803,-164.018"/>
</g>
<!-- Node24&#45;&gt;Node4 -->
<g id="edge34" class="edge"><title>Node24&#45;&gt;Node4</title>
<path fill="none" stroke="midnightblue" d="M1128.2,-292.207C1131.22,-270.787 1139.67,-214.264 1151,-168 1153.19,-159.048 1156.16,-149.262 1158.81,-141.109"/>
<polygon fill="midnightblue" stroke="midnightblue" points="1162.16,-142.132 1162,-131.539 1155.52,-139.918 1162.16,-142.132"/>
</g>
<!-- Node24&#45;&gt;Node13 -->
<g id="edge33" class="edge"><title>Node24&#45;&gt;Node13</title>
<path fill="none" stroke="midnightblue" d="M1058.4,-292.503C980.124,-282.809 852.345,-266.983 769.985,-256.783"/>
<polygon fill="midnightblue" stroke="midnightblue" points="770.278,-253.292 759.924,-255.536 769.418,-260.239 770.278,-253.292"/>
</g>
<!-- Node25 -->
<g id="node25" class="node"><title>Node25</title>
<g id="a_node25"><a xlink:href="Index_8hpp.html" target="_top" xlink:title="Core/Index/Index.hpp">
<polygon fill="white" stroke="black" points="1193,-236.5 1193,-255.5 1303,-255.5 1303,-236.5 1193,-236.5"/>
<text text-anchor="middle" x="1248" y="-243.5" font-family="Helvetica,sans-Serif" font-size="10.00">Core/Index/Index.hpp</text>
</a>
</g>
</g>
<!-- Node24&#45;&gt;Node25 -->
<g id="edge30" class="edge"><title>Node24&#45;&gt;Node25</title>
<path fill="none" stroke="midnightblue" d="M1146.17,-292.444C1165.91,-283.636 1196.89,-269.812 1219.49,-259.722"/>
<polygon fill="midnightblue" stroke="midnightblue" points="1221.21,-262.788 1228.92,-255.516 1218.36,-256.396 1221.21,-262.788"/>
</g>
<!-- Node26 -->
<g id="node26" class="node"><title>Node26</title>
<polygon fill="white" stroke="#bfbfbf" points="1193,-174.5 1193,-193.5 1233,-193.5 1233,-174.5 1193,-174.5"/>
<text text-anchor="middle" x="1213" y="-181.5" font-family="Helvetica,sans-Serif" font-size="10.00">limits</text>
</g>
<!-- Node25&#45;&gt;Node26 -->
<g id="edge31" class="edge"><title>Node25&#45;&gt;Node26</title>
<path fill="none" stroke="midnightblue" d="M1242.99,-236.403C1237.84,-227.582 1229.69,-213.608 1223.18,-202.455"/>
<polygon fill="midnightblue" stroke="midnightblue" points="1226.07,-200.455 1218.01,-193.581 1220.02,-203.982 1226.07,-200.455"/>
</g>
<!-- Node27 -->
<g id="node27" class="node"><title>Node27</title>
<g id="a_node27"><a xlink:href="Index_8inl.html" target="_top" xlink:title="Core/Index/Index.inl">
<polygon fill="white" stroke="black" points="1251,-174.5 1251,-193.5 1355,-193.5 1355,-174.5 1251,-174.5"/>
<text text-anchor="middle" x="1303" y="-181.5" font-family="Helvetica,sans-Serif" font-size="10.00">Core/Index/Index.inl</text>
</a>
</g>
</g>
<!-- Node25&#45;&gt;Node27 -->
<g id="edge32" class="edge"><title>Node25&#45;&gt;Node27</title>
<path fill="none" stroke="midnightblue" d="M1255.88,-236.403C1264.29,-227.225 1277.82,-212.47 1288.23,-201.117"/>
<polygon fill="midnightblue" stroke="midnightblue" points="1290.96,-203.317 1295.13,-193.581 1285.8,-198.587 1290.96,-203.317"/>
</g>
<!-- Node28&#45;&gt;Node2 -->
<g id="edge37" class="edge"><title>Node28&#45;&gt;Node2</title>
<path fill="none" stroke="midnightblue" d="M1262.46,-348.622C1198.85,-339.027 1094.69,-323.316 1026.73,-313.066"/>
<polygon fill="midnightblue" stroke="midnightblue" points="1026.97,-309.562 1016.56,-311.532 1025.93,-316.484 1026.97,-309.562"/>
</g>
<!-- Node28&#45;&gt;Node4 -->
<g id="edge56" class="edge"><title>Node28&#45;&gt;Node4</title>
<path fill="none" stroke="midnightblue" d="M1298.63,-348.479C1268.56,-334.14 1211.26,-302.156 1184,-256 1162.62,-219.798 1161.93,-168.64 1163.39,-141.534"/>
<polygon fill="midnightblue" stroke="midnightblue" points="1166.89,-141.725 1164.1,-131.504 1159.9,-141.234 1166.89,-141.725"/>
</g>
<!-- Node29 -->
<g id="node29" class="node"><title>Node29</title>
<g id="a_node29"><a xlink:href="IndexMap_8hpp.html" target="_top" xlink:title="Core/Index/IndexMap.hpp">
<polygon fill="white" stroke="black" points="1347.5,-292.5 1347.5,-311.5 1476.5,-311.5 1476.5,-292.5 1347.5,-292.5"/>
<text text-anchor="middle" x="1412" y="-299.5" font-family="Helvetica,sans-Serif" font-size="10.00">Core/Index/IndexMap.hpp</text>
</a>
</g>
</g>
<!-- Node28&#45;&gt;Node29 -->
<g id="edge38" class="edge"><title>Node28&#45;&gt;Node29</title>
<path fill="none" stroke="midnightblue" d="M1333.1,-348.324C1347.9,-339.822 1370.69,-326.729 1387.98,-316.797"/>
<polygon fill="midnightblue" stroke="midnightblue" points="1390.01,-319.671 1396.93,-311.655 1386.52,-313.601 1390.01,-319.671"/>
</g>
<!-- Node33 -->
<g id="node33" class="node"><title>Node33</title>
<g id="a_node33"><a xlink:href="Log_8hpp.html" target="_top" xlink:title="Core/Log/Log.hpp">
<polygon fill="white" stroke="black" points="1670,-236.5 1670,-255.5 1764,-255.5 1764,-236.5 1670,-236.5"/>
<text text-anchor="middle" x="1717" y="-243.5" font-family="Helvetica,sans-Serif" font-size="10.00">Core/Log/Log.hpp</text>
</a>
</g>
</g>
<!-- Node28&#45;&gt;Node33 -->
<g id="edge46" class="edge"><title>Node28&#45;&gt;Node33</title>
<path fill="none" stroke="midnightblue" d="M1350.04,-348.468C1383.68,-339.486 1438.09,-324.89 1485,-312 1552.5,-293.452 1630.88,-271.378 1677.08,-258.314"/>
<polygon fill="midnightblue" stroke="midnightblue" points="1678.33,-261.6 1686.99,-255.51 1676.42,-254.864 1678.33,-261.6"/>
</g>
<!-- Node29&#45;&gt;Node4 -->
<g id="edge39" class="edge"><title>Node29&#45;&gt;Node4</title>
<path fill="none" stroke="midnightblue" d="M1414.37,-292.428C1420.43,-268.38 1433.57,-199.954 1397,-168 1371.41,-145.639 1281.78,-133.374 1221.72,-127.502"/>
<polygon fill="midnightblue" stroke="midnightblue" points="1221.89,-124.003 1211.61,-126.547 1221.23,-130.972 1221.89,-124.003"/>
</g>
<!-- Node29&#45;&gt;Node20 -->
<g id="edge40" class="edge"><title>Node29&#45;&gt;Node20</title>
<path fill="none" stroke="midnightblue" d="M1391.78,-292.495C1377.23,-285.168 1358.7,-273.063 1350,-256 1332.01,-220.718 1390.46,-197.47 1364,-168 1316.17,-114.722 1120.08,-142.497 1032.12,-131.73"/>
<polygon fill="midnightblue" stroke="midnightblue" points="1032.61,-128.264 1022.2,-130.263 1031.58,-135.188 1032.61,-128.264"/>
</g>
<!-- Node29&#45;&gt;Node25 -->
<g id="edge43" class="edge"><title>Node29&#45;&gt;Node25</title>
<path fill="none" stroke="midnightblue" d="M1386.01,-292.444C1358.3,-283.32 1314.25,-268.813 1283.38,-258.651"/>
<polygon fill="midnightblue" stroke="midnightblue" points="1284.46,-255.32 1273.86,-255.516 1282.27,-261.968 1284.46,-255.32"/>
</g>
<!-- Node30 -->
<g id="node30" class="node"><title>Node30</title>
<polygon fill="white" stroke="#bfbfbf" points="1359,-236.5 1359,-255.5 1411,-255.5 1411,-236.5 1359,-236.5"/>
<text text-anchor="middle" x="1385" y="-243.5" font-family="Helvetica,sans-Serif" font-size="10.00">assert.h</text>
</g>
<!-- Node29&#45;&gt;Node30 -->
<g id="edge41" class="edge"><title>Node29&#45;&gt;Node30</title>
<path fill="none" stroke="midnightblue" d="M1407.54,-292.083C1403.85,-284.691 1398.48,-273.953 1393.91,-264.811"/>
<polygon fill="midnightblue" stroke="midnightblue" points="1396.98,-263.13 1389.38,-255.751 1390.72,-266.261 1396.98,-263.13"/>
</g>
<!-- Node31 -->
<g id="node31" class="node"><title>Node31</title>
<polygon fill="white" stroke="#bfbfbf" points="1467.5,-236.5 1467.5,-255.5 1510.5,-255.5 1510.5,-236.5 1467.5,-236.5"/>
<text text-anchor="middle" x="1489" y="-243.5" font-family="Helvetica,sans-Serif" font-size="10.00">deque</text>
</g>
<!-- Node29&#45;&gt;Node31 -->
<g id="edge42" class="edge"><title>Node29&#45;&gt;Node31</title>
<path fill="none" stroke="midnightblue" d="M1424.37,-292.324C1436.16,-284.058 1454.13,-271.453 1468.14,-261.632"/>
<polygon fill="midnightblue" stroke="midnightblue" points="1470.48,-264.262 1476.66,-255.655 1466.46,-258.531 1470.48,-264.262"/>
</g>
<!-- Node32 -->
<g id="node32" class="node"><title>Node32</title>
<g id="a_node32"><a xlink:href="IndexMap_8inl.html" target="_top" xlink:title="Core/Index/IndexMap.inl">
<polygon fill="white" stroke="black" points="1528.5,-236.5 1528.5,-255.5 1651.5,-255.5 1651.5,-236.5 1528.5,-236.5"/>
<text text-anchor="middle" x="1590" y="-243.5" font-family="Helvetica,sans-Serif" font-size="10.00">Core/Index/IndexMap.inl</text>
</a>
</g>
</g>
<!-- Node29&#45;&gt;Node32 -->
<g id="edge44" class="edge"><title>Node29&#45;&gt;Node32</title>
<path fill="none" stroke="midnightblue" d="M1435.12,-292.444C1463.43,-283.241 1511.64,-268.562 1546.84,-258.388"/>
<polygon fill="midnightblue" stroke="midnightblue" points="1548.2,-261.638 1556.85,-255.516 1546.27,-254.909 1548.2,-261.638"/>
</g>
<!-- Node32&#45;&gt;Node29 -->
<g id="edge45" class="edge"><title>Node32&#45;&gt;Node29</title>
<path fill="none" stroke="midnightblue" d="M1567.01,-255.516C1538.75,-264.703 1490.55,-279.381 1455.32,-289.568"/>
<polygon fill="midnightblue" stroke="midnightblue" points="1453.94,-286.321 1445.29,-292.444 1455.87,-293.05 1453.94,-286.321"/>
</g>
<!-- Node33&#45;&gt;Node4 -->
<g id="edge47" class="edge"><title>Node33&#45;&gt;Node4</title>
<path fill="none" stroke="midnightblue" d="M1669.84,-237.294C1605.26,-226.562 1495.31,-207.582 1478,-200 1456.18,-190.44 1456.92,-177.331 1435,-168 1365.44,-138.387 1278.05,-128.201 1221.87,-124.733"/>
<polygon fill="midnightblue" stroke="midnightblue" points="1221.93,-121.231 1211.75,-124.16 1221.54,-128.22 1221.93,-121.231"/>
</g>
<!-- Node33&#45;&gt;Node9 -->
<g id="edge48" class="edge"><title>Node33&#45;&gt;Node9</title>
<path fill="none" stroke="midnightblue" d="M1733.63,-236.464C1746.49,-228.841 1763.34,-216.356 1771,-200 1777.03,-187.121 1776.32,-181.189 1771,-168 1741.92,-95.942 1658.69,-46.2123 1614.45,-24.0465"/>
<polygon fill="midnightblue" stroke="midnightblue" points="1615.9,-20.8592 1605.38,-19.6145 1612.83,-27.1488 1615.9,-20.8592"/>
</g>
<!-- Node34 -->
<g id="node34" class="node"><title>Node34</title>
<polygon fill="white" stroke="#bfbfbf" points="1699,-174.5 1699,-193.5 1745,-193.5 1745,-174.5 1699,-174.5"/>
<text text-anchor="middle" x="1722" y="-181.5" font-family="Helvetica,sans-Serif" font-size="10.00">stdio.h</text>
</g>
<!-- Node33&#45;&gt;Node34 -->
<g id="edge49" class="edge"><title>Node33&#45;&gt;Node34</title>
<path fill="none" stroke="midnightblue" d="M1717.72,-236.403C1718.42,-227.938 1719.52,-214.728 1720.43,-203.82"/>
<polygon fill="midnightblue" stroke="midnightblue" points="1723.94,-203.837 1721.28,-193.581 1716.97,-203.255 1723.94,-203.837"/>
</g>
<!-- Node35 -->
<g id="node35" class="node"><title>Node35</title>
<polygon fill="white" stroke="#bfbfbf" points="1667.5,-112.5 1667.5,-131.5 1708.5,-131.5 1708.5,-112.5 1667.5,-112.5"/>
<text text-anchor="middle" x="1688" y="-119.5" font-family="Helvetica,sans-Serif" font-size="10.00">string</text>
</g>
<!-- Node33&#45;&gt;Node35 -->
<g id="edge50" class="edge"><title>Node33&#45;&gt;Node35</title>
<path fill="none" stroke="midnightblue" d="M1727.44,-236.245C1736.42,-227.969 1748.75,-214.663 1754,-200 1758.8,-186.611 1760.65,-180.574 1754,-168 1746.26,-153.356 1731.38,-142.581 1717.7,-135.252"/>
<polygon fill="midnightblue" stroke="midnightblue" points="1719.04,-132.012 1708.53,-130.724 1715.94,-138.289 1719.04,-132.012"/>
</g>
<!-- Node36 -->
<g id="node36" class="node"><title>Node36</title>
<g id="a_node36"><a xlink:href="StringUtils_8hpp.html" target="_top" xlink:title="Core/String/StringUtils.hpp">
<polygon fill="white" stroke="black" points="1547,-174.5 1547,-193.5 1681,-193.5 1681,-174.5 1547,-174.5"/>
<text text-anchor="middle" x="1614" y="-181.5" font-family="Helvetica,sans-Serif" font-size="10.00">Core/String/StringUtils.hpp</text>
</a>
</g>
</g>
<!-- Node33&#45;&gt;Node36 -->
<g id="edge51" class="edge"><title>Node33&#45;&gt;Node36</title>
<path fill="none" stroke="midnightblue" d="M1702.24,-236.403C1685.34,-226.557 1657.42,-210.291 1637.51,-198.695"/>
<polygon fill="midnightblue" stroke="midnightblue" points="1639.13,-195.59 1628.73,-193.581 1635.61,-201.638 1639.13,-195.59"/>
</g>
<!-- Node37 -->
<g id="node37" class="node"><title>Node37</title>
<polygon fill="white" stroke="#bfbfbf" points="1487.5,-174.5 1487.5,-193.5 1528.5,-193.5 1528.5,-174.5 1487.5,-174.5"/>
<text text-anchor="middle" x="1508" y="-181.5" font-family="Helvetica,sans-Serif" font-size="10.00">ctime</text>
</g>
<!-- Node33&#45;&gt;Node37 -->
<g id="edge55" class="edge"><title>Node33&#45;&gt;Node37</title>
<path fill="none" stroke="midnightblue" d="M1671.68,-236.454C1634.99,-228.863 1582.32,-216.427 1538,-200 1536.35,-199.388 1534.67,-198.711 1532.99,-197.993"/>
<polygon fill="midnightblue" stroke="midnightblue" points="1534.14,-194.665 1523.59,-193.6 1531.17,-201.006 1534.14,-194.665"/>
</g>
<!-- Node36&#45;&gt;Node4 -->
<g id="edge52" class="edge"><title>Node36&#45;&gt;Node4</title>
<path fill="none" stroke="midnightblue" d="M1572.94,-174.433C1561.35,-172.169 1548.7,-169.845 1537,-168 1425.83,-150.472 1295.04,-136.084 1221.91,-128.597"/>
<polygon fill="midnightblue" stroke="midnightblue" points="1221.85,-125.073 1211.54,-127.543 1221.14,-132.037 1221.85,-125.073"/>
</g>
<!-- Node36&#45;&gt;Node12 -->
<g id="edge54" class="edge"><title>Node36&#45;&gt;Node12</title>
<path fill="none" stroke="midnightblue" d="M1574.57,-174.466C1562.55,-172.096 1549.28,-169.707 1537,-168 1347.92,-141.711 1298.12,-157.987 1109,-132 1104.21,-131.342 1099.17,-130.518 1094.24,-129.638"/>
<polygon fill="midnightblue" stroke="midnightblue" points="1094.87,-126.194 1084.39,-127.786 1093.57,-133.074 1094.87,-126.194"/>
</g>
<!-- Node36&#45;&gt;Node35 -->
<g id="edge53" class="edge"><title>Node36&#45;&gt;Node35</title>
<path fill="none" stroke="midnightblue" d="M1624.6,-174.403C1636.25,-164.958 1655.19,-149.606 1669.33,-138.134"/>
<polygon fill="midnightblue" stroke="midnightblue" points="1671.85,-140.597 1677.42,-131.581 1667.45,-135.16 1671.85,-140.597"/>
</g>
<!-- Node38&#45;&gt;Node1 -->
<g id="edge58" class="edge"><title>Node38&#45;&gt;Node1</title>
<path fill="none" stroke="midnightblue" d="M1877.31,-367.442C1875.52,-367.63 1873.75,-367.816 1872,-368 1709.86,-385.016 1520.53,-404.35 1410.4,-415.27"/>
<polygon fill="midnightblue" stroke="midnightblue" points="1409.93,-411.799 1400.32,-416.267 1410.61,-418.765 1409.93,-411.799"/>
</g>
</g>
</svg>
