<?xml version="1.0" encoding="UTF-8" standalone="no"?>
<!DOCTYPE svg PUBLIC "-//W3C//DTD SVG 1.1//EN"
 "http://www.w3.org/Graphics/SVG/1.1/DTD/svg11.dtd">
<!-- Generated by graphviz version 2.36.0 (20140111.2315)
 -->
<!-- Title: /home/travis/build/STORM&#45;IRIT/Radium&#45;Engine/src/Core/Containers/VectorArray.hpp Pages: 1 -->
<svg width="1049pt" height="354pt"
 viewBox="0.00 0.00 1049.00 354.00" xmlns="http://www.w3.org/2000/svg" xmlns:xlink="http://www.w3.org/1999/xlink">
<g id="graph0" class="graph" transform="scale(1 1) rotate(0) translate(4 350)">
<title>/home/travis/build/STORM&#45;IRIT/Radium&#45;Engine/src/Core/Containers/VectorArray.hpp</title>
<polygon fill="white" stroke="none" points="-4,4 -4,-350 1045,-350 1045,4 -4,4"/>
<!-- Node1 -->
<g id="node1" class="node"><title>Node1</title>
<polygon fill="#bfbfbf" stroke="black" points="94.5,-304.5 94.5,-345.5 275.5,-345.5 275.5,-304.5 94.5,-304.5"/>
<text text-anchor="start" x="102.5" y="-333.5" font-family="Helvetica,sans-Serif" font-size="10.00">/home/travis/build</text>
<text text-anchor="start" x="102.5" y="-322.5" font-family="Helvetica,sans-Serif" font-size="10.00">/STORM&#45;IRIT/Radium&#45;Engine</text>
<text text-anchor="middle" x="185" y="-311.5" font-family="Helvetica,sans-Serif" font-size="10.00">/src/Core/Containers/VectorArray.hpp</text>
</g>
<!-- Node2 -->
<g id="node2" class="node"><title>Node2</title>
<g id="a_node2"><a xlink:href="AlignedStdVector_8hpp.html" target="_top" xlink:title="Core/Containers/AlignedStd\lVector.hpp">
<polygon fill="white" stroke="black" points="0,-237 0,-267 138,-267 138,-237 0,-237"/>
<text text-anchor="start" x="8" y="-255" font-family="Helvetica,sans-Serif" font-size="10.00">Core/Containers/AlignedStd</text>
<text text-anchor="middle" x="69" y="-244" font-family="Helvetica,sans-Serif" font-size="10.00">Vector.hpp</text>
</a>
</g>
</g>
<!-- Node1&#45;&gt;Node2 -->
<g id="edge1" class="edge"><title>Node1&#45;&gt;Node2</title>
<path fill="none" stroke="midnightblue" d="M152.995,-304.411C136.7,-294.437 116.952,-282.35 100.699,-272.402"/>
<polygon fill="midnightblue" stroke="midnightblue" points="102.43,-269.358 92.0739,-267.123 98.7759,-275.329 102.43,-269.358"/>
</g>
<!-- Node3 -->
<g id="node3" class="node"><title>Node3</title>
<g id="a_node3"><a xlink:href="RaCore_8hpp.html" target="_top" xlink:title="Core/RaCore.hpp">
<polygon fill="white" stroke="black" points="176.5,-112.5 176.5,-131.5 269.5,-131.5 269.5,-112.5 176.5,-112.5"/>
<text text-anchor="middle" x="223" y="-119.5" font-family="Helvetica,sans-Serif" font-size="10.00">Core/RaCore.hpp</text>
</a>
</g>
</g>
<!-- Node1&#45;&gt;Node3 -->
<g id="edge25" class="edge"><title>Node1&#45;&gt;Node3</title>
<path fill="none" stroke="midnightblue" d="M188.713,-304.361C196.024,-265.688 212.202,-180.118 219.411,-141.982"/>
<polygon fill="midnightblue" stroke="midnightblue" points="222.923,-142.25 221.341,-131.774 216.044,-140.95 222.923,-142.25"/>
</g>
<!-- Node11 -->
<g id="node11" class="node"><title>Node11</title>
<polygon fill="white" stroke="#bfbfbf" points="132,-174.5 132,-193.5 176,-193.5 176,-174.5 132,-174.5"/>
<text text-anchor="middle" x="154" y="-181.5" font-family="Helvetica,sans-Serif" font-size="10.00">vector</text>
</g>
<!-- Node1&#45;&gt;Node11 -->
<g id="edge26" class="edge"><title>Node1&#45;&gt;Node11</title>
<path fill="none" stroke="midnightblue" d="M180.624,-304.38C174.637,-277.533 163.969,-229.698 158.119,-203.468"/>
<polygon fill="midnightblue" stroke="midnightblue" points="161.527,-202.671 155.934,-193.673 154.695,-204.195 161.527,-202.671"/>
</g>
<!-- Node12 -->
<g id="node12" class="node"><title>Node12</title>
<g id="a_node12"><a xlink:href="LinearAlgebra_8hpp.html" target="_top" xlink:title="Core/Math/LinearAlgebra.hpp">
<polygon fill="white" stroke="black" points="424.5,-242.5 424.5,-261.5 567.5,-261.5 567.5,-242.5 424.5,-242.5"/>
<text text-anchor="middle" x="496" y="-249.5" font-family="Helvetica,sans-Serif" font-size="10.00">Core/Math/LinearAlgebra.hpp</text>
</a>
</g>
</g>
<!-- Node1&#45;&gt;Node12 -->
<g id="edge11" class="edge"><title>Node1&#45;&gt;Node12</title>
<path fill="none" stroke="midnightblue" d="M270.805,-304.411C328.259,-291.295 401.717,-274.524 448.821,-263.771"/>
<polygon fill="midnightblue" stroke="midnightblue" points="449.778,-267.142 458.748,-261.504 448.22,-260.318 449.778,-267.142"/>
</g>
<!-- Node2&#45;&gt;Node3 -->
<g id="edge2" class="edge"><title>Node2&#45;&gt;Node3</title>
<path fill="none" stroke="midnightblue" d="M49.2,-236.816C27.7508,-219.729 -1.1285,-190.516 17,-168 35.4402,-145.097 111.857,-133.218 166.226,-127.546"/>
<polygon fill="midnightblue" stroke="midnightblue" points="166.839,-131.002 176.442,-126.526 166.143,-124.037 166.839,-131.002"/>
</g>
<!-- Node10 -->
<g id="node10" class="node"><title>Node10</title>
<polygon fill="white" stroke="#bfbfbf" points="26,-174.5 26,-193.5 114,-193.5 114,-174.5 26,-174.5"/>
<text text-anchor="middle" x="70" y="-181.5" font-family="Helvetica,sans-Serif" font-size="10.00">Eigen/StdVector</text>
</g>
<!-- Node2&#45;&gt;Node10 -->
<g id="edge9" class="edge"><title>Node2&#45;&gt;Node10</title>
<path fill="none" stroke="midnightblue" d="M69.217,-236.679C69.3621,-227.101 69.5546,-214.394 69.7125,-203.977"/>
<polygon fill="midnightblue" stroke="midnightblue" points="73.2142,-203.88 69.8662,-193.828 66.215,-203.774 73.2142,-203.88"/>
</g>
<!-- Node2&#45;&gt;Node11 -->
<g id="edge10" class="edge"><title>Node2&#45;&gt;Node11</title>
<path fill="none" stroke="midnightblue" d="M87.4437,-236.679C101.353,-225.879 120.389,-211.098 134.54,-200.11"/>
<polygon fill="midnightblue" stroke="midnightblue" points="136.878,-202.726 142.63,-193.828 132.585,-197.197 136.878,-202.726"/>
</g>
<!-- Node4 -->
<g id="node4" class="node"><title>Node4</title>
<g id="a_node4"><a xlink:href="CoreMacros_8hpp.html" target="_top" xlink:title="Core/CoreMacros.hpp">
<polygon fill="white" stroke="black" points="166.5,-56.5 166.5,-75.5 279.5,-75.5 279.5,-56.5 166.5,-56.5"/>
<text text-anchor="middle" x="223" y="-63.5" font-family="Helvetica,sans-Serif" font-size="10.00">Core/CoreMacros.hpp</text>
</a>
</g>
</g>
<!-- Node3&#45;&gt;Node4 -->
<g id="edge3" class="edge"><title>Node3&#45;&gt;Node4</title>
<path fill="none" stroke="midnightblue" d="M223,-112.083C223,-105.006 223,-94.8611 223,-85.9865"/>
<polygon fill="midnightblue" stroke="midnightblue" points="226.5,-85.751 223,-75.7511 219.5,-85.7511 226.5,-85.751"/>
</g>
<!-- Node5 -->
<g id="node5" class="node"><title>Node5</title>
<polygon fill="white" stroke="#bfbfbf" points="67.5,-0.5 67.5,-19.5 116.5,-19.5 116.5,-0.5 67.5,-0.5"/>
<text text-anchor="middle" x="92" y="-7.5" font-family="Helvetica,sans-Serif" font-size="10.00">cassert</text>
</g>
<!-- Node4&#45;&gt;Node5 -->
<g id="edge4" class="edge"><title>Node4&#45;&gt;Node5</title>
<path fill="none" stroke="midnightblue" d="M202.243,-56.4435C180.684,-47.5566 146.737,-33.5632 122.206,-23.4514"/>
<polygon fill="midnightblue" stroke="midnightblue" points="123.239,-20.0917 112.66,-19.5164 120.572,-26.5634 123.239,-20.0917"/>
</g>
<!-- Node6 -->
<g id="node6" class="node"><title>Node6</title>
<polygon fill="white" stroke="#bfbfbf" points="134.5,-0.5 134.5,-19.5 177.5,-19.5 177.5,-0.5 134.5,-0.5"/>
<text text-anchor="middle" x="156" y="-7.5" font-family="Helvetica,sans-Serif" font-size="10.00">cstdio</text>
</g>
<!-- Node4&#45;&gt;Node6 -->
<g id="edge5" class="edge"><title>Node4&#45;&gt;Node6</title>
<path fill="none" stroke="midnightblue" d="M212.235,-56.324C202.234,-48.2631 187.113,-36.0765 175.07,-26.3695"/>
<polygon fill="midnightblue" stroke="midnightblue" points="176.943,-23.3841 166.961,-19.8339 172.55,-28.8343 176.943,-23.3841"/>
</g>
<!-- Node7 -->
<g id="node7" class="node"><title>Node7</title>
<polygon fill="white" stroke="#bfbfbf" points="196,-0.5 196,-19.5 250,-19.5 250,-0.5 196,-0.5"/>
<text text-anchor="middle" x="223" y="-7.5" font-family="Helvetica,sans-Serif" font-size="10.00">iostream</text>
</g>
<!-- Node4&#45;&gt;Node7 -->
<g id="edge6" class="edge"><title>Node4&#45;&gt;Node7</title>
<path fill="none" stroke="midnightblue" d="M223,-56.083C223,-49.0059 223,-38.8611 223,-29.9865"/>
<polygon fill="midnightblue" stroke="midnightblue" points="226.5,-29.751 223,-19.7511 219.5,-29.7511 226.5,-29.751"/>
</g>
<!-- Node8 -->
<g id="node8" class="node"><title>Node8</title>
<polygon fill="white" stroke="#bfbfbf" points="268,-0.5 268,-19.5 320,-19.5 320,-0.5 268,-0.5"/>
<text text-anchor="middle" x="294" y="-7.5" font-family="Helvetica,sans-Serif" font-size="10.00">sstream</text>
</g>
<!-- Node4&#45;&gt;Node8 -->
<g id="edge7" class="edge"><title>Node4&#45;&gt;Node8</title>
<path fill="none" stroke="midnightblue" d="M234.407,-56.324C245.109,-48.1849 261.341,-35.8395 274.163,-26.0874"/>
<polygon fill="midnightblue" stroke="midnightblue" points="276.544,-28.6734 282.385,-19.8339 272.307,-23.1018 276.544,-28.6734"/>
</g>
<!-- Node9 -->
<g id="node9" class="node"><title>Node9</title>
<polygon fill="white" stroke="#bfbfbf" points="338,-0.5 338,-19.5 382,-19.5 382,-0.5 338,-0.5"/>
<text text-anchor="middle" x="360" y="-7.5" font-family="Helvetica,sans-Serif" font-size="10.00">thread</text>
</g>
<!-- Node4&#45;&gt;Node9 -->
<g id="edge8" class="edge"><title>Node4&#45;&gt;Node9</title>
<path fill="none" stroke="midnightblue" d="M244.708,-56.4435C267.355,-47.5171 303.072,-33.4387 328.752,-23.3168"/>
<polygon fill="midnightblue" stroke="midnightblue" points="330.374,-26.4397 338.394,-19.5164 327.807,-19.9273 330.374,-26.4397"/>
</g>
<!-- Node12&#45;&gt;Node3 -->
<g id="edge12" class="edge"><title>Node12&#45;&gt;Node3</title>
<path fill="none" stroke="midnightblue" d="M425.002,-242.463C365.453,-234.082 286.212,-219.69 261,-200 242.319,-185.411 232.185,-159.241 227.187,-141.503"/>
<polygon fill="midnightblue" stroke="midnightblue" points="230.559,-140.561 224.708,-131.728 223.773,-142.282 230.559,-140.561"/>
</g>
<!-- Node13 -->
<g id="node13" class="node"><title>Node13</title>
<polygon fill="white" stroke="#bfbfbf" points="270.5,-174.5 270.5,-193.5 335.5,-193.5 335.5,-174.5 270.5,-174.5"/>
<text text-anchor="middle" x="303" y="-181.5" font-family="Helvetica,sans-Serif" font-size="10.00">Eigen/Core</text>
</g>
<!-- Node12&#45;&gt;Node13 -->
<g id="edge13" class="edge"><title>Node12&#45;&gt;Node13</title>
<path fill="none" stroke="midnightblue" d="M470.305,-242.472C440.219,-232.452 388.911,-215.256 345,-200 342.257,-199.047 339.417,-198.052 336.566,-197.046"/>
<polygon fill="midnightblue" stroke="midnightblue" points="337.557,-193.684 326.962,-193.639 335.216,-200.281 337.557,-193.684"/>
</g>
<!-- Node14 -->
<g id="node14" class="node"><title>Node14</title>
<polygon fill="white" stroke="#bfbfbf" points="353.5,-174.5 353.5,-193.5 440.5,-193.5 440.5,-174.5 353.5,-174.5"/>
<text text-anchor="middle" x="397" y="-181.5" font-family="Helvetica,sans-Serif" font-size="10.00">Eigen/Geometry</text>
</g>
<!-- Node12&#45;&gt;Node14 -->
<g id="edge14" class="edge"><title>Node12&#45;&gt;Node14</title>
<path fill="none" stroke="midnightblue" d="M483.057,-242.372C466.604,-231.403 437.975,-212.317 418.287,-199.191"/>
<polygon fill="midnightblue" stroke="midnightblue" points="420.208,-196.265 409.946,-193.63 416.325,-202.09 420.208,-196.265"/>
</g>
<!-- Node15 -->
<g id="node15" class="node"><title>Node15</title>
<polygon fill="white" stroke="#bfbfbf" points="458.5,-174.5 458.5,-193.5 533.5,-193.5 533.5,-174.5 458.5,-174.5"/>
<text text-anchor="middle" x="496" y="-181.5" font-family="Helvetica,sans-Serif" font-size="10.00">Eigen/Sparse</text>
</g>
<!-- Node12&#45;&gt;Node15 -->
<g id="edge15" class="edge"><title>Node12&#45;&gt;Node15</title>
<path fill="none" stroke="midnightblue" d="M496,-242.372C496,-232.643 496,-216.528 496,-203.85"/>
<polygon fill="midnightblue" stroke="midnightblue" points="499.5,-203.841 496,-193.841 492.5,-203.841 499.5,-203.841"/>
</g>
<!-- Node16 -->
<g id="node16" class="node"><title>Node16</title>
<polygon fill="white" stroke="#bfbfbf" points="551.5,-174.5 551.5,-193.5 610.5,-193.5 610.5,-174.5 551.5,-174.5"/>
<text text-anchor="middle" x="581" y="-181.5" font-family="Helvetica,sans-Serif" font-size="10.00">functional</text>
</g>
<!-- Node12&#45;&gt;Node16 -->
<g id="edge16" class="edge"><title>Node12&#45;&gt;Node16</title>
<path fill="none" stroke="midnightblue" d="M507.112,-242.372C520.984,-231.6 544.937,-213.002 561.802,-199.906"/>
<polygon fill="midnightblue" stroke="midnightblue" points="564.133,-202.528 569.885,-193.63 559.84,-196.999 564.133,-202.528"/>
</g>
<!-- Node17 -->
<g id="node17" class="node"><title>Node17</title>
<polygon fill="white" stroke="#bfbfbf" points="628.5,-169 628.5,-199 761.5,-199 761.5,-169 628.5,-169"/>
<text text-anchor="start" x="636.5" y="-187" font-family="Helvetica,sans-Serif" font-size="10.00">unsupported/Eigen/Aligned</text>
<text text-anchor="middle" x="695" y="-176" font-family="Helvetica,sans-Serif" font-size="10.00">Vector3</text>
</g>
<!-- Node12&#45;&gt;Node17 -->
<g id="edge17" class="edge"><title>Node12&#45;&gt;Node17</title>
<path fill="none" stroke="midnightblue" d="M522.016,-242.372C552.61,-232.225 604.145,-215.133 643.026,-202.237"/>
<polygon fill="midnightblue" stroke="midnightblue" points="644.229,-205.526 652.618,-199.056 642.025,-198.882 644.229,-205.526"/>
</g>
<!-- Node18 -->
<g id="node18" class="node"><title>Node18</title>
<g id="a_node18"><a xlink:href="Math_8hpp.html" target="_top" xlink:title="Core/Math/Math.hpp">
<polygon fill="white" stroke="black" points="780,-174.5 780,-193.5 886,-193.5 886,-174.5 780,-174.5"/>
<text text-anchor="middle" x="833" y="-181.5" font-family="Helvetica,sans-Serif" font-size="10.00">Core/Math/Math.hpp</text>
</a>
</g>
</g>
<!-- Node12&#45;&gt;Node18 -->
<g id="edge18" class="edge"><title>Node12&#45;&gt;Node18</title>
<path fill="none" stroke="midnightblue" d="M545.896,-242.481C600.925,-232.907 692.016,-216.531 770,-200 775.919,-198.745 782.133,-197.355 788.257,-195.942"/>
<polygon fill="midnightblue" stroke="midnightblue" points="789.472,-199.252 798.41,-193.563 787.875,-192.437 789.472,-199.252"/>
</g>
<!-- Node22 -->
<g id="node22" class="node"><title>Node22</title>
<g id="a_node22"><a xlink:href="LinearAlgebra_8inl.html" target="_top" xlink:title="Core/Math/LinearAlgebra.inl">
<polygon fill="white" stroke="black" points="904.5,-174.5 904.5,-193.5 1041.5,-193.5 1041.5,-174.5 904.5,-174.5"/>
<text text-anchor="middle" x="973" y="-181.5" font-family="Helvetica,sans-Serif" font-size="10.00">Core/Math/LinearAlgebra.inl</text>
</a>
</g>
</g>
<!-- Node12&#45;&gt;Node22 -->
<g id="edge24" class="edge"><title>Node12&#45;&gt;Node22</title>
<path fill="none" stroke="midnightblue" d="M567.723,-243.126C647.556,-234.056 780.309,-218.061 894,-200 902.615,-198.631 911.731,-197.037 920.59,-195.409"/>
<polygon fill="midnightblue" stroke="midnightblue" points="921.256,-198.845 930.443,-193.567 919.97,-191.965 921.256,-198.845"/>
</g>
<!-- Node18&#45;&gt;Node3 -->
<g id="edge19" class="edge"><title>Node18&#45;&gt;Node3</title>
<path fill="none" stroke="midnightblue" d="M801.138,-174.422C791.225,-172.021 780.215,-169.627 770,-168 592.549,-139.743 379.716,-128.698 279.915,-124.84"/>
<polygon fill="midnightblue" stroke="midnightblue" points="279.876,-121.336 269.751,-124.457 279.612,-128.331 279.876,-121.336"/>
</g>
<!-- Node19 -->
<g id="node19" class="node"><title>Node19</title>
<polygon fill="white" stroke="#bfbfbf" points="692,-112.5 692,-131.5 748,-131.5 748,-112.5 692,-112.5"/>
<text text-anchor="middle" x="720" y="-119.5" font-family="Helvetica,sans-Serif" font-size="10.00">algorithm</text>
</g>
<!-- Node18&#45;&gt;Node19 -->
<g id="edge20" class="edge"><title>Node18&#45;&gt;Node19</title>
<path fill="none" stroke="midnightblue" d="M816.81,-174.403C798.098,-164.468 767.077,-147.997 745.201,-136.381"/>
<polygon fill="midnightblue" stroke="midnightblue" points="746.634,-133.179 736.16,-131.581 743.351,-139.362 746.634,-133.179"/>
</g>
<!-- Node20 -->
<g id="node20" class="node"><title>Node20</title>
<polygon fill="white" stroke="#bfbfbf" points="766,-112.5 766,-131.5 810,-131.5 810,-112.5 766,-112.5"/>
<text text-anchor="middle" x="788" y="-119.5" font-family="Helvetica,sans-Serif" font-size="10.00">cmath</text>
</g>
<!-- Node18&#45;&gt;Node20 -->
<g id="edge21" class="edge"><title>Node18&#45;&gt;Node20</title>
<path fill="none" stroke="midnightblue" d="M826.553,-174.403C819.803,-165.403 809.031,-151.041 800.587,-139.782"/>
<polygon fill="midnightblue" stroke="midnightblue" points="803.235,-137.481 794.435,-131.581 797.635,-141.681 803.235,-137.481"/>
</g>
<!-- Node21 -->
<g id="node21" class="node"><title>Node21</title>
<g id="a_node21"><a xlink:href="Math_8inl.html" target="_top" xlink:title="Core/Math/Math.inl">
<polygon fill="white" stroke="black" points="828,-112.5 828,-131.5 928,-131.5 928,-112.5 828,-112.5"/>
<text text-anchor="middle" x="878" y="-119.5" font-family="Helvetica,sans-Serif" font-size="10.00">Core/Math/Math.inl</text>
</a>
</g>
</g>
<!-- Node18&#45;&gt;Node21 -->
<g id="edge22" class="edge"><title>Node18&#45;&gt;Node21</title>
<path fill="none" stroke="midnightblue" d="M834.547,-174.403C839.445,-165.225 850.125,-150.47 859.85,-139.117"/>
<polygon fill="midnightblue" stroke="midnightblue" points="862.555,-141.345 866.667,-131.581 857.364,-136.649 862.555,-141.345"/>
</g>
<!-- Node21&#45;&gt;Node18 -->
<g id="edge23" class="edge"><title>Node21&#45;&gt;Node18</title>
<path fill="none" stroke="midnightblue" d="M876.462,-131.581C871.57,-140.752 860.893,-155.506 851.166,-166.863"/>
<polygon fill="midnightblue" stroke="midnightblue" points="848.459,-164.639 844.348,-174.403 853.651,-169.334 848.459,-164.639"/>
</g>
</g>
</svg>
